G04 #@! TF.GenerationSoftware,KiCad,Pcbnew,7.0.1*
G04 #@! TF.CreationDate,2023-07-10T19:39:26+02:00*
G04 #@! TF.ProjectId,orion_power,6f72696f-6e5f-4706-9f77-65722e6b6963,2*
G04 #@! TF.SameCoordinates,Original*
G04 #@! TF.FileFunction,Copper,L4,Bot*
G04 #@! TF.FilePolarity,Positive*
%FSLAX46Y46*%
G04 Gerber Fmt 4.6, Leading zero omitted, Abs format (unit mm)*
G04 Created by KiCad (PCBNEW 7.0.1) date 2023-07-10 19:39:26*
%MOMM*%
%LPD*%
G01*
G04 APERTURE LIST*
G04 Aperture macros list*
%AMRoundRect*
0 Rectangle with rounded corners*
0 $1 Rounding radius*
0 $2 $3 $4 $5 $6 $7 $8 $9 X,Y pos of 4 corners*
0 Add a 4 corners polygon primitive as box body*
4,1,4,$2,$3,$4,$5,$6,$7,$8,$9,$2,$3,0*
0 Add four circle primitives for the rounded corners*
1,1,$1+$1,$2,$3*
1,1,$1+$1,$4,$5*
1,1,$1+$1,$6,$7*
1,1,$1+$1,$8,$9*
0 Add four rect primitives between the rounded corners*
20,1,$1+$1,$2,$3,$4,$5,0*
20,1,$1+$1,$4,$5,$6,$7,0*
20,1,$1+$1,$6,$7,$8,$9,0*
20,1,$1+$1,$8,$9,$2,$3,0*%
G04 Aperture macros list end*
G04 #@! TA.AperFunction,ComponentPad*
%ADD10R,1.700000X1.700000*%
G04 #@! TD*
G04 #@! TA.AperFunction,ComponentPad*
%ADD11O,1.700000X1.700000*%
G04 #@! TD*
G04 #@! TA.AperFunction,ComponentPad*
%ADD12C,1.400000*%
G04 #@! TD*
G04 #@! TA.AperFunction,ComponentPad*
%ADD13R,3.500000X3.500000*%
G04 #@! TD*
G04 #@! TA.AperFunction,ComponentPad*
%ADD14C,3.500000*%
G04 #@! TD*
G04 #@! TA.AperFunction,SMDPad,CuDef*
%ADD15RoundRect,0.135000X-0.185000X0.135000X-0.185000X-0.135000X0.185000X-0.135000X0.185000X0.135000X0*%
G04 #@! TD*
G04 #@! TA.AperFunction,SMDPad,CuDef*
%ADD16RoundRect,0.150000X-0.150000X0.587500X-0.150000X-0.587500X0.150000X-0.587500X0.150000X0.587500X0*%
G04 #@! TD*
G04 #@! TA.AperFunction,SMDPad,CuDef*
%ADD17RoundRect,0.225000X-0.250000X0.225000X-0.250000X-0.225000X0.250000X-0.225000X0.250000X0.225000X0*%
G04 #@! TD*
G04 #@! TA.AperFunction,SMDPad,CuDef*
%ADD18RoundRect,0.200000X0.275000X-0.200000X0.275000X0.200000X-0.275000X0.200000X-0.275000X-0.200000X0*%
G04 #@! TD*
G04 #@! TA.AperFunction,SMDPad,CuDef*
%ADD19RoundRect,0.218750X0.256250X-0.218750X0.256250X0.218750X-0.256250X0.218750X-0.256250X-0.218750X0*%
G04 #@! TD*
G04 #@! TA.AperFunction,SMDPad,CuDef*
%ADD20RoundRect,0.200000X0.200000X0.275000X-0.200000X0.275000X-0.200000X-0.275000X0.200000X-0.275000X0*%
G04 #@! TD*
G04 #@! TA.AperFunction,SMDPad,CuDef*
%ADD21RoundRect,0.135000X0.185000X-0.135000X0.185000X0.135000X-0.185000X0.135000X-0.185000X-0.135000X0*%
G04 #@! TD*
G04 #@! TA.AperFunction,SMDPad,CuDef*
%ADD22R,2.500000X2.300000*%
G04 #@! TD*
G04 #@! TA.AperFunction,SMDPad,CuDef*
%ADD23RoundRect,0.250000X-0.325000X-0.650000X0.325000X-0.650000X0.325000X0.650000X-0.325000X0.650000X0*%
G04 #@! TD*
G04 #@! TA.AperFunction,SMDPad,CuDef*
%ADD24RoundRect,0.250000X0.325000X0.650000X-0.325000X0.650000X-0.325000X-0.650000X0.325000X-0.650000X0*%
G04 #@! TD*
G04 #@! TA.AperFunction,SMDPad,CuDef*
%ADD25RoundRect,0.062500X0.062500X-0.350000X0.062500X0.350000X-0.062500X0.350000X-0.062500X-0.350000X0*%
G04 #@! TD*
G04 #@! TA.AperFunction,SMDPad,CuDef*
%ADD26R,1.350000X1.650000*%
G04 #@! TD*
G04 #@! TA.AperFunction,SMDPad,CuDef*
%ADD27R,2.500000X1.800000*%
G04 #@! TD*
G04 #@! TA.AperFunction,SMDPad,CuDef*
%ADD28RoundRect,0.062500X-0.062500X0.425000X-0.062500X-0.425000X0.062500X-0.425000X0.062500X0.425000X0*%
G04 #@! TD*
G04 #@! TA.AperFunction,SMDPad,CuDef*
%ADD29RoundRect,0.062500X-0.425000X0.062500X-0.425000X-0.062500X0.425000X-0.062500X0.425000X0.062500X0*%
G04 #@! TD*
G04 #@! TA.AperFunction,ComponentPad*
%ADD30C,0.700000*%
G04 #@! TD*
G04 #@! TA.AperFunction,SMDPad,CuDef*
%ADD31R,3.250000X3.250000*%
G04 #@! TD*
G04 #@! TA.AperFunction,SMDPad,CuDef*
%ADD32R,0.600000X0.700000*%
G04 #@! TD*
G04 #@! TA.AperFunction,SMDPad,CuDef*
%ADD33R,0.650000X0.500000*%
G04 #@! TD*
G04 #@! TA.AperFunction,SMDPad,CuDef*
%ADD34R,4.120000X4.600000*%
G04 #@! TD*
G04 #@! TA.AperFunction,SMDPad,CuDef*
%ADD35R,0.550000X0.500000*%
G04 #@! TD*
G04 #@! TA.AperFunction,ComponentPad*
%ADD36RoundRect,0.250000X0.600000X0.750000X-0.600000X0.750000X-0.600000X-0.750000X0.600000X-0.750000X0*%
G04 #@! TD*
G04 #@! TA.AperFunction,ComponentPad*
%ADD37O,1.700000X2.000000*%
G04 #@! TD*
G04 #@! TA.AperFunction,SMDPad,CuDef*
%ADD38RoundRect,0.243750X-0.243750X-0.456250X0.243750X-0.456250X0.243750X0.456250X-0.243750X0.456250X0*%
G04 #@! TD*
G04 #@! TA.AperFunction,SMDPad,CuDef*
%ADD39RoundRect,0.225000X0.225000X0.250000X-0.225000X0.250000X-0.225000X-0.250000X0.225000X-0.250000X0*%
G04 #@! TD*
G04 #@! TA.AperFunction,SMDPad,CuDef*
%ADD40RoundRect,0.250000X0.312500X0.625000X-0.312500X0.625000X-0.312500X-0.625000X0.312500X-0.625000X0*%
G04 #@! TD*
G04 #@! TA.AperFunction,SMDPad,CuDef*
%ADD41RoundRect,0.150000X0.512500X0.150000X-0.512500X0.150000X-0.512500X-0.150000X0.512500X-0.150000X0*%
G04 #@! TD*
G04 #@! TA.AperFunction,SMDPad,CuDef*
%ADD42RoundRect,0.587500X-0.587500X-1.162500X0.587500X-1.162500X0.587500X1.162500X-0.587500X1.162500X0*%
G04 #@! TD*
G04 #@! TA.AperFunction,SMDPad,CuDef*
%ADD43R,0.900000X1.200000*%
G04 #@! TD*
G04 #@! TA.AperFunction,SMDPad,CuDef*
%ADD44RoundRect,0.218750X-0.256250X0.218750X-0.256250X-0.218750X0.256250X-0.218750X0.256250X0.218750X0*%
G04 #@! TD*
G04 #@! TA.AperFunction,ViaPad*
%ADD45C,0.700000*%
G04 #@! TD*
G04 #@! TA.AperFunction,ViaPad*
%ADD46C,0.800000*%
G04 #@! TD*
G04 #@! TA.AperFunction,Conductor*
%ADD47C,0.200000*%
G04 #@! TD*
G04 #@! TA.AperFunction,Conductor*
%ADD48C,0.500000*%
G04 #@! TD*
G04 #@! TA.AperFunction,Conductor*
%ADD49C,0.700000*%
G04 #@! TD*
G04 #@! TA.AperFunction,Conductor*
%ADD50C,2.000000*%
G04 #@! TD*
G04 #@! TA.AperFunction,Conductor*
%ADD51C,0.300000*%
G04 #@! TD*
G04 #@! TA.AperFunction,Conductor*
%ADD52C,1.700000*%
G04 #@! TD*
G04 APERTURE END LIST*
D10*
X115200000Y-69995000D03*
D11*
X117740000Y-69995000D03*
X115200000Y-72535000D03*
X117740000Y-72535000D03*
X115200000Y-75075000D03*
X117740000Y-75075000D03*
X115200000Y-77615000D03*
X117740000Y-77615000D03*
X115200000Y-80155000D03*
X117740000Y-80155000D03*
D12*
X87650000Y-81575000D03*
X87650000Y-70575000D03*
D13*
X97650000Y-73575000D03*
D14*
X97650000Y-78575000D03*
D15*
X108475000Y-51865000D03*
X108475000Y-52885000D03*
D16*
X105250000Y-52387500D03*
X107150000Y-52387500D03*
X106200000Y-54262500D03*
D15*
X103900000Y-51865000D03*
X103900000Y-52885000D03*
D17*
X96775000Y-68550000D03*
X96775000Y-70100000D03*
D18*
X93300000Y-84487500D03*
X93300000Y-82837500D03*
D19*
X113375000Y-80462500D03*
X113375000Y-78887500D03*
D20*
X95150000Y-66925000D03*
X93500000Y-66925000D03*
D21*
X108475000Y-54835000D03*
X108475000Y-53815000D03*
D18*
X96500000Y-84487500D03*
X96500000Y-82837500D03*
D22*
X118425000Y-83525000D03*
X114125000Y-83525000D03*
D23*
X103665000Y-64070001D03*
X106615000Y-64070001D03*
D20*
X95150000Y-68575000D03*
X93500000Y-68575000D03*
D24*
X111490000Y-72820002D03*
X108540000Y-72820002D03*
D25*
X95725000Y-56062500D03*
X95225000Y-56062500D03*
X94725000Y-56062500D03*
X94725000Y-53187500D03*
X95225000Y-53187500D03*
X95725000Y-53187500D03*
D26*
X95225000Y-54625000D03*
D27*
X92275000Y-54275000D03*
X88275000Y-54275000D03*
X92275000Y-57975000D03*
X88275000Y-57975000D03*
D17*
X96775000Y-65400000D03*
X96775000Y-66950000D03*
D23*
X103665000Y-72820001D03*
X106615000Y-72820001D03*
D28*
X99575000Y-66092497D03*
X100075000Y-66092497D03*
X100575000Y-66092497D03*
X101075000Y-66092497D03*
X101575000Y-66092497D03*
X102075000Y-66092497D03*
X102575000Y-66092497D03*
D29*
X103437500Y-66954997D03*
X103437500Y-67454997D03*
X103437500Y-67954997D03*
X103437500Y-68454997D03*
X103437500Y-68954997D03*
X103437500Y-69454997D03*
X103437500Y-69954997D03*
D28*
X102575000Y-70817497D03*
X102075000Y-70817497D03*
X101575000Y-70817497D03*
X101075000Y-70817497D03*
X100575000Y-70817497D03*
X100075000Y-70817497D03*
X99575000Y-70817497D03*
D29*
X98712500Y-69954997D03*
X98712500Y-69454997D03*
X98712500Y-68954997D03*
X98712500Y-68454997D03*
X98712500Y-67954997D03*
X98712500Y-67454997D03*
X98712500Y-66954997D03*
D30*
X102325000Y-67204997D03*
X101075000Y-67204997D03*
X99825000Y-67204997D03*
X102325000Y-68454997D03*
X101075000Y-68454997D03*
D31*
X101075000Y-68454997D03*
D30*
X99825000Y-68454997D03*
X102325000Y-69704997D03*
X101075000Y-69704997D03*
X99825000Y-69704997D03*
D32*
X95925000Y-57575000D03*
X94525000Y-57575000D03*
D33*
X97175000Y-61630000D03*
X97175000Y-60360000D03*
X97175000Y-59090000D03*
X97175000Y-57820000D03*
D34*
X100390000Y-59725000D03*
D35*
X102725000Y-57820000D03*
X102725000Y-59090000D03*
X102725000Y-60360000D03*
X102725000Y-61630000D03*
D36*
X118000000Y-55525000D03*
D37*
X115500000Y-55525000D03*
D17*
X102025000Y-72375000D03*
X102025000Y-73925000D03*
D38*
X110637500Y-70475000D03*
X112512500Y-70475000D03*
D39*
X98900000Y-55975000D03*
X97350000Y-55975000D03*
D40*
X100387500Y-53625000D03*
X97462500Y-53625000D03*
D24*
X111490000Y-68045001D03*
X108540000Y-68045001D03*
D41*
X102575000Y-82775000D03*
X102575000Y-83725000D03*
X102575000Y-84675000D03*
X100300000Y-84675000D03*
X100300000Y-83725000D03*
X100300000Y-82775000D03*
D21*
X103900000Y-54835000D03*
X103900000Y-53815000D03*
D42*
X105140000Y-59020001D03*
X111190000Y-59020001D03*
D36*
X118000000Y-62375000D03*
D37*
X115500000Y-62375000D03*
D43*
X115925000Y-67475000D03*
X119225000Y-67475000D03*
D16*
X109800000Y-52387500D03*
X111700000Y-52387500D03*
X110750000Y-54262500D03*
D42*
X105140000Y-77895001D03*
X111190000Y-77895001D03*
D44*
X98125000Y-82900000D03*
X98125000Y-84475000D03*
D39*
X102015000Y-63645001D03*
X100465000Y-63645001D03*
D24*
X111490000Y-64070001D03*
X108540000Y-64070001D03*
D44*
X94900000Y-82875000D03*
X94900000Y-84450000D03*
D45*
X95925000Y-67725000D03*
X97675000Y-63375000D03*
X100725000Y-75675000D03*
X87375000Y-60525000D03*
X106775000Y-67475000D03*
X119825000Y-54575001D03*
X106000000Y-82975000D03*
X93350000Y-74575000D03*
D46*
X97875000Y-66075000D03*
X99325000Y-63576120D03*
D45*
X119825000Y-56574998D03*
X87375000Y-62025000D03*
X115825000Y-82700000D03*
X102750000Y-53075000D03*
X87875000Y-72550000D03*
X106675000Y-71295001D03*
X99149500Y-84274500D03*
X107675000Y-66495001D03*
X113945000Y-67945000D03*
X108000001Y-82975000D03*
X119825000Y-58575000D03*
X94350000Y-71575000D03*
X93350000Y-72575000D03*
X113945000Y-67045000D03*
X119825000Y-52575000D03*
X87075000Y-52150000D03*
X103275000Y-77125000D03*
X88575000Y-52150000D03*
X93350000Y-73575000D03*
D46*
X95550000Y-70100000D03*
D45*
X101825000Y-53100000D03*
X114875000Y-67050000D03*
X114875000Y-67950000D03*
X88625000Y-85025000D03*
X87375000Y-63525000D03*
X87875000Y-75550000D03*
X110000000Y-82975000D03*
X87375000Y-65025000D03*
X101825000Y-54075000D03*
X89650000Y-85025000D03*
X90075000Y-52150000D03*
X85575000Y-53675000D03*
X92275000Y-68475000D03*
X87875000Y-77050000D03*
X115825000Y-83475000D03*
X94350000Y-72575000D03*
X87375000Y-68775000D03*
X90650000Y-85025000D03*
X108274912Y-55450852D03*
X107575000Y-71295001D03*
X106675000Y-70395001D03*
X106775000Y-66495001D03*
X103275000Y-78675000D03*
X87375000Y-67025000D03*
X108475000Y-70395001D03*
X108575000Y-65595001D03*
X107575000Y-70395001D03*
X91650000Y-85025000D03*
X102750000Y-54050000D03*
X107675000Y-65595001D03*
X119825000Y-62574998D03*
X108475000Y-71295001D03*
X94350000Y-75575000D03*
X112000000Y-82975000D03*
X93350000Y-70575000D03*
X93350000Y-71575000D03*
X106775000Y-68375000D03*
X115825000Y-84275000D03*
X92275000Y-67475000D03*
X99150000Y-53600000D03*
X102575000Y-82100000D03*
X109475000Y-66495001D03*
X106775000Y-65595001D03*
X119825000Y-64575000D03*
X119825000Y-60575001D03*
X85625000Y-81775000D03*
X101500000Y-74900000D03*
X94350000Y-74575000D03*
X108575000Y-66495001D03*
X87875000Y-74050000D03*
X93350000Y-75575000D03*
X94350000Y-73575000D03*
X101437500Y-83239127D03*
X97975000Y-71275000D03*
X103900000Y-70825000D03*
X95150000Y-65875000D03*
X104425000Y-82825000D03*
X103900000Y-66150000D03*
X103825000Y-75000000D03*
X102075000Y-55525000D03*
X101175000Y-56425000D03*
X103050000Y-74200000D03*
X102075000Y-56425000D03*
X103850000Y-74200000D03*
X103050000Y-75000000D03*
X101175000Y-55525000D03*
X91950000Y-66125000D03*
X112775000Y-59025000D03*
X98525000Y-62675000D03*
X103590000Y-62170000D03*
X96049503Y-66236354D03*
X103140000Y-65545001D03*
X105040000Y-65595001D03*
X105040000Y-71295001D03*
X103115000Y-71395001D03*
X105175000Y-81875000D03*
X112375000Y-80475000D03*
X102750000Y-52050000D03*
X95150000Y-60275000D03*
X95150000Y-59375000D03*
X96050000Y-59375000D03*
X96050000Y-60275000D03*
X95651311Y-83681222D03*
X105150000Y-55325000D03*
X105150000Y-54500000D03*
X105150000Y-53700000D03*
X109675000Y-55325000D03*
X110510000Y-55340000D03*
X97524500Y-84450000D03*
X109675000Y-54500000D03*
X109305806Y-53583959D03*
X107275000Y-54500000D03*
X107275000Y-55325000D03*
X107275000Y-53700000D03*
X111800000Y-53700000D03*
X111800000Y-55325000D03*
X111800000Y-54500000D03*
D47*
X97952499Y-63752499D02*
X98397500Y-64197500D01*
X100866084Y-64818449D02*
X101375195Y-65327560D01*
X97675000Y-63375000D02*
X97675000Y-63425000D01*
X101295678Y-71886859D02*
X101123448Y-72059089D01*
X99904145Y-64420001D02*
X98934664Y-64420001D01*
X101575000Y-71212517D02*
X101575000Y-70817497D01*
X100725000Y-75675000D02*
X100725000Y-73021028D01*
X101575000Y-65809931D02*
X101575000Y-66092497D01*
X97952499Y-63752499D02*
X97710355Y-63510355D01*
X97674997Y-63425000D02*
G75*
G03*
X97710355Y-63510355I120703J0D01*
G01*
X100866064Y-64818469D02*
G75*
G03*
X99904145Y-64420001I-961964J-961931D01*
G01*
X101574970Y-65809931D02*
G75*
G03*
X101375195Y-65327560I-682170J31D01*
G01*
X101123431Y-72059072D02*
G75*
G03*
X100725000Y-73021028I961969J-961928D01*
G01*
X101295677Y-71886858D02*
G75*
G03*
X101575000Y-71212517I-674377J674358D01*
G01*
X98397510Y-64197490D02*
G75*
G03*
X98934664Y-64420001I537190J537190D01*
G01*
D48*
X102575000Y-82775000D02*
X102575000Y-82100000D01*
D49*
X97333578Y-65933578D02*
X96808838Y-65408838D01*
D48*
X99149500Y-84274500D02*
X99550000Y-84675000D01*
D47*
X108475000Y-55250764D02*
X108274912Y-55450852D01*
X103900000Y-54835000D02*
X103717107Y-54835000D01*
D49*
X97675000Y-66075000D02*
X97875000Y-66075000D01*
D47*
X103363553Y-54688553D02*
X102750000Y-54075000D01*
X102750000Y-54075000D02*
X102750000Y-54050000D01*
X108475000Y-54835000D02*
X108475000Y-55250764D01*
D49*
X96787500Y-65400000D02*
X96775000Y-65400000D01*
D50*
X94350000Y-73575000D02*
X97650000Y-73575000D01*
D49*
X95550000Y-70100000D02*
X96775000Y-70100000D01*
D48*
X99550000Y-84675000D02*
X100300000Y-84675000D01*
D47*
X103363550Y-54688556D02*
G75*
G03*
X103717107Y-54835000I353550J353556D01*
G01*
D49*
X97333587Y-65933569D02*
G75*
G03*
X97675000Y-66075000I341413J341369D01*
G01*
X96808843Y-65408833D02*
G75*
G03*
X96787500Y-65400000I-21343J-21367D01*
G01*
D51*
X99070104Y-81950000D02*
X93099978Y-81950000D01*
X92325000Y-82711400D02*
X92325000Y-83762941D01*
X92965549Y-84487500D02*
X93300000Y-84487500D01*
X100300000Y-82775000D02*
X99761305Y-82236305D01*
X92545658Y-84295658D02*
X92576246Y-84326246D01*
X92324978Y-83762941D02*
G75*
G03*
X92545658Y-84295658I753422J41D01*
G01*
X93099978Y-81949995D02*
G75*
G03*
X92545206Y-82179794I22J-784605D01*
G01*
X92545203Y-82179791D02*
G75*
G03*
X92325000Y-82711400I531597J-531609D01*
G01*
X99761302Y-82236308D02*
G75*
G03*
X99070104Y-81950000I-691202J-691192D01*
G01*
X92576213Y-84326279D02*
G75*
G03*
X92965549Y-84487500I389287J389379D01*
G01*
D48*
X94862500Y-82837500D02*
X94900000Y-82875000D01*
X93300000Y-82837500D02*
X94862500Y-82837500D01*
D51*
X102575000Y-84675000D02*
X102223799Y-85026201D01*
X101502434Y-85325000D02*
X97082107Y-85325000D01*
X96728553Y-85178553D02*
X96646446Y-85096446D01*
X96500000Y-84742893D02*
X96500000Y-84487500D01*
X96500005Y-84742893D02*
G75*
G03*
X96646446Y-85096446I499995J-7D01*
G01*
X96728550Y-85178556D02*
G75*
G03*
X97082107Y-85325000I353550J353556D01*
G01*
X101502434Y-85325013D02*
G75*
G03*
X102223799Y-85026201I-34J1020213D01*
G01*
D48*
X98062500Y-82837500D02*
X98125000Y-82900000D01*
X96500000Y-82837500D02*
X98062500Y-82837500D01*
D47*
X103581574Y-70506574D02*
X103900000Y-70825000D01*
X93756326Y-69556326D02*
X95025000Y-70825000D01*
X103437500Y-70158748D02*
X103437500Y-69954997D01*
X101437500Y-83239127D02*
X101135326Y-83541301D01*
X100691838Y-83725000D02*
X100300000Y-83725000D01*
X97975000Y-71275000D02*
X95978227Y-71275000D01*
X93500000Y-68937500D02*
X93500000Y-68575000D01*
X95025000Y-70825000D02*
X95119165Y-70919165D01*
X93499985Y-68937500D02*
G75*
G03*
X93756326Y-69556326I875115J0D01*
G01*
X100691838Y-83725022D02*
G75*
G03*
X101135325Y-83541300I-38J627222D01*
G01*
X95119151Y-70919179D02*
G75*
G03*
X95978227Y-71275000I859049J859079D01*
G01*
X103437537Y-70158748D02*
G75*
G03*
X103581574Y-70506574I491863J-52D01*
G01*
X94337867Y-66087132D02*
X93500000Y-66925000D01*
X103437500Y-66783748D02*
X103437500Y-66954997D01*
X94850000Y-65875000D02*
X95150000Y-65875000D01*
X103153119Y-83725000D02*
X102575000Y-83725000D01*
X103558590Y-66491409D02*
X103900000Y-66150000D01*
X104425000Y-82825000D02*
X103787959Y-83462041D01*
X103153119Y-83725013D02*
G75*
G03*
X103787959Y-83462041I-19J897813D01*
G01*
X103558573Y-66491392D02*
G75*
G03*
X103437500Y-66783748I292327J-292308D01*
G01*
X94850000Y-65875010D02*
G75*
G03*
X94337867Y-66087132I0J-724290D01*
G01*
X100075000Y-65842421D02*
X100075000Y-66092497D01*
X99898169Y-65415514D02*
X99891327Y-65408672D01*
X94859247Y-65227514D02*
X96318821Y-64599490D01*
X93161509Y-66125000D02*
X91950000Y-66125000D01*
X100075000Y-66092497D02*
X100575000Y-66092497D01*
X98369974Y-65225000D02*
X99447902Y-65225000D01*
X93161509Y-66125001D02*
G75*
G03*
X94123447Y-65726551I-9J1360401D01*
G01*
X94859240Y-65227498D02*
G75*
G03*
X94123447Y-65726551I932160J-2166302D01*
G01*
X96680025Y-64525000D02*
G75*
G03*
X96318821Y-64599491I375J-914800D01*
G01*
X100074995Y-65842421D02*
G75*
G03*
X99898168Y-65415515I-603695J21D01*
G01*
X97524993Y-64875007D02*
G75*
G03*
X96680025Y-64525000I-844993J-844993D01*
G01*
X99891326Y-65408673D02*
G75*
G03*
X99447902Y-65225000I-443426J-443427D01*
G01*
X97525007Y-64874993D02*
G75*
G03*
X98369974Y-65225000I844993J844993D01*
G01*
X96769074Y-66950000D02*
X96775000Y-66950000D01*
X97074999Y-62874999D02*
X97058328Y-62891671D01*
X101075000Y-65842421D02*
X101075000Y-66092497D01*
X97058328Y-63776860D02*
X97792081Y-64510613D01*
X97557842Y-62675000D02*
X98525000Y-62675000D01*
X96758959Y-66945810D02*
X96049503Y-66236354D01*
X98537805Y-64819502D02*
X99755674Y-64819502D01*
X112775000Y-59025000D02*
X112770001Y-59020001D01*
X112770001Y-59020001D02*
X111190000Y-59020001D01*
X100898169Y-65415514D02*
X100688578Y-65205923D01*
X97557842Y-62675017D02*
G75*
G03*
X97075000Y-62875000I-42J-682783D01*
G01*
X97792081Y-64510613D02*
G75*
G03*
X98537805Y-64819502I745719J745713D01*
G01*
X100688585Y-65205916D02*
G75*
G03*
X99755674Y-64819502I-932885J-932884D01*
G01*
X96758973Y-66945796D02*
G75*
G03*
X96769074Y-66950000I10127J10096D01*
G01*
X97058350Y-62891693D02*
G75*
G03*
X96875000Y-63334266I442550J-442607D01*
G01*
X96875018Y-63334266D02*
G75*
G03*
X97058329Y-63776859I625882J-34D01*
G01*
X101074995Y-65842421D02*
G75*
G03*
X100898168Y-65415515I-603695J21D01*
G01*
X102598692Y-66086308D02*
X103140000Y-65545001D01*
X102583752Y-66092497D02*
X102575000Y-66092497D01*
X102583752Y-66092542D02*
G75*
G03*
X102598692Y-66086308I-52J21142D01*
G01*
D51*
X103437500Y-67954997D02*
X104230004Y-67954997D01*
X103437500Y-67454997D02*
X104280004Y-67454997D01*
D47*
X102575000Y-70836249D02*
X102575000Y-70817497D01*
X102588259Y-70868260D02*
X103115000Y-71395001D01*
X102575045Y-70836249D02*
G75*
G03*
X102588259Y-70868260I45255J-51D01*
G01*
X100423448Y-76923448D02*
X102876551Y-79376551D01*
X101075000Y-70817497D02*
X101075000Y-71180027D01*
X100818652Y-71798905D02*
X100423447Y-72194109D01*
X104105387Y-81875000D02*
X105175000Y-81875000D01*
X103535807Y-81610807D02*
X103584058Y-81659058D01*
X105175000Y-81875000D02*
X105174064Y-81874064D01*
X103275000Y-80338490D02*
X103275000Y-80981165D01*
X100025000Y-73156048D02*
X100025000Y-75961509D01*
X103275012Y-80981165D02*
G75*
G03*
X103535808Y-81610806I890388J-35D01*
G01*
X100423421Y-72194083D02*
G75*
G03*
X100025000Y-73156048I961979J-961917D01*
G01*
X103584058Y-81659058D02*
G75*
G03*
X104105387Y-81875000I521342J521358D01*
G01*
X100024998Y-75961509D02*
G75*
G03*
X100423449Y-76923447I1360402J9D01*
G01*
X103275002Y-80338490D02*
G75*
G03*
X102876550Y-79376552I-1360402J-10D01*
G01*
X100818633Y-71798886D02*
G75*
G03*
X101075000Y-71180027I-618833J618886D01*
G01*
X102750000Y-52050000D02*
X103065000Y-52050000D01*
X103065000Y-52050000D02*
X103900000Y-52885000D01*
X103900000Y-53815000D02*
X103900000Y-52885000D01*
D52*
X115204999Y-72535000D02*
X117744999Y-72535000D01*
D48*
X94900000Y-84432533D02*
X95651311Y-83681222D01*
X94900000Y-84450000D02*
X94900000Y-84432533D01*
X98100000Y-84450000D02*
X98125000Y-84475000D01*
D52*
X115204999Y-77615000D02*
X117744999Y-77615000D01*
D48*
X97524500Y-84450000D02*
X98100000Y-84450000D01*
D47*
X108475000Y-53815000D02*
X108475000Y-52885000D01*
X108475000Y-53815000D02*
X109074765Y-53815000D01*
X109074765Y-53815000D02*
X109305806Y-53583959D01*
X105043797Y-52181297D02*
X105250000Y-52387500D01*
X103900000Y-51865000D02*
X104280187Y-51865000D01*
X105043802Y-52181292D02*
G75*
G03*
X104280187Y-51865000I-763602J-763608D01*
G01*
X109542961Y-52130461D02*
X109800000Y-52387500D01*
X108475000Y-51865000D02*
X108902080Y-51865000D01*
X109542962Y-52130460D02*
G75*
G03*
X108902080Y-51865000I-640862J-640840D01*
G01*
G04 #@! TA.AperFunction,Conductor*
G36*
X118065500Y-79793263D02*
G01*
X118101737Y-79829500D01*
X118115000Y-79879000D01*
X118115000Y-80431000D01*
X118101737Y-80480500D01*
X118065500Y-80516737D01*
X118016000Y-80530000D01*
X115575001Y-80530000D01*
X115575000Y-80530001D01*
X115575000Y-81452142D01*
X115663495Y-81428429D01*
X115877576Y-81328601D01*
X116071074Y-81193112D01*
X116238112Y-81026074D01*
X116373598Y-80832581D01*
X116380275Y-80818263D01*
X116416807Y-80776606D01*
X116470000Y-80761102D01*
X116523193Y-80776606D01*
X116559725Y-80818263D01*
X116566401Y-80832581D01*
X116701887Y-81026074D01*
X116868925Y-81193112D01*
X117005144Y-81288494D01*
X117040365Y-81333038D01*
X117045315Y-81389609D01*
X117018365Y-81439593D01*
X116987971Y-81469987D01*
X116949977Y-81516283D01*
X116928522Y-81548393D01*
X116900289Y-81601215D01*
X116882907Y-81658516D01*
X116875368Y-81696416D01*
X116869500Y-81756005D01*
X116869500Y-84576001D01*
X116873653Y-84607551D01*
X116874500Y-84620470D01*
X116874500Y-84719862D01*
X116877032Y-84741693D01*
X116877415Y-84744991D01*
X116890659Y-84774986D01*
X116922793Y-84847764D01*
X116922794Y-84847765D01*
X117002235Y-84927206D01*
X117105009Y-84972585D01*
X117130135Y-84975500D01*
X117229527Y-84975499D01*
X117242451Y-84976345D01*
X117274000Y-84980500D01*
X119895883Y-84980500D01*
X119953788Y-84999200D01*
X119989817Y-85048236D01*
X119990360Y-85109083D01*
X119955211Y-85158754D01*
X119899484Y-85200470D01*
X119887602Y-85208106D01*
X119827255Y-85241058D01*
X119687610Y-85317310D01*
X119687216Y-85317525D01*
X119674367Y-85323393D01*
X119460435Y-85403185D01*
X119446882Y-85407164D01*
X119223787Y-85455696D01*
X119209806Y-85457707D01*
X119006139Y-85472273D01*
X118978536Y-85474248D01*
X118971476Y-85474500D01*
X109431173Y-85474500D01*
X102651612Y-85474500D01*
X102596611Y-85457815D01*
X102560148Y-85413386D01*
X102554514Y-85356186D01*
X102581608Y-85305496D01*
X102582608Y-85304496D01*
X102614726Y-85283036D01*
X102652612Y-85275500D01*
X103141770Y-85275500D01*
X103156982Y-85274072D01*
X103172199Y-85272646D01*
X103300382Y-85227793D01*
X103409650Y-85147150D01*
X103490293Y-85037882D01*
X103535146Y-84909699D01*
X103538000Y-84879266D01*
X103538000Y-84470734D01*
X103535146Y-84440301D01*
X103490293Y-84312118D01*
X103450934Y-84258788D01*
X103433804Y-84220825D01*
X103433804Y-84179176D01*
X103450933Y-84141213D01*
X103476402Y-84106703D01*
X103525459Y-84071340D01*
X103651501Y-84030385D01*
X103797622Y-83955930D01*
X103833586Y-83937605D01*
X103998906Y-83817487D01*
X103998905Y-83817487D01*
X103998909Y-83817485D01*
X104048868Y-83767525D01*
X104177673Y-83638718D01*
X104190838Y-83627665D01*
X104206830Y-83616455D01*
X104275875Y-83557757D01*
X104295214Y-83544894D01*
X104307734Y-83538545D01*
X104327971Y-83530932D01*
X104372104Y-83519644D01*
X104375311Y-83518882D01*
X104478714Y-83496096D01*
X104495040Y-83492023D01*
X104496277Y-83491678D01*
X104512262Y-83486744D01*
X104645190Y-83441694D01*
X104645196Y-83441691D01*
X104651593Y-83439523D01*
X104651780Y-83440076D01*
X104655362Y-83438747D01*
X104657363Y-83437696D01*
X104657365Y-83437696D01*
X104797240Y-83364283D01*
X104915483Y-83259530D01*
X105005220Y-83129523D01*
X105061237Y-82981818D01*
X105080278Y-82825000D01*
X105061237Y-82668182D01*
X105057983Y-82659604D01*
X105052273Y-82612566D01*
X105069076Y-82568261D01*
X105104544Y-82536840D01*
X105150551Y-82525500D01*
X105253987Y-82525500D01*
X105407363Y-82487697D01*
X105417074Y-82482600D01*
X105547240Y-82414283D01*
X105665483Y-82309530D01*
X105755220Y-82179523D01*
X105811237Y-82031818D01*
X105830278Y-81875000D01*
X105811237Y-81718182D01*
X105755220Y-81570477D01*
X105665483Y-81440470D01*
X105612016Y-81393103D01*
X105581543Y-81342693D01*
X105585099Y-81283895D01*
X105621428Y-81237526D01*
X105677666Y-81220001D01*
X109619484Y-81220001D01*
X109663270Y-81230210D01*
X109698025Y-81258733D01*
X109716581Y-81299686D01*
X109722904Y-81331473D01*
X109740289Y-81388784D01*
X109768522Y-81441606D01*
X109789977Y-81473717D01*
X109827970Y-81520012D01*
X110019987Y-81712029D01*
X110066282Y-81750022D01*
X110098393Y-81771477D01*
X110098395Y-81771478D01*
X110098398Y-81771480D01*
X110151214Y-81799710D01*
X110208522Y-81817094D01*
X110246408Y-81824630D01*
X110246413Y-81824630D01*
X110246416Y-81824631D01*
X110306005Y-81830500D01*
X112470582Y-81830500D01*
X112528486Y-81849200D01*
X112564516Y-81898235D01*
X112565059Y-81959081D01*
X112529912Y-82008753D01*
X112517810Y-82017812D01*
X112431646Y-82132910D01*
X112425272Y-82150000D01*
X112300000Y-82150000D01*
X111950000Y-82500000D01*
X111950000Y-84750000D01*
X112300000Y-85100000D01*
X112608394Y-85100000D01*
X112632910Y-85118353D01*
X112767623Y-85168598D01*
X112827174Y-85175000D01*
X113749999Y-85175000D01*
X113750000Y-85174999D01*
X113750000Y-85100000D01*
X114500000Y-85100000D01*
X114500000Y-85174999D01*
X114500001Y-85175000D01*
X115422826Y-85175000D01*
X115482376Y-85168598D01*
X115617089Y-85118353D01*
X115641605Y-85100000D01*
X115950000Y-85100000D01*
X116300000Y-84750000D01*
X116300000Y-82500000D01*
X115950000Y-82150000D01*
X115824727Y-82150000D01*
X115818353Y-82132910D01*
X115732188Y-82017811D01*
X115617089Y-81931646D01*
X115482376Y-81881401D01*
X115422826Y-81875000D01*
X114500001Y-81875000D01*
X114500000Y-81875001D01*
X114500000Y-82150000D01*
X113750000Y-82150000D01*
X113750000Y-81835490D01*
X113761691Y-81788820D01*
X113794001Y-81753172D01*
X113798720Y-81750020D01*
X113845017Y-81712025D01*
X114037025Y-81520017D01*
X114075020Y-81473720D01*
X114096480Y-81441602D01*
X114124710Y-81388786D01*
X114142094Y-81331478D01*
X114149630Y-81293592D01*
X114150585Y-81283895D01*
X114154198Y-81247214D01*
X114174674Y-81196009D01*
X114219368Y-81163703D01*
X114274412Y-81160321D01*
X114322725Y-81186912D01*
X114328925Y-81193112D01*
X114522423Y-81328601D01*
X114736504Y-81428429D01*
X114825000Y-81452142D01*
X114825000Y-79879000D01*
X114838263Y-79829500D01*
X114874500Y-79793263D01*
X114924000Y-79780000D01*
X118016000Y-79780000D01*
X118065500Y-79793263D01*
G37*
G04 #@! TD.AperFunction*
G04 #@! TA.AperFunction,Conductor*
G36*
X90719819Y-51588361D02*
G01*
X90755937Y-51623604D01*
X90769992Y-51672070D01*
X90758332Y-51721168D01*
X90750289Y-51736213D01*
X90732907Y-51793516D01*
X90725368Y-51831416D01*
X90719500Y-51891005D01*
X90719500Y-53276000D01*
X90706237Y-53325500D01*
X90670000Y-53361737D01*
X90620500Y-53375000D01*
X89917997Y-53375000D01*
X89863950Y-53358945D01*
X89827432Y-53315987D01*
X89777207Y-53202236D01*
X89697764Y-53122793D01*
X89594989Y-53077414D01*
X89569868Y-53074500D01*
X89569865Y-53074500D01*
X89470468Y-53074500D01*
X89457546Y-53073653D01*
X89426001Y-53069500D01*
X89426000Y-53069500D01*
X87124000Y-53069500D01*
X87123998Y-53069500D01*
X87092447Y-53073653D01*
X87079528Y-53074500D01*
X86980137Y-53074500D01*
X86955009Y-53077415D01*
X86852235Y-53122793D01*
X86772793Y-53202235D01*
X86727414Y-53305010D01*
X86724500Y-53330132D01*
X86724500Y-53429532D01*
X86723653Y-53442454D01*
X86719500Y-53474000D01*
X86719500Y-58776001D01*
X86723653Y-58807551D01*
X86724500Y-58820470D01*
X86724500Y-58919862D01*
X86727415Y-58944990D01*
X86772793Y-59047764D01*
X86772794Y-59047765D01*
X86852235Y-59127206D01*
X86955009Y-59172585D01*
X86980135Y-59175500D01*
X87079527Y-59175499D01*
X87092451Y-59176345D01*
X87124000Y-59180500D01*
X88476000Y-59180500D01*
X88525500Y-59193763D01*
X88561737Y-59230000D01*
X88575000Y-59279500D01*
X88575000Y-59342350D01*
X88566175Y-59383208D01*
X88541275Y-59416782D01*
X88504738Y-59437087D01*
X88461215Y-59450289D01*
X88408393Y-59478522D01*
X88376282Y-59499977D01*
X88329987Y-59537970D01*
X87887970Y-59979987D01*
X87849977Y-60026282D01*
X87828522Y-60058393D01*
X87800289Y-60111215D01*
X87782907Y-60168516D01*
X87775368Y-60206416D01*
X87769500Y-60266005D01*
X87769500Y-68858995D01*
X87775368Y-68918583D01*
X87782907Y-68956483D01*
X87800289Y-69013783D01*
X87800290Y-69013785D01*
X87828519Y-69066600D01*
X87849978Y-69098717D01*
X87887974Y-69145016D01*
X87887975Y-69145017D01*
X88324186Y-69581229D01*
X88350882Y-69630015D01*
X88347063Y-69685498D01*
X88313934Y-69730167D01*
X88261949Y-69749927D01*
X88207514Y-69738542D01*
X88034727Y-69646185D01*
X87846130Y-69588975D01*
X87650000Y-69569658D01*
X87453869Y-69588975D01*
X87265272Y-69646185D01*
X87091463Y-69739088D01*
X86939117Y-69864117D01*
X86814088Y-70016463D01*
X86721185Y-70190272D01*
X86663975Y-70378869D01*
X86644658Y-70575000D01*
X86663975Y-70771130D01*
X86721185Y-70959727D01*
X86814088Y-71133536D01*
X86837160Y-71161649D01*
X86939117Y-71285883D01*
X87068298Y-71391900D01*
X87091463Y-71410911D01*
X87265272Y-71503814D01*
X87359570Y-71532419D01*
X87453868Y-71561024D01*
X87650000Y-71580341D01*
X87846132Y-71561024D01*
X88034727Y-71503814D01*
X88208538Y-71410910D01*
X88360883Y-71285883D01*
X88485910Y-71133538D01*
X88530846Y-71049469D01*
X88583190Y-70951541D01*
X88618773Y-70913798D01*
X88668556Y-70899228D01*
X88718873Y-70911832D01*
X88755911Y-70948149D01*
X88769500Y-70998209D01*
X88769500Y-80645263D01*
X88775022Y-80703084D01*
X88782121Y-80739903D01*
X88798492Y-80795640D01*
X88798493Y-80795642D01*
X88798494Y-80795645D01*
X88825127Y-80847284D01*
X88845398Y-80878812D01*
X88881322Y-80924471D01*
X89578440Y-81655200D01*
X89583033Y-81659130D01*
X89625308Y-81695305D01*
X89626909Y-81696416D01*
X89657982Y-81717980D01*
X89711946Y-81747852D01*
X89770810Y-81766274D01*
X89809772Y-81774261D01*
X89871137Y-81780485D01*
X92072800Y-81780379D01*
X92124528Y-81794966D01*
X92161013Y-81834432D01*
X92171499Y-81887146D01*
X92152896Y-81937570D01*
X92048506Y-82081247D01*
X91962585Y-82249873D01*
X91904105Y-82429854D01*
X91874500Y-82616776D01*
X91874500Y-83690386D01*
X91874496Y-83690416D01*
X91874497Y-83721938D01*
X91874476Y-83722046D01*
X91874482Y-83857714D01*
X91904134Y-84044870D01*
X91962696Y-84225081D01*
X91989556Y-84277793D01*
X92048730Y-84393920D01*
X92097219Y-84460656D01*
X92160114Y-84547221D01*
X92186248Y-84573353D01*
X92201774Y-84588878D01*
X92206235Y-84593338D01*
X92206277Y-84593393D01*
X92228696Y-84615807D01*
X92228830Y-84616006D01*
X92313416Y-84700574D01*
X92440900Y-84793174D01*
X92516836Y-84831855D01*
X92545782Y-84854172D01*
X92564658Y-84885471D01*
X92581204Y-84929832D01*
X92615391Y-84975499D01*
X92667454Y-85045046D01*
X92782669Y-85131296D01*
X92917517Y-85181591D01*
X92977127Y-85188000D01*
X93622872Y-85187999D01*
X93682483Y-85181591D01*
X93817331Y-85131296D01*
X93932546Y-85045046D01*
X94018796Y-84929831D01*
X94018796Y-84929829D01*
X94025137Y-84921360D01*
X94074051Y-84886452D01*
X94134144Y-84886266D01*
X94183274Y-84920870D01*
X94273132Y-85039367D01*
X94326101Y-85079534D01*
X94386868Y-85125615D01*
X94519654Y-85177979D01*
X94603098Y-85188000D01*
X95196900Y-85188000D01*
X95196902Y-85188000D01*
X95280346Y-85177979D01*
X95413132Y-85125615D01*
X95526867Y-85039367D01*
X95613115Y-84925632D01*
X95613116Y-84925628D01*
X95616725Y-84920870D01*
X95665855Y-84886266D01*
X95725947Y-84886452D01*
X95774862Y-84921360D01*
X95813210Y-84972585D01*
X95867454Y-85045046D01*
X95975079Y-85125614D01*
X95982669Y-85131296D01*
X96129168Y-85185937D01*
X96128156Y-85188649D01*
X96151268Y-85197194D01*
X96183368Y-85233815D01*
X96187058Y-85241058D01*
X96242457Y-85317310D01*
X96261059Y-85367733D01*
X96250573Y-85420446D01*
X96214091Y-85459912D01*
X96162364Y-85474500D01*
X88479861Y-85474500D01*
X88470157Y-85474023D01*
X88348237Y-85462014D01*
X88329203Y-85458228D01*
X88216645Y-85424084D01*
X88198714Y-85416657D01*
X88094977Y-85361208D01*
X88078841Y-85350426D01*
X87987916Y-85275806D01*
X87974193Y-85262083D01*
X87899573Y-85171158D01*
X87888791Y-85155022D01*
X87833342Y-85051285D01*
X87825915Y-85033354D01*
X87794512Y-84929831D01*
X87791770Y-84920794D01*
X87787985Y-84901762D01*
X87786380Y-84885471D01*
X87775978Y-84779853D01*
X87775501Y-84770149D01*
X87775501Y-84635844D01*
X87763030Y-84533136D01*
X87741955Y-84359565D01*
X87675351Y-84089343D01*
X87576661Y-83829119D01*
X87447324Y-83582688D01*
X87442442Y-83575615D01*
X87289230Y-83353648D01*
X87104673Y-83145325D01*
X86896350Y-82960768D01*
X86667312Y-82802675D01*
X86420886Y-82673341D01*
X86271736Y-82616776D01*
X86160656Y-82574649D01*
X86160653Y-82574648D01*
X86160650Y-82574647D01*
X85890435Y-82508045D01*
X85614155Y-82474499D01*
X85614154Y-82474499D01*
X85479860Y-82474499D01*
X85470157Y-82474022D01*
X85451657Y-82472200D01*
X85348236Y-82462013D01*
X85329203Y-82458227D01*
X85216645Y-82424083D01*
X85198714Y-82416656D01*
X85094977Y-82361207D01*
X85078841Y-82350425D01*
X84987916Y-82275805D01*
X84974193Y-82262082D01*
X84941468Y-82222207D01*
X84899568Y-82171151D01*
X84888792Y-82155024D01*
X84833340Y-82051279D01*
X84825917Y-82033359D01*
X84794002Y-81928145D01*
X84791772Y-81920794D01*
X84787986Y-81901761D01*
X84787964Y-81901542D01*
X84775976Y-81779821D01*
X84775499Y-81770117D01*
X84775499Y-81575000D01*
X86644658Y-81575000D01*
X86663975Y-81771130D01*
X86721185Y-81959727D01*
X86814088Y-82133536D01*
X86831120Y-82154289D01*
X86939117Y-82285883D01*
X87025300Y-82356612D01*
X87091463Y-82410911D01*
X87265272Y-82503814D01*
X87336762Y-82525500D01*
X87453868Y-82561024D01*
X87650000Y-82580341D01*
X87846132Y-82561024D01*
X88034727Y-82503814D01*
X88208538Y-82410910D01*
X88360883Y-82285883D01*
X88485910Y-82133538D01*
X88578814Y-81959727D01*
X88636024Y-81771132D01*
X88655341Y-81575000D01*
X88636024Y-81378868D01*
X88602384Y-81267971D01*
X88578814Y-81190272D01*
X88485911Y-81016463D01*
X88430315Y-80948720D01*
X88360883Y-80864117D01*
X88209529Y-80739903D01*
X88208536Y-80739088D01*
X88034727Y-80646185D01*
X87846130Y-80588975D01*
X87650000Y-80569658D01*
X87453869Y-80588975D01*
X87265272Y-80646185D01*
X87091463Y-80739088D01*
X86939117Y-80864117D01*
X86814088Y-81016463D01*
X86721185Y-81190272D01*
X86663975Y-81378869D01*
X86644658Y-81575000D01*
X84775499Y-81575000D01*
X84775499Y-53278539D01*
X84775751Y-53271477D01*
X84787880Y-53101881D01*
X84792292Y-53040192D01*
X84794303Y-53026213D01*
X84810877Y-52950027D01*
X84842835Y-52803115D01*
X84846814Y-52789566D01*
X84862607Y-52747221D01*
X84926607Y-52575627D01*
X84932465Y-52562799D01*
X85041897Y-52362389D01*
X85049521Y-52350525D01*
X85186372Y-52167715D01*
X85195601Y-52157065D01*
X85357062Y-51995603D01*
X85367722Y-51986366D01*
X85550522Y-51849524D01*
X85562383Y-51841901D01*
X85762803Y-51732464D01*
X85775618Y-51726612D01*
X85989567Y-51646813D01*
X86003114Y-51642835D01*
X86226215Y-51594302D01*
X86240191Y-51592292D01*
X86471462Y-51575751D01*
X86478524Y-51575500D01*
X90671022Y-51575500D01*
X90719819Y-51588361D01*
G37*
G04 #@! TD.AperFunction*
G04 #@! TA.AperFunction,Conductor*
G36*
X99074944Y-82400976D02*
G01*
X99163216Y-82409671D01*
X99182236Y-82413454D01*
X99236307Y-82429857D01*
X99262448Y-82437787D01*
X99280367Y-82445208D01*
X99287455Y-82448997D01*
X99327993Y-82489433D01*
X99339361Y-82545554D01*
X99337000Y-82570729D01*
X99337000Y-82979270D01*
X99339853Y-83009695D01*
X99339853Y-83009697D01*
X99339854Y-83009699D01*
X99384707Y-83137882D01*
X99384708Y-83137883D01*
X99424066Y-83191213D01*
X99441195Y-83229176D01*
X99441195Y-83270824D01*
X99424066Y-83308787D01*
X99390961Y-83353644D01*
X99384707Y-83362118D01*
X99356862Y-83441694D01*
X99339853Y-83490304D01*
X99337000Y-83520730D01*
X99337000Y-83929270D01*
X99339853Y-83959699D01*
X99343599Y-83970403D01*
X99346672Y-84025128D01*
X99320159Y-84073100D01*
X99269816Y-84123444D01*
X99186218Y-84264800D01*
X99154203Y-84375000D01*
X100501000Y-84375000D01*
X100550500Y-84388263D01*
X100586737Y-84424500D01*
X100600000Y-84474000D01*
X100600000Y-84775500D01*
X100586737Y-84825000D01*
X100550500Y-84861237D01*
X100501000Y-84874500D01*
X98995276Y-84874500D01*
X98942401Y-84859197D01*
X98905872Y-84818019D01*
X98896982Y-84763696D01*
X98900383Y-84735373D01*
X98900500Y-84734402D01*
X98900500Y-84215598D01*
X98890479Y-84132154D01*
X98838115Y-83999368D01*
X98804379Y-83954880D01*
X98751867Y-83885632D01*
X98638132Y-83799385D01*
X98606728Y-83787001D01*
X98587954Y-83779597D01*
X98542430Y-83743202D01*
X98525273Y-83687500D01*
X98542430Y-83631798D01*
X98587954Y-83595402D01*
X98638132Y-83575615D01*
X98751867Y-83489367D01*
X98838115Y-83375632D01*
X98890479Y-83242846D01*
X98900500Y-83159402D01*
X98900500Y-82640598D01*
X98890479Y-82557154D01*
X98882064Y-82535816D01*
X98875772Y-82488535D01*
X98892320Y-82443798D01*
X98927868Y-82411991D01*
X98974163Y-82400500D01*
X99065241Y-82400500D01*
X99074944Y-82400976D01*
G37*
G04 #@! TD.AperFunction*
G04 #@! TA.AperFunction,Conductor*
G36*
X100624504Y-77690897D02*
G01*
X102590612Y-79657005D01*
X102595888Y-79662714D01*
X102686117Y-79768359D01*
X102695246Y-79780924D01*
X102765809Y-79896072D01*
X102772858Y-79909906D01*
X102824537Y-80034669D01*
X102829338Y-80049444D01*
X102860864Y-80180758D01*
X102863294Y-80196101D01*
X102874195Y-80334593D01*
X102874500Y-80342361D01*
X102874500Y-81019966D01*
X102874509Y-81020097D01*
X102874508Y-81076760D01*
X102874508Y-81082751D01*
X102891002Y-81186912D01*
X102906290Y-81283455D01*
X102969080Y-81476712D01*
X103061331Y-81657770D01*
X103177607Y-81817809D01*
X103196210Y-81868232D01*
X103185725Y-81920945D01*
X103149242Y-81960411D01*
X103097515Y-81975000D01*
X102875001Y-81975000D01*
X102875000Y-81975001D01*
X102875000Y-82976000D01*
X102861737Y-83025500D01*
X102825500Y-83061737D01*
X102776000Y-83075000D01*
X102374000Y-83075000D01*
X102324500Y-83061737D01*
X102288263Y-83025500D01*
X102275000Y-82976000D01*
X102275000Y-81975001D01*
X102274999Y-81975000D01*
X101996860Y-81975000D01*
X101960008Y-81977900D01*
X101802300Y-82023718D01*
X101660947Y-82107314D01*
X101544814Y-82223447D01*
X101461218Y-82364800D01*
X101428469Y-82477523D01*
X101403278Y-82520032D01*
X101360678Y-82545071D01*
X101311284Y-82546401D01*
X101267398Y-82523692D01*
X101239956Y-82482601D01*
X101215293Y-82412118D01*
X101134650Y-82302850D01*
X101025382Y-82222207D01*
X100897199Y-82177354D01*
X100897197Y-82177353D01*
X100897195Y-82177353D01*
X100866770Y-82174500D01*
X100866766Y-82174500D01*
X100519217Y-82174500D01*
X100480086Y-82166438D01*
X100451852Y-82154289D01*
X100445645Y-82151359D01*
X100363673Y-82109131D01*
X100358077Y-82106015D01*
X100273664Y-82055368D01*
X100268659Y-82052157D01*
X100241205Y-82033355D01*
X100181887Y-81992731D01*
X100177446Y-81989505D01*
X100081328Y-81915523D01*
X100081478Y-81915328D01*
X100066489Y-81904386D01*
X100055983Y-81893880D01*
X100055979Y-81893877D01*
X100050502Y-81888400D01*
X100050468Y-81888371D01*
X100033813Y-81871716D01*
X100013674Y-81851576D01*
X99865164Y-81737619D01*
X99865161Y-81737617D01*
X99805253Y-81703028D01*
X99765029Y-81659130D01*
X99757258Y-81600100D01*
X99784749Y-81547290D01*
X100337025Y-80995017D01*
X100375020Y-80948720D01*
X100396480Y-80916602D01*
X100424710Y-80863786D01*
X100442094Y-80806478D01*
X100449630Y-80768592D01*
X100455500Y-80708992D01*
X100455500Y-77760901D01*
X100472185Y-77705900D01*
X100516614Y-77669437D01*
X100573814Y-77663803D01*
X100624504Y-77690897D01*
G37*
G04 #@! TD.AperFunction*
G04 #@! TA.AperFunction,Conductor*
G36*
X102333129Y-73560790D02*
G01*
X102368277Y-73590809D01*
X102385965Y-73633513D01*
X102393781Y-73682861D01*
X102395000Y-73698348D01*
X102395000Y-74151652D01*
X102393781Y-74167140D01*
X102384367Y-74226572D01*
X102382851Y-74234192D01*
X102377940Y-74254649D01*
X102369500Y-74325968D01*
X102369500Y-75251001D01*
X102379908Y-75330064D01*
X102393173Y-75379571D01*
X102414735Y-75431626D01*
X102423692Y-75453249D01*
X102472242Y-75516521D01*
X102508479Y-75552758D01*
X102571751Y-75601308D01*
X102645433Y-75631828D01*
X102694933Y-75645091D01*
X102747644Y-75652030D01*
X102773999Y-75655500D01*
X102774000Y-75655500D01*
X103708453Y-75655500D01*
X103763454Y-75672185D01*
X103799917Y-75716614D01*
X103805551Y-75773814D01*
X103780468Y-75820740D01*
X103781060Y-75821226D01*
X103778619Y-75824199D01*
X103778458Y-75824501D01*
X103777975Y-75824985D01*
X103777970Y-75824990D01*
X103739982Y-75871278D01*
X103718520Y-75903398D01*
X103690290Y-75956211D01*
X103672907Y-76013517D01*
X103665368Y-76051417D01*
X103659500Y-76111006D01*
X103659500Y-79469479D01*
X103646237Y-79518979D01*
X103610000Y-79555215D01*
X103560500Y-79568479D01*
X103511000Y-79555216D01*
X103474764Y-79518979D01*
X103381878Y-79358096D01*
X103241357Y-79174966D01*
X103187830Y-79121438D01*
X103187828Y-79121436D01*
X103182037Y-79115645D01*
X103182035Y-79115642D01*
X100709391Y-76642998D01*
X100704115Y-76637290D01*
X100613879Y-76531635D01*
X100604749Y-76519068D01*
X100596991Y-76506408D01*
X100578495Y-76476226D01*
X100563926Y-76426445D01*
X100576530Y-76376127D01*
X100612847Y-76339089D01*
X100662907Y-76325500D01*
X100803987Y-76325500D01*
X100957363Y-76287697D01*
X100980076Y-76275776D01*
X101097240Y-76214283D01*
X101215483Y-76109530D01*
X101305220Y-75979523D01*
X101361237Y-75831818D01*
X101380278Y-75675000D01*
X101361237Y-75518182D01*
X101335144Y-75449380D01*
X101333821Y-75445669D01*
X101316769Y-75394632D01*
X101308573Y-75378033D01*
X101304771Y-75369297D01*
X101304467Y-75368496D01*
X101300699Y-75362085D01*
X101254631Y-75268781D01*
X101246808Y-75253975D01*
X101246177Y-75252856D01*
X101237519Y-75238444D01*
X101237502Y-75238417D01*
X101180514Y-75149211D01*
X101178778Y-75146391D01*
X101155559Y-75107214D01*
X101146630Y-75087514D01*
X101142272Y-75074187D01*
X101137692Y-75051412D01*
X101130373Y-74961079D01*
X101126994Y-74941857D01*
X101125500Y-74924722D01*
X101125500Y-74764812D01*
X101142185Y-74709811D01*
X101186614Y-74673348D01*
X101243814Y-74667714D01*
X101294504Y-74694808D01*
X101322268Y-74722572D01*
X101466518Y-74811547D01*
X101627394Y-74864856D01*
X101649999Y-74867165D01*
X101650000Y-74867166D01*
X101650000Y-73649000D01*
X101663263Y-73599500D01*
X101699500Y-73563263D01*
X101749000Y-73550000D01*
X102288184Y-73550000D01*
X102333129Y-73560790D01*
G37*
G04 #@! TD.AperFunction*
G04 #@! TA.AperFunction,Conductor*
G36*
X113724504Y-73506546D02*
G01*
X113779987Y-73562029D01*
X113826282Y-73600022D01*
X113858393Y-73621477D01*
X113858395Y-73621478D01*
X113858398Y-73621480D01*
X113911214Y-73649710D01*
X113968522Y-73667094D01*
X114006408Y-73674630D01*
X114006413Y-73674630D01*
X114006416Y-73674631D01*
X114066005Y-73680500D01*
X114066008Y-73680500D01*
X114549583Y-73680500D01*
X114600572Y-73694640D01*
X114636995Y-73733022D01*
X114648447Y-73784681D01*
X114631658Y-73834860D01*
X114591422Y-73869224D01*
X114522424Y-73901398D01*
X114328925Y-74036887D01*
X114161887Y-74203925D01*
X114026398Y-74397424D01*
X113926570Y-74611505D01*
X113902858Y-74700000D01*
X119037142Y-74700000D01*
X119013429Y-74611505D01*
X118913601Y-74397424D01*
X118778112Y-74203925D01*
X118611074Y-74036887D01*
X118417578Y-73901399D01*
X118370023Y-73879224D01*
X118329788Y-73844860D01*
X118312999Y-73794681D01*
X118324451Y-73743022D01*
X118360874Y-73704640D01*
X118411863Y-73690500D01*
X120293995Y-73690500D01*
X120353583Y-73684631D01*
X120353584Y-73684630D01*
X120353592Y-73684630D01*
X120391478Y-73677094D01*
X120448786Y-73659710D01*
X120501602Y-73631480D01*
X120520500Y-73618852D01*
X120570644Y-73602289D01*
X120622169Y-73613860D01*
X120660415Y-73650274D01*
X120674500Y-73701170D01*
X120674500Y-76455512D01*
X120660415Y-76506408D01*
X120622169Y-76542822D01*
X120570643Y-76554393D01*
X120520499Y-76537828D01*
X120491601Y-76518519D01*
X120438784Y-76490289D01*
X120381483Y-76472907D01*
X120343583Y-76465368D01*
X120283995Y-76459500D01*
X120283992Y-76459500D01*
X118411863Y-76459500D01*
X118360874Y-76445360D01*
X118324451Y-76406978D01*
X118312999Y-76355319D01*
X118329788Y-76305140D01*
X118370023Y-76270776D01*
X118417578Y-76248600D01*
X118611074Y-76113112D01*
X118778112Y-75946074D01*
X118913601Y-75752576D01*
X119013429Y-75538495D01*
X119037142Y-75450000D01*
X113902858Y-75450000D01*
X113926570Y-75538495D01*
X114026398Y-75752576D01*
X114161887Y-75946074D01*
X114328925Y-76113112D01*
X114522421Y-76248600D01*
X114569977Y-76270776D01*
X114610212Y-76305140D01*
X114627001Y-76355319D01*
X114615549Y-76406978D01*
X114579126Y-76445360D01*
X114528137Y-76459500D01*
X113186005Y-76459500D01*
X113126416Y-76465368D01*
X113088516Y-76472907D01*
X113031215Y-76490289D01*
X112978393Y-76518522D01*
X112946282Y-76539977D01*
X112899987Y-76577970D01*
X112839503Y-76638455D01*
X112788813Y-76665549D01*
X112731613Y-76659915D01*
X112687184Y-76623452D01*
X112670499Y-76568451D01*
X112670499Y-75982339D01*
X112677622Y-75945466D01*
X112697966Y-75913899D01*
X113092566Y-75501464D01*
X113443274Y-75134905D01*
X113479324Y-75089203D01*
X113499668Y-75057636D01*
X113526396Y-75005927D01*
X113542832Y-74950086D01*
X113549955Y-74913213D01*
X113555500Y-74855269D01*
X113555500Y-73576550D01*
X113572185Y-73521549D01*
X113616614Y-73485086D01*
X113673814Y-73479452D01*
X113724504Y-73506546D01*
G37*
G04 #@! TD.AperFunction*
G04 #@! TA.AperFunction,Conductor*
G36*
X92750000Y-66538763D02*
G01*
X92786236Y-66575000D01*
X92799500Y-66624500D01*
X92799500Y-67247871D01*
X92805909Y-67307484D01*
X92856203Y-67442330D01*
X92856204Y-67442331D01*
X92942454Y-67557546D01*
X92993755Y-67595950D01*
X93057666Y-67643795D01*
X93057669Y-67643796D01*
X93093719Y-67657241D01*
X93140441Y-67693535D01*
X93158122Y-67749997D01*
X93140443Y-67806460D01*
X93093720Y-67842757D01*
X93057668Y-67856204D01*
X92942454Y-67942454D01*
X92856203Y-68057669D01*
X92809691Y-68182376D01*
X92805909Y-68192517D01*
X92799500Y-68252127D01*
X92799500Y-68252130D01*
X92799500Y-68897871D01*
X92805909Y-68957484D01*
X92856203Y-69092330D01*
X92862786Y-69101123D01*
X92942454Y-69207546D01*
X93003380Y-69253155D01*
X93057669Y-69293796D01*
X93117498Y-69316111D01*
X93154387Y-69340379D01*
X93177055Y-69378273D01*
X93192949Y-69427185D01*
X93192951Y-69427190D01*
X93192952Y-69427191D01*
X93228017Y-69496006D01*
X93284117Y-69606102D01*
X93402146Y-69768544D01*
X93451940Y-69818334D01*
X93451946Y-69818339D01*
X94719516Y-71085909D01*
X94751791Y-71118184D01*
X94783895Y-71150287D01*
X94783896Y-71150289D01*
X94795255Y-71161648D01*
X94795256Y-71161649D01*
X94806965Y-71173358D01*
X94807020Y-71173440D01*
X94835960Y-71202379D01*
X94835960Y-71202380D01*
X94910829Y-71277247D01*
X95063344Y-71394272D01*
X95078834Y-71406157D01*
X95262218Y-71512029D01*
X95262219Y-71512029D01*
X95262222Y-71512031D01*
X95365271Y-71554713D01*
X95405205Y-71584977D01*
X95425204Y-71630921D01*
X95420146Y-71680772D01*
X95406401Y-71717623D01*
X95400000Y-71777174D01*
X95400000Y-73199999D01*
X95400001Y-73200000D01*
X97926000Y-73200000D01*
X97975500Y-73213263D01*
X98011737Y-73249500D01*
X98025000Y-73299000D01*
X98025000Y-75824999D01*
X98025001Y-75825000D01*
X99447826Y-75825000D01*
X99514918Y-75817787D01*
X99568758Y-75827171D01*
X99609415Y-75863691D01*
X99624500Y-75916220D01*
X99624500Y-75920503D01*
X99624498Y-75920513D01*
X99624498Y-76076926D01*
X99649432Y-76266307D01*
X99638589Y-76325897D01*
X99595066Y-76368019D01*
X99535152Y-76376907D01*
X99481275Y-76349233D01*
X99395012Y-76262970D01*
X99348717Y-76224977D01*
X99316606Y-76203522D01*
X99263784Y-76175289D01*
X99206483Y-76157907D01*
X99168583Y-76150368D01*
X99108995Y-76144500D01*
X99108992Y-76144500D01*
X93342550Y-76144500D01*
X93304664Y-76136964D01*
X93272546Y-76115504D01*
X93009496Y-75852454D01*
X92988036Y-75820336D01*
X92980500Y-75782450D01*
X92980500Y-75372826D01*
X95400000Y-75372826D01*
X95406401Y-75432376D01*
X95456646Y-75567089D01*
X95542811Y-75682188D01*
X95657910Y-75768353D01*
X95792623Y-75818598D01*
X95852174Y-75825000D01*
X97274999Y-75825000D01*
X97275000Y-75824999D01*
X97275000Y-73950001D01*
X97274999Y-73950000D01*
X95400001Y-73950000D01*
X95400000Y-73950001D01*
X95400000Y-75372826D01*
X92980500Y-75372826D01*
X92980500Y-70141565D01*
X92980500Y-70141561D01*
X92974488Y-70081251D01*
X92966771Y-70042930D01*
X92948969Y-69984988D01*
X92920077Y-69931702D01*
X92898128Y-69899356D01*
X92859288Y-69852825D01*
X92576091Y-69574971D01*
X91685166Y-68700856D01*
X91663217Y-68668510D01*
X91655500Y-68630189D01*
X91655500Y-66848745D01*
X91673025Y-66792507D01*
X91719394Y-66756178D01*
X91778192Y-66752622D01*
X91871013Y-66775500D01*
X91871015Y-66775500D01*
X92028985Y-66775500D01*
X92028987Y-66775500D01*
X92133224Y-66749807D01*
X92182365Y-66737696D01*
X92200943Y-66727945D01*
X92215569Y-66721712D01*
X92230368Y-66716768D01*
X92356218Y-66654630D01*
X92371023Y-66646808D01*
X92372142Y-66646177D01*
X92386554Y-66637519D01*
X92475833Y-66580482D01*
X92478557Y-66578806D01*
X92517776Y-66555562D01*
X92537466Y-66546636D01*
X92550816Y-66542270D01*
X92573584Y-66537692D01*
X92663920Y-66530373D01*
X92683146Y-66526994D01*
X92700282Y-66525500D01*
X92700500Y-66525500D01*
X92750000Y-66538763D01*
G37*
G04 #@! TD.AperFunction*
G04 #@! TA.AperFunction,Conductor*
G36*
X100200000Y-71810155D02*
G01*
X100192459Y-71848054D01*
X100170983Y-71880179D01*
X100169241Y-71881920D01*
X100169084Y-71882025D01*
X100069006Y-71982110D01*
X100018316Y-72009206D01*
X99961116Y-72003574D01*
X99916685Y-71967111D01*
X99900000Y-71912109D01*
X99900000Y-71890328D01*
X99908825Y-71849470D01*
X99933725Y-71815895D01*
X99950000Y-71801622D01*
X99950000Y-71452682D01*
X99960059Y-71409202D01*
X99979468Y-71369500D01*
X99990220Y-71347506D01*
X99997141Y-71300000D01*
X100200000Y-71300000D01*
X100200000Y-71810155D01*
G37*
G04 #@! TD.AperFunction*
G04 #@! TA.AperFunction,Conductor*
G36*
X118978522Y-51575750D02*
G01*
X119209805Y-51592292D01*
X119223785Y-51594302D01*
X119321088Y-51615470D01*
X119446881Y-51642835D01*
X119460433Y-51646814D01*
X119586818Y-51693952D01*
X119674366Y-51726605D01*
X119687205Y-51732468D01*
X119763265Y-51774000D01*
X119887605Y-51841895D01*
X119899480Y-51849526D01*
X120082277Y-51986366D01*
X120092941Y-51995608D01*
X120254389Y-52157055D01*
X120263640Y-52167731D01*
X120400470Y-52350515D01*
X120408104Y-52362394D01*
X120517526Y-52562786D01*
X120523392Y-52575630D01*
X120528507Y-52589343D01*
X120603185Y-52789564D01*
X120607164Y-52803117D01*
X120655696Y-53026212D01*
X120657707Y-53040193D01*
X120674248Y-53271461D01*
X120674500Y-53278524D01*
X120674500Y-65158830D01*
X120660415Y-65209726D01*
X120622169Y-65246140D01*
X120570644Y-65257711D01*
X120520500Y-65241147D01*
X120501599Y-65228518D01*
X120448784Y-65200289D01*
X120391483Y-65182907D01*
X120353583Y-65175368D01*
X120293995Y-65169500D01*
X120293992Y-65169500D01*
X117477149Y-65169500D01*
X117477148Y-65169500D01*
X117416081Y-65175665D01*
X117389768Y-65181033D01*
X117377298Y-65183578D01*
X117377296Y-65183578D01*
X117377294Y-65183579D01*
X117318697Y-65201826D01*
X117264931Y-65231416D01*
X117232345Y-65253889D01*
X117185571Y-65293638D01*
X116992423Y-65494511D01*
X116956154Y-65540282D01*
X116935686Y-65571912D01*
X116908791Y-65623749D01*
X116892250Y-65679753D01*
X116885083Y-65716734D01*
X116885082Y-65716739D01*
X116885082Y-65716742D01*
X116884367Y-65724195D01*
X116879500Y-65774878D01*
X116879500Y-66430310D01*
X116864726Y-66482339D01*
X116824814Y-66518839D01*
X116771675Y-66528916D01*
X116721171Y-66509563D01*
X116617089Y-66431646D01*
X116482376Y-66381401D01*
X116422826Y-66375000D01*
X116300001Y-66375000D01*
X116300000Y-66375001D01*
X116300000Y-68574999D01*
X116300001Y-68575000D01*
X116422826Y-68575000D01*
X116482376Y-68568598D01*
X116617089Y-68518353D01*
X116736034Y-68429309D01*
X116781709Y-68410507D01*
X116830783Y-68416114D01*
X116871040Y-68444732D01*
X116891322Y-68486875D01*
X116891494Y-68486823D01*
X116891829Y-68487928D01*
X116892460Y-68489239D01*
X116892904Y-68491473D01*
X116910289Y-68548783D01*
X116938522Y-68601605D01*
X116959977Y-68633716D01*
X116997970Y-68680011D01*
X117169755Y-68851796D01*
X117197065Y-68903609D01*
X117190316Y-68961788D01*
X117151868Y-69005971D01*
X117043699Y-69072946D01*
X116886125Y-69216595D01*
X116757634Y-69386743D01*
X116662747Y-69577305D01*
X116662595Y-69577611D01*
X116604244Y-69782690D01*
X116584571Y-69995000D01*
X116604244Y-70207310D01*
X116659654Y-70402054D01*
X116662596Y-70412391D01*
X116757634Y-70603256D01*
X116886125Y-70773404D01*
X116886127Y-70773406D01*
X116886128Y-70773407D01*
X116937640Y-70820367D01*
X117043699Y-70917053D01*
X117129980Y-70970476D01*
X117224981Y-71029298D01*
X117371112Y-71085909D01*
X117423804Y-71106322D01*
X117633388Y-71145500D01*
X117633390Y-71145500D01*
X117846610Y-71145500D01*
X117846612Y-71145500D01*
X118056195Y-71106322D01*
X118056198Y-71106321D01*
X118255019Y-71029298D01*
X118350020Y-70970476D01*
X118358383Y-70965298D01*
X118408213Y-70950495D01*
X118458674Y-70962980D01*
X118495853Y-70999310D01*
X118509500Y-71049469D01*
X118509500Y-71267450D01*
X118501964Y-71305336D01*
X118480504Y-71337454D01*
X118467454Y-71350504D01*
X118435336Y-71371964D01*
X118397450Y-71379500D01*
X117853417Y-71379500D01*
X117840541Y-71381189D01*
X117821708Y-71383659D01*
X117808835Y-71384500D01*
X117798193Y-71384500D01*
X115306610Y-71384500D01*
X115236730Y-71384500D01*
X115211340Y-71381189D01*
X115205792Y-71379717D01*
X115205791Y-71379716D01*
X115205788Y-71379716D01*
X115127445Y-71369500D01*
X114943364Y-71369500D01*
X114905320Y-71361899D01*
X114873119Y-71340261D01*
X114870331Y-71337454D01*
X114847297Y-71314260D01*
X114820395Y-71263561D01*
X114826143Y-71206455D01*
X114862612Y-71162136D01*
X114917542Y-71145499D01*
X116094862Y-71145499D01*
X116094864Y-71145499D01*
X116119991Y-71142585D01*
X116222765Y-71097206D01*
X116302206Y-71017765D01*
X116347585Y-70914991D01*
X116350500Y-70889865D01*
X116350499Y-69100136D01*
X116347585Y-69075009D01*
X116302206Y-68972235D01*
X116222765Y-68892794D01*
X116222764Y-68892793D01*
X116119989Y-68847414D01*
X116094867Y-68844500D01*
X114305137Y-68844500D01*
X114280009Y-68847415D01*
X114177235Y-68892793D01*
X114097793Y-68972235D01*
X114052414Y-69075010D01*
X114049500Y-69100132D01*
X114049500Y-70270788D01*
X114032768Y-70325860D01*
X113988228Y-70362317D01*
X113930936Y-70367836D01*
X113880256Y-70340550D01*
X113659256Y-70118025D01*
X113637971Y-70085991D01*
X113630500Y-70048263D01*
X113630500Y-69873999D01*
X113620091Y-69794935D01*
X113620091Y-69794933D01*
X113606828Y-69745433D01*
X113590078Y-69704996D01*
X113576308Y-69671751D01*
X113569742Y-69663194D01*
X113551187Y-69622241D01*
X113552657Y-69577308D01*
X113560091Y-69549567D01*
X113569145Y-69480794D01*
X113570500Y-69470501D01*
X113570500Y-68122826D01*
X114975000Y-68122826D01*
X114981401Y-68182376D01*
X115031646Y-68317089D01*
X115117811Y-68432188D01*
X115232910Y-68518353D01*
X115367623Y-68568598D01*
X115427174Y-68575000D01*
X115549999Y-68575000D01*
X115550000Y-68574999D01*
X115550000Y-67850001D01*
X115549999Y-67850000D01*
X114975001Y-67850000D01*
X114975000Y-67850001D01*
X114975000Y-68122826D01*
X113570500Y-68122826D01*
X113570500Y-67099999D01*
X114975000Y-67099999D01*
X114975001Y-67100000D01*
X115549999Y-67100000D01*
X115550000Y-67099999D01*
X115550000Y-66375001D01*
X115549999Y-66375000D01*
X115427174Y-66375000D01*
X115367623Y-66381401D01*
X115232910Y-66431646D01*
X115117811Y-66517811D01*
X115031646Y-66632910D01*
X114981401Y-66767623D01*
X114975000Y-66827174D01*
X114975000Y-67099999D01*
X113570500Y-67099999D01*
X113570500Y-62578194D01*
X114349500Y-62578194D01*
X114364244Y-62737310D01*
X114421984Y-62940243D01*
X114422596Y-62942391D01*
X114517634Y-63133256D01*
X114646125Y-63303404D01*
X114646127Y-63303406D01*
X114646128Y-63303407D01*
X114743186Y-63391888D01*
X114803699Y-63447053D01*
X114874636Y-63490975D01*
X114984981Y-63559298D01*
X115141681Y-63620003D01*
X115183804Y-63636322D01*
X115393388Y-63675500D01*
X115393390Y-63675500D01*
X115606610Y-63675500D01*
X115606612Y-63675500D01*
X115816195Y-63636322D01*
X115816198Y-63636321D01*
X116015019Y-63559298D01*
X116196302Y-63447052D01*
X116353872Y-63303407D01*
X116474395Y-63143809D01*
X116521714Y-63109679D01*
X116580041Y-63108126D01*
X116629112Y-63139692D01*
X116651883Y-63193412D01*
X116660492Y-63277692D01*
X116715642Y-63444122D01*
X116807681Y-63593341D01*
X116931658Y-63717318D01*
X117080878Y-63809357D01*
X117247305Y-63864506D01*
X117350018Y-63875000D01*
X117624999Y-63875000D01*
X117625000Y-63874999D01*
X117625000Y-63874998D01*
X118375000Y-63874998D01*
X118375001Y-63874999D01*
X118649973Y-63874999D01*
X118752696Y-63864505D01*
X118919122Y-63809357D01*
X119068341Y-63717318D01*
X119192318Y-63593341D01*
X119284357Y-63444121D01*
X119339506Y-63277694D01*
X119350000Y-63174982D01*
X119350000Y-62750001D01*
X119349999Y-62750000D01*
X118375001Y-62750000D01*
X118375000Y-62750001D01*
X118375000Y-63874998D01*
X117625000Y-63874998D01*
X117625000Y-61999999D01*
X118375000Y-61999999D01*
X118375001Y-62000000D01*
X119349998Y-62000000D01*
X119349999Y-61999999D01*
X119349999Y-61575027D01*
X119339505Y-61472303D01*
X119284357Y-61305877D01*
X119192318Y-61156658D01*
X119068341Y-61032681D01*
X118919121Y-60940642D01*
X118752694Y-60885493D01*
X118649982Y-60875000D01*
X118375001Y-60875000D01*
X118375000Y-60875001D01*
X118375000Y-61999999D01*
X117625000Y-61999999D01*
X117625000Y-60875002D01*
X117624999Y-60875001D01*
X117350027Y-60875001D01*
X117247303Y-60885494D01*
X117080877Y-60940642D01*
X116931658Y-61032681D01*
X116807681Y-61156658D01*
X116715642Y-61305878D01*
X116660493Y-61472305D01*
X116651882Y-61556588D01*
X116629110Y-61610308D01*
X116580039Y-61641872D01*
X116521713Y-61640319D01*
X116474393Y-61606187D01*
X116353872Y-61446593D01*
X116196302Y-61302948D01*
X116196300Y-61302946D01*
X116015021Y-61190703D01*
X116015019Y-61190702D01*
X115927141Y-61156658D01*
X115816195Y-61113677D01*
X115606612Y-61074500D01*
X115606610Y-61074500D01*
X115393390Y-61074500D01*
X115393388Y-61074500D01*
X115183804Y-61113677D01*
X114984978Y-61190703D01*
X114803699Y-61302946D01*
X114646125Y-61446595D01*
X114517634Y-61616743D01*
X114422596Y-61807608D01*
X114422595Y-61807611D01*
X114364244Y-62012690D01*
X114349500Y-62171806D01*
X114349500Y-62578194D01*
X113570500Y-62578194D01*
X113570500Y-62035219D01*
X113567092Y-62000000D01*
X113564832Y-61976639D01*
X113559626Y-61949991D01*
X113557554Y-61939384D01*
X113540760Y-61882983D01*
X113527701Y-61858041D01*
X113513468Y-61830854D01*
X113492703Y-61799074D01*
X113492700Y-61799070D01*
X113455917Y-61753136D01*
X112698544Y-60974726D01*
X112677779Y-60942946D01*
X112670500Y-60905688D01*
X112670500Y-59774500D01*
X112683763Y-59725000D01*
X112720000Y-59688763D01*
X112769500Y-59675500D01*
X112853987Y-59675500D01*
X113007363Y-59637697D01*
X113007365Y-59637696D01*
X113147240Y-59564283D01*
X113265483Y-59459530D01*
X113355220Y-59329523D01*
X113411237Y-59181818D01*
X113430278Y-59025000D01*
X113411237Y-58868182D01*
X113355220Y-58720477D01*
X113265483Y-58590470D01*
X113147240Y-58485717D01*
X113140286Y-58482067D01*
X113007363Y-58412302D01*
X112853987Y-58374500D01*
X112853985Y-58374500D01*
X112769500Y-58374500D01*
X112720000Y-58361237D01*
X112683763Y-58325000D01*
X112670500Y-58275500D01*
X112670500Y-57369000D01*
X112660091Y-57289936D01*
X112660091Y-57289934D01*
X112646828Y-57240434D01*
X112616308Y-57166752D01*
X112567758Y-57103480D01*
X112531521Y-57067243D01*
X112524345Y-57061737D01*
X112468249Y-57018693D01*
X112394571Y-56988174D01*
X112345064Y-56974909D01*
X112266001Y-56964501D01*
X112266000Y-56964501D01*
X110896781Y-56964501D01*
X110847626Y-56951436D01*
X110811445Y-56915689D01*
X110797788Y-56866695D01*
X110795263Y-56657450D01*
X110788058Y-56060322D01*
X110796550Y-56019000D01*
X110821477Y-55984963D01*
X110858312Y-55964395D01*
X110913002Y-55947806D01*
X110965820Y-55919573D01*
X111006048Y-55892693D01*
X111006057Y-55892686D01*
X111052331Y-55854710D01*
X111052334Y-55854706D01*
X111052340Y-55854702D01*
X111154996Y-55752046D01*
X111199377Y-55726423D01*
X111250623Y-55726423D01*
X111295004Y-55752046D01*
X111397668Y-55854710D01*
X111443942Y-55892686D01*
X111443949Y-55892691D01*
X111443952Y-55892693D01*
X111484180Y-55919573D01*
X111536998Y-55947806D01*
X111594309Y-55965191D01*
X111641762Y-55974630D01*
X111641765Y-55974630D01*
X111641769Y-55974631D01*
X111701359Y-55980500D01*
X111701362Y-55980500D01*
X112073638Y-55980500D01*
X112073641Y-55980500D01*
X112133230Y-55974631D01*
X112133232Y-55974630D01*
X112133238Y-55974630D01*
X112180691Y-55965191D01*
X112238002Y-55947806D01*
X112290820Y-55919573D01*
X112331048Y-55892693D01*
X112331057Y-55892686D01*
X112377331Y-55854710D01*
X112377334Y-55854706D01*
X112377340Y-55854702D01*
X112503848Y-55728194D01*
X114349500Y-55728194D01*
X114364244Y-55887310D01*
X114413472Y-56060326D01*
X114422596Y-56092391D01*
X114517634Y-56283256D01*
X114646125Y-56453404D01*
X114803699Y-56597053D01*
X114901244Y-56657450D01*
X114984981Y-56709298D01*
X115109277Y-56757450D01*
X115183804Y-56786322D01*
X115393388Y-56825500D01*
X115393390Y-56825500D01*
X115606610Y-56825500D01*
X115606612Y-56825500D01*
X115816195Y-56786322D01*
X115816198Y-56786321D01*
X116015019Y-56709298D01*
X116196302Y-56597052D01*
X116353872Y-56453407D01*
X116474395Y-56293809D01*
X116521714Y-56259679D01*
X116580041Y-56258126D01*
X116629112Y-56289692D01*
X116651883Y-56343412D01*
X116660492Y-56427692D01*
X116715642Y-56594122D01*
X116807681Y-56743341D01*
X116931658Y-56867318D01*
X117080878Y-56959357D01*
X117247305Y-57014506D01*
X117350018Y-57025000D01*
X117624999Y-57025000D01*
X117625000Y-57024999D01*
X117625000Y-57024998D01*
X118375000Y-57024998D01*
X118375001Y-57024999D01*
X118649973Y-57024999D01*
X118752696Y-57014505D01*
X118919122Y-56959357D01*
X119068341Y-56867318D01*
X119192318Y-56743341D01*
X119284357Y-56594121D01*
X119339506Y-56427694D01*
X119350000Y-56324982D01*
X119350000Y-55900001D01*
X119349999Y-55900000D01*
X118375001Y-55900000D01*
X118375000Y-55900001D01*
X118375000Y-57024998D01*
X117625000Y-57024998D01*
X117625000Y-55149999D01*
X118375000Y-55149999D01*
X118375001Y-55150000D01*
X119349998Y-55150000D01*
X119349999Y-55149999D01*
X119349999Y-54725027D01*
X119339505Y-54622303D01*
X119284357Y-54455877D01*
X119192318Y-54306658D01*
X119068341Y-54182681D01*
X118919121Y-54090642D01*
X118752694Y-54035493D01*
X118649982Y-54025000D01*
X118375001Y-54025000D01*
X118375000Y-54025001D01*
X118375000Y-55149999D01*
X117625000Y-55149999D01*
X117625000Y-54025002D01*
X117624999Y-54025001D01*
X117350027Y-54025001D01*
X117247303Y-54035494D01*
X117080877Y-54090642D01*
X116931658Y-54182681D01*
X116807681Y-54306658D01*
X116715642Y-54455878D01*
X116660493Y-54622305D01*
X116651882Y-54706588D01*
X116629110Y-54760308D01*
X116580039Y-54791872D01*
X116521713Y-54790319D01*
X116474393Y-54756187D01*
X116353872Y-54596593D01*
X116196302Y-54452948D01*
X116196300Y-54452946D01*
X116015021Y-54340703D01*
X116015019Y-54340702D01*
X115927141Y-54306658D01*
X115816195Y-54263677D01*
X115606612Y-54224500D01*
X115606610Y-54224500D01*
X115393390Y-54224500D01*
X115393388Y-54224500D01*
X115183804Y-54263677D01*
X114984978Y-54340703D01*
X114803699Y-54452946D01*
X114646125Y-54596595D01*
X114517634Y-54766743D01*
X114422596Y-54957608D01*
X114422595Y-54957611D01*
X114364244Y-55162690D01*
X114349500Y-55321806D01*
X114349500Y-55728194D01*
X112503848Y-55728194D01*
X112554702Y-55677340D01*
X112554706Y-55677334D01*
X112554710Y-55677331D01*
X112592686Y-55631057D01*
X112592687Y-55631054D01*
X112592693Y-55631048D01*
X112619573Y-55590820D01*
X112647806Y-55538002D01*
X112665191Y-55480691D01*
X112674630Y-55433238D01*
X112675224Y-55427206D01*
X112680500Y-55373641D01*
X112680500Y-51951359D01*
X112674631Y-51891769D01*
X112667048Y-51853645D01*
X112665191Y-51844309D01*
X112647806Y-51786998D01*
X112619573Y-51734180D01*
X112616447Y-51729501D01*
X112599881Y-51679358D01*
X112611452Y-51627831D01*
X112647866Y-51589584D01*
X112698762Y-51575499D01*
X118971461Y-51575499D01*
X118978522Y-51575750D01*
G37*
G04 #@! TD.AperFunction*
G04 #@! TA.AperFunction,Conductor*
G36*
X109125000Y-69533174D02*
G01*
X109125000Y-71331829D01*
X109115000Y-71366768D01*
X109115000Y-69498235D01*
X109125000Y-69533174D01*
G37*
G04 #@! TD.AperFunction*
G04 #@! TA.AperFunction,Conductor*
G36*
X97889267Y-69922517D02*
G01*
X97914290Y-69953008D01*
X97924500Y-69996793D01*
X97924500Y-70051945D01*
X97934779Y-70122504D01*
X97934780Y-70122506D01*
X97987988Y-70231344D01*
X98073653Y-70317009D01*
X98182491Y-70370217D01*
X98253051Y-70380497D01*
X98775000Y-70380496D01*
X98775000Y-70675000D01*
X98800000Y-70700000D01*
X99149500Y-70700000D01*
X99149501Y-71226000D01*
X99136238Y-71275500D01*
X99100001Y-71311736D01*
X99050501Y-71325000D01*
X98724055Y-71325000D01*
X98678047Y-71313660D01*
X98642580Y-71282238D01*
X98625777Y-71237933D01*
X98621458Y-71202366D01*
X98611237Y-71118182D01*
X98555220Y-70970477D01*
X98465483Y-70840470D01*
X98347240Y-70735717D01*
X98333179Y-70728337D01*
X98207363Y-70662302D01*
X98053987Y-70624500D01*
X98053985Y-70624500D01*
X97896015Y-70624500D01*
X97845210Y-70637021D01*
X97793072Y-70635722D01*
X97748828Y-70608105D01*
X97724760Y-70561836D01*
X97727545Y-70509756D01*
X97739062Y-70475000D01*
X97325000Y-70475000D01*
X97884150Y-69915849D01*
X97889267Y-69922517D01*
G37*
G04 #@! TD.AperFunction*
G04 #@! TA.AperFunction,Conductor*
G36*
X94610682Y-69280254D02*
G01*
X94639123Y-69295455D01*
X94646751Y-69301308D01*
X94646752Y-69301308D01*
X94646753Y-69301309D01*
X94711392Y-69328083D01*
X94720433Y-69331828D01*
X94769933Y-69345091D01*
X94822644Y-69352030D01*
X94848999Y-69355500D01*
X95816228Y-69355500D01*
X95866350Y-69369126D01*
X95902675Y-69406252D01*
X95915204Y-69456660D01*
X95900489Y-69506473D01*
X95863452Y-69566518D01*
X95810936Y-69725000D01*
X96300000Y-69725000D01*
X96300000Y-70475000D01*
X95810937Y-70475000D01*
X95863453Y-70633485D01*
X95906903Y-70703927D01*
X95921575Y-70759570D01*
X95902821Y-70813973D01*
X95856978Y-70848755D01*
X95799535Y-70852165D01*
X95734131Y-70836465D01*
X95719355Y-70831665D01*
X95615680Y-70788723D01*
X95601838Y-70781670D01*
X95506166Y-70723044D01*
X95493599Y-70713914D01*
X95405488Y-70638664D01*
X95399777Y-70633385D01*
X95285909Y-70519516D01*
X94210397Y-69444004D01*
X94183303Y-69393314D01*
X94188937Y-69336114D01*
X94225400Y-69291685D01*
X94280401Y-69275000D01*
X94578860Y-69275000D01*
X94610682Y-69280254D01*
G37*
G04 #@! TD.AperFunction*
G04 #@! TA.AperFunction,Conductor*
G36*
X110609500Y-67051000D02*
G01*
X110596237Y-67100500D01*
X110560000Y-67136737D01*
X110510500Y-67150000D01*
X109645407Y-67150000D01*
X109629946Y-67145001D01*
X110465000Y-67145001D01*
X110609500Y-67000500D01*
X110609500Y-67051000D01*
G37*
G04 #@! TD.AperFunction*
G04 #@! TA.AperFunction,Conductor*
G36*
X98058040Y-65598195D02*
G01*
X98265394Y-65625497D01*
X98330261Y-65625498D01*
X98330271Y-65625500D01*
X98369965Y-65625500D01*
X98427548Y-65625501D01*
X98427551Y-65625500D01*
X98851000Y-65625500D01*
X98900500Y-65638763D01*
X98936737Y-65675000D01*
X98950000Y-65724500D01*
X98950000Y-65967496D01*
X98950001Y-65967497D01*
X99550500Y-65967497D01*
X99599999Y-65980760D01*
X99636236Y-66016996D01*
X99649500Y-66066495D01*
X99649500Y-66118497D01*
X99636238Y-66167996D01*
X99600002Y-66204233D01*
X99550501Y-66217497D01*
X98950001Y-66217497D01*
X98950000Y-66217498D01*
X98950000Y-66230997D01*
X98944908Y-66250000D01*
X98775000Y-66250000D01*
X98775000Y-66825000D01*
X98587500Y-66825000D01*
X98587500Y-66329998D01*
X98587499Y-66329997D01*
X98250629Y-66329997D01*
X98140658Y-66344474D01*
X98003822Y-66401154D01*
X97886319Y-66491316D01*
X97840871Y-66550546D01*
X97796189Y-66583309D01*
X97740902Y-66586932D01*
X97692326Y-66560283D01*
X97473677Y-66341635D01*
X97448053Y-66297254D01*
X97448053Y-66246008D01*
X97473677Y-66201627D01*
X97597571Y-66077733D01*
X97686547Y-65933481D01*
X97739856Y-65772604D01*
X97749999Y-65673319D01*
X97749999Y-65644675D01*
X97767902Y-65587889D01*
X97815139Y-65551642D01*
X97874624Y-65549046D01*
X98058040Y-65598195D01*
G37*
G04 #@! TD.AperFunction*
G04 #@! TA.AperFunction,Conductor*
G36*
X110560000Y-64988263D02*
G01*
X110596237Y-65024500D01*
X110609500Y-65074000D01*
X110609500Y-65099500D01*
X110485000Y-64975000D01*
X110510500Y-64975000D01*
X110560000Y-64988263D01*
G37*
G04 #@! TD.AperFunction*
G04 #@! TA.AperFunction,Conductor*
G36*
X101210000Y-62338762D02*
G01*
X101246237Y-62374999D01*
X101259500Y-62424499D01*
X101259500Y-62717070D01*
X101245874Y-62767192D01*
X101208748Y-62803517D01*
X101158340Y-62816046D01*
X101108527Y-62801330D01*
X100998484Y-62733454D01*
X100839999Y-62680937D01*
X100840000Y-62680938D01*
X100840000Y-63921001D01*
X100826737Y-63970501D01*
X100790500Y-64006738D01*
X100741000Y-64020001D01*
X100029829Y-64020001D01*
X100022258Y-64019504D01*
X99943860Y-64019502D01*
X99943846Y-64019501D01*
X99935664Y-64019501D01*
X99904159Y-64019501D01*
X99904154Y-64019500D01*
X99846574Y-64019500D01*
X99830513Y-64019500D01*
X99830507Y-64019501D01*
X98941177Y-64019501D01*
X98928251Y-64018654D01*
X98854641Y-64008960D01*
X98829678Y-64002270D01*
X98767132Y-63976360D01*
X98744753Y-63963438D01*
X98685764Y-63918173D01*
X98676028Y-63909636D01*
X98432740Y-63666348D01*
X98421653Y-63651196D01*
X98421528Y-63651294D01*
X98378272Y-63595396D01*
X98357678Y-63539490D01*
X98355738Y-63498528D01*
X98355735Y-63498468D01*
X98355565Y-63495246D01*
X98355549Y-63494970D01*
X98355291Y-63490975D01*
X98351062Y-63431521D01*
X98361830Y-63379112D01*
X98398298Y-63339959D01*
X98449813Y-63325500D01*
X98603987Y-63325500D01*
X98757363Y-63287697D01*
X98776422Y-63277694D01*
X98791080Y-63270001D01*
X99522834Y-63270001D01*
X100089999Y-63270001D01*
X100090000Y-63270000D01*
X100090000Y-62680937D01*
X99931518Y-62733453D01*
X99787268Y-62822428D01*
X99667427Y-62942269D01*
X99578452Y-63086519D01*
X99525143Y-63247395D01*
X99522834Y-63270000D01*
X99522834Y-63270001D01*
X98791080Y-63270001D01*
X98897240Y-63214283D01*
X99015483Y-63109530D01*
X99105220Y-62979523D01*
X99161237Y-62831818D01*
X99180278Y-62675000D01*
X99161237Y-62518182D01*
X99139020Y-62459602D01*
X99133310Y-62412566D01*
X99150113Y-62368261D01*
X99185580Y-62336839D01*
X99231588Y-62325499D01*
X101160500Y-62325499D01*
X101210000Y-62338762D01*
G37*
G04 #@! TD.AperFunction*
G04 #@! TA.AperFunction,Conductor*
G36*
X100275368Y-55456416D02*
G01*
X100269500Y-55516005D01*
X100269500Y-56757450D01*
X100261964Y-56795336D01*
X100240504Y-56827454D01*
X99977454Y-57090504D01*
X99945336Y-57111964D01*
X99907450Y-57119500D01*
X99343977Y-57119500D01*
X99291027Y-57104150D01*
X99254497Y-57062861D01*
X99245715Y-57008435D01*
X99267403Y-56957751D01*
X99312837Y-56926525D01*
X99433481Y-56886547D01*
X99577731Y-56797572D01*
X99697572Y-56677731D01*
X99786547Y-56533481D01*
X99839856Y-56372605D01*
X99842165Y-56350000D01*
X99375000Y-56350000D01*
X100277052Y-55447947D01*
X100275368Y-55456416D01*
G37*
G04 #@! TD.AperFunction*
G04 #@! TA.AperFunction,Conductor*
G36*
X98650000Y-56350000D02*
G01*
X98624000Y-56350000D01*
X98574500Y-56336737D01*
X98538263Y-56300500D01*
X98525000Y-56251000D01*
X98525000Y-56225000D01*
X98650000Y-56350000D01*
G37*
G04 #@! TD.AperFunction*
G04 #@! TA.AperFunction,Conductor*
G36*
X104120500Y-54578263D02*
G01*
X104156737Y-54614500D01*
X104170000Y-54664000D01*
X104170000Y-55603356D01*
X104185125Y-55602166D01*
X104295622Y-55570064D01*
X104352537Y-55570567D01*
X104399769Y-55602327D01*
X104420292Y-55627334D01*
X104441281Y-55648323D01*
X104468357Y-55698925D01*
X104462810Y-55756046D01*
X104426503Y-55800492D01*
X104371637Y-55817326D01*
X103923593Y-55818955D01*
X103882594Y-55810230D01*
X103848880Y-55785321D01*
X103828496Y-55748694D01*
X103824710Y-55736215D01*
X103824710Y-55736214D01*
X103796480Y-55683398D01*
X103796477Y-55683393D01*
X103775022Y-55651282D01*
X103737029Y-55604987D01*
X103658996Y-55526954D01*
X103637536Y-55494836D01*
X103630000Y-55456950D01*
X103630000Y-54664000D01*
X103643263Y-54614500D01*
X103679500Y-54578263D01*
X103729000Y-54565000D01*
X104071000Y-54565000D01*
X104120500Y-54578263D01*
G37*
G04 #@! TD.AperFunction*
G04 #@! TA.AperFunction,Conductor*
G36*
X108113316Y-55579924D02*
G01*
X108189874Y-55602166D01*
X108225874Y-55605000D01*
X108311302Y-55605000D01*
X108369435Y-55623865D01*
X108405412Y-55673271D01*
X108405523Y-55734387D01*
X108369725Y-55783923D01*
X108311662Y-55802999D01*
X108071924Y-55803870D01*
X108024064Y-55791732D01*
X107988020Y-55757988D01*
X107972756Y-55711032D01*
X107982069Y-55662544D01*
X107996200Y-55632666D01*
X108025119Y-55596688D01*
X108067208Y-55577734D01*
X108113316Y-55579924D01*
G37*
G04 #@! TD.AperFunction*
G04 #@! TA.AperFunction,Conductor*
G36*
X102149694Y-51589778D02*
G01*
X102186138Y-51628492D01*
X102197297Y-51680477D01*
X102179954Y-51730736D01*
X102177580Y-51734177D01*
X102169780Y-51745476D01*
X102113762Y-51893184D01*
X102094721Y-52049999D01*
X102113762Y-52206815D01*
X102113762Y-52206817D01*
X102113763Y-52206818D01*
X102169780Y-52354523D01*
X102259517Y-52484530D01*
X102377760Y-52589283D01*
X102451174Y-52627814D01*
X102517636Y-52662697D01*
X102671013Y-52700500D01*
X102671015Y-52700500D01*
X102741956Y-52700500D01*
X102743027Y-52700505D01*
X102803030Y-52701156D01*
X102803033Y-52701155D01*
X102804275Y-52701169D01*
X102814500Y-52700500D01*
X102828982Y-52700500D01*
X102828985Y-52700500D01*
X102847646Y-52695899D01*
X102858410Y-52693872D01*
X102900997Y-52688272D01*
X102925209Y-52685089D01*
X102925215Y-52685088D01*
X102954565Y-52679760D01*
X102956793Y-52679242D01*
X102985605Y-52671035D01*
X103025929Y-52657378D01*
X103070554Y-52652987D01*
X103112543Y-52668738D01*
X103143275Y-52701399D01*
X103156066Y-52723406D01*
X103158896Y-52728630D01*
X103187463Y-52785363D01*
X103189517Y-52789701D01*
X103220687Y-52859878D01*
X103222214Y-52863509D01*
X103255181Y-52946483D01*
X103256342Y-52949553D01*
X103273665Y-52997751D01*
X103279500Y-53031234D01*
X103279500Y-53072454D01*
X103282259Y-53101881D01*
X103325618Y-53225793D01*
X103373899Y-53291211D01*
X103391029Y-53329174D01*
X103391029Y-53370823D01*
X103373900Y-53408786D01*
X103325618Y-53474206D01*
X103282259Y-53598118D01*
X103279500Y-53627546D01*
X103279500Y-54002454D01*
X103282259Y-54031881D01*
X103314291Y-54123422D01*
X103317365Y-54178149D01*
X103290851Y-54226123D01*
X103209263Y-54307711D01*
X103127594Y-54445805D01*
X103082833Y-54599873D01*
X103080000Y-54635874D01*
X103080000Y-54709951D01*
X103064641Y-54762916D01*
X103023328Y-54799446D01*
X102968882Y-54808207D01*
X102918195Y-54786479D01*
X102873717Y-54749977D01*
X102841606Y-54728522D01*
X102788784Y-54700289D01*
X102731483Y-54682907D01*
X102693583Y-54675368D01*
X102633995Y-54669500D01*
X102633992Y-54669500D01*
X101488195Y-54669500D01*
X101443122Y-54658644D01*
X101407933Y-54628457D01*
X101390347Y-54585560D01*
X101394220Y-54539360D01*
X101439506Y-54402694D01*
X101450000Y-54299982D01*
X101450000Y-54000001D01*
X101449999Y-54000000D01*
X101225000Y-54000000D01*
X101225000Y-53250000D01*
X101449998Y-53250000D01*
X101449999Y-53249999D01*
X101449999Y-52950027D01*
X101439505Y-52847303D01*
X101384357Y-52680877D01*
X101292318Y-52531658D01*
X101168341Y-52407681D01*
X101019121Y-52315642D01*
X100852694Y-52260493D01*
X100762500Y-52251278D01*
X100762500Y-52750000D01*
X100012500Y-52750000D01*
X100012500Y-52251281D01*
X100012498Y-52251279D01*
X99922307Y-52260492D01*
X99755877Y-52315642D01*
X99606658Y-52407681D01*
X99482681Y-52531658D01*
X99390642Y-52680878D01*
X99335493Y-52847305D01*
X99325000Y-52950018D01*
X99325000Y-53249999D01*
X99325001Y-53250000D01*
X99825000Y-53250000D01*
X99825000Y-54000000D01*
X99325002Y-54000000D01*
X99325001Y-54000001D01*
X99325001Y-54299973D01*
X99335494Y-54402696D01*
X99390642Y-54569122D01*
X99396454Y-54578545D01*
X98525000Y-55450000D01*
X98525000Y-55010936D01*
X98366518Y-55063452D01*
X98222268Y-55152427D01*
X98094246Y-55280450D01*
X98092593Y-55278797D01*
X98065601Y-55303409D01*
X98012017Y-55313257D01*
X97961337Y-55293264D01*
X97903249Y-55248692D01*
X97829571Y-55218173D01*
X97780064Y-55204908D01*
X97701001Y-55194500D01*
X97701000Y-55194500D01*
X96941008Y-55194500D01*
X96941004Y-55194500D01*
X96881406Y-55200369D01*
X96868984Y-55202840D01*
X96818596Y-55199738D01*
X96776288Y-55172194D01*
X96753063Y-55127369D01*
X96754960Y-55076921D01*
X96781485Y-55033968D01*
X96993320Y-54832724D01*
X97024796Y-54812558D01*
X97061506Y-54805500D01*
X97926001Y-54805500D01*
X97945766Y-54802897D01*
X98005067Y-54795091D01*
X98054567Y-54781828D01*
X98128249Y-54751308D01*
X98191521Y-54702758D01*
X98227758Y-54666521D01*
X98276308Y-54603249D01*
X98306828Y-54529567D01*
X98320091Y-54480067D01*
X98330500Y-54401000D01*
X98330500Y-52750000D01*
X98330500Y-51891008D01*
X98325900Y-51844306D01*
X98324631Y-51831416D01*
X98324630Y-51831413D01*
X98324630Y-51831408D01*
X98317094Y-51793522D01*
X98299710Y-51736214D01*
X98299710Y-51736213D01*
X98291668Y-51721168D01*
X98280008Y-51672070D01*
X98294063Y-51623604D01*
X98330181Y-51588361D01*
X98378978Y-51575500D01*
X102098478Y-51575500D01*
X102149694Y-51589778D01*
G37*
G04 #@! TD.AperFunction*
G04 #@! TA.AperFunction,Conductor*
G36*
X99649500Y-66551945D02*
G01*
X99659779Y-66622504D01*
X99659780Y-66622506D01*
X99712988Y-66731344D01*
X99798653Y-66817009D01*
X99907491Y-66870217D01*
X99978051Y-66880497D01*
X100171948Y-66880496D01*
X100242509Y-66870217D01*
X100281519Y-66851145D01*
X100325000Y-66841086D01*
X100368481Y-66851146D01*
X100407491Y-66870217D01*
X100478051Y-66880497D01*
X100671948Y-66880496D01*
X100742509Y-66870217D01*
X100781519Y-66851145D01*
X100825000Y-66841086D01*
X100868481Y-66851146D01*
X100907491Y-66870217D01*
X100978051Y-66880497D01*
X101171948Y-66880496D01*
X101242509Y-66870217D01*
X101281519Y-66851145D01*
X101325000Y-66841086D01*
X101368481Y-66851146D01*
X101407491Y-66870217D01*
X101478051Y-66880497D01*
X101671948Y-66880496D01*
X101742509Y-66870217D01*
X101781519Y-66851145D01*
X101825000Y-66841086D01*
X101868481Y-66851146D01*
X101907491Y-66870217D01*
X101978051Y-66880497D01*
X102171948Y-66880496D01*
X102242509Y-66870217D01*
X102281519Y-66851145D01*
X102325000Y-66841086D01*
X102368481Y-66851146D01*
X102407491Y-66870217D01*
X102478051Y-66880497D01*
X102550501Y-66880496D01*
X102599999Y-66893759D01*
X102636236Y-66929995D01*
X102649500Y-66979495D01*
X102649500Y-67051944D01*
X102659779Y-67122505D01*
X102678851Y-67161517D01*
X102688910Y-67204997D01*
X102678851Y-67248477D01*
X102659780Y-67287486D01*
X102649500Y-67358049D01*
X102649500Y-67551944D01*
X102659779Y-67622505D01*
X102678851Y-67661517D01*
X102688910Y-67704997D01*
X102678851Y-67748477D01*
X102659780Y-67787486D01*
X102649500Y-67858049D01*
X102649500Y-68051944D01*
X102659779Y-68122504D01*
X102659780Y-68122506D01*
X102712988Y-68231344D01*
X102798653Y-68317009D01*
X102907491Y-68370217D01*
X102978051Y-68380497D01*
X103225000Y-68380496D01*
X103225000Y-69029498D01*
X102978052Y-69029498D01*
X102907492Y-69039776D01*
X102798653Y-69092985D01*
X102712988Y-69178650D01*
X102659780Y-69287488D01*
X102649500Y-69358049D01*
X102649500Y-69551944D01*
X102659779Y-69622505D01*
X102678851Y-69661517D01*
X102688910Y-69704996D01*
X102678851Y-69748476D01*
X102659780Y-69787486D01*
X102649500Y-69858050D01*
X102649500Y-69930498D01*
X102636237Y-69979998D01*
X102600000Y-70016235D01*
X102550501Y-70029497D01*
X102478052Y-70029498D01*
X102407490Y-70039776D01*
X102368479Y-70058848D01*
X102324999Y-70068907D01*
X102281520Y-70058848D01*
X102242509Y-70039777D01*
X102171949Y-70029497D01*
X102171947Y-70029497D01*
X101978052Y-70029497D01*
X101907490Y-70039776D01*
X101868479Y-70058848D01*
X101824999Y-70068907D01*
X101781520Y-70058848D01*
X101742509Y-70039777D01*
X101671949Y-70029497D01*
X101671947Y-70029497D01*
X101478052Y-70029497D01*
X101407490Y-70039776D01*
X101368479Y-70058848D01*
X101324999Y-70068907D01*
X101281520Y-70058848D01*
X101242509Y-70039777D01*
X101171949Y-70029497D01*
X101171947Y-70029497D01*
X100978052Y-70029497D01*
X100907492Y-70039776D01*
X100847905Y-70068907D01*
X100798653Y-70092985D01*
X100712988Y-70178650D01*
X100659780Y-70287488D01*
X100649500Y-70358048D01*
X100649500Y-70700000D01*
X100000500Y-70700000D01*
X100000499Y-70358048D01*
X99990220Y-70287489D01*
X99990220Y-70287488D01*
X99937012Y-70178650D01*
X99851347Y-70092985D01*
X99742509Y-70039777D01*
X99671949Y-70029497D01*
X99671947Y-70029497D01*
X99599499Y-70029497D01*
X99549999Y-70016234D01*
X99513762Y-69979997D01*
X99500499Y-69930497D01*
X99500499Y-69858049D01*
X99490220Y-69787489D01*
X99490219Y-69787486D01*
X99437012Y-69678650D01*
X99351347Y-69592985D01*
X99242509Y-69539777D01*
X99171949Y-69529497D01*
X99171947Y-69529497D01*
X99171945Y-69529497D01*
X98775000Y-69529497D01*
X98775000Y-68380497D01*
X99171948Y-68380496D01*
X99171948Y-68380495D01*
X99242509Y-68370217D01*
X99351347Y-68317009D01*
X99437012Y-68231344D01*
X99490220Y-68122506D01*
X99500500Y-68051946D01*
X99500499Y-67858049D01*
X99490220Y-67787488D01*
X99490220Y-67787486D01*
X99471149Y-67748477D01*
X99461089Y-67704996D01*
X99471148Y-67661517D01*
X99490220Y-67622506D01*
X99500500Y-67551946D01*
X99500499Y-67358049D01*
X99490220Y-67287488D01*
X99437012Y-67178650D01*
X99351347Y-67092985D01*
X99242509Y-67039777D01*
X99171949Y-67029497D01*
X99171947Y-67029497D01*
X99171945Y-67029497D01*
X98775000Y-67029497D01*
X98775000Y-66250000D01*
X99649500Y-66250000D01*
X99649500Y-66551945D01*
G37*
G04 #@! TD.AperFunction*
G04 #@! TA.AperFunction,Conductor*
G36*
X99100000Y-70393759D02*
G01*
X99136236Y-70429996D01*
X99149500Y-70479496D01*
X99149500Y-70700000D01*
X98800000Y-70700000D01*
X98775000Y-70675000D01*
X98775000Y-70380497D01*
X99006576Y-70380496D01*
X99050500Y-70380496D01*
X99100000Y-70393759D01*
G37*
G04 #@! TD.AperFunction*
G04 #@! TA.AperFunction,Conductor*
G36*
X97998531Y-63248134D02*
G01*
X98001968Y-63253615D01*
X98041710Y-63391811D01*
X98042137Y-63394215D01*
X98050561Y-63512650D01*
X98050577Y-63512926D01*
X98055480Y-63616413D01*
X98088347Y-63719922D01*
X98174434Y-63831170D01*
X98176857Y-63839071D01*
X98173454Y-63846603D01*
X98047284Y-63972773D01*
X98039232Y-63976198D01*
X98031056Y-63973079D01*
X97935142Y-63884137D01*
X97852653Y-63825429D01*
X97852652Y-63825428D01*
X97852650Y-63825427D01*
X97772420Y-63786780D01*
X97743323Y-63775901D01*
X97675112Y-63750397D01*
X97674976Y-63750345D01*
X97552185Y-63702676D01*
X97547251Y-63699037D01*
X97544834Y-63693403D01*
X97545597Y-63687323D01*
X97672437Y-63378805D01*
X97674984Y-63374984D01*
X97678805Y-63372437D01*
X97986277Y-63246027D01*
X97992706Y-63245318D01*
X97998531Y-63248134D01*
G37*
G04 #@! TD.AperFunction*
G04 #@! TA.AperFunction,Conductor*
G36*
X105041963Y-81558202D02*
G01*
X105045861Y-81563145D01*
X105174119Y-81870494D01*
X105175021Y-81875000D01*
X105174119Y-81879506D01*
X105045861Y-82186854D01*
X105041963Y-82191797D01*
X105036069Y-82194005D01*
X105029883Y-82192839D01*
X104904032Y-82130701D01*
X104902913Y-82130070D01*
X104807985Y-82069426D01*
X104724737Y-82020086D01*
X104623724Y-81987051D01*
X104590858Y-81984388D01*
X104485753Y-81975871D01*
X104478099Y-81972142D01*
X104475000Y-81964210D01*
X104475000Y-81785790D01*
X104478099Y-81777858D01*
X104485753Y-81774128D01*
X104623722Y-81762948D01*
X104724738Y-81729911D01*
X104807998Y-81680564D01*
X104902929Y-81619918D01*
X104904016Y-81619305D01*
X105029886Y-81557159D01*
X105036069Y-81555994D01*
X105041963Y-81558202D01*
G37*
G04 #@! TD.AperFunction*
G04 #@! TA.AperFunction,Conductor*
G36*
X102671878Y-54982536D02*
G01*
X102703996Y-55003996D01*
X103521004Y-55821004D01*
X103542464Y-55853122D01*
X103550000Y-55891008D01*
X103550000Y-58328993D01*
X103545000Y-58354130D01*
X103545000Y-58375000D01*
X100075000Y-58375000D01*
X100075000Y-57425000D01*
X100575000Y-56925000D01*
X100575000Y-55516008D01*
X100582536Y-55478122D01*
X100603996Y-55446004D01*
X101046004Y-55003996D01*
X101078122Y-54982536D01*
X101116008Y-54975000D01*
X102633992Y-54975000D01*
X102671878Y-54982536D01*
G37*
G04 #@! TD.AperFunction*
G04 #@! TA.AperFunction,Conductor*
G36*
X104182439Y-51642098D02*
G01*
X104187258Y-51646795D01*
X104200401Y-51670480D01*
X104220352Y-51701507D01*
X104240291Y-51727591D01*
X104260241Y-51748760D01*
X104275874Y-51761489D01*
X104279054Y-51765539D01*
X104280187Y-51770562D01*
X104280187Y-51959438D01*
X104279054Y-51964461D01*
X104275874Y-51968511D01*
X104260242Y-51981238D01*
X104240291Y-52002407D01*
X104220352Y-52028491D01*
X104200401Y-52059518D01*
X104187257Y-52083204D01*
X104182438Y-52087901D01*
X104175828Y-52089165D01*
X104169615Y-52086580D01*
X104040961Y-51981238D01*
X103910055Y-51874052D01*
X103906273Y-51868401D01*
X103906273Y-51861599D01*
X103910056Y-51855947D01*
X104021130Y-51765000D01*
X104169616Y-51643418D01*
X104175829Y-51640834D01*
X104182439Y-51642098D01*
G37*
G04 #@! TD.AperFunction*
G04 #@! TA.AperFunction,Conductor*
G36*
X113265000Y-69470500D02*
G01*
X113251737Y-69520000D01*
X113215500Y-69556237D01*
X113166000Y-69569500D01*
X112123999Y-69569500D01*
X112088657Y-69574153D01*
X112075735Y-69575000D01*
X111525000Y-69575000D01*
X111125000Y-69975000D01*
X111125000Y-69975001D01*
X111125000Y-71076000D01*
X111111737Y-71125500D01*
X111075500Y-71161737D01*
X111026000Y-71175000D01*
X109844000Y-71175000D01*
X109794500Y-71161737D01*
X109758263Y-71125500D01*
X109745000Y-71076000D01*
X109745000Y-69266008D01*
X109752536Y-69228122D01*
X109773996Y-69196004D01*
X109773996Y-69196003D01*
X110915000Y-68055000D01*
X113265000Y-68055000D01*
X113265000Y-69470500D01*
G37*
G04 #@! TD.AperFunction*
G04 #@! TA.AperFunction,Conductor*
G36*
X97750500Y-55513263D02*
G01*
X97786737Y-55549500D01*
X97800000Y-55599000D01*
X97800000Y-56075000D01*
X99150000Y-57425000D01*
X102450000Y-57425000D01*
X102450000Y-59900000D01*
X98424000Y-59900000D01*
X98374500Y-59886737D01*
X98338263Y-59850500D01*
X98325000Y-59801000D01*
X98325000Y-57425001D01*
X98325000Y-57425000D01*
X97375000Y-56475000D01*
X97374999Y-56475000D01*
X95749000Y-56475000D01*
X95699500Y-56461737D01*
X95663263Y-56425500D01*
X95650000Y-56376000D01*
X95650000Y-55754000D01*
X95663263Y-55704500D01*
X95699500Y-55668263D01*
X95749000Y-55655000D01*
X95813050Y-55655000D01*
X95817904Y-55655119D01*
X95820670Y-55655254D01*
X95825664Y-55655500D01*
X95860472Y-55655500D01*
X95903957Y-55651358D01*
X95903979Y-55651596D01*
X95915486Y-55650500D01*
X95926934Y-55650500D01*
X95932011Y-55650000D01*
X96750000Y-55650000D01*
X96810502Y-55589497D01*
X96871005Y-55528996D01*
X96903123Y-55507536D01*
X96941008Y-55500000D01*
X97701000Y-55500000D01*
X97750500Y-55513263D01*
G37*
G04 #@! TD.AperFunction*
G04 #@! TA.AperFunction,Conductor*
G36*
X116300000Y-82500000D02*
G01*
X116300000Y-84750000D01*
X115950000Y-85100000D01*
X112300000Y-85100000D01*
X111950000Y-84750000D01*
X111950000Y-82500000D01*
X112300000Y-82150000D01*
X115950000Y-82150000D01*
X116300000Y-82500000D01*
G37*
G04 #@! TD.AperFunction*
G04 #@! TA.AperFunction,Conductor*
G36*
X103445806Y-69962369D02*
G01*
X103557129Y-70074583D01*
X103560281Y-70080454D01*
X103559716Y-70087093D01*
X103557496Y-70092755D01*
X103552500Y-70106994D01*
X103547499Y-70122744D01*
X103542499Y-70139992D01*
X103539815Y-70150062D01*
X103535638Y-70156326D01*
X103528510Y-70158748D01*
X103346489Y-70158748D01*
X103339361Y-70156326D01*
X103335184Y-70150062D01*
X103332499Y-70139992D01*
X103327499Y-70122744D01*
X103322498Y-70106994D01*
X103317501Y-70092751D01*
X103315283Y-70087096D01*
X103314717Y-70080456D01*
X103317867Y-70074586D01*
X103429195Y-69962368D01*
X103434457Y-69959312D01*
X103440543Y-69959312D01*
X103445806Y-69962369D01*
G37*
G04 #@! TD.AperFunction*
G04 #@! TA.AperFunction,Conductor*
G36*
X97820854Y-84170808D02*
G01*
X97949967Y-84174278D01*
X98060621Y-84172843D01*
X98063741Y-84173226D01*
X98171781Y-84201630D01*
X98175833Y-84203591D01*
X98291000Y-84290127D01*
X98294939Y-84295405D01*
X98295403Y-84301975D01*
X98292245Y-84307754D01*
X97954722Y-84645277D01*
X97947844Y-84648621D01*
X97940371Y-84647001D01*
X97889356Y-84615982D01*
X97889355Y-84615981D01*
X97840032Y-84629255D01*
X97840028Y-84629256D01*
X97808666Y-84657061D01*
X97791156Y-84672585D01*
X97791147Y-84672592D01*
X97791134Y-84672605D01*
X97734530Y-84726127D01*
X97732635Y-84727584D01*
X97670120Y-84766151D01*
X97663698Y-84767890D01*
X97657367Y-84765847D01*
X97653172Y-84760682D01*
X97605222Y-84645277D01*
X97525662Y-84453791D01*
X97524767Y-84449293D01*
X97525668Y-84444798D01*
X97654483Y-84136120D01*
X97660140Y-84130117D01*
X97668349Y-84129337D01*
X97820854Y-84170808D01*
G37*
G04 #@! TD.AperFunction*
G04 #@! TA.AperFunction,Conductor*
G36*
X96373312Y-66109021D02*
G01*
X96376862Y-66114220D01*
X96421913Y-66247147D01*
X96422258Y-66248384D01*
X96446498Y-66358384D01*
X96470477Y-66452141D01*
X96518546Y-66546933D01*
X96575000Y-66613342D01*
X96615188Y-66660617D01*
X96575000Y-66700805D01*
X96481395Y-66794409D01*
X96473595Y-66797826D01*
X96465544Y-66795050D01*
X96360082Y-66705397D01*
X96265290Y-66657328D01*
X96171533Y-66633349D01*
X96061533Y-66609109D01*
X96060296Y-66608764D01*
X96032248Y-66599258D01*
X95927368Y-66563712D01*
X95922170Y-66560163D01*
X95919564Y-66554434D01*
X95920302Y-66548186D01*
X96046940Y-66240159D01*
X96049487Y-66236338D01*
X96053308Y-66233791D01*
X96361335Y-66107153D01*
X96367583Y-66106415D01*
X96373312Y-66109021D01*
G37*
G04 #@! TD.AperFunction*
G04 #@! TA.AperFunction,Conductor*
G36*
X99145499Y-67838263D02*
G01*
X99181736Y-67874500D01*
X99194999Y-67924000D01*
X99194999Y-67975995D01*
X99181736Y-68025495D01*
X99145499Y-68061731D01*
X99096000Y-68074995D01*
X98767249Y-68074996D01*
X98767211Y-68075000D01*
X98100000Y-68075000D01*
X97175000Y-69000000D01*
X96300000Y-69000000D01*
X96300000Y-68125000D01*
X96600000Y-67825000D01*
X99095999Y-67825000D01*
X99145499Y-67838263D01*
G37*
G04 #@! TD.AperFunction*
G04 #@! TA.AperFunction,Conductor*
G36*
X103998701Y-53276955D02*
G01*
X104003012Y-53282167D01*
X104034001Y-53355913D01*
X104067998Y-53426617D01*
X104101997Y-53487129D01*
X104135999Y-53537442D01*
X104162586Y-53568806D01*
X104165331Y-53577214D01*
X104161406Y-53585141D01*
X103907745Y-53809160D01*
X103900000Y-53812090D01*
X103892255Y-53809160D01*
X103638593Y-53585141D01*
X103634668Y-53577214D01*
X103637412Y-53568807D01*
X103664000Y-53537441D01*
X103698000Y-53487131D01*
X103731999Y-53426620D01*
X103765999Y-53355910D01*
X103796988Y-53282166D01*
X103801299Y-53276955D01*
X103807774Y-53275000D01*
X103992226Y-53275000D01*
X103998701Y-53276955D01*
G37*
G04 #@! TD.AperFunction*
G04 #@! TA.AperFunction,Conductor*
G36*
X99902076Y-82163069D02*
G01*
X100000004Y-82238444D01*
X100106056Y-82311075D01*
X100106065Y-82311080D01*
X100106066Y-82311081D01*
X100209379Y-82373069D01*
X100212138Y-82374724D01*
X100255226Y-82396920D01*
X100318197Y-82429360D01*
X100318203Y-82429362D01*
X100318202Y-82429362D01*
X100413692Y-82470451D01*
X100419901Y-82476779D01*
X100419890Y-82485645D01*
X100304890Y-82765526D01*
X100298903Y-82771733D01*
X100290290Y-82772152D01*
X99666329Y-82559245D01*
X99659988Y-82554045D01*
X99658618Y-82545961D01*
X99661715Y-82529875D01*
X99666737Y-82498131D01*
X99671758Y-82460726D01*
X99676780Y-82417660D01*
X99681376Y-82373066D01*
X99684739Y-82365996D01*
X99886668Y-82164067D01*
X99894183Y-82160665D01*
X99902076Y-82163069D01*
G37*
G04 #@! TD.AperFunction*
G04 #@! TA.AperFunction,Conductor*
G36*
X100850000Y-64025000D02*
G01*
X99200000Y-64025000D01*
X99200000Y-62400000D01*
X100850000Y-62400000D01*
X100850000Y-64025000D01*
G37*
G04 #@! TD.AperFunction*
G04 #@! TA.AperFunction,Conductor*
G36*
X101225000Y-54500000D02*
G01*
X99275000Y-56450000D01*
X98750000Y-56450000D01*
X98450000Y-56150000D01*
X98450000Y-55525000D01*
X99825000Y-54150000D01*
X99825000Y-52750000D01*
X101225000Y-52750000D01*
X101225000Y-54500000D01*
G37*
G04 #@! TD.AperFunction*
G04 #@! TA.AperFunction,Conductor*
G36*
X108573701Y-53276955D02*
G01*
X108578012Y-53282167D01*
X108609001Y-53355913D01*
X108642998Y-53426617D01*
X108676997Y-53487129D01*
X108710999Y-53537442D01*
X108737586Y-53568806D01*
X108740331Y-53577214D01*
X108736406Y-53585141D01*
X108482745Y-53809160D01*
X108475000Y-53812090D01*
X108467255Y-53809160D01*
X108213593Y-53585141D01*
X108209668Y-53577214D01*
X108212412Y-53568807D01*
X108239000Y-53537441D01*
X108273000Y-53487131D01*
X108306999Y-53426620D01*
X108340999Y-53355910D01*
X108371988Y-53282166D01*
X108376299Y-53276955D01*
X108382774Y-53275000D01*
X108567226Y-53275000D01*
X108573701Y-53276955D01*
G37*
G04 #@! TD.AperFunction*
G04 #@! TA.AperFunction,Conductor*
G36*
X100700000Y-71300000D02*
G01*
X99950000Y-71300000D01*
X99950000Y-70700000D01*
X100700000Y-70700000D01*
X100700000Y-71300000D01*
G37*
G04 #@! TD.AperFunction*
G04 #@! TA.AperFunction,Conductor*
G36*
X103537367Y-52378634D02*
G01*
X103625808Y-52441705D01*
X103625811Y-52441707D01*
X103722317Y-52500330D01*
X103818824Y-52548753D01*
X103915330Y-52586976D01*
X103999332Y-52611368D01*
X104004795Y-52614811D01*
X104007600Y-52620628D01*
X104006891Y-52627047D01*
X103903114Y-52879843D01*
X103899691Y-52884462D01*
X103894482Y-52886893D01*
X103589819Y-52944965D01*
X103581828Y-52943633D01*
X103576619Y-52937430D01*
X103541576Y-52839930D01*
X103503153Y-52743224D01*
X103464730Y-52656717D01*
X103464729Y-52656714D01*
X103426302Y-52580401D01*
X103392409Y-52522089D01*
X103390922Y-52514700D01*
X103394250Y-52507938D01*
X103522302Y-52379886D01*
X103529605Y-52376500D01*
X103537367Y-52378634D01*
G37*
G04 #@! TD.AperFunction*
G04 #@! TA.AperFunction,Conductor*
G36*
X98025000Y-54401000D02*
G01*
X98011737Y-54450500D01*
X97975500Y-54486737D01*
X97926000Y-54500000D01*
X96900000Y-54500000D01*
X95928658Y-55422775D01*
X95897182Y-55442942D01*
X95860472Y-55450000D01*
X95825664Y-55450000D01*
X95820587Y-55449500D01*
X95749000Y-55449500D01*
X95699500Y-55436237D01*
X95663263Y-55400000D01*
X95650000Y-55350500D01*
X95650000Y-53825001D01*
X95650000Y-53800000D01*
X95900000Y-53800000D01*
X96950000Y-52750000D01*
X98025000Y-52750000D01*
X98025000Y-54401000D01*
G37*
G04 #@! TD.AperFunction*
G04 #@! TA.AperFunction,Conductor*
G36*
X102698956Y-70836303D02*
G01*
X102744558Y-70875068D01*
X102804418Y-70925955D01*
X102804420Y-70925956D01*
X102899209Y-70974024D01*
X102942219Y-70985024D01*
X102992967Y-70998003D01*
X102992975Y-70998004D01*
X102992976Y-70998005D01*
X103102967Y-71022244D01*
X103104203Y-71022589D01*
X103237134Y-71067642D01*
X103242332Y-71071192D01*
X103244938Y-71076921D01*
X103244199Y-71083172D01*
X103117563Y-71391192D01*
X103115015Y-71395016D01*
X103111191Y-71397564D01*
X102803171Y-71524200D01*
X102796920Y-71524939D01*
X102791191Y-71522333D01*
X102787641Y-71517135D01*
X102742588Y-71384204D01*
X102742243Y-71382966D01*
X102718002Y-71272968D01*
X102694023Y-71179211D01*
X102694023Y-71179210D01*
X102645955Y-71084421D01*
X102645954Y-71084419D01*
X102572494Y-70998005D01*
X102556302Y-70978957D01*
X102553527Y-70970908D01*
X102556943Y-70963109D01*
X102683108Y-70836944D01*
X102690907Y-70833528D01*
X102698956Y-70836303D01*
G37*
G04 #@! TD.AperFunction*
G04 #@! TA.AperFunction,Conductor*
G36*
X96859168Y-82456001D02*
G01*
X96882870Y-82466178D01*
X96956229Y-82497679D01*
X97060922Y-82533634D01*
X97165614Y-82560589D01*
X97270307Y-82578544D01*
X97270315Y-82578544D01*
X97270317Y-82578545D01*
X97294899Y-82580647D01*
X97364298Y-82586584D01*
X97371918Y-82590328D01*
X97375000Y-82598241D01*
X97375000Y-83076758D01*
X97371918Y-83084671D01*
X97364297Y-83088415D01*
X97270317Y-83096453D01*
X97165602Y-83114412D01*
X97060931Y-83141362D01*
X96956226Y-83177321D01*
X96859168Y-83218998D01*
X96852093Y-83219686D01*
X96845925Y-83216151D01*
X96506240Y-82845402D01*
X96503168Y-82837500D01*
X96506240Y-82829597D01*
X96845927Y-82458846D01*
X96852093Y-82455313D01*
X96859168Y-82456001D01*
G37*
G04 #@! TD.AperFunction*
G04 #@! TA.AperFunction,Conductor*
G36*
X113275500Y-69788263D02*
G01*
X113311737Y-69824500D01*
X113325000Y-69874000D01*
X113325000Y-70215000D01*
X114775000Y-71675000D01*
X115127445Y-71675000D01*
X115176524Y-71688022D01*
X115212692Y-71723662D01*
X115226434Y-71772544D01*
X115248523Y-73274544D01*
X115235752Y-73324657D01*
X115199454Y-73361493D01*
X115149534Y-73375000D01*
X114066008Y-73375000D01*
X114028122Y-73367464D01*
X113996004Y-73346004D01*
X112053996Y-71403996D01*
X112032536Y-71371878D01*
X112025000Y-71333992D01*
X112025000Y-69874000D01*
X112038263Y-69824500D01*
X112074500Y-69788263D01*
X112124000Y-69775000D01*
X113226000Y-69775000D01*
X113275500Y-69788263D01*
G37*
G04 #@! TD.AperFunction*
G04 #@! TA.AperFunction,Conductor*
G36*
X112365000Y-79775000D02*
G01*
X112615000Y-80025000D01*
X113751000Y-80025000D01*
X113800500Y-80038263D01*
X113836737Y-80074500D01*
X113850000Y-80124000D01*
X113850000Y-81233992D01*
X113842464Y-81271878D01*
X113821004Y-81303996D01*
X113628996Y-81496004D01*
X113596878Y-81517464D01*
X113558992Y-81525000D01*
X110306008Y-81525000D01*
X110268122Y-81517464D01*
X110236004Y-81496004D01*
X110043996Y-81303996D01*
X110022536Y-81271878D01*
X110015000Y-81233992D01*
X110015000Y-79325000D01*
X112365000Y-79325000D01*
X112365000Y-79775000D01*
G37*
G04 #@! TD.AperFunction*
G04 #@! TA.AperFunction,Conductor*
G36*
X103907743Y-52890838D02*
G01*
X104161406Y-53114858D01*
X104165331Y-53122785D01*
X104162586Y-53131193D01*
X104135999Y-53162556D01*
X104101997Y-53212869D01*
X104067998Y-53273381D01*
X104034001Y-53344085D01*
X104003012Y-53417833D01*
X103998701Y-53423045D01*
X103992226Y-53425000D01*
X103807774Y-53425000D01*
X103801299Y-53423045D01*
X103796988Y-53417833D01*
X103765997Y-53344085D01*
X103732000Y-53273381D01*
X103698001Y-53212869D01*
X103663999Y-53162556D01*
X103637413Y-53131193D01*
X103634668Y-53122785D01*
X103638591Y-53114860D01*
X103892256Y-52890838D01*
X103900000Y-52887909D01*
X103907743Y-52890838D01*
G37*
G04 #@! TD.AperFunction*
G04 #@! TA.AperFunction,Conductor*
G36*
X94565610Y-82461029D02*
G01*
X94895033Y-82867635D01*
X94897642Y-82875000D01*
X94895033Y-82882365D01*
X94566246Y-83288186D01*
X94559359Y-83292311D01*
X94551435Y-83291028D01*
X94445526Y-83231677D01*
X94331024Y-83178759D01*
X94273768Y-83157923D01*
X94216515Y-83137089D01*
X94125934Y-83113025D01*
X94102000Y-83106667D01*
X93997268Y-83089135D01*
X93990270Y-83085155D01*
X93987500Y-83077596D01*
X93987500Y-82598781D01*
X93990778Y-82590660D01*
X93998772Y-82587089D01*
X94102007Y-82583330D01*
X94216515Y-82567910D01*
X94331022Y-82541240D01*
X94445530Y-82503320D01*
X94551906Y-82457642D01*
X94559324Y-82457035D01*
X94565610Y-82461029D01*
G37*
G04 #@! TD.AperFunction*
G04 #@! TA.AperFunction,Conductor*
G36*
X120331878Y-65482536D02*
G01*
X120363996Y-65503996D01*
X120556004Y-65696004D01*
X120577464Y-65728122D01*
X120585000Y-65766008D01*
X120585000Y-73093992D01*
X120577464Y-73131878D01*
X120556004Y-73163996D01*
X120363996Y-73356004D01*
X120331878Y-73377464D01*
X120293992Y-73385000D01*
X117844584Y-73385000D01*
X117794916Y-73371639D01*
X117758654Y-73335163D01*
X117745586Y-73285418D01*
X117754421Y-71783418D01*
X117767877Y-71734164D01*
X117804087Y-71698167D01*
X117853419Y-71685000D01*
X118564999Y-71685000D01*
X118565000Y-71685000D01*
X118815000Y-71435000D01*
X118815000Y-68935000D01*
X118555000Y-68685000D01*
X118554999Y-68685000D01*
X117476009Y-68685000D01*
X117438123Y-68677464D01*
X117406005Y-68656004D01*
X117213996Y-68463995D01*
X117192536Y-68431877D01*
X117185000Y-68393991D01*
X117185000Y-65774874D01*
X117192169Y-65737887D01*
X117212638Y-65706256D01*
X117405787Y-65505382D01*
X117438369Y-65482912D01*
X117477149Y-65475000D01*
X120293992Y-65475000D01*
X120331878Y-65482536D01*
G37*
G04 #@! TD.AperFunction*
G04 #@! TA.AperFunction,Conductor*
G36*
X104113167Y-82695799D02*
G01*
X104421192Y-82822436D01*
X104425015Y-82824984D01*
X104427563Y-82828808D01*
X104554199Y-83136829D01*
X104554938Y-83143080D01*
X104552332Y-83148809D01*
X104547133Y-83152359D01*
X104414205Y-83197409D01*
X104412968Y-83197754D01*
X104302967Y-83221995D01*
X104209210Y-83245974D01*
X104114418Y-83294043D01*
X104008958Y-83383696D01*
X104000907Y-83386472D01*
X103993107Y-83383055D01*
X103866944Y-83256892D01*
X103863527Y-83249092D01*
X103866302Y-83241043D01*
X103955955Y-83135578D01*
X104004023Y-83040789D01*
X104028004Y-82947022D01*
X104052244Y-82837026D01*
X104052588Y-82835795D01*
X104056487Y-82824293D01*
X104097641Y-82702863D01*
X104101191Y-82697667D01*
X104106920Y-82695061D01*
X104113167Y-82695799D01*
G37*
G04 #@! TD.AperFunction*
G04 #@! TA.AperFunction,Conductor*
G36*
X97771878Y-51607536D02*
G01*
X97803996Y-51628996D01*
X97996004Y-51821004D01*
X98017464Y-51853122D01*
X98025000Y-51891008D01*
X98025000Y-53825000D01*
X95649999Y-53825000D01*
X95628996Y-53803997D01*
X95607536Y-53771879D01*
X95600000Y-53733993D01*
X95600000Y-52750001D01*
X95600000Y-52750000D01*
X95350000Y-52500000D01*
X95349999Y-52500000D01*
X93775001Y-52500000D01*
X93775000Y-52500000D01*
X93525000Y-52750000D01*
X93525000Y-52750001D01*
X93525000Y-55101000D01*
X93511737Y-55150500D01*
X93475500Y-55186737D01*
X93426000Y-55200000D01*
X91124000Y-55200000D01*
X91074500Y-55186737D01*
X91038263Y-55150500D01*
X91025000Y-55101000D01*
X91025000Y-51891008D01*
X91032536Y-51853122D01*
X91053996Y-51821004D01*
X91246004Y-51628996D01*
X91278122Y-51607536D01*
X91316008Y-51600000D01*
X97733992Y-51600000D01*
X97771878Y-51607536D01*
G37*
G04 #@! TD.AperFunction*
G04 #@! TA.AperFunction,Conductor*
G36*
X95530994Y-66466685D02*
G01*
X95567455Y-66511113D01*
X95568642Y-66513979D01*
X95568643Y-66513981D01*
X95656881Y-66628975D01*
X95771875Y-66717213D01*
X95771878Y-66717215D01*
X95810627Y-66733265D01*
X95816908Y-66736129D01*
X95861290Y-66758280D01*
X95861407Y-66758339D01*
X95974404Y-66796636D01*
X96010537Y-66818361D01*
X96034354Y-66853151D01*
X96041534Y-66894697D01*
X96024999Y-67275000D01*
X96163569Y-67413570D01*
X96168210Y-67419958D01*
X96280046Y-67531794D01*
X96286432Y-67536433D01*
X96574999Y-67824999D01*
X96575000Y-67825000D01*
X97175000Y-67825000D01*
X97175000Y-69000000D01*
X97153996Y-69021004D01*
X97121878Y-69042464D01*
X97083992Y-69050000D01*
X94849000Y-69050000D01*
X94799500Y-69036737D01*
X94763263Y-69000500D01*
X94750000Y-68951000D01*
X94750000Y-66549000D01*
X94763263Y-66499500D01*
X94799500Y-66463263D01*
X94849000Y-66450000D01*
X95475992Y-66450000D01*
X95530994Y-66466685D01*
G37*
G04 #@! TD.AperFunction*
G04 #@! TA.AperFunction,Conductor*
G36*
X102710396Y-65820860D02*
G01*
X102710606Y-65821027D01*
X102714141Y-65823840D01*
X102714143Y-65823841D01*
X102716367Y-65825138D01*
X102718749Y-65826973D01*
X102850979Y-65959203D01*
X102854405Y-65967367D01*
X102851132Y-65975593D01*
X102827298Y-66000333D01*
X102795459Y-66034884D01*
X102763617Y-66070941D01*
X102731823Y-66108442D01*
X102705586Y-66140624D01*
X102699295Y-66144597D01*
X102691880Y-66143973D01*
X102585117Y-66097877D01*
X102580350Y-66094095D01*
X102578127Y-66088430D01*
X102579048Y-66082416D01*
X102692406Y-65825293D01*
X102697032Y-65820018D01*
X102703847Y-65818338D01*
X102710396Y-65820860D01*
G37*
G04 #@! TD.AperFunction*
G04 #@! TA.AperFunction,Conductor*
G36*
X92650000Y-60875000D02*
G01*
X91350000Y-62175000D01*
X91350000Y-62175001D01*
X91350000Y-65854490D01*
X91343567Y-65889595D01*
X91313762Y-65968182D01*
X91294721Y-66124999D01*
X91313762Y-66281817D01*
X91343567Y-66360405D01*
X91350000Y-66395510D01*
X91350000Y-68800000D01*
X92645334Y-70070894D01*
X92667283Y-70103240D01*
X92675000Y-70141561D01*
X92675000Y-75950000D01*
X93175000Y-76450000D01*
X99108992Y-76450000D01*
X99146878Y-76457536D01*
X99178996Y-76478996D01*
X100121004Y-77421004D01*
X100142464Y-77453122D01*
X100150000Y-77491008D01*
X100150000Y-80708992D01*
X100142464Y-80746878D01*
X100121004Y-80778996D01*
X99454463Y-81445536D01*
X99422347Y-81466995D01*
X99384464Y-81474532D01*
X89871122Y-81474985D01*
X89832160Y-81466998D01*
X89799485Y-81444322D01*
X89137099Y-80750000D01*
X89102367Y-80713593D01*
X89082096Y-80682065D01*
X89075000Y-80645258D01*
X89075000Y-69900001D01*
X89075000Y-69900000D01*
X88103995Y-68928995D01*
X88082536Y-68896878D01*
X88075000Y-68858992D01*
X88075000Y-60266008D01*
X88082536Y-60228122D01*
X88103996Y-60196004D01*
X88546004Y-59753996D01*
X88578122Y-59732536D01*
X88616008Y-59725000D01*
X90149999Y-59725000D01*
X90150000Y-59725000D01*
X90971003Y-58903996D01*
X91003122Y-58882536D01*
X91021023Y-58878975D01*
X91024999Y-58875000D01*
X91025000Y-58875000D01*
X92650000Y-58875000D01*
X92650000Y-60875000D01*
G37*
G04 #@! TD.AperFunction*
G04 #@! TA.AperFunction,Conductor*
G36*
X102828167Y-65415800D02*
G01*
X103136192Y-65542437D01*
X103140015Y-65544985D01*
X103142563Y-65548809D01*
X103269199Y-65856830D01*
X103269938Y-65863081D01*
X103267332Y-65868810D01*
X103262133Y-65872360D01*
X103129205Y-65917410D01*
X103127968Y-65917755D01*
X103017967Y-65941996D01*
X102924210Y-65965974D01*
X102829418Y-66014043D01*
X102723957Y-66103696D01*
X102715906Y-66106472D01*
X102708106Y-66103055D01*
X102581944Y-65976893D01*
X102578527Y-65969093D01*
X102581302Y-65961044D01*
X102670955Y-65855579D01*
X102719023Y-65760790D01*
X102743004Y-65667023D01*
X102767244Y-65557027D01*
X102767588Y-65555796D01*
X102771487Y-65544294D01*
X102812641Y-65422864D01*
X102816191Y-65417668D01*
X102821920Y-65415062D01*
X102828167Y-65415800D01*
G37*
G04 #@! TD.AperFunction*
G04 #@! TA.AperFunction,Conductor*
G36*
X108757900Y-51640341D02*
G01*
X108762819Y-51644046D01*
X108784786Y-51672412D01*
X108814103Y-51704384D01*
X108832530Y-51720779D01*
X108843431Y-51730479D01*
X108872755Y-51750683D01*
X108890750Y-51759468D01*
X108895513Y-51761794D01*
X108900303Y-51766110D01*
X108902080Y-51772308D01*
X108902080Y-51957692D01*
X108900303Y-51963890D01*
X108895513Y-51968206D01*
X108872751Y-51979317D01*
X108843433Y-51999517D01*
X108814103Y-52025614D01*
X108784786Y-52057586D01*
X108762819Y-52085953D01*
X108757900Y-52089658D01*
X108751781Y-52090352D01*
X108746157Y-52087842D01*
X108485056Y-51874053D01*
X108481273Y-51868401D01*
X108481273Y-51861599D01*
X108485056Y-51855947D01*
X108746158Y-51642156D01*
X108751781Y-51639647D01*
X108757900Y-51640341D01*
G37*
G04 #@! TD.AperFunction*
G04 #@! TA.AperFunction,Conductor*
G36*
X95200500Y-52788263D02*
G01*
X95236737Y-52824500D01*
X95250000Y-52874000D01*
X95250000Y-53500500D01*
X95236737Y-53550000D01*
X95200500Y-53586237D01*
X95151000Y-53599500D01*
X94523066Y-53599500D01*
X94517989Y-53600000D01*
X94350000Y-53600000D01*
X94350000Y-53600001D01*
X94350000Y-53767989D01*
X94349500Y-53773066D01*
X94349500Y-55476934D01*
X94350000Y-55482011D01*
X94350000Y-55650000D01*
X94517989Y-55650000D01*
X94523066Y-55650500D01*
X94530252Y-55650500D01*
X94751000Y-55650500D01*
X94800500Y-55663763D01*
X94836737Y-55700000D01*
X94850000Y-55749500D01*
X94850000Y-56475000D01*
X94100000Y-56475000D01*
X93850000Y-56225000D01*
X93850000Y-53066008D01*
X93857536Y-53028122D01*
X93878996Y-52996004D01*
X94071004Y-52803996D01*
X94103122Y-52782536D01*
X94141008Y-52775000D01*
X95151000Y-52775000D01*
X95200500Y-52788263D01*
G37*
G04 #@! TD.AperFunction*
G04 #@! TA.AperFunction,Conductor*
G36*
X108720135Y-53561552D02*
G01*
X108782329Y-53607620D01*
X108852997Y-53649765D01*
X108853001Y-53649766D01*
X108853003Y-53649768D01*
X108923657Y-53681707D01*
X108923664Y-53681710D01*
X108994332Y-53703455D01*
X109031662Y-53709553D01*
X109055186Y-53713397D01*
X109062215Y-53717367D01*
X109065000Y-53724944D01*
X109065000Y-53905056D01*
X109062215Y-53912633D01*
X109055186Y-53916603D01*
X108994335Y-53926543D01*
X108923657Y-53948291D01*
X108853003Y-53980230D01*
X108782327Y-54022380D01*
X108720137Y-54068446D01*
X108712050Y-54070690D01*
X108704541Y-54066942D01*
X108481227Y-53822898D01*
X108478159Y-53815000D01*
X108481227Y-53807102D01*
X108556406Y-53724944D01*
X108704542Y-53563056D01*
X108712050Y-53559309D01*
X108720135Y-53561552D01*
G37*
G04 #@! TD.AperFunction*
G04 #@! TA.AperFunction,Conductor*
G36*
X109115000Y-64955000D02*
G01*
X109125000Y-64955000D01*
X109125000Y-64975000D01*
X110485000Y-64975000D01*
X110709500Y-65199500D01*
X110709500Y-66900500D01*
X110465000Y-67145001D01*
X109115000Y-67145001D01*
X109115000Y-69145001D01*
X109115000Y-71895001D01*
X109115000Y-73720001D01*
X106040000Y-73720001D01*
X106040000Y-69545001D01*
X105590000Y-69095001D01*
X103225000Y-69095001D01*
X103225000Y-68323956D01*
X105590000Y-68320001D01*
X106040000Y-67870001D01*
X106040000Y-63170001D01*
X109115000Y-63170001D01*
X109115000Y-64955000D01*
G37*
G04 #@! TD.AperFunction*
G04 #@! TA.AperFunction,Conductor*
G36*
X101432326Y-83240007D02*
G01*
X101436619Y-83244300D01*
X101438183Y-83250167D01*
X101437525Y-83576344D01*
X101435768Y-83582486D01*
X101431047Y-83586790D01*
X101424769Y-83587972D01*
X101377368Y-83583675D01*
X101375973Y-83583463D01*
X101329472Y-83573499D01*
X101329471Y-83573498D01*
X101329467Y-83573498D01*
X101289542Y-83568430D01*
X101250519Y-83578053D01*
X101214170Y-83605800D01*
X101206291Y-83608174D01*
X101198798Y-83604773D01*
X101071852Y-83477827D01*
X101068451Y-83470334D01*
X101070824Y-83462457D01*
X101098573Y-83426105D01*
X101108195Y-83387083D01*
X101103127Y-83347158D01*
X101093161Y-83300649D01*
X101092950Y-83299259D01*
X101088653Y-83251854D01*
X101089835Y-83245579D01*
X101094139Y-83240858D01*
X101100280Y-83239101D01*
X101426461Y-83238443D01*
X101432326Y-83240007D01*
G37*
G04 #@! TD.AperFunction*
G04 #@! TA.AperFunction,Conductor*
G36*
X103589132Y-66021196D02*
G01*
X103896192Y-66147436D01*
X103900015Y-66149984D01*
X103902563Y-66153808D01*
X104028803Y-66460867D01*
X104029490Y-66467424D01*
X104026523Y-66473312D01*
X104020844Y-66476661D01*
X103934002Y-66498570D01*
X103930809Y-66498920D01*
X103851362Y-66496671D01*
X103850672Y-66496631D01*
X103779893Y-66490430D01*
X103709254Y-66504254D01*
X103637381Y-66556271D01*
X103629592Y-66558456D01*
X103622248Y-66555066D01*
X103494933Y-66427749D01*
X103491543Y-66420405D01*
X103493727Y-66412618D01*
X103545744Y-66340744D01*
X103559568Y-66270105D01*
X103553365Y-66199317D01*
X103553326Y-66198635D01*
X103552058Y-66153808D01*
X103551078Y-66119181D01*
X103551429Y-66115995D01*
X103573339Y-66029155D01*
X103576687Y-66023476D01*
X103582575Y-66020509D01*
X103589132Y-66021196D01*
G37*
G04 #@! TD.AperFunction*
G04 #@! TA.AperFunction,Conductor*
G36*
X105511878Y-69327537D02*
G01*
X105543996Y-69348997D01*
X105786004Y-69591005D01*
X105807464Y-69623123D01*
X105815000Y-69661009D01*
X105815000Y-75570001D01*
X106286004Y-76041006D01*
X106307464Y-76073123D01*
X106315000Y-76111009D01*
X106315000Y-79546001D01*
X106301737Y-79595501D01*
X106265500Y-79631738D01*
X106216000Y-79645001D01*
X104064000Y-79645001D01*
X104014500Y-79631738D01*
X103978263Y-79595501D01*
X103965000Y-79546001D01*
X103965000Y-76111009D01*
X103972536Y-76073123D01*
X103993996Y-76041006D01*
X104229497Y-75805503D01*
X104465000Y-75570001D01*
X104465000Y-69895001D01*
X104165000Y-69595001D01*
X104164999Y-69595001D01*
X103054000Y-69595001D01*
X103004500Y-69581738D01*
X102968263Y-69545501D01*
X102955000Y-69496001D01*
X102955000Y-69433998D01*
X102968263Y-69384498D01*
X103004500Y-69348261D01*
X103054000Y-69334998D01*
X103225002Y-69334998D01*
X103311996Y-69321220D01*
X103327482Y-69320001D01*
X105473992Y-69320001D01*
X105511878Y-69327537D01*
G37*
G04 #@! TD.AperFunction*
G04 #@! TA.AperFunction,Conductor*
G36*
X103660460Y-70442386D02*
G01*
X103700058Y-70473981D01*
X103741671Y-70487943D01*
X103741671Y-70487942D01*
X103741672Y-70487943D01*
X103784163Y-70486760D01*
X103784170Y-70486759D01*
X103834174Y-70479502D01*
X103835033Y-70479411D01*
X103887534Y-70475846D01*
X103893704Y-70477129D01*
X103898315Y-70481428D01*
X103900025Y-70487495D01*
X103900683Y-70813959D01*
X103899119Y-70819826D01*
X103894826Y-70824119D01*
X103888959Y-70825683D01*
X103562495Y-70825025D01*
X103556428Y-70823315D01*
X103552129Y-70818704D01*
X103550846Y-70812534D01*
X103554411Y-70760033D01*
X103554502Y-70759174D01*
X103561759Y-70709170D01*
X103561759Y-70709169D01*
X103561760Y-70709163D01*
X103562943Y-70666672D01*
X103548981Y-70625059D01*
X103548981Y-70625058D01*
X103517386Y-70585460D01*
X103514850Y-70577508D01*
X103518258Y-70569891D01*
X103644891Y-70443258D01*
X103652508Y-70439850D01*
X103660460Y-70442386D01*
G37*
G04 #@! TD.AperFunction*
G04 #@! TA.AperFunction,Conductor*
G36*
X97841963Y-70958202D02*
G01*
X97845861Y-70963145D01*
X97974119Y-71270494D01*
X97975021Y-71275000D01*
X97974119Y-71279506D01*
X97845861Y-71586854D01*
X97841963Y-71591797D01*
X97836069Y-71594005D01*
X97829883Y-71592839D01*
X97704032Y-71530701D01*
X97702913Y-71530070D01*
X97607985Y-71469426D01*
X97524737Y-71420086D01*
X97423724Y-71387051D01*
X97390858Y-71384388D01*
X97285753Y-71375871D01*
X97278099Y-71372142D01*
X97275000Y-71364210D01*
X97275000Y-71185790D01*
X97278099Y-71177858D01*
X97285753Y-71174128D01*
X97423722Y-71162948D01*
X97524738Y-71129911D01*
X97607998Y-71080564D01*
X97702929Y-71019918D01*
X97704016Y-71019305D01*
X97829886Y-70957159D01*
X97836069Y-70955994D01*
X97841963Y-70958202D01*
G37*
G04 #@! TD.AperFunction*
G04 #@! TA.AperFunction,Conductor*
G36*
X120321878Y-76772536D02*
G01*
X120353996Y-76793996D01*
X120546004Y-76986004D01*
X120567464Y-77018122D01*
X120575000Y-77056008D01*
X120575000Y-84318143D01*
X120568758Y-84352741D01*
X120529587Y-84457760D01*
X120506833Y-84493165D01*
X120353997Y-84646003D01*
X120321879Y-84667464D01*
X120283993Y-84675000D01*
X117274000Y-84675000D01*
X117224500Y-84661737D01*
X117188263Y-84625500D01*
X117175000Y-84576000D01*
X117175000Y-81756008D01*
X117182536Y-81718122D01*
X117203996Y-81686004D01*
X117396004Y-81493996D01*
X117428122Y-81472536D01*
X117466008Y-81465000D01*
X118544999Y-81465000D01*
X118545000Y-81465000D01*
X118805000Y-81215000D01*
X118805000Y-78715000D01*
X118555000Y-78465000D01*
X118554999Y-78465000D01*
X117843419Y-78465000D01*
X117794087Y-78451833D01*
X117757877Y-78415836D01*
X117744421Y-78366582D01*
X117735586Y-76864582D01*
X117748654Y-76814837D01*
X117784916Y-76778361D01*
X117834584Y-76765000D01*
X120283992Y-76765000D01*
X120321878Y-76772536D01*
G37*
G04 #@! TD.AperFunction*
G04 #@! TA.AperFunction,Conductor*
G36*
X104245000Y-64906001D02*
G01*
X104231737Y-64955501D01*
X104195500Y-64991738D01*
X104146000Y-65005001D01*
X103262321Y-65005001D01*
X103249400Y-65004154D01*
X103140000Y-64989751D01*
X103030599Y-65004154D01*
X103017679Y-65005001D01*
X102600000Y-65005001D01*
X102200000Y-65405001D01*
X102200000Y-65405002D01*
X102200000Y-66436001D01*
X102186737Y-66485501D01*
X102150500Y-66521738D01*
X102101000Y-66535001D01*
X102049000Y-66535001D01*
X101999500Y-66521738D01*
X101963263Y-66485501D01*
X101950000Y-66436001D01*
X101950000Y-65405002D01*
X101949999Y-65405000D01*
X101578996Y-65033996D01*
X101557536Y-65001879D01*
X101550000Y-64963993D01*
X101550000Y-63221008D01*
X101557536Y-63183122D01*
X101565000Y-63171951D01*
X101565000Y-63165001D01*
X104245000Y-63165000D01*
X104245000Y-64906001D01*
G37*
G04 #@! TD.AperFunction*
G04 #@! TA.AperFunction,Conductor*
G36*
X98378520Y-62365848D02*
G01*
X98691230Y-62666567D01*
X98694401Y-62671898D01*
X98694401Y-62678102D01*
X98691230Y-62683433D01*
X98378520Y-62984151D01*
X98372056Y-62987302D01*
X98364970Y-62986077D01*
X98311064Y-62957770D01*
X98310462Y-62957430D01*
X98258499Y-62926092D01*
X98258115Y-62925850D01*
X98212324Y-62895753D01*
X98212263Y-62895713D01*
X98169838Y-62867448D01*
X98128251Y-62841815D01*
X98107012Y-62830902D01*
X98084693Y-62819433D01*
X98084688Y-62819431D01*
X98036383Y-62800933D01*
X97980532Y-62786945D01*
X97980529Y-62786944D01*
X97980527Y-62786944D01*
X97947428Y-62782516D01*
X97914325Y-62778089D01*
X97846245Y-62775438D01*
X97838267Y-62771858D01*
X97835000Y-62763747D01*
X97835000Y-62586253D01*
X97838267Y-62578142D01*
X97846245Y-62574562D01*
X97879425Y-62573268D01*
X97914330Y-62571909D01*
X97980527Y-62563055D01*
X98036384Y-62549065D01*
X98084693Y-62530566D01*
X98128248Y-62508185D01*
X98169840Y-62482549D01*
X98212263Y-62454286D01*
X98212274Y-62454303D01*
X98212320Y-62454248D01*
X98258146Y-62424128D01*
X98258469Y-62423924D01*
X98310491Y-62392551D01*
X98311050Y-62392236D01*
X98341926Y-62376022D01*
X98364971Y-62363922D01*
X98372056Y-62362697D01*
X98378520Y-62365848D01*
G37*
G04 #@! TD.AperFunction*
G04 #@! TA.AperFunction,Conductor*
G36*
X102300000Y-75225000D02*
G01*
X101425000Y-75225000D01*
X101150000Y-74925000D01*
X101150000Y-73725000D01*
X101400000Y-73475000D01*
X102300000Y-73475000D01*
X102300000Y-75225000D01*
G37*
G04 #@! TD.AperFunction*
G04 #@! TA.AperFunction,Conductor*
G36*
X92095114Y-65807159D02*
G01*
X92220974Y-65869301D01*
X92222076Y-65869923D01*
X92317001Y-65930564D01*
X92400261Y-65979911D01*
X92501277Y-66012948D01*
X92639246Y-66024128D01*
X92646901Y-66027858D01*
X92650000Y-66035790D01*
X92650000Y-66214210D01*
X92646901Y-66222142D01*
X92639246Y-66225871D01*
X92544989Y-66233509D01*
X92501274Y-66237051D01*
X92400261Y-66270086D01*
X92317013Y-66319426D01*
X92222085Y-66380070D01*
X92220966Y-66380701D01*
X92095116Y-66442839D01*
X92088930Y-66444005D01*
X92083036Y-66441797D01*
X92079138Y-66436854D01*
X92030135Y-66319426D01*
X91950879Y-66129504D01*
X91949978Y-66125000D01*
X91950880Y-66120494D01*
X92079139Y-65813143D01*
X92083036Y-65808202D01*
X92088930Y-65805994D01*
X92095114Y-65807159D01*
G37*
G04 #@! TD.AperFunction*
G04 #@! TA.AperFunction,Conductor*
G36*
X102150500Y-70368264D02*
G01*
X102186737Y-70404501D01*
X102200000Y-70454001D01*
X102200000Y-71485001D01*
X102599999Y-71885001D01*
X102839748Y-71885001D01*
X102877631Y-71892536D01*
X102971291Y-71931331D01*
X103115000Y-71950251D01*
X103258709Y-71931331D01*
X103352368Y-71892536D01*
X103390249Y-71885001D01*
X104141287Y-71885001D01*
X104190701Y-71898217D01*
X104226925Y-71934336D01*
X104240284Y-71983715D01*
X104249713Y-75250714D01*
X104236545Y-75300335D01*
X104200295Y-75336689D01*
X104150713Y-75350000D01*
X102774000Y-75350000D01*
X102724500Y-75336737D01*
X102688263Y-75300500D01*
X102675000Y-75251000D01*
X102675000Y-74325968D01*
X102683621Y-74290057D01*
X102700500Y-74183488D01*
X102700500Y-73666512D01*
X102683621Y-73559942D01*
X102675000Y-73524032D01*
X102675000Y-73375001D01*
X102675000Y-73375000D01*
X102150000Y-72850000D01*
X102149999Y-72850000D01*
X101649000Y-72850000D01*
X101599500Y-72836737D01*
X101563263Y-72800500D01*
X101550000Y-72751000D01*
X101550000Y-72098512D01*
X101557536Y-72060626D01*
X101573858Y-72036196D01*
X101573380Y-72035849D01*
X101649315Y-71931331D01*
X101693991Y-71869839D01*
X101783612Y-71693948D01*
X101796752Y-71653506D01*
X101820899Y-71614101D01*
X101950000Y-71485001D01*
X101950000Y-70454001D01*
X101963263Y-70404501D01*
X101999500Y-70368264D01*
X102049000Y-70355001D01*
X102101000Y-70355001D01*
X102150500Y-70368264D01*
G37*
G04 #@! TD.AperFunction*
G04 #@! TA.AperFunction,Conductor*
G36*
X98775000Y-67075000D02*
G01*
X98225000Y-67075000D01*
X98225000Y-66825000D01*
X98775000Y-66825000D01*
X98775000Y-67075000D01*
G37*
G04 #@! TD.AperFunction*
G04 #@! TA.AperFunction,Conductor*
G36*
X95412761Y-83442622D02*
G01*
X95652018Y-83680515D01*
X95652066Y-83680563D01*
X95890067Y-83919928D01*
X95893134Y-83925395D01*
X95892939Y-83931662D01*
X95889537Y-83936927D01*
X95768579Y-84044287D01*
X95767282Y-84045285D01*
X95664042Y-84113806D01*
X95663300Y-84114260D01*
X95568231Y-84167632D01*
X95463945Y-84236847D01*
X95341358Y-84345654D01*
X95333243Y-84348599D01*
X95325318Y-84345177D01*
X94987355Y-84007214D01*
X94983933Y-83999289D01*
X94986878Y-83991174D01*
X95042320Y-83928709D01*
X95095683Y-83868587D01*
X95164900Y-83764297D01*
X95218282Y-83669211D01*
X95218714Y-83668505D01*
X95287252Y-83565239D01*
X95288235Y-83563961D01*
X95395225Y-83443422D01*
X95398658Y-83440771D01*
X95399214Y-83440488D01*
X95406332Y-83439361D01*
X95412761Y-83442622D01*
G37*
G04 #@! TD.AperFunction*
G04 #@! TA.AperFunction,Conductor*
G36*
X95300500Y-55813263D02*
G01*
X95336737Y-55849500D01*
X95350000Y-55899000D01*
X95350000Y-56475000D01*
X95457489Y-56582490D01*
X95469799Y-56597490D01*
X95472886Y-56602111D01*
X95477504Y-56605196D01*
X95492508Y-56617509D01*
X95599998Y-56724998D01*
X95600000Y-56725000D01*
X97208992Y-56725000D01*
X97246878Y-56732536D01*
X97278996Y-56753996D01*
X97471004Y-56946004D01*
X97492464Y-56978122D01*
X97500000Y-57016008D01*
X97500000Y-57976000D01*
X97486737Y-58025500D01*
X97450500Y-58061737D01*
X97401000Y-58075000D01*
X95499000Y-58075000D01*
X95449500Y-58061737D01*
X95413263Y-58025500D01*
X95400000Y-57976000D01*
X95400000Y-57225001D01*
X95399999Y-57224999D01*
X95128996Y-56953995D01*
X95107536Y-56921878D01*
X95100000Y-56883992D01*
X95100000Y-55899000D01*
X95113263Y-55849500D01*
X95149500Y-55813263D01*
X95199000Y-55800000D01*
X95251000Y-55800000D01*
X95300500Y-55813263D01*
G37*
G04 #@! TD.AperFunction*
G04 #@! TA.AperFunction,Conductor*
G36*
X94675000Y-57025001D02*
G01*
X94675000Y-58124999D01*
X94675001Y-58125000D01*
X94374999Y-58125000D01*
X94375000Y-58124999D01*
X94375000Y-57725001D01*
X94374999Y-57725000D01*
X94025001Y-57725000D01*
X94025000Y-57725001D01*
X94025000Y-57424999D01*
X94025001Y-57425000D01*
X94374999Y-57425000D01*
X94375000Y-57424999D01*
X94375000Y-57025001D01*
X94374999Y-57025000D01*
X94675001Y-57025000D01*
X94675000Y-57025001D01*
G37*
G04 #@! TD.AperFunction*
G04 #@! TA.AperFunction,Conductor*
G36*
X94036604Y-58003036D02*
G01*
X94080807Y-58069192D01*
X94146963Y-58113395D01*
X94205303Y-58125000D01*
X94025000Y-58125000D01*
X94025000Y-57944697D01*
X94036604Y-58003036D01*
G37*
G04 #@! TD.AperFunction*
G04 #@! TA.AperFunction,Conductor*
G36*
X94146963Y-57036604D02*
G01*
X94080807Y-57080807D01*
X94036604Y-57146963D01*
X94025000Y-57205303D01*
X94025000Y-57025000D01*
X94205303Y-57025000D01*
X94146963Y-57036604D01*
G37*
G04 #@! TD.AperFunction*
G04 #@! TA.AperFunction,Conductor*
G36*
X108482743Y-52890838D02*
G01*
X108736406Y-53114858D01*
X108740331Y-53122785D01*
X108737586Y-53131193D01*
X108710999Y-53162556D01*
X108676997Y-53212869D01*
X108642998Y-53273381D01*
X108609001Y-53344085D01*
X108578012Y-53417833D01*
X108573701Y-53423045D01*
X108567226Y-53425000D01*
X108382774Y-53425000D01*
X108376299Y-53423045D01*
X108371988Y-53417833D01*
X108340997Y-53344085D01*
X108307000Y-53273381D01*
X108273001Y-53212869D01*
X108238999Y-53162556D01*
X108212413Y-53131193D01*
X108209668Y-53122785D01*
X108213591Y-53114860D01*
X108467256Y-52890838D01*
X108475000Y-52887909D01*
X108482743Y-52890838D01*
G37*
G04 #@! TD.AperFunction*
G04 #@! TA.AperFunction,Conductor*
G36*
X112641958Y-58708175D02*
G01*
X112645847Y-58713111D01*
X112774119Y-59020494D01*
X112775021Y-59025000D01*
X112774119Y-59029506D01*
X112645877Y-59336815D01*
X112641969Y-59341765D01*
X112636058Y-59343968D01*
X112629864Y-59342782D01*
X112504057Y-59280136D01*
X112502868Y-59279455D01*
X112472983Y-59259908D01*
X112408296Y-59217598D01*
X112365000Y-59191046D01*
X112325459Y-59166797D01*
X112224750Y-59132554D01*
X112075994Y-59120001D01*
X112075994Y-58920001D01*
X112224207Y-58908419D01*
X112325154Y-58876521D01*
X112408500Y-58828578D01*
X112503407Y-58769177D01*
X112504452Y-58768596D01*
X112629904Y-58707110D01*
X112636077Y-58705962D01*
X112641958Y-58708175D01*
G37*
G04 #@! TD.AperFunction*
G04 #@! TA.AperFunction,Conductor*
G36*
X100455041Y-65972498D02*
G01*
X100486088Y-66003299D01*
X100567627Y-66084190D01*
X100570684Y-66089453D01*
X100570684Y-66095539D01*
X100567627Y-66100802D01*
X100455041Y-66212495D01*
X100449535Y-66215565D01*
X100443235Y-66215332D01*
X100425011Y-66209500D01*
X100421675Y-66208632D01*
X100399999Y-66202997D01*
X100389277Y-66200852D01*
X100374994Y-66197994D01*
X100350004Y-66194496D01*
X100338343Y-66193563D01*
X100335766Y-66193357D01*
X100328103Y-66189631D01*
X100325000Y-66181695D01*
X100325000Y-66003299D01*
X100328103Y-65995363D01*
X100335766Y-65991636D01*
X100340750Y-65991236D01*
X100350000Y-65990497D01*
X100362500Y-65988746D01*
X100374994Y-65986998D01*
X100374996Y-65986997D01*
X100375000Y-65986997D01*
X100399999Y-65981996D01*
X100424999Y-65975496D01*
X100443236Y-65969660D01*
X100449535Y-65969428D01*
X100455041Y-65972498D01*
G37*
G04 #@! TD.AperFunction*
G04 #@! TA.AperFunction,Conductor*
G36*
X100206763Y-65969660D02*
G01*
X100225000Y-65975496D01*
X100250000Y-65981996D01*
X100274999Y-65986997D01*
X100275004Y-65986998D01*
X100287499Y-65988747D01*
X100299999Y-65990497D01*
X100309224Y-65991235D01*
X100314233Y-65991636D01*
X100321897Y-65995363D01*
X100325000Y-66003299D01*
X100325000Y-66181695D01*
X100321897Y-66189632D01*
X100314233Y-66193357D01*
X100311268Y-66193594D01*
X100299994Y-66194496D01*
X100275004Y-66197994D01*
X100257147Y-66201567D01*
X100250000Y-66202997D01*
X100235548Y-66206754D01*
X100224987Y-66209500D01*
X100206764Y-66215332D01*
X100200464Y-66215565D01*
X100194958Y-66212495D01*
X100082372Y-66100802D01*
X100079315Y-66095539D01*
X100079315Y-66089453D01*
X100082370Y-66084193D01*
X100194960Y-65972496D01*
X100200464Y-65969428D01*
X100206763Y-65969660D01*
G37*
G04 #@! TD.AperFunction*
G04 #@! TA.AperFunction,Conductor*
G36*
X107571091Y-51659439D02*
G01*
X107611319Y-51686319D01*
X107788681Y-51863681D01*
X107815561Y-51903909D01*
X107825000Y-51951362D01*
X107825000Y-55090801D01*
X107818419Y-55130660D01*
X107799376Y-55166288D01*
X107794049Y-55173229D01*
X107738582Y-55307142D01*
X107719662Y-55450852D01*
X107720927Y-55460463D01*
X107715407Y-55516506D01*
X107685670Y-55564329D01*
X107611319Y-55638681D01*
X107571090Y-55665561D01*
X107523637Y-55675000D01*
X107151362Y-55675000D01*
X107103909Y-55665561D01*
X107063681Y-55638681D01*
X106886319Y-55461319D01*
X106859439Y-55421091D01*
X106850000Y-55373638D01*
X106850000Y-51774000D01*
X106866613Y-51712000D01*
X106912000Y-51666613D01*
X106974000Y-51650000D01*
X107523638Y-51650000D01*
X107571091Y-51659439D01*
G37*
G04 #@! TD.AperFunction*
G04 #@! TA.AperFunction,Conductor*
G36*
X110971091Y-53534439D02*
G01*
X111011319Y-53561319D01*
X111013681Y-53563681D01*
X111040561Y-53603909D01*
X111050000Y-53651362D01*
X111050000Y-55373638D01*
X111040561Y-55421091D01*
X111013681Y-55461319D01*
X110836319Y-55638681D01*
X110796091Y-55665561D01*
X110748638Y-55675000D01*
X109501362Y-55675000D01*
X109453909Y-55665561D01*
X109413681Y-55638681D01*
X109186319Y-55411319D01*
X109159439Y-55371091D01*
X109150000Y-55323638D01*
X109150000Y-54476362D01*
X109159439Y-54428909D01*
X109186315Y-54388684D01*
X109440950Y-54134049D01*
X109481166Y-54107178D01*
X109583431Y-54064820D01*
X109698427Y-53976580D01*
X109786667Y-53861584D01*
X109829025Y-53759319D01*
X109855896Y-53719103D01*
X110013684Y-53561315D01*
X110053910Y-53534439D01*
X110101362Y-53525000D01*
X110923638Y-53525000D01*
X110971091Y-53534439D01*
G37*
G04 #@! TD.AperFunction*
G04 #@! TA.AperFunction,Conductor*
G36*
X94090236Y-66206628D02*
G01*
X94218698Y-66335089D01*
X94222021Y-66341807D01*
X94220586Y-66349163D01*
X94160007Y-66455269D01*
X94095014Y-66587106D01*
X94029997Y-66736991D01*
X93965008Y-66904811D01*
X93904077Y-67079026D01*
X93900505Y-67084166D01*
X93894794Y-67086730D01*
X93888579Y-67085982D01*
X93505156Y-66928121D01*
X93500539Y-66924691D01*
X93498114Y-66919476D01*
X93495344Y-66904829D01*
X93411678Y-66462494D01*
X93412243Y-66456152D01*
X93416048Y-66451044D01*
X93421964Y-66448686D01*
X93544170Y-66435997D01*
X93679026Y-66403994D01*
X93813881Y-66353990D01*
X93948737Y-66285987D01*
X94075673Y-66205035D01*
X94083234Y-66203270D01*
X94090236Y-66206628D01*
G37*
G04 #@! TD.AperFunction*
G04 #@! TA.AperFunction,Conductor*
G36*
X106265500Y-57283264D02*
G01*
X106301737Y-57319501D01*
X106315000Y-57369001D01*
X106315000Y-62303993D01*
X106307464Y-62341879D01*
X106286004Y-62373996D01*
X105815000Y-62845000D01*
X105815000Y-67753993D01*
X105807464Y-67791879D01*
X105786004Y-67823997D01*
X105543996Y-68066005D01*
X105511878Y-68087465D01*
X105473992Y-68095001D01*
X103989000Y-68095001D01*
X103939500Y-68081738D01*
X103903263Y-68045501D01*
X103890000Y-67996001D01*
X103890000Y-67419001D01*
X103903263Y-67369501D01*
X103939500Y-67333264D01*
X103989000Y-67320001D01*
X104164999Y-67320001D01*
X104165000Y-67320001D01*
X104465000Y-67020001D01*
X104465000Y-62845001D01*
X104464999Y-62845000D01*
X104116687Y-62496687D01*
X104089593Y-62445998D01*
X104095226Y-62388799D01*
X104126330Y-62313709D01*
X104145250Y-62170000D01*
X104126330Y-62026291D01*
X104070861Y-61892375D01*
X103985458Y-61781076D01*
X103970254Y-61752632D01*
X103965000Y-61720809D01*
X103965000Y-57369001D01*
X103978263Y-57319501D01*
X104014500Y-57283264D01*
X104064000Y-57270001D01*
X106216000Y-57270001D01*
X106265500Y-57283264D01*
G37*
G04 #@! TD.AperFunction*
G04 #@! TA.AperFunction,Conductor*
G36*
X94850000Y-56958993D02*
G01*
X94842464Y-56996879D01*
X94825000Y-57023016D01*
X94825000Y-57025000D01*
X94025000Y-57025000D01*
X94025000Y-58125000D01*
X94825000Y-58125000D01*
X94825000Y-58126984D01*
X94842464Y-58153121D01*
X94850000Y-58191007D01*
X94850000Y-58575000D01*
X95100000Y-58825000D01*
X97401000Y-58825000D01*
X97450500Y-58838263D01*
X97486737Y-58874500D01*
X97500000Y-58924000D01*
X97500000Y-61776000D01*
X97486737Y-61825500D01*
X97450500Y-61861737D01*
X97401000Y-61875000D01*
X96641008Y-61875000D01*
X96603122Y-61867464D01*
X96571004Y-61846004D01*
X96501000Y-61776000D01*
X95600000Y-60875000D01*
X95599999Y-60875000D01*
X92649999Y-60875000D01*
X91275000Y-60875000D01*
X91025000Y-60625000D01*
X91025000Y-57174000D01*
X91038263Y-57124500D01*
X91074500Y-57088263D01*
X91124000Y-57075000D01*
X93599999Y-57075000D01*
X93600000Y-57075000D01*
X93850000Y-56825000D01*
X93850000Y-56125000D01*
X94850000Y-56125000D01*
X94850000Y-56958993D01*
G37*
G04 #@! TD.AperFunction*
G04 #@! TA.AperFunction,Conductor*
G36*
X103545000Y-57675000D02*
G01*
X103545000Y-58354130D01*
X103545000Y-61533854D01*
X103533814Y-61579567D01*
X103502784Y-61614950D01*
X103458922Y-61632007D01*
X103446289Y-61633669D01*
X103312375Y-61689139D01*
X103197378Y-61777378D01*
X103109139Y-61892375D01*
X103053669Y-62026290D01*
X103034750Y-62170000D01*
X103053669Y-62313709D01*
X103092892Y-62408401D01*
X103109139Y-62447625D01*
X103147450Y-62497552D01*
X103197378Y-62562621D01*
X103247306Y-62600932D01*
X103312375Y-62650861D01*
X103380585Y-62679114D01*
X103446290Y-62706330D01*
X103463008Y-62708531D01*
X103590000Y-62725250D01*
X103733709Y-62706330D01*
X103851225Y-62657653D01*
X103908424Y-62652020D01*
X103959114Y-62679114D01*
X104216004Y-62936004D01*
X104237464Y-62968122D01*
X104245000Y-63006008D01*
X104245000Y-63515000D01*
X101565000Y-63515000D01*
X101565000Y-57425000D01*
X103295000Y-57425000D01*
X103545000Y-57675000D01*
G37*
G04 #@! TD.AperFunction*
G04 #@! TA.AperFunction,Conductor*
G36*
X112196849Y-71902582D02*
G01*
X112229024Y-71924163D01*
X112298531Y-71994001D01*
X113221170Y-72921033D01*
X113242509Y-72953093D01*
X113250000Y-72990870D01*
X113250000Y-74855269D01*
X113242877Y-74892142D01*
X113222533Y-74923709D01*
X112364999Y-75820001D01*
X112365000Y-79620001D01*
X110015000Y-79620001D01*
X110015000Y-74586008D01*
X110022536Y-74548122D01*
X110043996Y-74516004D01*
X110915000Y-73645001D01*
X110915000Y-73626007D01*
X110922536Y-73588121D01*
X110925000Y-73584433D01*
X110925000Y-71994001D01*
X110938263Y-71944501D01*
X110974500Y-71908264D01*
X111024000Y-71895001D01*
X112158855Y-71895001D01*
X112196849Y-71902582D01*
G37*
G04 #@! TD.AperFunction*
G04 #@! TA.AperFunction,Conductor*
G36*
X112315500Y-57283264D02*
G01*
X112351737Y-57319501D01*
X112365000Y-57369001D01*
X112365000Y-61070001D01*
X113236956Y-61966178D01*
X113257721Y-61997958D01*
X113265000Y-62035216D01*
X113265000Y-68495001D01*
X112815000Y-68945001D01*
X110915000Y-68945001D01*
X110915000Y-68054998D01*
X110920294Y-68042218D01*
X110922536Y-68030948D01*
X110925000Y-68024999D01*
X110925000Y-67140567D01*
X110922536Y-67136879D01*
X110915000Y-67098993D01*
X110915000Y-65026007D01*
X110922536Y-64988121D01*
X110925000Y-64984433D01*
X110925000Y-63175001D01*
X110925000Y-63175000D01*
X110886007Y-63175000D01*
X110848121Y-63167464D01*
X110816003Y-63146004D01*
X110043996Y-62373997D01*
X110022536Y-62341879D01*
X110015000Y-62303993D01*
X110015000Y-57369001D01*
X110028263Y-57319501D01*
X110064500Y-57283264D01*
X110114000Y-57270001D01*
X112266000Y-57270001D01*
X112315500Y-57283264D01*
G37*
G04 #@! TD.AperFunction*
G04 #@! TA.AperFunction,Conductor*
G36*
X98775000Y-69575000D02*
G01*
X98225000Y-69575000D01*
X97250000Y-70550000D01*
X96300000Y-70550000D01*
X96300000Y-69650000D01*
X96850000Y-69650000D01*
X98200000Y-68325000D01*
X98775000Y-68325000D01*
X98775000Y-69575000D01*
G37*
G04 #@! TD.AperFunction*
G04 #@! TA.AperFunction,Conductor*
G36*
X103536164Y-66785737D02*
G01*
X103540471Y-66791027D01*
X103542500Y-66795999D01*
X103547502Y-66806754D01*
X103552499Y-66815998D01*
X103556813Y-66822683D01*
X103558619Y-66830243D01*
X103555288Y-66837266D01*
X103445806Y-66947624D01*
X103440543Y-66950681D01*
X103434457Y-66950681D01*
X103429194Y-66947624D01*
X103319711Y-66837265D01*
X103316380Y-66830242D01*
X103318185Y-66822682D01*
X103322499Y-66815997D01*
X103327500Y-66806747D01*
X103332500Y-66795997D01*
X103332858Y-66795119D01*
X103334530Y-66791026D01*
X103338837Y-66785736D01*
X103345362Y-66783748D01*
X103529638Y-66783748D01*
X103536164Y-66785737D01*
G37*
G04 #@! TD.AperFunction*
G04 #@! TA.AperFunction,Conductor*
G36*
X93659168Y-82456001D02*
G01*
X93682870Y-82466178D01*
X93756229Y-82497679D01*
X93860922Y-82533634D01*
X93965614Y-82560589D01*
X94070307Y-82578544D01*
X94070315Y-82578544D01*
X94070317Y-82578545D01*
X94094899Y-82580647D01*
X94164298Y-82586584D01*
X94171918Y-82590328D01*
X94175000Y-82598241D01*
X94175000Y-83076758D01*
X94171918Y-83084671D01*
X94164297Y-83088415D01*
X94070317Y-83096453D01*
X93965602Y-83114412D01*
X93860931Y-83141362D01*
X93756226Y-83177321D01*
X93659168Y-83218998D01*
X93652093Y-83219686D01*
X93645925Y-83216151D01*
X93306240Y-82845402D01*
X93303168Y-82837500D01*
X93306240Y-82829597D01*
X93645927Y-82458846D01*
X93652093Y-82455313D01*
X93659168Y-82456001D01*
G37*
G04 #@! TD.AperFunction*
G04 #@! TA.AperFunction,Conductor*
G36*
X109067820Y-53345935D02*
G01*
X109303349Y-53580516D01*
X109305903Y-53584331D01*
X109306792Y-53588837D01*
X109305839Y-53922138D01*
X109304235Y-53928018D01*
X109299891Y-53932294D01*
X109293986Y-53933804D01*
X109155049Y-53931989D01*
X109154689Y-53931979D01*
X109047903Y-53927289D01*
X109047707Y-53927279D01*
X109001753Y-53924490D01*
X108955344Y-53921673D01*
X108897788Y-53919145D01*
X108848265Y-53916970D01*
X108736825Y-53915515D01*
X108708876Y-53915150D01*
X108700703Y-53911671D01*
X108697330Y-53903452D01*
X108697330Y-53724784D01*
X108700055Y-53717278D01*
X108706960Y-53713269D01*
X108817547Y-53693386D01*
X108884118Y-53635018D01*
X108884118Y-53635017D01*
X108884119Y-53635017D01*
X108926681Y-53549603D01*
X108974352Y-53447954D01*
X108975603Y-53445880D01*
X109050232Y-53347167D01*
X109055503Y-53343253D01*
X109062054Y-53342793D01*
X109067820Y-53345935D01*
G37*
G04 #@! TD.AperFunction*
G04 #@! TA.AperFunction,Conductor*
G36*
X89475500Y-53388263D02*
G01*
X89511737Y-53424500D01*
X89525000Y-53474000D01*
X89525000Y-58776000D01*
X89511737Y-58825500D01*
X89475500Y-58861737D01*
X89426000Y-58875000D01*
X87124000Y-58875000D01*
X87074500Y-58861737D01*
X87038263Y-58825500D01*
X87025000Y-58776000D01*
X87025000Y-53474000D01*
X87038263Y-53424500D01*
X87074500Y-53388263D01*
X87124000Y-53375000D01*
X89426000Y-53375000D01*
X89475500Y-53388263D01*
G37*
G04 #@! TD.AperFunction*
G04 #@! TA.AperFunction,Conductor*
G36*
X103000486Y-51807930D02*
G01*
X103005733Y-51811072D01*
X103103047Y-51912076D01*
X103103395Y-51912454D01*
X103174725Y-51993308D01*
X103174907Y-51993519D01*
X103235057Y-52065067D01*
X103297350Y-52135675D01*
X103306657Y-52146225D01*
X103404423Y-52247699D01*
X103407696Y-52255925D01*
X103404270Y-52264089D01*
X103277934Y-52390425D01*
X103270661Y-52393809D01*
X103262918Y-52391713D01*
X103171066Y-52326933D01*
X103171064Y-52326932D01*
X103171063Y-52326931D01*
X103083036Y-52318737D01*
X103083035Y-52318737D01*
X102992873Y-52346030D01*
X102887611Y-52381678D01*
X102885383Y-52382196D01*
X102763198Y-52398264D01*
X102756734Y-52397271D01*
X102751813Y-52392963D01*
X102749973Y-52386688D01*
X102749891Y-52346030D01*
X102749302Y-52054167D01*
X102750194Y-52049666D01*
X102752749Y-52045856D01*
X102989060Y-51810891D01*
X102994371Y-51807864D01*
X103000486Y-51807930D01*
G37*
G04 #@! TD.AperFunction*
G04 #@! TA.AperFunction,Conductor*
G36*
X115155500Y-76778263D02*
G01*
X115191737Y-76814500D01*
X115205000Y-76864000D01*
X115205000Y-78423992D01*
X115197464Y-78461878D01*
X115176004Y-78493996D01*
X114373996Y-79296004D01*
X114341878Y-79317464D01*
X114303992Y-79325000D01*
X112994000Y-79325000D01*
X112944500Y-79311737D01*
X112908263Y-79275500D01*
X112895000Y-79226000D01*
X112895000Y-77056008D01*
X112902536Y-77018122D01*
X112923996Y-76986004D01*
X113116004Y-76793996D01*
X113148122Y-76772536D01*
X113186008Y-76765000D01*
X115106000Y-76765000D01*
X115155500Y-76778263D01*
G37*
G04 #@! TD.AperFunction*
G04 #@! TA.AperFunction,Conductor*
G36*
X97873677Y-82470880D02*
G01*
X98121796Y-82892850D01*
X98123368Y-82899774D01*
X98120646Y-82906333D01*
X97782048Y-83306934D01*
X97775013Y-83310925D01*
X97767070Y-83309400D01*
X97762980Y-83306934D01*
X97759364Y-83304753D01*
X97662990Y-83246640D01*
X97550363Y-83189978D01*
X97437743Y-83144568D01*
X97325122Y-83110408D01*
X97251820Y-83095498D01*
X97221866Y-83089405D01*
X97215140Y-83085344D01*
X97212500Y-83077941D01*
X97212500Y-82598979D01*
X97215848Y-82590785D01*
X97223976Y-82587281D01*
X97343750Y-82584999D01*
X97475000Y-82571249D01*
X97606250Y-82546250D01*
X97737500Y-82510000D01*
X97859609Y-82465807D01*
X97867559Y-82465803D01*
X97873677Y-82470880D01*
G37*
G04 #@! TD.AperFunction*
G04 #@! TA.AperFunction,Conductor*
G36*
X97787713Y-84060113D02*
G01*
X97792811Y-84063745D01*
X98119032Y-84466400D01*
X98121607Y-84474662D01*
X98117799Y-84482433D01*
X97722972Y-84840359D01*
X97717483Y-84843149D01*
X97711339Y-84842765D01*
X97706239Y-84839315D01*
X97676156Y-84804298D01*
X97676155Y-84804297D01*
X97638241Y-84767389D01*
X97600328Y-84737703D01*
X97562414Y-84715240D01*
X97531835Y-84702948D01*
X97526506Y-84698644D01*
X97524500Y-84692093D01*
X97524500Y-84209442D01*
X97527095Y-84202094D01*
X97533729Y-84198006D01*
X97576607Y-84188744D01*
X97628715Y-84168532D01*
X97680822Y-84139362D01*
X97732930Y-84101235D01*
X97775877Y-84062428D01*
X97781473Y-84059628D01*
X97787713Y-84060113D01*
G37*
G04 #@! TD.AperFunction*
G04 #@! TA.AperFunction,Conductor*
G36*
X100822142Y-74978099D02*
G01*
X100825871Y-74985753D01*
X100834388Y-75090858D01*
X100837051Y-75123724D01*
X100870086Y-75224736D01*
X100919426Y-75307985D01*
X100980070Y-75402913D01*
X100980701Y-75404032D01*
X101042839Y-75529883D01*
X101044005Y-75536069D01*
X101041797Y-75541963D01*
X101036854Y-75545861D01*
X100729505Y-75674119D01*
X100724999Y-75675021D01*
X100720493Y-75674119D01*
X100413145Y-75545861D01*
X100408202Y-75541963D01*
X100405994Y-75536069D01*
X100407159Y-75529886D01*
X100469305Y-75404016D01*
X100469918Y-75402929D01*
X100530564Y-75307998D01*
X100579911Y-75224738D01*
X100612948Y-75123722D01*
X100624128Y-74985753D01*
X100627858Y-74978099D01*
X100635790Y-74975000D01*
X100814210Y-74975000D01*
X100822142Y-74978099D01*
G37*
G04 #@! TD.AperFunction*
G04 #@! TA.AperFunction,Conductor*
G36*
X106246091Y-53359439D02*
G01*
X106286319Y-53386319D01*
X106463681Y-53563681D01*
X106490561Y-53603909D01*
X106500000Y-53651362D01*
X106500000Y-55373638D01*
X106490561Y-55421091D01*
X106463681Y-55461319D01*
X106286319Y-55638681D01*
X106246091Y-55665561D01*
X106198638Y-55675000D01*
X104951362Y-55675000D01*
X104903909Y-55665561D01*
X104863681Y-55638681D01*
X104636319Y-55411319D01*
X104609439Y-55371091D01*
X104600000Y-55323638D01*
X104600000Y-53701362D01*
X104609439Y-53653909D01*
X104636319Y-53613681D01*
X104863681Y-53386319D01*
X104903909Y-53359439D01*
X104951362Y-53350000D01*
X106198638Y-53350000D01*
X106246091Y-53359439D01*
G37*
G04 #@! TD.AperFunction*
G04 #@! TA.AperFunction,Conductor*
G36*
X97201795Y-66510789D02*
G01*
X97206163Y-66513014D01*
X97231216Y-66531216D01*
X98025000Y-67325000D01*
X98704090Y-67325000D01*
X98719577Y-67326219D01*
X98774999Y-67334997D01*
X98775000Y-67334997D01*
X99095999Y-67334997D01*
X99145499Y-67348260D01*
X99181736Y-67384497D01*
X99194999Y-67433997D01*
X99194999Y-67476000D01*
X99181736Y-67525500D01*
X99145499Y-67561737D01*
X99095999Y-67575000D01*
X97291008Y-67575000D01*
X97253122Y-67567464D01*
X97221005Y-67546004D01*
X97075000Y-67400000D01*
X96674000Y-67400000D01*
X96624500Y-67386737D01*
X96588263Y-67350500D01*
X96575000Y-67301000D01*
X96575000Y-66599000D01*
X96588263Y-66549500D01*
X96624500Y-66513263D01*
X96674000Y-66500000D01*
X97156854Y-66500000D01*
X97201795Y-66510789D01*
G37*
G04 #@! TD.AperFunction*
G04 #@! TA.AperFunction,Conductor*
G36*
X95417970Y-83575826D02*
G01*
X95757169Y-83915025D01*
X95760552Y-83922281D01*
X95758476Y-83930014D01*
X95686291Y-84032984D01*
X95608472Y-84155242D01*
X95530643Y-84288766D01*
X95452833Y-84433509D01*
X95379363Y-84580797D01*
X95373579Y-84586295D01*
X95365615Y-84586805D01*
X95345029Y-84580797D01*
X95329418Y-84576240D01*
X94904647Y-84452269D01*
X94900133Y-84449765D01*
X94897136Y-84445564D01*
X94719854Y-84022780D01*
X94719713Y-84014089D01*
X94725605Y-84007699D01*
X94854547Y-83946183D01*
X94993551Y-83868617D01*
X95132554Y-83779800D01*
X95271558Y-83679734D01*
X95402386Y-83574965D01*
X95410341Y-83572417D01*
X95417970Y-83575826D01*
G37*
G04 #@! TD.AperFunction*
G04 #@! TA.AperFunction,Conductor*
G36*
X102705065Y-70779309D02*
G01*
X102731843Y-70819880D01*
X102763614Y-70866516D01*
X102795464Y-70911768D01*
X102815812Y-70939718D01*
X102827279Y-70955469D01*
X102845421Y-70979535D01*
X102852975Y-70989555D01*
X102855304Y-70997413D01*
X102851905Y-71004871D01*
X102720653Y-71136123D01*
X102713490Y-71139497D01*
X102712781Y-71139564D01*
X102707878Y-71140828D01*
X102703835Y-71142528D01*
X102697624Y-71143321D01*
X102691894Y-71140797D01*
X102688287Y-71135681D01*
X102605021Y-70902751D01*
X102578225Y-70827789D01*
X102578663Y-70818854D01*
X102585285Y-70812841D01*
X102691347Y-70774742D01*
X102698995Y-70774653D01*
X102705065Y-70779309D01*
G37*
G04 #@! TD.AperFunction*
G04 #@! TA.AperFunction,Conductor*
G36*
X112121091Y-51659439D02*
G01*
X112161319Y-51686319D01*
X112338681Y-51863681D01*
X112365561Y-51903909D01*
X112375000Y-51951362D01*
X112375000Y-55373638D01*
X112365561Y-55421091D01*
X112338681Y-55461319D01*
X112161319Y-55638681D01*
X112121091Y-55665561D01*
X112073638Y-55675000D01*
X111701362Y-55675000D01*
X111653909Y-55665561D01*
X111613681Y-55638681D01*
X111436319Y-55461319D01*
X111409439Y-55421091D01*
X111400000Y-55373638D01*
X111400000Y-51774000D01*
X111416613Y-51712000D01*
X111462000Y-51666613D01*
X111524000Y-51650000D01*
X112073638Y-51650000D01*
X112121091Y-51659439D01*
G37*
G04 #@! TD.AperFunction*
M02*
