%TF.GenerationSoftware,KiCad,Pcbnew,7.0.7*%
%TF.CreationDate,2024-02-15T16:38:16+01:00*%
%TF.ProjectId,nav_lower_controller,6e61765f-6c6f-4776-9572-5f636f6e7472,1*%
%TF.SameCoordinates,Original*%
%TF.FileFunction,Paste,Top*%
%TF.FilePolarity,Positive*%
%FSLAX46Y46*%
G04 Gerber Fmt 4.6, Leading zero omitted, Abs format (unit mm)*
G04 Created by KiCad (PCBNEW 7.0.7) date 2024-02-15 16:38:16*
%MOMM*%
%LPD*%
G01*
G04 APERTURE LIST*
G04 Aperture macros list*
%AMRoundRect*
0 Rectangle with rounded corners*
0 $1 Rounding radius*
0 $2 $3 $4 $5 $6 $7 $8 $9 X,Y pos of 4 corners*
0 Add a 4 corners polygon primitive as box body*
4,1,4,$2,$3,$4,$5,$6,$7,$8,$9,$2,$3,0*
0 Add four circle primitives for the rounded corners*
1,1,$1+$1,$2,$3*
1,1,$1+$1,$4,$5*
1,1,$1+$1,$6,$7*
1,1,$1+$1,$8,$9*
0 Add four rect primitives between the rounded corners*
20,1,$1+$1,$2,$3,$4,$5,0*
20,1,$1+$1,$4,$5,$6,$7,0*
20,1,$1+$1,$6,$7,$8,$9,0*
20,1,$1+$1,$8,$9,$2,$3,0*%
G04 Aperture macros list end*
%ADD10RoundRect,0.150000X0.950000X0.150000X-0.950000X0.150000X-0.950000X-0.150000X0.950000X-0.150000X0*%
%ADD11R,0.450000X1.500000*%
%ADD12R,1.000000X3.150000*%
%ADD13RoundRect,0.225000X0.225000X0.250000X-0.225000X0.250000X-0.225000X-0.250000X0.225000X-0.250000X0*%
%ADD14R,0.300000X1.500000*%
%ADD15RoundRect,0.200000X0.200000X0.275000X-0.200000X0.275000X-0.200000X-0.275000X0.200000X-0.275000X0*%
%ADD16RoundRect,0.200000X-0.200000X-0.275000X0.200000X-0.275000X0.200000X0.275000X-0.200000X0.275000X0*%
%ADD17R,2.900000X0.800000*%
%ADD18R,3.800000X1.800000*%
%ADD19RoundRect,0.250000X-1.000000X-0.900000X1.000000X-0.900000X1.000000X0.900000X-1.000000X0.900000X0*%
%ADD20R,1.270000X0.760000*%
%ADD21RoundRect,0.225000X-0.250000X0.225000X-0.250000X-0.225000X0.250000X-0.225000X0.250000X0.225000X0*%
%ADD22RoundRect,0.200000X-0.275000X0.200000X-0.275000X-0.200000X0.275000X-0.200000X0.275000X0.200000X0*%
%ADD23RoundRect,0.200000X0.275000X-0.200000X0.275000X0.200000X-0.275000X0.200000X-0.275000X-0.200000X0*%
%ADD24RoundRect,0.225000X0.250000X-0.225000X0.250000X0.225000X-0.250000X0.225000X-0.250000X-0.225000X0*%
%ADD25R,0.700000X1.000000*%
%ADD26R,0.700000X0.600000*%
G04 APERTURE END LIST*
D10*
%TO.C,U1*%
X133810000Y-135505000D03*
X133810000Y-134235000D03*
X133810000Y-132965000D03*
X133810000Y-131695000D03*
X128610000Y-131695000D03*
X128610000Y-132965000D03*
X128610000Y-134235000D03*
X128610000Y-135505000D03*
%TD*%
D11*
%TO.C,J11*%
X147900000Y-135000000D03*
X148550000Y-135000000D03*
X149200000Y-135000000D03*
X149850000Y-135000000D03*
X150500000Y-135000000D03*
%TD*%
D12*
%TO.C,J4*%
X106060000Y-66995000D03*
X106060000Y-61945000D03*
X108600000Y-66995000D03*
X108600000Y-61945000D03*
X111140000Y-66995000D03*
X111140000Y-61945000D03*
X113680000Y-66995000D03*
X113680000Y-61945000D03*
X116220000Y-66995000D03*
X116220000Y-61945000D03*
X118760000Y-66995000D03*
X118760000Y-61945000D03*
X121300000Y-66995000D03*
X121300000Y-61945000D03*
X123840000Y-66995000D03*
X123840000Y-61945000D03*
X126380000Y-66995000D03*
X126380000Y-61945000D03*
X128920000Y-66995000D03*
X128920000Y-61945000D03*
X131460000Y-66995000D03*
X131460000Y-61945000D03*
X134000000Y-66995000D03*
X134000000Y-61945000D03*
X136540000Y-66995000D03*
X136540000Y-61945000D03*
X139080000Y-66995000D03*
X139080000Y-61945000D03*
X141620000Y-66995000D03*
X141620000Y-61945000D03*
X144160000Y-66995000D03*
X144160000Y-61945000D03*
X146700000Y-66995000D03*
X146700000Y-61945000D03*
X149240000Y-66995000D03*
X149240000Y-61945000D03*
X151780000Y-66995000D03*
X151780000Y-61945000D03*
X154320000Y-66995000D03*
X154320000Y-61945000D03*
X156860000Y-66995000D03*
X156860000Y-61945000D03*
X159400000Y-66995000D03*
X159400000Y-61945000D03*
X161940000Y-66995000D03*
X161940000Y-61945000D03*
%TD*%
D13*
%TO.C,C5*%
X183425000Y-77500000D03*
X181875000Y-77500000D03*
%TD*%
D14*
%TO.C,J10*%
X135250000Y-126950000D03*
X135250000Y-123250000D03*
X135750000Y-126950000D03*
X135750000Y-123250000D03*
X136250000Y-126950000D03*
X136250000Y-123250000D03*
X136750000Y-126950000D03*
X136750000Y-123250000D03*
X137250000Y-126950000D03*
X137250000Y-123250000D03*
X137750000Y-126950000D03*
X137750000Y-123250000D03*
X138250000Y-126950000D03*
X138250000Y-123250000D03*
X138750000Y-126950000D03*
X138750000Y-123250000D03*
X139250000Y-126950000D03*
X139250000Y-123250000D03*
X139750000Y-126950000D03*
X139750000Y-123250000D03*
X140250000Y-126950000D03*
X140250000Y-123250000D03*
X140750000Y-126950000D03*
X140750000Y-123250000D03*
X141250000Y-126950000D03*
X141250000Y-123250000D03*
X141750000Y-126950000D03*
X141750000Y-123250000D03*
X142250000Y-126950000D03*
X142250000Y-123250000D03*
X142750000Y-126950000D03*
X142750000Y-123250000D03*
X143250000Y-126950000D03*
X143250000Y-123250000D03*
X143750000Y-126950000D03*
X143750000Y-123250000D03*
X144250000Y-126950000D03*
X144250000Y-123250000D03*
X144750000Y-126950000D03*
X144750000Y-123250000D03*
X145250000Y-126950000D03*
X145250000Y-123250000D03*
X145750000Y-126950000D03*
X145750000Y-123250000D03*
X146250000Y-126950000D03*
X146250000Y-123250000D03*
X146750000Y-126950000D03*
X146750000Y-123250000D03*
X147250000Y-126950000D03*
X147250000Y-123250000D03*
X147750000Y-126950000D03*
X147750000Y-123250000D03*
X148250000Y-126950000D03*
X148250000Y-123250000D03*
X148750000Y-126950000D03*
X148750000Y-123250000D03*
X149250000Y-126950000D03*
X149250000Y-123250000D03*
X149750000Y-126950000D03*
X149750000Y-123250000D03*
X150250000Y-126950000D03*
X150250000Y-123250000D03*
X150750000Y-126950000D03*
X150750000Y-123250000D03*
X151250000Y-126950000D03*
X151250000Y-123250000D03*
X151750000Y-126950000D03*
X151750000Y-123250000D03*
X152250000Y-126950000D03*
X152250000Y-123250000D03*
X152750000Y-126950000D03*
X152750000Y-123250000D03*
X153250000Y-126950000D03*
X153250000Y-123250000D03*
X153750000Y-126950000D03*
X153750000Y-123250000D03*
X154250000Y-126950000D03*
X154250000Y-123250000D03*
X154750000Y-126950000D03*
X154750000Y-123250000D03*
%TD*%
D15*
%TO.C,R5*%
X183475000Y-113000000D03*
X181825000Y-113000000D03*
%TD*%
D16*
%TO.C,R8*%
X123025000Y-133900000D03*
X124675000Y-133900000D03*
%TD*%
D17*
%TO.C,J2*%
X183000000Y-62000000D03*
X183000000Y-60500000D03*
X183000000Y-59000000D03*
X183000000Y-57500000D03*
D18*
X187700000Y-64600000D03*
X187700000Y-54900000D03*
%TD*%
D19*
%TO.C,D2*%
X166850000Y-108200000D03*
X171150000Y-108200000D03*
%TD*%
D12*
%TO.C,J6*%
X113740000Y-102470000D03*
X113740000Y-97420000D03*
X116280000Y-102470000D03*
X116280000Y-97420000D03*
X118820000Y-102470000D03*
X118820000Y-97420000D03*
X121360000Y-102470000D03*
X121360000Y-97420000D03*
X123900000Y-102470000D03*
X123900000Y-97420000D03*
X126440000Y-102470000D03*
X126440000Y-97420000D03*
X128980000Y-102470000D03*
X128980000Y-97420000D03*
X131520000Y-102470000D03*
X131520000Y-97420000D03*
X134060000Y-102470000D03*
X134060000Y-97420000D03*
X136600000Y-102470000D03*
X136600000Y-97420000D03*
X139140000Y-102470000D03*
X139140000Y-97420000D03*
X141680000Y-102470000D03*
X141680000Y-97420000D03*
X144220000Y-102470000D03*
X144220000Y-97420000D03*
X146760000Y-102470000D03*
X146760000Y-97420000D03*
X149300000Y-102470000D03*
X149300000Y-97420000D03*
X151840000Y-102470000D03*
X151840000Y-97420000D03*
%TD*%
D16*
%TO.C,R9*%
X123025000Y-132300000D03*
X124675000Y-132300000D03*
%TD*%
D20*
%TO.C,SW2*%
X169190000Y-126255000D03*
X169190000Y-127525000D03*
X169190000Y-128795000D03*
X169190000Y-130065000D03*
X169190000Y-131335000D03*
X169190000Y-132605000D03*
X169190000Y-133875000D03*
X169190000Y-135145000D03*
X176810000Y-135145000D03*
X176810000Y-133875000D03*
X176810000Y-132605000D03*
X176810000Y-131335000D03*
X176810000Y-130065000D03*
X176810000Y-128795000D03*
X176810000Y-127525000D03*
X176810000Y-126255000D03*
%TD*%
%TO.C,SW1*%
X169190000Y-55205000D03*
X169190000Y-56475000D03*
X169190000Y-57745000D03*
X169190000Y-59015000D03*
X169190000Y-60285000D03*
X169190000Y-61555000D03*
X169190000Y-62825000D03*
X169190000Y-64095000D03*
X176810000Y-64095000D03*
X176810000Y-62825000D03*
X176810000Y-61555000D03*
X176810000Y-60285000D03*
X176810000Y-59015000D03*
X176810000Y-57745000D03*
X176810000Y-56475000D03*
X176810000Y-55205000D03*
%TD*%
D21*
%TO.C,C9*%
X126350000Y-135575000D03*
X126350000Y-137125000D03*
%TD*%
D13*
%TO.C,C7*%
X183425000Y-115750000D03*
X181875000Y-115750000D03*
%TD*%
D16*
%TO.C,R12*%
X136025000Y-133850000D03*
X137675000Y-133850000D03*
%TD*%
%TO.C,R11*%
X123025000Y-137150000D03*
X124675000Y-137150000D03*
%TD*%
%TO.C,R7*%
X123025000Y-135550000D03*
X124675000Y-135550000D03*
%TD*%
D22*
%TO.C,R10*%
X121400000Y-130750000D03*
X121400000Y-132400000D03*
%TD*%
D23*
%TO.C,R6*%
X179300000Y-134325000D03*
X179300000Y-132675000D03*
%TD*%
D22*
%TO.C,R1*%
X179300000Y-62975000D03*
X179300000Y-64625000D03*
%TD*%
D15*
%TO.C,R3*%
X183475000Y-74750000D03*
X181825000Y-74750000D03*
%TD*%
D17*
%TO.C,J3*%
X182975000Y-133150000D03*
X182975000Y-131650000D03*
X182975000Y-130150000D03*
X182975000Y-128650000D03*
D18*
X187675000Y-135750000D03*
X187675000Y-126050000D03*
%TD*%
D23*
%TO.C,R4*%
X107000000Y-136175000D03*
X107000000Y-134525000D03*
%TD*%
D21*
%TO.C,C11*%
X136100000Y-135575000D03*
X136100000Y-137125000D03*
%TD*%
D22*
%TO.C,R2*%
X107000000Y-54025000D03*
X107000000Y-55675000D03*
%TD*%
D24*
%TO.C,C10*%
X126350000Y-133875000D03*
X126350000Y-132325000D03*
%TD*%
D25*
%TO.C,D5*%
X149875000Y-132000000D03*
D26*
X149875000Y-130300000D03*
X147875000Y-130300000D03*
X147875000Y-132200000D03*
%TD*%
D21*
%TO.C,C4*%
X104000000Y-54075000D03*
X104000000Y-55625000D03*
%TD*%
D24*
%TO.C,C6*%
X104000000Y-136125000D03*
X104000000Y-134575000D03*
%TD*%
M02*
