M48
; DRILL file {KiCad 7.0.8} date Tue Feb  6 21:48:56 2024
; FORMAT={-:-/ absolute / metric / decimal}
; #@! TF.CreationDate,2024-02-06T21:48:56+01:00
; #@! TF.GenerationSoftware,Kicad,Pcbnew,7.0.8
; #@! TF.FileFunction,Plated,1,4,PTH
FMAT,2
METRIC
; #@! TA.AperFunction,Plated,PTH,ComponentDrill
T1C0.200
; #@! TA.AperFunction,Plated,PTH,ViaDrill
T2C0.300
; #@! TA.AperFunction,Plated,PTH,ViaDrill
T3C0.400
; #@! TA.AperFunction,Plated,PTH,ComponentDrill
T4C0.500
; #@! TA.AperFunction,Plated,PTH,ComponentDrill
T5C1.000
; #@! TA.AperFunction,Plated,PTH,ComponentDrill
T6C3.200
%
G90
G05
T1
X107.226Y-110.681
X107.726Y-109.781
X107.726Y-111.581
X108.226Y-110.681
X131.16Y-105.755
X131.66Y-104.855
X131.66Y-106.655
X132.16Y-105.755
X154.804Y-110.904
X155.304Y-110.004
X155.304Y-111.804
X155.804Y-110.904
T2
X107.137Y-114.021
X112.446Y-109.042
X113.335Y-109.576
X113.614Y-111.684
X114.376Y-109.449
X114.529Y-112.09
X114.63Y-106.782
X114.656Y-105.766
X114.706Y-107.62
X114.859Y-108.534
X115.24Y-112.852
X115.595Y-105.105
X115.773Y-113.767
X116.484Y-114.833
X116.535Y-105.105
X117.5Y-105.156
X117.627Y-114.884
X118.339Y-105.969
X118.593Y-114.097
X119.024Y-107.95
X119.202Y-106.07
X119.482Y-110.769
X120.066Y-107.925
X120.066Y-108.915
X120.167Y-106.02
X120.904Y-109.626
X120.929Y-111.785
X121.031Y-107.95
X121.234Y-105.994
X121.818Y-111.785
X121.869Y-109.703
X122.149Y-107.975
X122.301Y-105.969
X122.809Y-111.912
X122.885Y-109.728
X123.114Y-107.975
X123.292Y-105.74
X123.419Y-112.598
X123.977Y-110.058
X124.13Y-113.284
X124.155Y-108.372
X124.308Y-105.258
X124.968Y-113.919
X125.476Y-105.131
X126.009Y-111.938
X126.009Y-114.021
X126.644Y-105.156
X126.848Y-114.021
X126.949Y-111.963
X127.762Y-109.22
X127.787Y-110.185
X127.787Y-114.021
X127.889Y-111.938
X128.346Y-114.757
X129.008Y-107.291
X129.235Y-114.96
X129.565Y-108.077
X129.743Y-108.966
X129.769Y-110.007
X129.87Y-111.049
X130.2Y-114.96
X130.962Y-111.557
X130.962Y-114.325
X131.216Y-103.302
X131.902Y-114.325
X131.953Y-111.582
X132.61Y-114.944
X132.918Y-112.954
X133.045Y-110.947
X133.909Y-111.658
X133.934Y-114.681
X137.439Y-106.756
X137.566Y-104.877
X138.328Y-107.086
X138.506Y-104.623
X138.786Y-108.026
X138.811Y-109.22
X139.243Y-103.886
X140.056Y-103.048
X140.233Y-101.956
X141.173Y-101.549
X142.189Y-109.601
X142.265Y-101.575
X142.596Y-108.585
X143.154Y-102.159
X143.459Y-107.731
X144.577Y-107.874
X145.644Y-107.925
X146.736Y-108.052
X147.574Y-108.026
X147.599Y-103.327
X148.285Y-108.763
X148.488Y-102.895
X148.819Y-105.181
X149.479Y-102.819
X150.495Y-102.819
X151.587Y-102.362
X151.587Y-112.486
X151.816Y-107.239
X151.841Y-108.255
X152.451Y-106.248
X152.679Y-102.006
X153.467Y-106.045
X153.848Y-101.905
X154.534Y-106.02
X154.838Y-101.905
X155.702Y-105.867
X155.88Y-101.93
X156.21Y-102.921
X156.21Y-103.911
X156.21Y-104.775
X161.519Y-111.938
X161.544Y-109.957
X162.128Y-106.959
X162.179Y-107.975
X162.23Y-109.449
X162.281Y-105.893
X162.357Y-112.547
X163.068Y-108.864
X163.093Y-113.233
X163.195Y-110.871
X163.728Y-113.919
X163.83Y-105.08
X163.855Y-111.709
X163.982Y-110.134
X164.795Y-105.054
X165.735Y-105.131
X166.192Y-109.449
X166.243Y-112.268
X166.345Y-105.867
X166.395Y-114.198
X166.929Y-107.899
X166.929Y-110.922
X167.259Y-105.943
X167.564Y-108.458
X168.173Y-109.068
X168.377Y-105.867
X168.859Y-109.728
X169.291Y-105.918
X169.596Y-109.245
X169.85Y-111.684
X170.205Y-108.585
X170.307Y-105.969
X170.357Y-105.08
X170.357Y-107.747
X170.663Y-111.201
X171.298Y-110.541
X171.526Y-102.819
X171.907Y-109.83
X172.06Y-108.382
X172.263Y-104.877
X172.822Y-102.819
X173.177Y-104.648
X173.507Y-111.735
X173.965Y-102.794
X174.168Y-104.623
X175.108Y-102.083
X176.301Y-101.829
X176.327Y-107.264
X176.682Y-106.35
X176.682Y-110.16
X176.733Y-108.356
X176.733Y-112.09
X177.368Y-101.803
X177.546Y-105.867
X177.851Y-111.15
X177.876Y-109.195
X178.511Y-101.778
X178.587Y-105.842
X178.994Y-112.065
X179.019Y-108.356
X179.019Y-110.16
X179.603Y-105.842
X179.781Y-101.803
X180.442Y-105.308
X180.696Y-102.286
X187.528Y-109.423
T3
X101.651Y-108.102
X101.956Y-99.517
X104.038Y-113.132
X104.318Y-98.882
X106.832Y-98.882
X107.137Y-112.979
X109.068Y-99.085
X110.668Y-100.635
X110.896Y-95.047
X111.049Y-97.561
X111.074Y-92.532
X112.624Y-100.66
X113.233Y-92.1
X115.229Y-101.869
X116.383Y-93.726
X116.51Y-92.1
X117.729Y-93.853
X117.805Y-91.926
X120.142Y-93.98
X120.272Y-91.926
X122.809Y-96.342
X125.171Y-97.282
X126.873Y-102.464
X126.873Y-103.962
X127.787Y-104.419
X128.905Y-103.881
X128.93Y-102.082
X131.115Y-100.711
X132.856Y-111.952
X132.958Y-114.06
X134.087Y-108.001
X134.087Y-109.0
X134.595Y-99.212
X135.458Y-111.455
X136.271Y-110.82
X137.973Y-99.238
X138.328Y-93.98
X140.995Y-99.085
X141.097Y-114.173
X141.122Y-112.37
X142.265Y-110.693
X143.154Y-105.842
X144.297Y-109.83
X144.297Y-111.252
X145.999Y-93.65
X145.999Y-99.771
X146.202Y-111.227
X146.253Y-109.779
X147.828Y-101.295
X148.082Y-113.665
X148.133Y-110.744
X148.133Y-112.319
X149.454Y-100.076
X149.454Y-101.422
X149.657Y-112.37
X149.657Y-113.741
X151.13Y-100.736
X152.425Y-114.597
X152.578Y-112.446
X153.467Y-100.025
X154.788Y-100.42
X155.143Y-102.946
X155.169Y-104.796
X156.286Y-106.883
X157.361Y-114.597
X157.709Y-105.131
X158.725Y-93.828
X160.325Y-109.169
X160.757Y-106.248
X164.109Y-104.089
X165.024Y-101.727
X165.16Y-104.178
X167.437Y-114.681
X168.402Y-104.981
X170.198Y-114.713
X171.298Y-99.365
X172.644Y-100.762
X174.955Y-100.305
X175.59Y-113.843
X176.682Y-114.325
X177.19Y-100.279
X177.571Y-103.81
X177.673Y-113.792
X180.448Y-103.271
X180.448Y-104.271
X183.921Y-113.868
X185.929Y-115.571
X187.122Y-115.494
X188.9Y-99.466
X189.459Y-115.697
X189.586Y-105.562
X189.586Y-106.807
X190.627Y-114.021
X191.465Y-103.124
X191.592Y-105.918
T4
X102.98Y-103.924
X103.683Y-102.227
X103.683Y-105.621
X105.38Y-101.524
X105.38Y-106.324
X107.077Y-102.227
X107.077Y-105.621
X107.78Y-103.924
X181.979Y-103.936
X182.682Y-102.239
X182.682Y-105.633
X184.379Y-101.536
X184.379Y-106.336
X186.076Y-102.239
X186.076Y-105.633
X186.779Y-103.936
T5
X113.818Y-95.046
X113.818Y-97.586
X116.358Y-95.046
X116.358Y-97.586
X118.898Y-95.046
X118.898Y-97.586
X121.438Y-95.046
X121.438Y-97.586
X126.97Y-95.046
X126.97Y-97.586
X129.51Y-95.046
X129.51Y-97.586
X132.05Y-95.046
X132.05Y-97.586
X134.59Y-95.046
X134.59Y-97.586
X137.13Y-95.046
X137.13Y-97.586
X139.67Y-95.046
X139.67Y-97.586
X142.21Y-95.046
X142.21Y-97.586
X144.75Y-95.046
X144.75Y-97.586
X147.29Y-95.046
X147.29Y-97.586
X149.83Y-95.046
X149.83Y-97.586
X152.37Y-95.046
X152.37Y-97.586
X154.91Y-95.046
X154.91Y-97.586
X157.45Y-95.046
X157.45Y-97.586
X159.99Y-95.046
X159.99Y-97.586
X162.53Y-95.046
X162.53Y-97.586
X165.07Y-95.046
X165.07Y-97.586
X167.61Y-95.046
X167.61Y-97.586
X170.15Y-95.046
X170.15Y-97.586
X172.69Y-95.046
X172.69Y-97.586
X175.23Y-95.046
X175.23Y-97.586
T6
X105.38Y-103.924
X184.379Y-103.936
T0
M30
