%TF.GenerationSoftware,KiCad,Pcbnew,8.0.3*%
%TF.CreationDate,2024-07-12T22:27:25+02:00*%
%TF.ProjectId,HatV5,48617456-352e-46b6-9963-61645f706362,V2*%
%TF.SameCoordinates,Original*%
%TF.FileFunction,Legend,Top*%
%TF.FilePolarity,Positive*%
%FSLAX46Y46*%
G04 Gerber Fmt 4.6, Leading zero omitted, Abs format (unit mm)*
G04 Created by KiCad (PCBNEW 8.0.3) date 2024-07-12 22:27:25*
%MOMM*%
%LPD*%
G01*
G04 APERTURE LIST*
%ADD10C,0.150000*%
%ADD11C,0.200000*%
%ADD12C,0.375000*%
%ADD13C,0.120000*%
%ADD14C,0.000000*%
G04 APERTURE END LIST*
D10*
X161482400Y-95597200D02*
X143042000Y-95597200D01*
X143042000Y-108119400D02*
X161482400Y-108119400D01*
X161482400Y-108119400D02*
X161482400Y-95521000D01*
X137482400Y-108119400D02*
X137482400Y-95521000D01*
X118838800Y-108119400D02*
X137482400Y-108119400D01*
X137482400Y-95470200D02*
X118838800Y-95470200D01*
X143042000Y-95597200D02*
X143042000Y-108119400D01*
X118838800Y-95470200D02*
X118838800Y-108119400D01*
D11*
X166375882Y-89486619D02*
X165804454Y-89486619D01*
X166090168Y-89486619D02*
X166090168Y-88486619D01*
X166090168Y-88486619D02*
X165994930Y-88629476D01*
X165994930Y-88629476D02*
X165899692Y-88724714D01*
X165899692Y-88724714D02*
X165804454Y-88772333D01*
X155875882Y-111986619D02*
X155304454Y-111986619D01*
X155590168Y-111986619D02*
X155590168Y-110986619D01*
X155590168Y-110986619D02*
X155494930Y-111129476D01*
X155494930Y-111129476D02*
X155399692Y-111224714D01*
X155399692Y-111224714D02*
X155304454Y-111272333D01*
D12*
X125443395Y-94773471D02*
X125371967Y-94844900D01*
X125371967Y-94844900D02*
X125157681Y-94916328D01*
X125157681Y-94916328D02*
X125014824Y-94916328D01*
X125014824Y-94916328D02*
X124800538Y-94844900D01*
X124800538Y-94844900D02*
X124657681Y-94702042D01*
X124657681Y-94702042D02*
X124586252Y-94559185D01*
X124586252Y-94559185D02*
X124514824Y-94273471D01*
X124514824Y-94273471D02*
X124514824Y-94059185D01*
X124514824Y-94059185D02*
X124586252Y-93773471D01*
X124586252Y-93773471D02*
X124657681Y-93630614D01*
X124657681Y-93630614D02*
X124800538Y-93487757D01*
X124800538Y-93487757D02*
X125014824Y-93416328D01*
X125014824Y-93416328D02*
X125157681Y-93416328D01*
X125157681Y-93416328D02*
X125371967Y-93487757D01*
X125371967Y-93487757D02*
X125443395Y-93559185D01*
X126014824Y-94487757D02*
X126729110Y-94487757D01*
X125871967Y-94916328D02*
X126371967Y-93416328D01*
X126371967Y-93416328D02*
X126871967Y-94916328D01*
X127371966Y-94916328D02*
X127371966Y-93416328D01*
X127371966Y-93416328D02*
X128229109Y-94916328D01*
X128229109Y-94916328D02*
X128229109Y-93416328D01*
X130871967Y-94916328D02*
X130014824Y-94916328D01*
X130443395Y-94916328D02*
X130443395Y-93416328D01*
X130443395Y-93416328D02*
X130300538Y-93630614D01*
X130300538Y-93630614D02*
X130157681Y-93773471D01*
X130157681Y-93773471D02*
X130014824Y-93844900D01*
X150943395Y-94773471D02*
X150871967Y-94844900D01*
X150871967Y-94844900D02*
X150657681Y-94916328D01*
X150657681Y-94916328D02*
X150514824Y-94916328D01*
X150514824Y-94916328D02*
X150300538Y-94844900D01*
X150300538Y-94844900D02*
X150157681Y-94702042D01*
X150157681Y-94702042D02*
X150086252Y-94559185D01*
X150086252Y-94559185D02*
X150014824Y-94273471D01*
X150014824Y-94273471D02*
X150014824Y-94059185D01*
X150014824Y-94059185D02*
X150086252Y-93773471D01*
X150086252Y-93773471D02*
X150157681Y-93630614D01*
X150157681Y-93630614D02*
X150300538Y-93487757D01*
X150300538Y-93487757D02*
X150514824Y-93416328D01*
X150514824Y-93416328D02*
X150657681Y-93416328D01*
X150657681Y-93416328D02*
X150871967Y-93487757D01*
X150871967Y-93487757D02*
X150943395Y-93559185D01*
X151514824Y-94487757D02*
X152229110Y-94487757D01*
X151371967Y-94916328D02*
X151871967Y-93416328D01*
X151871967Y-93416328D02*
X152371967Y-94916328D01*
X152871966Y-94916328D02*
X152871966Y-93416328D01*
X152871966Y-93416328D02*
X153729109Y-94916328D01*
X153729109Y-94916328D02*
X153729109Y-93416328D01*
X155871967Y-93416328D02*
X156014824Y-93416328D01*
X156014824Y-93416328D02*
X156157681Y-93487757D01*
X156157681Y-93487757D02*
X156229110Y-93559185D01*
X156229110Y-93559185D02*
X156300538Y-93702042D01*
X156300538Y-93702042D02*
X156371967Y-93987757D01*
X156371967Y-93987757D02*
X156371967Y-94344900D01*
X156371967Y-94344900D02*
X156300538Y-94630614D01*
X156300538Y-94630614D02*
X156229110Y-94773471D01*
X156229110Y-94773471D02*
X156157681Y-94844900D01*
X156157681Y-94844900D02*
X156014824Y-94916328D01*
X156014824Y-94916328D02*
X155871967Y-94916328D01*
X155871967Y-94916328D02*
X155729110Y-94844900D01*
X155729110Y-94844900D02*
X155657681Y-94773471D01*
X155657681Y-94773471D02*
X155586252Y-94630614D01*
X155586252Y-94630614D02*
X155514824Y-94344900D01*
X155514824Y-94344900D02*
X155514824Y-93987757D01*
X155514824Y-93987757D02*
X155586252Y-93702042D01*
X155586252Y-93702042D02*
X155657681Y-93559185D01*
X155657681Y-93559185D02*
X155729110Y-93487757D01*
X155729110Y-93487757D02*
X155871967Y-93416328D01*
D13*
%TO.C,J4*%
X152881778Y-96734422D02*
X152881778Y-107034422D01*
X159451778Y-96624422D02*
X156821778Y-96624422D01*
X159451778Y-98974422D02*
X159451778Y-96624422D01*
X159451778Y-104794422D02*
X159451778Y-107144422D01*
X159451778Y-107144422D02*
X156821778Y-107144422D01*
X161161778Y-104794422D02*
X159451778Y-104794422D01*
%TO.C,J3*%
X143472800Y-96720000D02*
X143472800Y-107020000D01*
X150042800Y-96610000D02*
X147412800Y-96610000D01*
X150042800Y-98960000D02*
X150042800Y-96610000D01*
X150042800Y-104780000D02*
X150042800Y-107130000D01*
X150042800Y-107130000D02*
X147412800Y-107130000D01*
X151752800Y-104780000D02*
X150042800Y-104780000D01*
%TO.C,U4*%
X162217756Y-101794865D02*
X163892756Y-101794865D01*
X163242756Y-104914865D02*
X163892756Y-104914865D01*
X164542756Y-101794865D02*
X163892756Y-101794865D01*
X164542756Y-104914865D02*
X163892756Y-104914865D01*
D14*
%TO.C,G\u002A\u002A\u002A*%
G36*
X112329604Y-104633402D02*
G01*
X112341425Y-104638682D01*
X112342488Y-104639226D01*
X112352435Y-104645200D01*
X112354393Y-104650111D01*
X112350665Y-104655752D01*
X112345217Y-104662237D01*
X112334426Y-104675161D01*
X112319445Y-104693142D01*
X112301428Y-104714793D01*
X112281528Y-104738731D01*
X112281064Y-104739289D01*
X112261509Y-104762603D01*
X112244079Y-104782964D01*
X112229835Y-104799166D01*
X112219839Y-104810004D01*
X112215150Y-104814273D01*
X112215042Y-104814294D01*
X112209316Y-104810946D01*
X112200596Y-104802857D01*
X112200283Y-104802525D01*
X112192570Y-104793248D01*
X112189230Y-104787117D01*
X112189226Y-104787016D01*
X112192378Y-104781691D01*
X112201010Y-104770266D01*
X112213891Y-104754189D01*
X112229789Y-104734905D01*
X112247472Y-104713863D01*
X112265707Y-104692509D01*
X112283262Y-104672288D01*
X112298906Y-104654649D01*
X112311406Y-104641038D01*
X112319531Y-104632900D01*
X112321904Y-104631231D01*
X112329604Y-104633402D01*
G37*
G36*
X112561998Y-104176399D02*
G01*
X112579669Y-104177676D01*
X112593961Y-104180592D01*
X112608266Y-104185792D01*
X112622479Y-104192258D01*
X112660187Y-104215310D01*
X112690940Y-104244671D01*
X112714366Y-104279005D01*
X112730094Y-104316977D01*
X112737751Y-104357252D01*
X112736966Y-104398494D01*
X112727366Y-104439369D01*
X112708582Y-104478541D01*
X112704104Y-104485445D01*
X112675378Y-104519556D01*
X112641036Y-104545971D01*
X112611288Y-104560500D01*
X112585406Y-104567701D01*
X112555249Y-104572120D01*
X112524971Y-104573427D01*
X112498725Y-104571291D01*
X112492388Y-104569963D01*
X112464224Y-104559780D01*
X112434719Y-104543994D01*
X112407978Y-104525062D01*
X112391558Y-104509560D01*
X112365879Y-104473634D01*
X112349118Y-104434690D01*
X112340999Y-104394057D01*
X112341247Y-104353068D01*
X112349587Y-104313056D01*
X112365742Y-104275351D01*
X112389440Y-104241287D01*
X112420403Y-104212193D01*
X112457627Y-104189745D01*
X112472789Y-104183235D01*
X112486647Y-104179177D01*
X112502459Y-104177016D01*
X112523478Y-104176197D01*
X112537555Y-104176116D01*
X112561998Y-104176399D01*
G37*
G36*
X109998826Y-103692755D02*
G01*
X110011650Y-103694670D01*
X110030923Y-103697316D01*
X110052996Y-103700198D01*
X110058576Y-103700903D01*
X110232372Y-103726551D01*
X110399242Y-103759165D01*
X110559947Y-103799046D01*
X110715243Y-103846497D01*
X110865892Y-103901821D01*
X111012650Y-103965321D01*
X111156278Y-104037299D01*
X111297534Y-104118058D01*
X111437177Y-104207900D01*
X111572949Y-104304868D01*
X111630446Y-104347928D01*
X111613904Y-104364995D01*
X111603571Y-104375055D01*
X111596243Y-104381091D01*
X111594545Y-104381884D01*
X111589693Y-104378883D01*
X111578395Y-104370793D01*
X111562228Y-104358773D01*
X111542770Y-104343983D01*
X111538336Y-104340574D01*
X111473924Y-104292729D01*
X111410762Y-104249662D01*
X111347282Y-104210577D01*
X111281918Y-104174675D01*
X111213104Y-104141159D01*
X111139273Y-104109230D01*
X111058860Y-104078091D01*
X110970297Y-104046945D01*
X110945923Y-104038806D01*
X110826279Y-104001799D01*
X110708110Y-103970284D01*
X110592352Y-103944411D01*
X110479942Y-103924332D01*
X110371817Y-103910197D01*
X110268913Y-103902155D01*
X110172167Y-103900359D01*
X110102738Y-103903305D01*
X110073266Y-103905541D01*
X110045941Y-103907815D01*
X110023013Y-103909924D01*
X110006729Y-103911667D01*
X110001369Y-103912405D01*
X109982300Y-103915565D01*
X109982300Y-103802797D01*
X109982300Y-103690030D01*
X109998826Y-103692755D01*
G37*
G36*
X111989934Y-104673168D02*
G01*
X112024845Y-104708694D01*
X112064081Y-104751118D01*
X112106314Y-104798885D01*
X112150216Y-104850438D01*
X112194459Y-104904219D01*
X112237717Y-104958675D01*
X112274633Y-105006875D01*
X112380194Y-105155637D01*
X112478291Y-105310764D01*
X112568595Y-105471483D01*
X112650774Y-105637026D01*
X112724499Y-105806620D01*
X112789437Y-105979496D01*
X112845259Y-106154883D01*
X112891634Y-106332009D01*
X112928231Y-106510105D01*
X112933925Y-106543223D01*
X112937708Y-106565534D01*
X112941146Y-106585095D01*
X112943722Y-106599001D01*
X112944536Y-106602973D01*
X112947098Y-106614415D01*
X112648090Y-106614415D01*
X112349083Y-106614415D01*
X112360297Y-106547331D01*
X112367853Y-106500258D01*
X112374068Y-106456781D01*
X112379063Y-106415159D01*
X112382956Y-106373653D01*
X112385867Y-106330523D01*
X112387916Y-106284029D01*
X112389222Y-106232431D01*
X112389904Y-106173991D01*
X112390083Y-106113534D01*
X112389981Y-106056828D01*
X112389639Y-106008854D01*
X112389011Y-105968178D01*
X112388050Y-105933362D01*
X112386709Y-105902972D01*
X112384940Y-105875572D01*
X112382697Y-105849726D01*
X112380849Y-105832063D01*
X112362245Y-105693447D01*
X112337973Y-105562463D01*
X112307762Y-105438126D01*
X112271343Y-105319449D01*
X112228445Y-105205446D01*
X112179475Y-105096517D01*
X112141688Y-105022155D01*
X112104073Y-104955104D01*
X112064922Y-104892682D01*
X112022528Y-104832204D01*
X111975182Y-104770989D01*
X111961748Y-104754497D01*
X111913708Y-104696082D01*
X111938148Y-104671269D01*
X111962589Y-104646455D01*
X111989934Y-104673168D01*
G37*
G36*
X112917630Y-103631742D02*
G01*
X112941225Y-103638937D01*
X112957463Y-103651625D01*
X112967262Y-103670371D01*
X112969937Y-103681629D01*
X112971094Y-103712110D01*
X112965441Y-103749281D01*
X112953238Y-103792521D01*
X112934747Y-103841210D01*
X112910230Y-103894731D01*
X112879949Y-103952462D01*
X112844164Y-104013785D01*
X112803137Y-104078081D01*
X112801400Y-104080693D01*
X112783788Y-104106953D01*
X112768062Y-104130078D01*
X112755090Y-104148818D01*
X112745739Y-104161925D01*
X112740876Y-104168149D01*
X112740434Y-104168489D01*
X112735503Y-104165447D01*
X112725220Y-104157588D01*
X112711871Y-104146813D01*
X112697741Y-104135022D01*
X112685114Y-104124115D01*
X112676276Y-104115992D01*
X112673482Y-104112812D01*
X112675075Y-104107266D01*
X112680375Y-104094262D01*
X112688649Y-104075491D01*
X112699163Y-104052644D01*
X112704628Y-104041066D01*
X112728172Y-103989277D01*
X112745737Y-103945298D01*
X112757376Y-103908753D01*
X112763145Y-103879269D01*
X112763098Y-103856468D01*
X112757292Y-103839975D01*
X112745780Y-103829415D01*
X112736150Y-103825769D01*
X112715221Y-103824996D01*
X112687638Y-103831249D01*
X112653811Y-103844238D01*
X112614149Y-103863672D01*
X112569063Y-103889260D01*
X112518962Y-103920712D01*
X112464255Y-103957736D01*
X112405352Y-104000042D01*
X112342663Y-104047339D01*
X112276597Y-104099337D01*
X112207563Y-104155744D01*
X112135972Y-104216270D01*
X112062234Y-104280624D01*
X111986756Y-104348515D01*
X111942693Y-104389074D01*
X111930318Y-104400647D01*
X111910994Y-104418833D01*
X111885142Y-104443237D01*
X111853180Y-104473459D01*
X111815526Y-104509103D01*
X111772598Y-104549770D01*
X111724817Y-104595062D01*
X111672599Y-104644583D01*
X111616364Y-104697935D01*
X111556531Y-104754718D01*
X111493518Y-104814537D01*
X111427744Y-104876993D01*
X111359627Y-104941689D01*
X111289586Y-105008226D01*
X111218040Y-105076207D01*
X111145408Y-105145234D01*
X111072107Y-105214910D01*
X110998557Y-105284837D01*
X110925177Y-105354617D01*
X110852384Y-105423853D01*
X110780598Y-105492146D01*
X110710237Y-105559100D01*
X110641721Y-105624315D01*
X110575466Y-105687395D01*
X110511894Y-105747942D01*
X110451420Y-105805558D01*
X110394466Y-105859846D01*
X110378590Y-105874983D01*
X110325945Y-105925165D01*
X110275317Y-105973386D01*
X110227199Y-106019182D01*
X110182083Y-106062085D01*
X110140459Y-106101629D01*
X110102820Y-106137348D01*
X110069657Y-106168776D01*
X110041461Y-106195446D01*
X110018725Y-106216892D01*
X110001939Y-106232648D01*
X109991597Y-106242248D01*
X109988231Y-106245223D01*
X109986587Y-106243702D01*
X109985255Y-106236446D01*
X109984212Y-106222768D01*
X109983436Y-106201977D01*
X109982904Y-106173385D01*
X109982596Y-106136303D01*
X109982487Y-106090042D01*
X109982497Y-106066797D01*
X109982694Y-105884705D01*
X110212355Y-105696557D01*
X110322533Y-105606139D01*
X110440189Y-105509285D01*
X110565090Y-105406190D01*
X110697000Y-105297049D01*
X110835686Y-105182054D01*
X110980913Y-105061401D01*
X111132448Y-104935283D01*
X111290056Y-104803896D01*
X111453503Y-104667432D01*
X111487695Y-104638859D01*
X111576632Y-104564553D01*
X111658242Y-104496420D01*
X111732983Y-104434086D01*
X111801308Y-104377176D01*
X111863673Y-104325315D01*
X111920534Y-104278130D01*
X111972347Y-104235244D01*
X112019567Y-104196283D01*
X112062649Y-104160873D01*
X112102049Y-104128639D01*
X112138223Y-104099206D01*
X112171625Y-104072199D01*
X112202711Y-104047244D01*
X112231938Y-104023966D01*
X112259760Y-104001990D01*
X112286632Y-103980941D01*
X112301098Y-103969682D01*
X112384185Y-103906050D01*
X112460496Y-103849519D01*
X112530350Y-103799905D01*
X112594064Y-103757022D01*
X112651957Y-103720685D01*
X112704347Y-103690708D01*
X112751554Y-103666906D01*
X112793895Y-103649094D01*
X112831689Y-103637087D01*
X112865255Y-103630698D01*
X112885761Y-103629470D01*
X112917630Y-103631742D01*
G37*
D13*
%TO.C,U2*%
X138827700Y-95753200D02*
X140502700Y-95753200D01*
X139852700Y-98873200D02*
X140502700Y-98873200D01*
X141152700Y-95753200D02*
X140502700Y-95753200D01*
X141152700Y-98873200D02*
X140502700Y-98873200D01*
%TO.C,J2*%
X128758200Y-96643800D02*
X128758200Y-106943800D01*
X135328200Y-96533800D02*
X132698200Y-96533800D01*
X135328200Y-98883800D02*
X135328200Y-96533800D01*
X135328200Y-104703800D02*
X135328200Y-107053800D01*
X135328200Y-107053800D02*
X132698200Y-107053800D01*
X137038200Y-104703800D02*
X135328200Y-104703800D01*
%TO.C,J1*%
X119452400Y-96619400D02*
X119452400Y-106919400D01*
X126022400Y-96509400D02*
X123392400Y-96509400D01*
X126022400Y-98859400D02*
X126022400Y-96509400D01*
X126022400Y-104679400D02*
X126022400Y-107029400D01*
X126022400Y-107029400D02*
X123392400Y-107029400D01*
X127732400Y-104679400D02*
X126022400Y-104679400D01*
%TD*%
M02*
