%TF.GenerationSoftware,KiCad,Pcbnew,8.0.3*%
%TF.CreationDate,2024-07-11T22:16:14+02:00*%
%TF.ProjectId,HatV5,48617456-352e-46b6-9963-61645f706362,V2*%
%TF.SameCoordinates,Original*%
%TF.FileFunction,Soldermask,Bot*%
%TF.FilePolarity,Negative*%
%FSLAX46Y46*%
G04 Gerber Fmt 4.6, Leading zero omitted, Abs format (unit mm)*
G04 Created by KiCad (PCBNEW 8.0.3) date 2024-07-11 22:16:14*
%MOMM*%
%LPD*%
G01*
G04 APERTURE LIST*
G04 Aperture macros list*
%AMRoundRect*
0 Rectangle with rounded corners*
0 $1 Rounding radius*
0 $2 $3 $4 $5 $6 $7 $8 $9 X,Y pos of 4 corners*
0 Add a 4 corners polygon primitive as box body*
4,1,4,$2,$3,$4,$5,$6,$7,$8,$9,$2,$3,0*
0 Add four circle primitives for the rounded corners*
1,1,$1+$1,$2,$3*
1,1,$1+$1,$4,$5*
1,1,$1+$1,$6,$7*
1,1,$1+$1,$8,$9*
0 Add four rect primitives between the rounded corners*
20,1,$1+$1,$2,$3,$4,$5,0*
20,1,$1+$1,$4,$5,$6,$7,0*
20,1,$1+$1,$6,$7,$8,$9,0*
20,1,$1+$1,$8,$9,$2,$3,0*%
G04 Aperture macros list end*
%ADD10C,0.800000*%
%ADD11C,6.400000*%
%ADD12R,1.700000X1.700000*%
%ADD13O,1.700000X1.700000*%
%ADD14RoundRect,0.140000X0.140000X0.170000X-0.140000X0.170000X-0.140000X-0.170000X0.140000X-0.170000X0*%
%ADD15RoundRect,0.140000X-0.140000X-0.170000X0.140000X-0.170000X0.140000X0.170000X-0.140000X0.170000X0*%
%ADD16RoundRect,0.020000X0.430000X-0.180000X0.430000X0.180000X-0.430000X0.180000X-0.430000X-0.180000X0*%
%ADD17RoundRect,0.200000X0.200000X0.275000X-0.200000X0.275000X-0.200000X-0.275000X0.200000X-0.275000X0*%
%ADD18RoundRect,0.135000X-0.135000X-0.185000X0.135000X-0.185000X0.135000X0.185000X-0.135000X0.185000X0*%
%ADD19RoundRect,0.075000X-0.350000X-0.075000X0.350000X-0.075000X0.350000X0.075000X-0.350000X0.075000X0*%
%ADD20R,1.600000X2.400000*%
%ADD21RoundRect,0.200000X-0.200000X-0.275000X0.200000X-0.275000X0.200000X0.275000X-0.200000X0.275000X0*%
%ADD22RoundRect,0.135000X0.135000X0.185000X-0.135000X0.185000X-0.135000X-0.185000X0.135000X-0.185000X0*%
G04 APERTURE END LIST*
D10*
%TO.C,H1*%
X113082400Y-111119400D03*
X113785344Y-109422344D03*
X113785344Y-112816456D03*
X115482400Y-108719400D03*
D11*
X115482400Y-111119400D03*
D10*
X115482400Y-113519400D03*
X117179456Y-109422344D03*
X117179456Y-112816456D03*
X117882400Y-111119400D03*
%TD*%
%TO.C,H2*%
X161140056Y-111064796D03*
X161843000Y-109367740D03*
X161843000Y-112761852D03*
X163540056Y-108664796D03*
D11*
X163540056Y-111064796D03*
D10*
X163540056Y-113464796D03*
X165237112Y-109367740D03*
X165237112Y-112761852D03*
X165940056Y-111064796D03*
%TD*%
D12*
%TO.C,J5*%
X163722400Y-89079400D03*
D13*
X163722400Y-91619400D03*
X161182400Y-89079400D03*
X161182400Y-91619400D03*
X158642400Y-89079400D03*
X158642400Y-91619400D03*
X156102400Y-89079400D03*
X156102400Y-91619400D03*
X153562400Y-89079400D03*
X153562400Y-91619400D03*
X151022400Y-89079400D03*
X151022400Y-91619400D03*
X148482400Y-89079400D03*
X148482400Y-91619400D03*
X145942400Y-89079400D03*
X145942400Y-91619400D03*
X143402400Y-89079400D03*
X143402400Y-91619400D03*
X140862400Y-89079400D03*
X140862400Y-91619400D03*
X138322400Y-89079400D03*
X138322400Y-91619400D03*
X135782400Y-89079400D03*
X135782400Y-91619400D03*
X133242400Y-89079400D03*
X133242400Y-91619400D03*
X130702400Y-89079400D03*
X130702400Y-91619400D03*
X128162400Y-89079400D03*
X128162400Y-91619400D03*
X125622400Y-89079400D03*
X125622400Y-91619400D03*
X123082400Y-89079400D03*
X123082400Y-91619400D03*
X120542400Y-89079400D03*
X120542400Y-91619400D03*
X118002400Y-89079400D03*
X118002400Y-91619400D03*
X115462400Y-89079400D03*
X115462400Y-91619400D03*
%TD*%
D14*
%TO.C,C2*%
X118440778Y-97210822D03*
X117480778Y-97210822D03*
%TD*%
D12*
%TO.C,J6*%
X153142400Y-111619400D03*
D13*
X153142400Y-114159400D03*
X150602400Y-111619400D03*
X150602400Y-114159400D03*
X148062400Y-111619400D03*
X148062400Y-114159400D03*
X145522400Y-111619400D03*
X145522400Y-114159400D03*
X142982400Y-111619400D03*
X142982400Y-114159400D03*
X140442400Y-111619400D03*
X140442400Y-114159400D03*
X137902400Y-111619400D03*
X137902400Y-114159400D03*
X135362400Y-111619400D03*
X135362400Y-114159400D03*
X132822400Y-111619400D03*
X132822400Y-114159400D03*
X130282400Y-111619400D03*
X130282400Y-114159400D03*
X127742400Y-111619400D03*
X127742400Y-114159400D03*
X125202400Y-111619400D03*
X125202400Y-114159400D03*
%TD*%
D14*
%TO.C,C8*%
X138836978Y-104983222D03*
X137876978Y-104983222D03*
%TD*%
D15*
%TO.C,C5*%
X126878778Y-99544000D03*
X127838778Y-99544000D03*
%TD*%
D14*
%TO.C,C7*%
X143177778Y-102290822D03*
X142217778Y-102290822D03*
%TD*%
D16*
%TO.C,FL1*%
X120685400Y-99944000D03*
X120685400Y-99144000D03*
X122385400Y-99144000D03*
X122385400Y-99944000D03*
%TD*%
D17*
%TO.C,R6*%
X150625053Y-103220757D03*
X148975053Y-103220757D03*
%TD*%
D18*
%TO.C,R1*%
X120478600Y-101169600D03*
X121498600Y-101169600D03*
%TD*%
D14*
%TO.C,C6*%
X143149778Y-101274822D03*
X142189778Y-101274822D03*
%TD*%
D19*
%TO.C,U1*%
X116261800Y-100560000D03*
X116261800Y-99910000D03*
X116261800Y-99260000D03*
X116261800Y-98610000D03*
X119161800Y-98610000D03*
X119161800Y-99260000D03*
X119161800Y-99910000D03*
X119161800Y-100560000D03*
D20*
X117711800Y-99585000D03*
%TD*%
D21*
%TO.C,R5*%
X149012778Y-105719822D03*
X150662778Y-105719822D03*
%TD*%
D14*
%TO.C,C3*%
X115014378Y-98201422D03*
X114054378Y-98201422D03*
%TD*%
D21*
%TO.C,R2*%
X125185156Y-100766822D03*
X126835156Y-100766822D03*
%TD*%
D17*
%TO.C,R3*%
X126835156Y-98353822D03*
X125185156Y-98353822D03*
%TD*%
D14*
%TO.C,C4*%
X115014378Y-99217422D03*
X114054378Y-99217422D03*
%TD*%
D15*
%TO.C,C10*%
X150754778Y-104470200D03*
X151714778Y-104470200D03*
%TD*%
D14*
%TO.C,C9*%
X138836978Y-103840222D03*
X137876978Y-103840222D03*
%TD*%
D22*
%TO.C,R4*%
X143261178Y-106913622D03*
X142241178Y-106913622D03*
%TD*%
D14*
%TO.C,C1*%
X118440778Y-96194822D03*
X117480778Y-96194822D03*
%TD*%
D16*
%TO.C,FL2*%
X144570400Y-104911600D03*
X144570400Y-104111600D03*
X146270400Y-104111600D03*
X146270400Y-104911600D03*
%TD*%
D19*
%TO.C,U3*%
X140195400Y-105486200D03*
X140195400Y-104836200D03*
X140195400Y-104186200D03*
X140195400Y-103536200D03*
X143095400Y-103536200D03*
X143095400Y-104186200D03*
X143095400Y-104836200D03*
X143095400Y-105486200D03*
D20*
X141645400Y-104511200D03*
%TD*%
M02*
