%TF.GenerationSoftware,KiCad,Pcbnew,8.0.3*%
%TF.CreationDate,2024-07-11T02:23:33+02:00*%
%TF.ProjectId,HatV5,48617456-352e-46b6-9963-61645f706362,V2*%
%TF.SameCoordinates,Original*%
%TF.FileFunction,Copper,L2,Inr*%
%TF.FilePolarity,Positive*%
%FSLAX46Y46*%
G04 Gerber Fmt 4.6, Leading zero omitted, Abs format (unit mm)*
G04 Created by KiCad (PCBNEW 8.0.3) date 2024-07-11 02:23:33*
%MOMM*%
%LPD*%
G01*
G04 APERTURE LIST*
%TA.AperFunction,ComponentPad*%
%ADD10C,0.800000*%
%TD*%
%TA.AperFunction,ComponentPad*%
%ADD11C,6.400000*%
%TD*%
%TA.AperFunction,ComponentPad*%
%ADD12R,1.700000X1.700000*%
%TD*%
%TA.AperFunction,ComponentPad*%
%ADD13O,1.700000X1.700000*%
%TD*%
%TA.AperFunction,ComponentPad*%
%ADD14C,0.500000*%
%TD*%
%TA.AperFunction,ViaPad*%
%ADD15C,0.800000*%
%TD*%
%TA.AperFunction,ViaPad*%
%ADD16C,0.700000*%
%TD*%
%TA.AperFunction,Conductor*%
%ADD17C,0.300000*%
%TD*%
G04 APERTURE END LIST*
D10*
%TO.N,N/C*%
%TO.C,H1*%
X113082400Y-111119400D03*
X113785344Y-109422344D03*
X113785344Y-112816456D03*
X115482400Y-108719400D03*
D11*
X115482400Y-111119400D03*
D10*
X115482400Y-113519400D03*
X117179456Y-109422344D03*
X117179456Y-112816456D03*
X117882400Y-111119400D03*
%TD*%
%TO.N,N/C*%
%TO.C,H2*%
X161140056Y-111064796D03*
X161843000Y-109367740D03*
X161843000Y-112761852D03*
X163540056Y-108664796D03*
D11*
X163540056Y-111064796D03*
D10*
X163540056Y-113464796D03*
X165237112Y-109367740D03*
X165237112Y-112761852D03*
X165940056Y-111064796D03*
%TD*%
D12*
%TO.N,+3V3*%
%TO.C,J5*%
X163722400Y-89079400D03*
D13*
%TO.N,+5V*%
X163722400Y-91619400D03*
%TO.N,/I2C_GP5_DAT*%
X161182400Y-89079400D03*
%TO.N,+5V*%
X161182400Y-91619400D03*
%TO.N,/I2C_GP5_CLK*%
X158642400Y-89079400D03*
%TO.N,GND*%
X158642400Y-91619400D03*
%TO.N,/MCLK05*%
X156102400Y-89079400D03*
%TO.N,/UART1_TX*%
X156102400Y-91619400D03*
%TO.N,GND*%
X153562400Y-89079400D03*
%TO.N,/UART1_RX*%
X153562400Y-91619400D03*
%TO.N,/UART1_RTS*%
X151022400Y-89079400D03*
%TO.N,/I2S2_CLK*%
X151022400Y-91619400D03*
%TO.N,/PWM01*%
X148482400Y-89079400D03*
%TO.N,GND*%
X148482400Y-91619400D03*
%TO.N,/GPIO27_PWM2*%
X145942400Y-89079400D03*
%TO.N,/GPIO8_AO_DMIC_IN_DAT*%
X145942400Y-91619400D03*
%TO.N,+3V3*%
X143402400Y-89079400D03*
%TO.N,/GPIO35_PWM3*%
X143402400Y-91619400D03*
%TO.N,/SPI1_MOSI*%
X140862400Y-89079400D03*
%TO.N,GND*%
X140862400Y-91619400D03*
%TO.N,/SPI1_MISO*%
X138322400Y-89079400D03*
%TO.N,/GPIO17_40HEADER*%
X138322400Y-91619400D03*
%TO.N,/SPI1_SCK*%
X135782400Y-89079400D03*
%TO.N,/SPI1_CS0*%
X135782400Y-91619400D03*
%TO.N,GND*%
X133242400Y-89079400D03*
%TO.N,/SPI1_CS1*%
X133242400Y-91619400D03*
%TO.N,/I2C_GP2_DAT*%
X130702400Y-89079400D03*
%TO.N,/I2C_GP2_CLK*%
X130702400Y-91619400D03*
%TO.N,/CAN0_DIN*%
X128162400Y-89079400D03*
%TO.N,GND*%
X128162400Y-91619400D03*
%TO.N,/CAN0_DOUT*%
X125622400Y-89079400D03*
%TO.N,/GPIO9_CAN1_GPIO0_DMIC_CLK*%
X125622400Y-91619400D03*
%TO.N,/CAN1_DOUT*%
X123082400Y-89079400D03*
%TO.N,GND*%
X123082400Y-91619400D03*
%TO.N,/I2S_FS*%
X120542400Y-89079400D03*
%TO.N,/UART1_CTS*%
X120542400Y-91619400D03*
%TO.N,/CAN1_DIN*%
X118002400Y-89079400D03*
%TO.N,/I2S_SDIN*%
X118002400Y-91619400D03*
%TO.N,GND*%
X115462400Y-89079400D03*
%TO.N,/I2S_SDOUT*%
X115462400Y-91619400D03*
%TD*%
D12*
%TO.N,+3V3*%
%TO.C,J6*%
X153142400Y-111619400D03*
D13*
%TO.N,GND*%
X153142400Y-114159400D03*
%TO.N,+5V*%
X150602400Y-111619400D03*
%TO.N,/PWM01*%
X150602400Y-114159400D03*
%TO.N,/GPIO35_PWM3*%
X148062400Y-111619400D03*
%TO.N,/GPIO27_PWM2*%
X148062400Y-114159400D03*
%TO.N,/GPIO9_CAN1_GPIO0_DMIC_CLK*%
X145522400Y-111619400D03*
%TO.N,/GPIO8_AO_DMIC_IN_DAT*%
X145522400Y-114159400D03*
%TO.N,/UART1_RTS*%
X142982400Y-111619400D03*
%TO.N,/UART1_TX*%
X142982400Y-114159400D03*
%TO.N,/UART1_CTS*%
X140442400Y-111619400D03*
%TO.N,/UART1_RX*%
X140442400Y-114159400D03*
%TO.N,/I2C_GP2_DAT*%
X137902400Y-111619400D03*
%TO.N,/I2C_GP2_CLK*%
X137902400Y-114159400D03*
%TO.N,/I2C_GP5_DAT*%
X135362400Y-111619400D03*
%TO.N,/I2C_GP5_CLK*%
X135362400Y-114159400D03*
%TO.N,/SPI1_SCK*%
X132822400Y-111619400D03*
%TO.N,/SPI1_MISO*%
X132822400Y-114159400D03*
%TO.N,/SPI1_CS1*%
X130282400Y-111619400D03*
%TO.N,/SPI1_MOSI*%
X130282400Y-114159400D03*
%TO.N,/SPI1_CS0*%
X127742400Y-111619400D03*
%TO.N,+5V*%
X127742400Y-114159400D03*
%TO.N,GND*%
X125202400Y-111619400D03*
%TO.N,+3V3*%
X125202400Y-114159400D03*
%TD*%
D14*
%TO.N,GND*%
%TO.C,U1*%
X117211800Y-99585000D03*
X117711800Y-98685000D03*
X117711800Y-100485000D03*
X118211800Y-99585000D03*
%TD*%
%TO.N,GND*%
%TO.C,U3*%
X141145400Y-104511200D03*
X141645400Y-103611200D03*
X141645400Y-105411200D03*
X142145400Y-104511200D03*
%TD*%
D15*
%TO.N,+5V*%
X124982400Y-108119400D03*
X150982400Y-109119400D03*
D16*
%TO.N,GND*%
X153393778Y-102290822D03*
X128120778Y-104830822D03*
D15*
X137772778Y-105846822D03*
D16*
X145482400Y-102119400D03*
X142903578Y-97312422D03*
X125201605Y-105061956D03*
D15*
X149982400Y-92876400D03*
D16*
X144376778Y-103052822D03*
X126469778Y-105211822D03*
X131676778Y-98607822D03*
X142595304Y-95322407D03*
X137982400Y-96119400D03*
X162482400Y-101119400D03*
X134470778Y-96702822D03*
X133962778Y-104957822D03*
X140566778Y-99369822D03*
X165482400Y-105619400D03*
D15*
X159642178Y-96525022D03*
D16*
X144122778Y-98607822D03*
X130914778Y-102417822D03*
X123802778Y-101782822D03*
D15*
X152250778Y-99573022D03*
D16*
X149482400Y-98619400D03*
X135232778Y-105135622D03*
D15*
X154282778Y-100436622D03*
D16*
X147805778Y-106862822D03*
X149026400Y-107415400D03*
X152377778Y-101020822D03*
X128628778Y-102036822D03*
X156314778Y-102417822D03*
X138993192Y-102975700D03*
X136629778Y-105110222D03*
D15*
X158067378Y-96601222D03*
D16*
X140982400Y-95619400D03*
X129644778Y-101020822D03*
X158482400Y-105119400D03*
X156982400Y-104619400D03*
D15*
X139482400Y-92526400D03*
X157385400Y-92876400D03*
D16*
X126723778Y-96448822D03*
D15*
X157965778Y-99877822D03*
D16*
X135838200Y-98485000D03*
X143919578Y-95585222D03*
X157711778Y-101655822D03*
X165850856Y-103339665D03*
X163982400Y-105619400D03*
X141836778Y-98988822D03*
X132565778Y-104449822D03*
X129771778Y-104195822D03*
X123929778Y-97718822D03*
X163843627Y-101138489D03*
X131168778Y-104195822D03*
X148482400Y-101782822D03*
D15*
X151982400Y-97119400D03*
D16*
X133962778Y-101782822D03*
X147482400Y-103619400D03*
X128374778Y-97083822D03*
X133024400Y-106653400D03*
D15*
X154282778Y-99014222D03*
D16*
X132946778Y-100512822D03*
X165482400Y-101119400D03*
X131168778Y-100512822D03*
D15*
X121982400Y-92876400D03*
D16*
X152482400Y-107119400D03*
X132438778Y-102290822D03*
D15*
X159642178Y-97896622D03*
D16*
X135994778Y-96245622D03*
X133327778Y-97718822D03*
D15*
X158118178Y-97947422D03*
D16*
X148694778Y-100004822D03*
X125072778Y-96702822D03*
D15*
X150599778Y-98226822D03*
D16*
X166334145Y-102113222D03*
X136613462Y-106677871D03*
X165982400Y-104619400D03*
X134343778Y-99877822D03*
X160540363Y-105242545D03*
X154917778Y-102392422D03*
X124691778Y-103306822D03*
X162482400Y-105619400D03*
D15*
X126982400Y-92876400D03*
D16*
X129898778Y-98480822D03*
D15*
X156238578Y-100487422D03*
D16*
X128501778Y-99544000D03*
X139423778Y-100258822D03*
X143030578Y-99319022D03*
D15*
X154895051Y-88276400D03*
X156187778Y-99039622D03*
X134482400Y-87876400D03*
D16*
X122431178Y-101224022D03*
X139239425Y-95513201D03*
D15*
X139482400Y-87876400D03*
D16*
X139577200Y-101528822D03*
X150853778Y-107370822D03*
D15*
X152758778Y-104449822D03*
%TO.N,/I2C_GP5_DAT*%
X144012349Y-109119400D03*
%TO.N,/I2C_GP5_CLK*%
X145012352Y-109319400D03*
%TO.N,/UART1_TX*%
X165482400Y-98119400D03*
%TO.N,/UART1_RX*%
X165482400Y-97119400D03*
X157982400Y-94119400D03*
%TO.N,/GPIO8_AO_DMIC_IN_DAT*%
X165482400Y-99119400D03*
%TO.N,/GPIO35_PWM3*%
X139482400Y-110219400D03*
X146982400Y-99119400D03*
X149315674Y-96452673D03*
X146482400Y-109819400D03*
%TO.N,/SPI1_MOSI*%
X117040550Y-104561250D03*
%TO.N,/SPI1_MISO*%
X119023990Y-104625994D03*
%TO.N,/SPI1_SCK*%
X120482400Y-104619400D03*
%TO.N,/SPI1_CS0*%
X111981789Y-96620011D03*
X131962425Y-93599425D03*
X116333441Y-105268359D03*
%TO.N,/SPI1_CS1*%
X118036325Y-104469400D03*
X112971739Y-95630061D03*
%TO.N,/CAN0_DIN*%
X116482400Y-97119400D03*
%TO.N,/CAN0_DOUT*%
X115982400Y-101619400D03*
%TO.N,/CAN1_DOUT*%
X140482400Y-106619400D03*
%TO.N,/CAN1_DIN*%
X139982400Y-102619400D03*
%TO.N,/CAN BUS 0/CH0+*%
X142841800Y-98314000D03*
%TO.N,/CAN BUS 0/CH0-*%
X142943400Y-96205800D03*
%TO.N,/CAN BUS 1/CH1+*%
X164784056Y-104304865D03*
%TO.N,/CAN BUS 1/CH1-*%
X164809456Y-102455365D03*
%TD*%
D17*
%TO.N,GND*%
X148482400Y-91619400D02*
X148725400Y-91619400D01*
X139662400Y-88056400D02*
X139482400Y-87876400D01*
X128162400Y-91696400D02*
X126982400Y-92876400D01*
X140862400Y-91619400D02*
X140389400Y-91619400D01*
X123082400Y-91619400D02*
X121882400Y-90419400D01*
X133242400Y-89079400D02*
X131902400Y-90419400D01*
X123082400Y-91619400D02*
X123082400Y-91776400D01*
X128162400Y-91619400D02*
X128162400Y-91696400D01*
X157385400Y-92876400D02*
X158642400Y-91619400D01*
X116802400Y-90419400D02*
X115462400Y-89079400D01*
X142062400Y-90419400D02*
X140862400Y-91619400D01*
X124282400Y-90419400D02*
X123082400Y-91619400D01*
X153562400Y-89079400D02*
X152222400Y-90419400D01*
X140389400Y-91619400D02*
X139482400Y-92526400D01*
X139662400Y-90419400D02*
X134582400Y-90419400D01*
X134582400Y-90419400D02*
X133242400Y-89079400D01*
X140862400Y-91619400D02*
X139662400Y-90419400D01*
X154895051Y-88276400D02*
X154365400Y-88276400D01*
X139662400Y-90419400D02*
X139662400Y-88056400D01*
X148482400Y-91619400D02*
X147282400Y-90419400D01*
X148482400Y-91619400D02*
X149682400Y-90419400D01*
X149682400Y-90419400D02*
X152222400Y-90419400D01*
X147282400Y-90419400D02*
X142062400Y-90419400D01*
X128162400Y-91619400D02*
X126962400Y-90419400D01*
X148725400Y-91619400D02*
X149982400Y-92876400D01*
X134482400Y-87876400D02*
X134445400Y-87876400D01*
X131902400Y-90419400D02*
X129362400Y-90419400D01*
X126962400Y-90419400D02*
X124282400Y-90419400D01*
X129362400Y-90419400D02*
X128162400Y-91619400D01*
X154365400Y-88276400D02*
X153562400Y-89079400D01*
X134445400Y-87876400D02*
X133242400Y-89079400D01*
X123082400Y-91776400D02*
X121982400Y-92876400D01*
X121882400Y-90419400D02*
X116802400Y-90419400D01*
%TD*%
%TA.AperFunction,Conductor*%
%TO.N,GND*%
G36*
X121897255Y-89745946D02*
G01*
X121913975Y-89765242D01*
X122043901Y-89950796D01*
X122043906Y-89950802D01*
X122210997Y-90117893D01*
X122211003Y-90117898D01*
X122396994Y-90248130D01*
X122440619Y-90302707D01*
X122447813Y-90372205D01*
X122416290Y-90434560D01*
X122396995Y-90451280D01*
X122211322Y-90581290D01*
X122211320Y-90581291D01*
X122044291Y-90748320D01*
X122044290Y-90748322D01*
X121914280Y-90933995D01*
X121859703Y-90977619D01*
X121790204Y-90984812D01*
X121727850Y-90953290D01*
X121711130Y-90933994D01*
X121580894Y-90747997D01*
X121413802Y-90580906D01*
X121413796Y-90580901D01*
X121228242Y-90450975D01*
X121184617Y-90396398D01*
X121177423Y-90326900D01*
X121208946Y-90264545D01*
X121228242Y-90247825D01*
X121250426Y-90232291D01*
X121413801Y-90117895D01*
X121580895Y-89950801D01*
X121710825Y-89765242D01*
X121765402Y-89721617D01*
X121834900Y-89714423D01*
X121897255Y-89745946D01*
G37*
%TD.AperFunction*%
%TA.AperFunction,Conductor*%
G36*
X124437255Y-89745946D02*
G01*
X124453975Y-89765242D01*
X124583901Y-89950796D01*
X124583906Y-89950802D01*
X124750997Y-90117893D01*
X124751003Y-90117898D01*
X124936558Y-90247825D01*
X124980183Y-90302402D01*
X124987377Y-90371900D01*
X124955854Y-90434255D01*
X124936558Y-90450975D01*
X124750997Y-90580905D01*
X124583908Y-90747994D01*
X124453669Y-90933995D01*
X124399092Y-90977619D01*
X124329593Y-90984812D01*
X124267239Y-90953290D01*
X124250519Y-90933994D01*
X124120513Y-90748326D01*
X124120508Y-90748320D01*
X123953478Y-90581290D01*
X123767805Y-90451279D01*
X123724180Y-90396702D01*
X123716988Y-90327204D01*
X123748510Y-90264849D01*
X123767806Y-90248130D01*
X123768679Y-90247519D01*
X123953801Y-90117895D01*
X124120895Y-89950801D01*
X124250825Y-89765242D01*
X124305402Y-89721617D01*
X124374900Y-89714423D01*
X124437255Y-89745946D01*
G37*
%TD.AperFunction*%
%TA.AperFunction,Conductor*%
G36*
X126977255Y-89745946D02*
G01*
X126993975Y-89765242D01*
X127123901Y-89950796D01*
X127123906Y-89950802D01*
X127290997Y-90117893D01*
X127291003Y-90117898D01*
X127476994Y-90248130D01*
X127520619Y-90302707D01*
X127527813Y-90372205D01*
X127496290Y-90434560D01*
X127476995Y-90451280D01*
X127291322Y-90581290D01*
X127291320Y-90581291D01*
X127124291Y-90748320D01*
X127124290Y-90748322D01*
X126994280Y-90933995D01*
X126939703Y-90977619D01*
X126870204Y-90984812D01*
X126807850Y-90953290D01*
X126791130Y-90933994D01*
X126660894Y-90747997D01*
X126493802Y-90580906D01*
X126493796Y-90580901D01*
X126308242Y-90450975D01*
X126264617Y-90396398D01*
X126257423Y-90326900D01*
X126288946Y-90264545D01*
X126308242Y-90247825D01*
X126330426Y-90232291D01*
X126493801Y-90117895D01*
X126660895Y-89950801D01*
X126790825Y-89765242D01*
X126845402Y-89721617D01*
X126914900Y-89714423D01*
X126977255Y-89745946D01*
G37*
%TD.AperFunction*%
%TA.AperFunction,Conductor*%
G36*
X129517255Y-89745946D02*
G01*
X129533975Y-89765242D01*
X129663901Y-89950796D01*
X129663906Y-89950802D01*
X129830997Y-90117893D01*
X129831003Y-90117898D01*
X130016558Y-90247825D01*
X130060183Y-90302402D01*
X130067377Y-90371900D01*
X130035854Y-90434255D01*
X130016558Y-90450975D01*
X129830997Y-90580905D01*
X129663908Y-90747994D01*
X129533669Y-90933995D01*
X129479092Y-90977619D01*
X129409593Y-90984812D01*
X129347239Y-90953290D01*
X129330519Y-90933994D01*
X129200513Y-90748326D01*
X129200508Y-90748320D01*
X129033478Y-90581290D01*
X128847805Y-90451279D01*
X128804180Y-90396702D01*
X128796988Y-90327204D01*
X128828510Y-90264849D01*
X128847806Y-90248130D01*
X128848679Y-90247519D01*
X129033801Y-90117895D01*
X129200895Y-89950801D01*
X129330825Y-89765242D01*
X129385402Y-89721617D01*
X129454900Y-89714423D01*
X129517255Y-89745946D01*
G37*
%TD.AperFunction*%
%TA.AperFunction,Conductor*%
G36*
X139677255Y-89745946D02*
G01*
X139693975Y-89765242D01*
X139823901Y-89950796D01*
X139823906Y-89950802D01*
X139990997Y-90117893D01*
X139991003Y-90117898D01*
X140176994Y-90248130D01*
X140220619Y-90302707D01*
X140227813Y-90372205D01*
X140196290Y-90434560D01*
X140176995Y-90451280D01*
X139991322Y-90581290D01*
X139991320Y-90581291D01*
X139824291Y-90748320D01*
X139824290Y-90748322D01*
X139694280Y-90933995D01*
X139639703Y-90977619D01*
X139570204Y-90984812D01*
X139507850Y-90953290D01*
X139491130Y-90933994D01*
X139360894Y-90747997D01*
X139193802Y-90580906D01*
X139193796Y-90580901D01*
X139008242Y-90450975D01*
X138964617Y-90396398D01*
X138957423Y-90326900D01*
X138988946Y-90264545D01*
X139008242Y-90247825D01*
X139030426Y-90232291D01*
X139193801Y-90117895D01*
X139360895Y-89950801D01*
X139490825Y-89765242D01*
X139545402Y-89721617D01*
X139614900Y-89714423D01*
X139677255Y-89745946D01*
G37*
%TD.AperFunction*%
%TA.AperFunction,Conductor*%
G36*
X142217255Y-89745946D02*
G01*
X142233975Y-89765242D01*
X142363901Y-89950796D01*
X142363906Y-89950802D01*
X142530997Y-90117893D01*
X142531003Y-90117898D01*
X142716558Y-90247825D01*
X142760183Y-90302402D01*
X142767377Y-90371900D01*
X142735854Y-90434255D01*
X142716558Y-90450975D01*
X142530997Y-90580905D01*
X142363908Y-90747994D01*
X142233669Y-90933995D01*
X142179092Y-90977619D01*
X142109593Y-90984812D01*
X142047239Y-90953290D01*
X142030519Y-90933994D01*
X141900513Y-90748326D01*
X141900508Y-90748320D01*
X141733478Y-90581290D01*
X141547805Y-90451279D01*
X141504180Y-90396702D01*
X141496988Y-90327204D01*
X141528510Y-90264849D01*
X141547806Y-90248130D01*
X141548679Y-90247519D01*
X141733801Y-90117895D01*
X141900895Y-89950801D01*
X142030825Y-89765242D01*
X142085402Y-89721617D01*
X142154900Y-89714423D01*
X142217255Y-89745946D01*
G37*
%TD.AperFunction*%
%TA.AperFunction,Conductor*%
G36*
X147297255Y-89745946D02*
G01*
X147313975Y-89765242D01*
X147443901Y-89950796D01*
X147443906Y-89950802D01*
X147610997Y-90117893D01*
X147611003Y-90117898D01*
X147796994Y-90248130D01*
X147840619Y-90302707D01*
X147847813Y-90372205D01*
X147816290Y-90434560D01*
X147796995Y-90451280D01*
X147611322Y-90581290D01*
X147611320Y-90581291D01*
X147444291Y-90748320D01*
X147444290Y-90748322D01*
X147314280Y-90933995D01*
X147259703Y-90977619D01*
X147190204Y-90984812D01*
X147127850Y-90953290D01*
X147111130Y-90933994D01*
X146980894Y-90747997D01*
X146813802Y-90580906D01*
X146813796Y-90580901D01*
X146628242Y-90450975D01*
X146584617Y-90396398D01*
X146577423Y-90326900D01*
X146608946Y-90264545D01*
X146628242Y-90247825D01*
X146650426Y-90232291D01*
X146813801Y-90117895D01*
X146980895Y-89950801D01*
X147110825Y-89765242D01*
X147165402Y-89721617D01*
X147234900Y-89714423D01*
X147297255Y-89745946D01*
G37*
%TD.AperFunction*%
%TA.AperFunction,Conductor*%
G36*
X149837255Y-89745946D02*
G01*
X149853975Y-89765242D01*
X149983901Y-89950796D01*
X149983906Y-89950802D01*
X150150997Y-90117893D01*
X150151003Y-90117898D01*
X150336558Y-90247825D01*
X150380183Y-90302402D01*
X150387377Y-90371900D01*
X150355854Y-90434255D01*
X150336558Y-90450975D01*
X150150997Y-90580905D01*
X149983908Y-90747994D01*
X149853669Y-90933995D01*
X149799092Y-90977619D01*
X149729593Y-90984812D01*
X149667239Y-90953290D01*
X149650519Y-90933994D01*
X149520513Y-90748326D01*
X149520508Y-90748320D01*
X149353478Y-90581290D01*
X149167805Y-90451279D01*
X149124180Y-90396702D01*
X149116988Y-90327204D01*
X149148510Y-90264849D01*
X149167806Y-90248130D01*
X149168679Y-90247519D01*
X149353801Y-90117895D01*
X149520895Y-89950801D01*
X149650825Y-89765242D01*
X149705402Y-89721617D01*
X149774900Y-89714423D01*
X149837255Y-89745946D01*
G37*
%TD.AperFunction*%
%TA.AperFunction,Conductor*%
G36*
X116816949Y-89745510D02*
G01*
X116833669Y-89764805D01*
X116963905Y-89950801D01*
X116963906Y-89950802D01*
X117130997Y-90117893D01*
X117131003Y-90117898D01*
X117316558Y-90247825D01*
X117360183Y-90302402D01*
X117367377Y-90371900D01*
X117335854Y-90434255D01*
X117316558Y-90450975D01*
X117130997Y-90580905D01*
X116963905Y-90747997D01*
X116833975Y-90933558D01*
X116779398Y-90977183D01*
X116709900Y-90984377D01*
X116647545Y-90952854D01*
X116630825Y-90933558D01*
X116500894Y-90747997D01*
X116333802Y-90580906D01*
X116333801Y-90580905D01*
X116166244Y-90463580D01*
X116147805Y-90450669D01*
X116104181Y-90396092D01*
X116096988Y-90326593D01*
X116128510Y-90264239D01*
X116147805Y-90247519D01*
X116333482Y-90117505D01*
X116500505Y-89950482D01*
X116630519Y-89764805D01*
X116685096Y-89721181D01*
X116754595Y-89713988D01*
X116816949Y-89745510D01*
G37*
%TD.AperFunction*%
%TA.AperFunction,Conductor*%
G36*
X119357255Y-89745946D02*
G01*
X119373975Y-89765242D01*
X119503901Y-89950796D01*
X119503906Y-89950802D01*
X119670997Y-90117893D01*
X119671003Y-90117898D01*
X119856558Y-90247825D01*
X119900183Y-90302402D01*
X119907377Y-90371900D01*
X119875854Y-90434255D01*
X119856558Y-90450975D01*
X119670997Y-90580905D01*
X119503905Y-90747997D01*
X119373975Y-90933558D01*
X119319398Y-90977183D01*
X119249900Y-90984377D01*
X119187545Y-90952854D01*
X119170825Y-90933558D01*
X119040894Y-90747997D01*
X118873802Y-90580906D01*
X118873796Y-90580901D01*
X118688242Y-90450975D01*
X118644617Y-90396398D01*
X118637423Y-90326900D01*
X118668946Y-90264545D01*
X118688242Y-90247825D01*
X118710426Y-90232291D01*
X118873801Y-90117895D01*
X119040895Y-89950801D01*
X119170825Y-89765242D01*
X119225402Y-89721617D01*
X119294900Y-89714423D01*
X119357255Y-89745946D01*
G37*
%TD.AperFunction*%
%TA.AperFunction,Conductor*%
G36*
X132057560Y-89745510D02*
G01*
X132074279Y-89764805D01*
X132204290Y-89950478D01*
X132371317Y-90117505D01*
X132556995Y-90247519D01*
X132600619Y-90302096D01*
X132607812Y-90371595D01*
X132576290Y-90433949D01*
X132556995Y-90450669D01*
X132370994Y-90580908D01*
X132203905Y-90747997D01*
X132073975Y-90933558D01*
X132019398Y-90977183D01*
X131949900Y-90984377D01*
X131887545Y-90952854D01*
X131870825Y-90933558D01*
X131740894Y-90747997D01*
X131573802Y-90580906D01*
X131573796Y-90580901D01*
X131388242Y-90450975D01*
X131344617Y-90396398D01*
X131337423Y-90326900D01*
X131368946Y-90264545D01*
X131388242Y-90247825D01*
X131410426Y-90232291D01*
X131573801Y-90117895D01*
X131740895Y-89950801D01*
X131871130Y-89764805D01*
X131925707Y-89721181D01*
X131995205Y-89713987D01*
X132057560Y-89745510D01*
G37*
%TD.AperFunction*%
%TA.AperFunction,Conductor*%
G36*
X134596949Y-89745510D02*
G01*
X134613669Y-89764805D01*
X134743905Y-89950801D01*
X134743906Y-89950802D01*
X134910997Y-90117893D01*
X134911003Y-90117898D01*
X135096558Y-90247825D01*
X135140183Y-90302402D01*
X135147377Y-90371900D01*
X135115854Y-90434255D01*
X135096558Y-90450975D01*
X134910997Y-90580905D01*
X134743905Y-90747997D01*
X134613975Y-90933558D01*
X134559398Y-90977183D01*
X134489900Y-90984377D01*
X134427545Y-90952854D01*
X134410825Y-90933558D01*
X134280894Y-90747997D01*
X134113802Y-90580906D01*
X134113801Y-90580905D01*
X133946244Y-90463580D01*
X133927805Y-90450669D01*
X133884181Y-90396092D01*
X133876988Y-90326593D01*
X133908510Y-90264239D01*
X133927805Y-90247519D01*
X134113482Y-90117505D01*
X134280505Y-89950482D01*
X134410519Y-89764805D01*
X134465096Y-89721181D01*
X134534595Y-89713988D01*
X134596949Y-89745510D01*
G37*
%TD.AperFunction*%
%TA.AperFunction,Conductor*%
G36*
X137137255Y-89745946D02*
G01*
X137153975Y-89765242D01*
X137283901Y-89950796D01*
X137283906Y-89950802D01*
X137450997Y-90117893D01*
X137451003Y-90117898D01*
X137636558Y-90247825D01*
X137680183Y-90302402D01*
X137687377Y-90371900D01*
X137655854Y-90434255D01*
X137636558Y-90450975D01*
X137450997Y-90580905D01*
X137283905Y-90747997D01*
X137153975Y-90933558D01*
X137099398Y-90977183D01*
X137029900Y-90984377D01*
X136967545Y-90952854D01*
X136950825Y-90933558D01*
X136820894Y-90747997D01*
X136653802Y-90580906D01*
X136653796Y-90580901D01*
X136468242Y-90450975D01*
X136424617Y-90396398D01*
X136417423Y-90326900D01*
X136448946Y-90264545D01*
X136468242Y-90247825D01*
X136490426Y-90232291D01*
X136653801Y-90117895D01*
X136820895Y-89950801D01*
X136950825Y-89765242D01*
X137005402Y-89721617D01*
X137074900Y-89714423D01*
X137137255Y-89745946D01*
G37*
%TD.AperFunction*%
%TA.AperFunction,Conductor*%
G36*
X144757255Y-89745946D02*
G01*
X144773975Y-89765242D01*
X144903901Y-89950796D01*
X144903906Y-89950802D01*
X145070997Y-90117893D01*
X145071003Y-90117898D01*
X145256558Y-90247825D01*
X145300183Y-90302402D01*
X145307377Y-90371900D01*
X145275854Y-90434255D01*
X145256558Y-90450975D01*
X145070997Y-90580905D01*
X144903905Y-90747997D01*
X144773975Y-90933558D01*
X144719398Y-90977183D01*
X144649900Y-90984377D01*
X144587545Y-90952854D01*
X144570825Y-90933558D01*
X144440894Y-90747997D01*
X144273802Y-90580906D01*
X144273796Y-90580901D01*
X144088242Y-90450975D01*
X144044617Y-90396398D01*
X144037423Y-90326900D01*
X144068946Y-90264545D01*
X144088242Y-90247825D01*
X144110426Y-90232291D01*
X144273801Y-90117895D01*
X144440895Y-89950801D01*
X144570825Y-89765242D01*
X144625402Y-89721617D01*
X144694900Y-89714423D01*
X144757255Y-89745946D01*
G37*
%TD.AperFunction*%
%TA.AperFunction,Conductor*%
G36*
X152377560Y-89745510D02*
G01*
X152394279Y-89764805D01*
X152524290Y-89950478D01*
X152691317Y-90117505D01*
X152876995Y-90247519D01*
X152920619Y-90302096D01*
X152927812Y-90371595D01*
X152896290Y-90433949D01*
X152876995Y-90450669D01*
X152690994Y-90580908D01*
X152523905Y-90747997D01*
X152393975Y-90933558D01*
X152339398Y-90977183D01*
X152269900Y-90984377D01*
X152207545Y-90952854D01*
X152190825Y-90933558D01*
X152060894Y-90747997D01*
X151893802Y-90580906D01*
X151893796Y-90580901D01*
X151708242Y-90450975D01*
X151664617Y-90396398D01*
X151657423Y-90326900D01*
X151688946Y-90264545D01*
X151708242Y-90247825D01*
X151730426Y-90232291D01*
X151893801Y-90117895D01*
X152060895Y-89950801D01*
X152191130Y-89764805D01*
X152245707Y-89721181D01*
X152315205Y-89713987D01*
X152377560Y-89745510D01*
G37*
%TD.AperFunction*%
%TA.AperFunction,Conductor*%
G36*
X166483133Y-85119408D02*
G01*
X166673477Y-85121743D01*
X166684081Y-85122330D01*
X167063624Y-85159712D01*
X167075649Y-85161496D01*
X167448927Y-85235745D01*
X167460729Y-85238701D01*
X167824944Y-85349185D01*
X167836402Y-85353285D01*
X168188027Y-85498932D01*
X168199026Y-85504134D01*
X168534682Y-85683547D01*
X168545113Y-85689799D01*
X168861569Y-85901249D01*
X168871342Y-85908497D01*
X169151577Y-86138479D01*
X169165548Y-86149944D01*
X169174565Y-86158117D01*
X169443682Y-86427234D01*
X169451855Y-86436251D01*
X169693302Y-86730457D01*
X169700550Y-86740230D01*
X169912000Y-87056686D01*
X169918256Y-87067124D01*
X170097664Y-87402772D01*
X170102867Y-87413772D01*
X170248514Y-87765397D01*
X170252614Y-87776855D01*
X170363098Y-88141070D01*
X170366054Y-88152874D01*
X170440302Y-88526144D01*
X170442088Y-88538181D01*
X170479468Y-88917704D01*
X170480056Y-88928337D01*
X170482391Y-89118666D01*
X170482400Y-89120187D01*
X170482400Y-112118660D01*
X170482392Y-112120092D01*
X170480056Y-112322326D01*
X170479535Y-112332335D01*
X170442156Y-112735723D01*
X170440574Y-112747067D01*
X170366262Y-113144600D01*
X170363639Y-113155749D01*
X170252973Y-113544702D01*
X170249334Y-113555562D01*
X170103238Y-113932678D01*
X170098611Y-113943155D01*
X169918360Y-114305150D01*
X169912787Y-114315157D01*
X169699888Y-114658999D01*
X169693415Y-114668448D01*
X169449704Y-114991174D01*
X169442387Y-114999985D01*
X169169942Y-115298843D01*
X169161843Y-115306942D01*
X168862985Y-115579387D01*
X168854174Y-115586704D01*
X168531448Y-115830415D01*
X168521999Y-115836888D01*
X168178157Y-116049787D01*
X168168150Y-116055360D01*
X167806155Y-116235611D01*
X167795678Y-116240238D01*
X167418562Y-116386334D01*
X167407702Y-116389973D01*
X167018749Y-116500639D01*
X167007600Y-116503262D01*
X166610067Y-116577574D01*
X166598723Y-116579156D01*
X166195335Y-116616535D01*
X166185326Y-116617056D01*
X165983093Y-116619392D01*
X165981661Y-116619400D01*
X112983139Y-116619400D01*
X112981707Y-116619392D01*
X112779473Y-116617056D01*
X112769464Y-116616535D01*
X112366076Y-116579156D01*
X112354732Y-116577574D01*
X111957199Y-116503262D01*
X111946050Y-116500639D01*
X111557097Y-116389973D01*
X111546237Y-116386334D01*
X111169121Y-116240238D01*
X111158644Y-116235611D01*
X110796649Y-116055360D01*
X110786642Y-116049787D01*
X110442800Y-115836888D01*
X110433351Y-115830415D01*
X110110625Y-115586704D01*
X110101814Y-115579387D01*
X110008655Y-115494461D01*
X109802951Y-115306937D01*
X109794857Y-115298843D01*
X109702833Y-115197898D01*
X109522408Y-114999980D01*
X109515095Y-114991174D01*
X109271384Y-114668448D01*
X109264911Y-114658999D01*
X109101327Y-114394803D01*
X109052007Y-114315148D01*
X109046444Y-114305160D01*
X108866184Y-113943147D01*
X108861561Y-113932678D01*
X108858194Y-113923986D01*
X108715461Y-113555551D01*
X108711829Y-113544713D01*
X108601160Y-113155749D01*
X108598537Y-113144600D01*
X108572305Y-113004273D01*
X108524223Y-112747054D01*
X108522644Y-112735736D01*
X108485263Y-112332331D01*
X108484743Y-112322326D01*
X108482408Y-112120092D01*
X108482400Y-112118660D01*
X108482400Y-111119399D01*
X111776822Y-111119399D01*
X111776822Y-111119400D01*
X111797122Y-111506739D01*
X111834922Y-111745400D01*
X111857798Y-111889833D01*
X111958072Y-112264063D01*
X111958188Y-112264494D01*
X112097187Y-112626597D01*
X112273277Y-112972193D01*
X112484522Y-113297482D01*
X112684404Y-113544315D01*
X112728619Y-113598916D01*
X113002884Y-113873181D01*
X113170775Y-114009137D01*
X113304317Y-114117277D01*
X113593632Y-114305160D01*
X113629611Y-114328525D01*
X113975206Y-114504614D01*
X114337313Y-114643614D01*
X114711967Y-114744002D01*
X115095062Y-114804678D01*
X115460976Y-114823855D01*
X115482399Y-114824978D01*
X115482400Y-114824978D01*
X115482401Y-114824978D01*
X115502701Y-114823914D01*
X115869738Y-114804678D01*
X116252833Y-114744002D01*
X116627487Y-114643614D01*
X116989594Y-114504614D01*
X117335189Y-114328525D01*
X117595620Y-114159399D01*
X123846741Y-114159399D01*
X123846741Y-114159400D01*
X123867336Y-114394803D01*
X123867338Y-114394813D01*
X123928494Y-114623055D01*
X123928496Y-114623059D01*
X123928497Y-114623063D01*
X124008404Y-114794423D01*
X124028365Y-114837230D01*
X124028367Y-114837234D01*
X124136158Y-114991174D01*
X124163905Y-115030801D01*
X124330999Y-115197895D01*
X124427784Y-115265665D01*
X124524565Y-115333432D01*
X124524567Y-115333433D01*
X124524570Y-115333435D01*
X124738737Y-115433303D01*
X124966992Y-115494463D01*
X125155318Y-115510939D01*
X125202399Y-115515059D01*
X125202400Y-115515059D01*
X125202401Y-115515059D01*
X125241634Y-115511626D01*
X125437808Y-115494463D01*
X125666063Y-115433303D01*
X125880230Y-115333435D01*
X126073801Y-115197895D01*
X126240895Y-115030801D01*
X126370825Y-114845242D01*
X126425402Y-114801617D01*
X126494900Y-114794423D01*
X126557255Y-114825946D01*
X126573975Y-114845242D01*
X126703900Y-115030795D01*
X126703905Y-115030801D01*
X126870999Y-115197895D01*
X126967784Y-115265665D01*
X127064565Y-115333432D01*
X127064567Y-115333433D01*
X127064570Y-115333435D01*
X127278737Y-115433303D01*
X127506992Y-115494463D01*
X127695318Y-115510939D01*
X127742399Y-115515059D01*
X127742400Y-115515059D01*
X127742401Y-115515059D01*
X127781634Y-115511626D01*
X127977808Y-115494463D01*
X128206063Y-115433303D01*
X128420230Y-115333435D01*
X128613801Y-115197895D01*
X128780895Y-115030801D01*
X128910825Y-114845242D01*
X128965402Y-114801617D01*
X129034900Y-114794423D01*
X129097255Y-114825946D01*
X129113975Y-114845242D01*
X129243900Y-115030795D01*
X129243905Y-115030801D01*
X129410999Y-115197895D01*
X129507784Y-115265665D01*
X129604565Y-115333432D01*
X129604567Y-115333433D01*
X129604570Y-115333435D01*
X129818737Y-115433303D01*
X130046992Y-115494463D01*
X130235318Y-115510939D01*
X130282399Y-115515059D01*
X130282400Y-115515059D01*
X130282401Y-115515059D01*
X130321634Y-115511626D01*
X130517808Y-115494463D01*
X130746063Y-115433303D01*
X130960230Y-115333435D01*
X131153801Y-115197895D01*
X131320895Y-115030801D01*
X131450825Y-114845242D01*
X131505402Y-114801617D01*
X131574900Y-114794423D01*
X131637255Y-114825946D01*
X131653975Y-114845242D01*
X131783900Y-115030795D01*
X131783905Y-115030801D01*
X131950999Y-115197895D01*
X132047784Y-115265665D01*
X132144565Y-115333432D01*
X132144567Y-115333433D01*
X132144570Y-115333435D01*
X132358737Y-115433303D01*
X132586992Y-115494463D01*
X132775318Y-115510939D01*
X132822399Y-115515059D01*
X132822400Y-115515059D01*
X132822401Y-115515059D01*
X132861634Y-115511626D01*
X133057808Y-115494463D01*
X133286063Y-115433303D01*
X133500230Y-115333435D01*
X133693801Y-115197895D01*
X133860895Y-115030801D01*
X133990825Y-114845242D01*
X134045402Y-114801617D01*
X134114900Y-114794423D01*
X134177255Y-114825946D01*
X134193975Y-114845242D01*
X134323900Y-115030795D01*
X134323905Y-115030801D01*
X134490999Y-115197895D01*
X134587784Y-115265665D01*
X134684565Y-115333432D01*
X134684567Y-115333433D01*
X134684570Y-115333435D01*
X134898737Y-115433303D01*
X135126992Y-115494463D01*
X135315318Y-115510939D01*
X135362399Y-115515059D01*
X135362400Y-115515059D01*
X135362401Y-115515059D01*
X135401634Y-115511626D01*
X135597808Y-115494463D01*
X135826063Y-115433303D01*
X136040230Y-115333435D01*
X136233801Y-115197895D01*
X136400895Y-115030801D01*
X136530825Y-114845242D01*
X136585402Y-114801617D01*
X136654900Y-114794423D01*
X136717255Y-114825946D01*
X136733975Y-114845242D01*
X136863900Y-115030795D01*
X136863905Y-115030801D01*
X137030999Y-115197895D01*
X137127784Y-115265665D01*
X137224565Y-115333432D01*
X137224567Y-115333433D01*
X137224570Y-115333435D01*
X137438737Y-115433303D01*
X137666992Y-115494463D01*
X137855318Y-115510939D01*
X137902399Y-115515059D01*
X137902400Y-115515059D01*
X137902401Y-115515059D01*
X137941634Y-115511626D01*
X138137808Y-115494463D01*
X138366063Y-115433303D01*
X138580230Y-115333435D01*
X138773801Y-115197895D01*
X138940895Y-115030801D01*
X139070825Y-114845242D01*
X139125402Y-114801617D01*
X139194900Y-114794423D01*
X139257255Y-114825946D01*
X139273975Y-114845242D01*
X139403900Y-115030795D01*
X139403905Y-115030801D01*
X139570999Y-115197895D01*
X139667784Y-115265665D01*
X139764565Y-115333432D01*
X139764567Y-115333433D01*
X139764570Y-115333435D01*
X139978737Y-115433303D01*
X140206992Y-115494463D01*
X140395318Y-115510939D01*
X140442399Y-115515059D01*
X140442400Y-115515059D01*
X140442401Y-115515059D01*
X140481634Y-115511626D01*
X140677808Y-115494463D01*
X140906063Y-115433303D01*
X141120230Y-115333435D01*
X141313801Y-115197895D01*
X141480895Y-115030801D01*
X141610825Y-114845242D01*
X141665402Y-114801617D01*
X141734900Y-114794423D01*
X141797255Y-114825946D01*
X141813975Y-114845242D01*
X141943900Y-115030795D01*
X141943905Y-115030801D01*
X142110999Y-115197895D01*
X142207784Y-115265665D01*
X142304565Y-115333432D01*
X142304567Y-115333433D01*
X142304570Y-115333435D01*
X142518737Y-115433303D01*
X142746992Y-115494463D01*
X142935318Y-115510939D01*
X142982399Y-115515059D01*
X142982400Y-115515059D01*
X142982401Y-115515059D01*
X143021634Y-115511626D01*
X143217808Y-115494463D01*
X143446063Y-115433303D01*
X143660230Y-115333435D01*
X143853801Y-115197895D01*
X144020895Y-115030801D01*
X144150825Y-114845242D01*
X144205402Y-114801617D01*
X144274900Y-114794423D01*
X144337255Y-114825946D01*
X144353975Y-114845242D01*
X144483900Y-115030795D01*
X144483905Y-115030801D01*
X144650999Y-115197895D01*
X144747784Y-115265665D01*
X144844565Y-115333432D01*
X144844567Y-115333433D01*
X144844570Y-115333435D01*
X145058737Y-115433303D01*
X145286992Y-115494463D01*
X145475318Y-115510939D01*
X145522399Y-115515059D01*
X145522400Y-115515059D01*
X145522401Y-115515059D01*
X145561634Y-115511626D01*
X145757808Y-115494463D01*
X145986063Y-115433303D01*
X146200230Y-115333435D01*
X146393801Y-115197895D01*
X146560895Y-115030801D01*
X146690825Y-114845242D01*
X146745402Y-114801617D01*
X146814900Y-114794423D01*
X146877255Y-114825946D01*
X146893975Y-114845242D01*
X147023900Y-115030795D01*
X147023905Y-115030801D01*
X147190999Y-115197895D01*
X147287784Y-115265665D01*
X147384565Y-115333432D01*
X147384567Y-115333433D01*
X147384570Y-115333435D01*
X147598737Y-115433303D01*
X147826992Y-115494463D01*
X148015318Y-115510939D01*
X148062399Y-115515059D01*
X148062400Y-115515059D01*
X148062401Y-115515059D01*
X148101634Y-115511626D01*
X148297808Y-115494463D01*
X148526063Y-115433303D01*
X148740230Y-115333435D01*
X148933801Y-115197895D01*
X149100895Y-115030801D01*
X149230825Y-114845242D01*
X149285402Y-114801617D01*
X149354900Y-114794423D01*
X149417255Y-114825946D01*
X149433975Y-114845242D01*
X149563900Y-115030795D01*
X149563905Y-115030801D01*
X149730999Y-115197895D01*
X149827784Y-115265665D01*
X149924565Y-115333432D01*
X149924567Y-115333433D01*
X149924570Y-115333435D01*
X150138737Y-115433303D01*
X150366992Y-115494463D01*
X150555318Y-115510939D01*
X150602399Y-115515059D01*
X150602400Y-115515059D01*
X150602401Y-115515059D01*
X150641634Y-115511626D01*
X150837808Y-115494463D01*
X151066063Y-115433303D01*
X151280230Y-115333435D01*
X151473801Y-115197895D01*
X151640895Y-115030801D01*
X151771130Y-114844805D01*
X151825707Y-114801181D01*
X151895205Y-114793987D01*
X151957560Y-114825510D01*
X151974279Y-114844805D01*
X152104290Y-115030478D01*
X152271317Y-115197505D01*
X152464821Y-115333000D01*
X152678907Y-115432829D01*
X152678916Y-115432833D01*
X152892400Y-115490034D01*
X152892400Y-114592412D01*
X152949407Y-114625325D01*
X153076574Y-114659400D01*
X153208226Y-114659400D01*
X153335393Y-114625325D01*
X153392400Y-114592412D01*
X153392400Y-115490033D01*
X153605883Y-115432833D01*
X153605892Y-115432829D01*
X153819978Y-115333000D01*
X154013482Y-115197505D01*
X154180505Y-115030482D01*
X154316000Y-114836978D01*
X154415829Y-114622892D01*
X154415832Y-114622886D01*
X154473036Y-114409400D01*
X153575412Y-114409400D01*
X153608325Y-114352393D01*
X153642400Y-114225226D01*
X153642400Y-114093574D01*
X153608325Y-113966407D01*
X153575412Y-113909400D01*
X154473036Y-113909400D01*
X154473035Y-113909399D01*
X154415832Y-113695913D01*
X154415829Y-113695907D01*
X154316000Y-113481822D01*
X154315999Y-113481820D01*
X154180513Y-113288326D01*
X154180508Y-113288320D01*
X154058453Y-113166265D01*
X154024968Y-113104942D01*
X154029952Y-113035250D01*
X154071824Y-112979317D01*
X154102800Y-112962402D01*
X154222953Y-112917589D01*
X154234726Y-112913198D01*
X154234726Y-112913197D01*
X154234731Y-112913196D01*
X154349946Y-112826946D01*
X154436196Y-112711731D01*
X154486491Y-112576883D01*
X154492900Y-112517273D01*
X154492899Y-111064795D01*
X159834478Y-111064795D01*
X159834478Y-111064796D01*
X159854778Y-111452135D01*
X159911837Y-111812393D01*
X159915454Y-111835229D01*
X159930083Y-111889827D01*
X160015844Y-112209890D01*
X160154843Y-112571993D01*
X160330933Y-112917589D01*
X160542178Y-113242878D01*
X160578980Y-113288324D01*
X160786275Y-113544312D01*
X161060540Y-113818577D01*
X161127970Y-113873181D01*
X161361973Y-114062673D01*
X161510920Y-114159400D01*
X161687267Y-114273921D01*
X162032862Y-114450010D01*
X162394969Y-114589010D01*
X162769623Y-114689398D01*
X163152718Y-114750074D01*
X163518632Y-114769251D01*
X163540055Y-114770374D01*
X163540056Y-114770374D01*
X163540057Y-114770374D01*
X163560357Y-114769310D01*
X163927394Y-114750074D01*
X164310489Y-114689398D01*
X164685143Y-114589010D01*
X165047250Y-114450010D01*
X165392845Y-114273921D01*
X165718140Y-114062672D01*
X166019572Y-113818577D01*
X166293837Y-113544312D01*
X166537932Y-113242880D01*
X166749181Y-112917585D01*
X166925270Y-112571990D01*
X167064270Y-112209883D01*
X167164658Y-111835229D01*
X167225334Y-111452134D01*
X167245634Y-111064796D01*
X167225334Y-110677458D01*
X167164658Y-110294363D01*
X167064270Y-109919709D01*
X166925270Y-109557602D01*
X166749181Y-109212007D01*
X166706648Y-109146512D01*
X166537933Y-108886713D01*
X166338051Y-108639880D01*
X166293837Y-108585280D01*
X166019572Y-108311015D01*
X165905820Y-108218900D01*
X165718138Y-108066918D01*
X165392849Y-107855673D01*
X165047253Y-107679583D01*
X164685150Y-107540584D01*
X164685143Y-107540582D01*
X164310489Y-107440194D01*
X164310485Y-107440193D01*
X164310484Y-107440193D01*
X163927395Y-107379518D01*
X163540057Y-107359218D01*
X163540055Y-107359218D01*
X163152716Y-107379518D01*
X162769628Y-107440193D01*
X162769626Y-107440193D01*
X162394961Y-107540584D01*
X162032858Y-107679583D01*
X161687262Y-107855673D01*
X161361973Y-108066918D01*
X161060544Y-108311011D01*
X161060536Y-108311018D01*
X160786278Y-108585276D01*
X160786271Y-108585284D01*
X160542178Y-108886713D01*
X160330933Y-109212002D01*
X160154843Y-109557598D01*
X160015844Y-109919701D01*
X159915453Y-110294366D01*
X159915453Y-110294368D01*
X159854778Y-110677456D01*
X159834478Y-111064795D01*
X154492899Y-111064795D01*
X154492899Y-110721528D01*
X154486491Y-110661917D01*
X154485210Y-110658483D01*
X154436197Y-110527071D01*
X154436193Y-110527064D01*
X154349947Y-110411855D01*
X154349944Y-110411852D01*
X154234735Y-110325606D01*
X154234728Y-110325602D01*
X154099882Y-110275308D01*
X154099883Y-110275308D01*
X154040283Y-110268901D01*
X154040281Y-110268900D01*
X154040273Y-110268900D01*
X154040264Y-110268900D01*
X152244529Y-110268900D01*
X152244523Y-110268901D01*
X152184916Y-110275308D01*
X152050071Y-110325602D01*
X152050064Y-110325606D01*
X151934855Y-110411852D01*
X151934852Y-110411855D01*
X151848606Y-110527064D01*
X151848603Y-110527069D01*
X151799589Y-110658483D01*
X151757717Y-110714416D01*
X151692253Y-110738833D01*
X151623980Y-110723981D01*
X151595726Y-110702830D01*
X151473802Y-110580906D01*
X151473795Y-110580901D01*
X151280234Y-110445367D01*
X151280230Y-110445365D01*
X151229997Y-110421941D01*
X151066063Y-110345497D01*
X151066059Y-110345496D01*
X151066055Y-110345494D01*
X150837813Y-110284338D01*
X150837803Y-110284336D01*
X150602401Y-110263741D01*
X150602399Y-110263741D01*
X150366996Y-110284336D01*
X150366986Y-110284338D01*
X150138744Y-110345494D01*
X150138735Y-110345498D01*
X149924571Y-110445364D01*
X149924569Y-110445365D01*
X149730997Y-110580905D01*
X149563905Y-110747997D01*
X149433975Y-110933558D01*
X149379398Y-110977183D01*
X149309900Y-110984377D01*
X149247545Y-110952854D01*
X149230825Y-110933558D01*
X149100894Y-110747997D01*
X148933802Y-110580906D01*
X148933795Y-110580901D01*
X148740234Y-110445367D01*
X148740230Y-110445365D01*
X148689997Y-110421941D01*
X148526063Y-110345497D01*
X148526059Y-110345496D01*
X148526055Y-110345494D01*
X148297813Y-110284338D01*
X148297803Y-110284336D01*
X148062401Y-110263741D01*
X148062399Y-110263741D01*
X147826996Y-110284336D01*
X147826986Y-110284338D01*
X147598744Y-110345494D01*
X147598730Y-110345499D01*
X147434800Y-110421941D01*
X147365723Y-110432433D01*
X147301939Y-110403913D01*
X147263700Y-110345436D01*
X147263146Y-110275569D01*
X147275004Y-110247569D01*
X147309579Y-110187684D01*
X147368074Y-110007656D01*
X147387860Y-109819400D01*
X147368074Y-109631144D01*
X147309579Y-109451116D01*
X147214933Y-109287184D01*
X147088271Y-109146512D01*
X147088270Y-109146511D01*
X147050955Y-109119400D01*
X150076940Y-109119400D01*
X150096726Y-109307656D01*
X150096727Y-109307659D01*
X150155218Y-109487677D01*
X150155221Y-109487684D01*
X150249867Y-109651616D01*
X150281893Y-109687184D01*
X150376529Y-109792288D01*
X150529665Y-109903548D01*
X150529670Y-109903551D01*
X150702592Y-109980542D01*
X150702597Y-109980544D01*
X150887754Y-110019900D01*
X150887755Y-110019900D01*
X151077044Y-110019900D01*
X151077046Y-110019900D01*
X151262203Y-109980544D01*
X151435130Y-109903551D01*
X151588271Y-109792288D01*
X151714933Y-109651616D01*
X151809579Y-109487684D01*
X151868074Y-109307656D01*
X151887860Y-109119400D01*
X151868074Y-108931144D01*
X151809579Y-108751116D01*
X151714933Y-108587184D01*
X151588271Y-108446512D01*
X151588270Y-108446511D01*
X151435134Y-108335251D01*
X151435129Y-108335248D01*
X151262207Y-108258257D01*
X151262202Y-108258255D01*
X151116401Y-108227265D01*
X151077046Y-108218900D01*
X150887754Y-108218900D01*
X150855297Y-108225798D01*
X150702597Y-108258255D01*
X150702592Y-108258257D01*
X150529670Y-108335248D01*
X150529665Y-108335251D01*
X150376529Y-108446511D01*
X150249866Y-108587185D01*
X150155221Y-108751115D01*
X150155218Y-108751122D01*
X150100704Y-108918900D01*
X150096726Y-108931144D01*
X150076940Y-109119400D01*
X147050955Y-109119400D01*
X146935134Y-109035251D01*
X146935129Y-109035248D01*
X146762207Y-108958257D01*
X146762202Y-108958255D01*
X146616401Y-108927265D01*
X146577046Y-108918900D01*
X146387754Y-108918900D01*
X146355297Y-108925798D01*
X146202597Y-108958255D01*
X146202592Y-108958257D01*
X146029671Y-109035248D01*
X146025185Y-109037838D01*
X145957283Y-109054303D01*
X145891259Y-109031444D01*
X145848074Y-108976518D01*
X145845265Y-108968763D01*
X145839532Y-108951119D01*
X145839531Y-108951118D01*
X145839531Y-108951116D01*
X145744885Y-108787184D01*
X145618223Y-108646512D01*
X145609106Y-108639888D01*
X145465086Y-108535251D01*
X145465081Y-108535248D01*
X145292159Y-108458257D01*
X145292154Y-108458255D01*
X145146353Y-108427265D01*
X145106998Y-108418900D01*
X144917706Y-108418900D01*
X144878351Y-108427265D01*
X144732550Y-108458255D01*
X144726366Y-108460265D01*
X144725564Y-108457797D01*
X144667746Y-108465507D01*
X144613764Y-108443274D01*
X144465083Y-108335251D01*
X144465078Y-108335248D01*
X144292156Y-108258257D01*
X144292151Y-108258255D01*
X144146350Y-108227265D01*
X144106995Y-108218900D01*
X143917703Y-108218900D01*
X143885246Y-108225798D01*
X143732546Y-108258255D01*
X143732541Y-108258257D01*
X143559619Y-108335248D01*
X143559614Y-108335251D01*
X143406478Y-108446511D01*
X143279815Y-108587185D01*
X143185170Y-108751115D01*
X143185167Y-108751122D01*
X143130653Y-108918900D01*
X143126675Y-108931144D01*
X143106889Y-109119400D01*
X143126675Y-109307656D01*
X143126676Y-109307659D01*
X143185167Y-109487677D01*
X143185170Y-109487684D01*
X143279816Y-109651616D01*
X143311842Y-109687184D01*
X143406478Y-109792288D01*
X143559614Y-109903548D01*
X143559619Y-109903551D01*
X143732541Y-109980542D01*
X143732546Y-109980544D01*
X143917703Y-110019900D01*
X143917704Y-110019900D01*
X144106993Y-110019900D01*
X144106995Y-110019900D01*
X144292152Y-109980544D01*
X144292162Y-109980539D01*
X144298331Y-109978536D01*
X144299138Y-109981020D01*
X144356857Y-109973277D01*
X144410936Y-109995525D01*
X144559617Y-110103548D01*
X144559622Y-110103551D01*
X144732544Y-110180542D01*
X144732549Y-110180544D01*
X144837092Y-110202765D01*
X144898573Y-110235957D01*
X144932350Y-110297120D01*
X144927698Y-110366835D01*
X144886094Y-110422967D01*
X144863717Y-110436437D01*
X144844568Y-110445366D01*
X144650997Y-110580905D01*
X144483905Y-110747997D01*
X144353975Y-110933558D01*
X144299398Y-110977183D01*
X144229900Y-110984377D01*
X144167545Y-110952854D01*
X144150825Y-110933558D01*
X144020894Y-110747997D01*
X143853802Y-110580906D01*
X143853795Y-110580901D01*
X143660234Y-110445367D01*
X143660230Y-110445365D01*
X143609997Y-110421941D01*
X143446063Y-110345497D01*
X143446059Y-110345496D01*
X143446055Y-110345494D01*
X143217813Y-110284338D01*
X143217803Y-110284336D01*
X142982401Y-110263741D01*
X142982399Y-110263741D01*
X142746996Y-110284336D01*
X142746986Y-110284338D01*
X142518744Y-110345494D01*
X142518735Y-110345498D01*
X142304571Y-110445364D01*
X142304569Y-110445365D01*
X142110997Y-110580905D01*
X141943905Y-110747997D01*
X141813975Y-110933558D01*
X141759398Y-110977183D01*
X141689900Y-110984377D01*
X141627545Y-110952854D01*
X141610825Y-110933558D01*
X141480894Y-110747997D01*
X141313802Y-110580906D01*
X141313795Y-110580901D01*
X141120234Y-110445367D01*
X141120230Y-110445365D01*
X141069997Y-110421941D01*
X140906063Y-110345497D01*
X140906059Y-110345496D01*
X140906055Y-110345494D01*
X140677813Y-110284338D01*
X140677803Y-110284336D01*
X140493885Y-110268245D01*
X140428816Y-110242792D01*
X140387838Y-110186201D01*
X140381373Y-110157685D01*
X140368074Y-110031144D01*
X140309579Y-109851116D01*
X140214933Y-109687184D01*
X140088271Y-109546512D01*
X140088270Y-109546511D01*
X139935134Y-109435251D01*
X139935129Y-109435248D01*
X139762207Y-109358257D01*
X139762202Y-109358255D01*
X139616401Y-109327265D01*
X139577046Y-109318900D01*
X139387754Y-109318900D01*
X139355297Y-109325798D01*
X139202597Y-109358255D01*
X139202592Y-109358257D01*
X139029670Y-109435248D01*
X139029665Y-109435251D01*
X138876529Y-109546511D01*
X138749866Y-109687185D01*
X138655221Y-109851115D01*
X138655218Y-109851122D01*
X138604292Y-110007858D01*
X138596726Y-110031144D01*
X138589116Y-110103551D01*
X138576940Y-110219400D01*
X138578835Y-110237430D01*
X138566265Y-110306159D01*
X138518533Y-110357183D01*
X138450792Y-110374300D01*
X138403109Y-110362772D01*
X138366063Y-110345497D01*
X138366059Y-110345496D01*
X138366055Y-110345494D01*
X138137813Y-110284338D01*
X138137803Y-110284336D01*
X137902401Y-110263741D01*
X137902399Y-110263741D01*
X137666996Y-110284336D01*
X137666986Y-110284338D01*
X137438744Y-110345494D01*
X137438735Y-110345498D01*
X137224571Y-110445364D01*
X137224569Y-110445365D01*
X137030997Y-110580905D01*
X136863905Y-110747997D01*
X136733975Y-110933558D01*
X136679398Y-110977183D01*
X136609900Y-110984377D01*
X136547545Y-110952854D01*
X136530825Y-110933558D01*
X136400894Y-110747997D01*
X136233802Y-110580906D01*
X136233795Y-110580901D01*
X136040234Y-110445367D01*
X136040230Y-110445365D01*
X135989997Y-110421941D01*
X135826063Y-110345497D01*
X135826059Y-110345496D01*
X135826055Y-110345494D01*
X135597813Y-110284338D01*
X135597803Y-110284336D01*
X135362401Y-110263741D01*
X135362399Y-110263741D01*
X135126996Y-110284336D01*
X135126986Y-110284338D01*
X134898744Y-110345494D01*
X134898735Y-110345498D01*
X134684571Y-110445364D01*
X134684569Y-110445365D01*
X134490997Y-110580905D01*
X134323905Y-110747997D01*
X134193975Y-110933558D01*
X134139398Y-110977183D01*
X134069900Y-110984377D01*
X134007545Y-110952854D01*
X133990825Y-110933558D01*
X133860894Y-110747997D01*
X133693802Y-110580906D01*
X133693795Y-110580901D01*
X133500234Y-110445367D01*
X133500230Y-110445365D01*
X133449997Y-110421941D01*
X133286063Y-110345497D01*
X133286059Y-110345496D01*
X133286055Y-110345494D01*
X133057813Y-110284338D01*
X133057803Y-110284336D01*
X132822401Y-110263741D01*
X132822399Y-110263741D01*
X132586996Y-110284336D01*
X132586986Y-110284338D01*
X132358744Y-110345494D01*
X132358735Y-110345498D01*
X132144571Y-110445364D01*
X132144569Y-110445365D01*
X131950997Y-110580905D01*
X131783905Y-110747997D01*
X131653975Y-110933558D01*
X131599398Y-110977183D01*
X131529900Y-110984377D01*
X131467545Y-110952854D01*
X131450825Y-110933558D01*
X131320894Y-110747997D01*
X131153802Y-110580906D01*
X131153795Y-110580901D01*
X130960234Y-110445367D01*
X130960230Y-110445365D01*
X130909997Y-110421941D01*
X130746063Y-110345497D01*
X130746059Y-110345496D01*
X130746055Y-110345494D01*
X130517813Y-110284338D01*
X130517803Y-110284336D01*
X130282401Y-110263741D01*
X130282399Y-110263741D01*
X130046996Y-110284336D01*
X130046986Y-110284338D01*
X129818744Y-110345494D01*
X129818735Y-110345498D01*
X129604571Y-110445364D01*
X129604569Y-110445365D01*
X129410997Y-110580905D01*
X129243905Y-110747997D01*
X129113975Y-110933558D01*
X129059398Y-110977183D01*
X128989900Y-110984377D01*
X128927545Y-110952854D01*
X128910825Y-110933558D01*
X128780894Y-110747997D01*
X128613802Y-110580906D01*
X128613795Y-110580901D01*
X128420234Y-110445367D01*
X128420230Y-110445365D01*
X128369997Y-110421941D01*
X128206063Y-110345497D01*
X128206059Y-110345496D01*
X128206055Y-110345494D01*
X127977813Y-110284338D01*
X127977803Y-110284336D01*
X127742401Y-110263741D01*
X127742399Y-110263741D01*
X127506996Y-110284336D01*
X127506986Y-110284338D01*
X127278744Y-110345494D01*
X127278735Y-110345498D01*
X127064571Y-110445364D01*
X127064569Y-110445365D01*
X126870997Y-110580905D01*
X126703908Y-110747994D01*
X126573669Y-110933995D01*
X126519092Y-110977619D01*
X126449593Y-110984812D01*
X126387239Y-110953290D01*
X126370519Y-110933994D01*
X126240513Y-110748326D01*
X126240508Y-110748320D01*
X126073482Y-110581294D01*
X125879978Y-110445799D01*
X125665892Y-110345970D01*
X125665886Y-110345967D01*
X125452400Y-110288764D01*
X125452400Y-111186388D01*
X125395393Y-111153475D01*
X125268226Y-111119400D01*
X125136574Y-111119400D01*
X125009407Y-111153475D01*
X124952400Y-111186388D01*
X124952400Y-110288764D01*
X124952399Y-110288764D01*
X124738913Y-110345967D01*
X124738907Y-110345970D01*
X124524822Y-110445799D01*
X124524820Y-110445800D01*
X124331326Y-110581286D01*
X124331320Y-110581291D01*
X124164291Y-110748320D01*
X124164286Y-110748326D01*
X124028800Y-110941820D01*
X124028799Y-110941822D01*
X123928970Y-111155907D01*
X123928967Y-111155913D01*
X123871764Y-111369399D01*
X123871764Y-111369400D01*
X124769388Y-111369400D01*
X124736475Y-111426407D01*
X124702400Y-111553574D01*
X124702400Y-111685226D01*
X124736475Y-111812393D01*
X124769388Y-111869400D01*
X123871764Y-111869400D01*
X123928967Y-112082886D01*
X123928970Y-112082892D01*
X124028799Y-112296978D01*
X124164294Y-112490482D01*
X124331317Y-112657505D01*
X124516995Y-112787519D01*
X124560619Y-112842096D01*
X124567812Y-112911595D01*
X124536290Y-112973949D01*
X124516995Y-112990669D01*
X124330994Y-113120908D01*
X124163905Y-113287997D01*
X124028365Y-113481569D01*
X124028364Y-113481571D01*
X123928498Y-113695735D01*
X123928494Y-113695744D01*
X123867338Y-113923986D01*
X123867336Y-113923996D01*
X123846741Y-114159399D01*
X117595620Y-114159399D01*
X117660484Y-114117276D01*
X117961916Y-113873181D01*
X118236181Y-113598916D01*
X118480276Y-113297484D01*
X118691525Y-112972189D01*
X118867614Y-112626594D01*
X119006614Y-112264487D01*
X119107002Y-111889833D01*
X119167678Y-111506738D01*
X119187978Y-111119400D01*
X119167678Y-110732062D01*
X119107002Y-110348967D01*
X119006614Y-109974313D01*
X118867614Y-109612206D01*
X118691525Y-109266611D01*
X118505750Y-108980542D01*
X118480277Y-108941317D01*
X118236184Y-108639888D01*
X118236181Y-108639884D01*
X117961916Y-108365619D01*
X117829333Y-108258255D01*
X117660482Y-108121522D01*
X117657214Y-108119400D01*
X124076940Y-108119400D01*
X124096726Y-108307656D01*
X124096727Y-108307659D01*
X124155218Y-108487677D01*
X124155221Y-108487684D01*
X124249867Y-108651616D01*
X124339463Y-108751122D01*
X124376529Y-108792288D01*
X124529665Y-108903548D01*
X124529670Y-108903551D01*
X124702592Y-108980542D01*
X124702597Y-108980544D01*
X124887754Y-109019900D01*
X124887755Y-109019900D01*
X125077044Y-109019900D01*
X125077046Y-109019900D01*
X125262203Y-108980544D01*
X125435130Y-108903551D01*
X125588271Y-108792288D01*
X125714933Y-108651616D01*
X125809579Y-108487684D01*
X125868074Y-108307656D01*
X125887860Y-108119400D01*
X125868074Y-107931144D01*
X125809579Y-107751116D01*
X125714933Y-107587184D01*
X125588271Y-107446512D01*
X125571218Y-107434122D01*
X125435134Y-107335251D01*
X125435129Y-107335248D01*
X125262207Y-107258257D01*
X125262202Y-107258255D01*
X125116401Y-107227265D01*
X125077046Y-107218900D01*
X124887754Y-107218900D01*
X124855297Y-107225798D01*
X124702597Y-107258255D01*
X124702592Y-107258257D01*
X124529670Y-107335248D01*
X124529665Y-107335251D01*
X124376529Y-107446511D01*
X124249866Y-107587185D01*
X124155221Y-107751115D01*
X124155218Y-107751122D01*
X124103506Y-107910277D01*
X124096726Y-107931144D01*
X124076940Y-108119400D01*
X117657214Y-108119400D01*
X117335193Y-107910277D01*
X116989597Y-107734187D01*
X116627494Y-107595188D01*
X116627487Y-107595186D01*
X116252833Y-107494798D01*
X116252829Y-107494797D01*
X116252828Y-107494797D01*
X115869739Y-107434122D01*
X115482401Y-107413822D01*
X115482399Y-107413822D01*
X115095060Y-107434122D01*
X114711972Y-107494797D01*
X114711970Y-107494797D01*
X114337305Y-107595188D01*
X113975202Y-107734187D01*
X113629606Y-107910277D01*
X113304317Y-108121522D01*
X113002888Y-108365615D01*
X113002880Y-108365622D01*
X112728622Y-108639880D01*
X112728615Y-108639888D01*
X112484522Y-108941317D01*
X112273277Y-109266606D01*
X112097187Y-109612202D01*
X111958188Y-109974305D01*
X111857797Y-110348970D01*
X111857797Y-110348972D01*
X111797122Y-110732060D01*
X111776822Y-111119399D01*
X108482400Y-111119399D01*
X108482400Y-106619400D01*
X139576940Y-106619400D01*
X139596726Y-106807656D01*
X139596727Y-106807659D01*
X139655218Y-106987677D01*
X139655221Y-106987684D01*
X139749867Y-107151616D01*
X139845887Y-107258257D01*
X139876529Y-107292288D01*
X140029665Y-107403548D01*
X140029670Y-107403551D01*
X140202592Y-107480542D01*
X140202597Y-107480544D01*
X140387754Y-107519900D01*
X140387755Y-107519900D01*
X140577044Y-107519900D01*
X140577046Y-107519900D01*
X140762203Y-107480544D01*
X140935130Y-107403551D01*
X141088271Y-107292288D01*
X141214933Y-107151616D01*
X141309579Y-106987684D01*
X141368074Y-106807656D01*
X141387860Y-106619400D01*
X141368074Y-106431144D01*
X141327132Y-106305137D01*
X141325137Y-106235296D01*
X141361217Y-106175463D01*
X141423918Y-106144635D01*
X141472659Y-106145929D01*
X141477455Y-106147024D01*
X141645396Y-106165946D01*
X141645404Y-106165946D01*
X141813343Y-106147024D01*
X141972113Y-106091467D01*
X141972114Y-106091466D01*
X141379528Y-105498880D01*
X141346043Y-105437557D01*
X141349350Y-105391309D01*
X141545400Y-105391309D01*
X141545400Y-105431091D01*
X141560624Y-105467845D01*
X141588755Y-105495976D01*
X141625509Y-105511200D01*
X141665291Y-105511200D01*
X141702045Y-105495976D01*
X141730176Y-105467845D01*
X141745400Y-105431091D01*
X141745400Y-105391309D01*
X141730176Y-105354555D01*
X141702045Y-105326424D01*
X141665291Y-105311200D01*
X141625509Y-105311200D01*
X141588755Y-105326424D01*
X141560624Y-105354555D01*
X141545400Y-105391309D01*
X141349350Y-105391309D01*
X141351027Y-105367865D01*
X141379528Y-105323517D01*
X141491845Y-105211200D01*
X141798953Y-105211200D01*
X142325666Y-105737913D01*
X142325667Y-105737913D01*
X142381224Y-105579143D01*
X142400146Y-105411203D01*
X142400146Y-105411197D01*
X142390129Y-105322294D01*
X142402183Y-105253472D01*
X142449532Y-105202092D01*
X142472105Y-105191503D01*
X142472114Y-105191466D01*
X142145400Y-104864753D01*
X141798953Y-105211200D01*
X141491845Y-105211200D01*
X141491846Y-105211199D01*
X141145401Y-104864753D01*
X141145400Y-104864753D01*
X140818685Y-105191466D01*
X140818713Y-105191590D01*
X140875181Y-105232091D01*
X140900928Y-105297043D01*
X140900670Y-105322292D01*
X140890654Y-105411194D01*
X140890654Y-105411203D01*
X140909575Y-105579141D01*
X140909578Y-105579153D01*
X140916536Y-105599038D01*
X140920097Y-105668817D01*
X140885367Y-105729444D01*
X140823373Y-105761670D01*
X140768819Y-105758384D01*
X140768560Y-105759607D01*
X140626652Y-105729444D01*
X140577046Y-105718900D01*
X140387754Y-105718900D01*
X140355297Y-105725798D01*
X140202597Y-105758255D01*
X140202592Y-105758257D01*
X140029670Y-105835248D01*
X140029665Y-105835251D01*
X139876529Y-105946511D01*
X139749866Y-106087185D01*
X139655221Y-106251115D01*
X139655218Y-106251122D01*
X139637668Y-106305137D01*
X139596726Y-106431144D01*
X139576940Y-106619400D01*
X108482400Y-106619400D01*
X108482400Y-105268359D01*
X115427981Y-105268359D01*
X115447767Y-105456615D01*
X115447768Y-105456618D01*
X115506259Y-105636636D01*
X115506262Y-105636643D01*
X115600908Y-105800575D01*
X115727570Y-105941247D01*
X115880706Y-106052507D01*
X115880711Y-106052510D01*
X116053633Y-106129501D01*
X116053638Y-106129503D01*
X116238795Y-106168859D01*
X116238796Y-106168859D01*
X116428085Y-106168859D01*
X116428087Y-106168859D01*
X116613244Y-106129503D01*
X116786171Y-106052510D01*
X116939312Y-105941247D01*
X117065974Y-105800575D01*
X117160620Y-105636643D01*
X117201426Y-105511055D01*
X117240862Y-105453382D01*
X117293574Y-105428085D01*
X117320353Y-105422394D01*
X117320357Y-105422392D01*
X117320358Y-105422392D01*
X117390170Y-105391309D01*
X117493280Y-105345401D01*
X117548064Y-105305597D01*
X117613867Y-105282118D01*
X117671381Y-105292636D01*
X117756522Y-105330544D01*
X117941679Y-105369900D01*
X117941680Y-105369900D01*
X118130969Y-105369900D01*
X118130971Y-105369900D01*
X118316128Y-105330544D01*
X118340982Y-105319477D01*
X118410231Y-105310191D01*
X118464305Y-105332438D01*
X118571255Y-105410142D01*
X118571260Y-105410145D01*
X118744182Y-105487136D01*
X118744187Y-105487138D01*
X118929344Y-105526494D01*
X118929345Y-105526494D01*
X119118634Y-105526494D01*
X119118636Y-105526494D01*
X119303793Y-105487138D01*
X119476720Y-105410145D01*
X119629861Y-105298882D01*
X119664012Y-105260952D01*
X119723498Y-105224304D01*
X119793355Y-105225633D01*
X119848312Y-105260950D01*
X119876532Y-105292291D01*
X119876535Y-105292293D01*
X120029665Y-105403548D01*
X120029670Y-105403551D01*
X120202592Y-105480542D01*
X120202597Y-105480544D01*
X120387754Y-105519900D01*
X120387755Y-105519900D01*
X120577044Y-105519900D01*
X120577046Y-105519900D01*
X120762203Y-105480544D01*
X120935130Y-105403551D01*
X121088271Y-105292288D01*
X121214933Y-105151616D01*
X121309579Y-104987684D01*
X121368074Y-104807656D01*
X121387860Y-104619400D01*
X121376488Y-104511196D01*
X140390654Y-104511196D01*
X140390654Y-104511203D01*
X140409575Y-104679138D01*
X140409576Y-104679143D01*
X140465132Y-104837914D01*
X140791847Y-104511200D01*
X140771956Y-104491309D01*
X141045400Y-104491309D01*
X141045400Y-104531091D01*
X141060624Y-104567845D01*
X141088755Y-104595976D01*
X141125509Y-104611200D01*
X141165291Y-104611200D01*
X141202045Y-104595976D01*
X141230176Y-104567845D01*
X141245400Y-104531091D01*
X141245400Y-104511200D01*
X141498953Y-104511200D01*
X141645400Y-104657647D01*
X141791847Y-104511200D01*
X141771956Y-104491309D01*
X142045400Y-104491309D01*
X142045400Y-104531091D01*
X142060624Y-104567845D01*
X142088755Y-104595976D01*
X142125509Y-104611200D01*
X142165291Y-104611200D01*
X142202045Y-104595976D01*
X142230176Y-104567845D01*
X142245400Y-104531091D01*
X142245400Y-104511199D01*
X142498953Y-104511199D01*
X142498953Y-104511201D01*
X142825666Y-104837914D01*
X142825667Y-104837913D01*
X142881224Y-104679143D01*
X142900146Y-104511203D01*
X142900146Y-104511196D01*
X142881224Y-104343256D01*
X142867790Y-104304865D01*
X163878596Y-104304865D01*
X163898382Y-104493121D01*
X163898383Y-104493124D01*
X163956874Y-104673142D01*
X163956877Y-104673149D01*
X164051523Y-104837081D01*
X164108249Y-104900081D01*
X164178185Y-104977753D01*
X164331321Y-105089013D01*
X164331326Y-105089016D01*
X164504248Y-105166007D01*
X164504253Y-105166009D01*
X164689410Y-105205365D01*
X164689411Y-105205365D01*
X164878700Y-105205365D01*
X164878702Y-105205365D01*
X165063859Y-105166009D01*
X165236786Y-105089016D01*
X165389927Y-104977753D01*
X165516589Y-104837081D01*
X165611235Y-104673149D01*
X165669730Y-104493121D01*
X165689516Y-104304865D01*
X165669730Y-104116609D01*
X165611235Y-103936581D01*
X165516589Y-103772649D01*
X165389927Y-103631977D01*
X165388708Y-103631091D01*
X165236790Y-103520716D01*
X165236788Y-103520715D01*
X165188124Y-103499048D01*
X165134888Y-103453797D01*
X165114567Y-103386948D01*
X165133613Y-103319724D01*
X165185980Y-103273469D01*
X165188035Y-103272530D01*
X165262186Y-103239516D01*
X165415327Y-103128253D01*
X165541989Y-102987581D01*
X165636635Y-102823649D01*
X165695130Y-102643621D01*
X165714916Y-102455365D01*
X165695130Y-102267109D01*
X165636669Y-102087185D01*
X165636637Y-102087087D01*
X165636636Y-102087086D01*
X165636635Y-102087081D01*
X165541989Y-101923149D01*
X165415327Y-101782477D01*
X165381990Y-101758256D01*
X165262190Y-101671216D01*
X165262185Y-101671213D01*
X165089263Y-101594222D01*
X165089258Y-101594220D01*
X164943457Y-101563230D01*
X164904102Y-101554865D01*
X164714810Y-101554865D01*
X164682353Y-101561763D01*
X164529653Y-101594220D01*
X164529648Y-101594222D01*
X164356726Y-101671213D01*
X164356721Y-101671216D01*
X164203585Y-101782476D01*
X164076922Y-101923150D01*
X163982277Y-102087080D01*
X163982274Y-102087087D01*
X163923783Y-102267105D01*
X163923782Y-102267109D01*
X163903996Y-102455365D01*
X163923782Y-102643621D01*
X163923783Y-102643624D01*
X163982274Y-102823642D01*
X163982277Y-102823649D01*
X164076923Y-102987581D01*
X164203585Y-103128253D01*
X164356721Y-103239513D01*
X164356722Y-103239513D01*
X164356726Y-103239516D01*
X164405386Y-103261181D01*
X164458623Y-103306431D01*
X164478944Y-103373280D01*
X164459899Y-103440504D01*
X164407532Y-103486759D01*
X164405387Y-103487739D01*
X164331323Y-103520715D01*
X164331321Y-103520716D01*
X164178185Y-103631976D01*
X164051522Y-103772650D01*
X163956877Y-103936580D01*
X163956874Y-103936587D01*
X163907942Y-104087185D01*
X163898382Y-104116609D01*
X163878596Y-104304865D01*
X142867790Y-104304865D01*
X142825666Y-104184485D01*
X142498953Y-104511199D01*
X142245400Y-104511199D01*
X142245400Y-104491309D01*
X142230176Y-104454555D01*
X142202045Y-104426424D01*
X142165291Y-104411200D01*
X142125509Y-104411200D01*
X142088755Y-104426424D01*
X142060624Y-104454555D01*
X142045400Y-104491309D01*
X141771956Y-104491309D01*
X141645400Y-104364753D01*
X141498953Y-104511200D01*
X141245400Y-104511200D01*
X141245400Y-104491309D01*
X141230176Y-104454555D01*
X141202045Y-104426424D01*
X141165291Y-104411200D01*
X141125509Y-104411200D01*
X141088755Y-104426424D01*
X141060624Y-104454555D01*
X141045400Y-104491309D01*
X140771956Y-104491309D01*
X140465132Y-104184485D01*
X140409576Y-104343253D01*
X140409575Y-104343258D01*
X140390654Y-104511196D01*
X121376488Y-104511196D01*
X121368074Y-104431144D01*
X121309579Y-104251116D01*
X121214933Y-104087184D01*
X121088271Y-103946512D01*
X121088263Y-103946506D01*
X120935134Y-103835251D01*
X120935129Y-103835248D01*
X120925435Y-103830932D01*
X140818684Y-103830932D01*
X141145399Y-104157647D01*
X141491847Y-103811200D01*
X141491846Y-103811199D01*
X141798953Y-103811199D01*
X141798953Y-103811200D01*
X142145400Y-104157647D01*
X142145401Y-104157647D01*
X142472114Y-103830932D01*
X142472085Y-103830807D01*
X142415618Y-103790307D01*
X142389871Y-103725355D01*
X142390129Y-103700104D01*
X142400146Y-103611202D01*
X142400146Y-103611196D01*
X142381224Y-103443256D01*
X142325666Y-103284485D01*
X141798953Y-103811199D01*
X141491846Y-103811199D01*
X141271956Y-103591309D01*
X141545400Y-103591309D01*
X141545400Y-103631091D01*
X141560624Y-103667845D01*
X141588755Y-103695976D01*
X141625509Y-103711200D01*
X141665291Y-103711200D01*
X141702045Y-103695976D01*
X141730176Y-103667845D01*
X141745400Y-103631091D01*
X141745400Y-103591309D01*
X141730176Y-103554555D01*
X141702045Y-103526424D01*
X141665291Y-103511200D01*
X141625509Y-103511200D01*
X141588755Y-103526424D01*
X141560624Y-103554555D01*
X141545400Y-103591309D01*
X141271956Y-103591309D01*
X140965132Y-103284485D01*
X140909576Y-103443253D01*
X140909575Y-103443258D01*
X140890654Y-103611196D01*
X140890654Y-103611204D01*
X140900670Y-103700105D01*
X140888615Y-103768927D01*
X140841266Y-103820306D01*
X140818693Y-103830893D01*
X140818684Y-103830932D01*
X120925435Y-103830932D01*
X120762207Y-103758257D01*
X120762202Y-103758255D01*
X120616401Y-103727265D01*
X120577046Y-103718900D01*
X120387754Y-103718900D01*
X120358811Y-103725052D01*
X120202597Y-103758255D01*
X120202592Y-103758257D01*
X120029670Y-103835248D01*
X120029665Y-103835251D01*
X119876535Y-103946506D01*
X119876528Y-103946512D01*
X119842375Y-103984443D01*
X119782888Y-104021091D01*
X119713031Y-104019760D01*
X119658076Y-103984442D01*
X119629860Y-103953105D01*
X119629854Y-103953100D01*
X119476724Y-103841845D01*
X119476719Y-103841842D01*
X119303797Y-103764851D01*
X119303792Y-103764849D01*
X119157991Y-103733859D01*
X119118636Y-103725494D01*
X118929344Y-103725494D01*
X118889989Y-103733859D01*
X118744188Y-103764849D01*
X118744187Y-103764849D01*
X118719327Y-103775918D01*
X118650077Y-103785201D01*
X118596009Y-103762955D01*
X118489059Y-103685251D01*
X118489054Y-103685248D01*
X118316132Y-103608257D01*
X118316127Y-103608255D01*
X118170326Y-103577265D01*
X118130971Y-103568900D01*
X117941679Y-103568900D01*
X117909222Y-103575798D01*
X117756522Y-103608255D01*
X117756517Y-103608257D01*
X117583596Y-103685248D01*
X117528809Y-103725052D01*
X117463002Y-103748530D01*
X117405490Y-103738012D01*
X117320353Y-103700106D01*
X117320351Y-103700105D01*
X117320350Y-103700105D01*
X117203652Y-103675300D01*
X117135196Y-103660750D01*
X116945904Y-103660750D01*
X116913447Y-103667648D01*
X116760747Y-103700105D01*
X116760742Y-103700107D01*
X116587820Y-103777098D01*
X116587815Y-103777101D01*
X116434679Y-103888361D01*
X116308016Y-104029035D01*
X116213371Y-104192965D01*
X116213369Y-104192969D01*
X116172565Y-104318551D01*
X116133127Y-104376226D01*
X116080419Y-104401521D01*
X116053642Y-104407213D01*
X116053633Y-104407216D01*
X115880711Y-104484207D01*
X115880706Y-104484210D01*
X115727570Y-104595470D01*
X115600907Y-104736144D01*
X115506262Y-104900074D01*
X115506259Y-104900081D01*
X115447768Y-105080099D01*
X115447767Y-105080103D01*
X115427981Y-105268359D01*
X108482400Y-105268359D01*
X108482400Y-102619400D01*
X139076940Y-102619400D01*
X139096726Y-102807656D01*
X139096727Y-102807659D01*
X139155218Y-102987677D01*
X139155221Y-102987684D01*
X139249867Y-103151616D01*
X139329010Y-103239513D01*
X139376529Y-103292288D01*
X139529665Y-103403548D01*
X139529670Y-103403551D01*
X139702592Y-103480542D01*
X139702597Y-103480544D01*
X139887754Y-103519900D01*
X139887755Y-103519900D01*
X140077044Y-103519900D01*
X140077046Y-103519900D01*
X140262203Y-103480544D01*
X140435130Y-103403551D01*
X140588271Y-103292288D01*
X140714933Y-103151616D01*
X140809579Y-102987684D01*
X140828019Y-102930932D01*
X141318685Y-102930932D01*
X141645400Y-103257647D01*
X141645401Y-103257647D01*
X141972114Y-102930932D01*
X141813343Y-102875376D01*
X141813338Y-102875375D01*
X141645404Y-102856454D01*
X141645396Y-102856454D01*
X141477458Y-102875375D01*
X141477453Y-102875376D01*
X141318685Y-102930932D01*
X140828019Y-102930932D01*
X140868074Y-102807656D01*
X140887860Y-102619400D01*
X140868074Y-102431144D01*
X140809579Y-102251116D01*
X140714933Y-102087184D01*
X140588271Y-101946512D01*
X140556116Y-101923150D01*
X140435134Y-101835251D01*
X140435129Y-101835248D01*
X140262207Y-101758257D01*
X140262202Y-101758255D01*
X140116401Y-101727265D01*
X140077046Y-101718900D01*
X139887754Y-101718900D01*
X139855297Y-101725798D01*
X139702597Y-101758255D01*
X139702592Y-101758257D01*
X139529670Y-101835248D01*
X139529665Y-101835251D01*
X139376529Y-101946511D01*
X139249866Y-102087185D01*
X139155221Y-102251115D01*
X139155218Y-102251122D01*
X139096727Y-102431140D01*
X139096726Y-102431144D01*
X139076940Y-102619400D01*
X108482400Y-102619400D01*
X108482400Y-101619400D01*
X115076940Y-101619400D01*
X115096726Y-101807656D01*
X115096727Y-101807659D01*
X115155218Y-101987677D01*
X115155221Y-101987684D01*
X115249867Y-102151616D01*
X115339463Y-102251122D01*
X115376529Y-102292288D01*
X115529665Y-102403548D01*
X115529670Y-102403551D01*
X115702592Y-102480542D01*
X115702597Y-102480544D01*
X115887754Y-102519900D01*
X115887755Y-102519900D01*
X116077044Y-102519900D01*
X116077046Y-102519900D01*
X116262203Y-102480544D01*
X116435130Y-102403551D01*
X116588271Y-102292288D01*
X116714933Y-102151616D01*
X116809579Y-101987684D01*
X116868074Y-101807656D01*
X116887860Y-101619400D01*
X116868074Y-101431144D01*
X116809579Y-101251116D01*
X116760014Y-101165266D01*
X117385085Y-101165266D01*
X117543856Y-101220824D01*
X117711796Y-101239746D01*
X117711804Y-101239746D01*
X117879743Y-101220824D01*
X118038513Y-101165267D01*
X118038514Y-101165266D01*
X117711801Y-100838553D01*
X117711800Y-100838553D01*
X117385085Y-101165266D01*
X116760014Y-101165266D01*
X116714933Y-101087184D01*
X116588271Y-100946512D01*
X116588270Y-100946511D01*
X116435134Y-100835251D01*
X116435129Y-100835248D01*
X116262207Y-100758257D01*
X116262202Y-100758255D01*
X116116401Y-100727265D01*
X116077046Y-100718900D01*
X115887754Y-100718900D01*
X115855297Y-100725798D01*
X115702597Y-100758255D01*
X115702592Y-100758257D01*
X115529670Y-100835248D01*
X115529665Y-100835251D01*
X115376529Y-100946511D01*
X115249866Y-101087185D01*
X115155221Y-101251115D01*
X115155218Y-101251122D01*
X115096727Y-101431140D01*
X115096726Y-101431144D01*
X115076940Y-101619400D01*
X108482400Y-101619400D01*
X108482400Y-100265266D01*
X116885085Y-100265266D01*
X116885113Y-100265390D01*
X116941581Y-100305891D01*
X116967328Y-100370843D01*
X116967070Y-100396092D01*
X116957054Y-100484994D01*
X116957054Y-100485003D01*
X116975975Y-100652938D01*
X116975976Y-100652943D01*
X117031532Y-100811713D01*
X117378137Y-100465109D01*
X117611800Y-100465109D01*
X117611800Y-100504891D01*
X117627024Y-100541645D01*
X117655155Y-100569776D01*
X117691909Y-100585000D01*
X117731691Y-100585000D01*
X117768445Y-100569776D01*
X117796576Y-100541645D01*
X117811800Y-100504891D01*
X117811800Y-100465109D01*
X117796576Y-100428355D01*
X117768445Y-100400224D01*
X117731691Y-100385000D01*
X117691909Y-100385000D01*
X117655155Y-100400224D01*
X117627024Y-100428355D01*
X117611800Y-100465109D01*
X117378137Y-100465109D01*
X117558247Y-100285000D01*
X117865353Y-100285000D01*
X118392066Y-100811713D01*
X118392067Y-100811713D01*
X118447624Y-100652943D01*
X118466546Y-100485003D01*
X118466546Y-100484997D01*
X118456529Y-100396094D01*
X118468583Y-100327272D01*
X118515932Y-100275892D01*
X118538505Y-100265303D01*
X118538514Y-100265266D01*
X118211800Y-99938553D01*
X117865353Y-100285000D01*
X117558247Y-100285000D01*
X117558247Y-100284999D01*
X117211801Y-99938553D01*
X117211800Y-99938553D01*
X116885085Y-100265266D01*
X108482400Y-100265266D01*
X108482400Y-99584996D01*
X116457054Y-99584996D01*
X116457054Y-99585003D01*
X116475975Y-99752938D01*
X116475976Y-99752943D01*
X116531532Y-99911714D01*
X116858247Y-99585000D01*
X116838356Y-99565109D01*
X117111800Y-99565109D01*
X117111800Y-99604891D01*
X117127024Y-99641645D01*
X117155155Y-99669776D01*
X117191909Y-99685000D01*
X117231691Y-99685000D01*
X117268445Y-99669776D01*
X117296576Y-99641645D01*
X117311800Y-99604891D01*
X117311800Y-99585000D01*
X117565353Y-99585000D01*
X117711800Y-99731447D01*
X117858247Y-99585000D01*
X117838356Y-99565109D01*
X118111800Y-99565109D01*
X118111800Y-99604891D01*
X118127024Y-99641645D01*
X118155155Y-99669776D01*
X118191909Y-99685000D01*
X118231691Y-99685000D01*
X118268445Y-99669776D01*
X118296576Y-99641645D01*
X118311800Y-99604891D01*
X118311800Y-99584999D01*
X118565353Y-99584999D01*
X118565353Y-99585001D01*
X118892066Y-99911714D01*
X118892067Y-99911713D01*
X118947624Y-99752943D01*
X118966546Y-99585003D01*
X118966546Y-99584996D01*
X118947624Y-99417056D01*
X118892066Y-99258285D01*
X118565353Y-99584999D01*
X118311800Y-99584999D01*
X118311800Y-99565109D01*
X118296576Y-99528355D01*
X118268445Y-99500224D01*
X118231691Y-99485000D01*
X118191909Y-99485000D01*
X118155155Y-99500224D01*
X118127024Y-99528355D01*
X118111800Y-99565109D01*
X117838356Y-99565109D01*
X117711800Y-99438553D01*
X117565353Y-99585000D01*
X117311800Y-99585000D01*
X117311800Y-99565109D01*
X117296576Y-99528355D01*
X117268445Y-99500224D01*
X117231691Y-99485000D01*
X117191909Y-99485000D01*
X117155155Y-99500224D01*
X117127024Y-99528355D01*
X117111800Y-99565109D01*
X116838356Y-99565109D01*
X116531532Y-99258285D01*
X116475976Y-99417053D01*
X116475975Y-99417058D01*
X116457054Y-99584996D01*
X108482400Y-99584996D01*
X108482400Y-98904732D01*
X116885084Y-98904732D01*
X117211799Y-99231447D01*
X117558247Y-98885000D01*
X117558246Y-98884999D01*
X117865353Y-98884999D01*
X117865353Y-98885000D01*
X118211800Y-99231447D01*
X118211801Y-99231447D01*
X118538514Y-98904732D01*
X118538485Y-98904607D01*
X118482018Y-98864107D01*
X118456271Y-98799155D01*
X118456529Y-98773904D01*
X118466546Y-98685002D01*
X118466546Y-98684996D01*
X118447624Y-98517056D01*
X118392066Y-98358285D01*
X117865353Y-98884999D01*
X117558246Y-98884999D01*
X117338356Y-98665109D01*
X117611800Y-98665109D01*
X117611800Y-98704891D01*
X117627024Y-98741645D01*
X117655155Y-98769776D01*
X117691909Y-98785000D01*
X117731691Y-98785000D01*
X117768445Y-98769776D01*
X117796576Y-98741645D01*
X117811800Y-98704891D01*
X117811800Y-98665109D01*
X117796576Y-98628355D01*
X117768445Y-98600224D01*
X117731691Y-98585000D01*
X117691909Y-98585000D01*
X117655155Y-98600224D01*
X117627024Y-98628355D01*
X117611800Y-98665109D01*
X117338356Y-98665109D01*
X117031532Y-98358285D01*
X116975976Y-98517053D01*
X116975975Y-98517058D01*
X116957054Y-98684996D01*
X116957054Y-98685004D01*
X116967070Y-98773905D01*
X116955015Y-98842727D01*
X116907666Y-98894106D01*
X116885093Y-98904693D01*
X116885084Y-98904732D01*
X108482400Y-98904732D01*
X108482400Y-96620011D01*
X111076329Y-96620011D01*
X111096115Y-96808267D01*
X111096116Y-96808270D01*
X111154607Y-96988288D01*
X111154610Y-96988295D01*
X111249256Y-97152227D01*
X111325425Y-97236821D01*
X111375918Y-97292899D01*
X111529054Y-97404159D01*
X111529059Y-97404162D01*
X111701981Y-97481153D01*
X111701986Y-97481155D01*
X111887143Y-97520511D01*
X111887144Y-97520511D01*
X112076433Y-97520511D01*
X112076435Y-97520511D01*
X112261592Y-97481155D01*
X112434519Y-97404162D01*
X112587660Y-97292899D01*
X112714322Y-97152227D01*
X112733275Y-97119400D01*
X115576940Y-97119400D01*
X115596726Y-97307656D01*
X115596727Y-97307659D01*
X115655218Y-97487677D01*
X115655220Y-97487681D01*
X115655221Y-97487684D01*
X115749867Y-97651616D01*
X115839459Y-97751118D01*
X115876529Y-97792288D01*
X116029665Y-97903548D01*
X116029670Y-97903551D01*
X116202592Y-97980542D01*
X116202597Y-97980544D01*
X116387754Y-98019900D01*
X116387755Y-98019900D01*
X116577044Y-98019900D01*
X116577046Y-98019900D01*
X116648406Y-98004732D01*
X117385085Y-98004732D01*
X117711800Y-98331447D01*
X117711801Y-98331447D01*
X117729248Y-98314000D01*
X141936340Y-98314000D01*
X141956126Y-98502256D01*
X141956127Y-98502259D01*
X142014618Y-98682277D01*
X142014621Y-98682284D01*
X142109267Y-98846216D01*
X142185733Y-98931140D01*
X142235929Y-98986888D01*
X142389065Y-99098148D01*
X142389070Y-99098151D01*
X142561992Y-99175142D01*
X142561997Y-99175144D01*
X142747154Y-99214500D01*
X142747155Y-99214500D01*
X142936444Y-99214500D01*
X142936446Y-99214500D01*
X143121603Y-99175144D01*
X143246805Y-99119400D01*
X146076940Y-99119400D01*
X146096726Y-99307656D01*
X146096727Y-99307659D01*
X146155218Y-99487677D01*
X146155221Y-99487684D01*
X146249867Y-99651616D01*
X146341098Y-99752938D01*
X146376529Y-99792288D01*
X146529665Y-99903548D01*
X146529670Y-99903551D01*
X146702592Y-99980542D01*
X146702597Y-99980544D01*
X146887754Y-100019900D01*
X146887755Y-100019900D01*
X147077044Y-100019900D01*
X147077046Y-100019900D01*
X147262203Y-99980544D01*
X147435130Y-99903551D01*
X147588271Y-99792288D01*
X147714933Y-99651616D01*
X147809579Y-99487684D01*
X147868074Y-99307656D01*
X147887860Y-99119400D01*
X147868074Y-98931144D01*
X147809579Y-98751116D01*
X147714933Y-98587184D01*
X147588271Y-98446512D01*
X147588270Y-98446511D01*
X147435134Y-98335251D01*
X147435129Y-98335248D01*
X147262207Y-98258257D01*
X147262202Y-98258255D01*
X147116401Y-98227265D01*
X147077046Y-98218900D01*
X146887754Y-98218900D01*
X146855297Y-98225798D01*
X146702597Y-98258255D01*
X146702592Y-98258257D01*
X146529670Y-98335248D01*
X146529665Y-98335251D01*
X146376529Y-98446511D01*
X146249866Y-98587185D01*
X146155221Y-98751115D01*
X146155218Y-98751122D01*
X146096727Y-98931140D01*
X146096726Y-98931144D01*
X146076940Y-99119400D01*
X143246805Y-99119400D01*
X143294530Y-99098151D01*
X143447671Y-98986888D01*
X143574333Y-98846216D01*
X143668979Y-98682284D01*
X143727474Y-98502256D01*
X143747260Y-98314000D01*
X143727474Y-98125744D01*
X143668979Y-97945716D01*
X143574333Y-97781784D01*
X143447671Y-97641112D01*
X143409668Y-97613501D01*
X143294534Y-97529851D01*
X143294529Y-97529848D01*
X143121607Y-97452857D01*
X143121602Y-97452855D01*
X142975801Y-97421865D01*
X142936446Y-97413500D01*
X142747154Y-97413500D01*
X142714697Y-97420398D01*
X142561997Y-97452855D01*
X142561992Y-97452857D01*
X142389070Y-97529848D01*
X142389065Y-97529851D01*
X142235929Y-97641111D01*
X142109266Y-97781785D01*
X142014621Y-97945715D01*
X142014618Y-97945722D01*
X141958187Y-98119400D01*
X141956126Y-98125744D01*
X141936340Y-98314000D01*
X117729248Y-98314000D01*
X118038514Y-98004732D01*
X117879743Y-97949176D01*
X117879738Y-97949175D01*
X117711804Y-97930254D01*
X117711796Y-97930254D01*
X117543858Y-97949175D01*
X117543853Y-97949176D01*
X117385085Y-98004732D01*
X116648406Y-98004732D01*
X116762203Y-97980544D01*
X116935130Y-97903551D01*
X117088271Y-97792288D01*
X117214933Y-97651616D01*
X117309579Y-97487684D01*
X117368074Y-97307656D01*
X117387860Y-97119400D01*
X117368074Y-96931144D01*
X117309579Y-96751116D01*
X117214933Y-96587184D01*
X117088271Y-96446512D01*
X117067960Y-96431755D01*
X116935134Y-96335251D01*
X116935129Y-96335248D01*
X116762207Y-96258257D01*
X116762202Y-96258255D01*
X116616401Y-96227265D01*
X116577046Y-96218900D01*
X116387754Y-96218900D01*
X116355297Y-96225798D01*
X116202597Y-96258255D01*
X116202592Y-96258257D01*
X116029670Y-96335248D01*
X116029665Y-96335251D01*
X115876529Y-96446511D01*
X115749866Y-96587185D01*
X115655221Y-96751115D01*
X115655218Y-96751122D01*
X115613770Y-96878688D01*
X115596726Y-96931144D01*
X115576940Y-97119400D01*
X112733275Y-97119400D01*
X112808968Y-96988295D01*
X112867463Y-96808267D01*
X112884980Y-96641598D01*
X112911565Y-96576985D01*
X112968862Y-96537000D01*
X113008301Y-96530561D01*
X113066383Y-96530561D01*
X113066385Y-96530561D01*
X113251542Y-96491205D01*
X113424469Y-96414212D01*
X113577610Y-96302949D01*
X113665084Y-96205800D01*
X142037940Y-96205800D01*
X142057726Y-96394056D01*
X142057727Y-96394059D01*
X142116218Y-96574077D01*
X142116221Y-96574084D01*
X142210867Y-96738016D01*
X142285548Y-96820957D01*
X142337529Y-96878688D01*
X142490665Y-96989948D01*
X142490670Y-96989951D01*
X142663592Y-97066942D01*
X142663597Y-97066944D01*
X142848754Y-97106300D01*
X142848755Y-97106300D01*
X143038044Y-97106300D01*
X143038046Y-97106300D01*
X143223203Y-97066944D01*
X143396130Y-96989951D01*
X143549271Y-96878688D01*
X143675933Y-96738016D01*
X143770579Y-96574084D01*
X143810028Y-96452673D01*
X148410214Y-96452673D01*
X148430000Y-96640929D01*
X148430001Y-96640932D01*
X148488492Y-96820950D01*
X148488495Y-96820957D01*
X148583141Y-96984889D01*
X148657022Y-97066942D01*
X148709803Y-97125561D01*
X148862939Y-97236821D01*
X148862944Y-97236824D01*
X149035866Y-97313815D01*
X149035871Y-97313817D01*
X149221028Y-97353173D01*
X149221029Y-97353173D01*
X149410318Y-97353173D01*
X149410320Y-97353173D01*
X149595477Y-97313817D01*
X149768404Y-97236824D01*
X149921545Y-97125561D01*
X149927092Y-97119400D01*
X164576940Y-97119400D01*
X164596726Y-97307656D01*
X164596727Y-97307659D01*
X164655218Y-97487677D01*
X164655220Y-97487681D01*
X164655221Y-97487684D01*
X164679565Y-97529849D01*
X164695472Y-97557401D01*
X164711943Y-97625301D01*
X164695472Y-97681399D01*
X164655220Y-97751118D01*
X164655218Y-97751122D01*
X164597015Y-97930254D01*
X164596726Y-97931144D01*
X164576940Y-98119400D01*
X164596726Y-98307656D01*
X164596727Y-98307659D01*
X164655218Y-98487677D01*
X164655220Y-98487681D01*
X164655221Y-98487684D01*
X164672179Y-98517056D01*
X164695472Y-98557401D01*
X164711943Y-98625301D01*
X164695472Y-98681399D01*
X164655220Y-98751118D01*
X164655218Y-98751122D01*
X164596727Y-98931140D01*
X164596726Y-98931144D01*
X164576940Y-99119400D01*
X164596726Y-99307656D01*
X164596727Y-99307659D01*
X164655218Y-99487677D01*
X164655221Y-99487684D01*
X164749867Y-99651616D01*
X164841098Y-99752938D01*
X164876529Y-99792288D01*
X165029665Y-99903548D01*
X165029670Y-99903551D01*
X165202592Y-99980542D01*
X165202597Y-99980544D01*
X165387754Y-100019900D01*
X165387755Y-100019900D01*
X165577044Y-100019900D01*
X165577046Y-100019900D01*
X165762203Y-99980544D01*
X165935130Y-99903551D01*
X166088271Y-99792288D01*
X166214933Y-99651616D01*
X166309579Y-99487684D01*
X166368074Y-99307656D01*
X166387860Y-99119400D01*
X166368074Y-98931144D01*
X166309579Y-98751116D01*
X166269327Y-98681399D01*
X166252854Y-98613501D01*
X166269327Y-98557401D01*
X166309579Y-98487684D01*
X166368074Y-98307656D01*
X166387860Y-98119400D01*
X166368074Y-97931144D01*
X166309579Y-97751116D01*
X166269327Y-97681399D01*
X166252854Y-97613501D01*
X166269327Y-97557401D01*
X166309579Y-97487684D01*
X166368074Y-97307656D01*
X166387860Y-97119400D01*
X166368074Y-96931144D01*
X166309579Y-96751116D01*
X166214933Y-96587184D01*
X166088271Y-96446512D01*
X166067960Y-96431755D01*
X165935134Y-96335251D01*
X165935129Y-96335248D01*
X165762207Y-96258257D01*
X165762202Y-96258255D01*
X165616401Y-96227265D01*
X165577046Y-96218900D01*
X165387754Y-96218900D01*
X165355297Y-96225798D01*
X165202597Y-96258255D01*
X165202592Y-96258257D01*
X165029670Y-96335248D01*
X165029665Y-96335251D01*
X164876529Y-96446511D01*
X164749866Y-96587185D01*
X164655221Y-96751115D01*
X164655218Y-96751122D01*
X164613770Y-96878688D01*
X164596726Y-96931144D01*
X164576940Y-97119400D01*
X149927092Y-97119400D01*
X150048207Y-96984889D01*
X150142853Y-96820957D01*
X150201348Y-96640929D01*
X150221134Y-96452673D01*
X150201348Y-96264417D01*
X150142853Y-96084389D01*
X150048207Y-95920457D01*
X149921545Y-95779785D01*
X149921544Y-95779784D01*
X149768408Y-95668524D01*
X149768403Y-95668521D01*
X149595481Y-95591530D01*
X149595476Y-95591528D01*
X149449675Y-95560538D01*
X149410320Y-95552173D01*
X149221028Y-95552173D01*
X149188571Y-95559071D01*
X149035871Y-95591528D01*
X149035866Y-95591530D01*
X148862944Y-95668521D01*
X148862939Y-95668524D01*
X148709803Y-95779784D01*
X148583140Y-95920458D01*
X148488495Y-96084388D01*
X148488492Y-96084395D01*
X148430001Y-96264413D01*
X148430000Y-96264417D01*
X148410214Y-96452673D01*
X143810028Y-96452673D01*
X143829074Y-96394056D01*
X143848860Y-96205800D01*
X143829074Y-96017544D01*
X143770579Y-95837516D01*
X143675933Y-95673584D01*
X143549271Y-95532912D01*
X143549270Y-95532911D01*
X143396134Y-95421651D01*
X143396129Y-95421648D01*
X143223207Y-95344657D01*
X143223202Y-95344655D01*
X143077401Y-95313665D01*
X143038046Y-95305300D01*
X142848754Y-95305300D01*
X142816297Y-95312198D01*
X142663597Y-95344655D01*
X142663592Y-95344657D01*
X142490670Y-95421648D01*
X142490665Y-95421651D01*
X142337529Y-95532911D01*
X142210866Y-95673585D01*
X142116221Y-95837515D01*
X142116218Y-95837522D01*
X142080607Y-95947123D01*
X142057726Y-96017544D01*
X142037940Y-96205800D01*
X113665084Y-96205800D01*
X113704272Y-96162277D01*
X113798918Y-95998345D01*
X113857413Y-95818317D01*
X113877199Y-95630061D01*
X113857413Y-95441805D01*
X113798918Y-95261777D01*
X113704272Y-95097845D01*
X113577610Y-94957173D01*
X113577609Y-94957172D01*
X113424473Y-94845912D01*
X113424468Y-94845909D01*
X113251546Y-94768918D01*
X113251541Y-94768916D01*
X113105740Y-94737926D01*
X113066385Y-94729561D01*
X112877093Y-94729561D01*
X112844636Y-94736459D01*
X112691936Y-94768916D01*
X112691931Y-94768918D01*
X112519009Y-94845909D01*
X112519004Y-94845912D01*
X112365868Y-94957172D01*
X112239205Y-95097846D01*
X112144560Y-95261776D01*
X112144557Y-95261783D01*
X112117630Y-95344657D01*
X112086065Y-95441805D01*
X112076490Y-95532911D01*
X112068548Y-95608473D01*
X112041963Y-95673087D01*
X111984666Y-95713072D01*
X111945227Y-95719511D01*
X111887143Y-95719511D01*
X111854686Y-95726409D01*
X111701986Y-95758866D01*
X111701981Y-95758868D01*
X111529059Y-95835859D01*
X111529054Y-95835862D01*
X111375918Y-95947122D01*
X111249255Y-96087796D01*
X111154610Y-96251726D01*
X111154607Y-96251733D01*
X111127471Y-96335251D01*
X111096115Y-96431755D01*
X111076329Y-96620011D01*
X108482400Y-96620011D01*
X108482400Y-91619399D01*
X114106741Y-91619399D01*
X114106741Y-91619400D01*
X114127336Y-91854803D01*
X114127338Y-91854813D01*
X114188494Y-92083055D01*
X114188496Y-92083059D01*
X114188497Y-92083063D01*
X114268201Y-92253988D01*
X114288365Y-92297230D01*
X114288367Y-92297234D01*
X114396681Y-92451921D01*
X114423905Y-92490801D01*
X114590999Y-92657895D01*
X114662135Y-92707705D01*
X114784565Y-92793432D01*
X114784567Y-92793433D01*
X114784570Y-92793435D01*
X114998737Y-92893303D01*
X115226992Y-92954463D01*
X115415318Y-92970939D01*
X115462399Y-92975059D01*
X115462400Y-92975059D01*
X115462401Y-92975059D01*
X115501634Y-92971626D01*
X115697808Y-92954463D01*
X115926063Y-92893303D01*
X116140230Y-92793435D01*
X116333801Y-92657895D01*
X116500895Y-92490801D01*
X116630825Y-92305242D01*
X116685402Y-92261617D01*
X116754900Y-92254423D01*
X116817255Y-92285946D01*
X116833975Y-92305242D01*
X116963900Y-92490795D01*
X116963905Y-92490801D01*
X117130999Y-92657895D01*
X117202135Y-92707705D01*
X117324565Y-92793432D01*
X117324567Y-92793433D01*
X117324570Y-92793435D01*
X117538737Y-92893303D01*
X117766992Y-92954463D01*
X117955318Y-92970939D01*
X118002399Y-92975059D01*
X118002400Y-92975059D01*
X118002401Y-92975059D01*
X118041634Y-92971626D01*
X118237808Y-92954463D01*
X118466063Y-92893303D01*
X118680230Y-92793435D01*
X118873801Y-92657895D01*
X119040895Y-92490801D01*
X119170825Y-92305242D01*
X119225402Y-92261617D01*
X119294900Y-92254423D01*
X119357255Y-92285946D01*
X119373975Y-92305242D01*
X119503900Y-92490795D01*
X119503905Y-92490801D01*
X119670999Y-92657895D01*
X119742135Y-92707705D01*
X119864565Y-92793432D01*
X119864567Y-92793433D01*
X119864570Y-92793435D01*
X120078737Y-92893303D01*
X120306992Y-92954463D01*
X120495318Y-92970939D01*
X120542399Y-92975059D01*
X120542400Y-92975059D01*
X120542401Y-92975059D01*
X120581634Y-92971626D01*
X120777808Y-92954463D01*
X121006063Y-92893303D01*
X121220230Y-92793435D01*
X121413801Y-92657895D01*
X121580895Y-92490801D01*
X121711130Y-92304805D01*
X121765707Y-92261181D01*
X121835205Y-92253987D01*
X121897560Y-92285510D01*
X121914279Y-92304805D01*
X122044290Y-92490478D01*
X122211317Y-92657505D01*
X122404821Y-92793000D01*
X122618907Y-92892829D01*
X122618916Y-92892833D01*
X122832400Y-92950034D01*
X122832400Y-92052412D01*
X122889407Y-92085325D01*
X123016574Y-92119400D01*
X123148226Y-92119400D01*
X123275393Y-92085325D01*
X123332400Y-92052412D01*
X123332400Y-92950033D01*
X123545883Y-92892833D01*
X123545892Y-92892829D01*
X123759978Y-92793000D01*
X123953482Y-92657505D01*
X124120505Y-92490482D01*
X124250519Y-92304805D01*
X124305096Y-92261181D01*
X124374595Y-92253988D01*
X124436949Y-92285510D01*
X124453669Y-92304805D01*
X124583905Y-92490801D01*
X124750999Y-92657895D01*
X124822135Y-92707705D01*
X124944565Y-92793432D01*
X124944567Y-92793433D01*
X124944570Y-92793435D01*
X125158737Y-92893303D01*
X125386992Y-92954463D01*
X125575318Y-92970939D01*
X125622399Y-92975059D01*
X125622400Y-92975059D01*
X125622401Y-92975059D01*
X125661634Y-92971626D01*
X125857808Y-92954463D01*
X126086063Y-92893303D01*
X126300230Y-92793435D01*
X126493801Y-92657895D01*
X126660895Y-92490801D01*
X126791130Y-92304805D01*
X126845707Y-92261181D01*
X126915205Y-92253987D01*
X126977560Y-92285510D01*
X126994279Y-92304805D01*
X127124290Y-92490478D01*
X127291317Y-92657505D01*
X127484821Y-92793000D01*
X127698907Y-92892829D01*
X127698916Y-92892833D01*
X127912400Y-92950034D01*
X127912400Y-92052412D01*
X127969407Y-92085325D01*
X128096574Y-92119400D01*
X128228226Y-92119400D01*
X128355393Y-92085325D01*
X128412400Y-92052412D01*
X128412400Y-92950033D01*
X128625883Y-92892833D01*
X128625892Y-92892829D01*
X128839978Y-92793000D01*
X129033482Y-92657505D01*
X129200505Y-92490482D01*
X129330519Y-92304805D01*
X129385096Y-92261181D01*
X129454595Y-92253988D01*
X129516949Y-92285510D01*
X129533669Y-92304805D01*
X129663905Y-92490801D01*
X129830999Y-92657895D01*
X129902135Y-92707705D01*
X130024565Y-92793432D01*
X130024567Y-92793433D01*
X130024570Y-92793435D01*
X130238737Y-92893303D01*
X130466992Y-92954463D01*
X130655318Y-92970939D01*
X130702399Y-92975059D01*
X130702400Y-92975059D01*
X130702401Y-92975059D01*
X130741634Y-92971626D01*
X130937808Y-92954463D01*
X131071193Y-92918723D01*
X131141042Y-92920386D01*
X131198904Y-92959549D01*
X131226408Y-93023777D01*
X131214821Y-93092679D01*
X131210673Y-93100497D01*
X131135245Y-93231143D01*
X131135243Y-93231147D01*
X131101418Y-93335251D01*
X131076751Y-93411169D01*
X131056965Y-93599425D01*
X131076751Y-93787681D01*
X131076752Y-93787684D01*
X131135243Y-93967702D01*
X131135246Y-93967709D01*
X131229892Y-94131641D01*
X131356554Y-94272313D01*
X131509690Y-94383573D01*
X131509695Y-94383576D01*
X131682617Y-94460567D01*
X131682622Y-94460569D01*
X131867779Y-94499925D01*
X131867780Y-94499925D01*
X132057069Y-94499925D01*
X132057071Y-94499925D01*
X132242228Y-94460569D01*
X132415155Y-94383576D01*
X132568296Y-94272313D01*
X132694958Y-94131641D01*
X132702025Y-94119400D01*
X157076940Y-94119400D01*
X157096726Y-94307656D01*
X157096727Y-94307659D01*
X157155218Y-94487677D01*
X157155221Y-94487684D01*
X157249867Y-94651616D01*
X157376529Y-94792288D01*
X157529665Y-94903548D01*
X157529670Y-94903551D01*
X157702592Y-94980542D01*
X157702597Y-94980544D01*
X157887754Y-95019900D01*
X157887755Y-95019900D01*
X158077044Y-95019900D01*
X158077046Y-95019900D01*
X158262203Y-94980544D01*
X158435130Y-94903551D01*
X158588271Y-94792288D01*
X158714933Y-94651616D01*
X158809579Y-94487684D01*
X158868074Y-94307656D01*
X158887860Y-94119400D01*
X158868074Y-93931144D01*
X158809579Y-93751116D01*
X158714933Y-93587184D01*
X158588271Y-93446512D01*
X158588270Y-93446511D01*
X158435134Y-93335251D01*
X158435129Y-93335248D01*
X158262207Y-93258257D01*
X158262202Y-93258255D01*
X158116401Y-93227265D01*
X158077046Y-93218900D01*
X157887754Y-93218900D01*
X157855297Y-93225798D01*
X157702597Y-93258255D01*
X157702592Y-93258257D01*
X157529670Y-93335248D01*
X157529665Y-93335251D01*
X157376529Y-93446511D01*
X157249866Y-93587185D01*
X157155221Y-93751115D01*
X157155218Y-93751122D01*
X157096727Y-93931140D01*
X157096726Y-93931144D01*
X157076940Y-94119400D01*
X132702025Y-94119400D01*
X132789604Y-93967709D01*
X132848099Y-93787681D01*
X132867885Y-93599425D01*
X132848099Y-93411169D01*
X132789604Y-93231141D01*
X132710525Y-93094173D01*
X132694053Y-93026274D01*
X132716906Y-92960247D01*
X132771827Y-92917056D01*
X132841380Y-92910415D01*
X132849999Y-92912397D01*
X133006992Y-92954463D01*
X133195318Y-92970939D01*
X133242399Y-92975059D01*
X133242400Y-92975059D01*
X133242401Y-92975059D01*
X133281634Y-92971626D01*
X133477808Y-92954463D01*
X133706063Y-92893303D01*
X133920230Y-92793435D01*
X134113801Y-92657895D01*
X134280895Y-92490801D01*
X134410825Y-92305242D01*
X134465402Y-92261617D01*
X134534900Y-92254423D01*
X134597255Y-92285946D01*
X134613975Y-92305242D01*
X134743900Y-92490795D01*
X134743905Y-92490801D01*
X134910999Y-92657895D01*
X134982135Y-92707705D01*
X135104565Y-92793432D01*
X135104567Y-92793433D01*
X135104570Y-92793435D01*
X135318737Y-92893303D01*
X135546992Y-92954463D01*
X135735318Y-92970939D01*
X135782399Y-92975059D01*
X135782400Y-92975059D01*
X135782401Y-92975059D01*
X135821634Y-92971626D01*
X136017808Y-92954463D01*
X136246063Y-92893303D01*
X136460230Y-92793435D01*
X136653801Y-92657895D01*
X136820895Y-92490801D01*
X136950825Y-92305242D01*
X137005402Y-92261617D01*
X137074900Y-92254423D01*
X137137255Y-92285946D01*
X137153975Y-92305242D01*
X137283900Y-92490795D01*
X137283905Y-92490801D01*
X137450999Y-92657895D01*
X137522135Y-92707705D01*
X137644565Y-92793432D01*
X137644567Y-92793433D01*
X137644570Y-92793435D01*
X137858737Y-92893303D01*
X138086992Y-92954463D01*
X138275318Y-92970939D01*
X138322399Y-92975059D01*
X138322400Y-92975059D01*
X138322401Y-92975059D01*
X138361634Y-92971626D01*
X138557808Y-92954463D01*
X138786063Y-92893303D01*
X139000230Y-92793435D01*
X139193801Y-92657895D01*
X139360895Y-92490801D01*
X139491130Y-92304805D01*
X139545707Y-92261181D01*
X139615205Y-92253987D01*
X139677560Y-92285510D01*
X139694279Y-92304805D01*
X139824290Y-92490478D01*
X139991317Y-92657505D01*
X140184821Y-92793000D01*
X140398907Y-92892829D01*
X140398916Y-92892833D01*
X140612400Y-92950034D01*
X140612400Y-92052412D01*
X140669407Y-92085325D01*
X140796574Y-92119400D01*
X140928226Y-92119400D01*
X141055393Y-92085325D01*
X141112400Y-92052412D01*
X141112400Y-92950034D01*
X141325883Y-92892833D01*
X141325892Y-92892829D01*
X141539978Y-92793000D01*
X141733482Y-92657505D01*
X141900505Y-92490482D01*
X142030519Y-92304805D01*
X142085096Y-92261181D01*
X142154595Y-92253988D01*
X142216949Y-92285510D01*
X142233669Y-92304805D01*
X142363905Y-92490801D01*
X142530999Y-92657895D01*
X142602135Y-92707705D01*
X142724565Y-92793432D01*
X142724567Y-92793433D01*
X142724570Y-92793435D01*
X142938737Y-92893303D01*
X143166992Y-92954463D01*
X143355318Y-92970939D01*
X143402399Y-92975059D01*
X143402400Y-92975059D01*
X143402401Y-92975059D01*
X143441634Y-92971626D01*
X143637808Y-92954463D01*
X143866063Y-92893303D01*
X144080230Y-92793435D01*
X144273801Y-92657895D01*
X144440895Y-92490801D01*
X144570825Y-92305242D01*
X144625402Y-92261617D01*
X144694900Y-92254423D01*
X144757255Y-92285946D01*
X144773975Y-92305242D01*
X144903900Y-92490795D01*
X144903905Y-92490801D01*
X145070999Y-92657895D01*
X145142135Y-92707705D01*
X145264565Y-92793432D01*
X145264567Y-92793433D01*
X145264570Y-92793435D01*
X145478737Y-92893303D01*
X145706992Y-92954463D01*
X145895318Y-92970939D01*
X145942399Y-92975059D01*
X145942400Y-92975059D01*
X145942401Y-92975059D01*
X145981634Y-92971626D01*
X146177808Y-92954463D01*
X146406063Y-92893303D01*
X146620230Y-92793435D01*
X146813801Y-92657895D01*
X146980895Y-92490801D01*
X147111130Y-92304805D01*
X147165707Y-92261181D01*
X147235205Y-92253987D01*
X147297560Y-92285510D01*
X147314279Y-92304805D01*
X147444290Y-92490478D01*
X147611317Y-92657505D01*
X147804821Y-92793000D01*
X148018907Y-92892829D01*
X148018916Y-92892833D01*
X148232400Y-92950034D01*
X148232400Y-92052412D01*
X148289407Y-92085325D01*
X148416574Y-92119400D01*
X148548226Y-92119400D01*
X148675393Y-92085325D01*
X148732400Y-92052412D01*
X148732400Y-92950033D01*
X148945883Y-92892833D01*
X148945892Y-92892829D01*
X149159978Y-92793000D01*
X149353482Y-92657505D01*
X149520505Y-92490482D01*
X149650519Y-92304805D01*
X149705096Y-92261181D01*
X149774595Y-92253988D01*
X149836949Y-92285510D01*
X149853669Y-92304805D01*
X149983905Y-92490801D01*
X150150999Y-92657895D01*
X150222135Y-92707705D01*
X150344565Y-92793432D01*
X150344567Y-92793433D01*
X150344570Y-92793435D01*
X150558737Y-92893303D01*
X150786992Y-92954463D01*
X150975318Y-92970939D01*
X151022399Y-92975059D01*
X151022400Y-92975059D01*
X151022401Y-92975059D01*
X151061634Y-92971626D01*
X151257808Y-92954463D01*
X151486063Y-92893303D01*
X151700230Y-92793435D01*
X151893801Y-92657895D01*
X152060895Y-92490801D01*
X152190825Y-92305242D01*
X152245402Y-92261617D01*
X152314900Y-92254423D01*
X152377255Y-92285946D01*
X152393975Y-92305242D01*
X152523900Y-92490795D01*
X152523905Y-92490801D01*
X152690999Y-92657895D01*
X152762135Y-92707705D01*
X152884565Y-92793432D01*
X152884567Y-92793433D01*
X152884570Y-92793435D01*
X153098737Y-92893303D01*
X153326992Y-92954463D01*
X153515318Y-92970939D01*
X153562399Y-92975059D01*
X153562400Y-92975059D01*
X153562401Y-92975059D01*
X153601634Y-92971626D01*
X153797808Y-92954463D01*
X154026063Y-92893303D01*
X154240230Y-92793435D01*
X154433801Y-92657895D01*
X154600895Y-92490801D01*
X154730825Y-92305242D01*
X154785402Y-92261617D01*
X154854900Y-92254423D01*
X154917255Y-92285946D01*
X154933975Y-92305242D01*
X155063900Y-92490795D01*
X155063905Y-92490801D01*
X155230999Y-92657895D01*
X155302135Y-92707705D01*
X155424565Y-92793432D01*
X155424567Y-92793433D01*
X155424570Y-92793435D01*
X155638737Y-92893303D01*
X155866992Y-92954463D01*
X156055318Y-92970939D01*
X156102399Y-92975059D01*
X156102400Y-92975059D01*
X156102401Y-92975059D01*
X156141634Y-92971626D01*
X156337808Y-92954463D01*
X156566063Y-92893303D01*
X156780230Y-92793435D01*
X156973801Y-92657895D01*
X157140895Y-92490801D01*
X157271130Y-92304805D01*
X157325707Y-92261181D01*
X157395205Y-92253987D01*
X157457560Y-92285510D01*
X157474279Y-92304805D01*
X157604290Y-92490478D01*
X157771317Y-92657505D01*
X157964821Y-92793000D01*
X158178907Y-92892829D01*
X158178916Y-92892833D01*
X158392400Y-92950034D01*
X158392400Y-92052412D01*
X158449407Y-92085325D01*
X158576574Y-92119400D01*
X158708226Y-92119400D01*
X158835393Y-92085325D01*
X158892400Y-92052412D01*
X158892400Y-92950033D01*
X159105883Y-92892833D01*
X159105892Y-92892829D01*
X159319978Y-92793000D01*
X159513482Y-92657505D01*
X159680505Y-92490482D01*
X159810519Y-92304805D01*
X159865096Y-92261181D01*
X159934595Y-92253988D01*
X159996949Y-92285510D01*
X160013669Y-92304805D01*
X160143905Y-92490801D01*
X160310999Y-92657895D01*
X160382135Y-92707705D01*
X160504565Y-92793432D01*
X160504567Y-92793433D01*
X160504570Y-92793435D01*
X160718737Y-92893303D01*
X160946992Y-92954463D01*
X161135318Y-92970939D01*
X161182399Y-92975059D01*
X161182400Y-92975059D01*
X161182401Y-92975059D01*
X161221634Y-92971626D01*
X161417808Y-92954463D01*
X161646063Y-92893303D01*
X161860230Y-92793435D01*
X162053801Y-92657895D01*
X162220895Y-92490801D01*
X162350825Y-92305242D01*
X162405402Y-92261617D01*
X162474900Y-92254423D01*
X162537255Y-92285946D01*
X162553975Y-92305242D01*
X162683900Y-92490795D01*
X162683905Y-92490801D01*
X162850999Y-92657895D01*
X162922135Y-92707705D01*
X163044565Y-92793432D01*
X163044567Y-92793433D01*
X163044570Y-92793435D01*
X163258737Y-92893303D01*
X163486992Y-92954463D01*
X163675318Y-92970939D01*
X163722399Y-92975059D01*
X163722400Y-92975059D01*
X163722401Y-92975059D01*
X163761634Y-92971626D01*
X163957808Y-92954463D01*
X164186063Y-92893303D01*
X164400230Y-92793435D01*
X164593801Y-92657895D01*
X164760895Y-92490801D01*
X164896435Y-92297230D01*
X164996303Y-92083063D01*
X165057463Y-91854808D01*
X165078059Y-91619400D01*
X165057463Y-91383992D01*
X164996303Y-91155737D01*
X164896435Y-90941571D01*
X164891130Y-90933995D01*
X164760896Y-90748000D01*
X164760890Y-90747994D01*
X164638967Y-90626071D01*
X164605484Y-90564751D01*
X164610468Y-90495059D01*
X164652339Y-90439125D01*
X164683315Y-90422210D01*
X164814731Y-90373196D01*
X164929946Y-90286946D01*
X165016196Y-90171731D01*
X165066491Y-90036883D01*
X165072900Y-89977273D01*
X165072899Y-88181528D01*
X165066491Y-88121917D01*
X165065210Y-88118483D01*
X165016197Y-87987071D01*
X165016193Y-87987064D01*
X164929947Y-87871855D01*
X164929944Y-87871852D01*
X164814735Y-87785606D01*
X164814728Y-87785602D01*
X164679882Y-87735308D01*
X164679883Y-87735308D01*
X164620283Y-87728901D01*
X164620281Y-87728900D01*
X164620273Y-87728900D01*
X164620264Y-87728900D01*
X162824529Y-87728900D01*
X162824523Y-87728901D01*
X162764916Y-87735308D01*
X162630071Y-87785602D01*
X162630064Y-87785606D01*
X162514855Y-87871852D01*
X162514852Y-87871855D01*
X162428606Y-87987064D01*
X162428603Y-87987069D01*
X162379589Y-88118483D01*
X162337717Y-88174416D01*
X162272253Y-88198833D01*
X162203980Y-88183981D01*
X162175726Y-88162830D01*
X162053802Y-88040906D01*
X162053795Y-88040901D01*
X161860234Y-87905367D01*
X161860230Y-87905365D01*
X161860228Y-87905364D01*
X161646063Y-87805497D01*
X161646059Y-87805496D01*
X161646055Y-87805494D01*
X161417813Y-87744338D01*
X161417803Y-87744336D01*
X161182401Y-87723741D01*
X161182399Y-87723741D01*
X160946996Y-87744336D01*
X160946986Y-87744338D01*
X160718744Y-87805494D01*
X160718735Y-87805498D01*
X160504571Y-87905364D01*
X160504569Y-87905365D01*
X160310997Y-88040905D01*
X160143905Y-88207997D01*
X160013975Y-88393558D01*
X159959398Y-88437183D01*
X159889900Y-88444377D01*
X159827545Y-88412854D01*
X159810825Y-88393558D01*
X159680894Y-88207997D01*
X159513802Y-88040906D01*
X159513795Y-88040901D01*
X159320234Y-87905367D01*
X159320230Y-87905365D01*
X159320228Y-87905364D01*
X159106063Y-87805497D01*
X159106059Y-87805496D01*
X159106055Y-87805494D01*
X158877813Y-87744338D01*
X158877803Y-87744336D01*
X158642401Y-87723741D01*
X158642399Y-87723741D01*
X158406996Y-87744336D01*
X158406986Y-87744338D01*
X158178744Y-87805494D01*
X158178735Y-87805498D01*
X157964571Y-87905364D01*
X157964569Y-87905365D01*
X157770997Y-88040905D01*
X157603905Y-88207997D01*
X157473975Y-88393558D01*
X157419398Y-88437183D01*
X157349900Y-88444377D01*
X157287545Y-88412854D01*
X157270825Y-88393558D01*
X157140894Y-88207997D01*
X156973802Y-88040906D01*
X156973795Y-88040901D01*
X156780234Y-87905367D01*
X156780230Y-87905365D01*
X156780228Y-87905364D01*
X156566063Y-87805497D01*
X156566059Y-87805496D01*
X156566055Y-87805494D01*
X156337813Y-87744338D01*
X156337803Y-87744336D01*
X156102401Y-87723741D01*
X156102399Y-87723741D01*
X155866996Y-87744336D01*
X155866986Y-87744338D01*
X155638744Y-87805494D01*
X155638735Y-87805498D01*
X155424571Y-87905364D01*
X155424569Y-87905365D01*
X155230997Y-88040905D01*
X155063908Y-88207994D01*
X154933669Y-88393995D01*
X154879092Y-88437619D01*
X154809593Y-88444812D01*
X154747239Y-88413290D01*
X154730519Y-88393994D01*
X154600513Y-88208326D01*
X154600508Y-88208320D01*
X154433482Y-88041294D01*
X154239978Y-87905799D01*
X154025892Y-87805970D01*
X154025886Y-87805967D01*
X153812400Y-87748764D01*
X153812400Y-88646388D01*
X153755393Y-88613475D01*
X153628226Y-88579400D01*
X153496574Y-88579400D01*
X153369407Y-88613475D01*
X153312400Y-88646388D01*
X153312400Y-87748764D01*
X153312399Y-87748764D01*
X153098913Y-87805967D01*
X153098907Y-87805970D01*
X152884822Y-87905799D01*
X152884820Y-87905800D01*
X152691326Y-88041286D01*
X152691320Y-88041291D01*
X152524291Y-88208320D01*
X152524290Y-88208322D01*
X152394280Y-88393995D01*
X152339703Y-88437619D01*
X152270204Y-88444812D01*
X152207850Y-88413290D01*
X152191130Y-88393994D01*
X152060894Y-88207997D01*
X151893802Y-88040906D01*
X151893795Y-88040901D01*
X151700234Y-87905367D01*
X151700230Y-87905365D01*
X151700228Y-87905364D01*
X151486063Y-87805497D01*
X151486059Y-87805496D01*
X151486055Y-87805494D01*
X151257813Y-87744338D01*
X151257803Y-87744336D01*
X151022401Y-87723741D01*
X151022399Y-87723741D01*
X150786996Y-87744336D01*
X150786986Y-87744338D01*
X150558744Y-87805494D01*
X150558735Y-87805498D01*
X150344571Y-87905364D01*
X150344569Y-87905365D01*
X150150997Y-88040905D01*
X149983905Y-88207997D01*
X149853975Y-88393558D01*
X149799398Y-88437183D01*
X149729900Y-88444377D01*
X149667545Y-88412854D01*
X149650825Y-88393558D01*
X149520894Y-88207997D01*
X149353802Y-88040906D01*
X149353795Y-88040901D01*
X149160234Y-87905367D01*
X149160230Y-87905365D01*
X149160228Y-87905364D01*
X148946063Y-87805497D01*
X148946059Y-87805496D01*
X148946055Y-87805494D01*
X148717813Y-87744338D01*
X148717803Y-87744336D01*
X148482401Y-87723741D01*
X148482399Y-87723741D01*
X148246996Y-87744336D01*
X148246986Y-87744338D01*
X148018744Y-87805494D01*
X148018735Y-87805498D01*
X147804571Y-87905364D01*
X147804569Y-87905365D01*
X147610997Y-88040905D01*
X147443905Y-88207997D01*
X147313975Y-88393558D01*
X147259398Y-88437183D01*
X147189900Y-88444377D01*
X147127545Y-88412854D01*
X147110825Y-88393558D01*
X146980894Y-88207997D01*
X146813802Y-88040906D01*
X146813795Y-88040901D01*
X146620234Y-87905367D01*
X146620230Y-87905365D01*
X146620228Y-87905364D01*
X146406063Y-87805497D01*
X146406059Y-87805496D01*
X146406055Y-87805494D01*
X146177813Y-87744338D01*
X146177803Y-87744336D01*
X145942401Y-87723741D01*
X145942399Y-87723741D01*
X145706996Y-87744336D01*
X145706986Y-87744338D01*
X145478744Y-87805494D01*
X145478735Y-87805498D01*
X145264571Y-87905364D01*
X145264569Y-87905365D01*
X145070997Y-88040905D01*
X144903905Y-88207997D01*
X144773975Y-88393558D01*
X144719398Y-88437183D01*
X144649900Y-88444377D01*
X144587545Y-88412854D01*
X144570825Y-88393558D01*
X144440894Y-88207997D01*
X144273802Y-88040906D01*
X144273795Y-88040901D01*
X144080234Y-87905367D01*
X144080230Y-87905365D01*
X144080228Y-87905364D01*
X143866063Y-87805497D01*
X143866059Y-87805496D01*
X143866055Y-87805494D01*
X143637813Y-87744338D01*
X143637803Y-87744336D01*
X143402401Y-87723741D01*
X143402399Y-87723741D01*
X143166996Y-87744336D01*
X143166986Y-87744338D01*
X142938744Y-87805494D01*
X142938735Y-87805498D01*
X142724571Y-87905364D01*
X142724569Y-87905365D01*
X142530997Y-88040905D01*
X142363905Y-88207997D01*
X142233975Y-88393558D01*
X142179398Y-88437183D01*
X142109900Y-88444377D01*
X142047545Y-88412854D01*
X142030825Y-88393558D01*
X141900894Y-88207997D01*
X141733802Y-88040906D01*
X141733795Y-88040901D01*
X141540234Y-87905367D01*
X141540230Y-87905365D01*
X141540228Y-87905364D01*
X141326063Y-87805497D01*
X141326059Y-87805496D01*
X141326055Y-87805494D01*
X141097813Y-87744338D01*
X141097803Y-87744336D01*
X140862401Y-87723741D01*
X140862399Y-87723741D01*
X140626996Y-87744336D01*
X140626986Y-87744338D01*
X140398744Y-87805494D01*
X140398735Y-87805498D01*
X140184571Y-87905364D01*
X140184569Y-87905365D01*
X139990997Y-88040905D01*
X139823905Y-88207997D01*
X139693975Y-88393558D01*
X139639398Y-88437183D01*
X139569900Y-88444377D01*
X139507545Y-88412854D01*
X139490825Y-88393558D01*
X139360894Y-88207997D01*
X139193802Y-88040906D01*
X139193795Y-88040901D01*
X139000234Y-87905367D01*
X139000230Y-87905365D01*
X139000228Y-87905364D01*
X138786063Y-87805497D01*
X138786059Y-87805496D01*
X138786055Y-87805494D01*
X138557813Y-87744338D01*
X138557803Y-87744336D01*
X138322401Y-87723741D01*
X138322399Y-87723741D01*
X138086996Y-87744336D01*
X138086986Y-87744338D01*
X137858744Y-87805494D01*
X137858735Y-87805498D01*
X137644571Y-87905364D01*
X137644569Y-87905365D01*
X137450997Y-88040905D01*
X137283905Y-88207997D01*
X137153975Y-88393558D01*
X137099398Y-88437183D01*
X137029900Y-88444377D01*
X136967545Y-88412854D01*
X136950825Y-88393558D01*
X136820894Y-88207997D01*
X136653802Y-88040906D01*
X136653795Y-88040901D01*
X136460234Y-87905367D01*
X136460230Y-87905365D01*
X136460228Y-87905364D01*
X136246063Y-87805497D01*
X136246059Y-87805496D01*
X136246055Y-87805494D01*
X136017813Y-87744338D01*
X136017803Y-87744336D01*
X135782401Y-87723741D01*
X135782399Y-87723741D01*
X135546996Y-87744336D01*
X135546986Y-87744338D01*
X135318744Y-87805494D01*
X135318735Y-87805498D01*
X135104571Y-87905364D01*
X135104569Y-87905365D01*
X134910997Y-88040905D01*
X134743908Y-88207994D01*
X134613669Y-88393995D01*
X134559092Y-88437619D01*
X134489593Y-88444812D01*
X134427239Y-88413290D01*
X134410519Y-88393994D01*
X134280513Y-88208326D01*
X134280508Y-88208320D01*
X134113482Y-88041294D01*
X133919978Y-87905799D01*
X133705892Y-87805970D01*
X133705886Y-87805967D01*
X133492400Y-87748764D01*
X133492400Y-88646388D01*
X133435393Y-88613475D01*
X133308226Y-88579400D01*
X133176574Y-88579400D01*
X133049407Y-88613475D01*
X132992400Y-88646388D01*
X132992400Y-87748764D01*
X132992399Y-87748764D01*
X132778913Y-87805967D01*
X132778907Y-87805970D01*
X132564822Y-87905799D01*
X132564820Y-87905800D01*
X132371326Y-88041286D01*
X132371320Y-88041291D01*
X132204291Y-88208320D01*
X132204290Y-88208322D01*
X132074280Y-88393995D01*
X132019703Y-88437619D01*
X131950204Y-88444812D01*
X131887850Y-88413290D01*
X131871130Y-88393994D01*
X131740894Y-88207997D01*
X131573802Y-88040906D01*
X131573795Y-88040901D01*
X131380234Y-87905367D01*
X131380230Y-87905365D01*
X131380228Y-87905364D01*
X131166063Y-87805497D01*
X131166059Y-87805496D01*
X131166055Y-87805494D01*
X130937813Y-87744338D01*
X130937803Y-87744336D01*
X130702401Y-87723741D01*
X130702399Y-87723741D01*
X130466996Y-87744336D01*
X130466986Y-87744338D01*
X130238744Y-87805494D01*
X130238735Y-87805498D01*
X130024571Y-87905364D01*
X130024569Y-87905365D01*
X129830997Y-88040905D01*
X129663905Y-88207997D01*
X129533975Y-88393558D01*
X129479398Y-88437183D01*
X129409900Y-88444377D01*
X129347545Y-88412854D01*
X129330825Y-88393558D01*
X129200894Y-88207997D01*
X129033802Y-88040906D01*
X129033795Y-88040901D01*
X128840234Y-87905367D01*
X128840230Y-87905365D01*
X128840228Y-87905364D01*
X128626063Y-87805497D01*
X128626059Y-87805496D01*
X128626055Y-87805494D01*
X128397813Y-87744338D01*
X128397803Y-87744336D01*
X128162401Y-87723741D01*
X128162399Y-87723741D01*
X127926996Y-87744336D01*
X127926986Y-87744338D01*
X127698744Y-87805494D01*
X127698735Y-87805498D01*
X127484571Y-87905364D01*
X127484569Y-87905365D01*
X127290997Y-88040905D01*
X127123905Y-88207997D01*
X126993975Y-88393558D01*
X126939398Y-88437183D01*
X126869900Y-88444377D01*
X126807545Y-88412854D01*
X126790825Y-88393558D01*
X126660894Y-88207997D01*
X126493802Y-88040906D01*
X126493795Y-88040901D01*
X126300234Y-87905367D01*
X126300230Y-87905365D01*
X126300228Y-87905364D01*
X126086063Y-87805497D01*
X126086059Y-87805496D01*
X126086055Y-87805494D01*
X125857813Y-87744338D01*
X125857803Y-87744336D01*
X125622401Y-87723741D01*
X125622399Y-87723741D01*
X125386996Y-87744336D01*
X125386986Y-87744338D01*
X125158744Y-87805494D01*
X125158735Y-87805498D01*
X124944571Y-87905364D01*
X124944569Y-87905365D01*
X124750997Y-88040905D01*
X124583905Y-88207997D01*
X124453975Y-88393558D01*
X124399398Y-88437183D01*
X124329900Y-88444377D01*
X124267545Y-88412854D01*
X124250825Y-88393558D01*
X124120894Y-88207997D01*
X123953802Y-88040906D01*
X123953795Y-88040901D01*
X123760234Y-87905367D01*
X123760230Y-87905365D01*
X123760228Y-87905364D01*
X123546063Y-87805497D01*
X123546059Y-87805496D01*
X123546055Y-87805494D01*
X123317813Y-87744338D01*
X123317803Y-87744336D01*
X123082401Y-87723741D01*
X123082399Y-87723741D01*
X122846996Y-87744336D01*
X122846986Y-87744338D01*
X122618744Y-87805494D01*
X122618735Y-87805498D01*
X122404571Y-87905364D01*
X122404569Y-87905365D01*
X122210997Y-88040905D01*
X122043905Y-88207997D01*
X121913975Y-88393558D01*
X121859398Y-88437183D01*
X121789900Y-88444377D01*
X121727545Y-88412854D01*
X121710825Y-88393558D01*
X121580894Y-88207997D01*
X121413802Y-88040906D01*
X121413795Y-88040901D01*
X121220234Y-87905367D01*
X121220230Y-87905365D01*
X121220228Y-87905364D01*
X121006063Y-87805497D01*
X121006059Y-87805496D01*
X121006055Y-87805494D01*
X120777813Y-87744338D01*
X120777803Y-87744336D01*
X120542401Y-87723741D01*
X120542399Y-87723741D01*
X120306996Y-87744336D01*
X120306986Y-87744338D01*
X120078744Y-87805494D01*
X120078735Y-87805498D01*
X119864571Y-87905364D01*
X119864569Y-87905365D01*
X119670997Y-88040905D01*
X119503905Y-88207997D01*
X119373975Y-88393558D01*
X119319398Y-88437183D01*
X119249900Y-88444377D01*
X119187545Y-88412854D01*
X119170825Y-88393558D01*
X119040894Y-88207997D01*
X118873802Y-88040906D01*
X118873795Y-88040901D01*
X118680234Y-87905367D01*
X118680230Y-87905365D01*
X118680228Y-87905364D01*
X118466063Y-87805497D01*
X118466059Y-87805496D01*
X118466055Y-87805494D01*
X118237813Y-87744338D01*
X118237803Y-87744336D01*
X118002401Y-87723741D01*
X118002399Y-87723741D01*
X117766996Y-87744336D01*
X117766986Y-87744338D01*
X117538744Y-87805494D01*
X117538735Y-87805498D01*
X117324571Y-87905364D01*
X117324569Y-87905365D01*
X117130997Y-88040905D01*
X116963908Y-88207994D01*
X116833669Y-88393995D01*
X116779092Y-88437619D01*
X116709593Y-88444812D01*
X116647239Y-88413290D01*
X116630519Y-88393994D01*
X116500513Y-88208326D01*
X116500508Y-88208320D01*
X116333482Y-88041294D01*
X116139978Y-87905799D01*
X115925892Y-87805970D01*
X115925886Y-87805967D01*
X115712400Y-87748764D01*
X115712400Y-88646388D01*
X115655393Y-88613475D01*
X115528226Y-88579400D01*
X115396574Y-88579400D01*
X115269407Y-88613475D01*
X115212400Y-88646388D01*
X115212400Y-87748764D01*
X115212399Y-87748764D01*
X114998913Y-87805967D01*
X114998907Y-87805970D01*
X114784822Y-87905799D01*
X114784820Y-87905800D01*
X114591326Y-88041286D01*
X114591320Y-88041291D01*
X114424291Y-88208320D01*
X114424286Y-88208326D01*
X114288800Y-88401820D01*
X114288799Y-88401822D01*
X114188970Y-88615907D01*
X114188967Y-88615913D01*
X114131764Y-88829399D01*
X114131764Y-88829400D01*
X115029388Y-88829400D01*
X114996475Y-88886407D01*
X114962400Y-89013574D01*
X114962400Y-89145226D01*
X114996475Y-89272393D01*
X115029388Y-89329400D01*
X114131764Y-89329400D01*
X114188967Y-89542886D01*
X114188970Y-89542892D01*
X114288799Y-89756978D01*
X114424294Y-89950482D01*
X114591317Y-90117505D01*
X114776995Y-90247519D01*
X114820619Y-90302096D01*
X114827812Y-90371595D01*
X114796290Y-90433949D01*
X114776995Y-90450669D01*
X114590994Y-90580908D01*
X114423905Y-90747997D01*
X114288365Y-90941569D01*
X114288364Y-90941571D01*
X114188498Y-91155735D01*
X114188494Y-91155744D01*
X114127338Y-91383986D01*
X114127336Y-91383996D01*
X114106741Y-91619399D01*
X108482400Y-91619399D01*
X108482400Y-88620181D01*
X108482411Y-88618559D01*
X108482446Y-88615907D01*
X108484723Y-88441779D01*
X108485390Y-88430462D01*
X108522441Y-88077951D01*
X108524471Y-88065141D01*
X108529541Y-88041291D01*
X108597989Y-87719264D01*
X108601347Y-87706734D01*
X108710618Y-87370434D01*
X108715269Y-87358317D01*
X108859102Y-87035260D01*
X108864979Y-87023727D01*
X109041797Y-86717469D01*
X109048851Y-86706607D01*
X109256711Y-86420512D01*
X109264858Y-86410451D01*
X109501488Y-86147647D01*
X109510647Y-86138488D01*
X109773451Y-85901858D01*
X109783512Y-85893711D01*
X110069607Y-85685851D01*
X110080469Y-85678797D01*
X110386727Y-85501979D01*
X110398260Y-85496102D01*
X110721323Y-85352266D01*
X110733428Y-85347620D01*
X111069740Y-85238345D01*
X111082264Y-85234989D01*
X111428150Y-85161469D01*
X111440951Y-85159441D01*
X111793462Y-85122390D01*
X111804779Y-85121723D01*
X111981559Y-85119410D01*
X111983181Y-85119400D01*
X166481613Y-85119400D01*
X166483133Y-85119408D01*
G37*
%TD.AperFunction*%
%TD*%
M02*
