M48
; DRILL file {KiCad 8.0.3} date 2024-07-12T22:27:22+0200
; FORMAT={-:-/ absolute / inch / decimal}
; #@! TF.CreationDate,2024-07-12T22:27:22+02:00
; #@! TF.GenerationSoftware,Kicad,Pcbnew,8.0.3
; #@! TF.FileFunction,Plated,1,4,PTH
FMAT,2
INCH
; #@! TA.AperFunction,Plated,PTH,ComponentDrill
T1C0.0079
; #@! TA.AperFunction,Plated,PTH,ViaDrill
T2C0.0118
; #@! TA.AperFunction,Plated,PTH,ViaDrill
T3C0.0157
; #@! TA.AperFunction,Plated,PTH,ComponentDrill
T4C0.0197
; #@! TA.AperFunction,Plated,PTH,ComponentDrill
T5C0.0394
; #@! TA.AperFunction,Plated,PTH,ComponentDrill
T6C0.1260
%
G90
G05
T1
X4.6146Y-3.9207
X4.6343Y-3.8852
X4.6343Y-3.9561
X4.654Y-3.9207
X5.5569Y-4.1146
X5.5766Y-4.0792
X5.5766Y-4.15
X5.5963Y-4.1146
T2
X4.3124Y-4.4806
X4.3694Y-4.2173
X4.3702Y-4.5438
X4.3705Y-4.3008
X4.4437Y-4.2207
X4.8201Y-3.9852
X4.8741Y-4.0072
X4.8791Y-3.8472
X4.9091Y-4.0672
X4.9241Y-3.8072
X4.9292Y-4.1363
X4.9791Y-4.1422
X4.9891Y-3.7972
X5.0441Y-4.1386
X5.0541Y-3.8222
X5.0591Y-3.9191
X5.0977Y-4.1189
X5.0989Y-4.0156
X5.1553Y-3.9711
X5.1562Y-4.0143
X5.1568Y-4.1189
X5.2144Y-3.9706
X5.2155Y-4.0143
X5.2158Y-4.1189
X5.2372Y-4.199
X5.249Y-3.8342
X5.2645Y-4.2961
X5.2671Y-3.9643
X5.2741Y-4.0072
X5.2741Y-4.1322
X5.2881Y-3.7969
X5.3241Y-4.1392
X5.3574Y-3.7814
X5.3785Y-4.1999
X5.3791Y-4.1382
X5.4148Y-3.781
X5.4722Y-4.0542
X5.4891Y-3.9472
X5.4952Y-3.9972
X5.4979Y-3.7544
X5.5341Y-3.9122
X5.5678Y-3.7544
X5.5841Y-3.922
X5.6156Y-3.7556
X5.6311Y-3.9102
X5.6661Y-3.7632
X5.6741Y-3.8822
X5.6841Y-4.0401
X5.7084Y-4.0201
X5.8191Y-4.2072
X5.8197Y-4.0731
X5.8541Y-3.9372
X5.8672Y-4.229
X5.8851Y-3.8827
X5.9391Y-4.2272
X5.9991Y-3.9772
X6.0032Y-4.2173
X6.0426Y-4.0204
X6.1017Y-4.0204
X6.1607Y-4.0204
X6.1804Y-4.1386
X6.2091Y-4.0022
X6.2395Y-4.1386
X6.2721Y-4.3909
X6.3205Y-4.1434
X6.3969Y-3.9811
X6.3969Y-4.1582
X6.4505Y-3.9818
X6.456Y-4.1582
X6.5151Y-3.9811
X6.5151Y-4.1582
X6.5347Y-4.0204
X6.5432Y-4.1214
X6.6416Y-4.5222
X6.6472Y-3.4157
T3
X4.33Y-3.4299
X4.4088Y-4.1582
X4.5072Y-4.1976
X4.5662Y-4.0008
X4.5859Y-3.8236
X4.611Y-4.1441
X4.645Y-4.1166
X4.6752Y-4.1674
X4.704Y-4.5126
X4.7242Y-4.1387
X4.7434Y-4.4338
X4.7739Y-4.1312
X4.7828Y-4.4929
X4.8025Y-3.6566
X4.9009Y-4.2567
X4.9993Y-3.6566
X5.1954Y-3.6661
X5.1962Y-4.296
X5.2946Y-3.4597
X5.334Y-4.296
X5.349Y-3.8754
X5.4241Y-4.1672
X5.4802Y-4.3612
X5.4914Y-3.4597
X5.4914Y-3.6428
X5.5111Y-4.0401
X5.5308Y-3.3905
X5.5308Y-4.1976
X5.5899Y-3.8667
X5.5939Y-3.7959
X5.5966Y-3.3894
X5.6236Y-3.8311
X5.6686Y-3.3905
X5.6706Y-4.2848
X5.7091Y-4.3039
X5.7867Y-3.9023
X5.7876Y-4.3501
X5.8786Y-3.7973
X5.9048Y-3.6566
X5.9291Y-3.8672
X5.9442Y-4.296
X5.9836Y-3.8236
X5.9941Y-3.9202
X6.0141Y-4.1122
X6.0741Y-3.8982
X6.0741Y-3.9542
X6.0982Y-3.4754
X6.1214Y-4.4929
X6.1491Y-3.8992
X6.1511Y-3.9562
X6.1963Y-3.6566
X6.2191Y-3.9322
X6.2198Y-3.7055
X6.2231Y-3.8032
X6.2251Y-3.8562
X6.2255Y-4.3483
X6.2851Y-3.8002
X6.2851Y-3.8542
X6.4757Y-4.0317
X6.4757Y-4.1045
X6.4954Y-3.7645
X6.4954Y-3.8433
X6.4954Y-3.9023
X6.5412Y-4.0691
X6.5938Y-4.2173
X6.5938Y-4.296
T4
X4.4521Y-4.3748
X4.4797Y-4.308
X4.4797Y-4.4416
X4.5466Y-4.2803
X4.5466Y-4.4693
X4.6134Y-4.308
X4.6134Y-4.4416
X4.641Y-4.3748
X6.3441Y-4.3726
X6.3718Y-4.3058
X6.3718Y-4.4394
X6.4386Y-4.2781
X6.4386Y-4.4671
X6.5054Y-4.3058
X6.5054Y-4.4394
X6.5331Y-4.3726
T5
X4.5458Y-3.5071
X4.5458Y-3.6071
X4.6458Y-3.5071
X4.6458Y-3.6071
X4.7458Y-3.5071
X4.7458Y-3.6071
X4.8458Y-3.5071
X4.8458Y-3.6071
X4.9292Y-4.3945
X4.9292Y-4.4945
X4.9458Y-3.5071
X4.9458Y-3.6071
X5.0292Y-4.3945
X5.0292Y-4.4945
X5.0458Y-3.5071
X5.0458Y-3.6071
X5.1292Y-4.3945
X5.1292Y-4.4945
X5.1458Y-3.5071
X5.1458Y-3.6071
X5.2292Y-4.3945
X5.2292Y-4.4945
X5.2458Y-3.5071
X5.2458Y-3.6071
X5.3292Y-4.3945
X5.3292Y-4.4945
X5.3458Y-3.5071
X5.3458Y-3.6071
X5.4292Y-4.3945
X5.4292Y-4.4945
X5.4458Y-3.5071
X5.4458Y-3.6071
X5.5292Y-4.3945
X5.5292Y-4.4945
X5.5458Y-3.5071
X5.5458Y-3.6071
X5.6292Y-4.3945
X5.6292Y-4.4945
X5.6458Y-3.5071
X5.6458Y-3.6071
X5.7292Y-4.3945
X5.7292Y-4.4945
X5.7458Y-3.5071
X5.7458Y-3.6071
X5.8292Y-4.3945
X5.8292Y-4.4945
X5.8458Y-3.5071
X5.8458Y-3.6071
X5.9292Y-4.3945
X5.9292Y-4.4945
X5.9458Y-3.5071
X5.9458Y-3.6071
X6.0292Y-4.3945
X6.0292Y-4.4945
X6.0458Y-3.5071
X6.0458Y-3.6071
X6.1458Y-3.5071
X6.1458Y-3.6071
X6.2458Y-3.5071
X6.2458Y-3.6071
X6.3458Y-3.5071
X6.3458Y-3.6071
X6.4458Y-3.5071
X6.4458Y-3.6071
T6
X4.5466Y-4.3748
X6.4386Y-4.3726
M30
