%TF.GenerationSoftware,KiCad,Pcbnew,8.0.4*%
%TF.CreationDate,2024-08-02T21:30:08+02:00*%
%TF.ProjectId,HatV5,48617456-352e-46b6-9963-61645f706362,V2*%
%TF.SameCoordinates,Original*%
%TF.FileFunction,Legend,Bot*%
%TF.FilePolarity,Positive*%
%FSLAX46Y46*%
G04 Gerber Fmt 4.6, Leading zero omitted, Abs format (unit mm)*
G04 Created by KiCad (PCBNEW 8.0.4) date 2024-08-02 21:30:08*
%MOMM*%
%LPD*%
G01*
G04 APERTURE LIST*
%ADD10C,0.120000*%
%ADD11C,0.100000*%
G04 APERTURE END LIST*
D10*
%TO.C,J5*%
X114132400Y-87749400D02*
X114132400Y-92949400D01*
X114132400Y-87749400D02*
X162452400Y-87749400D01*
X114132400Y-92949400D02*
X165052400Y-92949400D01*
X162452400Y-87749400D02*
X162452400Y-90349400D01*
X162452400Y-90349400D02*
X165052400Y-90349400D01*
X163722400Y-87749400D02*
X165052400Y-87749400D01*
X165052400Y-87749400D02*
X165052400Y-89079400D01*
X165052400Y-90349400D02*
X165052400Y-92949400D01*
%TO.C,C2*%
X117852942Y-96850822D02*
X118068614Y-96850822D01*
X117852942Y-97570822D02*
X118068614Y-97570822D01*
%TO.C,J6*%
X123872400Y-110289400D02*
X123872400Y-115489400D01*
X123872400Y-110289400D02*
X151872400Y-110289400D01*
X123872400Y-115489400D02*
X154472400Y-115489400D01*
X151872400Y-110289400D02*
X151872400Y-112889400D01*
X151872400Y-112889400D02*
X154472400Y-112889400D01*
X153142400Y-110289400D02*
X154472400Y-110289400D01*
X154472400Y-110289400D02*
X154472400Y-111619400D01*
X154472400Y-112889400D02*
X154472400Y-115489400D01*
%TO.C,C8*%
X138249142Y-104623222D02*
X138464814Y-104623222D01*
X138249142Y-105343222D02*
X138464814Y-105343222D01*
%TO.C,C5*%
X127466614Y-99184000D02*
X127250942Y-99184000D01*
X127466614Y-99904000D02*
X127250942Y-99904000D01*
%TO.C,C7*%
X142589942Y-101930822D02*
X142805614Y-101930822D01*
X142589942Y-102650822D02*
X142805614Y-102650822D01*
D11*
%TO.C,FL1*%
X120165400Y-100434000D02*
X122550400Y-100434000D01*
X120520400Y-98654000D02*
X122550400Y-98654000D01*
D10*
%TO.C,R6*%
X149562795Y-102698257D02*
X150037311Y-102698257D01*
X149562795Y-103743257D02*
X150037311Y-103743257D01*
%TO.C,R1*%
X121142241Y-100789600D02*
X120834959Y-100789600D01*
X121142241Y-101549600D02*
X120834959Y-101549600D01*
%TO.C,C6*%
X142561942Y-100914822D02*
X142777614Y-100914822D01*
X142561942Y-101634822D02*
X142777614Y-101634822D01*
%TO.C,U1*%
X119211800Y-97975000D02*
X116211800Y-97975000D01*
X119211800Y-101195000D02*
X117711800Y-101195000D01*
%TO.C,R5*%
X150075036Y-105197322D02*
X149600520Y-105197322D01*
X150075036Y-106242322D02*
X149600520Y-106242322D01*
%TO.C,C3*%
X114426542Y-97841422D02*
X114642214Y-97841422D01*
X114426542Y-98561422D02*
X114642214Y-98561422D01*
%TO.C,R2*%
X126247414Y-100244322D02*
X125772898Y-100244322D01*
X126247414Y-101289322D02*
X125772898Y-101289322D01*
%TO.C,R3*%
X125772898Y-97831322D02*
X126247414Y-97831322D01*
X125772898Y-98876322D02*
X126247414Y-98876322D01*
%TO.C,C4*%
X114426542Y-98857422D02*
X114642214Y-98857422D01*
X114426542Y-99577422D02*
X114642214Y-99577422D01*
%TO.C,C10*%
X151342614Y-104110200D02*
X151126942Y-104110200D01*
X151342614Y-104830200D02*
X151126942Y-104830200D01*
%TO.C,C9*%
X138249142Y-103480222D02*
X138464814Y-103480222D01*
X138249142Y-104200222D02*
X138464814Y-104200222D01*
%TO.C,R4*%
X142597537Y-106533622D02*
X142904819Y-106533622D01*
X142597537Y-107293622D02*
X142904819Y-107293622D01*
%TO.C,C1*%
X117852942Y-95834822D02*
X118068614Y-95834822D01*
X117852942Y-96554822D02*
X118068614Y-96554822D01*
D11*
%TO.C,FL2*%
X144050400Y-105401600D02*
X146435400Y-105401600D01*
X144405400Y-103621600D02*
X146435400Y-103621600D01*
D10*
%TO.C,U3*%
X143145400Y-102901200D02*
X140145400Y-102901200D01*
X143145400Y-106121200D02*
X141645400Y-106121200D01*
%TD*%
M02*
