M48
; DRILL file {KiCad 7.0.1} date Mon Jul 17 03:26:53 2023
; FORMAT={-:-/ absolute / metric / decimal}
; #@! TF.CreationDate,2023-07-17T03:26:53+02:00
; #@! TF.GenerationSoftware,Kicad,Pcbnew,7.0.1
; #@! TF.FileFunction,Plated,1,2,PTH
FMAT,2
METRIC
; #@! TA.AperFunction,Plated,PTH,ViaDrill
T1C0.300
; #@! TA.AperFunction,Plated,PTH,ComponentDrill
T2C1.000
%
G90
G05
T1
X93.185Y-49.84
X93.185Y-67.62
X93.185Y-70.16
X94.15Y-47.065
X95.725Y-67.62
X95.725Y-70.16
X95.975Y-59.214
X95.975Y-62.289
X96.05Y-50.965
X97.6Y-59.214
X98.265Y-67.62
X98.265Y-75.24
X99.125Y-50.065
X99.425Y-51.175
X99.75Y-59.214
X100.375Y-56.925
X100.4Y-65.665
X100.805Y-62.54
X101.35Y-47.065
X102.935Y-67.23
X102.96Y-64.805
X104.7Y-62.365
X104.725Y-54.852
X105.6Y-57.215
X105.885Y-70.16
X106.625Y-51.965
X107.55Y-51.465
X108.425Y-70.16
X109.15Y-49.765
X109.85Y-51.14
X110.185Y-62.305
X110.965Y-60.0
X110.965Y-75.24
X113.505Y-60.0
X113.505Y-75.24
X113.705Y-48.065
X114.05Y-56.565
X114.05Y-58.24
X116.045Y-62.54
X116.045Y-67.62
X116.045Y-75.24
X116.245Y-48.065
X118.585Y-65.08
X118.585Y-75.24
X118.785Y-48.065
X119.725Y-49.94
X119.725Y-52.94
X119.725Y-56.315
X119.725Y-59.715
X119.725Y-63.115
X121.125Y-67.62
X121.125Y-70.16
X121.325Y-48.065
T2
X93.44Y-52.835
X93.44Y-55.375
X93.44Y-57.915
X93.44Y-60.455
X93.44Y-62.995
X93.44Y-65.535
X103.63Y-47.755
X106.17Y-47.755
X108.71Y-47.755
X111.25Y-47.755
X121.44Y-52.835
X121.44Y-55.375
X121.44Y-57.915
X121.44Y-60.455
X121.44Y-62.995
X121.44Y-65.535
T0
M30
