%TF.GenerationSoftware,KiCad,Pcbnew,7.0.1*%
%TF.CreationDate,2023-07-17T03:26:54+02:00*%
%TF.ProjectId,RS485_interface,52533438-355f-4696-9e74-657266616365,2*%
%TF.SameCoordinates,Original*%
%TF.FileFunction,Drillmap*%
%TF.FilePolarity,Positive*%
%FSLAX45Y45*%
G04 Gerber Fmt 4.5, Leading zero omitted, Abs format (unit mm)*
G04 Created by KiCad (PCBNEW 7.0.1) date 2023-07-17 03:26:54*
%MOMM*%
%LPD*%
G01*
G04 APERTURE LIST*
%ADD10C,0.100000*%
%ADD11C,0.200000*%
%ADD12C,0.030000*%
G04 APERTURE END LIST*
D10*
X9410030Y-4613998D02*
X12080030Y-4613998D01*
X12280030Y-4813998D02*
X12280030Y-7478998D01*
X12080030Y-7678998D02*
G75*
G03*
X12280030Y-7478998I0J200000D01*
G01*
X12080030Y-7678998D02*
X9410030Y-7678998D01*
X9410030Y-4613998D02*
G75*
G03*
X9210030Y-4813998I0J-200000D01*
G01*
X12280030Y-4813998D02*
G75*
G03*
X12080030Y-4613998I-200000J0D01*
G01*
X9210030Y-7478998D02*
X9210030Y-4813998D01*
X9210030Y-7478998D02*
G75*
G03*
X9410030Y-7678998I200000J0D01*
G01*
D11*
D12*
X9303500Y-4969042D02*
X9333500Y-4999042D01*
X9333500Y-4969042D02*
X9303500Y-4999042D01*
X9303500Y-6747042D02*
X9333500Y-6777042D01*
X9333500Y-6747042D02*
X9303500Y-6777042D01*
X9303500Y-7001042D02*
X9333500Y-7031042D01*
X9333500Y-7001042D02*
X9303500Y-7031042D01*
X9400030Y-4691498D02*
X9430030Y-4721498D01*
X9430030Y-4691498D02*
X9400030Y-4721498D01*
X9557500Y-6747042D02*
X9587500Y-6777042D01*
X9587500Y-6747042D02*
X9557500Y-6777042D01*
X9557500Y-7001042D02*
X9587500Y-7031042D01*
X9587500Y-7001042D02*
X9557500Y-7031042D01*
X9582530Y-5906448D02*
X9612530Y-5936448D01*
X9612530Y-5906448D02*
X9582530Y-5936448D01*
X9582530Y-6213948D02*
X9612530Y-6243948D01*
X9612530Y-6213948D02*
X9582530Y-6243948D01*
X9590030Y-5081498D02*
X9620030Y-5111498D01*
X9620030Y-5081498D02*
X9590030Y-5111498D01*
X9745030Y-5906448D02*
X9775030Y-5936448D01*
X9775030Y-5906448D02*
X9745030Y-5936448D01*
X9811500Y-6747042D02*
X9841500Y-6777042D01*
X9841500Y-6747042D02*
X9811500Y-6777042D01*
X9811500Y-7509042D02*
X9841500Y-7539042D01*
X9841500Y-7509042D02*
X9811500Y-7539042D01*
X9897530Y-4991498D02*
X9927530Y-5021498D01*
X9927530Y-4991498D02*
X9897530Y-5021498D01*
X9927500Y-5102500D02*
X9957500Y-5132500D01*
X9957500Y-5102500D02*
X9927500Y-5132500D01*
X9960030Y-5906448D02*
X9990030Y-5936448D01*
X9990030Y-5906448D02*
X9960030Y-5936448D01*
X10022500Y-5677500D02*
X10052500Y-5707500D01*
X10052500Y-5677500D02*
X10022500Y-5707500D01*
X10025030Y-6551498D02*
X10055030Y-6581498D01*
X10055030Y-6551498D02*
X10025030Y-6581498D01*
X10065500Y-6239042D02*
X10095500Y-6269042D01*
X10095500Y-6239042D02*
X10065500Y-6269042D01*
X10120030Y-4691498D02*
X10150030Y-4721498D01*
X10150030Y-4691498D02*
X10120030Y-4721498D01*
X10278500Y-6708042D02*
X10308500Y-6738042D01*
X10308500Y-6708042D02*
X10278500Y-6738042D01*
X10281000Y-6465542D02*
X10311000Y-6495542D01*
X10311000Y-6465542D02*
X10281000Y-6495542D01*
X10455030Y-6221498D02*
X10485030Y-6251498D01*
X10485030Y-6221498D02*
X10455030Y-6251498D01*
X10457530Y-5470248D02*
X10487530Y-5500248D01*
X10487530Y-5470248D02*
X10457530Y-5500248D01*
X10545030Y-5706498D02*
X10575030Y-5736498D01*
X10575030Y-5706498D02*
X10545030Y-5736498D01*
X10573500Y-7001042D02*
X10603500Y-7031042D01*
X10603500Y-7001042D02*
X10573500Y-7031042D01*
X10647530Y-5181498D02*
X10677530Y-5211498D01*
X10677530Y-5181498D02*
X10647530Y-5211498D01*
X10740030Y-5131498D02*
X10770030Y-5161498D01*
X10770030Y-5131498D02*
X10740030Y-5161498D01*
X10827500Y-7001042D02*
X10857500Y-7031042D01*
X10857500Y-7001042D02*
X10827500Y-7031042D01*
X10900030Y-4961498D02*
X10930030Y-4991498D01*
X10930030Y-4961498D02*
X10900030Y-4991498D01*
X10970030Y-5098998D02*
X11000030Y-5128998D01*
X11000030Y-5098998D02*
X10970030Y-5128998D01*
X11003500Y-6215542D02*
X11033500Y-6245542D01*
X11033500Y-6215542D02*
X11003500Y-6245542D01*
X11081500Y-5985042D02*
X11111500Y-6015042D01*
X11111500Y-5985042D02*
X11081500Y-6015042D01*
X11081500Y-7509042D02*
X11111500Y-7539042D01*
X11111500Y-7509042D02*
X11081500Y-7539042D01*
X11335500Y-5985042D02*
X11365500Y-6015042D01*
X11365500Y-5985042D02*
X11335500Y-6015042D01*
X11335500Y-7509042D02*
X11365500Y-7539042D01*
X11365500Y-7509042D02*
X11335500Y-7539042D01*
X11355530Y-4791498D02*
X11385530Y-4821498D01*
X11385530Y-4791498D02*
X11355530Y-4821498D01*
X11390030Y-5641498D02*
X11420030Y-5671498D01*
X11420030Y-5641498D02*
X11390030Y-5671498D01*
X11390030Y-5808998D02*
X11420030Y-5838998D01*
X11420030Y-5808998D02*
X11390030Y-5838998D01*
X11589500Y-6239042D02*
X11619500Y-6269042D01*
X11619500Y-6239042D02*
X11589500Y-6269042D01*
X11589500Y-6747042D02*
X11619500Y-6777042D01*
X11619500Y-6747042D02*
X11589500Y-6777042D01*
X11589500Y-7509042D02*
X11619500Y-7539042D01*
X11619500Y-7509042D02*
X11589500Y-7539042D01*
X11609530Y-4791498D02*
X11639530Y-4821498D01*
X11639530Y-4791498D02*
X11609530Y-4821498D01*
X11843500Y-6493042D02*
X11873500Y-6523042D01*
X11873500Y-6493042D02*
X11843500Y-6523042D01*
X11843500Y-7509042D02*
X11873500Y-7539042D01*
X11873500Y-7509042D02*
X11843500Y-7539042D01*
X11863530Y-4791498D02*
X11893530Y-4821498D01*
X11893530Y-4791498D02*
X11863530Y-4821498D01*
X11957530Y-4978998D02*
X11987530Y-5008998D01*
X11987530Y-4978998D02*
X11957530Y-5008998D01*
X11957530Y-5278998D02*
X11987530Y-5308998D01*
X11987530Y-5278998D02*
X11957530Y-5308998D01*
X11957530Y-5616498D02*
X11987530Y-5646498D01*
X11987530Y-5616498D02*
X11957530Y-5646498D01*
X11957530Y-5956498D02*
X11987530Y-5986498D01*
X11987530Y-5956498D02*
X11957530Y-5986498D01*
X11957530Y-6296498D02*
X11987530Y-6326498D01*
X11987530Y-6296498D02*
X11957530Y-6326498D01*
X12097500Y-6747042D02*
X12127500Y-6777042D01*
X12127500Y-6747042D02*
X12097500Y-6777042D01*
X12097500Y-7001042D02*
X12127500Y-7031042D01*
X12127500Y-7001042D02*
X12097500Y-7031042D01*
X12117530Y-4791498D02*
X12147530Y-4821498D01*
X12147530Y-4791498D02*
X12117530Y-4821498D01*
D10*
X9394000Y-5283542D02*
G75*
G03*
X9394000Y-5283542I-50000J0D01*
G01*
X9394000Y-5537542D02*
G75*
G03*
X9394000Y-5537542I-50000J0D01*
G01*
X9394000Y-5791542D02*
G75*
G03*
X9394000Y-5791542I-50000J0D01*
G01*
X9394000Y-6045542D02*
G75*
G03*
X9394000Y-6045542I-50000J0D01*
G01*
X9394000Y-6299542D02*
G75*
G03*
X9394000Y-6299542I-50000J0D01*
G01*
X9394000Y-6553542D02*
G75*
G03*
X9394000Y-6553542I-50000J0D01*
G01*
X10413000Y-4775542D02*
G75*
G03*
X10413000Y-4775542I-50000J0D01*
G01*
X10667000Y-4775542D02*
G75*
G03*
X10667000Y-4775542I-50000J0D01*
G01*
X10921000Y-4775542D02*
G75*
G03*
X10921000Y-4775542I-50000J0D01*
G01*
X11175000Y-4775542D02*
G75*
G03*
X11175000Y-4775542I-50000J0D01*
G01*
X12194000Y-5283542D02*
G75*
G03*
X12194000Y-5283542I-50000J0D01*
G01*
X12194000Y-5537542D02*
G75*
G03*
X12194000Y-5537542I-50000J0D01*
G01*
X12194000Y-5791542D02*
G75*
G03*
X12194000Y-5791542I-50000J0D01*
G01*
X12194000Y-6045542D02*
G75*
G03*
X12194000Y-6045542I-50000J0D01*
G01*
X12194000Y-6299542D02*
G75*
G03*
X12194000Y-6299542I-50000J0D01*
G01*
X12194000Y-6553542D02*
G75*
G03*
X12194000Y-6553542I-50000J0D01*
G01*
D11*
X9452649Y-7996522D02*
X9452649Y-7796522D01*
X9452649Y-7796522D02*
X9500268Y-7796522D01*
X9500268Y-7796522D02*
X9528840Y-7806045D01*
X9528840Y-7806045D02*
X9547887Y-7825093D01*
X9547887Y-7825093D02*
X9557411Y-7844141D01*
X9557411Y-7844141D02*
X9566935Y-7882236D01*
X9566935Y-7882236D02*
X9566935Y-7910807D01*
X9566935Y-7910807D02*
X9557411Y-7948902D01*
X9557411Y-7948902D02*
X9547887Y-7967950D01*
X9547887Y-7967950D02*
X9528840Y-7986998D01*
X9528840Y-7986998D02*
X9500268Y-7996522D01*
X9500268Y-7996522D02*
X9452649Y-7996522D01*
X9652649Y-7996522D02*
X9652649Y-7863188D01*
X9652649Y-7901283D02*
X9662173Y-7882236D01*
X9662173Y-7882236D02*
X9671697Y-7872712D01*
X9671697Y-7872712D02*
X9690744Y-7863188D01*
X9690744Y-7863188D02*
X9709792Y-7863188D01*
X9776459Y-7996522D02*
X9776459Y-7863188D01*
X9776459Y-7796522D02*
X9766935Y-7806045D01*
X9766935Y-7806045D02*
X9776459Y-7815569D01*
X9776459Y-7815569D02*
X9785982Y-7806045D01*
X9785982Y-7806045D02*
X9776459Y-7796522D01*
X9776459Y-7796522D02*
X9776459Y-7815569D01*
X9900268Y-7996522D02*
X9881221Y-7986998D01*
X9881221Y-7986998D02*
X9871697Y-7967950D01*
X9871697Y-7967950D02*
X9871697Y-7796522D01*
X10005030Y-7996522D02*
X9985982Y-7986998D01*
X9985982Y-7986998D02*
X9976459Y-7967950D01*
X9976459Y-7967950D02*
X9976459Y-7796522D01*
X10233602Y-7996522D02*
X10233602Y-7796522D01*
X10233602Y-7796522D02*
X10300268Y-7939379D01*
X10300268Y-7939379D02*
X10366935Y-7796522D01*
X10366935Y-7796522D02*
X10366935Y-7996522D01*
X10547887Y-7996522D02*
X10547887Y-7891760D01*
X10547887Y-7891760D02*
X10538363Y-7872712D01*
X10538363Y-7872712D02*
X10519316Y-7863188D01*
X10519316Y-7863188D02*
X10481221Y-7863188D01*
X10481221Y-7863188D02*
X10462173Y-7872712D01*
X10547887Y-7986998D02*
X10528840Y-7996522D01*
X10528840Y-7996522D02*
X10481221Y-7996522D01*
X10481221Y-7996522D02*
X10462173Y-7986998D01*
X10462173Y-7986998D02*
X10452649Y-7967950D01*
X10452649Y-7967950D02*
X10452649Y-7948902D01*
X10452649Y-7948902D02*
X10462173Y-7929855D01*
X10462173Y-7929855D02*
X10481221Y-7920331D01*
X10481221Y-7920331D02*
X10528840Y-7920331D01*
X10528840Y-7920331D02*
X10547887Y-7910807D01*
X10643125Y-7863188D02*
X10643125Y-8063188D01*
X10643125Y-7872712D02*
X10662173Y-7863188D01*
X10662173Y-7863188D02*
X10700268Y-7863188D01*
X10700268Y-7863188D02*
X10719316Y-7872712D01*
X10719316Y-7872712D02*
X10728840Y-7882236D01*
X10728840Y-7882236D02*
X10738363Y-7901283D01*
X10738363Y-7901283D02*
X10738363Y-7958426D01*
X10738363Y-7958426D02*
X10728840Y-7977474D01*
X10728840Y-7977474D02*
X10719316Y-7986998D01*
X10719316Y-7986998D02*
X10700268Y-7996522D01*
X10700268Y-7996522D02*
X10662173Y-7996522D01*
X10662173Y-7996522D02*
X10643125Y-7986998D01*
X10824078Y-7977474D02*
X10833602Y-7986998D01*
X10833602Y-7986998D02*
X10824078Y-7996522D01*
X10824078Y-7996522D02*
X10814554Y-7986998D01*
X10814554Y-7986998D02*
X10824078Y-7977474D01*
X10824078Y-7977474D02*
X10824078Y-7996522D01*
X10824078Y-7872712D02*
X10833602Y-7882236D01*
X10833602Y-7882236D02*
X10824078Y-7891760D01*
X10824078Y-7891760D02*
X10814554Y-7882236D01*
X10814554Y-7882236D02*
X10824078Y-7872712D01*
X10824078Y-7872712D02*
X10824078Y-7891760D01*
D12*
X9175030Y-8308998D02*
X9205030Y-8338998D01*
X9205030Y-8308998D02*
X9175030Y-8338998D01*
D11*
X9490744Y-8216522D02*
X9509792Y-8216522D01*
X9509792Y-8216522D02*
X9528840Y-8226045D01*
X9528840Y-8226045D02*
X9538363Y-8235569D01*
X9538363Y-8235569D02*
X9547887Y-8254617D01*
X9547887Y-8254617D02*
X9557411Y-8292712D01*
X9557411Y-8292712D02*
X9557411Y-8340331D01*
X9557411Y-8340331D02*
X9547887Y-8378426D01*
X9547887Y-8378426D02*
X9538363Y-8397474D01*
X9538363Y-8397474D02*
X9528840Y-8406998D01*
X9528840Y-8406998D02*
X9509792Y-8416522D01*
X9509792Y-8416522D02*
X9490744Y-8416522D01*
X9490744Y-8416522D02*
X9471697Y-8406998D01*
X9471697Y-8406998D02*
X9462173Y-8397474D01*
X9462173Y-8397474D02*
X9452649Y-8378426D01*
X9452649Y-8378426D02*
X9443125Y-8340331D01*
X9443125Y-8340331D02*
X9443125Y-8292712D01*
X9443125Y-8292712D02*
X9452649Y-8254617D01*
X9452649Y-8254617D02*
X9462173Y-8235569D01*
X9462173Y-8235569D02*
X9471697Y-8226045D01*
X9471697Y-8226045D02*
X9490744Y-8216522D01*
X9643125Y-8397474D02*
X9652649Y-8406998D01*
X9652649Y-8406998D02*
X9643125Y-8416522D01*
X9643125Y-8416522D02*
X9633602Y-8406998D01*
X9633602Y-8406998D02*
X9643125Y-8397474D01*
X9643125Y-8397474D02*
X9643125Y-8416522D01*
X9719316Y-8216522D02*
X9843125Y-8216522D01*
X9843125Y-8216522D02*
X9776459Y-8292712D01*
X9776459Y-8292712D02*
X9805030Y-8292712D01*
X9805030Y-8292712D02*
X9824078Y-8302236D01*
X9824078Y-8302236D02*
X9833602Y-8311760D01*
X9833602Y-8311760D02*
X9843125Y-8330807D01*
X9843125Y-8330807D02*
X9843125Y-8378426D01*
X9843125Y-8378426D02*
X9833602Y-8397474D01*
X9833602Y-8397474D02*
X9824078Y-8406998D01*
X9824078Y-8406998D02*
X9805030Y-8416522D01*
X9805030Y-8416522D02*
X9747887Y-8416522D01*
X9747887Y-8416522D02*
X9728840Y-8406998D01*
X9728840Y-8406998D02*
X9719316Y-8397474D01*
X9966935Y-8216522D02*
X9985983Y-8216522D01*
X9985983Y-8216522D02*
X10005030Y-8226045D01*
X10005030Y-8226045D02*
X10014554Y-8235569D01*
X10014554Y-8235569D02*
X10024078Y-8254617D01*
X10024078Y-8254617D02*
X10033602Y-8292712D01*
X10033602Y-8292712D02*
X10033602Y-8340331D01*
X10033602Y-8340331D02*
X10024078Y-8378426D01*
X10024078Y-8378426D02*
X10014554Y-8397474D01*
X10014554Y-8397474D02*
X10005030Y-8406998D01*
X10005030Y-8406998D02*
X9985983Y-8416522D01*
X9985983Y-8416522D02*
X9966935Y-8416522D01*
X9966935Y-8416522D02*
X9947887Y-8406998D01*
X9947887Y-8406998D02*
X9938363Y-8397474D01*
X9938363Y-8397474D02*
X9928840Y-8378426D01*
X9928840Y-8378426D02*
X9919316Y-8340331D01*
X9919316Y-8340331D02*
X9919316Y-8292712D01*
X9919316Y-8292712D02*
X9928840Y-8254617D01*
X9928840Y-8254617D02*
X9938363Y-8235569D01*
X9938363Y-8235569D02*
X9947887Y-8226045D01*
X9947887Y-8226045D02*
X9966935Y-8216522D01*
X10157411Y-8216522D02*
X10176459Y-8216522D01*
X10176459Y-8216522D02*
X10195506Y-8226045D01*
X10195506Y-8226045D02*
X10205030Y-8235569D01*
X10205030Y-8235569D02*
X10214554Y-8254617D01*
X10214554Y-8254617D02*
X10224078Y-8292712D01*
X10224078Y-8292712D02*
X10224078Y-8340331D01*
X10224078Y-8340331D02*
X10214554Y-8378426D01*
X10214554Y-8378426D02*
X10205030Y-8397474D01*
X10205030Y-8397474D02*
X10195506Y-8406998D01*
X10195506Y-8406998D02*
X10176459Y-8416522D01*
X10176459Y-8416522D02*
X10157411Y-8416522D01*
X10157411Y-8416522D02*
X10138363Y-8406998D01*
X10138363Y-8406998D02*
X10128840Y-8397474D01*
X10128840Y-8397474D02*
X10119316Y-8378426D01*
X10119316Y-8378426D02*
X10109792Y-8340331D01*
X10109792Y-8340331D02*
X10109792Y-8292712D01*
X10109792Y-8292712D02*
X10119316Y-8254617D01*
X10119316Y-8254617D02*
X10128840Y-8235569D01*
X10128840Y-8235569D02*
X10138363Y-8226045D01*
X10138363Y-8226045D02*
X10157411Y-8216522D01*
X10309792Y-8416522D02*
X10309792Y-8283188D01*
X10309792Y-8302236D02*
X10319316Y-8292712D01*
X10319316Y-8292712D02*
X10338363Y-8283188D01*
X10338363Y-8283188D02*
X10366935Y-8283188D01*
X10366935Y-8283188D02*
X10385983Y-8292712D01*
X10385983Y-8292712D02*
X10395506Y-8311760D01*
X10395506Y-8311760D02*
X10395506Y-8416522D01*
X10395506Y-8311760D02*
X10405030Y-8292712D01*
X10405030Y-8292712D02*
X10424078Y-8283188D01*
X10424078Y-8283188D02*
X10452649Y-8283188D01*
X10452649Y-8283188D02*
X10471697Y-8292712D01*
X10471697Y-8292712D02*
X10481221Y-8311760D01*
X10481221Y-8311760D02*
X10481221Y-8416522D01*
X10576459Y-8416522D02*
X10576459Y-8283188D01*
X10576459Y-8302236D02*
X10585983Y-8292712D01*
X10585983Y-8292712D02*
X10605030Y-8283188D01*
X10605030Y-8283188D02*
X10633602Y-8283188D01*
X10633602Y-8283188D02*
X10652649Y-8292712D01*
X10652649Y-8292712D02*
X10662173Y-8311760D01*
X10662173Y-8311760D02*
X10662173Y-8416522D01*
X10662173Y-8311760D02*
X10671697Y-8292712D01*
X10671697Y-8292712D02*
X10690744Y-8283188D01*
X10690744Y-8283188D02*
X10719316Y-8283188D01*
X10719316Y-8283188D02*
X10738364Y-8292712D01*
X10738364Y-8292712D02*
X10747887Y-8311760D01*
X10747887Y-8311760D02*
X10747887Y-8416522D01*
X11138364Y-8206998D02*
X10966935Y-8464141D01*
X11395506Y-8216522D02*
X11414554Y-8216522D01*
X11414554Y-8216522D02*
X11433602Y-8226045D01*
X11433602Y-8226045D02*
X11443125Y-8235569D01*
X11443125Y-8235569D02*
X11452649Y-8254617D01*
X11452649Y-8254617D02*
X11462173Y-8292712D01*
X11462173Y-8292712D02*
X11462173Y-8340331D01*
X11462173Y-8340331D02*
X11452649Y-8378426D01*
X11452649Y-8378426D02*
X11443125Y-8397474D01*
X11443125Y-8397474D02*
X11433602Y-8406998D01*
X11433602Y-8406998D02*
X11414554Y-8416522D01*
X11414554Y-8416522D02*
X11395506Y-8416522D01*
X11395506Y-8416522D02*
X11376459Y-8406998D01*
X11376459Y-8406998D02*
X11366935Y-8397474D01*
X11366935Y-8397474D02*
X11357411Y-8378426D01*
X11357411Y-8378426D02*
X11347887Y-8340331D01*
X11347887Y-8340331D02*
X11347887Y-8292712D01*
X11347887Y-8292712D02*
X11357411Y-8254617D01*
X11357411Y-8254617D02*
X11366935Y-8235569D01*
X11366935Y-8235569D02*
X11376459Y-8226045D01*
X11376459Y-8226045D02*
X11395506Y-8216522D01*
X11547887Y-8397474D02*
X11557411Y-8406998D01*
X11557411Y-8406998D02*
X11547887Y-8416522D01*
X11547887Y-8416522D02*
X11538364Y-8406998D01*
X11538364Y-8406998D02*
X11547887Y-8397474D01*
X11547887Y-8397474D02*
X11547887Y-8416522D01*
X11681221Y-8216522D02*
X11700268Y-8216522D01*
X11700268Y-8216522D02*
X11719316Y-8226045D01*
X11719316Y-8226045D02*
X11728840Y-8235569D01*
X11728840Y-8235569D02*
X11738364Y-8254617D01*
X11738364Y-8254617D02*
X11747887Y-8292712D01*
X11747887Y-8292712D02*
X11747887Y-8340331D01*
X11747887Y-8340331D02*
X11738364Y-8378426D01*
X11738364Y-8378426D02*
X11728840Y-8397474D01*
X11728840Y-8397474D02*
X11719316Y-8406998D01*
X11719316Y-8406998D02*
X11700268Y-8416522D01*
X11700268Y-8416522D02*
X11681221Y-8416522D01*
X11681221Y-8416522D02*
X11662173Y-8406998D01*
X11662173Y-8406998D02*
X11652649Y-8397474D01*
X11652649Y-8397474D02*
X11643125Y-8378426D01*
X11643125Y-8378426D02*
X11633602Y-8340331D01*
X11633602Y-8340331D02*
X11633602Y-8292712D01*
X11633602Y-8292712D02*
X11643125Y-8254617D01*
X11643125Y-8254617D02*
X11652649Y-8235569D01*
X11652649Y-8235569D02*
X11662173Y-8226045D01*
X11662173Y-8226045D02*
X11681221Y-8216522D01*
X11938364Y-8416522D02*
X11824078Y-8416522D01*
X11881221Y-8416522D02*
X11881221Y-8216522D01*
X11881221Y-8216522D02*
X11862173Y-8245093D01*
X11862173Y-8245093D02*
X11843125Y-8264141D01*
X11843125Y-8264141D02*
X11824078Y-8273664D01*
X12128840Y-8416522D02*
X12014554Y-8416522D01*
X12071697Y-8416522D02*
X12071697Y-8216522D01*
X12071697Y-8216522D02*
X12052649Y-8245093D01*
X12052649Y-8245093D02*
X12033602Y-8264141D01*
X12033602Y-8264141D02*
X12014554Y-8273664D01*
X12243125Y-8302236D02*
X12224078Y-8292712D01*
X12224078Y-8292712D02*
X12214554Y-8283188D01*
X12214554Y-8283188D02*
X12205030Y-8264141D01*
X12205030Y-8264141D02*
X12205030Y-8254617D01*
X12205030Y-8254617D02*
X12214554Y-8235569D01*
X12214554Y-8235569D02*
X12224078Y-8226045D01*
X12224078Y-8226045D02*
X12243125Y-8216522D01*
X12243125Y-8216522D02*
X12281221Y-8216522D01*
X12281221Y-8216522D02*
X12300268Y-8226045D01*
X12300268Y-8226045D02*
X12309792Y-8235569D01*
X12309792Y-8235569D02*
X12319316Y-8254617D01*
X12319316Y-8254617D02*
X12319316Y-8264141D01*
X12319316Y-8264141D02*
X12309792Y-8283188D01*
X12309792Y-8283188D02*
X12300268Y-8292712D01*
X12300268Y-8292712D02*
X12281221Y-8302236D01*
X12281221Y-8302236D02*
X12243125Y-8302236D01*
X12243125Y-8302236D02*
X12224078Y-8311760D01*
X12224078Y-8311760D02*
X12214554Y-8321283D01*
X12214554Y-8321283D02*
X12205030Y-8340331D01*
X12205030Y-8340331D02*
X12205030Y-8378426D01*
X12205030Y-8378426D02*
X12214554Y-8397474D01*
X12214554Y-8397474D02*
X12224078Y-8406998D01*
X12224078Y-8406998D02*
X12243125Y-8416522D01*
X12243125Y-8416522D02*
X12281221Y-8416522D01*
X12281221Y-8416522D02*
X12300268Y-8406998D01*
X12300268Y-8406998D02*
X12309792Y-8397474D01*
X12309792Y-8397474D02*
X12319316Y-8378426D01*
X12319316Y-8378426D02*
X12319316Y-8340331D01*
X12319316Y-8340331D02*
X12309792Y-8321283D01*
X12309792Y-8321283D02*
X12300268Y-8311760D01*
X12300268Y-8311760D02*
X12281221Y-8302236D01*
X12395506Y-8216522D02*
X12395506Y-8254617D01*
X12471697Y-8216522D02*
X12471697Y-8254617D01*
X12766935Y-8492712D02*
X12757411Y-8483188D01*
X12757411Y-8483188D02*
X12738364Y-8454617D01*
X12738364Y-8454617D02*
X12728840Y-8435569D01*
X12728840Y-8435569D02*
X12719316Y-8406998D01*
X12719316Y-8406998D02*
X12709792Y-8359379D01*
X12709792Y-8359379D02*
X12709792Y-8321283D01*
X12709792Y-8321283D02*
X12719316Y-8273664D01*
X12719316Y-8273664D02*
X12728840Y-8245093D01*
X12728840Y-8245093D02*
X12738364Y-8226045D01*
X12738364Y-8226045D02*
X12757411Y-8197474D01*
X12757411Y-8197474D02*
X12766935Y-8187950D01*
X12938364Y-8216522D02*
X12843126Y-8216522D01*
X12843126Y-8216522D02*
X12833602Y-8311760D01*
X12833602Y-8311760D02*
X12843126Y-8302236D01*
X12843126Y-8302236D02*
X12862173Y-8292712D01*
X12862173Y-8292712D02*
X12909792Y-8292712D01*
X12909792Y-8292712D02*
X12928840Y-8302236D01*
X12928840Y-8302236D02*
X12938364Y-8311760D01*
X12938364Y-8311760D02*
X12947887Y-8330807D01*
X12947887Y-8330807D02*
X12947887Y-8378426D01*
X12947887Y-8378426D02*
X12938364Y-8397474D01*
X12938364Y-8397474D02*
X12928840Y-8406998D01*
X12928840Y-8406998D02*
X12909792Y-8416522D01*
X12909792Y-8416522D02*
X12862173Y-8416522D01*
X12862173Y-8416522D02*
X12843126Y-8406998D01*
X12843126Y-8406998D02*
X12833602Y-8397474D01*
X13014554Y-8216522D02*
X13138364Y-8216522D01*
X13138364Y-8216522D02*
X13071697Y-8292712D01*
X13071697Y-8292712D02*
X13100268Y-8292712D01*
X13100268Y-8292712D02*
X13119316Y-8302236D01*
X13119316Y-8302236D02*
X13128840Y-8311760D01*
X13128840Y-8311760D02*
X13138364Y-8330807D01*
X13138364Y-8330807D02*
X13138364Y-8378426D01*
X13138364Y-8378426D02*
X13128840Y-8397474D01*
X13128840Y-8397474D02*
X13119316Y-8406998D01*
X13119316Y-8406998D02*
X13100268Y-8416522D01*
X13100268Y-8416522D02*
X13043126Y-8416522D01*
X13043126Y-8416522D02*
X13024078Y-8406998D01*
X13024078Y-8406998D02*
X13014554Y-8397474D01*
X13376459Y-8416522D02*
X13376459Y-8216522D01*
X13462173Y-8416522D02*
X13462173Y-8311760D01*
X13462173Y-8311760D02*
X13452649Y-8292712D01*
X13452649Y-8292712D02*
X13433602Y-8283188D01*
X13433602Y-8283188D02*
X13405030Y-8283188D01*
X13405030Y-8283188D02*
X13385983Y-8292712D01*
X13385983Y-8292712D02*
X13376459Y-8302236D01*
X13585983Y-8416522D02*
X13566935Y-8406998D01*
X13566935Y-8406998D02*
X13557411Y-8397474D01*
X13557411Y-8397474D02*
X13547888Y-8378426D01*
X13547888Y-8378426D02*
X13547888Y-8321283D01*
X13547888Y-8321283D02*
X13557411Y-8302236D01*
X13557411Y-8302236D02*
X13566935Y-8292712D01*
X13566935Y-8292712D02*
X13585983Y-8283188D01*
X13585983Y-8283188D02*
X13614554Y-8283188D01*
X13614554Y-8283188D02*
X13633602Y-8292712D01*
X13633602Y-8292712D02*
X13643126Y-8302236D01*
X13643126Y-8302236D02*
X13652649Y-8321283D01*
X13652649Y-8321283D02*
X13652649Y-8378426D01*
X13652649Y-8378426D02*
X13643126Y-8397474D01*
X13643126Y-8397474D02*
X13633602Y-8406998D01*
X13633602Y-8406998D02*
X13614554Y-8416522D01*
X13614554Y-8416522D02*
X13585983Y-8416522D01*
X13766935Y-8416522D02*
X13747888Y-8406998D01*
X13747888Y-8406998D02*
X13738364Y-8387950D01*
X13738364Y-8387950D02*
X13738364Y-8216522D01*
X13919316Y-8406998D02*
X13900269Y-8416522D01*
X13900269Y-8416522D02*
X13862173Y-8416522D01*
X13862173Y-8416522D02*
X13843126Y-8406998D01*
X13843126Y-8406998D02*
X13833602Y-8387950D01*
X13833602Y-8387950D02*
X13833602Y-8311760D01*
X13833602Y-8311760D02*
X13843126Y-8292712D01*
X13843126Y-8292712D02*
X13862173Y-8283188D01*
X13862173Y-8283188D02*
X13900269Y-8283188D01*
X13900269Y-8283188D02*
X13919316Y-8292712D01*
X13919316Y-8292712D02*
X13928840Y-8311760D01*
X13928840Y-8311760D02*
X13928840Y-8330807D01*
X13928840Y-8330807D02*
X13833602Y-8349855D01*
X14005030Y-8406998D02*
X14024078Y-8416522D01*
X14024078Y-8416522D02*
X14062173Y-8416522D01*
X14062173Y-8416522D02*
X14081221Y-8406998D01*
X14081221Y-8406998D02*
X14090745Y-8387950D01*
X14090745Y-8387950D02*
X14090745Y-8378426D01*
X14090745Y-8378426D02*
X14081221Y-8359379D01*
X14081221Y-8359379D02*
X14062173Y-8349855D01*
X14062173Y-8349855D02*
X14033602Y-8349855D01*
X14033602Y-8349855D02*
X14014554Y-8340331D01*
X14014554Y-8340331D02*
X14005030Y-8321283D01*
X14005030Y-8321283D02*
X14005030Y-8311760D01*
X14005030Y-8311760D02*
X14014554Y-8292712D01*
X14014554Y-8292712D02*
X14033602Y-8283188D01*
X14033602Y-8283188D02*
X14062173Y-8283188D01*
X14062173Y-8283188D02*
X14081221Y-8292712D01*
X14157411Y-8492712D02*
X14166935Y-8483188D01*
X14166935Y-8483188D02*
X14185983Y-8454617D01*
X14185983Y-8454617D02*
X14195507Y-8435569D01*
X14195507Y-8435569D02*
X14205030Y-8406998D01*
X14205030Y-8406998D02*
X14214554Y-8359379D01*
X14214554Y-8359379D02*
X14214554Y-8321283D01*
X14214554Y-8321283D02*
X14205030Y-8273664D01*
X14205030Y-8273664D02*
X14195507Y-8245093D01*
X14195507Y-8245093D02*
X14185983Y-8226045D01*
X14185983Y-8226045D02*
X14166935Y-8197474D01*
X14166935Y-8197474D02*
X14157411Y-8187950D01*
D10*
X9205030Y-8587998D02*
G75*
G03*
X9205030Y-8587998I-50000J0D01*
G01*
D11*
X9557411Y-8680522D02*
X9443125Y-8680522D01*
X9500268Y-8680522D02*
X9500268Y-8480522D01*
X9500268Y-8480522D02*
X9481221Y-8509093D01*
X9481221Y-8509093D02*
X9462173Y-8528141D01*
X9462173Y-8528141D02*
X9443125Y-8537664D01*
X9643125Y-8661474D02*
X9652649Y-8670998D01*
X9652649Y-8670998D02*
X9643125Y-8680522D01*
X9643125Y-8680522D02*
X9633602Y-8670998D01*
X9633602Y-8670998D02*
X9643125Y-8661474D01*
X9643125Y-8661474D02*
X9643125Y-8680522D01*
X9776459Y-8480522D02*
X9795506Y-8480522D01*
X9795506Y-8480522D02*
X9814554Y-8490045D01*
X9814554Y-8490045D02*
X9824078Y-8499569D01*
X9824078Y-8499569D02*
X9833602Y-8518617D01*
X9833602Y-8518617D02*
X9843125Y-8556712D01*
X9843125Y-8556712D02*
X9843125Y-8604331D01*
X9843125Y-8604331D02*
X9833602Y-8642426D01*
X9833602Y-8642426D02*
X9824078Y-8661474D01*
X9824078Y-8661474D02*
X9814554Y-8670998D01*
X9814554Y-8670998D02*
X9795506Y-8680522D01*
X9795506Y-8680522D02*
X9776459Y-8680522D01*
X9776459Y-8680522D02*
X9757411Y-8670998D01*
X9757411Y-8670998D02*
X9747887Y-8661474D01*
X9747887Y-8661474D02*
X9738363Y-8642426D01*
X9738363Y-8642426D02*
X9728840Y-8604331D01*
X9728840Y-8604331D02*
X9728840Y-8556712D01*
X9728840Y-8556712D02*
X9738363Y-8518617D01*
X9738363Y-8518617D02*
X9747887Y-8499569D01*
X9747887Y-8499569D02*
X9757411Y-8490045D01*
X9757411Y-8490045D02*
X9776459Y-8480522D01*
X9966935Y-8480522D02*
X9985983Y-8480522D01*
X9985983Y-8480522D02*
X10005030Y-8490045D01*
X10005030Y-8490045D02*
X10014554Y-8499569D01*
X10014554Y-8499569D02*
X10024078Y-8518617D01*
X10024078Y-8518617D02*
X10033602Y-8556712D01*
X10033602Y-8556712D02*
X10033602Y-8604331D01*
X10033602Y-8604331D02*
X10024078Y-8642426D01*
X10024078Y-8642426D02*
X10014554Y-8661474D01*
X10014554Y-8661474D02*
X10005030Y-8670998D01*
X10005030Y-8670998D02*
X9985983Y-8680522D01*
X9985983Y-8680522D02*
X9966935Y-8680522D01*
X9966935Y-8680522D02*
X9947887Y-8670998D01*
X9947887Y-8670998D02*
X9938363Y-8661474D01*
X9938363Y-8661474D02*
X9928840Y-8642426D01*
X9928840Y-8642426D02*
X9919316Y-8604331D01*
X9919316Y-8604331D02*
X9919316Y-8556712D01*
X9919316Y-8556712D02*
X9928840Y-8518617D01*
X9928840Y-8518617D02*
X9938363Y-8499569D01*
X9938363Y-8499569D02*
X9947887Y-8490045D01*
X9947887Y-8490045D02*
X9966935Y-8480522D01*
X10157411Y-8480522D02*
X10176459Y-8480522D01*
X10176459Y-8480522D02*
X10195506Y-8490045D01*
X10195506Y-8490045D02*
X10205030Y-8499569D01*
X10205030Y-8499569D02*
X10214554Y-8518617D01*
X10214554Y-8518617D02*
X10224078Y-8556712D01*
X10224078Y-8556712D02*
X10224078Y-8604331D01*
X10224078Y-8604331D02*
X10214554Y-8642426D01*
X10214554Y-8642426D02*
X10205030Y-8661474D01*
X10205030Y-8661474D02*
X10195506Y-8670998D01*
X10195506Y-8670998D02*
X10176459Y-8680522D01*
X10176459Y-8680522D02*
X10157411Y-8680522D01*
X10157411Y-8680522D02*
X10138363Y-8670998D01*
X10138363Y-8670998D02*
X10128840Y-8661474D01*
X10128840Y-8661474D02*
X10119316Y-8642426D01*
X10119316Y-8642426D02*
X10109792Y-8604331D01*
X10109792Y-8604331D02*
X10109792Y-8556712D01*
X10109792Y-8556712D02*
X10119316Y-8518617D01*
X10119316Y-8518617D02*
X10128840Y-8499569D01*
X10128840Y-8499569D02*
X10138363Y-8490045D01*
X10138363Y-8490045D02*
X10157411Y-8480522D01*
X10309792Y-8680522D02*
X10309792Y-8547188D01*
X10309792Y-8566236D02*
X10319316Y-8556712D01*
X10319316Y-8556712D02*
X10338363Y-8547188D01*
X10338363Y-8547188D02*
X10366935Y-8547188D01*
X10366935Y-8547188D02*
X10385983Y-8556712D01*
X10385983Y-8556712D02*
X10395506Y-8575760D01*
X10395506Y-8575760D02*
X10395506Y-8680522D01*
X10395506Y-8575760D02*
X10405030Y-8556712D01*
X10405030Y-8556712D02*
X10424078Y-8547188D01*
X10424078Y-8547188D02*
X10452649Y-8547188D01*
X10452649Y-8547188D02*
X10471697Y-8556712D01*
X10471697Y-8556712D02*
X10481221Y-8575760D01*
X10481221Y-8575760D02*
X10481221Y-8680522D01*
X10576459Y-8680522D02*
X10576459Y-8547188D01*
X10576459Y-8566236D02*
X10585983Y-8556712D01*
X10585983Y-8556712D02*
X10605030Y-8547188D01*
X10605030Y-8547188D02*
X10633602Y-8547188D01*
X10633602Y-8547188D02*
X10652649Y-8556712D01*
X10652649Y-8556712D02*
X10662173Y-8575760D01*
X10662173Y-8575760D02*
X10662173Y-8680522D01*
X10662173Y-8575760D02*
X10671697Y-8556712D01*
X10671697Y-8556712D02*
X10690744Y-8547188D01*
X10690744Y-8547188D02*
X10719316Y-8547188D01*
X10719316Y-8547188D02*
X10738364Y-8556712D01*
X10738364Y-8556712D02*
X10747887Y-8575760D01*
X10747887Y-8575760D02*
X10747887Y-8680522D01*
X11138364Y-8470998D02*
X10966935Y-8728141D01*
X11395506Y-8480522D02*
X11414554Y-8480522D01*
X11414554Y-8480522D02*
X11433602Y-8490045D01*
X11433602Y-8490045D02*
X11443125Y-8499569D01*
X11443125Y-8499569D02*
X11452649Y-8518617D01*
X11452649Y-8518617D02*
X11462173Y-8556712D01*
X11462173Y-8556712D02*
X11462173Y-8604331D01*
X11462173Y-8604331D02*
X11452649Y-8642426D01*
X11452649Y-8642426D02*
X11443125Y-8661474D01*
X11443125Y-8661474D02*
X11433602Y-8670998D01*
X11433602Y-8670998D02*
X11414554Y-8680522D01*
X11414554Y-8680522D02*
X11395506Y-8680522D01*
X11395506Y-8680522D02*
X11376459Y-8670998D01*
X11376459Y-8670998D02*
X11366935Y-8661474D01*
X11366935Y-8661474D02*
X11357411Y-8642426D01*
X11357411Y-8642426D02*
X11347887Y-8604331D01*
X11347887Y-8604331D02*
X11347887Y-8556712D01*
X11347887Y-8556712D02*
X11357411Y-8518617D01*
X11357411Y-8518617D02*
X11366935Y-8499569D01*
X11366935Y-8499569D02*
X11376459Y-8490045D01*
X11376459Y-8490045D02*
X11395506Y-8480522D01*
X11547887Y-8661474D02*
X11557411Y-8670998D01*
X11557411Y-8670998D02*
X11547887Y-8680522D01*
X11547887Y-8680522D02*
X11538364Y-8670998D01*
X11538364Y-8670998D02*
X11547887Y-8661474D01*
X11547887Y-8661474D02*
X11547887Y-8680522D01*
X11681221Y-8480522D02*
X11700268Y-8480522D01*
X11700268Y-8480522D02*
X11719316Y-8490045D01*
X11719316Y-8490045D02*
X11728840Y-8499569D01*
X11728840Y-8499569D02*
X11738364Y-8518617D01*
X11738364Y-8518617D02*
X11747887Y-8556712D01*
X11747887Y-8556712D02*
X11747887Y-8604331D01*
X11747887Y-8604331D02*
X11738364Y-8642426D01*
X11738364Y-8642426D02*
X11728840Y-8661474D01*
X11728840Y-8661474D02*
X11719316Y-8670998D01*
X11719316Y-8670998D02*
X11700268Y-8680522D01*
X11700268Y-8680522D02*
X11681221Y-8680522D01*
X11681221Y-8680522D02*
X11662173Y-8670998D01*
X11662173Y-8670998D02*
X11652649Y-8661474D01*
X11652649Y-8661474D02*
X11643125Y-8642426D01*
X11643125Y-8642426D02*
X11633602Y-8604331D01*
X11633602Y-8604331D02*
X11633602Y-8556712D01*
X11633602Y-8556712D02*
X11643125Y-8518617D01*
X11643125Y-8518617D02*
X11652649Y-8499569D01*
X11652649Y-8499569D02*
X11662173Y-8490045D01*
X11662173Y-8490045D02*
X11681221Y-8480522D01*
X11814554Y-8480522D02*
X11938364Y-8480522D01*
X11938364Y-8480522D02*
X11871697Y-8556712D01*
X11871697Y-8556712D02*
X11900268Y-8556712D01*
X11900268Y-8556712D02*
X11919316Y-8566236D01*
X11919316Y-8566236D02*
X11928840Y-8575760D01*
X11928840Y-8575760D02*
X11938364Y-8594807D01*
X11938364Y-8594807D02*
X11938364Y-8642426D01*
X11938364Y-8642426D02*
X11928840Y-8661474D01*
X11928840Y-8661474D02*
X11919316Y-8670998D01*
X11919316Y-8670998D02*
X11900268Y-8680522D01*
X11900268Y-8680522D02*
X11843125Y-8680522D01*
X11843125Y-8680522D02*
X11824078Y-8670998D01*
X11824078Y-8670998D02*
X11814554Y-8661474D01*
X12033602Y-8680522D02*
X12071697Y-8680522D01*
X12071697Y-8680522D02*
X12090745Y-8670998D01*
X12090745Y-8670998D02*
X12100268Y-8661474D01*
X12100268Y-8661474D02*
X12119316Y-8632903D01*
X12119316Y-8632903D02*
X12128840Y-8594807D01*
X12128840Y-8594807D02*
X12128840Y-8518617D01*
X12128840Y-8518617D02*
X12119316Y-8499569D01*
X12119316Y-8499569D02*
X12109792Y-8490045D01*
X12109792Y-8490045D02*
X12090745Y-8480522D01*
X12090745Y-8480522D02*
X12052649Y-8480522D01*
X12052649Y-8480522D02*
X12033602Y-8490045D01*
X12033602Y-8490045D02*
X12024078Y-8499569D01*
X12024078Y-8499569D02*
X12014554Y-8518617D01*
X12014554Y-8518617D02*
X12014554Y-8566236D01*
X12014554Y-8566236D02*
X12024078Y-8585284D01*
X12024078Y-8585284D02*
X12033602Y-8594807D01*
X12033602Y-8594807D02*
X12052649Y-8604331D01*
X12052649Y-8604331D02*
X12090745Y-8604331D01*
X12090745Y-8604331D02*
X12109792Y-8594807D01*
X12109792Y-8594807D02*
X12119316Y-8585284D01*
X12119316Y-8585284D02*
X12128840Y-8566236D01*
X12300268Y-8547188D02*
X12300268Y-8680522D01*
X12252649Y-8470998D02*
X12205030Y-8613855D01*
X12205030Y-8613855D02*
X12328840Y-8613855D01*
X12395506Y-8480522D02*
X12395506Y-8518617D01*
X12471697Y-8480522D02*
X12471697Y-8518617D01*
X12766935Y-8756712D02*
X12757411Y-8747188D01*
X12757411Y-8747188D02*
X12738364Y-8718617D01*
X12738364Y-8718617D02*
X12728840Y-8699569D01*
X12728840Y-8699569D02*
X12719316Y-8670998D01*
X12719316Y-8670998D02*
X12709792Y-8623379D01*
X12709792Y-8623379D02*
X12709792Y-8585284D01*
X12709792Y-8585284D02*
X12719316Y-8537664D01*
X12719316Y-8537664D02*
X12728840Y-8509093D01*
X12728840Y-8509093D02*
X12738364Y-8490045D01*
X12738364Y-8490045D02*
X12757411Y-8461474D01*
X12757411Y-8461474D02*
X12766935Y-8451950D01*
X12947887Y-8680522D02*
X12833602Y-8680522D01*
X12890745Y-8680522D02*
X12890745Y-8480522D01*
X12890745Y-8480522D02*
X12871697Y-8509093D01*
X12871697Y-8509093D02*
X12852649Y-8528141D01*
X12852649Y-8528141D02*
X12833602Y-8537664D01*
X13119316Y-8480522D02*
X13081221Y-8480522D01*
X13081221Y-8480522D02*
X13062173Y-8490045D01*
X13062173Y-8490045D02*
X13052649Y-8499569D01*
X13052649Y-8499569D02*
X13033602Y-8528141D01*
X13033602Y-8528141D02*
X13024078Y-8566236D01*
X13024078Y-8566236D02*
X13024078Y-8642426D01*
X13024078Y-8642426D02*
X13033602Y-8661474D01*
X13033602Y-8661474D02*
X13043126Y-8670998D01*
X13043126Y-8670998D02*
X13062173Y-8680522D01*
X13062173Y-8680522D02*
X13100268Y-8680522D01*
X13100268Y-8680522D02*
X13119316Y-8670998D01*
X13119316Y-8670998D02*
X13128840Y-8661474D01*
X13128840Y-8661474D02*
X13138364Y-8642426D01*
X13138364Y-8642426D02*
X13138364Y-8594807D01*
X13138364Y-8594807D02*
X13128840Y-8575760D01*
X13128840Y-8575760D02*
X13119316Y-8566236D01*
X13119316Y-8566236D02*
X13100268Y-8556712D01*
X13100268Y-8556712D02*
X13062173Y-8556712D01*
X13062173Y-8556712D02*
X13043126Y-8566236D01*
X13043126Y-8566236D02*
X13033602Y-8575760D01*
X13033602Y-8575760D02*
X13024078Y-8594807D01*
X13376459Y-8680522D02*
X13376459Y-8480522D01*
X13462173Y-8680522D02*
X13462173Y-8575760D01*
X13462173Y-8575760D02*
X13452649Y-8556712D01*
X13452649Y-8556712D02*
X13433602Y-8547188D01*
X13433602Y-8547188D02*
X13405030Y-8547188D01*
X13405030Y-8547188D02*
X13385983Y-8556712D01*
X13385983Y-8556712D02*
X13376459Y-8566236D01*
X13585983Y-8680522D02*
X13566935Y-8670998D01*
X13566935Y-8670998D02*
X13557411Y-8661474D01*
X13557411Y-8661474D02*
X13547888Y-8642426D01*
X13547888Y-8642426D02*
X13547888Y-8585284D01*
X13547888Y-8585284D02*
X13557411Y-8566236D01*
X13557411Y-8566236D02*
X13566935Y-8556712D01*
X13566935Y-8556712D02*
X13585983Y-8547188D01*
X13585983Y-8547188D02*
X13614554Y-8547188D01*
X13614554Y-8547188D02*
X13633602Y-8556712D01*
X13633602Y-8556712D02*
X13643126Y-8566236D01*
X13643126Y-8566236D02*
X13652649Y-8585284D01*
X13652649Y-8585284D02*
X13652649Y-8642426D01*
X13652649Y-8642426D02*
X13643126Y-8661474D01*
X13643126Y-8661474D02*
X13633602Y-8670998D01*
X13633602Y-8670998D02*
X13614554Y-8680522D01*
X13614554Y-8680522D02*
X13585983Y-8680522D01*
X13766935Y-8680522D02*
X13747888Y-8670998D01*
X13747888Y-8670998D02*
X13738364Y-8651950D01*
X13738364Y-8651950D02*
X13738364Y-8480522D01*
X13919316Y-8670998D02*
X13900269Y-8680522D01*
X13900269Y-8680522D02*
X13862173Y-8680522D01*
X13862173Y-8680522D02*
X13843126Y-8670998D01*
X13843126Y-8670998D02*
X13833602Y-8651950D01*
X13833602Y-8651950D02*
X13833602Y-8575760D01*
X13833602Y-8575760D02*
X13843126Y-8556712D01*
X13843126Y-8556712D02*
X13862173Y-8547188D01*
X13862173Y-8547188D02*
X13900269Y-8547188D01*
X13900269Y-8547188D02*
X13919316Y-8556712D01*
X13919316Y-8556712D02*
X13928840Y-8575760D01*
X13928840Y-8575760D02*
X13928840Y-8594807D01*
X13928840Y-8594807D02*
X13833602Y-8613855D01*
X14005030Y-8670998D02*
X14024078Y-8680522D01*
X14024078Y-8680522D02*
X14062173Y-8680522D01*
X14062173Y-8680522D02*
X14081221Y-8670998D01*
X14081221Y-8670998D02*
X14090745Y-8651950D01*
X14090745Y-8651950D02*
X14090745Y-8642426D01*
X14090745Y-8642426D02*
X14081221Y-8623379D01*
X14081221Y-8623379D02*
X14062173Y-8613855D01*
X14062173Y-8613855D02*
X14033602Y-8613855D01*
X14033602Y-8613855D02*
X14014554Y-8604331D01*
X14014554Y-8604331D02*
X14005030Y-8585284D01*
X14005030Y-8585284D02*
X14005030Y-8575760D01*
X14005030Y-8575760D02*
X14014554Y-8556712D01*
X14014554Y-8556712D02*
X14033602Y-8547188D01*
X14033602Y-8547188D02*
X14062173Y-8547188D01*
X14062173Y-8547188D02*
X14081221Y-8556712D01*
X14157411Y-8756712D02*
X14166935Y-8747188D01*
X14166935Y-8747188D02*
X14185983Y-8718617D01*
X14185983Y-8718617D02*
X14195507Y-8699569D01*
X14195507Y-8699569D02*
X14205030Y-8670998D01*
X14205030Y-8670998D02*
X14214554Y-8623379D01*
X14214554Y-8623379D02*
X14214554Y-8585284D01*
X14214554Y-8585284D02*
X14205030Y-8537664D01*
X14205030Y-8537664D02*
X14195507Y-8509093D01*
X14195507Y-8509093D02*
X14185983Y-8490045D01*
X14185983Y-8490045D02*
X14166935Y-8461474D01*
X14166935Y-8461474D02*
X14157411Y-8451950D01*
M02*
