<?xml version="1.0" standalone="no"?>
<!DOCTYPE svg PUBLIC "-//W3C//DTD SVG 20010904//EN"
 "http://www.w3.org/TR/2001/REC-SVG-20010904/DTD/svg10.dtd">
<svg version="1.0" xmlns="http://www.w3.org/2000/svg"
 width="225.000000pt" height="225.000000pt" viewBox="0 0 225.000000 225.000000"
 preserveAspectRatio="xMidYMid meet">

<g transform="translate(0.000000,225.000000) scale(0.100000,-0.100000)"
fill="#000000" stroke="none">
<path d="M750 1690 l0 -140 65 0 65 0 0 -97 0 -98 -34 -27 c-19 -15 -40 -44
-47 -63 -13 -35 -14 -35 -71 -35 l-57 0 -3 -102 -3 -102 -91 -57 -92 -57 -118
119 -118 118 0 50 c-1 47 -5 54 -56 106 -30 30 -60 55 -67 55 -27 0 -11 -38
37 -85 53 -53 62 -81 32 -108 -30 -27 -53 -20 -108 34 -35 34 -58 50 -68 46
-25 -10 -20 -20 45 -82 60 -57 61 -58 108 -52 l48 6 124 -125 c68 -68 129
-124 136 -124 6 0 49 22 95 50 46 27 86 50 91 50 4 0 7 -18 7 -40 l0 -39 78
-3 77 -3 -47 -24 c-41 -22 -51 -23 -71 -12 -17 9 -30 10 -43 3 -23 -13 -102
-47 -127 -56 -10 -3 -17 -11 -15 -18 1 -7 -6 -27 -15 -45 -9 -18 -17 -38 -17
-44 0 -7 -7 -21 -17 -31 -15 -17 -15 -19 0 -36 10 -10 17 -25 17 -33 0 -8 9
-29 20 -47 11 -18 18 -37 15 -43 -4 -5 2 -12 12 -15 10 -3 37 -15 60 -25 24
-10 49 -19 57 -19 8 0 16 -6 19 -12 3 -10 9 -10 28 -1 38 18 112 50 132 57 10
3 17 11 15 18 -1 7 6 27 15 45 9 18 17 38 17 44 0 7 7 21 17 31 15 17 15 19 0
36 -10 10 -17 25 -17 33 0 8 -9 29 -20 47 -11 18 -19 38 -17 44 1 7 -7 14 -18
16 -41 8 -35 20 28 56 l65 36 266 0 c146 0 266 -3 266 -7 0 -5 -18 -18 -41
-31 -41 -24 -95 -23 -111 1 -5 8 -13 8 -30 0 -36 -18 -111 -50 -129 -56 -9 -3
-19 -16 -22 -29 -9 -40 -32 -95 -46 -112 -12 -14 -11 -19 3 -34 9 -10 16 -24
16 -31 0 -6 8 -26 17 -44 9 -18 16 -38 15 -45 -2 -7 5 -15 15 -18 10 -4 36
-15 59 -25 22 -11 48 -19 56 -19 9 0 18 -6 21 -12 3 -10 9 -10 28 -1 38 18
112 50 132 57 10 3 17 11 15 18 -1 7 6 27 15 45 9 18 17 38 17 44 0 7 7 21 17
31 15 17 15 19 0 36 -10 10 -17 25 -17 33 0 8 -9 29 -20 47 -11 18 -18 37 -15
43 4 5 -3 13 -14 17 -18 6 -14 11 35 41 51 30 57 32 73 17 22 -20 60 -20 89 0
21 14 26 13 77 -18 47 -28 52 -34 35 -40 -11 -4 -20 -14 -20 -23 0 -8 -13 -43
-30 -77 -26 -55 -27 -64 -15 -78 8 -9 15 -22 15 -29 0 -6 8 -26 17 -44 9 -18
16 -38 15 -45 -2 -7 5 -15 15 -18 20 -7 94 -39 132 -57 19 -9 25 -9 28 1 3 6
11 12 19 12 8 0 33 9 57 19 23 10 50 22 60 25 10 3 17 11 15 18 -1 7 6 27 15
45 9 18 17 39 17 48 0 9 7 23 15 32 14 14 14 17 0 32 -8 10 -15 24 -15 32 0 8
-9 29 -20 47 -11 18 -18 37 -15 43 4 5 -2 12 -12 15 -10 4 -36 15 -59 25 -22
11 -48 19 -56 19 -9 0 -18 5 -20 12 -3 9 -14 7 -40 -5 -47 -22 -53 -22 -107
11 l-46 27 96 3 96 3 173 157 c96 86 175 162 177 168 4 12 -174 174 -191 174
-6 0 -51 -37 -99 -81 l-88 -80 -62 3 -62 3 -3 43 -3 42 -120 0 -119 0 0 -45 0
-45 -213 0 -213 0 -13 35 c-7 19 -28 47 -47 61 l-34 26 0 99 0 98 63 3 62 3 3
138 3 137 -181 0 -180 0 0 -140z m250 0 l0 -100 -105 0 -105 0 0 100 0 100
105 0 105 0 0 -100z m70 0 c0 -82 -3 -100 -15 -100 -12 0 -15 18 -15 100 0 82
3 100 15 100 12 0 15 -18 15 -100z m-130 -235 c0 -57 -4 -95 -10 -95 -6 0 -10
38 -10 95 0 57 4 95 10 95 6 0 10 -38 10 -95z m1137 -131 c3 -10 -158 -164
-171 -164 -3 0 -6 10 -6 23 0 15 25 44 76 90 71 64 93 75 101 51z m-1074 -44
c15 -17 27 -35 27 -40 0 -6 -41 -10 -100 -10 -55 0 -100 4 -100 9 0 15 42 62
64 72 34 14 79 1 109 -31z m1052 -78 c-115 -105 -155 -137 -155 -119 0 20 211
208 224 200 5 -4 -26 -40 -69 -81z m-355 53 c0 -25 -1 -25 -80 -25 -79 0 -80
0 -80 25 0 25 1 25 80 25 79 0 80 0 80 -25z m357 -166 c-78 -71 -145 -129
-149 -129 -5 0 -8 11 -8 24 0 19 32 53 133 144 120 110 133 119 149 105 15
-14 5 -26 -125 -144z m-197 -29 l0 -130 -103 0 c-98 0 -105 1 -127 25 -17 18
-33 25 -55 23 -41 -2 -223 106 -227 135 -2 11 -15 29 -30 40 -23 17 -31 18
-57 8 -16 -7 -35 -26 -41 -42 -10 -23 -43 -45 -160 -109 l-148 -80 -101 0
-101 0 0 38 c0 31 5 41 28 54 19 11 33 14 42 8 42 -26 110 10 110 57 0 29 -42
73 -68 73 -29 0 -72 -38 -72 -63 0 -12 -9 -28 -20 -35 -19 -12 -20 -10 -20 58
l0 70 575 0 575 0 0 -130z m-550 34 c0 -19 -5 -24 -24 -24 -30 0 -43 30 -21
47 23 16 45 5 45 -23z m-470 11 c17 -20 5 -45 -20 -45 -23 0 -35 22 -26 45 7
19 30 19 46 0z m438 -73 c18 -2 39 1 47 8 12 10 31 3 105 -41 49 -29 90 -57
90 -61 0 -4 -118 -8 -262 -8 l-263 0 110 60 c64 34 116 57 125 53 8 -3 30 -8
48 -11z m327 -122 c0 -18 -6 -26 -21 -28 -26 -4 -40 24 -23 45 18 21 44 11 44
-17z m-856 -122 c74 -27 116 -130 85 -206 -15 -36 -70 -91 -94 -94 -94 -9
-118 -5 -157 31 -43 39 -53 62 -53 121 0 70 26 114 88 146 29 15 95 16 131 2z
m600 0 c71 -26 109 -115 87 -201 -7 -30 -71 -96 -95 -99 -96 -9 -119 -5 -158
31 -42 38 -56 67 -56 121 0 66 39 128 94 149 30 12 97 11 128 -1z m634 -24
c45 -38 57 -64 57 -125 0 -56 -10 -81 -49 -117 -33 -31 -57 -40 -106 -40 -49
0 -73 9 -108 42 -69 64 -70 159 -4 229 36 39 59 47 119 43 45 -2 64 -9 91 -32z"/>
<path d="M841 1734 c-24 -31 -25 -35 -10 -68 34 -75 146 -37 130 44 -10 54
-85 68 -120 24z m82 -26 c6 -18 -11 -48 -28 -48 -17 0 -34 30 -28 48 3 6 15
12 28 12 13 0 25 -6 28 -12z"/>
<path d="M1615 1129 c-13 -21 19 -29 105 -27 68 2 85 6 85 18 0 12 -18 16 -92
18 -61 2 -94 -1 -98 -9z"/>
<path d="M1617 1073 c-4 -3 -2 -12 4 -20 8 -9 36 -13 84 -13 82 0 105 6 105
26 0 11 -20 14 -93 14 -52 0 -97 -3 -100 -7z"/>
<path d="M642 694 c-16 -11 -22 -25 -22 -54 0 -29 6 -43 22 -54 49 -35 111 -4
111 54 0 58 -62 89 -111 54z m68 -39 c10 -12 10 -18 0 -30 -25 -30 -61 -7 -46
30 3 8 12 15 19 15 8 0 20 -7 27 -15z"/>
<path d="M1239 692 c-31 -26 -31 -78 0 -104 48 -38 114 -8 114 52 0 38 -31 70
-68 70 -13 0 -33 -8 -46 -18z m71 -37 c10 -12 10 -18 0 -30 -7 -8 -18 -15 -25
-15 -7 0 -18 7 -25 15 -10 12 -10 18 0 30 7 8 18 15 25 15 7 0 18 -7 25 -15z"/>
<path d="M1830 683 c-25 -32 -20 -69 12 -95 46 -40 108 -7 108 56 0 65 -79 90
-120 39z m78 -41 c4 -28 -24 -40 -45 -19 -14 13 -14 19 -3 32 18 22 44 15 48
-13z"/>
</g>
</svg>
