<?xml version="1.0" standalone="no"?>
<!DOCTYPE svg PUBLIC "-//W3C//DTD SVG 20010904//EN"
 "http://www.w3.org/TR/2001/REC-SVG-20010904/DTD/svg10.dtd">
<svg version="1.0" xmlns="http://www.w3.org/2000/svg"
 width="320.000000pt" height="180.000000pt" viewBox="0 0 320.000000 180.000000"
 preserveAspectRatio="xMidYMid meet">

<g transform="translate(0.000000,180.000000) scale(0.100000,-0.100000)"
fill="#000000" stroke="none">
<path d="M1495 1286 c-84 -21 -143 -53 -203 -110 -32 -31 -68 -76 -81 -101
-17 -35 -28 -45 -47 -45 -34 0 -41 -26 -15 -54 21 -22 21 -27 10 -96 -17 -115
2 -189 50 -190 9 -1 28 -18 43 -40 35 -50 108 -104 178 -130 41 -16 78 -21
150 -22 148 0 224 27 315 113 29 27 60 66 71 86 10 21 27 45 38 54 12 10 20
34 24 68 4 46 3 51 -15 51 -31 0 -39 86 -12 116 23 24 25 54 4 54 -19 0 -19
17 0 54 15 28 14 31 -4 49 -18 19 -21 19 -36 3 -38 -38 -52 -38 -80 -2 -38 50
-145 116 -223 137 -76 22 -97 22 -167 5z m50 -21 c-118 -21 -208 -79 -272
-176 -22 -33 -53 -53 -53 -33 0 14 62 93 99 127 67 60 160 96 251 95 41 0 38
-1 -25 -13z m198 -39 c56 -27 147 -100 147 -118 0 -6 -23 10 -50 36 -77 73
-126 91 -240 91 -89 0 -99 -2 -158 -34 -57 -31 -142 -110 -142 -132 0 -5 -7
-9 -15 -9 -25 0 39 85 93 125 106 78 251 94 365 41z m-72 -68 c42 -19 55 -31
75 -70 32 -62 31 -92 -2 -107 -63 -28 -164 -35 -148 -10 3 5 10 7 15 4 5 -4 9
-1 9 4 0 15 -27 14 -32 -1 -3 -7 -12 -9 -22 -5 -18 7 -18 8 -1 27 35 38 -17
94 -53 58 -18 -18 -15 -55 6 -68 13 -8 3 -9 -43 -5 -33 4 -68 14 -78 23 -36
32 -202 21 -214 -14 -5 -15 49 -42 114 -59 l58 -15 -49 5 c-48 5 -147 50 -153
71 -5 16 103 45 178 47 l65 2 56 57 c78 80 132 94 219 56z m173 -87 c11 -4 15
-10 10 -13 -14 -8 -84 3 -84 13 0 11 47 11 74 0z m-313 -34 c-13 -13 -26 -3
-16 12 3 6 11 8 17 5 6 -4 6 -10 -1 -17z m289 5 c0 -13 -12 -22 -22 -16 -10 6
-1 24 13 24 5 0 9 -4 9 -8z m66 -40 c22 -22 46 -41 54 -44 12 -4 13 -10 5 -34
-8 -22 -18 -30 -39 -32 -22 -3 -26 -6 -15 -13 12 -8 12 -10 -1 -18 -18 -12
-30 -5 -30 20 0 11 -6 30 -14 42 -22 34 -30 86 -16 102 7 8 14 15 15 15 1 0
20 -17 41 -38z m108 29 c19 -7 19 -8 -2 -29 -12 -12 -32 -22 -44 -21 l-23 0
21 9 c25 10 41 30 25 30 -6 0 -11 -4 -11 -10 0 -5 -5 -10 -10 -10 -6 0 -5 8 2
20 14 22 14 22 42 11z m-610 -32 c6 -5 2 -11 -7 -15 -9 -3 -17 -12 -17 -20 0
-27 -114 -11 -149 22 -12 10 -7 14 25 19 21 3 46 8 54 9 22 5 83 -5 94 -15z
m433 -56 c5 -35 2 -42 -31 -71 -36 -31 -38 -32 -137 -32 l-99 0 20 40 c23 44
45 60 88 60 15 0 53 13 83 28 30 15 58 25 62 21 5 -4 11 -24 14 -46z m-312 21
c88 -8 89 -9 69 -41 -54 -88 -59 -93 -89 -93 -23 1 -35 9 -50 33 -11 18 -30
36 -43 42 -12 5 -22 17 -22 27 0 26 30 50 54 44 12 -4 48 -9 81 -12z m-292
-54 c-8 -32 -33 -24 -33 10 0 27 2 29 19 20 13 -6 17 -17 14 -30z m37 -10 c0
-10 -5 -22 -10 -25 -7 -4 -7 -12 0 -25 18 -34 12 -115 -10 -135 -11 -10 -20
-13 -20 -7 0 7 -6 12 -13 12 -33 0 -48 91 -22 126 15 19 15 19 31 -1 11 -14
14 -35 12 -72 -3 -29 -1 -50 4 -47 12 7 10 102 -2 125 -8 13 -7 19 0 19 7 0 9
8 5 20 -7 23 2 43 16 35 5 -4 9 -15 9 -25z m720 -9 c0 -11 -4 -23 -10 -26 -6
-4 -10 5 -10 19 0 14 5 26 10 26 6 0 10 -9 10 -19z m-121 -33 c1 -5 -13 -8
-31 -8 l-31 0 23 25 c22 24 25 24 31 8 4 -10 8 -21 8 -25z m-437 15 c10 -9 18
-21 18 -26 0 -6 -11 0 -25 13 -19 18 -31 21 -55 16 -19 -3 -29 -2 -25 4 10 16
67 12 87 -7z m-22 -22 c0 -5 -10 -11 -22 -15 -34 -9 -38 -7 -32 9 6 16 54 21
54 6z m627 -32 c-3 -23 -10 -46 -15 -51 -31 -31 -466 -56 -631 -36 l-103 13
-2 48 c-2 50 1 55 18 33 9 -12 46 -13 241 -6 218 9 455 27 464 36 2 2 11 4 19
4 11 0 13 -9 9 -41z m-697 15 c0 -8 -5 -12 -10 -9 -6 4 -8 11 -5 16 9 14 15
11 15 -7z m630 -134 c-59 -115 -202 -190 -362 -190 -127 0 -235 45 -308 127
-41 47 -46 59 -31 81 6 11 28 11 117 1 111 -12 396 -6 499 10 28 5 62 9 78 10
l27 1 -20 -40z"/>
<path d="M1674 1082 c-29 -20 -14 -82 21 -82 17 0 45 27 45 45 0 30 -42 54
-66 37z m16 -22 c0 -5 -4 -10 -10 -10 -5 0 -10 5 -10 10 0 6 5 10 10 10 6 0
10 -4 10 -10z"/>
<path d="M1625 1010 c-3 -5 -1 -10 4 -10 6 0 11 5 11 10 0 6 -2 10 -4 10 -3 0
-8 -4 -11 -10z"/>
<path d="M1683 800 c-25 -10 -27 -18 -14 -38 5 -9 28 -12 77 -10 67 3 69 4 72
31 3 27 3 27 -55 26 -32 0 -68 -4 -80 -9z m127 -14 c0 -16 -97 -33 -125 -22
-24 9 -17 24 13 29 66 10 112 7 112 -7z"/>
</g>
</svg>
