M48
; DRILL file {KiCad 8.0.7} date 2024-12-18T22:04:54+0100
; FORMAT={-:-/ absolute / inch / decimal}
; #@! TF.CreationDate,2024-12-18T22:04:54+01:00
; #@! TF.GenerationSoftware,Kicad,Pcbnew,8.0.7
; #@! TF.FileFunction,Plated,1,2,PTH
FMAT,2
INCH
; #@! TA.AperFunction,Plated,PTH,ViaDrill
T1C0.0118
%
G90
G05
T1
X4.7835Y-4.0748
X4.7835Y-4.4685
X4.9213Y-4.0059
X4.9803Y-3.6811
X4.9803Y-3.878
X4.9803Y-4.4685
X5.1575Y-3.8287
X5.164Y-3.8939
X5.164Y-3.9313
X5.1651Y-4.0315
X5.1653Y-4.0709
X5.1673Y-4.1437
X5.1673Y-4.2835
X5.1693Y-4.2323
X5.1772Y-3.6811
X5.2244Y-3.8386
X5.2343Y-3.9823
X5.2618Y-4.1457
X5.2835Y-3.9114
X5.2838Y-4.052
X5.2992Y-3.813
X5.3425Y-4.1417
X5.3622Y-3.8228
X5.374Y-3.6811
X5.374Y-3.878
X5.3839Y-4.1063
X5.3963Y-3.9845
X5.4232Y-4.0689
X5.4646Y-4.1339
X5.4786Y-4.0657
X5.4793Y-3.8848
X5.543Y-3.9798
X5.5512Y-4.2343
X5.6142Y-4.0906
X5.6693Y-3.8583
X5.6729Y-4.3783
X5.7441Y-4.4843
X5.7677Y-3.6811
X5.8071Y-4.1988
X5.8346Y-4.1457
X5.8366Y-4.4843
X5.8543Y-3.9469
X5.878Y-4.1496
X5.8819Y-3.9803
X5.9016Y-4.313
X5.9134Y-4.1457
X5.9235Y-4.0081
X5.9252Y-4.4843
X5.9646Y-3.6811
X5.9646Y-3.878
X6.0217Y-4.0531
X6.0228Y-3.9819
X6.0295Y-4.2589
X6.033Y-4.1134
X6.0349Y-4.1817
X6.0413Y-4.437
X6.0689Y-3.8799
X6.1614Y-3.6811
X6.1614Y-3.878
X6.1614Y-4.4685
X6.3583Y-4.0748
X6.3583Y-4.2717
X6.3583Y-4.4685
M30
