%TF.GenerationSoftware,KiCad,Pcbnew,8.0.6-8.0.6-0~ubuntu22.04.1*%
%TF.CreationDate,2024-12-18T19:34:09+01:00*%
%TF.ProjectId,Xplore ERC IMU,58706c6f-7265-4204-9552-4320494d552e,rev?*%
%TF.SameCoordinates,Original*%
%TF.FileFunction,Drillmap*%
%TF.FilePolarity,Positive*%
%FSLAX45Y45*%
G04 Gerber Fmt 4.5, Leading zero omitted, Abs format (unit mm)*
G04 Created by KiCad (PCBNEW 8.0.6-8.0.6-0~ubuntu22.04.1) date 2024-12-18 19:34:09*
%MOMM*%
%LPD*%
G01*
G04 APERTURE LIST*
%ADD10C,0.050000*%
%ADD11C,0.200000*%
%ADD12C,0.100000*%
G04 APERTURE END LIST*
D10*
X11870711Y-9040711D02*
X16500000Y-9040711D01*
X16500000Y-11820000D02*
X11870711Y-11820000D01*
X11770711Y-9140711D02*
X11770711Y-11720000D01*
X11770711Y-9140711D02*
G75*
G02*
X11870711Y-9040711I99999J1D01*
G01*
X11870711Y-11820000D02*
G75*
G02*
X11770710Y-11720000I-1J100000D01*
G01*
X16500000Y-9040711D02*
G75*
G02*
X16599999Y-9140711I0J-99999D01*
G01*
X16600000Y-11720000D02*
G75*
G02*
X16500000Y-11820000I-100000J0D01*
G01*
X16600000Y-11720000D02*
X16600000Y-9140711D01*
D11*
D12*
X12135000Y-10335000D02*
X12165000Y-10365000D01*
X12165000Y-10335000D02*
X12135000Y-10365000D01*
X12135000Y-11335000D02*
X12165000Y-11365000D01*
X12165000Y-11335000D02*
X12135000Y-11365000D01*
X12485000Y-10160000D02*
X12515000Y-10190000D01*
X12515000Y-10160000D02*
X12485000Y-10190000D01*
X12635000Y-9335000D02*
X12665000Y-9365000D01*
X12665000Y-9335000D02*
X12635000Y-9365000D01*
X12635000Y-9835000D02*
X12665000Y-9865000D01*
X12665000Y-9835000D02*
X12635000Y-9865000D01*
X12635000Y-11335000D02*
X12665000Y-11365000D01*
X12665000Y-11335000D02*
X12635000Y-11365000D01*
X13085000Y-9710000D02*
X13115000Y-9740000D01*
X13115000Y-9710000D02*
X13085000Y-9740000D01*
X13101610Y-9875552D02*
X13131610Y-9905552D01*
X13131610Y-9875552D02*
X13101610Y-9905552D01*
X13101610Y-9970552D02*
X13131610Y-10000552D01*
X13131610Y-9970552D02*
X13101610Y-10000552D01*
X13104406Y-10225000D02*
X13134406Y-10255000D01*
X13134406Y-10225000D02*
X13104406Y-10255000D01*
X13104735Y-10325000D02*
X13134735Y-10355000D01*
X13134735Y-10325000D02*
X13104735Y-10355000D01*
X13110000Y-10510000D02*
X13140000Y-10540000D01*
X13140000Y-10510000D02*
X13110000Y-10540000D01*
X13110000Y-10865000D02*
X13140000Y-10895000D01*
X13140000Y-10865000D02*
X13110000Y-10895000D01*
X13115000Y-10735000D02*
X13145000Y-10765000D01*
X13145000Y-10735000D02*
X13115000Y-10765000D01*
X13135000Y-9335000D02*
X13165000Y-9365000D01*
X13165000Y-9335000D02*
X13135000Y-9365000D01*
X13255000Y-9735000D02*
X13285000Y-9765000D01*
X13285000Y-9735000D02*
X13255000Y-9765000D01*
X13280000Y-10100000D02*
X13310000Y-10130000D01*
X13310000Y-10100000D02*
X13280000Y-10130000D01*
X13350000Y-10515000D02*
X13380000Y-10545000D01*
X13380000Y-10515000D02*
X13350000Y-10545000D01*
X13405000Y-9920000D02*
X13435000Y-9950000D01*
X13435000Y-9920000D02*
X13405000Y-9950000D01*
X13405845Y-10277100D02*
X13435845Y-10307100D01*
X13435845Y-10277100D02*
X13405845Y-10307100D01*
X13445000Y-9670000D02*
X13475000Y-9700000D01*
X13475000Y-9670000D02*
X13445000Y-9700000D01*
X13555000Y-10505000D02*
X13585000Y-10535000D01*
X13585000Y-10505000D02*
X13555000Y-10535000D01*
X13605000Y-9695000D02*
X13635000Y-9725000D01*
X13635000Y-9695000D02*
X13605000Y-9725000D01*
X13635000Y-9335000D02*
X13665000Y-9365000D01*
X13665000Y-9335000D02*
X13635000Y-9365000D01*
X13635000Y-9835000D02*
X13665000Y-9865000D01*
X13665000Y-9835000D02*
X13635000Y-9865000D01*
X13660000Y-10415000D02*
X13690000Y-10445000D01*
X13690000Y-10415000D02*
X13660000Y-10445000D01*
X13691720Y-10105742D02*
X13721720Y-10135742D01*
X13721720Y-10105742D02*
X13691720Y-10135742D01*
X13760000Y-10320000D02*
X13790000Y-10350000D01*
X13790000Y-10320000D02*
X13760000Y-10350000D01*
X13865000Y-10485000D02*
X13895000Y-10515000D01*
X13895000Y-10485000D02*
X13865000Y-10515000D01*
X13900614Y-10311886D02*
X13930614Y-10341886D01*
X13930614Y-10311886D02*
X13900614Y-10341886D01*
X13902500Y-9852500D02*
X13932500Y-9882500D01*
X13932500Y-9852500D02*
X13902500Y-9882500D01*
X14064198Y-10093599D02*
X14094198Y-10123599D01*
X14094198Y-10093599D02*
X14064198Y-10123599D01*
X14085000Y-10740000D02*
X14115000Y-10770000D01*
X14115000Y-10740000D02*
X14085000Y-10770000D01*
X14245000Y-10375000D02*
X14275000Y-10405000D01*
X14275000Y-10375000D02*
X14245000Y-10405000D01*
X14385000Y-9785000D02*
X14415000Y-9815000D01*
X14415000Y-9785000D02*
X14385000Y-9815000D01*
X14394049Y-11105973D02*
X14424049Y-11135973D01*
X14424049Y-11105973D02*
X14394049Y-11135973D01*
X14575000Y-11375000D02*
X14605000Y-11405000D01*
X14605000Y-11375000D02*
X14575000Y-11405000D01*
X14635000Y-9335000D02*
X14665000Y-9365000D01*
X14665000Y-9335000D02*
X14635000Y-9365000D01*
X14735000Y-10650000D02*
X14765000Y-10680000D01*
X14765000Y-10650000D02*
X14735000Y-10680000D01*
X14805000Y-10515000D02*
X14835000Y-10545000D01*
X14835000Y-10515000D02*
X14805000Y-10545000D01*
X14810000Y-11375000D02*
X14840000Y-11405000D01*
X14840000Y-11375000D02*
X14810000Y-11405000D01*
X14855000Y-10010000D02*
X14885000Y-10040000D01*
X14885000Y-10010000D02*
X14855000Y-10040000D01*
X14915000Y-10525000D02*
X14945000Y-10555000D01*
X14945000Y-10525000D02*
X14915000Y-10555000D01*
X14925000Y-10095000D02*
X14955000Y-10125000D01*
X14955000Y-10095000D02*
X14925000Y-10125000D01*
X14975000Y-10940000D02*
X15005000Y-10970000D01*
X15005000Y-10940000D02*
X14975000Y-10970000D01*
X15005000Y-10515000D02*
X15035000Y-10545000D01*
X15035000Y-10515000D02*
X15005000Y-10545000D01*
X15030576Y-10165576D02*
X15060576Y-10195576D01*
X15060576Y-10165576D02*
X15030576Y-10195576D01*
X15035000Y-11375000D02*
X15065000Y-11405000D01*
X15065000Y-11375000D02*
X15035000Y-11405000D01*
X15135000Y-9335000D02*
X15165000Y-9365000D01*
X15165000Y-9335000D02*
X15135000Y-9365000D01*
X15135000Y-9835000D02*
X15165000Y-9865000D01*
X15165000Y-9835000D02*
X15135000Y-9865000D01*
X15280000Y-10280000D02*
X15310000Y-10310000D01*
X15310000Y-10280000D02*
X15280000Y-10310000D01*
X15282787Y-10098913D02*
X15312787Y-10128913D01*
X15312787Y-10098913D02*
X15282787Y-10128913D01*
X15300025Y-10802688D02*
X15330025Y-10832688D01*
X15330025Y-10802688D02*
X15300025Y-10832688D01*
X15308943Y-10432981D02*
X15338943Y-10462981D01*
X15338943Y-10432981D02*
X15308943Y-10462981D01*
X15313598Y-10606500D02*
X15343598Y-10636500D01*
X15343598Y-10606500D02*
X15313598Y-10636500D01*
X15330000Y-11255000D02*
X15360000Y-11285000D01*
X15360000Y-11255000D02*
X15330000Y-11285000D01*
X15400000Y-9840000D02*
X15430000Y-9870000D01*
X15430000Y-9840000D02*
X15400000Y-9870000D01*
X15635000Y-9335000D02*
X15665000Y-9365000D01*
X15665000Y-9335000D02*
X15635000Y-9365000D01*
X15635000Y-9835000D02*
X15665000Y-9865000D01*
X15665000Y-9835000D02*
X15635000Y-9865000D01*
X15635000Y-11335000D02*
X15665000Y-11365000D01*
X15665000Y-11335000D02*
X15635000Y-11365000D01*
X16135000Y-10335000D02*
X16165000Y-10365000D01*
X16165000Y-10335000D02*
X16135000Y-10365000D01*
X16135000Y-10835000D02*
X16165000Y-10865000D01*
X16165000Y-10835000D02*
X16135000Y-10865000D01*
X16135000Y-11335000D02*
X16165000Y-11365000D01*
X16165000Y-11335000D02*
X16135000Y-11365000D01*
D11*
X12028987Y-12133984D02*
X12028987Y-11933984D01*
X12028987Y-11933984D02*
X12076606Y-11933984D01*
X12076606Y-11933984D02*
X12105178Y-11943508D01*
X12105178Y-11943508D02*
X12124226Y-11962555D01*
X12124226Y-11962555D02*
X12133749Y-11981603D01*
X12133749Y-11981603D02*
X12143273Y-12019698D01*
X12143273Y-12019698D02*
X12143273Y-12048269D01*
X12143273Y-12048269D02*
X12133749Y-12086365D01*
X12133749Y-12086365D02*
X12124226Y-12105412D01*
X12124226Y-12105412D02*
X12105178Y-12124460D01*
X12105178Y-12124460D02*
X12076606Y-12133984D01*
X12076606Y-12133984D02*
X12028987Y-12133984D01*
X12228987Y-12133984D02*
X12228987Y-12000650D01*
X12228987Y-12038746D02*
X12238511Y-12019698D01*
X12238511Y-12019698D02*
X12248035Y-12010174D01*
X12248035Y-12010174D02*
X12267083Y-12000650D01*
X12267083Y-12000650D02*
X12286130Y-12000650D01*
X12352797Y-12133984D02*
X12352797Y-12000650D01*
X12352797Y-11933984D02*
X12343273Y-11943508D01*
X12343273Y-11943508D02*
X12352797Y-11953031D01*
X12352797Y-11953031D02*
X12362321Y-11943508D01*
X12362321Y-11943508D02*
X12352797Y-11933984D01*
X12352797Y-11933984D02*
X12352797Y-11953031D01*
X12476606Y-12133984D02*
X12457559Y-12124460D01*
X12457559Y-12124460D02*
X12448035Y-12105412D01*
X12448035Y-12105412D02*
X12448035Y-11933984D01*
X12581368Y-12133984D02*
X12562321Y-12124460D01*
X12562321Y-12124460D02*
X12552797Y-12105412D01*
X12552797Y-12105412D02*
X12552797Y-11933984D01*
X12809940Y-12133984D02*
X12809940Y-11933984D01*
X12809940Y-11933984D02*
X12876607Y-12076841D01*
X12876607Y-12076841D02*
X12943273Y-11933984D01*
X12943273Y-11933984D02*
X12943273Y-12133984D01*
X13124226Y-12133984D02*
X13124226Y-12029222D01*
X13124226Y-12029222D02*
X13114702Y-12010174D01*
X13114702Y-12010174D02*
X13095654Y-12000650D01*
X13095654Y-12000650D02*
X13057559Y-12000650D01*
X13057559Y-12000650D02*
X13038511Y-12010174D01*
X13124226Y-12124460D02*
X13105178Y-12133984D01*
X13105178Y-12133984D02*
X13057559Y-12133984D01*
X13057559Y-12133984D02*
X13038511Y-12124460D01*
X13038511Y-12124460D02*
X13028987Y-12105412D01*
X13028987Y-12105412D02*
X13028987Y-12086365D01*
X13028987Y-12086365D02*
X13038511Y-12067317D01*
X13038511Y-12067317D02*
X13057559Y-12057793D01*
X13057559Y-12057793D02*
X13105178Y-12057793D01*
X13105178Y-12057793D02*
X13124226Y-12048269D01*
X13219464Y-12000650D02*
X13219464Y-12200650D01*
X13219464Y-12010174D02*
X13238511Y-12000650D01*
X13238511Y-12000650D02*
X13276607Y-12000650D01*
X13276607Y-12000650D02*
X13295654Y-12010174D01*
X13295654Y-12010174D02*
X13305178Y-12019698D01*
X13305178Y-12019698D02*
X13314702Y-12038746D01*
X13314702Y-12038746D02*
X13314702Y-12095888D01*
X13314702Y-12095888D02*
X13305178Y-12114936D01*
X13305178Y-12114936D02*
X13295654Y-12124460D01*
X13295654Y-12124460D02*
X13276607Y-12133984D01*
X13276607Y-12133984D02*
X13238511Y-12133984D01*
X13238511Y-12133984D02*
X13219464Y-12124460D01*
X13400416Y-12114936D02*
X13409940Y-12124460D01*
X13409940Y-12124460D02*
X13400416Y-12133984D01*
X13400416Y-12133984D02*
X13390892Y-12124460D01*
X13390892Y-12124460D02*
X13400416Y-12114936D01*
X13400416Y-12114936D02*
X13400416Y-12133984D01*
X13400416Y-12010174D02*
X13409940Y-12019698D01*
X13409940Y-12019698D02*
X13400416Y-12029222D01*
X13400416Y-12029222D02*
X13390892Y-12019698D01*
X13390892Y-12019698D02*
X13400416Y-12010174D01*
X13400416Y-12010174D02*
X13400416Y-12029222D01*
D12*
X11738211Y-12447500D02*
X11768211Y-12477500D01*
X11768211Y-12447500D02*
X11738211Y-12477500D01*
D11*
X12067083Y-12353984D02*
X12086130Y-12353984D01*
X12086130Y-12353984D02*
X12105178Y-12363508D01*
X12105178Y-12363508D02*
X12114702Y-12373031D01*
X12114702Y-12373031D02*
X12124226Y-12392079D01*
X12124226Y-12392079D02*
X12133749Y-12430174D01*
X12133749Y-12430174D02*
X12133749Y-12477793D01*
X12133749Y-12477793D02*
X12124226Y-12515888D01*
X12124226Y-12515888D02*
X12114702Y-12534936D01*
X12114702Y-12534936D02*
X12105178Y-12544460D01*
X12105178Y-12544460D02*
X12086130Y-12553984D01*
X12086130Y-12553984D02*
X12067083Y-12553984D01*
X12067083Y-12553984D02*
X12048035Y-12544460D01*
X12048035Y-12544460D02*
X12038511Y-12534936D01*
X12038511Y-12534936D02*
X12028987Y-12515888D01*
X12028987Y-12515888D02*
X12019464Y-12477793D01*
X12019464Y-12477793D02*
X12019464Y-12430174D01*
X12019464Y-12430174D02*
X12028987Y-12392079D01*
X12028987Y-12392079D02*
X12038511Y-12373031D01*
X12038511Y-12373031D02*
X12048035Y-12363508D01*
X12048035Y-12363508D02*
X12067083Y-12353984D01*
X12219464Y-12534936D02*
X12228987Y-12544460D01*
X12228987Y-12544460D02*
X12219464Y-12553984D01*
X12219464Y-12553984D02*
X12209940Y-12544460D01*
X12209940Y-12544460D02*
X12219464Y-12534936D01*
X12219464Y-12534936D02*
X12219464Y-12553984D01*
X12295654Y-12353984D02*
X12419464Y-12353984D01*
X12419464Y-12353984D02*
X12352797Y-12430174D01*
X12352797Y-12430174D02*
X12381368Y-12430174D01*
X12381368Y-12430174D02*
X12400416Y-12439698D01*
X12400416Y-12439698D02*
X12409940Y-12449222D01*
X12409940Y-12449222D02*
X12419464Y-12468269D01*
X12419464Y-12468269D02*
X12419464Y-12515888D01*
X12419464Y-12515888D02*
X12409940Y-12534936D01*
X12409940Y-12534936D02*
X12400416Y-12544460D01*
X12400416Y-12544460D02*
X12381368Y-12553984D01*
X12381368Y-12553984D02*
X12324226Y-12553984D01*
X12324226Y-12553984D02*
X12305178Y-12544460D01*
X12305178Y-12544460D02*
X12295654Y-12534936D01*
X12543273Y-12353984D02*
X12562321Y-12353984D01*
X12562321Y-12353984D02*
X12581368Y-12363508D01*
X12581368Y-12363508D02*
X12590892Y-12373031D01*
X12590892Y-12373031D02*
X12600416Y-12392079D01*
X12600416Y-12392079D02*
X12609940Y-12430174D01*
X12609940Y-12430174D02*
X12609940Y-12477793D01*
X12609940Y-12477793D02*
X12600416Y-12515888D01*
X12600416Y-12515888D02*
X12590892Y-12534936D01*
X12590892Y-12534936D02*
X12581368Y-12544460D01*
X12581368Y-12544460D02*
X12562321Y-12553984D01*
X12562321Y-12553984D02*
X12543273Y-12553984D01*
X12543273Y-12553984D02*
X12524226Y-12544460D01*
X12524226Y-12544460D02*
X12514702Y-12534936D01*
X12514702Y-12534936D02*
X12505178Y-12515888D01*
X12505178Y-12515888D02*
X12495654Y-12477793D01*
X12495654Y-12477793D02*
X12495654Y-12430174D01*
X12495654Y-12430174D02*
X12505178Y-12392079D01*
X12505178Y-12392079D02*
X12514702Y-12373031D01*
X12514702Y-12373031D02*
X12524226Y-12363508D01*
X12524226Y-12363508D02*
X12543273Y-12353984D01*
X12733749Y-12353984D02*
X12752797Y-12353984D01*
X12752797Y-12353984D02*
X12771845Y-12363508D01*
X12771845Y-12363508D02*
X12781368Y-12373031D01*
X12781368Y-12373031D02*
X12790892Y-12392079D01*
X12790892Y-12392079D02*
X12800416Y-12430174D01*
X12800416Y-12430174D02*
X12800416Y-12477793D01*
X12800416Y-12477793D02*
X12790892Y-12515888D01*
X12790892Y-12515888D02*
X12781368Y-12534936D01*
X12781368Y-12534936D02*
X12771845Y-12544460D01*
X12771845Y-12544460D02*
X12752797Y-12553984D01*
X12752797Y-12553984D02*
X12733749Y-12553984D01*
X12733749Y-12553984D02*
X12714702Y-12544460D01*
X12714702Y-12544460D02*
X12705178Y-12534936D01*
X12705178Y-12534936D02*
X12695654Y-12515888D01*
X12695654Y-12515888D02*
X12686130Y-12477793D01*
X12686130Y-12477793D02*
X12686130Y-12430174D01*
X12686130Y-12430174D02*
X12695654Y-12392079D01*
X12695654Y-12392079D02*
X12705178Y-12373031D01*
X12705178Y-12373031D02*
X12714702Y-12363508D01*
X12714702Y-12363508D02*
X12733749Y-12353984D01*
X12886130Y-12553984D02*
X12886130Y-12420650D01*
X12886130Y-12439698D02*
X12895654Y-12430174D01*
X12895654Y-12430174D02*
X12914702Y-12420650D01*
X12914702Y-12420650D02*
X12943273Y-12420650D01*
X12943273Y-12420650D02*
X12962321Y-12430174D01*
X12962321Y-12430174D02*
X12971845Y-12449222D01*
X12971845Y-12449222D02*
X12971845Y-12553984D01*
X12971845Y-12449222D02*
X12981368Y-12430174D01*
X12981368Y-12430174D02*
X13000416Y-12420650D01*
X13000416Y-12420650D02*
X13028987Y-12420650D01*
X13028987Y-12420650D02*
X13048035Y-12430174D01*
X13048035Y-12430174D02*
X13057559Y-12449222D01*
X13057559Y-12449222D02*
X13057559Y-12553984D01*
X13152797Y-12553984D02*
X13152797Y-12420650D01*
X13152797Y-12439698D02*
X13162321Y-12430174D01*
X13162321Y-12430174D02*
X13181368Y-12420650D01*
X13181368Y-12420650D02*
X13209940Y-12420650D01*
X13209940Y-12420650D02*
X13228988Y-12430174D01*
X13228988Y-12430174D02*
X13238511Y-12449222D01*
X13238511Y-12449222D02*
X13238511Y-12553984D01*
X13238511Y-12449222D02*
X13248035Y-12430174D01*
X13248035Y-12430174D02*
X13267083Y-12420650D01*
X13267083Y-12420650D02*
X13295654Y-12420650D01*
X13295654Y-12420650D02*
X13314702Y-12430174D01*
X13314702Y-12430174D02*
X13324226Y-12449222D01*
X13324226Y-12449222D02*
X13324226Y-12553984D01*
X13714702Y-12344460D02*
X13543273Y-12601603D01*
X13971845Y-12353984D02*
X13990892Y-12353984D01*
X13990892Y-12353984D02*
X14009940Y-12363508D01*
X14009940Y-12363508D02*
X14019464Y-12373031D01*
X14019464Y-12373031D02*
X14028988Y-12392079D01*
X14028988Y-12392079D02*
X14038511Y-12430174D01*
X14038511Y-12430174D02*
X14038511Y-12477793D01*
X14038511Y-12477793D02*
X14028988Y-12515888D01*
X14028988Y-12515888D02*
X14019464Y-12534936D01*
X14019464Y-12534936D02*
X14009940Y-12544460D01*
X14009940Y-12544460D02*
X13990892Y-12553984D01*
X13990892Y-12553984D02*
X13971845Y-12553984D01*
X13971845Y-12553984D02*
X13952797Y-12544460D01*
X13952797Y-12544460D02*
X13943273Y-12534936D01*
X13943273Y-12534936D02*
X13933750Y-12515888D01*
X13933750Y-12515888D02*
X13924226Y-12477793D01*
X13924226Y-12477793D02*
X13924226Y-12430174D01*
X13924226Y-12430174D02*
X13933750Y-12392079D01*
X13933750Y-12392079D02*
X13943273Y-12373031D01*
X13943273Y-12373031D02*
X13952797Y-12363508D01*
X13952797Y-12363508D02*
X13971845Y-12353984D01*
X14124226Y-12534936D02*
X14133750Y-12544460D01*
X14133750Y-12544460D02*
X14124226Y-12553984D01*
X14124226Y-12553984D02*
X14114702Y-12544460D01*
X14114702Y-12544460D02*
X14124226Y-12534936D01*
X14124226Y-12534936D02*
X14124226Y-12553984D01*
X14257559Y-12353984D02*
X14276607Y-12353984D01*
X14276607Y-12353984D02*
X14295654Y-12363508D01*
X14295654Y-12363508D02*
X14305178Y-12373031D01*
X14305178Y-12373031D02*
X14314702Y-12392079D01*
X14314702Y-12392079D02*
X14324226Y-12430174D01*
X14324226Y-12430174D02*
X14324226Y-12477793D01*
X14324226Y-12477793D02*
X14314702Y-12515888D01*
X14314702Y-12515888D02*
X14305178Y-12534936D01*
X14305178Y-12534936D02*
X14295654Y-12544460D01*
X14295654Y-12544460D02*
X14276607Y-12553984D01*
X14276607Y-12553984D02*
X14257559Y-12553984D01*
X14257559Y-12553984D02*
X14238511Y-12544460D01*
X14238511Y-12544460D02*
X14228988Y-12534936D01*
X14228988Y-12534936D02*
X14219464Y-12515888D01*
X14219464Y-12515888D02*
X14209940Y-12477793D01*
X14209940Y-12477793D02*
X14209940Y-12430174D01*
X14209940Y-12430174D02*
X14219464Y-12392079D01*
X14219464Y-12392079D02*
X14228988Y-12373031D01*
X14228988Y-12373031D02*
X14238511Y-12363508D01*
X14238511Y-12363508D02*
X14257559Y-12353984D01*
X14514702Y-12553984D02*
X14400416Y-12553984D01*
X14457559Y-12553984D02*
X14457559Y-12353984D01*
X14457559Y-12353984D02*
X14438511Y-12382555D01*
X14438511Y-12382555D02*
X14419464Y-12401603D01*
X14419464Y-12401603D02*
X14400416Y-12411127D01*
X14705178Y-12553984D02*
X14590892Y-12553984D01*
X14648035Y-12553984D02*
X14648035Y-12353984D01*
X14648035Y-12353984D02*
X14628988Y-12382555D01*
X14628988Y-12382555D02*
X14609940Y-12401603D01*
X14609940Y-12401603D02*
X14590892Y-12411127D01*
X14819464Y-12439698D02*
X14800416Y-12430174D01*
X14800416Y-12430174D02*
X14790892Y-12420650D01*
X14790892Y-12420650D02*
X14781369Y-12401603D01*
X14781369Y-12401603D02*
X14781369Y-12392079D01*
X14781369Y-12392079D02*
X14790892Y-12373031D01*
X14790892Y-12373031D02*
X14800416Y-12363508D01*
X14800416Y-12363508D02*
X14819464Y-12353984D01*
X14819464Y-12353984D02*
X14857559Y-12353984D01*
X14857559Y-12353984D02*
X14876607Y-12363508D01*
X14876607Y-12363508D02*
X14886131Y-12373031D01*
X14886131Y-12373031D02*
X14895654Y-12392079D01*
X14895654Y-12392079D02*
X14895654Y-12401603D01*
X14895654Y-12401603D02*
X14886131Y-12420650D01*
X14886131Y-12420650D02*
X14876607Y-12430174D01*
X14876607Y-12430174D02*
X14857559Y-12439698D01*
X14857559Y-12439698D02*
X14819464Y-12439698D01*
X14819464Y-12439698D02*
X14800416Y-12449222D01*
X14800416Y-12449222D02*
X14790892Y-12458746D01*
X14790892Y-12458746D02*
X14781369Y-12477793D01*
X14781369Y-12477793D02*
X14781369Y-12515888D01*
X14781369Y-12515888D02*
X14790892Y-12534936D01*
X14790892Y-12534936D02*
X14800416Y-12544460D01*
X14800416Y-12544460D02*
X14819464Y-12553984D01*
X14819464Y-12553984D02*
X14857559Y-12553984D01*
X14857559Y-12553984D02*
X14876607Y-12544460D01*
X14876607Y-12544460D02*
X14886131Y-12534936D01*
X14886131Y-12534936D02*
X14895654Y-12515888D01*
X14895654Y-12515888D02*
X14895654Y-12477793D01*
X14895654Y-12477793D02*
X14886131Y-12458746D01*
X14886131Y-12458746D02*
X14876607Y-12449222D01*
X14876607Y-12449222D02*
X14857559Y-12439698D01*
X14971845Y-12353984D02*
X14971845Y-12392079D01*
X15048035Y-12353984D02*
X15048035Y-12392079D01*
X15343274Y-12630174D02*
X15333750Y-12620650D01*
X15333750Y-12620650D02*
X15314702Y-12592079D01*
X15314702Y-12592079D02*
X15305178Y-12573031D01*
X15305178Y-12573031D02*
X15295654Y-12544460D01*
X15295654Y-12544460D02*
X15286131Y-12496841D01*
X15286131Y-12496841D02*
X15286131Y-12458746D01*
X15286131Y-12458746D02*
X15295654Y-12411127D01*
X15295654Y-12411127D02*
X15305178Y-12382555D01*
X15305178Y-12382555D02*
X15314702Y-12363508D01*
X15314702Y-12363508D02*
X15333750Y-12334936D01*
X15333750Y-12334936D02*
X15343274Y-12325412D01*
X15505178Y-12353984D02*
X15467083Y-12353984D01*
X15467083Y-12353984D02*
X15448035Y-12363508D01*
X15448035Y-12363508D02*
X15438512Y-12373031D01*
X15438512Y-12373031D02*
X15419464Y-12401603D01*
X15419464Y-12401603D02*
X15409940Y-12439698D01*
X15409940Y-12439698D02*
X15409940Y-12515888D01*
X15409940Y-12515888D02*
X15419464Y-12534936D01*
X15419464Y-12534936D02*
X15428988Y-12544460D01*
X15428988Y-12544460D02*
X15448035Y-12553984D01*
X15448035Y-12553984D02*
X15486131Y-12553984D01*
X15486131Y-12553984D02*
X15505178Y-12544460D01*
X15505178Y-12544460D02*
X15514702Y-12534936D01*
X15514702Y-12534936D02*
X15524226Y-12515888D01*
X15524226Y-12515888D02*
X15524226Y-12468269D01*
X15524226Y-12468269D02*
X15514702Y-12449222D01*
X15514702Y-12449222D02*
X15505178Y-12439698D01*
X15505178Y-12439698D02*
X15486131Y-12430174D01*
X15486131Y-12430174D02*
X15448035Y-12430174D01*
X15448035Y-12430174D02*
X15428988Y-12439698D01*
X15428988Y-12439698D02*
X15419464Y-12449222D01*
X15419464Y-12449222D02*
X15409940Y-12468269D01*
X15590893Y-12353984D02*
X15714702Y-12353984D01*
X15714702Y-12353984D02*
X15648035Y-12430174D01*
X15648035Y-12430174D02*
X15676607Y-12430174D01*
X15676607Y-12430174D02*
X15695654Y-12439698D01*
X15695654Y-12439698D02*
X15705178Y-12449222D01*
X15705178Y-12449222D02*
X15714702Y-12468269D01*
X15714702Y-12468269D02*
X15714702Y-12515888D01*
X15714702Y-12515888D02*
X15705178Y-12534936D01*
X15705178Y-12534936D02*
X15695654Y-12544460D01*
X15695654Y-12544460D02*
X15676607Y-12553984D01*
X15676607Y-12553984D02*
X15619464Y-12553984D01*
X15619464Y-12553984D02*
X15600416Y-12544460D01*
X15600416Y-12544460D02*
X15590893Y-12534936D01*
X15952797Y-12553984D02*
X15952797Y-12353984D01*
X16038512Y-12553984D02*
X16038512Y-12449222D01*
X16038512Y-12449222D02*
X16028988Y-12430174D01*
X16028988Y-12430174D02*
X16009940Y-12420650D01*
X16009940Y-12420650D02*
X15981369Y-12420650D01*
X15981369Y-12420650D02*
X15962321Y-12430174D01*
X15962321Y-12430174D02*
X15952797Y-12439698D01*
X16162321Y-12553984D02*
X16143274Y-12544460D01*
X16143274Y-12544460D02*
X16133750Y-12534936D01*
X16133750Y-12534936D02*
X16124226Y-12515888D01*
X16124226Y-12515888D02*
X16124226Y-12458746D01*
X16124226Y-12458746D02*
X16133750Y-12439698D01*
X16133750Y-12439698D02*
X16143274Y-12430174D01*
X16143274Y-12430174D02*
X16162321Y-12420650D01*
X16162321Y-12420650D02*
X16190893Y-12420650D01*
X16190893Y-12420650D02*
X16209940Y-12430174D01*
X16209940Y-12430174D02*
X16219464Y-12439698D01*
X16219464Y-12439698D02*
X16228988Y-12458746D01*
X16228988Y-12458746D02*
X16228988Y-12515888D01*
X16228988Y-12515888D02*
X16219464Y-12534936D01*
X16219464Y-12534936D02*
X16209940Y-12544460D01*
X16209940Y-12544460D02*
X16190893Y-12553984D01*
X16190893Y-12553984D02*
X16162321Y-12553984D01*
X16343274Y-12553984D02*
X16324226Y-12544460D01*
X16324226Y-12544460D02*
X16314702Y-12525412D01*
X16314702Y-12525412D02*
X16314702Y-12353984D01*
X16495655Y-12544460D02*
X16476607Y-12553984D01*
X16476607Y-12553984D02*
X16438512Y-12553984D01*
X16438512Y-12553984D02*
X16419464Y-12544460D01*
X16419464Y-12544460D02*
X16409940Y-12525412D01*
X16409940Y-12525412D02*
X16409940Y-12449222D01*
X16409940Y-12449222D02*
X16419464Y-12430174D01*
X16419464Y-12430174D02*
X16438512Y-12420650D01*
X16438512Y-12420650D02*
X16476607Y-12420650D01*
X16476607Y-12420650D02*
X16495655Y-12430174D01*
X16495655Y-12430174D02*
X16505178Y-12449222D01*
X16505178Y-12449222D02*
X16505178Y-12468269D01*
X16505178Y-12468269D02*
X16409940Y-12487317D01*
X16581369Y-12544460D02*
X16600416Y-12553984D01*
X16600416Y-12553984D02*
X16638512Y-12553984D01*
X16638512Y-12553984D02*
X16657559Y-12544460D01*
X16657559Y-12544460D02*
X16667083Y-12525412D01*
X16667083Y-12525412D02*
X16667083Y-12515888D01*
X16667083Y-12515888D02*
X16657559Y-12496841D01*
X16657559Y-12496841D02*
X16638512Y-12487317D01*
X16638512Y-12487317D02*
X16609940Y-12487317D01*
X16609940Y-12487317D02*
X16590893Y-12477793D01*
X16590893Y-12477793D02*
X16581369Y-12458746D01*
X16581369Y-12458746D02*
X16581369Y-12449222D01*
X16581369Y-12449222D02*
X16590893Y-12430174D01*
X16590893Y-12430174D02*
X16609940Y-12420650D01*
X16609940Y-12420650D02*
X16638512Y-12420650D01*
X16638512Y-12420650D02*
X16657559Y-12430174D01*
X16733750Y-12630174D02*
X16743274Y-12620650D01*
X16743274Y-12620650D02*
X16762321Y-12592079D01*
X16762321Y-12592079D02*
X16771845Y-12573031D01*
X16771845Y-12573031D02*
X16781369Y-12544460D01*
X16781369Y-12544460D02*
X16790893Y-12496841D01*
X16790893Y-12496841D02*
X16790893Y-12458746D01*
X16790893Y-12458746D02*
X16781369Y-12411127D01*
X16781369Y-12411127D02*
X16771845Y-12382555D01*
X16771845Y-12382555D02*
X16762321Y-12363508D01*
X16762321Y-12363508D02*
X16743274Y-12334936D01*
X16743274Y-12334936D02*
X16733750Y-12325412D01*
M02*
