%TF.GenerationSoftware,KiCad,Pcbnew,8.0.7*%
%TF.CreationDate,2024-12-18T22:04:57+01:00*%
%TF.ProjectId,Xplore ERC IMU,58706c6f-7265-4204-9552-4320494d552e,rev?*%
%TF.SameCoordinates,Original*%
%TF.FileFunction,Copper,L2,Bot*%
%TF.FilePolarity,Positive*%
%FSLAX46Y46*%
G04 Gerber Fmt 4.6, Leading zero omitted, Abs format (unit mm)*
G04 Created by KiCad (PCBNEW 8.0.7) date 2024-12-18 22:04:57*
%MOMM*%
%LPD*%
G01*
G04 APERTURE LIST*
G04 Aperture macros list*
%AMRoundRect*
0 Rectangle with rounded corners*
0 $1 Rounding radius*
0 $2 $3 $4 $5 $6 $7 $8 $9 X,Y pos of 4 corners*
0 Add a 4 corners polygon primitive as box body*
4,1,4,$2,$3,$4,$5,$6,$7,$8,$9,$2,$3,0*
0 Add four circle primitives for the rounded corners*
1,1,$1+$1,$2,$3*
1,1,$1+$1,$4,$5*
1,1,$1+$1,$6,$7*
1,1,$1+$1,$8,$9*
0 Add four rect primitives between the rounded corners*
20,1,$1+$1,$2,$3,$4,$5,0*
20,1,$1+$1,$4,$5,$6,$7,0*
20,1,$1+$1,$6,$7,$8,$9,0*
20,1,$1+$1,$8,$9,$2,$3,0*%
G04 Aperture macros list end*
%TA.AperFunction,SMDPad,CuDef*%
%ADD10RoundRect,0.200000X0.200000X0.275000X-0.200000X0.275000X-0.200000X-0.275000X0.200000X-0.275000X0*%
%TD*%
%TA.AperFunction,SMDPad,CuDef*%
%ADD11RoundRect,0.140000X0.170000X-0.140000X0.170000X0.140000X-0.170000X0.140000X-0.170000X-0.140000X0*%
%TD*%
%TA.AperFunction,SMDPad,CuDef*%
%ADD12RoundRect,0.140000X-0.170000X0.140000X-0.170000X-0.140000X0.170000X-0.140000X0.170000X0.140000X0*%
%TD*%
%TA.AperFunction,SMDPad,CuDef*%
%ADD13RoundRect,0.200000X-0.200000X-0.275000X0.200000X-0.275000X0.200000X0.275000X-0.200000X0.275000X0*%
%TD*%
%TA.AperFunction,ViaPad*%
%ADD14C,0.700000*%
%TD*%
%TA.AperFunction,Conductor*%
%ADD15C,0.500000*%
%TD*%
%TA.AperFunction,Conductor*%
%ADD16C,0.200000*%
%TD*%
%TA.AperFunction,Conductor*%
%ADD17C,0.143500*%
%TD*%
G04 APERTURE END LIST*
D10*
%TO.P,R7,1*%
%TO.N,/CANSDA-*%
X129257443Y-98619464D03*
%TO.P,R7,2*%
%TO.N,Net-(C9-Pad1)*%
X127607443Y-98619464D03*
%TD*%
%TO.P,R4,1*%
%TO.N,/CANSDA+*%
X129257443Y-100119464D03*
%TO.P,R4,2*%
%TO.N,Net-(C9-Pad1)*%
X127607443Y-100119464D03*
%TD*%
D11*
%TO.P,C8,1*%
%TO.N,Net-(C8-Pad1)*%
X126425000Y-103210000D03*
%TO.P,C8,2*%
%TO.N,GND*%
X126425000Y-102250000D03*
%TD*%
D12*
%TO.P,C9,1*%
%TO.N,Net-(C9-Pad1)*%
X126425000Y-100270000D03*
%TO.P,C9,2*%
%TO.N,GND*%
X126425000Y-101230000D03*
%TD*%
D10*
%TO.P,R1,1*%
%TO.N,/CANSCL+*%
X129354008Y-102148377D03*
%TO.P,R1,2*%
%TO.N,Net-(C8-Pad1)*%
X127704008Y-102148377D03*
%TD*%
D13*
%TO.P,R3,1*%
%TO.N,Net-(C8-Pad1)*%
X127686622Y-103642080D03*
%TO.P,R3,2*%
%TO.N,/CANSCL-*%
X129336622Y-103642080D03*
%TD*%
D14*
%TO.N,+3.3V*%
X144000000Y-98000000D03*
X141000000Y-107550000D03*
%TO.N,GND*%
X126500000Y-93500000D03*
X142600000Y-103900000D03*
X156500000Y-93500000D03*
X126500000Y-113500000D03*
X131300000Y-107500000D03*
X134200000Y-99350000D03*
X148700000Y-100250000D03*
X144090487Y-111209726D03*
X148200000Y-105300000D03*
X156500000Y-113500000D03*
X153239430Y-104479810D03*
X132950000Y-101150000D03*
X134600000Y-96850000D03*
X153450000Y-112700000D03*
X154150000Y-98550000D03*
X153285980Y-106215000D03*
X145900000Y-113900000D03*
X147500000Y-106650000D03*
X152977867Y-101139133D03*
X121500000Y-103500000D03*
X121500000Y-113500000D03*
X131500000Y-93500000D03*
X149900000Y-109550000D03*
X132700000Y-97500000D03*
X150500000Y-113900000D03*
X140791977Y-101085994D03*
X161500000Y-103500000D03*
X151500000Y-93500000D03*
X156500000Y-98500000D03*
X146500000Y-93500000D03*
X153150246Y-108176882D03*
X138800000Y-105000000D03*
X136500000Y-98500000D03*
X133650000Y-105300000D03*
X134208446Y-102920995D03*
X135700000Y-105200000D03*
X137067197Y-101207422D03*
X124999999Y-101750000D03*
X137750000Y-103350000D03*
X148250000Y-113900000D03*
X131250000Y-108800000D03*
X136200000Y-97100000D03*
X151500000Y-98500000D03*
X131000000Y-97250000D03*
X136750000Y-104300000D03*
X131250000Y-105250000D03*
X161500000Y-113500000D03*
X152950000Y-102950000D03*
X161500000Y-108500000D03*
X136500000Y-93500000D03*
X126500000Y-98500000D03*
%TO.N,+5V*%
X139175000Y-98675000D03*
X139156142Y-103268857D03*
%TO.N,/CANSCL-*%
X131197354Y-103400000D03*
%TO.N,/CANSCL+*%
X131194056Y-102400000D03*
%TO.N,/CANSDA-*%
X131166102Y-98905522D03*
%TO.N,/CANSDA+*%
X131166102Y-99855522D03*
%TO.N,/SCL*%
X149300000Y-105400000D03*
X149400000Y-101100000D03*
%TO.N,/SDA*%
X150200000Y-105300000D03*
X150455761Y-101805761D03*
%TD*%
D15*
%TO.N,+3.3V*%
X142800000Y-98000000D02*
X144000000Y-98000000D01*
X141750000Y-99050000D02*
X142800000Y-98000000D01*
X141000000Y-107550000D02*
X141750000Y-106800000D01*
X141750000Y-106800000D02*
X141750000Y-99050000D01*
D16*
%TO.N,GND*%
X126425000Y-101230000D02*
X125519999Y-101230000D01*
X125519999Y-101230000D02*
X124999999Y-101750000D01*
X125499999Y-102250000D02*
X124999999Y-101750000D01*
X126425000Y-102250000D02*
X125499999Y-102250000D01*
D15*
%TO.N,+5V*%
X139156142Y-103268857D02*
X139991977Y-102433022D01*
X139991977Y-99491977D02*
X139175000Y-98675000D01*
X139991977Y-102433022D02*
X139991977Y-99491977D01*
D16*
%TO.N,Net-(C8-Pad1)*%
X127686622Y-103642080D02*
X126857080Y-103642080D01*
X127704008Y-103624694D02*
X127686622Y-103642080D01*
X127704008Y-102148377D02*
X127704008Y-103624694D01*
X126857080Y-103642080D02*
X126425000Y-103210000D01*
%TO.N,Net-(C9-Pad1)*%
X126575536Y-100119464D02*
X126425000Y-100270000D01*
X127607443Y-100119464D02*
X126575536Y-100119464D01*
X127607443Y-98619464D02*
X127607443Y-100119464D01*
%TO.N,/CANSCL-*%
X129336622Y-103642080D02*
X129578702Y-103400000D01*
X129578702Y-103400000D02*
X131197354Y-103400000D01*
%TO.N,/CANSCL+*%
X129354008Y-102148377D02*
X130582128Y-102148377D01*
X130833751Y-102400000D02*
X131194056Y-102400000D01*
X130582128Y-102148377D02*
X130833751Y-102400000D01*
D17*
%TO.N,/CANSDA-*%
X131349001Y-99010000D02*
X131393006Y-98965995D01*
X129626907Y-98250000D02*
X129257443Y-98619464D01*
X131166102Y-98905522D02*
X130510580Y-98250000D01*
X130510580Y-98250000D02*
X129626907Y-98250000D01*
%TO.N,/CANSDA+*%
X131329500Y-99879500D02*
X131259000Y-99950000D01*
X131166102Y-99855522D02*
X130771624Y-100250000D01*
X129387979Y-100250000D02*
X129257443Y-100119464D01*
X130771624Y-100250000D02*
X129387979Y-100250000D01*
D16*
%TO.N,/SCL*%
X149550000Y-105030761D02*
X149550000Y-105150000D01*
X149550000Y-105150000D02*
X149300000Y-105400000D01*
X149800000Y-104780761D02*
X149550000Y-105030761D01*
X149400000Y-101100000D02*
X149800000Y-101500000D01*
X149800000Y-101500000D02*
X149800000Y-104780761D01*
%TO.N,/SDA*%
X150455761Y-101805761D02*
X150200000Y-102061522D01*
X150200000Y-102061522D02*
X150200000Y-105300000D01*
%TD*%
%TA.AperFunction,Conductor*%
%TO.N,GND*%
G36*
X165006061Y-90708204D02*
G01*
X165124316Y-90719851D01*
X165148144Y-90724590D01*
X165256003Y-90757309D01*
X165278451Y-90766608D01*
X165377853Y-90819739D01*
X165398059Y-90833241D01*
X165485176Y-90904736D01*
X165502365Y-90921925D01*
X165573861Y-91009044D01*
X165587366Y-91029256D01*
X165640490Y-91128647D01*
X165649791Y-91151103D01*
X165682507Y-91258951D01*
X165687250Y-91282794D01*
X165698901Y-91401103D01*
X165699498Y-91413256D01*
X165699498Y-91464686D01*
X165699499Y-91464699D01*
X165699500Y-117152405D01*
X165699500Y-117193907D01*
X165698903Y-117206062D01*
X165687256Y-117324311D01*
X165682514Y-117348151D01*
X165649798Y-117456002D01*
X165640495Y-117478461D01*
X165587370Y-117577849D01*
X165573866Y-117598059D01*
X165502369Y-117685179D01*
X165485179Y-117702369D01*
X165398059Y-117773866D01*
X165377849Y-117787370D01*
X165278461Y-117840495D01*
X165256002Y-117849798D01*
X165148151Y-117882514D01*
X165124311Y-117887256D01*
X165037215Y-117895834D01*
X165006060Y-117898903D01*
X164993907Y-117899500D01*
X118764699Y-117899500D01*
X118764687Y-117899499D01*
X118713195Y-117899499D01*
X118701042Y-117898902D01*
X118582793Y-117887257D01*
X118558955Y-117882515D01*
X118451103Y-117849800D01*
X118428646Y-117840498D01*
X118378948Y-117813935D01*
X118329247Y-117787369D01*
X118309042Y-117773868D01*
X118221920Y-117702369D01*
X118204733Y-117685182D01*
X118133235Y-117598062D01*
X118119730Y-117577851D01*
X118119729Y-117577849D01*
X118066602Y-117478455D01*
X118057303Y-117456005D01*
X118024586Y-117348153D01*
X118019844Y-117324317D01*
X118008204Y-117206141D01*
X118007607Y-117193987D01*
X118007607Y-115393713D01*
X120149500Y-115393713D01*
X120149500Y-115606286D01*
X120182753Y-115816239D01*
X120248444Y-116018414D01*
X120344951Y-116207820D01*
X120469890Y-116379786D01*
X120620213Y-116530109D01*
X120792179Y-116655048D01*
X120792181Y-116655049D01*
X120792184Y-116655051D01*
X120981588Y-116751557D01*
X121183757Y-116817246D01*
X121393713Y-116850500D01*
X121393714Y-116850500D01*
X121606286Y-116850500D01*
X121606287Y-116850500D01*
X121816243Y-116817246D01*
X122018412Y-116751557D01*
X122207816Y-116655051D01*
X122229789Y-116639086D01*
X122379786Y-116530109D01*
X122379788Y-116530106D01*
X122379792Y-116530104D01*
X122530104Y-116379792D01*
X122530106Y-116379788D01*
X122530109Y-116379786D01*
X122655048Y-116207820D01*
X122655047Y-116207820D01*
X122655051Y-116207816D01*
X122751557Y-116018412D01*
X122817246Y-115816243D01*
X122850500Y-115606287D01*
X122850500Y-115393713D01*
X160149500Y-115393713D01*
X160149500Y-115606286D01*
X160182753Y-115816239D01*
X160248444Y-116018414D01*
X160344951Y-116207820D01*
X160469890Y-116379786D01*
X160620213Y-116530109D01*
X160792179Y-116655048D01*
X160792181Y-116655049D01*
X160792184Y-116655051D01*
X160981588Y-116751557D01*
X161183757Y-116817246D01*
X161393713Y-116850500D01*
X161393714Y-116850500D01*
X161606286Y-116850500D01*
X161606287Y-116850500D01*
X161816243Y-116817246D01*
X162018412Y-116751557D01*
X162207816Y-116655051D01*
X162229789Y-116639086D01*
X162379786Y-116530109D01*
X162379788Y-116530106D01*
X162379792Y-116530104D01*
X162530104Y-116379792D01*
X162530106Y-116379788D01*
X162530109Y-116379786D01*
X162655048Y-116207820D01*
X162655047Y-116207820D01*
X162655051Y-116207816D01*
X162751557Y-116018412D01*
X162817246Y-115816243D01*
X162850500Y-115606287D01*
X162850500Y-115393713D01*
X162817246Y-115183757D01*
X162751557Y-114981588D01*
X162655051Y-114792184D01*
X162655049Y-114792181D01*
X162655048Y-114792179D01*
X162530109Y-114620213D01*
X162379786Y-114469890D01*
X162207820Y-114344951D01*
X162018414Y-114248444D01*
X162018413Y-114248443D01*
X162018412Y-114248443D01*
X161816243Y-114182754D01*
X161816241Y-114182753D01*
X161816240Y-114182753D01*
X161654957Y-114157208D01*
X161606287Y-114149500D01*
X161393713Y-114149500D01*
X161345042Y-114157208D01*
X161183760Y-114182753D01*
X160981585Y-114248444D01*
X160792179Y-114344951D01*
X160620213Y-114469890D01*
X160469890Y-114620213D01*
X160344951Y-114792179D01*
X160248444Y-114981585D01*
X160182753Y-115183760D01*
X160149500Y-115393713D01*
X122850500Y-115393713D01*
X122817246Y-115183757D01*
X122751557Y-114981588D01*
X122655051Y-114792184D01*
X122655049Y-114792181D01*
X122655048Y-114792179D01*
X122530109Y-114620213D01*
X122379786Y-114469890D01*
X122207820Y-114344951D01*
X122018414Y-114248444D01*
X122018413Y-114248443D01*
X122018412Y-114248443D01*
X121816243Y-114182754D01*
X121816241Y-114182753D01*
X121816240Y-114182753D01*
X121654957Y-114157208D01*
X121606287Y-114149500D01*
X121393713Y-114149500D01*
X121345042Y-114157208D01*
X121183760Y-114182753D01*
X120981585Y-114248444D01*
X120792179Y-114344951D01*
X120620213Y-114469890D01*
X120469890Y-114620213D01*
X120344951Y-114792179D01*
X120248444Y-114981585D01*
X120182753Y-115183760D01*
X120149500Y-115393713D01*
X118007607Y-115393713D01*
X118007607Y-107550000D01*
X140144815Y-107550000D01*
X140163503Y-107727805D01*
X140163504Y-107727807D01*
X140218747Y-107897829D01*
X140218750Y-107897835D01*
X140308141Y-108052665D01*
X140349812Y-108098946D01*
X140427764Y-108185521D01*
X140427767Y-108185523D01*
X140427770Y-108185526D01*
X140572407Y-108290612D01*
X140735733Y-108363329D01*
X140910609Y-108400500D01*
X140910610Y-108400500D01*
X141089389Y-108400500D01*
X141089391Y-108400500D01*
X141264267Y-108363329D01*
X141427593Y-108290612D01*
X141572230Y-108185526D01*
X141691859Y-108052665D01*
X141781250Y-107897835D01*
X141804644Y-107825832D01*
X141834888Y-107776477D01*
X142332951Y-107278416D01*
X142415084Y-107155495D01*
X142471658Y-107018913D01*
X142500500Y-106873918D01*
X142500500Y-106726083D01*
X142500500Y-105400000D01*
X148444815Y-105400000D01*
X148463503Y-105577805D01*
X148463504Y-105577807D01*
X148518747Y-105747829D01*
X148518750Y-105747835D01*
X148608141Y-105902665D01*
X148649812Y-105948946D01*
X148727764Y-106035521D01*
X148727767Y-106035523D01*
X148727770Y-106035526D01*
X148872407Y-106140612D01*
X149035733Y-106213329D01*
X149210609Y-106250500D01*
X149210610Y-106250500D01*
X149389389Y-106250500D01*
X149389391Y-106250500D01*
X149564267Y-106213329D01*
X149727593Y-106140612D01*
X149772042Y-106108316D01*
X149837844Y-106084836D01*
X149895362Y-106095354D01*
X149935733Y-106113329D01*
X150110609Y-106150500D01*
X150110610Y-106150500D01*
X150289389Y-106150500D01*
X150289391Y-106150500D01*
X150464267Y-106113329D01*
X150627593Y-106040612D01*
X150772230Y-105935526D01*
X150891859Y-105802665D01*
X150981250Y-105647835D01*
X151036497Y-105477803D01*
X151055185Y-105300000D01*
X151036497Y-105122197D01*
X150981250Y-104952165D01*
X150891859Y-104797335D01*
X150891855Y-104797329D01*
X150832350Y-104731242D01*
X150802120Y-104668250D01*
X150800500Y-104648270D01*
X150800500Y-102663788D01*
X150820185Y-102596749D01*
X150872989Y-102550994D01*
X150874021Y-102550527D01*
X150883354Y-102546373D01*
X151027991Y-102441287D01*
X151147620Y-102308426D01*
X151237011Y-102153596D01*
X151292258Y-101983564D01*
X151310946Y-101805761D01*
X151292258Y-101627958D01*
X151259842Y-101528192D01*
X151237013Y-101457931D01*
X151237010Y-101457925D01*
X151231185Y-101447835D01*
X151147620Y-101303096D01*
X151078847Y-101226716D01*
X151027996Y-101170239D01*
X151027993Y-101170237D01*
X151027992Y-101170236D01*
X151027991Y-101170235D01*
X150883354Y-101065149D01*
X150720028Y-100992432D01*
X150720026Y-100992431D01*
X150548346Y-100955940D01*
X150545152Y-100955261D01*
X150366370Y-100955261D01*
X150366367Y-100955261D01*
X150364133Y-100955736D01*
X150362812Y-100955635D01*
X150359912Y-100955940D01*
X150359856Y-100955409D01*
X150294467Y-100950413D01*
X150238737Y-100908270D01*
X150220434Y-100872761D01*
X150181252Y-100752170D01*
X150181249Y-100752164D01*
X150091859Y-100597335D01*
X150014120Y-100510997D01*
X149972235Y-100464478D01*
X149972232Y-100464476D01*
X149972231Y-100464475D01*
X149972230Y-100464474D01*
X149827593Y-100359388D01*
X149664267Y-100286671D01*
X149664265Y-100286670D01*
X149536594Y-100259533D01*
X149489391Y-100249500D01*
X149310609Y-100249500D01*
X149279954Y-100256015D01*
X149135733Y-100286670D01*
X149135728Y-100286672D01*
X148972408Y-100359387D01*
X148827768Y-100464475D01*
X148708140Y-100597336D01*
X148618750Y-100752164D01*
X148618747Y-100752170D01*
X148563504Y-100922192D01*
X148563503Y-100922194D01*
X148544815Y-101100000D01*
X148563503Y-101277805D01*
X148563504Y-101277807D01*
X148618747Y-101447829D01*
X148618750Y-101447835D01*
X148708141Y-101602665D01*
X148730915Y-101627958D01*
X148827764Y-101735521D01*
X148827767Y-101735523D01*
X148827770Y-101735526D01*
X148972407Y-101840612D01*
X149125936Y-101908967D01*
X149179172Y-101954216D01*
X149199494Y-102021065D01*
X149199500Y-102022246D01*
X149199500Y-104451447D01*
X149179815Y-104518486D01*
X149127011Y-104564241D01*
X149101283Y-104572737D01*
X149035730Y-104586671D01*
X149035728Y-104586672D01*
X148872408Y-104659387D01*
X148727768Y-104764475D01*
X148608140Y-104897336D01*
X148518750Y-105052164D01*
X148518747Y-105052170D01*
X148463504Y-105222192D01*
X148463503Y-105222194D01*
X148444815Y-105400000D01*
X142500500Y-105400000D01*
X142500500Y-99412229D01*
X142520185Y-99345190D01*
X142536819Y-99324548D01*
X143074548Y-98786819D01*
X143135871Y-98753334D01*
X143162229Y-98750500D01*
X143568259Y-98750500D01*
X143618693Y-98761219D01*
X143735733Y-98813329D01*
X143910609Y-98850500D01*
X143910610Y-98850500D01*
X144089389Y-98850500D01*
X144089391Y-98850500D01*
X144264267Y-98813329D01*
X144427593Y-98740612D01*
X144572230Y-98635526D01*
X144591050Y-98614625D01*
X144598148Y-98606741D01*
X144691859Y-98502665D01*
X144781250Y-98347835D01*
X144836497Y-98177803D01*
X144855185Y-98000000D01*
X144836497Y-97822197D01*
X144781250Y-97652165D01*
X144691859Y-97497335D01*
X144619568Y-97417048D01*
X144572235Y-97364478D01*
X144572232Y-97364476D01*
X144572231Y-97364475D01*
X144572230Y-97364474D01*
X144427593Y-97259388D01*
X144264267Y-97186671D01*
X144264265Y-97186670D01*
X144136594Y-97159533D01*
X144089391Y-97149500D01*
X143910609Y-97149500D01*
X143879954Y-97156015D01*
X143735733Y-97186670D01*
X143618694Y-97238780D01*
X143568259Y-97249500D01*
X142726080Y-97249500D01*
X142581092Y-97278340D01*
X142581082Y-97278343D01*
X142444511Y-97334912D01*
X142444498Y-97334919D01*
X142321584Y-97417048D01*
X142321580Y-97417051D01*
X141167045Y-98571586D01*
X141138292Y-98614622D01*
X141138290Y-98614625D01*
X141084919Y-98694498D01*
X141084912Y-98694511D01*
X141028343Y-98831082D01*
X141028340Y-98831092D01*
X140999500Y-98976079D01*
X140999500Y-106437769D01*
X140979815Y-106504808D01*
X140963181Y-106525450D01*
X140780820Y-106707810D01*
X140740894Y-106732289D01*
X140741669Y-106734029D01*
X140735736Y-106736670D01*
X140735733Y-106736671D01*
X140572408Y-106809388D01*
X140572406Y-106809389D01*
X140427768Y-106914475D01*
X140308140Y-107047336D01*
X140218750Y-107202164D01*
X140218747Y-107202170D01*
X140163504Y-107372192D01*
X140163503Y-107372194D01*
X140144815Y-107550000D01*
X118007607Y-107550000D01*
X118007607Y-102000000D01*
X125620496Y-102000000D01*
X126175000Y-102000000D01*
X126175000Y-101480000D01*
X125620496Y-101480000D01*
X125662968Y-101626194D01*
X125692943Y-101676880D01*
X125710125Y-101744604D01*
X125692943Y-101803120D01*
X125662968Y-101853805D01*
X125620496Y-102000000D01*
X118007607Y-102000000D01*
X118007607Y-100065302D01*
X125614500Y-100065302D01*
X125614500Y-100474697D01*
X125617356Y-100510991D01*
X125617357Y-100510997D01*
X125662504Y-100666390D01*
X125662507Y-100666397D01*
X125674910Y-100687370D01*
X125692093Y-100755094D01*
X125674912Y-100813608D01*
X125662968Y-100833804D01*
X125620496Y-100980000D01*
X125926648Y-100980000D01*
X125989766Y-100997267D01*
X125998605Y-101002494D01*
X125998608Y-101002494D01*
X125998610Y-101002496D01*
X126154002Y-101047642D01*
X126154005Y-101047642D01*
X126154007Y-101047643D01*
X126190310Y-101050500D01*
X126190318Y-101050500D01*
X126301000Y-101050500D01*
X126368039Y-101070185D01*
X126413794Y-101122989D01*
X126425000Y-101174500D01*
X126425000Y-101230000D01*
X126551000Y-101230000D01*
X126618039Y-101249685D01*
X126663794Y-101302489D01*
X126675000Y-101354000D01*
X126675000Y-102126000D01*
X126655315Y-102193039D01*
X126602511Y-102238794D01*
X126551000Y-102250000D01*
X126425000Y-102250000D01*
X126425000Y-102305500D01*
X126405315Y-102372539D01*
X126352511Y-102418294D01*
X126301000Y-102429500D01*
X126190302Y-102429500D01*
X126154008Y-102432356D01*
X126154002Y-102432357D01*
X125998610Y-102477503D01*
X125998605Y-102477506D01*
X125989766Y-102482732D01*
X125926648Y-102500000D01*
X125620496Y-102500000D01*
X125662968Y-102646194D01*
X125674911Y-102666389D01*
X125692092Y-102734113D01*
X125674911Y-102792628D01*
X125662506Y-102813604D01*
X125662504Y-102813609D01*
X125617357Y-102969002D01*
X125617356Y-102969008D01*
X125614500Y-103005302D01*
X125614500Y-103414697D01*
X125617356Y-103450991D01*
X125617357Y-103450997D01*
X125662504Y-103606390D01*
X125662505Y-103606393D01*
X125744881Y-103745684D01*
X125744887Y-103745692D01*
X125859307Y-103860112D01*
X125859311Y-103860115D01*
X125859313Y-103860117D01*
X125998605Y-103942494D01*
X126039587Y-103954400D01*
X126154002Y-103987642D01*
X126154005Y-103987642D01*
X126154007Y-103987643D01*
X126190310Y-103990500D01*
X126304901Y-103990500D01*
X126371940Y-104010185D01*
X126392582Y-104026818D01*
X126488364Y-104122600D01*
X126488366Y-104122601D01*
X126488370Y-104122604D01*
X126625289Y-104201653D01*
X126625296Y-104201657D01*
X126737099Y-104231614D01*
X126778022Y-104242580D01*
X126778023Y-104242580D01*
X126794907Y-104242580D01*
X126861946Y-104262265D01*
X126901024Y-104302430D01*
X126931152Y-104352268D01*
X127051433Y-104472549D01*
X127051435Y-104472550D01*
X127051437Y-104472552D01*
X127197016Y-104560558D01*
X127359426Y-104611166D01*
X127430006Y-104617580D01*
X127430009Y-104617580D01*
X127943235Y-104617580D01*
X127943238Y-104617580D01*
X128013818Y-104611166D01*
X128176228Y-104560558D01*
X128321807Y-104472552D01*
X128342912Y-104451447D01*
X128423941Y-104370419D01*
X128485264Y-104336934D01*
X128554956Y-104341918D01*
X128599303Y-104370419D01*
X128701433Y-104472549D01*
X128701435Y-104472550D01*
X128701437Y-104472552D01*
X128847016Y-104560558D01*
X129009426Y-104611166D01*
X129080006Y-104617580D01*
X129080009Y-104617580D01*
X129593235Y-104617580D01*
X129593238Y-104617580D01*
X129663818Y-104611166D01*
X129826228Y-104560558D01*
X129971807Y-104472552D01*
X130092094Y-104352265D01*
X130180100Y-104206686D01*
X130217205Y-104087609D01*
X130255942Y-104029462D01*
X130319967Y-104001488D01*
X130335590Y-104000500D01*
X130538625Y-104000500D01*
X130605664Y-104020185D01*
X130621599Y-104032351D01*
X130625120Y-104035521D01*
X130625124Y-104035526D01*
X130769761Y-104140612D01*
X130933087Y-104213329D01*
X131107963Y-104250500D01*
X131107964Y-104250500D01*
X131286743Y-104250500D01*
X131286745Y-104250500D01*
X131461621Y-104213329D01*
X131624947Y-104140612D01*
X131769584Y-104035526D01*
X131889213Y-103902665D01*
X131978604Y-103747835D01*
X132033851Y-103577803D01*
X132052539Y-103400000D01*
X132038755Y-103268857D01*
X138300957Y-103268857D01*
X138319645Y-103446662D01*
X138319646Y-103446664D01*
X138374889Y-103616686D01*
X138374892Y-103616692D01*
X138464283Y-103771522D01*
X138505954Y-103817803D01*
X138583906Y-103904378D01*
X138583909Y-103904380D01*
X138583912Y-103904383D01*
X138728549Y-104009469D01*
X138891875Y-104082186D01*
X139066751Y-104119357D01*
X139066752Y-104119357D01*
X139245531Y-104119357D01*
X139245533Y-104119357D01*
X139420409Y-104082186D01*
X139583735Y-104009469D01*
X139728372Y-103904383D01*
X139848001Y-103771522D01*
X139937392Y-103616692D01*
X139960786Y-103544689D01*
X139991032Y-103495332D01*
X140574928Y-102911438D01*
X140657061Y-102788517D01*
X140713635Y-102651935D01*
X140724612Y-102596749D01*
X140742477Y-102506942D01*
X140742477Y-99418056D01*
X140713636Y-99273069D01*
X140713635Y-99273068D01*
X140713635Y-99273064D01*
X140705470Y-99253351D01*
X140657064Y-99136488D01*
X140657057Y-99136475D01*
X140607521Y-99062340D01*
X140607519Y-99062337D01*
X140574931Y-99013563D01*
X140009892Y-98448524D01*
X139979642Y-98399160D01*
X139956250Y-98327165D01*
X139956248Y-98327161D01*
X139923245Y-98269998D01*
X139866859Y-98172335D01*
X139747235Y-98039478D01*
X139747232Y-98039476D01*
X139747231Y-98039475D01*
X139747230Y-98039474D01*
X139602593Y-97934388D01*
X139439267Y-97861671D01*
X139439265Y-97861670D01*
X139311594Y-97834533D01*
X139264391Y-97824500D01*
X139085609Y-97824500D01*
X139054954Y-97831015D01*
X138910733Y-97861670D01*
X138910728Y-97861672D01*
X138747408Y-97934387D01*
X138602768Y-98039475D01*
X138483140Y-98172336D01*
X138393750Y-98327164D01*
X138393747Y-98327170D01*
X138338504Y-98497192D01*
X138338503Y-98497194D01*
X138319815Y-98675000D01*
X138338503Y-98852805D01*
X138338504Y-98852807D01*
X138393747Y-99022829D01*
X138393750Y-99022835D01*
X138483141Y-99177665D01*
X138516430Y-99214636D01*
X138602764Y-99310521D01*
X138602767Y-99310523D01*
X138602770Y-99310526D01*
X138747407Y-99415612D01*
X138910733Y-99488329D01*
X138910734Y-99488329D01*
X138916670Y-99490972D01*
X138915890Y-99492723D01*
X138955822Y-99517190D01*
X139205158Y-99766526D01*
X139238643Y-99827849D01*
X139241477Y-99854207D01*
X139241477Y-102070791D01*
X139221792Y-102137830D01*
X139205158Y-102158472D01*
X138936962Y-102426667D01*
X138897036Y-102451146D01*
X138897811Y-102452886D01*
X138891878Y-102455527D01*
X138891875Y-102455528D01*
X138728550Y-102528245D01*
X138728548Y-102528246D01*
X138583910Y-102633332D01*
X138464282Y-102766193D01*
X138374892Y-102921021D01*
X138374889Y-102921027D01*
X138319646Y-103091049D01*
X138319645Y-103091051D01*
X138300957Y-103268857D01*
X132038755Y-103268857D01*
X132033851Y-103222197D01*
X131978604Y-103052165D01*
X131924896Y-102959140D01*
X131908424Y-102891243D01*
X131924897Y-102835144D01*
X131975306Y-102747835D01*
X132030553Y-102577803D01*
X132049241Y-102400000D01*
X132030553Y-102222197D01*
X131975306Y-102052165D01*
X131885915Y-101897335D01*
X131813366Y-101816761D01*
X131766291Y-101764478D01*
X131766288Y-101764476D01*
X131766287Y-101764475D01*
X131766286Y-101764474D01*
X131621649Y-101659388D01*
X131458323Y-101586671D01*
X131458321Y-101586670D01*
X131330650Y-101559533D01*
X131283447Y-101549500D01*
X131104665Y-101549500D01*
X131057461Y-101559533D01*
X130929791Y-101586670D01*
X130929787Y-101586671D01*
X130919995Y-101591031D01*
X130850744Y-101600311D01*
X130822112Y-101590257D01*
X130821427Y-101591912D01*
X130813917Y-101588801D01*
X130795145Y-101583771D01*
X130661185Y-101547876D01*
X130503071Y-101547876D01*
X130495475Y-101547876D01*
X130495459Y-101547877D01*
X130245723Y-101547877D01*
X130178684Y-101528192D01*
X130139606Y-101488027D01*
X130109480Y-101438192D01*
X130109478Y-101438190D01*
X130109477Y-101438188D01*
X129989196Y-101317907D01*
X129989193Y-101317905D01*
X129843614Y-101229899D01*
X129843612Y-101229898D01*
X129843610Y-101229897D01*
X129843611Y-101229897D01*
X129833402Y-101226716D01*
X129775255Y-101187977D01*
X129747284Y-101123951D01*
X129758367Y-101054966D01*
X129804988Y-101002924D01*
X129806030Y-101002286D01*
X129892628Y-100949936D01*
X129934294Y-100908270D01*
X129983996Y-100858569D01*
X130045319Y-100825084D01*
X130071677Y-100822250D01*
X130846959Y-100822250D01*
X130846962Y-100822250D01*
X130992504Y-100783252D01*
X130992507Y-100783250D01*
X130992510Y-100783249D01*
X131097498Y-100722635D01*
X131159497Y-100706022D01*
X131255491Y-100706022D01*
X131255493Y-100706022D01*
X131430369Y-100668851D01*
X131593695Y-100596134D01*
X131738332Y-100491048D01*
X131857961Y-100358187D01*
X131947352Y-100203357D01*
X132002599Y-100033325D01*
X132021287Y-99855522D01*
X132002599Y-99677719D01*
X131952747Y-99524291D01*
X131947354Y-99507692D01*
X131947353Y-99507691D01*
X131947352Y-99507687D01*
X131909726Y-99442518D01*
X131893255Y-99374623D01*
X131909726Y-99318525D01*
X131947352Y-99253357D01*
X132002599Y-99083325D01*
X132021287Y-98905522D01*
X132002599Y-98727719D01*
X131965852Y-98614625D01*
X131947354Y-98557692D01*
X131947351Y-98557686D01*
X131915585Y-98502665D01*
X131857961Y-98402857D01*
X131789812Y-98327170D01*
X131738337Y-98270000D01*
X131738334Y-98269998D01*
X131738333Y-98269997D01*
X131738332Y-98269996D01*
X131593695Y-98164910D01*
X131430369Y-98092193D01*
X131430367Y-98092192D01*
X131302696Y-98065055D01*
X131255493Y-98055022D01*
X131255492Y-98055022D01*
X131176248Y-98055022D01*
X131109209Y-98035337D01*
X131088567Y-98018703D01*
X130861951Y-97792087D01*
X130861946Y-97792083D01*
X130731462Y-97716749D01*
X130731461Y-97716748D01*
X130695074Y-97706998D01*
X130585918Y-97677750D01*
X130585915Y-97677750D01*
X129691354Y-97677750D01*
X129654465Y-97672136D01*
X129642749Y-97668485D01*
X129584639Y-97650378D01*
X129514059Y-97643964D01*
X129000827Y-97643964D01*
X128981588Y-97645712D01*
X128930250Y-97650377D01*
X128767836Y-97700986D01*
X128622254Y-97788994D01*
X128622253Y-97788995D01*
X128520124Y-97891125D01*
X128458801Y-97924610D01*
X128389109Y-97919626D01*
X128344762Y-97891125D01*
X128242631Y-97788994D01*
X128097049Y-97700986D01*
X127934639Y-97650378D01*
X127934637Y-97650377D01*
X127934635Y-97650377D01*
X127885221Y-97645887D01*
X127864059Y-97643964D01*
X127350827Y-97643964D01*
X127331588Y-97645712D01*
X127280250Y-97650377D01*
X127117836Y-97700986D01*
X126972254Y-97788994D01*
X126851973Y-97909275D01*
X126763965Y-98054857D01*
X126713356Y-98217271D01*
X126706943Y-98287850D01*
X126706943Y-98951077D01*
X126713356Y-99021656D01*
X126713356Y-99021658D01*
X126713357Y-99021660D01*
X126763965Y-99184070D01*
X126837260Y-99305315D01*
X126855096Y-99372867D01*
X126837256Y-99433620D01*
X126835210Y-99437004D01*
X126783679Y-99484188D01*
X126714819Y-99496022D01*
X126702222Y-99493481D01*
X126702220Y-99493495D01*
X126695995Y-99492357D01*
X126695993Y-99492357D01*
X126695990Y-99492356D01*
X126695986Y-99492356D01*
X126659697Y-99489500D01*
X126659690Y-99489500D01*
X126190310Y-99489500D01*
X126190302Y-99489500D01*
X126154008Y-99492356D01*
X126154002Y-99492357D01*
X125998609Y-99537504D01*
X125998606Y-99537505D01*
X125859315Y-99619881D01*
X125859307Y-99619887D01*
X125744887Y-99734307D01*
X125744881Y-99734315D01*
X125662505Y-99873606D01*
X125662504Y-99873609D01*
X125617357Y-100029002D01*
X125617356Y-100029008D01*
X125614500Y-100065302D01*
X118007607Y-100065302D01*
X118007607Y-93393713D01*
X120149500Y-93393713D01*
X120149500Y-93606286D01*
X120182753Y-93816239D01*
X120248444Y-94018414D01*
X120344951Y-94207820D01*
X120469890Y-94379786D01*
X120620213Y-94530109D01*
X120792179Y-94655048D01*
X120792181Y-94655049D01*
X120792184Y-94655051D01*
X120981588Y-94751557D01*
X121183757Y-94817246D01*
X121393713Y-94850500D01*
X121393714Y-94850500D01*
X121606286Y-94850500D01*
X121606287Y-94850500D01*
X121816243Y-94817246D01*
X122018412Y-94751557D01*
X122207816Y-94655051D01*
X122229789Y-94639086D01*
X122379786Y-94530109D01*
X122379788Y-94530106D01*
X122379792Y-94530104D01*
X122530104Y-94379792D01*
X122530106Y-94379788D01*
X122530109Y-94379786D01*
X122655048Y-94207820D01*
X122655047Y-94207820D01*
X122655051Y-94207816D01*
X122751557Y-94018412D01*
X122817246Y-93816243D01*
X122850500Y-93606287D01*
X122850500Y-93393713D01*
X160149500Y-93393713D01*
X160149500Y-93606286D01*
X160182753Y-93816239D01*
X160248444Y-94018414D01*
X160344951Y-94207820D01*
X160469890Y-94379786D01*
X160620213Y-94530109D01*
X160792179Y-94655048D01*
X160792181Y-94655049D01*
X160792184Y-94655051D01*
X160981588Y-94751557D01*
X161183757Y-94817246D01*
X161393713Y-94850500D01*
X161393714Y-94850500D01*
X161606286Y-94850500D01*
X161606287Y-94850500D01*
X161816243Y-94817246D01*
X162018412Y-94751557D01*
X162207816Y-94655051D01*
X162229789Y-94639086D01*
X162379786Y-94530109D01*
X162379788Y-94530106D01*
X162379792Y-94530104D01*
X162530104Y-94379792D01*
X162530106Y-94379788D01*
X162530109Y-94379786D01*
X162655048Y-94207820D01*
X162655047Y-94207820D01*
X162655051Y-94207816D01*
X162751557Y-94018412D01*
X162817246Y-93816243D01*
X162850500Y-93606287D01*
X162850500Y-93393713D01*
X162817246Y-93183757D01*
X162751557Y-92981588D01*
X162655051Y-92792184D01*
X162655049Y-92792181D01*
X162655048Y-92792179D01*
X162530109Y-92620213D01*
X162379786Y-92469890D01*
X162207820Y-92344951D01*
X162018414Y-92248444D01*
X162018413Y-92248443D01*
X162018412Y-92248443D01*
X161816243Y-92182754D01*
X161816241Y-92182753D01*
X161816240Y-92182753D01*
X161654957Y-92157208D01*
X161606287Y-92149500D01*
X161393713Y-92149500D01*
X161345042Y-92157208D01*
X161183760Y-92182753D01*
X160981585Y-92248444D01*
X160792179Y-92344951D01*
X160620213Y-92469890D01*
X160469890Y-92620213D01*
X160344951Y-92792179D01*
X160248444Y-92981585D01*
X160182753Y-93183760D01*
X160149500Y-93393713D01*
X122850500Y-93393713D01*
X122817246Y-93183757D01*
X122751557Y-92981588D01*
X122655051Y-92792184D01*
X122655049Y-92792181D01*
X122655048Y-92792179D01*
X122530109Y-92620213D01*
X122379786Y-92469890D01*
X122207820Y-92344951D01*
X122018414Y-92248444D01*
X122018413Y-92248443D01*
X122018412Y-92248443D01*
X121816243Y-92182754D01*
X121816241Y-92182753D01*
X121816240Y-92182753D01*
X121654957Y-92157208D01*
X121606287Y-92149500D01*
X121393713Y-92149500D01*
X121345042Y-92157208D01*
X121183760Y-92182753D01*
X120981585Y-92248444D01*
X120792179Y-92344951D01*
X120620213Y-92469890D01*
X120469890Y-92620213D01*
X120344951Y-92792179D01*
X120248444Y-92981585D01*
X120182753Y-93183760D01*
X120149500Y-93393713D01*
X118007607Y-93393713D01*
X118007607Y-91454702D01*
X118007608Y-91454699D01*
X118007607Y-91413194D01*
X118008204Y-91401042D01*
X118011505Y-91367521D01*
X118019850Y-91282786D01*
X118024589Y-91258961D01*
X118057309Y-91151095D01*
X118066609Y-91128647D01*
X118119738Y-91029248D01*
X118133234Y-91009049D01*
X118204740Y-90921919D01*
X118221919Y-90904740D01*
X118309049Y-90833234D01*
X118329248Y-90819738D01*
X118428650Y-90766607D01*
X118451095Y-90757309D01*
X118558961Y-90724589D01*
X118582786Y-90719850D01*
X118701044Y-90708203D01*
X118713194Y-90707607D01*
X118754699Y-90707608D01*
X118754702Y-90707607D01*
X164952405Y-90707607D01*
X164993907Y-90707607D01*
X165006061Y-90708204D01*
G37*
%TD.AperFunction*%
%TD*%
M02*
