%TF.GenerationSoftware,KiCad,Pcbnew,8.0.6-8.0.6-0~ubuntu22.04.1*%
%TF.CreationDate,2024-12-18T19:34:15+01:00*%
%TF.ProjectId,Xplore ERC IMU,58706c6f-7265-4204-9552-4320494d552e,rev?*%
%TF.SameCoordinates,Original*%
%TF.FileFunction,Legend,Bot*%
%TF.FilePolarity,Positive*%
%FSLAX46Y46*%
G04 Gerber Fmt 4.6, Leading zero omitted, Abs format (unit mm)*
G04 Created by KiCad (PCBNEW 8.0.6-8.0.6-0~ubuntu22.04.1) date 2024-12-18 19:34:15*
%MOMM*%
%LPD*%
G01*
G04 APERTURE LIST*
%ADD10C,0.100000*%
%ADD11C,0.120000*%
%ADD12C,0.000000*%
G04 APERTURE END LIST*
D10*
X151750000Y-116650000D02*
X152250000Y-117150000D01*
X152404385Y-115576620D02*
X152257250Y-115845126D01*
X150888744Y-116447991D02*
X151157250Y-116595126D01*
X151625639Y-116896130D02*
X149288861Y-116894121D01*
X151700000Y-117400000D02*
X151541413Y-117464631D01*
X151811164Y-92930582D02*
X152011164Y-93180582D01*
X152404385Y-115576620D02*
G75*
G02*
X151538700Y-114935199I-299985J500020D01*
G01*
X150757250Y-116645126D02*
X150888744Y-116447991D01*
X149288861Y-116894121D02*
X149538861Y-117094121D01*
X149288861Y-116894121D02*
X149538861Y-116694121D01*
X152207250Y-115445126D02*
X152404385Y-115576620D01*
X152172328Y-95661164D02*
G75*
G02*
X151450000Y-95661164I-361164J0D01*
G01*
X151450000Y-95661164D02*
G75*
G02*
X152172328Y-95661164I361164J0D01*
G01*
X152061164Y-95411164D02*
X151561164Y-95911164D01*
X149113222Y-95659155D02*
X149363222Y-95459155D01*
X151541413Y-117464631D02*
X151700000Y-117400000D01*
X151450000Y-95661164D02*
X149113222Y-95659155D01*
X152000000Y-116538836D02*
X152000000Y-114200000D01*
X152250000Y-116650000D02*
X151750000Y-117150000D01*
X150888744Y-116447991D02*
G75*
G02*
X150247308Y-117313736I-500044J-300009D01*
G01*
X152000000Y-114200000D02*
X152200000Y-114450000D01*
X152361164Y-116900000D02*
G75*
G02*
X151638836Y-116900000I-361164J0D01*
G01*
X151638836Y-116900000D02*
G75*
G02*
X152361164Y-116900000I361164J0D01*
G01*
X149113222Y-95659155D02*
X149363222Y-95859155D01*
X151811164Y-95269418D02*
X151811164Y-92930582D01*
X151811164Y-92930582D02*
X151611164Y-93180582D01*
X152000000Y-114200000D02*
X151800000Y-114450000D01*
X152061164Y-95911164D02*
X151561164Y-95411164D01*
X151541413Y-117464631D02*
X151600000Y-117650000D01*
X152450000Y-117450000D02*
G75*
G02*
X151541418Y-117464622I-466300J738900D01*
G01*
X152705746Y-114116497D02*
X152305746Y-114716497D01*
X152305746Y-114116497D02*
X152705746Y-114716497D01*
X125029209Y-102895531D02*
X125053018Y-102919341D01*
X125053018Y-102919341D02*
X125124447Y-102943150D01*
X125124447Y-102943150D02*
X125172066Y-102943150D01*
X125172066Y-102943150D02*
X125243494Y-102919341D01*
X125243494Y-102919341D02*
X125291113Y-102871721D01*
X125291113Y-102871721D02*
X125314923Y-102824102D01*
X125314923Y-102824102D02*
X125338732Y-102728864D01*
X125338732Y-102728864D02*
X125338732Y-102657436D01*
X125338732Y-102657436D02*
X125314923Y-102562198D01*
X125314923Y-102562198D02*
X125291113Y-102514579D01*
X125291113Y-102514579D02*
X125243494Y-102466960D01*
X125243494Y-102466960D02*
X125172066Y-102443150D01*
X125172066Y-102443150D02*
X125124447Y-102443150D01*
X125124447Y-102443150D02*
X125053018Y-102466960D01*
X125053018Y-102466960D02*
X125029209Y-102490769D01*
X124743494Y-102657436D02*
X124791113Y-102633626D01*
X124791113Y-102633626D02*
X124814923Y-102609817D01*
X124814923Y-102609817D02*
X124838732Y-102562198D01*
X124838732Y-102562198D02*
X124838732Y-102538388D01*
X124838732Y-102538388D02*
X124814923Y-102490769D01*
X124814923Y-102490769D02*
X124791113Y-102466960D01*
X124791113Y-102466960D02*
X124743494Y-102443150D01*
X124743494Y-102443150D02*
X124648256Y-102443150D01*
X124648256Y-102443150D02*
X124600637Y-102466960D01*
X124600637Y-102466960D02*
X124576828Y-102490769D01*
X124576828Y-102490769D02*
X124553018Y-102538388D01*
X124553018Y-102538388D02*
X124553018Y-102562198D01*
X124553018Y-102562198D02*
X124576828Y-102609817D01*
X124576828Y-102609817D02*
X124600637Y-102633626D01*
X124600637Y-102633626D02*
X124648256Y-102657436D01*
X124648256Y-102657436D02*
X124743494Y-102657436D01*
X124743494Y-102657436D02*
X124791113Y-102681245D01*
X124791113Y-102681245D02*
X124814923Y-102705055D01*
X124814923Y-102705055D02*
X124838732Y-102752674D01*
X124838732Y-102752674D02*
X124838732Y-102847912D01*
X124838732Y-102847912D02*
X124814923Y-102895531D01*
X124814923Y-102895531D02*
X124791113Y-102919341D01*
X124791113Y-102919341D02*
X124743494Y-102943150D01*
X124743494Y-102943150D02*
X124648256Y-102943150D01*
X124648256Y-102943150D02*
X124600637Y-102919341D01*
X124600637Y-102919341D02*
X124576828Y-102895531D01*
X124576828Y-102895531D02*
X124553018Y-102847912D01*
X124553018Y-102847912D02*
X124553018Y-102752674D01*
X124553018Y-102752674D02*
X124576828Y-102705055D01*
X124576828Y-102705055D02*
X124600637Y-102681245D01*
X124600637Y-102681245D02*
X124648256Y-102657436D01*
X152805746Y-116366497D02*
X152491461Y-116366497D01*
X152491461Y-116366497D02*
X152805746Y-116766497D01*
X152805746Y-116766497D02*
X152491461Y-116766497D01*
X149315163Y-94433609D02*
X149315163Y-94100276D01*
X149315163Y-94147895D02*
X149291353Y-94124085D01*
X149291353Y-94124085D02*
X149243734Y-94100276D01*
X149243734Y-94100276D02*
X149172306Y-94100276D01*
X149172306Y-94100276D02*
X149124687Y-94124085D01*
X149124687Y-94124085D02*
X149100877Y-94171704D01*
X149100877Y-94171704D02*
X149100877Y-94433609D01*
X149100877Y-94171704D02*
X149077068Y-94124085D01*
X149077068Y-94124085D02*
X149029449Y-94100276D01*
X149029449Y-94100276D02*
X148958020Y-94100276D01*
X148958020Y-94100276D02*
X148910401Y-94124085D01*
X148910401Y-94124085D02*
X148886591Y-94171704D01*
X148886591Y-94171704D02*
X148886591Y-94433609D01*
X148434210Y-94433609D02*
X148434210Y-94171704D01*
X148434210Y-94171704D02*
X148458020Y-94124085D01*
X148458020Y-94124085D02*
X148505639Y-94100276D01*
X148505639Y-94100276D02*
X148600877Y-94100276D01*
X148600877Y-94100276D02*
X148648496Y-94124085D01*
X148434210Y-94409800D02*
X148481829Y-94433609D01*
X148481829Y-94433609D02*
X148600877Y-94433609D01*
X148600877Y-94433609D02*
X148648496Y-94409800D01*
X148648496Y-94409800D02*
X148672305Y-94362180D01*
X148672305Y-94362180D02*
X148672305Y-94314561D01*
X148672305Y-94314561D02*
X148648496Y-94266942D01*
X148648496Y-94266942D02*
X148600877Y-94243133D01*
X148600877Y-94243133D02*
X148481829Y-94243133D01*
X148481829Y-94243133D02*
X148434210Y-94219323D01*
X147981829Y-94100276D02*
X147981829Y-94505038D01*
X147981829Y-94505038D02*
X148005639Y-94552657D01*
X148005639Y-94552657D02*
X148029448Y-94576466D01*
X148029448Y-94576466D02*
X148077067Y-94600276D01*
X148077067Y-94600276D02*
X148148496Y-94600276D01*
X148148496Y-94600276D02*
X148196115Y-94576466D01*
X147981829Y-94409800D02*
X148029448Y-94433609D01*
X148029448Y-94433609D02*
X148124686Y-94433609D01*
X148124686Y-94433609D02*
X148172305Y-94409800D01*
X148172305Y-94409800D02*
X148196115Y-94385990D01*
X148196115Y-94385990D02*
X148219924Y-94338371D01*
X148219924Y-94338371D02*
X148219924Y-94195514D01*
X148219924Y-94195514D02*
X148196115Y-94147895D01*
X148196115Y-94147895D02*
X148172305Y-94124085D01*
X148172305Y-94124085D02*
X148124686Y-94100276D01*
X148124686Y-94100276D02*
X148029448Y-94100276D01*
X148029448Y-94100276D02*
X147981829Y-94124085D01*
X147743734Y-94385990D02*
X147719924Y-94409800D01*
X147719924Y-94409800D02*
X147743734Y-94433609D01*
X147743734Y-94433609D02*
X147767543Y-94409800D01*
X147767543Y-94409800D02*
X147743734Y-94385990D01*
X147743734Y-94385990D02*
X147743734Y-94433609D01*
X146910401Y-94433609D02*
X146910401Y-94171704D01*
X146910401Y-94171704D02*
X146934211Y-94124085D01*
X146934211Y-94124085D02*
X146981830Y-94100276D01*
X146981830Y-94100276D02*
X147077068Y-94100276D01*
X147077068Y-94100276D02*
X147124687Y-94124085D01*
X146910401Y-94409800D02*
X146958020Y-94433609D01*
X146958020Y-94433609D02*
X147077068Y-94433609D01*
X147077068Y-94433609D02*
X147124687Y-94409800D01*
X147124687Y-94409800D02*
X147148496Y-94362180D01*
X147148496Y-94362180D02*
X147148496Y-94314561D01*
X147148496Y-94314561D02*
X147124687Y-94266942D01*
X147124687Y-94266942D02*
X147077068Y-94243133D01*
X147077068Y-94243133D02*
X146958020Y-94243133D01*
X146958020Y-94243133D02*
X146910401Y-94219323D01*
X146719925Y-94433609D02*
X146458020Y-94100276D01*
X146719925Y-94100276D02*
X146458020Y-94433609D01*
X146267544Y-94433609D02*
X146267544Y-94100276D01*
X146267544Y-93933609D02*
X146291353Y-93957419D01*
X146291353Y-93957419D02*
X146267544Y-93981228D01*
X146267544Y-93981228D02*
X146243734Y-93957419D01*
X146243734Y-93957419D02*
X146267544Y-93933609D01*
X146267544Y-93933609D02*
X146267544Y-93981228D01*
X146053258Y-94409800D02*
X146005639Y-94433609D01*
X146005639Y-94433609D02*
X145910401Y-94433609D01*
X145910401Y-94433609D02*
X145862782Y-94409800D01*
X145862782Y-94409800D02*
X145838973Y-94362180D01*
X145838973Y-94362180D02*
X145838973Y-94338371D01*
X145838973Y-94338371D02*
X145862782Y-94290752D01*
X145862782Y-94290752D02*
X145910401Y-94266942D01*
X145910401Y-94266942D02*
X145981830Y-94266942D01*
X145981830Y-94266942D02*
X146029449Y-94243133D01*
X146029449Y-94243133D02*
X146053258Y-94195514D01*
X146053258Y-94195514D02*
X146053258Y-94171704D01*
X146053258Y-94171704D02*
X146029449Y-94124085D01*
X146029449Y-94124085D02*
X145981830Y-94100276D01*
X145981830Y-94100276D02*
X145910401Y-94100276D01*
X145910401Y-94100276D02*
X145862782Y-94124085D01*
X148955746Y-116816497D02*
X148812889Y-117216497D01*
X148670032Y-116816497D02*
X148812889Y-117216497D01*
X148812889Y-117216497D02*
X148870032Y-117359354D01*
X148870032Y-117359354D02*
X148898603Y-117387926D01*
X148898603Y-117387926D02*
X148955746Y-117416497D01*
X152748496Y-92171371D02*
X152348496Y-92771371D01*
X152348496Y-92171371D02*
X152748496Y-92771371D01*
X148730107Y-96131530D02*
X148587250Y-96531530D01*
X148444393Y-96131530D02*
X148587250Y-96531530D01*
X148587250Y-96531530D02*
X148644393Y-96674387D01*
X148644393Y-96674387D02*
X148672964Y-96702959D01*
X148672964Y-96702959D02*
X148730107Y-96731530D01*
X152898496Y-95471371D02*
X152584211Y-95471371D01*
X152584211Y-95471371D02*
X152898496Y-95871371D01*
X152898496Y-95871371D02*
X152584211Y-95871371D01*
X125076776Y-100667763D02*
X125100585Y-100691573D01*
X125100585Y-100691573D02*
X125172014Y-100715382D01*
X125172014Y-100715382D02*
X125219633Y-100715382D01*
X125219633Y-100715382D02*
X125291061Y-100691573D01*
X125291061Y-100691573D02*
X125338680Y-100643953D01*
X125338680Y-100643953D02*
X125362490Y-100596334D01*
X125362490Y-100596334D02*
X125386299Y-100501096D01*
X125386299Y-100501096D02*
X125386299Y-100429668D01*
X125386299Y-100429668D02*
X125362490Y-100334430D01*
X125362490Y-100334430D02*
X125338680Y-100286811D01*
X125338680Y-100286811D02*
X125291061Y-100239192D01*
X125291061Y-100239192D02*
X125219633Y-100215382D01*
X125219633Y-100215382D02*
X125172014Y-100215382D01*
X125172014Y-100215382D02*
X125100585Y-100239192D01*
X125100585Y-100239192D02*
X125076776Y-100263001D01*
X124838680Y-100715382D02*
X124743442Y-100715382D01*
X124743442Y-100715382D02*
X124695823Y-100691573D01*
X124695823Y-100691573D02*
X124672014Y-100667763D01*
X124672014Y-100667763D02*
X124624395Y-100596334D01*
X124624395Y-100596334D02*
X124600585Y-100501096D01*
X124600585Y-100501096D02*
X124600585Y-100310620D01*
X124600585Y-100310620D02*
X124624395Y-100263001D01*
X124624395Y-100263001D02*
X124648204Y-100239192D01*
X124648204Y-100239192D02*
X124695823Y-100215382D01*
X124695823Y-100215382D02*
X124791061Y-100215382D01*
X124791061Y-100215382D02*
X124838680Y-100239192D01*
X124838680Y-100239192D02*
X124862490Y-100263001D01*
X124862490Y-100263001D02*
X124886299Y-100310620D01*
X124886299Y-100310620D02*
X124886299Y-100429668D01*
X124886299Y-100429668D02*
X124862490Y-100477287D01*
X124862490Y-100477287D02*
X124838680Y-100501096D01*
X124838680Y-100501096D02*
X124791061Y-100524906D01*
X124791061Y-100524906D02*
X124695823Y-100524906D01*
X124695823Y-100524906D02*
X124648204Y-100501096D01*
X124648204Y-100501096D02*
X124624395Y-100477287D01*
X124624395Y-100477287D02*
X124600585Y-100429668D01*
X150750877Y-116083609D02*
X150750877Y-115821704D01*
X150750877Y-115821704D02*
X150774687Y-115774085D01*
X150774687Y-115774085D02*
X150822306Y-115750276D01*
X150822306Y-115750276D02*
X150917544Y-115750276D01*
X150917544Y-115750276D02*
X150965163Y-115774085D01*
X150750877Y-116059800D02*
X150798496Y-116083609D01*
X150798496Y-116083609D02*
X150917544Y-116083609D01*
X150917544Y-116083609D02*
X150965163Y-116059800D01*
X150965163Y-116059800D02*
X150988972Y-116012180D01*
X150988972Y-116012180D02*
X150988972Y-115964561D01*
X150988972Y-115964561D02*
X150965163Y-115916942D01*
X150965163Y-115916942D02*
X150917544Y-115893133D01*
X150917544Y-115893133D02*
X150798496Y-115893133D01*
X150798496Y-115893133D02*
X150750877Y-115869323D01*
X150298496Y-116059800D02*
X150346115Y-116083609D01*
X150346115Y-116083609D02*
X150441353Y-116083609D01*
X150441353Y-116083609D02*
X150488972Y-116059800D01*
X150488972Y-116059800D02*
X150512782Y-116035990D01*
X150512782Y-116035990D02*
X150536591Y-115988371D01*
X150536591Y-115988371D02*
X150536591Y-115845514D01*
X150536591Y-115845514D02*
X150512782Y-115797895D01*
X150512782Y-115797895D02*
X150488972Y-115774085D01*
X150488972Y-115774085D02*
X150441353Y-115750276D01*
X150441353Y-115750276D02*
X150346115Y-115750276D01*
X150346115Y-115750276D02*
X150298496Y-115774085D01*
X149869925Y-116059800D02*
X149917544Y-116083609D01*
X149917544Y-116083609D02*
X150012782Y-116083609D01*
X150012782Y-116083609D02*
X150060401Y-116059800D01*
X150060401Y-116059800D02*
X150084211Y-116035990D01*
X150084211Y-116035990D02*
X150108020Y-115988371D01*
X150108020Y-115988371D02*
X150108020Y-115845514D01*
X150108020Y-115845514D02*
X150084211Y-115797895D01*
X150084211Y-115797895D02*
X150060401Y-115774085D01*
X150060401Y-115774085D02*
X150012782Y-115750276D01*
X150012782Y-115750276D02*
X149917544Y-115750276D01*
X149917544Y-115750276D02*
X149869925Y-115774085D01*
X149465164Y-116059800D02*
X149512783Y-116083609D01*
X149512783Y-116083609D02*
X149608021Y-116083609D01*
X149608021Y-116083609D02*
X149655640Y-116059800D01*
X149655640Y-116059800D02*
X149679449Y-116012180D01*
X149679449Y-116012180D02*
X149679449Y-115821704D01*
X149679449Y-115821704D02*
X149655640Y-115774085D01*
X149655640Y-115774085D02*
X149608021Y-115750276D01*
X149608021Y-115750276D02*
X149512783Y-115750276D01*
X149512783Y-115750276D02*
X149465164Y-115774085D01*
X149465164Y-115774085D02*
X149441354Y-115821704D01*
X149441354Y-115821704D02*
X149441354Y-115869323D01*
X149441354Y-115869323D02*
X149679449Y-115916942D01*
X149155640Y-116083609D02*
X149203259Y-116059800D01*
X149203259Y-116059800D02*
X149227069Y-116012180D01*
X149227069Y-116012180D02*
X149227069Y-115583609D01*
X148179450Y-116083609D02*
X148203260Y-116083609D01*
X148203260Y-116083609D02*
X148250879Y-116059800D01*
X148250879Y-116059800D02*
X148322307Y-115988371D01*
X148322307Y-115988371D02*
X148441355Y-115845514D01*
X148441355Y-115845514D02*
X148488974Y-115774085D01*
X148488974Y-115774085D02*
X148512783Y-115702657D01*
X148512783Y-115702657D02*
X148512783Y-115655038D01*
X148512783Y-115655038D02*
X148488974Y-115607419D01*
X148488974Y-115607419D02*
X148441355Y-115583609D01*
X148441355Y-115583609D02*
X148417545Y-115583609D01*
X148417545Y-115583609D02*
X148369926Y-115607419D01*
X148369926Y-115607419D02*
X148346117Y-115655038D01*
X148346117Y-115655038D02*
X148346117Y-115678847D01*
X148346117Y-115678847D02*
X148369926Y-115726466D01*
X148369926Y-115726466D02*
X148393736Y-115750276D01*
X148393736Y-115750276D02*
X148536593Y-115845514D01*
X148536593Y-115845514D02*
X148560402Y-115869323D01*
X148560402Y-115869323D02*
X148584212Y-115916942D01*
X148584212Y-115916942D02*
X148584212Y-115988371D01*
X148584212Y-115988371D02*
X148560402Y-116035990D01*
X148560402Y-116035990D02*
X148536593Y-116059800D01*
X148536593Y-116059800D02*
X148488974Y-116083609D01*
X148488974Y-116083609D02*
X148417545Y-116083609D01*
X148417545Y-116083609D02*
X148369926Y-116059800D01*
X148369926Y-116059800D02*
X148346117Y-116035990D01*
X148346117Y-116035990D02*
X148274688Y-115940752D01*
X148274688Y-115940752D02*
X148250879Y-115869323D01*
X148250879Y-115869323D02*
X148250879Y-115821704D01*
X147369926Y-115750276D02*
X147369926Y-116155038D01*
X147369926Y-116155038D02*
X147393736Y-116202657D01*
X147393736Y-116202657D02*
X147417545Y-116226466D01*
X147417545Y-116226466D02*
X147465164Y-116250276D01*
X147465164Y-116250276D02*
X147536593Y-116250276D01*
X147536593Y-116250276D02*
X147584212Y-116226466D01*
X147369926Y-116059800D02*
X147417545Y-116083609D01*
X147417545Y-116083609D02*
X147512783Y-116083609D01*
X147512783Y-116083609D02*
X147560402Y-116059800D01*
X147560402Y-116059800D02*
X147584212Y-116035990D01*
X147584212Y-116035990D02*
X147608021Y-115988371D01*
X147608021Y-115988371D02*
X147608021Y-115845514D01*
X147608021Y-115845514D02*
X147584212Y-115797895D01*
X147584212Y-115797895D02*
X147560402Y-115774085D01*
X147560402Y-115774085D02*
X147512783Y-115750276D01*
X147512783Y-115750276D02*
X147417545Y-115750276D01*
X147417545Y-115750276D02*
X147369926Y-115774085D01*
X147179450Y-115750276D02*
X147060402Y-116083609D01*
X146941355Y-115750276D02*
X147060402Y-116083609D01*
X147060402Y-116083609D02*
X147108021Y-116202657D01*
X147108021Y-116202657D02*
X147131831Y-116226466D01*
X147131831Y-116226466D02*
X147179450Y-116250276D01*
X146750879Y-116083609D02*
X146750879Y-115750276D01*
X146750879Y-115845514D02*
X146727069Y-115797895D01*
X146727069Y-115797895D02*
X146703260Y-115774085D01*
X146703260Y-115774085D02*
X146655641Y-115750276D01*
X146655641Y-115750276D02*
X146608022Y-115750276D01*
X146369926Y-116083609D02*
X146417545Y-116059800D01*
X146417545Y-116059800D02*
X146441355Y-116035990D01*
X146441355Y-116035990D02*
X146465164Y-115988371D01*
X146465164Y-115988371D02*
X146465164Y-115845514D01*
X146465164Y-115845514D02*
X146441355Y-115797895D01*
X146441355Y-115797895D02*
X146417545Y-115774085D01*
X146417545Y-115774085D02*
X146369926Y-115750276D01*
X146369926Y-115750276D02*
X146298498Y-115750276D01*
X146298498Y-115750276D02*
X146250879Y-115774085D01*
X146250879Y-115774085D02*
X146227069Y-115797895D01*
X146227069Y-115797895D02*
X146203260Y-115845514D01*
X146203260Y-115845514D02*
X146203260Y-115988371D01*
X146203260Y-115988371D02*
X146227069Y-116035990D01*
X146227069Y-116035990D02*
X146250879Y-116059800D01*
X146250879Y-116059800D02*
X146298498Y-116083609D01*
X146298498Y-116083609D02*
X146369926Y-116083609D01*
X145393736Y-116083609D02*
X145393736Y-115821704D01*
X145393736Y-115821704D02*
X145417546Y-115774085D01*
X145417546Y-115774085D02*
X145465165Y-115750276D01*
X145465165Y-115750276D02*
X145560403Y-115750276D01*
X145560403Y-115750276D02*
X145608022Y-115774085D01*
X145393736Y-116059800D02*
X145441355Y-116083609D01*
X145441355Y-116083609D02*
X145560403Y-116083609D01*
X145560403Y-116083609D02*
X145608022Y-116059800D01*
X145608022Y-116059800D02*
X145631831Y-116012180D01*
X145631831Y-116012180D02*
X145631831Y-115964561D01*
X145631831Y-115964561D02*
X145608022Y-115916942D01*
X145608022Y-115916942D02*
X145560403Y-115893133D01*
X145560403Y-115893133D02*
X145441355Y-115893133D01*
X145441355Y-115893133D02*
X145393736Y-115869323D01*
X145203260Y-116083609D02*
X144941355Y-115750276D01*
X145203260Y-115750276D02*
X144941355Y-116083609D01*
X144750879Y-116083609D02*
X144750879Y-115750276D01*
X144750879Y-115583609D02*
X144774688Y-115607419D01*
X144774688Y-115607419D02*
X144750879Y-115631228D01*
X144750879Y-115631228D02*
X144727069Y-115607419D01*
X144727069Y-115607419D02*
X144750879Y-115583609D01*
X144750879Y-115583609D02*
X144750879Y-115631228D01*
X144536593Y-116059800D02*
X144488974Y-116083609D01*
X144488974Y-116083609D02*
X144393736Y-116083609D01*
X144393736Y-116083609D02*
X144346117Y-116059800D01*
X144346117Y-116059800D02*
X144322308Y-116012180D01*
X144322308Y-116012180D02*
X144322308Y-115988371D01*
X144322308Y-115988371D02*
X144346117Y-115940752D01*
X144346117Y-115940752D02*
X144393736Y-115916942D01*
X144393736Y-115916942D02*
X144465165Y-115916942D01*
X144465165Y-115916942D02*
X144512784Y-115893133D01*
X144512784Y-115893133D02*
X144536593Y-115845514D01*
X144536593Y-115845514D02*
X144536593Y-115821704D01*
X144536593Y-115821704D02*
X144512784Y-115774085D01*
X144512784Y-115774085D02*
X144465165Y-115750276D01*
X144465165Y-115750276D02*
X144393736Y-115750276D01*
X144393736Y-115750276D02*
X144346117Y-115774085D01*
D11*
%TO.C,R7*%
X128195185Y-98096964D02*
X128669701Y-98096964D01*
X128195185Y-99141964D02*
X128669701Y-99141964D01*
D12*
%TO.C,G1*%
G36*
X139195682Y-102865602D02*
G01*
X139202017Y-102873205D01*
X139244210Y-102923959D01*
X139283635Y-102971583D01*
X139319443Y-103015036D01*
X139350785Y-103053280D01*
X139376808Y-103085272D01*
X139396665Y-103109973D01*
X139409504Y-103126343D01*
X139414476Y-103133342D01*
X139414695Y-103134717D01*
X139409895Y-103146077D01*
X139396426Y-103164247D01*
X139375556Y-103187460D01*
X139365929Y-103197299D01*
X139347895Y-103214652D01*
X139334318Y-103226262D01*
X139327580Y-103230016D01*
X139326178Y-103228740D01*
X139317194Y-103218798D01*
X139300736Y-103199824D01*
X139277624Y-103172787D01*
X139248677Y-103138655D01*
X139214716Y-103098395D01*
X139176559Y-103052976D01*
X139135027Y-103003366D01*
X139090939Y-102950532D01*
X138859630Y-102672902D01*
X138880249Y-102660363D01*
X138893309Y-102652838D01*
X138916150Y-102640443D01*
X138940741Y-102627696D01*
X138980613Y-102607569D01*
X139195682Y-102865602D01*
G37*
G36*
X138382710Y-101104139D02*
G01*
X138470889Y-101128532D01*
X138557037Y-101165762D01*
X138617319Y-101200880D01*
X138692012Y-101257609D01*
X138757296Y-101323820D01*
X138812644Y-101398871D01*
X138857529Y-101482121D01*
X138891425Y-101572929D01*
X138896170Y-101590528D01*
X138906262Y-101644768D01*
X138912371Y-101705564D01*
X138914291Y-101768175D01*
X138911816Y-101827861D01*
X138904741Y-101879879D01*
X138883530Y-101960429D01*
X138848148Y-102047976D01*
X138801965Y-102128226D01*
X138745732Y-102200468D01*
X138680200Y-102263986D01*
X138606121Y-102318066D01*
X138524246Y-102361996D01*
X138435325Y-102395061D01*
X138340109Y-102416547D01*
X138323885Y-102418549D01*
X138281702Y-102420639D01*
X138233271Y-102419941D01*
X138183337Y-102416709D01*
X138136643Y-102411194D01*
X138097935Y-102403650D01*
X138078331Y-102398376D01*
X137986022Y-102365789D01*
X137902187Y-102322632D01*
X137826978Y-102269030D01*
X137760547Y-102205103D01*
X137703044Y-102130974D01*
X137654622Y-102046766D01*
X137628729Y-101987286D01*
X137601470Y-101897438D01*
X137587342Y-101806197D01*
X137586333Y-101714581D01*
X137598431Y-101623603D01*
X137623623Y-101534280D01*
X137661898Y-101447627D01*
X137688045Y-101402305D01*
X137742588Y-101327517D01*
X137805484Y-101262296D01*
X137875579Y-101207005D01*
X137951719Y-101162007D01*
X138032750Y-101127667D01*
X138117519Y-101104346D01*
X138204871Y-101092409D01*
X138293653Y-101092219D01*
X138382710Y-101104139D01*
G37*
G36*
X140334492Y-102837593D02*
G01*
X140253698Y-102931354D01*
X140239738Y-102947619D01*
X140066820Y-103160247D01*
X139904368Y-103381424D01*
X139752368Y-103611172D01*
X139610810Y-103849518D01*
X139479682Y-104096484D01*
X139358972Y-104352096D01*
X139248669Y-104616378D01*
X139148761Y-104889354D01*
X139059237Y-105171049D01*
X138980084Y-105461487D01*
X138911293Y-105760693D01*
X138869863Y-105973690D01*
X138822085Y-106271280D01*
X138784464Y-106575594D01*
X138757046Y-106885257D01*
X138739878Y-107198898D01*
X138733005Y-107515142D01*
X138736474Y-107832615D01*
X138750332Y-108149946D01*
X138774624Y-108465759D01*
X138809397Y-108778683D01*
X138812372Y-108801129D01*
X138819217Y-108849764D01*
X138827330Y-108904505D01*
X138836264Y-108962559D01*
X138845571Y-109021132D01*
X138854805Y-109077429D01*
X138863518Y-109128658D01*
X138871262Y-109172023D01*
X138877591Y-109204732D01*
X138882157Y-109226798D01*
X137876172Y-109226798D01*
X137737021Y-109226773D01*
X137610847Y-109226703D01*
X137497095Y-109226582D01*
X137395216Y-109226407D01*
X137304658Y-109226172D01*
X137224868Y-109225873D01*
X137155296Y-109225505D01*
X137095390Y-109225064D01*
X137044597Y-109224543D01*
X137002367Y-109223940D01*
X136968147Y-109223249D01*
X136941387Y-109222466D01*
X136921534Y-109221585D01*
X136908037Y-109220602D01*
X136900344Y-109219512D01*
X136897904Y-109218311D01*
X136898983Y-109209806D01*
X136902076Y-109189699D01*
X136906885Y-109159865D01*
X136913108Y-109122145D01*
X136920445Y-109078378D01*
X136928595Y-109030405D01*
X136995504Y-108671248D01*
X137081696Y-108277525D01*
X137180526Y-107888008D01*
X137291864Y-107502993D01*
X137415578Y-107122774D01*
X137551541Y-106747644D01*
X137699621Y-106377900D01*
X137859688Y-106013834D01*
X138031613Y-105655742D01*
X138215265Y-105303918D01*
X138410515Y-104958656D01*
X138617232Y-104620250D01*
X138835287Y-104288996D01*
X139064549Y-103965187D01*
X139304888Y-103649118D01*
X139320582Y-103629266D01*
X139388521Y-103544756D01*
X139461623Y-103455881D01*
X139538554Y-103364161D01*
X139617975Y-103271115D01*
X139698550Y-103178259D01*
X139778943Y-103087114D01*
X139857817Y-102999198D01*
X139933834Y-102916029D01*
X140005659Y-102839126D01*
X140071954Y-102770007D01*
X140131383Y-102710191D01*
X140174776Y-102667495D01*
X140334492Y-102837593D01*
G37*
G36*
X146783587Y-99853716D02*
G01*
X146783586Y-99864881D01*
X146783520Y-99945788D01*
X146783331Y-100014178D01*
X146782996Y-100070993D01*
X146782493Y-100117174D01*
X146781799Y-100153666D01*
X146780891Y-100181409D01*
X146779747Y-100201347D01*
X146778344Y-100214422D01*
X146776658Y-100221576D01*
X146774669Y-100223751D01*
X146766716Y-100223113D01*
X146747590Y-100220987D01*
X146720793Y-100217722D01*
X146689433Y-100213685D01*
X146582919Y-100201133D01*
X146371412Y-100184450D01*
X146151419Y-100177473D01*
X145923507Y-100180108D01*
X145688245Y-100192262D01*
X145446198Y-100213839D01*
X145197934Y-100244746D01*
X144944021Y-100284890D01*
X144685025Y-100334175D01*
X144421514Y-100392507D01*
X144154055Y-100459793D01*
X143883215Y-100535939D01*
X143609561Y-100620849D01*
X143333661Y-100714431D01*
X143056081Y-100816590D01*
X143017814Y-100831389D01*
X142782114Y-100929799D01*
X142550058Y-101039091D01*
X142323076Y-101158438D01*
X142102596Y-101287014D01*
X141890049Y-101423993D01*
X141686862Y-101568546D01*
X141494467Y-101719848D01*
X141481289Y-101730680D01*
X141454814Y-101751953D01*
X141432703Y-101769066D01*
X141416962Y-101780488D01*
X141409596Y-101784685D01*
X141402918Y-101780865D01*
X141388387Y-101769386D01*
X141368374Y-101752076D01*
X141345095Y-101730788D01*
X141287383Y-101676687D01*
X141307752Y-101659374D01*
X141332171Y-101639352D01*
X141368325Y-101610998D01*
X141412937Y-101576927D01*
X141464581Y-101538173D01*
X141521830Y-101495773D01*
X141583259Y-101450761D01*
X141647441Y-101404171D01*
X141712950Y-101357039D01*
X141778360Y-101310399D01*
X141842244Y-101265287D01*
X141903175Y-101222737D01*
X141959729Y-101183784D01*
X142010478Y-101149464D01*
X142110937Y-101083118D01*
X142407459Y-100896512D01*
X142706456Y-100722175D01*
X143008595Y-100559845D01*
X143314541Y-100409264D01*
X143624959Y-100270169D01*
X143940515Y-100142301D01*
X144261874Y-100025399D01*
X144589703Y-99919204D01*
X144924666Y-99823453D01*
X145267429Y-99737887D01*
X145618657Y-99662246D01*
X145979016Y-99596268D01*
X145994515Y-99593685D01*
X146051500Y-99584406D01*
X146114050Y-99574511D01*
X146180705Y-99564210D01*
X146250005Y-99553710D01*
X146320489Y-99543220D01*
X146390699Y-99532949D01*
X146459173Y-99523105D01*
X146524451Y-99513897D01*
X146585074Y-99505533D01*
X146639581Y-99498223D01*
X146686512Y-99492174D01*
X146724407Y-99487595D01*
X146751805Y-99484694D01*
X146767247Y-99483681D01*
X146783587Y-99483681D01*
X146783587Y-99853716D01*
G37*
G36*
X137093411Y-99270476D02*
G01*
X137133327Y-99271254D01*
X137165139Y-99273239D01*
X137193741Y-99277064D01*
X137224029Y-99283360D01*
X137260898Y-99292759D01*
X137341542Y-99317397D01*
X137431043Y-99351012D01*
X137527372Y-99393145D01*
X137630770Y-99443941D01*
X137741477Y-99503544D01*
X137859734Y-99572097D01*
X137985780Y-99649745D01*
X138119857Y-99736631D01*
X138262204Y-99832900D01*
X138413062Y-99938695D01*
X138572671Y-100054161D01*
X138741272Y-100179440D01*
X138784490Y-100211971D01*
X138835643Y-100250587D01*
X138882836Y-100286383D01*
X138927521Y-100320490D01*
X138971154Y-100354042D01*
X139015190Y-100388172D01*
X139061083Y-100424012D01*
X139110287Y-100462694D01*
X139164258Y-100505352D01*
X139224449Y-100553119D01*
X139292316Y-100607126D01*
X139369313Y-100668508D01*
X139375085Y-100673112D01*
X139421831Y-100710427D01*
X139467023Y-100746554D01*
X139511087Y-100781848D01*
X139554451Y-100816662D01*
X139597542Y-100851350D01*
X139640787Y-100886267D01*
X139684614Y-100921766D01*
X139729451Y-100958200D01*
X139775723Y-100995924D01*
X139823859Y-101035291D01*
X139874286Y-101076656D01*
X139927431Y-101120372D01*
X139983722Y-101166793D01*
X140043585Y-101216272D01*
X140107448Y-101269165D01*
X140175739Y-101325823D01*
X140248884Y-101386603D01*
X140327311Y-101451856D01*
X140411447Y-101521937D01*
X140501719Y-101597201D01*
X140598556Y-101678000D01*
X140702383Y-101764688D01*
X140813628Y-101857620D01*
X140932719Y-101957149D01*
X141060083Y-102063630D01*
X141196147Y-102177415D01*
X141341338Y-102298859D01*
X141496085Y-102428315D01*
X141660813Y-102566139D01*
X141752057Y-102642473D01*
X142169751Y-102991653D01*
X142577251Y-103331873D01*
X142974559Y-103663135D01*
X143361680Y-103985442D01*
X143738617Y-104298799D01*
X144105374Y-104603207D01*
X144461955Y-104898671D01*
X144808365Y-105185193D01*
X145144605Y-105462776D01*
X145470681Y-105731424D01*
X145786597Y-105991140D01*
X146092355Y-106241927D01*
X146387961Y-106483788D01*
X146782647Y-106806296D01*
X146783587Y-108028146D01*
X146724178Y-107969837D01*
X146723828Y-107969494D01*
X146710092Y-107956175D01*
X146686859Y-107933828D01*
X146654460Y-107902769D01*
X146613227Y-107863313D01*
X146563492Y-107815776D01*
X146505585Y-107760472D01*
X146439839Y-107697718D01*
X146366584Y-107627829D01*
X146286153Y-107551120D01*
X146198876Y-107467907D01*
X146105086Y-107378505D01*
X146005113Y-107283230D01*
X145899289Y-107182396D01*
X145787947Y-107076319D01*
X145671416Y-106965316D01*
X145550029Y-106849700D01*
X145424117Y-106729788D01*
X145294012Y-106605895D01*
X145160045Y-106478337D01*
X145022548Y-106347428D01*
X144881851Y-106213485D01*
X144738288Y-106076822D01*
X144592188Y-105937755D01*
X144443884Y-105796600D01*
X144293707Y-105653671D01*
X144141988Y-105509285D01*
X143989059Y-105363757D01*
X143835252Y-105217402D01*
X143680898Y-105070535D01*
X143526329Y-104923472D01*
X143371875Y-104776529D01*
X143217869Y-104630020D01*
X143064641Y-104484262D01*
X142912524Y-104339570D01*
X142761849Y-104196258D01*
X142612948Y-104054643D01*
X142466151Y-103915040D01*
X142321791Y-103777764D01*
X142180198Y-103643131D01*
X142041705Y-103511456D01*
X141906642Y-103383054D01*
X141775342Y-103258242D01*
X141648136Y-103137334D01*
X141525355Y-103020646D01*
X141407330Y-102908492D01*
X141294394Y-102801190D01*
X141186878Y-102699054D01*
X141085113Y-102602399D01*
X140989430Y-102511541D01*
X140900162Y-102426795D01*
X140817640Y-102348477D01*
X140742194Y-102276902D01*
X140674157Y-102212386D01*
X140613861Y-102155244D01*
X140561636Y-102105791D01*
X140517814Y-102064343D01*
X140424473Y-101976498D01*
X140249681Y-101814017D01*
X140077703Y-101656772D01*
X139908819Y-101504969D01*
X139743311Y-101358809D01*
X139581460Y-101218498D01*
X139423546Y-101084237D01*
X139269852Y-100956231D01*
X139120656Y-100834683D01*
X138976242Y-100719797D01*
X138836890Y-100611775D01*
X138702880Y-100510821D01*
X138574495Y-100417139D01*
X138452014Y-100330932D01*
X138335719Y-100252403D01*
X138225892Y-100181756D01*
X138122812Y-100119194D01*
X138026762Y-100064921D01*
X137938021Y-100019140D01*
X137856872Y-99982055D01*
X137783595Y-99953869D01*
X137718471Y-99934784D01*
X137661782Y-99925006D01*
X137613807Y-99924737D01*
X137574830Y-99934180D01*
X137561773Y-99941172D01*
X137536343Y-99962959D01*
X137515018Y-99991325D01*
X137501644Y-100021670D01*
X137497271Y-100045159D01*
X137496596Y-100092594D01*
X137504087Y-100150162D01*
X137519668Y-100217478D01*
X137543258Y-100294153D01*
X137574778Y-100379803D01*
X137587572Y-100411043D01*
X137607294Y-100456850D01*
X137632231Y-100513003D01*
X137661947Y-100578539D01*
X137696004Y-100652497D01*
X137733968Y-100733914D01*
X137775400Y-100821828D01*
X137806225Y-100886919D01*
X137744554Y-100937251D01*
X137726540Y-100951974D01*
X137693022Y-100979451D01*
X137659873Y-101006710D01*
X137632176Y-101029574D01*
X137581471Y-101071565D01*
X137560007Y-101043154D01*
X137532991Y-101006961D01*
X137467327Y-100915703D01*
X137400153Y-100818093D01*
X137332761Y-100716215D01*
X137266441Y-100612154D01*
X137202483Y-100507995D01*
X137142179Y-100405825D01*
X137086819Y-100307727D01*
X137037693Y-100215787D01*
X136996093Y-100132091D01*
X136970365Y-100076723D01*
X136921802Y-99964248D01*
X136882461Y-99860557D01*
X136852154Y-99765018D01*
X136830694Y-99677003D01*
X136817891Y-99595882D01*
X136813558Y-99521024D01*
X136814381Y-99478350D01*
X136818693Y-99432737D01*
X136827503Y-99396111D01*
X136841712Y-99366056D01*
X136862221Y-99340153D01*
X136889930Y-99315983D01*
X136896028Y-99311469D01*
X136923540Y-99294746D01*
X136953853Y-99282887D01*
X136989608Y-99275288D01*
X137033443Y-99271339D01*
X137087998Y-99270435D01*
X137093411Y-99270476D01*
G37*
D11*
%TO.C,R4*%
X128195185Y-99596964D02*
X128669701Y-99596964D01*
X128195185Y-100641964D02*
X128669701Y-100641964D01*
%TO.C,C8*%
X126065000Y-102622164D02*
X126065000Y-102837836D01*
X126785000Y-102622164D02*
X126785000Y-102837836D01*
%TO.C,C9*%
X126065000Y-100857836D02*
X126065000Y-100642164D01*
X126785000Y-100857836D02*
X126785000Y-100642164D01*
%TO.C,R1*%
X128291750Y-101625877D02*
X128766266Y-101625877D01*
X128291750Y-102670877D02*
X128766266Y-102670877D01*
%TO.C,R3*%
X128748880Y-103119580D02*
X128274364Y-103119580D01*
X128748880Y-104164580D02*
X128274364Y-104164580D01*
%TD*%
M02*
