%TF.GenerationSoftware,KiCad,Pcbnew,8.0.6-8.0.6-0~ubuntu22.04.1*%
%TF.CreationDate,2024-12-18T19:34:15+01:00*%
%TF.ProjectId,Xplore ERC IMU,58706c6f-7265-4204-9552-4320494d552e,rev?*%
%TF.SameCoordinates,Original*%
%TF.FileFunction,Legend,Top*%
%TF.FilePolarity,Positive*%
%FSLAX46Y46*%
G04 Gerber Fmt 4.6, Leading zero omitted, Abs format (unit mm)*
G04 Created by KiCad (PCBNEW 8.0.6-8.0.6-0~ubuntu22.04.1) date 2024-12-18 19:34:15*
%MOMM*%
%LPD*%
G01*
G04 APERTURE LIST*
%ADD10C,0.100000*%
%ADD11C,0.152078*%
%ADD12C,0.150000*%
%ADD13C,0.120000*%
%ADD14C,0.103417*%
%ADD15C,0.152400*%
%ADD16C,0.127000*%
%ADD17C,0.200000*%
%ADD18C,0.000000*%
G04 APERTURE END LIST*
D10*
X150690717Y-95850000D02*
G75*
G02*
X149968389Y-95850000I-361164J0D01*
G01*
X149968389Y-95850000D02*
G75*
G02*
X150690717Y-95850000I361164J0D01*
G01*
X143402058Y-117052009D02*
X143652058Y-116852009D01*
X146558587Y-117614631D02*
X146500000Y-117800000D01*
D11*
X150405592Y-95850000D02*
G75*
G02*
X150253514Y-95850000I-76039J0D01*
G01*
X150253514Y-95850000D02*
G75*
G02*
X150405592Y-95850000I76039J0D01*
G01*
X146176039Y-117050000D02*
G75*
G02*
X146023961Y-117050000I-76039J0D01*
G01*
X146023961Y-117050000D02*
G75*
G02*
X146176039Y-117050000I76039J0D01*
G01*
D10*
X150329553Y-93150000D02*
X150129553Y-93400000D01*
X145738836Y-117050000D02*
X143402058Y-117052009D01*
X144652058Y-116802009D02*
X144783552Y-116604874D01*
X149968389Y-95850000D02*
X147631611Y-95852009D01*
X146558587Y-117614631D02*
G75*
G02*
X145649995Y-117600009I-442287J753531D01*
G01*
X146100000Y-116688836D02*
X146100000Y-114350000D01*
X146400000Y-117550000D02*
X146558587Y-117614631D01*
X143402058Y-117052009D02*
X143652058Y-117252009D01*
X144783552Y-116604874D02*
G75*
G02*
X144142134Y-117470546I-499952J-300026D01*
G01*
X146352058Y-115502009D02*
X146549193Y-115633503D01*
X147631611Y-95852009D02*
X147881611Y-96052009D01*
X146100000Y-114350000D02*
X146300000Y-114600000D01*
X150329553Y-95488836D02*
X150329553Y-93150000D01*
X146558587Y-117614631D02*
X146400000Y-117550000D01*
X146549193Y-115633503D02*
X146402058Y-115902009D01*
X146461164Y-117050000D02*
G75*
G02*
X145738836Y-117050000I-361164J0D01*
G01*
X145738836Y-117050000D02*
G75*
G02*
X146461164Y-117050000I361164J0D01*
G01*
X150329553Y-93150000D02*
X150529553Y-93400000D01*
X144783552Y-116604874D02*
X145052058Y-116752009D01*
X146549193Y-115633503D02*
G75*
G02*
X145683514Y-114992084I-299993J500003D01*
G01*
X147631611Y-95852009D02*
X147881611Y-95652009D01*
X146100000Y-114350000D02*
X145900000Y-114600000D01*
X129092580Y-99846741D02*
X129116390Y-99799122D01*
X129116390Y-99799122D02*
X129116390Y-99727693D01*
X129116390Y-99727693D02*
X129092580Y-99656265D01*
X129092580Y-99656265D02*
X129044961Y-99608646D01*
X129044961Y-99608646D02*
X128997342Y-99584836D01*
X128997342Y-99584836D02*
X128902104Y-99561027D01*
X128902104Y-99561027D02*
X128830676Y-99561027D01*
X128830676Y-99561027D02*
X128735438Y-99584836D01*
X128735438Y-99584836D02*
X128687819Y-99608646D01*
X128687819Y-99608646D02*
X128640200Y-99656265D01*
X128640200Y-99656265D02*
X128616390Y-99727693D01*
X128616390Y-99727693D02*
X128616390Y-99775312D01*
X128616390Y-99775312D02*
X128640200Y-99846741D01*
X128640200Y-99846741D02*
X128664009Y-99870550D01*
X128664009Y-99870550D02*
X128830676Y-99870550D01*
X128830676Y-99870550D02*
X128830676Y-99775312D01*
X128616390Y-100084836D02*
X129116390Y-100084836D01*
X129116390Y-100084836D02*
X128616390Y-100370550D01*
X128616390Y-100370550D02*
X129116390Y-100370550D01*
X128616390Y-100608646D02*
X129116390Y-100608646D01*
X129116390Y-100608646D02*
X129116390Y-100727694D01*
X129116390Y-100727694D02*
X129092580Y-100799122D01*
X129092580Y-100799122D02*
X129044961Y-100846741D01*
X129044961Y-100846741D02*
X128997342Y-100870551D01*
X128997342Y-100870551D02*
X128902104Y-100894360D01*
X128902104Y-100894360D02*
X128830676Y-100894360D01*
X128830676Y-100894360D02*
X128735438Y-100870551D01*
X128735438Y-100870551D02*
X128687819Y-100846741D01*
X128687819Y-100846741D02*
X128640200Y-100799122D01*
X128640200Y-100799122D02*
X128616390Y-100727694D01*
X128616390Y-100727694D02*
X128616390Y-100608646D01*
X155534836Y-107823665D02*
X155534836Y-107323665D01*
X155772931Y-107823665D02*
X155772931Y-107323665D01*
X155772931Y-107323665D02*
X156058645Y-107823665D01*
X156058645Y-107823665D02*
X156058645Y-107323665D01*
X156225313Y-107323665D02*
X156511027Y-107323665D01*
X156368170Y-107823665D02*
X156368170Y-107323665D01*
X156653884Y-107371284D02*
X156677693Y-107347475D01*
X156677693Y-107347475D02*
X156725312Y-107323665D01*
X156725312Y-107323665D02*
X156844360Y-107323665D01*
X156844360Y-107323665D02*
X156891979Y-107347475D01*
X156891979Y-107347475D02*
X156915788Y-107371284D01*
X156915788Y-107371284D02*
X156939598Y-107418903D01*
X156939598Y-107418903D02*
X156939598Y-107466522D01*
X156939598Y-107466522D02*
X156915788Y-107537951D01*
X156915788Y-107537951D02*
X156630074Y-107823665D01*
X156630074Y-107823665D02*
X156939598Y-107823665D01*
X128893133Y-104815163D02*
X128893133Y-104434211D01*
X129083609Y-104624687D02*
X128702657Y-104624687D01*
X128904985Y-106425347D02*
X128904985Y-106044395D01*
X139270550Y-106733609D02*
X139103884Y-106495514D01*
X138984836Y-106733609D02*
X138984836Y-106233609D01*
X138984836Y-106233609D02*
X139175312Y-106233609D01*
X139175312Y-106233609D02*
X139222931Y-106257419D01*
X139222931Y-106257419D02*
X139246741Y-106281228D01*
X139246741Y-106281228D02*
X139270550Y-106328847D01*
X139270550Y-106328847D02*
X139270550Y-106400276D01*
X139270550Y-106400276D02*
X139246741Y-106447895D01*
X139246741Y-106447895D02*
X139222931Y-106471704D01*
X139222931Y-106471704D02*
X139175312Y-106495514D01*
X139175312Y-106495514D02*
X138984836Y-106495514D01*
X139556265Y-106447895D02*
X139508646Y-106424085D01*
X139508646Y-106424085D02*
X139484836Y-106400276D01*
X139484836Y-106400276D02*
X139461027Y-106352657D01*
X139461027Y-106352657D02*
X139461027Y-106328847D01*
X139461027Y-106328847D02*
X139484836Y-106281228D01*
X139484836Y-106281228D02*
X139508646Y-106257419D01*
X139508646Y-106257419D02*
X139556265Y-106233609D01*
X139556265Y-106233609D02*
X139651503Y-106233609D01*
X139651503Y-106233609D02*
X139699122Y-106257419D01*
X139699122Y-106257419D02*
X139722931Y-106281228D01*
X139722931Y-106281228D02*
X139746741Y-106328847D01*
X139746741Y-106328847D02*
X139746741Y-106352657D01*
X139746741Y-106352657D02*
X139722931Y-106400276D01*
X139722931Y-106400276D02*
X139699122Y-106424085D01*
X139699122Y-106424085D02*
X139651503Y-106447895D01*
X139651503Y-106447895D02*
X139556265Y-106447895D01*
X139556265Y-106447895D02*
X139508646Y-106471704D01*
X139508646Y-106471704D02*
X139484836Y-106495514D01*
X139484836Y-106495514D02*
X139461027Y-106543133D01*
X139461027Y-106543133D02*
X139461027Y-106638371D01*
X139461027Y-106638371D02*
X139484836Y-106685990D01*
X139484836Y-106685990D02*
X139508646Y-106709800D01*
X139508646Y-106709800D02*
X139556265Y-106733609D01*
X139556265Y-106733609D02*
X139651503Y-106733609D01*
X139651503Y-106733609D02*
X139699122Y-106709800D01*
X139699122Y-106709800D02*
X139722931Y-106685990D01*
X139722931Y-106685990D02*
X139746741Y-106638371D01*
X139746741Y-106638371D02*
X139746741Y-106543133D01*
X139746741Y-106543133D02*
X139722931Y-106495514D01*
X139722931Y-106495514D02*
X139699122Y-106471704D01*
X139699122Y-106471704D02*
X139651503Y-106447895D01*
X155534836Y-106333609D02*
X155534836Y-105833609D01*
X155772931Y-106333609D02*
X155772931Y-105833609D01*
X155772931Y-105833609D02*
X156058645Y-106333609D01*
X156058645Y-106333609D02*
X156058645Y-105833609D01*
X156225313Y-105833609D02*
X156511027Y-105833609D01*
X156368170Y-106333609D02*
X156368170Y-105833609D01*
X156939598Y-106333609D02*
X156653884Y-106333609D01*
X156796741Y-106333609D02*
X156796741Y-105833609D01*
X156796741Y-105833609D02*
X156749122Y-105905038D01*
X156749122Y-105905038D02*
X156701503Y-105952657D01*
X156701503Y-105952657D02*
X156653884Y-105976466D01*
X151198496Y-93628628D02*
X150798496Y-93028628D01*
X150798496Y-93628628D02*
X151198496Y-93028628D01*
X127770550Y-102635990D02*
X127746741Y-102659800D01*
X127746741Y-102659800D02*
X127675312Y-102683609D01*
X127675312Y-102683609D02*
X127627693Y-102683609D01*
X127627693Y-102683609D02*
X127556265Y-102659800D01*
X127556265Y-102659800D02*
X127508646Y-102612180D01*
X127508646Y-102612180D02*
X127484836Y-102564561D01*
X127484836Y-102564561D02*
X127461027Y-102469323D01*
X127461027Y-102469323D02*
X127461027Y-102397895D01*
X127461027Y-102397895D02*
X127484836Y-102302657D01*
X127484836Y-102302657D02*
X127508646Y-102255038D01*
X127508646Y-102255038D02*
X127556265Y-102207419D01*
X127556265Y-102207419D02*
X127627693Y-102183609D01*
X127627693Y-102183609D02*
X127675312Y-102183609D01*
X127675312Y-102183609D02*
X127746741Y-102207419D01*
X127746741Y-102207419D02*
X127770550Y-102231228D01*
X127961027Y-102540752D02*
X128199122Y-102540752D01*
X127913408Y-102683609D02*
X128080074Y-102183609D01*
X128080074Y-102183609D02*
X128246741Y-102683609D01*
X128413407Y-102683609D02*
X128413407Y-102183609D01*
X128413407Y-102183609D02*
X128699121Y-102683609D01*
X128699121Y-102683609D02*
X128699121Y-102183609D01*
X128913408Y-102659800D02*
X128984836Y-102683609D01*
X128984836Y-102683609D02*
X129103884Y-102683609D01*
X129103884Y-102683609D02*
X129151503Y-102659800D01*
X129151503Y-102659800D02*
X129175312Y-102635990D01*
X129175312Y-102635990D02*
X129199122Y-102588371D01*
X129199122Y-102588371D02*
X129199122Y-102540752D01*
X129199122Y-102540752D02*
X129175312Y-102493133D01*
X129175312Y-102493133D02*
X129151503Y-102469323D01*
X129151503Y-102469323D02*
X129103884Y-102445514D01*
X129103884Y-102445514D02*
X129008646Y-102421704D01*
X129008646Y-102421704D02*
X128961027Y-102397895D01*
X128961027Y-102397895D02*
X128937217Y-102374085D01*
X128937217Y-102374085D02*
X128913408Y-102326466D01*
X128913408Y-102326466D02*
X128913408Y-102278847D01*
X128913408Y-102278847D02*
X128937217Y-102231228D01*
X128937217Y-102231228D02*
X128961027Y-102207419D01*
X128961027Y-102207419D02*
X129008646Y-102183609D01*
X129008646Y-102183609D02*
X129127693Y-102183609D01*
X129127693Y-102183609D02*
X129199122Y-102207419D01*
X129413407Y-102683609D02*
X129413407Y-102183609D01*
X129413407Y-102183609D02*
X129532455Y-102183609D01*
X129532455Y-102183609D02*
X129603883Y-102207419D01*
X129603883Y-102207419D02*
X129651502Y-102255038D01*
X129651502Y-102255038D02*
X129675312Y-102302657D01*
X129675312Y-102302657D02*
X129699121Y-102397895D01*
X129699121Y-102397895D02*
X129699121Y-102469323D01*
X129699121Y-102469323D02*
X129675312Y-102564561D01*
X129675312Y-102564561D02*
X129651502Y-102612180D01*
X129651502Y-102612180D02*
X129603883Y-102659800D01*
X129603883Y-102659800D02*
X129532455Y-102683609D01*
X129532455Y-102683609D02*
X129413407Y-102683609D01*
X129889598Y-102540752D02*
X130127693Y-102540752D01*
X129841979Y-102683609D02*
X130008645Y-102183609D01*
X130008645Y-102183609D02*
X130175312Y-102683609D01*
X145370550Y-102185990D02*
X145346741Y-102209800D01*
X145346741Y-102209800D02*
X145275312Y-102233609D01*
X145275312Y-102233609D02*
X145227693Y-102233609D01*
X145227693Y-102233609D02*
X145156265Y-102209800D01*
X145156265Y-102209800D02*
X145108646Y-102162180D01*
X145108646Y-102162180D02*
X145084836Y-102114561D01*
X145084836Y-102114561D02*
X145061027Y-102019323D01*
X145061027Y-102019323D02*
X145061027Y-101947895D01*
X145061027Y-101947895D02*
X145084836Y-101852657D01*
X145084836Y-101852657D02*
X145108646Y-101805038D01*
X145108646Y-101805038D02*
X145156265Y-101757419D01*
X145156265Y-101757419D02*
X145227693Y-101733609D01*
X145227693Y-101733609D02*
X145275312Y-101733609D01*
X145275312Y-101733609D02*
X145346741Y-101757419D01*
X145346741Y-101757419D02*
X145370550Y-101781228D01*
X145799122Y-101733609D02*
X145703884Y-101733609D01*
X145703884Y-101733609D02*
X145656265Y-101757419D01*
X145656265Y-101757419D02*
X145632455Y-101781228D01*
X145632455Y-101781228D02*
X145584836Y-101852657D01*
X145584836Y-101852657D02*
X145561027Y-101947895D01*
X145561027Y-101947895D02*
X145561027Y-102138371D01*
X145561027Y-102138371D02*
X145584836Y-102185990D01*
X145584836Y-102185990D02*
X145608646Y-102209800D01*
X145608646Y-102209800D02*
X145656265Y-102233609D01*
X145656265Y-102233609D02*
X145751503Y-102233609D01*
X145751503Y-102233609D02*
X145799122Y-102209800D01*
X145799122Y-102209800D02*
X145822931Y-102185990D01*
X145822931Y-102185990D02*
X145846741Y-102138371D01*
X145846741Y-102138371D02*
X145846741Y-102019323D01*
X145846741Y-102019323D02*
X145822931Y-101971704D01*
X145822931Y-101971704D02*
X145799122Y-101947895D01*
X145799122Y-101947895D02*
X145751503Y-101924085D01*
X145751503Y-101924085D02*
X145656265Y-101924085D01*
X145656265Y-101924085D02*
X145608646Y-101947895D01*
X145608646Y-101947895D02*
X145584836Y-101971704D01*
X145584836Y-101971704D02*
X145561027Y-102019323D01*
X134915665Y-94464955D02*
X135106141Y-94464955D01*
X134987093Y-94798288D02*
X134987093Y-94369717D01*
X134987093Y-94369717D02*
X135010903Y-94322098D01*
X135010903Y-94322098D02*
X135058522Y-94298288D01*
X135058522Y-94298288D02*
X135106141Y-94298288D01*
X135344236Y-94798288D02*
X135296617Y-94774479D01*
X135296617Y-94774479D02*
X135272807Y-94726859D01*
X135272807Y-94726859D02*
X135272807Y-94298288D01*
X135606141Y-94798288D02*
X135558522Y-94774479D01*
X135558522Y-94774479D02*
X135534712Y-94750669D01*
X135534712Y-94750669D02*
X135510903Y-94703050D01*
X135510903Y-94703050D02*
X135510903Y-94560193D01*
X135510903Y-94560193D02*
X135534712Y-94512574D01*
X135534712Y-94512574D02*
X135558522Y-94488764D01*
X135558522Y-94488764D02*
X135606141Y-94464955D01*
X135606141Y-94464955D02*
X135677569Y-94464955D01*
X135677569Y-94464955D02*
X135725188Y-94488764D01*
X135725188Y-94488764D02*
X135748998Y-94512574D01*
X135748998Y-94512574D02*
X135772807Y-94560193D01*
X135772807Y-94560193D02*
X135772807Y-94703050D01*
X135772807Y-94703050D02*
X135748998Y-94750669D01*
X135748998Y-94750669D02*
X135725188Y-94774479D01*
X135725188Y-94774479D02*
X135677569Y-94798288D01*
X135677569Y-94798288D02*
X135606141Y-94798288D01*
X136201379Y-94798288D02*
X136201379Y-94536383D01*
X136201379Y-94536383D02*
X136177569Y-94488764D01*
X136177569Y-94488764D02*
X136129950Y-94464955D01*
X136129950Y-94464955D02*
X136034712Y-94464955D01*
X136034712Y-94464955D02*
X135987093Y-94488764D01*
X136201379Y-94774479D02*
X136153760Y-94798288D01*
X136153760Y-94798288D02*
X136034712Y-94798288D01*
X136034712Y-94798288D02*
X135987093Y-94774479D01*
X135987093Y-94774479D02*
X135963284Y-94726859D01*
X135963284Y-94726859D02*
X135963284Y-94679240D01*
X135963284Y-94679240D02*
X135987093Y-94631621D01*
X135987093Y-94631621D02*
X136034712Y-94607812D01*
X136034712Y-94607812D02*
X136153760Y-94607812D01*
X136153760Y-94607812D02*
X136201379Y-94584002D01*
X136368046Y-94464955D02*
X136558522Y-94464955D01*
X136439474Y-94298288D02*
X136439474Y-94726859D01*
X136439474Y-94726859D02*
X136463284Y-94774479D01*
X136463284Y-94774479D02*
X136510903Y-94798288D01*
X136510903Y-94798288D02*
X136558522Y-94798288D01*
X137106140Y-94536383D02*
X137487093Y-94536383D01*
X137487093Y-94679240D02*
X137106140Y-94679240D01*
X138082331Y-94774479D02*
X138129950Y-94798288D01*
X138129950Y-94798288D02*
X138225188Y-94798288D01*
X138225188Y-94798288D02*
X138272807Y-94774479D01*
X138272807Y-94774479D02*
X138296616Y-94726859D01*
X138296616Y-94726859D02*
X138296616Y-94703050D01*
X138296616Y-94703050D02*
X138272807Y-94655431D01*
X138272807Y-94655431D02*
X138225188Y-94631621D01*
X138225188Y-94631621D02*
X138153759Y-94631621D01*
X138153759Y-94631621D02*
X138106140Y-94607812D01*
X138106140Y-94607812D02*
X138082331Y-94560193D01*
X138082331Y-94560193D02*
X138082331Y-94536383D01*
X138082331Y-94536383D02*
X138106140Y-94488764D01*
X138106140Y-94488764D02*
X138153759Y-94464955D01*
X138153759Y-94464955D02*
X138225188Y-94464955D01*
X138225188Y-94464955D02*
X138272807Y-94488764D01*
X138582331Y-94798288D02*
X138534712Y-94774479D01*
X138534712Y-94774479D02*
X138510902Y-94726859D01*
X138510902Y-94726859D02*
X138510902Y-94298288D01*
X138987093Y-94798288D02*
X138987093Y-94536383D01*
X138987093Y-94536383D02*
X138963283Y-94488764D01*
X138963283Y-94488764D02*
X138915664Y-94464955D01*
X138915664Y-94464955D02*
X138820426Y-94464955D01*
X138820426Y-94464955D02*
X138772807Y-94488764D01*
X138987093Y-94774479D02*
X138939474Y-94798288D01*
X138939474Y-94798288D02*
X138820426Y-94798288D01*
X138820426Y-94798288D02*
X138772807Y-94774479D01*
X138772807Y-94774479D02*
X138748998Y-94726859D01*
X138748998Y-94726859D02*
X138748998Y-94679240D01*
X138748998Y-94679240D02*
X138772807Y-94631621D01*
X138772807Y-94631621D02*
X138820426Y-94607812D01*
X138820426Y-94607812D02*
X138939474Y-94607812D01*
X138939474Y-94607812D02*
X138987093Y-94584002D01*
X139177569Y-94464955D02*
X139296617Y-94798288D01*
X139296617Y-94798288D02*
X139415664Y-94464955D01*
X139796616Y-94774479D02*
X139748997Y-94798288D01*
X139748997Y-94798288D02*
X139653759Y-94798288D01*
X139653759Y-94798288D02*
X139606140Y-94774479D01*
X139606140Y-94774479D02*
X139582331Y-94726859D01*
X139582331Y-94726859D02*
X139582331Y-94536383D01*
X139582331Y-94536383D02*
X139606140Y-94488764D01*
X139606140Y-94488764D02*
X139653759Y-94464955D01*
X139653759Y-94464955D02*
X139748997Y-94464955D01*
X139748997Y-94464955D02*
X139796616Y-94488764D01*
X139796616Y-94488764D02*
X139820426Y-94536383D01*
X139820426Y-94536383D02*
X139820426Y-94584002D01*
X139820426Y-94584002D02*
X139582331Y-94631621D01*
X135225188Y-95103260D02*
X134987093Y-95103260D01*
X134987093Y-95103260D02*
X134963284Y-95341355D01*
X134963284Y-95341355D02*
X134987093Y-95317546D01*
X134987093Y-95317546D02*
X135034712Y-95293736D01*
X135034712Y-95293736D02*
X135153760Y-95293736D01*
X135153760Y-95293736D02*
X135201379Y-95317546D01*
X135201379Y-95317546D02*
X135225188Y-95341355D01*
X135225188Y-95341355D02*
X135248998Y-95388974D01*
X135248998Y-95388974D02*
X135248998Y-95508022D01*
X135248998Y-95508022D02*
X135225188Y-95555641D01*
X135225188Y-95555641D02*
X135201379Y-95579451D01*
X135201379Y-95579451D02*
X135153760Y-95603260D01*
X135153760Y-95603260D02*
X135034712Y-95603260D01*
X135034712Y-95603260D02*
X134987093Y-95579451D01*
X134987093Y-95579451D02*
X134963284Y-95555641D01*
X135391855Y-95103260D02*
X135558521Y-95603260D01*
X135558521Y-95603260D02*
X135725188Y-95103260D01*
X136272806Y-95341355D02*
X136653759Y-95341355D01*
X136653759Y-95484212D02*
X136272806Y-95484212D01*
X137272806Y-95603260D02*
X137272806Y-95269927D01*
X137272806Y-95317546D02*
X137296616Y-95293736D01*
X137296616Y-95293736D02*
X137344235Y-95269927D01*
X137344235Y-95269927D02*
X137415663Y-95269927D01*
X137415663Y-95269927D02*
X137463282Y-95293736D01*
X137463282Y-95293736D02*
X137487092Y-95341355D01*
X137487092Y-95341355D02*
X137487092Y-95603260D01*
X137487092Y-95341355D02*
X137510901Y-95293736D01*
X137510901Y-95293736D02*
X137558520Y-95269927D01*
X137558520Y-95269927D02*
X137629949Y-95269927D01*
X137629949Y-95269927D02*
X137677568Y-95293736D01*
X137677568Y-95293736D02*
X137701378Y-95341355D01*
X137701378Y-95341355D02*
X137701378Y-95603260D01*
X138153759Y-95603260D02*
X138153759Y-95341355D01*
X138153759Y-95341355D02*
X138129949Y-95293736D01*
X138129949Y-95293736D02*
X138082330Y-95269927D01*
X138082330Y-95269927D02*
X137987092Y-95269927D01*
X137987092Y-95269927D02*
X137939473Y-95293736D01*
X138153759Y-95579451D02*
X138106140Y-95603260D01*
X138106140Y-95603260D02*
X137987092Y-95603260D01*
X137987092Y-95603260D02*
X137939473Y-95579451D01*
X137939473Y-95579451D02*
X137915664Y-95531831D01*
X137915664Y-95531831D02*
X137915664Y-95484212D01*
X137915664Y-95484212D02*
X137939473Y-95436593D01*
X137939473Y-95436593D02*
X137987092Y-95412784D01*
X137987092Y-95412784D02*
X138106140Y-95412784D01*
X138106140Y-95412784D02*
X138153759Y-95388974D01*
X138368045Y-95579451D02*
X138415664Y-95603260D01*
X138415664Y-95603260D02*
X138510902Y-95603260D01*
X138510902Y-95603260D02*
X138558521Y-95579451D01*
X138558521Y-95579451D02*
X138582330Y-95531831D01*
X138582330Y-95531831D02*
X138582330Y-95508022D01*
X138582330Y-95508022D02*
X138558521Y-95460403D01*
X138558521Y-95460403D02*
X138510902Y-95436593D01*
X138510902Y-95436593D02*
X138439473Y-95436593D01*
X138439473Y-95436593D02*
X138391854Y-95412784D01*
X138391854Y-95412784D02*
X138368045Y-95365165D01*
X138368045Y-95365165D02*
X138368045Y-95341355D01*
X138368045Y-95341355D02*
X138391854Y-95293736D01*
X138391854Y-95293736D02*
X138439473Y-95269927D01*
X138439473Y-95269927D02*
X138510902Y-95269927D01*
X138510902Y-95269927D02*
X138558521Y-95293736D01*
X138725188Y-95269927D02*
X138915664Y-95269927D01*
X138796616Y-95103260D02*
X138796616Y-95531831D01*
X138796616Y-95531831D02*
X138820426Y-95579451D01*
X138820426Y-95579451D02*
X138868045Y-95603260D01*
X138868045Y-95603260D02*
X138915664Y-95603260D01*
X139272806Y-95579451D02*
X139225187Y-95603260D01*
X139225187Y-95603260D02*
X139129949Y-95603260D01*
X139129949Y-95603260D02*
X139082330Y-95579451D01*
X139082330Y-95579451D02*
X139058521Y-95531831D01*
X139058521Y-95531831D02*
X139058521Y-95341355D01*
X139058521Y-95341355D02*
X139082330Y-95293736D01*
X139082330Y-95293736D02*
X139129949Y-95269927D01*
X139129949Y-95269927D02*
X139225187Y-95269927D01*
X139225187Y-95269927D02*
X139272806Y-95293736D01*
X139272806Y-95293736D02*
X139296616Y-95341355D01*
X139296616Y-95341355D02*
X139296616Y-95388974D01*
X139296616Y-95388974D02*
X139058521Y-95436593D01*
X139510901Y-95603260D02*
X139510901Y-95269927D01*
X139510901Y-95365165D02*
X139534711Y-95317546D01*
X139534711Y-95317546D02*
X139558520Y-95293736D01*
X139558520Y-95293736D02*
X139606139Y-95269927D01*
X139606139Y-95269927D02*
X139653758Y-95269927D01*
X155783609Y-100115163D02*
X155283609Y-100115163D01*
X155283609Y-100115163D02*
X155283609Y-99996115D01*
X155283609Y-99996115D02*
X155307419Y-99924687D01*
X155307419Y-99924687D02*
X155355038Y-99877068D01*
X155355038Y-99877068D02*
X155402657Y-99853258D01*
X155402657Y-99853258D02*
X155497895Y-99829449D01*
X155497895Y-99829449D02*
X155569323Y-99829449D01*
X155569323Y-99829449D02*
X155664561Y-99853258D01*
X155664561Y-99853258D02*
X155712180Y-99877068D01*
X155712180Y-99877068D02*
X155759800Y-99924687D01*
X155759800Y-99924687D02*
X155783609Y-99996115D01*
X155783609Y-99996115D02*
X155783609Y-100115163D01*
X155783609Y-99329449D02*
X155545514Y-99496115D01*
X155783609Y-99615163D02*
X155283609Y-99615163D01*
X155283609Y-99615163D02*
X155283609Y-99424687D01*
X155283609Y-99424687D02*
X155307419Y-99377068D01*
X155307419Y-99377068D02*
X155331228Y-99353258D01*
X155331228Y-99353258D02*
X155378847Y-99329449D01*
X155378847Y-99329449D02*
X155450276Y-99329449D01*
X155450276Y-99329449D02*
X155497895Y-99353258D01*
X155497895Y-99353258D02*
X155521704Y-99377068D01*
X155521704Y-99377068D02*
X155545514Y-99424687D01*
X155545514Y-99424687D02*
X155545514Y-99615163D01*
X155783609Y-99115163D02*
X155283609Y-99115163D01*
X155283609Y-99115163D02*
X155283609Y-98996115D01*
X155283609Y-98996115D02*
X155307419Y-98924687D01*
X155307419Y-98924687D02*
X155355038Y-98877068D01*
X155355038Y-98877068D02*
X155402657Y-98853258D01*
X155402657Y-98853258D02*
X155497895Y-98829449D01*
X155497895Y-98829449D02*
X155569323Y-98829449D01*
X155569323Y-98829449D02*
X155664561Y-98853258D01*
X155664561Y-98853258D02*
X155712180Y-98877068D01*
X155712180Y-98877068D02*
X155759800Y-98924687D01*
X155759800Y-98924687D02*
X155783609Y-98996115D01*
X155783609Y-98996115D02*
X155783609Y-99115163D01*
X155545514Y-98519925D02*
X155783609Y-98519925D01*
X155283609Y-98686591D02*
X155545514Y-98519925D01*
X155545514Y-98519925D02*
X155283609Y-98353258D01*
X145370550Y-104035990D02*
X145346741Y-104059800D01*
X145346741Y-104059800D02*
X145275312Y-104083609D01*
X145275312Y-104083609D02*
X145227693Y-104083609D01*
X145227693Y-104083609D02*
X145156265Y-104059800D01*
X145156265Y-104059800D02*
X145108646Y-104012180D01*
X145108646Y-104012180D02*
X145084836Y-103964561D01*
X145084836Y-103964561D02*
X145061027Y-103869323D01*
X145061027Y-103869323D02*
X145061027Y-103797895D01*
X145061027Y-103797895D02*
X145084836Y-103702657D01*
X145084836Y-103702657D02*
X145108646Y-103655038D01*
X145108646Y-103655038D02*
X145156265Y-103607419D01*
X145156265Y-103607419D02*
X145227693Y-103583609D01*
X145227693Y-103583609D02*
X145275312Y-103583609D01*
X145275312Y-103583609D02*
X145346741Y-103607419D01*
X145346741Y-103607419D02*
X145370550Y-103631228D01*
X145537217Y-103583609D02*
X145846741Y-103583609D01*
X145846741Y-103583609D02*
X145680074Y-103774085D01*
X145680074Y-103774085D02*
X145751503Y-103774085D01*
X145751503Y-103774085D02*
X145799122Y-103797895D01*
X145799122Y-103797895D02*
X145822931Y-103821704D01*
X145822931Y-103821704D02*
X145846741Y-103869323D01*
X145846741Y-103869323D02*
X145846741Y-103988371D01*
X145846741Y-103988371D02*
X145822931Y-104035990D01*
X145822931Y-104035990D02*
X145799122Y-104059800D01*
X145799122Y-104059800D02*
X145751503Y-104083609D01*
X145751503Y-104083609D02*
X145608646Y-104083609D01*
X145608646Y-104083609D02*
X145561027Y-104059800D01*
X145561027Y-104059800D02*
X145537217Y-104035990D01*
X129116390Y-107722931D02*
X129116390Y-107484836D01*
X129116390Y-107484836D02*
X128878295Y-107461027D01*
X128878295Y-107461027D02*
X128902104Y-107484836D01*
X128902104Y-107484836D02*
X128925914Y-107532455D01*
X128925914Y-107532455D02*
X128925914Y-107651503D01*
X128925914Y-107651503D02*
X128902104Y-107699122D01*
X128902104Y-107699122D02*
X128878295Y-107722931D01*
X128878295Y-107722931D02*
X128830676Y-107746741D01*
X128830676Y-107746741D02*
X128711628Y-107746741D01*
X128711628Y-107746741D02*
X128664009Y-107722931D01*
X128664009Y-107722931D02*
X128640200Y-107699122D01*
X128640200Y-107699122D02*
X128616390Y-107651503D01*
X128616390Y-107651503D02*
X128616390Y-107532455D01*
X128616390Y-107532455D02*
X128640200Y-107484836D01*
X128640200Y-107484836D02*
X128664009Y-107461027D01*
X128949723Y-107913407D02*
X128616390Y-108032455D01*
X128616390Y-108032455D02*
X128949723Y-108151502D01*
X151398496Y-96528628D02*
X151084211Y-96528628D01*
X151084211Y-96528628D02*
X151398496Y-96128628D01*
X151398496Y-96128628D02*
X151084211Y-96128628D01*
X143003561Y-116823380D02*
X143146418Y-117223380D01*
X143289275Y-116823380D02*
X143146418Y-117223380D01*
X143146418Y-117223380D02*
X143089275Y-117366237D01*
X143089275Y-117366237D02*
X143060704Y-117394809D01*
X143060704Y-117394809D02*
X143003561Y-117423380D01*
X127820550Y-105635990D02*
X127796741Y-105659800D01*
X127796741Y-105659800D02*
X127725312Y-105683609D01*
X127725312Y-105683609D02*
X127677693Y-105683609D01*
X127677693Y-105683609D02*
X127606265Y-105659800D01*
X127606265Y-105659800D02*
X127558646Y-105612180D01*
X127558646Y-105612180D02*
X127534836Y-105564561D01*
X127534836Y-105564561D02*
X127511027Y-105469323D01*
X127511027Y-105469323D02*
X127511027Y-105397895D01*
X127511027Y-105397895D02*
X127534836Y-105302657D01*
X127534836Y-105302657D02*
X127558646Y-105255038D01*
X127558646Y-105255038D02*
X127606265Y-105207419D01*
X127606265Y-105207419D02*
X127677693Y-105183609D01*
X127677693Y-105183609D02*
X127725312Y-105183609D01*
X127725312Y-105183609D02*
X127796741Y-105207419D01*
X127796741Y-105207419D02*
X127820550Y-105231228D01*
X128011027Y-105540752D02*
X128249122Y-105540752D01*
X127963408Y-105683609D02*
X128130074Y-105183609D01*
X128130074Y-105183609D02*
X128296741Y-105683609D01*
X128463407Y-105683609D02*
X128463407Y-105183609D01*
X128463407Y-105183609D02*
X128749121Y-105683609D01*
X128749121Y-105683609D02*
X128749121Y-105183609D01*
X128963408Y-105659800D02*
X129034836Y-105683609D01*
X129034836Y-105683609D02*
X129153884Y-105683609D01*
X129153884Y-105683609D02*
X129201503Y-105659800D01*
X129201503Y-105659800D02*
X129225312Y-105635990D01*
X129225312Y-105635990D02*
X129249122Y-105588371D01*
X129249122Y-105588371D02*
X129249122Y-105540752D01*
X129249122Y-105540752D02*
X129225312Y-105493133D01*
X129225312Y-105493133D02*
X129201503Y-105469323D01*
X129201503Y-105469323D02*
X129153884Y-105445514D01*
X129153884Y-105445514D02*
X129058646Y-105421704D01*
X129058646Y-105421704D02*
X129011027Y-105397895D01*
X129011027Y-105397895D02*
X128987217Y-105374085D01*
X128987217Y-105374085D02*
X128963408Y-105326466D01*
X128963408Y-105326466D02*
X128963408Y-105278847D01*
X128963408Y-105278847D02*
X128987217Y-105231228D01*
X128987217Y-105231228D02*
X129011027Y-105207419D01*
X129011027Y-105207419D02*
X129058646Y-105183609D01*
X129058646Y-105183609D02*
X129177693Y-105183609D01*
X129177693Y-105183609D02*
X129249122Y-105207419D01*
X129749121Y-105635990D02*
X129725312Y-105659800D01*
X129725312Y-105659800D02*
X129653883Y-105683609D01*
X129653883Y-105683609D02*
X129606264Y-105683609D01*
X129606264Y-105683609D02*
X129534836Y-105659800D01*
X129534836Y-105659800D02*
X129487217Y-105612180D01*
X129487217Y-105612180D02*
X129463407Y-105564561D01*
X129463407Y-105564561D02*
X129439598Y-105469323D01*
X129439598Y-105469323D02*
X129439598Y-105397895D01*
X129439598Y-105397895D02*
X129463407Y-105302657D01*
X129463407Y-105302657D02*
X129487217Y-105255038D01*
X129487217Y-105255038D02*
X129534836Y-105207419D01*
X129534836Y-105207419D02*
X129606264Y-105183609D01*
X129606264Y-105183609D02*
X129653883Y-105183609D01*
X129653883Y-105183609D02*
X129725312Y-105207419D01*
X129725312Y-105207419D02*
X129749121Y-105231228D01*
X130201502Y-105683609D02*
X129963407Y-105683609D01*
X129963407Y-105683609D02*
X129963407Y-105183609D01*
X128856866Y-101484836D02*
X128856866Y-101865789D01*
X147349122Y-116233609D02*
X147349122Y-115971704D01*
X147349122Y-115971704D02*
X147325312Y-115924085D01*
X147325312Y-115924085D02*
X147277693Y-115900276D01*
X147277693Y-115900276D02*
X147182455Y-115900276D01*
X147182455Y-115900276D02*
X147134836Y-115924085D01*
X147349122Y-116209800D02*
X147301503Y-116233609D01*
X147301503Y-116233609D02*
X147182455Y-116233609D01*
X147182455Y-116233609D02*
X147134836Y-116209800D01*
X147134836Y-116209800D02*
X147111027Y-116162180D01*
X147111027Y-116162180D02*
X147111027Y-116114561D01*
X147111027Y-116114561D02*
X147134836Y-116066942D01*
X147134836Y-116066942D02*
X147182455Y-116043133D01*
X147182455Y-116043133D02*
X147301503Y-116043133D01*
X147301503Y-116043133D02*
X147349122Y-116019323D01*
X147801503Y-116209800D02*
X147753884Y-116233609D01*
X147753884Y-116233609D02*
X147658646Y-116233609D01*
X147658646Y-116233609D02*
X147611027Y-116209800D01*
X147611027Y-116209800D02*
X147587217Y-116185990D01*
X147587217Y-116185990D02*
X147563408Y-116138371D01*
X147563408Y-116138371D02*
X147563408Y-115995514D01*
X147563408Y-115995514D02*
X147587217Y-115947895D01*
X147587217Y-115947895D02*
X147611027Y-115924085D01*
X147611027Y-115924085D02*
X147658646Y-115900276D01*
X147658646Y-115900276D02*
X147753884Y-115900276D01*
X147753884Y-115900276D02*
X147801503Y-115924085D01*
X148230074Y-116209800D02*
X148182455Y-116233609D01*
X148182455Y-116233609D02*
X148087217Y-116233609D01*
X148087217Y-116233609D02*
X148039598Y-116209800D01*
X148039598Y-116209800D02*
X148015788Y-116185990D01*
X148015788Y-116185990D02*
X147991979Y-116138371D01*
X147991979Y-116138371D02*
X147991979Y-115995514D01*
X147991979Y-115995514D02*
X148015788Y-115947895D01*
X148015788Y-115947895D02*
X148039598Y-115924085D01*
X148039598Y-115924085D02*
X148087217Y-115900276D01*
X148087217Y-115900276D02*
X148182455Y-115900276D01*
X148182455Y-115900276D02*
X148230074Y-115924085D01*
X148634835Y-116209800D02*
X148587216Y-116233609D01*
X148587216Y-116233609D02*
X148491978Y-116233609D01*
X148491978Y-116233609D02*
X148444359Y-116209800D01*
X148444359Y-116209800D02*
X148420550Y-116162180D01*
X148420550Y-116162180D02*
X148420550Y-115971704D01*
X148420550Y-115971704D02*
X148444359Y-115924085D01*
X148444359Y-115924085D02*
X148491978Y-115900276D01*
X148491978Y-115900276D02*
X148587216Y-115900276D01*
X148587216Y-115900276D02*
X148634835Y-115924085D01*
X148634835Y-115924085D02*
X148658645Y-115971704D01*
X148658645Y-115971704D02*
X148658645Y-116019323D01*
X148658645Y-116019323D02*
X148420550Y-116066942D01*
X148944359Y-116233609D02*
X148896740Y-116209800D01*
X148896740Y-116209800D02*
X148872930Y-116162180D01*
X148872930Y-116162180D02*
X148872930Y-115733609D01*
X149920549Y-116233609D02*
X149896740Y-116233609D01*
X149896740Y-116233609D02*
X149849120Y-116209800D01*
X149849120Y-116209800D02*
X149777692Y-116138371D01*
X149777692Y-116138371D02*
X149658644Y-115995514D01*
X149658644Y-115995514D02*
X149611025Y-115924085D01*
X149611025Y-115924085D02*
X149587216Y-115852657D01*
X149587216Y-115852657D02*
X149587216Y-115805038D01*
X149587216Y-115805038D02*
X149611025Y-115757419D01*
X149611025Y-115757419D02*
X149658644Y-115733609D01*
X149658644Y-115733609D02*
X149682454Y-115733609D01*
X149682454Y-115733609D02*
X149730073Y-115757419D01*
X149730073Y-115757419D02*
X149753882Y-115805038D01*
X149753882Y-115805038D02*
X149753882Y-115828847D01*
X149753882Y-115828847D02*
X149730073Y-115876466D01*
X149730073Y-115876466D02*
X149706263Y-115900276D01*
X149706263Y-115900276D02*
X149563406Y-115995514D01*
X149563406Y-115995514D02*
X149539597Y-116019323D01*
X149539597Y-116019323D02*
X149515787Y-116066942D01*
X149515787Y-116066942D02*
X149515787Y-116138371D01*
X149515787Y-116138371D02*
X149539597Y-116185990D01*
X149539597Y-116185990D02*
X149563406Y-116209800D01*
X149563406Y-116209800D02*
X149611025Y-116233609D01*
X149611025Y-116233609D02*
X149682454Y-116233609D01*
X149682454Y-116233609D02*
X149730073Y-116209800D01*
X149730073Y-116209800D02*
X149753882Y-116185990D01*
X149753882Y-116185990D02*
X149825311Y-116090752D01*
X149825311Y-116090752D02*
X149849120Y-116019323D01*
X149849120Y-116019323D02*
X149849120Y-115971704D01*
X150730073Y-115900276D02*
X150730073Y-116305038D01*
X150730073Y-116305038D02*
X150706263Y-116352657D01*
X150706263Y-116352657D02*
X150682454Y-116376466D01*
X150682454Y-116376466D02*
X150634835Y-116400276D01*
X150634835Y-116400276D02*
X150563406Y-116400276D01*
X150563406Y-116400276D02*
X150515787Y-116376466D01*
X150730073Y-116209800D02*
X150682454Y-116233609D01*
X150682454Y-116233609D02*
X150587216Y-116233609D01*
X150587216Y-116233609D02*
X150539597Y-116209800D01*
X150539597Y-116209800D02*
X150515787Y-116185990D01*
X150515787Y-116185990D02*
X150491978Y-116138371D01*
X150491978Y-116138371D02*
X150491978Y-115995514D01*
X150491978Y-115995514D02*
X150515787Y-115947895D01*
X150515787Y-115947895D02*
X150539597Y-115924085D01*
X150539597Y-115924085D02*
X150587216Y-115900276D01*
X150587216Y-115900276D02*
X150682454Y-115900276D01*
X150682454Y-115900276D02*
X150730073Y-115924085D01*
X150920549Y-115900276D02*
X151039597Y-116233609D01*
X151158644Y-115900276D02*
X151039597Y-116233609D01*
X151039597Y-116233609D02*
X150991978Y-116352657D01*
X150991978Y-116352657D02*
X150968168Y-116376466D01*
X150968168Y-116376466D02*
X150920549Y-116400276D01*
X151349120Y-116233609D02*
X151349120Y-115900276D01*
X151349120Y-115995514D02*
X151372930Y-115947895D01*
X151372930Y-115947895D02*
X151396739Y-115924085D01*
X151396739Y-115924085D02*
X151444358Y-115900276D01*
X151444358Y-115900276D02*
X151491977Y-115900276D01*
X151730073Y-116233609D02*
X151682454Y-116209800D01*
X151682454Y-116209800D02*
X151658644Y-116185990D01*
X151658644Y-116185990D02*
X151634835Y-116138371D01*
X151634835Y-116138371D02*
X151634835Y-115995514D01*
X151634835Y-115995514D02*
X151658644Y-115947895D01*
X151658644Y-115947895D02*
X151682454Y-115924085D01*
X151682454Y-115924085D02*
X151730073Y-115900276D01*
X151730073Y-115900276D02*
X151801501Y-115900276D01*
X151801501Y-115900276D02*
X151849120Y-115924085D01*
X151849120Y-115924085D02*
X151872930Y-115947895D01*
X151872930Y-115947895D02*
X151896739Y-115995514D01*
X151896739Y-115995514D02*
X151896739Y-116138371D01*
X151896739Y-116138371D02*
X151872930Y-116185990D01*
X151872930Y-116185990D02*
X151849120Y-116209800D01*
X151849120Y-116209800D02*
X151801501Y-116233609D01*
X151801501Y-116233609D02*
X151730073Y-116233609D01*
X152706263Y-116233609D02*
X152706263Y-115971704D01*
X152706263Y-115971704D02*
X152682453Y-115924085D01*
X152682453Y-115924085D02*
X152634834Y-115900276D01*
X152634834Y-115900276D02*
X152539596Y-115900276D01*
X152539596Y-115900276D02*
X152491977Y-115924085D01*
X152706263Y-116209800D02*
X152658644Y-116233609D01*
X152658644Y-116233609D02*
X152539596Y-116233609D01*
X152539596Y-116233609D02*
X152491977Y-116209800D01*
X152491977Y-116209800D02*
X152468168Y-116162180D01*
X152468168Y-116162180D02*
X152468168Y-116114561D01*
X152468168Y-116114561D02*
X152491977Y-116066942D01*
X152491977Y-116066942D02*
X152539596Y-116043133D01*
X152539596Y-116043133D02*
X152658644Y-116043133D01*
X152658644Y-116043133D02*
X152706263Y-116019323D01*
X152896739Y-116233609D02*
X153158644Y-115900276D01*
X152896739Y-115900276D02*
X153158644Y-116233609D01*
X153349120Y-116233609D02*
X153349120Y-115900276D01*
X153349120Y-115733609D02*
X153325311Y-115757419D01*
X153325311Y-115757419D02*
X153349120Y-115781228D01*
X153349120Y-115781228D02*
X153372930Y-115757419D01*
X153372930Y-115757419D02*
X153349120Y-115733609D01*
X153349120Y-115733609D02*
X153349120Y-115781228D01*
X153563406Y-116209800D02*
X153611025Y-116233609D01*
X153611025Y-116233609D02*
X153706263Y-116233609D01*
X153706263Y-116233609D02*
X153753882Y-116209800D01*
X153753882Y-116209800D02*
X153777691Y-116162180D01*
X153777691Y-116162180D02*
X153777691Y-116138371D01*
X153777691Y-116138371D02*
X153753882Y-116090752D01*
X153753882Y-116090752D02*
X153706263Y-116066942D01*
X153706263Y-116066942D02*
X153634834Y-116066942D01*
X153634834Y-116066942D02*
X153587215Y-116043133D01*
X153587215Y-116043133D02*
X153563406Y-115995514D01*
X153563406Y-115995514D02*
X153563406Y-115971704D01*
X153563406Y-115971704D02*
X153587215Y-115924085D01*
X153587215Y-115924085D02*
X153634834Y-115900276D01*
X153634834Y-115900276D02*
X153706263Y-115900276D01*
X153706263Y-115900276D02*
X153753882Y-115924085D01*
X145370550Y-103135990D02*
X145346741Y-103159800D01*
X145346741Y-103159800D02*
X145275312Y-103183609D01*
X145275312Y-103183609D02*
X145227693Y-103183609D01*
X145227693Y-103183609D02*
X145156265Y-103159800D01*
X145156265Y-103159800D02*
X145108646Y-103112180D01*
X145108646Y-103112180D02*
X145084836Y-103064561D01*
X145084836Y-103064561D02*
X145061027Y-102969323D01*
X145061027Y-102969323D02*
X145061027Y-102897895D01*
X145061027Y-102897895D02*
X145084836Y-102802657D01*
X145084836Y-102802657D02*
X145108646Y-102755038D01*
X145108646Y-102755038D02*
X145156265Y-102707419D01*
X145156265Y-102707419D02*
X145227693Y-102683609D01*
X145227693Y-102683609D02*
X145275312Y-102683609D01*
X145275312Y-102683609D02*
X145346741Y-102707419D01*
X145346741Y-102707419D02*
X145370550Y-102731228D01*
X145537217Y-102683609D02*
X145870550Y-102683609D01*
X145870550Y-102683609D02*
X145656265Y-103183609D01*
X155484836Y-103333609D02*
X155484836Y-102833609D01*
X155722931Y-103333609D02*
X155722931Y-102833609D01*
X155722931Y-102833609D02*
X156008645Y-103333609D01*
X156008645Y-103333609D02*
X156008645Y-102833609D01*
X156175313Y-102833609D02*
X156461027Y-102833609D01*
X156318170Y-103333609D02*
X156318170Y-102833609D01*
X156580074Y-102833609D02*
X156889598Y-102833609D01*
X156889598Y-102833609D02*
X156722931Y-103024085D01*
X156722931Y-103024085D02*
X156794360Y-103024085D01*
X156794360Y-103024085D02*
X156841979Y-103047895D01*
X156841979Y-103047895D02*
X156865788Y-103071704D01*
X156865788Y-103071704D02*
X156889598Y-103119323D01*
X156889598Y-103119323D02*
X156889598Y-103238371D01*
X156889598Y-103238371D02*
X156865788Y-103285990D01*
X156865788Y-103285990D02*
X156841979Y-103309800D01*
X156841979Y-103309800D02*
X156794360Y-103333609D01*
X156794360Y-103333609D02*
X156651503Y-103333609D01*
X156651503Y-103333609D02*
X156603884Y-103309800D01*
X156603884Y-103309800D02*
X156580074Y-103285990D01*
X148101503Y-94821371D02*
X148244360Y-95221371D01*
X148387217Y-94821371D02*
X148244360Y-95221371D01*
X148244360Y-95221371D02*
X148187217Y-95364228D01*
X148187217Y-95364228D02*
X148158646Y-95392800D01*
X148158646Y-95392800D02*
X148101503Y-95421371D01*
X146753561Y-116723380D02*
X147067847Y-116723380D01*
X147067847Y-116723380D02*
X146753561Y-117123380D01*
X146753561Y-117123380D02*
X147067847Y-117123380D01*
X128868718Y-103095020D02*
X128868718Y-103475973D01*
X128678242Y-103285496D02*
X129059194Y-103285496D01*
X146270550Y-99533609D02*
X146103884Y-99295514D01*
X145984836Y-99533609D02*
X145984836Y-99033609D01*
X145984836Y-99033609D02*
X146175312Y-99033609D01*
X146175312Y-99033609D02*
X146222931Y-99057419D01*
X146222931Y-99057419D02*
X146246741Y-99081228D01*
X146246741Y-99081228D02*
X146270550Y-99128847D01*
X146270550Y-99128847D02*
X146270550Y-99200276D01*
X146270550Y-99200276D02*
X146246741Y-99247895D01*
X146246741Y-99247895D02*
X146222931Y-99271704D01*
X146222931Y-99271704D02*
X146175312Y-99295514D01*
X146175312Y-99295514D02*
X145984836Y-99295514D01*
X146722931Y-99033609D02*
X146484836Y-99033609D01*
X146484836Y-99033609D02*
X146461027Y-99271704D01*
X146461027Y-99271704D02*
X146484836Y-99247895D01*
X146484836Y-99247895D02*
X146532455Y-99224085D01*
X146532455Y-99224085D02*
X146651503Y-99224085D01*
X146651503Y-99224085D02*
X146699122Y-99247895D01*
X146699122Y-99247895D02*
X146722931Y-99271704D01*
X146722931Y-99271704D02*
X146746741Y-99319323D01*
X146746741Y-99319323D02*
X146746741Y-99438371D01*
X146746741Y-99438371D02*
X146722931Y-99485990D01*
X146722931Y-99485990D02*
X146699122Y-99509800D01*
X146699122Y-99509800D02*
X146651503Y-99533609D01*
X146651503Y-99533609D02*
X146532455Y-99533609D01*
X146532455Y-99533609D02*
X146484836Y-99509800D01*
X146484836Y-99509800D02*
X146461027Y-99485990D01*
X155484836Y-104833609D02*
X155484836Y-104333609D01*
X155722931Y-104833609D02*
X155722931Y-104333609D01*
X155722931Y-104333609D02*
X156008645Y-104833609D01*
X156008645Y-104833609D02*
X156008645Y-104333609D01*
X156175313Y-104333609D02*
X156461027Y-104333609D01*
X156318170Y-104833609D02*
X156318170Y-104333609D01*
X156841979Y-104500276D02*
X156841979Y-104833609D01*
X156722931Y-104309800D02*
X156603884Y-104666942D01*
X156603884Y-104666942D02*
X156913407Y-104666942D01*
X146220550Y-97733609D02*
X146053884Y-97495514D01*
X145934836Y-97733609D02*
X145934836Y-97233609D01*
X145934836Y-97233609D02*
X146125312Y-97233609D01*
X146125312Y-97233609D02*
X146172931Y-97257419D01*
X146172931Y-97257419D02*
X146196741Y-97281228D01*
X146196741Y-97281228D02*
X146220550Y-97328847D01*
X146220550Y-97328847D02*
X146220550Y-97400276D01*
X146220550Y-97400276D02*
X146196741Y-97447895D01*
X146196741Y-97447895D02*
X146172931Y-97471704D01*
X146172931Y-97471704D02*
X146125312Y-97495514D01*
X146125312Y-97495514D02*
X145934836Y-97495514D01*
X146649122Y-97233609D02*
X146553884Y-97233609D01*
X146553884Y-97233609D02*
X146506265Y-97257419D01*
X146506265Y-97257419D02*
X146482455Y-97281228D01*
X146482455Y-97281228D02*
X146434836Y-97352657D01*
X146434836Y-97352657D02*
X146411027Y-97447895D01*
X146411027Y-97447895D02*
X146411027Y-97638371D01*
X146411027Y-97638371D02*
X146434836Y-97685990D01*
X146434836Y-97685990D02*
X146458646Y-97709800D01*
X146458646Y-97709800D02*
X146506265Y-97733609D01*
X146506265Y-97733609D02*
X146601503Y-97733609D01*
X146601503Y-97733609D02*
X146649122Y-97709800D01*
X146649122Y-97709800D02*
X146672931Y-97685990D01*
X146672931Y-97685990D02*
X146696741Y-97638371D01*
X146696741Y-97638371D02*
X146696741Y-97519323D01*
X146696741Y-97519323D02*
X146672931Y-97471704D01*
X146672931Y-97471704D02*
X146649122Y-97447895D01*
X146649122Y-97447895D02*
X146601503Y-97424085D01*
X146601503Y-97424085D02*
X146506265Y-97424085D01*
X146506265Y-97424085D02*
X146458646Y-97447895D01*
X146458646Y-97447895D02*
X146434836Y-97471704D01*
X146434836Y-97471704D02*
X146411027Y-97519323D01*
X131270550Y-106985990D02*
X131246741Y-107009800D01*
X131246741Y-107009800D02*
X131175312Y-107033609D01*
X131175312Y-107033609D02*
X131127693Y-107033609D01*
X131127693Y-107033609D02*
X131056265Y-107009800D01*
X131056265Y-107009800D02*
X131008646Y-106962180D01*
X131008646Y-106962180D02*
X130984836Y-106914561D01*
X130984836Y-106914561D02*
X130961027Y-106819323D01*
X130961027Y-106819323D02*
X130961027Y-106747895D01*
X130961027Y-106747895D02*
X130984836Y-106652657D01*
X130984836Y-106652657D02*
X131008646Y-106605038D01*
X131008646Y-106605038D02*
X131056265Y-106557419D01*
X131056265Y-106557419D02*
X131127693Y-106533609D01*
X131127693Y-106533609D02*
X131175312Y-106533609D01*
X131175312Y-106533609D02*
X131246741Y-106557419D01*
X131246741Y-106557419D02*
X131270550Y-106581228D01*
X131746741Y-107033609D02*
X131461027Y-107033609D01*
X131603884Y-107033609D02*
X131603884Y-106533609D01*
X131603884Y-106533609D02*
X131556265Y-106605038D01*
X131556265Y-106605038D02*
X131508646Y-106652657D01*
X131508646Y-106652657D02*
X131461027Y-106676466D01*
X131937217Y-106581228D02*
X131961026Y-106557419D01*
X131961026Y-106557419D02*
X132008645Y-106533609D01*
X132008645Y-106533609D02*
X132127693Y-106533609D01*
X132127693Y-106533609D02*
X132175312Y-106557419D01*
X132175312Y-106557419D02*
X132199121Y-106581228D01*
X132199121Y-106581228D02*
X132222931Y-106628847D01*
X132222931Y-106628847D02*
X132222931Y-106676466D01*
X132222931Y-106676466D02*
X132199121Y-106747895D01*
X132199121Y-106747895D02*
X131913407Y-107033609D01*
X131913407Y-107033609D02*
X132222931Y-107033609D01*
X147570550Y-99435990D02*
X147546741Y-99459800D01*
X147546741Y-99459800D02*
X147475312Y-99483609D01*
X147475312Y-99483609D02*
X147427693Y-99483609D01*
X147427693Y-99483609D02*
X147356265Y-99459800D01*
X147356265Y-99459800D02*
X147308646Y-99412180D01*
X147308646Y-99412180D02*
X147284836Y-99364561D01*
X147284836Y-99364561D02*
X147261027Y-99269323D01*
X147261027Y-99269323D02*
X147261027Y-99197895D01*
X147261027Y-99197895D02*
X147284836Y-99102657D01*
X147284836Y-99102657D02*
X147308646Y-99055038D01*
X147308646Y-99055038D02*
X147356265Y-99007419D01*
X147356265Y-99007419D02*
X147427693Y-98983609D01*
X147427693Y-98983609D02*
X147475312Y-98983609D01*
X147475312Y-98983609D02*
X147546741Y-99007419D01*
X147546741Y-99007419D02*
X147570550Y-99031228D01*
X148022931Y-98983609D02*
X147784836Y-98983609D01*
X147784836Y-98983609D02*
X147761027Y-99221704D01*
X147761027Y-99221704D02*
X147784836Y-99197895D01*
X147784836Y-99197895D02*
X147832455Y-99174085D01*
X147832455Y-99174085D02*
X147951503Y-99174085D01*
X147951503Y-99174085D02*
X147999122Y-99197895D01*
X147999122Y-99197895D02*
X148022931Y-99221704D01*
X148022931Y-99221704D02*
X148046741Y-99269323D01*
X148046741Y-99269323D02*
X148046741Y-99388371D01*
X148046741Y-99388371D02*
X148022931Y-99435990D01*
X148022931Y-99435990D02*
X147999122Y-99459800D01*
X147999122Y-99459800D02*
X147951503Y-99483609D01*
X147951503Y-99483609D02*
X147832455Y-99483609D01*
X147832455Y-99483609D02*
X147784836Y-99459800D01*
X147784836Y-99459800D02*
X147761027Y-99435990D01*
X146453561Y-114273380D02*
X146853561Y-114873380D01*
X146853561Y-114273380D02*
X146453561Y-114873380D01*
X140470550Y-98533609D02*
X140303884Y-98295514D01*
X140184836Y-98533609D02*
X140184836Y-98033609D01*
X140184836Y-98033609D02*
X140375312Y-98033609D01*
X140375312Y-98033609D02*
X140422931Y-98057419D01*
X140422931Y-98057419D02*
X140446741Y-98081228D01*
X140446741Y-98081228D02*
X140470550Y-98128847D01*
X140470550Y-98128847D02*
X140470550Y-98200276D01*
X140470550Y-98200276D02*
X140446741Y-98247895D01*
X140446741Y-98247895D02*
X140422931Y-98271704D01*
X140422931Y-98271704D02*
X140375312Y-98295514D01*
X140375312Y-98295514D02*
X140184836Y-98295514D01*
X140661027Y-98081228D02*
X140684836Y-98057419D01*
X140684836Y-98057419D02*
X140732455Y-98033609D01*
X140732455Y-98033609D02*
X140851503Y-98033609D01*
X140851503Y-98033609D02*
X140899122Y-98057419D01*
X140899122Y-98057419D02*
X140922931Y-98081228D01*
X140922931Y-98081228D02*
X140946741Y-98128847D01*
X140946741Y-98128847D02*
X140946741Y-98176466D01*
X140946741Y-98176466D02*
X140922931Y-98247895D01*
X140922931Y-98247895D02*
X140637217Y-98533609D01*
X140637217Y-98533609D02*
X140946741Y-98533609D01*
X155434836Y-101833609D02*
X155434836Y-101333609D01*
X155434836Y-101333609D02*
X155601503Y-101690752D01*
X155601503Y-101690752D02*
X155768169Y-101333609D01*
X155768169Y-101333609D02*
X155768169Y-101833609D01*
X155982456Y-101690752D02*
X156220551Y-101690752D01*
X155934837Y-101833609D02*
X156101503Y-101333609D01*
X156101503Y-101333609D02*
X156268170Y-101833609D01*
X156696741Y-101357419D02*
X156649122Y-101333609D01*
X156649122Y-101333609D02*
X156577693Y-101333609D01*
X156577693Y-101333609D02*
X156506265Y-101357419D01*
X156506265Y-101357419D02*
X156458646Y-101405038D01*
X156458646Y-101405038D02*
X156434836Y-101452657D01*
X156434836Y-101452657D02*
X156411027Y-101547895D01*
X156411027Y-101547895D02*
X156411027Y-101619323D01*
X156411027Y-101619323D02*
X156434836Y-101714561D01*
X156434836Y-101714561D02*
X156458646Y-101762180D01*
X156458646Y-101762180D02*
X156506265Y-101809800D01*
X156506265Y-101809800D02*
X156577693Y-101833609D01*
X156577693Y-101833609D02*
X156625312Y-101833609D01*
X156625312Y-101833609D02*
X156696741Y-101809800D01*
X156696741Y-101809800D02*
X156720550Y-101785990D01*
X156720550Y-101785990D02*
X156720550Y-101619323D01*
X156720550Y-101619323D02*
X156625312Y-101619323D01*
X145370550Y-104985990D02*
X145346741Y-105009800D01*
X145346741Y-105009800D02*
X145275312Y-105033609D01*
X145275312Y-105033609D02*
X145227693Y-105033609D01*
X145227693Y-105033609D02*
X145156265Y-105009800D01*
X145156265Y-105009800D02*
X145108646Y-104962180D01*
X145108646Y-104962180D02*
X145084836Y-104914561D01*
X145084836Y-104914561D02*
X145061027Y-104819323D01*
X145061027Y-104819323D02*
X145061027Y-104747895D01*
X145061027Y-104747895D02*
X145084836Y-104652657D01*
X145084836Y-104652657D02*
X145108646Y-104605038D01*
X145108646Y-104605038D02*
X145156265Y-104557419D01*
X145156265Y-104557419D02*
X145227693Y-104533609D01*
X145227693Y-104533609D02*
X145275312Y-104533609D01*
X145275312Y-104533609D02*
X145346741Y-104557419D01*
X145346741Y-104557419D02*
X145370550Y-104581228D01*
X145799122Y-104700276D02*
X145799122Y-105033609D01*
X145680074Y-104509800D02*
X145561027Y-104866942D01*
X145561027Y-104866942D02*
X145870550Y-104866942D01*
X145934836Y-94383609D02*
X145934836Y-94050276D01*
X145934836Y-94097895D02*
X145958646Y-94074085D01*
X145958646Y-94074085D02*
X146006265Y-94050276D01*
X146006265Y-94050276D02*
X146077693Y-94050276D01*
X146077693Y-94050276D02*
X146125312Y-94074085D01*
X146125312Y-94074085D02*
X146149122Y-94121704D01*
X146149122Y-94121704D02*
X146149122Y-94383609D01*
X146149122Y-94121704D02*
X146172931Y-94074085D01*
X146172931Y-94074085D02*
X146220550Y-94050276D01*
X146220550Y-94050276D02*
X146291979Y-94050276D01*
X146291979Y-94050276D02*
X146339598Y-94074085D01*
X146339598Y-94074085D02*
X146363408Y-94121704D01*
X146363408Y-94121704D02*
X146363408Y-94383609D01*
X146815789Y-94383609D02*
X146815789Y-94121704D01*
X146815789Y-94121704D02*
X146791979Y-94074085D01*
X146791979Y-94074085D02*
X146744360Y-94050276D01*
X146744360Y-94050276D02*
X146649122Y-94050276D01*
X146649122Y-94050276D02*
X146601503Y-94074085D01*
X146815789Y-94359800D02*
X146768170Y-94383609D01*
X146768170Y-94383609D02*
X146649122Y-94383609D01*
X146649122Y-94383609D02*
X146601503Y-94359800D01*
X146601503Y-94359800D02*
X146577694Y-94312180D01*
X146577694Y-94312180D02*
X146577694Y-94264561D01*
X146577694Y-94264561D02*
X146601503Y-94216942D01*
X146601503Y-94216942D02*
X146649122Y-94193133D01*
X146649122Y-94193133D02*
X146768170Y-94193133D01*
X146768170Y-94193133D02*
X146815789Y-94169323D01*
X147268170Y-94050276D02*
X147268170Y-94455038D01*
X147268170Y-94455038D02*
X147244360Y-94502657D01*
X147244360Y-94502657D02*
X147220551Y-94526466D01*
X147220551Y-94526466D02*
X147172932Y-94550276D01*
X147172932Y-94550276D02*
X147101503Y-94550276D01*
X147101503Y-94550276D02*
X147053884Y-94526466D01*
X147268170Y-94359800D02*
X147220551Y-94383609D01*
X147220551Y-94383609D02*
X147125313Y-94383609D01*
X147125313Y-94383609D02*
X147077694Y-94359800D01*
X147077694Y-94359800D02*
X147053884Y-94335990D01*
X147053884Y-94335990D02*
X147030075Y-94288371D01*
X147030075Y-94288371D02*
X147030075Y-94145514D01*
X147030075Y-94145514D02*
X147053884Y-94097895D01*
X147053884Y-94097895D02*
X147077694Y-94074085D01*
X147077694Y-94074085D02*
X147125313Y-94050276D01*
X147125313Y-94050276D02*
X147220551Y-94050276D01*
X147220551Y-94050276D02*
X147268170Y-94074085D01*
X147506265Y-94335990D02*
X147530075Y-94359800D01*
X147530075Y-94359800D02*
X147506265Y-94383609D01*
X147506265Y-94383609D02*
X147482456Y-94359800D01*
X147482456Y-94359800D02*
X147506265Y-94335990D01*
X147506265Y-94335990D02*
X147506265Y-94383609D01*
X148339598Y-94383609D02*
X148339598Y-94121704D01*
X148339598Y-94121704D02*
X148315788Y-94074085D01*
X148315788Y-94074085D02*
X148268169Y-94050276D01*
X148268169Y-94050276D02*
X148172931Y-94050276D01*
X148172931Y-94050276D02*
X148125312Y-94074085D01*
X148339598Y-94359800D02*
X148291979Y-94383609D01*
X148291979Y-94383609D02*
X148172931Y-94383609D01*
X148172931Y-94383609D02*
X148125312Y-94359800D01*
X148125312Y-94359800D02*
X148101503Y-94312180D01*
X148101503Y-94312180D02*
X148101503Y-94264561D01*
X148101503Y-94264561D02*
X148125312Y-94216942D01*
X148125312Y-94216942D02*
X148172931Y-94193133D01*
X148172931Y-94193133D02*
X148291979Y-94193133D01*
X148291979Y-94193133D02*
X148339598Y-94169323D01*
X148530074Y-94383609D02*
X148791979Y-94050276D01*
X148530074Y-94050276D02*
X148791979Y-94383609D01*
X148982455Y-94383609D02*
X148982455Y-94050276D01*
X148982455Y-93883609D02*
X148958646Y-93907419D01*
X148958646Y-93907419D02*
X148982455Y-93931228D01*
X148982455Y-93931228D02*
X149006265Y-93907419D01*
X149006265Y-93907419D02*
X148982455Y-93883609D01*
X148982455Y-93883609D02*
X148982455Y-93931228D01*
X149196741Y-94359800D02*
X149244360Y-94383609D01*
X149244360Y-94383609D02*
X149339598Y-94383609D01*
X149339598Y-94383609D02*
X149387217Y-94359800D01*
X149387217Y-94359800D02*
X149411026Y-94312180D01*
X149411026Y-94312180D02*
X149411026Y-94288371D01*
X149411026Y-94288371D02*
X149387217Y-94240752D01*
X149387217Y-94240752D02*
X149339598Y-94216942D01*
X149339598Y-94216942D02*
X149268169Y-94216942D01*
X149268169Y-94216942D02*
X149220550Y-94193133D01*
X149220550Y-94193133D02*
X149196741Y-94145514D01*
X149196741Y-94145514D02*
X149196741Y-94121704D01*
X149196741Y-94121704D02*
X149220550Y-94074085D01*
X149220550Y-94074085D02*
X149268169Y-94050276D01*
X149268169Y-94050276D02*
X149339598Y-94050276D01*
X149339598Y-94050276D02*
X149387217Y-94074085D01*
X143970550Y-106035990D02*
X143946741Y-106059800D01*
X143946741Y-106059800D02*
X143875312Y-106083609D01*
X143875312Y-106083609D02*
X143827693Y-106083609D01*
X143827693Y-106083609D02*
X143756265Y-106059800D01*
X143756265Y-106059800D02*
X143708646Y-106012180D01*
X143708646Y-106012180D02*
X143684836Y-105964561D01*
X143684836Y-105964561D02*
X143661027Y-105869323D01*
X143661027Y-105869323D02*
X143661027Y-105797895D01*
X143661027Y-105797895D02*
X143684836Y-105702657D01*
X143684836Y-105702657D02*
X143708646Y-105655038D01*
X143708646Y-105655038D02*
X143756265Y-105607419D01*
X143756265Y-105607419D02*
X143827693Y-105583609D01*
X143827693Y-105583609D02*
X143875312Y-105583609D01*
X143875312Y-105583609D02*
X143946741Y-105607419D01*
X143946741Y-105607419D02*
X143970550Y-105631228D01*
X144446741Y-106083609D02*
X144161027Y-106083609D01*
X144303884Y-106083609D02*
X144303884Y-105583609D01*
X144303884Y-105583609D02*
X144256265Y-105655038D01*
X144256265Y-105655038D02*
X144208646Y-105702657D01*
X144208646Y-105702657D02*
X144161027Y-105726466D01*
X145870550Y-105985990D02*
X145846741Y-106009800D01*
X145846741Y-106009800D02*
X145775312Y-106033609D01*
X145775312Y-106033609D02*
X145727693Y-106033609D01*
X145727693Y-106033609D02*
X145656265Y-106009800D01*
X145656265Y-106009800D02*
X145608646Y-105962180D01*
X145608646Y-105962180D02*
X145584836Y-105914561D01*
X145584836Y-105914561D02*
X145561027Y-105819323D01*
X145561027Y-105819323D02*
X145561027Y-105747895D01*
X145561027Y-105747895D02*
X145584836Y-105652657D01*
X145584836Y-105652657D02*
X145608646Y-105605038D01*
X145608646Y-105605038D02*
X145656265Y-105557419D01*
X145656265Y-105557419D02*
X145727693Y-105533609D01*
X145727693Y-105533609D02*
X145775312Y-105533609D01*
X145775312Y-105533609D02*
X145846741Y-105557419D01*
X145846741Y-105557419D02*
X145870550Y-105581228D01*
X146061027Y-105581228D02*
X146084836Y-105557419D01*
X146084836Y-105557419D02*
X146132455Y-105533609D01*
X146132455Y-105533609D02*
X146251503Y-105533609D01*
X146251503Y-105533609D02*
X146299122Y-105557419D01*
X146299122Y-105557419D02*
X146322931Y-105581228D01*
X146322931Y-105581228D02*
X146346741Y-105628847D01*
X146346741Y-105628847D02*
X146346741Y-105676466D01*
X146346741Y-105676466D02*
X146322931Y-105747895D01*
X146322931Y-105747895D02*
X146037217Y-106033609D01*
X146037217Y-106033609D02*
X146346741Y-106033609D01*
D12*
X142859580Y-114042857D02*
X142907200Y-114090476D01*
X142907200Y-114090476D02*
X142954819Y-114233333D01*
X142954819Y-114233333D02*
X142954819Y-114328571D01*
X142954819Y-114328571D02*
X142907200Y-114471428D01*
X142907200Y-114471428D02*
X142811961Y-114566666D01*
X142811961Y-114566666D02*
X142716723Y-114614285D01*
X142716723Y-114614285D02*
X142526247Y-114661904D01*
X142526247Y-114661904D02*
X142383390Y-114661904D01*
X142383390Y-114661904D02*
X142192914Y-114614285D01*
X142192914Y-114614285D02*
X142097676Y-114566666D01*
X142097676Y-114566666D02*
X142002438Y-114471428D01*
X142002438Y-114471428D02*
X141954819Y-114328571D01*
X141954819Y-114328571D02*
X141954819Y-114233333D01*
X141954819Y-114233333D02*
X142002438Y-114090476D01*
X142002438Y-114090476D02*
X142050057Y-114042857D01*
X142954819Y-113090476D02*
X142954819Y-113661904D01*
X142954819Y-113376190D02*
X141954819Y-113376190D01*
X141954819Y-113376190D02*
X142097676Y-113471428D01*
X142097676Y-113471428D02*
X142192914Y-113566666D01*
X142192914Y-113566666D02*
X142240533Y-113661904D01*
X142954819Y-112138095D02*
X142954819Y-112709523D01*
X142954819Y-112423809D02*
X141954819Y-112423809D01*
X141954819Y-112423809D02*
X142097676Y-112519047D01*
X142097676Y-112519047D02*
X142192914Y-112614285D01*
X142192914Y-112614285D02*
X142240533Y-112709523D01*
X140816666Y-92654819D02*
X140816666Y-93369104D01*
X140816666Y-93369104D02*
X140769047Y-93511961D01*
X140769047Y-93511961D02*
X140673809Y-93607200D01*
X140673809Y-93607200D02*
X140530952Y-93654819D01*
X140530952Y-93654819D02*
X140435714Y-93654819D01*
X141292857Y-93654819D02*
X141292857Y-92654819D01*
X141292857Y-92654819D02*
X141673809Y-92654819D01*
X141673809Y-92654819D02*
X141769047Y-92702438D01*
X141769047Y-92702438D02*
X141816666Y-92750057D01*
X141816666Y-92750057D02*
X141864285Y-92845295D01*
X141864285Y-92845295D02*
X141864285Y-92988152D01*
X141864285Y-92988152D02*
X141816666Y-93083390D01*
X141816666Y-93083390D02*
X141769047Y-93131009D01*
X141769047Y-93131009D02*
X141673809Y-93178628D01*
X141673809Y-93178628D02*
X141292857Y-93178628D01*
X142816666Y-93654819D02*
X142245238Y-93654819D01*
X142530952Y-93654819D02*
X142530952Y-92654819D01*
X142530952Y-92654819D02*
X142435714Y-92797676D01*
X142435714Y-92797676D02*
X142340476Y-92892914D01*
X142340476Y-92892914D02*
X142245238Y-92940533D01*
X131607142Y-117359580D02*
X131559523Y-117407200D01*
X131559523Y-117407200D02*
X131416666Y-117454819D01*
X131416666Y-117454819D02*
X131321428Y-117454819D01*
X131321428Y-117454819D02*
X131178571Y-117407200D01*
X131178571Y-117407200D02*
X131083333Y-117311961D01*
X131083333Y-117311961D02*
X131035714Y-117216723D01*
X131035714Y-117216723D02*
X130988095Y-117026247D01*
X130988095Y-117026247D02*
X130988095Y-116883390D01*
X130988095Y-116883390D02*
X131035714Y-116692914D01*
X131035714Y-116692914D02*
X131083333Y-116597676D01*
X131083333Y-116597676D02*
X131178571Y-116502438D01*
X131178571Y-116502438D02*
X131321428Y-116454819D01*
X131321428Y-116454819D02*
X131416666Y-116454819D01*
X131416666Y-116454819D02*
X131559523Y-116502438D01*
X131559523Y-116502438D02*
X131607142Y-116550057D01*
X132559523Y-117454819D02*
X131988095Y-117454819D01*
X132273809Y-117454819D02*
X132273809Y-116454819D01*
X132273809Y-116454819D02*
X132178571Y-116597676D01*
X132178571Y-116597676D02*
X132083333Y-116692914D01*
X132083333Y-116692914D02*
X131988095Y-116740533D01*
X133178571Y-116454819D02*
X133273809Y-116454819D01*
X133273809Y-116454819D02*
X133369047Y-116502438D01*
X133369047Y-116502438D02*
X133416666Y-116550057D01*
X133416666Y-116550057D02*
X133464285Y-116645295D01*
X133464285Y-116645295D02*
X133511904Y-116835771D01*
X133511904Y-116835771D02*
X133511904Y-117073866D01*
X133511904Y-117073866D02*
X133464285Y-117264342D01*
X133464285Y-117264342D02*
X133416666Y-117359580D01*
X133416666Y-117359580D02*
X133369047Y-117407200D01*
X133369047Y-117407200D02*
X133273809Y-117454819D01*
X133273809Y-117454819D02*
X133178571Y-117454819D01*
X133178571Y-117454819D02*
X133083333Y-117407200D01*
X133083333Y-117407200D02*
X133035714Y-117359580D01*
X133035714Y-117359580D02*
X132988095Y-117264342D01*
X132988095Y-117264342D02*
X132940476Y-117073866D01*
X132940476Y-117073866D02*
X132940476Y-116835771D01*
X132940476Y-116835771D02*
X132988095Y-116645295D01*
X132988095Y-116645295D02*
X133035714Y-116550057D01*
X133035714Y-116550057D02*
X133083333Y-116502438D01*
X133083333Y-116502438D02*
X133178571Y-116454819D01*
D13*
%TO.C,C4*%
X144113964Y-104503407D02*
X143898292Y-104503407D01*
X144113964Y-105223407D02*
X143898292Y-105223407D01*
%TO.C,CR3*%
D14*
X153827882Y-108804394D02*
G75*
G02*
X153724466Y-108804394I-51708J0D01*
G01*
X153724466Y-108804394D02*
G75*
G02*
X153827882Y-108804394I51708J0D01*
G01*
%TO.C,CR5*%
X153827882Y-105454394D02*
G75*
G02*
X153724466Y-105454394I-51708J0D01*
G01*
X153724466Y-105454394D02*
G75*
G02*
X153827882Y-105454394I51708J0D01*
G01*
D15*
%TO.C,CR1*%
X133098946Y-101275395D02*
X133098946Y-102301555D01*
X133098946Y-103500435D02*
X133098946Y-104526595D01*
X133098946Y-104526595D02*
X134749946Y-104526595D01*
X134749946Y-101275395D02*
X133098946Y-101275395D01*
X134749946Y-103251556D02*
X134749946Y-102550434D01*
X136362846Y-103850995D02*
G75*
G02*
X136210446Y-103850995I-76200J0D01*
G01*
X136210446Y-103850995D02*
G75*
G02*
X136362846Y-103850995I76200J0D01*
G01*
D13*
%TO.C,C1*%
X144167592Y-106330000D02*
X143951920Y-106330000D01*
X144167592Y-107050000D02*
X143951920Y-107050000D01*
%TO.C,C6*%
X144032352Y-101492135D02*
X144032352Y-101707807D01*
X144752352Y-101492135D02*
X144752352Y-101707807D01*
D16*
%TO.C,J2*%
X119150000Y-97304013D02*
X119150000Y-110603987D01*
X119150000Y-110603987D02*
X120079959Y-110603987D01*
X120079959Y-97304013D02*
X119150000Y-97304013D01*
X124520039Y-110603987D02*
X127650001Y-110603987D01*
X126365000Y-95526013D02*
X127000000Y-97050013D01*
X127000000Y-97050013D02*
X127635000Y-95526013D01*
X127635000Y-95526013D02*
X126365000Y-95526013D01*
X127650001Y-97304013D02*
X124520039Y-97304013D01*
X127650001Y-99483960D02*
X127650001Y-97304013D01*
X127650001Y-110603987D02*
X127650001Y-108424040D01*
D13*
%TO.C,U4*%
X133480000Y-109090000D02*
X137240000Y-109090000D01*
X133480000Y-115910000D02*
X137240000Y-115910000D01*
X137240000Y-109090000D02*
X137240000Y-110350000D01*
X137240000Y-115910000D02*
X137240000Y-114650000D01*
X132200000Y-109190000D02*
X131960000Y-108860000D01*
X132440000Y-108860000D01*
X132200000Y-109190000D01*
G36*
X132200000Y-109190000D02*
G01*
X131960000Y-108860000D01*
X132440000Y-108860000D01*
X132200000Y-109190000D01*
G37*
%TO.C,CR6*%
D14*
X153827882Y-103786894D02*
G75*
G02*
X153724466Y-103786894I-51708J0D01*
G01*
X153724466Y-103786894D02*
G75*
G02*
X153827882Y-103786894I51708J0D01*
G01*
D13*
%TO.C,C11*%
X140015000Y-113188748D02*
X140015000Y-113711252D01*
X141485000Y-113188748D02*
X141485000Y-113711252D01*
%TO.C,CR8*%
D14*
X153827882Y-100386894D02*
G75*
G02*
X153724466Y-100386894I-51708J0D01*
G01*
X153724466Y-100386894D02*
G75*
G02*
X153827882Y-100386894I51708J0D01*
G01*
D16*
%TO.C,U2*%
X142795000Y-107400000D02*
X143045000Y-107400000D01*
X142795000Y-108400000D02*
X142795000Y-107400000D01*
X142795000Y-110400000D02*
X142795000Y-109400000D01*
X143045000Y-110400000D02*
X142795000Y-110400000D01*
X147295000Y-107400000D02*
X147045000Y-107400000D01*
X147295000Y-108400000D02*
X147295000Y-107400000D01*
X147295000Y-109400000D02*
X147295000Y-110400000D01*
X147295000Y-110400000D02*
X147045000Y-110400000D01*
D17*
X143145000Y-107900000D02*
G75*
G02*
X142945000Y-107900000I-100000J0D01*
G01*
X142945000Y-107900000D02*
G75*
G02*
X143145000Y-107900000I100000J0D01*
G01*
D13*
%TO.C,R8*%
X141053641Y-106070000D02*
X140746359Y-106070000D01*
X141053641Y-106830000D02*
X140746359Y-106830000D01*
%TO.C,D1*%
X139065000Y-104315000D02*
X139065000Y-105785000D01*
X139065000Y-105785000D02*
X141350000Y-105785000D01*
X141350000Y-104315000D02*
X139065000Y-104315000D01*
D16*
%TO.C,J1*%
X156119999Y-97920013D02*
X156119999Y-100099960D01*
X156119999Y-109040040D02*
X156119999Y-111219987D01*
X156119999Y-111219987D02*
X159249961Y-111219987D01*
X156133042Y-112082000D02*
X157403042Y-112082000D01*
X156768042Y-110558000D02*
X156133042Y-112082000D01*
X157403042Y-112082000D02*
X156768042Y-110558000D01*
X159249961Y-97920013D02*
X156119999Y-97920013D01*
X163690041Y-111219987D02*
X164620000Y-111219987D01*
X164620000Y-97920013D02*
X163690041Y-97920013D01*
X164620000Y-111219987D02*
X164620000Y-97920013D01*
D13*
%TO.C,U1*%
X146550000Y-100950000D02*
X147050000Y-100950000D01*
X146550000Y-101450000D02*
X146550000Y-100950000D01*
X146550000Y-102650000D02*
X146550000Y-102650000D01*
X146550000Y-103150000D02*
X146550000Y-102650000D01*
X147050000Y-100950000D02*
X147050000Y-100950000D01*
X147050000Y-103150000D02*
X146550000Y-103150000D01*
X148250000Y-100950000D02*
X148550000Y-100950000D01*
X148250000Y-103150000D02*
X148250000Y-103150000D01*
X148750000Y-100950000D02*
X148750000Y-100950000D01*
X148750000Y-101450000D02*
X148750000Y-101150000D01*
X148750000Y-102650000D02*
X148750000Y-103150000D01*
X148750000Y-103150000D02*
X148250000Y-103150000D01*
X149110000Y-100950000D02*
X148750000Y-100950000D01*
X148750000Y-100590000D01*
X149110000Y-100950000D01*
G36*
X149110000Y-100950000D02*
G01*
X148750000Y-100950000D01*
X148750000Y-100590000D01*
X149110000Y-100950000D01*
G37*
%TO.C,JP1*%
X140250000Y-95300000D02*
X140250000Y-94700000D01*
X140950000Y-94000000D02*
X142350000Y-94000000D01*
X142350000Y-96000000D02*
X140950000Y-96000000D01*
X143050000Y-94700000D02*
X143050000Y-95300000D01*
X140250000Y-94700000D02*
G75*
G02*
X140950000Y-94000000I699999J1D01*
G01*
X140950000Y-96000000D02*
G75*
G02*
X140250000Y-95300000I-1J699999D01*
G01*
X142350000Y-94000000D02*
G75*
G02*
X143050000Y-94700000I0J-700000D01*
G01*
X143050000Y-95300000D02*
G75*
G02*
X142350000Y-96000000I-700000J0D01*
G01*
D15*
%TO.C,CR2*%
X133120846Y-97765395D02*
X133120846Y-98791555D01*
X133120846Y-99990435D02*
X133120846Y-101016595D01*
X133120846Y-101016595D02*
X134771846Y-101016595D01*
X134771846Y-97765395D02*
X133120846Y-97765395D01*
X134771846Y-99741556D02*
X134771846Y-99040434D01*
X136384746Y-100340995D02*
G75*
G02*
X136232346Y-100340995I-76200J0D01*
G01*
X136232346Y-100340995D02*
G75*
G02*
X136384746Y-100340995I76200J0D01*
G01*
D13*
%TO.C,C7*%
X143902164Y-102630000D02*
X144117836Y-102630000D01*
X143902164Y-103350000D02*
X144117836Y-103350000D01*
%TO.C,R2*%
X139903641Y-97020000D02*
X139596359Y-97020000D01*
X139903641Y-97780000D02*
X139596359Y-97780000D01*
%TO.C,C2*%
X145792164Y-106310000D02*
X146007836Y-106310000D01*
X145792164Y-107030000D02*
X146007836Y-107030000D01*
%TO.C,C5*%
X147272164Y-99890000D02*
X147487836Y-99890000D01*
X147272164Y-100610000D02*
X147487836Y-100610000D01*
%TO.C,C3*%
X144118964Y-103553407D02*
X143903292Y-103553407D01*
X144118964Y-104273407D02*
X143903292Y-104273407D01*
%TO.C,R6*%
X144946518Y-98663641D02*
X144946518Y-98356359D01*
X145706518Y-98663641D02*
X145706518Y-98356359D01*
%TO.C,C12*%
X130107836Y-107140000D02*
X129892164Y-107140000D01*
X130107836Y-107860000D02*
X129892164Y-107860000D01*
D15*
%TO.C,U3*%
X139115577Y-102762394D02*
X142468377Y-102762394D01*
X142468377Y-99409594D02*
X139115577Y-99409594D01*
D18*
G36*
X144177276Y-100276493D02*
G01*
X143923276Y-100276493D01*
X143923276Y-99895493D01*
X144177276Y-99895493D01*
X144177276Y-100276493D01*
G37*
D13*
%TO.C,C10*%
X129015000Y-115488748D02*
X129015000Y-116011252D01*
X130485000Y-115488748D02*
X130485000Y-116011252D01*
%TO.C,CR7*%
D14*
X153827882Y-102054394D02*
G75*
G02*
X153724466Y-102054394I-51708J0D01*
G01*
X153724466Y-102054394D02*
G75*
G02*
X153827882Y-102054394I51708J0D01*
G01*
%TO.C,CR4*%
X153827882Y-107119394D02*
G75*
G02*
X153724466Y-107119394I-51708J0D01*
G01*
X153724466Y-107119394D02*
G75*
G02*
X153827882Y-107119394I51708J0D01*
G01*
D13*
%TO.C,R5*%
X144950000Y-100703641D02*
X144950000Y-100396359D01*
X145710000Y-100703641D02*
X145710000Y-100396359D01*
%TD*%
M02*
