%TF.GenerationSoftware,KiCad,Pcbnew,8.0.6-8.0.6-0~ubuntu22.04.1*%
%TF.CreationDate,2024-12-18T19:34:09+01:00*%
%TF.ProjectId,Xplore ERC IMU,58706c6f-7265-4204-9552-4320494d552e,rev?*%
%TF.SameCoordinates,Original*%
%TF.FileFunction,Drillmap*%
%TF.FilePolarity,Positive*%
%FSLAX45Y45*%
G04 Gerber Fmt 4.5, Leading zero omitted, Abs format (unit mm)*
G04 Created by KiCad (PCBNEW 8.0.6-8.0.6-0~ubuntu22.04.1) date 2024-12-18 19:34:09*
%MOMM*%
%LPD*%
G01*
G04 APERTURE LIST*
%ADD10C,0.050000*%
%ADD11C,0.200000*%
%ADD12C,0.220000*%
G04 APERTURE END LIST*
D10*
X11870711Y-9040711D02*
X16500000Y-9040711D01*
X16500000Y-11820000D02*
X11870711Y-11820000D01*
X11770711Y-9140711D02*
X11770711Y-11720000D01*
X11770711Y-9140711D02*
G75*
G02*
X11870711Y-9040711I99999J1D01*
G01*
X11870711Y-11820000D02*
G75*
G02*
X11770710Y-11720000I-1J100000D01*
G01*
X16500000Y-9040711D02*
G75*
G02*
X16599999Y-9140711I0J-99999D01*
G01*
X16600000Y-11720000D02*
G75*
G02*
X16500000Y-11820000I-100000J0D01*
G01*
X16600000Y-11720000D02*
X16600000Y-9140711D01*
D11*
D12*
X12040000Y-9240000D02*
X12260000Y-9460000D01*
X12260000Y-9240000D02*
X12040000Y-9460000D01*
X12040000Y-11440000D02*
X12260000Y-11660000D01*
X12260000Y-11440000D02*
X12040000Y-11660000D01*
X16040000Y-9240000D02*
X16260000Y-9460000D01*
X16260000Y-9240000D02*
X16040000Y-9460000D01*
X16040000Y-11440000D02*
X16260000Y-11660000D01*
X16260000Y-11440000D02*
X16040000Y-11660000D01*
D11*
X12028987Y-12133984D02*
X12028987Y-11933984D01*
X12028987Y-11933984D02*
X12076606Y-11933984D01*
X12076606Y-11933984D02*
X12105178Y-11943508D01*
X12105178Y-11943508D02*
X12124226Y-11962555D01*
X12124226Y-11962555D02*
X12133749Y-11981603D01*
X12133749Y-11981603D02*
X12143273Y-12019698D01*
X12143273Y-12019698D02*
X12143273Y-12048269D01*
X12143273Y-12048269D02*
X12133749Y-12086365D01*
X12133749Y-12086365D02*
X12124226Y-12105412D01*
X12124226Y-12105412D02*
X12105178Y-12124460D01*
X12105178Y-12124460D02*
X12076606Y-12133984D01*
X12076606Y-12133984D02*
X12028987Y-12133984D01*
X12228987Y-12133984D02*
X12228987Y-12000650D01*
X12228987Y-12038746D02*
X12238511Y-12019698D01*
X12238511Y-12019698D02*
X12248035Y-12010174D01*
X12248035Y-12010174D02*
X12267083Y-12000650D01*
X12267083Y-12000650D02*
X12286130Y-12000650D01*
X12352797Y-12133984D02*
X12352797Y-12000650D01*
X12352797Y-11933984D02*
X12343273Y-11943508D01*
X12343273Y-11943508D02*
X12352797Y-11953031D01*
X12352797Y-11953031D02*
X12362321Y-11943508D01*
X12362321Y-11943508D02*
X12352797Y-11933984D01*
X12352797Y-11933984D02*
X12352797Y-11953031D01*
X12476606Y-12133984D02*
X12457559Y-12124460D01*
X12457559Y-12124460D02*
X12448035Y-12105412D01*
X12448035Y-12105412D02*
X12448035Y-11933984D01*
X12581368Y-12133984D02*
X12562321Y-12124460D01*
X12562321Y-12124460D02*
X12552797Y-12105412D01*
X12552797Y-12105412D02*
X12552797Y-11933984D01*
X12809940Y-12133984D02*
X12809940Y-11933984D01*
X12809940Y-11933984D02*
X12876607Y-12076841D01*
X12876607Y-12076841D02*
X12943273Y-11933984D01*
X12943273Y-11933984D02*
X12943273Y-12133984D01*
X13124226Y-12133984D02*
X13124226Y-12029222D01*
X13124226Y-12029222D02*
X13114702Y-12010174D01*
X13114702Y-12010174D02*
X13095654Y-12000650D01*
X13095654Y-12000650D02*
X13057559Y-12000650D01*
X13057559Y-12000650D02*
X13038511Y-12010174D01*
X13124226Y-12124460D02*
X13105178Y-12133984D01*
X13105178Y-12133984D02*
X13057559Y-12133984D01*
X13057559Y-12133984D02*
X13038511Y-12124460D01*
X13038511Y-12124460D02*
X13028987Y-12105412D01*
X13028987Y-12105412D02*
X13028987Y-12086365D01*
X13028987Y-12086365D02*
X13038511Y-12067317D01*
X13038511Y-12067317D02*
X13057559Y-12057793D01*
X13057559Y-12057793D02*
X13105178Y-12057793D01*
X13105178Y-12057793D02*
X13124226Y-12048269D01*
X13219464Y-12000650D02*
X13219464Y-12200650D01*
X13219464Y-12010174D02*
X13238511Y-12000650D01*
X13238511Y-12000650D02*
X13276607Y-12000650D01*
X13276607Y-12000650D02*
X13295654Y-12010174D01*
X13295654Y-12010174D02*
X13305178Y-12019698D01*
X13305178Y-12019698D02*
X13314702Y-12038746D01*
X13314702Y-12038746D02*
X13314702Y-12095888D01*
X13314702Y-12095888D02*
X13305178Y-12114936D01*
X13305178Y-12114936D02*
X13295654Y-12124460D01*
X13295654Y-12124460D02*
X13276607Y-12133984D01*
X13276607Y-12133984D02*
X13238511Y-12133984D01*
X13238511Y-12133984D02*
X13219464Y-12124460D01*
X13400416Y-12114936D02*
X13409940Y-12124460D01*
X13409940Y-12124460D02*
X13400416Y-12133984D01*
X13400416Y-12133984D02*
X13390892Y-12124460D01*
X13390892Y-12124460D02*
X13400416Y-12114936D01*
X13400416Y-12114936D02*
X13400416Y-12133984D01*
X13400416Y-12010174D02*
X13409940Y-12019698D01*
X13409940Y-12019698D02*
X13400416Y-12029222D01*
X13400416Y-12029222D02*
X13390892Y-12019698D01*
X13390892Y-12019698D02*
X13400416Y-12010174D01*
X13400416Y-12010174D02*
X13400416Y-12029222D01*
X11568211Y-12362500D02*
X11768211Y-12562500D01*
X11768211Y-12362500D02*
X11568211Y-12562500D01*
X12019464Y-12373031D02*
X12028987Y-12363508D01*
X12028987Y-12363508D02*
X12048035Y-12353984D01*
X12048035Y-12353984D02*
X12095654Y-12353984D01*
X12095654Y-12353984D02*
X12114702Y-12363508D01*
X12114702Y-12363508D02*
X12124226Y-12373031D01*
X12124226Y-12373031D02*
X12133749Y-12392079D01*
X12133749Y-12392079D02*
X12133749Y-12411127D01*
X12133749Y-12411127D02*
X12124226Y-12439698D01*
X12124226Y-12439698D02*
X12009940Y-12553984D01*
X12009940Y-12553984D02*
X12133749Y-12553984D01*
X12219464Y-12534936D02*
X12228987Y-12544460D01*
X12228987Y-12544460D02*
X12219464Y-12553984D01*
X12219464Y-12553984D02*
X12209940Y-12544460D01*
X12209940Y-12544460D02*
X12219464Y-12534936D01*
X12219464Y-12534936D02*
X12219464Y-12553984D01*
X12305178Y-12373031D02*
X12314702Y-12363508D01*
X12314702Y-12363508D02*
X12333749Y-12353984D01*
X12333749Y-12353984D02*
X12381368Y-12353984D01*
X12381368Y-12353984D02*
X12400416Y-12363508D01*
X12400416Y-12363508D02*
X12409940Y-12373031D01*
X12409940Y-12373031D02*
X12419464Y-12392079D01*
X12419464Y-12392079D02*
X12419464Y-12411127D01*
X12419464Y-12411127D02*
X12409940Y-12439698D01*
X12409940Y-12439698D02*
X12295654Y-12553984D01*
X12295654Y-12553984D02*
X12419464Y-12553984D01*
X12543273Y-12353984D02*
X12562321Y-12353984D01*
X12562321Y-12353984D02*
X12581368Y-12363508D01*
X12581368Y-12363508D02*
X12590892Y-12373031D01*
X12590892Y-12373031D02*
X12600416Y-12392079D01*
X12600416Y-12392079D02*
X12609940Y-12430174D01*
X12609940Y-12430174D02*
X12609940Y-12477793D01*
X12609940Y-12477793D02*
X12600416Y-12515888D01*
X12600416Y-12515888D02*
X12590892Y-12534936D01*
X12590892Y-12534936D02*
X12581368Y-12544460D01*
X12581368Y-12544460D02*
X12562321Y-12553984D01*
X12562321Y-12553984D02*
X12543273Y-12553984D01*
X12543273Y-12553984D02*
X12524226Y-12544460D01*
X12524226Y-12544460D02*
X12514702Y-12534936D01*
X12514702Y-12534936D02*
X12505178Y-12515888D01*
X12505178Y-12515888D02*
X12495654Y-12477793D01*
X12495654Y-12477793D02*
X12495654Y-12430174D01*
X12495654Y-12430174D02*
X12505178Y-12392079D01*
X12505178Y-12392079D02*
X12514702Y-12373031D01*
X12514702Y-12373031D02*
X12524226Y-12363508D01*
X12524226Y-12363508D02*
X12543273Y-12353984D01*
X12733749Y-12353984D02*
X12752797Y-12353984D01*
X12752797Y-12353984D02*
X12771845Y-12363508D01*
X12771845Y-12363508D02*
X12781368Y-12373031D01*
X12781368Y-12373031D02*
X12790892Y-12392079D01*
X12790892Y-12392079D02*
X12800416Y-12430174D01*
X12800416Y-12430174D02*
X12800416Y-12477793D01*
X12800416Y-12477793D02*
X12790892Y-12515888D01*
X12790892Y-12515888D02*
X12781368Y-12534936D01*
X12781368Y-12534936D02*
X12771845Y-12544460D01*
X12771845Y-12544460D02*
X12752797Y-12553984D01*
X12752797Y-12553984D02*
X12733749Y-12553984D01*
X12733749Y-12553984D02*
X12714702Y-12544460D01*
X12714702Y-12544460D02*
X12705178Y-12534936D01*
X12705178Y-12534936D02*
X12695654Y-12515888D01*
X12695654Y-12515888D02*
X12686130Y-12477793D01*
X12686130Y-12477793D02*
X12686130Y-12430174D01*
X12686130Y-12430174D02*
X12695654Y-12392079D01*
X12695654Y-12392079D02*
X12705178Y-12373031D01*
X12705178Y-12373031D02*
X12714702Y-12363508D01*
X12714702Y-12363508D02*
X12733749Y-12353984D01*
X12886130Y-12553984D02*
X12886130Y-12420650D01*
X12886130Y-12439698D02*
X12895654Y-12430174D01*
X12895654Y-12430174D02*
X12914702Y-12420650D01*
X12914702Y-12420650D02*
X12943273Y-12420650D01*
X12943273Y-12420650D02*
X12962321Y-12430174D01*
X12962321Y-12430174D02*
X12971845Y-12449222D01*
X12971845Y-12449222D02*
X12971845Y-12553984D01*
X12971845Y-12449222D02*
X12981368Y-12430174D01*
X12981368Y-12430174D02*
X13000416Y-12420650D01*
X13000416Y-12420650D02*
X13028987Y-12420650D01*
X13028987Y-12420650D02*
X13048035Y-12430174D01*
X13048035Y-12430174D02*
X13057559Y-12449222D01*
X13057559Y-12449222D02*
X13057559Y-12553984D01*
X13152797Y-12553984D02*
X13152797Y-12420650D01*
X13152797Y-12439698D02*
X13162321Y-12430174D01*
X13162321Y-12430174D02*
X13181368Y-12420650D01*
X13181368Y-12420650D02*
X13209940Y-12420650D01*
X13209940Y-12420650D02*
X13228988Y-12430174D01*
X13228988Y-12430174D02*
X13238511Y-12449222D01*
X13238511Y-12449222D02*
X13238511Y-12553984D01*
X13238511Y-12449222D02*
X13248035Y-12430174D01*
X13248035Y-12430174D02*
X13267083Y-12420650D01*
X13267083Y-12420650D02*
X13295654Y-12420650D01*
X13295654Y-12420650D02*
X13314702Y-12430174D01*
X13314702Y-12430174D02*
X13324226Y-12449222D01*
X13324226Y-12449222D02*
X13324226Y-12553984D01*
X13714702Y-12344460D02*
X13543273Y-12601603D01*
X13971845Y-12353984D02*
X13990892Y-12353984D01*
X13990892Y-12353984D02*
X14009940Y-12363508D01*
X14009940Y-12363508D02*
X14019464Y-12373031D01*
X14019464Y-12373031D02*
X14028988Y-12392079D01*
X14028988Y-12392079D02*
X14038511Y-12430174D01*
X14038511Y-12430174D02*
X14038511Y-12477793D01*
X14038511Y-12477793D02*
X14028988Y-12515888D01*
X14028988Y-12515888D02*
X14019464Y-12534936D01*
X14019464Y-12534936D02*
X14009940Y-12544460D01*
X14009940Y-12544460D02*
X13990892Y-12553984D01*
X13990892Y-12553984D02*
X13971845Y-12553984D01*
X13971845Y-12553984D02*
X13952797Y-12544460D01*
X13952797Y-12544460D02*
X13943273Y-12534936D01*
X13943273Y-12534936D02*
X13933750Y-12515888D01*
X13933750Y-12515888D02*
X13924226Y-12477793D01*
X13924226Y-12477793D02*
X13924226Y-12430174D01*
X13924226Y-12430174D02*
X13933750Y-12392079D01*
X13933750Y-12392079D02*
X13943273Y-12373031D01*
X13943273Y-12373031D02*
X13952797Y-12363508D01*
X13952797Y-12363508D02*
X13971845Y-12353984D01*
X14124226Y-12534936D02*
X14133750Y-12544460D01*
X14133750Y-12544460D02*
X14124226Y-12553984D01*
X14124226Y-12553984D02*
X14114702Y-12544460D01*
X14114702Y-12544460D02*
X14124226Y-12534936D01*
X14124226Y-12534936D02*
X14124226Y-12553984D01*
X14257559Y-12353984D02*
X14276607Y-12353984D01*
X14276607Y-12353984D02*
X14295654Y-12363508D01*
X14295654Y-12363508D02*
X14305178Y-12373031D01*
X14305178Y-12373031D02*
X14314702Y-12392079D01*
X14314702Y-12392079D02*
X14324226Y-12430174D01*
X14324226Y-12430174D02*
X14324226Y-12477793D01*
X14324226Y-12477793D02*
X14314702Y-12515888D01*
X14314702Y-12515888D02*
X14305178Y-12534936D01*
X14305178Y-12534936D02*
X14295654Y-12544460D01*
X14295654Y-12544460D02*
X14276607Y-12553984D01*
X14276607Y-12553984D02*
X14257559Y-12553984D01*
X14257559Y-12553984D02*
X14238511Y-12544460D01*
X14238511Y-12544460D02*
X14228988Y-12534936D01*
X14228988Y-12534936D02*
X14219464Y-12515888D01*
X14219464Y-12515888D02*
X14209940Y-12477793D01*
X14209940Y-12477793D02*
X14209940Y-12430174D01*
X14209940Y-12430174D02*
X14219464Y-12392079D01*
X14219464Y-12392079D02*
X14228988Y-12373031D01*
X14228988Y-12373031D02*
X14238511Y-12363508D01*
X14238511Y-12363508D02*
X14257559Y-12353984D01*
X14438511Y-12439698D02*
X14419464Y-12430174D01*
X14419464Y-12430174D02*
X14409940Y-12420650D01*
X14409940Y-12420650D02*
X14400416Y-12401603D01*
X14400416Y-12401603D02*
X14400416Y-12392079D01*
X14400416Y-12392079D02*
X14409940Y-12373031D01*
X14409940Y-12373031D02*
X14419464Y-12363508D01*
X14419464Y-12363508D02*
X14438511Y-12353984D01*
X14438511Y-12353984D02*
X14476607Y-12353984D01*
X14476607Y-12353984D02*
X14495654Y-12363508D01*
X14495654Y-12363508D02*
X14505178Y-12373031D01*
X14505178Y-12373031D02*
X14514702Y-12392079D01*
X14514702Y-12392079D02*
X14514702Y-12401603D01*
X14514702Y-12401603D02*
X14505178Y-12420650D01*
X14505178Y-12420650D02*
X14495654Y-12430174D01*
X14495654Y-12430174D02*
X14476607Y-12439698D01*
X14476607Y-12439698D02*
X14438511Y-12439698D01*
X14438511Y-12439698D02*
X14419464Y-12449222D01*
X14419464Y-12449222D02*
X14409940Y-12458746D01*
X14409940Y-12458746D02*
X14400416Y-12477793D01*
X14400416Y-12477793D02*
X14400416Y-12515888D01*
X14400416Y-12515888D02*
X14409940Y-12534936D01*
X14409940Y-12534936D02*
X14419464Y-12544460D01*
X14419464Y-12544460D02*
X14438511Y-12553984D01*
X14438511Y-12553984D02*
X14476607Y-12553984D01*
X14476607Y-12553984D02*
X14495654Y-12544460D01*
X14495654Y-12544460D02*
X14505178Y-12534936D01*
X14505178Y-12534936D02*
X14514702Y-12515888D01*
X14514702Y-12515888D02*
X14514702Y-12477793D01*
X14514702Y-12477793D02*
X14505178Y-12458746D01*
X14505178Y-12458746D02*
X14495654Y-12449222D01*
X14495654Y-12449222D02*
X14476607Y-12439698D01*
X14686131Y-12353984D02*
X14648035Y-12353984D01*
X14648035Y-12353984D02*
X14628988Y-12363508D01*
X14628988Y-12363508D02*
X14619464Y-12373031D01*
X14619464Y-12373031D02*
X14600416Y-12401603D01*
X14600416Y-12401603D02*
X14590892Y-12439698D01*
X14590892Y-12439698D02*
X14590892Y-12515888D01*
X14590892Y-12515888D02*
X14600416Y-12534936D01*
X14600416Y-12534936D02*
X14609940Y-12544460D01*
X14609940Y-12544460D02*
X14628988Y-12553984D01*
X14628988Y-12553984D02*
X14667083Y-12553984D01*
X14667083Y-12553984D02*
X14686131Y-12544460D01*
X14686131Y-12544460D02*
X14695654Y-12534936D01*
X14695654Y-12534936D02*
X14705178Y-12515888D01*
X14705178Y-12515888D02*
X14705178Y-12468269D01*
X14705178Y-12468269D02*
X14695654Y-12449222D01*
X14695654Y-12449222D02*
X14686131Y-12439698D01*
X14686131Y-12439698D02*
X14667083Y-12430174D01*
X14667083Y-12430174D02*
X14628988Y-12430174D01*
X14628988Y-12430174D02*
X14609940Y-12439698D01*
X14609940Y-12439698D02*
X14600416Y-12449222D01*
X14600416Y-12449222D02*
X14590892Y-12468269D01*
X14876607Y-12353984D02*
X14838511Y-12353984D01*
X14838511Y-12353984D02*
X14819464Y-12363508D01*
X14819464Y-12363508D02*
X14809940Y-12373031D01*
X14809940Y-12373031D02*
X14790892Y-12401603D01*
X14790892Y-12401603D02*
X14781369Y-12439698D01*
X14781369Y-12439698D02*
X14781369Y-12515888D01*
X14781369Y-12515888D02*
X14790892Y-12534936D01*
X14790892Y-12534936D02*
X14800416Y-12544460D01*
X14800416Y-12544460D02*
X14819464Y-12553984D01*
X14819464Y-12553984D02*
X14857559Y-12553984D01*
X14857559Y-12553984D02*
X14876607Y-12544460D01*
X14876607Y-12544460D02*
X14886131Y-12534936D01*
X14886131Y-12534936D02*
X14895654Y-12515888D01*
X14895654Y-12515888D02*
X14895654Y-12468269D01*
X14895654Y-12468269D02*
X14886131Y-12449222D01*
X14886131Y-12449222D02*
X14876607Y-12439698D01*
X14876607Y-12439698D02*
X14857559Y-12430174D01*
X14857559Y-12430174D02*
X14819464Y-12430174D01*
X14819464Y-12430174D02*
X14800416Y-12439698D01*
X14800416Y-12439698D02*
X14790892Y-12449222D01*
X14790892Y-12449222D02*
X14781369Y-12468269D01*
X14971845Y-12353984D02*
X14971845Y-12392079D01*
X15048035Y-12353984D02*
X15048035Y-12392079D01*
X15343274Y-12630174D02*
X15333750Y-12620650D01*
X15333750Y-12620650D02*
X15314702Y-12592079D01*
X15314702Y-12592079D02*
X15305178Y-12573031D01*
X15305178Y-12573031D02*
X15295654Y-12544460D01*
X15295654Y-12544460D02*
X15286131Y-12496841D01*
X15286131Y-12496841D02*
X15286131Y-12458746D01*
X15286131Y-12458746D02*
X15295654Y-12411127D01*
X15295654Y-12411127D02*
X15305178Y-12382555D01*
X15305178Y-12382555D02*
X15314702Y-12363508D01*
X15314702Y-12363508D02*
X15333750Y-12334936D01*
X15333750Y-12334936D02*
X15343274Y-12325412D01*
X15505178Y-12420650D02*
X15505178Y-12553984D01*
X15457559Y-12344460D02*
X15409940Y-12487317D01*
X15409940Y-12487317D02*
X15533750Y-12487317D01*
X15762321Y-12553984D02*
X15762321Y-12353984D01*
X15848035Y-12553984D02*
X15848035Y-12449222D01*
X15848035Y-12449222D02*
X15838512Y-12430174D01*
X15838512Y-12430174D02*
X15819464Y-12420650D01*
X15819464Y-12420650D02*
X15790893Y-12420650D01*
X15790893Y-12420650D02*
X15771845Y-12430174D01*
X15771845Y-12430174D02*
X15762321Y-12439698D01*
X15971845Y-12553984D02*
X15952797Y-12544460D01*
X15952797Y-12544460D02*
X15943274Y-12534936D01*
X15943274Y-12534936D02*
X15933750Y-12515888D01*
X15933750Y-12515888D02*
X15933750Y-12458746D01*
X15933750Y-12458746D02*
X15943274Y-12439698D01*
X15943274Y-12439698D02*
X15952797Y-12430174D01*
X15952797Y-12430174D02*
X15971845Y-12420650D01*
X15971845Y-12420650D02*
X16000416Y-12420650D01*
X16000416Y-12420650D02*
X16019464Y-12430174D01*
X16019464Y-12430174D02*
X16028988Y-12439698D01*
X16028988Y-12439698D02*
X16038512Y-12458746D01*
X16038512Y-12458746D02*
X16038512Y-12515888D01*
X16038512Y-12515888D02*
X16028988Y-12534936D01*
X16028988Y-12534936D02*
X16019464Y-12544460D01*
X16019464Y-12544460D02*
X16000416Y-12553984D01*
X16000416Y-12553984D02*
X15971845Y-12553984D01*
X16152797Y-12553984D02*
X16133750Y-12544460D01*
X16133750Y-12544460D02*
X16124226Y-12525412D01*
X16124226Y-12525412D02*
X16124226Y-12353984D01*
X16305178Y-12544460D02*
X16286131Y-12553984D01*
X16286131Y-12553984D02*
X16248035Y-12553984D01*
X16248035Y-12553984D02*
X16228988Y-12544460D01*
X16228988Y-12544460D02*
X16219464Y-12525412D01*
X16219464Y-12525412D02*
X16219464Y-12449222D01*
X16219464Y-12449222D02*
X16228988Y-12430174D01*
X16228988Y-12430174D02*
X16248035Y-12420650D01*
X16248035Y-12420650D02*
X16286131Y-12420650D01*
X16286131Y-12420650D02*
X16305178Y-12430174D01*
X16305178Y-12430174D02*
X16314702Y-12449222D01*
X16314702Y-12449222D02*
X16314702Y-12468269D01*
X16314702Y-12468269D02*
X16219464Y-12487317D01*
X16390893Y-12544460D02*
X16409940Y-12553984D01*
X16409940Y-12553984D02*
X16448035Y-12553984D01*
X16448035Y-12553984D02*
X16467083Y-12544460D01*
X16467083Y-12544460D02*
X16476607Y-12525412D01*
X16476607Y-12525412D02*
X16476607Y-12515888D01*
X16476607Y-12515888D02*
X16467083Y-12496841D01*
X16467083Y-12496841D02*
X16448035Y-12487317D01*
X16448035Y-12487317D02*
X16419464Y-12487317D01*
X16419464Y-12487317D02*
X16400416Y-12477793D01*
X16400416Y-12477793D02*
X16390893Y-12458746D01*
X16390893Y-12458746D02*
X16390893Y-12449222D01*
X16390893Y-12449222D02*
X16400416Y-12430174D01*
X16400416Y-12430174D02*
X16419464Y-12420650D01*
X16419464Y-12420650D02*
X16448035Y-12420650D01*
X16448035Y-12420650D02*
X16467083Y-12430174D01*
X16543274Y-12630174D02*
X16552797Y-12620650D01*
X16552797Y-12620650D02*
X16571845Y-12592079D01*
X16571845Y-12592079D02*
X16581369Y-12573031D01*
X16581369Y-12573031D02*
X16590893Y-12544460D01*
X16590893Y-12544460D02*
X16600416Y-12496841D01*
X16600416Y-12496841D02*
X16600416Y-12458746D01*
X16600416Y-12458746D02*
X16590893Y-12411127D01*
X16590893Y-12411127D02*
X16581369Y-12382555D01*
X16581369Y-12382555D02*
X16571845Y-12363508D01*
X16571845Y-12363508D02*
X16552797Y-12334936D01*
X16552797Y-12334936D02*
X16543274Y-12325412D01*
X16905179Y-12630174D02*
X16895655Y-12620650D01*
X16895655Y-12620650D02*
X16876607Y-12592079D01*
X16876607Y-12592079D02*
X16867083Y-12573031D01*
X16867083Y-12573031D02*
X16857559Y-12544460D01*
X16857559Y-12544460D02*
X16848036Y-12496841D01*
X16848036Y-12496841D02*
X16848036Y-12458746D01*
X16848036Y-12458746D02*
X16857559Y-12411127D01*
X16857559Y-12411127D02*
X16867083Y-12382555D01*
X16867083Y-12382555D02*
X16876607Y-12363508D01*
X16876607Y-12363508D02*
X16895655Y-12334936D01*
X16895655Y-12334936D02*
X16905179Y-12325412D01*
X16981369Y-12420650D02*
X16981369Y-12553984D01*
X16981369Y-12439698D02*
X16990893Y-12430174D01*
X16990893Y-12430174D02*
X17009940Y-12420650D01*
X17009940Y-12420650D02*
X17038512Y-12420650D01*
X17038512Y-12420650D02*
X17057559Y-12430174D01*
X17057559Y-12430174D02*
X17067083Y-12449222D01*
X17067083Y-12449222D02*
X17067083Y-12553984D01*
X17190893Y-12553984D02*
X17171845Y-12544460D01*
X17171845Y-12544460D02*
X17162321Y-12534936D01*
X17162321Y-12534936D02*
X17152798Y-12515888D01*
X17152798Y-12515888D02*
X17152798Y-12458746D01*
X17152798Y-12458746D02*
X17162321Y-12439698D01*
X17162321Y-12439698D02*
X17171845Y-12430174D01*
X17171845Y-12430174D02*
X17190893Y-12420650D01*
X17190893Y-12420650D02*
X17219464Y-12420650D01*
X17219464Y-12420650D02*
X17238512Y-12430174D01*
X17238512Y-12430174D02*
X17248036Y-12439698D01*
X17248036Y-12439698D02*
X17257559Y-12458746D01*
X17257559Y-12458746D02*
X17257559Y-12515888D01*
X17257559Y-12515888D02*
X17248036Y-12534936D01*
X17248036Y-12534936D02*
X17238512Y-12544460D01*
X17238512Y-12544460D02*
X17219464Y-12553984D01*
X17219464Y-12553984D02*
X17190893Y-12553984D01*
X17314702Y-12420650D02*
X17390893Y-12420650D01*
X17343274Y-12353984D02*
X17343274Y-12525412D01*
X17343274Y-12525412D02*
X17352798Y-12544460D01*
X17352798Y-12544460D02*
X17371845Y-12553984D01*
X17371845Y-12553984D02*
X17390893Y-12553984D01*
X17609940Y-12420650D02*
X17609940Y-12620650D01*
X17609940Y-12430174D02*
X17628988Y-12420650D01*
X17628988Y-12420650D02*
X17667083Y-12420650D01*
X17667083Y-12420650D02*
X17686131Y-12430174D01*
X17686131Y-12430174D02*
X17695655Y-12439698D01*
X17695655Y-12439698D02*
X17705179Y-12458746D01*
X17705179Y-12458746D02*
X17705179Y-12515888D01*
X17705179Y-12515888D02*
X17695655Y-12534936D01*
X17695655Y-12534936D02*
X17686131Y-12544460D01*
X17686131Y-12544460D02*
X17667083Y-12553984D01*
X17667083Y-12553984D02*
X17628988Y-12553984D01*
X17628988Y-12553984D02*
X17609940Y-12544460D01*
X17819464Y-12553984D02*
X17800417Y-12544460D01*
X17800417Y-12544460D02*
X17790893Y-12525412D01*
X17790893Y-12525412D02*
X17790893Y-12353984D01*
X17981369Y-12553984D02*
X17981369Y-12449222D01*
X17981369Y-12449222D02*
X17971845Y-12430174D01*
X17971845Y-12430174D02*
X17952798Y-12420650D01*
X17952798Y-12420650D02*
X17914702Y-12420650D01*
X17914702Y-12420650D02*
X17895655Y-12430174D01*
X17981369Y-12544460D02*
X17962321Y-12553984D01*
X17962321Y-12553984D02*
X17914702Y-12553984D01*
X17914702Y-12553984D02*
X17895655Y-12544460D01*
X17895655Y-12544460D02*
X17886131Y-12525412D01*
X17886131Y-12525412D02*
X17886131Y-12506365D01*
X17886131Y-12506365D02*
X17895655Y-12487317D01*
X17895655Y-12487317D02*
X17914702Y-12477793D01*
X17914702Y-12477793D02*
X17962321Y-12477793D01*
X17962321Y-12477793D02*
X17981369Y-12468269D01*
X18048036Y-12420650D02*
X18124226Y-12420650D01*
X18076607Y-12353984D02*
X18076607Y-12525412D01*
X18076607Y-12525412D02*
X18086131Y-12544460D01*
X18086131Y-12544460D02*
X18105179Y-12553984D01*
X18105179Y-12553984D02*
X18124226Y-12553984D01*
X18267083Y-12544460D02*
X18248036Y-12553984D01*
X18248036Y-12553984D02*
X18209940Y-12553984D01*
X18209940Y-12553984D02*
X18190893Y-12544460D01*
X18190893Y-12544460D02*
X18181369Y-12525412D01*
X18181369Y-12525412D02*
X18181369Y-12449222D01*
X18181369Y-12449222D02*
X18190893Y-12430174D01*
X18190893Y-12430174D02*
X18209940Y-12420650D01*
X18209940Y-12420650D02*
X18248036Y-12420650D01*
X18248036Y-12420650D02*
X18267083Y-12430174D01*
X18267083Y-12430174D02*
X18276607Y-12449222D01*
X18276607Y-12449222D02*
X18276607Y-12468269D01*
X18276607Y-12468269D02*
X18181369Y-12487317D01*
X18448036Y-12553984D02*
X18448036Y-12353984D01*
X18448036Y-12544460D02*
X18428988Y-12553984D01*
X18428988Y-12553984D02*
X18390893Y-12553984D01*
X18390893Y-12553984D02*
X18371845Y-12544460D01*
X18371845Y-12544460D02*
X18362321Y-12534936D01*
X18362321Y-12534936D02*
X18352798Y-12515888D01*
X18352798Y-12515888D02*
X18352798Y-12458746D01*
X18352798Y-12458746D02*
X18362321Y-12439698D01*
X18362321Y-12439698D02*
X18371845Y-12430174D01*
X18371845Y-12430174D02*
X18390893Y-12420650D01*
X18390893Y-12420650D02*
X18428988Y-12420650D01*
X18428988Y-12420650D02*
X18448036Y-12430174D01*
X18524226Y-12630174D02*
X18533750Y-12620650D01*
X18533750Y-12620650D02*
X18552798Y-12592079D01*
X18552798Y-12592079D02*
X18562321Y-12573031D01*
X18562321Y-12573031D02*
X18571845Y-12544460D01*
X18571845Y-12544460D02*
X18581369Y-12496841D01*
X18581369Y-12496841D02*
X18581369Y-12458746D01*
X18581369Y-12458746D02*
X18571845Y-12411127D01*
X18571845Y-12411127D02*
X18562321Y-12382555D01*
X18562321Y-12382555D02*
X18552798Y-12363508D01*
X18552798Y-12363508D02*
X18533750Y-12334936D01*
X18533750Y-12334936D02*
X18524226Y-12325412D01*
M02*
