G04 #@! TF.GenerationSoftware,KiCad,Pcbnew,7.0.1*
G04 #@! TF.CreationDate,2023-08-13T17:58:06+02:00*
G04 #@! TF.ProjectId,neopixel_cots_hat,6e656f70-6978-4656-9c5f-636f74735f68,1*
G04 #@! TF.SameCoordinates,Original*
G04 #@! TF.FileFunction,Soldermask,Top*
G04 #@! TF.FilePolarity,Negative*
%FSLAX46Y46*%
G04 Gerber Fmt 4.6, Leading zero omitted, Abs format (unit mm)*
G04 Created by KiCad (PCBNEW 7.0.1) date 2023-08-13 17:58:06*
%MOMM*%
%LPD*%
G01*
G04 APERTURE LIST*
G04 Aperture macros list*
%AMRoundRect*
0 Rectangle with rounded corners*
0 $1 Rounding radius*
0 $2 $3 $4 $5 $6 $7 $8 $9 X,Y pos of 4 corners*
0 Add a 4 corners polygon primitive as box body*
4,1,4,$2,$3,$4,$5,$6,$7,$8,$9,$2,$3,0*
0 Add four circle primitives for the rounded corners*
1,1,$1+$1,$2,$3*
1,1,$1+$1,$4,$5*
1,1,$1+$1,$6,$7*
1,1,$1+$1,$8,$9*
0 Add four rect primitives between the rounded corners*
20,1,$1+$1,$2,$3,$4,$5,0*
20,1,$1+$1,$4,$5,$6,$7,0*
20,1,$1+$1,$6,$7,$8,$9,0*
20,1,$1+$1,$8,$9,$2,$3,0*%
%AMFreePoly0*
4,1,19,0.550000,-1.500000,0.000000,-1.500000,0.000000,-1.494911,-0.071157,-1.494911,-0.207708,-1.454816,-0.327430,-1.377875,-0.420627,-1.270320,-0.479746,-1.140866,-0.500000,-1.000000,-0.500000,1.000000,-0.479746,1.140866,-0.420627,1.270320,-0.327430,1.377875,-0.207708,1.454816,-0.071157,1.494911,0.000000,1.494911,0.000000,1.500000,0.550000,1.500000,0.550000,-1.500000,0.550000,-1.500000,
$1*%
G04 Aperture macros list end*
%ADD10O,2.748280X1.998980*%
%ADD11O,1.016000X2.032000*%
%ADD12C,1.143000*%
%ADD13FreePoly0,0.000000*%
%ADD14R,2.500000X3.000000*%
%ADD15FreePoly0,180.000000*%
%ADD16RoundRect,0.200000X0.200000X0.275000X-0.200000X0.275000X-0.200000X-0.275000X0.200000X-0.275000X0*%
%ADD17C,3.800000*%
%ADD18R,3.800000X3.800000*%
%ADD19O,2.000000X2.000000*%
%ADD20O,1.700000X1.700000*%
%ADD21R,2.000000X2.000000*%
%ADD22RoundRect,0.237500X0.300000X0.237500X-0.300000X0.237500X-0.300000X-0.237500X0.300000X-0.237500X0*%
%ADD23RoundRect,0.237500X-0.300000X-0.237500X0.300000X-0.237500X0.300000X0.237500X-0.300000X0.237500X0*%
%ADD24RoundRect,0.250000X-0.600000X-0.725000X0.600000X-0.725000X0.600000X0.725000X-0.600000X0.725000X0*%
%ADD25O,1.700000X1.950000*%
%ADD26RoundRect,0.150000X-0.512500X-0.150000X0.512500X-0.150000X0.512500X0.150000X-0.512500X0.150000X0*%
%ADD27RoundRect,0.237500X0.250000X0.237500X-0.250000X0.237500X-0.250000X-0.237500X0.250000X-0.237500X0*%
G04 APERTURE END LIST*
D10*
X112205683Y-75867820D03*
X112205683Y-73327820D03*
X112205683Y-70787820D03*
X112205683Y-68247820D03*
X112205683Y-65707820D03*
X112205683Y-63167820D03*
X112205683Y-60627820D03*
X96041123Y-60627820D03*
X96041123Y-63167820D03*
X96041123Y-65707820D03*
X96041123Y-68247820D03*
X96041123Y-70787820D03*
X96041123Y-73327820D03*
X96041123Y-75867820D03*
D11*
X105338803Y-59550000D03*
X102788803Y-59550000D03*
D12*
X105340000Y-76554187D03*
X102800000Y-76554187D03*
X105340000Y-74014187D03*
X102800000Y-74014187D03*
D13*
X110650000Y-48850000D03*
D14*
X112700000Y-48850000D03*
D15*
X114750000Y-48850000D03*
D16*
X93250000Y-72425000D03*
X91600000Y-72425000D03*
X93250000Y-70800000D03*
X91600000Y-70800000D03*
D17*
X117025000Y-71250000D03*
D18*
X117025000Y-76250000D03*
D19*
X107877000Y-48455000D03*
X105337000Y-48455000D03*
D20*
X118067000Y-53535000D03*
X118067000Y-56075000D03*
X118067000Y-58615000D03*
X118067000Y-61155000D03*
X118067000Y-63695000D03*
X118067000Y-66235000D03*
X90067000Y-66235000D03*
X90067000Y-63695000D03*
X90067000Y-61155000D03*
X90067000Y-58615000D03*
X90067000Y-56075000D03*
X90067000Y-53535000D03*
D19*
X102797000Y-48455000D03*
D21*
X100257000Y-48455000D03*
D22*
X95875000Y-49525000D03*
X97600000Y-49525000D03*
D23*
X94200000Y-49525000D03*
X92475000Y-49525000D03*
D24*
X101550000Y-53375000D03*
D25*
X104050000Y-53375000D03*
X106550000Y-53375000D03*
D26*
X96187500Y-51125000D03*
X96187500Y-52075000D03*
X96187500Y-53025000D03*
X93912500Y-53025000D03*
X93912500Y-52075000D03*
X93912500Y-51125000D03*
D27*
X97687500Y-54800000D03*
X95862500Y-54800000D03*
M02*
