M48
; DRILL file {KiCad 8.0.5} date 2024-12-17T17:43:39+0100
; FORMAT={-:-/ absolute / metric / decimal}
; #@! TF.CreationDate,2024-12-17T17:43:39+01:00
; #@! TF.GenerationSoftware,Kicad,Pcbnew,8.0.5
; #@! TF.FileFunction,MixedPlating,1,4
FMAT,2
METRIC
; #@! TA.AperFunction,Plated,PTH,ViaDrill
T1C0.250
; #@! TA.AperFunction,Plated,PTH,ComponentDrill
T2C0.250
; #@! TA.AperFunction,Plated,PTH,ViaDrill
T3C0.300
; #@! TA.AperFunction,Plated,PTH,ComponentDrill
T4C0.500
; #@! TA.AperFunction,Plated,PTH,ComponentDrill
T5C0.600
; #@! TA.AperFunction,Plated,PTH,ComponentDrill
T6C1.000
; #@! TA.AperFunction,Plated,PTH,ComponentDrill
T7C2.700
; #@! TA.AperFunction,Plated,PTH,ComponentDrill
T8C3.200
; #@! TA.AperFunction,NonPlated,NPTH,ComponentDrill
T9C0.650
; #@! TA.AperFunction,NonPlated,NPTH,ComponentDrill
T10C0.750
%
G90
G05
T1
X115.025Y-101.55
X117.75Y-101.5
X136.19Y-104.41
X138.25Y-93.0
X144.75Y-106.8
X145.741Y-105.525
X146.054Y-106.839
X164.175Y-89.05
X164.175Y-89.8
X164.775Y-87.75
X164.965Y-84.31
X165.03Y-86.629
X165.268Y-82.986
X165.275Y-90.5
X165.275Y-91.74
X165.454Y-82.229
X166.275Y-90.5
X166.62Y-91.75
X166.96Y-93.65
X168.15Y-96.2
X168.725Y-83.35
X169.275Y-85.125
X170.775Y-96.0
X170.875Y-95.1
X170.998Y-66.277
X171.525Y-96.0
X171.797Y-67.075
X173.6Y-84.8
X173.902Y-83.651
X174.875Y-70.0
X174.9Y-69.075
X176.025Y-67.85
X176.2Y-62.35
X176.222Y-57.955
X176.575Y-91.7
X176.985Y-56.235
X177.325Y-91.7
X177.723Y-62.468
X178.05Y-94.0
X178.876Y-97.501
X179.35Y-63.65
X179.525Y-66.9
X179.75Y-69.75
X179.775Y-70.75
X179.775Y-71.75
X179.8Y-61.7
X179.8Y-62.8
X179.825Y-97.325
X180.75Y-69.75
X180.775Y-70.75
X180.775Y-71.75
X181.1Y-56.45
X181.1Y-57.35
X181.1Y-60.725
X181.25Y-65.0
X181.525Y-67.925
X182.775Y-67.0
X183.15Y-61.675
X183.275Y-70.2
X183.275Y-71.3
X183.443Y-72.232
X183.7Y-65.0
X183.906Y-67.25
X184.1Y-56.25
X184.1Y-57.2
X184.275Y-64.25
X184.275Y-66.25
X184.275Y-69.5
X184.55Y-58.3
X184.875Y-70.7
X186.1Y-78.4
X186.8Y-73.75
X186.85Y-78.375
X187.375Y-66.0
X187.375Y-74.125
X187.525Y-57.75
X187.6Y-78.4
X187.675Y-67.025
X187.775Y-63.5
X188.35Y-78.4
X188.582Y-61.813
X188.775Y-64.5
X189.05Y-78.4
X189.5Y-67.774
X189.775Y-78.4
X189.905Y-72.87
X189.909Y-61.039
X190.194Y-62.963
X190.2Y-64.113
X190.5Y-78.4
X190.525Y-73.75
X191.275Y-78.375
X191.284Y-66.072
X191.3Y-67.631
X191.3Y-69.425
X191.3Y-66.869
X191.3Y-68.445
X192.05Y-78.4
X192.7Y-75.5
X192.775Y-68.75
X192.775Y-78.4
X192.85Y-58.25
X192.85Y-60.25
X193.015Y-61.5
X193.025Y-63.0
X193.1Y-74.256
X193.35Y-70.6
X193.5Y-73.509
X193.5Y-78.4
X193.775Y-66.75
X193.775Y-67.75
X193.775Y-68.75
X193.976Y-71.323
X194.025Y-74.25
X194.175Y-78.4
X194.275Y-58.25
X194.275Y-60.25
X194.35Y-70.6
X194.775Y-66.75
X194.775Y-67.75
X194.775Y-68.75
X194.789Y-74.257
X195.187Y-73.342
X195.35Y-70.6
X195.775Y-66.75
X195.775Y-67.75
X195.775Y-68.75
X196.3Y-70.65
X196.425Y-75.05
X197.025Y-73.0
X197.025Y-74.0
X197.275Y-64.25
X197.775Y-72.5
X198.0Y-60.775
X198.025Y-78.5
X199.025Y-73.25
X199.146Y-69.935
X199.525Y-62.0
X199.525Y-62.75
X199.525Y-63.5
X199.525Y-65.0
X199.775Y-83.0
X199.775Y-83.75
X199.775Y-84.5
X199.775Y-96.5
X199.775Y-97.25
X199.775Y-98.0
X199.775Y-98.75
X200.275Y-62.0
X200.275Y-62.75
X200.275Y-63.5
X200.275Y-64.25
X200.275Y-65.0
X200.35Y-73.25
X200.475Y-68.7
X201.025Y-62.0
X201.025Y-62.75
X201.275Y-68.7
X201.35Y-92.35
X201.45Y-98.282
X201.775Y-62.0
X201.775Y-62.75
X201.9Y-73.3
X201.95Y-96.559
X202.025Y-77.0
X202.075Y-68.7
X202.2Y-98.925
X202.2Y-100.1
X202.2Y-100.8
X202.275Y-84.0
X202.525Y-62.0
X202.525Y-62.75
X202.575Y-101.55
X202.675Y-65.05
X202.775Y-64.25
X203.025Y-76.0
X203.275Y-62.0
X203.275Y-62.75
X203.325Y-101.55
X203.45Y-98.25
X203.525Y-70.75
X203.525Y-77.25
X204.025Y-62.0
X204.025Y-62.75
X204.525Y-70.75
X204.525Y-71.5
X204.525Y-77.75
X204.7Y-95.5
X204.7Y-96.25
X204.7Y-97.0
X204.775Y-62.0
X204.775Y-62.75
X205.025Y-76.75
X205.05Y-84.775
X205.7Y-91.875
X205.7Y-95.5
X205.7Y-96.25
X205.7Y-97.0
X205.775Y-78.0
X206.175Y-100.65
X206.2Y-99.25
X206.21Y-93.725
X206.275Y-85.45
X206.7Y-95.5
X206.7Y-96.25
X206.7Y-97.0
X206.775Y-78.25
X207.7Y-95.5
X207.7Y-96.25
X207.7Y-97.0
X207.775Y-78.25
X208.025Y-100.5
X208.775Y-78.25
X208.775Y-98.7
X208.95Y-94.25
X208.993Y-80.282
X208.993Y-84.032
X209.175Y-82.25
X209.237Y-99.995
X209.275Y-86.0
X209.775Y-78.25
X209.775Y-80.25
X209.775Y-84.0
X209.775Y-87.8
X209.91Y-95.774
X210.025Y-82.05
X210.125Y-99.4
X210.563Y-97.824
X210.675Y-95.8
X211.025Y-80.5
X211.075Y-83.25
X211.075Y-84.25
X211.225Y-93.75
X211.225Y-94.6
X211.4Y-90.525
X211.409Y-91.4
X211.65Y-85.475
X211.75Y-99.2
X212.025Y-79.5
X212.025Y-80.5
X212.025Y-81.5
X212.075Y-84.25
X212.35Y-97.0
X212.6Y-98.3
X212.9Y-74.0
X212.95Y-88.75
X212.975Y-96.15
T2
X127.065Y-64.27
X127.065Y-65.17
X127.065Y-66.07
X127.065Y-66.83
X127.065Y-67.73
X127.065Y-68.63
X127.065Y-71.47
X127.065Y-72.37
X127.065Y-73.27
X127.065Y-74.03
X127.065Y-74.93
X127.065Y-75.83
X127.065Y-80.32
X127.065Y-81.22
X127.065Y-82.12
X127.065Y-82.88
X127.065Y-83.78
X127.065Y-84.68
X127.065Y-87.52
X127.065Y-88.42
X127.065Y-89.32
X127.065Y-90.08
X127.065Y-90.98
X127.065Y-91.88
X127.32Y-63.82
X127.32Y-64.72
X127.32Y-65.62
X127.32Y-67.28
X127.32Y-68.18
X127.32Y-69.08
X127.32Y-71.02
X127.32Y-71.92
X127.32Y-72.82
X127.32Y-74.48
X127.32Y-75.38
X127.32Y-76.28
X127.32Y-79.87
X127.32Y-80.77
X127.32Y-81.67
X127.32Y-83.33
X127.32Y-84.23
X127.32Y-85.13
X127.32Y-87.07
X127.32Y-87.97
X127.32Y-88.87
X127.32Y-90.53
X127.32Y-91.43
X127.32Y-92.33
X127.575Y-64.27
X127.575Y-65.17
X127.575Y-67.73
X127.575Y-68.63
X127.575Y-71.47
X127.575Y-72.37
X127.575Y-74.93
X127.575Y-75.83
X127.575Y-80.32
X127.575Y-81.22
X127.575Y-83.78
X127.575Y-84.68
X127.575Y-87.52
X127.575Y-88.42
X127.575Y-90.98
X127.575Y-91.88
X127.83Y-63.82
X127.83Y-64.72
X127.83Y-68.18
X127.83Y-69.08
X127.83Y-71.02
X127.83Y-71.92
X127.83Y-75.38
X127.83Y-76.28
X127.83Y-79.87
X127.83Y-80.77
X127.83Y-84.23
X127.83Y-85.13
X127.83Y-87.07
X127.83Y-87.97
X127.83Y-91.43
X127.83Y-92.33
X128.085Y-64.27
X128.085Y-68.63
X128.085Y-71.47
X128.085Y-75.83
X128.085Y-80.32
X128.085Y-84.68
X128.085Y-87.52
X128.085Y-91.88
X128.34Y-63.82
X128.34Y-64.72
X128.34Y-68.18
X128.34Y-69.08
X128.34Y-71.02
X128.34Y-71.92
X128.34Y-75.38
X128.34Y-76.28
X128.34Y-79.87
X128.34Y-80.77
X128.34Y-84.23
X128.34Y-85.13
X128.34Y-87.07
X128.34Y-87.97
X128.34Y-91.43
X128.34Y-92.33
X128.595Y-64.27
X128.595Y-68.63
X128.595Y-71.47
X128.595Y-75.83
X128.595Y-80.32
X128.595Y-84.68
X128.595Y-87.52
X128.595Y-91.88
X128.85Y-63.82
X128.85Y-64.72
X128.85Y-68.18
X128.85Y-69.08
X128.85Y-71.02
X128.85Y-71.92
X128.85Y-75.38
X128.85Y-76.28
X128.85Y-79.87
X128.85Y-80.77
X128.85Y-84.23
X128.85Y-85.13
X128.85Y-87.07
X128.85Y-87.97
X128.85Y-91.43
X128.85Y-92.33
X129.105Y-64.27
X129.105Y-68.63
X129.105Y-71.47
X129.105Y-75.83
X129.105Y-80.32
X129.105Y-84.68
X129.105Y-87.52
X129.105Y-91.88
X129.36Y-63.82
X129.36Y-64.72
X129.36Y-68.18
X129.36Y-69.08
X129.36Y-71.02
X129.36Y-71.92
X129.36Y-75.38
X129.36Y-76.28
X129.36Y-79.87
X129.36Y-80.77
X129.36Y-84.23
X129.36Y-85.13
X129.36Y-87.07
X129.36Y-87.97
X129.36Y-91.43
X129.36Y-92.33
X129.615Y-64.27
X129.615Y-68.63
X129.615Y-71.47
X129.615Y-75.83
X129.615Y-80.32
X129.615Y-84.68
X129.615Y-87.52
X129.615Y-91.88
X129.87Y-63.82
X129.87Y-64.72
X129.87Y-68.18
X129.87Y-69.08
X129.87Y-71.02
X129.87Y-71.92
X129.87Y-75.38
X129.87Y-76.28
X129.87Y-79.87
X129.87Y-80.77
X129.87Y-84.23
X129.87Y-85.13
X129.87Y-87.07
X129.87Y-87.97
X129.87Y-91.43
X129.87Y-92.33
X130.125Y-64.27
X130.125Y-65.17
X130.125Y-67.73
X130.125Y-68.63
X130.125Y-71.47
X130.125Y-72.37
X130.125Y-74.93
X130.125Y-75.83
X130.125Y-80.32
X130.125Y-81.22
X130.125Y-83.78
X130.125Y-84.68
X130.125Y-87.52
X130.125Y-88.42
X130.125Y-90.98
X130.125Y-91.88
X130.38Y-63.82
X130.38Y-64.72
X130.38Y-65.62
X130.38Y-67.28
X130.38Y-68.18
X130.38Y-69.08
X130.38Y-71.02
X130.38Y-71.92
X130.38Y-72.82
X130.38Y-74.48
X130.38Y-75.38
X130.38Y-76.28
X130.38Y-79.87
X130.38Y-80.77
X130.38Y-81.67
X130.38Y-83.33
X130.38Y-84.23
X130.38Y-85.13
X130.38Y-87.07
X130.38Y-87.97
X130.38Y-88.87
X130.38Y-90.53
X130.38Y-91.43
X130.38Y-92.33
X130.635Y-64.27
X130.635Y-65.17
X130.635Y-66.07
X130.635Y-66.83
X130.635Y-67.73
X130.635Y-68.63
X130.635Y-71.47
X130.635Y-72.37
X130.635Y-73.27
X130.635Y-74.03
X130.635Y-74.93
X130.635Y-75.83
X130.635Y-80.32
X130.635Y-81.22
X130.635Y-82.12
X130.635Y-82.88
X130.635Y-83.78
X130.635Y-84.68
X130.635Y-87.52
X130.635Y-88.42
X130.635Y-89.32
X130.635Y-90.08
X130.635Y-90.98
X130.635Y-91.88
X159.621Y-107.75
X159.621Y-108.26
X159.621Y-108.77
X159.621Y-109.28
X159.621Y-109.79
X159.621Y-110.3
X159.621Y-110.81
X160.071Y-107.495
X160.071Y-108.005
X160.071Y-108.515
X160.071Y-109.025
X160.071Y-109.535
X160.071Y-110.045
X160.071Y-110.555
X160.071Y-111.065
X160.521Y-107.75
X160.521Y-108.26
X160.521Y-108.77
X160.521Y-109.28
X160.521Y-109.79
X160.521Y-110.3
X160.521Y-110.81
X160.971Y-107.495
X160.971Y-108.005
X160.971Y-110.555
X160.971Y-111.065
X161.421Y-107.75
X161.421Y-110.81
X161.871Y-107.495
X161.871Y-111.065
X162.631Y-107.495
X162.631Y-111.065
X163.081Y-107.75
X163.081Y-110.81
X163.531Y-107.495
X163.531Y-108.005
X163.531Y-110.555
X163.531Y-111.065
X163.981Y-107.75
X163.981Y-108.26
X163.981Y-108.77
X163.981Y-109.28
X163.981Y-109.79
X163.981Y-110.3
X163.981Y-110.81
X164.431Y-107.495
X164.431Y-108.005
X164.431Y-108.515
X164.431Y-109.025
X164.431Y-109.535
X164.431Y-110.045
X164.431Y-110.555
X164.431Y-111.065
X164.881Y-107.75
X164.881Y-108.26
X164.881Y-108.77
X164.881Y-109.28
X164.881Y-109.79
X164.881Y-110.3
X164.881Y-110.81
X166.821Y-107.75
X166.821Y-108.26
X166.821Y-108.77
X166.821Y-109.28
X166.821Y-109.79
X166.821Y-110.3
X166.821Y-110.81
X167.271Y-107.495
X167.271Y-108.005
X167.271Y-108.515
X167.271Y-109.025
X167.271Y-109.535
X167.271Y-110.045
X167.271Y-110.555
X167.271Y-111.065
X167.721Y-107.75
X167.721Y-108.26
X167.721Y-108.77
X167.721Y-109.28
X167.721Y-109.79
X167.721Y-110.3
X167.721Y-110.81
X168.171Y-107.495
X168.171Y-108.005
X168.171Y-110.555
X168.171Y-111.065
X168.621Y-107.75
X168.621Y-110.81
X169.071Y-107.495
X169.071Y-111.065
X169.831Y-107.495
X169.831Y-111.065
X170.281Y-107.75
X170.281Y-110.81
X170.731Y-107.495
X170.731Y-108.005
X170.731Y-110.555
X170.731Y-111.065
X171.181Y-107.75
X171.181Y-108.26
X171.181Y-108.77
X171.181Y-109.28
X171.181Y-109.79
X171.181Y-110.3
X171.181Y-110.81
X171.631Y-107.495
X171.631Y-108.005
X171.631Y-108.515
X171.631Y-109.025
X171.631Y-109.535
X171.631Y-110.045
X171.631Y-110.555
X171.631Y-111.065
X172.081Y-107.75
X172.081Y-108.26
X172.081Y-108.77
X172.081Y-109.28
X172.081Y-109.79
X172.081Y-110.3
X172.081Y-110.81
X185.315Y-107.769
X185.315Y-108.279
X185.315Y-108.789
X185.315Y-109.299
X185.315Y-109.809
X185.315Y-110.319
X185.315Y-110.829
X185.765Y-107.514
X185.765Y-108.024
X185.765Y-108.534
X185.765Y-109.044
X185.765Y-109.554
X185.765Y-110.064
X185.765Y-110.574
X185.765Y-111.084
X186.215Y-107.769
X186.215Y-108.279
X186.215Y-108.789
X186.215Y-109.299
X186.215Y-109.809
X186.215Y-110.319
X186.215Y-110.829
X186.665Y-107.514
X186.665Y-108.024
X186.665Y-110.574
X186.665Y-111.084
X187.115Y-107.769
X187.115Y-110.829
X187.565Y-107.514
X187.565Y-111.084
X188.325Y-107.514
X188.325Y-111.084
X188.775Y-107.769
X188.775Y-110.829
X189.225Y-107.514
X189.225Y-108.024
X189.225Y-110.574
X189.225Y-111.084
X189.675Y-107.769
X189.675Y-108.279
X189.675Y-108.789
X189.675Y-109.299
X189.675Y-109.809
X189.675Y-110.319
X189.675Y-110.829
X190.125Y-107.514
X190.125Y-108.024
X190.125Y-108.534
X190.125Y-109.044
X190.125Y-109.554
X190.125Y-110.064
X190.125Y-110.574
X190.125Y-111.084
X190.575Y-107.769
X190.575Y-108.279
X190.575Y-108.789
X190.575Y-109.299
X190.575Y-109.809
X190.575Y-110.319
X190.575Y-110.829
X192.515Y-107.769
X192.515Y-108.279
X192.515Y-108.789
X192.515Y-109.299
X192.515Y-109.809
X192.515Y-110.319
X192.515Y-110.829
X192.965Y-107.514
X192.965Y-108.024
X192.965Y-108.534
X192.965Y-109.044
X192.965Y-109.554
X192.965Y-110.064
X192.965Y-110.574
X192.965Y-111.084
X193.415Y-107.769
X193.415Y-108.279
X193.415Y-108.789
X193.415Y-109.299
X193.415Y-109.809
X193.415Y-110.319
X193.415Y-110.829
X193.865Y-107.514
X193.865Y-108.024
X193.865Y-110.574
X193.865Y-111.084
X194.315Y-107.769
X194.315Y-110.829
X194.765Y-107.514
X194.765Y-111.084
X195.525Y-107.514
X195.525Y-111.084
X195.975Y-107.769
X195.975Y-110.829
X196.425Y-107.514
X196.425Y-108.024
X196.425Y-110.574
X196.425Y-111.084
X196.875Y-107.769
X196.875Y-108.279
X196.875Y-108.789
X196.875Y-109.299
X196.875Y-109.809
X196.875Y-110.319
X196.875Y-110.829
X197.325Y-107.514
X197.325Y-108.024
X197.325Y-108.534
X197.325Y-109.044
X197.325Y-109.554
X197.325Y-110.064
X197.325Y-110.574
X197.325Y-111.084
X197.775Y-107.769
X197.775Y-108.279
X197.775Y-108.789
X197.775Y-109.299
X197.775Y-109.809
X197.775Y-110.319
X197.775Y-110.829
T3
X114.1Y-64.4
X114.1Y-68.15
X114.1Y-71.65
X114.1Y-75.15
X114.1Y-94.4
X114.1Y-95.1
X114.1Y-95.8
X114.1Y-96.5
X114.1Y-97.2
X114.1Y-97.9
X114.1Y-98.6
X114.1Y-99.3
X114.1Y-100.0
X114.1Y-100.7
X114.1Y-101.4
X114.1Y-102.1
X114.1Y-102.8
X114.1Y-103.5
X114.1Y-104.2
X114.1Y-104.9
X114.1Y-105.6
X114.1Y-106.3
X114.1Y-107.0
X114.1Y-108.5
X114.1Y-109.2
X114.1Y-109.9
X114.1Y-110.6
X114.1Y-111.4
X114.1Y-112.1
X114.1Y-112.8
X114.1Y-113.5
X114.1Y-114.2
X114.1Y-115.0
X114.1Y-116.0
X114.1Y-117.0
X114.15Y-80.35
X114.15Y-84.1
X114.15Y-87.7
X114.15Y-91.1
X114.8Y-94.4
X114.8Y-95.1
X114.8Y-95.8
X114.8Y-96.5
X114.8Y-97.2
X114.85Y-62.65
X114.85Y-66.4
X114.85Y-69.9
X114.85Y-73.4
X114.85Y-76.9
X114.9Y-78.6
X114.9Y-82.35
X114.9Y-85.95
X114.9Y-89.35
X114.9Y-92.75
X115.2Y-97.8
X115.5Y-94.4
X115.5Y-95.1
X115.5Y-95.8
X115.5Y-96.5
X115.5Y-97.2
X115.85Y-64.4
X115.85Y-68.15
X115.85Y-71.65
X115.9Y-80.35
X115.9Y-84.1
X115.9Y-87.7
X115.9Y-91.1
X116.25Y-104.0
X116.5Y-109.25
X116.5Y-111.75
X116.85Y-62.65
X116.85Y-66.4
X116.85Y-69.9
X116.85Y-73.4
X116.85Y-76.9
X116.9Y-78.6
X116.9Y-82.35
X116.9Y-85.95
X116.9Y-89.35
X116.9Y-92.75
X117.0Y-102.75
X117.0Y-105.25
X117.25Y-110.5
X117.25Y-113.0
X117.5Y-115.8
X117.75Y-104.0
X117.75Y-106.5
X117.85Y-64.4
X117.85Y-68.15
X117.85Y-71.65
X117.85Y-75.15
X117.9Y-80.35
X117.9Y-84.1
X117.9Y-87.7
X117.9Y-91.1
X118.0Y-109.25
X118.0Y-111.75
X118.0Y-114.25
X118.1Y-116.2
X118.5Y-100.25
X118.5Y-102.75
X118.5Y-105.25
X118.7Y-116.6
X118.75Y-110.5
X118.75Y-113.0
X118.85Y-62.65
X118.85Y-66.4
X118.85Y-69.9
X118.85Y-73.4
X118.85Y-76.9
X118.9Y-78.6
X118.9Y-82.35
X118.9Y-85.95
X118.9Y-89.35
X118.9Y-92.75
X119.25Y-96.5
X119.25Y-101.5
X119.25Y-104.0
X119.25Y-106.5
X119.3Y-117.1
X119.5Y-109.25
X119.5Y-111.75
X119.5Y-114.25
X119.85Y-64.4
X119.85Y-68.15
X119.85Y-71.65
X119.85Y-75.15
X119.9Y-80.35
X119.9Y-84.1
X119.9Y-87.7
X119.9Y-91.1
X119.9Y-117.5
X120.0Y-95.25
X120.0Y-97.75
X120.0Y-100.25
X120.0Y-102.75
X120.0Y-105.25
X120.25Y-110.5
X120.25Y-113.0
X120.25Y-115.5
X120.6Y-118.0
X120.75Y-96.5
X120.75Y-101.5
X120.75Y-104.0
X120.75Y-106.5
X120.85Y-62.65
X120.85Y-66.4
X120.85Y-69.9
X120.85Y-73.4
X120.85Y-76.9
X120.9Y-78.6
X120.9Y-82.35
X120.9Y-85.95
X120.9Y-89.35
X120.9Y-92.75
X121.0Y-109.25
X121.0Y-111.75
X121.0Y-114.25
X121.0Y-116.75
X121.2Y-55.4
X121.3Y-118.5
X121.4Y-120.7
X121.5Y-95.25
X121.5Y-97.75
X121.5Y-100.25
X121.5Y-102.75
X121.5Y-105.25
X121.5Y-121.5
X121.6Y-119.9
X121.7Y-119.1
X121.75Y-110.5
X121.75Y-113.0
X121.75Y-115.5
X121.85Y-64.4
X121.85Y-68.15
X121.85Y-71.65
X121.85Y-75.15
X121.9Y-80.35
X121.9Y-84.1
X121.9Y-87.7
X121.9Y-91.1
X122.0Y-122.2
X122.2Y-55.4
X122.25Y-96.5
X122.25Y-101.5
X122.25Y-104.0
X122.25Y-106.5
X122.5Y-109.25
X122.5Y-111.75
X122.5Y-114.25
X122.5Y-116.75
X122.9Y-122.3
X123.0Y-100.25
X123.0Y-102.75
X123.0Y-105.25
X123.2Y-55.4
X123.25Y-110.5
X123.25Y-113.0
X123.75Y-96.5
X123.75Y-99.0
X123.75Y-101.5
X123.75Y-104.0
X123.75Y-106.5
X123.8Y-122.3
X124.0Y-62.8
X124.0Y-63.55
X124.0Y-64.3
X124.0Y-65.05
X124.0Y-65.8
X124.0Y-66.55
X124.0Y-67.3
X124.0Y-68.05
X124.0Y-68.8
X124.0Y-69.55
X124.0Y-70.3
X124.0Y-71.05
X124.0Y-71.8
X124.0Y-72.55
X124.0Y-73.3
X124.0Y-74.05
X124.0Y-82.1
X124.0Y-82.85
X124.0Y-83.6
X124.0Y-84.35
X124.0Y-85.1
X124.0Y-85.85
X124.0Y-86.6
X124.0Y-87.35
X124.0Y-88.1
X124.0Y-88.85
X124.0Y-89.55
X124.0Y-90.3
X124.0Y-91.05
X124.0Y-109.25
X124.0Y-111.75
X124.0Y-114.25
X124.5Y-95.25
X124.5Y-97.75
X124.5Y-100.25
X124.5Y-102.75
X124.6Y-122.3
X124.75Y-56.6
X124.75Y-57.45
X124.75Y-58.2
X124.75Y-59.0
X124.75Y-60.5
X124.75Y-62.05
X124.75Y-62.8
X124.75Y-63.55
X124.75Y-64.3
X124.75Y-65.05
X124.75Y-65.8
X124.75Y-66.55
X124.75Y-67.3
X124.75Y-68.05
X124.75Y-68.8
X124.75Y-69.55
X124.75Y-70.3
X124.75Y-71.05
X124.75Y-71.8
X124.75Y-72.55
X124.75Y-73.3
X124.75Y-74.05
X124.75Y-74.8
X124.75Y-81.35
X124.75Y-82.1
X124.75Y-82.85
X124.75Y-83.6
X124.75Y-84.35
X124.75Y-85.1
X124.75Y-85.85
X124.75Y-86.6
X124.75Y-87.35
X124.75Y-88.1
X124.75Y-88.85
X124.75Y-89.55
X124.75Y-90.3
X124.75Y-91.05
X124.75Y-91.8
X124.75Y-113.0
X124.95Y-55.9
X125.25Y-96.5
X125.25Y-104.0
X125.25Y-106.5
X125.3Y-55.3
X125.3Y-122.2
X125.5Y-69.55
X125.5Y-70.3
X125.5Y-71.05
X125.5Y-71.8
X125.5Y-72.55
X125.5Y-73.3
X125.5Y-74.05
X125.5Y-74.8
X125.5Y-75.55
X125.5Y-76.3
X125.5Y-79.85
X125.5Y-80.6
X125.5Y-81.35
X125.5Y-82.1
X125.5Y-82.85
X125.5Y-83.6
X125.5Y-84.35
X125.5Y-85.1
X125.5Y-109.25
X125.5Y-111.75
X125.95Y-77.2
X125.95Y-78.95
X126.0Y-57.5
X126.0Y-63.75
X126.0Y-65.5
X126.0Y-67.5
X126.0Y-120.25
X126.0Y-122.5
X126.25Y-70.3
X126.25Y-71.05
X126.25Y-71.8
X126.25Y-72.55
X126.25Y-73.3
X126.25Y-74.05
X126.25Y-74.8
X126.25Y-75.55
X126.25Y-76.3
X126.25Y-79.85
X126.25Y-80.6
X126.25Y-81.35
X126.25Y-82.1
X126.25Y-82.85
X126.25Y-83.6
X126.25Y-84.35
X126.25Y-85.1
X126.25Y-105.25
X126.25Y-110.5
X126.25Y-113.0
X126.25Y-117.75
X126.75Y-56.5
X126.75Y-58.5
X126.75Y-62.5
X126.75Y-122.6
X126.8Y-77.2
X126.8Y-78.95
X126.95Y-70.45
X127.0Y-109.25
X127.0Y-111.75
X127.0Y-116.5
X127.0Y-119.0
X127.5Y-55.5
X127.5Y-57.5
X127.5Y-59.5
X127.525Y-105.925
X127.55Y-77.2
X127.55Y-78.95
X127.75Y-110.5
X127.75Y-115.25
X127.75Y-117.75
X127.75Y-120.25
X127.875Y-105.075
X128.15Y-102.225
X128.225Y-103.925
X128.225Y-105.925
X128.25Y-56.5
X128.25Y-58.5
X128.25Y-62.5
X128.25Y-122.6
X128.3Y-77.2
X128.3Y-78.075
X128.3Y-78.95
X128.5Y-94.5
X128.5Y-97.0
X128.5Y-109.25
X128.5Y-111.75
X128.5Y-116.5
X128.5Y-119.0
X128.575Y-105.075
X128.925Y-105.925
X128.95Y-122.6
X129.0Y-55.5
X129.0Y-57.5
X129.0Y-59.5
X129.05Y-77.2
X129.05Y-78.075
X129.05Y-78.95
X129.25Y-95.75
X129.25Y-98.25
X129.25Y-120.25
X129.5Y-110.5
X129.6Y-100.375
X129.625Y-105.925
X129.75Y-56.5
X129.75Y-58.5
X129.75Y-62.5
X129.8Y-77.2
X129.8Y-78.95
X129.85Y-78.075
X130.0Y-94.5
X130.0Y-97.0
X130.0Y-116.5
X130.0Y-119.0
X130.25Y-109.25
X130.25Y-111.75
X130.325Y-105.925
X130.5Y-55.5
X130.5Y-57.5
X130.5Y-59.5
X130.5Y-61.5
X130.55Y-77.2
X130.55Y-78.95
X130.6Y-78.075
X130.6Y-122.2
X130.75Y-95.75
X130.75Y-98.25
X130.75Y-115.25
X130.75Y-117.75
X130.75Y-120.25
X130.85Y-70.5
X130.975Y-105.925
X131.0Y-110.5
X131.2Y-121.85
X131.25Y-56.5
X131.25Y-58.5
X131.25Y-60.5
X131.25Y-62.5
X131.25Y-64.5
X131.25Y-66.5
X131.25Y-68.5
X131.35Y-72.7
X131.35Y-73.45
X131.35Y-74.2
X131.35Y-74.95
X131.35Y-75.7
X131.35Y-76.45
X131.35Y-77.2
X131.35Y-78.075
X131.35Y-78.95
X131.35Y-79.7
X131.35Y-80.45
X131.35Y-81.2
X131.35Y-81.95
X131.35Y-82.65
X131.35Y-83.4
X131.5Y-70.5
X131.5Y-71.2
X131.5Y-71.95
X131.5Y-84.2
X131.5Y-84.95
X131.5Y-87.0
X131.5Y-89.5
X131.5Y-92.0
X131.5Y-94.5
X131.5Y-97.0
X131.5Y-116.5
X131.5Y-119.0
X131.6Y-101.75
X131.8Y-121.45
X132.0Y-55.5
X132.0Y-57.5
X132.0Y-59.5
X132.0Y-61.5
X132.0Y-63.5
X132.0Y-65.5
X132.0Y-67.5
X132.1Y-74.2
X132.1Y-74.95
X132.1Y-75.7
X132.1Y-76.45
X132.1Y-77.2
X132.1Y-78.075
X132.1Y-78.95
X132.1Y-79.7
X132.1Y-80.45
X132.1Y-81.2
X132.1Y-81.95
X132.2Y-71.2
X132.2Y-71.95
X132.2Y-72.7
X132.2Y-73.45
X132.2Y-82.7
X132.2Y-83.45
X132.2Y-84.2
X132.2Y-84.95
X132.25Y-88.25
X132.25Y-90.75
X132.25Y-95.75
X132.25Y-98.25
X132.25Y-115.25
X132.25Y-117.75
X132.3Y-70.5
X132.35Y-121.1
X132.75Y-56.5
X132.75Y-58.5
X132.75Y-60.5
X132.75Y-62.5
X132.75Y-64.5
X132.75Y-66.5
X132.75Y-68.5
X132.85Y-73.45
X132.85Y-74.2
X132.85Y-74.95
X132.85Y-75.7
X132.85Y-76.45
X132.85Y-77.2
X132.85Y-78.075
X132.85Y-78.95
X132.85Y-79.7
X132.85Y-80.45
X132.85Y-81.2
X132.85Y-81.95
X132.85Y-82.7
X132.95Y-70.5
X132.95Y-120.7
X132.95Y-121.4
X132.95Y-122.1
X132.95Y-122.8
X132.95Y-123.5
X132.95Y-124.2
X133.0Y-87.0
X133.0Y-89.5
X133.0Y-92.0
X133.0Y-94.5
X133.0Y-97.0
X133.0Y-116.5
X133.0Y-119.0
X133.4Y-107.443
X133.5Y-55.5
X133.5Y-57.5
X133.5Y-59.5
X133.5Y-61.5
X133.5Y-63.5
X133.5Y-65.5
X133.5Y-67.5
X133.6Y-70.5
X133.6Y-73.45
X133.6Y-74.2
X133.6Y-76.45
X133.6Y-77.2
X133.6Y-78.075
X133.6Y-78.95
X133.6Y-79.7
X133.6Y-81.95
X133.6Y-82.7
X133.65Y-120.7
X133.75Y-88.25
X133.75Y-90.75
X133.75Y-95.75
X133.75Y-98.25
X133.75Y-117.75
X133.954Y-107.133
X134.234Y-103.934
X134.25Y-56.5
X134.25Y-58.5
X134.25Y-60.5
X134.25Y-62.5
X134.25Y-64.5
X134.25Y-66.5
X134.25Y-68.5
X134.25Y-70.5
X134.35Y-73.45
X134.35Y-74.2
X134.35Y-74.95
X134.35Y-75.7
X134.35Y-76.45
X134.35Y-77.2
X134.35Y-78.95
X134.35Y-79.7
X134.35Y-80.45
X134.35Y-81.2
X134.35Y-81.95
X134.35Y-82.7
X134.35Y-106.0
X134.35Y-120.7
X134.5Y-87.0
X134.5Y-89.5
X134.5Y-92.0
X134.5Y-94.5
X134.5Y-97.0
X134.5Y-119.0
X134.9Y-70.5
X134.976Y-101.45
X135.0Y-55.5
X135.0Y-57.5
X135.0Y-59.5
X135.0Y-61.5
X135.0Y-63.5
X135.0Y-65.5
X135.0Y-67.5
X135.0Y-71.2
X135.0Y-71.95
X135.0Y-72.7
X135.0Y-73.45
X135.0Y-82.7
X135.0Y-83.45
X135.0Y-84.2
X135.0Y-84.95
X135.1Y-74.2
X135.1Y-74.95
X135.1Y-75.7
X135.1Y-76.45
X135.1Y-77.2
X135.1Y-78.1
X135.1Y-78.95
X135.1Y-79.7
X135.1Y-80.45
X135.1Y-81.2
X135.1Y-81.95
X135.1Y-120.7
X135.25Y-88.25
X135.25Y-90.75
X135.25Y-95.75
X135.25Y-112.75
X135.25Y-117.75
X135.35Y-110.9
X135.75Y-56.5
X135.75Y-58.5
X135.75Y-60.5
X135.75Y-62.5
X135.75Y-64.5
X135.75Y-66.5
X135.75Y-68.5
X135.75Y-99.15
X135.825Y-80.875
X135.915Y-102.197
X135.95Y-120.7
X135.95Y-121.4
X135.95Y-122.1
X135.95Y-122.8
X135.95Y-123.5
X135.95Y-124.2
X136.0Y-87.0
X136.0Y-89.5
X136.0Y-92.0
X136.0Y-94.5
X136.0Y-97.0
X136.0Y-116.5
X136.0Y-119.0
X136.1Y-71.0
X136.425Y-80.425
X136.5Y-55.5
X136.5Y-57.5
X136.5Y-59.5
X136.5Y-61.5
X136.5Y-63.5
X136.5Y-65.5
X136.5Y-67.5
X136.5Y-69.5
X136.6Y-99.15
X136.6Y-120.5
X136.65Y-107.753
X136.656Y-102.572
X136.7Y-71.45
X136.75Y-83.0
X136.75Y-85.5
X136.75Y-88.25
X136.75Y-90.75
X136.75Y-95.75
X136.75Y-115.25
X136.75Y-117.75
X137.125Y-80.125
X137.2Y-120.15
X137.25Y-56.5
X137.25Y-58.5
X137.25Y-60.5
X137.25Y-62.5
X137.25Y-64.5
X137.25Y-66.5
X137.25Y-68.5
X137.3Y-71.9
X137.5Y-81.75
X137.5Y-84.25
X137.5Y-87.0
X137.5Y-89.5
X137.5Y-94.5
X137.5Y-97.0
X137.568Y-104.91
X137.68Y-106.175
X137.7Y-119.65
X137.9Y-111.75
X137.95Y-80.0
X138.0Y-55.5
X138.0Y-57.5
X138.0Y-59.5
X138.0Y-61.5
X138.0Y-63.5
X138.0Y-65.5
X138.0Y-67.5
X138.0Y-69.5
X138.0Y-72.4
X138.0Y-119.0
X138.05Y-99.2
X138.15Y-113.45
X138.15Y-114.15
X138.15Y-114.85
X138.15Y-115.55
X138.15Y-116.25
X138.15Y-116.95
X138.15Y-117.65
X138.15Y-118.35
X138.25Y-83.0
X138.25Y-85.5
X138.25Y-88.25
X138.25Y-95.75
X138.5Y-101.525
X138.6Y-72.85
X138.7Y-73.85
X138.7Y-74.55
X138.7Y-75.3
X138.7Y-76.0
X138.7Y-76.7
X138.7Y-77.4
X138.7Y-78.1
X138.7Y-78.8
X138.7Y-80.0
X138.75Y-56.5
X138.75Y-58.5
X138.75Y-60.5
X138.75Y-62.5
X138.75Y-64.5
X138.75Y-66.5
X138.75Y-68.5
X138.9Y-99.2
X139.0Y-81.75
X139.0Y-84.25
X139.0Y-87.0
X139.0Y-89.5
X139.0Y-94.5
X139.0Y-97.0
X139.2Y-73.3
X139.45Y-80.0
X139.5Y-55.5
X139.5Y-57.5
X139.5Y-59.5
X139.5Y-61.5
X139.5Y-63.5
X139.5Y-65.5
X139.5Y-67.5
X139.65Y-113.45
X139.65Y-114.15
X139.65Y-114.85
X139.65Y-115.55
X139.65Y-116.25
X139.65Y-116.95
X139.75Y-83.0
X139.75Y-85.5
X139.75Y-88.25
X139.75Y-93.0
X139.75Y-95.75
X139.8Y-73.75
X139.85Y-117.65
X139.95Y-111.75
X140.25Y-56.5
X140.25Y-58.5
X140.25Y-60.5
X140.25Y-62.5
X140.25Y-64.5
X140.25Y-66.5
X140.25Y-80.0
X140.3Y-118.3
X140.35Y-74.15
X140.425Y-103.025
X140.425Y-104.175
X140.425Y-105.325
X140.5Y-81.75
X140.5Y-84.25
X140.5Y-87.0
X140.5Y-94.5
X140.5Y-97.0
X140.9Y-118.8
X140.95Y-74.6
X141.0Y-55.5
X141.0Y-57.5
X141.0Y-59.5
X141.0Y-61.5
X141.0Y-63.5
X141.0Y-65.5
X141.0Y-80.0
X141.25Y-83.0
X141.25Y-85.5
X141.25Y-88.25
X141.25Y-93.0
X141.25Y-95.75
X141.5Y-114.75
X141.5Y-117.0
X141.55Y-75.05
X141.55Y-119.1
X141.6Y-103.025
X141.6Y-108.6
X141.625Y-104.175
X141.625Y-105.35
X141.7Y-76.0
X141.7Y-76.7
X141.7Y-77.4
X141.7Y-78.1
X141.7Y-78.8
X141.75Y-56.5
X141.75Y-58.5
X141.75Y-60.5
X141.75Y-62.5
X141.75Y-64.5
X141.75Y-80.0
X142.0Y-81.75
X142.0Y-84.25
X142.0Y-87.0
X142.0Y-89.5
X142.0Y-94.5
X142.0Y-97.0
X142.25Y-75.55
X142.25Y-111.75
X142.25Y-119.1
X142.25Y-120.7
X142.25Y-121.4
X142.25Y-122.1
X142.25Y-122.8
X142.25Y-123.5
X142.25Y-124.2
X142.5Y-55.5
X142.5Y-57.5
X142.5Y-59.5
X142.5Y-61.5
X142.5Y-63.5
X142.5Y-80.0
X142.75Y-83.0
X142.75Y-85.5
X142.75Y-88.25
X142.75Y-93.0
X142.75Y-95.75
X142.9Y-76.05
X142.95Y-119.1
X143.0Y-112.75
X143.25Y-56.5
X143.25Y-58.5
X143.25Y-60.5
X143.25Y-62.5
X143.3Y-80.025
X143.5Y-81.75
X143.5Y-84.25
X143.5Y-87.0
X143.5Y-89.5
X143.5Y-94.5
X143.5Y-97.0
X143.55Y-76.55
X143.65Y-119.1
X143.75Y-111.75
X143.95Y-99.85
X144.0Y-55.5
X144.0Y-57.5
X144.0Y-59.5
X144.0Y-61.5
X144.0Y-80.15
X144.2Y-77.0
X144.25Y-83.0
X144.25Y-85.5
X144.25Y-88.25
X144.25Y-93.0
X144.25Y-95.75
X144.35Y-119.1
X144.5Y-112.75
X144.65Y-103.1
X144.75Y-56.5
X144.75Y-58.5
X144.75Y-60.5
X144.8Y-77.45
X144.85Y-80.45
X145.0Y-84.25
X145.0Y-87.0
X145.0Y-89.5
X145.0Y-94.5
X145.0Y-97.0
X145.05Y-103.8
X145.05Y-119.1
X145.25Y-109.75
X145.25Y-110.55
X145.25Y-111.75
X145.25Y-113.75
X145.25Y-116.0
X145.25Y-120.7
X145.25Y-121.4
X145.25Y-122.1
X145.25Y-122.8
X145.25Y-123.5
X145.25Y-124.2
X145.4Y-77.9
X145.45Y-80.9
X145.5Y-55.5
X145.5Y-57.5
X145.5Y-59.5
X145.75Y-85.5
X145.75Y-88.25
X145.75Y-93.0
X145.75Y-95.75
X145.75Y-108.75
X145.75Y-119.1
X145.9Y-104.2
X145.95Y-110.55
X146.0Y-78.35
X146.0Y-109.75
X146.0Y-112.75
X146.0Y-114.75
X146.0Y-117.0
X146.05Y-81.35
X146.25Y-56.5
X146.25Y-58.5
X146.45Y-119.1
X146.5Y-84.25
X146.5Y-87.0
X146.5Y-89.5
X146.5Y-94.5
X146.5Y-97.0
X146.6Y-78.8
X146.65Y-81.8
X146.65Y-110.55
X146.725Y-101.925
X146.75Y-111.75
X146.75Y-116.0
X147.0Y-55.5
X147.0Y-57.5
X147.15Y-119.1
X147.2Y-79.25
X147.25Y-82.25
X147.25Y-85.5
X147.25Y-88.25
X147.25Y-95.75
X147.25Y-109.1
X147.35Y-110.55
X147.425Y-101.45
X147.5Y-114.75
X147.5Y-117.0
X147.531Y-100.423
X147.75Y-56.5
X147.8Y-79.7
X147.85Y-82.7
X147.85Y-119.1
X148.05Y-110.55
X148.25Y-111.75
X148.25Y-116.0
X148.4Y-80.15
X148.45Y-83.15
X148.5Y-55.5
X148.5Y-90.0
X148.55Y-119.1
X148.75Y-110.55
X148.85Y-83.875
X148.85Y-89.275
X149.0Y-80.6
X149.0Y-84.75
X149.0Y-85.5
X149.0Y-86.25
X149.0Y-87.0
X149.0Y-87.75
X149.0Y-88.5
X149.0Y-114.75
X149.0Y-117.0
X149.207Y-109.093
X149.25Y-119.1
X149.45Y-110.55
X149.6Y-81.05
X149.75Y-111.75
X149.75Y-113.75
X149.75Y-116.0
X149.95Y-119.1
X150.0Y-85.5
X150.0Y-86.25
X150.0Y-87.0
X150.0Y-87.75
X150.05Y-95.5
X150.15Y-110.5
X150.2Y-81.5
X150.3Y-99.4
X150.5Y-85.0
X150.5Y-88.25
X150.5Y-89.75
X150.5Y-91.0
X150.5Y-92.25
X150.5Y-93.5
X150.5Y-97.5
X150.5Y-112.75
X150.5Y-114.75
X150.5Y-117.0
X150.65Y-110.05
X150.65Y-119.1
X150.8Y-81.95
X150.875Y-76.175
X151.2Y-109.55
X151.25Y-111.75
X151.25Y-113.75
X151.25Y-116.0
X151.35Y-119.1
X151.5Y-120.7
X151.5Y-121.4
X151.5Y-122.1
X151.5Y-122.8
X151.5Y-123.5
X151.5Y-124.2
X151.7Y-109.05
X152.0Y-112.75
X152.05Y-119.1
X152.225Y-101.125
X152.25Y-108.55
X152.55Y-107.85
X152.75Y-107.15
X152.75Y-110.0
X152.75Y-111.75
X152.75Y-119.1
X152.9Y-106.45
X153.1Y-105.75
X153.137Y-101.137
X153.25Y-105.1
X153.45Y-104.3
X153.45Y-119.1
X153.5Y-111.0
X153.5Y-112.75
X153.5Y-117.0
X153.7Y-103.55
X153.9Y-102.85
X154.1Y-102.2
X154.15Y-119.1
X154.25Y-107.75
X154.25Y-109.75
X154.25Y-111.75
X154.25Y-113.75
X154.25Y-116.0
X154.3Y-101.45
X154.5Y-85.0
X154.5Y-85.75
X154.5Y-86.5
X154.5Y-87.25
X154.5Y-88.0
X154.5Y-88.75
X154.5Y-89.5
X154.5Y-90.25
X154.5Y-91.0
X154.5Y-91.75
X154.5Y-92.5
X154.5Y-93.25
X154.5Y-94.0
X154.5Y-94.75
X154.5Y-95.5
X154.5Y-96.25
X154.5Y-97.0
X154.5Y-97.75
X154.5Y-98.5
X154.5Y-99.25
X154.5Y-100.0
X154.5Y-120.7
X154.5Y-121.4
X154.5Y-122.1
X154.5Y-122.8
X154.5Y-123.5
X154.5Y-124.2
X154.55Y-100.75
X154.775Y-104.5
X154.775Y-106.5
X154.85Y-118.85
X155.0Y-108.75
X155.0Y-110.75
X155.0Y-112.75
X155.0Y-114.75
X155.2Y-99.025
X155.2Y-99.825
X155.45Y-118.4
X155.75Y-107.75
X155.75Y-109.75
X155.75Y-111.75
X155.75Y-113.75
X155.775Y-101.5
X155.775Y-103.5
X155.775Y-105.5
X155.925Y-99.2
X155.95Y-117.7
X156.35Y-116.95
X156.5Y-108.75
X156.5Y-110.75
X156.5Y-112.75
X156.525Y-100.5
X156.525Y-102.5
X156.525Y-104.5
X156.525Y-106.5
X156.575Y-98.6
X156.7Y-116.25
X157.1Y-115.65
X157.25Y-107.75
X157.25Y-109.75
X157.25Y-111.75
X157.25Y-113.75
X157.275Y-101.5
X157.275Y-103.5
X157.275Y-105.5
X157.525Y-84.25
X157.525Y-85.0
X157.525Y-85.75
X157.7Y-115.25
X158.0Y-108.75
X158.0Y-110.75
X158.0Y-112.75
X158.025Y-100.5
X158.025Y-102.5
X158.025Y-104.5
X158.025Y-106.5
X158.275Y-85.75
X158.3Y-84.25
X158.375Y-93.75
X158.75Y-107.75
X158.75Y-109.75
X158.75Y-111.75
X158.75Y-117.3
X158.75Y-119.3
X158.75Y-121.3
X158.75Y-123.3
X158.775Y-99.5
X158.775Y-101.5
X158.775Y-103.5
X158.775Y-105.5
X159.025Y-84.25
X159.025Y-85.0
X159.025Y-85.75
X159.125Y-93.75
X159.325Y-95.35
X159.325Y-96.1
X159.325Y-96.85
X159.325Y-97.55
X159.5Y-112.75
X159.525Y-100.5
X159.525Y-102.5
X159.525Y-104.5
X159.525Y-106.5
X159.875Y-93.75
X160.05Y-97.525
X160.075Y-95.35
X160.075Y-96.1
X160.075Y-96.85
X160.2Y-78.75
X160.25Y-111.75
X160.275Y-99.5
X160.275Y-101.5
X160.275Y-103.5
X160.275Y-105.5
X160.35Y-55.3
X160.45Y-114.3
X160.5Y-116.3
X160.5Y-120.3
X160.5Y-122.3
X160.5Y-124.05
X160.625Y-93.75
X160.75Y-55.8
X160.825Y-95.35
X160.825Y-96.1
X160.825Y-96.85
X160.95Y-77.75
X161.0Y-112.75
X161.025Y-98.5
X161.025Y-100.5
X161.025Y-102.5
X161.025Y-104.5
X161.025Y-106.5
X161.103Y-114.2
X161.15Y-56.4
X161.25Y-81.65
X161.275Y-84.25
X161.275Y-85.0
X161.275Y-85.75
X161.375Y-93.75
X161.45Y-57.05
X161.6Y-57.75
X161.7Y-76.75
X161.7Y-78.75
X161.75Y-58.45
X161.75Y-111.75
X161.775Y-99.5
X161.775Y-101.5
X161.775Y-103.5
X161.775Y-105.5
X161.8Y-114.1
X161.85Y-81.65
X161.9Y-59.15
X162.025Y-85.75
X162.05Y-84.25
X162.125Y-93.75
X162.3Y-60.95
X162.425Y-113.95
X162.45Y-61.6
X162.45Y-75.75
X162.45Y-77.75
X162.5Y-117.3
X162.5Y-121.3
X162.5Y-123.3
X162.525Y-98.5
X162.525Y-100.5
X162.525Y-102.5
X162.525Y-106.5
X162.6Y-62.225
X162.75Y-62.875
X162.775Y-84.25
X162.775Y-85.0
X162.775Y-85.75
X163.025Y-113.6
X163.175Y-63.425
X163.2Y-74.75
X163.2Y-76.75
X163.2Y-78.75
X163.275Y-99.5
X163.275Y-101.5
X163.275Y-103.5
X163.275Y-105.5
X163.6Y-113.3
X163.95Y-73.75
X163.95Y-75.75
X163.95Y-77.75
X163.975Y-93.25
X163.975Y-94.0
X163.975Y-94.75
X163.975Y-95.5
X163.975Y-96.179
X164.025Y-98.5
X164.025Y-100.5
X164.025Y-102.5
X164.025Y-106.5
X164.1Y-112.95
X164.25Y-116.3
X164.25Y-122.3
X164.25Y-124.05
X164.7Y-72.75
X164.7Y-74.75
X164.7Y-76.75
X164.7Y-78.75
X164.7Y-112.6
X164.775Y-99.5
X164.775Y-101.5
X164.775Y-103.5
X165.2Y-113.1
X165.25Y-105.5
X165.3Y-112.3
X165.45Y-71.75
X165.45Y-73.75
X165.45Y-75.75
X165.45Y-77.75
X165.525Y-100.5
X165.525Y-102.5
X165.925Y-111.75
X165.925Y-112.5
X165.925Y-113.25
X166.0Y-117.3
X166.0Y-119.3
X166.0Y-121.4
X166.0Y-123.3
X166.2Y-70.75
X166.2Y-72.75
X166.2Y-74.75
X166.2Y-76.75
X166.2Y-78.75
X166.275Y-99.5
X166.275Y-101.5
X166.5Y-104.5
X166.5Y-105.342
X166.5Y-106.046
X166.5Y-106.75
X166.675Y-111.75
X166.675Y-112.5
X166.675Y-113.25
X166.95Y-69.75
X166.95Y-71.75
X166.95Y-73.75
X166.95Y-75.75
X166.95Y-77.75
X167.025Y-100.5
X167.275Y-98.7
X167.275Y-104.4
X167.275Y-105.15
X167.275Y-106.0
X167.275Y-106.75
X167.29Y-90.18
X167.425Y-111.75
X167.425Y-112.5
X167.425Y-113.25
X167.65Y-103.3
X167.7Y-70.75
X167.7Y-72.75
X167.7Y-74.75
X167.7Y-76.75
X167.7Y-78.75
X167.75Y-116.3
X167.75Y-120.3
X167.75Y-122.3
X167.75Y-124.05
X168.025Y-104.4
X168.025Y-105.15
X168.025Y-106.0
X168.025Y-106.75
X168.175Y-111.75
X168.175Y-112.5
X168.175Y-113.25
X168.3Y-102.85
X168.35Y-97.405
X168.45Y-69.75
X168.45Y-71.75
X168.45Y-73.75
X168.45Y-75.75
X168.45Y-77.75
X168.55Y-55.41
X168.725Y-80.35
X168.725Y-81.1
X168.725Y-81.85
X168.725Y-82.6
X168.775Y-101.5
X168.775Y-102.25
X168.775Y-104.4
X168.775Y-105.15
X168.775Y-106.0
X168.775Y-106.75
X168.835Y-103.348
X168.925Y-111.75
X168.925Y-112.5
X168.925Y-113.25
X169.2Y-70.75
X169.2Y-72.75
X169.2Y-74.75
X169.2Y-76.75
X169.2Y-78.75
X169.2Y-97.405
X169.475Y-80.35
X169.475Y-81.1
X169.475Y-81.85
X169.475Y-82.6
X169.475Y-83.35
X169.5Y-117.3
X169.5Y-119.3
X169.5Y-121.3
X169.5Y-123.3
X169.675Y-111.75
X169.675Y-112.5
X169.675Y-113.25
X169.95Y-69.75
X169.95Y-71.75
X169.95Y-73.75
X169.95Y-75.75
X169.95Y-77.75
X170.0Y-57.0
X170.0Y-58.25
X170.0Y-59.5
X170.0Y-60.75
X170.0Y-62.0
X170.0Y-63.25
X170.025Y-99.5
X170.025Y-101.5
X170.025Y-103.5
X170.025Y-105.5
X170.425Y-111.75
X170.425Y-112.5
X170.425Y-113.25
X170.7Y-70.75
X170.7Y-72.75
X170.7Y-74.75
X170.7Y-76.75
X170.7Y-78.75
X170.775Y-98.5
X170.775Y-100.5
X170.775Y-102.5
X170.775Y-104.5
X170.875Y-86.85
X170.875Y-87.6
X170.875Y-88.35
X170.875Y-92.85
X170.875Y-93.6
X170.875Y-94.35
X170.925Y-86.15
X171.175Y-111.75
X171.175Y-112.5
X171.175Y-113.25
X171.25Y-116.3
X171.25Y-120.3
X171.25Y-122.3
X171.25Y-124.05
X171.45Y-69.75
X171.45Y-71.75
X171.45Y-73.75
X171.45Y-75.75
X171.45Y-77.75
X171.525Y-99.5
X171.525Y-101.5
X171.525Y-103.5
X171.525Y-105.5
X171.625Y-92.85
X171.625Y-93.6
X171.625Y-94.35
X171.625Y-95.05
X171.9Y-111.75
X171.9Y-112.5
X171.9Y-113.25
X172.2Y-70.75
X172.2Y-72.75
X172.2Y-74.75
X172.2Y-76.75
X172.2Y-78.75
X172.275Y-98.5
X172.275Y-100.5
X172.275Y-102.5
X172.275Y-104.5
X172.6Y-111.75
X172.6Y-112.5
X172.6Y-113.25
X172.675Y-107.9
X172.675Y-108.65
X172.8Y-109.475
X172.8Y-110.225
X172.8Y-110.975
X172.95Y-69.75
X172.95Y-71.75
X172.95Y-73.75
X172.95Y-75.75
X172.95Y-77.75
X173.0Y-117.3
X173.0Y-119.3
X173.0Y-121.3
X173.0Y-123.3
X173.225Y-99.45
X173.225Y-101.45
X173.225Y-103.45
X173.275Y-105.5
X173.325Y-90.105
X173.425Y-107.9
X173.425Y-108.65
X173.7Y-72.75
X173.7Y-76.75
X173.75Y-70.75
X173.975Y-98.45
X173.975Y-100.45
X173.975Y-102.45
X173.975Y-104.45
X174.025Y-106.5
X174.175Y-90.105
X174.175Y-107.9
X174.175Y-108.65
X174.25Y-96.8
X174.725Y-99.45
X174.725Y-101.45
X174.725Y-103.45
X174.775Y-105.5
X174.925Y-107.9
X174.925Y-108.65
X175.575Y-98.55
X175.575Y-100.55
X175.575Y-102.55
X175.575Y-104.55
X175.575Y-106.55
X175.675Y-107.9
X175.675Y-108.65
X176.025Y-74.0
X176.025Y-76.0
X176.025Y-78.0
X176.025Y-80.0
X176.025Y-82.0
X176.025Y-84.0
X176.3Y-87.65
X176.425Y-107.9
X176.425Y-108.65
X176.525Y-99.5
X176.525Y-101.5
X176.525Y-103.5
X176.575Y-105.55
X176.775Y-73.0
X176.775Y-75.0
X176.775Y-77.0
X176.775Y-79.0
X176.775Y-81.0
X176.775Y-83.0
X176.775Y-85.0
X177.175Y-107.9
X177.175Y-108.65
X177.275Y-100.5
X177.275Y-102.5
X177.275Y-104.5
X177.325Y-106.55
X177.525Y-74.0
X177.525Y-76.0
X177.525Y-78.0
X177.525Y-80.0
X177.525Y-82.0
X177.525Y-84.0
X177.525Y-86.0
X177.925Y-107.9
X177.925Y-108.65
X178.025Y-99.45
X178.025Y-101.5
X178.025Y-103.5
X178.025Y-105.55
X178.175Y-122.75
X178.175Y-123.5
X178.275Y-73.0
X178.275Y-75.0
X178.275Y-77.0
X178.275Y-79.0
X178.275Y-81.0
X178.275Y-83.0
X178.275Y-85.0
X178.425Y-107.45
X178.575Y-108.2
X179.025Y-74.0
X179.025Y-76.0
X179.025Y-78.0
X179.025Y-80.0
X179.025Y-82.0
X179.025Y-84.0
X179.025Y-86.0
X179.175Y-121.75
X179.675Y-89.35
X179.675Y-91.35
X179.675Y-93.35
X179.775Y-73.0
X179.775Y-75.0
X179.775Y-77.0
X179.775Y-79.0
X179.775Y-81.0
X179.775Y-83.0
X179.775Y-85.0
X180.175Y-121.75
X180.275Y-101.75
X180.275Y-103.75
X180.425Y-90.35
X180.425Y-92.35
X180.425Y-94.35
X180.525Y-74.0
X180.525Y-76.0
X180.525Y-78.0
X180.525Y-80.0
X180.525Y-82.0
X180.525Y-84.0
X180.525Y-86.0
X180.925Y-105.4
X180.925Y-106.15
X180.925Y-106.9
X181.025Y-100.75
X181.025Y-102.75
X181.175Y-89.35
X181.175Y-91.35
X181.175Y-93.35
X181.175Y-95.35
X181.175Y-122.75
X181.175Y-123.5
X181.275Y-73.0
X181.275Y-75.0
X181.275Y-77.0
X181.275Y-79.0
X181.275Y-81.0
X181.275Y-83.0
X181.275Y-85.0
X181.675Y-105.4
X181.675Y-106.15
X181.675Y-106.9
X181.775Y-97.75
X181.775Y-99.75
X181.775Y-101.75
X181.775Y-103.75
X181.925Y-90.35
X181.925Y-92.35
X181.925Y-94.35
X182.025Y-74.0
X182.025Y-76.0
X182.025Y-78.0
X182.025Y-80.0
X182.025Y-82.0
X182.025Y-84.0
X182.025Y-86.0
X182.375Y-105.4
X182.375Y-106.15
X182.375Y-106.9
X182.525Y-98.75
X182.525Y-100.75
X182.525Y-102.75
X182.675Y-89.35
X182.675Y-91.35
X182.675Y-93.35
X182.675Y-95.35
X182.775Y-73.0
X182.775Y-75.0
X182.775Y-77.0
X182.775Y-79.0
X182.775Y-81.0
X182.775Y-83.0
X182.775Y-85.0
X183.125Y-105.4
X183.125Y-106.15
X183.125Y-106.9
X183.275Y-97.75
X183.275Y-99.75
X183.275Y-101.75
X183.275Y-103.75
X183.425Y-90.35
X183.425Y-92.35
X183.425Y-94.35
X183.475Y-107.5
X183.525Y-74.0
X183.525Y-76.0
X183.525Y-78.0
X183.525Y-80.0
X183.525Y-82.0
X183.525Y-84.0
X183.875Y-105.4
X183.875Y-106.15
X183.875Y-106.9
X183.975Y-108.0
X183.975Y-108.75
X183.975Y-109.5
X183.975Y-110.25
X183.975Y-111.0
X183.975Y-111.75
X183.975Y-112.5
X184.025Y-98.75
X184.025Y-100.75
X184.025Y-102.75
X184.175Y-89.35
X184.175Y-91.35
X184.175Y-93.35
X184.175Y-95.35
X184.375Y-107.45
X184.5Y-117.25
X184.5Y-119.25
X184.5Y-121.25
X184.5Y-123.25
X184.625Y-105.4
X184.625Y-106.15
X184.625Y-106.825
X184.725Y-108.0
X184.725Y-108.75
X184.725Y-109.5
X184.725Y-110.25
X184.725Y-111.0
X184.725Y-111.75
X184.725Y-112.5
X184.75Y-77.2
X184.75Y-78.0
X184.75Y-78.75
X184.775Y-97.75
X184.775Y-99.75
X184.775Y-101.75
X184.775Y-103.75
X184.925Y-90.35
X184.925Y-92.35
X184.925Y-94.35
X185.275Y-80.25
X185.275Y-82.25
X185.275Y-84.25
X185.3Y-74.6
X185.3Y-75.5
X185.3Y-77.75
X185.3Y-78.35
X185.375Y-105.4
X185.375Y-106.15
X185.375Y-106.9
X185.475Y-72.2
X185.475Y-111.75
X185.475Y-112.5
X185.525Y-98.75
X185.525Y-100.75
X185.525Y-102.75
X185.675Y-89.35
X185.675Y-91.35
X185.675Y-93.35
X185.675Y-95.35
X185.775Y-76.5
X186.025Y-81.25
X186.025Y-83.25
X186.025Y-85.25
X186.125Y-105.4
X186.125Y-106.15
X186.125Y-106.9
X186.225Y-111.75
X186.225Y-112.5
X186.25Y-116.25
X186.25Y-120.25
X186.25Y-122.25
X186.25Y-124.0
X186.275Y-75.5
X186.275Y-97.75
X186.275Y-99.75
X186.275Y-101.75
X186.275Y-103.75
X186.425Y-90.35
X186.425Y-92.35
X186.425Y-94.35
X186.775Y-80.25
X186.775Y-82.25
X186.775Y-84.25
X186.875Y-105.4
X186.875Y-106.15
X186.875Y-106.9
X186.975Y-111.75
X186.975Y-112.5
X187.025Y-98.75
X187.025Y-100.75
X187.025Y-102.75
X187.175Y-89.35
X187.175Y-91.35
X187.175Y-93.35
X187.175Y-95.35
X187.275Y-75.5
X187.525Y-81.25
X187.525Y-83.25
X187.525Y-85.25
X187.625Y-105.4
X187.625Y-106.15
X187.625Y-106.9
X187.725Y-111.75
X187.725Y-112.5
X187.85Y-104.775
X187.875Y-97.8
X187.925Y-90.35
X187.925Y-92.35
X187.925Y-94.35
X187.975Y-99.7
X188.25Y-117.25
X188.25Y-119.25
X188.25Y-121.25
X188.25Y-123.25
X188.275Y-75.5
X188.275Y-76.75
X188.275Y-80.25
X188.275Y-82.25
X188.275Y-84.25
X188.375Y-106.15
X188.375Y-106.9
X188.475Y-111.75
X188.475Y-112.5
X188.525Y-103.2
X188.675Y-89.35
X188.675Y-91.35
X188.675Y-93.35
X188.85Y-102.625
X189.025Y-81.25
X189.025Y-83.25
X189.025Y-85.25
X189.125Y-106.15
X189.125Y-106.9
X189.2Y-103.2
X189.225Y-111.75
X189.225Y-112.5
X189.775Y-80.25
X189.775Y-82.25
X189.775Y-84.25
X189.775Y-86.25
X189.85Y-103.2
X189.875Y-106.15
X189.875Y-106.9
X189.975Y-111.75
X189.975Y-112.5
X190.0Y-116.25
X190.0Y-120.25
X190.0Y-122.25
X190.0Y-124.0
X190.525Y-81.25
X190.525Y-83.25
X190.525Y-85.25
X190.525Y-87.25
X190.525Y-89.25
X190.525Y-91.25
X190.525Y-93.25
X190.525Y-95.25
X190.525Y-97.25
X190.525Y-99.25
X190.525Y-101.25
X190.575Y-105.45
X190.625Y-106.15
X190.625Y-106.9
X190.725Y-111.75
X190.725Y-112.5
X191.275Y-80.25
X191.275Y-82.25
X191.275Y-84.25
X191.275Y-86.25
X191.275Y-88.25
X191.275Y-90.25
X191.275Y-92.25
X191.275Y-94.25
X191.275Y-96.25
X191.275Y-98.25
X191.275Y-100.25
X191.275Y-102.25
X191.375Y-111.8
X191.375Y-112.5
X191.75Y-117.25
X191.75Y-119.25
X191.75Y-121.25
X191.75Y-123.25
X191.925Y-112.2
X192.025Y-81.25
X192.025Y-83.25
X192.025Y-85.25
X192.025Y-87.25
X192.025Y-89.25
X192.025Y-91.25
X192.025Y-93.25
X192.025Y-95.25
X192.025Y-97.25
X192.025Y-99.25
X192.025Y-101.25
X192.025Y-103.25
X192.025Y-105.25
X192.025Y-107.5
X192.025Y-109.5
X192.625Y-112.35
X192.775Y-80.25
X192.775Y-82.25
X192.775Y-84.25
X192.775Y-86.25
X192.775Y-88.25
X192.775Y-90.25
X192.775Y-92.25
X192.775Y-94.25
X192.775Y-96.25
X192.775Y-98.25
X192.775Y-100.25
X192.775Y-102.25
X192.775Y-104.25
X192.775Y-106.25
X193.325Y-112.35
X193.5Y-116.25
X193.5Y-120.25
X193.5Y-122.25
X193.5Y-124.0
X193.525Y-81.25
X193.525Y-83.25
X193.525Y-85.25
X193.525Y-87.25
X193.525Y-89.25
X193.525Y-91.25
X193.525Y-93.25
X193.525Y-95.25
X193.525Y-97.25
X193.525Y-99.25
X193.525Y-101.25
X193.525Y-103.25
X193.525Y-105.25
X194.025Y-112.35
X194.275Y-80.25
X194.275Y-82.25
X194.275Y-84.25
X194.275Y-86.25
X194.275Y-88.25
X194.275Y-90.25
X194.275Y-92.25
X194.275Y-94.25
X194.275Y-96.25
X194.275Y-98.25
X194.275Y-100.25
X194.275Y-102.25
X194.275Y-104.25
X194.275Y-106.25
X194.625Y-61.75
X194.725Y-112.35
X195.025Y-81.25
X195.025Y-83.25
X195.025Y-85.25
X195.025Y-87.25
X195.025Y-89.25
X195.025Y-91.25
X195.025Y-93.25
X195.025Y-95.25
X195.025Y-97.25
X195.025Y-99.25
X195.025Y-101.25
X195.025Y-103.25
X195.025Y-105.25
X195.25Y-117.25
X195.25Y-119.25
X195.25Y-121.25
X195.25Y-123.25
X195.325Y-61.75
X195.425Y-112.35
X195.55Y-58.25
X195.55Y-60.75
X195.775Y-80.25
X195.775Y-82.25
X195.775Y-84.25
X195.775Y-86.25
X195.775Y-88.25
X195.775Y-90.25
X195.775Y-92.25
X195.775Y-94.25
X195.775Y-96.25
X195.775Y-98.25
X195.775Y-100.25
X195.775Y-102.25
X195.775Y-104.25
X195.775Y-106.25
X196.125Y-112.35
X196.525Y-81.25
X196.525Y-83.25
X196.525Y-85.25
X196.525Y-87.25
X196.525Y-89.25
X196.525Y-91.25
X196.525Y-93.25
X196.525Y-95.25
X196.525Y-97.25
X196.525Y-99.25
X196.525Y-101.25
X196.525Y-103.25
X196.525Y-105.25
X196.825Y-112.35
X197.0Y-116.25
X197.0Y-120.25
X197.0Y-122.25
X197.0Y-124.0
X197.275Y-80.25
X197.275Y-82.25
X197.275Y-84.25
X197.275Y-86.25
X197.275Y-88.25
X197.275Y-90.25
X197.275Y-92.25
X197.275Y-96.25
X197.275Y-98.25
X197.275Y-100.25
X197.275Y-102.25
X197.275Y-104.25
X197.275Y-106.25
X197.525Y-112.35
X198.025Y-81.25
X198.025Y-83.25
X198.025Y-85.25
X198.025Y-87.25
X198.025Y-89.25
X198.025Y-91.25
X198.025Y-93.25
X198.025Y-95.25
X198.025Y-97.25
X198.025Y-99.25
X198.025Y-101.25
X198.025Y-103.25
X198.025Y-105.25
X198.225Y-112.35
X198.75Y-117.25
X198.75Y-119.25
X198.75Y-121.25
X198.75Y-123.25
X198.775Y-88.25
X198.775Y-100.25
X198.775Y-102.25
X198.775Y-104.25
X198.775Y-106.25
X198.775Y-108.5
X198.775Y-110.5
X198.925Y-112.35
X199.025Y-79.25
X199.525Y-65.7
X199.525Y-103.25
X199.525Y-105.25
X199.525Y-107.5
X199.525Y-109.5
X199.7Y-101.25
X199.775Y-80.0
X199.775Y-80.75
X199.775Y-81.5
X199.775Y-82.25
X200.051Y-99.374
X200.2Y-69.675
X200.275Y-65.7
X200.275Y-104.25
X200.275Y-106.25
X200.275Y-108.5
X200.375Y-100.05
X200.725Y-100.6
X200.775Y-80.25
X201.025Y-65.3
X201.025Y-101.2
X201.075Y-79.15
X201.175Y-101.85
X201.275Y-102.55
X201.375Y-103.25
X201.525Y-80.5
X201.525Y-104.0
X201.525Y-104.75
X201.525Y-105.45
X201.525Y-106.2
X201.525Y-106.95
X201.525Y-107.7
X201.525Y-108.45
X201.525Y-109.2
X201.525Y-109.95
X201.525Y-110.7
X201.525Y-111.45
X201.775Y-122.812
X201.775Y-123.562
X202.7Y-107.8
X202.75Y-110.25
X202.775Y-68.7
X202.775Y-121.812
X203.275Y-114.0
X203.387Y-94.162
X203.45Y-86.25
X203.45Y-87.0
X203.45Y-87.725
X203.45Y-88.475
X203.45Y-89.25
X203.45Y-90.0
X203.625Y-65.05
X203.675Y-81.475
X203.775Y-121.812
X204.2Y-86.25
X204.2Y-87.0
X204.2Y-87.725
X204.4Y-81.925
X204.775Y-122.812
X204.775Y-123.562
X204.9Y-104.0
X204.975Y-86.25
X204.975Y-87.0
X204.975Y-87.725
X205.025Y-57.0
X205.025Y-82.5
X205.025Y-83.25
X205.025Y-84.0
X206.025Y-57.0
X207.025Y-114.75
X207.025Y-115.75
X207.025Y-116.75
X208.5Y-102.75
X208.5Y-109.5
X209.0Y-63.73
X209.0Y-65.48
X209.0Y-67.23
X209.0Y-69.48
X209.0Y-71.23
X210.75Y-64.23
X210.75Y-66.48
X210.75Y-68.48
X211.025Y-79.5
X211.25Y-104.5
X211.25Y-111.25
X211.425Y-101.0
X212.5Y-63.73
X212.5Y-65.48
X212.5Y-67.48
X212.5Y-69.48
T4
X114.847Y-58.497
X114.862Y-121.0
X115.55Y-56.8
X115.55Y-60.194
X115.565Y-119.303
X115.565Y-122.697
X117.247Y-56.097
X117.247Y-60.897
X117.262Y-118.6
X117.262Y-123.4
X118.944Y-56.8
X118.944Y-60.194
X118.96Y-119.303
X118.96Y-122.697
X119.647Y-58.497
X119.662Y-121.0
X207.428Y-58.447
X207.428Y-121.053
X208.131Y-56.75
X208.131Y-60.144
X208.131Y-119.356
X208.131Y-122.75
X209.828Y-56.047
X209.828Y-60.847
X209.828Y-118.653
X209.828Y-123.453
X211.525Y-56.75
X211.525Y-60.144
X211.525Y-119.356
X211.525Y-122.75
X212.228Y-58.447
X212.228Y-121.053
T6
X185.905Y-56.71
X185.905Y-59.25
X188.445Y-56.71
X188.445Y-59.25
X190.985Y-56.71
X190.985Y-59.25
X193.525Y-56.71
X193.525Y-59.25
T7
X128.85Y-66.45
X128.85Y-73.65
X128.85Y-82.5
X128.85Y-89.7
X162.251Y-109.28
X169.451Y-109.28
X187.945Y-109.299
X195.145Y-109.299
T8
X117.247Y-58.497
X117.262Y-121.0
X209.828Y-58.447
X209.828Y-121.053
T9
X207.07Y-64.66
X207.07Y-70.44
T10
X196.025Y-76.0
X202.025Y-76.0
T5
G00X122.3Y-63.3
M15
G01X123.4Y-63.3
M16
G05
G00X122.3Y-76.8
M15
G01X123.4Y-76.8
M16
G05
G00X122.3Y-79.35
M15
G01X123.4Y-79.35
M16
G05
G00X122.3Y-92.85
M15
G01X123.4Y-92.85
M16
G05
G00X159.101Y-115.83
M15
G01X159.101Y-114.73
M16
G05
G00X172.601Y-115.83
M15
G01X172.601Y-114.73
M16
G05
G00X184.795Y-115.849
M15
G01X184.795Y-114.749
M16
G05
G00X198.295Y-115.849
M15
G01X198.295Y-114.749
M16
G05
G00X206.02Y-63.23
M15
G01X207.12Y-63.23
M16
G05
G00X206.02Y-71.87
M15
G01X207.12Y-71.87
M16
G05
G00X210.35Y-63.23
M15
G01X211.15Y-63.23
M16
G05
G00X210.35Y-71.87
M15
G01X211.15Y-71.87
M16
G05
M30
