%TF.GenerationSoftware,KiCad,Pcbnew,8.0.5*%
%TF.CreationDate,2024-12-17T17:43:05+01:00*%
%TF.ProjectId,ElonMux,456c6f6e-4d75-4782-9e6b-696361645f70,1.1*%
%TF.SameCoordinates,Original*%
%TF.FileFunction,Soldermask,Bot*%
%TF.FilePolarity,Negative*%
%FSLAX46Y46*%
G04 Gerber Fmt 4.6, Leading zero omitted, Abs format (unit mm)*
G04 Created by KiCad (PCBNEW 8.0.5) date 2024-12-17 17:43:05*
%MOMM*%
%LPD*%
G01*
G04 APERTURE LIST*
G04 Aperture macros list*
%AMRoundRect*
0 Rectangle with rounded corners*
0 $1 Rounding radius*
0 $2 $3 $4 $5 $6 $7 $8 $9 X,Y pos of 4 corners*
0 Add a 4 corners polygon primitive as box body*
4,1,4,$2,$3,$4,$5,$6,$7,$8,$9,$2,$3,0*
0 Add four circle primitives for the rounded corners*
1,1,$1+$1,$2,$3*
1,1,$1+$1,$4,$5*
1,1,$1+$1,$6,$7*
1,1,$1+$1,$8,$9*
0 Add four rect primitives between the rounded corners*
20,1,$1+$1,$2,$3,$4,$5,0*
20,1,$1+$1,$4,$5,$6,$7,0*
20,1,$1+$1,$6,$7,$8,$9,0*
20,1,$1+$1,$8,$9,$2,$3,0*%
%AMFreePoly0*
4,1,35,0.535355,0.785355,0.550000,0.750000,0.550000,-0.750000,0.535355,-0.785355,0.500000,-0.800000,0.000000,-0.800000,-0.012286,-0.794911,-0.071157,-0.794911,-0.085244,-0.792886,-0.221795,-0.752791,-0.234740,-0.746879,-0.354462,-0.669938,-0.365217,-0.660618,-0.458414,-0.553063,-0.466109,-0.541091,-0.525228,-0.411637,-0.529237,-0.397982,-0.549491,-0.257116,-0.550000,-0.250000,-0.550000,0.250000,
-0.549491,0.257116,-0.529237,0.397982,-0.525228,0.411637,-0.466109,0.541091,-0.458414,0.553063,-0.365217,0.660618,-0.354462,0.669938,-0.234740,0.746879,-0.221795,0.752791,-0.085244,0.792886,-0.071157,0.794911,-0.012286,0.794911,0.000000,0.800000,0.500000,0.800000,0.535355,0.785355,0.535355,0.785355,$1*%
%AMFreePoly1*
4,1,35,0.012286,0.794911,0.071157,0.794911,0.085244,0.792886,0.221795,0.752791,0.234740,0.746879,0.354462,0.669938,0.365217,0.660618,0.458414,0.553063,0.466109,0.541091,0.525228,0.411637,0.529237,0.397982,0.549491,0.257116,0.550000,0.250000,0.550000,-0.250000,0.549491,-0.257116,0.529237,-0.397982,0.525228,-0.411637,0.466109,-0.541091,0.458414,-0.553063,0.365217,-0.660618,
0.354462,-0.669938,0.234740,-0.746879,0.221795,-0.752791,0.085244,-0.792886,0.071157,-0.794911,0.012286,-0.794911,0.000000,-0.800000,-0.500000,-0.800000,-0.535355,-0.785355,-0.550000,-0.750000,-0.550000,0.750000,-0.535355,0.785355,-0.500000,0.800000,0.000000,0.800000,0.012286,0.794911,0.012286,0.794911,$1*%
G04 Aperture macros list end*
%ADD10RoundRect,0.425000X2.550000X1.700000X-2.550000X1.700000X-2.550000X-1.700000X2.550000X-1.700000X0*%
%ADD11RoundRect,0.050000X0.450000X1.000000X-0.450000X1.000000X-0.450000X-1.000000X0.450000X-1.000000X0*%
%ADD12RoundRect,0.425000X1.700000X-2.550000X1.700000X2.550000X-1.700000X2.550000X-1.700000X-2.550000X0*%
%ADD13RoundRect,0.100000X0.950000X-0.400000X0.950000X0.400000X-0.950000X0.400000X-0.950000X-0.400000X0*%
%ADD14C,0.750000*%
%ADD15O,2.304000X1.204000*%
%ADD16O,2.004000X1.204000*%
%ADD17C,0.900000*%
%ADD18C,6.500000*%
%ADD19RoundRect,0.100000X0.400000X0.950000X-0.400000X0.950000X-0.400000X-0.950000X0.400000X-0.950000X0*%
%ADD20C,0.850000*%
%ADD21RoundRect,0.050000X1.000000X-0.450000X1.000000X0.450000X-1.000000X0.450000X-1.000000X-0.450000X0*%
%ADD22RoundRect,0.050000X0.850000X-0.850000X0.850000X0.850000X-0.850000X0.850000X-0.850000X-0.850000X0*%
%ADD23O,1.800000X1.800000*%
%ADD24C,2.000000*%
%ADD25FreePoly0,90.000000*%
%ADD26FreePoly1,90.000000*%
%ADD27FreePoly0,0.000000*%
%ADD28FreePoly1,0.000000*%
G04 APERTURE END LIST*
D10*
%TO.C,J504*%
X187945000Y-109298957D03*
X195145000Y-109298957D03*
D11*
X198295000Y-115298957D03*
X184795000Y-115298957D03*
%TD*%
D12*
%TO.C,J503*%
X128850000Y-73650000D03*
X128850000Y-66450000D03*
D13*
X122850000Y-76800000D03*
X122850000Y-63300000D03*
%TD*%
D14*
%TO.C,J1002*%
X207070000Y-70440000D03*
X207070000Y-64660000D03*
D15*
X206570000Y-71870000D03*
X206570000Y-63230000D03*
D16*
X210750000Y-71870000D03*
X210750000Y-63230000D03*
%TD*%
D17*
%TO.C,H1203*%
X207427944Y-121052944D03*
X208130888Y-119355888D03*
X208130888Y-122750000D03*
X209827944Y-118652944D03*
D18*
X209827944Y-121052944D03*
D17*
X209827944Y-123452944D03*
X211525000Y-119355888D03*
X211525000Y-122750000D03*
X212227944Y-121052944D03*
%TD*%
D10*
%TO.C,J501*%
X169451394Y-109280000D03*
X162251394Y-109280000D03*
D19*
X172601394Y-115280000D03*
X159101394Y-115280000D03*
%TD*%
D17*
%TO.C,H1202*%
X114862500Y-121000000D03*
X115565444Y-119302944D03*
X115565444Y-122697056D03*
X117262500Y-118600000D03*
D18*
X117262500Y-121000000D03*
D17*
X117262500Y-123400000D03*
X118959556Y-119302944D03*
X118959556Y-122697056D03*
X119662500Y-121000000D03*
%TD*%
D20*
%TO.C,S402*%
X202025000Y-76000000D03*
%TD*%
D17*
%TO.C,H1201*%
X207427944Y-58447056D03*
X208130888Y-56750000D03*
X208130888Y-60144112D03*
X209827944Y-56047056D03*
D18*
X209827944Y-58447056D03*
D17*
X209827944Y-60847056D03*
X211525000Y-56750000D03*
X211525000Y-60144112D03*
X212227944Y-58447056D03*
%TD*%
D12*
%TO.C,J502*%
X128850000Y-82500000D03*
X128850000Y-89700000D03*
D21*
X122850000Y-92850000D03*
X122850000Y-79350000D03*
%TD*%
D20*
%TO.C,S401*%
X196025000Y-76000000D03*
%TD*%
D22*
%TO.C,J1003*%
X185905000Y-56710000D03*
D23*
X185905000Y-59250000D03*
X188445000Y-56710000D03*
X188445000Y-59250000D03*
X190985000Y-56710000D03*
X190985000Y-59250000D03*
X193525000Y-56710000D03*
X193525000Y-59250000D03*
%TD*%
D17*
%TO.C,H1204*%
X114847056Y-58497056D03*
X115550000Y-56800000D03*
X115550000Y-60194112D03*
X117247056Y-56097056D03*
D18*
X117247056Y-58497056D03*
D17*
X117247056Y-60897056D03*
X118944112Y-56800000D03*
X118944112Y-60194112D03*
X119647056Y-58497056D03*
%TD*%
D24*
%TO.C,FM1206*%
X115500000Y-75000000D03*
%TD*%
%TO.C,FM1205*%
X163500000Y-120000000D03*
%TD*%
D25*
%TO.C,JP402*%
X199650000Y-75750000D03*
D26*
X199650000Y-74450000D03*
%TD*%
D25*
%TO.C,JP701*%
X204900000Y-106750000D03*
D26*
X204900000Y-105450000D03*
%TD*%
D24*
%TO.C,FM1204*%
X211500000Y-74750000D03*
%TD*%
D27*
%TO.C,JP401*%
X200000000Y-71550000D03*
D28*
X201300000Y-71550000D03*
%TD*%
M02*
