%TF.GenerationSoftware,KiCad,Pcbnew,8.0.5*%
%TF.CreationDate,2024-12-17T17:43:05+01:00*%
%TF.ProjectId,ElonMux,456c6f6e-4d75-4782-9e6b-696361645f70,1.1*%
%TF.SameCoordinates,Original*%
%TF.FileFunction,Soldermask,Top*%
%TF.FilePolarity,Negative*%
%FSLAX46Y46*%
G04 Gerber Fmt 4.6, Leading zero omitted, Abs format (unit mm)*
G04 Created by KiCad (PCBNEW 8.0.5) date 2024-12-17 17:43:05*
%MOMM*%
%LPD*%
G01*
G04 APERTURE LIST*
G04 Aperture macros list*
%AMRoundRect*
0 Rectangle with rounded corners*
0 $1 Rounding radius*
0 $2 $3 $4 $5 $6 $7 $8 $9 X,Y pos of 4 corners*
0 Add a 4 corners polygon primitive as box body*
4,1,4,$2,$3,$4,$5,$6,$7,$8,$9,$2,$3,0*
0 Add four circle primitives for the rounded corners*
1,1,$1+$1,$2,$3*
1,1,$1+$1,$4,$5*
1,1,$1+$1,$6,$7*
1,1,$1+$1,$8,$9*
0 Add four rect primitives between the rounded corners*
20,1,$1+$1,$2,$3,$4,$5,0*
20,1,$1+$1,$4,$5,$6,$7,0*
20,1,$1+$1,$6,$7,$8,$9,0*
20,1,$1+$1,$8,$9,$2,$3,0*%
%AMFreePoly0*
4,1,17,2.675000,1.605000,1.875000,1.605000,1.875000,0.935000,2.675000,0.935000,2.675000,0.335000,1.875000,0.335000,1.875000,-0.335000,2.675000,-0.335000,2.675000,-0.935000,1.875000,-0.935000,1.875000,-1.605000,2.675000,-1.605000,2.675000,-2.205000,-1.875000,-2.205000,-1.875000,2.205000,2.675000,2.205000,2.675000,1.605000,2.675000,1.605000,$1*%
G04 Aperture macros list end*
%ADD10C,0.010000*%
%ADD11RoundRect,0.165000X0.165000X0.195000X-0.165000X0.195000X-0.165000X-0.195000X0.165000X-0.195000X0*%
%ADD12RoundRect,0.165000X-0.165000X-0.195000X0.165000X-0.195000X0.165000X0.195000X-0.165000X0.195000X0*%
%ADD13RoundRect,0.160000X-0.160000X-0.210000X0.160000X-0.210000X0.160000X0.210000X-0.160000X0.210000X0*%
%ADD14RoundRect,0.250000X-0.275000X0.250000X-0.275000X-0.250000X0.275000X-0.250000X0.275000X0.250000X0*%
%ADD15RoundRect,0.175000X0.175000X-0.537500X0.175000X0.537500X-0.175000X0.537500X-0.175000X-0.537500X0*%
%ADD16RoundRect,0.275000X0.275000X0.500000X-0.275000X0.500000X-0.275000X-0.500000X0.275000X-0.500000X0*%
%ADD17C,0.499800*%
%ADD18C,2.000000*%
%ADD19RoundRect,0.270409X0.392091X1.104591X-0.392091X1.104591X-0.392091X-1.104591X0.392091X-1.104591X0*%
%ADD20RoundRect,0.271739X0.678261X-0.353261X0.678261X0.353261X-0.678261X0.353261X-0.678261X-0.353261X0*%
%ADD21RoundRect,0.160000X-0.210000X0.160000X-0.210000X-0.160000X0.210000X-0.160000X0.210000X0.160000X0*%
%ADD22RoundRect,0.425000X2.550000X1.700000X-2.550000X1.700000X-2.550000X-1.700000X2.550000X-1.700000X0*%
%ADD23RoundRect,0.050000X0.450000X1.000000X-0.450000X1.000000X-0.450000X-1.000000X0.450000X-1.000000X0*%
%ADD24RoundRect,0.425000X1.700000X-2.550000X1.700000X2.550000X-1.700000X2.550000X-1.700000X-2.550000X0*%
%ADD25RoundRect,0.100000X0.950000X-0.400000X0.950000X0.400000X-0.950000X0.400000X-0.950000X-0.400000X0*%
%ADD26RoundRect,0.160000X0.160000X0.210000X-0.160000X0.210000X-0.160000X-0.210000X0.160000X-0.210000X0*%
%ADD27C,0.750000*%
%ADD28O,2.304000X1.204000*%
%ADD29O,2.004000X1.204000*%
%ADD30FreePoly0,90.000000*%
%ADD31RoundRect,0.150000X0.150000X-0.325000X0.150000X0.325000X-0.150000X0.325000X-0.150000X-0.325000X0*%
%ADD32RoundRect,0.172500X-0.172500X-0.197500X0.172500X-0.197500X0.172500X0.197500X-0.172500X0.197500X0*%
%ADD33RoundRect,0.225000X0.300000X-0.225000X0.300000X0.225000X-0.300000X0.225000X-0.300000X-0.225000X0*%
%ADD34RoundRect,0.269231X-0.430769X-0.655769X0.430769X-0.655769X0.430769X0.655769X-0.430769X0.655769X0*%
%ADD35RoundRect,0.250000X0.250000X0.275000X-0.250000X0.275000X-0.250000X-0.275000X0.250000X-0.275000X0*%
%ADD36RoundRect,0.165000X-0.195000X0.165000X-0.195000X-0.165000X0.195000X-0.165000X0.195000X0.165000X0*%
%ADD37RoundRect,0.087500X0.400000X0.087500X-0.400000X0.087500X-0.400000X-0.087500X0.400000X-0.087500X0*%
%ADD38RoundRect,0.087500X0.087500X0.400000X-0.087500X0.400000X-0.087500X-0.400000X0.087500X-0.400000X0*%
%ADD39RoundRect,0.050000X1.800000X2.300000X-1.800000X2.300000X-1.800000X-2.300000X1.800000X-2.300000X0*%
%ADD40RoundRect,0.050000X0.300000X0.625000X-0.300000X0.625000X-0.300000X-0.625000X0.300000X-0.625000X0*%
%ADD41RoundRect,0.263158X-1.861842X-0.736842X1.861842X-0.736842X1.861842X0.736842X-1.861842X0.736842X0*%
%ADD42RoundRect,0.225000X0.225000X0.300000X-0.225000X0.300000X-0.225000X-0.300000X0.225000X-0.300000X0*%
%ADD43RoundRect,0.050000X1.075000X1.100000X-1.075000X1.100000X-1.075000X-1.100000X1.075000X-1.100000X0*%
%ADD44RoundRect,0.270833X0.479167X-0.379167X0.479167X0.379167X-0.479167X0.379167X-0.479167X-0.379167X0*%
%ADD45C,0.900000*%
%ADD46C,6.500000*%
%ADD47RoundRect,0.050000X-0.700000X0.150000X-0.700000X-0.150000X0.700000X-0.150000X0.700000X0.150000X0*%
%ADD48RoundRect,0.100000X0.400000X0.950000X-0.400000X0.950000X-0.400000X-0.950000X0.400000X-0.950000X0*%
%ADD49RoundRect,0.050000X-1.100000X1.075000X-1.100000X-1.075000X1.100000X-1.075000X1.100000X1.075000X0*%
%ADD50RoundRect,0.160000X0.210000X-0.160000X0.210000X0.160000X-0.210000X0.160000X-0.210000X-0.160000X0*%
%ADD51C,0.850000*%
%ADD52RoundRect,0.050000X0.400000X0.850000X-0.400000X0.850000X-0.400000X-0.850000X0.400000X-0.850000X0*%
%ADD53RoundRect,0.050000X0.400000X0.550000X-0.400000X0.550000X-0.400000X-0.550000X0.400000X-0.550000X0*%
%ADD54RoundRect,0.275000X-0.500000X0.275000X-0.500000X-0.275000X0.500000X-0.275000X0.500000X0.275000X0*%
%ADD55RoundRect,0.102000X0.550000X-0.650000X0.550000X0.650000X-0.550000X0.650000X-0.550000X-0.650000X0*%
%ADD56RoundRect,0.050000X-4.500000X1.250000X-4.500000X-1.250000X4.500000X-1.250000X4.500000X1.250000X0*%
%ADD57RoundRect,0.271739X-0.678261X0.353261X-0.678261X-0.353261X0.678261X-0.353261X0.678261X0.353261X0*%
%ADD58RoundRect,0.274390X0.288110X0.475610X-0.288110X0.475610X-0.288110X-0.475610X0.288110X-0.475610X0*%
%ADD59RoundRect,0.268750X-0.268750X-0.481250X0.268750X-0.481250X0.268750X0.481250X-0.268750X0.481250X0*%
%ADD60RoundRect,0.050000X-0.250000X0.250000X-0.250000X-0.250000X0.250000X-0.250000X0.250000X0.250000X0*%
%ADD61RoundRect,0.050000X-0.300000X-1.600000X0.300000X-1.600000X0.300000X1.600000X-0.300000X1.600000X0*%
%ADD62RoundRect,0.050000X-0.550000X0.250000X-0.550000X-0.250000X0.550000X-0.250000X0.550000X0.250000X0*%
%ADD63RoundRect,0.050000X-0.400000X0.300000X-0.400000X-0.300000X0.400000X-0.300000X0.400000X0.300000X0*%
%ADD64RoundRect,0.050000X-1.875000X-2.205000X1.875000X-2.205000X1.875000X2.205000X-1.875000X2.205000X0*%
%ADD65RoundRect,0.275000X-0.275000X-0.500000X0.275000X-0.500000X0.275000X0.500000X-0.275000X0.500000X0*%
%ADD66RoundRect,0.250000X0.275000X-0.250000X0.275000X0.250000X-0.275000X0.250000X-0.275000X-0.250000X0*%
%ADD67RoundRect,0.225000X-0.225000X-0.300000X0.225000X-0.300000X0.225000X0.300000X-0.225000X0.300000X0*%
%ADD68RoundRect,0.050000X1.875000X-1.375000X1.875000X1.375000X-1.875000X1.375000X-1.875000X-1.375000X0*%
%ADD69RoundRect,0.050000X0.400000X-0.150000X0.400000X0.150000X-0.400000X0.150000X-0.400000X-0.150000X0*%
%ADD70RoundRect,0.050000X0.150000X0.400000X-0.150000X0.400000X-0.150000X-0.400000X0.150000X-0.400000X0*%
%ADD71RoundRect,0.250000X-0.250000X-0.275000X0.250000X-0.275000X0.250000X0.275000X-0.250000X0.275000X0*%
%ADD72RoundRect,0.200000X0.350000X-0.200000X0.350000X0.200000X-0.350000X0.200000X-0.350000X-0.200000X0*%
%ADD73RoundRect,0.175000X0.175000X-0.225000X0.175000X0.225000X-0.175000X0.225000X-0.175000X-0.225000X0*%
%ADD74RoundRect,0.269231X-0.430769X-0.480769X0.430769X-0.480769X0.430769X0.480769X-0.430769X0.480769X0*%
%ADD75RoundRect,0.165000X0.195000X-0.165000X0.195000X0.165000X-0.195000X0.165000X-0.195000X-0.165000X0*%
%ADD76FreePoly0,180.000000*%
%ADD77RoundRect,0.150000X0.325000X0.150000X-0.325000X0.150000X-0.325000X-0.150000X0.325000X-0.150000X0*%
%ADD78RoundRect,0.075000X0.075000X-0.375000X0.075000X0.375000X-0.075000X0.375000X-0.075000X-0.375000X0*%
%ADD79RoundRect,0.075000X0.375000X-0.075000X0.375000X0.075000X-0.375000X0.075000X-0.375000X-0.075000X0*%
%ADD80RoundRect,0.050000X2.000000X-2.000000X2.000000X2.000000X-2.000000X2.000000X-2.000000X-2.000000X0*%
%ADD81RoundRect,0.050000X1.100000X-1.075000X1.100000X1.075000X-1.100000X1.075000X-1.100000X-1.075000X0*%
%ADD82RoundRect,0.050000X-0.300000X-0.575000X0.300000X-0.575000X0.300000X0.575000X-0.300000X0.575000X0*%
%ADD83RoundRect,0.271739X0.353261X0.678261X-0.353261X0.678261X-0.353261X-0.678261X0.353261X-0.678261X0*%
%ADD84RoundRect,0.270000X0.405000X0.655000X-0.405000X0.655000X-0.405000X-0.655000X0.405000X-0.655000X0*%
%ADD85RoundRect,0.270000X0.655000X-0.405000X0.655000X0.405000X-0.655000X0.405000X-0.655000X-0.405000X0*%
%ADD86RoundRect,0.270409X-1.104591X0.392091X-1.104591X-0.392091X1.104591X-0.392091X1.104591X0.392091X0*%
%ADD87RoundRect,0.050000X-1.075000X-1.100000X1.075000X-1.100000X1.075000X1.100000X-1.075000X1.100000X0*%
%ADD88RoundRect,0.270409X1.104591X-0.392091X1.104591X0.392091X-1.104591X0.392091X-1.104591X-0.392091X0*%
%ADD89RoundRect,0.225000X-0.300000X0.225000X-0.300000X-0.225000X0.300000X-0.225000X0.300000X0.225000X0*%
%ADD90RoundRect,0.050000X1.752600X-0.495300X1.752600X0.495300X-1.752600X0.495300X-1.752600X-0.495300X0*%
%ADD91RoundRect,0.050000X1.701800X-0.749300X1.701800X0.749300X-1.701800X0.749300X-1.701800X-0.749300X0*%
%ADD92RoundRect,0.243750X0.406250X-0.243750X0.406250X0.243750X-0.406250X0.243750X-0.406250X-0.243750X0*%
%ADD93RoundRect,0.263158X0.736842X-1.861842X0.736842X1.861842X-0.736842X1.861842X-0.736842X-1.861842X0*%
%ADD94RoundRect,0.050000X-0.600000X0.600000X-0.600000X-0.600000X0.600000X-0.600000X0.600000X0.600000X0*%
%ADD95RoundRect,0.050000X-1.395000X0.370000X-1.395000X-0.370000X1.395000X-0.370000X1.395000X0.370000X0*%
%ADD96RoundRect,0.050000X1.000000X-0.450000X1.000000X0.450000X-1.000000X0.450000X-1.000000X-0.450000X0*%
%ADD97RoundRect,0.263158X-0.736842X1.861842X-0.736842X-1.861842X0.736842X-1.861842X0.736842X1.861842X0*%
%ADD98RoundRect,0.050000X0.712500X-0.150000X0.712500X0.150000X-0.712500X0.150000X-0.712500X-0.150000X0*%
%ADD99RoundRect,0.050000X-0.876500X-1.473500X0.876500X-1.473500X0.876500X1.473500X-0.876500X1.473500X0*%
%ADD100RoundRect,0.050000X0.250000X0.250000X-0.250000X0.250000X-0.250000X-0.250000X0.250000X-0.250000X0*%
%ADD101RoundRect,0.050000X-1.600000X0.300000X-1.600000X-0.300000X1.600000X-0.300000X1.600000X0.300000X0*%
%ADD102RoundRect,0.050000X0.250000X0.550000X-0.250000X0.550000X-0.250000X-0.550000X0.250000X-0.550000X0*%
%ADD103RoundRect,0.050000X0.300000X0.400000X-0.300000X0.400000X-0.300000X-0.400000X0.300000X-0.400000X0*%
%ADD104RoundRect,0.050000X-2.205000X1.875000X-2.205000X-1.875000X2.205000X-1.875000X2.205000X1.875000X0*%
%ADD105RoundRect,0.274390X-0.288110X-0.475610X0.288110X-0.475610X0.288110X0.475610X-0.288110X0.475610X0*%
%ADD106RoundRect,0.271739X-0.353261X-0.678261X0.353261X-0.678261X0.353261X0.678261X-0.353261X0.678261X0*%
%ADD107RoundRect,0.172500X0.197500X-0.172500X0.197500X0.172500X-0.197500X0.172500X-0.197500X-0.172500X0*%
%ADD108RoundRect,0.050000X0.850000X-0.850000X0.850000X0.850000X-0.850000X0.850000X-0.850000X-0.850000X0*%
%ADD109O,1.800000X1.800000*%
%ADD110RoundRect,0.050000X0.600000X-0.600000X0.600000X0.600000X-0.600000X0.600000X-0.600000X-0.600000X0*%
%ADD111RoundRect,0.275000X0.500000X-0.275000X0.500000X0.275000X-0.500000X0.275000X-0.500000X-0.275000X0*%
%ADD112FreePoly0,0.000000*%
%ADD113RoundRect,0.150000X-0.325000X-0.150000X0.325000X-0.150000X0.325000X0.150000X-0.325000X0.150000X0*%
%ADD114RoundRect,0.270000X-0.405000X-0.655000X0.405000X-0.655000X0.405000X0.655000X-0.405000X0.655000X0*%
%ADD115RoundRect,0.593750X0.593750X-0.831250X0.593750X0.831250X-0.593750X0.831250X-0.593750X-0.831250X0*%
%ADD116RoundRect,0.643750X0.643750X-0.781250X0.643750X0.781250X-0.643750X0.781250X-0.643750X-0.781250X0*%
%ADD117RoundRect,0.593750X0.593750X-0.781250X0.593750X0.781250X-0.593750X0.781250X-0.593750X-0.781250X0*%
%ADD118RoundRect,0.643750X0.643750X-0.731250X0.643750X0.731250X-0.643750X0.731250X-0.643750X-0.731250X0*%
%ADD119RoundRect,0.050000X0.500000X1.350000X-0.500000X1.350000X-0.500000X-1.350000X0.500000X-1.350000X0*%
G04 APERTURE END LIST*
D10*
%TO.C,J1002*%
X206620000Y-64700000D02*
X205370000Y-64700000D01*
X205370000Y-64000000D01*
X206620000Y-64000000D01*
X206620000Y-64700000D01*
G36*
X206620000Y-64700000D02*
G01*
X205370000Y-64700000D01*
X205370000Y-64000000D01*
X206620000Y-64000000D01*
X206620000Y-64700000D01*
G37*
X206620000Y-65500000D02*
X205370000Y-65500000D01*
X205370000Y-64800000D01*
X206620000Y-64800000D01*
X206620000Y-65500000D01*
G36*
X206620000Y-65500000D02*
G01*
X205370000Y-65500000D01*
X205370000Y-64800000D01*
X206620000Y-64800000D01*
X206620000Y-65500000D01*
G37*
X206620000Y-66000000D02*
X205370000Y-66000000D01*
X205370000Y-65600000D01*
X206620000Y-65600000D01*
X206620000Y-66000000D01*
G36*
X206620000Y-66000000D02*
G01*
X205370000Y-66000000D01*
X205370000Y-65600000D01*
X206620000Y-65600000D01*
X206620000Y-66000000D01*
G37*
X206620000Y-66500000D02*
X205370000Y-66500000D01*
X205370000Y-66100000D01*
X206620000Y-66100000D01*
X206620000Y-66500000D01*
G36*
X206620000Y-66500000D02*
G01*
X205370000Y-66500000D01*
X205370000Y-66100000D01*
X206620000Y-66100000D01*
X206620000Y-66500000D01*
G37*
X206620000Y-67000000D02*
X205370000Y-67000000D01*
X205370000Y-66600000D01*
X206620000Y-66600000D01*
X206620000Y-67000000D01*
G36*
X206620000Y-67000000D02*
G01*
X205370000Y-67000000D01*
X205370000Y-66600000D01*
X206620000Y-66600000D01*
X206620000Y-67000000D01*
G37*
X206620000Y-67500000D02*
X205370000Y-67500000D01*
X205370000Y-67100000D01*
X206620000Y-67100000D01*
X206620000Y-67500000D01*
G36*
X206620000Y-67500000D02*
G01*
X205370000Y-67500000D01*
X205370000Y-67100000D01*
X206620000Y-67100000D01*
X206620000Y-67500000D01*
G37*
X206620000Y-68000000D02*
X205370000Y-68000000D01*
X205370000Y-67600000D01*
X206620000Y-67600000D01*
X206620000Y-68000000D01*
G36*
X206620000Y-68000000D02*
G01*
X205370000Y-68000000D01*
X205370000Y-67600000D01*
X206620000Y-67600000D01*
X206620000Y-68000000D01*
G37*
X206620000Y-68500000D02*
X205370000Y-68500000D01*
X205370000Y-68100000D01*
X206620000Y-68100000D01*
X206620000Y-68500000D01*
G36*
X206620000Y-68500000D02*
G01*
X205370000Y-68500000D01*
X205370000Y-68100000D01*
X206620000Y-68100000D01*
X206620000Y-68500000D01*
G37*
X206620000Y-69000000D02*
X205370000Y-69000000D01*
X205370000Y-68600000D01*
X206620000Y-68600000D01*
X206620000Y-69000000D01*
G36*
X206620000Y-69000000D02*
G01*
X205370000Y-69000000D01*
X205370000Y-68600000D01*
X206620000Y-68600000D01*
X206620000Y-69000000D01*
G37*
X206620000Y-69500000D02*
X205370000Y-69500000D01*
X205370000Y-69100000D01*
X206620000Y-69100000D01*
X206620000Y-69500000D01*
G36*
X206620000Y-69500000D02*
G01*
X205370000Y-69500000D01*
X205370000Y-69100000D01*
X206620000Y-69100000D01*
X206620000Y-69500000D01*
G37*
X206620000Y-70300000D02*
X205370000Y-70300000D01*
X205370000Y-69600000D01*
X206620000Y-69600000D01*
X206620000Y-70300000D01*
G36*
X206620000Y-70300000D02*
G01*
X205370000Y-70300000D01*
X205370000Y-69600000D01*
X206620000Y-69600000D01*
X206620000Y-70300000D01*
G37*
X206620000Y-71100000D02*
X205370000Y-71100000D01*
X205370000Y-70400000D01*
X206620000Y-70400000D01*
X206620000Y-71100000D01*
G36*
X206620000Y-71100000D02*
G01*
X205370000Y-71100000D01*
X205370000Y-70400000D01*
X206620000Y-70400000D01*
X206620000Y-71100000D01*
G37*
%TD*%
D11*
%TO.C,C607*%
X207595000Y-92025000D03*
X208555000Y-92025000D03*
%TD*%
D12*
%TO.C,C602*%
X208555000Y-93050000D03*
X207595000Y-93050000D03*
%TD*%
D11*
%TO.C,C601*%
X203945000Y-93050000D03*
X204905000Y-93050000D03*
%TD*%
D13*
%TO.C,R1010*%
X203265000Y-64250000D03*
X204285000Y-64250000D03*
%TD*%
D14*
%TO.C,C809*%
X167025000Y-92725000D03*
X167025000Y-94275000D03*
%TD*%
D15*
%TO.C,Q1101*%
X197075000Y-60775000D03*
X198975000Y-60775000D03*
X198025000Y-58500000D03*
%TD*%
D16*
%TO.C,C614*%
X203250000Y-100250000D03*
X205150000Y-100250000D03*
%TD*%
D17*
%TO.C,TP403*%
X179800000Y-62800000D03*
%TD*%
D18*
%TO.C,FM1202*%
X163500000Y-59750000D03*
%TD*%
D19*
%TO.C,R701*%
X141212500Y-112900000D03*
X136587500Y-112900000D03*
%TD*%
D17*
%TO.C,TP1001*%
X212900707Y-74000707D03*
%TD*%
D12*
%TO.C,C409*%
X185595000Y-71200000D03*
X186555000Y-71200000D03*
%TD*%
D17*
%TO.C,TP716*%
X128900000Y-103325000D03*
%TD*%
D11*
%TO.C,C410*%
X186555000Y-66000000D03*
X185595000Y-66000000D03*
%TD*%
D13*
%TO.C,R819*%
X172115000Y-96800000D03*
X173135000Y-96800000D03*
%TD*%
D17*
%TO.C,TP402*%
X179800707Y-61699293D03*
%TD*%
D20*
%TO.C,C704*%
X128500000Y-123925000D03*
X128500000Y-120975000D03*
%TD*%
D21*
%TO.C,R402*%
X181525000Y-65990000D03*
X181525000Y-67010000D03*
%TD*%
D22*
%TO.C,J504*%
X187945000Y-109298957D03*
X195145000Y-109298957D03*
D23*
X198295000Y-115298957D03*
X184795000Y-115298957D03*
%TD*%
D24*
%TO.C,J503*%
X128850000Y-73650000D03*
X128850000Y-66450000D03*
D25*
X122850000Y-76800000D03*
X122850000Y-63300000D03*
%TD*%
D26*
%TO.C,R707*%
X143460000Y-91600000D03*
X142440000Y-91600000D03*
%TD*%
D17*
%TO.C,TP407*%
X197025000Y-73000000D03*
%TD*%
D27*
%TO.C,J1002*%
X207070000Y-70440000D03*
X207070000Y-64660000D03*
D28*
X206570000Y-71870000D03*
X206570000Y-63230000D03*
D29*
X210750000Y-71870000D03*
X210750000Y-63230000D03*
%TD*%
D30*
%TO.C,Q804*%
X187410000Y-84400000D03*
D31*
X185505000Y-87950000D03*
X186775000Y-87950000D03*
X188045000Y-87950000D03*
X189315000Y-87950000D03*
%TD*%
D32*
%TO.C,L402*%
X188190000Y-70400000D03*
X189160000Y-70400000D03*
%TD*%
D12*
%TO.C,C407*%
X198525000Y-68750000D03*
X199485000Y-68750000D03*
%TD*%
D18*
%TO.C,FM1203*%
X211500000Y-107250000D03*
%TD*%
D13*
%TO.C,R605*%
X208265000Y-85000000D03*
X209285000Y-85000000D03*
%TD*%
D17*
%TO.C,TP408*%
X197775707Y-72500707D03*
%TD*%
D33*
%TO.C,R1204*%
X123012500Y-58125000D03*
X123012500Y-56475000D03*
%TD*%
D17*
%TO.C,TP602*%
X199950000Y-95550000D03*
%TD*%
%TO.C,TP711*%
X145900000Y-104200000D03*
%TD*%
D34*
%TO.C,R805*%
X167225000Y-100550000D03*
X170325000Y-100550000D03*
%TD*%
D11*
%TO.C,C802*%
X174255000Y-79500000D03*
X173295000Y-79500000D03*
%TD*%
D18*
%TO.C,FM1201*%
X115500000Y-107500000D03*
%TD*%
D35*
%TO.C,C811*%
X164300000Y-82400000D03*
X162750000Y-82400000D03*
%TD*%
D21*
%TO.C,R817*%
X167275000Y-95490000D03*
X167275000Y-96510000D03*
%TD*%
D36*
%TO.C,C714*%
X137400000Y-109820000D03*
X137400000Y-110780000D03*
%TD*%
D37*
%TO.C,U701*%
X143462500Y-106425000D03*
X143462500Y-105925000D03*
X143462500Y-105425000D03*
X143462500Y-104925000D03*
X143462500Y-104425000D03*
X143462500Y-103925000D03*
X143462500Y-103425000D03*
X143462500Y-102925000D03*
X143462500Y-102425000D03*
X143462500Y-101925000D03*
D38*
X142775000Y-101237500D03*
X142275000Y-101237500D03*
X141775000Y-101237500D03*
X141275000Y-101237500D03*
X140775000Y-101237500D03*
X140275000Y-101237500D03*
X139775000Y-101237500D03*
X139275000Y-101237500D03*
D37*
X138587500Y-101925000D03*
X138587500Y-102425000D03*
X138587500Y-102925000D03*
X138587500Y-103425000D03*
X138587500Y-103925000D03*
X138587500Y-104425000D03*
X138587500Y-104925000D03*
X138587500Y-105425000D03*
X138587500Y-105925000D03*
X138587500Y-106425000D03*
D38*
X139275000Y-107112500D03*
X139775000Y-107112500D03*
X140275000Y-107112500D03*
X140775000Y-107112500D03*
X141275000Y-107112500D03*
X141775000Y-107112500D03*
X142275000Y-107112500D03*
X142775000Y-107112500D03*
D39*
X141025000Y-104175000D03*
%TD*%
D11*
%TO.C,C715*%
X141060000Y-99800000D03*
X140100000Y-99800000D03*
%TD*%
D17*
%TO.C,TP802*%
X166275000Y-90499000D03*
%TD*%
D21*
%TO.C,R1013*%
X183550000Y-58740000D03*
X183550000Y-59760000D03*
%TD*%
D17*
%TO.C,TP409*%
X152229561Y-101123540D03*
%TD*%
%TO.C,TP401*%
X181100000Y-56450000D03*
%TD*%
D21*
%TO.C,R718*%
X202750000Y-108540000D03*
X202750000Y-109560000D03*
%TD*%
D17*
%TO.C,TP710*%
X147250000Y-109100000D03*
%TD*%
%TO.C,TP420*%
X193499175Y-73503873D03*
%TD*%
D26*
%TO.C,R602*%
X202585000Y-81900000D03*
X201565000Y-81900000D03*
%TD*%
D40*
%TO.C,IC803*%
X166325000Y-89250000D03*
X167275000Y-89250000D03*
X168225000Y-89250000D03*
X168225000Y-86750000D03*
X167275000Y-86750000D03*
X166325000Y-86750000D03*
%TD*%
D21*
%TO.C,R1005*%
X176250000Y-56190000D03*
X176250000Y-57210000D03*
%TD*%
D41*
%TO.C,C708*%
X145525000Y-86600000D03*
X152475000Y-86600000D03*
%TD*%
D17*
%TO.C,TP605*%
X204200000Y-86250000D03*
%TD*%
%TO.C,TP705*%
X128150000Y-102226000D03*
%TD*%
%TO.C,TP707*%
X115025000Y-101550000D03*
%TD*%
D42*
%TO.C,R704*%
X128150000Y-100850000D03*
X126500000Y-100850000D03*
%TD*%
D43*
%TO.C,D502*%
X133500000Y-88700000D03*
X133500000Y-84300000D03*
%TD*%
D12*
%TO.C,C1002*%
X201315000Y-69500000D03*
X202275000Y-69500000D03*
%TD*%
D17*
%TO.C,TP604*%
X206275000Y-85450000D03*
%TD*%
D44*
%TO.C,R810*%
X165775000Y-98500000D03*
X165775000Y-96500000D03*
%TD*%
D17*
%TO.C,TP811*%
X150875000Y-76175000D03*
%TD*%
%TO.C,TP709*%
X124500000Y-97750000D03*
%TD*%
D26*
%TO.C,R708*%
X143460000Y-90600000D03*
X142440000Y-90600000D03*
%TD*%
D45*
%TO.C,H1203*%
X207427944Y-121052944D03*
X208130888Y-119355888D03*
X208130888Y-122750000D03*
X209827944Y-118652944D03*
D46*
X209827944Y-121052944D03*
D45*
X209827944Y-123452944D03*
X211525000Y-119355888D03*
X211525000Y-122750000D03*
X212227944Y-121052944D03*
%TD*%
D47*
%TO.C,U901*%
X182175000Y-71750000D03*
X182175000Y-71250000D03*
X182175000Y-70750000D03*
X182175000Y-70250000D03*
X182175000Y-69750000D03*
X177775000Y-69750000D03*
X177775000Y-70250000D03*
X177775000Y-70750000D03*
X177775000Y-71250000D03*
X177775000Y-71750000D03*
%TD*%
D33*
%TO.C,R801*%
X177525000Y-96825000D03*
X177525000Y-95175000D03*
%TD*%
D26*
%TO.C,R1003*%
X178750000Y-56200000D03*
X177730000Y-56200000D03*
%TD*%
D17*
%TO.C,TP807*%
X176299293Y-87650707D03*
%TD*%
D42*
%TO.C,R712*%
X142325000Y-108600000D03*
X140675000Y-108600000D03*
%TD*%
D12*
%TO.C,C807*%
X169795000Y-89250000D03*
X170755000Y-89250000D03*
%TD*%
D21*
%TO.C,R706*%
X138400000Y-109790000D03*
X138400000Y-110810000D03*
%TD*%
%TO.C,R401*%
X180275000Y-65990000D03*
X180275000Y-67010000D03*
%TD*%
D22*
%TO.C,J501*%
X169451394Y-109280000D03*
X162251394Y-109280000D03*
D48*
X172601394Y-115280000D03*
X159101394Y-115280000D03*
%TD*%
D49*
%TO.C,D504*%
X193675000Y-104600000D03*
X189275000Y-104600000D03*
%TD*%
D45*
%TO.C,H1202*%
X114862500Y-121000000D03*
X115565444Y-119302944D03*
X115565444Y-122697056D03*
X117262500Y-118600000D03*
D46*
X117262500Y-121000000D03*
D45*
X117262500Y-123400000D03*
X118959556Y-119302944D03*
X118959556Y-122697056D03*
X119662500Y-121000000D03*
%TD*%
D50*
%TO.C,R1007*%
X178550000Y-62260000D03*
X178550000Y-61240000D03*
%TD*%
D51*
%TO.C,S402*%
X202025000Y-76000000D03*
D52*
X200325000Y-76000000D03*
X203725000Y-76000000D03*
D53*
X202025000Y-74350000D03*
%TD*%
D54*
%TO.C,C720*%
X135450000Y-105150000D03*
X135450000Y-107050000D03*
%TD*%
D17*
%TO.C,TP412*%
X197275000Y-64250000D03*
%TD*%
D13*
%TO.C,R1009*%
X203265000Y-69500000D03*
X204285000Y-69500000D03*
%TD*%
D17*
%TO.C,TP706*%
X136650000Y-107750000D03*
%TD*%
D50*
%TO.C,R1001*%
X175250000Y-64260000D03*
X175250000Y-63240000D03*
%TD*%
D13*
%TO.C,R610*%
X210860000Y-97050000D03*
X209840000Y-97050000D03*
%TD*%
D55*
%TO.C,Y401*%
X186925000Y-69712500D03*
X186925000Y-67412500D03*
X185025000Y-67412500D03*
X185025000Y-69712500D03*
%TD*%
D56*
%TO.C,L701*%
X120200000Y-111200000D03*
X120200000Y-104800000D03*
%TD*%
D57*
%TO.C,C611*%
X211400000Y-92450000D03*
X211400000Y-89500000D03*
%TD*%
D30*
%TO.C,Q803*%
X181120000Y-84400000D03*
D31*
X179215000Y-87950000D03*
X180485000Y-87950000D03*
X181755000Y-87950000D03*
X183025000Y-87950000D03*
%TD*%
D50*
%TO.C,R406*%
X182775000Y-66010000D03*
X182775000Y-64990000D03*
%TD*%
D35*
%TO.C,C401*%
X196300000Y-62750000D03*
X194750000Y-62750000D03*
%TD*%
%TO.C,C1203*%
X209790000Y-116500000D03*
X208240000Y-116500000D03*
%TD*%
D11*
%TO.C,C709*%
X139380000Y-108800000D03*
X138420000Y-108800000D03*
%TD*%
D58*
%TO.C,FB602*%
X210837500Y-87450000D03*
X212662500Y-87450000D03*
%TD*%
D50*
%TO.C,R409*%
X199000000Y-77810000D03*
X199000000Y-76790000D03*
%TD*%
D42*
%TO.C,R709*%
X135800000Y-108600000D03*
X134150000Y-108600000D03*
%TD*%
D59*
%TO.C,LED702*%
X147737500Y-106275000D03*
X149612500Y-106275000D03*
%TD*%
D17*
%TO.C,TP803*%
X184925000Y-92350000D03*
%TD*%
D26*
%TO.C,R1008*%
X177260000Y-64250000D03*
X176240000Y-64250000D03*
%TD*%
D21*
%TO.C,R818*%
X165025000Y-85240000D03*
X165025000Y-86260000D03*
%TD*%
D17*
%TO.C,TP717*%
X149207500Y-109092500D03*
%TD*%
%TO.C,TP422*%
X184275000Y-64250000D03*
%TD*%
%TO.C,TP719*%
X135100000Y-78100000D03*
%TD*%
D42*
%TO.C,R1201*%
X206025000Y-61300000D03*
X204375000Y-61300000D03*
%TD*%
D60*
%TO.C,Q704*%
X116520000Y-95170000D03*
D61*
X117070000Y-96360000D03*
D60*
X116520000Y-96440000D03*
X116520000Y-97710000D03*
D62*
X116820000Y-98980000D03*
D63*
X122520000Y-95170000D03*
X122520000Y-96440000D03*
D64*
X120245000Y-97075000D03*
D63*
X122520000Y-97710000D03*
X122520000Y-98980000D03*
%TD*%
D65*
%TO.C,C612*%
X212075000Y-94550000D03*
X210175000Y-94550000D03*
%TD*%
D66*
%TO.C,C404*%
X189275000Y-75025000D03*
X189275000Y-73475000D03*
%TD*%
D17*
%TO.C,TP810*%
X164025000Y-100500000D03*
%TD*%
D26*
%TO.C,R722*%
X150310000Y-101450000D03*
X149290000Y-101450000D03*
%TD*%
D17*
%TO.C,TP808*%
X166621322Y-91752920D03*
%TD*%
D67*
%TO.C,R607*%
X209475000Y-90725000D03*
X207825000Y-90725000D03*
%TD*%
D50*
%TO.C,R403*%
X184525000Y-73260000D03*
X184525000Y-72240000D03*
%TD*%
D26*
%TO.C,R812*%
X167285000Y-85250000D03*
X166265000Y-85250000D03*
%TD*%
D14*
%TO.C,C411*%
X187775000Y-71725000D03*
X187775000Y-73275000D03*
%TD*%
D17*
%TO.C,TP813*%
X179775000Y-77000000D03*
%TD*%
%TO.C,TP405*%
X195186782Y-73341892D03*
%TD*%
%TO.C,TP703*%
X126500000Y-120900000D03*
%TD*%
%TO.C,TP801*%
X184775000Y-101750000D03*
%TD*%
D26*
%TO.C,R404*%
X194035000Y-64000000D03*
X193015000Y-64000000D03*
%TD*%
D17*
%TO.C,TP701*%
X139750000Y-95750000D03*
%TD*%
D68*
%TO.C,IC601*%
X206200000Y-96250000D03*
D69*
X203700000Y-97500000D03*
X203700000Y-97000000D03*
X203700000Y-96500000D03*
X203700000Y-96000000D03*
X203700000Y-95500000D03*
X203700000Y-95000000D03*
D70*
X204450000Y-94250000D03*
X204950000Y-94250000D03*
X205450000Y-94250000D03*
X205950000Y-94250000D03*
X206450000Y-94250000D03*
X206950000Y-94250000D03*
X207450000Y-94250000D03*
X207950000Y-94250000D03*
D69*
X208700000Y-95000000D03*
X208700000Y-95500000D03*
X208700000Y-96000000D03*
X208700000Y-96500000D03*
X208700000Y-97000000D03*
X208700000Y-97500000D03*
D70*
X207950000Y-98250000D03*
X207450000Y-98250000D03*
X206950000Y-98250000D03*
X206450000Y-98250000D03*
X205950000Y-98250000D03*
X205450000Y-98250000D03*
X204950000Y-98250000D03*
X204450000Y-98250000D03*
%TD*%
D71*
%TO.C,C808*%
X170000000Y-90750000D03*
X171550000Y-90750000D03*
%TD*%
D72*
%TO.C,D1002*%
X202075000Y-68050000D03*
D73*
X203775000Y-68050000D03*
X203775000Y-66050000D03*
X201875000Y-66050000D03*
%TD*%
D17*
%TO.C,TP421*%
X145050000Y-103800000D03*
%TD*%
D36*
%TO.C,C412*%
X189025000Y-71320000D03*
X189025000Y-72280000D03*
%TD*%
D74*
%TO.C,D701*%
X130350000Y-104250000D03*
X133250000Y-104250000D03*
%TD*%
D13*
%TO.C,R604*%
X208265000Y-83050000D03*
X209285000Y-83050000D03*
%TD*%
%TO.C,R711*%
X145690000Y-100400000D03*
X146710000Y-100400000D03*
%TD*%
D34*
%TO.C,R806*%
X172925000Y-74750000D03*
X176025000Y-74750000D03*
%TD*%
D75*
%TO.C,C405*%
X190505000Y-75230000D03*
X190505000Y-74270000D03*
%TD*%
D36*
%TO.C,C713*%
X140400000Y-109820000D03*
X140400000Y-110780000D03*
%TD*%
D21*
%TO.C,R1004*%
X175250000Y-56190000D03*
X175250000Y-57210000D03*
%TD*%
D33*
%TO.C,R807*%
X172275000Y-89075000D03*
X172275000Y-87425000D03*
%TD*%
D13*
%TO.C,R717*%
X145690000Y-101400000D03*
X146710000Y-101400000D03*
%TD*%
D50*
%TO.C,R713*%
X144700000Y-101360000D03*
X144700000Y-100340000D03*
%TD*%
D66*
%TO.C,C1204*%
X121512500Y-58075000D03*
X121512500Y-56525000D03*
%TD*%
D76*
%TO.C,Q801*%
X176425000Y-100405000D03*
D77*
X179975000Y-102310000D03*
X179975000Y-101040000D03*
X179975000Y-99770000D03*
X179975000Y-98500000D03*
%TD*%
D36*
%TO.C,C711*%
X137225000Y-100970000D03*
X137225000Y-101930000D03*
%TD*%
%TO.C,C803*%
X175237000Y-92920000D03*
X175237000Y-93880000D03*
%TD*%
D13*
%TO.C,R1011*%
X199515000Y-67550000D03*
X200535000Y-67550000D03*
%TD*%
D50*
%TO.C,R816*%
X165275000Y-92760000D03*
X165275000Y-91740000D03*
%TD*%
D67*
%TO.C,R608*%
X211725000Y-98300000D03*
X210075000Y-98300000D03*
%TD*%
D13*
%TO.C,R1102*%
X197515000Y-63000000D03*
X198535000Y-63000000D03*
%TD*%
D33*
%TO.C,R804*%
X175625000Y-96825000D03*
X175625000Y-95175000D03*
%TD*%
D21*
%TO.C,R802*%
X179775000Y-110680000D03*
X179775000Y-111700000D03*
%TD*%
D17*
%TO.C,TP712*%
X144650000Y-103100000D03*
%TD*%
D13*
%TO.C,R715*%
X144690000Y-107600000D03*
X145710000Y-107600000D03*
%TD*%
D26*
%TO.C,R721*%
X148250000Y-107950000D03*
X147230000Y-107950000D03*
%TD*%
D75*
%TO.C,C413*%
X193125000Y-76480000D03*
X193125000Y-75520000D03*
%TD*%
D78*
%TO.C,U401*%
X191175000Y-72100000D03*
X191575000Y-72100000D03*
X191975000Y-72100000D03*
X192375000Y-72100000D03*
X192775000Y-72100000D03*
X193175000Y-72100000D03*
X193575000Y-72100000D03*
X193975000Y-72100000D03*
X194375000Y-72100000D03*
X194775000Y-72100000D03*
X195175000Y-72100000D03*
X195575000Y-72100000D03*
X195975000Y-72100000D03*
X196375000Y-72100000D03*
D79*
X197225000Y-71250000D03*
X197225000Y-70850000D03*
X197225000Y-70450000D03*
X197225000Y-70050000D03*
X197225000Y-69650000D03*
X197225000Y-69250000D03*
X197225000Y-68850000D03*
X197225000Y-68450000D03*
X197225000Y-68050000D03*
X197225000Y-67650000D03*
X197225000Y-67250000D03*
X197225000Y-66850000D03*
X197225000Y-66450000D03*
X197225000Y-66050000D03*
D78*
X196375000Y-65200000D03*
X195975000Y-65200000D03*
X195575000Y-65200000D03*
X195175000Y-65200000D03*
X194775000Y-65200000D03*
X194375000Y-65200000D03*
X193975000Y-65200000D03*
X193575000Y-65200000D03*
X193175000Y-65200000D03*
X192775000Y-65200000D03*
X192375000Y-65200000D03*
X191975000Y-65200000D03*
X191575000Y-65200000D03*
X191175000Y-65200000D03*
D79*
X190325000Y-66050000D03*
X190325000Y-66450000D03*
X190325000Y-66850000D03*
X190325000Y-67250000D03*
X190325000Y-67650000D03*
X190325000Y-68050000D03*
X190325000Y-68450000D03*
X190325000Y-68850000D03*
X190325000Y-69250000D03*
X190325000Y-69650000D03*
X190325000Y-70050000D03*
X190325000Y-70450000D03*
X190325000Y-70850000D03*
X190325000Y-71250000D03*
D80*
X193775000Y-68650000D03*
%TD*%
D17*
%TO.C,TP413*%
X208775000Y-78250000D03*
%TD*%
D12*
%TO.C,C716*%
X142000000Y-99800000D03*
X142960000Y-99800000D03*
%TD*%
D17*
%TO.C,TP713*%
X134250000Y-103950000D03*
%TD*%
D13*
%TO.C,R719*%
X149290000Y-102600000D03*
X150310000Y-102600000D03*
%TD*%
D81*
%TO.C,D501*%
X163600000Y-104800000D03*
X168000000Y-104800000D03*
%TD*%
D71*
%TO.C,C608*%
X206400000Y-89200000D03*
X204850000Y-89200000D03*
%TD*%
D82*
%TO.C,D1001*%
X177150000Y-58800000D03*
X176200000Y-58800000D03*
X175250000Y-58800000D03*
X175250000Y-61400000D03*
X176200000Y-61400000D03*
X177150000Y-61400000D03*
%TD*%
D11*
%TO.C,C406*%
X191485000Y-73250000D03*
X190525000Y-73250000D03*
%TD*%
D83*
%TO.C,C403*%
X189775000Y-76900000D03*
X186825000Y-76900000D03*
%TD*%
D17*
%TO.C,TP416*%
X209775000Y-78250000D03*
%TD*%
D13*
%TO.C,R1101*%
X201265000Y-60750000D03*
X202285000Y-60750000D03*
%TD*%
D42*
%TO.C,R1203*%
X209850000Y-115000000D03*
X208200000Y-115000000D03*
%TD*%
D84*
%TO.C,LED601*%
X203675000Y-84000000D03*
X200875000Y-84000000D03*
%TD*%
D26*
%TO.C,R601*%
X204935000Y-91900000D03*
X203915000Y-91900000D03*
%TD*%
D85*
%TO.C,LED801*%
X179775000Y-123000000D03*
X179775000Y-120200000D03*
%TD*%
D86*
%TO.C,R808*%
X203275000Y-112987500D03*
X203275000Y-117612500D03*
%TD*%
D11*
%TO.C,C402*%
X196005000Y-64000000D03*
X195045000Y-64000000D03*
%TD*%
D36*
%TO.C,C805*%
X155775000Y-97270000D03*
X155775000Y-98230000D03*
%TD*%
D17*
%TO.C,TP718*%
X128225000Y-103925000D03*
%TD*%
D87*
%TO.C,D503*%
X133600000Y-67700000D03*
X133600000Y-72100000D03*
%TD*%
D12*
%TO.C,C718*%
X143470000Y-108600000D03*
X144430000Y-108600000D03*
%TD*%
D36*
%TO.C,C613*%
X202550000Y-97680000D03*
X202550000Y-96720000D03*
%TD*%
D42*
%TO.C,R703*%
X124425000Y-120900000D03*
X122775000Y-120900000D03*
%TD*%
D45*
%TO.C,H1201*%
X207427944Y-58447056D03*
X208130888Y-56750000D03*
X208130888Y-60144112D03*
X209827944Y-56047056D03*
D46*
X209827944Y-58447056D03*
D45*
X209827944Y-60847056D03*
X211525000Y-56750000D03*
X211525000Y-60144112D03*
X212227944Y-58447056D03*
%TD*%
D75*
%TO.C,C712*%
X144400000Y-91550000D03*
X144400000Y-90590000D03*
%TD*%
D88*
%TO.C,R702*%
X140400000Y-93362500D03*
X140400000Y-88737500D03*
%TD*%
D11*
%TO.C,C606*%
X201420000Y-95750000D03*
X202380000Y-95750000D03*
%TD*%
D89*
%TO.C,R809*%
X173775000Y-87425000D03*
X173775000Y-89075000D03*
%TD*%
D90*
%TO.C,J701*%
X205444700Y-107250001D03*
X205444700Y-105249999D03*
D91*
X211194701Y-109600001D03*
X211194701Y-102899999D03*
%TD*%
D11*
%TO.C,C801*%
X169255000Y-98000000D03*
X168295000Y-98000000D03*
%TD*%
D16*
%TO.C,C610*%
X210800000Y-85500000D03*
X212700000Y-85500000D03*
%TD*%
D17*
%TO.C,TP714*%
X136200000Y-104400000D03*
%TD*%
%TO.C,TP406*%
X197025000Y-74000000D03*
%TD*%
D42*
%TO.C,R1202*%
X116525000Y-115250000D03*
X114875000Y-115250000D03*
%TD*%
D75*
%TO.C,C408*%
X189025000Y-66480000D03*
X189025000Y-65520000D03*
%TD*%
D17*
%TO.C,TP812*%
X170875000Y-87600000D03*
%TD*%
D92*
%TO.C,L601*%
X206250000Y-92812500D03*
X206250000Y-90687500D03*
%TD*%
D35*
%TO.C,C609*%
X207875000Y-89200000D03*
X209425000Y-89200000D03*
%TD*%
D85*
%TO.C,LED802*%
X203275000Y-123000000D03*
X203275000Y-120200000D03*
%TD*%
D17*
%TO.C,TP809*%
X165269862Y-82987702D03*
%TD*%
D93*
%TO.C,C707*%
X140200000Y-83975000D03*
X140200000Y-77025000D03*
%TD*%
D94*
%TO.C,D803*%
X173900000Y-82850000D03*
X173900000Y-85650000D03*
%TD*%
D95*
%TO.C,J1001*%
X167855000Y-56940000D03*
X171925000Y-56940000D03*
X167855000Y-58210000D03*
X171925000Y-58210000D03*
X167855000Y-59480000D03*
X171925000Y-59480000D03*
X167855000Y-60750000D03*
X171925000Y-60750000D03*
X167855000Y-62020000D03*
X171925000Y-62020000D03*
X167855000Y-63290000D03*
X171925000Y-63290000D03*
X167855000Y-64560000D03*
X171925000Y-64560000D03*
%TD*%
D17*
%TO.C,TP423*%
X199050000Y-73250000D03*
%TD*%
D24*
%TO.C,J502*%
X128850000Y-82500000D03*
X128850000Y-89700000D03*
D96*
X122850000Y-92850000D03*
X122850000Y-79350000D03*
%TD*%
D51*
%TO.C,S401*%
X196025000Y-76000000D03*
D52*
X194325000Y-76000000D03*
X197725000Y-76000000D03*
D53*
X196025000Y-74350000D03*
%TD*%
D12*
%TO.C,C804*%
X173275000Y-81500000D03*
X174235000Y-81500000D03*
%TD*%
D17*
%TO.C,TP418*%
X193025000Y-63000000D03*
%TD*%
%TO.C,TP417*%
X193015000Y-61499000D03*
%TD*%
D21*
%TO.C,R705*%
X139400000Y-109800000D03*
X139400000Y-110820000D03*
%TD*%
D26*
%TO.C,R1014*%
X190410000Y-61700000D03*
X189390000Y-61700000D03*
%TD*%
D97*
%TO.C,C701*%
X153000000Y-115475000D03*
X153000000Y-122425000D03*
%TD*%
D13*
%TO.C,R720*%
X149230000Y-107950000D03*
X150250000Y-107950000D03*
%TD*%
D17*
%TO.C,TP419*%
X193094792Y-74257270D03*
%TD*%
D98*
%TO.C,IC802*%
X166851000Y-80500000D03*
X166851000Y-81000000D03*
X166851000Y-81500000D03*
X166851000Y-82000000D03*
X166851000Y-82500000D03*
X166851000Y-83000000D03*
X166851000Y-83500000D03*
X166851000Y-84000000D03*
X171275000Y-84000000D03*
X171275000Y-83500000D03*
X171275000Y-83000000D03*
X171275000Y-82500000D03*
X171275000Y-82000000D03*
X171275000Y-81500000D03*
X171275000Y-81000000D03*
X171275000Y-80500000D03*
D99*
X169063000Y-82250000D03*
%TD*%
D17*
%TO.C,TP804*%
X164965401Y-84308599D03*
%TD*%
D60*
%TO.C,Q701*%
X123270000Y-115420000D03*
D61*
X123820000Y-116610000D03*
D60*
X123270000Y-116690000D03*
X123270000Y-117960000D03*
D62*
X123570000Y-119230000D03*
D63*
X129270000Y-115420000D03*
X129270000Y-116690000D03*
D64*
X126995000Y-117325000D03*
D63*
X129270000Y-117960000D03*
X129270000Y-119230000D03*
%TD*%
D60*
%TO.C,Q702*%
X126027000Y-95165000D03*
D61*
X126577000Y-96355000D03*
D60*
X126027000Y-96435000D03*
X126027000Y-97705000D03*
D62*
X126327000Y-98975000D03*
D63*
X132027000Y-95165000D03*
X132027000Y-96435000D03*
D64*
X129752000Y-97070000D03*
D63*
X132027000Y-97705000D03*
X132027000Y-98975000D03*
%TD*%
D100*
%TO.C,Q703*%
X131822500Y-106877000D03*
D101*
X130632500Y-107427000D03*
D100*
X130552500Y-106877000D03*
X129282500Y-106877000D03*
D102*
X128012500Y-107177000D03*
D103*
X131822500Y-112877000D03*
X130552500Y-112877000D03*
D104*
X129917500Y-110602000D03*
D103*
X129282500Y-112877000D03*
X128012500Y-112877000D03*
%TD*%
D21*
%TO.C,R405*%
X182400000Y-59740000D03*
X182400000Y-60760000D03*
%TD*%
D17*
%TO.C,TP702*%
X136750000Y-88250000D03*
%TD*%
%TO.C,TP415*%
X206775000Y-78250000D03*
%TD*%
D105*
%TO.C,FB601*%
X200062500Y-89650000D03*
X201887500Y-89650000D03*
%TD*%
D13*
%TO.C,R603*%
X208265000Y-81100000D03*
X209285000Y-81100000D03*
%TD*%
D17*
%TO.C,TP411*%
X145741685Y-105525000D03*
%TD*%
D26*
%TO.C,R1006*%
X178750000Y-57200000D03*
X177730000Y-57200000D03*
%TD*%
D17*
%TO.C,TP404*%
X181100000Y-57350000D03*
%TD*%
D106*
%TO.C,C604*%
X199700000Y-91800000D03*
X202650000Y-91800000D03*
%TD*%
D17*
%TO.C,TP410*%
X153141442Y-101135024D03*
%TD*%
D26*
%TO.C,R1002*%
X177310000Y-63200000D03*
X176290000Y-63200000D03*
%TD*%
D75*
%TO.C,C901*%
X176225000Y-71980000D03*
X176225000Y-71020000D03*
%TD*%
D33*
%TO.C,R710*%
X115150000Y-100425000D03*
X115150000Y-98775000D03*
%TD*%
D107*
%TO.C,L401*%
X191505000Y-75250000D03*
X191505000Y-74280000D03*
%TD*%
D97*
%TO.C,C702*%
X143750000Y-115475000D03*
X143750000Y-122425000D03*
%TD*%
D98*
%TO.C,IC801*%
X169063000Y-92250000D03*
X169063000Y-92750000D03*
X169063000Y-93250000D03*
X169063000Y-93750000D03*
X169063000Y-94250000D03*
X169063000Y-94750000D03*
X169063000Y-95250000D03*
X169063000Y-95750000D03*
X173487000Y-95750000D03*
X173487000Y-95250000D03*
X173487000Y-94750000D03*
X173487000Y-94250000D03*
X173487000Y-93750000D03*
X173487000Y-93250000D03*
X173487000Y-92750000D03*
X173487000Y-92250000D03*
D99*
X171275000Y-94000000D03*
%TD*%
D17*
%TO.C,TP1002*%
X200275000Y-62750000D03*
%TD*%
D86*
%TO.C,R803*%
X179775000Y-113087500D03*
X179775000Y-117712500D03*
%TD*%
D97*
%TO.C,C703*%
X134450000Y-115475000D03*
X134450000Y-122425000D03*
%TD*%
D13*
%TO.C,R606*%
X208215000Y-79450000D03*
X209235000Y-79450000D03*
%TD*%
%TO.C,R1103*%
X198515000Y-64250000D03*
X199535000Y-64250000D03*
%TD*%
D17*
%TO.C,TP806*%
X165275707Y-90499293D03*
%TD*%
%TO.C,TP715*%
X134350000Y-106000000D03*
%TD*%
%TO.C,TP814*%
X170875000Y-87600000D03*
%TD*%
D13*
%TO.C,R814*%
X173265000Y-80500000D03*
X174285000Y-80500000D03*
%TD*%
D66*
%TO.C,C1201*%
X205525000Y-59775000D03*
X205525000Y-58225000D03*
%TD*%
D50*
%TO.C,R609*%
X209575000Y-92040000D03*
X209575000Y-93060000D03*
%TD*%
D11*
%TO.C,C1001*%
X169755000Y-67000000D03*
X168795000Y-67000000D03*
%TD*%
D50*
%TO.C,R815*%
X165275000Y-95010000D03*
X165275000Y-93990000D03*
%TD*%
D26*
%TO.C,R820*%
X171385000Y-85250000D03*
X170365000Y-85250000D03*
%TD*%
D108*
%TO.C,J1003*%
X185905000Y-56710000D03*
D109*
X185905000Y-59250000D03*
X188445000Y-56710000D03*
X188445000Y-59250000D03*
X190985000Y-56710000D03*
X190985000Y-59250000D03*
X193525000Y-56710000D03*
X193525000Y-59250000D03*
%TD*%
D12*
%TO.C,C1003*%
X201295000Y-64250000D03*
X202255000Y-64250000D03*
%TD*%
D17*
%TO.C,TP815*%
X164773000Y-87750000D03*
%TD*%
D26*
%TO.C,R813*%
X174860000Y-91150000D03*
X173840000Y-91150000D03*
%TD*%
D35*
%TO.C,C810*%
X164300000Y-80900000D03*
X162750000Y-80900000D03*
%TD*%
D110*
%TO.C,D802*%
X176975000Y-93250000D03*
X176975000Y-90450000D03*
%TD*%
D74*
%TO.C,D702*%
X130350000Y-101900000D03*
X133250000Y-101900000D03*
%TD*%
D75*
%TO.C,C806*%
X164275000Y-97980000D03*
X164275000Y-97020000D03*
%TD*%
%TO.C,C710*%
X136925000Y-106730000D03*
X136925000Y-105770000D03*
%TD*%
D17*
%TO.C,TP805*%
X178874293Y-97499293D03*
%TD*%
D65*
%TO.C,C605*%
X202200000Y-93950000D03*
X200300000Y-93950000D03*
%TD*%
D17*
%TO.C,TP708*%
X120250000Y-115500000D03*
%TD*%
D26*
%TO.C,R407*%
X150310000Y-100450000D03*
X149290000Y-100450000D03*
%TD*%
%TO.C,R811*%
X168275000Y-91000000D03*
X167255000Y-91000000D03*
%TD*%
D17*
%TO.C,TP414*%
X207775000Y-78250000D03*
%TD*%
D59*
%TO.C,LED701*%
X147712500Y-104200000D03*
X149587500Y-104200000D03*
%TD*%
D71*
%TO.C,C717*%
X142425000Y-110150000D03*
X143975000Y-110150000D03*
%TD*%
D36*
%TO.C,C902*%
X176225000Y-69040000D03*
X176225000Y-70000000D03*
%TD*%
D50*
%TO.C,R714*%
X136900000Y-104360000D03*
X136900000Y-103340000D03*
%TD*%
D35*
%TO.C,C1202*%
X116475000Y-116750000D03*
X114925000Y-116750000D03*
%TD*%
D83*
%TO.C,C705*%
X136600000Y-99150000D03*
X133650000Y-99150000D03*
%TD*%
D111*
%TO.C,C719*%
X135150000Y-103150000D03*
X135150000Y-101250000D03*
%TD*%
D65*
%TO.C,C603*%
X200025000Y-87700000D03*
X201925000Y-87700000D03*
%TD*%
D112*
%TO.C,Q802*%
X192125000Y-99550000D03*
D113*
X188575000Y-97645000D03*
X188575000Y-98915000D03*
X188575000Y-100185000D03*
X188575000Y-101455000D03*
%TD*%
D41*
%TO.C,C706*%
X145550000Y-95500000D03*
X152500000Y-95500000D03*
%TD*%
D114*
%TO.C,LED1101*%
X200875000Y-58500000D03*
X203675000Y-58500000D03*
%TD*%
D17*
%TO.C,TP704*%
X135350000Y-110900000D03*
%TD*%
D13*
%TO.C,R1012*%
X199515000Y-66550000D03*
X200535000Y-66550000D03*
%TD*%
D17*
%TO.C,TP601*%
X194278632Y-90248575D03*
%TD*%
D13*
%TO.C,R716*%
X145690000Y-102450000D03*
X146710000Y-102450000D03*
%TD*%
%TO.C,R408*%
X191190000Y-76500000D03*
X192210000Y-76500000D03*
%TD*%
D115*
%TO.C,D801*%
X158437500Y-91275000D03*
D116*
X161512500Y-91275000D03*
D117*
X158437500Y-88075000D03*
D118*
X161512500Y-88075000D03*
D119*
X157675000Y-96400000D03*
X162375000Y-96400000D03*
%TD*%
D45*
%TO.C,H1204*%
X114847056Y-58497056D03*
X115550000Y-56800000D03*
X115550000Y-60194112D03*
X117247056Y-56097056D03*
D46*
X117247056Y-58497056D03*
D45*
X117247056Y-60897056D03*
X118944112Y-56800000D03*
X118944112Y-60194112D03*
X119647056Y-58497056D03*
%TD*%
D17*
%TO.C,TP603*%
X210675000Y-95800000D03*
%TD*%
M02*
