%TF.GenerationSoftware,KiCad,Pcbnew,8.0.5*%
%TF.CreationDate,2024-12-17T17:43:05+01:00*%
%TF.ProjectId,ElonMux,456c6f6e-4d75-4782-9e6b-696361645f70,1.1*%
%TF.SameCoordinates,Original*%
%TF.FileFunction,Paste,Top*%
%TF.FilePolarity,Positive*%
%FSLAX46Y46*%
G04 Gerber Fmt 4.6, Leading zero omitted, Abs format (unit mm)*
G04 Created by KiCad (PCBNEW 8.0.5) date 2024-12-17 17:43:05*
%MOMM*%
%LPD*%
G01*
G04 APERTURE LIST*
G04 Aperture macros list*
%AMRoundRect*
0 Rectangle with rounded corners*
0 $1 Rounding radius*
0 $2 $3 $4 $5 $6 $7 $8 $9 X,Y pos of 4 corners*
0 Add a 4 corners polygon primitive as box body*
4,1,4,$2,$3,$4,$5,$6,$7,$8,$9,$2,$3,0*
0 Add four circle primitives for the rounded corners*
1,1,$1+$1,$2,$3*
1,1,$1+$1,$4,$5*
1,1,$1+$1,$6,$7*
1,1,$1+$1,$8,$9*
0 Add four rect primitives between the rounded corners*
20,1,$1+$1,$2,$3,$4,$5,0*
20,1,$1+$1,$4,$5,$6,$7,0*
20,1,$1+$1,$6,$7,$8,$9,0*
20,1,$1+$1,$8,$9,$2,$3,0*%
G04 Aperture macros list end*
%ADD10C,0.100000*%
%ADD11RoundRect,0.140000X0.140000X0.170000X-0.140000X0.170000X-0.140000X-0.170000X0.140000X-0.170000X0*%
%ADD12RoundRect,0.140000X-0.140000X-0.170000X0.140000X-0.170000X0.140000X0.170000X-0.140000X0.170000X0*%
%ADD13RoundRect,0.135000X-0.135000X-0.185000X0.135000X-0.185000X0.135000X0.185000X-0.135000X0.185000X0*%
%ADD14RoundRect,0.225000X-0.250000X0.225000X-0.250000X-0.225000X0.250000X-0.225000X0.250000X0.225000X0*%
%ADD15RoundRect,0.150000X0.150000X-0.512500X0.150000X0.512500X-0.150000X0.512500X-0.150000X-0.512500X0*%
%ADD16RoundRect,0.250000X0.250000X0.475000X-0.250000X0.475000X-0.250000X-0.475000X0.250000X-0.475000X0*%
%ADD17RoundRect,0.250000X0.362500X1.075000X-0.362500X1.075000X-0.362500X-1.075000X0.362500X-1.075000X0*%
%ADD18RoundRect,0.250000X0.650000X-0.325000X0.650000X0.325000X-0.650000X0.325000X-0.650000X-0.325000X0*%
%ADD19RoundRect,0.135000X-0.185000X0.135000X-0.185000X-0.135000X0.185000X-0.135000X0.185000X0.135000X0*%
%ADD20RoundRect,0.135000X0.135000X0.185000X-0.135000X0.185000X-0.135000X-0.185000X0.135000X-0.185000X0*%
%ADD21R,1.150000X0.600000*%
%ADD22R,1.150000X0.300000*%
%ADD23RoundRect,0.375000X0.375000X-0.375000X0.375000X0.375000X-0.375000X0.375000X-0.375000X-0.375000X0*%
%ADD24RoundRect,0.125000X0.125000X-0.250000X0.125000X0.250000X-0.125000X0.250000X-0.125000X-0.250000X0*%
%ADD25RoundRect,0.100000X0.100000X-0.275000X0.100000X0.275000X-0.100000X0.275000X-0.100000X-0.275000X0*%
%ADD26RoundRect,0.147500X-0.147500X-0.172500X0.147500X-0.172500X0.147500X0.172500X-0.147500X0.172500X0*%
%ADD27RoundRect,0.200000X0.275000X-0.200000X0.275000X0.200000X-0.275000X0.200000X-0.275000X-0.200000X0*%
%ADD28RoundRect,0.250000X-0.400000X-0.625000X0.400000X-0.625000X0.400000X0.625000X-0.400000X0.625000X0*%
%ADD29RoundRect,0.225000X0.225000X0.250000X-0.225000X0.250000X-0.225000X-0.250000X0.225000X-0.250000X0*%
%ADD30RoundRect,0.140000X-0.170000X0.140000X-0.170000X-0.140000X0.170000X-0.140000X0.170000X0.140000X0*%
%ADD31RoundRect,0.232500X0.252500X0.232500X-0.252500X0.232500X-0.252500X-0.232500X0.252500X-0.232500X0*%
%ADD32RoundRect,0.062500X0.375000X0.062500X-0.375000X0.062500X-0.375000X-0.062500X0.375000X-0.062500X0*%
%ADD33RoundRect,0.062500X0.062500X0.375000X-0.062500X0.375000X-0.062500X-0.375000X0.062500X-0.375000X0*%
%ADD34R,0.600000X1.250000*%
%ADD35RoundRect,0.250000X-1.825000X-0.700000X1.825000X-0.700000X1.825000X0.700000X-1.825000X0.700000X0*%
%ADD36RoundRect,0.200000X0.200000X0.275000X-0.200000X0.275000X-0.200000X-0.275000X0.200000X-0.275000X0*%
%ADD37R,2.150000X2.200000*%
%ADD38RoundRect,0.250000X0.450000X-0.350000X0.450000X0.350000X-0.450000X0.350000X-0.450000X-0.350000X0*%
%ADD39R,1.400000X0.300000*%
%ADD40R,2.200000X2.150000*%
%ADD41RoundRect,0.135000X0.185000X-0.135000X0.185000X0.135000X-0.185000X0.135000X-0.185000X-0.135000X0*%
%ADD42R,0.800000X1.700000*%
%ADD43R,0.800000X1.100000*%
%ADD44RoundRect,0.250000X-0.475000X0.250000X-0.475000X-0.250000X0.475000X-0.250000X0.475000X0.250000X0*%
%ADD45R,1.100000X1.300000*%
%ADD46R,9.000000X2.500000*%
%ADD47RoundRect,0.250000X-0.650000X0.325000X-0.650000X-0.325000X0.650000X-0.325000X0.650000X0.325000X0*%
%ADD48RoundRect,0.250000X0.262500X0.450000X-0.262500X0.450000X-0.262500X-0.450000X0.262500X-0.450000X0*%
%ADD49RoundRect,0.243750X-0.243750X-0.456250X0.243750X-0.456250X0.243750X0.456250X-0.243750X0.456250X0*%
%ADD50RoundRect,0.250000X-0.250000X-0.475000X0.250000X-0.475000X0.250000X0.475000X-0.250000X0.475000X0*%
%ADD51RoundRect,0.225000X0.250000X-0.225000X0.250000X0.225000X-0.250000X0.225000X-0.250000X-0.225000X0*%
%ADD52RoundRect,0.200000X-0.200000X-0.275000X0.200000X-0.275000X0.200000X0.275000X-0.200000X0.275000X0*%
%ADD53R,3.750000X2.750000*%
%ADD54R,0.800000X0.300000*%
%ADD55R,0.300000X0.800000*%
%ADD56RoundRect,0.225000X-0.225000X-0.250000X0.225000X-0.250000X0.225000X0.250000X-0.225000X0.250000X0*%
%ADD57RoundRect,0.175000X0.325000X-0.175000X0.325000X0.175000X-0.325000X0.175000X-0.325000X-0.175000X0*%
%ADD58RoundRect,0.150000X0.150000X-0.200000X0.150000X0.200000X-0.150000X0.200000X-0.150000X-0.200000X0*%
%ADD59RoundRect,0.250000X-0.400000X-0.450000X0.400000X-0.450000X0.400000X0.450000X-0.400000X0.450000X0*%
%ADD60RoundRect,0.140000X0.170000X-0.140000X0.170000X0.140000X-0.170000X0.140000X-0.170000X-0.140000X0*%
%ADD61RoundRect,0.375000X0.375000X0.375000X-0.375000X0.375000X-0.375000X-0.375000X0.375000X-0.375000X0*%
%ADD62RoundRect,0.125000X0.250000X0.125000X-0.250000X0.125000X-0.250000X-0.125000X0.250000X-0.125000X0*%
%ADD63RoundRect,0.100000X0.275000X0.100000X-0.275000X0.100000X-0.275000X-0.100000X0.275000X-0.100000X0*%
%ADD64RoundRect,0.250000X0.285000X-0.285000X0.285000X0.285000X-0.285000X0.285000X-0.285000X-0.285000X0*%
%ADD65RoundRect,0.050000X0.050000X-0.350000X0.050000X0.350000X-0.050000X0.350000X-0.050000X-0.350000X0*%
%ADD66RoundRect,0.050000X0.350000X-0.050000X0.350000X0.050000X-0.350000X0.050000X-0.350000X-0.050000X0*%
%ADD67R,0.600000X1.150000*%
%ADD68RoundRect,0.250000X0.325000X0.650000X-0.325000X0.650000X-0.325000X-0.650000X0.325000X-0.650000X0*%
%ADD69RoundRect,0.250000X0.375000X0.625000X-0.375000X0.625000X-0.375000X-0.625000X0.375000X-0.625000X0*%
%ADD70RoundRect,0.250000X0.625000X-0.375000X0.625000X0.375000X-0.625000X0.375000X-0.625000X-0.375000X0*%
%ADD71RoundRect,0.250000X-1.075000X0.362500X-1.075000X-0.362500X1.075000X-0.362500X1.075000X0.362500X0*%
%ADD72RoundRect,0.250000X1.075000X-0.362500X1.075000X0.362500X-1.075000X0.362500X-1.075000X-0.362500X0*%
%ADD73RoundRect,0.200000X-0.275000X0.200000X-0.275000X-0.200000X0.275000X-0.200000X0.275000X0.200000X0*%
%ADD74R,3.505200X0.990600*%
%ADD75R,3.403600X1.498600*%
%ADD76RoundRect,0.218750X0.381250X-0.218750X0.381250X0.218750X-0.381250X0.218750X-0.381250X-0.218750X0*%
%ADD77RoundRect,0.250000X0.700000X-1.825000X0.700000X1.825000X-0.700000X1.825000X-0.700000X-1.825000X0*%
%ADD78R,1.200000X1.200000*%
%ADD79R,2.790000X0.740000*%
%ADD80RoundRect,0.250000X-0.700000X1.825000X-0.700000X-1.825000X0.700000X-1.825000X0.700000X1.825000X0*%
%ADD81R,1.425000X0.300000*%
%ADD82R,1.753000X2.947000*%
%ADD83RoundRect,0.250000X-0.262500X-0.450000X0.262500X-0.450000X0.262500X0.450000X-0.262500X0.450000X0*%
%ADD84RoundRect,0.250000X-0.325000X-0.650000X0.325000X-0.650000X0.325000X0.650000X-0.325000X0.650000X0*%
%ADD85RoundRect,0.147500X0.172500X-0.147500X0.172500X0.147500X-0.172500X0.147500X-0.172500X-0.147500X0*%
%ADD86RoundRect,0.250000X0.475000X-0.250000X0.475000X0.250000X-0.475000X0.250000X-0.475000X-0.250000X0*%
%ADD87RoundRect,0.375000X-0.375000X-0.375000X0.375000X-0.375000X0.375000X0.375000X-0.375000X0.375000X0*%
%ADD88RoundRect,0.125000X-0.250000X-0.125000X0.250000X-0.125000X0.250000X0.125000X-0.250000X0.125000X0*%
%ADD89RoundRect,0.100000X-0.275000X-0.100000X0.275000X-0.100000X0.275000X0.100000X-0.275000X0.100000X0*%
%ADD90RoundRect,0.250000X-0.375000X-0.625000X0.375000X-0.625000X0.375000X0.625000X-0.375000X0.625000X0*%
%ADD91RoundRect,0.593750X0.593750X-0.831250X0.593750X0.831250X-0.593750X0.831250X-0.593750X-0.831250X0*%
%ADD92RoundRect,0.643750X0.643750X-0.781250X0.643750X0.781250X-0.643750X0.781250X-0.643750X-0.781250X0*%
%ADD93RoundRect,0.593750X0.593750X-0.781250X0.593750X0.781250X-0.593750X0.781250X-0.593750X-0.781250X0*%
%ADD94RoundRect,0.643750X0.643750X-0.731250X0.643750X0.731250X-0.643750X0.731250X-0.643750X-0.731250X0*%
%ADD95R,1.000000X2.700000*%
G04 APERTURE END LIST*
%TO.C,Q704*%
D10*
X116620000Y-95020000D02*
X116370000Y-95020000D01*
X116370000Y-95320000D01*
X116620000Y-95320000D01*
X116620000Y-95020000D01*
G36*
X116620000Y-95020000D02*
G01*
X116370000Y-95020000D01*
X116370000Y-95320000D01*
X116620000Y-95320000D01*
X116620000Y-95020000D01*
G37*
X116620000Y-96290000D02*
X116370000Y-96290000D01*
X116370000Y-96590000D01*
X116620000Y-96590000D01*
X116620000Y-96290000D01*
G36*
X116620000Y-96290000D02*
G01*
X116370000Y-96290000D01*
X116370000Y-96590000D01*
X116620000Y-96590000D01*
X116620000Y-96290000D01*
G37*
X116620000Y-97560000D02*
X116370000Y-97560000D01*
X116370000Y-97860000D01*
X116620000Y-97860000D01*
X116620000Y-97560000D01*
G36*
X116620000Y-97560000D02*
G01*
X116370000Y-97560000D01*
X116370000Y-97860000D01*
X116620000Y-97860000D01*
X116620000Y-97560000D01*
G37*
X116670000Y-98830000D02*
X116370000Y-98830000D01*
X116370000Y-99130000D01*
X116670000Y-99130000D01*
X116670000Y-98830000D01*
G36*
X116670000Y-98830000D02*
G01*
X116370000Y-98830000D01*
X116370000Y-99130000D01*
X116670000Y-99130000D01*
X116670000Y-98830000D01*
G37*
X117255000Y-94860000D02*
X116905000Y-94860000D01*
X116905000Y-95660000D01*
X117255000Y-95660000D01*
X117255000Y-94860000D01*
G36*
X117255000Y-94860000D02*
G01*
X116905000Y-94860000D01*
X116905000Y-95660000D01*
X117255000Y-95660000D01*
X117255000Y-94860000D01*
G37*
X117255000Y-95960000D02*
X116905000Y-95960000D01*
X116905000Y-96760000D01*
X117255000Y-96760000D01*
X117255000Y-95960000D01*
G36*
X117255000Y-95960000D02*
G01*
X116905000Y-95960000D01*
X116905000Y-96760000D01*
X117255000Y-96760000D01*
X117255000Y-95960000D01*
G37*
X117260000Y-97060000D02*
X116910000Y-97060000D01*
X116910000Y-97860000D01*
X117260000Y-97860000D01*
X117260000Y-97060000D01*
G36*
X117260000Y-97060000D02*
G01*
X116910000Y-97060000D01*
X116910000Y-97860000D01*
X117260000Y-97860000D01*
X117260000Y-97060000D01*
G37*
X117270000Y-98830000D02*
X116970000Y-98830000D01*
X116970000Y-99130000D01*
X117270000Y-99130000D01*
X117270000Y-98830000D01*
G36*
X117270000Y-98830000D02*
G01*
X116970000Y-98830000D01*
X116970000Y-99130000D01*
X117270000Y-99130000D01*
X117270000Y-98830000D01*
G37*
X120095000Y-95405000D02*
X118595000Y-95405000D01*
X118595000Y-96905000D01*
X120095000Y-96905000D01*
X120095000Y-95405000D01*
G36*
X120095000Y-95405000D02*
G01*
X118595000Y-95405000D01*
X118595000Y-96905000D01*
X120095000Y-96905000D01*
X120095000Y-95405000D01*
G37*
X120095000Y-97205000D02*
X118595000Y-97205000D01*
X118595000Y-98705000D01*
X120095000Y-98705000D01*
X120095000Y-97205000D01*
G36*
X120095000Y-97205000D02*
G01*
X118595000Y-97205000D01*
X118595000Y-98705000D01*
X120095000Y-98705000D01*
X120095000Y-97205000D01*
G37*
X121895000Y-95405000D02*
X120395000Y-95405000D01*
X120395000Y-96905000D01*
X121895000Y-96905000D01*
X121895000Y-95405000D01*
G36*
X121895000Y-95405000D02*
G01*
X120395000Y-95405000D01*
X120395000Y-96905000D01*
X121895000Y-96905000D01*
X121895000Y-95405000D01*
G37*
X121895000Y-97205000D02*
X120395000Y-97205000D01*
X120395000Y-98705000D01*
X121895000Y-98705000D01*
X121895000Y-97205000D01*
G36*
X121895000Y-97205000D02*
G01*
X120395000Y-97205000D01*
X120395000Y-98705000D01*
X121895000Y-98705000D01*
X121895000Y-97205000D01*
G37*
X122820000Y-94970000D02*
X122170000Y-94970000D01*
X122170000Y-95370000D01*
X122820000Y-95370000D01*
X122820000Y-94970000D01*
G36*
X122820000Y-94970000D02*
G01*
X122170000Y-94970000D01*
X122170000Y-95370000D01*
X122820000Y-95370000D01*
X122820000Y-94970000D01*
G37*
X122820000Y-96240000D02*
X122170000Y-96240000D01*
X122170000Y-96640000D01*
X122820000Y-96640000D01*
X122820000Y-96240000D01*
G36*
X122820000Y-96240000D02*
G01*
X122170000Y-96240000D01*
X122170000Y-96640000D01*
X122820000Y-96640000D01*
X122820000Y-96240000D01*
G37*
X122820000Y-97510000D02*
X122170000Y-97510000D01*
X122170000Y-97910000D01*
X122820000Y-97910000D01*
X122820000Y-97510000D01*
G36*
X122820000Y-97510000D02*
G01*
X122170000Y-97510000D01*
X122170000Y-97910000D01*
X122820000Y-97910000D01*
X122820000Y-97510000D01*
G37*
X122820000Y-98780000D02*
X122170000Y-98780000D01*
X122170000Y-99180000D01*
X122820000Y-99180000D01*
X122820000Y-98780000D01*
G36*
X122820000Y-98780000D02*
G01*
X122170000Y-98780000D01*
X122170000Y-99180000D01*
X122820000Y-99180000D01*
X122820000Y-98780000D01*
G37*
%TO.C,Q701*%
X123370000Y-115270000D02*
X123120000Y-115270000D01*
X123120000Y-115570000D01*
X123370000Y-115570000D01*
X123370000Y-115270000D01*
G36*
X123370000Y-115270000D02*
G01*
X123120000Y-115270000D01*
X123120000Y-115570000D01*
X123370000Y-115570000D01*
X123370000Y-115270000D01*
G37*
X123370000Y-116540000D02*
X123120000Y-116540000D01*
X123120000Y-116840000D01*
X123370000Y-116840000D01*
X123370000Y-116540000D01*
G36*
X123370000Y-116540000D02*
G01*
X123120000Y-116540000D01*
X123120000Y-116840000D01*
X123370000Y-116840000D01*
X123370000Y-116540000D01*
G37*
X123370000Y-117810000D02*
X123120000Y-117810000D01*
X123120000Y-118110000D01*
X123370000Y-118110000D01*
X123370000Y-117810000D01*
G36*
X123370000Y-117810000D02*
G01*
X123120000Y-117810000D01*
X123120000Y-118110000D01*
X123370000Y-118110000D01*
X123370000Y-117810000D01*
G37*
X123420000Y-119080000D02*
X123120000Y-119080000D01*
X123120000Y-119380000D01*
X123420000Y-119380000D01*
X123420000Y-119080000D01*
G36*
X123420000Y-119080000D02*
G01*
X123120000Y-119080000D01*
X123120000Y-119380000D01*
X123420000Y-119380000D01*
X123420000Y-119080000D01*
G37*
X124005000Y-115110000D02*
X123655000Y-115110000D01*
X123655000Y-115910000D01*
X124005000Y-115910000D01*
X124005000Y-115110000D01*
G36*
X124005000Y-115110000D02*
G01*
X123655000Y-115110000D01*
X123655000Y-115910000D01*
X124005000Y-115910000D01*
X124005000Y-115110000D01*
G37*
X124005000Y-116210000D02*
X123655000Y-116210000D01*
X123655000Y-117010000D01*
X124005000Y-117010000D01*
X124005000Y-116210000D01*
G36*
X124005000Y-116210000D02*
G01*
X123655000Y-116210000D01*
X123655000Y-117010000D01*
X124005000Y-117010000D01*
X124005000Y-116210000D01*
G37*
X124010000Y-117310000D02*
X123660000Y-117310000D01*
X123660000Y-118110000D01*
X124010000Y-118110000D01*
X124010000Y-117310000D01*
G36*
X124010000Y-117310000D02*
G01*
X123660000Y-117310000D01*
X123660000Y-118110000D01*
X124010000Y-118110000D01*
X124010000Y-117310000D01*
G37*
X124020000Y-119080000D02*
X123720000Y-119080000D01*
X123720000Y-119380000D01*
X124020000Y-119380000D01*
X124020000Y-119080000D01*
G36*
X124020000Y-119080000D02*
G01*
X123720000Y-119080000D01*
X123720000Y-119380000D01*
X124020000Y-119380000D01*
X124020000Y-119080000D01*
G37*
X126845000Y-115655000D02*
X125345000Y-115655000D01*
X125345000Y-117155000D01*
X126845000Y-117155000D01*
X126845000Y-115655000D01*
G36*
X126845000Y-115655000D02*
G01*
X125345000Y-115655000D01*
X125345000Y-117155000D01*
X126845000Y-117155000D01*
X126845000Y-115655000D01*
G37*
X126845000Y-117455000D02*
X125345000Y-117455000D01*
X125345000Y-118955000D01*
X126845000Y-118955000D01*
X126845000Y-117455000D01*
G36*
X126845000Y-117455000D02*
G01*
X125345000Y-117455000D01*
X125345000Y-118955000D01*
X126845000Y-118955000D01*
X126845000Y-117455000D01*
G37*
X128645000Y-115655000D02*
X127145000Y-115655000D01*
X127145000Y-117155000D01*
X128645000Y-117155000D01*
X128645000Y-115655000D01*
G36*
X128645000Y-115655000D02*
G01*
X127145000Y-115655000D01*
X127145000Y-117155000D01*
X128645000Y-117155000D01*
X128645000Y-115655000D01*
G37*
X128645000Y-117455000D02*
X127145000Y-117455000D01*
X127145000Y-118955000D01*
X128645000Y-118955000D01*
X128645000Y-117455000D01*
G36*
X128645000Y-117455000D02*
G01*
X127145000Y-117455000D01*
X127145000Y-118955000D01*
X128645000Y-118955000D01*
X128645000Y-117455000D01*
G37*
X129570000Y-115220000D02*
X128920000Y-115220000D01*
X128920000Y-115620000D01*
X129570000Y-115620000D01*
X129570000Y-115220000D01*
G36*
X129570000Y-115220000D02*
G01*
X128920000Y-115220000D01*
X128920000Y-115620000D01*
X129570000Y-115620000D01*
X129570000Y-115220000D01*
G37*
X129570000Y-116490000D02*
X128920000Y-116490000D01*
X128920000Y-116890000D01*
X129570000Y-116890000D01*
X129570000Y-116490000D01*
G36*
X129570000Y-116490000D02*
G01*
X128920000Y-116490000D01*
X128920000Y-116890000D01*
X129570000Y-116890000D01*
X129570000Y-116490000D01*
G37*
X129570000Y-117760000D02*
X128920000Y-117760000D01*
X128920000Y-118160000D01*
X129570000Y-118160000D01*
X129570000Y-117760000D01*
G36*
X129570000Y-117760000D02*
G01*
X128920000Y-117760000D01*
X128920000Y-118160000D01*
X129570000Y-118160000D01*
X129570000Y-117760000D01*
G37*
X129570000Y-119030000D02*
X128920000Y-119030000D01*
X128920000Y-119430000D01*
X129570000Y-119430000D01*
X129570000Y-119030000D01*
G36*
X129570000Y-119030000D02*
G01*
X128920000Y-119030000D01*
X128920000Y-119430000D01*
X129570000Y-119430000D01*
X129570000Y-119030000D01*
G37*
%TO.C,Q702*%
X126127000Y-95015000D02*
X125877000Y-95015000D01*
X125877000Y-95315000D01*
X126127000Y-95315000D01*
X126127000Y-95015000D01*
G36*
X126127000Y-95015000D02*
G01*
X125877000Y-95015000D01*
X125877000Y-95315000D01*
X126127000Y-95315000D01*
X126127000Y-95015000D01*
G37*
X126127000Y-96285000D02*
X125877000Y-96285000D01*
X125877000Y-96585000D01*
X126127000Y-96585000D01*
X126127000Y-96285000D01*
G36*
X126127000Y-96285000D02*
G01*
X125877000Y-96285000D01*
X125877000Y-96585000D01*
X126127000Y-96585000D01*
X126127000Y-96285000D01*
G37*
X126127000Y-97555000D02*
X125877000Y-97555000D01*
X125877000Y-97855000D01*
X126127000Y-97855000D01*
X126127000Y-97555000D01*
G36*
X126127000Y-97555000D02*
G01*
X125877000Y-97555000D01*
X125877000Y-97855000D01*
X126127000Y-97855000D01*
X126127000Y-97555000D01*
G37*
X126177000Y-98825000D02*
X125877000Y-98825000D01*
X125877000Y-99125000D01*
X126177000Y-99125000D01*
X126177000Y-98825000D01*
G36*
X126177000Y-98825000D02*
G01*
X125877000Y-98825000D01*
X125877000Y-99125000D01*
X126177000Y-99125000D01*
X126177000Y-98825000D01*
G37*
X126762000Y-94855000D02*
X126412000Y-94855000D01*
X126412000Y-95655000D01*
X126762000Y-95655000D01*
X126762000Y-94855000D01*
G36*
X126762000Y-94855000D02*
G01*
X126412000Y-94855000D01*
X126412000Y-95655000D01*
X126762000Y-95655000D01*
X126762000Y-94855000D01*
G37*
X126762000Y-95955000D02*
X126412000Y-95955000D01*
X126412000Y-96755000D01*
X126762000Y-96755000D01*
X126762000Y-95955000D01*
G36*
X126762000Y-95955000D02*
G01*
X126412000Y-95955000D01*
X126412000Y-96755000D01*
X126762000Y-96755000D01*
X126762000Y-95955000D01*
G37*
X126767000Y-97055000D02*
X126417000Y-97055000D01*
X126417000Y-97855000D01*
X126767000Y-97855000D01*
X126767000Y-97055000D01*
G36*
X126767000Y-97055000D02*
G01*
X126417000Y-97055000D01*
X126417000Y-97855000D01*
X126767000Y-97855000D01*
X126767000Y-97055000D01*
G37*
X126777000Y-98825000D02*
X126477000Y-98825000D01*
X126477000Y-99125000D01*
X126777000Y-99125000D01*
X126777000Y-98825000D01*
G36*
X126777000Y-98825000D02*
G01*
X126477000Y-98825000D01*
X126477000Y-99125000D01*
X126777000Y-99125000D01*
X126777000Y-98825000D01*
G37*
X129602000Y-95400000D02*
X128102000Y-95400000D01*
X128102000Y-96900000D01*
X129602000Y-96900000D01*
X129602000Y-95400000D01*
G36*
X129602000Y-95400000D02*
G01*
X128102000Y-95400000D01*
X128102000Y-96900000D01*
X129602000Y-96900000D01*
X129602000Y-95400000D01*
G37*
X129602000Y-97200000D02*
X128102000Y-97200000D01*
X128102000Y-98700000D01*
X129602000Y-98700000D01*
X129602000Y-97200000D01*
G36*
X129602000Y-97200000D02*
G01*
X128102000Y-97200000D01*
X128102000Y-98700000D01*
X129602000Y-98700000D01*
X129602000Y-97200000D01*
G37*
X131402000Y-95400000D02*
X129902000Y-95400000D01*
X129902000Y-96900000D01*
X131402000Y-96900000D01*
X131402000Y-95400000D01*
G36*
X131402000Y-95400000D02*
G01*
X129902000Y-95400000D01*
X129902000Y-96900000D01*
X131402000Y-96900000D01*
X131402000Y-95400000D01*
G37*
X131402000Y-97200000D02*
X129902000Y-97200000D01*
X129902000Y-98700000D01*
X131402000Y-98700000D01*
X131402000Y-97200000D01*
G36*
X131402000Y-97200000D02*
G01*
X129902000Y-97200000D01*
X129902000Y-98700000D01*
X131402000Y-98700000D01*
X131402000Y-97200000D01*
G37*
X132327000Y-94965000D02*
X131677000Y-94965000D01*
X131677000Y-95365000D01*
X132327000Y-95365000D01*
X132327000Y-94965000D01*
G36*
X132327000Y-94965000D02*
G01*
X131677000Y-94965000D01*
X131677000Y-95365000D01*
X132327000Y-95365000D01*
X132327000Y-94965000D01*
G37*
X132327000Y-96235000D02*
X131677000Y-96235000D01*
X131677000Y-96635000D01*
X132327000Y-96635000D01*
X132327000Y-96235000D01*
G36*
X132327000Y-96235000D02*
G01*
X131677000Y-96235000D01*
X131677000Y-96635000D01*
X132327000Y-96635000D01*
X132327000Y-96235000D01*
G37*
X132327000Y-97505000D02*
X131677000Y-97505000D01*
X131677000Y-97905000D01*
X132327000Y-97905000D01*
X132327000Y-97505000D01*
G36*
X132327000Y-97505000D02*
G01*
X131677000Y-97505000D01*
X131677000Y-97905000D01*
X132327000Y-97905000D01*
X132327000Y-97505000D01*
G37*
X132327000Y-98775000D02*
X131677000Y-98775000D01*
X131677000Y-99175000D01*
X132327000Y-99175000D01*
X132327000Y-98775000D01*
G36*
X132327000Y-98775000D02*
G01*
X131677000Y-98775000D01*
X131677000Y-99175000D01*
X132327000Y-99175000D01*
X132327000Y-98775000D01*
G37*
%TO.C,Q703*%
X128162500Y-107027000D02*
X127862500Y-107027000D01*
X127862500Y-106727000D01*
X128162500Y-106727000D01*
X128162500Y-107027000D01*
G36*
X128162500Y-107027000D02*
G01*
X127862500Y-107027000D01*
X127862500Y-106727000D01*
X128162500Y-106727000D01*
X128162500Y-107027000D01*
G37*
X128162500Y-107627000D02*
X127862500Y-107627000D01*
X127862500Y-107327000D01*
X128162500Y-107327000D01*
X128162500Y-107627000D01*
G36*
X128162500Y-107627000D02*
G01*
X127862500Y-107627000D01*
X127862500Y-107327000D01*
X128162500Y-107327000D01*
X128162500Y-107627000D01*
G37*
X128212500Y-113177000D02*
X127812500Y-113177000D01*
X127812500Y-112527000D01*
X128212500Y-112527000D01*
X128212500Y-113177000D01*
G36*
X128212500Y-113177000D02*
G01*
X127812500Y-113177000D01*
X127812500Y-112527000D01*
X128212500Y-112527000D01*
X128212500Y-113177000D01*
G37*
X129432500Y-106977000D02*
X129132500Y-106977000D01*
X129132500Y-106727000D01*
X129432500Y-106727000D01*
X129432500Y-106977000D01*
G36*
X129432500Y-106977000D02*
G01*
X129132500Y-106977000D01*
X129132500Y-106727000D01*
X129432500Y-106727000D01*
X129432500Y-106977000D01*
G37*
X129482500Y-113177000D02*
X129082500Y-113177000D01*
X129082500Y-112527000D01*
X129482500Y-112527000D01*
X129482500Y-113177000D01*
G36*
X129482500Y-113177000D02*
G01*
X129082500Y-113177000D01*
X129082500Y-112527000D01*
X129482500Y-112527000D01*
X129482500Y-113177000D01*
G37*
X129787500Y-110452000D02*
X128287500Y-110452000D01*
X128287500Y-108952000D01*
X129787500Y-108952000D01*
X129787500Y-110452000D01*
G36*
X129787500Y-110452000D02*
G01*
X128287500Y-110452000D01*
X128287500Y-108952000D01*
X129787500Y-108952000D01*
X129787500Y-110452000D01*
G37*
X129787500Y-112252000D02*
X128287500Y-112252000D01*
X128287500Y-110752000D01*
X129787500Y-110752000D01*
X129787500Y-112252000D01*
G36*
X129787500Y-112252000D02*
G01*
X128287500Y-112252000D01*
X128287500Y-110752000D01*
X129787500Y-110752000D01*
X129787500Y-112252000D01*
G37*
X129932500Y-107617000D02*
X129132500Y-107617000D01*
X129132500Y-107267000D01*
X129932500Y-107267000D01*
X129932500Y-107617000D01*
G36*
X129932500Y-107617000D02*
G01*
X129132500Y-107617000D01*
X129132500Y-107267000D01*
X129932500Y-107267000D01*
X129932500Y-107617000D01*
G37*
X130702500Y-106977000D02*
X130402500Y-106977000D01*
X130402500Y-106727000D01*
X130702500Y-106727000D01*
X130702500Y-106977000D01*
G36*
X130702500Y-106977000D02*
G01*
X130402500Y-106977000D01*
X130402500Y-106727000D01*
X130702500Y-106727000D01*
X130702500Y-106977000D01*
G37*
X130752500Y-113177000D02*
X130352500Y-113177000D01*
X130352500Y-112527000D01*
X130752500Y-112527000D01*
X130752500Y-113177000D01*
G36*
X130752500Y-113177000D02*
G01*
X130352500Y-113177000D01*
X130352500Y-112527000D01*
X130752500Y-112527000D01*
X130752500Y-113177000D01*
G37*
X131032500Y-107612000D02*
X130232500Y-107612000D01*
X130232500Y-107262000D01*
X131032500Y-107262000D01*
X131032500Y-107612000D01*
G36*
X131032500Y-107612000D02*
G01*
X130232500Y-107612000D01*
X130232500Y-107262000D01*
X131032500Y-107262000D01*
X131032500Y-107612000D01*
G37*
X131587500Y-110452000D02*
X130087500Y-110452000D01*
X130087500Y-108952000D01*
X131587500Y-108952000D01*
X131587500Y-110452000D01*
G36*
X131587500Y-110452000D02*
G01*
X130087500Y-110452000D01*
X130087500Y-108952000D01*
X131587500Y-108952000D01*
X131587500Y-110452000D01*
G37*
X131587500Y-112252000D02*
X130087500Y-112252000D01*
X130087500Y-110752000D01*
X131587500Y-110752000D01*
X131587500Y-112252000D01*
G36*
X131587500Y-112252000D02*
G01*
X130087500Y-112252000D01*
X130087500Y-110752000D01*
X131587500Y-110752000D01*
X131587500Y-112252000D01*
G37*
X131972500Y-106977000D02*
X131672500Y-106977000D01*
X131672500Y-106727000D01*
X131972500Y-106727000D01*
X131972500Y-106977000D01*
G36*
X131972500Y-106977000D02*
G01*
X131672500Y-106977000D01*
X131672500Y-106727000D01*
X131972500Y-106727000D01*
X131972500Y-106977000D01*
G37*
X132022500Y-113177000D02*
X131622500Y-113177000D01*
X131622500Y-112527000D01*
X132022500Y-112527000D01*
X132022500Y-113177000D01*
G36*
X132022500Y-113177000D02*
G01*
X131622500Y-113177000D01*
X131622500Y-112527000D01*
X132022500Y-112527000D01*
X132022500Y-113177000D01*
G37*
X132132500Y-107612000D02*
X131332500Y-107612000D01*
X131332500Y-107262000D01*
X132132500Y-107262000D01*
X132132500Y-107612000D01*
G36*
X132132500Y-107612000D02*
G01*
X131332500Y-107612000D01*
X131332500Y-107262000D01*
X132132500Y-107262000D01*
X132132500Y-107612000D01*
G37*
%TD*%
D11*
%TO.C,C607*%
X207595000Y-92025000D03*
X208555000Y-92025000D03*
%TD*%
D12*
%TO.C,C602*%
X208555000Y-93050000D03*
X207595000Y-93050000D03*
%TD*%
D11*
%TO.C,C601*%
X203945000Y-93050000D03*
X204905000Y-93050000D03*
%TD*%
D13*
%TO.C,R1010*%
X203265000Y-64250000D03*
X204285000Y-64250000D03*
%TD*%
D14*
%TO.C,C809*%
X167025000Y-92725000D03*
X167025000Y-94275000D03*
%TD*%
D15*
%TO.C,Q1101*%
X197075000Y-60775000D03*
X198975000Y-60775000D03*
X198025000Y-58500000D03*
%TD*%
D16*
%TO.C,C614*%
X203250000Y-100250000D03*
X205150000Y-100250000D03*
%TD*%
D17*
%TO.C,R701*%
X141212500Y-112900000D03*
X136587500Y-112900000D03*
%TD*%
D12*
%TO.C,C409*%
X185595000Y-71200000D03*
X186555000Y-71200000D03*
%TD*%
D11*
%TO.C,C410*%
X186555000Y-66000000D03*
X185595000Y-66000000D03*
%TD*%
D13*
%TO.C,R819*%
X172115000Y-96800000D03*
X173135000Y-96800000D03*
%TD*%
D18*
%TO.C,C704*%
X128500000Y-123925000D03*
X128500000Y-120975000D03*
%TD*%
D19*
%TO.C,R402*%
X181525000Y-65990000D03*
X181525000Y-67010000D03*
%TD*%
D20*
%TO.C,R707*%
X143460000Y-91600000D03*
X142440000Y-91600000D03*
%TD*%
D21*
%TO.C,J1002*%
X205995000Y-70750000D03*
X205995000Y-69950000D03*
D22*
X205995000Y-68800000D03*
X205995000Y-67800000D03*
X205995000Y-67300000D03*
X205995000Y-66300000D03*
D21*
X205995000Y-64350000D03*
X205995000Y-65150000D03*
D22*
X205995000Y-65800000D03*
X205995000Y-66800000D03*
X205995000Y-68300000D03*
X205995000Y-69300000D03*
%TD*%
D23*
%TO.C,Q804*%
X186560000Y-85250000D03*
X188260000Y-85250000D03*
X186560000Y-83550000D03*
X188260000Y-83550000D03*
D24*
X185505000Y-82145000D03*
X186775000Y-82145000D03*
X188045000Y-82145000D03*
X189315000Y-82145000D03*
D25*
X185505000Y-87950000D03*
X186775000Y-87950000D03*
X188045000Y-87950000D03*
X189315000Y-87950000D03*
%TD*%
D26*
%TO.C,L402*%
X188190000Y-70400000D03*
X189160000Y-70400000D03*
%TD*%
D12*
%TO.C,C407*%
X198525000Y-68750000D03*
X199485000Y-68750000D03*
%TD*%
D13*
%TO.C,R605*%
X208265000Y-85000000D03*
X209285000Y-85000000D03*
%TD*%
D27*
%TO.C,R1204*%
X123012500Y-58125000D03*
X123012500Y-56475000D03*
%TD*%
D28*
%TO.C,R805*%
X167225000Y-100550000D03*
X170325000Y-100550000D03*
%TD*%
D11*
%TO.C,C802*%
X174255000Y-79500000D03*
X173295000Y-79500000D03*
%TD*%
D29*
%TO.C,C811*%
X164300000Y-82400000D03*
X162750000Y-82400000D03*
%TD*%
D19*
%TO.C,R817*%
X167275000Y-95490000D03*
X167275000Y-96510000D03*
%TD*%
D30*
%TO.C,C714*%
X137400000Y-109820000D03*
X137400000Y-110780000D03*
%TD*%
D31*
%TO.C,U701*%
X142225000Y-105900000D03*
X142225000Y-104750000D03*
X142225000Y-103600000D03*
X142225000Y-102450000D03*
X141025000Y-105900000D03*
X141025000Y-104750000D03*
X141025000Y-103600000D03*
X141025000Y-102450000D03*
X139825000Y-105900000D03*
X139825000Y-104750000D03*
X139825000Y-103600000D03*
X139825000Y-102450000D03*
D32*
X143462500Y-106425000D03*
X143462500Y-105925000D03*
X143462500Y-105425000D03*
X143462500Y-104925000D03*
X143462500Y-104425000D03*
X143462500Y-103925000D03*
X143462500Y-103425000D03*
X143462500Y-102925000D03*
X143462500Y-102425000D03*
X143462500Y-101925000D03*
D33*
X142775000Y-101237500D03*
X142275000Y-101237500D03*
X141775000Y-101237500D03*
X141275000Y-101237500D03*
X140775000Y-101237500D03*
X140275000Y-101237500D03*
X139775000Y-101237500D03*
X139275000Y-101237500D03*
D32*
X138587500Y-101925000D03*
X138587500Y-102425000D03*
X138587500Y-102925000D03*
X138587500Y-103425000D03*
X138587500Y-103925000D03*
X138587500Y-104425000D03*
X138587500Y-104925000D03*
X138587500Y-105425000D03*
X138587500Y-105925000D03*
X138587500Y-106425000D03*
D33*
X139275000Y-107112500D03*
X139775000Y-107112500D03*
X140275000Y-107112500D03*
X140775000Y-107112500D03*
X141275000Y-107112500D03*
X141775000Y-107112500D03*
X142275000Y-107112500D03*
X142775000Y-107112500D03*
%TD*%
D11*
%TO.C,C715*%
X141060000Y-99800000D03*
X140100000Y-99800000D03*
%TD*%
D19*
%TO.C,R1013*%
X183550000Y-58740000D03*
X183550000Y-59760000D03*
%TD*%
%TO.C,R718*%
X202750000Y-108540000D03*
X202750000Y-109560000D03*
%TD*%
D20*
%TO.C,R602*%
X202585000Y-81900000D03*
X201565000Y-81900000D03*
%TD*%
D34*
%TO.C,IC803*%
X166325000Y-89250000D03*
X167275000Y-89250000D03*
X168225000Y-89250000D03*
X168225000Y-86750000D03*
X167275000Y-86750000D03*
X166325000Y-86750000D03*
%TD*%
D19*
%TO.C,R1005*%
X176250000Y-56190000D03*
X176250000Y-57210000D03*
%TD*%
D35*
%TO.C,C708*%
X145525000Y-86600000D03*
X152475000Y-86600000D03*
%TD*%
D36*
%TO.C,R704*%
X128150000Y-100850000D03*
X126500000Y-100850000D03*
%TD*%
D37*
%TO.C,D502*%
X133500000Y-88700000D03*
X133500000Y-84300000D03*
%TD*%
D12*
%TO.C,C1002*%
X201315000Y-69500000D03*
X202275000Y-69500000D03*
%TD*%
D38*
%TO.C,R810*%
X165775000Y-98500000D03*
X165775000Y-96500000D03*
%TD*%
D20*
%TO.C,R708*%
X143460000Y-90600000D03*
X142440000Y-90600000D03*
%TD*%
D39*
%TO.C,U901*%
X182175000Y-71750000D03*
X182175000Y-71250000D03*
X182175000Y-70750000D03*
X182175000Y-70250000D03*
X182175000Y-69750000D03*
X177775000Y-69750000D03*
X177775000Y-70250000D03*
X177775000Y-70750000D03*
X177775000Y-71250000D03*
X177775000Y-71750000D03*
%TD*%
D27*
%TO.C,R801*%
X177525000Y-96825000D03*
X177525000Y-95175000D03*
%TD*%
D20*
%TO.C,R1003*%
X178750000Y-56200000D03*
X177730000Y-56200000D03*
%TD*%
D36*
%TO.C,R712*%
X142325000Y-108600000D03*
X140675000Y-108600000D03*
%TD*%
D12*
%TO.C,C807*%
X169795000Y-89250000D03*
X170755000Y-89250000D03*
%TD*%
D19*
%TO.C,R706*%
X138400000Y-109790000D03*
X138400000Y-110810000D03*
%TD*%
%TO.C,R401*%
X180275000Y-65990000D03*
X180275000Y-67010000D03*
%TD*%
D40*
%TO.C,D504*%
X193675000Y-104600000D03*
X189275000Y-104600000D03*
%TD*%
D41*
%TO.C,R1007*%
X178550000Y-62260000D03*
X178550000Y-61240000D03*
%TD*%
D42*
%TO.C,S402*%
X200325000Y-76000000D03*
X203725000Y-76000000D03*
D43*
X202025000Y-74350000D03*
%TD*%
D44*
%TO.C,C720*%
X135450000Y-105150000D03*
X135450000Y-107050000D03*
%TD*%
D13*
%TO.C,R1009*%
X203265000Y-69500000D03*
X204285000Y-69500000D03*
%TD*%
D41*
%TO.C,R1001*%
X175250000Y-64260000D03*
X175250000Y-63240000D03*
%TD*%
D13*
%TO.C,R610*%
X210860000Y-97050000D03*
X209840000Y-97050000D03*
%TD*%
D45*
%TO.C,Y401*%
X186925000Y-69712500D03*
X186925000Y-67412500D03*
X185025000Y-67412500D03*
X185025000Y-69712500D03*
%TD*%
D46*
%TO.C,L701*%
X120200000Y-111200000D03*
X120200000Y-104800000D03*
%TD*%
D47*
%TO.C,C611*%
X211400000Y-92450000D03*
X211400000Y-89500000D03*
%TD*%
D23*
%TO.C,Q803*%
X180270000Y-85250000D03*
X181970000Y-85250000D03*
X180270000Y-83550000D03*
X181970000Y-83550000D03*
D24*
X179215000Y-82145000D03*
X180485000Y-82145000D03*
X181755000Y-82145000D03*
X183025000Y-82145000D03*
D25*
X179215000Y-87950000D03*
X180485000Y-87950000D03*
X181755000Y-87950000D03*
X183025000Y-87950000D03*
%TD*%
D41*
%TO.C,R406*%
X182775000Y-66010000D03*
X182775000Y-64990000D03*
%TD*%
D29*
%TO.C,C401*%
X196300000Y-62750000D03*
X194750000Y-62750000D03*
%TD*%
%TO.C,C1203*%
X209790000Y-116500000D03*
X208240000Y-116500000D03*
%TD*%
D11*
%TO.C,C709*%
X139380000Y-108800000D03*
X138420000Y-108800000D03*
%TD*%
D48*
%TO.C,FB602*%
X210837500Y-87450000D03*
X212662500Y-87450000D03*
%TD*%
D41*
%TO.C,R409*%
X199000000Y-77810000D03*
X199000000Y-76790000D03*
%TD*%
D36*
%TO.C,R709*%
X135800000Y-108600000D03*
X134150000Y-108600000D03*
%TD*%
D49*
%TO.C,LED702*%
X147737500Y-106275000D03*
X149612500Y-106275000D03*
%TD*%
D20*
%TO.C,R1008*%
X177260000Y-64250000D03*
X176240000Y-64250000D03*
%TD*%
D19*
%TO.C,R818*%
X165025000Y-85240000D03*
X165025000Y-86260000D03*
%TD*%
D36*
%TO.C,R1201*%
X206025000Y-61300000D03*
X204375000Y-61300000D03*
%TD*%
D50*
%TO.C,C612*%
X212075000Y-94550000D03*
X210175000Y-94550000D03*
%TD*%
D51*
%TO.C,C404*%
X189275000Y-75025000D03*
X189275000Y-73475000D03*
%TD*%
D20*
%TO.C,R722*%
X150310000Y-101450000D03*
X149290000Y-101450000D03*
%TD*%
D52*
%TO.C,R607*%
X209475000Y-90725000D03*
X207825000Y-90725000D03*
%TD*%
D41*
%TO.C,R403*%
X184525000Y-73260000D03*
X184525000Y-72240000D03*
%TD*%
D20*
%TO.C,R812*%
X167285000Y-85250000D03*
X166265000Y-85250000D03*
%TD*%
D14*
%TO.C,C411*%
X187775000Y-71725000D03*
X187775000Y-73275000D03*
%TD*%
D20*
%TO.C,R404*%
X194035000Y-64000000D03*
X193015000Y-64000000D03*
%TD*%
D53*
%TO.C,IC601*%
X206200000Y-96250000D03*
D54*
X203700000Y-97500000D03*
X203700000Y-97000000D03*
X203700000Y-96500000D03*
X203700000Y-96000000D03*
X203700000Y-95500000D03*
X203700000Y-95000000D03*
D55*
X204450000Y-94250000D03*
X204950000Y-94250000D03*
X205450000Y-94250000D03*
X205950000Y-94250000D03*
X206450000Y-94250000D03*
X206950000Y-94250000D03*
X207450000Y-94250000D03*
X207950000Y-94250000D03*
D54*
X208700000Y-95000000D03*
X208700000Y-95500000D03*
X208700000Y-96000000D03*
X208700000Y-96500000D03*
X208700000Y-97000000D03*
X208700000Y-97500000D03*
D55*
X207950000Y-98250000D03*
X207450000Y-98250000D03*
X206950000Y-98250000D03*
X206450000Y-98250000D03*
X205950000Y-98250000D03*
X205450000Y-98250000D03*
X204950000Y-98250000D03*
X204450000Y-98250000D03*
%TD*%
D56*
%TO.C,C808*%
X170000000Y-90750000D03*
X171550000Y-90750000D03*
%TD*%
D57*
%TO.C,D1002*%
X202075000Y-68050000D03*
D58*
X203775000Y-68050000D03*
X203775000Y-66050000D03*
X201875000Y-66050000D03*
%TD*%
D30*
%TO.C,C412*%
X189025000Y-71320000D03*
X189025000Y-72280000D03*
%TD*%
D59*
%TO.C,D701*%
X130350000Y-104250000D03*
X133250000Y-104250000D03*
%TD*%
D13*
%TO.C,R604*%
X208265000Y-83050000D03*
X209285000Y-83050000D03*
%TD*%
%TO.C,R711*%
X145690000Y-100400000D03*
X146710000Y-100400000D03*
%TD*%
D28*
%TO.C,R806*%
X172925000Y-74750000D03*
X176025000Y-74750000D03*
%TD*%
D60*
%TO.C,C405*%
X190505000Y-75230000D03*
X190505000Y-74270000D03*
%TD*%
D30*
%TO.C,C713*%
X140400000Y-109820000D03*
X140400000Y-110780000D03*
%TD*%
D19*
%TO.C,R1004*%
X175250000Y-56190000D03*
X175250000Y-57210000D03*
%TD*%
D27*
%TO.C,R807*%
X172275000Y-89075000D03*
X172275000Y-87425000D03*
%TD*%
D13*
%TO.C,R717*%
X145690000Y-101400000D03*
X146710000Y-101400000D03*
%TD*%
D41*
%TO.C,R713*%
X144700000Y-101360000D03*
X144700000Y-100340000D03*
%TD*%
D51*
%TO.C,C1204*%
X121512500Y-58075000D03*
X121512500Y-56525000D03*
%TD*%
D61*
%TO.C,Q801*%
X177275000Y-101255000D03*
X177275000Y-99555000D03*
X175575000Y-101255000D03*
X175575000Y-99555000D03*
D62*
X174170000Y-102310000D03*
X174170000Y-101040000D03*
X174170000Y-99770000D03*
X174170000Y-98500000D03*
D63*
X179975000Y-102310000D03*
X179975000Y-101040000D03*
X179975000Y-99770000D03*
X179975000Y-98500000D03*
%TD*%
D30*
%TO.C,C711*%
X137225000Y-100970000D03*
X137225000Y-101930000D03*
%TD*%
%TO.C,C803*%
X175237000Y-92920000D03*
X175237000Y-93880000D03*
%TD*%
D13*
%TO.C,R1011*%
X199515000Y-67550000D03*
X200535000Y-67550000D03*
%TD*%
D41*
%TO.C,R816*%
X165275000Y-92760000D03*
X165275000Y-91740000D03*
%TD*%
D52*
%TO.C,R608*%
X211725000Y-98300000D03*
X210075000Y-98300000D03*
%TD*%
D13*
%TO.C,R1102*%
X197515000Y-63000000D03*
X198535000Y-63000000D03*
%TD*%
D27*
%TO.C,R804*%
X175625000Y-96825000D03*
X175625000Y-95175000D03*
%TD*%
D19*
%TO.C,R802*%
X179775000Y-110680000D03*
X179775000Y-111700000D03*
%TD*%
D13*
%TO.C,R715*%
X144690000Y-107600000D03*
X145710000Y-107600000D03*
%TD*%
D20*
%TO.C,R721*%
X148250000Y-107950000D03*
X147230000Y-107950000D03*
%TD*%
D60*
%TO.C,C413*%
X193125000Y-76480000D03*
X193125000Y-75520000D03*
%TD*%
D64*
%TO.C,U401*%
X192445000Y-69980000D03*
X193775000Y-69980000D03*
X195105000Y-69980000D03*
X192445000Y-68650000D03*
X193775000Y-68650000D03*
X195105000Y-68650000D03*
X192445000Y-67320000D03*
X193775000Y-67320000D03*
X195105000Y-67320000D03*
D65*
X191175000Y-72100000D03*
X191575000Y-72100000D03*
X191975000Y-72100000D03*
X192375000Y-72100000D03*
X192775000Y-72100000D03*
X193175000Y-72100000D03*
X193575000Y-72100000D03*
X193975000Y-72100000D03*
X194375000Y-72100000D03*
X194775000Y-72100000D03*
X195175000Y-72100000D03*
X195575000Y-72100000D03*
X195975000Y-72100000D03*
X196375000Y-72100000D03*
D66*
X197225000Y-71250000D03*
X197225000Y-70850000D03*
X197225000Y-70450000D03*
X197225000Y-70050000D03*
X197225000Y-69650000D03*
X197225000Y-69250000D03*
X197225000Y-68850000D03*
X197225000Y-68450000D03*
X197225000Y-68050000D03*
X197225000Y-67650000D03*
X197225000Y-67250000D03*
X197225000Y-66850000D03*
X197225000Y-66450000D03*
X197225000Y-66050000D03*
D65*
X196375000Y-65200000D03*
X195975000Y-65200000D03*
X195575000Y-65200000D03*
X195175000Y-65200000D03*
X194775000Y-65200000D03*
X194375000Y-65200000D03*
X193975000Y-65200000D03*
X193575000Y-65200000D03*
X193175000Y-65200000D03*
X192775000Y-65200000D03*
X192375000Y-65200000D03*
X191975000Y-65200000D03*
X191575000Y-65200000D03*
X191175000Y-65200000D03*
D66*
X190325000Y-66050000D03*
X190325000Y-66450000D03*
X190325000Y-66850000D03*
X190325000Y-67250000D03*
X190325000Y-67650000D03*
X190325000Y-68050000D03*
X190325000Y-68450000D03*
X190325000Y-68850000D03*
X190325000Y-69250000D03*
X190325000Y-69650000D03*
X190325000Y-70050000D03*
X190325000Y-70450000D03*
X190325000Y-70850000D03*
X190325000Y-71250000D03*
%TD*%
D12*
%TO.C,C716*%
X142000000Y-99800000D03*
X142960000Y-99800000D03*
%TD*%
D13*
%TO.C,R719*%
X149290000Y-102600000D03*
X150310000Y-102600000D03*
%TD*%
D40*
%TO.C,D501*%
X163600000Y-104800000D03*
X168000000Y-104800000D03*
%TD*%
D56*
%TO.C,C608*%
X206400000Y-89200000D03*
X204850000Y-89200000D03*
%TD*%
D67*
%TO.C,D1001*%
X177150000Y-58800000D03*
X176200000Y-58800000D03*
X175250000Y-58800000D03*
X175250000Y-61400000D03*
X176200000Y-61400000D03*
X177150000Y-61400000D03*
%TD*%
D11*
%TO.C,C406*%
X191485000Y-73250000D03*
X190525000Y-73250000D03*
%TD*%
D68*
%TO.C,C403*%
X189775000Y-76900000D03*
X186825000Y-76900000D03*
%TD*%
D13*
%TO.C,R1101*%
X201265000Y-60750000D03*
X202285000Y-60750000D03*
%TD*%
D36*
%TO.C,R1203*%
X209850000Y-115000000D03*
X208200000Y-115000000D03*
%TD*%
D69*
%TO.C,LED601*%
X203675000Y-84000000D03*
X200875000Y-84000000D03*
%TD*%
D20*
%TO.C,R601*%
X204935000Y-91900000D03*
X203915000Y-91900000D03*
%TD*%
D70*
%TO.C,LED801*%
X179775000Y-123000000D03*
X179775000Y-120200000D03*
%TD*%
D71*
%TO.C,R808*%
X203275000Y-112987500D03*
X203275000Y-117612500D03*
%TD*%
D11*
%TO.C,C402*%
X196005000Y-64000000D03*
X195045000Y-64000000D03*
%TD*%
D30*
%TO.C,C805*%
X155775000Y-97270000D03*
X155775000Y-98230000D03*
%TD*%
D37*
%TO.C,D503*%
X133600000Y-67700000D03*
X133600000Y-72100000D03*
%TD*%
D12*
%TO.C,C718*%
X143470000Y-108600000D03*
X144430000Y-108600000D03*
%TD*%
D30*
%TO.C,C613*%
X202550000Y-97680000D03*
X202550000Y-96720000D03*
%TD*%
D36*
%TO.C,R703*%
X124425000Y-120900000D03*
X122775000Y-120900000D03*
%TD*%
D60*
%TO.C,C712*%
X144400000Y-91550000D03*
X144400000Y-90590000D03*
%TD*%
D72*
%TO.C,R702*%
X140400000Y-93362500D03*
X140400000Y-88737500D03*
%TD*%
D11*
%TO.C,C606*%
X201420000Y-95750000D03*
X202380000Y-95750000D03*
%TD*%
D73*
%TO.C,R809*%
X173775000Y-87425000D03*
X173775000Y-89075000D03*
%TD*%
D74*
%TO.C,J701*%
X205444700Y-107250001D03*
X205444700Y-105249999D03*
D75*
X211194701Y-109600001D03*
X211194701Y-102899999D03*
%TD*%
D11*
%TO.C,C801*%
X169255000Y-98000000D03*
X168295000Y-98000000D03*
%TD*%
D16*
%TO.C,C610*%
X210800000Y-85500000D03*
X212700000Y-85500000D03*
%TD*%
D36*
%TO.C,R1202*%
X116525000Y-115250000D03*
X114875000Y-115250000D03*
%TD*%
D60*
%TO.C,C408*%
X189025000Y-66480000D03*
X189025000Y-65520000D03*
%TD*%
D76*
%TO.C,L601*%
X206250000Y-92812500D03*
X206250000Y-90687500D03*
%TD*%
D29*
%TO.C,C609*%
X207875000Y-89200000D03*
X209425000Y-89200000D03*
%TD*%
D70*
%TO.C,LED802*%
X203275000Y-123000000D03*
X203275000Y-120200000D03*
%TD*%
D77*
%TO.C,C707*%
X140200000Y-83975000D03*
X140200000Y-77025000D03*
%TD*%
D78*
%TO.C,D803*%
X173900000Y-82850000D03*
X173900000Y-85650000D03*
%TD*%
D79*
%TO.C,J1001*%
X167855000Y-56940000D03*
X171925000Y-56940000D03*
X167855000Y-58210000D03*
X171925000Y-58210000D03*
X167855000Y-59480000D03*
X171925000Y-59480000D03*
X167855000Y-60750000D03*
X171925000Y-60750000D03*
X167855000Y-62020000D03*
X171925000Y-62020000D03*
X167855000Y-63290000D03*
X171925000Y-63290000D03*
X167855000Y-64560000D03*
X171925000Y-64560000D03*
%TD*%
D42*
%TO.C,S401*%
X194325000Y-76000000D03*
X197725000Y-76000000D03*
D43*
X196025000Y-74350000D03*
%TD*%
D12*
%TO.C,C804*%
X173275000Y-81500000D03*
X174235000Y-81500000D03*
%TD*%
D19*
%TO.C,R705*%
X139400000Y-109800000D03*
X139400000Y-110820000D03*
%TD*%
D20*
%TO.C,R1014*%
X190410000Y-61700000D03*
X189390000Y-61700000D03*
%TD*%
D80*
%TO.C,C701*%
X153000000Y-115475000D03*
X153000000Y-122425000D03*
%TD*%
D13*
%TO.C,R720*%
X149230000Y-107950000D03*
X150250000Y-107950000D03*
%TD*%
D81*
%TO.C,IC802*%
X166851000Y-80500000D03*
X166851000Y-81000000D03*
X166851000Y-81500000D03*
X166851000Y-82000000D03*
X166851000Y-82500000D03*
X166851000Y-83000000D03*
X166851000Y-83500000D03*
X166851000Y-84000000D03*
X171275000Y-84000000D03*
X171275000Y-83500000D03*
X171275000Y-83000000D03*
X171275000Y-82500000D03*
X171275000Y-82000000D03*
X171275000Y-81500000D03*
X171275000Y-81000000D03*
X171275000Y-80500000D03*
D82*
X169063000Y-82250000D03*
%TD*%
D19*
%TO.C,R405*%
X182400000Y-59740000D03*
X182400000Y-60760000D03*
%TD*%
D83*
%TO.C,FB601*%
X200062500Y-89650000D03*
X201887500Y-89650000D03*
%TD*%
D13*
%TO.C,R603*%
X208265000Y-81100000D03*
X209285000Y-81100000D03*
%TD*%
D20*
%TO.C,R1006*%
X178750000Y-57200000D03*
X177730000Y-57200000D03*
%TD*%
D84*
%TO.C,C604*%
X199700000Y-91800000D03*
X202650000Y-91800000D03*
%TD*%
D20*
%TO.C,R1002*%
X177310000Y-63200000D03*
X176290000Y-63200000D03*
%TD*%
D60*
%TO.C,C901*%
X176225000Y-71980000D03*
X176225000Y-71020000D03*
%TD*%
D27*
%TO.C,R710*%
X115150000Y-100425000D03*
X115150000Y-98775000D03*
%TD*%
D85*
%TO.C,L401*%
X191505000Y-75250000D03*
X191505000Y-74280000D03*
%TD*%
D80*
%TO.C,C702*%
X143750000Y-115475000D03*
X143750000Y-122425000D03*
%TD*%
D81*
%TO.C,IC801*%
X169063000Y-92250000D03*
X169063000Y-92750000D03*
X169063000Y-93250000D03*
X169063000Y-93750000D03*
X169063000Y-94250000D03*
X169063000Y-94750000D03*
X169063000Y-95250000D03*
X169063000Y-95750000D03*
X173487000Y-95750000D03*
X173487000Y-95250000D03*
X173487000Y-94750000D03*
X173487000Y-94250000D03*
X173487000Y-93750000D03*
X173487000Y-93250000D03*
X173487000Y-92750000D03*
X173487000Y-92250000D03*
D82*
X171275000Y-94000000D03*
%TD*%
D71*
%TO.C,R803*%
X179775000Y-113087500D03*
X179775000Y-117712500D03*
%TD*%
D80*
%TO.C,C703*%
X134450000Y-115475000D03*
X134450000Y-122425000D03*
%TD*%
D13*
%TO.C,R606*%
X208215000Y-79450000D03*
X209235000Y-79450000D03*
%TD*%
%TO.C,R1103*%
X198515000Y-64250000D03*
X199535000Y-64250000D03*
%TD*%
%TO.C,R814*%
X173265000Y-80500000D03*
X174285000Y-80500000D03*
%TD*%
D51*
%TO.C,C1201*%
X205525000Y-59775000D03*
X205525000Y-58225000D03*
%TD*%
D41*
%TO.C,R609*%
X209575000Y-92040000D03*
X209575000Y-93060000D03*
%TD*%
D11*
%TO.C,C1001*%
X169755000Y-67000000D03*
X168795000Y-67000000D03*
%TD*%
D41*
%TO.C,R815*%
X165275000Y-95010000D03*
X165275000Y-93990000D03*
%TD*%
D20*
%TO.C,R820*%
X171385000Y-85250000D03*
X170365000Y-85250000D03*
%TD*%
D12*
%TO.C,C1003*%
X201295000Y-64250000D03*
X202255000Y-64250000D03*
%TD*%
D20*
%TO.C,R813*%
X174860000Y-91150000D03*
X173840000Y-91150000D03*
%TD*%
D29*
%TO.C,C810*%
X164300000Y-80900000D03*
X162750000Y-80900000D03*
%TD*%
D78*
%TO.C,D802*%
X176975000Y-93250000D03*
X176975000Y-90450000D03*
%TD*%
D59*
%TO.C,D702*%
X130350000Y-101900000D03*
X133250000Y-101900000D03*
%TD*%
D60*
%TO.C,C806*%
X164275000Y-97980000D03*
X164275000Y-97020000D03*
%TD*%
%TO.C,C710*%
X136925000Y-106730000D03*
X136925000Y-105770000D03*
%TD*%
D50*
%TO.C,C605*%
X202200000Y-93950000D03*
X200300000Y-93950000D03*
%TD*%
D20*
%TO.C,R407*%
X150310000Y-100450000D03*
X149290000Y-100450000D03*
%TD*%
%TO.C,R811*%
X168275000Y-91000000D03*
X167255000Y-91000000D03*
%TD*%
D49*
%TO.C,LED701*%
X147712500Y-104200000D03*
X149587500Y-104200000D03*
%TD*%
D56*
%TO.C,C717*%
X142425000Y-110150000D03*
X143975000Y-110150000D03*
%TD*%
D30*
%TO.C,C902*%
X176225000Y-69040000D03*
X176225000Y-70000000D03*
%TD*%
D41*
%TO.C,R714*%
X136900000Y-104360000D03*
X136900000Y-103340000D03*
%TD*%
D29*
%TO.C,C1202*%
X116475000Y-116750000D03*
X114925000Y-116750000D03*
%TD*%
D68*
%TO.C,C705*%
X136600000Y-99150000D03*
X133650000Y-99150000D03*
%TD*%
D86*
%TO.C,C719*%
X135150000Y-103150000D03*
X135150000Y-101250000D03*
%TD*%
D50*
%TO.C,C603*%
X200025000Y-87700000D03*
X201925000Y-87700000D03*
%TD*%
D87*
%TO.C,Q802*%
X191275000Y-98700000D03*
X191275000Y-100400000D03*
X192975000Y-98700000D03*
X192975000Y-100400000D03*
D88*
X194380000Y-97645000D03*
X194380000Y-98915000D03*
X194380000Y-100185000D03*
X194380000Y-101455000D03*
D89*
X188575000Y-97645000D03*
X188575000Y-98915000D03*
X188575000Y-100185000D03*
X188575000Y-101455000D03*
%TD*%
D35*
%TO.C,C706*%
X145550000Y-95500000D03*
X152500000Y-95500000D03*
%TD*%
D90*
%TO.C,LED1101*%
X200875000Y-58500000D03*
X203675000Y-58500000D03*
%TD*%
D13*
%TO.C,R1012*%
X199515000Y-66550000D03*
X200535000Y-66550000D03*
%TD*%
%TO.C,R716*%
X145690000Y-102450000D03*
X146710000Y-102450000D03*
%TD*%
%TO.C,R408*%
X191190000Y-76500000D03*
X192210000Y-76500000D03*
%TD*%
D91*
%TO.C,D801*%
X158437500Y-91275000D03*
D92*
X161512500Y-91275000D03*
D93*
X158437500Y-88075000D03*
D94*
X161512500Y-88075000D03*
D95*
X157675000Y-96400000D03*
X162375000Y-96400000D03*
%TD*%
M02*
