%TF.GenerationSoftware,KiCad,Pcbnew,7.0.1*%
%TF.CreationDate,2023-07-16T03:42:18+02:00*%
%TF.ProjectId,load_cell_connector_interface,6c6f6164-5f63-4656-9c6c-5f636f6e6e65,rev?*%
%TF.SameCoordinates,Original*%
%TF.FileFunction,Drillmap*%
%TF.FilePolarity,Positive*%
%FSLAX45Y45*%
G04 Gerber Fmt 4.5, Leading zero omitted, Abs format (unit mm)*
G04 Created by KiCad (PCBNEW 7.0.1) date 2023-07-16 03:42:18*
%MOMM*%
%LPD*%
G01*
G04 APERTURE LIST*
%ADD10C,0.100000*%
%ADD11C,0.200000*%
%ADD12C,0.220000*%
G04 APERTURE END LIST*
D10*
X12877500Y-11032500D02*
X11477500Y-11032500D01*
X13177500Y-9332500D02*
X13177500Y-10732500D01*
X11477500Y-9032500D02*
X12877500Y-9032500D01*
X11177500Y-10732500D02*
X11177500Y-9332500D01*
X11177500Y-10732500D02*
G75*
G03*
X11477500Y-11032500I300000J0D01*
G01*
X12877500Y-11032500D02*
G75*
G03*
X13177500Y-10732500I0J300000D01*
G01*
X13177500Y-9332500D02*
G75*
G03*
X12877500Y-9032500I-300000J0D01*
G01*
X11477500Y-9032500D02*
G75*
G03*
X11177500Y-9332500I0J-300000D01*
G01*
D11*
D12*
X12065000Y-9222500D02*
X12285000Y-9442500D01*
X12285000Y-9222500D02*
X12065000Y-9442500D01*
X12065000Y-10622500D02*
X12285000Y-10842500D01*
X12285000Y-10622500D02*
X12065000Y-10842500D01*
D11*
X11420119Y-11350024D02*
X11420119Y-11150024D01*
X11420119Y-11150024D02*
X11467738Y-11150024D01*
X11467738Y-11150024D02*
X11496309Y-11159548D01*
X11496309Y-11159548D02*
X11515357Y-11178595D01*
X11515357Y-11178595D02*
X11524881Y-11197643D01*
X11524881Y-11197643D02*
X11534405Y-11235738D01*
X11534405Y-11235738D02*
X11534405Y-11264309D01*
X11534405Y-11264309D02*
X11524881Y-11302405D01*
X11524881Y-11302405D02*
X11515357Y-11321452D01*
X11515357Y-11321452D02*
X11496309Y-11340500D01*
X11496309Y-11340500D02*
X11467738Y-11350024D01*
X11467738Y-11350024D02*
X11420119Y-11350024D01*
X11620119Y-11350024D02*
X11620119Y-11216690D01*
X11620119Y-11254786D02*
X11629643Y-11235738D01*
X11629643Y-11235738D02*
X11639167Y-11226214D01*
X11639167Y-11226214D02*
X11658214Y-11216690D01*
X11658214Y-11216690D02*
X11677262Y-11216690D01*
X11743928Y-11350024D02*
X11743928Y-11216690D01*
X11743928Y-11150024D02*
X11734405Y-11159548D01*
X11734405Y-11159548D02*
X11743928Y-11169071D01*
X11743928Y-11169071D02*
X11753452Y-11159548D01*
X11753452Y-11159548D02*
X11743928Y-11150024D01*
X11743928Y-11150024D02*
X11743928Y-11169071D01*
X11867738Y-11350024D02*
X11848690Y-11340500D01*
X11848690Y-11340500D02*
X11839167Y-11321452D01*
X11839167Y-11321452D02*
X11839167Y-11150024D01*
X11972500Y-11350024D02*
X11953452Y-11340500D01*
X11953452Y-11340500D02*
X11943928Y-11321452D01*
X11943928Y-11321452D02*
X11943928Y-11150024D01*
X12201071Y-11350024D02*
X12201071Y-11150024D01*
X12201071Y-11150024D02*
X12267738Y-11292881D01*
X12267738Y-11292881D02*
X12334405Y-11150024D01*
X12334405Y-11150024D02*
X12334405Y-11350024D01*
X12515357Y-11350024D02*
X12515357Y-11245262D01*
X12515357Y-11245262D02*
X12505833Y-11226214D01*
X12505833Y-11226214D02*
X12486786Y-11216690D01*
X12486786Y-11216690D02*
X12448690Y-11216690D01*
X12448690Y-11216690D02*
X12429643Y-11226214D01*
X12515357Y-11340500D02*
X12496309Y-11350024D01*
X12496309Y-11350024D02*
X12448690Y-11350024D01*
X12448690Y-11350024D02*
X12429643Y-11340500D01*
X12429643Y-11340500D02*
X12420119Y-11321452D01*
X12420119Y-11321452D02*
X12420119Y-11302405D01*
X12420119Y-11302405D02*
X12429643Y-11283357D01*
X12429643Y-11283357D02*
X12448690Y-11273833D01*
X12448690Y-11273833D02*
X12496309Y-11273833D01*
X12496309Y-11273833D02*
X12515357Y-11264309D01*
X12610595Y-11216690D02*
X12610595Y-11416690D01*
X12610595Y-11226214D02*
X12629643Y-11216690D01*
X12629643Y-11216690D02*
X12667738Y-11216690D01*
X12667738Y-11216690D02*
X12686786Y-11226214D01*
X12686786Y-11226214D02*
X12696309Y-11235738D01*
X12696309Y-11235738D02*
X12705833Y-11254786D01*
X12705833Y-11254786D02*
X12705833Y-11311928D01*
X12705833Y-11311928D02*
X12696309Y-11330976D01*
X12696309Y-11330976D02*
X12686786Y-11340500D01*
X12686786Y-11340500D02*
X12667738Y-11350024D01*
X12667738Y-11350024D02*
X12629643Y-11350024D01*
X12629643Y-11350024D02*
X12610595Y-11340500D01*
X12791548Y-11330976D02*
X12801071Y-11340500D01*
X12801071Y-11340500D02*
X12791548Y-11350024D01*
X12791548Y-11350024D02*
X12782024Y-11340500D01*
X12782024Y-11340500D02*
X12791548Y-11330976D01*
X12791548Y-11330976D02*
X12791548Y-11350024D01*
X12791548Y-11226214D02*
X12801071Y-11235738D01*
X12801071Y-11235738D02*
X12791548Y-11245262D01*
X12791548Y-11245262D02*
X12782024Y-11235738D01*
X12782024Y-11235738D02*
X12791548Y-11226214D01*
X12791548Y-11226214D02*
X12791548Y-11245262D01*
X10972500Y-11577500D02*
X11172500Y-11777500D01*
X11172500Y-11577500D02*
X10972500Y-11777500D01*
X11410595Y-11589071D02*
X11420119Y-11579548D01*
X11420119Y-11579548D02*
X11439167Y-11570024D01*
X11439167Y-11570024D02*
X11486786Y-11570024D01*
X11486786Y-11570024D02*
X11505833Y-11579548D01*
X11505833Y-11579548D02*
X11515357Y-11589071D01*
X11515357Y-11589071D02*
X11524881Y-11608119D01*
X11524881Y-11608119D02*
X11524881Y-11627167D01*
X11524881Y-11627167D02*
X11515357Y-11655738D01*
X11515357Y-11655738D02*
X11401071Y-11770024D01*
X11401071Y-11770024D02*
X11524881Y-11770024D01*
X11610595Y-11750976D02*
X11620119Y-11760500D01*
X11620119Y-11760500D02*
X11610595Y-11770024D01*
X11610595Y-11770024D02*
X11601071Y-11760500D01*
X11601071Y-11760500D02*
X11610595Y-11750976D01*
X11610595Y-11750976D02*
X11610595Y-11770024D01*
X11696309Y-11589071D02*
X11705833Y-11579548D01*
X11705833Y-11579548D02*
X11724881Y-11570024D01*
X11724881Y-11570024D02*
X11772500Y-11570024D01*
X11772500Y-11570024D02*
X11791548Y-11579548D01*
X11791548Y-11579548D02*
X11801071Y-11589071D01*
X11801071Y-11589071D02*
X11810595Y-11608119D01*
X11810595Y-11608119D02*
X11810595Y-11627167D01*
X11810595Y-11627167D02*
X11801071Y-11655738D01*
X11801071Y-11655738D02*
X11686786Y-11770024D01*
X11686786Y-11770024D02*
X11810595Y-11770024D01*
X11934405Y-11570024D02*
X11953452Y-11570024D01*
X11953452Y-11570024D02*
X11972500Y-11579548D01*
X11972500Y-11579548D02*
X11982024Y-11589071D01*
X11982024Y-11589071D02*
X11991548Y-11608119D01*
X11991548Y-11608119D02*
X12001071Y-11646214D01*
X12001071Y-11646214D02*
X12001071Y-11693833D01*
X12001071Y-11693833D02*
X11991548Y-11731928D01*
X11991548Y-11731928D02*
X11982024Y-11750976D01*
X11982024Y-11750976D02*
X11972500Y-11760500D01*
X11972500Y-11760500D02*
X11953452Y-11770024D01*
X11953452Y-11770024D02*
X11934405Y-11770024D01*
X11934405Y-11770024D02*
X11915357Y-11760500D01*
X11915357Y-11760500D02*
X11905833Y-11750976D01*
X11905833Y-11750976D02*
X11896309Y-11731928D01*
X11896309Y-11731928D02*
X11886786Y-11693833D01*
X11886786Y-11693833D02*
X11886786Y-11646214D01*
X11886786Y-11646214D02*
X11896309Y-11608119D01*
X11896309Y-11608119D02*
X11905833Y-11589071D01*
X11905833Y-11589071D02*
X11915357Y-11579548D01*
X11915357Y-11579548D02*
X11934405Y-11570024D01*
X12124881Y-11570024D02*
X12143929Y-11570024D01*
X12143929Y-11570024D02*
X12162976Y-11579548D01*
X12162976Y-11579548D02*
X12172500Y-11589071D01*
X12172500Y-11589071D02*
X12182024Y-11608119D01*
X12182024Y-11608119D02*
X12191548Y-11646214D01*
X12191548Y-11646214D02*
X12191548Y-11693833D01*
X12191548Y-11693833D02*
X12182024Y-11731928D01*
X12182024Y-11731928D02*
X12172500Y-11750976D01*
X12172500Y-11750976D02*
X12162976Y-11760500D01*
X12162976Y-11760500D02*
X12143929Y-11770024D01*
X12143929Y-11770024D02*
X12124881Y-11770024D01*
X12124881Y-11770024D02*
X12105833Y-11760500D01*
X12105833Y-11760500D02*
X12096309Y-11750976D01*
X12096309Y-11750976D02*
X12086786Y-11731928D01*
X12086786Y-11731928D02*
X12077262Y-11693833D01*
X12077262Y-11693833D02*
X12077262Y-11646214D01*
X12077262Y-11646214D02*
X12086786Y-11608119D01*
X12086786Y-11608119D02*
X12096309Y-11589071D01*
X12096309Y-11589071D02*
X12105833Y-11579548D01*
X12105833Y-11579548D02*
X12124881Y-11570024D01*
X12277262Y-11770024D02*
X12277262Y-11636690D01*
X12277262Y-11655738D02*
X12286786Y-11646214D01*
X12286786Y-11646214D02*
X12305833Y-11636690D01*
X12305833Y-11636690D02*
X12334405Y-11636690D01*
X12334405Y-11636690D02*
X12353452Y-11646214D01*
X12353452Y-11646214D02*
X12362976Y-11665262D01*
X12362976Y-11665262D02*
X12362976Y-11770024D01*
X12362976Y-11665262D02*
X12372500Y-11646214D01*
X12372500Y-11646214D02*
X12391548Y-11636690D01*
X12391548Y-11636690D02*
X12420119Y-11636690D01*
X12420119Y-11636690D02*
X12439167Y-11646214D01*
X12439167Y-11646214D02*
X12448690Y-11665262D01*
X12448690Y-11665262D02*
X12448690Y-11770024D01*
X12543929Y-11770024D02*
X12543929Y-11636690D01*
X12543929Y-11655738D02*
X12553452Y-11646214D01*
X12553452Y-11646214D02*
X12572500Y-11636690D01*
X12572500Y-11636690D02*
X12601071Y-11636690D01*
X12601071Y-11636690D02*
X12620119Y-11646214D01*
X12620119Y-11646214D02*
X12629643Y-11665262D01*
X12629643Y-11665262D02*
X12629643Y-11770024D01*
X12629643Y-11665262D02*
X12639167Y-11646214D01*
X12639167Y-11646214D02*
X12658214Y-11636690D01*
X12658214Y-11636690D02*
X12686786Y-11636690D01*
X12686786Y-11636690D02*
X12705833Y-11646214D01*
X12705833Y-11646214D02*
X12715357Y-11665262D01*
X12715357Y-11665262D02*
X12715357Y-11770024D01*
X13105833Y-11560500D02*
X12934405Y-11817643D01*
X13362976Y-11570024D02*
X13382024Y-11570024D01*
X13382024Y-11570024D02*
X13401072Y-11579548D01*
X13401072Y-11579548D02*
X13410595Y-11589071D01*
X13410595Y-11589071D02*
X13420119Y-11608119D01*
X13420119Y-11608119D02*
X13429643Y-11646214D01*
X13429643Y-11646214D02*
X13429643Y-11693833D01*
X13429643Y-11693833D02*
X13420119Y-11731928D01*
X13420119Y-11731928D02*
X13410595Y-11750976D01*
X13410595Y-11750976D02*
X13401072Y-11760500D01*
X13401072Y-11760500D02*
X13382024Y-11770024D01*
X13382024Y-11770024D02*
X13362976Y-11770024D01*
X13362976Y-11770024D02*
X13343929Y-11760500D01*
X13343929Y-11760500D02*
X13334405Y-11750976D01*
X13334405Y-11750976D02*
X13324881Y-11731928D01*
X13324881Y-11731928D02*
X13315357Y-11693833D01*
X13315357Y-11693833D02*
X13315357Y-11646214D01*
X13315357Y-11646214D02*
X13324881Y-11608119D01*
X13324881Y-11608119D02*
X13334405Y-11589071D01*
X13334405Y-11589071D02*
X13343929Y-11579548D01*
X13343929Y-11579548D02*
X13362976Y-11570024D01*
X13515357Y-11750976D02*
X13524881Y-11760500D01*
X13524881Y-11760500D02*
X13515357Y-11770024D01*
X13515357Y-11770024D02*
X13505833Y-11760500D01*
X13505833Y-11760500D02*
X13515357Y-11750976D01*
X13515357Y-11750976D02*
X13515357Y-11770024D01*
X13648691Y-11570024D02*
X13667738Y-11570024D01*
X13667738Y-11570024D02*
X13686786Y-11579548D01*
X13686786Y-11579548D02*
X13696310Y-11589071D01*
X13696310Y-11589071D02*
X13705833Y-11608119D01*
X13705833Y-11608119D02*
X13715357Y-11646214D01*
X13715357Y-11646214D02*
X13715357Y-11693833D01*
X13715357Y-11693833D02*
X13705833Y-11731928D01*
X13705833Y-11731928D02*
X13696310Y-11750976D01*
X13696310Y-11750976D02*
X13686786Y-11760500D01*
X13686786Y-11760500D02*
X13667738Y-11770024D01*
X13667738Y-11770024D02*
X13648691Y-11770024D01*
X13648691Y-11770024D02*
X13629643Y-11760500D01*
X13629643Y-11760500D02*
X13620119Y-11750976D01*
X13620119Y-11750976D02*
X13610595Y-11731928D01*
X13610595Y-11731928D02*
X13601072Y-11693833D01*
X13601072Y-11693833D02*
X13601072Y-11646214D01*
X13601072Y-11646214D02*
X13610595Y-11608119D01*
X13610595Y-11608119D02*
X13620119Y-11589071D01*
X13620119Y-11589071D02*
X13629643Y-11579548D01*
X13629643Y-11579548D02*
X13648691Y-11570024D01*
X13829643Y-11655738D02*
X13810595Y-11646214D01*
X13810595Y-11646214D02*
X13801072Y-11636690D01*
X13801072Y-11636690D02*
X13791548Y-11617643D01*
X13791548Y-11617643D02*
X13791548Y-11608119D01*
X13791548Y-11608119D02*
X13801072Y-11589071D01*
X13801072Y-11589071D02*
X13810595Y-11579548D01*
X13810595Y-11579548D02*
X13829643Y-11570024D01*
X13829643Y-11570024D02*
X13867738Y-11570024D01*
X13867738Y-11570024D02*
X13886786Y-11579548D01*
X13886786Y-11579548D02*
X13896310Y-11589071D01*
X13896310Y-11589071D02*
X13905833Y-11608119D01*
X13905833Y-11608119D02*
X13905833Y-11617643D01*
X13905833Y-11617643D02*
X13896310Y-11636690D01*
X13896310Y-11636690D02*
X13886786Y-11646214D01*
X13886786Y-11646214D02*
X13867738Y-11655738D01*
X13867738Y-11655738D02*
X13829643Y-11655738D01*
X13829643Y-11655738D02*
X13810595Y-11665262D01*
X13810595Y-11665262D02*
X13801072Y-11674786D01*
X13801072Y-11674786D02*
X13791548Y-11693833D01*
X13791548Y-11693833D02*
X13791548Y-11731928D01*
X13791548Y-11731928D02*
X13801072Y-11750976D01*
X13801072Y-11750976D02*
X13810595Y-11760500D01*
X13810595Y-11760500D02*
X13829643Y-11770024D01*
X13829643Y-11770024D02*
X13867738Y-11770024D01*
X13867738Y-11770024D02*
X13886786Y-11760500D01*
X13886786Y-11760500D02*
X13896310Y-11750976D01*
X13896310Y-11750976D02*
X13905833Y-11731928D01*
X13905833Y-11731928D02*
X13905833Y-11693833D01*
X13905833Y-11693833D02*
X13896310Y-11674786D01*
X13896310Y-11674786D02*
X13886786Y-11665262D01*
X13886786Y-11665262D02*
X13867738Y-11655738D01*
X14077262Y-11570024D02*
X14039167Y-11570024D01*
X14039167Y-11570024D02*
X14020119Y-11579548D01*
X14020119Y-11579548D02*
X14010595Y-11589071D01*
X14010595Y-11589071D02*
X13991548Y-11617643D01*
X13991548Y-11617643D02*
X13982024Y-11655738D01*
X13982024Y-11655738D02*
X13982024Y-11731928D01*
X13982024Y-11731928D02*
X13991548Y-11750976D01*
X13991548Y-11750976D02*
X14001072Y-11760500D01*
X14001072Y-11760500D02*
X14020119Y-11770024D01*
X14020119Y-11770024D02*
X14058214Y-11770024D01*
X14058214Y-11770024D02*
X14077262Y-11760500D01*
X14077262Y-11760500D02*
X14086786Y-11750976D01*
X14086786Y-11750976D02*
X14096310Y-11731928D01*
X14096310Y-11731928D02*
X14096310Y-11684309D01*
X14096310Y-11684309D02*
X14086786Y-11665262D01*
X14086786Y-11665262D02*
X14077262Y-11655738D01*
X14077262Y-11655738D02*
X14058214Y-11646214D01*
X14058214Y-11646214D02*
X14020119Y-11646214D01*
X14020119Y-11646214D02*
X14001072Y-11655738D01*
X14001072Y-11655738D02*
X13991548Y-11665262D01*
X13991548Y-11665262D02*
X13982024Y-11684309D01*
X14267738Y-11570024D02*
X14229643Y-11570024D01*
X14229643Y-11570024D02*
X14210595Y-11579548D01*
X14210595Y-11579548D02*
X14201072Y-11589071D01*
X14201072Y-11589071D02*
X14182024Y-11617643D01*
X14182024Y-11617643D02*
X14172500Y-11655738D01*
X14172500Y-11655738D02*
X14172500Y-11731928D01*
X14172500Y-11731928D02*
X14182024Y-11750976D01*
X14182024Y-11750976D02*
X14191548Y-11760500D01*
X14191548Y-11760500D02*
X14210595Y-11770024D01*
X14210595Y-11770024D02*
X14248691Y-11770024D01*
X14248691Y-11770024D02*
X14267738Y-11760500D01*
X14267738Y-11760500D02*
X14277262Y-11750976D01*
X14277262Y-11750976D02*
X14286786Y-11731928D01*
X14286786Y-11731928D02*
X14286786Y-11684309D01*
X14286786Y-11684309D02*
X14277262Y-11665262D01*
X14277262Y-11665262D02*
X14267738Y-11655738D01*
X14267738Y-11655738D02*
X14248691Y-11646214D01*
X14248691Y-11646214D02*
X14210595Y-11646214D01*
X14210595Y-11646214D02*
X14191548Y-11655738D01*
X14191548Y-11655738D02*
X14182024Y-11665262D01*
X14182024Y-11665262D02*
X14172500Y-11684309D01*
X14362976Y-11570024D02*
X14362976Y-11608119D01*
X14439167Y-11570024D02*
X14439167Y-11608119D01*
X14734405Y-11846214D02*
X14724881Y-11836690D01*
X14724881Y-11836690D02*
X14705834Y-11808119D01*
X14705834Y-11808119D02*
X14696310Y-11789071D01*
X14696310Y-11789071D02*
X14686786Y-11760500D01*
X14686786Y-11760500D02*
X14677262Y-11712881D01*
X14677262Y-11712881D02*
X14677262Y-11674786D01*
X14677262Y-11674786D02*
X14686786Y-11627167D01*
X14686786Y-11627167D02*
X14696310Y-11598595D01*
X14696310Y-11598595D02*
X14705834Y-11579548D01*
X14705834Y-11579548D02*
X14724881Y-11550976D01*
X14724881Y-11550976D02*
X14734405Y-11541452D01*
X14801072Y-11589071D02*
X14810595Y-11579548D01*
X14810595Y-11579548D02*
X14829643Y-11570024D01*
X14829643Y-11570024D02*
X14877262Y-11570024D01*
X14877262Y-11570024D02*
X14896310Y-11579548D01*
X14896310Y-11579548D02*
X14905834Y-11589071D01*
X14905834Y-11589071D02*
X14915357Y-11608119D01*
X14915357Y-11608119D02*
X14915357Y-11627167D01*
X14915357Y-11627167D02*
X14905834Y-11655738D01*
X14905834Y-11655738D02*
X14791548Y-11770024D01*
X14791548Y-11770024D02*
X14915357Y-11770024D01*
X15153453Y-11770024D02*
X15153453Y-11570024D01*
X15239167Y-11770024D02*
X15239167Y-11665262D01*
X15239167Y-11665262D02*
X15229643Y-11646214D01*
X15229643Y-11646214D02*
X15210596Y-11636690D01*
X15210596Y-11636690D02*
X15182024Y-11636690D01*
X15182024Y-11636690D02*
X15162976Y-11646214D01*
X15162976Y-11646214D02*
X15153453Y-11655738D01*
X15362976Y-11770024D02*
X15343929Y-11760500D01*
X15343929Y-11760500D02*
X15334405Y-11750976D01*
X15334405Y-11750976D02*
X15324881Y-11731928D01*
X15324881Y-11731928D02*
X15324881Y-11674786D01*
X15324881Y-11674786D02*
X15334405Y-11655738D01*
X15334405Y-11655738D02*
X15343929Y-11646214D01*
X15343929Y-11646214D02*
X15362976Y-11636690D01*
X15362976Y-11636690D02*
X15391548Y-11636690D01*
X15391548Y-11636690D02*
X15410596Y-11646214D01*
X15410596Y-11646214D02*
X15420119Y-11655738D01*
X15420119Y-11655738D02*
X15429643Y-11674786D01*
X15429643Y-11674786D02*
X15429643Y-11731928D01*
X15429643Y-11731928D02*
X15420119Y-11750976D01*
X15420119Y-11750976D02*
X15410596Y-11760500D01*
X15410596Y-11760500D02*
X15391548Y-11770024D01*
X15391548Y-11770024D02*
X15362976Y-11770024D01*
X15543929Y-11770024D02*
X15524881Y-11760500D01*
X15524881Y-11760500D02*
X15515357Y-11741452D01*
X15515357Y-11741452D02*
X15515357Y-11570024D01*
X15696310Y-11760500D02*
X15677262Y-11770024D01*
X15677262Y-11770024D02*
X15639167Y-11770024D01*
X15639167Y-11770024D02*
X15620119Y-11760500D01*
X15620119Y-11760500D02*
X15610596Y-11741452D01*
X15610596Y-11741452D02*
X15610596Y-11665262D01*
X15610596Y-11665262D02*
X15620119Y-11646214D01*
X15620119Y-11646214D02*
X15639167Y-11636690D01*
X15639167Y-11636690D02*
X15677262Y-11636690D01*
X15677262Y-11636690D02*
X15696310Y-11646214D01*
X15696310Y-11646214D02*
X15705834Y-11665262D01*
X15705834Y-11665262D02*
X15705834Y-11684309D01*
X15705834Y-11684309D02*
X15610596Y-11703357D01*
X15782024Y-11760500D02*
X15801072Y-11770024D01*
X15801072Y-11770024D02*
X15839167Y-11770024D01*
X15839167Y-11770024D02*
X15858215Y-11760500D01*
X15858215Y-11760500D02*
X15867738Y-11741452D01*
X15867738Y-11741452D02*
X15867738Y-11731928D01*
X15867738Y-11731928D02*
X15858215Y-11712881D01*
X15858215Y-11712881D02*
X15839167Y-11703357D01*
X15839167Y-11703357D02*
X15810596Y-11703357D01*
X15810596Y-11703357D02*
X15791548Y-11693833D01*
X15791548Y-11693833D02*
X15782024Y-11674786D01*
X15782024Y-11674786D02*
X15782024Y-11665262D01*
X15782024Y-11665262D02*
X15791548Y-11646214D01*
X15791548Y-11646214D02*
X15810596Y-11636690D01*
X15810596Y-11636690D02*
X15839167Y-11636690D01*
X15839167Y-11636690D02*
X15858215Y-11646214D01*
X15934405Y-11846214D02*
X15943929Y-11836690D01*
X15943929Y-11836690D02*
X15962977Y-11808119D01*
X15962977Y-11808119D02*
X15972500Y-11789071D01*
X15972500Y-11789071D02*
X15982024Y-11760500D01*
X15982024Y-11760500D02*
X15991548Y-11712881D01*
X15991548Y-11712881D02*
X15991548Y-11674786D01*
X15991548Y-11674786D02*
X15982024Y-11627167D01*
X15982024Y-11627167D02*
X15972500Y-11598595D01*
X15972500Y-11598595D02*
X15962977Y-11579548D01*
X15962977Y-11579548D02*
X15943929Y-11550976D01*
X15943929Y-11550976D02*
X15934405Y-11541452D01*
X16296310Y-11846214D02*
X16286786Y-11836690D01*
X16286786Y-11836690D02*
X16267738Y-11808119D01*
X16267738Y-11808119D02*
X16258215Y-11789071D01*
X16258215Y-11789071D02*
X16248691Y-11760500D01*
X16248691Y-11760500D02*
X16239167Y-11712881D01*
X16239167Y-11712881D02*
X16239167Y-11674786D01*
X16239167Y-11674786D02*
X16248691Y-11627167D01*
X16248691Y-11627167D02*
X16258215Y-11598595D01*
X16258215Y-11598595D02*
X16267738Y-11579548D01*
X16267738Y-11579548D02*
X16286786Y-11550976D01*
X16286786Y-11550976D02*
X16296310Y-11541452D01*
X16372500Y-11636690D02*
X16372500Y-11770024D01*
X16372500Y-11655738D02*
X16382024Y-11646214D01*
X16382024Y-11646214D02*
X16401072Y-11636690D01*
X16401072Y-11636690D02*
X16429643Y-11636690D01*
X16429643Y-11636690D02*
X16448691Y-11646214D01*
X16448691Y-11646214D02*
X16458215Y-11665262D01*
X16458215Y-11665262D02*
X16458215Y-11770024D01*
X16582024Y-11770024D02*
X16562977Y-11760500D01*
X16562977Y-11760500D02*
X16553453Y-11750976D01*
X16553453Y-11750976D02*
X16543929Y-11731928D01*
X16543929Y-11731928D02*
X16543929Y-11674786D01*
X16543929Y-11674786D02*
X16553453Y-11655738D01*
X16553453Y-11655738D02*
X16562977Y-11646214D01*
X16562977Y-11646214D02*
X16582024Y-11636690D01*
X16582024Y-11636690D02*
X16610596Y-11636690D01*
X16610596Y-11636690D02*
X16629643Y-11646214D01*
X16629643Y-11646214D02*
X16639167Y-11655738D01*
X16639167Y-11655738D02*
X16648691Y-11674786D01*
X16648691Y-11674786D02*
X16648691Y-11731928D01*
X16648691Y-11731928D02*
X16639167Y-11750976D01*
X16639167Y-11750976D02*
X16629643Y-11760500D01*
X16629643Y-11760500D02*
X16610596Y-11770024D01*
X16610596Y-11770024D02*
X16582024Y-11770024D01*
X16705834Y-11636690D02*
X16782024Y-11636690D01*
X16734405Y-11570024D02*
X16734405Y-11741452D01*
X16734405Y-11741452D02*
X16743929Y-11760500D01*
X16743929Y-11760500D02*
X16762977Y-11770024D01*
X16762977Y-11770024D02*
X16782024Y-11770024D01*
X17001072Y-11636690D02*
X17001072Y-11836690D01*
X17001072Y-11646214D02*
X17020120Y-11636690D01*
X17020120Y-11636690D02*
X17058215Y-11636690D01*
X17058215Y-11636690D02*
X17077262Y-11646214D01*
X17077262Y-11646214D02*
X17086786Y-11655738D01*
X17086786Y-11655738D02*
X17096310Y-11674786D01*
X17096310Y-11674786D02*
X17096310Y-11731928D01*
X17096310Y-11731928D02*
X17086786Y-11750976D01*
X17086786Y-11750976D02*
X17077262Y-11760500D01*
X17077262Y-11760500D02*
X17058215Y-11770024D01*
X17058215Y-11770024D02*
X17020120Y-11770024D01*
X17020120Y-11770024D02*
X17001072Y-11760500D01*
X17210596Y-11770024D02*
X17191548Y-11760500D01*
X17191548Y-11760500D02*
X17182024Y-11741452D01*
X17182024Y-11741452D02*
X17182024Y-11570024D01*
X17372501Y-11770024D02*
X17372501Y-11665262D01*
X17372501Y-11665262D02*
X17362977Y-11646214D01*
X17362977Y-11646214D02*
X17343929Y-11636690D01*
X17343929Y-11636690D02*
X17305834Y-11636690D01*
X17305834Y-11636690D02*
X17286786Y-11646214D01*
X17372501Y-11760500D02*
X17353453Y-11770024D01*
X17353453Y-11770024D02*
X17305834Y-11770024D01*
X17305834Y-11770024D02*
X17286786Y-11760500D01*
X17286786Y-11760500D02*
X17277262Y-11741452D01*
X17277262Y-11741452D02*
X17277262Y-11722405D01*
X17277262Y-11722405D02*
X17286786Y-11703357D01*
X17286786Y-11703357D02*
X17305834Y-11693833D01*
X17305834Y-11693833D02*
X17353453Y-11693833D01*
X17353453Y-11693833D02*
X17372501Y-11684309D01*
X17439167Y-11636690D02*
X17515358Y-11636690D01*
X17467739Y-11570024D02*
X17467739Y-11741452D01*
X17467739Y-11741452D02*
X17477262Y-11760500D01*
X17477262Y-11760500D02*
X17496310Y-11770024D01*
X17496310Y-11770024D02*
X17515358Y-11770024D01*
X17658215Y-11760500D02*
X17639167Y-11770024D01*
X17639167Y-11770024D02*
X17601072Y-11770024D01*
X17601072Y-11770024D02*
X17582024Y-11760500D01*
X17582024Y-11760500D02*
X17572501Y-11741452D01*
X17572501Y-11741452D02*
X17572501Y-11665262D01*
X17572501Y-11665262D02*
X17582024Y-11646214D01*
X17582024Y-11646214D02*
X17601072Y-11636690D01*
X17601072Y-11636690D02*
X17639167Y-11636690D01*
X17639167Y-11636690D02*
X17658215Y-11646214D01*
X17658215Y-11646214D02*
X17667739Y-11665262D01*
X17667739Y-11665262D02*
X17667739Y-11684309D01*
X17667739Y-11684309D02*
X17572501Y-11703357D01*
X17839167Y-11770024D02*
X17839167Y-11570024D01*
X17839167Y-11760500D02*
X17820120Y-11770024D01*
X17820120Y-11770024D02*
X17782024Y-11770024D01*
X17782024Y-11770024D02*
X17762977Y-11760500D01*
X17762977Y-11760500D02*
X17753453Y-11750976D01*
X17753453Y-11750976D02*
X17743929Y-11731928D01*
X17743929Y-11731928D02*
X17743929Y-11674786D01*
X17743929Y-11674786D02*
X17753453Y-11655738D01*
X17753453Y-11655738D02*
X17762977Y-11646214D01*
X17762977Y-11646214D02*
X17782024Y-11636690D01*
X17782024Y-11636690D02*
X17820120Y-11636690D01*
X17820120Y-11636690D02*
X17839167Y-11646214D01*
X17915358Y-11846214D02*
X17924882Y-11836690D01*
X17924882Y-11836690D02*
X17943929Y-11808119D01*
X17943929Y-11808119D02*
X17953453Y-11789071D01*
X17953453Y-11789071D02*
X17962977Y-11760500D01*
X17962977Y-11760500D02*
X17972501Y-11712881D01*
X17972501Y-11712881D02*
X17972501Y-11674786D01*
X17972501Y-11674786D02*
X17962977Y-11627167D01*
X17962977Y-11627167D02*
X17953453Y-11598595D01*
X17953453Y-11598595D02*
X17943929Y-11579548D01*
X17943929Y-11579548D02*
X17924882Y-11550976D01*
X17924882Y-11550976D02*
X17915358Y-11541452D01*
M02*
