G04 #@! TF.GenerationSoftware,KiCad,Pcbnew,7.0.1*
G04 #@! TF.CreationDate,2023-07-03T18:39:06+02:00*
G04 #@! TF.ProjectId,orion_pcb,6f72696f-6e5f-4706-9362-2e6b69636164,4*
G04 #@! TF.SameCoordinates,Original*
G04 #@! TF.FileFunction,Copper,L4,Bot*
G04 #@! TF.FilePolarity,Positive*
%FSLAX46Y46*%
G04 Gerber Fmt 4.6, Leading zero omitted, Abs format (unit mm)*
G04 Created by KiCad (PCBNEW 7.0.1) date 2023-07-03 18:39:06*
%MOMM*%
%LPD*%
G01*
G04 APERTURE LIST*
G04 Aperture macros list*
%AMRoundRect*
0 Rectangle with rounded corners*
0 $1 Rounding radius*
0 $2 $3 $4 $5 $6 $7 $8 $9 X,Y pos of 4 corners*
0 Add a 4 corners polygon primitive as box body*
4,1,4,$2,$3,$4,$5,$6,$7,$8,$9,$2,$3,0*
0 Add four circle primitives for the rounded corners*
1,1,$1+$1,$2,$3*
1,1,$1+$1,$4,$5*
1,1,$1+$1,$6,$7*
1,1,$1+$1,$8,$9*
0 Add four rect primitives between the rounded corners*
20,1,$1+$1,$2,$3,$4,$5,0*
20,1,$1+$1,$4,$5,$6,$7,0*
20,1,$1+$1,$6,$7,$8,$9,0*
20,1,$1+$1,$8,$9,$2,$3,0*%
%AMFreePoly0*
4,1,19,0.500000,-0.750000,0.000000,-0.750000,0.000000,-0.744911,-0.071157,-0.744911,-0.207708,-0.704816,-0.327430,-0.627875,-0.420627,-0.520320,-0.479746,-0.390866,-0.500000,-0.250000,-0.500000,0.250000,-0.479746,0.390866,-0.420627,0.520320,-0.327430,0.627875,-0.207708,0.704816,-0.071157,0.744911,0.000000,0.744911,0.000000,0.750000,0.500000,0.750000,0.500000,-0.750000,0.500000,-0.750000,
$1*%
%AMFreePoly1*
4,1,5,0.500000,-1.000000,-0.500000,-1.000000,-0.500000,1.000000,0.500000,1.000000,0.500000,-1.000000,0.500000,-1.000000,$1*%
%AMFreePoly2*
4,1,19,0.000000,0.744911,0.071157,0.744911,0.207708,0.704816,0.327430,0.627875,0.420627,0.520320,0.479746,0.390866,0.500000,0.250000,0.500000,-0.250000,0.479746,-0.390866,0.420627,-0.520320,0.327430,-0.627875,0.207708,-0.704816,0.071157,-0.744911,0.000000,-0.744911,0.000000,-0.750000,-0.500000,-0.750000,-0.500000,0.750000,0.000000,0.750000,0.000000,0.744911,0.000000,0.744911,
$1*%
%AMFreePoly3*
4,1,19,0.550000,-0.750000,0.000000,-0.750000,0.000000,-0.744911,-0.071157,-0.744911,-0.207708,-0.704816,-0.327430,-0.627875,-0.420627,-0.520320,-0.479746,-0.390866,-0.500000,-0.250000,-0.500000,0.250000,-0.479746,0.390866,-0.420627,0.520320,-0.327430,0.627875,-0.207708,0.704816,-0.071157,0.744911,0.000000,0.744911,0.000000,0.750000,0.550000,0.750000,0.550000,-0.750000,0.550000,-0.750000,
$1*%
%AMFreePoly4*
4,1,19,0.000000,0.744911,0.071157,0.744911,0.207708,0.704816,0.327430,0.627875,0.420627,0.520320,0.479746,0.390866,0.500000,0.250000,0.500000,-0.250000,0.479746,-0.390866,0.420627,-0.520320,0.327430,-0.627875,0.207708,-0.704816,0.071157,-0.744911,0.000000,-0.744911,0.000000,-0.750000,-0.550000,-0.750000,-0.550000,0.750000,0.000000,0.750000,0.000000,0.744911,0.000000,0.744911,
$1*%
G04 Aperture macros list end*
G04 #@! TA.AperFunction,ComponentPad*
%ADD10RoundRect,0.200000X0.450000X-0.200000X0.450000X0.200000X-0.450000X0.200000X-0.450000X-0.200000X0*%
G04 #@! TD*
G04 #@! TA.AperFunction,ComponentPad*
%ADD11O,1.300000X0.800000*%
G04 #@! TD*
G04 #@! TA.AperFunction,ComponentPad*
%ADD12C,0.500000*%
G04 #@! TD*
G04 #@! TA.AperFunction,ComponentPad*
%ADD13C,1.200000*%
G04 #@! TD*
G04 #@! TA.AperFunction,ComponentPad*
%ADD14C,0.700000*%
G04 #@! TD*
G04 #@! TA.AperFunction,ComponentPad*
%ADD15C,4.400000*%
G04 #@! TD*
G04 #@! TA.AperFunction,ComponentPad*
%ADD16R,2.000000X2.000000*%
G04 #@! TD*
G04 #@! TA.AperFunction,ComponentPad*
%ADD17O,2.000000X2.000000*%
G04 #@! TD*
G04 #@! TA.AperFunction,ComponentPad*
%ADD18O,1.700000X1.700000*%
G04 #@! TD*
G04 #@! TA.AperFunction,ComponentPad*
%ADD19O,1.200000X1.900000*%
G04 #@! TD*
G04 #@! TA.AperFunction,ComponentPad*
%ADD20C,1.450000*%
G04 #@! TD*
G04 #@! TA.AperFunction,ComponentPad*
%ADD21RoundRect,0.200000X-0.450000X0.200000X-0.450000X-0.200000X0.450000X-0.200000X0.450000X0.200000X0*%
G04 #@! TD*
G04 #@! TA.AperFunction,SMDPad,CuDef*
%ADD22R,2.600000X2.600000*%
G04 #@! TD*
G04 #@! TA.AperFunction,ComponentPad*
%ADD23RoundRect,0.200000X-0.200000X-0.450000X0.200000X-0.450000X0.200000X0.450000X-0.200000X0.450000X0*%
G04 #@! TD*
G04 #@! TA.AperFunction,ComponentPad*
%ADD24O,0.800000X1.300000*%
G04 #@! TD*
G04 #@! TA.AperFunction,ComponentPad*
%ADD25R,1.000000X1.000000*%
G04 #@! TD*
G04 #@! TA.AperFunction,ComponentPad*
%ADD26O,1.000000X1.000000*%
G04 #@! TD*
G04 #@! TA.AperFunction,ComponentPad*
%ADD27R,1.700000X1.700000*%
G04 #@! TD*
G04 #@! TA.AperFunction,ComponentPad*
%ADD28RoundRect,0.200000X0.200000X0.450000X-0.200000X0.450000X-0.200000X-0.450000X0.200000X-0.450000X0*%
G04 #@! TD*
G04 #@! TA.AperFunction,ComponentPad*
%ADD29C,1.524000*%
G04 #@! TD*
G04 #@! TA.AperFunction,SMDPad,CuDef*
%ADD30FreePoly0,270.000000*%
G04 #@! TD*
G04 #@! TA.AperFunction,SMDPad,CuDef*
%ADD31FreePoly1,270.000000*%
G04 #@! TD*
G04 #@! TA.AperFunction,SMDPad,CuDef*
%ADD32FreePoly2,270.000000*%
G04 #@! TD*
G04 #@! TA.AperFunction,SMDPad,CuDef*
%ADD33C,1.500000*%
G04 #@! TD*
G04 #@! TA.AperFunction,SMDPad,CuDef*
%ADD34FreePoly3,90.000000*%
G04 #@! TD*
G04 #@! TA.AperFunction,SMDPad,CuDef*
%ADD35R,1.500000X1.000000*%
G04 #@! TD*
G04 #@! TA.AperFunction,SMDPad,CuDef*
%ADD36FreePoly4,90.000000*%
G04 #@! TD*
G04 #@! TA.AperFunction,SMDPad,CuDef*
%ADD37FreePoly0,0.000000*%
G04 #@! TD*
G04 #@! TA.AperFunction,SMDPad,CuDef*
%ADD38FreePoly1,0.000000*%
G04 #@! TD*
G04 #@! TA.AperFunction,SMDPad,CuDef*
%ADD39FreePoly2,0.000000*%
G04 #@! TD*
G04 #@! TA.AperFunction,SMDPad,CuDef*
%ADD40FreePoly3,270.000000*%
G04 #@! TD*
G04 #@! TA.AperFunction,SMDPad,CuDef*
%ADD41FreePoly4,270.000000*%
G04 #@! TD*
G04 #@! TA.AperFunction,SMDPad,CuDef*
%ADD42FreePoly0,180.000000*%
G04 #@! TD*
G04 #@! TA.AperFunction,SMDPad,CuDef*
%ADD43FreePoly1,180.000000*%
G04 #@! TD*
G04 #@! TA.AperFunction,SMDPad,CuDef*
%ADD44FreePoly2,180.000000*%
G04 #@! TD*
G04 #@! TA.AperFunction,ViaPad*
%ADD45C,0.700000*%
G04 #@! TD*
G04 #@! TA.AperFunction,ViaPad*
%ADD46C,0.800000*%
G04 #@! TD*
G04 #@! TA.AperFunction,ViaPad*
%ADD47C,0.600000*%
G04 #@! TD*
G04 #@! TA.AperFunction,Conductor*
%ADD48C,0.500000*%
G04 #@! TD*
G04 #@! TA.AperFunction,Conductor*
%ADD49C,0.200000*%
G04 #@! TD*
G04 #@! TA.AperFunction,Conductor*
%ADD50C,0.239500*%
G04 #@! TD*
G04 #@! TA.AperFunction,Conductor*
%ADD51C,0.750000*%
G04 #@! TD*
G04 #@! TA.AperFunction,Conductor*
%ADD52C,2.500000*%
G04 #@! TD*
G04 #@! TA.AperFunction,Conductor*
%ADD53C,2.000000*%
G04 #@! TD*
G04 #@! TA.AperFunction,Conductor*
%ADD54C,0.150000*%
G04 #@! TD*
G04 #@! TA.AperFunction,Conductor*
%ADD55C,0.300000*%
G04 #@! TD*
G04 #@! TA.AperFunction,Conductor*
%ADD56C,1.500000*%
G04 #@! TD*
G04 APERTURE END LIST*
G04 #@! TA.AperFunction,EtchedComponent*
G36*
X182634969Y-98106906D02*
G01*
X182659575Y-98174375D01*
X182634969Y-98241050D01*
X182562737Y-98271212D01*
X181646750Y-98271212D01*
X181573725Y-98241050D01*
X181549912Y-98174375D01*
X181573725Y-98106906D01*
X181646750Y-98075950D01*
X182562737Y-98075950D01*
X182634969Y-98106906D01*
G37*
G04 #@! TD.AperFunction*
G04 #@! TA.AperFunction,EtchedComponent*
G36*
X182584963Y-96413837D02*
G01*
X182650844Y-96451144D01*
X182672275Y-96547187D01*
X182664536Y-96622594D01*
X182641319Y-96705937D01*
X182603020Y-96790869D01*
X182550037Y-96871037D01*
X182482569Y-96942475D01*
X182400813Y-97001212D01*
X182304769Y-97040503D01*
X182194438Y-97053600D01*
X181688025Y-97053600D01*
X181615000Y-97018675D01*
X181597537Y-96940887D01*
X181610237Y-96823412D01*
X181606269Y-96755150D01*
X181594362Y-96688475D01*
X181606269Y-96619419D01*
X181659450Y-96586081D01*
X181722156Y-96594019D01*
X181761050Y-96651962D01*
X181774147Y-96755547D01*
X181775337Y-96859925D01*
X182184912Y-96859925D01*
X182307150Y-96832144D01*
X182407162Y-96756737D01*
X182474631Y-96645612D01*
X182493086Y-96579731D01*
X182499238Y-96509087D01*
X182515906Y-96447969D01*
X182550831Y-96420187D01*
X182581787Y-96413044D01*
X182584963Y-96413837D01*
G37*
G04 #@! TD.AperFunction*
G04 #@! TA.AperFunction,EtchedComponent*
G36*
X182392280Y-97189133D02*
G01*
X182468281Y-97214731D01*
X182533170Y-97254419D01*
X182586550Y-97305219D01*
X182628222Y-97365147D01*
X182657987Y-97432219D01*
X182675847Y-97503458D01*
X182681800Y-97575887D01*
X182676045Y-97646134D01*
X182658781Y-97714000D01*
X182630008Y-97777103D01*
X182589725Y-97833062D01*
X182537337Y-97880291D01*
X182472250Y-97917200D01*
X182394859Y-97941012D01*
X182305562Y-97948950D01*
X181964250Y-97948950D01*
X181891225Y-97918787D01*
X181867412Y-97852112D01*
X181891225Y-97784644D01*
X181964250Y-97753687D01*
X182305562Y-97753687D01*
X182386525Y-97737019D01*
X182444469Y-97694156D01*
X182479394Y-97633037D01*
X182491300Y-97563187D01*
X182479394Y-97494131D01*
X182444469Y-97433806D01*
X182386525Y-97391737D01*
X182305562Y-97375862D01*
X181964250Y-97375862D01*
X181891225Y-97345700D01*
X181867412Y-97279025D01*
X181892019Y-97211556D01*
X181964250Y-97180600D01*
X182305562Y-97180600D01*
X182392280Y-97189133D01*
G37*
G04 #@! TD.AperFunction*
G04 #@! TA.AperFunction,EtchedComponent*
G36*
X182634969Y-99858712D02*
G01*
X182662750Y-99925387D01*
X182662750Y-100450850D01*
X182633381Y-100521494D01*
X182568294Y-100544512D01*
X182502412Y-100521494D01*
X182472250Y-100450850D01*
X182472250Y-100061912D01*
X182420656Y-100086519D01*
X182377794Y-100146050D01*
X182337313Y-100228600D01*
X182291275Y-100323056D01*
X182232537Y-100417512D01*
X182154750Y-100499269D01*
X182050769Y-100556419D01*
X181986673Y-100572492D01*
X181913450Y-100577850D01*
X181843402Y-100570905D01*
X181776131Y-100550069D01*
X181714219Y-100516930D01*
X181660244Y-100473075D01*
X181615397Y-100419298D01*
X181580869Y-100356394D01*
X181558842Y-100285552D01*
X181551500Y-100207962D01*
X181551500Y-100000000D01*
X181581663Y-99928562D01*
X181647544Y-99905544D01*
X181712631Y-99930150D01*
X181742000Y-100000000D01*
X181742000Y-100206375D01*
X181754700Y-100273844D01*
X181790419Y-100330994D01*
X181845187Y-100369887D01*
X181913450Y-100384175D01*
X181979133Y-100372666D01*
X182033306Y-100341312D01*
X182079344Y-100294878D01*
X182120619Y-100238125D01*
X182158520Y-100174030D01*
X182194438Y-100105569D01*
X182231942Y-100037306D01*
X182274606Y-99973806D01*
X182323620Y-99917847D01*
X182380175Y-99872206D01*
X182447644Y-99841845D01*
X182529400Y-99831725D01*
X182569087Y-99831725D01*
X182634969Y-99858712D01*
G37*
G04 #@! TD.AperFunction*
G04 #@! TA.AperFunction,EtchedComponent*
G36*
X182634969Y-102014537D02*
G01*
X182662750Y-102081213D01*
X182662750Y-102606675D01*
X182633381Y-102677319D01*
X182568294Y-102700338D01*
X182502412Y-102677319D01*
X182472250Y-102606675D01*
X182472250Y-102217738D01*
X182420656Y-102242344D01*
X182377794Y-102301875D01*
X182337313Y-102384425D01*
X182291275Y-102478881D01*
X182232537Y-102573338D01*
X182154750Y-102655094D01*
X182050769Y-102712244D01*
X181986673Y-102728317D01*
X181913450Y-102733675D01*
X181843402Y-102726730D01*
X181776131Y-102705894D01*
X181714219Y-102672755D01*
X181660244Y-102628900D01*
X181615397Y-102575123D01*
X181580869Y-102512219D01*
X181558842Y-102441377D01*
X181551500Y-102363788D01*
X181551500Y-102155825D01*
X181581663Y-102084388D01*
X181647544Y-102061369D01*
X181712631Y-102085975D01*
X181742000Y-102155825D01*
X181742000Y-102362200D01*
X181754700Y-102429669D01*
X181790419Y-102486819D01*
X181845187Y-102525713D01*
X181913450Y-102540000D01*
X181979133Y-102528491D01*
X182033306Y-102497138D01*
X182079344Y-102450703D01*
X182120619Y-102393950D01*
X182158520Y-102329855D01*
X182194438Y-102261394D01*
X182231942Y-102193131D01*
X182274606Y-102129631D01*
X182323620Y-102073672D01*
X182380175Y-102028031D01*
X182447644Y-101997670D01*
X182529400Y-101987550D01*
X182569087Y-101987550D01*
X182634969Y-102014537D01*
G37*
G04 #@! TD.AperFunction*
G04 #@! TA.AperFunction,EtchedComponent*
G36*
X182390891Y-98406348D02*
G01*
X182465900Y-98430756D01*
X182530392Y-98468856D01*
X182584169Y-98518069D01*
X182626833Y-98576806D01*
X182657987Y-98643481D01*
X182677037Y-98715514D01*
X182683388Y-98790325D01*
X182676244Y-98868906D01*
X182654813Y-98945900D01*
X182706406Y-98909983D01*
X182750062Y-98859381D01*
X182779828Y-98796477D01*
X182789750Y-98723650D01*
X182781812Y-98658562D01*
X182756412Y-98590300D01*
X182745300Y-98545850D01*
X182769113Y-98486319D01*
X182824675Y-98453775D01*
X182887381Y-98458537D01*
X182934213Y-98512512D01*
X182968344Y-98630781D01*
X182978662Y-98737937D01*
X182969138Y-98834180D01*
X182940562Y-98919706D01*
X182896708Y-98993525D01*
X182841344Y-99054644D01*
X182776256Y-99102864D01*
X182703231Y-99137987D01*
X182626039Y-99159419D01*
X182548450Y-99166562D01*
X181964250Y-99166562D01*
X181891225Y-99136400D01*
X181867412Y-99069725D01*
X181892019Y-99002256D01*
X181964250Y-98971300D01*
X182305562Y-98971300D01*
X182385731Y-98954631D01*
X182442881Y-98911769D01*
X182477806Y-98850650D01*
X182489712Y-98780800D01*
X182478600Y-98711744D01*
X182444469Y-98651419D01*
X182386525Y-98609350D01*
X182305562Y-98593475D01*
X181964250Y-98593475D01*
X181891225Y-98563312D01*
X181867412Y-98496637D01*
X181892019Y-98429169D01*
X181964250Y-98398212D01*
X182305562Y-98398212D01*
X182390891Y-98406348D01*
G37*
G04 #@! TD.AperFunction*
G04 #@! TA.AperFunction,EtchedComponent*
G36*
X182503206Y-102891631D02*
G01*
X182590519Y-102963069D01*
X182657987Y-103071813D01*
X182678228Y-103138884D01*
X182684975Y-103213100D01*
X182676442Y-103296245D01*
X182650844Y-103371056D01*
X182611553Y-103436144D01*
X182561944Y-103490119D01*
X182503206Y-103532584D01*
X182436531Y-103563144D01*
X182365491Y-103580408D01*
X182293656Y-103582988D01*
X182222417Y-103570486D01*
X182153163Y-103542506D01*
X182088869Y-103498255D01*
X182032512Y-103436938D01*
X181926150Y-103499644D01*
X181812644Y-103513931D01*
X181703106Y-103485356D01*
X181609444Y-103419475D01*
X181545150Y-103321844D01*
X181521337Y-103198813D01*
X181544356Y-103078163D01*
X181601506Y-102985294D01*
X181676119Y-102924969D01*
X181750731Y-102901950D01*
X181807881Y-102920206D01*
X181830900Y-102986088D01*
X181812644Y-103059906D01*
X181771369Y-103095625D01*
X181730094Y-103129756D01*
X181711837Y-103198813D01*
X181752319Y-103292475D01*
X181842012Y-103318669D01*
X181931706Y-103285331D01*
X181972187Y-103198813D01*
X181999969Y-103128169D01*
X182060294Y-103105150D01*
X182120619Y-103128169D01*
X182148400Y-103194050D01*
X182162687Y-103278188D01*
X182201581Y-103339306D01*
X182257144Y-103376613D01*
X182321437Y-103389313D01*
X182394462Y-103373438D01*
X182448438Y-103332956D01*
X182482569Y-103275806D01*
X182494475Y-103209925D01*
X182467488Y-103114675D01*
X182381762Y-103048000D01*
X182343663Y-103021013D01*
X182326200Y-102987675D01*
X182321437Y-102962275D01*
X182321437Y-102957513D01*
X182348425Y-102882900D01*
X182415894Y-102863056D01*
X182503206Y-102891631D01*
G37*
G04 #@! TD.AperFunction*
G04 #@! TA.AperFunction,EtchedComponent*
G36*
X182683232Y-101284287D02*
G01*
X182672077Y-101398389D01*
X182638144Y-101507331D01*
X182584566Y-101606153D01*
X182514319Y-101691481D01*
X182428991Y-101761728D01*
X182330169Y-101815306D01*
X182221227Y-101849239D01*
X182105537Y-101860550D01*
X181990047Y-101849239D01*
X181881700Y-101815306D01*
X181783473Y-101761728D01*
X181698344Y-101691481D01*
X181628097Y-101606153D01*
X181574519Y-101507331D01*
X181540586Y-101398389D01*
X181529275Y-101282700D01*
X181722950Y-101282700D01*
X181730094Y-101356320D01*
X181751525Y-101427956D01*
X181786847Y-101494830D01*
X181835662Y-101554162D01*
X181894995Y-101602780D01*
X181961869Y-101637506D01*
X182033306Y-101658342D01*
X182106331Y-101665287D01*
X182179356Y-101658342D01*
X182250794Y-101637506D01*
X182317667Y-101602780D01*
X182377000Y-101554162D01*
X182425617Y-101494830D01*
X182460344Y-101427956D01*
X182481180Y-101356717D01*
X182488125Y-101284287D01*
X182481180Y-101210667D01*
X182460344Y-101139031D01*
X182425617Y-101072158D01*
X182377000Y-101012825D01*
X182316477Y-100964009D01*
X182249206Y-100928688D01*
X182177967Y-100907256D01*
X182105537Y-100900112D01*
X182033108Y-100907256D01*
X181961869Y-100928688D01*
X181894995Y-100964009D01*
X181835662Y-101012825D01*
X181786847Y-101072158D01*
X181751525Y-101139031D01*
X181730094Y-101210270D01*
X181722950Y-101282700D01*
X181529275Y-101282700D01*
X181540586Y-101167209D01*
X181574519Y-101058862D01*
X181628097Y-100960636D01*
X181698344Y-100875506D01*
X181783473Y-100805259D01*
X181881700Y-100751681D01*
X181990047Y-100717748D01*
X182105537Y-100706437D01*
X182221227Y-100717748D01*
X182330169Y-100751681D01*
X182428991Y-100805259D01*
X182514319Y-100875506D01*
X182584566Y-100960636D01*
X182638144Y-101058862D01*
X182672077Y-101167209D01*
X182683388Y-101282700D01*
X182683232Y-101284287D01*
G37*
G04 #@! TD.AperFunction*
D10*
X181187500Y-127225000D03*
D11*
X181187500Y-125975000D03*
X181187500Y-124725000D03*
X181187500Y-123475000D03*
X181187500Y-122225000D03*
X181187500Y-120975000D03*
D12*
X161896376Y-106778158D03*
X161613533Y-105788209D03*
X162886325Y-107061001D03*
X162603482Y-106071052D03*
D13*
X163850000Y-74975000D03*
D14*
X116150000Y-67800000D03*
X116633274Y-66633274D03*
X116633274Y-68966726D03*
X117800000Y-66150000D03*
D15*
X117800000Y-67800000D03*
D14*
X117800000Y-69450000D03*
X118966726Y-66633274D03*
X118966726Y-68966726D03*
X119450000Y-67800000D03*
D13*
X166525000Y-110825000D03*
D14*
X180550000Y-132200000D03*
X181033274Y-131033274D03*
X181033274Y-133366726D03*
X182200000Y-130550000D03*
D15*
X182200000Y-132200000D03*
D14*
X182200000Y-133850000D03*
X183366726Y-131033274D03*
X183366726Y-133366726D03*
X183850000Y-132200000D03*
D13*
X147475000Y-133625000D03*
D16*
X128690000Y-67037500D03*
D17*
X131230000Y-67037500D03*
D18*
X118500000Y-72117500D03*
X118500000Y-74657500D03*
X118500000Y-77197500D03*
X118500000Y-79737500D03*
X118500000Y-82277500D03*
X118500000Y-84817500D03*
X146500000Y-84817500D03*
X146500000Y-82277500D03*
X146500000Y-79737500D03*
X146500000Y-77197500D03*
X146500000Y-74657500D03*
X146500000Y-72117500D03*
D17*
X133770000Y-67037500D03*
X136310000Y-67037500D03*
D19*
X172300000Y-133637500D03*
D20*
X173300000Y-130937500D03*
X178300000Y-130937500D03*
D19*
X179300000Y-133637500D03*
D21*
X159150000Y-67880000D03*
D11*
X159150000Y-69130000D03*
X159150000Y-70380000D03*
X159150000Y-71630000D03*
X159150000Y-72880000D03*
X159150000Y-74130000D03*
D21*
X124150000Y-67880000D03*
D11*
X124150000Y-69130000D03*
X124150000Y-70380000D03*
X124150000Y-71630000D03*
X124150000Y-72880000D03*
X124150000Y-74130000D03*
D10*
X140850000Y-74120000D03*
D11*
X140850000Y-72870000D03*
X140850000Y-71620000D03*
X140850000Y-70370000D03*
X140850000Y-69120000D03*
X140850000Y-67870000D03*
D12*
X135225000Y-104575000D03*
X134725000Y-105475000D03*
X134725000Y-103675000D03*
X134225000Y-104575000D03*
X171200000Y-116987500D03*
X171200000Y-115937500D03*
X171200000Y-114887500D03*
X170150000Y-116987500D03*
X170150000Y-115937500D03*
D22*
X170150000Y-115937500D03*
D12*
X170150000Y-114887500D03*
X169100000Y-116987500D03*
X169100000Y-115937500D03*
X169100000Y-114887500D03*
D23*
X165625000Y-79300000D03*
D24*
X166875000Y-79300000D03*
X168125000Y-79300000D03*
X169375000Y-79300000D03*
D16*
X136310000Y-132962500D03*
D17*
X133770000Y-132962500D03*
D18*
X146500000Y-127882500D03*
X146500000Y-125342500D03*
X146500000Y-122802500D03*
X146500000Y-120262500D03*
X146500000Y-117722500D03*
X146500000Y-115182500D03*
X118500000Y-115182500D03*
X118500000Y-117722500D03*
X118500000Y-120262500D03*
X118500000Y-122802500D03*
X118500000Y-125342500D03*
X118500000Y-127882500D03*
D17*
X131230000Y-132962500D03*
X128690000Y-132962500D03*
D10*
X175850000Y-74120000D03*
D11*
X175850000Y-72870000D03*
X175850000Y-71620000D03*
X175850000Y-70370000D03*
X175850000Y-69120000D03*
X175850000Y-67870000D03*
D14*
X116150000Y-132200000D03*
X116633274Y-131033274D03*
X116633274Y-133366726D03*
X117800000Y-130550000D03*
D15*
X117800000Y-132200000D03*
D14*
X117800000Y-133850000D03*
X118966726Y-131033274D03*
X118966726Y-133366726D03*
X119450000Y-132200000D03*
D23*
X130625000Y-79300000D03*
D24*
X131875000Y-79300000D03*
X133125000Y-79300000D03*
X134375000Y-79300000D03*
D25*
X167157500Y-126547500D03*
D26*
X167157500Y-127817500D03*
X165887500Y-126547500D03*
X165887500Y-127817500D03*
X164617500Y-126547500D03*
X164617500Y-127817500D03*
X163347500Y-126547500D03*
X163347500Y-127817500D03*
X162077500Y-126547500D03*
X162077500Y-127817500D03*
D13*
X136200000Y-125025000D03*
D16*
X163690000Y-67037500D03*
D17*
X166230000Y-67037500D03*
D18*
X153500000Y-72117500D03*
X153500000Y-74657500D03*
X153500000Y-77197500D03*
X153500000Y-79737500D03*
X153500000Y-82277500D03*
X153500000Y-84817500D03*
X181500000Y-84817500D03*
X181500000Y-82277500D03*
X181500000Y-79737500D03*
X181500000Y-77197500D03*
X181500000Y-74657500D03*
X181500000Y-72117500D03*
D17*
X168770000Y-67037500D03*
X171310000Y-67037500D03*
D27*
X154220000Y-129430000D03*
D18*
X151680000Y-129430000D03*
X154220000Y-126890000D03*
X151680000Y-126890000D03*
X154220000Y-124350000D03*
X151680000Y-124350000D03*
X154220000Y-121810000D03*
X151680000Y-121810000D03*
X154220000Y-119270000D03*
X151680000Y-119270000D03*
D13*
X143650000Y-110325000D03*
D28*
X134375000Y-120700000D03*
D24*
X133125000Y-120700000D03*
X131875000Y-120700000D03*
X130625000Y-120700000D03*
D29*
X152500000Y-66350000D03*
X150000000Y-69660000D03*
X147500000Y-66350000D03*
D13*
X128800000Y-74975000D03*
D21*
X124150000Y-125880000D03*
D11*
X124150000Y-127130000D03*
X124150000Y-128380000D03*
X124150000Y-129630000D03*
X124150000Y-130880000D03*
X124150000Y-132130000D03*
D14*
X180550000Y-67800000D03*
X181033274Y-66633274D03*
X181033274Y-68966726D03*
X182200000Y-66150000D03*
D15*
X182200000Y-67800000D03*
D14*
X182200000Y-69450000D03*
X183366726Y-66633274D03*
X183366726Y-68966726D03*
X183850000Y-67800000D03*
D10*
X140850000Y-132120000D03*
D11*
X140850000Y-130870000D03*
X140850000Y-129620000D03*
X140850000Y-128370000D03*
X140850000Y-127120000D03*
X140850000Y-125870000D03*
D30*
X171375000Y-90825000D03*
D31*
X170625000Y-90825000D03*
D30*
X169875000Y-90825000D03*
D32*
X171375000Y-92125000D03*
D31*
X170625000Y-92125000D03*
D32*
X169875000Y-92125000D03*
D33*
X164225000Y-90300000D03*
D34*
X162050000Y-74800000D03*
D35*
X162050000Y-73500000D03*
D36*
X162050000Y-72200000D03*
D37*
X168200000Y-120150000D03*
D38*
X168200000Y-120900000D03*
D37*
X168200000Y-121650000D03*
D39*
X169500000Y-120150000D03*
D38*
X169500000Y-120900000D03*
D39*
X169500000Y-121650000D03*
D34*
X137942500Y-72300000D03*
D35*
X137942500Y-71000000D03*
D36*
X137942500Y-69700000D03*
D40*
X137950000Y-125200000D03*
D35*
X137950000Y-126500000D03*
D41*
X137950000Y-127800000D03*
D34*
X172950000Y-72300000D03*
D35*
X172950000Y-71000000D03*
D36*
X172950000Y-69700000D03*
D40*
X127050000Y-127700000D03*
D35*
X127050000Y-129000000D03*
D41*
X127050000Y-130300000D03*
D34*
X137957500Y-119900000D03*
D35*
X137957500Y-118600000D03*
D36*
X137957500Y-117300000D03*
D40*
X127050000Y-80100000D03*
D35*
X127050000Y-81400000D03*
D41*
X127050000Y-82700000D03*
D40*
X162042500Y-80100000D03*
D35*
X162042500Y-81400000D03*
D41*
X162042500Y-82700000D03*
D34*
X127050000Y-74800000D03*
D35*
X127050000Y-73500000D03*
D36*
X127050000Y-72200000D03*
D42*
X134575000Y-114200000D03*
D43*
X134575000Y-113450000D03*
D42*
X134575000Y-112700000D03*
D44*
X133275000Y-114200000D03*
D43*
X133275000Y-113450000D03*
D44*
X133275000Y-112700000D03*
D45*
X172250000Y-117888000D03*
X177050000Y-118400000D03*
X177500000Y-122875000D03*
D46*
X178100000Y-127775000D03*
D45*
X177850000Y-125850000D03*
X177876039Y-126694680D03*
X178725000Y-126725000D03*
X175400521Y-116374479D03*
X174799479Y-116975521D03*
X174850000Y-124950000D03*
X170200000Y-110875000D03*
D46*
X173750000Y-121600000D03*
D45*
X137950000Y-124300000D03*
X161575000Y-87800000D03*
X148950000Y-83275000D03*
X151375000Y-85875000D03*
X156275000Y-101725000D03*
X137450000Y-105240000D03*
X137380000Y-83520000D03*
X126485000Y-103638516D03*
X122045000Y-100976850D03*
X175778018Y-98545000D03*
X125948231Y-105289918D03*
X130775001Y-93940812D03*
X176242764Y-109775729D03*
X125675000Y-92000000D03*
X128924999Y-93030636D03*
X169324999Y-106159187D03*
D46*
X148775000Y-89250000D03*
D45*
X135275000Y-97250000D03*
X165825000Y-124550000D03*
X178195606Y-103300664D03*
X157725000Y-132950000D03*
X157985560Y-91700000D03*
X180017500Y-105133150D03*
D46*
X161400000Y-103200000D03*
D45*
X122045000Y-99253915D03*
X127675000Y-90425000D03*
X173625000Y-106150000D03*
D46*
X125650000Y-108750000D03*
D45*
X127100000Y-123600000D03*
X120085000Y-93003150D03*
X178110542Y-109775729D03*
X161325000Y-93025000D03*
X179359908Y-97709257D03*
D46*
X144800000Y-96700000D03*
D45*
X178118393Y-96697813D03*
X161025000Y-97700000D03*
X167850000Y-124075000D03*
X178057500Y-102469019D03*
X127489647Y-93325000D03*
X165750000Y-95750000D03*
D46*
X150400000Y-112050000D03*
D45*
X141860000Y-90970000D03*
X121906893Y-96699335D03*
X121050000Y-90425000D03*
X134875000Y-102175000D03*
X130136710Y-91553560D03*
X175467500Y-96695000D03*
D46*
X149506190Y-108275000D03*
D45*
X173494432Y-109750729D03*
X132975000Y-98500000D03*
X118235000Y-93953105D03*
X173350000Y-100636990D03*
X155350000Y-91675000D03*
X157800000Y-99325000D03*
D46*
X178975000Y-128275000D03*
D45*
X126478273Y-104560014D03*
X181366761Y-108263887D03*
X170250000Y-105174999D03*
X170925000Y-122500000D03*
X174500000Y-106150000D03*
X124871945Y-90150000D03*
X132625000Y-95275000D03*
X172850000Y-106600000D03*
D46*
X137950000Y-100400000D03*
D45*
X160475000Y-89275000D03*
X150900000Y-106100000D03*
X181867500Y-105885154D03*
X162900000Y-96000000D03*
X121300000Y-117850000D03*
X122014864Y-103304271D03*
X150400000Y-73925000D03*
X158800000Y-94500000D03*
X120694149Y-95475999D03*
X126484352Y-102716716D03*
X126725000Y-98530995D03*
X126725000Y-97711990D03*
D46*
X179400000Y-92750000D03*
D45*
X159290000Y-108850000D03*
X160625000Y-93725000D03*
X136250000Y-115925000D03*
D46*
X148725000Y-111900000D03*
D45*
X134850000Y-101100000D03*
X130569976Y-102675859D03*
X183390500Y-70880000D03*
X120085000Y-93935000D03*
X121925000Y-90200000D03*
X169541019Y-107849169D03*
X174400000Y-108000000D03*
X125825000Y-90175000D03*
X161300000Y-91600000D03*
X118235000Y-94837462D03*
X179906466Y-108925001D03*
X128249753Y-104977903D03*
X177176653Y-109775729D03*
X134750000Y-109975000D03*
X134000000Y-115925000D03*
D46*
X174450000Y-104250000D03*
D45*
X129850000Y-94925000D03*
X156750000Y-89850000D03*
X166275000Y-125325000D03*
X120195000Y-100051857D03*
X159650000Y-88450000D03*
X179144432Y-109550729D03*
D46*
X180330000Y-92750000D03*
X175375000Y-105750000D03*
D45*
X176678684Y-98545000D03*
X124345036Y-101455000D03*
X172309977Y-113360023D03*
X163500000Y-92325000D03*
X179408350Y-104524000D03*
X181112421Y-103611771D03*
X181712012Y-104216907D03*
X118334922Y-95703625D03*
D46*
X173850000Y-123475000D03*
D45*
X139350000Y-88425000D03*
X157769822Y-79197000D03*
X174877364Y-98544271D03*
X164350000Y-120000000D03*
X118317088Y-92197885D03*
D47*
X170425000Y-119224500D03*
D45*
X122045000Y-97530980D03*
X170125000Y-123375000D03*
D46*
X138100000Y-98550000D03*
D45*
X123434093Y-101455000D03*
X120758942Y-102307092D03*
X127125000Y-86625000D03*
X163752530Y-108174695D03*
X179907499Y-99959704D03*
X122878055Y-90150000D03*
X130716318Y-92201245D03*
X173617500Y-96695084D03*
X132975000Y-97680995D03*
X173350000Y-99817985D03*
X126000000Y-115000000D03*
D46*
X162150000Y-100800000D03*
D45*
X167040577Y-104922003D03*
X129029866Y-105499271D03*
X126725000Y-100169005D03*
X161750000Y-94850000D03*
X130775001Y-93066972D03*
X126500000Y-92000000D03*
X138500000Y-105250000D03*
X129029864Y-105499271D03*
X173575000Y-108000000D03*
X116775000Y-128275000D03*
X158150000Y-88450000D03*
X119635203Y-91076903D03*
X125254905Y-105885540D03*
X160040220Y-108103983D03*
X121338465Y-102886615D03*
X159900000Y-93000000D03*
X128924999Y-93940813D03*
X170159504Y-108467654D03*
X181867500Y-105033145D03*
X128550000Y-90700000D03*
X118944331Y-96342481D03*
X127075000Y-95275000D03*
D46*
X180330000Y-91250000D03*
D45*
X118918725Y-91553124D03*
X183840000Y-112910000D03*
X180017500Y-106065000D03*
X181867500Y-106737163D03*
X172999500Y-119750000D03*
X177234820Y-96695000D03*
X122888235Y-103305000D03*
X161300000Y-90100000D03*
X120085000Y-94866850D03*
X142575000Y-77900000D03*
X131750000Y-115925000D03*
X173350000Y-102275000D03*
D46*
X124725000Y-95750000D03*
D45*
X180744939Y-108842739D03*
X135125000Y-115925000D03*
D46*
X143500000Y-97900000D03*
D45*
X172600000Y-109600000D03*
X122045000Y-98392448D03*
X180017500Y-106996850D03*
X173666244Y-97509843D03*
D46*
X179400000Y-91250000D03*
D45*
X142275000Y-120775000D03*
X171761322Y-105572865D03*
X150510000Y-88360000D03*
X130280000Y-106070000D03*
X118235000Y-93068749D03*
X178783110Y-97132460D03*
X176351160Y-96695000D03*
X181857915Y-107588641D03*
X169200000Y-123375000D03*
X177579350Y-98545000D03*
X163600000Y-95300000D03*
X178057500Y-100746084D03*
X122500000Y-122050000D03*
X157450000Y-89150000D03*
D46*
X146000000Y-95400000D03*
D45*
X161300000Y-111450000D03*
D46*
X142100000Y-99400000D03*
X124725000Y-107250000D03*
D45*
X169324999Y-107033857D03*
X175308875Y-109775729D03*
X166725000Y-124550000D03*
D46*
X125650000Y-107250000D03*
D45*
X177600000Y-77950000D03*
X174375000Y-109775000D03*
X124635000Y-103305000D03*
X132975000Y-100138010D03*
X132975000Y-99319005D03*
X164300000Y-94600000D03*
X122045000Y-100115382D03*
X126750000Y-90250000D03*
X125995630Y-101967480D03*
X171950000Y-80600000D03*
X169125000Y-110875000D03*
X165375000Y-125325000D03*
X129430893Y-91077813D03*
X123875000Y-90150000D03*
X150400000Y-76050000D03*
X126725000Y-99350000D03*
X171175001Y-106866851D03*
X173350000Y-101455995D03*
X162025000Y-92325000D03*
X174200034Y-98125684D03*
D46*
X124725000Y-94250000D03*
D45*
X171752382Y-109349271D03*
X170874867Y-108924272D03*
X123761617Y-103305000D03*
X132875000Y-115925000D03*
X160600000Y-92300000D03*
X157700000Y-113225000D03*
X172000000Y-106750000D03*
D46*
X156100000Y-97475000D03*
D45*
X140975000Y-82875000D03*
X178430000Y-112930000D03*
X168738677Y-105572865D03*
X163375000Y-88775000D03*
X115800000Y-72500000D03*
X122686411Y-79238589D03*
X164325000Y-93150000D03*
X125255893Y-101457813D03*
D46*
X124725000Y-108750000D03*
D45*
X178057500Y-101607551D03*
X178057500Y-99884617D03*
D46*
X175375000Y-104250000D03*
D45*
X164925000Y-124550000D03*
X169950000Y-127700000D03*
X152175000Y-111525000D03*
X154400000Y-115425000D03*
X152050000Y-105750000D03*
X160900000Y-117875000D03*
X169000000Y-128875000D03*
X155500000Y-116300000D03*
X159750000Y-117150000D03*
X168450000Y-126750000D03*
X153375000Y-116325000D03*
X158600000Y-117875000D03*
X170800000Y-128875000D03*
X162050000Y-117150000D03*
X154300000Y-97975000D03*
D46*
X136825000Y-112350000D03*
X136825000Y-113350000D03*
X136825000Y-114350000D03*
X137750000Y-113900000D03*
X135925000Y-113825000D03*
X137750000Y-112900000D03*
X135925000Y-112825000D03*
X168450000Y-125350000D03*
X167689443Y-117888000D03*
X168025000Y-110825000D03*
D45*
X174850000Y-124050000D03*
X140050000Y-103125000D03*
X139400000Y-111450000D03*
X139849500Y-104600000D03*
X140925000Y-112100000D03*
X157000000Y-118950000D03*
X156150000Y-118950000D03*
X167150000Y-120975000D03*
X166325000Y-120975000D03*
X166325000Y-120150000D03*
X157000000Y-119750000D03*
X167150000Y-120150000D03*
X157000000Y-120575000D03*
X156150000Y-119750000D03*
X171075000Y-121125000D03*
X169375000Y-74475000D03*
X125800000Y-127700000D03*
X167600000Y-87725001D03*
D46*
X174350000Y-72300000D03*
D45*
X133050000Y-103000000D03*
X134300000Y-74475000D03*
X170550000Y-89425001D03*
D46*
X139350000Y-72300000D03*
D45*
X161075000Y-125325000D03*
X171075000Y-120275000D03*
X160625000Y-124550000D03*
X170600000Y-87725001D03*
X170275000Y-121550000D03*
X161525000Y-124550000D03*
D46*
X164600000Y-80100000D03*
D45*
X168125002Y-88575003D03*
X169625000Y-89425002D03*
X130650000Y-125500000D03*
X161975000Y-125325000D03*
X170099999Y-88575002D03*
D46*
X162050000Y-75950000D03*
D45*
X138050000Y-86625000D03*
D46*
X129600000Y-80100000D03*
D45*
X136450000Y-92000000D03*
X169125000Y-88575002D03*
D46*
X139500000Y-119900000D03*
D45*
X169625000Y-87725001D03*
X164866224Y-106000339D03*
X167625001Y-89425002D03*
X168625000Y-87725001D03*
D46*
X127050000Y-75750000D03*
D45*
X170275000Y-120700000D03*
X142225000Y-110225000D03*
X162425000Y-124550000D03*
X148350000Y-127600000D03*
X156300000Y-109900000D03*
X147200000Y-129700000D03*
X123500000Y-122900000D03*
X157050000Y-111075000D03*
X136460000Y-94540000D03*
X136460000Y-97250000D03*
X150850000Y-104750000D03*
D46*
X138950000Y-101350000D03*
D45*
X142740000Y-94140000D03*
X139330000Y-87410000D03*
X122050000Y-119200000D03*
X124700000Y-122300000D03*
X121300000Y-116700000D03*
X125900000Y-121700000D03*
X127100000Y-121100000D03*
X157575000Y-100425000D03*
X163975000Y-87800000D03*
X155648558Y-99626442D03*
X162775000Y-87800000D03*
X162100000Y-78875000D03*
X150400000Y-77200000D03*
X160900000Y-78300000D03*
X159700000Y-77700000D03*
X149675000Y-74650000D03*
X158500000Y-77100000D03*
X176500000Y-77100000D03*
X146200000Y-96825000D03*
X146400000Y-98325000D03*
X175300000Y-77700000D03*
X174125000Y-78300000D03*
X144900000Y-98125000D03*
X172925000Y-78900000D03*
X145100000Y-99625000D03*
X150280000Y-86480000D03*
X139075000Y-78300000D03*
X149140000Y-87450000D03*
X137875000Y-78900000D03*
X143100000Y-101800000D03*
X144275000Y-102800000D03*
X137900000Y-121100000D03*
X154100000Y-99475000D03*
X139100000Y-121700000D03*
X154300000Y-100975000D03*
X152800000Y-100775000D03*
X140300000Y-122300000D03*
X155550000Y-111075000D03*
X141500000Y-122900000D03*
X141925000Y-80450000D03*
X141900000Y-81575000D03*
X141850000Y-82850000D03*
X141475000Y-77100000D03*
X140275000Y-77700000D03*
X143750000Y-84825000D03*
X122600000Y-84175000D03*
X130850000Y-110125000D03*
X123250000Y-85450000D03*
X132025000Y-110125000D03*
X127056635Y-78856635D03*
X149975353Y-93049646D03*
X125900000Y-78300000D03*
X148811411Y-94213589D03*
X150300000Y-94425000D03*
X124700000Y-77700000D03*
X123500000Y-77100000D03*
X149000000Y-95725000D03*
X141500000Y-109600500D03*
X141225000Y-105050000D03*
X159500000Y-113225000D03*
X154750000Y-109900000D03*
X161000000Y-113250000D03*
X157850000Y-109900000D03*
X162600000Y-111425000D03*
X162600000Y-109675000D03*
X159975000Y-103250000D03*
X164000000Y-111425000D03*
X160975000Y-104250000D03*
X164000000Y-109675000D03*
D46*
X130925000Y-112325000D03*
X130000000Y-113850000D03*
D45*
X137450000Y-102810000D03*
X159950000Y-110500000D03*
X138480000Y-102810000D03*
D46*
X131850000Y-112850000D03*
X131850000Y-113850000D03*
X130925000Y-114375000D03*
X130000000Y-112850000D03*
X130925000Y-113350000D03*
D45*
X147700000Y-97025000D03*
X173025000Y-127750000D03*
X134750000Y-110925000D03*
X143400000Y-113050000D03*
D46*
X156900000Y-133900000D03*
D45*
X147500000Y-95525000D03*
X151750000Y-107100000D03*
X142160000Y-107560000D03*
X122850000Y-117775000D03*
X170750001Y-94375001D03*
D46*
X149150500Y-91925000D03*
X159975000Y-100325000D03*
D45*
X164650000Y-100350000D03*
X169925000Y-94775001D03*
X159575000Y-104600000D03*
X170750000Y-95250001D03*
X170749999Y-93525001D03*
X143625000Y-106650000D03*
D46*
X154975000Y-96450000D03*
D45*
X169100000Y-94375002D03*
X140280123Y-95702612D03*
D46*
X149775000Y-109850000D03*
X151225000Y-87600000D03*
X140100000Y-99750000D03*
D45*
X138050000Y-90620000D03*
D46*
X156975000Y-98450000D03*
D45*
X145750000Y-108775000D03*
X169100000Y-95250002D03*
X168600000Y-92000001D03*
X165375000Y-97300000D03*
X166800000Y-90350001D03*
X174350000Y-92875000D03*
X174400000Y-90975000D03*
X172600000Y-88450000D03*
X166100000Y-93450000D03*
X166925000Y-94550000D03*
X166100000Y-89825000D03*
X166800000Y-91525001D03*
X173475000Y-93500000D03*
X166100000Y-92374999D03*
X167625000Y-95250000D03*
X172650000Y-91850000D03*
X174400000Y-89875000D03*
X166100000Y-90925001D03*
X172600000Y-87350001D03*
X173725000Y-91825000D03*
X173475000Y-94525001D03*
X173654999Y-89025001D03*
X174350000Y-94025001D03*
X173550000Y-87950001D03*
X163200000Y-115225000D03*
X163200000Y-117975000D03*
D48*
X172250000Y-122975000D02*
X172250000Y-117888000D01*
X170800000Y-124425000D02*
X172250000Y-122975000D01*
X168450000Y-125350000D02*
X169375000Y-124425000D01*
X169375000Y-124425000D02*
X170800000Y-124425000D01*
X172250000Y-117888000D02*
X167689443Y-117888000D01*
X178850000Y-126725000D02*
X178725000Y-126725000D01*
X180150000Y-128025000D02*
X178850000Y-126725000D01*
X180150000Y-128775000D02*
X180150000Y-128025000D01*
X179600000Y-129325000D02*
X180150000Y-128775000D01*
X177025000Y-129325000D02*
X179600000Y-129325000D01*
X175450000Y-127750000D02*
X177025000Y-129325000D01*
X173025000Y-127750000D02*
X175450000Y-127750000D01*
D49*
X180775000Y-125975000D02*
X181287500Y-125975000D01*
X175605000Y-127120000D02*
X177525000Y-125200000D01*
X177525000Y-125200000D02*
X180000000Y-125200000D01*
X171830000Y-127120000D02*
X175605000Y-127120000D01*
X170800000Y-128150000D02*
X171830000Y-127120000D01*
X170800000Y-128875000D02*
X170800000Y-128150000D01*
X180000000Y-125200000D02*
X180775000Y-125975000D01*
X170565000Y-126660000D02*
X169950000Y-127275000D01*
X175390000Y-126660000D02*
X170565000Y-126660000D01*
X169950000Y-127275000D02*
X169950000Y-127700000D01*
X177325000Y-124725000D02*
X175390000Y-126660000D01*
X181287500Y-124725000D02*
X177325000Y-124725000D01*
X169000000Y-127200000D02*
X169000000Y-128875000D01*
X175140000Y-126210000D02*
X169990000Y-126210000D01*
X177150000Y-124200000D02*
X175140000Y-126210000D01*
X180000000Y-124200000D02*
X177150000Y-124200000D01*
X180725000Y-123475000D02*
X180000000Y-124200000D01*
X169990000Y-126210000D02*
X169000000Y-127200000D01*
X181287500Y-123475000D02*
X180725000Y-123475000D01*
X176975000Y-123700000D02*
X174925000Y-125750000D01*
X179300000Y-123700000D02*
X176975000Y-123700000D01*
X169450000Y-125750000D02*
X168450000Y-126750000D01*
X180775000Y-122225000D02*
X179300000Y-123700000D01*
X174925000Y-125750000D02*
X169450000Y-125750000D01*
X181287500Y-122225000D02*
X180775000Y-122225000D01*
D50*
X175125102Y-116975521D02*
X174799479Y-116975521D01*
X175285250Y-117135669D02*
X175125102Y-116975521D01*
X175285250Y-118375000D02*
X175285250Y-117135669D01*
X175285250Y-118409654D02*
X175285250Y-118375000D01*
X175002576Y-118692327D02*
X175002577Y-118692327D01*
X174719903Y-119009654D02*
X174719903Y-118975000D01*
X174850000Y-124050000D02*
X175199163Y-124050000D01*
X175199163Y-124050000D02*
X175285250Y-123963913D01*
X175002577Y-119292327D02*
X175002576Y-119292327D01*
X175002577Y-118692350D02*
G75*
G03*
X175285250Y-118409654I23J282650D01*
G01*
X174719973Y-119009654D02*
G75*
G03*
X175002576Y-119292327I282627J-46D01*
G01*
X175002576Y-118692303D02*
G75*
G03*
X174719903Y-118975000I24J-282697D01*
G01*
X175285250Y-123963913D02*
X175285250Y-119575000D01*
X175285273Y-119575000D02*
G75*
G03*
X175002577Y-119292327I-282673J0D01*
G01*
X175400521Y-116700102D02*
X175400521Y-116374479D01*
X175674750Y-116974331D02*
X175400521Y-116700102D01*
X175674750Y-124125250D02*
X175674750Y-116974331D01*
X174850000Y-124950000D02*
X175674750Y-124125250D01*
D48*
X173750000Y-121600000D02*
X173750000Y-117950000D01*
X173750000Y-116160000D02*
X173750000Y-116840000D01*
X173750000Y-117420000D02*
X173750000Y-117950000D01*
X173750000Y-117950000D02*
X173750000Y-117130000D01*
X173750000Y-117130000D02*
X173750000Y-116160000D01*
X173750000Y-115860000D02*
X170200000Y-112310000D01*
X173750000Y-116160000D02*
X173750000Y-115860000D01*
X170200000Y-112310000D02*
X170200000Y-110875000D01*
X167689443Y-117888000D02*
X167689443Y-111160557D01*
X167689443Y-111160557D02*
X168025000Y-110825000D01*
D49*
X163850000Y-72850000D02*
X163200000Y-72200000D01*
X163850000Y-74975000D02*
X163850000Y-72850000D01*
X163200000Y-72200000D02*
X162050000Y-72200000D01*
D51*
X137950000Y-125200000D02*
X137950000Y-124300000D01*
D49*
X159250000Y-100325000D02*
X159250000Y-98175000D01*
X148950000Y-84025000D02*
X148950000Y-83275000D01*
X150800000Y-85875000D02*
X148950000Y-84025000D01*
X154725000Y-93650000D02*
X154725000Y-90700000D01*
X157825000Y-87600000D02*
X161375000Y-87600000D01*
X159250000Y-98175000D02*
X154725000Y-93650000D01*
X156275000Y-101725000D02*
X157850000Y-101725000D01*
X151375000Y-85875000D02*
X150800000Y-85875000D01*
X154725000Y-90700000D02*
X157825000Y-87600000D01*
X161375000Y-87600000D02*
X161575000Y-87800000D01*
X157850000Y-101725000D02*
X159250000Y-100325000D01*
X169950000Y-129250000D02*
X169950000Y-127700000D01*
X166600000Y-129800000D02*
X169400000Y-129800000D01*
X164617500Y-127817500D02*
X166600000Y-129800000D01*
X169400000Y-129800000D02*
X169950000Y-129250000D01*
X152375000Y-111325000D02*
X152175000Y-111525000D01*
X152050000Y-105750000D02*
X152375000Y-106075000D01*
X152375000Y-106075000D02*
X152375000Y-111325000D01*
X158500000Y-114875000D02*
X154950000Y-114875000D01*
X154950000Y-114875000D02*
X154400000Y-115425000D01*
X160900000Y-117875000D02*
X160900000Y-117275000D01*
X160900000Y-117275000D02*
X158500000Y-114875000D01*
X165887500Y-128287500D02*
X165887500Y-127817500D01*
X169000000Y-128875000D02*
X166475000Y-128875000D01*
X166475000Y-128875000D02*
X165887500Y-128287500D01*
X159750000Y-117150000D02*
X158900000Y-116300000D01*
X158900000Y-116300000D02*
X155500000Y-116300000D01*
X168450000Y-126750000D02*
X167382500Y-127817500D01*
X167382500Y-127817500D02*
X167157500Y-127817500D01*
X157650000Y-116925000D02*
X153975000Y-116925000D01*
X153975000Y-116925000D02*
X153375000Y-116325000D01*
X158600000Y-117875000D02*
X157650000Y-116925000D01*
X162077500Y-127817500D02*
X164660000Y-130400000D01*
X170800000Y-128875000D02*
X170800000Y-129300000D01*
X170800000Y-129300000D02*
X169700000Y-130400000D01*
X164660000Y-130400000D02*
X169700000Y-130400000D01*
X161150000Y-112075000D02*
X160175000Y-112075000D01*
X158950000Y-110850000D02*
X158950000Y-109620000D01*
X160175000Y-112075000D02*
X158950000Y-110850000D01*
X158950000Y-109620000D02*
X155600000Y-106270000D01*
X154850000Y-98725000D02*
X154275000Y-98150000D01*
X154850000Y-99675707D02*
X154850000Y-98725000D01*
X162050000Y-117150000D02*
X162050000Y-112975000D01*
X155600000Y-100425707D02*
X154850000Y-99675707D01*
X155600000Y-106270000D02*
X155600000Y-100425707D01*
X162050000Y-112975000D02*
X161150000Y-112075000D01*
D52*
X142050000Y-114800000D02*
X144175000Y-116925000D01*
X138275000Y-114800000D02*
X142050000Y-114800000D01*
X156900000Y-131125000D02*
X156900000Y-123287919D01*
X146675000Y-133150000D02*
X154875000Y-133150000D01*
X154220000Y-121810000D02*
X151680000Y-121810000D01*
X154875000Y-133150000D02*
X156900000Y-131125000D01*
X144175000Y-130650000D02*
X146675000Y-133150000D01*
X155422081Y-121810000D02*
X154220000Y-121810000D01*
X156900000Y-123287919D02*
X155422081Y-121810000D01*
X136825000Y-113350000D02*
X138275000Y-114800000D01*
X144175000Y-116925000D02*
X144175000Y-130650000D01*
D48*
X168025000Y-110835661D02*
X168025000Y-110825000D01*
D49*
X139250000Y-103925000D02*
X139250000Y-111300000D01*
X139250000Y-111300000D02*
X139400000Y-111450000D01*
X140050000Y-103125000D02*
X139250000Y-103925000D01*
X139850000Y-111025000D02*
X140925000Y-112100000D01*
X139850000Y-104600500D02*
X139850000Y-111025000D01*
X139849500Y-104600000D02*
X139850000Y-104600500D01*
D53*
X156550000Y-119350000D02*
X158775000Y-121575000D01*
X165375000Y-121575000D02*
X166300000Y-120650000D01*
X158775000Y-121575000D02*
X165375000Y-121575000D01*
D51*
X162042500Y-80100000D02*
X164600000Y-80100000D01*
X127050000Y-74800000D02*
X127050000Y-75750000D01*
X127050000Y-80100000D02*
X129600000Y-80100000D01*
X127050000Y-127700000D02*
X125800000Y-127700000D01*
X172950000Y-72300000D02*
X174350000Y-72300000D01*
X137942500Y-72300000D02*
X139350000Y-72300000D01*
X139500000Y-119900000D02*
X137957500Y-119900000D01*
X162050000Y-74800000D02*
X162050000Y-75950000D01*
D49*
X149650000Y-126300000D02*
X148350000Y-127600000D01*
X156300000Y-111300000D02*
X149650000Y-117950000D01*
X156300000Y-109900000D02*
X156300000Y-111300000D01*
X149650000Y-117950000D02*
X149650000Y-126300000D01*
X150150000Y-118150000D02*
X150150000Y-128150000D01*
X124150000Y-130880000D02*
X121175000Y-127905000D01*
X157050000Y-111250000D02*
X150150000Y-118150000D01*
X121175000Y-125225000D02*
X123500000Y-122900000D01*
X157050000Y-111075000D02*
X157050000Y-111250000D01*
X148600000Y-129700000D02*
X147200000Y-129700000D01*
X150150000Y-128150000D02*
X148600000Y-129700000D01*
X121175000Y-127905000D02*
X121175000Y-125225000D01*
X136460000Y-94540000D02*
X136460000Y-97250000D01*
X139750000Y-101350000D02*
X138950000Y-101350000D01*
X148875000Y-100225000D02*
X150850000Y-102200000D01*
X140875000Y-100225000D02*
X139750000Y-101350000D01*
X150850000Y-104750000D02*
X150850000Y-102200000D01*
X148875000Y-100225000D02*
X140875000Y-100225000D01*
X142740000Y-90830000D02*
X142740000Y-94140000D01*
X139330000Y-87420000D02*
X142740000Y-90830000D01*
X139330000Y-87410000D02*
X139330000Y-87420000D01*
X123050000Y-124025000D02*
X123550000Y-124025000D01*
X123550000Y-124025000D02*
X124700000Y-122875000D01*
X124150000Y-129630000D02*
X121800000Y-127280000D01*
X122050000Y-119200000D02*
X120987500Y-120262500D01*
X124700000Y-122875000D02*
X124700000Y-122300000D01*
X120987500Y-120262500D02*
X118500000Y-120262500D01*
X121800000Y-127280000D02*
X121800000Y-125275000D01*
X121800000Y-125275000D02*
X123050000Y-124025000D01*
X124050000Y-124525000D02*
X125900000Y-122675000D01*
X121300000Y-116700000D02*
X120277500Y-117722500D01*
X124150000Y-128380000D02*
X122400000Y-126630000D01*
X123312500Y-124525000D02*
X124050000Y-124525000D01*
X122400000Y-125437500D02*
X123312500Y-124525000D01*
X125900000Y-122675000D02*
X125900000Y-121700000D01*
X120277500Y-117722500D02*
X118500000Y-117722500D01*
X122400000Y-126630000D02*
X122400000Y-125437500D01*
X123625000Y-125050000D02*
X124425000Y-125050000D01*
X124150000Y-127130000D02*
X123800000Y-127130000D01*
X123800000Y-127130000D02*
X122975000Y-126305000D01*
X124425000Y-125050000D02*
X127100000Y-122375000D01*
X122975000Y-126305000D02*
X122975000Y-125700000D01*
X127100000Y-122375000D02*
X127100000Y-121100000D01*
X122975000Y-125700000D02*
X123625000Y-125050000D01*
X153825000Y-94175000D02*
X158400000Y-98750000D01*
X158400000Y-99650000D02*
X157625000Y-100425000D01*
X163975000Y-87800000D02*
X162825000Y-86650000D01*
X158400000Y-98750000D02*
X158400000Y-99650000D01*
X162825000Y-86650000D02*
X157475000Y-86650000D01*
X157475000Y-86650000D02*
X153825000Y-90300000D01*
X153825000Y-90300000D02*
X153825000Y-94175000D01*
X157625000Y-100425000D02*
X157575000Y-100425000D01*
X157675000Y-87125000D02*
X154350000Y-90450000D01*
X154350000Y-90450000D02*
X154350000Y-93975000D01*
X162100000Y-87125000D02*
X157675000Y-87125000D01*
X158825000Y-98450000D02*
X158825000Y-100023529D01*
X155648558Y-99848558D02*
X155648558Y-99626442D01*
X154350000Y-93975000D02*
X158825000Y-98450000D01*
X157673529Y-101175000D02*
X156975000Y-101175000D01*
X156975000Y-101175000D02*
X155648558Y-99848558D01*
X162775000Y-87800000D02*
X162100000Y-87125000D01*
X158825000Y-100023529D02*
X157673529Y-101175000D01*
X160200000Y-75350000D02*
X162100000Y-77250000D01*
X159150000Y-72880000D02*
X159020000Y-72880000D01*
X158025000Y-73875000D02*
X158025000Y-74425000D01*
X159020000Y-72880000D02*
X158025000Y-73875000D01*
X158025000Y-74425000D02*
X158950000Y-75350000D01*
X158950000Y-75350000D02*
X160200000Y-75350000D01*
X162100000Y-77250000D02*
X162100000Y-78875000D01*
X160900000Y-77050000D02*
X160900000Y-78300000D01*
X157475000Y-73305000D02*
X157475000Y-74575000D01*
X159150000Y-71630000D02*
X157475000Y-73305000D01*
X150402500Y-77197500D02*
X150400000Y-77200000D01*
X159700000Y-75850000D02*
X160900000Y-77050000D01*
X153500000Y-77197500D02*
X150402500Y-77197500D01*
X157475000Y-74575000D02*
X158750000Y-75850000D01*
X158750000Y-75850000D02*
X159700000Y-75850000D01*
X159700000Y-76800000D02*
X159700000Y-77700000D01*
X156925000Y-74725000D02*
X158575000Y-76375000D01*
X159275000Y-76375000D02*
X159700000Y-76800000D01*
X159150000Y-70380000D02*
X156925000Y-72605000D01*
X149682500Y-74657500D02*
X149675000Y-74650000D01*
X158575000Y-76375000D02*
X159275000Y-76375000D01*
X156925000Y-72605000D02*
X156925000Y-74725000D01*
X153500000Y-74657500D02*
X149682500Y-74657500D01*
X159150000Y-69130000D02*
X156325000Y-71955000D01*
X158500000Y-77075000D02*
X158500000Y-77100000D01*
X156325000Y-71955000D02*
X156325000Y-74900000D01*
X156325000Y-74900000D02*
X158500000Y-77075000D01*
X151850000Y-89575000D02*
X151850000Y-95725000D01*
X178400000Y-75200000D02*
X178400000Y-71670000D01*
X178400000Y-71670000D02*
X175850000Y-69120000D01*
X179875000Y-82000000D02*
X176950000Y-84925000D01*
X179875000Y-78822500D02*
X179875000Y-82000000D01*
X181500000Y-77197500D02*
X179875000Y-78822500D01*
X147075000Y-97700000D02*
X146200000Y-96825000D01*
X176950000Y-84925000D02*
X156500000Y-84925000D01*
X149875000Y-97700000D02*
X147075000Y-97700000D01*
X156500000Y-84925000D02*
X151850000Y-89575000D01*
X151850000Y-95725000D02*
X149875000Y-97700000D01*
X176500000Y-77100000D02*
X178400000Y-75200000D01*
X156750000Y-85350000D02*
X152350000Y-89750000D01*
X177475000Y-85350000D02*
X156750000Y-85350000D01*
X180325000Y-80912500D02*
X180325000Y-82500000D01*
X175900000Y-76375000D02*
X176525000Y-76375000D01*
X152350000Y-89750000D02*
X152350000Y-96000000D01*
X175300000Y-76975000D02*
X175900000Y-76375000D01*
X176525000Y-76375000D02*
X177925000Y-74975000D01*
X181500000Y-79737500D02*
X180325000Y-80912500D01*
X177925000Y-72445000D02*
X175850000Y-70370000D01*
X177925000Y-74975000D02*
X177925000Y-72445000D01*
X150025000Y-98325000D02*
X146400000Y-98325000D01*
X180325000Y-82500000D02*
X177475000Y-85350000D01*
X175300000Y-77700000D02*
X175300000Y-76975000D01*
X152350000Y-96000000D02*
X150025000Y-98325000D01*
X145800000Y-99025000D02*
X144900000Y-98125000D01*
X152850000Y-96250000D02*
X150075000Y-99025000D01*
X176200000Y-75925000D02*
X177475000Y-74650000D01*
X177475000Y-74650000D02*
X177475000Y-73245000D01*
X177977500Y-85800000D02*
X156975000Y-85800000D01*
X174925000Y-75925000D02*
X176200000Y-75925000D01*
X150075000Y-99025000D02*
X145800000Y-99025000D01*
X177475000Y-73245000D02*
X175850000Y-71620000D01*
X181500000Y-82277500D02*
X177977500Y-85800000D01*
X152850000Y-89925000D02*
X152850000Y-96250000D01*
X156975000Y-85800000D02*
X152850000Y-89925000D01*
X174125000Y-76725000D02*
X174925000Y-75925000D01*
X174125000Y-78300000D02*
X174125000Y-76725000D01*
X153350000Y-90075000D02*
X153350000Y-96500000D01*
X176025000Y-75350000D02*
X176975000Y-74400000D01*
X178550000Y-86225000D02*
X157200000Y-86225000D01*
X179957500Y-84817500D02*
X178550000Y-86225000D01*
X157200000Y-86225000D02*
X153350000Y-90075000D01*
X172925000Y-77000000D02*
X174575000Y-75350000D01*
X174575000Y-75350000D02*
X176025000Y-75350000D01*
X176975000Y-73425000D02*
X176420000Y-72870000D01*
X176420000Y-72870000D02*
X175850000Y-72870000D01*
X176975000Y-74400000D02*
X176975000Y-73425000D01*
X153350000Y-96500000D02*
X150225000Y-99625000D01*
X150225000Y-99625000D02*
X145100000Y-99625000D01*
X172925000Y-78900000D02*
X172925000Y-77000000D01*
X181500000Y-84817500D02*
X179957500Y-84817500D01*
X139800000Y-76000000D02*
X139075000Y-76725000D01*
X148300000Y-84077500D02*
X146500000Y-82277500D01*
X148300000Y-84500000D02*
X148300000Y-84077500D01*
X142275000Y-74725000D02*
X141000000Y-76000000D01*
X150280000Y-86480000D02*
X148300000Y-84500000D01*
X140850000Y-71620000D02*
X142275000Y-73045000D01*
X141000000Y-76000000D02*
X139800000Y-76000000D01*
X139075000Y-76725000D02*
X139075000Y-78300000D01*
X142275000Y-73045000D02*
X142275000Y-74725000D01*
X140850000Y-72870000D02*
X141100000Y-72870000D01*
X137950000Y-76950000D02*
X137950000Y-78825000D01*
X149140000Y-87450000D02*
X149132500Y-87450000D01*
X137950000Y-78825000D02*
X137875000Y-78900000D01*
X141825000Y-74550000D02*
X140825000Y-75550000D01*
X149132500Y-87450000D02*
X146500000Y-84817500D01*
X139350000Y-75550000D02*
X137950000Y-76950000D01*
X141100000Y-72870000D02*
X141825000Y-73595000D01*
X141825000Y-73595000D02*
X141825000Y-74550000D01*
X140825000Y-75550000D02*
X139350000Y-75550000D01*
X144575000Y-113257500D02*
X146500000Y-115182500D01*
X144575000Y-104475000D02*
X144575000Y-113257500D01*
X143100000Y-101800000D02*
X143100000Y-103000000D01*
X143100000Y-103000000D02*
X144575000Y-104475000D01*
X145125000Y-111400000D02*
X145125000Y-103650000D01*
X147850000Y-114125000D02*
X145125000Y-111400000D01*
X145125000Y-103650000D02*
X144275000Y-102800000D01*
X146500000Y-116900000D02*
X147850000Y-115550000D01*
X146500000Y-117722500D02*
X146500000Y-116900000D01*
X147850000Y-115550000D02*
X147850000Y-114125000D01*
X152975000Y-111800000D02*
X152975000Y-102300000D01*
X147750000Y-117025000D02*
X152975000Y-111800000D01*
D54*
X141725000Y-125475000D02*
X141150000Y-124900000D01*
D49*
X151912500Y-100112500D02*
X152550000Y-99475000D01*
X137900000Y-122650000D02*
X140150000Y-124900000D01*
X137900000Y-121100000D02*
X137900000Y-122650000D01*
X152975000Y-102300000D02*
X151912500Y-101237500D01*
X146500000Y-120262500D02*
X147750000Y-119012500D01*
X147750000Y-119012500D02*
X147750000Y-117025000D01*
X140150000Y-124900000D02*
X141150000Y-124900000D01*
D54*
X140850000Y-127120000D02*
X141725000Y-126245000D01*
D49*
X141150000Y-124900000D02*
X141700000Y-125450000D01*
X151912500Y-101237500D02*
X151912500Y-100112500D01*
D54*
X141725000Y-126245000D02*
X141725000Y-125475000D01*
D49*
X152550000Y-99475000D02*
X154100000Y-99475000D01*
X141700000Y-125450000D02*
X141700000Y-125475000D01*
X148225000Y-121077500D02*
X148225000Y-117200000D01*
X140525000Y-124275000D02*
X141525000Y-124275000D01*
X139100000Y-122850000D02*
X140525000Y-124275000D01*
X153550000Y-101700000D02*
X154275000Y-100975000D01*
X153550000Y-111875000D02*
X153550000Y-101700000D01*
X139100000Y-121700000D02*
X139100000Y-122850000D01*
D54*
X142025000Y-124775000D02*
X141525000Y-124275000D01*
X140850000Y-128370000D02*
X142025000Y-127195000D01*
D49*
X146500000Y-122802500D02*
X148225000Y-121077500D01*
X148225000Y-117200000D02*
X153550000Y-111875000D01*
D54*
X142025000Y-127195000D02*
X142025000Y-124775000D01*
X142325000Y-124350000D02*
X141750000Y-123775000D01*
D49*
X155150000Y-100725000D02*
X154600000Y-100175000D01*
X153400000Y-100175000D02*
X152800000Y-100775000D01*
X140300000Y-122300000D02*
X140300000Y-122925000D01*
X140300000Y-122925000D02*
X141150000Y-123775000D01*
X141150000Y-123775000D02*
X141750000Y-123775000D01*
X154125000Y-112025000D02*
X154125000Y-102675000D01*
X154600000Y-100175000D02*
X153400000Y-100175000D01*
X148700000Y-123142500D02*
X148700000Y-117450000D01*
X148700000Y-117450000D02*
X154125000Y-112025000D01*
X146500000Y-125342500D02*
X148700000Y-123142500D01*
D54*
X142325000Y-128145000D02*
X142325000Y-124350000D01*
D49*
X154125000Y-102675000D02*
X155150000Y-101650000D01*
X155150000Y-101650000D02*
X155150000Y-100725000D01*
D54*
X140850000Y-129620000D02*
X142325000Y-128145000D01*
D49*
X155550000Y-111075000D02*
X155550000Y-111300000D01*
D54*
X142625000Y-129095000D02*
X142625000Y-124025000D01*
X140850000Y-130870000D02*
X142625000Y-129095000D01*
D49*
X149200000Y-125182500D02*
X146500000Y-127882500D01*
X141500000Y-122900000D02*
X142625000Y-124025000D01*
X155550000Y-111300000D02*
X149200000Y-117650000D01*
X149200000Y-117650000D02*
X149200000Y-125182500D01*
X143300000Y-79075000D02*
X141925000Y-80450000D01*
X146500000Y-72117500D02*
X145400000Y-73217500D01*
X145400000Y-73217500D02*
X145400000Y-74525000D01*
X143300000Y-76625000D02*
X143300000Y-79075000D01*
X145400000Y-74525000D02*
X143300000Y-76625000D01*
X143925000Y-77232500D02*
X146500000Y-74657500D01*
X141900000Y-81550000D02*
X143925000Y-79525000D01*
X141900000Y-81575000D02*
X141900000Y-81550000D01*
X143925000Y-79525000D02*
X143925000Y-77232500D01*
X146477500Y-77197500D02*
X146500000Y-77197500D01*
X141975000Y-82850000D02*
X144825000Y-80000000D01*
X144825000Y-78850000D02*
X146477500Y-77197500D01*
X144825000Y-80000000D02*
X144825000Y-78850000D01*
X141850000Y-82850000D02*
X141975000Y-82850000D01*
X140850000Y-69200761D02*
X143325000Y-71675761D01*
X143325000Y-71675761D02*
X143325000Y-75250000D01*
X140850000Y-69120000D02*
X140850000Y-69200761D01*
X143325000Y-75250000D02*
X141475000Y-77100000D01*
X143750000Y-84825000D02*
X143750000Y-82487500D01*
X142800000Y-74925000D02*
X141250000Y-76475000D01*
X140850000Y-76475000D02*
X140275000Y-77050000D01*
X140275000Y-77050000D02*
X140275000Y-77700000D01*
X141250000Y-76475000D02*
X140850000Y-76475000D01*
X142800000Y-72320000D02*
X142800000Y-74925000D01*
X143750000Y-82487500D02*
X146500000Y-79737500D01*
X140850000Y-70370000D02*
X142800000Y-72320000D01*
X131500000Y-90825000D02*
X131500000Y-109475000D01*
X122600000Y-84175000D02*
X122600000Y-86350000D01*
X129275000Y-88600000D02*
X131500000Y-90825000D01*
X122600000Y-86350000D02*
X124850000Y-88600000D01*
X131500000Y-109475000D02*
X130850000Y-110125000D01*
X124850000Y-88600000D02*
X129275000Y-88600000D01*
X132025000Y-91025000D02*
X132025000Y-90925000D01*
X132025000Y-91025000D02*
X132025000Y-90450000D01*
X132025000Y-110125000D02*
X132000000Y-110100000D01*
X132025000Y-110125000D02*
X132025000Y-91025000D01*
X123250000Y-86150000D02*
X123250000Y-85450000D01*
X125150000Y-88050000D02*
X123250000Y-86150000D01*
X132025000Y-90450000D02*
X129625000Y-88050000D01*
X129625000Y-88050000D02*
X125150000Y-88050000D01*
X149975353Y-93049646D02*
X148424646Y-93049646D01*
X126568365Y-78856635D02*
X127056635Y-78856635D01*
X148424646Y-93049646D02*
X139500000Y-84125000D01*
D54*
X124150000Y-72880000D02*
X123275000Y-73755000D01*
D49*
X125350000Y-80075000D02*
X126568365Y-78856635D01*
X125025000Y-75300000D02*
X123713173Y-75300000D01*
X127056635Y-78856635D02*
X127056635Y-77331635D01*
X127056635Y-77331635D02*
X125025000Y-75300000D01*
X125350000Y-83575000D02*
X125350000Y-80075000D01*
X139500000Y-84125000D02*
X125900000Y-84125000D01*
D54*
X123275000Y-73755000D02*
X123275000Y-74861827D01*
D49*
X123713173Y-75300000D02*
X123275000Y-74861827D01*
X125900000Y-84125000D02*
X125350000Y-83575000D01*
X148811411Y-94211411D02*
X139200000Y-84600000D01*
X125500000Y-84600000D02*
X124775000Y-83875000D01*
X123575000Y-75775000D02*
X122950000Y-75150000D01*
X125900000Y-78300000D02*
X125900000Y-77000000D01*
X139200000Y-84600000D02*
X125500000Y-84600000D01*
D54*
X122950000Y-72830000D02*
X122950000Y-75150000D01*
D49*
X125900000Y-77000000D02*
X124675000Y-75775000D01*
X124775000Y-79425000D02*
X125900000Y-78300000D01*
X124675000Y-75775000D02*
X123575000Y-75775000D01*
D54*
X124150000Y-71630000D02*
X122950000Y-72830000D01*
D49*
X124775000Y-83875000D02*
X124775000Y-79425000D01*
X148811411Y-94213589D02*
X148811411Y-94211411D01*
X148675000Y-94925000D02*
X138850000Y-85100000D01*
X124100000Y-84050000D02*
X124100000Y-78300000D01*
X124300000Y-76300000D02*
X123475000Y-76300000D01*
X124100000Y-78300000D02*
X124700000Y-77700000D01*
X149800000Y-94925000D02*
X148675000Y-94925000D01*
X138850000Y-85100000D02*
X125150000Y-85100000D01*
D54*
X124150000Y-70380000D02*
X122625000Y-71905000D01*
D49*
X124700000Y-76700000D02*
X124300000Y-76300000D01*
D54*
X122625000Y-71905000D02*
X122625000Y-75450000D01*
D49*
X124700000Y-77700000D02*
X124700000Y-76700000D01*
X150300000Y-94425000D02*
X149800000Y-94925000D01*
X123475000Y-76300000D02*
X122625000Y-75450000D01*
X125150000Y-85100000D02*
X124100000Y-84050000D01*
X123500000Y-84475000D02*
X123500000Y-77100000D01*
X138575000Y-85600000D02*
X124625000Y-85600000D01*
X124625000Y-85600000D02*
X123500000Y-84475000D01*
D54*
X122250000Y-71030000D02*
X122250000Y-75850000D01*
D49*
X123500000Y-77100000D02*
X122250000Y-75850000D01*
D54*
X124150000Y-69130000D02*
X122250000Y-71030000D01*
D49*
X148700000Y-95725000D02*
X138575000Y-85600000D01*
X149000000Y-95725000D02*
X148700000Y-95725000D01*
X141225000Y-109325500D02*
X141500000Y-109600500D01*
X141225000Y-105050000D02*
X141225000Y-109325500D01*
D55*
X155650000Y-109000000D02*
X154750000Y-109900000D01*
X156425000Y-109000000D02*
X155650000Y-109000000D01*
X157825000Y-110875000D02*
X157000000Y-110050000D01*
X159500000Y-113225000D02*
X157825000Y-111550000D01*
X157825000Y-111550000D02*
X157825000Y-110875000D01*
X157000000Y-109575000D02*
X156425000Y-109000000D01*
X157000000Y-110050000D02*
X157000000Y-109575000D01*
X157850000Y-110075000D02*
X158400000Y-110625000D01*
X158400000Y-110625000D02*
X158400000Y-111100000D01*
X160550000Y-113250000D02*
X161000000Y-113250000D01*
X157850000Y-109900000D02*
X157850000Y-110075000D01*
X158400000Y-111100000D02*
X160550000Y-113250000D01*
D49*
X153575000Y-117375000D02*
X157150000Y-117375000D01*
X164050000Y-113375000D02*
X162600000Y-111925000D01*
X162600000Y-111925000D02*
X162600000Y-111425000D01*
X151680000Y-119270000D02*
X153575000Y-117375000D01*
X162600000Y-109675000D02*
X160175000Y-107250000D01*
X158900000Y-119125000D02*
X162925000Y-119125000D01*
X162925000Y-119125000D02*
X164050000Y-118000000D01*
X160175000Y-107250000D02*
X160175000Y-103450000D01*
X164050000Y-118000000D02*
X164050000Y-113375000D01*
X160175000Y-103450000D02*
X159975000Y-103250000D01*
X157150000Y-117375000D02*
X158900000Y-119125000D01*
X163225000Y-119575000D02*
X158725000Y-119575000D01*
X164550000Y-113125000D02*
X164550000Y-118250000D01*
X160625000Y-104600000D02*
X160625000Y-106500000D01*
X164000000Y-112575000D02*
X164550000Y-113125000D01*
X155665000Y-117825000D02*
X154220000Y-119270000D01*
X164000000Y-109675000D02*
X163800000Y-109675000D01*
X158725000Y-119575000D02*
X156975000Y-117825000D01*
X160975000Y-104250000D02*
X160625000Y-104600000D01*
X164550000Y-118250000D02*
X163225000Y-119575000D01*
X164000000Y-111425000D02*
X164000000Y-112575000D01*
X163800000Y-109675000D02*
X160625000Y-106500000D01*
X156975000Y-117825000D02*
X155665000Y-117825000D01*
D48*
X134135661Y-102975000D02*
X137285000Y-102975000D01*
X183040000Y-96274615D02*
X183378662Y-96613277D01*
D52*
X131230000Y-132962500D02*
X130026250Y-131758750D01*
D48*
X183040000Y-71810000D02*
X183040000Y-96274615D01*
D53*
X133770000Y-67037500D02*
X133770000Y-67538060D01*
D51*
X127362500Y-132962500D02*
X126900000Y-132500000D01*
D48*
X128750000Y-125200000D02*
X128900000Y-125200000D01*
D52*
X132321713Y-69900000D02*
X127500000Y-69900000D01*
D53*
X122520000Y-66330000D02*
X125230000Y-66330000D01*
D48*
X183378662Y-108771338D02*
X181475000Y-110675000D01*
D53*
X153291977Y-68262000D02*
X155223977Y-66330000D01*
D51*
X130025000Y-117300000D02*
X130000000Y-117275000D01*
X137942500Y-68670000D02*
X136310000Y-67037500D01*
X162050000Y-69902500D02*
X162152500Y-69800000D01*
X128690000Y-132962500D02*
X127362500Y-132962500D01*
X137950000Y-127800000D02*
X131500000Y-127800000D01*
D53*
X125230000Y-66330000D02*
X126100000Y-67200000D01*
D52*
X121600000Y-69091169D02*
X120750000Y-69941169D01*
D51*
X127050000Y-82700000D02*
X134450000Y-82700000D01*
X126900000Y-130450000D02*
X127050000Y-130300000D01*
D48*
X171310000Y-67037500D02*
X176962500Y-67037500D01*
X133375000Y-103735661D02*
X134135661Y-102975000D01*
D53*
X136310000Y-67037500D02*
X137027500Y-66320000D01*
X148901500Y-67748500D02*
X151194523Y-67748500D01*
D48*
X171450000Y-110675000D02*
X170449272Y-109674272D01*
D52*
X133447500Y-69900000D02*
X136310000Y-67037500D01*
D51*
X132375000Y-117300000D02*
X130025000Y-117300000D01*
D48*
X180500000Y-70575000D02*
X181805000Y-70575000D01*
D53*
X167421713Y-69800000D02*
X168547500Y-69800000D01*
X160280000Y-66330000D02*
X161300000Y-67350000D01*
X130000000Y-129375000D02*
X130000000Y-127800000D01*
X146512000Y-68262000D02*
X148388000Y-68262000D01*
X148388000Y-68262000D02*
X148901500Y-67748500D01*
D51*
X127050000Y-72200000D02*
X127050000Y-70350000D01*
D52*
X171310000Y-67037500D02*
X168770000Y-67037500D01*
D56*
X130000000Y-118600000D02*
X128750000Y-119850000D01*
D51*
X133400000Y-114325000D02*
X133275000Y-114200000D01*
X132375000Y-117300000D02*
X131500000Y-117300000D01*
D52*
X130026250Y-131758750D02*
X130026250Y-131626250D01*
D48*
X183378662Y-96613277D02*
X183378662Y-108771338D01*
X133275000Y-112700000D02*
X133375000Y-112600000D01*
X133375000Y-112600000D02*
X133375000Y-103735661D01*
D52*
X121600000Y-67250000D02*
X121600000Y-69091169D01*
X130000000Y-114600000D02*
X130000000Y-115800000D01*
D53*
X161300000Y-68947500D02*
X162152500Y-69800000D01*
D51*
X162042500Y-82700000D02*
X169525000Y-82700000D01*
X172950000Y-68677500D02*
X171310000Y-67037500D01*
D52*
X133770000Y-67037500D02*
X136310000Y-67037500D01*
X116550000Y-106550000D02*
X123175000Y-113175000D01*
D53*
X144570000Y-66320000D02*
X146512000Y-68262000D01*
D51*
X170675000Y-71150000D02*
X172125000Y-69700000D01*
D48*
X137450000Y-102810000D02*
X138480000Y-102810000D01*
D51*
X172950000Y-69700000D02*
X172950000Y-68677500D01*
D52*
X123175000Y-113175000D02*
X131650000Y-113175000D01*
D53*
X121600000Y-67250000D02*
X122520000Y-66330000D01*
X168547500Y-69800000D02*
X171310000Y-67037500D01*
D48*
X181805000Y-70575000D02*
X183040000Y-71810000D01*
D53*
X151708023Y-68262000D02*
X153291977Y-68262000D01*
D51*
X170675000Y-81550000D02*
X170675000Y-71150000D01*
D56*
X128750000Y-119850000D02*
X128750000Y-125200000D01*
D48*
X165250728Y-109674272D02*
X164425000Y-110500000D01*
D53*
X126100000Y-67200000D02*
X126100000Y-68500000D01*
D48*
X170449272Y-109674272D02*
X165250728Y-109674272D01*
D51*
X172125000Y-69700000D02*
X172950000Y-69700000D01*
X132375000Y-117300000D02*
X137957500Y-117300000D01*
X127050000Y-70350000D02*
X127500000Y-69900000D01*
D48*
X130000000Y-129300000D02*
X131500000Y-127800000D01*
D52*
X133770000Y-68451713D02*
X132321713Y-69900000D01*
D48*
X176962500Y-67037500D02*
X180500000Y-70575000D01*
D53*
X155223977Y-66330000D02*
X160280000Y-66330000D01*
D52*
X130000000Y-115800000D02*
X130000000Y-117275000D01*
D53*
X161300000Y-67350000D02*
X161300000Y-68947500D01*
X137027500Y-66320000D02*
X144570000Y-66320000D01*
X130000000Y-127800000D02*
X128750000Y-126550000D01*
D51*
X162050000Y-72200000D02*
X162050000Y-69902500D01*
D53*
X162152500Y-69800000D02*
X167421713Y-69800000D01*
X131200000Y-132932500D02*
X131230000Y-132962500D01*
X128750000Y-126550000D02*
X128750000Y-125200000D01*
D48*
X128900000Y-125200000D02*
X131500000Y-127800000D01*
D53*
X167421713Y-69800000D02*
X168770000Y-68451713D01*
D52*
X130000000Y-131600000D02*
X130026250Y-131626250D01*
D53*
X120750000Y-86700000D02*
X120750000Y-69941169D01*
D51*
X126900000Y-132500000D02*
X126900000Y-130450000D01*
X135900000Y-81250000D02*
X135900000Y-70975000D01*
D48*
X164425000Y-110500000D02*
X159950000Y-110500000D01*
D51*
X137175000Y-69700000D02*
X137942500Y-69700000D01*
D48*
X181475000Y-110675000D02*
X171450000Y-110675000D01*
D51*
X134450000Y-82700000D02*
X135900000Y-81250000D01*
D48*
X137285000Y-102975000D02*
X137450000Y-102810000D01*
D53*
X126100000Y-68500000D02*
X126400000Y-68800000D01*
D52*
X127500000Y-69900000D02*
X126400000Y-68800000D01*
D53*
X116550000Y-106550000D02*
X116550000Y-90900000D01*
D51*
X137942500Y-69700000D02*
X137942500Y-68670000D01*
D53*
X168770000Y-68451713D02*
X168770000Y-67037500D01*
D51*
X135900000Y-70975000D02*
X137175000Y-69700000D01*
D53*
X130000000Y-131600000D02*
X130000000Y-129375000D01*
D56*
X130000000Y-117275000D02*
X130000000Y-118600000D01*
D52*
X128690000Y-132962500D02*
X131230000Y-132962500D01*
X133770000Y-67037500D02*
X133770000Y-68451713D01*
D48*
X130000000Y-129375000D02*
X130000000Y-129300000D01*
D51*
X131500000Y-117300000D02*
X130000000Y-115800000D01*
D52*
X132321713Y-69900000D02*
X133447500Y-69900000D01*
D51*
X131500000Y-127800000D02*
X130000000Y-127800000D01*
D53*
X151194523Y-67748500D02*
X151708023Y-68262000D01*
D51*
X169525000Y-82700000D02*
X170675000Y-81550000D01*
D53*
X116550000Y-90900000D02*
X120750000Y-86700000D01*
D52*
X130026250Y-131626250D02*
X128690000Y-132962500D01*
D49*
X179375000Y-81525000D02*
X176400000Y-84500000D01*
X151375000Y-89375000D02*
X151375000Y-95425000D01*
X149625000Y-97175000D02*
X147850000Y-97175000D01*
X147850000Y-97175000D02*
X147700000Y-97025000D01*
X176400000Y-84500000D02*
X156250000Y-84500000D01*
X151375000Y-95425000D02*
X149625000Y-97175000D01*
X179375000Y-76782500D02*
X179375000Y-81525000D01*
X181500000Y-74657500D02*
X179375000Y-76782500D01*
X156250000Y-84500000D02*
X151375000Y-89375000D01*
D48*
X173025000Y-128375000D02*
X173025000Y-127750000D01*
X143400000Y-113050000D02*
X139575000Y-113050000D01*
X137450000Y-110925000D02*
X134750000Y-110925000D01*
X139575000Y-113050000D02*
X137450000Y-110925000D01*
X167500000Y-133900000D02*
X156900000Y-133900000D01*
X167500000Y-133900000D02*
X173025000Y-128375000D01*
D49*
X181500000Y-72117500D02*
X178875000Y-74742500D01*
X178875000Y-74742500D02*
X178875000Y-81075000D01*
X175850000Y-84100000D02*
X155950000Y-84100000D01*
X155950000Y-84100000D02*
X150900000Y-89150000D01*
X150900000Y-95150000D02*
X149437500Y-96612500D01*
X178875000Y-81075000D02*
X175850000Y-84100000D01*
X148587500Y-96612500D02*
X147500000Y-95525000D01*
X150900000Y-89150000D02*
X150900000Y-95150000D01*
X149437500Y-96612500D02*
X148587500Y-96612500D01*
D51*
X139450000Y-68500000D02*
X140080000Y-67870000D01*
X139450000Y-70500000D02*
X139450000Y-68500000D01*
X137942500Y-71000000D02*
X138950000Y-71000000D01*
X138950000Y-71000000D02*
X139450000Y-70500000D01*
X140080000Y-67870000D02*
X140850000Y-67870000D01*
X162042500Y-81400000D02*
X168650000Y-81400000D01*
X169375000Y-80675000D02*
X169375000Y-79300000D01*
X168650000Y-81400000D02*
X169375000Y-80675000D01*
X174450000Y-68450000D02*
X175030000Y-67870000D01*
X174450000Y-70450000D02*
X174450000Y-68450000D01*
X173900000Y-71000000D02*
X174450000Y-70450000D01*
X175030000Y-67870000D02*
X175850000Y-67870000D01*
X172950000Y-71000000D02*
X173900000Y-71000000D01*
X160650000Y-73500000D02*
X162050000Y-73500000D01*
X160020000Y-74130000D02*
X160650000Y-73500000D01*
X159150000Y-74130000D02*
X160020000Y-74130000D01*
X137950000Y-126500000D02*
X139150000Y-126500000D01*
X139780000Y-125870000D02*
X140850000Y-125870000D01*
X139150000Y-126500000D02*
X139780000Y-125870000D01*
X132150000Y-118600000D02*
X130625000Y-120125000D01*
X130625000Y-120125000D02*
X130625000Y-120700000D01*
X137957500Y-118600000D02*
X132150000Y-118600000D01*
X126100000Y-129000000D02*
X125550000Y-129550000D01*
X127050000Y-129000000D02*
X126100000Y-129000000D01*
X125550000Y-131600000D02*
X125020000Y-132130000D01*
X125020000Y-132130000D02*
X124150000Y-132130000D01*
X125550000Y-129550000D02*
X125550000Y-131600000D01*
X125850000Y-73500000D02*
X127050000Y-73500000D01*
X125220000Y-74130000D02*
X125850000Y-73500000D01*
X124150000Y-74130000D02*
X125220000Y-74130000D01*
X133700000Y-81400000D02*
X134375000Y-80725000D01*
X134375000Y-80725000D02*
X134375000Y-79300000D01*
X127050000Y-81400000D02*
X133700000Y-81400000D01*
D49*
X150050000Y-102150000D02*
X150050000Y-106450000D01*
X142850000Y-100700000D02*
X148600000Y-100700000D01*
X142160000Y-107560000D02*
X142150000Y-107550000D01*
X122850000Y-117775000D02*
X122850000Y-120325000D01*
X150700000Y-107100000D02*
X151750000Y-107100000D01*
X142150000Y-107550000D02*
X142150000Y-101400000D01*
X148600000Y-100700000D02*
X150050000Y-102150000D01*
X122850000Y-120325000D02*
X118500000Y-124675000D01*
X142150000Y-101400000D02*
X142850000Y-100700000D01*
X150050000Y-106450000D02*
X150700000Y-107100000D01*
X118500000Y-124675000D02*
X118500000Y-125342500D01*
X168398528Y-92000001D02*
X168600000Y-92000001D01*
X165375000Y-97300000D02*
X165150000Y-97300000D01*
X164225000Y-90300000D02*
X165125000Y-91200000D01*
X166576470Y-89225000D02*
X165300000Y-89225000D01*
X168600000Y-91248530D02*
X166576470Y-89225000D01*
X165125000Y-91200000D02*
X165125000Y-97050000D01*
X168600000Y-92000001D02*
X168600000Y-91248530D01*
X165125000Y-97050000D02*
X165375000Y-97300000D01*
X165300000Y-89225000D02*
X164225000Y-90300000D01*
X163200000Y-117975000D02*
X163200000Y-115225000D01*
G04 #@! TA.AperFunction,Conductor*
G36*
X129489885Y-122713618D02*
G01*
X129497115Y-122717517D01*
X129500000Y-122725210D01*
X129500000Y-123465001D01*
X129507000Y-123702896D01*
X129526000Y-123897861D01*
X129554000Y-124060628D01*
X129554002Y-124060639D01*
X129587995Y-124201915D01*
X129625000Y-124332500D01*
X129661940Y-124462859D01*
X129662058Y-124463312D01*
X129695906Y-124603986D01*
X129696062Y-124604739D01*
X129723927Y-124766719D01*
X129724041Y-124767568D01*
X129742961Y-124961711D01*
X129743011Y-124962502D01*
X129749995Y-125199830D01*
X129750000Y-125200174D01*
X129750000Y-125341699D01*
X129747842Y-125348469D01*
X129742165Y-125352742D01*
X128753865Y-125698647D01*
X128746135Y-125698647D01*
X127757835Y-125352742D01*
X127752158Y-125348469D01*
X127750000Y-125341699D01*
X127750000Y-125200174D01*
X127750005Y-125199830D01*
X127756988Y-124962502D01*
X127757038Y-124961711D01*
X127775958Y-124767568D01*
X127776072Y-124766719D01*
X127803941Y-124604714D01*
X127804086Y-124604012D01*
X127837951Y-124463273D01*
X127838049Y-124462893D01*
X127875000Y-124332500D01*
X127912000Y-124201930D01*
X127945999Y-124060628D01*
X127974000Y-123897861D01*
X127993000Y-123702896D01*
X128000000Y-123465001D01*
X128000000Y-122725210D01*
X128002885Y-122717517D01*
X128010114Y-122713618D01*
X128748419Y-122612718D01*
X128751581Y-122612718D01*
X129489885Y-122713618D01*
G37*
G04 #@! TD.AperFunction*
G04 #@! TA.AperFunction,Conductor*
G36*
X168012000Y-67066881D02*
G01*
X168058119Y-67113000D01*
X168075000Y-67176000D01*
X168075000Y-68724000D01*
X168058119Y-68787000D01*
X168012000Y-68833119D01*
X167949000Y-68850000D01*
X167651000Y-68850000D01*
X167588000Y-68833119D01*
X167541881Y-68787000D01*
X167525000Y-68724000D01*
X167525000Y-67176000D01*
X167541881Y-67113000D01*
X167588000Y-67066881D01*
X167651000Y-67050000D01*
X167949000Y-67050000D01*
X168012000Y-67066881D01*
G37*
G04 #@! TD.AperFunction*
G04 #@! TA.AperFunction,Conductor*
G36*
X169975748Y-119409026D02*
G01*
X170015869Y-119434810D01*
X170037678Y-119465438D01*
X170042117Y-119470561D01*
X170042118Y-119470563D01*
X170126951Y-119568467D01*
X170235931Y-119638504D01*
X170298079Y-119656752D01*
X170360227Y-119675000D01*
X170360228Y-119675000D01*
X170489772Y-119675000D01*
X170489773Y-119675000D01*
X170531204Y-119662834D01*
X170614069Y-119638504D01*
X170723049Y-119568467D01*
X170723051Y-119568464D01*
X170726156Y-119566469D01*
X170779318Y-119547358D01*
X170835488Y-119553397D01*
X170883372Y-119583372D01*
X171413095Y-120113095D01*
X171440409Y-120153972D01*
X171450000Y-120202190D01*
X171450000Y-121597809D01*
X171440409Y-121646027D01*
X171413095Y-121686905D01*
X171129860Y-121970138D01*
X171071927Y-122003128D01*
X171005270Y-122001939D01*
X170996963Y-121999500D01*
X170996961Y-121999500D01*
X170853039Y-121999500D01*
X170853038Y-121999500D01*
X170714946Y-122040047D01*
X170593873Y-122117855D01*
X170499621Y-122226628D01*
X170454083Y-122326343D01*
X170407590Y-122379998D01*
X170339470Y-122400000D01*
X169126000Y-122400000D01*
X169063000Y-122383119D01*
X169016881Y-122337000D01*
X169000000Y-122274000D01*
X169000000Y-119526000D01*
X169016881Y-119463000D01*
X169063000Y-119416881D01*
X169126000Y-119400000D01*
X169928918Y-119400000D01*
X169975748Y-119409026D01*
G37*
G04 #@! TD.AperFunction*
G04 #@! TA.AperFunction,Conductor*
G36*
X131752240Y-111925080D02*
G01*
X132450000Y-111950000D01*
X133649000Y-111950000D01*
X133712000Y-111966881D01*
X133758119Y-112013000D01*
X133775000Y-112076000D01*
X133775000Y-114697810D01*
X133765409Y-114746028D01*
X133738095Y-114786905D01*
X133661905Y-114863095D01*
X133621028Y-114890409D01*
X133572810Y-114900000D01*
X133052190Y-114900000D01*
X133003972Y-114890409D01*
X132963097Y-114863097D01*
X132650000Y-114550000D01*
X131800000Y-114550000D01*
X131186902Y-115163097D01*
X131146028Y-115190409D01*
X131097810Y-115200000D01*
X130551000Y-115200000D01*
X130488000Y-115183119D01*
X130441881Y-115137000D01*
X130425000Y-115074000D01*
X130425000Y-112051000D01*
X130441881Y-111988000D01*
X130488000Y-111941881D01*
X130551000Y-111925000D01*
X131747743Y-111925000D01*
X131752240Y-111925080D01*
G37*
G04 #@! TD.AperFunction*
G04 #@! TA.AperFunction,Conductor*
G36*
X136851491Y-65355580D02*
G01*
X136905042Y-65402074D01*
X136925000Y-65470126D01*
X136925000Y-66349000D01*
X136908119Y-66412000D01*
X136862000Y-66458119D01*
X136799000Y-66475000D01*
X133701000Y-66475000D01*
X133638000Y-66458119D01*
X133591881Y-66412000D01*
X133575000Y-66349000D01*
X133575000Y-65909394D01*
X133589044Y-65851585D01*
X133628046Y-65806663D01*
X133683309Y-65784642D01*
X135901480Y-65470126D01*
X136781311Y-65345374D01*
X136851491Y-65355580D01*
G37*
G04 #@! TD.AperFunction*
G04 #@! TA.AperFunction,Conductor*
G36*
X128562000Y-131566881D02*
G01*
X128608119Y-131613000D01*
X128625000Y-131676000D01*
X128625000Y-132924000D01*
X128608119Y-132987000D01*
X128562000Y-133033119D01*
X128499000Y-133050000D01*
X127576000Y-133050000D01*
X127513000Y-133033119D01*
X127466881Y-132987000D01*
X127450000Y-132924000D01*
X127450000Y-131676000D01*
X127466881Y-131613000D01*
X127513000Y-131566881D01*
X127576000Y-131550000D01*
X128499000Y-131550000D01*
X128562000Y-131566881D01*
G37*
G04 #@! TD.AperFunction*
G04 #@! TA.AperFunction,Conductor*
G36*
X125689663Y-68341248D02*
G01*
X125735592Y-68385803D01*
X125753713Y-68447172D01*
X125790346Y-69652386D01*
X125778028Y-69710671D01*
X125740311Y-69756783D01*
X125685626Y-69780414D01*
X125626197Y-69776282D01*
X125575309Y-69745309D01*
X125136905Y-69306905D01*
X125109591Y-69266028D01*
X125100000Y-69217810D01*
X125100000Y-68451000D01*
X125116881Y-68388000D01*
X125163000Y-68341881D01*
X125226000Y-68325000D01*
X125627771Y-68325000D01*
X125689663Y-68341248D01*
G37*
G04 #@! TD.AperFunction*
G04 #@! TA.AperFunction,Conductor*
G36*
X121190556Y-69501999D02*
G01*
X121195871Y-69507391D01*
X121762863Y-70684991D01*
X121763856Y-70692027D01*
X121760594Y-70698340D01*
X121633886Y-70825048D01*
X121526297Y-70954449D01*
X121470808Y-71071903D01*
X121457814Y-71181817D01*
X121477712Y-71288595D01*
X121520895Y-71396635D01*
X121577731Y-71510280D01*
X121577748Y-71510353D01*
X121577764Y-71510346D01*
X121638514Y-71633725D01*
X121638877Y-71634539D01*
X121693853Y-71771676D01*
X121694326Y-71773124D01*
X121734191Y-71928569D01*
X121734515Y-71930469D01*
X121749957Y-72109421D01*
X121750000Y-72110427D01*
X121750000Y-73099718D01*
X121747119Y-73107407D01*
X121739895Y-73111308D01*
X121403871Y-73157511D01*
X120751594Y-73247199D01*
X120748406Y-73247199D01*
X120096127Y-73157511D01*
X119760104Y-73111308D01*
X119752881Y-73107407D01*
X119750000Y-73099718D01*
X119750000Y-72109930D01*
X119745763Y-71930469D01*
X119743000Y-71813417D01*
X119724000Y-71570000D01*
X119696000Y-71366396D01*
X119662000Y-71189334D01*
X119625000Y-71025544D01*
X119588035Y-70861909D01*
X119587972Y-70861609D01*
X119554057Y-70684991D01*
X119553957Y-70684387D01*
X119526044Y-70481413D01*
X119525975Y-70480769D01*
X119507023Y-70237969D01*
X119506992Y-70237348D01*
X119500118Y-69946175D01*
X119500954Y-69941549D01*
X119503540Y-69937628D01*
X119630072Y-69811096D01*
X119636063Y-69807896D01*
X121183053Y-69500991D01*
X121190556Y-69501999D01*
G37*
G04 #@! TD.AperFunction*
G04 #@! TA.AperFunction,Conductor*
G36*
X122562000Y-65341881D02*
G01*
X122608119Y-65388000D01*
X122625000Y-65451000D01*
X122625000Y-67124000D01*
X122608119Y-67187000D01*
X122562000Y-67233119D01*
X122499000Y-67250000D01*
X120476000Y-67250000D01*
X120413000Y-67233119D01*
X120366881Y-67187000D01*
X120350000Y-67124000D01*
X120350000Y-66652908D01*
X120359827Y-66604125D01*
X120387774Y-66562952D01*
X121585765Y-65388000D01*
X121613249Y-65361043D01*
X121653823Y-65334358D01*
X121701475Y-65325000D01*
X122499000Y-65325000D01*
X122562000Y-65341881D01*
G37*
G04 #@! TD.AperFunction*
G04 #@! TA.AperFunction,Conductor*
G36*
X117539895Y-103379860D02*
G01*
X117547119Y-103383762D01*
X117550000Y-103391451D01*
X117550000Y-104380742D01*
X117549957Y-104381748D01*
X117534515Y-104560698D01*
X117534191Y-104562598D01*
X117494326Y-104718043D01*
X117493853Y-104719491D01*
X117438877Y-104856628D01*
X117438514Y-104857442D01*
X117377764Y-104980822D01*
X117377731Y-104980887D01*
X117320895Y-105094532D01*
X117277712Y-105202572D01*
X117257814Y-105309350D01*
X117270808Y-105419264D01*
X117300082Y-105481230D01*
X117326297Y-105536719D01*
X117433883Y-105666117D01*
X117433886Y-105666120D01*
X117560594Y-105792828D01*
X117563856Y-105799141D01*
X117562863Y-105806177D01*
X116995871Y-106983777D01*
X116990556Y-106989169D01*
X116983052Y-106990177D01*
X115436066Y-106683273D01*
X115430070Y-106680070D01*
X115303927Y-106553927D01*
X115300500Y-106545654D01*
X115300500Y-106528970D01*
X115300503Y-106528694D01*
X115306992Y-106253819D01*
X115307024Y-106253185D01*
X115325975Y-106010394D01*
X115326044Y-106009758D01*
X115353959Y-105806767D01*
X115354059Y-105806168D01*
X115387974Y-105629546D01*
X115388032Y-105629271D01*
X115425000Y-105465625D01*
X115462000Y-105301834D01*
X115495999Y-105124772D01*
X115524000Y-104921168D01*
X115543000Y-104677751D01*
X115550000Y-104381250D01*
X115550000Y-103391451D01*
X115552881Y-103383762D01*
X115560104Y-103379860D01*
X116548407Y-103243969D01*
X116551593Y-103243969D01*
X117539895Y-103379860D01*
G37*
G04 #@! TD.AperFunction*
G04 #@! TA.AperFunction,Conductor*
G36*
X168637000Y-119416881D02*
G01*
X168683119Y-119463000D01*
X168700000Y-119526000D01*
X168700000Y-122274000D01*
X168683119Y-122337000D01*
X168637000Y-122383119D01*
X168574000Y-122400000D01*
X167752190Y-122400000D01*
X167703972Y-122390409D01*
X167663097Y-122363097D01*
X166950000Y-121650000D01*
X166576000Y-121650000D01*
X166513000Y-121633119D01*
X166466881Y-121587000D01*
X166450000Y-121524000D01*
X166450000Y-119776000D01*
X166466881Y-119713000D01*
X166513000Y-119666881D01*
X166576000Y-119650000D01*
X166949999Y-119650000D01*
X166950000Y-119650000D01*
X167163097Y-119436902D01*
X167203972Y-119409591D01*
X167252190Y-119400000D01*
X168574000Y-119400000D01*
X168637000Y-119416881D01*
G37*
G04 #@! TD.AperFunction*
G04 #@! TA.AperFunction,Conductor*
G36*
X137396028Y-111959591D02*
G01*
X137436905Y-111986905D01*
X139013095Y-113563095D01*
X139040409Y-113603972D01*
X139050000Y-113652190D01*
X139050000Y-115347810D01*
X139040409Y-115396028D01*
X139013095Y-115436905D01*
X138436905Y-116013095D01*
X138396028Y-116040409D01*
X138347810Y-116050000D01*
X136882799Y-116050000D01*
X136825062Y-116035993D01*
X136780162Y-115997087D01*
X136758082Y-115941932D01*
X136735165Y-115782543D01*
X136675377Y-115651628D01*
X136675377Y-115651627D01*
X136581128Y-115542857D01*
X136581127Y-115542856D01*
X136581126Y-115542855D01*
X136460053Y-115465047D01*
X136321962Y-115424500D01*
X136321961Y-115424500D01*
X136178039Y-115424500D01*
X136178038Y-115424500D01*
X136039946Y-115465047D01*
X135918873Y-115542855D01*
X135824621Y-115651628D01*
X135802113Y-115700915D01*
X135755620Y-115754570D01*
X135687500Y-115774572D01*
X135619380Y-115754570D01*
X135572887Y-115700915D01*
X135550378Y-115651628D01*
X135467840Y-115556374D01*
X135456128Y-115542857D01*
X135456127Y-115542856D01*
X135456126Y-115542855D01*
X135335053Y-115465047D01*
X135196962Y-115424500D01*
X135196961Y-115424500D01*
X135053039Y-115424500D01*
X135053038Y-115424500D01*
X134914946Y-115465047D01*
X134802575Y-115537263D01*
X134749413Y-115556374D01*
X134693244Y-115550335D01*
X134645360Y-115520360D01*
X134111905Y-114986905D01*
X134084591Y-114946028D01*
X134075000Y-114897810D01*
X134075000Y-112076000D01*
X134091881Y-112013000D01*
X134138000Y-111966881D01*
X134201000Y-111950000D01*
X137347810Y-111950000D01*
X137396028Y-111959591D01*
G37*
G04 #@! TD.AperFunction*
G04 #@! TA.AperFunction,Conductor*
G36*
X172088000Y-91634914D02*
G01*
X172115086Y-91662000D01*
X172125000Y-91699000D01*
X172125000Y-94844348D01*
X172119367Y-94872667D01*
X172103326Y-94896674D01*
X170921674Y-96078326D01*
X170897667Y-96094367D01*
X170869348Y-96100000D01*
X169005652Y-96100000D01*
X168977333Y-96094367D01*
X168953326Y-96078326D01*
X168246674Y-95371674D01*
X168230633Y-95347667D01*
X168225000Y-95319348D01*
X168225000Y-94380652D01*
X168230633Y-94352333D01*
X168246674Y-94328326D01*
X169125000Y-93450000D01*
X169125000Y-91699000D01*
X169134914Y-91662000D01*
X169162000Y-91634914D01*
X169199000Y-91625000D01*
X172051000Y-91625000D01*
X172088000Y-91634914D01*
G37*
G04 #@! TD.AperFunction*
G04 #@! TA.AperFunction,Conductor*
G36*
X137953013Y-66963733D02*
G01*
X137997746Y-67001939D01*
X138020259Y-67056289D01*
X138015643Y-67114936D01*
X137984906Y-67165093D01*
X137599999Y-67550000D01*
X137600000Y-67550000D01*
X137600000Y-68324000D01*
X137583119Y-68387000D01*
X137537000Y-68433119D01*
X137474000Y-68450000D01*
X136551000Y-68450000D01*
X136488000Y-68433119D01*
X136441881Y-68387000D01*
X136425000Y-68324000D01*
X136425000Y-67076000D01*
X136441881Y-67013000D01*
X136488000Y-66966881D01*
X136551000Y-66950000D01*
X137895810Y-66950000D01*
X137953013Y-66963733D01*
G37*
G04 #@! TD.AperFunction*
G04 #@! TA.AperFunction,Conductor*
G36*
X132412000Y-131566881D02*
G01*
X132458119Y-131613000D01*
X132475000Y-131676000D01*
X132475000Y-132924000D01*
X132458119Y-132987000D01*
X132412000Y-133033119D01*
X132349000Y-133050000D01*
X131426000Y-133050000D01*
X131363000Y-133033119D01*
X131316881Y-132987000D01*
X131300000Y-132924000D01*
X131300000Y-131676000D01*
X131316881Y-131613000D01*
X131363000Y-131566881D01*
X131426000Y-131550000D01*
X132349000Y-131550000D01*
X132412000Y-131566881D01*
G37*
G04 #@! TD.AperFunction*
G04 #@! TA.AperFunction,Conductor*
G36*
X170697667Y-87205633D02*
G01*
X170721674Y-87221674D01*
X172103326Y-88603326D01*
X172119367Y-88627333D01*
X172125000Y-88655652D01*
X172125000Y-91251000D01*
X172115086Y-91288000D01*
X172088000Y-91315086D01*
X172051000Y-91325000D01*
X168955652Y-91325000D01*
X168927333Y-91319367D01*
X168903326Y-91303326D01*
X168872989Y-91272989D01*
X168852737Y-91235102D01*
X168835966Y-91150790D01*
X168835965Y-91150788D01*
X168790534Y-91082793D01*
X168790527Y-91082785D01*
X168780600Y-91067928D01*
X168765742Y-91058000D01*
X168754529Y-91048798D01*
X166776202Y-89070472D01*
X166766999Y-89059258D01*
X166757070Y-89044397D01*
X166732887Y-89028239D01*
X166708738Y-89001594D01*
X166700000Y-88966711D01*
X166700000Y-87580652D01*
X166705633Y-87552333D01*
X166721674Y-87528326D01*
X167028326Y-87221674D01*
X167052333Y-87205633D01*
X167080652Y-87200000D01*
X170669348Y-87200000D01*
X170697667Y-87205633D01*
G37*
G04 #@! TD.AperFunction*
G04 #@! TA.AperFunction,Conductor*
G36*
X123283551Y-74654819D02*
G01*
X123296517Y-74659358D01*
X123342165Y-74675335D01*
X123347842Y-74679608D01*
X123350000Y-74686378D01*
X123350000Y-74688882D01*
X123349967Y-74689764D01*
X123348980Y-74702816D01*
X123348733Y-74704479D01*
X123346275Y-74715510D01*
X123345919Y-74716769D01*
X123342463Y-74726820D01*
X123342206Y-74727498D01*
X123338239Y-74737063D01*
X123334545Y-74746106D01*
X123331925Y-74754734D01*
X123331088Y-74763256D01*
X123332731Y-74772020D01*
X123337276Y-74780837D01*
X123337549Y-74781367D01*
X123344090Y-74789103D01*
X123346245Y-74791652D01*
X123409773Y-74855179D01*
X123413171Y-74862625D01*
X123410858Y-74870475D01*
X123357318Y-74941810D01*
X123354983Y-74944145D01*
X123283648Y-74997685D01*
X123275798Y-74999998D01*
X123268352Y-74996600D01*
X123205522Y-74933770D01*
X123204248Y-74932261D01*
X123192166Y-74915206D01*
X123190209Y-74910569D01*
X123187545Y-74896118D01*
X123187648Y-74891379D01*
X123191132Y-74876251D01*
X123192143Y-74873501D01*
X123193710Y-74870475D01*
X123200821Y-74856740D01*
X123201456Y-74855664D01*
X123213393Y-74837713D01*
X123225679Y-74819237D01*
X123235323Y-74800612D01*
X123239680Y-74781690D01*
X123239620Y-74781367D01*
X123236281Y-74763257D01*
X123236109Y-74762322D01*
X123230733Y-74754734D01*
X123224120Y-74745398D01*
X123221967Y-74738635D01*
X123221967Y-74734662D01*
X123223942Y-74728157D01*
X123224607Y-74727163D01*
X123269962Y-74659357D01*
X123275981Y-74654765D01*
X123283551Y-74654819D01*
G37*
G04 #@! TD.AperFunction*
G04 #@! TA.AperFunction,Conductor*
G36*
X172487000Y-66916881D02*
G01*
X172533119Y-66963000D01*
X172550000Y-67026000D01*
X172550000Y-68274000D01*
X172533119Y-68337000D01*
X172487000Y-68383119D01*
X172424000Y-68400000D01*
X171401000Y-68400000D01*
X171338000Y-68383119D01*
X171291881Y-68337000D01*
X171275000Y-68274000D01*
X171275000Y-67026000D01*
X171291881Y-66963000D01*
X171338000Y-66916881D01*
X171401000Y-66900000D01*
X172424000Y-66900000D01*
X172487000Y-66916881D01*
G37*
G04 #@! TD.AperFunction*
G04 #@! TA.AperFunction,Conductor*
G36*
X130004981Y-116653700D02*
G01*
X131257409Y-117584017D01*
X131261824Y-117590741D01*
X131260853Y-117598727D01*
X130975000Y-118158880D01*
X130777915Y-118654902D01*
X130644018Y-119009097D01*
X130638925Y-119015092D01*
X130383427Y-119162637D01*
X130378895Y-119164130D01*
X130059955Y-119200307D01*
X129940338Y-119411374D01*
X129820839Y-119622229D01*
X129820606Y-119622623D01*
X129684022Y-119843051D01*
X129683605Y-119843677D01*
X129512635Y-120083663D01*
X129512126Y-120084326D01*
X129289381Y-120353924D01*
X129288868Y-120354504D01*
X128996911Y-120663740D01*
X128996677Y-120663981D01*
X128916623Y-120744035D01*
X128912717Y-120746616D01*
X128908112Y-120747460D01*
X128285994Y-120734800D01*
X128278047Y-120731462D01*
X128274543Y-120723590D01*
X128250000Y-120133537D01*
X128102160Y-119771065D01*
X128101463Y-119764674D01*
X128170268Y-119362613D01*
X128172928Y-119356962D01*
X128355620Y-119144614D01*
X128496476Y-118948837D01*
X128599314Y-118762134D01*
X128670063Y-118574549D01*
X128714652Y-118376129D01*
X128739010Y-118156918D01*
X128749068Y-117906963D01*
X128750755Y-117616308D01*
X128750698Y-117590741D01*
X128750000Y-117275000D01*
X128750000Y-117095801D01*
X128752158Y-117089031D01*
X128757835Y-117084758D01*
X129101253Y-116964561D01*
X129994143Y-116652049D01*
X129999767Y-116651526D01*
X130004981Y-116653700D01*
G37*
G04 #@! TD.AperFunction*
M02*
