M48
; DRILL file {KiCad 7.0.1} date Mon Jul  3 19:00:01 2023
; FORMAT={-:-/ absolute / metric / decimal}
; #@! TF.CreationDate,2023-07-03T19:00:01+02:00
; #@! TF.GenerationSoftware,Kicad,Pcbnew,7.0.1
; #@! TF.FileFunction,Plated,1,4,PTH
FMAT,2
METRIC
; #@! TA.AperFunction,Plated,PTH,ComponentDrill
T1C0.200
; #@! TA.AperFunction,Plated,PTH,ViaDrill
T2C0.250
; #@! TA.AperFunction,Plated,PTH,ViaDrill
T3C0.300
; #@! TA.AperFunction,Plated,PTH,ViaDrill
T4C0.400
; #@! TA.AperFunction,Plated,PTH,ComponentDrill
T5C0.400
; #@! TA.AperFunction,Plated,PTH,ComponentDrill
T6C0.500
; #@! TA.AperFunction,Plated,PTH,ComponentDrill
T7C0.600
; #@! TA.AperFunction,Plated,PTH,ComponentDrill
T8C0.650
; #@! TA.AperFunction,Plated,PTH,ComponentDrill
T9C0.800
; #@! TA.AperFunction,Plated,PTH,ComponentDrill
T10C0.850
; #@! TA.AperFunction,Plated,PTH,ComponentDrill
T11C1.000
; #@! TA.AperFunction,Plated,PTH,ComponentDrill
T12C2.200
%
G90
G05
T1
X134.225Y-104.575
X134.725Y-103.675
X134.725Y-105.475
X135.225Y-104.575
X161.614Y-105.788
X161.896Y-106.778
X162.603Y-106.071
X162.886Y-107.061
X169.1Y-114.887
X169.1Y-115.938
X169.1Y-116.987
X170.15Y-114.887
X170.15Y-115.938
X170.15Y-116.987
X171.2Y-114.887
X171.2Y-115.938
X171.2Y-116.987
T2
X170.425Y-119.224
T3
X115.8Y-72.5
X116.775Y-128.275
X118.235Y-93.069
X118.235Y-93.953
X118.235Y-94.837
X118.317Y-92.198
X118.335Y-95.704
X118.919Y-91.553
X118.944Y-96.342
X119.635Y-91.077
X120.085Y-93.003
X120.085Y-93.935
X120.085Y-94.867
X120.195Y-100.052
X120.694Y-95.476
X120.759Y-102.307
X121.05Y-90.425
X121.3Y-116.7
X121.3Y-117.85
X121.338Y-102.887
X121.907Y-96.699
X121.925Y-90.2
X122.015Y-103.304
X122.045Y-97.531
X122.045Y-98.392
X122.045Y-99.254
X122.045Y-100.115
X122.045Y-100.977
X122.05Y-119.2
X122.5Y-122.05
X122.6Y-84.175
X122.686Y-79.239
X122.85Y-117.775
X122.878Y-90.15
X122.888Y-103.305
X123.25Y-85.45
X123.434Y-101.455
X123.5Y-77.1
X123.5Y-122.9
X123.762Y-103.305
X123.875Y-90.15
X124.345Y-101.455
X124.635Y-103.305
X124.7Y-77.7
X124.7Y-122.3
X124.872Y-90.15
X125.255Y-105.886
X125.256Y-101.458
X125.675Y-92.0
X125.8Y-127.7
X125.825Y-90.175
X125.9Y-78.3
X125.9Y-121.7
X125.948Y-105.29
X125.996Y-101.967
X126.0Y-115.0
X126.478Y-104.56
X126.484Y-102.717
X126.485Y-103.639
X126.5Y-92.0
X126.725Y-97.712
X126.725Y-98.531
X126.725Y-99.35
X126.725Y-100.169
X126.75Y-90.25
X127.057Y-78.857
X127.075Y-95.275
X127.1Y-121.1
X127.1Y-123.6
X127.125Y-86.625
X127.49Y-93.325
X127.675Y-90.425
X128.25Y-104.978
X128.55Y-90.7
X128.925Y-93.031
X128.925Y-93.941
X129.03Y-105.499
X129.03Y-105.499
X129.431Y-91.078
X129.85Y-94.925
X130.137Y-91.554
X130.28Y-106.07
X130.57Y-102.676
X130.65Y-125.5
X130.716Y-92.201
X130.775Y-93.067
X130.775Y-93.941
X130.85Y-110.125
X131.75Y-115.925
X132.025Y-110.125
X132.625Y-95.275
X132.875Y-115.925
X132.975Y-97.681
X132.975Y-98.5
X132.975Y-99.319
X132.975Y-100.138
X133.05Y-103.0
X134.0Y-115.925
X134.3Y-74.475
X134.75Y-109.975
X134.75Y-110.925
X134.85Y-101.1
X134.875Y-102.175
X135.125Y-115.925
X135.275Y-97.25
X136.25Y-115.925
X136.45Y-92.0
X136.46Y-94.54
X136.46Y-97.25
X137.38Y-83.52
X137.45Y-102.81
X137.45Y-105.24
X137.875Y-78.9
X137.9Y-121.1
X137.95Y-124.3
X138.05Y-86.625
X138.05Y-90.62
X138.48Y-102.81
X138.5Y-105.25
X139.075Y-78.3
X139.1Y-121.7
X139.33Y-87.41
X139.35Y-88.425
X139.4Y-111.45
X139.85Y-104.6
X140.05Y-103.125
X140.275Y-77.7
X140.28Y-95.703
X140.3Y-122.3
X140.925Y-112.1
X140.975Y-82.875
X141.225Y-105.05
X141.475Y-77.1
X141.5Y-109.6
X141.5Y-122.9
X141.85Y-82.85
X141.86Y-90.97
X141.9Y-81.575
X141.925Y-80.45
X142.16Y-107.56
X142.225Y-110.225
X142.275Y-120.775
X142.575Y-77.9
X142.74Y-94.14
X143.1Y-101.8
X143.4Y-113.05
X143.625Y-106.65
X143.75Y-84.825
X144.275Y-102.8
X144.9Y-98.125
X145.1Y-99.625
X145.75Y-108.775
X146.2Y-96.825
X146.4Y-98.325
X147.2Y-129.7
X147.5Y-95.525
X147.7Y-97.025
X148.35Y-127.6
X148.811Y-94.214
X148.95Y-83.275
X149.0Y-95.725
X149.14Y-87.45
X149.675Y-74.65
X149.975Y-93.05
X150.28Y-86.48
X150.3Y-94.425
X150.4Y-73.925
X150.4Y-76.05
X150.4Y-77.2
X150.51Y-88.36
X150.85Y-104.75
X150.9Y-106.1
X151.375Y-85.875
X151.75Y-107.1
X152.05Y-105.75
X152.175Y-111.525
X152.8Y-100.775
X153.375Y-116.325
X154.1Y-99.475
X154.3Y-97.975
X154.3Y-100.975
X154.4Y-115.425
X154.75Y-109.9
X155.35Y-91.675
X155.5Y-116.3
X155.55Y-111.075
X155.649Y-99.626
X156.15Y-118.95
X156.15Y-119.75
X156.275Y-101.725
X156.3Y-109.9
X156.75Y-89.85
X157.0Y-118.95
X157.0Y-119.75
X157.0Y-120.575
X157.05Y-111.075
X157.45Y-89.15
X157.575Y-100.425
X157.7Y-113.225
X157.725Y-132.95
X157.77Y-79.197
X157.8Y-99.325
X157.85Y-109.9
X157.986Y-91.7
X158.15Y-88.45
X158.5Y-77.1
X158.6Y-117.875
X158.8Y-94.5
X159.29Y-108.85
X159.5Y-113.225
X159.575Y-104.6
X159.65Y-88.45
X159.7Y-77.7
X159.75Y-117.15
X159.9Y-93.0
X159.95Y-110.5
X159.975Y-103.25
X160.04Y-108.104
X160.475Y-89.275
X160.6Y-92.3
X160.625Y-93.725
X160.625Y-124.55
X160.9Y-78.3
X160.9Y-117.875
X160.975Y-104.25
X161.0Y-113.25
X161.025Y-97.7
X161.075Y-125.325
X161.3Y-90.1
X161.3Y-91.6
X161.3Y-111.45
X161.325Y-93.025
X161.525Y-124.55
X161.575Y-87.8
X161.75Y-94.85
X161.975Y-125.325
X162.025Y-92.325
X162.05Y-117.15
X162.1Y-78.875
X162.425Y-124.55
X162.6Y-109.675
X162.6Y-111.425
X162.775Y-87.8
X162.9Y-96.0
X163.2Y-115.225
X163.2Y-117.975
X163.375Y-88.775
X163.5Y-92.325
X163.6Y-95.3
X163.753Y-108.175
X163.975Y-87.8
X164.0Y-109.675
X164.0Y-111.425
X164.3Y-94.6
X164.325Y-93.15
X164.35Y-120.0
X164.65Y-100.35
X164.866Y-106.0
X164.925Y-124.55
X165.375Y-97.3
X165.375Y-125.325
X165.75Y-95.75
X165.825Y-124.55
X166.1Y-89.825
X166.1Y-90.925
X166.1Y-92.375
X166.1Y-93.45
X166.275Y-125.325
X166.325Y-120.15
X166.325Y-120.975
X166.725Y-124.55
X166.8Y-90.35
X166.8Y-91.525
X166.925Y-94.55
X167.041Y-104.922
X167.15Y-120.15
X167.15Y-120.975
X167.6Y-87.725
X167.625Y-95.25
X167.625Y-89.425
X167.85Y-124.075
X168.125Y-88.575
X168.45Y-126.75
X168.6Y-92.0
X168.625Y-87.725
X168.739Y-105.573
X169.0Y-128.875
X169.1Y-94.375
X169.1Y-95.25
X169.125Y-88.575
X169.125Y-110.875
X169.2Y-123.375
X169.325Y-106.159
X169.325Y-107.034
X169.375Y-74.475
X169.541Y-107.849
X169.625Y-87.725
X169.625Y-89.425
X169.925Y-94.775
X169.95Y-127.7
X170.1Y-88.575
X170.125Y-123.375
X170.16Y-108.468
X170.2Y-110.875
X170.25Y-105.175
X170.275Y-120.7
X170.275Y-121.55
X170.55Y-89.425
X170.6Y-87.725
X170.75Y-93.525
X170.75Y-95.25
X170.75Y-94.375
X170.8Y-128.875
X170.875Y-108.924
X170.925Y-122.5
X171.075Y-120.275
X171.075Y-121.125
X171.175Y-106.867
X171.752Y-109.349
X171.761Y-105.573
X171.95Y-80.6
X172.0Y-106.75
X172.25Y-117.888
X172.31Y-113.36
X172.6Y-87.35
X172.6Y-88.45
X172.6Y-109.6
X172.65Y-91.85
X172.85Y-106.6
X172.925Y-78.9
X172.999Y-119.75
X173.025Y-127.75
X173.35Y-99.818
X173.35Y-100.637
X173.35Y-101.456
X173.35Y-102.275
X173.475Y-93.5
X173.475Y-94.525
X173.494Y-109.751
X173.55Y-87.95
X173.575Y-108.0
X173.617Y-96.695
X173.625Y-106.15
X173.655Y-89.025
X173.666Y-97.51
X173.725Y-91.825
X174.125Y-78.3
X174.2Y-98.126
X174.35Y-92.875
X174.35Y-94.025
X174.375Y-109.775
X174.4Y-89.875
X174.4Y-90.975
X174.4Y-108.0
X174.5Y-106.15
X174.799Y-116.976
X174.85Y-124.05
X174.85Y-124.95
X174.877Y-98.544
X175.3Y-77.7
X175.309Y-109.776
X175.401Y-116.374
X175.468Y-96.695
X175.778Y-98.545
X176.243Y-109.776
X176.351Y-96.695
X176.5Y-77.1
X176.679Y-98.545
X177.05Y-118.4
X177.177Y-109.776
X177.235Y-96.695
X177.5Y-122.875
X177.579Y-98.545
X177.6Y-77.95
X177.85Y-125.85
X177.876Y-126.695
X178.058Y-99.885
X178.058Y-100.746
X178.058Y-101.608
X178.058Y-102.469
X178.111Y-109.776
X178.118Y-96.698
X178.196Y-103.301
X178.43Y-112.93
X178.725Y-126.725
X178.783Y-97.132
X179.144Y-109.551
X179.36Y-97.709
X179.408Y-104.524
X179.906Y-108.925
X179.907Y-99.96
X180.017Y-105.133
X180.017Y-106.065
X180.017Y-106.997
X180.745Y-108.843
X181.112Y-103.612
X181.367Y-108.264
X181.712Y-104.217
X181.858Y-107.589
X181.867Y-105.033
X181.867Y-105.885
X181.867Y-106.737
X183.391Y-70.88
X183.84Y-112.91
T4
X124.725Y-94.25
X124.725Y-95.75
X124.725Y-107.25
X124.725Y-108.75
X125.65Y-107.25
X125.65Y-108.75
X127.05Y-75.75
X129.6Y-80.1
X130.0Y-112.85
X130.0Y-113.85
X130.925Y-112.325
X130.925Y-113.35
X130.925Y-114.375
X131.85Y-112.85
X131.85Y-113.85
X135.925Y-112.825
X135.925Y-113.825
X136.825Y-112.35
X136.825Y-113.35
X136.825Y-114.35
X137.75Y-112.9
X137.75Y-113.9
X137.95Y-100.4
X138.1Y-98.55
X138.95Y-101.35
X139.35Y-72.3
X139.5Y-119.9
X140.1Y-99.75
X142.1Y-99.4
X143.5Y-97.9
X144.8Y-96.7
X146.0Y-95.4
X148.725Y-111.9
X148.775Y-89.25
X149.15Y-91.925
X149.506Y-108.275
X149.775Y-109.85
X150.4Y-112.05
X151.225Y-87.6
X154.975Y-96.45
X156.1Y-97.475
X156.9Y-133.9
X156.975Y-98.45
X159.975Y-100.325
X161.4Y-103.2
X162.05Y-75.95
X162.15Y-100.8
X164.6Y-80.1
X167.689Y-117.888
X168.025Y-110.825
X168.45Y-125.35
X173.75Y-121.6
X173.85Y-123.475
X174.35Y-72.3
X174.45Y-104.25
X175.375Y-104.25
X175.375Y-105.75
X178.1Y-127.775
X178.975Y-128.275
X179.4Y-91.25
X179.4Y-92.75
X180.33Y-91.25
X180.33Y-92.75
T5
X116.15Y-67.8
X116.15Y-132.2
X116.633Y-66.633
X116.633Y-68.967
X116.633Y-131.033
X116.633Y-133.367
X117.8Y-66.15
X117.8Y-69.45
X117.8Y-130.55
X117.8Y-133.85
X118.967Y-66.633
X118.967Y-68.967
X118.967Y-131.033
X118.967Y-133.367
X119.45Y-67.8
X119.45Y-132.2
X180.55Y-67.8
X180.55Y-132.2
X181.033Y-66.633
X181.033Y-68.967
X181.033Y-131.033
X181.033Y-133.367
X182.2Y-66.15
X182.2Y-69.45
X182.2Y-130.55
X182.2Y-133.85
X183.367Y-66.633
X183.367Y-68.967
X183.367Y-131.033
X183.367Y-133.367
X183.85Y-67.8
X183.85Y-132.2
T6
X124.15Y-67.88
X124.15Y-69.13
X124.15Y-70.38
X124.15Y-71.63
X124.15Y-72.88
X124.15Y-74.13
X124.15Y-125.88
X124.15Y-127.13
X124.15Y-128.38
X124.15Y-129.63
X124.15Y-130.88
X124.15Y-132.13
X130.625Y-79.3
X130.625Y-120.7
X131.875Y-79.3
X131.875Y-120.7
X133.125Y-79.3
X133.125Y-120.7
X134.375Y-79.3
X134.375Y-120.7
X140.85Y-67.87
X140.85Y-69.12
X140.85Y-70.37
X140.85Y-71.62
X140.85Y-72.87
X140.85Y-74.12
X140.85Y-125.87
X140.85Y-127.12
X140.85Y-128.37
X140.85Y-129.62
X140.85Y-130.87
X140.85Y-132.12
X159.15Y-67.88
X159.15Y-69.13
X159.15Y-70.38
X159.15Y-71.63
X159.15Y-72.88
X159.15Y-74.13
X165.625Y-79.3
X166.875Y-79.3
X168.125Y-79.3
X169.375Y-79.3
X175.85Y-67.87
X175.85Y-69.12
X175.85Y-70.37
X175.85Y-71.62
X175.85Y-72.87
X175.85Y-74.12
X181.188Y-120.975
X181.188Y-122.225
X181.188Y-123.475
X181.188Y-124.725
X181.188Y-125.975
X181.188Y-127.225
T7
X128.8Y-74.975
X136.2Y-125.025
X143.65Y-110.325
X147.475Y-133.625
X163.85Y-74.975
X166.525Y-110.825
T8
X162.077Y-126.547
X162.077Y-127.817
X163.347Y-126.547
X163.347Y-127.817
X164.617Y-126.547
X164.617Y-127.817
X165.887Y-126.547
X165.887Y-127.817
X167.157Y-126.547
X167.157Y-127.817
T9
X147.5Y-66.35
X150.0Y-69.66
X152.5Y-66.35
T10
X173.3Y-130.938
X178.3Y-130.938
T11
X118.5Y-72.117
X118.5Y-74.657
X118.5Y-77.197
X118.5Y-79.737
X118.5Y-82.277
X118.5Y-84.817
X118.5Y-115.182
X118.5Y-117.722
X118.5Y-120.262
X118.5Y-122.802
X118.5Y-125.343
X118.5Y-127.882
X128.69Y-67.037
X128.69Y-132.963
X131.23Y-67.037
X131.23Y-132.963
X133.77Y-67.037
X133.77Y-132.963
X136.31Y-67.037
X136.31Y-132.963
X146.5Y-72.117
X146.5Y-74.657
X146.5Y-77.197
X146.5Y-79.737
X146.5Y-82.277
X146.5Y-84.817
X146.5Y-115.182
X146.5Y-117.722
X146.5Y-120.262
X146.5Y-122.802
X146.5Y-125.343
X146.5Y-127.882
X151.68Y-119.27
X151.68Y-121.81
X151.68Y-124.35
X151.68Y-126.89
X151.68Y-129.43
X153.5Y-72.117
X153.5Y-74.657
X153.5Y-77.197
X153.5Y-79.737
X153.5Y-82.277
X153.5Y-84.817
X154.22Y-119.27
X154.22Y-121.81
X154.22Y-124.35
X154.22Y-126.89
X154.22Y-129.43
X163.69Y-67.037
X166.23Y-67.037
X168.77Y-67.037
X171.31Y-67.037
X181.5Y-72.117
X181.5Y-74.657
X181.5Y-77.197
X181.5Y-79.737
X181.5Y-82.277
X181.5Y-84.817
T12
X117.8Y-67.8
X117.8Y-132.2
X182.2Y-67.8
X182.2Y-132.2
T7
X172.3Y-133.987G85X172.3Y-133.287
G05
X179.3Y-133.287G85X179.3Y-133.987
G05
T0
M30
