G04 #@! TF.GenerationSoftware,KiCad,Pcbnew,7.0.1*
G04 #@! TF.CreationDate,2023-07-03T18:39:06+02:00*
G04 #@! TF.ProjectId,orion_pcb,6f72696f-6e5f-4706-9362-2e6b69636164,4*
G04 #@! TF.SameCoordinates,Original*
G04 #@! TF.FileFunction,Copper,L1,Top*
G04 #@! TF.FilePolarity,Positive*
%FSLAX46Y46*%
G04 Gerber Fmt 4.6, Leading zero omitted, Abs format (unit mm)*
G04 Created by KiCad (PCBNEW 7.0.1) date 2023-07-03 18:39:06*
%MOMM*%
%LPD*%
G01*
G04 APERTURE LIST*
G04 Aperture macros list*
%AMRoundRect*
0 Rectangle with rounded corners*
0 $1 Rounding radius*
0 $2 $3 $4 $5 $6 $7 $8 $9 X,Y pos of 4 corners*
0 Add a 4 corners polygon primitive as box body*
4,1,4,$2,$3,$4,$5,$6,$7,$8,$9,$2,$3,0*
0 Add four circle primitives for the rounded corners*
1,1,$1+$1,$2,$3*
1,1,$1+$1,$4,$5*
1,1,$1+$1,$6,$7*
1,1,$1+$1,$8,$9*
0 Add four rect primitives between the rounded corners*
20,1,$1+$1,$2,$3,$4,$5,0*
20,1,$1+$1,$4,$5,$6,$7,0*
20,1,$1+$1,$6,$7,$8,$9,0*
20,1,$1+$1,$8,$9,$2,$3,0*%
%AMRotRect*
0 Rectangle, with rotation*
0 The origin of the aperture is its center*
0 $1 length*
0 $2 width*
0 $3 Rotation angle, in degrees counterclockwise*
0 Add horizontal line*
21,1,$1,$2,0,0,$3*%
%AMOutline5P*
0 Free polygon, 5 corners , with rotation*
0 The origin of the aperture is its center*
0 number of corners: always 5*
0 $1 to $10 corner X, Y*
0 $11 Rotation angle, in degrees counterclockwise*
0 create outline with 5 corners*
4,1,5,$1,$2,$3,$4,$5,$6,$7,$8,$9,$10,$1,$2,$11*%
%AMOutline6P*
0 Free polygon, 6 corners , with rotation*
0 The origin of the aperture is its center*
0 number of corners: always 6*
0 $1 to $12 corner X, Y*
0 $13 Rotation angle, in degrees counterclockwise*
0 create outline with 6 corners*
4,1,6,$1,$2,$3,$4,$5,$6,$7,$8,$9,$10,$11,$12,$1,$2,$13*%
%AMOutline7P*
0 Free polygon, 7 corners , with rotation*
0 The origin of the aperture is its center*
0 number of corners: always 7*
0 $1 to $14 corner X, Y*
0 $15 Rotation angle, in degrees counterclockwise*
0 create outline with 7 corners*
4,1,7,$1,$2,$3,$4,$5,$6,$7,$8,$9,$10,$11,$12,$13,$14,$1,$2,$15*%
%AMOutline8P*
0 Free polygon, 8 corners , with rotation*
0 The origin of the aperture is its center*
0 number of corners: always 8*
0 $1 to $16 corner X, Y*
0 $17 Rotation angle, in degrees counterclockwise*
0 create outline with 8 corners*
4,1,8,$1,$2,$3,$4,$5,$6,$7,$8,$9,$10,$11,$12,$13,$14,$15,$16,$1,$2,$17*%
%AMFreePoly0*
4,1,21,-0.500000,0.100000,-0.492388,0.138268,-0.470711,0.170711,-0.438268,0.192388,-0.400000,0.200000,0.400000,0.200000,0.438268,0.192388,0.470711,0.170711,0.492388,0.138268,0.500000,0.100000,0.500000,-0.100000,0.492388,-0.138268,0.470711,-0.170711,0.438268,-0.192388,0.400000,-0.200000,-0.400000,-0.200000,-0.438268,-0.192388,-0.470711,-0.170711,-0.492388,-0.138268,-0.500000,-0.100000,
-0.500000,0.100000,-0.500000,0.100000,$1*%
G04 Aperture macros list end*
G04 #@! TA.AperFunction,NonConductor*
%ADD10C,1.105776*%
G04 #@! TD*
G04 #@! TA.AperFunction,SMDPad,CuDef*
%ADD11RoundRect,0.150000X0.700000X-0.150000X0.700000X0.150000X-0.700000X0.150000X-0.700000X-0.150000X0*%
G04 #@! TD*
G04 #@! TA.AperFunction,ComponentPad*
%ADD12RoundRect,0.200000X0.450000X-0.200000X0.450000X0.200000X-0.450000X0.200000X-0.450000X-0.200000X0*%
G04 #@! TD*
G04 #@! TA.AperFunction,ComponentPad*
%ADD13O,1.300000X0.800000*%
G04 #@! TD*
G04 #@! TA.AperFunction,SMDPad,CuDef*
%ADD14RoundRect,0.250000X1.100000X-0.250000X1.100000X0.250000X-1.100000X0.250000X-1.100000X-0.250000X0*%
G04 #@! TD*
G04 #@! TA.AperFunction,SMDPad,CuDef*
%ADD15RotRect,0.600000X1.100000X135.000000*%
G04 #@! TD*
G04 #@! TA.AperFunction,SMDPad,CuDef*
%ADD16RoundRect,0.140000X0.140000X0.170000X-0.140000X0.170000X-0.140000X-0.170000X0.140000X-0.170000X0*%
G04 #@! TD*
G04 #@! TA.AperFunction,SMDPad,CuDef*
%ADD17RoundRect,0.075000X-0.194454X-0.300520X0.300520X0.194454X0.194454X0.300520X-0.300520X-0.194454X0*%
G04 #@! TD*
G04 #@! TA.AperFunction,ComponentPad*
%ADD18C,0.500000*%
G04 #@! TD*
G04 #@! TA.AperFunction,SMDPad,CuDef*
%ADD19RotRect,1.600000X2.400000X45.000000*%
G04 #@! TD*
G04 #@! TA.AperFunction,SMDPad,CuDef*
%ADD20FreePoly0,270.000000*%
G04 #@! TD*
G04 #@! TA.AperFunction,SMDPad,CuDef*
%ADD21RoundRect,0.100000X-0.100000X0.400000X-0.100000X-0.400000X0.100000X-0.400000X0.100000X0.400000X0*%
G04 #@! TD*
G04 #@! TA.AperFunction,SMDPad,CuDef*
%ADD22RoundRect,0.140000X-0.219203X-0.021213X-0.021213X-0.219203X0.219203X0.021213X0.021213X0.219203X0*%
G04 #@! TD*
G04 #@! TA.AperFunction,SMDPad,CuDef*
%ADD23RoundRect,0.075000X0.459619X0.565685X-0.565685X-0.459619X-0.459619X-0.565685X0.565685X0.459619X0*%
G04 #@! TD*
G04 #@! TA.AperFunction,SMDPad,CuDef*
%ADD24RoundRect,0.075000X-0.459619X0.565685X-0.565685X0.459619X0.459619X-0.565685X0.565685X-0.459619X0*%
G04 #@! TD*
G04 #@! TA.AperFunction,SMDPad,CuDef*
%ADD25RoundRect,0.135000X-0.185000X0.135000X-0.185000X-0.135000X0.185000X-0.135000X0.185000X0.135000X0*%
G04 #@! TD*
G04 #@! TA.AperFunction,ComponentPad*
%ADD26C,1.200000*%
G04 #@! TD*
G04 #@! TA.AperFunction,SMDPad,CuDef*
%ADD27RoundRect,0.140000X-0.140000X-0.170000X0.140000X-0.170000X0.140000X0.170000X-0.140000X0.170000X0*%
G04 #@! TD*
G04 #@! TA.AperFunction,SMDPad,CuDef*
%ADD28RoundRect,0.200000X-0.200000X-0.275000X0.200000X-0.275000X0.200000X0.275000X-0.200000X0.275000X0*%
G04 #@! TD*
G04 #@! TA.AperFunction,SMDPad,CuDef*
%ADD29R,0.625000X0.200000*%
G04 #@! TD*
G04 #@! TA.AperFunction,ComponentPad*
%ADD30C,0.700000*%
G04 #@! TD*
G04 #@! TA.AperFunction,ComponentPad*
%ADD31C,4.400000*%
G04 #@! TD*
G04 #@! TA.AperFunction,SMDPad,CuDef*
%ADD32RoundRect,0.200000X1.250000X-0.200000X1.250000X0.200000X-1.250000X0.200000X-1.250000X-0.200000X0*%
G04 #@! TD*
G04 #@! TA.AperFunction,SMDPad,CuDef*
%ADD33RoundRect,0.250000X1.650000X-0.650000X1.650000X0.650000X-1.650000X0.650000X-1.650000X-0.650000X0*%
G04 #@! TD*
G04 #@! TA.AperFunction,SMDPad,CuDef*
%ADD34RoundRect,0.135000X0.185000X-0.135000X0.185000X0.135000X-0.185000X0.135000X-0.185000X-0.135000X0*%
G04 #@! TD*
G04 #@! TA.AperFunction,SMDPad,CuDef*
%ADD35RoundRect,0.135000X-0.135000X-0.185000X0.135000X-0.185000X0.135000X0.185000X-0.135000X0.185000X0*%
G04 #@! TD*
G04 #@! TA.AperFunction,SMDPad,CuDef*
%ADD36RoundRect,0.150000X0.587500X0.150000X-0.587500X0.150000X-0.587500X-0.150000X0.587500X-0.150000X0*%
G04 #@! TD*
G04 #@! TA.AperFunction,SMDPad,CuDef*
%ADD37RoundRect,0.140000X0.021213X-0.219203X0.219203X-0.021213X-0.021213X0.219203X-0.219203X0.021213X0*%
G04 #@! TD*
G04 #@! TA.AperFunction,SMDPad,CuDef*
%ADD38RoundRect,0.150000X-0.587500X-0.150000X0.587500X-0.150000X0.587500X0.150000X-0.587500X0.150000X0*%
G04 #@! TD*
G04 #@! TA.AperFunction,SMDPad,CuDef*
%ADD39RoundRect,0.135000X0.135000X0.185000X-0.135000X0.185000X-0.135000X-0.185000X0.135000X-0.185000X0*%
G04 #@! TD*
G04 #@! TA.AperFunction,SMDPad,CuDef*
%ADD40RoundRect,0.140000X-0.170000X0.140000X-0.170000X-0.140000X0.170000X-0.140000X0.170000X0.140000X0*%
G04 #@! TD*
G04 #@! TA.AperFunction,SMDPad,CuDef*
%ADD41RoundRect,0.140000X-0.021213X0.219203X-0.219203X0.021213X0.021213X-0.219203X0.219203X-0.021213X0*%
G04 #@! TD*
G04 #@! TA.AperFunction,SMDPad,CuDef*
%ADD42RoundRect,0.200000X0.200000X0.275000X-0.200000X0.275000X-0.200000X-0.275000X0.200000X-0.275000X0*%
G04 #@! TD*
G04 #@! TA.AperFunction,SMDPad,CuDef*
%ADD43RoundRect,0.135000X0.226274X0.035355X0.035355X0.226274X-0.226274X-0.035355X-0.035355X-0.226274X0*%
G04 #@! TD*
G04 #@! TA.AperFunction,SMDPad,CuDef*
%ADD44RotRect,0.800000X0.900000X225.000000*%
G04 #@! TD*
G04 #@! TA.AperFunction,SMDPad,CuDef*
%ADD45RoundRect,0.140000X0.219203X0.021213X0.021213X0.219203X-0.219203X-0.021213X-0.021213X-0.219203X0*%
G04 #@! TD*
G04 #@! TA.AperFunction,ComponentPad*
%ADD46R,2.000000X2.000000*%
G04 #@! TD*
G04 #@! TA.AperFunction,ComponentPad*
%ADD47O,2.000000X2.000000*%
G04 #@! TD*
G04 #@! TA.AperFunction,ComponentPad*
%ADD48O,1.700000X1.700000*%
G04 #@! TD*
G04 #@! TA.AperFunction,SMDPad,CuDef*
%ADD49R,0.400000X1.350000*%
G04 #@! TD*
G04 #@! TA.AperFunction,ComponentPad*
%ADD50O,1.200000X1.900000*%
G04 #@! TD*
G04 #@! TA.AperFunction,SMDPad,CuDef*
%ADD51R,1.200000X1.900000*%
G04 #@! TD*
G04 #@! TA.AperFunction,ComponentPad*
%ADD52C,1.450000*%
G04 #@! TD*
G04 #@! TA.AperFunction,SMDPad,CuDef*
%ADD53R,1.500000X1.900000*%
G04 #@! TD*
G04 #@! TA.AperFunction,SMDPad,CuDef*
%ADD54RoundRect,0.218750X-0.256250X0.218750X-0.256250X-0.218750X0.256250X-0.218750X0.256250X0.218750X0*%
G04 #@! TD*
G04 #@! TA.AperFunction,SMDPad,CuDef*
%ADD55RoundRect,0.135000X-0.226274X-0.035355X-0.035355X-0.226274X0.226274X0.035355X0.035355X0.226274X0*%
G04 #@! TD*
G04 #@! TA.AperFunction,SMDPad,CuDef*
%ADD56RoundRect,0.150000X-0.700000X0.150000X-0.700000X-0.150000X0.700000X-0.150000X0.700000X0.150000X0*%
G04 #@! TD*
G04 #@! TA.AperFunction,ComponentPad*
%ADD57RoundRect,0.200000X-0.450000X0.200000X-0.450000X-0.200000X0.450000X-0.200000X0.450000X0.200000X0*%
G04 #@! TD*
G04 #@! TA.AperFunction,SMDPad,CuDef*
%ADD58RoundRect,0.250000X-1.150000X0.250000X-1.150000X-0.250000X1.150000X-0.250000X1.150000X0.250000X0*%
G04 #@! TD*
G04 #@! TA.AperFunction,SMDPad,CuDef*
%ADD59C,0.500000*%
G04 #@! TD*
G04 #@! TA.AperFunction,SMDPad,CuDef*
%ADD60RoundRect,0.140000X0.170000X-0.140000X0.170000X0.140000X-0.170000X0.140000X-0.170000X-0.140000X0*%
G04 #@! TD*
G04 #@! TA.AperFunction,SMDPad,CuDef*
%ADD61Outline7P,-0.304999X0.089998X-0.245000X0.149997X0.245000X0.149997X0.304999X0.089998X0.304999X-0.089998X0.245000X-0.149997X-0.304999X-0.149997X180.000000*%
G04 #@! TD*
G04 #@! TA.AperFunction,SMDPad,CuDef*
%ADD62Outline6P,-0.127500X0.175001X0.127500X0.175001X0.127500X-0.124001X0.076500X-0.175001X-0.076500X-0.175001X-0.127500X-0.124001X180.000000*%
G04 #@! TD*
G04 #@! TA.AperFunction,SMDPad,CuDef*
%ADD63R,0.599999X0.249999*%
G04 #@! TD*
G04 #@! TA.AperFunction,SMDPad,CuDef*
%ADD64Outline7P,-0.304999X0.089998X-0.245000X0.149997X0.245000X0.149997X0.304999X0.089998X0.304999X-0.149997X-0.245000X-0.149997X-0.304999X-0.089998X0.000000*%
G04 #@! TD*
G04 #@! TA.AperFunction,SMDPad,CuDef*
%ADD65Outline6P,-0.125000X0.175003X0.125000X0.175003X0.125000X-0.125003X0.075000X-0.175003X-0.075000X-0.175003X-0.125000X-0.125003X0.000000*%
G04 #@! TD*
G04 #@! TA.AperFunction,SMDPad,CuDef*
%ADD66R,0.299999X2.400000*%
G04 #@! TD*
G04 #@! TA.AperFunction,SMDPad,CuDef*
%ADD67Outline7P,-0.304999X0.089998X-0.245000X0.149997X0.245000X0.149997X0.304999X0.089998X0.304999X-0.089998X0.245000X-0.149997X-0.304999X-0.149997X0.000000*%
G04 #@! TD*
G04 #@! TA.AperFunction,SMDPad,CuDef*
%ADD68Outline7P,-0.304999X0.089998X-0.245000X0.149997X0.245000X0.149997X0.304999X0.089998X0.304999X-0.149997X-0.245000X-0.149997X-0.304999X-0.089998X180.000000*%
G04 #@! TD*
G04 #@! TA.AperFunction,SMDPad,CuDef*
%ADD69RoundRect,0.250000X-0.450000X-0.250000X0.450000X-0.250000X0.450000X0.250000X-0.450000X0.250000X0*%
G04 #@! TD*
G04 #@! TA.AperFunction,SMDPad,CuDef*
%ADD70RoundRect,0.150000X0.150000X-0.650000X0.150000X0.650000X-0.150000X0.650000X-0.150000X-0.650000X0*%
G04 #@! TD*
G04 #@! TA.AperFunction,SMDPad,CuDef*
%ADD71R,0.900000X1.200000*%
G04 #@! TD*
G04 #@! TA.AperFunction,SMDPad,CuDef*
%ADD72RoundRect,0.218750X-0.218750X-0.256250X0.218750X-0.256250X0.218750X0.256250X-0.218750X0.256250X0*%
G04 #@! TD*
G04 #@! TA.AperFunction,SMDPad,CuDef*
%ADD73RoundRect,0.200000X-1.250000X0.200000X-1.250000X-0.200000X1.250000X-0.200000X1.250000X0.200000X0*%
G04 #@! TD*
G04 #@! TA.AperFunction,SMDPad,CuDef*
%ADD74RoundRect,0.250000X-1.650000X0.650000X-1.650000X-0.650000X1.650000X-0.650000X1.650000X0.650000X0*%
G04 #@! TD*
G04 #@! TA.AperFunction,SMDPad,CuDef*
%ADD75RoundRect,0.218750X0.256250X-0.218750X0.256250X0.218750X-0.256250X0.218750X-0.256250X-0.218750X0*%
G04 #@! TD*
G04 #@! TA.AperFunction,SMDPad,CuDef*
%ADD76RoundRect,0.218750X0.335876X0.026517X0.026517X0.335876X-0.335876X-0.026517X-0.026517X-0.335876X0*%
G04 #@! TD*
G04 #@! TA.AperFunction,SMDPad,CuDef*
%ADD77RoundRect,0.200000X-0.053033X0.335876X-0.335876X0.053033X0.053033X-0.335876X0.335876X-0.053033X0*%
G04 #@! TD*
G04 #@! TA.AperFunction,SMDPad,CuDef*
%ADD78RoundRect,0.150000X0.150000X-0.512500X0.150000X0.512500X-0.150000X0.512500X-0.150000X-0.512500X0*%
G04 #@! TD*
G04 #@! TA.AperFunction,SMDPad,CuDef*
%ADD79R,1.600000X0.760000*%
G04 #@! TD*
G04 #@! TA.AperFunction,SMDPad,CuDef*
%ADD80RoundRect,0.250000X1.150000X-0.250000X1.150000X0.250000X-1.150000X0.250000X-1.150000X-0.250000X0*%
G04 #@! TD*
G04 #@! TA.AperFunction,SMDPad,CuDef*
%ADD81RoundRect,0.075000X0.350000X0.075000X-0.350000X0.075000X-0.350000X-0.075000X0.350000X-0.075000X0*%
G04 #@! TD*
G04 #@! TA.AperFunction,SMDPad,CuDef*
%ADD82R,1.600000X2.400000*%
G04 #@! TD*
G04 #@! TA.AperFunction,SMDPad,CuDef*
%ADD83RoundRect,0.250000X0.450000X0.250000X-0.450000X0.250000X-0.450000X-0.250000X0.450000X-0.250000X0*%
G04 #@! TD*
G04 #@! TA.AperFunction,SMDPad,CuDef*
%ADD84RoundRect,0.062500X0.350000X0.062500X-0.350000X0.062500X-0.350000X-0.062500X0.350000X-0.062500X0*%
G04 #@! TD*
G04 #@! TA.AperFunction,SMDPad,CuDef*
%ADD85RoundRect,0.062500X0.062500X0.350000X-0.062500X0.350000X-0.062500X-0.350000X0.062500X-0.350000X0*%
G04 #@! TD*
G04 #@! TA.AperFunction,SMDPad,CuDef*
%ADD86R,2.600000X2.600000*%
G04 #@! TD*
G04 #@! TA.AperFunction,ComponentPad*
%ADD87RoundRect,0.200000X-0.200000X-0.450000X0.200000X-0.450000X0.200000X0.450000X-0.200000X0.450000X0*%
G04 #@! TD*
G04 #@! TA.AperFunction,SMDPad,CuDef*
%ADD88RoundRect,0.150000X-0.150000X-0.700000X0.150000X-0.700000X0.150000X0.700000X-0.150000X0.700000X0*%
G04 #@! TD*
G04 #@! TA.AperFunction,ComponentPad*
%ADD89O,0.800000X1.300000*%
G04 #@! TD*
G04 #@! TA.AperFunction,SMDPad,CuDef*
%ADD90RoundRect,0.250000X-0.250000X-1.150000X0.250000X-1.150000X0.250000X1.150000X-0.250000X1.150000X0*%
G04 #@! TD*
G04 #@! TA.AperFunction,SMDPad,CuDef*
%ADD91RoundRect,0.020000X0.430000X-0.180000X0.430000X0.180000X-0.430000X0.180000X-0.430000X-0.180000X0*%
G04 #@! TD*
G04 #@! TA.AperFunction,SMDPad,CuDef*
%ADD92R,0.400000X0.510000*%
G04 #@! TD*
G04 #@! TA.AperFunction,SMDPad,CuDef*
%ADD93RoundRect,0.075000X-0.075000X0.275000X-0.075000X-0.275000X0.075000X-0.275000X0.075000X0.275000X0*%
G04 #@! TD*
G04 #@! TA.AperFunction,ComponentPad*
%ADD94R,1.000000X1.000000*%
G04 #@! TD*
G04 #@! TA.AperFunction,ComponentPad*
%ADD95O,1.000000X1.000000*%
G04 #@! TD*
G04 #@! TA.AperFunction,ComponentPad*
%ADD96R,1.700000X1.700000*%
G04 #@! TD*
G04 #@! TA.AperFunction,SMDPad,CuDef*
%ADD97RoundRect,0.243750X0.456250X-0.243750X0.456250X0.243750X-0.456250X0.243750X-0.456250X-0.243750X0*%
G04 #@! TD*
G04 #@! TA.AperFunction,SMDPad,CuDef*
%ADD98RoundRect,0.020000X-0.431335X-0.176777X-0.176777X-0.431335X0.431335X0.176777X0.176777X0.431335X0*%
G04 #@! TD*
G04 #@! TA.AperFunction,ComponentPad*
%ADD99RoundRect,0.200000X0.200000X0.450000X-0.200000X0.450000X-0.200000X-0.450000X0.200000X-0.450000X0*%
G04 #@! TD*
G04 #@! TA.AperFunction,SMDPad,CuDef*
%ADD100RoundRect,0.150000X0.150000X0.700000X-0.150000X0.700000X-0.150000X-0.700000X0.150000X-0.700000X0*%
G04 #@! TD*
G04 #@! TA.AperFunction,SMDPad,CuDef*
%ADD101RoundRect,0.250000X0.250000X1.150000X-0.250000X1.150000X-0.250000X-1.150000X0.250000X-1.150000X0*%
G04 #@! TD*
G04 #@! TA.AperFunction,ComponentPad*
%ADD102C,1.524000*%
G04 #@! TD*
G04 #@! TA.AperFunction,SMDPad,CuDef*
%ADD103RoundRect,0.150000X0.512500X0.150000X-0.512500X0.150000X-0.512500X-0.150000X0.512500X-0.150000X0*%
G04 #@! TD*
G04 #@! TA.AperFunction,SMDPad,CuDef*
%ADD104R,2.500000X2.300000*%
G04 #@! TD*
G04 #@! TA.AperFunction,SMDPad,CuDef*
%ADD105RoundRect,0.200000X-0.275000X0.200000X-0.275000X-0.200000X0.275000X-0.200000X0.275000X0.200000X0*%
G04 #@! TD*
G04 #@! TA.AperFunction,SMDPad,CuDef*
%ADD106R,1.500000X1.000000*%
G04 #@! TD*
G04 #@! TA.AperFunction,SMDPad,CuDef*
%ADD107RoundRect,0.075000X0.075000X-0.275000X0.075000X0.275000X-0.075000X0.275000X-0.075000X-0.275000X0*%
G04 #@! TD*
G04 #@! TA.AperFunction,ViaPad*
%ADD108C,0.700000*%
G04 #@! TD*
G04 #@! TA.AperFunction,ViaPad*
%ADD109C,0.800000*%
G04 #@! TD*
G04 #@! TA.AperFunction,ViaPad*
%ADD110C,0.600000*%
G04 #@! TD*
G04 #@! TA.AperFunction,Conductor*
%ADD111C,0.500000*%
G04 #@! TD*
G04 #@! TA.AperFunction,Conductor*
%ADD112C,0.200000*%
G04 #@! TD*
G04 #@! TA.AperFunction,Conductor*
%ADD113C,0.239500*%
G04 #@! TD*
G04 #@! TA.AperFunction,Conductor*
%ADD114C,0.300000*%
G04 #@! TD*
G04 #@! TA.AperFunction,Conductor*
%ADD115C,0.750000*%
G04 #@! TD*
G04 #@! TA.AperFunction,Conductor*
%ADD116C,2.000000*%
G04 #@! TD*
G04 #@! TA.AperFunction,Conductor*
%ADD117C,0.150000*%
G04 #@! TD*
G04 APERTURE END LIST*
D10*
X164676861Y-85034107D02*
G75*
G03*
X164676861Y-85034107I-552888J0D01*
G01*
X159585692Y-85034107D02*
G75*
G03*
X159585692Y-85034107I-552888J0D01*
G01*
G04 #@! TA.AperFunction,EtchedComponent*
G36*
X166626777Y-95226776D02*
G01*
X165919670Y-95933883D01*
X165566117Y-95580330D01*
X166273224Y-94873223D01*
X166626777Y-95226776D01*
G37*
G04 #@! TD.AperFunction*
G04 #@! TA.AperFunction,EtchedComponent*
G36*
X162530906Y-82982656D02*
G01*
X162602344Y-83180300D01*
X162528525Y-83375563D01*
X162307069Y-83463669D01*
X162095137Y-83375563D01*
X162026081Y-83180300D01*
X162097519Y-82982656D01*
X162316594Y-82892169D01*
X162530906Y-82982656D01*
G37*
G04 #@! TD.AperFunction*
G04 #@! TA.AperFunction,EtchedComponent*
G36*
X162511856Y-83920869D02*
G01*
X162602344Y-84139944D01*
X162602344Y-85935406D01*
X162511856Y-86152100D01*
X162311831Y-86225919D01*
X162111806Y-86152100D01*
X162021319Y-85935406D01*
X162021319Y-84139944D01*
X162111806Y-83920869D01*
X162311831Y-83849431D01*
X162511856Y-83920869D01*
G37*
G04 #@! TD.AperFunction*
G04 #@! TA.AperFunction,EtchedComponent*
G36*
X161704612Y-83949444D02*
G01*
X161778431Y-84154231D01*
X161778431Y-84173281D01*
X161764144Y-84254244D01*
X161709375Y-84354256D01*
X161583169Y-84435219D01*
X161311706Y-84613813D01*
X161199787Y-84906706D01*
X161181928Y-85106136D01*
X161180737Y-85342475D01*
X161186095Y-85620486D01*
X161187881Y-85944931D01*
X161095012Y-86154481D01*
X160892606Y-86225919D01*
X160694962Y-86156863D01*
X160606856Y-85944931D01*
X160606856Y-84968619D01*
X160634241Y-84732280D01*
X160706869Y-84518563D01*
X160812239Y-84331634D01*
X160937850Y-84175663D01*
X161228362Y-83958969D01*
X161511731Y-83882769D01*
X161704612Y-83949444D01*
G37*
G04 #@! TD.AperFunction*
G04 #@! TA.AperFunction,EtchedComponent*
G36*
X167137434Y-83795258D02*
G01*
X167341031Y-83847050D01*
X167530341Y-83933370D01*
X167698219Y-84054219D01*
X167839903Y-84211381D01*
X167950631Y-84406644D01*
X168022069Y-84638816D01*
X168045881Y-84906706D01*
X168045881Y-85935406D01*
X167953013Y-86152100D01*
X167750606Y-86225919D01*
X167550581Y-86154481D01*
X167460094Y-85935406D01*
X167460094Y-84906706D01*
X167410087Y-84666200D01*
X167281500Y-84494750D01*
X167098144Y-84389975D01*
X166888594Y-84354256D01*
X166681425Y-84389975D01*
X166500450Y-84494750D01*
X166371862Y-84666200D01*
X166321856Y-84906706D01*
X166321856Y-85935406D01*
X166231369Y-86152100D01*
X166031344Y-86225919D01*
X165831319Y-86152100D01*
X165740831Y-85935406D01*
X165740831Y-84906706D01*
X165766430Y-84647150D01*
X165843225Y-84420931D01*
X165962287Y-84228050D01*
X166114687Y-84068506D01*
X166294472Y-83942895D01*
X166495688Y-83851813D01*
X166709405Y-83796448D01*
X166926694Y-83777994D01*
X167137434Y-83795258D01*
G37*
G04 #@! TD.AperFunction*
G04 #@! TA.AperFunction,EtchedComponent*
G36*
X158772698Y-86262828D02*
G01*
X158528025Y-86187819D01*
X158308355Y-86069947D01*
X158120831Y-85916356D01*
X157967836Y-85730619D01*
X157851750Y-85516306D01*
X157778527Y-85281753D01*
X157754119Y-85035294D01*
X157754351Y-85032913D01*
X158339906Y-85032913D01*
X158416106Y-85361525D01*
X158647087Y-85613938D01*
X158821514Y-85690733D01*
X159035231Y-85716331D01*
X159248948Y-85690733D01*
X159423375Y-85613938D01*
X159654356Y-85361525D01*
X159730556Y-85032913D01*
X159654356Y-84704300D01*
X159423375Y-84451888D01*
X159248948Y-84375092D01*
X159035231Y-84349494D01*
X158825086Y-84375092D01*
X158651850Y-84451888D01*
X158418487Y-84704300D01*
X158339906Y-85032913D01*
X157754351Y-85032913D01*
X157778527Y-84785263D01*
X157851750Y-84549519D01*
X157968431Y-84335206D01*
X158123212Y-84149469D01*
X158311927Y-83995878D01*
X158530406Y-83878006D01*
X158773294Y-83802997D01*
X159035231Y-83777994D01*
X159297169Y-83802402D01*
X159540056Y-83875625D01*
X159758536Y-83991711D01*
X159947250Y-84144706D01*
X160102627Y-84330444D01*
X160221094Y-84544756D01*
X160296103Y-84781691D01*
X160321106Y-85035294D01*
X160296698Y-85284730D01*
X160223475Y-85518688D01*
X160106794Y-85731214D01*
X159952012Y-85916356D01*
X159762703Y-86069947D01*
X159542437Y-86187819D01*
X159297764Y-86262828D01*
X159035231Y-86287831D01*
X158772698Y-86262828D01*
G37*
G04 #@! TD.AperFunction*
G04 #@! TA.AperFunction,EtchedComponent*
G36*
X163906673Y-86262828D02*
G01*
X163662000Y-86187819D01*
X163442330Y-86069947D01*
X163254806Y-85916356D01*
X163101811Y-85730619D01*
X162985725Y-85516306D01*
X162912502Y-85281753D01*
X162888094Y-85035294D01*
X162888326Y-85032913D01*
X163473881Y-85032913D01*
X163550081Y-85361525D01*
X163781062Y-85613938D01*
X163955489Y-85690733D01*
X164169206Y-85716331D01*
X164382923Y-85690733D01*
X164557350Y-85613938D01*
X164788331Y-85361525D01*
X164864531Y-85032913D01*
X164788331Y-84704300D01*
X164557350Y-84451888D01*
X164382923Y-84375092D01*
X164169206Y-84349494D01*
X163959061Y-84375092D01*
X163785825Y-84451888D01*
X163552462Y-84704300D01*
X163473881Y-85032913D01*
X162888326Y-85032913D01*
X162912502Y-84785263D01*
X162985725Y-84549519D01*
X163102406Y-84335206D01*
X163257187Y-84149469D01*
X163445902Y-83995878D01*
X163664381Y-83878006D01*
X163907269Y-83802997D01*
X164169206Y-83777994D01*
X164431144Y-83802402D01*
X164674031Y-83875625D01*
X164892511Y-83991711D01*
X165081225Y-84144706D01*
X165236602Y-84330444D01*
X165355069Y-84544756D01*
X165430078Y-84781691D01*
X165455081Y-85035294D01*
X165430673Y-85284730D01*
X165357450Y-85518688D01*
X165240769Y-85731214D01*
X165085987Y-85916356D01*
X164896678Y-86069947D01*
X164676413Y-86187819D01*
X164431739Y-86262828D01*
X164169206Y-86287831D01*
X163906673Y-86262828D01*
G37*
G04 #@! TD.AperFunction*
G04 #@! TA.AperFunction,EtchedComponent*
G36*
X169062648Y-83807882D02*
G01*
X169125354Y-83813438D01*
X169192823Y-83822963D01*
X169253942Y-83838044D01*
X169219017Y-84019019D01*
X169173773Y-84009494D01*
X169120592Y-84000763D01*
X169068204Y-83995207D01*
X169025341Y-83993619D01*
X168944379Y-83997588D01*
X168863416Y-84012669D01*
X168863416Y-84566707D01*
X168666567Y-84566707D01*
X168666567Y-83869794D01*
X168745346Y-83843998D01*
X168826110Y-83823757D01*
X168914812Y-83810660D01*
X169017404Y-83806294D01*
X169062648Y-83807882D01*
G37*
G04 #@! TD.AperFunction*
G04 #@! TA.AperFunction,EtchedComponent*
G36*
X170949392Y-84334932D02*
G01*
X170949392Y-84192057D01*
X170958517Y-84174594D01*
X171136717Y-84174594D01*
X171358967Y-84174594D01*
X171358967Y-83828519D01*
X171300229Y-83906307D01*
X171240698Y-83992826D01*
X171184342Y-84084107D01*
X171136717Y-84174594D01*
X170958517Y-84174594D01*
X170983920Y-84125977D01*
X171027179Y-84051563D01*
X171077185Y-83971990D01*
X171131954Y-83890432D01*
X171190692Y-83808477D01*
X171252604Y-83727713D01*
X171316104Y-83651712D01*
X171379604Y-83584044D01*
X171554229Y-83584044D01*
X171554229Y-84174594D01*
X171660592Y-84174594D01*
X171660592Y-84334932D01*
X171554229Y-84334932D01*
X171554229Y-84566707D01*
X171358967Y-84566707D01*
X171358967Y-84334932D01*
X171136717Y-84334932D01*
X170949392Y-84334932D01*
G37*
G04 #@! TD.AperFunction*
G04 #@! TA.AperFunction,EtchedComponent*
G36*
X170355468Y-83882891D02*
G01*
X170373923Y-83949169D01*
X170394362Y-84017630D01*
X170415992Y-84086488D01*
X170438415Y-84154552D01*
X170461235Y-84220632D01*
X170504892Y-84339695D01*
X170550929Y-84220632D01*
X170576131Y-84154552D01*
X170600935Y-84086488D01*
X170625145Y-84017630D01*
X170648560Y-83949169D01*
X170669396Y-83882891D01*
X170685867Y-83820582D01*
X170884304Y-83820582D01*
X170850074Y-83931062D01*
X170814057Y-84037077D01*
X170776255Y-84138628D01*
X170736667Y-84235713D01*
X170683750Y-84356804D01*
X170632950Y-84467135D01*
X170584267Y-84566707D01*
X170420754Y-84566707D01*
X170372864Y-84467135D01*
X170324446Y-84356804D01*
X170275498Y-84235713D01*
X170239035Y-84138628D01*
X170203465Y-84037077D01*
X170168788Y-83931062D01*
X170135004Y-83820582D01*
X170339792Y-83820582D01*
X170355468Y-83882891D01*
G37*
G04 #@! TD.AperFunction*
G04 #@! TA.AperFunction,EtchedComponent*
G36*
X169569854Y-84257144D02*
G01*
X169584935Y-84322430D01*
X169630179Y-84372238D01*
X169699235Y-84403790D01*
X169785754Y-84414307D01*
X169897673Y-84401607D01*
X169987367Y-84376207D01*
X170014354Y-84542895D01*
X169906404Y-84572263D01*
X169777817Y-84584169D01*
X169687527Y-84578018D01*
X169607160Y-84559563D01*
X169537310Y-84529004D01*
X169478573Y-84486538D01*
X169431543Y-84432365D01*
X169396817Y-84366682D01*
X169375385Y-84289291D01*
X169368242Y-84199994D01*
X169374585Y-84122207D01*
X169569854Y-84122207D01*
X169868304Y-84122207D01*
X169860367Y-84064263D01*
X169834967Y-84014257D01*
X169790517Y-83978538D01*
X169723842Y-83965044D01*
X169657960Y-83977744D01*
X169611923Y-84012669D01*
X169583348Y-84063469D01*
X169569854Y-84122207D01*
X169374585Y-84122207D01*
X169375782Y-84107523D01*
X169398404Y-84026957D01*
X169433329Y-83958496D01*
X169477779Y-83902338D01*
X169530563Y-83858484D01*
X169590492Y-83826932D01*
X169654785Y-83807882D01*
X169720667Y-83801532D01*
X169821914Y-83812380D01*
X169905522Y-83844924D01*
X169971492Y-83899163D01*
X170019117Y-83974217D01*
X170047692Y-84069202D01*
X170057217Y-84184120D01*
X170056423Y-84223807D01*
X170054042Y-84257144D01*
X169868304Y-84257144D01*
X169569854Y-84257144D01*
G37*
G04 #@! TD.AperFunction*
D11*
X180112500Y-127225000D03*
D12*
X181187500Y-127225000D03*
D11*
X180112500Y-125975000D03*
D13*
X181187500Y-125975000D03*
D11*
X180112500Y-124725000D03*
D13*
X181187500Y-124725000D03*
D11*
X180112500Y-123475000D03*
D13*
X181187500Y-123475000D03*
D11*
X180112500Y-122225000D03*
D13*
X181187500Y-122225000D03*
D11*
X180112500Y-120975000D03*
D13*
X181187500Y-120975000D03*
D14*
X183312500Y-129075000D03*
X183312500Y-119125000D03*
D15*
X163019975Y-94569975D03*
X162030025Y-93580025D03*
D16*
X128830000Y-95275000D03*
X127870000Y-95275000D03*
D17*
X160535195Y-106760481D03*
X160994814Y-107220100D03*
X161454434Y-107679720D03*
X161914053Y-108139339D03*
X163964663Y-106088729D03*
X163505044Y-105629110D03*
X163045424Y-105169490D03*
X162585805Y-104709871D03*
D18*
X161896376Y-106778158D03*
X161613533Y-105788209D03*
D19*
X162249929Y-106424605D03*
D18*
X162886325Y-107061001D03*
X162603482Y-106071052D03*
D20*
X170450000Y-124500000D03*
X169800000Y-124500000D03*
X169150000Y-124500000D03*
X169150000Y-126400000D03*
D21*
X170450000Y-126400000D03*
D22*
X154425000Y-89700000D03*
X155103822Y-90378822D03*
D23*
X159669685Y-98815596D03*
X159316132Y-98462043D03*
X158962578Y-98108489D03*
X158609025Y-97754936D03*
X158255472Y-97401383D03*
X157901918Y-97047829D03*
X157548365Y-96694276D03*
X157194811Y-96340722D03*
X156841258Y-95987169D03*
X156487705Y-95633616D03*
X156134151Y-95280062D03*
X155780598Y-94926509D03*
X155427045Y-94572955D03*
X155073491Y-94219402D03*
X154719938Y-93865849D03*
X154366384Y-93512295D03*
X154012831Y-93158742D03*
X153659278Y-92805189D03*
X153305724Y-92451635D03*
X152952171Y-92098082D03*
X152598617Y-91744528D03*
X152245064Y-91390975D03*
X151891511Y-91037422D03*
X151537957Y-90683868D03*
X151184404Y-90330315D03*
D24*
X148815596Y-90330315D03*
X148462043Y-90683868D03*
X148108489Y-91037422D03*
X147754936Y-91390975D03*
X147401383Y-91744528D03*
X147047829Y-92098082D03*
X146694276Y-92451635D03*
X146340722Y-92805189D03*
X145987169Y-93158742D03*
X145633616Y-93512295D03*
X145280062Y-93865849D03*
X144926509Y-94219402D03*
X144572955Y-94572955D03*
X144219402Y-94926509D03*
X143865849Y-95280062D03*
X143512295Y-95633616D03*
X143158742Y-95987169D03*
X142805189Y-96340722D03*
X142451635Y-96694276D03*
X142098082Y-97047829D03*
X141744528Y-97401383D03*
X141390975Y-97754936D03*
X141037422Y-98108489D03*
X140683868Y-98462043D03*
X140330315Y-98815596D03*
D23*
X140330315Y-101184404D03*
X140683868Y-101537957D03*
X141037422Y-101891511D03*
X141390975Y-102245064D03*
X141744528Y-102598617D03*
X142098082Y-102952171D03*
X142451635Y-103305724D03*
X142805189Y-103659278D03*
X143158742Y-104012831D03*
X143512295Y-104366384D03*
X143865849Y-104719938D03*
X144219402Y-105073491D03*
X144572955Y-105427045D03*
X144926509Y-105780598D03*
X145280062Y-106134151D03*
X145633616Y-106487705D03*
X145987169Y-106841258D03*
X146340722Y-107194811D03*
X146694276Y-107548365D03*
X147047829Y-107901918D03*
X147401383Y-108255472D03*
X147754936Y-108609025D03*
X148108489Y-108962578D03*
X148462043Y-109316132D03*
X148815596Y-109669685D03*
D24*
X151184404Y-109669685D03*
X151537957Y-109316132D03*
X151891511Y-108962578D03*
X152245064Y-108609025D03*
X152598617Y-108255472D03*
X152952171Y-107901918D03*
X153305724Y-107548365D03*
X153659278Y-107194811D03*
X154012831Y-106841258D03*
X154366384Y-106487705D03*
X154719938Y-106134151D03*
X155073491Y-105780598D03*
X155427045Y-105427045D03*
X155780598Y-105073491D03*
X156134151Y-104719938D03*
X156487705Y-104366384D03*
X156841258Y-104012831D03*
X157194811Y-103659278D03*
X157548365Y-103305724D03*
X157901918Y-102952171D03*
X158255472Y-102598617D03*
X158609025Y-102245064D03*
X158962578Y-101891511D03*
X159316132Y-101537957D03*
X159669685Y-101184404D03*
D25*
X122925000Y-86615000D03*
X122925000Y-87635000D03*
X168025000Y-111690000D03*
X168025000Y-112710000D03*
D26*
X163850000Y-74975000D03*
D27*
X133015000Y-102175002D03*
X133975000Y-102175002D03*
D28*
X131675000Y-74475000D03*
X133325000Y-74475000D03*
D29*
X156612500Y-79797500D03*
X156612500Y-78997500D03*
X156612500Y-78197500D03*
X156612500Y-77397500D03*
X155987500Y-77797500D03*
X155987500Y-78597500D03*
X155987500Y-79397500D03*
D30*
X116150000Y-67800000D03*
X116633274Y-66633274D03*
X116633274Y-68966726D03*
X117800000Y-66150000D03*
D31*
X117800000Y-67800000D03*
D30*
X117800000Y-69450000D03*
X118966726Y-66633274D03*
X118966726Y-68966726D03*
X119450000Y-67800000D03*
D32*
X177387500Y-95750000D03*
X177387500Y-94250000D03*
X177387500Y-92750000D03*
X177387500Y-91250000D03*
D33*
X182087500Y-98350000D03*
X182087500Y-88650000D03*
D34*
X160900000Y-119660000D03*
X160900000Y-118640000D03*
D35*
X168815000Y-93449999D03*
X169835000Y-93449999D03*
D36*
X174312501Y-108950000D03*
X174312501Y-107050000D03*
X172437501Y-108000000D03*
D37*
X160760589Y-100889411D03*
X161439411Y-100210589D03*
D38*
X125787500Y-91050000D03*
X125787500Y-92950000D03*
X127662500Y-92000000D03*
D39*
X132090000Y-106080000D03*
X131070000Y-106080000D03*
D29*
X121612500Y-79797500D03*
X121612500Y-78997500D03*
X121612500Y-78197500D03*
X121612500Y-77397500D03*
X120987500Y-77797500D03*
X120987500Y-78597500D03*
X120987500Y-79397500D03*
D40*
X115800000Y-70745000D03*
X115800000Y-71705000D03*
D41*
X165081890Y-106880690D03*
X164403068Y-107559512D03*
D42*
X169000000Y-103525000D03*
X167350000Y-103525000D03*
D16*
X134155000Y-114475000D03*
X133195000Y-114475000D03*
D26*
X166525000Y-110825000D03*
D43*
X158031248Y-107441248D03*
X157310000Y-106720000D03*
D25*
X124025000Y-86615000D03*
X124025000Y-87635000D03*
D44*
X160127739Y-90786700D03*
X158961013Y-89619974D03*
X158077129Y-90503858D03*
X159243855Y-91670584D03*
D30*
X180550000Y-132200000D03*
X181033274Y-131033274D03*
X181033274Y-133366726D03*
X182200000Y-130550000D03*
D31*
X182200000Y-132200000D03*
D30*
X182200000Y-133850000D03*
X183366726Y-131033274D03*
X183366726Y-133366726D03*
X183850000Y-132200000D03*
D40*
X138480000Y-103570000D03*
X138480000Y-104530000D03*
D41*
X161239411Y-101935589D03*
X160560589Y-102614411D03*
D26*
X147475000Y-133625000D03*
D34*
X158600000Y-119660000D03*
X158600000Y-118640000D03*
D27*
X171345000Y-111725000D03*
X172305000Y-111725000D03*
X130870000Y-95275000D03*
X131830000Y-95275000D03*
D25*
X135390000Y-92800000D03*
X135390000Y-93820000D03*
D45*
X161245837Y-109309600D03*
X160567015Y-108630778D03*
D46*
X128690000Y-67037500D03*
D47*
X131230000Y-67037500D03*
D48*
X118500000Y-72117500D03*
X118500000Y-74657500D03*
X118500000Y-77197500D03*
X118500000Y-79737500D03*
X118500000Y-82277500D03*
X118500000Y-84817500D03*
X146500000Y-84817500D03*
X146500000Y-82277500D03*
X146500000Y-79737500D03*
X146500000Y-77197500D03*
X146500000Y-74657500D03*
X146500000Y-72117500D03*
D47*
X133770000Y-67037500D03*
X136310000Y-67037500D03*
D49*
X174500000Y-130937500D03*
X175150000Y-130937500D03*
X175800000Y-130937500D03*
X176450000Y-130937500D03*
X177100000Y-130937500D03*
D50*
X172300000Y-133637500D03*
D51*
X172900000Y-133637500D03*
D52*
X173300000Y-130937500D03*
D53*
X174800000Y-133637500D03*
X176800000Y-133637500D03*
D52*
X178300000Y-130937500D03*
D51*
X178700000Y-133637500D03*
D50*
X179300000Y-133637500D03*
D54*
X176675000Y-99212500D03*
X176675000Y-100787500D03*
D29*
X178387500Y-77397500D03*
X178387500Y-78197500D03*
X178387500Y-78997500D03*
X178387500Y-79797500D03*
X179012500Y-79397500D03*
X179012500Y-78597500D03*
X179012500Y-77797500D03*
D55*
X140439376Y-94964376D03*
X141160624Y-95685624D03*
D25*
X133280000Y-92820000D03*
X133280000Y-93840000D03*
D22*
X157460589Y-94160589D03*
X158139411Y-94839411D03*
D45*
X158592581Y-93176542D03*
X157913759Y-92497720D03*
D56*
X157975000Y-67875000D03*
X156750000Y-67875000D03*
D57*
X159150000Y-67880000D03*
D56*
X157975000Y-69125000D03*
X156750000Y-69125000D03*
D13*
X159150000Y-69130000D03*
D56*
X157975000Y-70375000D03*
X156750000Y-70375000D03*
D13*
X159150000Y-70380000D03*
D56*
X157975000Y-71625000D03*
X156750000Y-71625000D03*
D13*
X159150000Y-71630000D03*
D56*
X157975000Y-72875000D03*
X156750000Y-72875000D03*
D13*
X159150000Y-72880000D03*
D56*
X157975000Y-74125000D03*
X156750000Y-74125000D03*
D13*
X159150000Y-74130000D03*
D58*
X160100000Y-66025000D03*
X160100000Y-75975000D03*
D28*
X126950000Y-96550000D03*
X128600000Y-96550000D03*
D59*
X166450000Y-95050000D03*
X165742894Y-95757106D03*
D42*
X133325000Y-125525000D03*
X131675000Y-125525000D03*
D60*
X116000000Y-129255000D03*
X116000000Y-128295000D03*
D45*
X160503375Y-110052062D03*
X159824553Y-109373240D03*
D27*
X169170000Y-122500000D03*
X170130000Y-122500000D03*
D61*
X169792501Y-90745003D03*
D62*
X169970000Y-90420001D03*
D63*
X169799999Y-91225000D03*
X169799999Y-91675002D03*
D64*
X169790000Y-92150001D03*
D65*
X169969999Y-92475001D03*
D66*
X170450000Y-91450001D03*
X170950000Y-91450001D03*
D65*
X171425000Y-92474998D03*
D67*
X171604999Y-92149998D03*
D63*
X171600001Y-91675002D03*
X171600001Y-91225000D03*
D62*
X171422501Y-90424999D03*
D68*
X171600000Y-90750001D03*
D36*
X174187500Y-122600000D03*
X174187500Y-120700000D03*
X172312500Y-121650000D03*
D60*
X133825000Y-110930000D03*
X133825000Y-109970000D03*
D25*
X165325000Y-119190000D03*
X165325000Y-120210000D03*
D69*
X168500000Y-98175000D03*
X168500000Y-99925000D03*
X168500000Y-101675000D03*
X172000000Y-98175000D03*
X172000000Y-99925000D03*
X172000000Y-101675000D03*
D39*
X173710000Y-90974999D03*
X172690000Y-90974999D03*
D60*
X177050000Y-116130000D03*
X177050000Y-115170000D03*
D70*
X138045000Y-92325000D03*
X139315000Y-92325000D03*
X140585000Y-92325000D03*
X141855000Y-92325000D03*
X141855000Y-85125000D03*
X140585000Y-85125000D03*
X139315000Y-85125000D03*
X138045000Y-85125000D03*
D71*
X173650000Y-124700000D03*
X176950000Y-124700000D03*
D72*
X165112500Y-115650000D03*
X166687500Y-115650000D03*
D73*
X122712500Y-104250000D03*
X122712500Y-105750000D03*
X122712500Y-107250000D03*
X122712500Y-108750000D03*
D74*
X118012500Y-101650000D03*
X118012500Y-111350000D03*
D32*
X177387500Y-108750000D03*
X177387500Y-107250000D03*
X177387500Y-105750000D03*
X177387500Y-104250000D03*
D33*
X182087500Y-111350000D03*
X182087500Y-101650000D03*
D75*
X123425000Y-100787500D03*
X123425000Y-99212500D03*
D25*
X136450000Y-92800000D03*
X136450000Y-93820000D03*
D76*
X153356847Y-89016847D03*
X152243153Y-87903153D03*
D22*
X153675000Y-90450000D03*
X154353822Y-91128822D03*
D34*
X168674999Y-90444999D03*
X168674999Y-89424999D03*
D56*
X122975000Y-67875000D03*
X121750000Y-67875000D03*
D57*
X124150000Y-67880000D03*
D56*
X122975000Y-69125000D03*
X121750000Y-69125000D03*
D13*
X124150000Y-69130000D03*
D56*
X122975000Y-70375000D03*
X121750000Y-70375000D03*
D13*
X124150000Y-70380000D03*
D56*
X122975000Y-71625000D03*
X121750000Y-71625000D03*
D13*
X124150000Y-71630000D03*
D56*
X122975000Y-72875000D03*
X121750000Y-72875000D03*
D13*
X124150000Y-72880000D03*
D56*
X122975000Y-74125000D03*
X121750000Y-74125000D03*
D13*
X124150000Y-74130000D03*
D58*
X125100000Y-66025000D03*
X125100000Y-75975000D03*
D28*
X165075000Y-114050000D03*
X166725000Y-114050000D03*
D77*
X163986726Y-97353274D03*
X162820000Y-98520000D03*
D78*
X176075000Y-121367500D03*
X177025000Y-121367500D03*
X177975000Y-121367500D03*
X177975000Y-119092500D03*
X176075000Y-119092500D03*
D79*
X131040000Y-86815000D03*
X131040000Y-88085000D03*
X131040000Y-89355000D03*
X131040000Y-90625000D03*
X135540000Y-90625000D03*
X135540000Y-89355000D03*
X135540000Y-88085000D03*
X135540000Y-86815000D03*
D60*
X129850000Y-96630000D03*
X129850000Y-95670000D03*
D34*
X150000000Y-72360000D03*
X150000000Y-71340000D03*
D25*
X135825000Y-109990000D03*
X135825000Y-111010000D03*
D55*
X142989376Y-107289376D03*
X143710624Y-108010624D03*
D29*
X143387500Y-77397500D03*
X143387500Y-78197500D03*
X143387500Y-78997500D03*
X143387500Y-79797500D03*
X144012500Y-79397500D03*
X144012500Y-78597500D03*
X144012500Y-77797500D03*
D11*
X142025000Y-74125000D03*
X143250000Y-74125000D03*
D12*
X140850000Y-74120000D03*
D11*
X142025000Y-72875000D03*
X143250000Y-72875000D03*
D13*
X140850000Y-72870000D03*
D11*
X142025000Y-71625000D03*
X143250000Y-71625000D03*
D13*
X140850000Y-71620000D03*
D11*
X142025000Y-70375000D03*
X143250000Y-70375000D03*
D13*
X140850000Y-70370000D03*
D11*
X142025000Y-69125000D03*
X143250000Y-69125000D03*
D13*
X140850000Y-69120000D03*
D11*
X142025000Y-67875000D03*
X143250000Y-67875000D03*
D13*
X140850000Y-67870000D03*
D80*
X139900000Y-75975000D03*
X139900000Y-66025000D03*
D35*
X153140000Y-113125000D03*
X154160000Y-113125000D03*
D27*
X176730000Y-117600000D03*
X175770000Y-117600000D03*
D22*
X149121178Y-110796178D03*
X149800000Y-111475000D03*
D81*
X136175000Y-105550000D03*
X136175000Y-104900000D03*
X136175000Y-104250000D03*
X136175000Y-103600000D03*
X133275000Y-103600000D03*
X133275000Y-104250000D03*
X133275000Y-104900000D03*
X133275000Y-105550000D03*
D18*
X135225000Y-104575000D03*
X134725000Y-105475000D03*
D82*
X134725000Y-104575000D03*
D18*
X134725000Y-103675000D03*
X134225000Y-104575000D03*
D83*
X131600000Y-101900000D03*
X131600000Y-100150000D03*
X131600000Y-98400000D03*
X128100000Y-101900000D03*
X128100000Y-100150000D03*
X128100000Y-98400000D03*
D41*
X139239411Y-99110589D03*
X138560589Y-99789411D03*
D43*
X158785624Y-106710624D03*
X158064376Y-105989376D03*
D27*
X171700000Y-93500000D03*
X172660000Y-93500000D03*
D22*
X159785589Y-96460589D03*
X160464411Y-97139411D03*
D28*
X131100000Y-96550000D03*
X132750000Y-96550000D03*
D27*
X171345000Y-112750000D03*
X172305000Y-112750000D03*
D84*
X172087500Y-117187500D03*
X172087500Y-116687500D03*
X172087500Y-116187500D03*
X172087500Y-115687500D03*
X172087500Y-115187500D03*
X172087500Y-114687500D03*
D85*
X171400000Y-114000000D03*
X170900000Y-114000000D03*
X170400000Y-114000000D03*
X169900000Y-114000000D03*
X169400000Y-114000000D03*
X168900000Y-114000000D03*
D84*
X168212500Y-114687500D03*
X168212500Y-115187500D03*
X168212500Y-115687500D03*
X168212500Y-116187500D03*
X168212500Y-116687500D03*
X168212500Y-117187500D03*
D85*
X168900000Y-117875000D03*
X169400000Y-117875000D03*
X169900000Y-117875000D03*
X170400000Y-117875000D03*
X170900000Y-117875000D03*
X171400000Y-117875000D03*
D18*
X171200000Y-116987500D03*
X171200000Y-115937500D03*
X171200000Y-114887500D03*
X170150000Y-116987500D03*
X170150000Y-115937500D03*
D86*
X170150000Y-115937500D03*
D18*
X170150000Y-114887500D03*
X169100000Y-116987500D03*
X169100000Y-115937500D03*
X169100000Y-114887500D03*
D87*
X165625000Y-79300000D03*
D88*
X165625000Y-80425000D03*
X165625000Y-81700000D03*
D89*
X166875000Y-79300000D03*
D88*
X166875000Y-80425000D03*
X166875000Y-81700000D03*
D89*
X168125000Y-79300000D03*
D88*
X168125000Y-80425000D03*
X168125000Y-81700000D03*
D89*
X169375000Y-79300000D03*
D88*
X169375000Y-80425000D03*
X169375000Y-81700000D03*
D90*
X163775000Y-78350000D03*
X171225000Y-78350000D03*
D40*
X170250000Y-103445000D03*
X170250000Y-104405000D03*
X167850000Y-122420000D03*
X167850000Y-123380000D03*
D16*
X169230000Y-104799999D03*
X168270000Y-104799999D03*
D25*
X125125000Y-86615000D03*
X125125000Y-87635000D03*
D91*
X131900000Y-104975000D03*
X131900000Y-104175000D03*
X130200000Y-104175000D03*
X130200000Y-104975000D03*
D46*
X136310000Y-132962500D03*
D47*
X133770000Y-132962500D03*
D48*
X146500000Y-127882500D03*
X146500000Y-125342500D03*
X146500000Y-122802500D03*
X146500000Y-120262500D03*
X146500000Y-117722500D03*
X146500000Y-115182500D03*
X118500000Y-115182500D03*
X118500000Y-117722500D03*
X118500000Y-120262500D03*
X118500000Y-122802500D03*
X118500000Y-125342500D03*
X118500000Y-127882500D03*
D47*
X131230000Y-132962500D03*
X128690000Y-132962500D03*
D22*
X156588454Y-91156299D03*
X157267276Y-91835121D03*
D43*
X145110624Y-109410624D03*
X144389376Y-108689376D03*
D42*
X173150000Y-103525000D03*
X171500000Y-103525000D03*
D27*
X172694999Y-89875000D03*
X173654999Y-89875000D03*
D25*
X170200000Y-111690000D03*
X170200000Y-112710000D03*
D92*
X164200000Y-118830000D03*
X163200000Y-118830000D03*
X163700000Y-120120000D03*
D11*
X177025000Y-74125000D03*
X178250000Y-74125000D03*
D12*
X175850000Y-74120000D03*
D11*
X177025000Y-72875000D03*
X178250000Y-72875000D03*
D13*
X175850000Y-72870000D03*
D11*
X177025000Y-71625000D03*
X178250000Y-71625000D03*
D13*
X175850000Y-71620000D03*
D11*
X177025000Y-70375000D03*
X178250000Y-70375000D03*
D13*
X175850000Y-70370000D03*
D11*
X177025000Y-69125000D03*
X178250000Y-69125000D03*
D13*
X175850000Y-69120000D03*
D11*
X177025000Y-67875000D03*
X178250000Y-67875000D03*
D13*
X175850000Y-67870000D03*
D80*
X174900000Y-75975000D03*
X174900000Y-66025000D03*
D43*
X163435624Y-102385624D03*
X162714376Y-101664376D03*
D25*
X132210000Y-92830000D03*
X132210000Y-93850000D03*
D73*
X122712500Y-91250000D03*
X122712500Y-92750000D03*
X122712500Y-94250000D03*
X122712500Y-95750000D03*
D74*
X118012500Y-88650000D03*
X118012500Y-98350000D03*
D43*
X157300624Y-108180624D03*
X156579376Y-107459376D03*
D35*
X166840000Y-93449999D03*
X167860000Y-93449999D03*
D41*
X151349411Y-88800589D03*
X150670589Y-89479411D03*
D34*
X162050000Y-119660000D03*
X162050000Y-118640000D03*
D16*
X172660001Y-94525001D03*
X171700001Y-94525001D03*
D30*
X116150000Y-132200000D03*
X116633274Y-131033274D03*
X116633274Y-133366726D03*
X117800000Y-130550000D03*
D31*
X117800000Y-132200000D03*
D30*
X117800000Y-133850000D03*
X118966726Y-131033274D03*
X118966726Y-133366726D03*
X119450000Y-132200000D03*
D93*
X169450000Y-119960000D03*
X168950000Y-119960000D03*
X168450000Y-119960000D03*
X167950000Y-119960000D03*
X167950000Y-121440000D03*
X168450000Y-121440000D03*
X168950000Y-121440000D03*
X169450000Y-121440000D03*
D55*
X139539376Y-95864376D03*
X140260624Y-96585624D03*
D27*
X132995000Y-101100000D03*
X133955000Y-101100000D03*
D75*
X160225000Y-114037500D03*
X160225000Y-112462500D03*
D87*
X130625000Y-79300000D03*
D88*
X130625000Y-80425000D03*
X130625000Y-81700000D03*
D89*
X131875000Y-79300000D03*
D88*
X131875000Y-80425000D03*
X131875000Y-81700000D03*
D89*
X133125000Y-79300000D03*
D88*
X133125000Y-80425000D03*
X133125000Y-81700000D03*
D89*
X134375000Y-79300000D03*
D88*
X134375000Y-80425000D03*
X134375000Y-81700000D03*
D90*
X128775000Y-78350000D03*
X136225000Y-78350000D03*
D22*
X160110589Y-94435589D03*
X160789411Y-95114411D03*
D94*
X167157500Y-126547500D03*
D95*
X167157500Y-127817500D03*
X165887500Y-126547500D03*
X165887500Y-127817500D03*
X164617500Y-126547500D03*
X164617500Y-127817500D03*
X163347500Y-126547500D03*
X163347500Y-127817500D03*
X162077500Y-126547500D03*
X162077500Y-127817500D03*
D27*
X176705000Y-122875000D03*
X175745000Y-122875000D03*
D34*
X169125000Y-112710000D03*
X169125000Y-111690000D03*
D35*
X166815000Y-92375000D03*
X167835000Y-92375000D03*
D34*
X167625000Y-91360000D03*
X167625000Y-90340000D03*
D72*
X165112500Y-117300000D03*
X166687500Y-117300000D03*
D28*
X166725000Y-74475000D03*
X168375000Y-74475000D03*
D22*
X147335589Y-110510589D03*
X148014411Y-111189411D03*
D42*
X166725000Y-112450000D03*
X165075000Y-112450000D03*
D37*
X165764249Y-106198331D03*
X166443071Y-105519509D03*
D26*
X136200000Y-125025000D03*
D29*
X121612500Y-122602500D03*
X121612500Y-121802500D03*
X121612500Y-121002500D03*
X121612500Y-120202500D03*
X120987500Y-120602500D03*
X120987500Y-121402500D03*
X120987500Y-122202500D03*
D28*
X138850000Y-110250000D03*
X140500000Y-110250000D03*
D27*
X171270000Y-104799999D03*
X172230000Y-104799999D03*
D46*
X163690000Y-67037500D03*
D47*
X166230000Y-67037500D03*
D48*
X153500000Y-72117500D03*
X153500000Y-74657500D03*
X153500000Y-77197500D03*
X153500000Y-79737500D03*
X153500000Y-82277500D03*
X153500000Y-84817500D03*
X181500000Y-84817500D03*
X181500000Y-82277500D03*
X181500000Y-79737500D03*
X181500000Y-77197500D03*
X181500000Y-74657500D03*
X181500000Y-72117500D03*
D47*
X168770000Y-67037500D03*
X171310000Y-67037500D03*
D45*
X162164411Y-96489411D03*
X161485589Y-95810589D03*
D75*
X163450000Y-114012500D03*
X163450000Y-112437500D03*
D96*
X154220000Y-129430000D03*
D48*
X151680000Y-129430000D03*
X154220000Y-126890000D03*
X151680000Y-126890000D03*
X154220000Y-124350000D03*
X151680000Y-124350000D03*
X154220000Y-121810000D03*
X151680000Y-121810000D03*
X154220000Y-119270000D03*
X151680000Y-119270000D03*
D34*
X159750000Y-119660000D03*
X159750000Y-118640000D03*
D97*
X172250000Y-128687500D03*
X172250000Y-126812500D03*
D40*
X184200000Y-70745000D03*
X184200000Y-71705000D03*
D98*
X164064143Y-104044704D03*
X164629828Y-104610389D03*
X165831909Y-103408308D03*
X165266224Y-102842623D03*
D26*
X143650000Y-110325000D03*
D99*
X134375000Y-120700000D03*
D100*
X134375000Y-119575000D03*
X134375000Y-118300000D03*
D89*
X133125000Y-120700000D03*
D100*
X133125000Y-119575000D03*
X133125000Y-118300000D03*
D89*
X131875000Y-120700000D03*
D100*
X131875000Y-119575000D03*
X131875000Y-118300000D03*
D89*
X130625000Y-120700000D03*
D100*
X130625000Y-119575000D03*
X130625000Y-118300000D03*
D101*
X136225000Y-121650000D03*
X128775000Y-121650000D03*
D16*
X179080000Y-129225000D03*
X178120000Y-129225000D03*
D40*
X137450000Y-103570000D03*
X137450000Y-104530000D03*
D37*
X147735589Y-89139411D03*
X148414411Y-88460589D03*
D28*
X126875000Y-106950000D03*
X128525000Y-106950000D03*
D102*
X152500000Y-66350000D03*
X150000000Y-69660000D03*
X147500000Y-66350000D03*
D103*
X176612500Y-128700000D03*
X176612500Y-127750000D03*
X176612500Y-126800000D03*
X174337500Y-126800000D03*
X174337500Y-127750000D03*
X174337500Y-128700000D03*
D26*
X128800000Y-74975000D03*
D29*
X143387500Y-120202500D03*
X143387500Y-121002500D03*
X143387500Y-121802500D03*
X143387500Y-122602500D03*
X144012500Y-122202500D03*
X144012500Y-121402500D03*
X144012500Y-120602500D03*
D104*
X161500000Y-123000000D03*
X165800000Y-123000000D03*
D56*
X122975000Y-125875000D03*
X121750000Y-125875000D03*
D57*
X124150000Y-125880000D03*
D56*
X122975000Y-127125000D03*
X121750000Y-127125000D03*
D13*
X124150000Y-127130000D03*
D56*
X122975000Y-128375000D03*
X121750000Y-128375000D03*
D13*
X124150000Y-128380000D03*
D56*
X122975000Y-129625000D03*
X121750000Y-129625000D03*
D13*
X124150000Y-129630000D03*
D56*
X122975000Y-130875000D03*
X121750000Y-130875000D03*
D13*
X124150000Y-130880000D03*
D56*
X122975000Y-132125000D03*
X121750000Y-132125000D03*
D13*
X124150000Y-132130000D03*
D58*
X125100000Y-124025000D03*
X125100000Y-133975000D03*
D105*
X161825000Y-112400000D03*
X161825000Y-114050000D03*
D39*
X172335000Y-119100000D03*
X171315000Y-119100000D03*
D30*
X180550000Y-67800000D03*
X181033274Y-66633274D03*
X181033274Y-68966726D03*
X182200000Y-66150000D03*
D31*
X182200000Y-67800000D03*
D30*
X182200000Y-69450000D03*
X183366726Y-66633274D03*
X183366726Y-68966726D03*
X183850000Y-67800000D03*
D11*
X142025000Y-132125000D03*
X143250000Y-132125000D03*
D12*
X140850000Y-132120000D03*
D11*
X142025000Y-130875000D03*
X143250000Y-130875000D03*
D13*
X140850000Y-130870000D03*
D11*
X142025000Y-129625000D03*
X143250000Y-129625000D03*
D13*
X140850000Y-129620000D03*
D11*
X142025000Y-128375000D03*
X143250000Y-128375000D03*
D13*
X140850000Y-128370000D03*
D11*
X142025000Y-127125000D03*
X143250000Y-127125000D03*
D13*
X140850000Y-127120000D03*
D11*
X142025000Y-125875000D03*
X143250000Y-125875000D03*
D13*
X140850000Y-125870000D03*
D80*
X139900000Y-133975000D03*
X139900000Y-124025000D03*
D25*
X126225000Y-86615000D03*
X126225000Y-87635000D03*
D40*
X171624999Y-88445000D03*
X171624999Y-89405000D03*
D60*
X136490000Y-84530000D03*
X136490000Y-83570000D03*
D39*
X156460000Y-113125000D03*
X155440000Y-113125000D03*
D105*
X158650000Y-112400000D03*
X158650000Y-114050000D03*
D25*
X134330000Y-92810001D03*
X134330000Y-93830001D03*
D77*
X165133363Y-98516637D03*
X163966637Y-99683363D03*
D106*
X178450000Y-113900000D03*
X183850000Y-113900000D03*
X178450000Y-117400000D03*
X183850000Y-117400000D03*
D43*
X159535624Y-105960624D03*
X158814376Y-105239376D03*
D41*
X139439411Y-97260589D03*
X138760589Y-97939411D03*
D107*
X133150000Y-113440000D03*
X133650000Y-113440000D03*
X134150000Y-113440000D03*
X134650000Y-113440000D03*
X134650000Y-111960000D03*
X134150000Y-111960000D03*
X133650000Y-111960000D03*
X133150000Y-111960000D03*
D108*
X172250000Y-117888000D03*
X177050000Y-118400000D03*
X177500000Y-122875000D03*
D109*
X178100000Y-127775000D03*
D108*
X177850000Y-125850000D03*
X177876039Y-126694680D03*
X178725000Y-126725000D03*
X175400521Y-116374479D03*
X174799479Y-116975521D03*
X174850000Y-124950000D03*
X170200000Y-110875000D03*
D109*
X173750000Y-121600000D03*
D108*
X137950000Y-124300000D03*
X161575000Y-87800000D03*
X148950000Y-83275000D03*
X151375000Y-85875000D03*
X156275000Y-101725000D03*
X137450000Y-105240000D03*
X137380000Y-83520000D03*
X126485000Y-103638516D03*
X122045000Y-100976850D03*
X175778018Y-98545000D03*
X125948231Y-105289918D03*
X130775001Y-93940812D03*
X176242764Y-109775729D03*
X125675000Y-92000000D03*
X128924999Y-93030636D03*
X169324999Y-106159187D03*
D109*
X148775000Y-89250000D03*
D108*
X135275000Y-97250000D03*
X165825000Y-124550000D03*
X178195606Y-103300664D03*
X157725000Y-132950000D03*
X157985560Y-91700000D03*
X180017500Y-105133150D03*
D109*
X161400000Y-103200000D03*
D108*
X122045000Y-99253915D03*
X127675000Y-90425000D03*
X173625000Y-106150000D03*
D109*
X125650000Y-108750000D03*
D108*
X127100000Y-123600000D03*
X120085000Y-93003150D03*
X178110542Y-109775729D03*
X161325000Y-93025000D03*
X179359908Y-97709257D03*
D109*
X144800000Y-96700000D03*
D108*
X178118393Y-96697813D03*
X161025000Y-97700000D03*
X167850000Y-124075000D03*
X178057500Y-102469019D03*
X127489647Y-93325000D03*
X165750000Y-95750000D03*
D109*
X150400000Y-112050000D03*
D108*
X141860000Y-90970000D03*
X121906893Y-96699335D03*
X121050000Y-90425000D03*
X134875000Y-102175000D03*
X130136710Y-91553560D03*
X175467500Y-96695000D03*
D109*
X149506190Y-108275000D03*
D108*
X173494432Y-109750729D03*
X132975000Y-98500000D03*
X118235000Y-93953105D03*
X173350000Y-100636990D03*
X155350000Y-91675000D03*
X157800000Y-99325000D03*
D109*
X178975000Y-128275000D03*
D108*
X126478273Y-104560014D03*
X181366761Y-108263887D03*
X170250000Y-105174999D03*
X170925000Y-122500000D03*
X174500000Y-106150000D03*
X124871945Y-90150000D03*
X132625000Y-95275000D03*
X172850000Y-106600000D03*
D109*
X137950000Y-100400000D03*
D108*
X160475000Y-89275000D03*
X150900000Y-106100000D03*
X181867500Y-105885154D03*
X162900000Y-96000000D03*
X121300000Y-117850000D03*
X122014864Y-103304271D03*
X150400000Y-73925000D03*
X158800000Y-94500000D03*
X120694149Y-95475999D03*
X126484352Y-102716716D03*
X126725000Y-98530995D03*
X126725000Y-97711990D03*
D109*
X179400000Y-92750000D03*
D108*
X159290000Y-108850000D03*
X160625000Y-93725000D03*
X136250000Y-115925000D03*
D109*
X148725000Y-111900000D03*
D108*
X134850000Y-101100000D03*
X130569976Y-102675859D03*
X183390500Y-70880000D03*
X120085000Y-93935000D03*
X121925000Y-90200000D03*
X169541019Y-107849169D03*
X174400000Y-108000000D03*
X125825000Y-90175000D03*
X161300000Y-91600000D03*
X118235000Y-94837462D03*
X179906466Y-108925001D03*
X128249753Y-104977903D03*
X177176653Y-109775729D03*
X134750000Y-109975000D03*
X134000000Y-115925000D03*
D109*
X174450000Y-104250000D03*
D108*
X129850000Y-94925000D03*
X156750000Y-89850000D03*
X166275000Y-125325000D03*
X120195000Y-100051857D03*
X159650000Y-88450000D03*
X179144432Y-109550729D03*
D109*
X180330000Y-92750000D03*
X175375000Y-105750000D03*
D108*
X176678684Y-98545000D03*
X124345036Y-101455000D03*
X172309977Y-113360023D03*
X163500000Y-92325000D03*
X179408350Y-104524000D03*
X181112421Y-103611771D03*
X181712012Y-104216907D03*
X118334922Y-95703625D03*
D109*
X173850000Y-123475000D03*
D108*
X139350000Y-88425000D03*
X157769822Y-79197000D03*
X174877364Y-98544271D03*
X164350000Y-120000000D03*
X118317088Y-92197885D03*
D110*
X170425000Y-119224500D03*
D108*
X122045000Y-97530980D03*
X170125000Y-123375000D03*
D109*
X138100000Y-98550000D03*
D108*
X123434093Y-101455000D03*
X120758942Y-102307092D03*
X127125000Y-86625000D03*
X163752530Y-108174695D03*
X179907499Y-99959704D03*
X122878055Y-90150000D03*
X130716318Y-92201245D03*
X173617500Y-96695084D03*
X132975000Y-97680995D03*
X173350000Y-99817985D03*
X126000000Y-115000000D03*
D109*
X162150000Y-100800000D03*
D108*
X167040577Y-104922003D03*
X129029866Y-105499271D03*
X126725000Y-100169005D03*
X161750000Y-94850000D03*
X130775001Y-93066972D03*
X126500000Y-92000000D03*
X138500000Y-105250000D03*
X129029864Y-105499271D03*
X173575000Y-108000000D03*
X116775000Y-128275000D03*
X158150000Y-88450000D03*
X119635203Y-91076903D03*
X125254905Y-105885540D03*
X160040220Y-108103983D03*
X121338465Y-102886615D03*
X159900000Y-93000000D03*
X128924999Y-93940813D03*
X170159504Y-108467654D03*
X181867500Y-105033145D03*
X128550000Y-90700000D03*
X118944331Y-96342481D03*
X127075000Y-95275000D03*
D109*
X180330000Y-91250000D03*
D108*
X118918725Y-91553124D03*
X183840000Y-112910000D03*
X180017500Y-106065000D03*
X181867500Y-106737163D03*
X172999500Y-119750000D03*
X177234820Y-96695000D03*
X122888235Y-103305000D03*
X161300000Y-90100000D03*
X120085000Y-94866850D03*
X142575000Y-77900000D03*
X131750000Y-115925000D03*
X173350000Y-102275000D03*
D109*
X124725000Y-95750000D03*
D108*
X180744939Y-108842739D03*
X135125000Y-115925000D03*
D109*
X143500000Y-97900000D03*
D108*
X172600000Y-109600000D03*
X122045000Y-98392448D03*
X180017500Y-106996850D03*
X173666244Y-97509843D03*
D109*
X179400000Y-91250000D03*
D108*
X142275000Y-120775000D03*
X171761322Y-105572865D03*
X150510000Y-88360000D03*
X130280000Y-106070000D03*
X118235000Y-93068749D03*
X178783110Y-97132460D03*
X176351160Y-96695000D03*
X181857915Y-107588641D03*
X169200000Y-123375000D03*
X177579350Y-98545000D03*
X163600000Y-95300000D03*
X178057500Y-100746084D03*
X122500000Y-122050000D03*
X157450000Y-89150000D03*
D109*
X146000000Y-95400000D03*
D108*
X161300000Y-111450000D03*
D109*
X142100000Y-99400000D03*
X124725000Y-107250000D03*
D108*
X169324999Y-107033857D03*
X175308875Y-109775729D03*
X166725000Y-124550000D03*
D109*
X125650000Y-107250000D03*
D108*
X177600000Y-77950000D03*
X174375000Y-109775000D03*
X124635000Y-103305000D03*
X132975000Y-100138010D03*
X132975000Y-99319005D03*
X164300000Y-94600000D03*
X122045000Y-100115382D03*
X126750000Y-90250000D03*
X125995630Y-101967480D03*
X171950000Y-80600000D03*
X169125000Y-110875000D03*
X165375000Y-125325000D03*
X129430893Y-91077813D03*
X123875000Y-90150000D03*
X150400000Y-76050000D03*
X126725000Y-99350000D03*
X171175001Y-106866851D03*
X173350000Y-101455995D03*
X162025000Y-92325000D03*
X174200034Y-98125684D03*
D109*
X124725000Y-94250000D03*
D108*
X171752382Y-109349271D03*
X170874867Y-108924272D03*
X123761617Y-103305000D03*
X132875000Y-115925000D03*
X160600000Y-92300000D03*
X157700000Y-113225000D03*
X172000000Y-106750000D03*
D109*
X156100000Y-97475000D03*
D108*
X140975000Y-82875000D03*
X178430000Y-112930000D03*
X168738677Y-105572865D03*
X163375000Y-88775000D03*
X115800000Y-72500000D03*
X122686411Y-79238589D03*
X164325000Y-93150000D03*
X125255893Y-101457813D03*
D109*
X124725000Y-108750000D03*
D108*
X178057500Y-101607551D03*
X178057500Y-99884617D03*
D109*
X175375000Y-104250000D03*
D108*
X164925000Y-124550000D03*
X169950000Y-127700000D03*
X152175000Y-111525000D03*
X154400000Y-115425000D03*
X152050000Y-105750000D03*
X160900000Y-117875000D03*
X169000000Y-128875000D03*
X155500000Y-116300000D03*
X159750000Y-117150000D03*
X168450000Y-126750000D03*
X153375000Y-116325000D03*
X158600000Y-117875000D03*
X170800000Y-128875000D03*
X162050000Y-117150000D03*
X154300000Y-97975000D03*
D109*
X136825000Y-112350000D03*
X136825000Y-113350000D03*
X136825000Y-114350000D03*
X137750000Y-113900000D03*
X135925000Y-113825000D03*
X137750000Y-112900000D03*
X135925000Y-112825000D03*
X168450000Y-125350000D03*
X167689443Y-117888000D03*
X168025000Y-110825000D03*
D108*
X174850000Y-124050000D03*
X140050000Y-103125000D03*
X139400000Y-111450000D03*
X139849500Y-104600000D03*
X140925000Y-112100000D03*
X157000000Y-118950000D03*
X156150000Y-118950000D03*
X167150000Y-120975000D03*
X166325000Y-120975000D03*
X166325000Y-120150000D03*
X157000000Y-119750000D03*
X167150000Y-120150000D03*
X157000000Y-120575000D03*
X156150000Y-119750000D03*
X171075000Y-121125000D03*
X169375000Y-74475000D03*
X125800000Y-127700000D03*
X167600000Y-87725001D03*
D109*
X174350000Y-72300000D03*
D108*
X133050000Y-103000000D03*
X134300000Y-74475000D03*
X170550000Y-89425001D03*
D109*
X139350000Y-72300000D03*
D108*
X161075000Y-125325000D03*
X171075000Y-120275000D03*
X160625000Y-124550000D03*
X170600000Y-87725001D03*
X170275000Y-121550000D03*
X161525000Y-124550000D03*
D109*
X164600000Y-80100000D03*
D108*
X168125002Y-88575003D03*
X169625000Y-89425002D03*
X130650000Y-125500000D03*
X161975000Y-125325000D03*
X170099999Y-88575002D03*
D109*
X162050000Y-75950000D03*
D108*
X138050000Y-86625000D03*
D109*
X129600000Y-80100000D03*
D108*
X136450000Y-92000000D03*
X169125000Y-88575002D03*
D109*
X139500000Y-119900000D03*
D108*
X169625000Y-87725001D03*
X164866224Y-106000339D03*
X167625001Y-89425002D03*
X168625000Y-87725001D03*
D109*
X127050000Y-75750000D03*
D108*
X170275000Y-120700000D03*
X142225000Y-110225000D03*
X162425000Y-124550000D03*
X148350000Y-127600000D03*
X156300000Y-109900000D03*
X147200000Y-129700000D03*
X123500000Y-122900000D03*
X157050000Y-111075000D03*
X136460000Y-94540000D03*
X136460000Y-97250000D03*
X150850000Y-104750000D03*
D109*
X138950000Y-101350000D03*
D108*
X142740000Y-94140000D03*
X139330000Y-87410000D03*
X122050000Y-119200000D03*
X124700000Y-122300000D03*
X121300000Y-116700000D03*
X125900000Y-121700000D03*
X127100000Y-121100000D03*
X157575000Y-100425000D03*
X163975000Y-87800000D03*
X155648558Y-99626442D03*
X162775000Y-87800000D03*
X162100000Y-78875000D03*
X150400000Y-77200000D03*
X160900000Y-78300000D03*
X159700000Y-77700000D03*
X149675000Y-74650000D03*
X158500000Y-77100000D03*
X176500000Y-77100000D03*
X146200000Y-96825000D03*
X146400000Y-98325000D03*
X175300000Y-77700000D03*
X174125000Y-78300000D03*
X144900000Y-98125000D03*
X172925000Y-78900000D03*
X145100000Y-99625000D03*
X150280000Y-86480000D03*
X139075000Y-78300000D03*
X149140000Y-87450000D03*
X137875000Y-78900000D03*
X143100000Y-101800000D03*
X144275000Y-102800000D03*
X137900000Y-121100000D03*
X154100000Y-99475000D03*
X139100000Y-121700000D03*
X154300000Y-100975000D03*
X152800000Y-100775000D03*
X140300000Y-122300000D03*
X155550000Y-111075000D03*
X141500000Y-122900000D03*
X141925000Y-80450000D03*
X141900000Y-81575000D03*
X141850000Y-82850000D03*
X141475000Y-77100000D03*
X140275000Y-77700000D03*
X143750000Y-84825000D03*
X122600000Y-84175000D03*
X130850000Y-110125000D03*
X123250000Y-85450000D03*
X132025000Y-110125000D03*
X127056635Y-78856635D03*
X149975353Y-93049646D03*
X125900000Y-78300000D03*
X148811411Y-94213589D03*
X150300000Y-94425000D03*
X124700000Y-77700000D03*
X123500000Y-77100000D03*
X149000000Y-95725000D03*
X141500000Y-109600500D03*
X141225000Y-105050000D03*
X159500000Y-113225000D03*
X154750000Y-109900000D03*
X161000000Y-113250000D03*
X157850000Y-109900000D03*
X162600000Y-111425000D03*
X162600000Y-109675000D03*
X159975000Y-103250000D03*
X164000000Y-111425000D03*
X160975000Y-104250000D03*
X164000000Y-109675000D03*
D109*
X130925000Y-112325000D03*
X130000000Y-113850000D03*
D108*
X137450000Y-102810000D03*
X159950000Y-110500000D03*
X138480000Y-102810000D03*
D109*
X131850000Y-112850000D03*
X131850000Y-113850000D03*
X130925000Y-114375000D03*
X130000000Y-112850000D03*
X130925000Y-113350000D03*
D108*
X147700000Y-97025000D03*
X173025000Y-127750000D03*
X134750000Y-110925000D03*
X143400000Y-113050000D03*
D109*
X156900000Y-133900000D03*
D108*
X147500000Y-95525000D03*
X151750000Y-107100000D03*
X142160000Y-107560000D03*
X122850000Y-117775000D03*
X170750001Y-94375001D03*
D109*
X149150500Y-91925000D03*
X159975000Y-100325000D03*
D108*
X164650000Y-100350000D03*
X169925000Y-94775001D03*
X159575000Y-104600000D03*
X170750000Y-95250001D03*
X170749999Y-93525001D03*
X143625000Y-106650000D03*
D109*
X154975000Y-96450000D03*
D108*
X169100000Y-94375002D03*
X140280123Y-95702612D03*
D109*
X149775000Y-109850000D03*
X151225000Y-87600000D03*
X140100000Y-99750000D03*
D108*
X138050000Y-90620000D03*
D109*
X156975000Y-98450000D03*
D108*
X145750000Y-108775000D03*
X169100000Y-95250002D03*
X168600000Y-92000001D03*
X165375000Y-97300000D03*
X166800000Y-90350001D03*
X174350000Y-92875000D03*
X174400000Y-90975000D03*
X172600000Y-88450000D03*
X166100000Y-93450000D03*
X166925000Y-94550000D03*
X166100000Y-89825000D03*
X166800000Y-91525001D03*
X173475000Y-93500000D03*
X166100000Y-92374999D03*
X167625000Y-95250000D03*
X172650000Y-91850000D03*
X174400000Y-89875000D03*
X166100000Y-90925001D03*
X172600000Y-87350001D03*
X173725000Y-91825000D03*
X173475000Y-94525001D03*
X173654999Y-89025001D03*
X174350000Y-94025001D03*
X173550000Y-87950001D03*
X163200000Y-115225000D03*
X163200000Y-117975000D03*
D111*
X178750000Y-126700000D02*
X178725000Y-126725000D01*
X178200000Y-123625000D02*
X178750000Y-124175000D01*
X176381325Y-123625000D02*
X178200000Y-123625000D01*
X175745000Y-122988675D02*
X176381325Y-123625000D01*
X175745000Y-122875000D02*
X175745000Y-122988675D01*
X178750000Y-124175000D02*
X178750000Y-126700000D01*
X175482000Y-117912000D02*
X175770000Y-118200000D01*
X175770000Y-118787500D02*
X175770000Y-118200000D01*
X175770000Y-118200000D02*
X175770000Y-117600000D01*
X175482000Y-117888000D02*
X175482000Y-117912000D01*
X175482000Y-117888000D02*
X175770000Y-117600000D01*
X172250000Y-117888000D02*
X175482000Y-117888000D01*
D112*
X182570000Y-120710000D02*
X182570000Y-125150000D01*
X181860000Y-120000000D02*
X182570000Y-120710000D01*
X182570000Y-125150000D02*
X181745000Y-125975000D01*
X181745000Y-125975000D02*
X181187500Y-125975000D01*
X180375000Y-120000000D02*
X181860000Y-120000000D01*
X178450000Y-117400000D02*
X178450000Y-118075000D01*
X178450000Y-118075000D02*
X180375000Y-120000000D01*
D111*
X175407500Y-120700000D02*
X176075000Y-121367500D01*
X174187500Y-120700000D02*
X175407500Y-120700000D01*
D112*
X177180000Y-115170000D02*
X178450000Y-113900000D01*
X177050000Y-115170000D02*
X177180000Y-115170000D01*
X177180000Y-116130000D02*
X178450000Y-117400000D01*
X177050000Y-116130000D02*
X177180000Y-116130000D01*
D111*
X175187500Y-114687500D02*
X172087500Y-114687500D01*
X175770000Y-117065661D02*
X176225000Y-116610661D01*
X176225000Y-115725000D02*
X175187500Y-114687500D01*
X175770000Y-117600000D02*
X175770000Y-117065661D01*
X176225000Y-116610661D02*
X176225000Y-115725000D01*
D112*
X176730000Y-118080000D02*
X177050000Y-118400000D01*
X176730000Y-117600000D02*
X176730000Y-118080000D01*
D111*
X176705000Y-122875000D02*
X177500000Y-122875000D01*
X178120000Y-129225000D02*
X178120000Y-127795000D01*
X178120000Y-127795000D02*
X178100000Y-127775000D01*
D113*
X172142749Y-115742749D02*
X172087500Y-115687500D01*
X174443168Y-115742749D02*
X172142749Y-115742749D01*
X172142749Y-116132251D02*
X172087500Y-116187500D01*
X175400521Y-116374479D02*
X175074898Y-116374479D01*
X175074898Y-116374479D02*
X174443168Y-115742749D01*
X174281832Y-116132251D02*
X172142749Y-116132251D01*
X174799479Y-116649898D02*
X174281832Y-116132251D01*
X174799479Y-116975521D02*
X174799479Y-116649898D01*
D111*
X176075000Y-119092500D02*
X175770000Y-118787500D01*
D112*
X177975000Y-120525000D02*
X177975000Y-121367500D01*
X176400000Y-120200000D02*
X177650000Y-120200000D01*
X176075000Y-121367500D02*
X176075000Y-120525000D01*
X176075000Y-120525000D02*
X176400000Y-120200000D01*
X177650000Y-120200000D02*
X177975000Y-120525000D01*
D111*
X177025000Y-122555000D02*
X176705000Y-122875000D01*
X177025000Y-121367500D02*
X177025000Y-122555000D01*
X176075000Y-122100000D02*
X175745000Y-122430000D01*
X176075000Y-121367500D02*
X176075000Y-122100000D01*
X175745000Y-122430000D02*
X175745000Y-122875000D01*
D113*
X175280250Y-125031087D02*
X175280250Y-128063366D01*
X175199163Y-124950000D02*
X175280250Y-125031087D01*
X175280250Y-128063366D02*
X174643616Y-128700000D01*
X174643616Y-128700000D02*
X174337500Y-128700000D01*
X174850000Y-124950000D02*
X175199163Y-124950000D01*
D111*
X170200000Y-110875000D02*
X170200000Y-111690000D01*
X173750000Y-121600000D02*
X173750000Y-121137500D01*
X173750000Y-121137500D02*
X174187500Y-120700000D01*
D114*
X172309977Y-112754977D02*
X172305000Y-112750000D01*
X172309977Y-113360023D02*
X172309977Y-112754977D01*
D115*
X172312500Y-123362500D02*
X172312500Y-122447500D01*
D111*
X172312500Y-121650000D02*
X172312500Y-122447500D01*
D115*
X172312500Y-123362500D02*
X173650000Y-124700000D01*
X172250000Y-126812500D02*
X172250000Y-126100000D01*
X172250000Y-126100000D02*
X173650000Y-124700000D01*
D112*
X165831909Y-103160822D02*
X165831909Y-103408308D01*
X166900000Y-102092732D02*
X165831909Y-103160822D01*
X166900000Y-101356550D02*
X166900000Y-102092732D01*
X167226551Y-100756550D02*
X167226551Y-101030000D01*
X167063275Y-100593275D02*
X167063276Y-100593275D01*
X167063276Y-101193275D02*
X167063275Y-101193275D01*
X166900000Y-97793200D02*
X166900000Y-100430000D01*
X167318200Y-97375000D02*
X166900000Y-97793200D01*
X169931800Y-97375000D02*
X167318200Y-97375000D01*
X170024998Y-97468198D02*
X169931800Y-97375000D01*
X170024999Y-98400001D02*
X170024998Y-97468198D01*
X167063275Y-101193200D02*
G75*
G03*
X166900000Y-101356550I25J-163300D01*
G01*
X168500000Y-99925000D02*
X170024999Y-98400001D01*
X167063276Y-101193251D02*
G75*
G03*
X167226551Y-101030000I24J163251D01*
G01*
X167226525Y-100756550D02*
G75*
G03*
X167063276Y-100593275I-163225J50D01*
G01*
X166900025Y-100430000D02*
G75*
G03*
X167063275Y-100593275I163275J0D01*
G01*
X165513710Y-102842623D02*
X165266224Y-102842623D01*
X166449999Y-101906334D02*
X165513710Y-102842623D01*
X166450000Y-97606800D02*
X166449999Y-101906334D01*
X170118200Y-96925000D02*
X167131800Y-96925000D01*
X167131800Y-96925000D02*
X166450000Y-97606800D01*
X170475001Y-97281801D02*
X170118200Y-96925000D01*
X170475001Y-98400001D02*
X170475001Y-97281801D01*
X172000000Y-99925000D02*
X170475001Y-98400001D01*
X150000000Y-72475000D02*
X148950000Y-73525000D01*
X161250000Y-87475000D02*
X152975000Y-87475000D01*
X152975000Y-87475000D02*
X151375000Y-85875000D01*
X161575000Y-87800000D02*
X161250000Y-87475000D01*
X150000000Y-72360000D02*
X150000000Y-72475000D01*
X157548365Y-103305724D02*
X156275000Y-102032359D01*
X148950000Y-73525000D02*
X148950000Y-83275000D01*
X156275000Y-102032359D02*
X156275000Y-101725000D01*
X170130000Y-122500000D02*
X170130000Y-123370000D01*
D114*
X160392586Y-102614411D02*
X160560589Y-102614411D01*
D111*
X116000000Y-128295000D02*
X116755000Y-128295000D01*
X158525000Y-112400000D02*
X157700000Y-113225000D01*
D112*
X135825000Y-109990000D02*
X134765000Y-109990000D01*
D114*
X163820000Y-120000000D02*
X163700000Y-120120000D01*
X136175000Y-104900000D02*
X136770000Y-104900000D01*
D115*
X161300000Y-91600000D02*
X161300000Y-90100000D01*
D111*
X183390500Y-71009175D02*
X184086325Y-71705000D01*
X160625000Y-93725000D02*
X162025000Y-92325000D01*
D112*
X176675000Y-98548684D02*
X176678684Y-98545000D01*
X134874998Y-102175002D02*
X134875000Y-102175000D01*
D115*
X179400000Y-91250000D02*
X177387500Y-91250000D01*
D112*
X156460000Y-113125000D02*
X157600000Y-113125000D01*
D114*
X170425000Y-119224500D02*
X170185500Y-119224500D01*
D112*
X122252500Y-121802500D02*
X121612500Y-121802500D01*
D111*
X183850000Y-112920000D02*
X183840000Y-112910000D01*
D112*
X134765000Y-109990000D02*
X134750000Y-109975000D01*
D111*
X183850000Y-113900000D02*
X183850000Y-112920000D01*
D112*
X122500000Y-122050000D02*
X122252500Y-121802500D01*
D111*
X161825000Y-111975000D02*
X161300000Y-111450000D01*
X178450000Y-113900000D02*
X178450000Y-112950000D01*
D112*
X136490000Y-83570000D02*
X137330000Y-83570000D01*
X161485589Y-95114411D02*
X161750000Y-94850000D01*
X133150000Y-113440000D02*
X133150000Y-114430000D01*
D115*
X160600000Y-92300000D02*
X161300000Y-91600000D01*
D111*
X174187500Y-123137500D02*
X173850000Y-123475000D01*
X141855000Y-92325000D02*
X141855000Y-90975000D01*
D112*
X122445322Y-78997500D02*
X122686411Y-79238589D01*
X157600000Y-113125000D02*
X157700000Y-113225000D01*
D114*
X160657457Y-107557457D02*
X160994814Y-107220100D01*
D115*
X160625000Y-93725000D02*
X161325000Y-93025000D01*
X162025000Y-92325000D02*
X163500000Y-92325000D01*
D111*
X115800000Y-71705000D02*
X115800000Y-72500000D01*
D112*
X138480000Y-105230000D02*
X138500000Y-105250000D01*
D115*
X122712500Y-94250000D02*
X124725000Y-94250000D01*
D112*
X159301313Y-108850000D02*
X159824553Y-109373240D01*
D114*
X154353822Y-91403537D02*
X153305724Y-92451635D01*
D115*
X157450000Y-89150000D02*
X156750000Y-89850000D01*
D111*
X159078170Y-91504899D02*
X159243855Y-91670584D01*
D112*
X123425000Y-100787500D02*
X123425000Y-101445907D01*
X157913759Y-91783954D02*
X157985560Y-91712153D01*
X156487705Y-95633616D02*
X157281910Y-94839411D01*
X172230000Y-104799999D02*
X172230000Y-105104187D01*
X170130000Y-122500000D02*
X170925000Y-122500000D01*
D114*
X150510000Y-88360000D02*
X150670589Y-88520589D01*
D112*
X126225000Y-86615000D02*
X127115000Y-86615000D01*
D114*
X150670589Y-88520589D02*
X150670589Y-89479411D01*
X159316132Y-101537957D02*
X160392586Y-102614411D01*
D112*
X161485589Y-95810589D02*
X161485589Y-95114411D01*
D115*
X124725000Y-108750000D02*
X125650000Y-108750000D01*
X177387500Y-92750000D02*
X180330000Y-92750000D01*
D112*
X133150000Y-114430000D02*
X133195000Y-114475000D01*
X133825000Y-109970000D02*
X134745000Y-109970000D01*
D111*
X116755000Y-128295000D02*
X116775000Y-128275000D01*
D112*
X170900000Y-116687500D02*
X170150000Y-115937500D01*
X123425000Y-101445907D02*
X123434093Y-101455000D01*
D111*
X178300000Y-130937500D02*
X177100000Y-130937500D01*
D112*
X142872500Y-78197500D02*
X142575000Y-77900000D01*
X138480000Y-104530000D02*
X138480000Y-105230000D01*
D115*
X163500000Y-92325000D02*
X164325000Y-93150000D01*
X161325000Y-93025000D02*
X162025000Y-92325000D01*
D112*
X157985560Y-91712153D02*
X157985560Y-91700000D01*
D111*
X158961013Y-89619974D02*
X159078170Y-89737131D01*
X159214439Y-91700000D02*
X157985560Y-91700000D01*
D115*
X164300000Y-94600000D02*
X163600000Y-95300000D01*
D112*
X167040577Y-104922003D02*
X166443071Y-105519509D01*
D114*
X156487705Y-95633616D02*
X155900573Y-96220748D01*
D111*
X164300000Y-94600000D02*
X162900000Y-96000000D01*
D114*
X155900573Y-97275573D02*
X156100000Y-97475000D01*
D112*
X170250000Y-104404999D02*
X170250000Y-105174999D01*
D114*
X157267276Y-91835121D02*
X157862592Y-91835121D01*
D112*
X160464411Y-97139411D02*
X161025000Y-97700000D01*
X137330000Y-83570000D02*
X137380000Y-83520000D01*
D115*
X177387500Y-91250000D02*
X180330000Y-91250000D01*
D112*
X172349500Y-119100000D02*
X172999500Y-119750000D01*
D111*
X158650000Y-112400000D02*
X158525000Y-112400000D01*
D115*
X161300000Y-90100000D02*
X160475000Y-89275000D01*
D112*
X129850000Y-94925000D02*
X129850000Y-95670001D01*
D115*
X175375000Y-104250000D02*
X174450000Y-104250000D01*
D112*
X122925000Y-86615000D02*
X126225000Y-86615000D01*
D114*
X154353822Y-91128822D02*
X154353822Y-91403537D01*
D111*
X160110931Y-108103983D02*
X160657457Y-107557457D01*
X160040220Y-108103983D02*
X160110931Y-108103983D01*
D112*
X167850000Y-123380000D02*
X167850000Y-124075000D01*
D115*
X158150000Y-88450000D02*
X157450000Y-89150000D01*
D112*
X131070000Y-106080000D02*
X130290000Y-106080000D01*
X142502500Y-121002500D02*
X142275000Y-120775000D01*
D115*
X163600000Y-95300000D02*
X162900000Y-96000000D01*
D111*
X141855000Y-90975000D02*
X141860000Y-90970000D01*
D114*
X149503175Y-108275000D02*
X148462043Y-109316132D01*
D112*
X127870000Y-95275000D02*
X127075000Y-95275000D01*
X159290000Y-108850000D02*
X159301313Y-108850000D01*
X121612500Y-78997500D02*
X122445322Y-78997500D01*
D115*
X172437501Y-108000000D02*
X174378617Y-108000000D01*
X177387500Y-105750000D02*
X175375000Y-105750000D01*
D114*
X137140000Y-104530000D02*
X137450000Y-104530000D01*
X155900573Y-96220748D02*
X155900573Y-97275573D01*
D112*
X134745000Y-109970000D02*
X134750000Y-109975000D01*
D111*
X155350000Y-91675000D02*
X154900000Y-91675000D01*
X159243855Y-91670584D02*
X159214439Y-91700000D01*
D114*
X137450000Y-104530000D02*
X138480000Y-104530000D01*
D112*
X176675000Y-99212500D02*
X176675000Y-98548684D01*
D115*
X179400000Y-92750000D02*
X177387500Y-92750000D01*
X177387500Y-104250000D02*
X175375000Y-104250000D01*
D111*
X161825000Y-112400000D02*
X161825000Y-111975000D01*
D112*
X165742894Y-95757106D02*
X165750000Y-95750000D01*
X161485589Y-95810589D02*
X160789411Y-95114411D01*
D111*
X184086325Y-71705000D02*
X184200000Y-71705000D01*
D112*
X159824553Y-109373240D02*
X160567015Y-108630778D01*
D111*
X172300000Y-133637500D02*
X179300000Y-133637500D01*
D114*
X164350000Y-120000000D02*
X163820000Y-120000000D01*
D111*
X183390500Y-70880000D02*
X183390500Y-71009175D01*
D114*
X140683868Y-98462043D02*
X141621825Y-99400000D01*
D112*
X143387500Y-121002500D02*
X142502500Y-121002500D01*
X172087500Y-116687500D02*
X170900000Y-116687500D01*
D114*
X154353822Y-91128822D02*
X155103822Y-90378822D01*
D112*
X172230000Y-105104187D02*
X171761322Y-105572865D01*
D115*
X160475000Y-89275000D02*
X159650000Y-88450000D01*
D112*
X137450000Y-104530000D02*
X137450000Y-105240000D01*
D114*
X157913759Y-92497720D02*
X157913759Y-91783954D01*
D115*
X124725000Y-107250000D02*
X125650000Y-107250000D01*
D114*
X178387500Y-78197500D02*
X177847500Y-78197500D01*
D111*
X154900000Y-91675000D02*
X154353822Y-91128822D01*
D112*
X170130000Y-123370000D02*
X170125000Y-123375000D01*
D111*
X178450000Y-112950000D02*
X178430000Y-112930000D01*
X135550000Y-104900000D02*
X135725000Y-104900000D01*
D114*
X172305000Y-112750000D02*
X172305000Y-111725000D01*
D112*
X158460589Y-94839411D02*
X158139411Y-94839411D01*
D111*
X159078170Y-89737131D02*
X159078170Y-91504899D01*
D114*
X177847500Y-78197500D02*
X177600000Y-77950000D01*
D112*
X157570322Y-78997500D02*
X156612500Y-78997500D01*
D115*
X127662500Y-92000000D02*
X125721384Y-92000000D01*
D112*
X164367712Y-107559512D02*
X164403067Y-107559512D01*
X158800000Y-94500000D02*
X158460589Y-94839411D01*
D115*
X164325000Y-93150000D02*
X164325000Y-94575000D01*
X159900000Y-93000000D02*
X160600000Y-92300000D01*
D112*
X127115000Y-86615000D02*
X127125000Y-86625000D01*
D114*
X141621825Y-99400000D02*
X142100000Y-99400000D01*
D115*
X122712500Y-95750000D02*
X124725000Y-95750000D01*
D112*
X133975000Y-102175002D02*
X134874998Y-102175002D01*
X163752530Y-108174695D02*
X164367712Y-107559512D01*
X172335000Y-119100000D02*
X172349500Y-119100000D01*
X131830000Y-95275000D02*
X132625000Y-95275000D01*
D114*
X135550000Y-104900000D02*
X135225000Y-104575000D01*
D115*
X122712500Y-108750000D02*
X124725000Y-108750000D01*
D114*
X136770000Y-104900000D02*
X137140000Y-104530000D01*
D112*
X133955000Y-101100000D02*
X134850000Y-101100000D01*
D115*
X164325000Y-94575000D02*
X164300000Y-94600000D01*
D114*
X136175000Y-104900000D02*
X135725000Y-104900000D01*
D112*
X168270000Y-105104188D02*
X168738677Y-105572865D01*
X157769822Y-79197000D02*
X157570322Y-78997500D01*
X143387500Y-78197500D02*
X142872500Y-78197500D01*
D115*
X159650000Y-88450000D02*
X158150000Y-88450000D01*
D114*
X170185500Y-119224500D02*
X169450000Y-119960000D01*
D111*
X174187500Y-122600000D02*
X174187500Y-123137500D01*
D112*
X169125000Y-111690000D02*
X169125000Y-110875000D01*
X157281910Y-94839411D02*
X158139411Y-94839411D01*
D115*
X122712500Y-107250000D02*
X124725000Y-107250000D01*
D114*
X149506190Y-108275000D02*
X149503175Y-108275000D01*
D112*
X160567014Y-108630778D02*
X160040220Y-108103983D01*
X130290000Y-106080000D02*
X130280000Y-106070000D01*
X168270000Y-104799999D02*
X168270000Y-105104188D01*
X164617500Y-127817500D02*
X164617500Y-128332500D01*
X164617500Y-128332500D02*
X164050000Y-128900000D01*
X159150000Y-127150000D02*
X159150000Y-121700000D01*
X159150000Y-121700000D02*
X160900000Y-119950000D01*
X170450000Y-125000000D02*
X170450000Y-124500000D01*
X169950000Y-125500000D02*
X170450000Y-125000000D01*
X160900000Y-119950000D02*
X160900000Y-119660000D01*
X164050000Y-128900000D02*
X160900000Y-128900000D01*
X160900000Y-128900000D02*
X159150000Y-127150000D01*
X169950000Y-125500000D02*
X169950000Y-127700000D01*
X154400000Y-115425000D02*
X152175000Y-113200000D01*
X153263640Y-104536360D02*
X155243467Y-104536360D01*
X160900000Y-117875000D02*
X160900000Y-118325000D01*
X153263640Y-104536360D02*
X152050000Y-105750000D01*
X152175000Y-113200000D02*
X152175000Y-111525000D01*
X155780598Y-105073491D02*
X155243467Y-104536360D01*
X158650000Y-121500000D02*
X159750000Y-120400000D01*
X169000000Y-128875000D02*
X169000000Y-127650000D01*
X159750000Y-120400000D02*
X159750000Y-119660000D01*
X169000000Y-127650000D02*
X169600499Y-127049501D01*
X160650000Y-129400000D02*
X165150000Y-129400000D01*
X158650000Y-127400000D02*
X160650000Y-129400000D01*
X169150000Y-125050000D02*
X169150000Y-124500000D01*
X169600499Y-125500499D02*
X169150000Y-125050000D01*
X165150000Y-129400000D02*
X165887500Y-128662500D01*
X165887500Y-128662500D02*
X165887500Y-127817500D01*
X169600499Y-127049501D02*
X169600499Y-125500499D01*
X158650000Y-121500000D02*
X158650000Y-127400000D01*
X155500000Y-116300000D02*
X154426471Y-116300000D01*
X159750000Y-117150000D02*
X159750000Y-118325000D01*
X154426471Y-116300000D02*
X151475000Y-113348529D01*
X151475000Y-109960281D02*
X151184404Y-109669685D01*
X151475000Y-113348529D02*
X151475000Y-109960281D01*
X167157500Y-128842500D02*
X167157500Y-127817500D01*
X160450000Y-129900000D02*
X166100000Y-129900000D01*
X169150000Y-126400000D02*
X168800000Y-126400000D01*
X158600000Y-119975000D02*
X158600000Y-120800000D01*
X166100000Y-129900000D02*
X167157500Y-128842500D01*
X158150000Y-121250000D02*
X158150000Y-127600000D01*
X158150000Y-127600000D02*
X160450000Y-129900000D01*
X158600000Y-120800000D02*
X158150000Y-121250000D01*
X168800000Y-126400000D02*
X168450000Y-126750000D01*
X146500000Y-110850000D02*
X146500000Y-109863961D01*
X146500000Y-109863961D02*
X147754936Y-108609025D01*
X153375000Y-116325000D02*
X151975000Y-116325000D01*
X151975000Y-116325000D02*
X146500000Y-110850000D01*
X158600000Y-117875000D02*
X158600000Y-118325000D01*
X161890000Y-119660000D02*
X162050000Y-119660000D01*
X170800000Y-127450000D02*
X170800000Y-128875000D01*
X159650000Y-121900000D02*
X161890000Y-119660000D01*
X178450000Y-117400000D02*
X183850000Y-117400000D01*
X159650000Y-126950000D02*
X159650000Y-121900000D01*
X170450000Y-127100000D02*
X170800000Y-127450000D01*
X170450000Y-126400000D02*
X170450000Y-127100000D01*
X160517500Y-127817500D02*
X159650000Y-126950000D01*
X162077500Y-127817500D02*
X160517500Y-127817500D01*
X162050000Y-117150000D02*
X162050000Y-118325000D01*
X154275000Y-98150000D02*
X154100000Y-97975000D01*
X154100000Y-97975000D02*
X154100000Y-95192893D01*
X154100000Y-95192893D02*
X155073491Y-94219402D01*
X170900000Y-113410000D02*
X170200000Y-112710000D01*
X170900000Y-114000000D02*
X170900000Y-113410000D01*
X169125000Y-112710000D02*
X170200000Y-112710000D01*
X134150000Y-114470000D02*
X134155000Y-114475000D01*
X134150000Y-113440000D02*
X134150000Y-114470000D01*
X135825000Y-111010000D02*
X135825000Y-111750000D01*
D114*
X168500000Y-124550000D02*
X168500000Y-121490000D01*
X168500000Y-121490000D02*
X168450000Y-121440000D01*
X171345000Y-112750000D02*
X171345000Y-111725000D01*
D111*
X167101443Y-117300000D02*
X167689443Y-117888000D01*
D112*
X168025000Y-110825000D02*
X168025000Y-111690000D01*
D114*
X166525000Y-110825000D02*
X168025000Y-110825000D01*
D111*
X168450000Y-125350000D02*
X168500000Y-125300000D01*
X168500000Y-125300000D02*
X168500000Y-124550000D01*
D114*
X171400000Y-112805000D02*
X171345000Y-112750000D01*
D111*
X166687500Y-115650000D02*
X166687500Y-117300000D01*
X166687500Y-117300000D02*
X167101443Y-117300000D01*
D114*
X171400000Y-114000000D02*
X171400000Y-112805000D01*
D112*
X170400000Y-113645558D02*
X169991942Y-113237500D01*
X168552500Y-113237500D02*
X168025000Y-112710000D01*
X170400000Y-114000000D02*
X170400000Y-113645558D01*
X169991942Y-113237500D02*
X168552500Y-113237500D01*
D114*
X166725000Y-114325000D02*
X167587500Y-115187500D01*
X166725000Y-114050000D02*
X166725000Y-114325000D01*
X167587500Y-115187500D02*
X168212500Y-115187500D01*
X168212500Y-114687500D02*
X168212500Y-113937500D01*
X168212500Y-113937500D02*
X166725000Y-112450000D01*
D113*
X175669750Y-128063366D02*
X176306384Y-128700000D01*
X175669750Y-124869750D02*
X175669750Y-128063366D01*
X175669751Y-130807251D02*
X175669751Y-129642749D01*
X175669751Y-129642749D02*
X176612500Y-128700000D01*
X175800000Y-130937500D02*
X175669751Y-130807251D01*
X174850000Y-124050000D02*
X175669750Y-124869750D01*
X176306384Y-128700000D02*
X176612500Y-128700000D01*
X175280249Y-129642749D02*
X174337500Y-128700000D01*
X175280249Y-130807251D02*
X175280249Y-129642749D01*
X175150000Y-130937500D02*
X175280249Y-130807251D01*
D112*
X169091942Y-118537500D02*
X169400000Y-118229442D01*
X139400000Y-111450000D02*
X139450000Y-111500000D01*
X152050000Y-117100000D02*
X156700000Y-117100000D01*
X140050000Y-102878933D02*
X141037422Y-101891511D01*
X146450000Y-111500000D02*
X152050000Y-117100000D01*
X140050000Y-103125000D02*
X140050000Y-102878933D01*
X169400000Y-118229442D02*
X169400000Y-117875000D01*
X156700000Y-117100000D02*
X158000000Y-115800000D01*
X158000000Y-115800000D02*
X162475000Y-115800000D01*
X166750000Y-118112500D02*
X167175000Y-118537500D01*
X139450000Y-111500000D02*
X146450000Y-111500000D01*
X164787500Y-118112500D02*
X166750000Y-118112500D01*
X162475000Y-115800000D02*
X164787500Y-118112500D01*
X167175000Y-118537500D02*
X169091942Y-118537500D01*
X162555026Y-116375000D02*
X164705026Y-118525000D01*
X156975000Y-117675000D02*
X158275000Y-116375000D01*
X164705026Y-118525000D02*
X166600000Y-118525000D01*
X140853843Y-102782196D02*
X141390975Y-102245064D01*
X139849500Y-104600000D02*
X140001471Y-104600000D01*
X146350000Y-112100000D02*
X151925000Y-117675000D01*
X166975000Y-118900000D02*
X169249330Y-118900000D01*
X166600000Y-118525000D02*
X166975000Y-118900000D01*
X158275000Y-116375000D02*
X162555026Y-116375000D01*
X140853843Y-103747628D02*
X140853843Y-102782196D01*
X169249330Y-118900000D02*
X169900000Y-118249330D01*
X140001471Y-104600000D02*
X140853843Y-103747628D01*
X151925000Y-117675000D02*
X156975000Y-117675000D01*
X169900000Y-118249330D02*
X169900000Y-117875000D01*
X140925000Y-112100000D02*
X146350000Y-112100000D01*
D116*
X155422081Y-126890000D02*
X156550000Y-125762081D01*
D114*
X166265000Y-120210000D02*
X166325000Y-120150000D01*
D112*
X167950000Y-122320000D02*
X167850000Y-122420000D01*
D116*
X151680000Y-126890000D02*
X154220000Y-126890000D01*
D112*
X167950000Y-121440000D02*
X167950000Y-122320000D01*
D116*
X154220000Y-126890000D02*
X155422081Y-126890000D01*
X156550000Y-125762081D02*
X156550000Y-119350000D01*
D114*
X165325000Y-120210000D02*
X166265000Y-120210000D01*
D112*
X133050000Y-102210002D02*
X133015000Y-102175002D01*
X130675000Y-125525000D02*
X130650000Y-125500000D01*
X134300000Y-74475000D02*
X133325000Y-74475000D01*
D111*
X138045000Y-85125000D02*
X138045000Y-86620000D01*
D112*
X133050000Y-103000000D02*
X133050000Y-102210002D01*
X131675000Y-125525000D02*
X130675000Y-125525000D01*
D114*
X140500000Y-110250000D02*
X142200000Y-110250000D01*
X164053051Y-106000341D02*
X164866224Y-106000339D01*
D112*
X168950000Y-122280000D02*
X169170000Y-122500000D01*
D114*
X142200000Y-110250000D02*
X142225000Y-110225000D01*
D112*
X165064215Y-106198332D02*
X165764249Y-106198331D01*
X164866224Y-106000339D02*
X165064215Y-106198332D01*
X136490000Y-84530000D02*
X137450000Y-84530000D01*
X165081890Y-106216007D02*
X165081890Y-106880690D01*
D114*
X163964664Y-106088729D02*
X164053051Y-106000341D01*
D112*
X164866224Y-106000339D02*
X165081890Y-106216007D01*
X137450000Y-84530000D02*
X138045000Y-85125000D01*
X136450000Y-92800000D02*
X136450000Y-92000000D01*
D111*
X138045000Y-86620000D02*
X138050000Y-86625000D01*
D112*
X169375000Y-74475000D02*
X168375000Y-74475000D01*
D114*
X133275000Y-103600000D02*
X133275000Y-103225000D01*
D112*
X133015000Y-101120000D02*
X132995000Y-101100000D01*
X168950000Y-121440000D02*
X168950000Y-122280000D01*
D114*
X133275000Y-103225000D02*
X133050000Y-103000000D01*
D112*
X133015000Y-102175002D02*
X133015000Y-101120000D01*
X120975000Y-133050000D02*
X126400000Y-133050000D01*
X120225000Y-123425000D02*
X121047500Y-122602500D01*
D117*
X138400000Y-133200000D02*
X145275000Y-133200000D01*
D112*
X156300000Y-109900000D02*
X156300000Y-109325000D01*
D117*
X145275000Y-133200000D02*
X145325000Y-133150000D01*
D112*
X120450000Y-129832500D02*
X120450000Y-132525000D01*
X118500000Y-127882500D02*
X120225000Y-126157500D01*
X121047500Y-122602500D02*
X121612500Y-122602500D01*
X155257069Y-108282069D02*
X155257069Y-106671282D01*
D117*
X127975000Y-134625000D02*
X137725000Y-134625000D01*
D112*
X148350000Y-130125000D02*
X145325000Y-133150000D01*
X120225000Y-126157500D02*
X120225000Y-123425000D01*
D117*
X137725000Y-134625000D02*
X138100000Y-134250000D01*
D112*
X148350000Y-127600000D02*
X148350000Y-130125000D01*
D117*
X138100000Y-134250000D02*
X138100000Y-133500000D01*
D112*
X120450000Y-132525000D02*
X120975000Y-133050000D01*
D117*
X126400000Y-133050000D02*
X127975000Y-134625000D01*
D112*
X118500000Y-127882500D02*
X120450000Y-129832500D01*
X156300000Y-109325000D02*
X155257069Y-108282069D01*
X155257069Y-106671282D02*
X154719938Y-106134151D01*
D117*
X138100000Y-133500000D02*
X138400000Y-133200000D01*
X128175000Y-134325000D02*
X124730000Y-130880000D01*
X144275000Y-132850000D02*
X138175000Y-132850000D01*
D112*
X120987500Y-121402500D02*
X123002500Y-121402500D01*
X118500000Y-122802500D02*
X119900000Y-121402500D01*
X155610623Y-107985623D02*
X155610623Y-106317730D01*
D117*
X137500000Y-134325000D02*
X128175000Y-134325000D01*
X137750000Y-133275000D02*
X137750000Y-134075000D01*
X137750000Y-134075000D02*
X137500000Y-134325000D01*
D112*
X155610623Y-106317730D02*
X155073491Y-105780598D01*
X147200000Y-129925000D02*
X144275000Y-132850000D01*
D117*
X124730000Y-130880000D02*
X124150000Y-130880000D01*
D112*
X123500000Y-121900000D02*
X123500000Y-122900000D01*
X147200000Y-129700000D02*
X147200000Y-129925000D01*
X157050000Y-109425000D02*
X155610623Y-107985623D01*
X119900000Y-121402500D02*
X120987500Y-121402500D01*
X123002500Y-121402500D02*
X123500000Y-121900000D01*
X157050000Y-111075000D02*
X157050000Y-109425000D01*
D117*
X138175000Y-132850000D02*
X137750000Y-133275000D01*
D112*
X136460000Y-100235000D02*
X137575000Y-101350000D01*
X152245064Y-108609025D02*
X150300000Y-106663961D01*
X136460000Y-97250000D02*
X136460000Y-100235000D01*
X137945000Y-92325000D02*
X136450000Y-93820000D01*
X136450000Y-94530000D02*
X136460000Y-94540000D01*
X150300000Y-106663961D02*
X150300000Y-105300000D01*
X137575000Y-101350000D02*
X138950000Y-101350000D01*
X136450000Y-93820000D02*
X136450000Y-94530000D01*
X150300000Y-105300000D02*
X150850000Y-104750000D01*
X138045000Y-92325000D02*
X137945000Y-92325000D01*
X139900000Y-89930000D02*
X141830000Y-89930000D01*
X142510000Y-92510000D02*
X144572955Y-94572955D01*
X139315000Y-92325000D02*
X139315000Y-90515000D01*
X142510000Y-90610000D02*
X142510000Y-92510000D01*
X141830000Y-89930000D02*
X142510000Y-90610000D01*
X139315000Y-90515000D02*
X139900000Y-89930000D01*
X140585000Y-92420685D02*
X141584315Y-93420000D01*
X142925026Y-93420000D02*
X143682270Y-94177244D01*
X143682270Y-94177244D02*
X143682270Y-94389377D01*
X143682270Y-94389377D02*
X144219402Y-94926509D01*
X140585000Y-92325000D02*
X140585000Y-92420685D01*
X141584315Y-93420000D02*
X142925026Y-93420000D01*
X142950000Y-92242893D02*
X142950000Y-89620000D01*
X142950000Y-89620000D02*
X141855000Y-88525000D01*
X141855000Y-88525000D02*
X141855000Y-85125000D01*
X144926509Y-94219402D02*
X142950000Y-92242893D01*
X142575000Y-84250000D02*
X142100000Y-83775000D01*
X140585000Y-84065000D02*
X140585000Y-85125000D01*
X140875000Y-83775000D02*
X140585000Y-84065000D01*
X143400000Y-87860000D02*
X142575000Y-87035000D01*
X142100000Y-83775000D02*
X140875000Y-83775000D01*
X145280062Y-93865849D02*
X143400000Y-91985787D01*
X142575000Y-87035000D02*
X142575000Y-84250000D01*
X143400000Y-91985787D02*
X143400000Y-87860000D01*
X139330000Y-87410000D02*
X139315000Y-87395000D01*
X143865849Y-95265849D02*
X142740000Y-94140000D01*
X143865849Y-95280062D02*
X143865849Y-95265849D01*
X139315000Y-87395000D02*
X139315000Y-85125000D01*
X153650127Y-111075127D02*
X154850000Y-112275000D01*
X157475000Y-112275000D02*
X158375000Y-111375000D01*
X158375000Y-111375000D02*
X160200000Y-111375000D01*
X152952171Y-107901918D02*
X153650127Y-108599873D01*
X160200000Y-111375000D02*
X161914053Y-109660947D01*
X154850000Y-112275000D02*
X157475000Y-112275000D01*
X161914053Y-109660947D02*
X161914053Y-108139339D01*
X153650127Y-108599873D02*
X153650127Y-111075127D01*
X131165000Y-107810000D02*
X122050000Y-116925000D01*
X122050000Y-116925000D02*
X122050000Y-119200000D01*
X119240000Y-121002500D02*
X121612500Y-121002500D01*
X118500000Y-120262500D02*
X119240000Y-121002500D01*
X124202500Y-121002500D02*
X124700000Y-121500000D01*
X121612500Y-121002500D02*
X124202500Y-121002500D01*
X124700000Y-121500000D02*
X124700000Y-122300000D01*
X140775787Y-107810000D02*
X131165000Y-107810000D01*
X143865849Y-104719938D02*
X140775787Y-107810000D01*
X120177500Y-120602500D02*
X120987500Y-120602500D01*
X130655000Y-107420000D02*
X121375000Y-116700000D01*
X140458679Y-107420000D02*
X130655000Y-107420000D01*
X118500000Y-117722500D02*
X119700000Y-118922500D01*
X143512295Y-104366384D02*
X140458679Y-107420000D01*
X125177500Y-120602500D02*
X125900000Y-121325000D01*
X120075000Y-120525000D02*
X120100000Y-120525000D01*
X125900000Y-121325000D02*
X125900000Y-121700000D01*
X121375000Y-116700000D02*
X121300000Y-116700000D01*
X120100000Y-120525000D02*
X120177500Y-120602500D01*
X119700000Y-120150000D02*
X120075000Y-120525000D01*
X119700000Y-118922500D02*
X119700000Y-120150000D01*
X120987500Y-120602500D02*
X125177500Y-120602500D01*
X143158742Y-104012831D02*
X140131573Y-107040000D01*
X118500000Y-115182500D02*
X120200000Y-116882500D01*
X120927500Y-120202500D02*
X121450000Y-120202500D01*
X130135000Y-107040000D02*
X121992500Y-115182500D01*
X126202500Y-120202500D02*
X127100000Y-121100000D01*
X121612500Y-120202500D02*
X126202500Y-120202500D01*
X121992500Y-115182500D02*
X118500000Y-115182500D01*
X120200000Y-116882500D02*
X120200000Y-119475000D01*
X120200000Y-119475000D02*
X120927500Y-120202500D01*
X140131573Y-107040000D02*
X130135000Y-107040000D01*
X157575000Y-101918145D02*
X158255472Y-102598617D01*
X157575000Y-100425000D02*
X157575000Y-101918145D01*
X155902500Y-79797500D02*
X156612500Y-79797500D01*
X162250000Y-81330000D02*
X158145000Y-81330000D01*
X167747831Y-82427169D02*
X166765000Y-83410000D01*
X155407500Y-86725000D02*
X153500000Y-84817500D01*
X168125000Y-82427169D02*
X167747831Y-82427169D01*
X158255472Y-102598617D02*
X158950000Y-103293145D01*
X162900000Y-86725000D02*
X155407500Y-86725000D01*
X158145000Y-81330000D02*
X156612500Y-79797500D01*
X155325000Y-82992500D02*
X155325000Y-80375000D01*
X163975000Y-87800000D02*
X162900000Y-86725000D01*
X168125000Y-81700000D02*
X168125000Y-82427169D01*
X155325000Y-80375000D02*
X155902500Y-79797500D01*
X153500000Y-84817500D02*
X155325000Y-82992500D01*
X164330000Y-83410000D02*
X162250000Y-81330000D01*
X158950000Y-103293145D02*
X158950000Y-105103752D01*
X166765000Y-83410000D02*
X164330000Y-83410000D01*
X158950000Y-105103752D02*
X158814376Y-105239376D01*
X162050000Y-87075000D02*
X153850000Y-87075000D01*
X155452500Y-79397500D02*
X155987500Y-79397500D01*
X154800000Y-80050000D02*
X155452500Y-79397500D01*
X162775000Y-87800000D02*
X162050000Y-87075000D01*
X153500000Y-82825000D02*
X153500000Y-82277500D01*
X164630000Y-82890000D02*
X162470000Y-80730000D01*
X155648558Y-99626442D02*
X155651442Y-99626442D01*
X158455000Y-80730000D02*
X157122500Y-79397500D01*
X158510000Y-103560253D02*
X158510000Y-104140000D01*
X153500000Y-82277500D02*
X154800000Y-80977500D01*
X152125000Y-85350000D02*
X152125000Y-84200000D01*
X158175000Y-105878752D02*
X158064376Y-105989376D01*
X166875000Y-81700000D02*
X166875000Y-82325000D01*
X166875000Y-82325000D02*
X166310000Y-82890000D01*
X152125000Y-84200000D02*
X153500000Y-82825000D01*
X157125000Y-101100000D02*
X157125000Y-102175253D01*
X158510000Y-104140000D02*
X158175000Y-104475000D01*
X158175000Y-104475000D02*
X158175000Y-105878752D01*
X157122500Y-79397500D02*
X155987500Y-79397500D01*
X153850000Y-87075000D02*
X152125000Y-85350000D01*
X155651442Y-99626442D02*
X157125000Y-101100000D01*
X166310000Y-82890000D02*
X164630000Y-82890000D01*
X157901918Y-102952171D02*
X158510000Y-103560253D01*
X162470000Y-80730000D02*
X158455000Y-80730000D01*
X154800000Y-80977500D02*
X154800000Y-80050000D01*
X157125000Y-102175253D02*
X157901918Y-102952171D01*
X151800000Y-83750000D02*
X151800000Y-81437500D01*
X154640000Y-78597500D02*
X153500000Y-79737500D01*
X158775000Y-78900000D02*
X162075000Y-78900000D01*
X155987500Y-78597500D02*
X154640000Y-78597500D01*
X147025000Y-88525000D02*
X151800000Y-83750000D01*
X148108489Y-91037422D02*
X147025000Y-89953933D01*
X162075000Y-78900000D02*
X162100000Y-78875000D01*
X151800000Y-81437500D02*
X153500000Y-79737500D01*
X158472500Y-78597500D02*
X158775000Y-78900000D01*
X155987500Y-78597500D02*
X158472500Y-78597500D01*
X147025000Y-89953933D02*
X147025000Y-88525000D01*
X154500000Y-78197500D02*
X156612500Y-78197500D01*
X146200000Y-87925000D02*
X150400000Y-83725000D01*
X158950000Y-78300000D02*
X160900000Y-78300000D01*
X163880000Y-71630000D02*
X166725000Y-74475000D01*
X159150000Y-71630000D02*
X163880000Y-71630000D01*
X147401383Y-91744528D02*
X146200000Y-90543146D01*
X150400000Y-83725000D02*
X150400000Y-77200000D01*
X146200000Y-90543146D02*
X146200000Y-87925000D01*
X153500000Y-77197500D02*
X154500000Y-78197500D01*
X158847500Y-78197500D02*
X158950000Y-78300000D01*
X156612500Y-78197500D02*
X158847500Y-78197500D01*
X145800000Y-87625000D02*
X149675000Y-83750000D01*
X155272500Y-77797500D02*
X155987500Y-77797500D01*
X149675000Y-83750000D02*
X149675000Y-74650000D01*
X147047829Y-92072829D02*
X145800000Y-90825000D01*
X154725000Y-75882500D02*
X154725000Y-77250000D01*
X154725000Y-77250000D02*
X155272500Y-77797500D01*
X155987500Y-77797500D02*
X159602500Y-77797500D01*
X145800000Y-90825000D02*
X145800000Y-87625000D01*
X153500000Y-74657500D02*
X154725000Y-75882500D01*
X147047829Y-92098082D02*
X147047829Y-92072829D01*
X159602500Y-77797500D02*
X159700000Y-77700000D01*
X151100000Y-83750000D02*
X151100000Y-74517500D01*
X156612500Y-77397500D02*
X158202500Y-77397500D01*
X153500000Y-72117500D02*
X155225000Y-73842500D01*
X146625000Y-88225000D02*
X151100000Y-83750000D01*
X146625000Y-90261040D02*
X146625000Y-88225000D01*
X158202500Y-77397500D02*
X158500000Y-77100000D01*
X155722500Y-77397500D02*
X156612500Y-77397500D01*
X155225000Y-73842500D02*
X155225000Y-76900000D01*
X155225000Y-76900000D02*
X155722500Y-77397500D01*
X151100000Y-74517500D02*
X153500000Y-72117500D01*
X147754936Y-91390975D02*
X146625000Y-90261040D01*
X154103680Y-110728680D02*
X154103680Y-108346320D01*
X155150000Y-111775000D02*
X154103680Y-110728680D01*
X154103680Y-108346320D02*
X153305724Y-107548365D01*
X160464484Y-106760480D02*
X158600000Y-108624964D01*
X157250000Y-111775000D02*
X155150000Y-111775000D01*
X158600000Y-108624964D02*
X158600000Y-110425000D01*
X158600000Y-110425000D02*
X157250000Y-111775000D01*
X160535195Y-106760480D02*
X160464484Y-106760480D01*
X179012500Y-78597500D02*
X180100000Y-78597500D01*
X176500000Y-77100000D02*
X176500000Y-77875000D01*
X147137500Y-106398033D02*
X146340722Y-107194811D01*
X146200000Y-96825000D02*
X146200000Y-97275000D01*
X180100000Y-78597500D02*
X181500000Y-77197500D01*
X176500000Y-77875000D02*
X177222500Y-78597500D01*
X147137500Y-98212500D02*
X147137500Y-106398033D01*
X146200000Y-97275000D02*
X147137500Y-98212500D01*
X177222500Y-78597500D02*
X179012500Y-78597500D01*
X178387500Y-78997500D02*
X180760000Y-78997500D01*
X146475000Y-98400000D02*
X146400000Y-98325000D01*
X176997500Y-78997500D02*
X178387500Y-78997500D01*
X145280062Y-106134151D02*
X146475000Y-104939213D01*
X180760000Y-78997500D02*
X181500000Y-79737500D01*
X175300000Y-77700000D02*
X175700000Y-77700000D01*
X175700000Y-77700000D02*
X176997500Y-78997500D01*
X146475000Y-104939213D02*
X146475000Y-98400000D01*
X180275000Y-81052500D02*
X181500000Y-82277500D01*
X174125000Y-78300000D02*
X175400000Y-78300000D01*
X176497500Y-79397500D02*
X179012500Y-79397500D01*
X180275000Y-80100000D02*
X180275000Y-81052500D01*
X179572500Y-79397500D02*
X180275000Y-80100000D01*
X144926509Y-105780598D02*
X145825000Y-104882107D01*
X145825000Y-99050000D02*
X144900000Y-98125000D01*
X175400000Y-78300000D02*
X176497500Y-79397500D01*
X145825000Y-104882107D02*
X145825000Y-99050000D01*
X179012500Y-79397500D02*
X179572500Y-79397500D01*
X145110087Y-104889913D02*
X145110087Y-99635087D01*
X172925000Y-78900000D02*
X175000000Y-78900000D01*
X179072500Y-79797500D02*
X179750000Y-80475000D01*
X144572955Y-105427045D02*
X145110087Y-104889913D01*
X175000000Y-78900000D02*
X175897500Y-79797500D01*
X179750000Y-80475000D02*
X179750000Y-84000000D01*
X180567500Y-84817500D02*
X181500000Y-84817500D01*
X179750000Y-84000000D02*
X180567500Y-84817500D01*
X178387500Y-79797500D02*
X179072500Y-79797500D01*
X175897500Y-79797500D02*
X178387500Y-79797500D01*
X145110087Y-99635087D02*
X145100000Y-99625000D01*
X146500000Y-82277500D02*
X145300000Y-81077500D01*
X153100000Y-102400000D02*
X155935533Y-102400000D01*
X157310000Y-105811943D02*
X157731943Y-105390000D01*
X141572500Y-79397500D02*
X140475000Y-78300000D01*
X149910000Y-86850000D02*
X149910000Y-89730000D01*
X150150500Y-89970500D02*
X150150500Y-90950500D01*
X145300000Y-81077500D02*
X145300000Y-79900000D01*
X157310000Y-106720000D02*
X157310000Y-105811943D01*
X140580000Y-71620000D02*
X140850000Y-71620000D01*
X152100000Y-101400000D02*
X153100000Y-102400000D01*
X155935533Y-102400000D02*
X157194811Y-103659278D01*
X144012500Y-79397500D02*
X141572500Y-79397500D01*
X149910000Y-89730000D02*
X150150500Y-89970500D01*
X150150500Y-90950500D02*
X152100000Y-92900000D01*
X152100000Y-92900000D02*
X152100000Y-101400000D01*
X145300000Y-79900000D02*
X144797500Y-79397500D01*
X150280000Y-86480000D02*
X149910000Y-86850000D01*
X140475000Y-78300000D02*
X139075000Y-78300000D01*
X157731943Y-105390000D02*
X157731943Y-104196410D01*
X144797500Y-79397500D02*
X144012500Y-79397500D01*
X157731943Y-104196410D02*
X157194811Y-103659278D01*
X149140000Y-87450000D02*
X149490000Y-87800000D01*
X156841258Y-104012831D02*
X157378390Y-104549963D01*
X149800500Y-92026971D02*
X151600000Y-93826471D01*
X151600000Y-93826471D02*
X151600000Y-101600000D01*
X140630000Y-72870000D02*
X140850000Y-72870000D01*
X140200000Y-78900000D02*
X137875000Y-78900000D01*
X152875000Y-102875000D02*
X155703427Y-102875000D01*
X157378390Y-105221610D02*
X156579376Y-106020624D01*
X155703427Y-102875000D02*
X156841258Y-104012831D01*
X144725000Y-83042500D02*
X144725000Y-80225000D01*
X146500000Y-84817500D02*
X144725000Y-83042500D01*
X143387500Y-79797500D02*
X141097500Y-79797500D01*
X149490000Y-89910000D02*
X149800500Y-90220500D01*
X144725000Y-80225000D02*
X144297500Y-79797500D01*
X144297500Y-79797500D02*
X143387500Y-79797500D01*
X149800500Y-90220500D02*
X149800500Y-92026971D01*
X141097500Y-79797500D02*
X140200000Y-78900000D01*
X157378390Y-104549963D02*
X157378390Y-105221610D01*
X149490000Y-87800000D02*
X149490000Y-89910000D01*
X156579376Y-106020624D02*
X156579376Y-107459376D01*
X151600000Y-101600000D02*
X152875000Y-102875000D01*
X140260624Y-96624585D02*
X140260624Y-96585624D01*
X131875000Y-117200000D02*
X132350000Y-116725000D01*
X131875000Y-118300000D02*
X131875000Y-117200000D01*
X143387500Y-120187500D02*
X143387500Y-120202500D01*
X132350000Y-116725000D02*
X139925000Y-116725000D01*
X144725000Y-119500000D02*
X144022500Y-120202500D01*
X139925000Y-116725000D02*
X143387500Y-120187500D01*
X144022500Y-120202500D02*
X143387500Y-120202500D01*
X141390975Y-97754936D02*
X140260624Y-96624585D01*
X143100000Y-101800000D02*
X143100000Y-99463960D01*
X144725000Y-116957500D02*
X144725000Y-119500000D01*
X146500000Y-115182500D02*
X144725000Y-116957500D01*
X143100000Y-99463960D02*
X141390975Y-97754936D01*
X133475000Y-117150000D02*
X133125000Y-117500000D01*
X142977500Y-120602500D02*
X139525000Y-117150000D01*
X144012500Y-120602500D02*
X142977500Y-120602500D01*
X141160624Y-96817479D02*
X141160624Y-95685624D01*
X139525000Y-117150000D02*
X133475000Y-117150000D01*
X144275000Y-99931856D02*
X144275000Y-102800000D01*
X146500000Y-117722500D02*
X145300000Y-118922500D01*
X144822500Y-120602500D02*
X144012500Y-120602500D01*
X141744528Y-97401383D02*
X141160624Y-96817479D01*
X145300000Y-118922500D02*
X145300000Y-120125000D01*
X141744528Y-97401383D02*
X144275000Y-99931856D01*
X145300000Y-120125000D02*
X144822500Y-120602500D01*
X133125000Y-117500000D02*
X133125000Y-118300000D01*
X145360000Y-121402500D02*
X146500000Y-120262500D01*
X144012500Y-121402500D02*
X141252500Y-121402500D01*
X140950000Y-121100000D02*
X137900000Y-121100000D01*
X141252500Y-121402500D02*
X140950000Y-121100000D01*
X154366384Y-93512295D02*
X153600000Y-94278679D01*
X144012500Y-121402500D02*
X145360000Y-121402500D01*
X153600000Y-94278679D02*
X153600000Y-98975000D01*
X153600000Y-98975000D02*
X154100000Y-99475000D01*
X153100000Y-99800000D02*
X154275000Y-100975000D01*
X153100000Y-94071573D02*
X153100000Y-99800000D01*
X140902500Y-121802500D02*
X140800000Y-121700000D01*
X133325000Y-125525000D02*
X136170000Y-128370000D01*
X146500000Y-122802500D02*
X145500000Y-121802500D01*
X143387500Y-121802500D02*
X140902500Y-121802500D01*
X154012831Y-93158742D02*
X153100000Y-94071573D01*
X140800000Y-121700000D02*
X139100000Y-121700000D01*
X145500000Y-121802500D02*
X143387500Y-121802500D01*
X136170000Y-128370000D02*
X140850000Y-128370000D01*
X152600000Y-100575000D02*
X152800000Y-100775000D01*
X152600000Y-93864467D02*
X152600000Y-100575000D01*
X144012500Y-122202500D02*
X140397500Y-122202500D01*
X153659278Y-92805189D02*
X152600000Y-93864467D01*
X146500000Y-125342500D02*
X145300000Y-124142500D01*
X145300000Y-124142500D02*
X145300000Y-122800000D01*
X144702500Y-122202500D02*
X144012500Y-122202500D01*
X145300000Y-122800000D02*
X144702500Y-122202500D01*
X140397500Y-122202500D02*
X140300000Y-122300000D01*
X144202500Y-122602500D02*
X143387500Y-122602500D01*
X155550000Y-111075000D02*
X155550000Y-109150000D01*
X155550000Y-109150000D02*
X154803680Y-108403680D01*
X154803680Y-108403680D02*
X154803680Y-107632107D01*
X143387500Y-122602500D02*
X141797500Y-122602500D01*
X144775000Y-126157500D02*
X144775000Y-123175000D01*
X146500000Y-127882500D02*
X144775000Y-126157500D01*
X141797500Y-122602500D02*
X141500000Y-122900000D01*
X144775000Y-123175000D02*
X144202500Y-122602500D01*
X154803680Y-107632107D02*
X154012831Y-106841258D01*
X143300000Y-82475000D02*
X143300000Y-81625000D01*
X145200000Y-90957359D02*
X145200000Y-84425000D01*
X143300000Y-82525000D02*
X143300000Y-82475000D01*
D117*
X146500000Y-72117500D02*
X144850000Y-73767500D01*
D112*
X146694276Y-92451635D02*
X145200000Y-90957359D01*
X143300000Y-81625000D02*
X143275000Y-81600000D01*
X145200000Y-84425000D02*
X143300000Y-82525000D01*
D117*
X144850000Y-76775000D02*
X144227500Y-77397500D01*
D112*
X143275000Y-81600000D02*
X142125000Y-80450000D01*
X142125000Y-80450000D02*
X141925000Y-80450000D01*
D117*
X144227500Y-77397500D02*
X143387500Y-77397500D01*
X144850000Y-73767500D02*
X144850000Y-76775000D01*
D112*
X141900000Y-81950000D02*
X141900000Y-81575000D01*
D117*
X144552500Y-77797500D02*
X144012500Y-77797500D01*
D112*
X146340722Y-92805189D02*
X144775000Y-91239467D01*
D117*
X146500000Y-74657500D02*
X145325000Y-75832500D01*
D112*
X144775000Y-91239467D02*
X144775000Y-84825000D01*
X142450000Y-82500000D02*
X141900000Y-81950000D01*
D117*
X145325000Y-77025000D02*
X144552500Y-77797500D01*
X145325000Y-75832500D02*
X145325000Y-77025000D01*
D112*
X144775000Y-84825000D02*
X142450000Y-82500000D01*
X145633616Y-93512295D02*
X143875000Y-91753679D01*
X146500000Y-77197500D02*
X145100000Y-78597500D01*
X145100000Y-78597500D02*
X144012500Y-78597500D01*
X144012500Y-78597500D02*
X142372500Y-78597500D01*
X143875000Y-86100000D02*
X143062500Y-85287500D01*
X143062500Y-84062500D02*
X141850000Y-82850000D01*
X143062500Y-85287500D02*
X143062500Y-84062500D01*
X142372500Y-78597500D02*
X141475000Y-77700000D01*
X141475000Y-77700000D02*
X141475000Y-77100000D01*
X143875000Y-91753679D02*
X143875000Y-86100000D01*
X144325000Y-91496573D02*
X145987169Y-93158742D01*
X145760000Y-78997500D02*
X146500000Y-79737500D01*
X144325000Y-85400000D02*
X144325000Y-91496573D01*
X143387500Y-78997500D02*
X142022500Y-78997500D01*
X143387500Y-78997500D02*
X145760000Y-78997500D01*
X142022500Y-78997500D02*
X140725000Y-77700000D01*
X143750000Y-84825000D02*
X144325000Y-85400000D01*
X140725000Y-77700000D02*
X140275000Y-77700000D01*
X133125000Y-83050000D02*
X133125000Y-81700000D01*
X118500000Y-84817500D02*
X120250000Y-83067500D01*
X130850000Y-110125000D02*
X132385000Y-108590000D01*
X125400000Y-83575000D02*
X132600000Y-83575000D01*
X119957500Y-84817500D02*
X118500000Y-84817500D01*
X145633616Y-106487705D02*
X144110697Y-108010624D01*
X121622500Y-79797500D02*
X125400000Y-83575000D01*
X143131248Y-108590000D02*
X143710624Y-108010624D01*
X120802500Y-79797500D02*
X121612500Y-79797500D01*
X122600000Y-84175000D02*
X120600000Y-84175000D01*
X132385000Y-108590000D02*
X143131248Y-108590000D01*
X120250000Y-80350000D02*
X120802500Y-79797500D01*
X132600000Y-83575000D02*
X133125000Y-83050000D01*
X144110697Y-108010624D02*
X143710624Y-108010624D01*
X120600000Y-84175000D02*
X119957500Y-84817500D01*
X120250000Y-83067500D02*
X120250000Y-80350000D01*
X121612500Y-79797500D02*
X121622500Y-79797500D01*
X116875000Y-85650000D02*
X117775000Y-86550000D01*
X125700000Y-83100000D02*
X131400000Y-83100000D01*
X119725000Y-81052500D02*
X119725000Y-79800000D01*
X132025000Y-110125000D02*
X133180000Y-108970000D01*
X116875000Y-83902500D02*
X116875000Y-85650000D01*
X121997500Y-79397500D02*
X125700000Y-83100000D01*
X118500000Y-82277500D02*
X119725000Y-81052500D01*
X117775000Y-86550000D02*
X119025000Y-86550000D01*
X145987169Y-106841258D02*
X144389376Y-108439051D01*
X120987500Y-79397500D02*
X121997500Y-79397500D01*
X131400000Y-83100000D02*
X131875000Y-82625000D01*
X120125000Y-85450000D02*
X123250000Y-85450000D01*
X131875000Y-82625000D02*
X131875000Y-81700000D01*
X118500000Y-82277500D02*
X116875000Y-83902500D01*
X133180000Y-108970000D02*
X144108752Y-108970000D01*
X144108752Y-108970000D02*
X144389376Y-108689376D01*
X144389376Y-108439051D02*
X144389376Y-108689376D01*
X119725000Y-79800000D02*
X120127500Y-79397500D01*
X119025000Y-86550000D02*
X120125000Y-85450000D01*
X120127500Y-79397500D02*
X120987500Y-79397500D01*
X148125000Y-93725000D02*
X148125000Y-96601471D01*
X149975353Y-93049646D02*
X148800354Y-93049646D01*
X123572500Y-78597500D02*
X123875000Y-78900000D01*
X123875000Y-78900000D02*
X127013270Y-78900000D01*
X149175000Y-97651471D02*
X149175000Y-106953175D01*
X118500000Y-79737500D02*
X119640000Y-78597500D01*
X148125000Y-96601471D02*
X149175000Y-97651471D01*
X119640000Y-78597500D02*
X120987500Y-78597500D01*
X120987500Y-78597500D02*
X123572500Y-78597500D01*
X148800354Y-93049646D02*
X148125000Y-93725000D01*
X149175000Y-106953175D02*
X151537957Y-109316132D01*
X127013270Y-78900000D02*
X127056635Y-78856635D01*
X128830000Y-71630000D02*
X131675000Y-74475000D01*
X150475000Y-102225000D02*
X152325000Y-104075000D01*
X119500000Y-78197500D02*
X121612500Y-78197500D01*
X148811411Y-94213589D02*
X148813589Y-94213589D01*
X152325000Y-104075000D02*
X155489213Y-104075000D01*
X150475000Y-95875000D02*
X150475000Y-102225000D01*
X148813589Y-94213589D02*
X150475000Y-95875000D01*
X121612500Y-78197500D02*
X124022500Y-78197500D01*
X124022500Y-78197500D02*
X124125000Y-78300000D01*
X118500000Y-77197500D02*
X119500000Y-78197500D01*
X124150000Y-71630000D02*
X128830000Y-71630000D01*
X124125000Y-78300000D02*
X125900000Y-78300000D01*
X155489213Y-104075000D02*
X156134151Y-104719938D01*
X124602500Y-77797500D02*
X124700000Y-77700000D01*
X150300000Y-94425000D02*
X150325000Y-94425000D01*
X119650000Y-75807500D02*
X119650000Y-77375000D01*
X155646321Y-103525000D02*
X156487705Y-104366384D01*
X118500000Y-74657500D02*
X119650000Y-75807500D01*
X152600000Y-103525000D02*
X155646321Y-103525000D01*
X119650000Y-77375000D02*
X120072500Y-77797500D01*
X120072500Y-77797500D02*
X120987500Y-77797500D01*
X151054757Y-101979757D02*
X152600000Y-103525000D01*
X120987500Y-77797500D02*
X124602500Y-77797500D01*
X151054757Y-95154757D02*
X151054757Y-101979757D01*
X150325000Y-94425000D02*
X151054757Y-95154757D01*
X149000000Y-95725000D02*
X149825000Y-96550000D01*
X120672500Y-77397500D02*
X121612500Y-77397500D01*
X149825000Y-106896067D02*
X151891511Y-108962578D01*
X120150000Y-76875000D02*
X120672500Y-77397500D01*
X149825000Y-96550000D02*
X149825000Y-106896067D01*
X118500000Y-72117500D02*
X120150000Y-73767500D01*
X121612500Y-77397500D02*
X123202500Y-77397500D01*
X123202500Y-77397500D02*
X123500000Y-77100000D01*
X120150000Y-73767500D02*
X120150000Y-76875000D01*
X157731942Y-95803591D02*
X160353591Y-95803591D01*
X162164411Y-96489411D02*
X162164411Y-95425539D01*
X162164411Y-95425539D02*
X163019975Y-94569975D01*
X161039411Y-96489411D02*
X162164411Y-96489411D01*
X157194811Y-96340722D02*
X157731942Y-95803591D01*
X160353591Y-95803591D02*
X161039411Y-96489411D01*
X160110589Y-94435589D02*
X161174461Y-94435589D01*
X157378390Y-95450037D02*
X159799963Y-95450037D01*
X159799963Y-95450037D02*
X160110589Y-95139411D01*
X160110589Y-95139411D02*
X160110589Y-94435589D01*
X161174461Y-94435589D02*
X162030025Y-93580025D01*
X156841258Y-95987169D02*
X157378390Y-95450037D01*
X155780598Y-94926509D02*
X157530565Y-93176542D01*
X157530565Y-93176542D02*
X158592581Y-93176542D01*
X158727847Y-93176542D02*
X160127739Y-91776650D01*
X160127739Y-91776650D02*
X160127739Y-90786700D01*
X158592581Y-93176542D02*
X158727847Y-93176542D01*
X157424688Y-91156299D02*
X158077129Y-90503858D01*
X156588454Y-91156299D02*
X156658073Y-91225918D01*
X156658073Y-91225918D02*
X156658073Y-93341927D01*
X156658073Y-93341927D02*
X155427045Y-94572955D01*
X156588454Y-91156299D02*
X157424688Y-91156299D01*
D114*
X153459072Y-90884072D02*
X152598617Y-91744528D01*
D111*
X153675000Y-90450000D02*
X154425000Y-89700000D01*
D114*
X152952171Y-92098082D02*
X152598617Y-91744528D01*
D111*
X153356847Y-89016847D02*
X153356847Y-90131847D01*
X153675000Y-90450000D02*
X153675000Y-90668144D01*
X153675000Y-90668144D02*
X153459072Y-90884072D01*
X153356847Y-90131847D02*
X153675000Y-90450000D01*
D114*
X140189522Y-97260589D02*
X139439411Y-97260589D01*
X141037422Y-98108489D02*
X140189522Y-97260589D01*
D112*
X133150000Y-109650000D02*
X133460000Y-109340000D01*
X133460000Y-109340000D02*
X137940000Y-109340000D01*
X141414467Y-105050000D02*
X142805189Y-103659278D01*
X141424500Y-109525000D02*
X139575000Y-109525000D01*
X141500000Y-109600500D02*
X141424500Y-109525000D01*
X137940000Y-109340000D02*
X138850000Y-110250000D01*
X139575000Y-109525000D02*
X138850000Y-110250000D01*
X141225000Y-105050000D02*
X141414467Y-105050000D01*
X133150000Y-111960000D02*
X133150000Y-109650000D01*
D114*
X147335589Y-109735478D02*
X147335589Y-110510589D01*
X148108489Y-108962578D02*
X147335589Y-109735478D01*
D112*
X154453680Y-109603680D02*
X154453680Y-107989213D01*
X154453680Y-107989213D02*
X153659278Y-107194811D01*
X154750000Y-109900000D02*
X154453680Y-109603680D01*
D114*
X159500000Y-113187500D02*
X160225000Y-112462500D01*
X159500000Y-113225000D02*
X159500000Y-113187500D01*
D112*
X157850000Y-109900000D02*
X157850000Y-109575000D01*
X157850000Y-109575000D02*
X155964176Y-107689176D01*
D114*
X161000000Y-113250000D02*
X162637500Y-113250000D01*
D112*
X155964176Y-107689176D02*
X155964176Y-105964176D01*
X155964176Y-105964176D02*
X155427045Y-105427045D01*
D114*
X162637500Y-113250000D02*
X163450000Y-112437500D01*
D112*
X162600000Y-111425000D02*
X162600000Y-109675000D01*
X159975000Y-103250000D02*
X159975000Y-102903933D01*
X159975000Y-102903933D02*
X158962578Y-101891511D01*
X164000000Y-109675000D02*
X164000000Y-111425000D01*
X160100971Y-104250000D02*
X159300000Y-103449029D01*
X159300000Y-103449029D02*
X159300000Y-102936039D01*
X160975000Y-104250000D02*
X160100971Y-104250000D01*
X159300000Y-102936039D02*
X158609025Y-102245064D01*
D111*
X174500000Y-130302817D02*
X172884683Y-128687500D01*
X172884683Y-128687500D02*
X172250000Y-128687500D01*
X174500000Y-130937500D02*
X174500000Y-130302817D01*
D114*
X136770000Y-104250000D02*
X137450000Y-103570000D01*
D111*
X160503375Y-110052062D02*
X161245837Y-109309600D01*
X137450000Y-102810000D02*
X137450000Y-103570000D01*
X138480000Y-102810000D02*
X138480000Y-103570000D01*
X159950000Y-110500000D02*
X160397938Y-110052062D01*
X161245837Y-109309600D02*
X161245837Y-108987304D01*
X137450000Y-103570000D02*
X137336325Y-103570000D01*
D112*
X133825000Y-110930000D02*
X133650000Y-111105000D01*
X133650000Y-111105000D02*
X133650000Y-111960000D01*
D114*
X161238533Y-108980000D02*
X161238533Y-107895621D01*
X161238533Y-107895621D02*
X161454434Y-107679720D01*
D111*
X161245837Y-108987304D02*
X161238533Y-108980000D01*
D114*
X136175000Y-104250000D02*
X136770000Y-104250000D01*
D111*
X160397938Y-110052062D02*
X160503375Y-110052062D01*
X137450000Y-103570000D02*
X138480000Y-103570000D01*
X137336325Y-103570000D02*
X137023162Y-103883163D01*
D112*
X150000000Y-69660000D02*
X150000000Y-71340000D01*
X148525000Y-97850000D02*
X147700000Y-97025000D01*
X180250000Y-77225000D02*
X179677500Y-77797500D01*
X181500000Y-74657500D02*
X180250000Y-75907500D01*
X180250000Y-75907500D02*
X180250000Y-77225000D01*
X148525000Y-107131855D02*
X148525000Y-97850000D01*
X179677500Y-77797500D02*
X179012500Y-77797500D01*
X147401383Y-108255472D02*
X148525000Y-107131855D01*
D111*
X174337500Y-127750000D02*
X173025000Y-127750000D01*
X134750000Y-110925000D02*
X134535000Y-111140000D01*
X149525000Y-116300000D02*
X146325000Y-113100000D01*
X146325000Y-113100000D02*
X143450000Y-113100000D01*
X143450000Y-113100000D02*
X143400000Y-113050000D01*
X149525000Y-131775000D02*
X149525000Y-116300000D01*
D112*
X134150000Y-111525000D02*
X134750000Y-110925000D01*
D111*
X151650000Y-133900000D02*
X149525000Y-131775000D01*
X156900000Y-133900000D02*
X151650000Y-133900000D01*
D112*
X134150000Y-111960000D02*
X134150000Y-111525000D01*
X179102500Y-77397500D02*
X179750000Y-76750000D01*
X146925000Y-97350000D02*
X146925000Y-96100000D01*
X180707500Y-72117500D02*
X181500000Y-72117500D01*
X146925000Y-96100000D02*
X147500000Y-95525000D01*
X179750000Y-76750000D02*
X179750000Y-73075000D01*
X179750000Y-73075000D02*
X180707500Y-72117500D01*
X147800000Y-107149747D02*
X147800000Y-98225000D01*
X178387500Y-77397500D02*
X179102500Y-77397500D01*
X147800000Y-98225000D02*
X146925000Y-97350000D01*
X147047829Y-107901918D02*
X147800000Y-107149747D01*
X154366384Y-106487705D02*
X153829252Y-105950573D01*
X118500000Y-125342500D02*
X119700000Y-124142500D01*
X119700000Y-124142500D02*
X119700000Y-122875000D01*
X122850000Y-116950000D02*
X131590000Y-108210000D01*
X141510000Y-108210000D02*
X142160000Y-107560000D01*
X152899427Y-105950573D02*
X151750000Y-107100000D01*
X153829252Y-105950573D02*
X152899427Y-105950573D01*
X120372500Y-122202500D02*
X120987500Y-122202500D01*
X131590000Y-108210000D02*
X141510000Y-108210000D01*
X119700000Y-122875000D02*
X120372500Y-122202500D01*
X122850000Y-117775000D02*
X122850000Y-116950000D01*
X167625000Y-90340000D02*
X168570001Y-90340000D01*
X168570001Y-90340000D02*
X168675000Y-90444999D01*
X168350381Y-119250000D02*
X169500000Y-119250000D01*
X165325000Y-119190000D02*
X165385000Y-119250000D01*
X170075000Y-118675000D02*
X170890000Y-118675000D01*
X164200000Y-118830000D02*
X164560000Y-119190000D01*
X167950000Y-119650381D02*
X168350381Y-119250000D01*
X165385000Y-119250000D02*
X167549619Y-119250000D01*
X170890000Y-118675000D02*
X171315000Y-119100000D01*
X167549619Y-119250000D02*
X167950000Y-119650381D01*
X164560000Y-119190000D02*
X165325000Y-119190000D01*
X167950000Y-119960000D02*
X167950000Y-119650381D01*
X169500000Y-119250000D02*
X170075000Y-118675000D01*
X167834999Y-91570000D02*
X167625000Y-91360000D01*
X169799999Y-91225000D02*
X167760000Y-91225000D01*
X167760000Y-91225000D02*
X167625000Y-91360000D01*
X167834999Y-92375000D02*
X167834999Y-91570000D01*
X167860000Y-93450000D02*
X168815000Y-93450000D01*
X171600001Y-91225000D02*
X172440000Y-91225000D01*
X172440000Y-91225000D02*
X172690000Y-90975000D01*
X152598617Y-108255472D02*
X153135749Y-108792604D01*
X154160000Y-113125000D02*
X155440000Y-113125000D01*
X153135749Y-108792604D02*
X153135749Y-111445749D01*
X154160000Y-112470000D02*
X154160000Y-113125000D01*
X153135749Y-111445749D02*
X154160000Y-112470000D01*
D111*
X156975000Y-98450000D02*
X156975000Y-97974746D01*
D114*
X156134151Y-95280062D02*
X156134151Y-95290849D01*
X157901918Y-97047829D02*
X157137373Y-97812373D01*
X147735589Y-89139411D02*
X147735589Y-89957414D01*
X149049174Y-91823674D02*
X149049174Y-91270999D01*
D112*
X142989376Y-107285624D02*
X142989376Y-107289376D01*
D114*
X149150500Y-91925000D02*
X149049174Y-91823674D01*
D112*
X143625000Y-106650000D02*
X142989376Y-107285624D01*
X164650000Y-100350000D02*
X164633274Y-100350000D01*
D114*
X158031248Y-107441248D02*
X158055000Y-107441248D01*
X138050000Y-90620000D02*
X135545000Y-90620000D01*
X135545000Y-90620000D02*
X135540000Y-90625000D01*
X159535624Y-105960624D02*
X159535624Y-104639376D01*
X140277612Y-95702612D02*
X139926876Y-95351876D01*
X139539376Y-95864376D02*
X139539376Y-95739376D01*
D112*
X164633274Y-100350000D02*
X163966637Y-99683363D01*
D114*
X156134151Y-95290849D02*
X155325000Y-96100000D01*
X151349411Y-88800589D02*
X151349411Y-88796895D01*
X140314376Y-94964376D02*
X140439376Y-94964376D01*
X158055000Y-107441248D02*
X158785624Y-106710624D01*
X135540000Y-90625000D02*
X135540000Y-86815000D01*
X147735589Y-89957414D02*
X148462043Y-90683868D01*
D111*
X151225000Y-87600000D02*
X151528153Y-87903153D01*
D114*
X151349411Y-88796895D02*
X152243153Y-87903153D01*
X159535624Y-104639376D02*
X159575000Y-104600000D01*
X156134151Y-95280062D02*
X157253624Y-94160589D01*
D111*
X151528153Y-87903153D02*
X152243153Y-87903153D01*
X156975000Y-97974746D02*
X157137373Y-97812373D01*
D114*
X139539376Y-95739376D02*
X139926876Y-95351876D01*
X158489158Y-96460589D02*
X157901918Y-97047829D01*
D112*
X145110624Y-109410624D02*
X145746248Y-108775000D01*
D114*
X157300624Y-108171872D02*
X158031248Y-107441248D01*
X157300624Y-108180624D02*
X157300624Y-108171872D01*
X158785624Y-106710624D02*
X159535624Y-105960624D01*
X139926876Y-95351876D02*
X140314376Y-94964376D01*
D112*
X145746248Y-108775000D02*
X145750000Y-108775000D01*
D111*
X154975000Y-96450000D02*
X155325000Y-96100000D01*
D114*
X140280123Y-95702612D02*
X140277612Y-95702612D01*
X159785589Y-96460589D02*
X158489158Y-96460589D01*
X157253624Y-94160589D02*
X157460589Y-94160589D01*
X149049174Y-91270999D02*
X148462043Y-90683868D01*
D112*
X165375000Y-97300000D02*
X165133363Y-97541637D01*
X165133363Y-97541637D02*
X165133363Y-98516637D01*
X168924999Y-91675002D02*
X169799999Y-91675002D01*
X168600000Y-92000001D02*
X168924999Y-91675002D01*
X131600000Y-98400000D02*
X131600000Y-97700000D01*
X131600000Y-97700000D02*
X132750000Y-96550000D01*
D111*
X128680000Y-96630000D02*
X128600000Y-96550000D01*
X131020000Y-96630000D02*
X131100000Y-96550000D01*
X129850000Y-96630000D02*
X131020000Y-96630000D01*
X129850000Y-96630000D02*
X128680000Y-96630000D01*
D112*
X128100000Y-97700000D02*
X126950000Y-96550000D01*
X128100000Y-98400000D02*
X128100000Y-97700000D01*
X173150000Y-103525000D02*
X172000000Y-102375000D01*
X172000000Y-102375000D02*
X172000000Y-101675000D01*
D111*
X171500000Y-103525000D02*
X171419999Y-103444999D01*
X171419999Y-103444999D02*
X169080001Y-103444999D01*
X169080001Y-103444999D02*
X169000000Y-103525000D01*
D112*
X167350000Y-103525000D02*
X168500000Y-102375000D01*
X168500000Y-102375000D02*
X168500000Y-101675000D01*
X162585805Y-103235443D02*
X162585805Y-104709871D01*
X163435624Y-102385624D02*
X162585805Y-103235443D01*
X132620000Y-105550000D02*
X132090000Y-106080000D01*
X133275000Y-105550000D02*
X132620000Y-105550000D01*
X122712500Y-91250000D02*
X123237499Y-91774999D01*
X130870000Y-95025761D02*
X130075001Y-94230762D01*
X124836800Y-104775000D02*
X125335000Y-104276800D01*
X131749999Y-97036396D02*
X131313894Y-97472500D01*
X130200000Y-104175000D02*
X130025000Y-104350000D01*
X118935000Y-95343200D02*
X118935000Y-92526800D01*
X129248200Y-104350000D02*
X128809826Y-103911626D01*
X128740685Y-91775000D02*
X128340685Y-91375000D01*
X128809826Y-103911626D02*
X128809826Y-103446059D01*
X126112500Y-91375000D02*
X125787500Y-91050000D01*
X130075001Y-94230762D02*
X130075001Y-92481801D01*
X125335000Y-102933200D02*
X125006800Y-102605000D01*
X125437500Y-91400000D02*
X125787500Y-91050000D01*
X120895000Y-101453200D02*
X120895000Y-97303200D01*
X119686801Y-91774999D02*
X122187501Y-91774999D01*
X130075001Y-101674999D02*
X131600000Y-100150000D01*
X120895000Y-97303200D02*
X118935000Y-95343200D01*
X122187501Y-91774999D02*
X122712500Y-91250000D01*
X130075001Y-92481801D02*
X129368200Y-91775000D01*
X130870000Y-95275000D02*
X130968457Y-95275000D01*
X125426471Y-91400000D02*
X125437500Y-91400000D01*
X130892500Y-97472500D02*
X130075000Y-98290000D01*
X123237499Y-91774999D02*
X125051472Y-91774999D01*
X128809826Y-103446059D02*
X130075001Y-102180884D01*
X131313894Y-97472500D02*
X130892500Y-97472500D01*
X130799999Y-95205000D02*
X130869999Y-95275000D01*
X130870000Y-95275000D02*
X130870000Y-95025761D01*
X125335000Y-104276800D02*
X125335000Y-102933200D01*
X122712500Y-104250000D02*
X123237500Y-104775000D01*
X130869999Y-95275000D02*
X130911396Y-95275000D01*
X130075000Y-98625000D02*
X131600000Y-100150000D01*
X128340685Y-91375000D02*
X126112500Y-91375000D01*
X130075001Y-102180884D02*
X130075001Y-101674999D01*
X118935000Y-92526800D02*
X119686801Y-91774999D01*
X131749999Y-96056542D02*
X131749999Y-97036396D01*
X125006800Y-102605000D02*
X122046800Y-102605000D01*
X130075000Y-98290000D02*
X130075000Y-98625000D01*
X122046800Y-102605000D02*
X120895000Y-101453200D01*
X123237500Y-104775000D02*
X124836800Y-104775000D01*
X130968457Y-95275000D02*
X131749999Y-96056542D01*
X125051472Y-91774999D02*
X125426471Y-91400000D01*
X130025000Y-104350000D02*
X129248200Y-104350000D01*
X129368200Y-91775000D02*
X128740685Y-91775000D01*
X125051472Y-92225001D02*
X125426471Y-92600000D01*
X129624999Y-101674999D02*
X128100000Y-100150000D01*
X128807500Y-97472500D02*
X129625000Y-98290000D01*
X119873199Y-92225001D02*
X122187501Y-92225001D01*
X128830000Y-95275000D02*
X128830000Y-95025762D01*
X125023200Y-105225000D02*
X125785000Y-104463200D01*
X127950000Y-96088604D02*
X128763604Y-95275000D01*
X125426471Y-92600000D02*
X125437500Y-92600000D01*
X119385000Y-95156800D02*
X119385000Y-92713200D01*
X127950001Y-97036396D02*
X127950000Y-96088604D01*
X128340685Y-92625000D02*
X126112500Y-92625000D01*
X128359826Y-104098026D02*
X128359826Y-103259659D01*
X122233200Y-102155000D02*
X121345000Y-101266800D01*
X129625000Y-98625000D02*
X129625000Y-98290000D01*
X128359826Y-103259659D02*
X129624999Y-101994486D01*
X130200000Y-104975000D02*
X130025000Y-104800000D01*
X128382500Y-97472500D02*
X128807500Y-97472500D01*
X121345000Y-101266800D02*
X121345000Y-97116800D01*
X125785000Y-104463200D02*
X125785000Y-102746800D01*
X128100000Y-100150000D02*
X129625000Y-98625000D01*
X125193200Y-102155000D02*
X122233200Y-102155000D01*
X125785000Y-102746800D02*
X125193200Y-102155000D01*
X121345000Y-97116800D02*
X119385000Y-95156800D01*
X119385000Y-92713200D02*
X119873199Y-92225001D01*
X128740685Y-92225000D02*
X128340685Y-92625000D01*
X128188605Y-97278605D02*
X128382500Y-97472500D01*
X129624999Y-94230762D02*
X129624999Y-92668199D01*
X128763604Y-95275000D02*
X128830000Y-95275000D01*
X128188605Y-97275000D02*
X128188605Y-97278605D01*
X130025000Y-104800000D02*
X129061800Y-104800000D01*
X128900001Y-95205000D02*
X128830001Y-95275000D01*
X122712500Y-105750000D02*
X123237500Y-105225000D01*
X123237499Y-92225001D02*
X125051472Y-92225001D01*
X123237500Y-105225000D02*
X125023200Y-105225000D01*
X122712500Y-92750000D02*
X123237499Y-92225001D01*
X129624999Y-92668199D02*
X129181800Y-92225000D01*
X122187501Y-92225001D02*
X122712500Y-92750000D01*
X129624999Y-101994486D02*
X129624999Y-101674999D01*
X129061800Y-104800000D02*
X128359826Y-104098026D01*
X126112500Y-92625000D02*
X125787500Y-92950000D01*
X128830000Y-95025762D02*
X129624999Y-94230762D01*
X128830001Y-95275000D02*
X128788604Y-95275000D01*
X127950001Y-97036396D02*
X128188605Y-97275000D01*
X125437500Y-92600000D02*
X125787500Y-92950000D01*
X129181800Y-92225000D02*
X128740685Y-92225000D01*
X169230000Y-105074238D02*
X170024999Y-105869237D01*
X170025000Y-101770000D02*
X170025000Y-101450000D01*
X168788602Y-102600000D02*
X169195000Y-102600000D01*
X169230000Y-104799999D02*
X169131543Y-104799999D01*
X180415700Y-108225001D02*
X181167500Y-107473200D01*
X168350000Y-104018456D02*
X168350000Y-103038602D01*
X175037500Y-108225001D02*
X174312501Y-108950000D01*
X169131543Y-104799999D02*
X168350000Y-104018456D01*
X175265700Y-95225001D02*
X176862501Y-95225001D01*
X174767500Y-97066800D02*
X174767500Y-95723200D01*
X181167500Y-107473200D02*
X181167500Y-104656800D01*
X177387500Y-108750000D02*
X177912499Y-108225001D01*
X170025000Y-101450000D02*
X168500000Y-99925000D01*
X169230000Y-104799999D02*
X169230000Y-105074238D01*
X176862501Y-108225001D02*
X175037500Y-108225001D01*
X171359317Y-108225001D02*
X170906801Y-108225001D01*
X171784316Y-108650000D02*
X171359317Y-108225001D01*
X174767500Y-95723200D02*
X175265700Y-95225001D01*
X179207500Y-98546799D02*
X178055700Y-97395000D01*
X170024999Y-107343199D02*
X170024999Y-105869237D01*
X178055700Y-97395000D02*
X175095700Y-97395000D01*
X176862501Y-95225001D02*
X177387500Y-95750000D01*
X174312501Y-108950000D02*
X174012501Y-108650000D01*
X168350000Y-103038602D02*
X168788602Y-102600000D01*
X179207499Y-102696800D02*
X179207500Y-98546799D01*
X170906801Y-108225001D02*
X170024999Y-107343199D01*
X177912499Y-108225001D02*
X180415700Y-108225001D01*
X177387500Y-108750000D02*
X176862501Y-108225001D01*
X169195000Y-102600000D02*
X170025000Y-101770000D01*
X181167500Y-104656800D02*
X179207499Y-102696800D01*
X174012501Y-108650000D02*
X171784316Y-108650000D01*
X175095700Y-97395000D02*
X174767500Y-97066800D01*
X171711398Y-102600000D02*
X171305000Y-102600000D01*
X178757500Y-102883200D02*
X178757500Y-98733200D01*
X174317500Y-97253200D02*
X174317500Y-95536800D01*
X178757500Y-98733200D02*
X177869300Y-97845000D01*
X177869300Y-97845000D02*
X174909300Y-97845000D01*
X174012501Y-107350000D02*
X171784316Y-107350000D01*
X180717500Y-104843200D02*
X178757500Y-102883200D01*
X176862501Y-107774999D02*
X175037500Y-107774999D01*
X171336397Y-104799999D02*
X172150000Y-103986396D01*
X175079301Y-94774999D02*
X176862501Y-94774999D01*
X177387500Y-107250000D02*
X176862501Y-107774999D01*
X176862501Y-94774999D02*
X177387500Y-94250000D01*
X174317500Y-95536800D02*
X175079301Y-94774999D01*
X170475000Y-101770000D02*
X170475000Y-101450000D01*
X180229301Y-107774999D02*
X180717500Y-107286800D01*
X172150000Y-103986396D02*
X172150000Y-103038602D01*
X172150000Y-103038602D02*
X171711398Y-102600000D01*
X171270000Y-105074238D02*
X170475001Y-105869237D01*
X171784316Y-107350000D02*
X171359317Y-107774999D01*
X174312501Y-107050000D02*
X174012501Y-107350000D01*
X177387500Y-107250000D02*
X177912499Y-107774999D01*
X175037500Y-107774999D02*
X174312501Y-107050000D01*
X180717500Y-107286800D02*
X180717500Y-104843200D01*
X171093199Y-107774999D02*
X170475001Y-107156801D01*
X170475000Y-101450000D02*
X172000000Y-99925000D01*
X171305000Y-102600000D02*
X170475000Y-101770000D01*
X171270000Y-104799999D02*
X171336397Y-104799999D01*
X170475001Y-107156801D02*
X170475001Y-105869237D01*
X171270000Y-104799999D02*
X171270000Y-105074238D01*
X177912499Y-107774999D02*
X180229301Y-107774999D01*
X171359317Y-107774999D02*
X171093199Y-107774999D01*
X174909300Y-97845000D02*
X174317500Y-97253200D01*
D117*
X138775000Y-94075000D02*
X139100000Y-93750000D01*
X140921573Y-93750000D02*
X143158742Y-95987169D01*
D112*
X135580000Y-95680000D02*
X134330000Y-94430000D01*
X138775000Y-94075000D02*
X137170000Y-95680000D01*
X137170000Y-95680000D02*
X135580000Y-95680000D01*
D117*
X139100000Y-93750000D02*
X140921573Y-93750000D01*
D112*
X134330000Y-94430000D02*
X134330000Y-93830001D01*
X131040000Y-88085000D02*
X130900000Y-88225000D01*
X125500000Y-88225000D02*
X125125000Y-87850000D01*
X125125000Y-87850000D02*
X125125000Y-87635000D01*
X133390000Y-89020000D02*
X133390000Y-91870001D01*
X132455000Y-88085000D02*
X133390000Y-89020000D01*
X133390000Y-91870001D02*
X134330000Y-92810001D01*
X131040000Y-88085000D02*
X132455000Y-88085000D01*
X130900000Y-88225000D02*
X125500000Y-88225000D01*
X132210000Y-93885000D02*
X132210000Y-93850000D01*
X137580000Y-96560000D02*
X134885000Y-96560000D01*
D117*
X139790000Y-94350000D02*
X140595745Y-94350000D01*
D112*
X142451635Y-96694276D02*
X141914504Y-96157145D01*
X141914504Y-96157145D02*
X141914504Y-95950000D01*
X134885000Y-96560000D02*
X132210000Y-93885000D01*
D117*
X141914504Y-95668759D02*
X141914504Y-95950000D01*
X139510000Y-94630000D02*
X139790000Y-94350000D01*
D112*
X139510000Y-94630000D02*
X137580000Y-96560000D01*
D117*
X140595745Y-94350000D02*
X141914504Y-95668759D01*
D112*
X132790000Y-92330000D02*
X133280000Y-92820000D01*
X131040000Y-89355000D02*
X132205000Y-89355000D01*
X132205000Y-89355000D02*
X132790000Y-89940000D01*
X130460000Y-88775000D02*
X124275000Y-88775000D01*
X131040000Y-89355000D02*
X130460000Y-88775000D01*
X124025000Y-88525000D02*
X124025000Y-87635000D01*
X132790000Y-89940000D02*
X132790000Y-92330000D01*
X124275000Y-88775000D02*
X124025000Y-88525000D01*
X136175000Y-102675000D02*
X136175000Y-103600000D01*
X140330315Y-101184404D02*
X139414719Y-102100000D01*
X136750000Y-102100000D02*
X136175000Y-102675000D01*
X139414719Y-102100000D02*
X136750000Y-102100000D01*
X138850000Y-105990000D02*
X136615000Y-105990000D01*
X139203933Y-103017892D02*
X139203933Y-105636067D01*
X136615000Y-105990000D02*
X136175000Y-105550000D01*
X140683868Y-101537957D02*
X139203933Y-103017892D01*
X139203933Y-105636067D02*
X138850000Y-105990000D01*
X133350000Y-93910000D02*
X133280000Y-93840000D01*
X133350000Y-94225000D02*
X133350000Y-93910000D01*
D117*
X142214504Y-95544495D02*
X142214504Y-95750037D01*
D112*
X137370000Y-96130000D02*
X135255000Y-96130000D01*
X139125000Y-94375000D02*
X137370000Y-96130000D01*
X135255000Y-96130000D02*
X133350000Y-94225000D01*
D117*
X140720009Y-94050000D02*
X142214504Y-95544495D01*
X139450000Y-94050000D02*
X140720009Y-94050000D01*
X139125000Y-94375000D02*
X139450000Y-94050000D01*
X142214504Y-95750037D02*
X142805189Y-96340722D01*
D112*
X130620000Y-90625000D02*
X129320000Y-89325000D01*
X132210000Y-90960000D02*
X132210000Y-92830000D01*
X131040000Y-90625000D02*
X130620000Y-90625000D01*
X123525000Y-89325000D02*
X122925000Y-88725000D01*
X131040000Y-90625000D02*
X131875000Y-90625000D01*
X131875000Y-90625000D02*
X132210000Y-90960000D01*
X122925000Y-88725000D02*
X122925000Y-87635000D01*
X129320000Y-89325000D02*
X123525000Y-89325000D01*
X172660000Y-93500000D02*
X173475000Y-93500000D01*
X174400000Y-90975000D02*
X174399999Y-90974999D01*
X173710000Y-91810000D02*
X173725000Y-91825000D01*
X166815000Y-92375000D02*
X166815000Y-91540001D01*
X166100000Y-93450000D02*
X166839999Y-93450000D01*
X174399999Y-90974999D02*
X173710000Y-90974999D01*
X166839999Y-93450000D02*
X166840000Y-93449999D01*
X173710000Y-90974999D02*
X173710000Y-91810000D01*
X166815000Y-91540001D02*
X166800000Y-91525001D01*
X172660001Y-94525001D02*
X173475000Y-94525001D01*
X166100000Y-92374999D02*
X166100001Y-92375000D01*
X166100001Y-92375000D02*
X166815000Y-92375000D01*
X174400000Y-89875000D02*
X173654999Y-89875000D01*
X166850000Y-93459999D02*
X166840000Y-93449999D01*
X173654999Y-89025001D02*
X173654999Y-89875000D01*
X129435000Y-86815000D02*
X131040000Y-86815000D01*
X126225000Y-87635000D02*
X128615000Y-87635000D01*
X132745000Y-86815000D02*
X131040000Y-86815000D01*
X134040000Y-91450000D02*
X134040000Y-88110000D01*
X135390000Y-92800000D02*
X134040000Y-91450000D01*
X128615000Y-87635000D02*
X129435000Y-86815000D01*
X134040000Y-88110000D02*
X132745000Y-86815000D01*
X135865000Y-95240000D02*
X135390000Y-94765000D01*
D117*
X142550000Y-94850000D02*
X141125000Y-93425000D01*
X138825000Y-93425000D02*
X138437500Y-93812500D01*
D112*
X137010000Y-95240000D02*
X135865000Y-95240000D01*
D117*
X143512295Y-95633616D02*
X143335519Y-95633616D01*
X141125000Y-93425000D02*
X138825000Y-93425000D01*
D112*
X135390000Y-94765000D02*
X135390000Y-93820000D01*
X138437500Y-93812500D02*
X137010000Y-95240000D01*
D117*
X142551903Y-94850000D02*
X142550000Y-94850000D01*
X143335519Y-95633616D02*
X142551903Y-94850000D01*
D112*
X133175001Y-104349999D02*
X132074999Y-104349999D01*
X132074999Y-104349999D02*
X131900000Y-104175000D01*
X133275000Y-104250000D02*
X133175001Y-104349999D01*
X132074999Y-104800001D02*
X131900000Y-104975000D01*
X133275000Y-104900000D02*
X133175001Y-104800001D01*
X133175001Y-104800001D02*
X132074999Y-104800001D01*
X163505044Y-105487689D02*
X163505044Y-105629110D01*
X164382342Y-104610389D02*
X163505044Y-105487689D01*
X164629828Y-104610389D02*
X164382342Y-104610389D01*
X164064143Y-104044704D02*
X164064143Y-104292190D01*
X164064143Y-104292190D02*
X163186845Y-105169490D01*
X163186845Y-105169490D02*
X163045424Y-105169490D01*
X163200000Y-118830000D02*
X163200000Y-117975000D01*
X155240000Y-115225000D02*
X163200000Y-115225000D01*
X153140000Y-113125000D02*
X155240000Y-115225000D01*
D114*
X165900000Y-116512500D02*
X165112500Y-117300000D01*
X165900000Y-113275000D02*
X165900000Y-116512500D01*
X165075000Y-112450000D02*
X165900000Y-113275000D01*
X165075000Y-115612500D02*
X165112500Y-115650000D01*
X165075000Y-114050000D02*
X165075000Y-115612500D01*
D111*
X161825000Y-114050000D02*
X163412500Y-114050000D01*
X163412500Y-114050000D02*
X163450000Y-114012500D01*
X160212500Y-114050000D02*
X160225000Y-114037500D01*
X158650000Y-114050000D02*
X160212500Y-114050000D01*
D112*
X159965281Y-98520000D02*
X159669685Y-98815596D01*
X162820000Y-98520000D02*
X159965281Y-98520000D01*
X138756471Y-106670000D02*
X141560950Y-103865521D01*
X141560950Y-103489303D02*
X142098082Y-102952171D01*
X141560950Y-103865521D02*
X141560950Y-103489303D01*
X128805000Y-106670000D02*
X138756471Y-106670000D01*
X128525000Y-106950000D02*
X128805000Y-106670000D01*
X173025000Y-96925000D02*
X172575000Y-96475000D01*
X172575000Y-96475000D02*
X164865000Y-96475000D01*
X173025000Y-98000000D02*
X173025000Y-96925000D01*
X164865000Y-96475000D02*
X163986726Y-97353274D01*
X176675000Y-100787500D02*
X175812500Y-100787500D01*
X175812500Y-100787500D02*
X173025000Y-98000000D01*
X126875000Y-106950000D02*
X127085000Y-106740000D01*
X124112500Y-99212500D02*
X123425000Y-99212500D01*
X127085000Y-102185000D02*
X124112500Y-99212500D01*
X127085000Y-106740000D02*
X127085000Y-102185000D01*
D111*
X179080000Y-129225000D02*
X179225000Y-129225000D01*
X179225000Y-129225000D02*
X182200000Y-132200000D01*
X116000000Y-129255000D02*
X116000000Y-130400000D01*
X116000000Y-130400000D02*
X117800000Y-132200000D01*
X184200000Y-70745000D02*
X184200000Y-69800000D01*
X184200000Y-69800000D02*
X182200000Y-67800000D01*
X115800000Y-70745000D02*
X115800000Y-69800000D01*
X115800000Y-69800000D02*
X117800000Y-67800000D01*
G04 #@! TA.AperFunction,Conductor*
G36*
X170013000Y-92009914D02*
G01*
X170040086Y-92037000D01*
X170050000Y-92074000D01*
X170049999Y-92576000D01*
X170040085Y-92613000D01*
X170012999Y-92640086D01*
X169975999Y-92650000D01*
X169725000Y-92650000D01*
X168721674Y-93653326D01*
X168697667Y-93669367D01*
X168669348Y-93675000D01*
X168624000Y-93675000D01*
X168587000Y-93665086D01*
X168559914Y-93638000D01*
X168550000Y-93601000D01*
X168550000Y-93005651D01*
X168555633Y-92977332D01*
X168571674Y-92953325D01*
X169503326Y-92021674D01*
X169527333Y-92005633D01*
X169555652Y-92000000D01*
X169976000Y-92000000D01*
X170013000Y-92009914D01*
G37*
G04 #@! TD.AperFunction*
G04 #@! TA.AperFunction,Conductor*
G36*
X169972667Y-90180633D02*
G01*
X169996674Y-90196674D01*
X170078326Y-90278327D01*
X170094367Y-90302335D01*
X170100000Y-90330653D01*
X170100000Y-90769348D01*
X170094367Y-90797667D01*
X170078326Y-90821674D01*
X170021674Y-90878326D01*
X169997667Y-90894367D01*
X169969348Y-90900000D01*
X168655652Y-90900000D01*
X168627333Y-90894367D01*
X168603326Y-90878326D01*
X168371674Y-90646674D01*
X168355633Y-90622667D01*
X168350000Y-90594348D01*
X168350000Y-90280652D01*
X168355633Y-90252333D01*
X168371674Y-90228326D01*
X168403326Y-90196674D01*
X168427333Y-90180633D01*
X168455652Y-90175000D01*
X169944348Y-90175000D01*
X169972667Y-90180633D01*
G37*
G04 #@! TD.AperFunction*
G04 #@! TA.AperFunction,Conductor*
G36*
X162687000Y-121866881D02*
G01*
X162733119Y-121913000D01*
X162750000Y-121976000D01*
X162750000Y-125072810D01*
X162740409Y-125121028D01*
X162713095Y-125161905D01*
X162186905Y-125688095D01*
X162146028Y-125715409D01*
X162097810Y-125725000D01*
X160902190Y-125725000D01*
X160853972Y-125715409D01*
X160813095Y-125688095D01*
X160286905Y-125161905D01*
X160259591Y-125121028D01*
X160250000Y-125072810D01*
X160250000Y-121976000D01*
X160266881Y-121913000D01*
X160313000Y-121866881D01*
X160376000Y-121850000D01*
X162624000Y-121850000D01*
X162687000Y-121866881D01*
G37*
G04 #@! TD.AperFunction*
G04 #@! TA.AperFunction,Conductor*
G36*
X160068731Y-99832294D02*
G01*
X160109608Y-99859608D01*
X161838920Y-101588920D01*
X161866234Y-101629797D01*
X161875825Y-101678015D01*
X161875825Y-101784783D01*
X161865911Y-101833773D01*
X161837730Y-101875052D01*
X161438037Y-102264271D01*
X161397576Y-102290726D01*
X161350132Y-102300000D01*
X161077190Y-102300000D01*
X161028972Y-102290409D01*
X160988097Y-102263097D01*
X160750000Y-102025000D01*
X160351047Y-102025000D01*
X160302829Y-102015409D01*
X160261952Y-101988095D01*
X159543437Y-101269580D01*
X159067660Y-100793804D01*
X159035048Y-100737319D01*
X159035048Y-100672097D01*
X159067658Y-100615614D01*
X159823666Y-99859607D01*
X159864544Y-99832294D01*
X159912762Y-99822703D01*
X160020513Y-99822703D01*
X160068731Y-99832294D01*
G37*
G04 #@! TD.AperFunction*
G04 #@! TA.AperFunction,Conductor*
G36*
X148175248Y-110750248D02*
G01*
X148934683Y-111509683D01*
X149334683Y-111509682D01*
X150045789Y-110798576D01*
X150102181Y-110765992D01*
X150167312Y-110765919D01*
X150223777Y-110798378D01*
X150668240Y-111240853D01*
X151137396Y-111707912D01*
X151164855Y-111748859D01*
X151174500Y-111797207D01*
X151174500Y-111873310D01*
X151164909Y-111921528D01*
X151137595Y-111962406D01*
X150179195Y-112920803D01*
X150138577Y-112948008D01*
X150090662Y-112957706D01*
X149102282Y-112962113D01*
X149053762Y-112952630D01*
X149012625Y-112925210D01*
X147884621Y-111797207D01*
X147506456Y-111419043D01*
X147473845Y-111362559D01*
X147473845Y-111297337D01*
X147506455Y-111240855D01*
X147997060Y-110750249D01*
X148053544Y-110717638D01*
X148118766Y-110717638D01*
X148175248Y-110750248D01*
G37*
G04 #@! TD.AperFunction*
G04 #@! TA.AperFunction,Conductor*
G36*
X167675000Y-95975001D02*
G01*
X167302190Y-95975001D01*
X167253972Y-95965410D01*
X167213095Y-95938096D01*
X165786905Y-94511906D01*
X165759591Y-94471029D01*
X165750000Y-94422811D01*
X165750000Y-94150001D01*
X167675000Y-94150001D01*
X167675000Y-95975001D01*
G37*
G04 #@! TD.AperFunction*
G04 #@! TA.AperFunction,Conductor*
G36*
X138368830Y-97021774D02*
G01*
X139309432Y-97962376D01*
X139342044Y-98018860D01*
X139342044Y-98084082D01*
X139309433Y-98140566D01*
X138550000Y-98899999D01*
X138550000Y-99299999D01*
X138550001Y-99300000D01*
X139261029Y-100011030D01*
X139293625Y-100067458D01*
X139293670Y-100132623D01*
X139261152Y-100189096D01*
X138583151Y-100868985D01*
X138543852Y-100895703D01*
X138497451Y-100905965D01*
X137970805Y-100920681D01*
X137920698Y-100911801D01*
X137878190Y-100883825D01*
X137138879Y-100144513D01*
X137111674Y-100103895D01*
X137101976Y-100055983D01*
X137093574Y-98171592D01*
X137103057Y-98123073D01*
X137130476Y-98081938D01*
X138190640Y-97021773D01*
X138247124Y-96989162D01*
X138312346Y-96989162D01*
X138368830Y-97021774D01*
G37*
G04 #@! TD.AperFunction*
G04 #@! TA.AperFunction,Conductor*
G36*
X173025000Y-92175000D02*
G01*
X172275000Y-92175000D01*
X171900000Y-91800000D01*
X171300000Y-91800000D01*
X171300000Y-91530881D01*
X171305881Y-91525000D01*
X173025000Y-91525000D01*
X173025000Y-92175000D01*
G37*
G04 #@! TD.AperFunction*
G04 #@! TA.AperFunction,Conductor*
G36*
X137646878Y-111707536D02*
G01*
X137678996Y-111728996D01*
X138396004Y-112446004D01*
X138417464Y-112478122D01*
X138425000Y-112516008D01*
X138425000Y-114333992D01*
X138417464Y-114371878D01*
X138396004Y-114403996D01*
X137678996Y-115121004D01*
X137646878Y-115142464D01*
X137608992Y-115150000D01*
X136316008Y-115150000D01*
X136278122Y-115142464D01*
X136246004Y-115121004D01*
X134950000Y-113825000D01*
X134949999Y-113825000D01*
X134099000Y-113825000D01*
X134049500Y-113811737D01*
X134013263Y-113775500D01*
X134000000Y-113726000D01*
X134000000Y-112574000D01*
X134013263Y-112524500D01*
X134049500Y-112488263D01*
X134099000Y-112475000D01*
X134499999Y-112475000D01*
X134500000Y-112475000D01*
X134500000Y-111799000D01*
X134513263Y-111749500D01*
X134549500Y-111713263D01*
X134599000Y-111700000D01*
X137608992Y-111700000D01*
X137646878Y-111707536D01*
G37*
G04 #@! TD.AperFunction*
G04 #@! TA.AperFunction,Conductor*
G36*
X168450000Y-90725000D02*
G01*
X168449000Y-90725000D01*
X168412000Y-90715086D01*
X168384914Y-90688000D01*
X168375000Y-90651000D01*
X168375000Y-90650000D01*
X168450000Y-90725000D01*
G37*
G04 #@! TD.AperFunction*
G04 #@! TA.AperFunction,Conductor*
G36*
X169996674Y-90196674D02*
G01*
X170064591Y-90264591D01*
X170064591Y-90264592D01*
X169996674Y-90196674D01*
G37*
G04 #@! TD.AperFunction*
G04 #@! TA.AperFunction,Conductor*
G36*
X168375000Y-90225000D02*
G01*
X168375000Y-90224998D01*
X168376789Y-90220681D01*
X168404044Y-90187471D01*
X168416223Y-90183776D01*
X168375000Y-90225000D01*
G37*
G04 #@! TD.AperFunction*
G04 #@! TA.AperFunction,Conductor*
G36*
X170597667Y-86980634D02*
G01*
X170621674Y-86996675D01*
X171128326Y-87503327D01*
X171144367Y-87527334D01*
X171150000Y-87555653D01*
X171150000Y-88850001D01*
X171425000Y-89125001D01*
X171851000Y-89125001D01*
X171888000Y-89134915D01*
X171915086Y-89162001D01*
X171925000Y-89199001D01*
X171925000Y-89669349D01*
X171919367Y-89697668D01*
X171903326Y-89721675D01*
X171821674Y-89803327D01*
X171797667Y-89819368D01*
X171769348Y-89825001D01*
X171025000Y-89825001D01*
X170747902Y-90102097D01*
X170736689Y-90111299D01*
X170691495Y-90141496D01*
X170661296Y-90186693D01*
X170652095Y-90197905D01*
X170600000Y-90250001D01*
X170600000Y-90776001D01*
X170590086Y-90813001D01*
X170563000Y-90840087D01*
X170526000Y-90850001D01*
X170374000Y-90850001D01*
X170337000Y-90840087D01*
X170309914Y-90813001D01*
X170300000Y-90776001D01*
X170300000Y-90250001D01*
X169925000Y-89875001D01*
X167430652Y-89875001D01*
X167402333Y-89869368D01*
X167378326Y-89853327D01*
X167071674Y-89546675D01*
X167055633Y-89522668D01*
X167050000Y-89494349D01*
X167050000Y-87555653D01*
X167055633Y-87527334D01*
X167071674Y-87503327D01*
X167578326Y-86996675D01*
X167602333Y-86980634D01*
X167630652Y-86975001D01*
X170569348Y-86975001D01*
X170597667Y-86980634D01*
G37*
G04 #@! TD.AperFunction*
G04 #@! TA.AperFunction,Conductor*
G36*
X170463000Y-123009914D02*
G01*
X170490086Y-123037000D01*
X170500000Y-123074000D01*
X170500000Y-123544348D01*
X170494367Y-123572667D01*
X170478326Y-123596674D01*
X170000000Y-124075000D01*
X170000000Y-124901000D01*
X169990086Y-124938000D01*
X169963000Y-124965086D01*
X169926000Y-124975000D01*
X169674000Y-124975000D01*
X169637000Y-124965086D01*
X169609914Y-124938000D01*
X169600000Y-124901000D01*
X169600000Y-124050000D01*
X169350000Y-123800000D01*
X169080652Y-123800000D01*
X169052333Y-123794367D01*
X169028326Y-123778326D01*
X168871674Y-123621674D01*
X168855633Y-123597667D01*
X168850000Y-123569348D01*
X168850000Y-123074000D01*
X168859914Y-123037000D01*
X168887000Y-123009914D01*
X168924000Y-123000000D01*
X170426000Y-123000000D01*
X170463000Y-123009914D01*
G37*
G04 #@! TD.AperFunction*
G04 #@! TA.AperFunction,Conductor*
G36*
X166999500Y-121854381D02*
G01*
X167045619Y-121900500D01*
X167062500Y-121963500D01*
X167062500Y-125060310D01*
X167052909Y-125108528D01*
X167025595Y-125149405D01*
X166499405Y-125675595D01*
X166458528Y-125702909D01*
X166410310Y-125712500D01*
X165214690Y-125712500D01*
X165166472Y-125702909D01*
X165125595Y-125675595D01*
X164599405Y-125149405D01*
X164572091Y-125108528D01*
X164562500Y-125060310D01*
X164562500Y-121963500D01*
X164579381Y-121900500D01*
X164625500Y-121854381D01*
X164688500Y-121837500D01*
X166936500Y-121837500D01*
X166999500Y-121854381D01*
G37*
G04 #@! TD.AperFunction*
G04 #@! TA.AperFunction,Conductor*
G36*
X171557167Y-113455587D02*
G01*
X171581113Y-113471504D01*
X171633951Y-113524000D01*
X172503156Y-114387598D01*
X172519321Y-114411664D01*
X172525000Y-114440093D01*
X172525000Y-115219348D01*
X172519367Y-115247667D01*
X172503326Y-115271674D01*
X172471674Y-115303326D01*
X172447667Y-115319367D01*
X172419348Y-115325000D01*
X171749000Y-115325000D01*
X171712000Y-115315086D01*
X171684914Y-115288000D01*
X171675000Y-115251000D01*
X171675000Y-114400000D01*
X171349000Y-114400000D01*
X171312000Y-114390086D01*
X171284914Y-114363000D01*
X171275000Y-114326000D01*
X171275000Y-113524000D01*
X171284914Y-113487000D01*
X171312000Y-113459914D01*
X171349000Y-113450000D01*
X171528959Y-113450000D01*
X171557167Y-113455587D01*
G37*
G04 #@! TD.AperFunction*
G04 #@! TA.AperFunction,Conductor*
G36*
X132800000Y-111688263D02*
G01*
X132836236Y-111724500D01*
X132849500Y-111774000D01*
X132849500Y-112264401D01*
X132850000Y-112269468D01*
X132850000Y-112450000D01*
X132850001Y-112450000D01*
X132990249Y-112450000D01*
X133009562Y-112451902D01*
X133052789Y-112460500D01*
X133247210Y-112460499D01*
X133290436Y-112451901D01*
X133309747Y-112450000D01*
X133499999Y-112450000D01*
X133500000Y-112450000D01*
X133500000Y-111774000D01*
X133513263Y-111724500D01*
X133549500Y-111688263D01*
X133599000Y-111675000D01*
X133701000Y-111675000D01*
X133750500Y-111688263D01*
X133786737Y-111724500D01*
X133800000Y-111774000D01*
X133800000Y-113576000D01*
X133786737Y-113625500D01*
X133750500Y-113661737D01*
X133701000Y-113675000D01*
X133599000Y-113675000D01*
X133549500Y-113661737D01*
X133513263Y-113625500D01*
X133500000Y-113576000D01*
X133500000Y-112950001D01*
X133500000Y-112950000D01*
X133499999Y-112950000D01*
X133309751Y-112950000D01*
X133290438Y-112948098D01*
X133277823Y-112945588D01*
X133247210Y-112939500D01*
X133052789Y-112939500D01*
X133013006Y-112947413D01*
X133009563Y-112948098D01*
X132990253Y-112950000D01*
X132850001Y-112950000D01*
X132850000Y-112950000D01*
X132850000Y-112950001D01*
X132850000Y-113130526D01*
X132849500Y-113135603D01*
X132849500Y-113229530D01*
X132848653Y-113242451D01*
X132844500Y-113273999D01*
X132844500Y-113764492D01*
X132836964Y-113802378D01*
X132815504Y-113834496D01*
X131553996Y-115096004D01*
X131521878Y-115117464D01*
X131483992Y-115125000D01*
X130191008Y-115125000D01*
X130153122Y-115117464D01*
X130121004Y-115096004D01*
X129403996Y-114378996D01*
X129382536Y-114346878D01*
X129375000Y-114308992D01*
X129375000Y-112491008D01*
X129382536Y-112453122D01*
X129403996Y-112421004D01*
X130121004Y-111703996D01*
X130153122Y-111682536D01*
X130191008Y-111675000D01*
X132750500Y-111675000D01*
X132800000Y-111688263D01*
G37*
G04 #@! TD.AperFunction*
G04 #@! TA.AperFunction,Conductor*
G36*
X168537000Y-119616881D02*
G01*
X168583119Y-119663000D01*
X168600000Y-119726000D01*
X168600000Y-120813500D01*
X168583119Y-120876500D01*
X168537001Y-120922619D01*
X168474001Y-120939500D01*
X168352791Y-120939500D01*
X168312169Y-120947580D01*
X168287591Y-120950000D01*
X168100000Y-120950000D01*
X168100000Y-121674000D01*
X168083119Y-121737000D01*
X168037000Y-121783119D01*
X167974000Y-121800000D01*
X167327190Y-121800000D01*
X167278972Y-121790409D01*
X167238097Y-121763097D01*
X166875000Y-121400000D01*
X166026000Y-121400000D01*
X165963000Y-121383119D01*
X165916881Y-121337000D01*
X165900000Y-121274000D01*
X165900000Y-119776000D01*
X165916881Y-119713000D01*
X165963000Y-119666881D01*
X166026000Y-119650000D01*
X167247810Y-119650000D01*
X167296028Y-119659591D01*
X167336905Y-119686905D01*
X167612595Y-119962595D01*
X167639909Y-120003472D01*
X167649500Y-120051689D01*
X167649500Y-120267058D01*
X167650000Y-120272127D01*
X167650000Y-120450000D01*
X167787591Y-120450000D01*
X167812171Y-120452420D01*
X167852789Y-120460500D01*
X168047210Y-120460499D01*
X168087831Y-120452419D01*
X168112409Y-120450000D01*
X168300000Y-120450000D01*
X168300000Y-119726000D01*
X168316881Y-119663000D01*
X168363000Y-119616881D01*
X168426000Y-119600000D01*
X168474000Y-119600000D01*
X168537000Y-119616881D01*
G37*
G04 #@! TD.AperFunction*
G04 #@! TA.AperFunction,Conductor*
G36*
X133250500Y-113188263D02*
G01*
X133286737Y-113224500D01*
X133300000Y-113274000D01*
X133300000Y-113750000D01*
X133375014Y-113825015D01*
X133387325Y-113840016D01*
X133406785Y-113869139D01*
X133412423Y-113877577D01*
X133431001Y-113889991D01*
X133463310Y-113925638D01*
X133475000Y-113972306D01*
X133475000Y-114550000D01*
X133875000Y-114950000D01*
X135483992Y-114950000D01*
X135521878Y-114957536D01*
X135553996Y-114978995D01*
X136075000Y-115500000D01*
X137060992Y-115500000D01*
X137115993Y-115516685D01*
X137152456Y-115561114D01*
X137158090Y-115618314D01*
X137130996Y-115669004D01*
X136478996Y-116321004D01*
X136446878Y-116342464D01*
X136408992Y-116350000D01*
X131416008Y-116350000D01*
X131378122Y-116342464D01*
X131346004Y-116321004D01*
X130694004Y-115669004D01*
X130666910Y-115618314D01*
X130672544Y-115561114D01*
X130709007Y-115516685D01*
X130764008Y-115500000D01*
X131649999Y-115500000D01*
X131650000Y-115500000D01*
X133000000Y-114150000D01*
X133000000Y-113274000D01*
X133013263Y-113224500D01*
X133049500Y-113188263D01*
X133099000Y-113175000D01*
X133201000Y-113175000D01*
X133250500Y-113188263D01*
G37*
G04 #@! TD.AperFunction*
G04 #@! TA.AperFunction,Conductor*
G36*
X149535242Y-108961673D02*
G01*
X149576119Y-108988987D01*
X150338095Y-109750963D01*
X150365409Y-109791840D01*
X150375000Y-109840058D01*
X150375000Y-109947810D01*
X150365409Y-109996028D01*
X150338095Y-110036905D01*
X149249878Y-111125121D01*
X149208920Y-111152469D01*
X149160607Y-111162026D01*
X149043292Y-111161862D01*
X148995168Y-111152237D01*
X148954372Y-111124957D01*
X148143384Y-110313968D01*
X148110773Y-110257484D01*
X148110773Y-110192262D01*
X148143385Y-110135777D01*
X149290178Y-108988986D01*
X149331055Y-108961673D01*
X149379273Y-108952082D01*
X149487024Y-108952082D01*
X149535242Y-108961673D01*
G37*
G04 #@! TD.AperFunction*
G04 #@! TA.AperFunction,Conductor*
G36*
X169037000Y-119616881D02*
G01*
X169083119Y-119663000D01*
X169100000Y-119726000D01*
X169100000Y-120450000D01*
X169287591Y-120450000D01*
X169312171Y-120452420D01*
X169352789Y-120460500D01*
X169547210Y-120460499D01*
X169587831Y-120452419D01*
X169612409Y-120450000D01*
X169624999Y-120450000D01*
X169625000Y-120450000D01*
X169648207Y-120426792D01*
X169667287Y-120411133D01*
X169687577Y-120397577D01*
X169701136Y-120377283D01*
X169716790Y-120358209D01*
X170188095Y-119886904D01*
X170228973Y-119859591D01*
X170277191Y-119850000D01*
X171272810Y-119850000D01*
X171321028Y-119859591D01*
X171361905Y-119886905D01*
X171538095Y-120063095D01*
X171565409Y-120103972D01*
X171575000Y-120152190D01*
X171575000Y-121172838D01*
X171565409Y-121221056D01*
X171538095Y-121261933D01*
X171472793Y-121327234D01*
X171442796Y-121395170D01*
X171416629Y-121433369D01*
X170936905Y-121913095D01*
X170896027Y-121940409D01*
X170847809Y-121950000D01*
X169876000Y-121950000D01*
X169813000Y-121933119D01*
X169766881Y-121887000D01*
X169750000Y-121824000D01*
X169750000Y-121752133D01*
X169750499Y-121747054D01*
X169750499Y-121737216D01*
X169750500Y-121737211D01*
X169750499Y-121142790D01*
X169750499Y-121142789D01*
X169750499Y-121132940D01*
X169750000Y-121127873D01*
X169750000Y-120950000D01*
X169612409Y-120950000D01*
X169587828Y-120947579D01*
X169547210Y-120939500D01*
X169352791Y-120939500D01*
X169312169Y-120947580D01*
X169287591Y-120950000D01*
X169100000Y-120950000D01*
X169100000Y-121674000D01*
X169083119Y-121737000D01*
X169037000Y-121783119D01*
X168974000Y-121800000D01*
X168926500Y-121800000D01*
X168863500Y-121783119D01*
X168817381Y-121737000D01*
X168800500Y-121674000D01*
X168800500Y-121559571D01*
X168803255Y-121542679D01*
X168802772Y-121532237D01*
X168802773Y-121532236D01*
X168800634Y-121485964D01*
X168800500Y-121480147D01*
X168800500Y-121453193D01*
X168800000Y-121447800D01*
X168800000Y-119726000D01*
X168816881Y-119663000D01*
X168863000Y-119616881D01*
X168926000Y-119600000D01*
X168974000Y-119600000D01*
X169037000Y-119616881D01*
G37*
G04 #@! TD.AperFunction*
G04 #@! TA.AperFunction,Conductor*
G36*
X139853386Y-98123789D02*
G01*
X139893371Y-98161856D01*
X139904189Y-98178046D01*
X139904192Y-98178049D01*
X141031813Y-99305670D01*
X141059127Y-99346547D01*
X141068718Y-99394765D01*
X141068718Y-99479092D01*
X141059127Y-99527310D01*
X141031813Y-99568187D01*
X140269837Y-100330163D01*
X140228960Y-100357477D01*
X140180742Y-100367068D01*
X140072990Y-100367068D01*
X140024772Y-100357477D01*
X139983895Y-100330163D01*
X138895678Y-99241946D01*
X138868331Y-99200988D01*
X138858773Y-99152679D01*
X138858937Y-99035358D01*
X138868562Y-98987238D01*
X138895839Y-98946444D01*
X139699517Y-98142766D01*
X139746162Y-98113229D01*
X139800960Y-98106470D01*
X139853386Y-98123789D01*
G37*
G04 #@! TD.AperFunction*
G04 #@! TA.AperFunction,Conductor*
G36*
X172912000Y-89566882D02*
G01*
X172958119Y-89613001D01*
X172975000Y-89676001D01*
X172975000Y-90074001D01*
X172958119Y-90137001D01*
X172912000Y-90183120D01*
X172849000Y-90200001D01*
X172550000Y-90200001D01*
X171887403Y-90862597D01*
X171846529Y-90889909D01*
X171798311Y-90899500D01*
X171476689Y-90899500D01*
X171428471Y-90889909D01*
X171387594Y-90862595D01*
X171337405Y-90812406D01*
X171310091Y-90771529D01*
X171300500Y-90723311D01*
X171300500Y-90376001D01*
X171317381Y-90313001D01*
X171363500Y-90266882D01*
X171426500Y-90250001D01*
X171699999Y-90250001D01*
X171700000Y-90250001D01*
X172363097Y-89586903D01*
X172403972Y-89559592D01*
X172452190Y-89550001D01*
X172849000Y-89550001D01*
X172912000Y-89566882D01*
G37*
G04 #@! TD.AperFunction*
G04 #@! TA.AperFunction,Conductor*
G36*
X148547785Y-87735017D02*
G01*
X148588662Y-87762331D01*
X149133052Y-88306721D01*
X149160347Y-88347553D01*
X149169957Y-88395718D01*
X149171117Y-89883563D01*
X149171278Y-90090657D01*
X149423953Y-90343332D01*
X149451265Y-90384207D01*
X149460856Y-90432425D01*
X149460856Y-90768730D01*
X149451265Y-90816949D01*
X149423953Y-90857822D01*
X149373771Y-90908004D01*
X149373771Y-90908005D01*
X149317286Y-90940616D01*
X149252064Y-90940616D01*
X149195581Y-90908004D01*
X148208045Y-89920468D01*
X148180731Y-89879591D01*
X148171140Y-89831373D01*
X148171140Y-89478006D01*
X148180731Y-89429788D01*
X148208045Y-89388911D01*
X148223771Y-89373184D01*
X148223770Y-89373184D01*
X148223775Y-89373180D01*
X148254223Y-89333501D01*
X148295292Y-89220663D01*
X148295292Y-89100585D01*
X148279850Y-89058159D01*
X148254223Y-88987746D01*
X148223778Y-88948071D01*
X147926929Y-88651223D01*
X147892311Y-88624658D01*
X147879923Y-88613793D01*
X147860343Y-88594213D01*
X147835684Y-88559303D01*
X147824116Y-88518161D01*
X147797169Y-88259171D01*
X147803323Y-88205213D01*
X147831617Y-88158857D01*
X148207787Y-87767214D01*
X148209404Y-87765565D01*
X148212653Y-87762316D01*
X148253525Y-87735013D01*
X148301734Y-87725426D01*
X148499567Y-87725426D01*
X148547785Y-87735017D01*
G37*
G04 #@! TD.AperFunction*
G04 #@! TA.AperFunction,Conductor*
G36*
X171063000Y-92034915D02*
G01*
X171090086Y-92062001D01*
X171100000Y-92099001D01*
X171100000Y-93800001D01*
X171500000Y-94200001D01*
X171869348Y-94200001D01*
X171897667Y-94205634D01*
X171921674Y-94221675D01*
X171978326Y-94278327D01*
X171994367Y-94302334D01*
X172000000Y-94330653D01*
X172000000Y-95294349D01*
X171994367Y-95322668D01*
X171978326Y-95346675D01*
X171371674Y-95953327D01*
X171347667Y-95969368D01*
X171319348Y-95975001D01*
X169255652Y-95975001D01*
X169227333Y-95969368D01*
X169203326Y-95953327D01*
X168596674Y-95346675D01*
X168580633Y-95322668D01*
X168575000Y-95294349D01*
X168575000Y-94355653D01*
X168580633Y-94327334D01*
X168596674Y-94303327D01*
X168878326Y-94021675D01*
X168902333Y-94005634D01*
X168930652Y-94000001D01*
X169325000Y-94000001D01*
X169550000Y-93775001D01*
X169550000Y-93230653D01*
X169555633Y-93202334D01*
X169571674Y-93178327D01*
X169603326Y-93146675D01*
X169627333Y-93130634D01*
X169655652Y-93125001D01*
X170324999Y-93125001D01*
X170325000Y-93125001D01*
X170652102Y-92797898D01*
X170663299Y-92788709D01*
X170708504Y-92758505D01*
X170738710Y-92713297D01*
X170747896Y-92702104D01*
X170800000Y-92650001D01*
X170800000Y-92099001D01*
X170809914Y-92062001D01*
X170837000Y-92034915D01*
X170874000Y-92025001D01*
X171026000Y-92025001D01*
X171063000Y-92034915D01*
G37*
G04 #@! TD.AperFunction*
G04 #@! TA.AperFunction,Conductor*
G36*
X171872667Y-92030633D02*
G01*
X171896674Y-92046674D01*
X171953326Y-92103326D01*
X171969367Y-92127333D01*
X171975000Y-92155652D01*
X171975000Y-93476000D01*
X171965086Y-93513000D01*
X171938000Y-93540086D01*
X171901000Y-93550000D01*
X171499000Y-93550000D01*
X171462000Y-93540086D01*
X171434914Y-93513000D01*
X171425000Y-93476000D01*
X171425000Y-92725000D01*
X171321673Y-92621674D01*
X171305632Y-92597667D01*
X171299999Y-92569348D01*
X171299999Y-92105651D01*
X171305633Y-92077330D01*
X171321674Y-92053325D01*
X171328330Y-92046668D01*
X171352335Y-92030632D01*
X171380651Y-92025000D01*
X171844348Y-92025000D01*
X171872667Y-92030633D01*
G37*
G04 #@! TD.AperFunction*
G04 #@! TA.AperFunction,Conductor*
G36*
X162135323Y-99205167D02*
G01*
X162176197Y-99232478D01*
X163141085Y-100197367D01*
X163168397Y-100238242D01*
X163177988Y-100286460D01*
X163177988Y-101919821D01*
X163168397Y-101968039D01*
X163141083Y-102008916D01*
X161542837Y-103607163D01*
X161501960Y-103634477D01*
X161453742Y-103644068D01*
X161242436Y-103644068D01*
X161194218Y-103634477D01*
X161153341Y-103607163D01*
X160232719Y-102686541D01*
X160200163Y-102630265D01*
X160199997Y-102565251D01*
X160232262Y-102508809D01*
X160441219Y-102297699D01*
X160480954Y-102270604D01*
X160527947Y-102260371D01*
X160547102Y-102259943D01*
X160596830Y-102268972D01*
X160639009Y-102296815D01*
X161120792Y-102778598D01*
X161349345Y-102778598D01*
X162139296Y-101988649D01*
X162139295Y-101422963D01*
X162139294Y-101422961D01*
X160941688Y-100225356D01*
X160909125Y-100169052D01*
X160908980Y-100104010D01*
X160941292Y-100047563D01*
X161748770Y-99232876D01*
X161789783Y-99205275D01*
X161838260Y-99195576D01*
X162087105Y-99195576D01*
X162135323Y-99205167D01*
G37*
G04 #@! TD.AperFunction*
G04 #@! TA.AperFunction,Conductor*
G36*
X173246028Y-86984592D02*
G01*
X173286905Y-87011906D01*
X174713095Y-88438096D01*
X174740409Y-88478973D01*
X174750000Y-88527191D01*
X174750000Y-94422811D01*
X174740409Y-94471029D01*
X174713095Y-94511906D01*
X173286905Y-95938096D01*
X173246028Y-95965410D01*
X173197810Y-95975001D01*
X171944810Y-95975001D01*
X171887607Y-95961268D01*
X171842874Y-95923062D01*
X171820361Y-95868712D01*
X171824977Y-95810065D01*
X171855713Y-95759907D01*
X172123636Y-95491985D01*
X172149193Y-95460845D01*
X172165234Y-95436838D01*
X172184940Y-95389260D01*
X172221033Y-95340395D01*
X172275798Y-95314097D01*
X172336502Y-95316482D01*
X172406001Y-95336674D01*
X172406001Y-94779001D01*
X172914001Y-94779001D01*
X172914001Y-95336674D01*
X173059396Y-95294432D01*
X173200324Y-95211088D01*
X173316088Y-95095324D01*
X173399431Y-94954397D01*
X173445109Y-94797175D01*
X173446540Y-94779001D01*
X172914001Y-94779001D01*
X172406001Y-94779001D01*
X172406001Y-94305813D01*
X172406000Y-94305808D01*
X172406000Y-93754000D01*
X172914001Y-93754000D01*
X172914001Y-94271001D01*
X173446539Y-94271001D01*
X173445109Y-94252824D01*
X173399432Y-94095603D01*
X173388216Y-94076639D01*
X173370669Y-94012498D01*
X173388217Y-93948357D01*
X173399431Y-93929395D01*
X173445108Y-93772176D01*
X173446539Y-93754000D01*
X172914001Y-93754000D01*
X172406000Y-93754000D01*
X172406000Y-92688327D01*
X172341653Y-92707022D01*
X172283863Y-92709975D01*
X172234370Y-92688326D01*
X172913999Y-92688326D01*
X172914000Y-92688327D01*
X172914000Y-93246000D01*
X173446538Y-93246000D01*
X173445108Y-93227825D01*
X173399430Y-93070603D01*
X173316087Y-92929676D01*
X173200323Y-92813912D01*
X173059395Y-92730568D01*
X172913999Y-92688326D01*
X172234370Y-92688326D01*
X172230847Y-92686785D01*
X172193787Y-92642344D01*
X172180500Y-92586025D01*
X172180500Y-92287665D01*
X172193828Y-92231265D01*
X172230991Y-92186796D01*
X172262905Y-92162905D01*
X172275000Y-92175000D01*
X173025000Y-92175000D01*
X173025000Y-91525000D01*
X172504523Y-91525000D01*
X172516113Y-91519882D01*
X172543857Y-91511290D01*
X172550433Y-91510061D01*
X172550433Y-91510060D01*
X172573586Y-91505733D01*
X172573598Y-91505799D01*
X172609801Y-91495499D01*
X172864317Y-91495499D01*
X172932149Y-91486569D01*
X172980780Y-91489671D01*
X173024598Y-91510994D01*
X173057047Y-91547349D01*
X173062892Y-91557232D01*
X173177767Y-91672107D01*
X173317601Y-91754805D01*
X173456000Y-91795014D01*
X173456000Y-91228999D01*
X173964000Y-91228999D01*
X173964000Y-91795014D01*
X174102398Y-91754805D01*
X174242232Y-91672107D01*
X174357105Y-91557234D01*
X174439807Y-91417393D01*
X174485131Y-91261387D01*
X174487681Y-91228999D01*
X173964000Y-91228999D01*
X173456000Y-91228999D01*
X173456000Y-90732999D01*
X173437904Y-90714903D01*
X173410590Y-90674026D01*
X173400999Y-90625808D01*
X173400999Y-90129000D01*
X173964000Y-90129000D01*
X173964000Y-90720999D01*
X174487680Y-90720999D01*
X174485131Y-90688610D01*
X174439807Y-90532604D01*
X174387569Y-90444274D01*
X174370023Y-90380133D01*
X174387572Y-90315992D01*
X174394430Y-90304396D01*
X174440107Y-90147176D01*
X174441538Y-90129000D01*
X173964000Y-90129000D01*
X173400999Y-90129000D01*
X173400999Y-89063326D01*
X173908998Y-89063326D01*
X173908999Y-89063327D01*
X173908999Y-89621000D01*
X174441537Y-89621000D01*
X174440107Y-89602825D01*
X174394429Y-89445603D01*
X174311086Y-89304676D01*
X174195322Y-89188912D01*
X174054394Y-89105568D01*
X173908998Y-89063326D01*
X173400999Y-89063326D01*
X173255603Y-89105568D01*
X173114675Y-89188912D01*
X172990218Y-89313370D01*
X172941626Y-89343588D01*
X172884679Y-89349197D01*
X172849004Y-89344501D01*
X172849000Y-89344501D01*
X172452190Y-89344501D01*
X172452185Y-89344501D01*
X172412106Y-89348447D01*
X172363880Y-89358040D01*
X172309715Y-89380476D01*
X172249147Y-89389460D01*
X172191496Y-89368832D01*
X172150376Y-89323463D01*
X172135498Y-89264067D01*
X172135498Y-89216843D01*
X172136083Y-89216843D01*
X172138640Y-89176763D01*
X172159966Y-89132944D01*
X172192512Y-89103897D01*
X172311086Y-88985323D01*
X172394430Y-88844395D01*
X172436672Y-88699000D01*
X171496999Y-88699000D01*
X171433999Y-88682119D01*
X171387880Y-88636000D01*
X171370999Y-88573000D01*
X171370999Y-87658461D01*
X171878999Y-87658461D01*
X171878999Y-88191000D01*
X172436672Y-88191000D01*
X172394430Y-88045604D01*
X172311086Y-87904676D01*
X172195322Y-87788912D01*
X172054395Y-87705569D01*
X171897173Y-87659891D01*
X171878999Y-87658461D01*
X171370999Y-87658461D01*
X171370999Y-87646455D01*
X171366060Y-87639514D01*
X171355500Y-87589021D01*
X171355500Y-87555652D01*
X171355068Y-87551271D01*
X171351551Y-87515562D01*
X171345918Y-87487243D01*
X171315234Y-87413164D01*
X171299193Y-87389157D01*
X171273636Y-87358017D01*
X171273632Y-87358012D01*
X171105716Y-87190096D01*
X171074978Y-87139937D01*
X171070362Y-87081290D01*
X171092875Y-87026940D01*
X171137608Y-86988734D01*
X171194811Y-86975001D01*
X173197810Y-86975001D01*
X173246028Y-86984592D01*
G37*
G04 #@! TD.AperFunction*
G04 #@! TA.AperFunction,Conductor*
G36*
X168426595Y-93856064D02*
G01*
X168500305Y-93929774D01*
X168498411Y-93931667D01*
X168511930Y-93942518D01*
X168536053Y-93997342D01*
X168532136Y-94057110D01*
X168501063Y-94108317D01*
X168451363Y-94158017D01*
X168425807Y-94189156D01*
X168409765Y-94213165D01*
X168379082Y-94287242D01*
X168373449Y-94315560D01*
X168369500Y-94355652D01*
X168369500Y-95294350D01*
X168373449Y-95334441D01*
X168378012Y-95357379D01*
X168379082Y-95362759D01*
X168409766Y-95436838D01*
X168425807Y-95460845D01*
X168451364Y-95491985D01*
X168719286Y-95759907D01*
X168750023Y-95810065D01*
X168754639Y-95868712D01*
X168732126Y-95923062D01*
X168687393Y-95961268D01*
X168630190Y-95975001D01*
X167675000Y-95975001D01*
X167675000Y-94150001D01*
X167367336Y-94150001D01*
X167372235Y-94147104D01*
X167487105Y-94032234D01*
X167492947Y-94022356D01*
X167525396Y-93985997D01*
X167569215Y-93964672D01*
X167617848Y-93961569D01*
X167685682Y-93970499D01*
X167685684Y-93970499D01*
X168034316Y-93970499D01*
X168034318Y-93970499D01*
X168083173Y-93964067D01*
X168088530Y-93961569D01*
X168190404Y-93914064D01*
X168212075Y-93892393D01*
X168248405Y-93856064D01*
X168304889Y-93823452D01*
X168370111Y-93823452D01*
X168426595Y-93856064D01*
G37*
G04 #@! TD.AperFunction*
G04 #@! TA.AperFunction,Conductor*
G36*
X166792561Y-87582755D02*
G01*
X166830767Y-87627488D01*
X166844500Y-87684691D01*
X166844500Y-89494349D01*
X166848449Y-89534440D01*
X166854082Y-89562759D01*
X166884766Y-89636838D01*
X166900807Y-89660845D01*
X166926364Y-89691985D01*
X167124958Y-89890579D01*
X167152960Y-89933153D01*
X167161809Y-89983338D01*
X167150057Y-90032923D01*
X167110931Y-90116827D01*
X167104500Y-90165682D01*
X167104500Y-90514318D01*
X167110931Y-90563173D01*
X167160935Y-90670405D01*
X167251435Y-90760905D01*
X167284047Y-90817389D01*
X167284047Y-90882611D01*
X167251435Y-90939095D01*
X167160935Y-91029594D01*
X167110931Y-91136826D01*
X167104500Y-91185682D01*
X167104500Y-91465372D01*
X167091213Y-91521690D01*
X167069000Y-91548328D01*
X167069000Y-92587912D01*
X167084409Y-92610972D01*
X167094000Y-92659190D01*
X167094000Y-93577999D01*
X167077119Y-93640999D01*
X167031000Y-93687118D01*
X166968000Y-93703999D01*
X166062319Y-93703999D01*
X166064868Y-93736387D01*
X166110192Y-93892393D01*
X166192894Y-94032234D01*
X166276792Y-94116132D01*
X166296771Y-94150001D01*
X165750000Y-94150001D01*
X165750000Y-92629000D01*
X166037319Y-92629000D01*
X166039868Y-92661388D01*
X166085192Y-92817395D01*
X166116005Y-92869496D01*
X166133551Y-92933632D01*
X166116008Y-92997769D01*
X166110193Y-93007601D01*
X166064868Y-93163610D01*
X166062319Y-93195999D01*
X166561000Y-93195999D01*
X166561000Y-92629000D01*
X166037319Y-92629000D01*
X165750000Y-92629000D01*
X165750000Y-92121000D01*
X166037319Y-92121000D01*
X166561000Y-92121000D01*
X166561000Y-91554984D01*
X166422601Y-91595193D01*
X166282767Y-91677891D01*
X166167894Y-91792764D01*
X166085192Y-91932605D01*
X166039868Y-92088611D01*
X166037319Y-92121000D01*
X165750000Y-92121000D01*
X165750000Y-88527191D01*
X165759591Y-88478973D01*
X165786905Y-88438096D01*
X166629405Y-87595596D01*
X166679564Y-87564858D01*
X166738211Y-87560242D01*
X166792561Y-87582755D01*
G37*
G04 #@! TD.AperFunction*
G04 #@! TA.AperFunction,Conductor*
G36*
X177421591Y-124134939D02*
G01*
X177461819Y-124161819D01*
X178188681Y-124888681D01*
X178215561Y-124928909D01*
X178225000Y-124976362D01*
X178225000Y-126348091D01*
X178218419Y-126387951D01*
X178201599Y-126419417D01*
X178139956Y-126568237D01*
X178119317Y-126725000D01*
X178141081Y-126890309D01*
X178135562Y-126946351D01*
X178105825Y-126994173D01*
X178086320Y-127013679D01*
X178046091Y-127040560D01*
X177998637Y-127050000D01*
X177726362Y-127050000D01*
X177678909Y-127040561D01*
X177638681Y-127013681D01*
X177561818Y-126936818D01*
X177534938Y-126896590D01*
X177525499Y-126849140D01*
X177525499Y-126618482D01*
X177510646Y-126524696D01*
X177488515Y-126481261D01*
X177475019Y-126425046D01*
X177475000Y-126425001D01*
X177475000Y-126425000D01*
X176536319Y-125486319D01*
X176509439Y-125446091D01*
X176500000Y-125398638D01*
X176500000Y-124249500D01*
X176516613Y-124187500D01*
X176562000Y-124142113D01*
X176624000Y-124125500D01*
X177374138Y-124125500D01*
X177421591Y-124134939D01*
G37*
G04 #@! TD.AperFunction*
G04 #@! TA.AperFunction,Conductor*
G36*
X178696028Y-127284591D02*
G01*
X178736905Y-127311905D01*
X179438095Y-128013095D01*
X179465409Y-128053972D01*
X179475000Y-128102190D01*
X179475000Y-128547810D01*
X179465409Y-128596028D01*
X179438095Y-128636905D01*
X179386905Y-128688095D01*
X179346028Y-128715409D01*
X179297810Y-128725000D01*
X177952190Y-128725000D01*
X177903972Y-128715409D01*
X177863095Y-128688095D01*
X177625000Y-128450000D01*
X177225000Y-128050000D01*
X176901000Y-128050000D01*
X176838000Y-128033119D01*
X176791881Y-127987000D01*
X176775000Y-127924000D01*
X176775000Y-127576000D01*
X176791881Y-127513000D01*
X176838000Y-127466881D01*
X176901000Y-127450000D01*
X177274999Y-127450000D01*
X177275000Y-127450000D01*
X177413097Y-127311902D01*
X177453972Y-127284591D01*
X177502190Y-127275000D01*
X178647810Y-127275000D01*
X178696028Y-127284591D01*
G37*
G04 #@! TD.AperFunction*
M02*
