M48
; DRILL file {KiCad 7.0.1} date Mon Apr 17 18:46:50 2023
; FORMAT={-:-/ absolute / inch / decimal}
; #@! TF.CreationDate,2023-04-17T18:46:50+02:00
; #@! TF.GenerationSoftware,Kicad,Pcbnew,7.0.1
; #@! TF.FileFunction,Plated,1,4,PTH
FMAT,2
INCH
; #@! TA.AperFunction,Plated,PTH,ViaDrill
T1C0.0079
; #@! TA.AperFunction,Plated,PTH,ComponentDrill
T2C0.0079
; #@! TA.AperFunction,Plated,PTH,ComponentDrill
T3C0.0157
; #@! TA.AperFunction,Plated,PTH,ComponentDrill
T4C0.0236
; #@! TA.AperFunction,Plated,PTH,ComponentDrill
T5C0.0315
; #@! TA.AperFunction,Plated,PTH,ComponentDrill
T6C0.0335
; #@! TA.AperFunction,Plated,PTH,ComponentDrill
T7C0.0866
; #@! TA.AperFunction,Plated,PTH,ComponentDrill
T8C0.1181
%
G90
G05
T1
X2.9417Y-2.5
X2.9449Y-2.5965
X2.9512Y-3.8441
X2.952Y-3.2433
X2.952Y-3.2811
X2.952Y-3.3205
X2.952Y-3.3598
X2.952Y-3.3992
X2.9646Y-2.1406
X2.9646Y-2.2665
X2.9646Y-2.298
X2.9646Y-2.865
X2.9646Y-3.1799
X2.9681Y-3.9673
X2.9685Y-3.9386
X2.9783Y-3.8441
X2.9843Y-2.5965
X2.9843Y-2.7343
X2.9913Y-3.2433
X2.9913Y-3.2811
X2.9913Y-3.3205
X2.9913Y-3.3598
X2.9913Y-3.3992
X2.9961Y-2.2665
X2.9961Y-2.298
X2.9961Y-2.865
X2.9961Y-3.1799
X2.998Y-3.9382
X2.9992Y-3.9673
X3.0055Y-3.8441
X3.0157Y-2.5008
X3.0217Y-2.7343
X3.0236Y-2.5965
X3.0272Y-3.9378
X3.0276Y-3.1799
X3.0276Y-3.9673
X3.0307Y-3.2433
X3.0307Y-3.2811
X3.0307Y-3.3205
X3.0307Y-3.3598
X3.0307Y-3.3992
X3.0331Y-3.8441
X3.0591Y-2.7343
X3.0591Y-3.1799
X3.0591Y-3.9374
X3.0591Y-3.9673
X3.061Y-2.5965
X3.0622Y-3.8441
X3.0701Y-3.2433
X3.0701Y-3.2811
X3.0701Y-3.3205
X3.0701Y-3.3598
X3.0701Y-3.3992
X3.0902Y-3.8441
X3.0906Y-2.1406
X3.0906Y-3.1799
X3.0906Y-3.9673
X3.0909Y-3.937
X3.097Y-2.7165
X3.097Y-2.7598
X3.0988Y-2.4874
X3.1004Y-2.4409
X3.1193Y-3.8441
X3.122Y-2.1091
X3.122Y-3.937
X3.122Y-3.9673
X3.122Y-3.9988
X3.122Y-4.0303
X3.122Y-4.1563
X3.1252Y-1.9602
X3.1363Y-2.7165
X3.1363Y-2.7598
X3.1394Y-2.5803
X3.1409Y-4.0551
X3.1409Y-4.1181
X3.1413Y-4.087
X3.1757Y-2.7165
X3.1757Y-2.7598
X3.1827Y-2.4402
X3.1827Y-2.5803
X3.185Y-2.8965
X3.2146Y-2.7028
X3.2165Y-2.0461
X3.2165Y-2.0776
X3.2185Y-3.6722
X3.2185Y-3.7116
X3.2185Y-3.751
X3.2185Y-3.7904
X3.2307Y-3.4996
X3.2323Y-2.5815
X3.2441Y-3.122
X3.2441Y-3.1614
X3.2441Y-3.2008
X3.248Y-2.0146
X3.248Y-2.0461
X3.248Y-2.172
X3.248Y-2.2035
X3.248Y-2.298
X3.248Y-3.5264
X3.2579Y-3.6722
X3.2579Y-3.7116
X3.2579Y-3.751
X3.2579Y-3.7904
X3.2646Y-3.4984
X3.2795Y-2.0146
X3.2795Y-2.1406
X3.2795Y-2.172
X3.2795Y-2.2035
X3.2795Y-3.5264
X3.2835Y-3.0827
X3.2835Y-3.122
X3.2835Y-3.1614
X3.2835Y-3.2008
X3.2835Y-3.402
X3.2923Y-2.2579
X3.2972Y-3.6722
X3.2972Y-3.7116
X3.2972Y-3.751
X3.2972Y-3.7904
X3.3Y-3.3756
X3.311Y-2.1091
X3.311Y-2.1406
X3.311Y-2.172
X3.311Y-2.2035
X3.311Y-2.7075
X3.313Y-2.434
X3.3228Y-3.0433
X3.3228Y-3.0827
X3.3228Y-3.122
X3.3228Y-3.1614
X3.3228Y-3.2008
X3.3287Y-3.3756
X3.3366Y-3.6722
X3.3366Y-3.7116
X3.3366Y-3.751
X3.3366Y-3.7904
X3.3425Y-2.0776
X3.3425Y-2.1091
X3.3425Y-2.1406
X3.3425Y-2.172
X3.3425Y-2.2035
X3.3425Y-2.235
X3.3425Y-2.7075
X3.3433Y-3.3516
X3.35Y-3.59
X3.3579Y-3.3756
X3.3598Y-3.324
X3.3622Y-3.0433
X3.3622Y-3.0827
X3.3622Y-3.122
X3.3622Y-3.1614
X3.3622Y-3.2008
X3.374Y-2.676
X3.374Y-2.7075
X3.374Y-2.739
X3.3748Y-3.3508
X3.3752Y-3.2976
X3.376Y-3.6724
X3.376Y-3.7118
X3.376Y-3.7512
X3.376Y-3.7906
X3.3898Y-3.3244
X3.3898Y-3.3768
X3.3902Y-3.4059
X3.3902Y-3.4339
X3.3947Y-3.4695
X3.3999Y-3.1992
X3.4016Y-3.0433
X3.4016Y-3.0827
X3.4016Y-3.122
X3.4016Y-3.1614
X3.4055Y-2.676
X3.4055Y-2.7075
X3.4055Y-2.739
X3.4323Y-2.2264
X3.437Y-2.676
X3.437Y-2.7075
X3.437Y-2.739
X3.4374Y-2.4583
X3.4401Y-3.1601
X3.4409Y-3.0433
X3.4409Y-3.0827
X3.4409Y-3.122
X3.4685Y-2.0146
X3.4685Y-2.676
X3.4685Y-2.7075
X3.4685Y-2.739
X3.4754Y-2.2313
X3.4758Y-2.5589
X3.4831Y-2.0551
X3.5Y-2.0146
X3.5Y-2.1091
X3.5Y-2.4555
X3.5Y-2.613
X3.5Y-2.6445
X3.5Y-2.676
X3.5Y-2.7075
X3.5Y-2.8335
X3.5Y-2.865
X3.5Y-2.8965
X3.5276Y-3.4705
X3.5315Y-2.0146
X3.5315Y-2.1091
X3.5315Y-2.6445
X3.5315Y-2.676
X3.5315Y-2.802
X3.5315Y-2.8335
X3.5315Y-2.865
X3.5315Y-2.8965
X3.5531Y-2.2303
X3.563Y-2.0146
X3.563Y-2.1091
X3.563Y-2.7705
X3.5787Y-2.3356
X3.5925Y-2.2283
X3.5945Y-2.0146
X3.5945Y-2.4555
X3.6047Y-2.8248
X3.626Y-2.0146
X3.626Y-2.4555
X3.627Y-2.2301
X3.6538Y-3.2685
X3.6575Y-2.0146
X3.6575Y-2.4555
X3.6575Y-2.487
X3.6575Y-2.802
X3.6801Y-2.2313
X3.689Y-2.0146
X3.689Y-2.4555
X3.689Y-2.487
X3.689Y-2.802
X3.689Y-3.2677
X3.7205Y-2.3925
X3.7205Y-2.424
X3.7205Y-2.4555
X3.7205Y-2.487
X3.7205Y-2.5185
X3.7205Y-2.802
X3.7205Y-3.3374
X3.7437Y-2.3146
X3.7835Y-2.676
X3.7835Y-2.7075
X3.8098Y-2.1374
X3.8098Y-2.2299
X3.815Y-2.676
X3.815Y-2.7075
X3.815Y-3.2114
X3.815Y-3.4004
X3.815Y-3.4319
X3.815Y-3.4634
X3.815Y-3.4949
X3.815Y-3.5264
X3.8437Y-2.2272
X3.8457Y-2.498
X3.8465Y-2.4626
X3.8465Y-2.676
X3.8465Y-2.7075
X3.8465Y-3.1799
X3.8465Y-3.2114
X3.8465Y-3.4949
X3.8465Y-3.5264
X3.8474Y-2.565
X3.878Y-2.676
X3.878Y-2.7075
X3.878Y-2.802
X3.878Y-3.1484
X3.878Y-3.1799
X3.878Y-3.2114
X3.878Y-3.2429
X3.9094Y-2.5815
X3.9094Y-2.802
X3.9094Y-3.1169
X3.9094Y-3.1484
X3.9094Y-3.1799
X3.9094Y-3.2114
X3.9094Y-3.2429
X3.9409Y-2.55
X3.9409Y-2.5815
X3.9409Y-2.802
X3.9409Y-3.1169
X3.9409Y-3.1484
X3.9409Y-3.1799
X3.9409Y-3.2114
X3.9409Y-3.2429
X3.9724Y-2.5185
X3.9724Y-2.55
X3.9724Y-2.5815
X3.9724Y-2.802
X3.9724Y-3.1169
X3.9724Y-3.1484
X3.9949Y-3.2049
X4.0039Y-2.5185
X4.0039Y-2.55
X4.0039Y-2.5815
X4.0039Y-2.676
X4.0039Y-2.7075
X4.0058Y-3.2358
X4.0148Y-2.6211
X4.0354Y-2.676
X4.0354Y-2.7075
X4.0512Y-3.4654
X4.0669Y-2.613
X4.0669Y-2.6445
X4.0669Y-2.676
X4.0669Y-2.7075
X4.0697Y-2.5575
X4.0705Y-2.5142
X4.1063Y-2.5157
X4.1063Y-2.5551
X4.1217Y-2.6378
X4.1303Y-3.3327
X4.1311Y-3.3646
X4.1315Y-3.3972
X4.1614Y-2.1406
X4.1614Y-2.172
X4.1614Y-3.3689
X4.1614Y-3.4004
X4.163Y-3.3331
X4.185Y-3.461
X4.1929Y-2.1406
X4.1929Y-2.172
X4.1929Y-3.3689
X4.1937Y-3.3957
X4.1995Y-2.5226
X4.2126Y-3.6703
X4.2126Y-3.7096
X4.2126Y-3.749
X4.2126Y-3.7884
X4.2176Y-2.4969
X4.2244Y-2.0146
X4.2244Y-2.1406
X4.2244Y-2.172
X4.2244Y-3.3689
X4.2252Y-2.5772
X4.2306Y-2.2561
X4.2382Y-2.2866
X4.239Y-2.3598
X4.252Y-3.6703
X4.252Y-3.7096
X4.252Y-3.749
X4.252Y-3.7884
X4.2555Y-2.5484
X4.2559Y-3.3689
X4.2608Y-3.1132
X4.2618Y-3.1506
X4.2858Y-3.4689
X4.2874Y-3.3689
X4.2874Y-3.4004
X4.2874Y-3.4323
X4.2874Y-3.5264
X4.2913Y-3.6703
X4.2913Y-3.7096
X4.2913Y-3.749
X4.2913Y-3.7884
X4.2941Y-2.3457
X4.2998Y-2.7134
X4.3081Y-3.5827
X4.3136Y-2.9465
X4.315Y-3.4685
X4.3162Y-2.4489
X4.3183Y-3.0724
X4.3185Y-3.4311
X4.3189Y-2.1087
X4.3189Y-2.1406
X4.3189Y-2.172
X4.3189Y-3.3689
X4.3189Y-3.4004
X4.3189Y-3.5264
X4.3219Y-2.7992
X4.3219Y-2.8455
X4.3224Y-2.2386
X4.3244Y-2.4206
X4.3307Y-3.6703
X4.3307Y-3.7096
X4.3307Y-3.749
X4.3307Y-3.7884
X4.3446Y-2.9653
X4.3492Y-2.7118
X4.3504Y-2.1091
X4.3504Y-2.1406
X4.3504Y-2.172
X4.3504Y-3.5264
X4.3512Y-2.3969
X4.3583Y-2.261
X4.3594Y-2.3106
X4.3618Y-2.939
X4.3819Y-3.5264
X4.3827Y-2.2827
X4.3854Y-2.402
X4.4067Y-2.263
X4.4281Y-2.8622
X4.4342Y-2.6313
X4.4342Y-2.6648
X4.437Y-2.7035
X4.4445Y-2.3705
X4.4449Y-3.5264
X4.4457Y-2.1906
X4.4516Y-2.9819
X4.4661Y-2.1378
X4.4764Y-2.172
X4.4764Y-3.5264
X4.4768Y-3.3327
X4.4774Y-3.1102
X4.4776Y-3.365
X4.478Y-3.3969
X4.4898Y-2.2295
X4.4906Y-2.9594
X4.5012Y-3.2043
X4.5079Y-3.3374
X4.5079Y-3.3689
X4.5079Y-3.4004
X4.5079Y-3.5264
X4.5106Y-2.1866
X4.5207Y-3.1102
X4.5256Y-3.6752
X4.5256Y-3.7146
X4.5256Y-3.7539
X4.5256Y-3.7933
X4.5303Y-2.963
X4.5394Y-3.3374
X4.5394Y-3.3689
X4.5394Y-3.4004
X4.5394Y-3.5264
X4.5502Y-2.6526
X4.552Y-3.1764
X4.5559Y-3.426
X4.5567Y-3.4563
X4.5567Y-3.4874
X4.565Y-3.6752
X4.565Y-3.7146
X4.565Y-3.7539
X4.565Y-3.7933
X4.5709Y-2.3925
X4.5709Y-2.424
X4.5709Y-2.55
X4.5709Y-3.4004
X4.5709Y-3.5264
X4.5886Y-2.7037
X4.6024Y-2.1091
X4.6024Y-2.3925
X4.6024Y-2.424
X4.6024Y-2.4555
X4.6043Y-3.6752
X4.6043Y-3.7146
X4.6043Y-3.7539
X4.6043Y-3.7933
X4.6173Y-3.3787
X4.6339Y-2.3925
X4.6339Y-2.424
X4.6339Y-2.4555
X4.6339Y-2.487
X4.6339Y-2.613
X4.6339Y-2.8386
X4.6437Y-3.6752
X4.6437Y-3.7146
X4.6437Y-3.7539
X4.6437Y-3.7933
X4.6566Y-2.7214
X4.66Y-3.58
X4.6654Y-2.3925
X4.6654Y-2.424
X4.6654Y-2.4555
X4.6654Y-2.487
X4.6654Y-3.3374
X4.6654Y-3.3689
X4.6665Y-3.3969
X4.6673Y-3.4256
X4.6693Y-2.8346
X4.6717Y-3.4661
X4.6732Y-2.1929
X4.6776Y-2.9783
X4.6841Y-2.6309
X4.685Y-2.2657
X4.689Y-2.7205
X4.6969Y-2.3925
X4.6969Y-2.424
X4.6969Y-2.4555
X4.6969Y-2.487
X4.697Y-2.1
X4.708Y-2.5806
X4.7106Y-2.8268
X4.7136Y-3.1427
X4.7283Y-2.487
X4.7283Y-2.613
X4.7283Y-2.6445
X4.7285Y-2.037
X4.7285Y-2.0685
X4.7285Y-2.1
X4.7453Y-3.0433
X4.7583Y-2.5504
X4.7598Y-2.487
X4.7598Y-2.5185
X4.7598Y-3.1484
X4.7598Y-3.1799
X4.76Y-2.037
X4.76Y-2.0685
X4.76Y-2.1
X4.7677Y-2.426
X4.772Y-2.8228
X4.7866Y-3.039
X4.7913Y-2.487
X4.7913Y-2.5185
X4.7913Y-3.1484
X4.7913Y-3.1799
X4.7992Y-2.8387
X4.8071Y-2.4055
X4.8079Y-2.7209
X4.8098Y-3.4203
X4.8228Y-2.487
X4.8228Y-2.5185
X4.8228Y-3.1484
X4.8228Y-3.1799
X4.826Y-3.026
X4.8287Y-2.2766
X4.8307Y-2.8386
X4.8317Y-2.0965
X4.8356Y-2.9553
X4.8465Y-2.4004
X4.8474Y-2.7205
X4.8543Y-3.1484
X4.8543Y-3.1799
X4.8543Y-3.2114
X4.8543Y-3.2429
X4.8587Y-3.1087
X4.8622Y-2.5134
X4.8677Y-2.965
X4.8819Y-2.0965
X4.8858Y-3.1484
X4.8858Y-3.1799
X4.8858Y-3.2114
X4.8858Y-3.2429
X4.8878Y-2.2756
X4.8882Y-2.4008
X4.8886Y-2.6736
X4.8902Y-2.437
X4.9104Y-2.8514
X4.9173Y-3.1799
X4.9173Y-3.2114
X4.9173Y-3.2429
X4.9197Y-3.0701
X4.9311Y-2.0984
X4.9425Y-2.3673
X4.9488Y-3.0539
X4.9488Y-3.0854
X4.9488Y-3.2114
X4.9488Y-3.2429
X4.9681Y-3.0264
X4.9917Y-2.7157
X4.9925Y-2.6736
X4.9929Y-2.6378
X5.003Y-2.7913
X5.0114Y-1.9571
X5.0118Y-2.487
X5.0128Y-2.565
X5.0201Y-2.1665
X5.0404Y-2.5463
X5.0433Y-2.361
X5.0433Y-3.1799
X5.0441Y-2.4874
X5.0445Y-2.4551
X5.0659Y-2.523
X5.072Y-4.037
X5.0724Y-3.9669
X5.0724Y-3.9996
X5.0724Y-4.0724
X5.0728Y-4.1075
X5.0728Y-4.1402
X5.0748Y-2.4555
X5.0748Y-2.487
X5.1004Y-2.6339
X5.1008Y-2.665
X5.1031Y-1.9575
X5.1059Y-2.5173
X5.1059Y-4.1669
X5.1063Y-2.4555
X5.1063Y-2.487
X5.1063Y-3.8398
X5.1063Y-3.8728
X5.1063Y-3.9669
X5.1063Y-3.9988
X5.1224Y-2.9972
X5.1257Y-2.9291
X5.1366Y-3.9669
X5.1378Y-2.235
X5.1378Y-3.2744
X5.1378Y-3.3059
X5.1378Y-3.8728
X5.1382Y-3.8394
X5.1565Y-3.2106
X5.1693Y-2.2665
X5.1693Y-3.4004
X5.1693Y-3.8728
X5.1697Y-3.8394
X5.1713Y-3.9665
X5.1768Y-2.5679
X5.186Y-3.4577
X5.1986Y-2.7776
X5.2004Y-3.8394
X5.2008Y-2.5185
X5.2008Y-2.613
X5.2008Y-3.8728
X5.2047Y-2.6565
X5.2051Y-3.9665
X5.2236Y-2.152
X5.2264Y-2.3789
X5.2307Y-3.8728
X5.2315Y-3.8398
X5.2323Y-2.5185
X5.2398Y-3.9665
X5.2614Y-3.8402
X5.2614Y-3.8732
X5.2667Y-2.7047
X5.2677Y-2.1378
X5.2752Y-3.9669
X5.2752Y-4.0
T2
X2.9559Y-3.4472
X2.9559Y-3.4709
X2.9559Y-3.4945
X2.9559Y-3.5181
X2.9559Y-3.5417
X2.9559Y-3.5654
X2.9559Y-3.589
X2.9559Y-3.6126
X2.9559Y-3.6362
X2.9559Y-3.6563
X2.9598Y-2.9228
X2.9598Y-2.9465
X2.9598Y-2.9701
X2.9598Y-2.9937
X2.9598Y-3.0173
X2.9598Y-3.0409
X2.9598Y-3.0646
X2.9598Y-3.0882
X2.9598Y-3.1118
X2.9598Y-3.1319
X2.9795Y-3.4472
X2.9795Y-3.4709
X2.9795Y-3.4945
X2.9795Y-3.5181
X2.9795Y-3.589
X2.9795Y-3.6126
X2.9795Y-3.6362
X2.9795Y-3.6563
X2.9835Y-2.9228
X2.9835Y-2.9465
X2.9835Y-2.9701
X2.9835Y-2.9937
X2.9835Y-3.0646
X2.9835Y-3.0882
X2.9835Y-3.1118
X2.9835Y-3.1319
X3.0031Y-3.4472
X3.0031Y-3.4709
X3.0031Y-3.6362
X3.0031Y-3.6563
X3.0071Y-2.9228
X3.0071Y-2.9465
X3.0071Y-3.1118
X3.0071Y-3.1319
X3.0268Y-3.4472
X3.0268Y-3.4709
X3.0268Y-3.6362
X3.0268Y-3.6563
X3.0307Y-2.9228
X3.0307Y-2.9465
X3.0307Y-3.1118
X3.0307Y-3.1319
X3.0504Y-3.4472
X3.0504Y-3.4709
X3.0504Y-3.6362
X3.0504Y-3.6563
X3.0543Y-2.9228
X3.0543Y-2.9465
X3.0543Y-3.1118
X3.0543Y-3.1319
X3.074Y-3.4472
X3.074Y-3.4709
X3.074Y-3.6362
X3.074Y-3.6563
X3.078Y-2.9228
X3.078Y-2.9465
X3.078Y-3.1118
X3.078Y-3.1319
X3.0976Y-3.4472
X3.0976Y-3.4709
X3.0976Y-3.6362
X3.0976Y-3.6563
X3.1016Y-2.9228
X3.1016Y-2.9465
X3.1016Y-3.1118
X3.1016Y-3.1319
X3.1213Y-3.4472
X3.1213Y-3.4709
X3.1213Y-3.4945
X3.1213Y-3.5181
X3.1213Y-3.589
X3.1213Y-3.6126
X3.1213Y-3.6362
X3.1213Y-3.6563
X3.1252Y-2.9228
X3.1252Y-2.9465
X3.1252Y-2.9701
X3.1252Y-2.9937
X3.1252Y-3.0646
X3.1252Y-3.0882
X3.1252Y-3.1118
X3.1252Y-3.1319
X3.1449Y-3.4472
X3.1449Y-3.4709
X3.1449Y-3.4945
X3.1449Y-3.5181
X3.1449Y-3.5417
X3.1449Y-3.5654
X3.1449Y-3.589
X3.1449Y-3.6126
X3.1449Y-3.6362
X3.1449Y-3.6563
X3.1488Y-2.9228
X3.1488Y-2.9465
X3.1488Y-2.9701
X3.1488Y-2.9937
X3.1488Y-3.0173
X3.1488Y-3.0409
X3.1488Y-3.0646
X3.1488Y-3.0882
X3.1488Y-3.1118
X3.1488Y-3.1319
X3.3331Y-3.9508
X3.3331Y-3.9744
X3.3331Y-3.998
X3.3331Y-4.0217
X3.3331Y-4.0453
X3.3331Y-4.0689
X3.3331Y-4.0925
X3.3331Y-4.1161
X3.3331Y-4.1398
X3.3331Y-4.1598
X3.3567Y-3.9508
X3.3567Y-3.9744
X3.3567Y-3.998
X3.3567Y-4.0217
X3.3567Y-4.0925
X3.3567Y-4.1161
X3.3567Y-4.1398
X3.3567Y-4.1598
X3.3803Y-3.9508
X3.3803Y-3.9744
X3.3803Y-4.1398
X3.3803Y-4.1598
X3.4039Y-3.9508
X3.4039Y-3.9744
X3.4039Y-4.1398
X3.4039Y-4.1598
X3.4276Y-3.9508
X3.4276Y-3.9744
X3.4276Y-4.1398
X3.4276Y-4.1598
X3.4512Y-3.9508
X3.4512Y-3.9744
X3.4512Y-4.1398
X3.4512Y-4.1598
X3.4748Y-3.9508
X3.4748Y-3.9744
X3.4748Y-4.1398
X3.4748Y-4.1598
X3.4984Y-3.9508
X3.4984Y-3.9744
X3.4984Y-3.998
X3.4984Y-4.0217
X3.4984Y-4.0925
X3.4984Y-4.1161
X3.4984Y-4.1398
X3.4984Y-4.1598
X3.522Y-3.9508
X3.522Y-3.9744
X3.522Y-3.998
X3.522Y-4.0217
X3.522Y-4.0453
X3.522Y-4.0689
X3.522Y-4.0925
X3.522Y-4.1161
X3.522Y-4.1398
X3.522Y-4.1598
X3.9992Y-2.848
X3.9992Y-2.8929
X3.9992Y-2.9378
X3.9992Y-2.9827
X3.9992Y-3.0276
X3.9992Y-3.0724
X4.0205Y-3.9449
X4.0205Y-3.9685
X4.0205Y-3.9921
X4.0205Y-4.0157
X4.0205Y-4.0394
X4.0205Y-4.063
X4.0205Y-4.0866
X4.0205Y-4.1102
X4.0205Y-4.1339
X4.0205Y-4.1539
X4.0441Y-2.848
X4.0441Y-2.8929
X4.0441Y-2.9378
X4.0441Y-2.9827
X4.0441Y-3.0276
X4.0441Y-3.0724
X4.0441Y-3.9449
X4.0441Y-3.9685
X4.0441Y-3.9921
X4.0441Y-4.0157
X4.0441Y-4.0866
X4.0441Y-4.1102
X4.0441Y-4.1339
X4.0441Y-4.1539
X4.0677Y-3.9449
X4.0677Y-3.9685
X4.0677Y-4.1339
X4.0677Y-4.1539
X4.089Y-2.848
X4.089Y-2.8929
X4.089Y-2.9378
X4.089Y-2.9827
X4.089Y-3.0276
X4.089Y-3.0724
X4.0913Y-3.9449
X4.0913Y-3.9685
X4.0913Y-4.1339
X4.0913Y-4.1539
X4.115Y-3.9449
X4.115Y-3.9685
X4.115Y-4.1339
X4.115Y-4.1539
X4.1339Y-2.848
X4.1339Y-2.8929
X4.1339Y-2.9378
X4.1339Y-2.9827
X4.1339Y-3.0276
X4.1339Y-3.0724
X4.1386Y-3.9449
X4.1386Y-3.9685
X4.1386Y-4.1339
X4.1386Y-4.1539
X4.1622Y-3.9449
X4.1622Y-3.9685
X4.1622Y-4.1339
X4.1622Y-4.1539
X4.1787Y-2.848
X4.1787Y-2.8929
X4.1787Y-2.9378
X4.1787Y-2.9827
X4.1787Y-3.0276
X4.1787Y-3.0724
X4.1858Y-3.9449
X4.1858Y-3.9685
X4.1858Y-3.9921
X4.1858Y-4.0157
X4.1858Y-4.0866
X4.1858Y-4.1102
X4.1858Y-4.1339
X4.1858Y-4.1539
X4.2094Y-3.9449
X4.2094Y-3.9685
X4.2094Y-3.9921
X4.2094Y-4.0157
X4.2094Y-4.0394
X4.2094Y-4.063
X4.2094Y-4.0866
X4.2094Y-4.1102
X4.2094Y-4.1339
X4.2094Y-4.1539
X4.2236Y-2.848
X4.2236Y-2.8929
X4.2236Y-2.9378
X4.2236Y-2.9827
X4.2236Y-3.0276
X4.2236Y-3.0724
X4.6567Y-3.9508
X4.6567Y-3.9744
X4.6567Y-3.998
X4.6567Y-4.0217
X4.6567Y-4.0453
X4.6567Y-4.0689
X4.6567Y-4.0925
X4.6567Y-4.1161
X4.6567Y-4.1398
X4.6567Y-4.1598
X4.6803Y-3.9508
X4.6803Y-3.9744
X4.6803Y-3.998
X4.6803Y-4.0217
X4.6803Y-4.0925
X4.6803Y-4.1161
X4.6803Y-4.1398
X4.6803Y-4.1598
X4.7039Y-3.9508
X4.7039Y-3.9744
X4.7039Y-4.1398
X4.7039Y-4.1598
X4.7276Y-3.9508
X4.7276Y-3.9744
X4.7276Y-4.1398
X4.7276Y-4.1598
X4.7512Y-3.9508
X4.7512Y-3.9744
X4.7512Y-4.1398
X4.7512Y-4.1598
X4.7748Y-3.9508
X4.7748Y-3.9744
X4.7748Y-4.1398
X4.7748Y-4.1598
X4.7984Y-3.9508
X4.7984Y-3.9744
X4.7984Y-4.1398
X4.7984Y-4.1598
X4.822Y-3.9508
X4.822Y-3.9744
X4.822Y-3.998
X4.822Y-4.0217
X4.822Y-4.0925
X4.822Y-4.1161
X4.822Y-4.1398
X4.822Y-4.1598
X4.8457Y-3.9508
X4.8457Y-3.9744
X4.8457Y-3.998
X4.8457Y-4.0217
X4.8457Y-4.0453
X4.8457Y-4.0689
X4.8457Y-4.0925
X4.8457Y-4.1161
X4.8457Y-4.1398
X4.8457Y-4.1598
T3
X2.9618Y-4.0862
X2.9622Y-2.0378
X2.9808Y-4.0403
X2.9808Y-4.1322
X2.9812Y-1.9919
X2.9812Y-2.0837
X3.0268Y-4.0213
X3.0268Y-4.1512
X3.0272Y-1.9728
X3.0272Y-2.1028
X3.0727Y-4.0403
X3.0727Y-4.1322
X3.0731Y-1.9919
X3.0731Y-2.0837
X3.0917Y-4.0862
X3.0921Y-2.0378
X5.1283Y-2.0366
X5.1283Y-4.0854
X5.1474Y-1.9907
X5.1474Y-2.0825
X5.1474Y-4.0395
X5.1474Y-4.1314
X5.1933Y-1.9717
X5.1933Y-2.1016
X5.1933Y-4.0205
X5.1933Y-4.1504
X5.2392Y-1.9907
X5.2392Y-2.0825
X5.2392Y-4.0395
X5.2392Y-4.1314
X5.2583Y-2.0366
X5.2583Y-4.0854
T5
X4.312Y-2.0059
X4.4104Y-2.1358
X4.5089Y-2.0059
T6
X3.9173Y-2.1398
X4.1142Y-2.1398
T7
X3.0268Y-4.0862
X3.0272Y-2.0378
X5.1933Y-2.0366
X5.1933Y-4.0854
T8
X3.0508Y-3.5516
X3.0547Y-3.0272
X3.428Y-4.0551
X4.1154Y-4.0492
X4.7516Y-4.0551
T4
G00X3.878Y-2.0472
M15
G01X3.878Y-2.0197
M16
G05
G00X4.1535Y-2.0197
M15
G01X4.1535Y-2.0472
M16
G05
T0
M30
