G04 #@! TF.GenerationSoftware,KiCad,Pcbnew,7.0.1*
G04 #@! TF.CreationDate,2023-07-13T12:38:19+02:00*
G04 #@! TF.ProjectId,voltmeter,766f6c74-6d65-4746-9572-2e6b69636164,3*
G04 #@! TF.SameCoordinates,Original*
G04 #@! TF.FileFunction,Legend,Top*
G04 #@! TF.FilePolarity,Positive*
%FSLAX46Y46*%
G04 Gerber Fmt 4.6, Leading zero omitted, Abs format (unit mm)*
G04 Created by KiCad (PCBNEW 7.0.1) date 2023-07-13 12:38:19*
%MOMM*%
%LPD*%
G01*
G04 APERTURE LIST*
G04 Aperture macros list*
%AMRoundRect*
0 Rectangle with rounded corners*
0 $1 Rounding radius*
0 $2 $3 $4 $5 $6 $7 $8 $9 X,Y pos of 4 corners*
0 Add a 4 corners polygon primitive as box body*
4,1,4,$2,$3,$4,$5,$6,$7,$8,$9,$2,$3,0*
0 Add four circle primitives for the rounded corners*
1,1,$1+$1,$2,$3*
1,1,$1+$1,$4,$5*
1,1,$1+$1,$6,$7*
1,1,$1+$1,$8,$9*
0 Add four rect primitives between the rounded corners*
20,1,$1+$1,$2,$3,$4,$5,0*
20,1,$1+$1,$4,$5,$6,$7,0*
20,1,$1+$1,$6,$7,$8,$9,0*
20,1,$1+$1,$8,$9,$2,$3,0*%
%AMFreePoly0*
4,1,19,0.550000,-0.750000,0.000000,-0.750000,0.000000,-0.744911,-0.071157,-0.744911,-0.207708,-0.704816,-0.327430,-0.627875,-0.420627,-0.520320,-0.479746,-0.390866,-0.500000,-0.250000,-0.500000,0.250000,-0.479746,0.390866,-0.420627,0.520320,-0.327430,0.627875,-0.207708,0.704816,-0.071157,0.744911,0.000000,0.744911,0.000000,0.750000,0.550000,0.750000,0.550000,-0.750000,0.550000,-0.750000,
$1*%
%AMFreePoly1*
4,1,19,0.000000,0.744911,0.071157,0.744911,0.207708,0.704816,0.327430,0.627875,0.420627,0.520320,0.479746,0.390866,0.500000,0.250000,0.500000,-0.250000,0.479746,-0.390866,0.420627,-0.520320,0.327430,-0.627875,0.207708,-0.704816,0.071157,-0.744911,0.000000,-0.744911,0.000000,-0.750000,-0.550000,-0.750000,-0.550000,0.750000,0.000000,0.750000,0.000000,0.744911,0.000000,0.744911,
$1*%
%AMFreePoly2*
4,1,19,0.500000,-0.750000,0.000000,-0.750000,0.000000,-0.744911,-0.071157,-0.744911,-0.207708,-0.704816,-0.327430,-0.627875,-0.420627,-0.520320,-0.479746,-0.390866,-0.500000,-0.250000,-0.500000,0.250000,-0.479746,0.390866,-0.420627,0.520320,-0.327430,0.627875,-0.207708,0.704816,-0.071157,0.744911,0.000000,0.744911,0.000000,0.750000,0.500000,0.750000,0.500000,-0.750000,0.500000,-0.750000,
$1*%
%AMFreePoly3*
4,1,19,0.000000,0.744911,0.071157,0.744911,0.207708,0.704816,0.327430,0.627875,0.420627,0.520320,0.479746,0.390866,0.500000,0.250000,0.500000,-0.250000,0.479746,-0.390866,0.420627,-0.520320,0.327430,-0.627875,0.207708,-0.704816,0.071157,-0.744911,0.000000,-0.744911,0.000000,-0.750000,-0.500000,-0.750000,-0.500000,0.750000,0.000000,0.750000,0.000000,0.744911,0.000000,0.744911,
$1*%
G04 Aperture macros list end*
%ADD10C,0.150000*%
%ADD11C,0.120000*%
%ADD12C,0.100000*%
%ADD13RoundRect,0.075000X0.650000X0.075000X-0.650000X0.075000X-0.650000X-0.075000X0.650000X-0.075000X0*%
%ADD14RoundRect,0.150000X0.587500X0.150000X-0.587500X0.150000X-0.587500X-0.150000X0.587500X-0.150000X0*%
%ADD15RoundRect,0.140000X0.170000X-0.140000X0.170000X0.140000X-0.170000X0.140000X-0.170000X-0.140000X0*%
%ADD16RoundRect,0.200000X-0.275000X0.200000X-0.275000X-0.200000X0.275000X-0.200000X0.275000X0.200000X0*%
%ADD17RoundRect,0.135000X-0.185000X0.135000X-0.185000X-0.135000X0.185000X-0.135000X0.185000X0.135000X0*%
%ADD18RoundRect,0.140000X-0.140000X-0.170000X0.140000X-0.170000X0.140000X0.170000X-0.140000X0.170000X0*%
%ADD19R,3.800000X3.800000*%
%ADD20C,3.800000*%
%ADD21RoundRect,0.150000X0.150000X-0.587500X0.150000X0.587500X-0.150000X0.587500X-0.150000X-0.587500X0*%
%ADD22RoundRect,0.150000X0.512500X0.150000X-0.512500X0.150000X-0.512500X-0.150000X0.512500X-0.150000X0*%
%ADD23RoundRect,0.135000X0.135000X0.185000X-0.135000X0.185000X-0.135000X-0.185000X0.135000X-0.185000X0*%
%ADD24FreePoly0,0.000000*%
%ADD25R,1.000000X1.500000*%
%ADD26FreePoly1,0.000000*%
%ADD27RoundRect,0.225000X-0.250000X0.225000X-0.250000X-0.225000X0.250000X-0.225000X0.250000X0.225000X0*%
%ADD28FreePoly2,180.000000*%
%ADD29FreePoly3,180.000000*%
%ADD30RoundRect,0.150000X0.825000X0.150000X-0.825000X0.150000X-0.825000X-0.150000X0.825000X-0.150000X0*%
%ADD31RoundRect,0.140000X-0.170000X0.140000X-0.170000X-0.140000X0.170000X-0.140000X0.170000X0.140000X0*%
%ADD32RoundRect,0.200000X0.275000X-0.200000X0.275000X0.200000X-0.275000X0.200000X-0.275000X-0.200000X0*%
%ADD33R,1.000000X2.650000*%
%ADD34R,0.500000X0.250000*%
%ADD35C,2.200000*%
%ADD36RoundRect,0.225000X0.225000X0.250000X-0.225000X0.250000X-0.225000X-0.250000X0.225000X-0.250000X0*%
%ADD37RoundRect,0.200000X0.200000X0.275000X-0.200000X0.275000X-0.200000X-0.275000X0.200000X-0.275000X0*%
%ADD38RoundRect,0.200000X-0.200000X-0.275000X0.200000X-0.275000X0.200000X0.275000X-0.200000X0.275000X0*%
%ADD39RoundRect,0.135000X0.185000X-0.135000X0.185000X0.135000X-0.185000X0.135000X-0.185000X-0.135000X0*%
%ADD40O,2.000000X2.000000*%
%ADD41O,1.700000X1.700000*%
%ADD42R,2.000000X2.000000*%
%ADD43RoundRect,0.225000X0.225000X0.375000X-0.225000X0.375000X-0.225000X-0.375000X0.225000X-0.375000X0*%
%ADD44RoundRect,0.250000X0.950000X-0.250000X0.950000X0.250000X-0.950000X0.250000X-0.950000X-0.250000X0*%
%ADD45RoundRect,0.150000X0.700000X-0.150000X0.700000X0.150000X-0.700000X0.150000X-0.700000X-0.150000X0*%
%ADD46RoundRect,0.225000X-0.225000X-0.250000X0.225000X-0.250000X0.225000X0.250000X-0.225000X0.250000X0*%
%ADD47RoundRect,0.218750X-0.218750X-0.256250X0.218750X-0.256250X0.218750X0.256250X-0.218750X0.256250X0*%
%ADD48RoundRect,0.250000X0.650000X1.400000X-0.650000X1.400000X-0.650000X-1.400000X0.650000X-1.400000X0*%
%ADD49RoundRect,0.200000X0.200000X1.000000X-0.200000X1.000000X-0.200000X-1.000000X0.200000X-1.000000X0*%
%ADD50R,1.880000X1.680000*%
%ADD51RoundRect,0.075000X0.075000X-0.650000X0.075000X0.650000X-0.075000X0.650000X-0.075000X-0.650000X0*%
%ADD52RoundRect,0.140000X0.140000X0.170000X-0.140000X0.170000X-0.140000X-0.170000X0.140000X-0.170000X0*%
%ADD53RoundRect,0.225000X0.250000X-0.225000X0.250000X0.225000X-0.250000X0.225000X-0.250000X-0.225000X0*%
G04 APERTURE END LIST*
D10*
X94840001Y-53270000D02*
X95550001Y-53270000D01*
D11*
X94840001Y-52762500D02*
X94840001Y-53270000D01*
D10*
X94825001Y-53920000D02*
X94900001Y-53920000D01*
X99200001Y-53420000D02*
X99200001Y-53020000D01*
X94825001Y-53595000D02*
X95225001Y-53595000D01*
X103174999Y-53425000D02*
X102775001Y-53425000D01*
X94130001Y-53270000D02*
X94840001Y-53270000D01*
X103175000Y-53025000D02*
X103174999Y-53425000D01*
X94825001Y-53595000D02*
X94425001Y-53595000D01*
X99600001Y-53420000D02*
X99200001Y-53420000D01*
X101225000Y-65875000D02*
X101775000Y-65875000D01*
X94825001Y-53920000D02*
X94750001Y-53920000D01*
D12*
G36*
X110852547Y-70435133D02*
G01*
X110852547Y-71005660D01*
X110852873Y-71012953D01*
X110853826Y-71019767D01*
X110856345Y-71029091D01*
X110860058Y-71037342D01*
X110864833Y-71044526D01*
X110870541Y-71050646D01*
X110877052Y-71055707D01*
X110884234Y-71059713D01*
X110891959Y-71062668D01*
X110900096Y-71064576D01*
X110908514Y-71065442D01*
X110911360Y-71065500D01*
X110919851Y-71064960D01*
X110928199Y-71063347D01*
X110936253Y-71060669D01*
X110943863Y-71056934D01*
X110950876Y-71052152D01*
X110957142Y-71046329D01*
X110962510Y-71039476D01*
X110966827Y-71031599D01*
X110969942Y-71022709D01*
X110971705Y-71012812D01*
X110972055Y-71005660D01*
X110972055Y-70506086D01*
X110981338Y-70509012D01*
X110990431Y-70512271D01*
X110999327Y-70515857D01*
X111008020Y-70519761D01*
X111016503Y-70523977D01*
X111024771Y-70528498D01*
X111032817Y-70533315D01*
X111040635Y-70538423D01*
X111048218Y-70543814D01*
X111055561Y-70549480D01*
X111062657Y-70555414D01*
X111069500Y-70561609D01*
X111076083Y-70568058D01*
X111082400Y-70574754D01*
X111088446Y-70581689D01*
X111094213Y-70588857D01*
X111099695Y-70596249D01*
X111104887Y-70603859D01*
X111109782Y-70611679D01*
X111114374Y-70619702D01*
X111118656Y-70627922D01*
X111122622Y-70636330D01*
X111126266Y-70644920D01*
X111129582Y-70653684D01*
X111132563Y-70662615D01*
X111135204Y-70671705D01*
X111137497Y-70680949D01*
X111139437Y-70690338D01*
X111141017Y-70699864D01*
X111142232Y-70709522D01*
X111143074Y-70719304D01*
X111143538Y-70729202D01*
X111144035Y-70736182D01*
X111145869Y-70745786D01*
X111148904Y-70754353D01*
X111153024Y-70761890D01*
X111158111Y-70768403D01*
X111164047Y-70773898D01*
X111170714Y-70778380D01*
X111177996Y-70781857D01*
X111185774Y-70784332D01*
X111193932Y-70785813D01*
X111202351Y-70786306D01*
X111210835Y-70785813D01*
X111219086Y-70784332D01*
X111226979Y-70781857D01*
X111234388Y-70778380D01*
X111241189Y-70773898D01*
X111247255Y-70768403D01*
X111252463Y-70761890D01*
X111256688Y-70754353D01*
X111259803Y-70745786D01*
X111261684Y-70736182D01*
X111262191Y-70729202D01*
X111262652Y-70719556D01*
X111263487Y-70709990D01*
X111264691Y-70700511D01*
X111266256Y-70691130D01*
X111268178Y-70681855D01*
X111270451Y-70672697D01*
X111273069Y-70663664D01*
X111276026Y-70654765D01*
X111279316Y-70646011D01*
X111282934Y-70637411D01*
X111286874Y-70628974D01*
X111291129Y-70620709D01*
X111295695Y-70612626D01*
X111300565Y-70604734D01*
X111305734Y-70597043D01*
X111311195Y-70589562D01*
X111316943Y-70582300D01*
X111322973Y-70575267D01*
X111329278Y-70568472D01*
X111335853Y-70561925D01*
X111342692Y-70555634D01*
X111349788Y-70549610D01*
X111357137Y-70543862D01*
X111364733Y-70538399D01*
X111372569Y-70533230D01*
X111380640Y-70528366D01*
X111388940Y-70523814D01*
X111397463Y-70519586D01*
X111406204Y-70515689D01*
X111415156Y-70512134D01*
X111424315Y-70508930D01*
X111433674Y-70506086D01*
X111433674Y-71005660D01*
X111434000Y-71012953D01*
X111434953Y-71019767D01*
X111437472Y-71029091D01*
X111441185Y-71037342D01*
X111445960Y-71044526D01*
X111451668Y-71050646D01*
X111458179Y-71055707D01*
X111465361Y-71059713D01*
X111473086Y-71062668D01*
X111481223Y-71064576D01*
X111489641Y-71065442D01*
X111492487Y-71065500D01*
X111501017Y-71064960D01*
X111509389Y-71063347D01*
X111517455Y-71060669D01*
X111525065Y-71056934D01*
X111532071Y-71052152D01*
X111538325Y-71046329D01*
X111543676Y-71039476D01*
X111547978Y-71031599D01*
X111551080Y-71022709D01*
X111552834Y-71012812D01*
X111553182Y-71005660D01*
X111553182Y-70434278D01*
X111552525Y-70425338D01*
X111550618Y-70416851D01*
X111547551Y-70408911D01*
X111543417Y-70401610D01*
X111538309Y-70395042D01*
X111532318Y-70389300D01*
X111525536Y-70384476D01*
X111518055Y-70380663D01*
X111509969Y-70377955D01*
X111501368Y-70376444D01*
X111495394Y-70376148D01*
X111485567Y-70376269D01*
X111475929Y-70376625D01*
X111466479Y-70377208D01*
X111457216Y-70378010D01*
X111448141Y-70379024D01*
X111439253Y-70380242D01*
X111430551Y-70381654D01*
X111422034Y-70383254D01*
X111413703Y-70385034D01*
X111405556Y-70386984D01*
X111397593Y-70389098D01*
X111389813Y-70391367D01*
X111382217Y-70393784D01*
X111374803Y-70396340D01*
X111367571Y-70399027D01*
X111360520Y-70401837D01*
X111353650Y-70404762D01*
X111346960Y-70407795D01*
X111340450Y-70410926D01*
X111334119Y-70414149D01*
X111327967Y-70417455D01*
X111321993Y-70420836D01*
X111310578Y-70427792D01*
X111299869Y-70434952D01*
X111289861Y-70442252D01*
X111280552Y-70449629D01*
X111271936Y-70457017D01*
X111263280Y-70464834D01*
X111255312Y-70472365D01*
X111248006Y-70479578D01*
X111241335Y-70486446D01*
X111235275Y-70492936D01*
X111229798Y-70499020D01*
X111224880Y-70504667D01*
X111218495Y-70512253D01*
X111213220Y-70518687D01*
X111207766Y-70525298D01*
X111202549Y-70530513D01*
X111201496Y-70530876D01*
X111200471Y-70529851D01*
X111194149Y-70521166D01*
X111187506Y-70512684D01*
X111180559Y-70504410D01*
X111173328Y-70496346D01*
X111165830Y-70488500D01*
X111158083Y-70480875D01*
X111150106Y-70473476D01*
X111141916Y-70466308D01*
X111133532Y-70459377D01*
X111124973Y-70452686D01*
X111116255Y-70446240D01*
X111107398Y-70440045D01*
X111098420Y-70434105D01*
X111089339Y-70428425D01*
X111080173Y-70423010D01*
X111070939Y-70417865D01*
X111061658Y-70412994D01*
X111052346Y-70408403D01*
X111043021Y-70404095D01*
X111033703Y-70400077D01*
X111024409Y-70396352D01*
X111015157Y-70392926D01*
X111005966Y-70389803D01*
X110996853Y-70386989D01*
X110987838Y-70384488D01*
X110978937Y-70382304D01*
X110970170Y-70380443D01*
X110961554Y-70378910D01*
X110953108Y-70377709D01*
X110944850Y-70376845D01*
X110936798Y-70376323D01*
X110928970Y-70376148D01*
X110920533Y-70376370D01*
X110912482Y-70377035D01*
X110904839Y-70378149D01*
X110897627Y-70379715D01*
X110890866Y-70381737D01*
X110881619Y-70385632D01*
X110873512Y-70390574D01*
X110866617Y-70396576D01*
X110861009Y-70403649D01*
X110856760Y-70411807D01*
X110853944Y-70421063D01*
X110852900Y-70427850D01*
X110852547Y-70435133D01*
G37*
G36*
X111994288Y-70365670D02*
G01*
X112012846Y-70367048D01*
X112031128Y-70369315D01*
X112049112Y-70372451D01*
X112066775Y-70376432D01*
X112084095Y-70381236D01*
X112101049Y-70386840D01*
X112117615Y-70393221D01*
X112133770Y-70400358D01*
X112149491Y-70408228D01*
X112164756Y-70416807D01*
X112179543Y-70426073D01*
X112193828Y-70436005D01*
X112207589Y-70446578D01*
X112220804Y-70457772D01*
X112233450Y-70469562D01*
X112245504Y-70481927D01*
X112256945Y-70494844D01*
X112267748Y-70508290D01*
X112277892Y-70522243D01*
X112287355Y-70536681D01*
X112296113Y-70551580D01*
X112304144Y-70566918D01*
X112311426Y-70582672D01*
X112317935Y-70598821D01*
X112323650Y-70615341D01*
X112328547Y-70632209D01*
X112332605Y-70649404D01*
X112335800Y-70666903D01*
X112338110Y-70684683D01*
X112339513Y-70702721D01*
X112339986Y-70720995D01*
X112339507Y-70739253D01*
X112338088Y-70757275D01*
X112335751Y-70775039D01*
X112332521Y-70792522D01*
X112328420Y-70809701D01*
X112323474Y-70826554D01*
X112317705Y-70843059D01*
X112311137Y-70859192D01*
X112303794Y-70874932D01*
X112295700Y-70890255D01*
X112286878Y-70905140D01*
X112277351Y-70919563D01*
X112267145Y-70933503D01*
X112256282Y-70946936D01*
X112244786Y-70959840D01*
X112232681Y-70972193D01*
X112219990Y-70983971D01*
X112206737Y-70995153D01*
X112192946Y-71005716D01*
X112178641Y-71015638D01*
X112163845Y-71024895D01*
X112148582Y-71033465D01*
X112132876Y-71041327D01*
X112116750Y-71048456D01*
X112100228Y-71054831D01*
X112083333Y-71060429D01*
X112066090Y-71065228D01*
X112048523Y-71069205D01*
X112030654Y-71072337D01*
X112012508Y-71074602D01*
X111994108Y-71075978D01*
X111975478Y-71076442D01*
X111961392Y-71076182D01*
X111947448Y-71075410D01*
X111933654Y-71074133D01*
X111920020Y-71072362D01*
X111906555Y-71070105D01*
X111893268Y-71067371D01*
X111880168Y-71064170D01*
X111867264Y-71060509D01*
X111854566Y-71056399D01*
X111842082Y-71051848D01*
X111829821Y-71046865D01*
X111817794Y-71041460D01*
X111806008Y-71035640D01*
X111794474Y-71029416D01*
X111783199Y-71022796D01*
X111772194Y-71015790D01*
X111761468Y-71008406D01*
X111751029Y-71000653D01*
X111740887Y-70992541D01*
X111731051Y-70984078D01*
X111721529Y-70975273D01*
X111712333Y-70966136D01*
X111703469Y-70956675D01*
X111694948Y-70946900D01*
X111686778Y-70936819D01*
X111678970Y-70926441D01*
X111671531Y-70915777D01*
X111664471Y-70904833D01*
X111657800Y-70893620D01*
X111651525Y-70882147D01*
X111645658Y-70870422D01*
X111640205Y-70858455D01*
X111636816Y-70850375D01*
X111633635Y-70842226D01*
X111630666Y-70834009D01*
X111627909Y-70825725D01*
X111625365Y-70817372D01*
X111623036Y-70808951D01*
X111620923Y-70800462D01*
X111619026Y-70791905D01*
X111617349Y-70783279D01*
X111615891Y-70774586D01*
X111614653Y-70765824D01*
X111613638Y-70756995D01*
X111612847Y-70748097D01*
X111612280Y-70739131D01*
X111611938Y-70730097D01*
X111611824Y-70720995D01*
X111731503Y-70720995D01*
X111731805Y-70732824D01*
X111732703Y-70744545D01*
X111734184Y-70756141D01*
X111736236Y-70767595D01*
X111738847Y-70778887D01*
X111742005Y-70790002D01*
X111745696Y-70800922D01*
X111749909Y-70811628D01*
X111754632Y-70822103D01*
X111759852Y-70832331D01*
X111765556Y-70842292D01*
X111771733Y-70851970D01*
X111778370Y-70861348D01*
X111785454Y-70870406D01*
X111792974Y-70879129D01*
X111800917Y-70887498D01*
X111809271Y-70895496D01*
X111818023Y-70903106D01*
X111827161Y-70910309D01*
X111836673Y-70917088D01*
X111846547Y-70923426D01*
X111856769Y-70929304D01*
X111867328Y-70934707D01*
X111878212Y-70939615D01*
X111889407Y-70944011D01*
X111900902Y-70947879D01*
X111912685Y-70951199D01*
X111924743Y-70953955D01*
X111937063Y-70956130D01*
X111949634Y-70957704D01*
X111962443Y-70958662D01*
X111975478Y-70958985D01*
X111987986Y-70958687D01*
X112000335Y-70957802D01*
X112012510Y-70956342D01*
X112024494Y-70954320D01*
X112036273Y-70951749D01*
X112047831Y-70948640D01*
X112059151Y-70945008D01*
X112070219Y-70940865D01*
X112081019Y-70936223D01*
X112091534Y-70931095D01*
X112101751Y-70925494D01*
X112111652Y-70919432D01*
X112121223Y-70912922D01*
X112130447Y-70905977D01*
X112139309Y-70898610D01*
X112147794Y-70890832D01*
X112155885Y-70882658D01*
X112163568Y-70874098D01*
X112170826Y-70865167D01*
X112177645Y-70855877D01*
X112184007Y-70846241D01*
X112189898Y-70836270D01*
X112195303Y-70825978D01*
X112200204Y-70815378D01*
X112204588Y-70804483D01*
X112208438Y-70793304D01*
X112211738Y-70781854D01*
X112214473Y-70770147D01*
X112216628Y-70758195D01*
X112218186Y-70746010D01*
X112219133Y-70733606D01*
X112219452Y-70720995D01*
X112219130Y-70708639D01*
X112218175Y-70696457D01*
X112216603Y-70684462D01*
X112214431Y-70672670D01*
X112211675Y-70661094D01*
X112208350Y-70649750D01*
X112204473Y-70638651D01*
X112200060Y-70627811D01*
X112195128Y-70617245D01*
X112189692Y-70606968D01*
X112183768Y-70596993D01*
X112177374Y-70587336D01*
X112170525Y-70578010D01*
X112163237Y-70569029D01*
X112155526Y-70560408D01*
X112147409Y-70552162D01*
X112138902Y-70544305D01*
X112130021Y-70536850D01*
X112120782Y-70529813D01*
X112111201Y-70523207D01*
X112101295Y-70517048D01*
X112091080Y-70511349D01*
X112080572Y-70506125D01*
X112069786Y-70501389D01*
X112058740Y-70497157D01*
X112047450Y-70493443D01*
X112035931Y-70490261D01*
X112024200Y-70487626D01*
X112012273Y-70485551D01*
X112000166Y-70484051D01*
X111987895Y-70483140D01*
X111975478Y-70482834D01*
X111963225Y-70483140D01*
X111951099Y-70484051D01*
X111939117Y-70485551D01*
X111927295Y-70487626D01*
X111915652Y-70490261D01*
X111904204Y-70493443D01*
X111892968Y-70497157D01*
X111881962Y-70501389D01*
X111871203Y-70506125D01*
X111860709Y-70511349D01*
X111850495Y-70517048D01*
X111840580Y-70523207D01*
X111830981Y-70529813D01*
X111821715Y-70536850D01*
X111812799Y-70544305D01*
X111804251Y-70552162D01*
X111796087Y-70560408D01*
X111788326Y-70569029D01*
X111780983Y-70578010D01*
X111774077Y-70587336D01*
X111767624Y-70596993D01*
X111761642Y-70606968D01*
X111756148Y-70617245D01*
X111751160Y-70627811D01*
X111746693Y-70638651D01*
X111742767Y-70649750D01*
X111739397Y-70661094D01*
X111736601Y-70672670D01*
X111734397Y-70684462D01*
X111732801Y-70696457D01*
X111731831Y-70708639D01*
X111731503Y-70720995D01*
X111611824Y-70720995D01*
X111612300Y-70702631D01*
X111613711Y-70684514D01*
X111616034Y-70666666D01*
X111619246Y-70649110D01*
X111623323Y-70631867D01*
X111628242Y-70614960D01*
X111633981Y-70598410D01*
X111640515Y-70582239D01*
X111647822Y-70566471D01*
X111655878Y-70551125D01*
X111664659Y-70536225D01*
X111674143Y-70521793D01*
X111684306Y-70507850D01*
X111695125Y-70494418D01*
X111706577Y-70481520D01*
X111718638Y-70469178D01*
X111731285Y-70457413D01*
X111744495Y-70446247D01*
X111758244Y-70435703D01*
X111772509Y-70425803D01*
X111787268Y-70416568D01*
X111802496Y-70408021D01*
X111818170Y-70400183D01*
X111834267Y-70393077D01*
X111850764Y-70386725D01*
X111867637Y-70381148D01*
X111884864Y-70376369D01*
X111902420Y-70372409D01*
X111920283Y-70369291D01*
X111938429Y-70367036D01*
X111956835Y-70365668D01*
X111975478Y-70365206D01*
X111994288Y-70365670D01*
G37*
G36*
X112647916Y-70376369D02*
G01*
X112655124Y-70377184D01*
X112661922Y-70378200D01*
X112671430Y-70379150D01*
X112680814Y-70380330D01*
X112690075Y-70381737D01*
X112699210Y-70383366D01*
X112708218Y-70385213D01*
X112717100Y-70387274D01*
X112725853Y-70389545D01*
X112734477Y-70392022D01*
X112742971Y-70394701D01*
X112751334Y-70397577D01*
X112759564Y-70400648D01*
X112767662Y-70403908D01*
X112775625Y-70407353D01*
X112783452Y-70410980D01*
X112791144Y-70414785D01*
X112798698Y-70418763D01*
X112806114Y-70422910D01*
X112813391Y-70427222D01*
X112820527Y-70431696D01*
X112827523Y-70436327D01*
X112834376Y-70441110D01*
X112841085Y-70446043D01*
X112847651Y-70451120D01*
X112854071Y-70456339D01*
X112860345Y-70461694D01*
X112866472Y-70467182D01*
X112872450Y-70472798D01*
X112878279Y-70478539D01*
X112883958Y-70484400D01*
X112889486Y-70490378D01*
X112894861Y-70496468D01*
X112900083Y-70502666D01*
X112905137Y-70509064D01*
X112910009Y-70515527D01*
X112914700Y-70522052D01*
X112919212Y-70528636D01*
X112923547Y-70535275D01*
X112927705Y-70541966D01*
X112931688Y-70548706D01*
X112935498Y-70555491D01*
X112939136Y-70562317D01*
X112942603Y-70569181D01*
X112945901Y-70576080D01*
X112949031Y-70583011D01*
X112951995Y-70589969D01*
X112954793Y-70596951D01*
X112957429Y-70603955D01*
X112959901Y-70610976D01*
X112962213Y-70618011D01*
X112964366Y-70625056D01*
X112966361Y-70632109D01*
X112968199Y-70639165D01*
X112969882Y-70646222D01*
X112971411Y-70653275D01*
X112972788Y-70660322D01*
X112974014Y-70667358D01*
X112975091Y-70674382D01*
X112976019Y-70681388D01*
X112976801Y-70688374D01*
X112977438Y-70695335D01*
X112977930Y-70702270D01*
X112978280Y-70709174D01*
X112978558Y-70722876D01*
X112978532Y-70725034D01*
X112978263Y-70731923D01*
X112977810Y-70739930D01*
X112977281Y-70748116D01*
X112976762Y-70755672D01*
X112976158Y-70764137D01*
X112975652Y-70771089D01*
X112975107Y-70778243D01*
X112974053Y-70785852D01*
X112972493Y-70793912D01*
X112970432Y-70802420D01*
X112967874Y-70811370D01*
X112964823Y-70820759D01*
X112962517Y-70827260D01*
X112959996Y-70833953D01*
X112957259Y-70840837D01*
X112954310Y-70847910D01*
X112951148Y-70855171D01*
X112947776Y-70862618D01*
X112944194Y-70870252D01*
X112940423Y-70877961D01*
X112936420Y-70885574D01*
X112932185Y-70893088D01*
X112927719Y-70900503D01*
X112923021Y-70907818D01*
X112918092Y-70915031D01*
X112912932Y-70922143D01*
X112907542Y-70929151D01*
X112901921Y-70936055D01*
X112896070Y-70942854D01*
X112889989Y-70949547D01*
X112883678Y-70956132D01*
X112877138Y-70962609D01*
X112870369Y-70968978D01*
X112863371Y-70975236D01*
X112856144Y-70981382D01*
X112847510Y-70988347D01*
X112838885Y-70994921D01*
X112830267Y-71001114D01*
X112821654Y-71006939D01*
X112813045Y-71012405D01*
X112804436Y-71017524D01*
X112795828Y-71022308D01*
X112787216Y-71026767D01*
X112778600Y-71030913D01*
X112769978Y-71034756D01*
X112761347Y-71038309D01*
X112752706Y-71041582D01*
X112744053Y-71044586D01*
X112735386Y-71047333D01*
X112726702Y-71049834D01*
X112718000Y-71052100D01*
X112709278Y-71054141D01*
X112700535Y-71055970D01*
X112691767Y-71057598D01*
X112682973Y-71059035D01*
X112674152Y-71060293D01*
X112665301Y-71061383D01*
X112656418Y-71062316D01*
X112647502Y-71063103D01*
X112638550Y-71063756D01*
X112629560Y-71064286D01*
X112620531Y-71064703D01*
X112611461Y-71065020D01*
X112602348Y-71065246D01*
X112593189Y-71065394D01*
X112583983Y-71065475D01*
X112574727Y-71065500D01*
X112567444Y-71065419D01*
X112559935Y-71065269D01*
X112550495Y-71065063D01*
X112543051Y-71064904D01*
X112534631Y-71064735D01*
X112525189Y-71064559D01*
X112514676Y-71064384D01*
X112503047Y-71064214D01*
X112490253Y-71064055D01*
X112483405Y-71063981D01*
X112476249Y-71063913D01*
X112468777Y-71063849D01*
X112460986Y-71063792D01*
X112452868Y-71063742D01*
X112444418Y-71063700D01*
X112435629Y-71063665D01*
X112426497Y-71063640D01*
X112417015Y-71063624D01*
X112407177Y-71063619D01*
X112400530Y-71063326D01*
X112391129Y-71061839D01*
X112382429Y-71059195D01*
X112374450Y-71055505D01*
X112367213Y-71050881D01*
X112360738Y-71045434D01*
X112355044Y-71039276D01*
X112350153Y-71032518D01*
X112346085Y-71025272D01*
X112342860Y-71017650D01*
X112340498Y-71009763D01*
X112340255Y-71008368D01*
X112339107Y-71001244D01*
X112338618Y-70994034D01*
X112338635Y-70992358D01*
X112339122Y-70985203D01*
X112340457Y-70977503D01*
X112342883Y-70969488D01*
X112346641Y-70961389D01*
X112350481Y-70955397D01*
X112355308Y-70949585D01*
X112358053Y-70947017D01*
X112539508Y-70947017D01*
X112634567Y-70947017D01*
X112647762Y-70946417D01*
X112660515Y-70945176D01*
X112672828Y-70943315D01*
X112684703Y-70940859D01*
X112696142Y-70937828D01*
X112707145Y-70934244D01*
X112717713Y-70930131D01*
X112727850Y-70925510D01*
X112737555Y-70920403D01*
X112746831Y-70914833D01*
X112755679Y-70908822D01*
X112764100Y-70902391D01*
X112772096Y-70895564D01*
X112779668Y-70888362D01*
X112786818Y-70880808D01*
X112793548Y-70872923D01*
X112799858Y-70864731D01*
X112805750Y-70856252D01*
X112811226Y-70847510D01*
X112816288Y-70838526D01*
X112820936Y-70829324D01*
X112825172Y-70819924D01*
X112828997Y-70810349D01*
X112832414Y-70800622D01*
X112835423Y-70790764D01*
X112838026Y-70780797D01*
X112840225Y-70770745D01*
X112842021Y-70760629D01*
X112843415Y-70750471D01*
X112844409Y-70740294D01*
X112845004Y-70730119D01*
X112845202Y-70719969D01*
X112845389Y-70717014D01*
X112845545Y-70710115D01*
X112845241Y-70701798D01*
X112844558Y-70693948D01*
X112843340Y-70684733D01*
X112842166Y-70677838D01*
X112840658Y-70670345D01*
X112838776Y-70662259D01*
X112836481Y-70653585D01*
X112833735Y-70644325D01*
X112830498Y-70634484D01*
X112828806Y-70629510D01*
X112826051Y-70622151D01*
X112823043Y-70614921D01*
X112819784Y-70607830D01*
X112816279Y-70600883D01*
X112812532Y-70594089D01*
X112808548Y-70587456D01*
X112804330Y-70580990D01*
X112799884Y-70574700D01*
X112795213Y-70568593D01*
X112790321Y-70562677D01*
X112783318Y-70554934D01*
X112775903Y-70547555D01*
X112768075Y-70540558D01*
X112759834Y-70533962D01*
X112751181Y-70527785D01*
X112742115Y-70522048D01*
X112732636Y-70516767D01*
X112722745Y-70511963D01*
X112712440Y-70507653D01*
X112701723Y-70503857D01*
X112690594Y-70500594D01*
X112679051Y-70497882D01*
X112667096Y-70495740D01*
X112654728Y-70494186D01*
X112641947Y-70493240D01*
X112628754Y-70492921D01*
X112547372Y-70492921D01*
X112555395Y-70505342D01*
X112562921Y-70518100D01*
X112569946Y-70531172D01*
X112576465Y-70544536D01*
X112582477Y-70558170D01*
X112587977Y-70572051D01*
X112592961Y-70586157D01*
X112597426Y-70600466D01*
X112601369Y-70614957D01*
X112604785Y-70629606D01*
X112607671Y-70644391D01*
X112610024Y-70659290D01*
X112611840Y-70674281D01*
X112613115Y-70689342D01*
X112613846Y-70704451D01*
X112614029Y-70719584D01*
X112613661Y-70734721D01*
X112612737Y-70749839D01*
X112611255Y-70764915D01*
X112609210Y-70779927D01*
X112606600Y-70794853D01*
X112603420Y-70809672D01*
X112599667Y-70824359D01*
X112595337Y-70838895D01*
X112590427Y-70853255D01*
X112584934Y-70867419D01*
X112578852Y-70881363D01*
X112572180Y-70895066D01*
X112564913Y-70908505D01*
X112557047Y-70921658D01*
X112548580Y-70934503D01*
X112539508Y-70947017D01*
X112358053Y-70947017D01*
X112361226Y-70944049D01*
X112368338Y-70938886D01*
X112376744Y-70934195D01*
X112384866Y-70930021D01*
X112392686Y-70925275D01*
X112400200Y-70919980D01*
X112407404Y-70914162D01*
X112414292Y-70907843D01*
X112420859Y-70901049D01*
X112427102Y-70893803D01*
X112433015Y-70886131D01*
X112438593Y-70878055D01*
X112443831Y-70869602D01*
X112448726Y-70860794D01*
X112453272Y-70851656D01*
X112457464Y-70842213D01*
X112461298Y-70832488D01*
X112464768Y-70822507D01*
X112467871Y-70812293D01*
X112469292Y-70807289D01*
X112471821Y-70797652D01*
X112473961Y-70788524D01*
X112475744Y-70779919D01*
X112477200Y-70771853D01*
X112478361Y-70764342D01*
X112479619Y-70754150D01*
X112480391Y-70745293D01*
X112480784Y-70737824D01*
X112480902Y-70730115D01*
X112480694Y-70722876D01*
X112480596Y-70714761D01*
X112480302Y-70706645D01*
X112479809Y-70698534D01*
X112479118Y-70690440D01*
X112478226Y-70682369D01*
X112477133Y-70674332D01*
X112475836Y-70666336D01*
X112474336Y-70658391D01*
X112472630Y-70650505D01*
X112470718Y-70642687D01*
X112468598Y-70634946D01*
X112466268Y-70627291D01*
X112463729Y-70619731D01*
X112460977Y-70612273D01*
X112458013Y-70604928D01*
X112454835Y-70597704D01*
X112451441Y-70590610D01*
X112447831Y-70583654D01*
X112444002Y-70576845D01*
X112439955Y-70570193D01*
X112435687Y-70563706D01*
X112431198Y-70557392D01*
X112426485Y-70551261D01*
X112421549Y-70545321D01*
X112416387Y-70539581D01*
X112410999Y-70534050D01*
X112405382Y-70528737D01*
X112399537Y-70523650D01*
X112393461Y-70518798D01*
X112387153Y-70514191D01*
X112380612Y-70509837D01*
X112373838Y-70505744D01*
X112365937Y-70500791D01*
X112359287Y-70495421D01*
X112353782Y-70489731D01*
X112349320Y-70483820D01*
X112345798Y-70477783D01*
X112342387Y-70469708D01*
X112340218Y-70461813D01*
X112339048Y-70454329D01*
X112338618Y-70445904D01*
X112338947Y-70438311D01*
X112340090Y-70430715D01*
X112341900Y-70423983D01*
X112344758Y-70416803D01*
X112348896Y-70409300D01*
X112352980Y-70403535D01*
X112358013Y-70397710D01*
X112364092Y-70391878D01*
X112366158Y-70389926D01*
X112371715Y-70385635D01*
X112377815Y-70382168D01*
X112384434Y-70379505D01*
X112391550Y-70377627D01*
X112399139Y-70376515D01*
X112407177Y-70376148D01*
X112640380Y-70376148D01*
X112647916Y-70376369D01*
G37*
G36*
X113036859Y-70434107D02*
G01*
X113036859Y-71007712D01*
X113037516Y-71016407D01*
X113039423Y-71024726D01*
X113042490Y-71032566D01*
X113046624Y-71039821D01*
X113051732Y-71046386D01*
X113057723Y-71052156D01*
X113064505Y-71057027D01*
X113071986Y-71060894D01*
X113080072Y-71063652D01*
X113088673Y-71065196D01*
X113094647Y-71065500D01*
X113448384Y-71065500D01*
X113455511Y-71065157D01*
X113468386Y-71062545D01*
X113479422Y-71057658D01*
X113488618Y-71050845D01*
X113495975Y-71042457D01*
X113501493Y-71032843D01*
X113505171Y-71022354D01*
X113507011Y-71011340D01*
X113507011Y-71000151D01*
X113505171Y-70989137D01*
X113501493Y-70978648D01*
X113495975Y-70969034D01*
X113488618Y-70960646D01*
X113479422Y-70953833D01*
X113468386Y-70948946D01*
X113455511Y-70946334D01*
X113448384Y-70945991D01*
X113156367Y-70945991D01*
X113156367Y-70781005D01*
X113388716Y-70781005D01*
X113395827Y-70780666D01*
X113408674Y-70778077D01*
X113419685Y-70773231D01*
X113428862Y-70766477D01*
X113436203Y-70758161D01*
X113441709Y-70748630D01*
X113445379Y-70738231D01*
X113447214Y-70727311D01*
X113447214Y-70716218D01*
X113445379Y-70705298D01*
X113441709Y-70694899D01*
X113436203Y-70685368D01*
X113428862Y-70677051D01*
X113419685Y-70670297D01*
X113408674Y-70665452D01*
X113395827Y-70662863D01*
X113388716Y-70662523D01*
X113156367Y-70662523D01*
X113156367Y-70495827D01*
X113448384Y-70495827D01*
X113455511Y-70495484D01*
X113468386Y-70492869D01*
X113479422Y-70487975D01*
X113488618Y-70481152D01*
X113495975Y-70472752D01*
X113501493Y-70463125D01*
X113505171Y-70452621D01*
X113507011Y-70441591D01*
X113507011Y-70430385D01*
X113505171Y-70419355D01*
X113501493Y-70408851D01*
X113495975Y-70399224D01*
X113488618Y-70390823D01*
X113479422Y-70384001D01*
X113468386Y-70379107D01*
X113455511Y-70376492D01*
X113448384Y-70376148D01*
X113094647Y-70376148D01*
X113085755Y-70376809D01*
X113077315Y-70378728D01*
X113069420Y-70381812D01*
X113062162Y-70385967D01*
X113055634Y-70391099D01*
X113049927Y-70397114D01*
X113045133Y-70403919D01*
X113041345Y-70411419D01*
X113038654Y-70419521D01*
X113037153Y-70428131D01*
X113036859Y-70434107D01*
G37*
G36*
X100873193Y-53723000D02*
G01*
X100884478Y-53722774D01*
X100895563Y-53722103D01*
X100906439Y-53720992D01*
X100917096Y-53719449D01*
X100927522Y-53717480D01*
X100937708Y-53715092D01*
X100947643Y-53712292D01*
X100957316Y-53709087D01*
X100966717Y-53705483D01*
X100975836Y-53701486D01*
X100984662Y-53697105D01*
X100993184Y-53692345D01*
X101001393Y-53687214D01*
X101009277Y-53681717D01*
X101016827Y-53675863D01*
X101024032Y-53669657D01*
X101030881Y-53663106D01*
X101037363Y-53656218D01*
X101043470Y-53648999D01*
X101049189Y-53641455D01*
X101054511Y-53633594D01*
X101059425Y-53625421D01*
X101063920Y-53616945D01*
X101067987Y-53608172D01*
X101071614Y-53599108D01*
X101074792Y-53589760D01*
X101077510Y-53580135D01*
X101079757Y-53570240D01*
X101081522Y-53560082D01*
X101082797Y-53549667D01*
X101083569Y-53539002D01*
X101083828Y-53528094D01*
X101083569Y-53517552D01*
X101082797Y-53507220D01*
X101081526Y-53497104D01*
X101079764Y-53487213D01*
X101077525Y-53477556D01*
X101074818Y-53468140D01*
X101071656Y-53458975D01*
X101068048Y-53450067D01*
X101064008Y-53441426D01*
X101059545Y-53433060D01*
X101054671Y-53424977D01*
X101049396Y-53417185D01*
X101043733Y-53409693D01*
X101037693Y-53402508D01*
X101031286Y-53395639D01*
X101024523Y-53389095D01*
X101017417Y-53382883D01*
X101009977Y-53377013D01*
X101002216Y-53371491D01*
X100994144Y-53366327D01*
X100985773Y-53361528D01*
X100977114Y-53357103D01*
X100968177Y-53353061D01*
X100958975Y-53349409D01*
X100949518Y-53346155D01*
X100939817Y-53343309D01*
X100929884Y-53340878D01*
X100919730Y-53338870D01*
X100909366Y-53337294D01*
X100898803Y-53336158D01*
X100888053Y-53335471D01*
X100877126Y-53335240D01*
X100611438Y-53335240D01*
X100611438Y-53252148D01*
X101056473Y-53252148D01*
X101056473Y-53088359D01*
X100447820Y-53088359D01*
X100447820Y-53471332D01*
X100870116Y-53471332D01*
X100878366Y-53472105D01*
X100886075Y-53474377D01*
X100893071Y-53478076D01*
X100899181Y-53483129D01*
X100904233Y-53489464D01*
X100908055Y-53497009D01*
X100910475Y-53505693D01*
X100911266Y-53512909D01*
X100911320Y-53515442D01*
X100910836Y-53522821D01*
X100909420Y-53529560D01*
X100906163Y-53537517D01*
X100901449Y-53544257D01*
X100895395Y-53549737D01*
X100888117Y-53553912D01*
X100879731Y-53556739D01*
X100872784Y-53557948D01*
X100865329Y-53558355D01*
X100447820Y-53558355D01*
X100447820Y-53723000D01*
X100873193Y-53723000D01*
G37*
G36*
X101574683Y-53723000D02*
G01*
X101583852Y-53722589D01*
X101592601Y-53721357D01*
X101600928Y-53719304D01*
X101608827Y-53716427D01*
X101616294Y-53712726D01*
X101623326Y-53708201D01*
X101629917Y-53702850D01*
X101636064Y-53696673D01*
X101641763Y-53689668D01*
X101647008Y-53681836D01*
X101650252Y-53676154D01*
X101976463Y-53088359D01*
X101783438Y-53088359D01*
X101555022Y-53518006D01*
X101326777Y-53088359D01*
X101133752Y-53088359D01*
X101459108Y-53676154D01*
X101464031Y-53684539D01*
X101469462Y-53692095D01*
X101475385Y-53698824D01*
X101481786Y-53704725D01*
X101488649Y-53709801D01*
X101495958Y-53714051D01*
X101503699Y-53717477D01*
X101511857Y-53720080D01*
X101520416Y-53721859D01*
X101529361Y-53722817D01*
X101535531Y-53723000D01*
X101574683Y-53723000D01*
G37*
X101366666Y-56448833D02*
X101366666Y-57015500D01*
X101366666Y-57015500D02*
X101400000Y-57082166D01*
X101400000Y-57082166D02*
X101433333Y-57115500D01*
X101433333Y-57115500D02*
X101500000Y-57148833D01*
X101500000Y-57148833D02*
X101633333Y-57148833D01*
X101633333Y-57148833D02*
X101700000Y-57115500D01*
X101700000Y-57115500D02*
X101733333Y-57082166D01*
X101733333Y-57082166D02*
X101766666Y-57015500D01*
X101766666Y-57015500D02*
X101766666Y-56448833D01*
X102433333Y-56448833D02*
X102099999Y-56448833D01*
X102099999Y-56448833D02*
X102066666Y-56782166D01*
X102066666Y-56782166D02*
X102099999Y-56748833D01*
X102099999Y-56748833D02*
X102166666Y-56715500D01*
X102166666Y-56715500D02*
X102333333Y-56715500D01*
X102333333Y-56715500D02*
X102399999Y-56748833D01*
X102399999Y-56748833D02*
X102433333Y-56782166D01*
X102433333Y-56782166D02*
X102466666Y-56848833D01*
X102466666Y-56848833D02*
X102466666Y-57015500D01*
X102466666Y-57015500D02*
X102433333Y-57082166D01*
X102433333Y-57082166D02*
X102399999Y-57115500D01*
X102399999Y-57115500D02*
X102333333Y-57148833D01*
X102333333Y-57148833D02*
X102166666Y-57148833D01*
X102166666Y-57148833D02*
X102099999Y-57115500D01*
X102099999Y-57115500D02*
X102066666Y-57082166D01*
X107883333Y-66965500D02*
X107816666Y-66932166D01*
X107816666Y-66932166D02*
X107750000Y-66865500D01*
X107750000Y-66865500D02*
X107650000Y-66765500D01*
X107650000Y-66765500D02*
X107583333Y-66732166D01*
X107583333Y-66732166D02*
X107516666Y-66732166D01*
X107550000Y-66898833D02*
X107483333Y-66865500D01*
X107483333Y-66865500D02*
X107416666Y-66798833D01*
X107416666Y-66798833D02*
X107383333Y-66665500D01*
X107383333Y-66665500D02*
X107383333Y-66432166D01*
X107383333Y-66432166D02*
X107416666Y-66298833D01*
X107416666Y-66298833D02*
X107483333Y-66232166D01*
X107483333Y-66232166D02*
X107550000Y-66198833D01*
X107550000Y-66198833D02*
X107683333Y-66198833D01*
X107683333Y-66198833D02*
X107750000Y-66232166D01*
X107750000Y-66232166D02*
X107816666Y-66298833D01*
X107816666Y-66298833D02*
X107850000Y-66432166D01*
X107850000Y-66432166D02*
X107850000Y-66665500D01*
X107850000Y-66665500D02*
X107816666Y-66798833D01*
X107816666Y-66798833D02*
X107750000Y-66865500D01*
X107750000Y-66865500D02*
X107683333Y-66898833D01*
X107683333Y-66898833D02*
X107550000Y-66898833D01*
X108116666Y-66265500D02*
X108149999Y-66232166D01*
X108149999Y-66232166D02*
X108216666Y-66198833D01*
X108216666Y-66198833D02*
X108383333Y-66198833D01*
X108383333Y-66198833D02*
X108449999Y-66232166D01*
X108449999Y-66232166D02*
X108483333Y-66265500D01*
X108483333Y-66265500D02*
X108516666Y-66332166D01*
X108516666Y-66332166D02*
X108516666Y-66398833D01*
X108516666Y-66398833D02*
X108483333Y-66498833D01*
X108483333Y-66498833D02*
X108083333Y-66898833D01*
X108083333Y-66898833D02*
X108516666Y-66898833D01*
X91833333Y-53982166D02*
X91800000Y-54015500D01*
X91800000Y-54015500D02*
X91700000Y-54048833D01*
X91700000Y-54048833D02*
X91633333Y-54048833D01*
X91633333Y-54048833D02*
X91533333Y-54015500D01*
X91533333Y-54015500D02*
X91466667Y-53948833D01*
X91466667Y-53948833D02*
X91433333Y-53882166D01*
X91433333Y-53882166D02*
X91400000Y-53748833D01*
X91400000Y-53748833D02*
X91400000Y-53648833D01*
X91400000Y-53648833D02*
X91433333Y-53515500D01*
X91433333Y-53515500D02*
X91466667Y-53448833D01*
X91466667Y-53448833D02*
X91533333Y-53382166D01*
X91533333Y-53382166D02*
X91633333Y-53348833D01*
X91633333Y-53348833D02*
X91700000Y-53348833D01*
X91700000Y-53348833D02*
X91800000Y-53382166D01*
X91800000Y-53382166D02*
X91833333Y-53415500D01*
X92100000Y-53415500D02*
X92133333Y-53382166D01*
X92133333Y-53382166D02*
X92200000Y-53348833D01*
X92200000Y-53348833D02*
X92366667Y-53348833D01*
X92366667Y-53348833D02*
X92433333Y-53382166D01*
X92433333Y-53382166D02*
X92466667Y-53415500D01*
X92466667Y-53415500D02*
X92500000Y-53482166D01*
X92500000Y-53482166D02*
X92500000Y-53548833D01*
X92500000Y-53548833D02*
X92466667Y-53648833D01*
X92466667Y-53648833D02*
X92066667Y-54048833D01*
X92066667Y-54048833D02*
X92500000Y-54048833D01*
X98849999Y-71479594D02*
X98616666Y-71146261D01*
X98449999Y-71479594D02*
X98449999Y-70779594D01*
X98449999Y-70779594D02*
X98716666Y-70779594D01*
X98716666Y-70779594D02*
X98783333Y-70812927D01*
X98783333Y-70812927D02*
X98816666Y-70846261D01*
X98816666Y-70846261D02*
X98849999Y-70912927D01*
X98849999Y-70912927D02*
X98849999Y-71012927D01*
X98849999Y-71012927D02*
X98816666Y-71079594D01*
X98816666Y-71079594D02*
X98783333Y-71112927D01*
X98783333Y-71112927D02*
X98716666Y-71146261D01*
X98716666Y-71146261D02*
X98449999Y-71146261D01*
X99516666Y-71479594D02*
X99116666Y-71479594D01*
X99316666Y-71479594D02*
X99316666Y-70779594D01*
X99316666Y-70779594D02*
X99249999Y-70879594D01*
X99249999Y-70879594D02*
X99183333Y-70946261D01*
X99183333Y-70946261D02*
X99116666Y-70979594D01*
X99750000Y-70779594D02*
X100216666Y-70779594D01*
X100216666Y-70779594D02*
X99916666Y-71479594D01*
X92183333Y-58998833D02*
X91950000Y-58665500D01*
X91783333Y-58998833D02*
X91783333Y-58298833D01*
X91783333Y-58298833D02*
X92050000Y-58298833D01*
X92050000Y-58298833D02*
X92116667Y-58332166D01*
X92116667Y-58332166D02*
X92150000Y-58365500D01*
X92150000Y-58365500D02*
X92183333Y-58432166D01*
X92183333Y-58432166D02*
X92183333Y-58532166D01*
X92183333Y-58532166D02*
X92150000Y-58598833D01*
X92150000Y-58598833D02*
X92116667Y-58632166D01*
X92116667Y-58632166D02*
X92050000Y-58665500D01*
X92050000Y-58665500D02*
X91783333Y-58665500D01*
X92450000Y-58365500D02*
X92483333Y-58332166D01*
X92483333Y-58332166D02*
X92550000Y-58298833D01*
X92550000Y-58298833D02*
X92716667Y-58298833D01*
X92716667Y-58298833D02*
X92783333Y-58332166D01*
X92783333Y-58332166D02*
X92816667Y-58365500D01*
X92816667Y-58365500D02*
X92850000Y-58432166D01*
X92850000Y-58432166D02*
X92850000Y-58498833D01*
X92850000Y-58498833D02*
X92816667Y-58598833D01*
X92816667Y-58598833D02*
X92416667Y-58998833D01*
X92416667Y-58998833D02*
X92850000Y-58998833D01*
X104658333Y-51407166D02*
X104625000Y-51440500D01*
X104625000Y-51440500D02*
X104525000Y-51473833D01*
X104525000Y-51473833D02*
X104458333Y-51473833D01*
X104458333Y-51473833D02*
X104358333Y-51440500D01*
X104358333Y-51440500D02*
X104291667Y-51373833D01*
X104291667Y-51373833D02*
X104258333Y-51307166D01*
X104258333Y-51307166D02*
X104225000Y-51173833D01*
X104225000Y-51173833D02*
X104225000Y-51073833D01*
X104225000Y-51073833D02*
X104258333Y-50940500D01*
X104258333Y-50940500D02*
X104291667Y-50873833D01*
X104291667Y-50873833D02*
X104358333Y-50807166D01*
X104358333Y-50807166D02*
X104458333Y-50773833D01*
X104458333Y-50773833D02*
X104525000Y-50773833D01*
X104525000Y-50773833D02*
X104625000Y-50807166D01*
X104625000Y-50807166D02*
X104658333Y-50840500D01*
X105291667Y-50773833D02*
X104958333Y-50773833D01*
X104958333Y-50773833D02*
X104925000Y-51107166D01*
X104925000Y-51107166D02*
X104958333Y-51073833D01*
X104958333Y-51073833D02*
X105025000Y-51040500D01*
X105025000Y-51040500D02*
X105191667Y-51040500D01*
X105191667Y-51040500D02*
X105258333Y-51073833D01*
X105258333Y-51073833D02*
X105291667Y-51107166D01*
X105291667Y-51107166D02*
X105325000Y-51173833D01*
X105325000Y-51173833D02*
X105325000Y-51340500D01*
X105325000Y-51340500D02*
X105291667Y-51407166D01*
X105291667Y-51407166D02*
X105258333Y-51440500D01*
X105258333Y-51440500D02*
X105191667Y-51473833D01*
X105191667Y-51473833D02*
X105025000Y-51473833D01*
X105025000Y-51473833D02*
X104958333Y-51440500D01*
X104958333Y-51440500D02*
X104925000Y-51407166D01*
X108916666Y-82148833D02*
X108916666Y-82648833D01*
X108916666Y-82648833D02*
X108883333Y-82748833D01*
X108883333Y-82748833D02*
X108816666Y-82815500D01*
X108816666Y-82815500D02*
X108716666Y-82848833D01*
X108716666Y-82848833D02*
X108650000Y-82848833D01*
X109616666Y-82848833D02*
X109216666Y-82848833D01*
X109416666Y-82848833D02*
X109416666Y-82148833D01*
X109416666Y-82148833D02*
X109349999Y-82248833D01*
X109349999Y-82248833D02*
X109283333Y-82315500D01*
X109283333Y-82315500D02*
X109216666Y-82348833D01*
X110183333Y-72148833D02*
X110183333Y-71448833D01*
X110183333Y-71448833D02*
X110350000Y-71448833D01*
X110350000Y-71448833D02*
X110450000Y-71482166D01*
X110450000Y-71482166D02*
X110516667Y-71548833D01*
X110516667Y-71548833D02*
X110550000Y-71615500D01*
X110550000Y-71615500D02*
X110583333Y-71748833D01*
X110583333Y-71748833D02*
X110583333Y-71848833D01*
X110583333Y-71848833D02*
X110550000Y-71982166D01*
X110550000Y-71982166D02*
X110516667Y-72048833D01*
X110516667Y-72048833D02*
X110450000Y-72115500D01*
X110450000Y-72115500D02*
X110350000Y-72148833D01*
X110350000Y-72148833D02*
X110183333Y-72148833D01*
X111216667Y-71448833D02*
X110883333Y-71448833D01*
X110883333Y-71448833D02*
X110850000Y-71782166D01*
X110850000Y-71782166D02*
X110883333Y-71748833D01*
X110883333Y-71748833D02*
X110950000Y-71715500D01*
X110950000Y-71715500D02*
X111116667Y-71715500D01*
X111116667Y-71715500D02*
X111183333Y-71748833D01*
X111183333Y-71748833D02*
X111216667Y-71782166D01*
X111216667Y-71782166D02*
X111250000Y-71848833D01*
X111250000Y-71848833D02*
X111250000Y-72015500D01*
X111250000Y-72015500D02*
X111216667Y-72082166D01*
X111216667Y-72082166D02*
X111183333Y-72115500D01*
X111183333Y-72115500D02*
X111116667Y-72148833D01*
X111116667Y-72148833D02*
X110950000Y-72148833D01*
X110950000Y-72148833D02*
X110883333Y-72115500D01*
X110883333Y-72115500D02*
X110850000Y-72082166D01*
X104891666Y-67823833D02*
X104891666Y-68390500D01*
X104891666Y-68390500D02*
X104925000Y-68457166D01*
X104925000Y-68457166D02*
X104958333Y-68490500D01*
X104958333Y-68490500D02*
X105025000Y-68523833D01*
X105025000Y-68523833D02*
X105158333Y-68523833D01*
X105158333Y-68523833D02*
X105225000Y-68490500D01*
X105225000Y-68490500D02*
X105258333Y-68457166D01*
X105258333Y-68457166D02*
X105291666Y-68390500D01*
X105291666Y-68390500D02*
X105291666Y-67823833D01*
X105924999Y-68057166D02*
X105924999Y-68523833D01*
X105758333Y-67790500D02*
X105591666Y-68290500D01*
X105591666Y-68290500D02*
X106024999Y-68290500D01*
X101673833Y-55400000D02*
X101340500Y-55633333D01*
X101673833Y-55800000D02*
X100973833Y-55800000D01*
X100973833Y-55800000D02*
X100973833Y-55533333D01*
X100973833Y-55533333D02*
X101007166Y-55466667D01*
X101007166Y-55466667D02*
X101040500Y-55433333D01*
X101040500Y-55433333D02*
X101107166Y-55400000D01*
X101107166Y-55400000D02*
X101207166Y-55400000D01*
X101207166Y-55400000D02*
X101273833Y-55433333D01*
X101273833Y-55433333D02*
X101307166Y-55466667D01*
X101307166Y-55466667D02*
X101340500Y-55533333D01*
X101340500Y-55533333D02*
X101340500Y-55800000D01*
X101673833Y-54733333D02*
X101673833Y-55133333D01*
X101673833Y-54933333D02*
X100973833Y-54933333D01*
X100973833Y-54933333D02*
X101073833Y-55000000D01*
X101073833Y-55000000D02*
X101140500Y-55066667D01*
X101140500Y-55066667D02*
X101173833Y-55133333D01*
X101673833Y-54066666D02*
X101673833Y-54466666D01*
X101673833Y-54266666D02*
X100973833Y-54266666D01*
X100973833Y-54266666D02*
X101073833Y-54333333D01*
X101073833Y-54333333D02*
X101140500Y-54400000D01*
X101140500Y-54400000D02*
X101173833Y-54466666D01*
X90658333Y-60923833D02*
X90425000Y-60590500D01*
X90258333Y-60923833D02*
X90258333Y-60223833D01*
X90258333Y-60223833D02*
X90525000Y-60223833D01*
X90525000Y-60223833D02*
X90591667Y-60257166D01*
X90591667Y-60257166D02*
X90625000Y-60290500D01*
X90625000Y-60290500D02*
X90658333Y-60357166D01*
X90658333Y-60357166D02*
X90658333Y-60457166D01*
X90658333Y-60457166D02*
X90625000Y-60523833D01*
X90625000Y-60523833D02*
X90591667Y-60557166D01*
X90591667Y-60557166D02*
X90525000Y-60590500D01*
X90525000Y-60590500D02*
X90258333Y-60590500D01*
X91291667Y-60223833D02*
X90958333Y-60223833D01*
X90958333Y-60223833D02*
X90925000Y-60557166D01*
X90925000Y-60557166D02*
X90958333Y-60523833D01*
X90958333Y-60523833D02*
X91025000Y-60490500D01*
X91025000Y-60490500D02*
X91191667Y-60490500D01*
X91191667Y-60490500D02*
X91258333Y-60523833D01*
X91258333Y-60523833D02*
X91291667Y-60557166D01*
X91291667Y-60557166D02*
X91325000Y-60623833D01*
X91325000Y-60623833D02*
X91325000Y-60790500D01*
X91325000Y-60790500D02*
X91291667Y-60857166D01*
X91291667Y-60857166D02*
X91258333Y-60890500D01*
X91258333Y-60890500D02*
X91191667Y-60923833D01*
X91191667Y-60923833D02*
X91025000Y-60923833D01*
X91025000Y-60923833D02*
X90958333Y-60890500D01*
X90958333Y-60890500D02*
X90925000Y-60857166D01*
X91824999Y-52773833D02*
X91591666Y-52440500D01*
X91424999Y-52773833D02*
X91424999Y-52073833D01*
X91424999Y-52073833D02*
X91691666Y-52073833D01*
X91691666Y-52073833D02*
X91758333Y-52107166D01*
X91758333Y-52107166D02*
X91791666Y-52140500D01*
X91791666Y-52140500D02*
X91824999Y-52207166D01*
X91824999Y-52207166D02*
X91824999Y-52307166D01*
X91824999Y-52307166D02*
X91791666Y-52373833D01*
X91791666Y-52373833D02*
X91758333Y-52407166D01*
X91758333Y-52407166D02*
X91691666Y-52440500D01*
X91691666Y-52440500D02*
X91424999Y-52440500D01*
X92491666Y-52773833D02*
X92091666Y-52773833D01*
X92291666Y-52773833D02*
X92291666Y-52073833D01*
X92291666Y-52073833D02*
X92224999Y-52173833D01*
X92224999Y-52173833D02*
X92158333Y-52240500D01*
X92158333Y-52240500D02*
X92091666Y-52273833D01*
X92758333Y-52140500D02*
X92791666Y-52107166D01*
X92791666Y-52107166D02*
X92858333Y-52073833D01*
X92858333Y-52073833D02*
X93025000Y-52073833D01*
X93025000Y-52073833D02*
X93091666Y-52107166D01*
X93091666Y-52107166D02*
X93125000Y-52140500D01*
X93125000Y-52140500D02*
X93158333Y-52207166D01*
X93158333Y-52207166D02*
X93158333Y-52273833D01*
X93158333Y-52273833D02*
X93125000Y-52373833D01*
X93125000Y-52373833D02*
X92725000Y-52773833D01*
X92725000Y-52773833D02*
X93158333Y-52773833D01*
X100498833Y-73372427D02*
X99798833Y-73372427D01*
X99798833Y-73372427D02*
X99798833Y-73205760D01*
X99798833Y-73205760D02*
X99832166Y-73105760D01*
X99832166Y-73105760D02*
X99898833Y-73039094D01*
X99898833Y-73039094D02*
X99965500Y-73005760D01*
X99965500Y-73005760D02*
X100098833Y-72972427D01*
X100098833Y-72972427D02*
X100198833Y-72972427D01*
X100198833Y-72972427D02*
X100332166Y-73005760D01*
X100332166Y-73005760D02*
X100398833Y-73039094D01*
X100398833Y-73039094D02*
X100465500Y-73105760D01*
X100465500Y-73105760D02*
X100498833Y-73205760D01*
X100498833Y-73205760D02*
X100498833Y-73372427D01*
X99865500Y-72705760D02*
X99832166Y-72672427D01*
X99832166Y-72672427D02*
X99798833Y-72605760D01*
X99798833Y-72605760D02*
X99798833Y-72439094D01*
X99798833Y-72439094D02*
X99832166Y-72372427D01*
X99832166Y-72372427D02*
X99865500Y-72339094D01*
X99865500Y-72339094D02*
X99932166Y-72305760D01*
X99932166Y-72305760D02*
X99998833Y-72305760D01*
X99998833Y-72305760D02*
X100098833Y-72339094D01*
X100098833Y-72339094D02*
X100498833Y-72739094D01*
X100498833Y-72739094D02*
X100498833Y-72305760D01*
X89073833Y-54041666D02*
X88740500Y-54274999D01*
X89073833Y-54441666D02*
X88373833Y-54441666D01*
X88373833Y-54441666D02*
X88373833Y-54174999D01*
X88373833Y-54174999D02*
X88407166Y-54108333D01*
X88407166Y-54108333D02*
X88440500Y-54074999D01*
X88440500Y-54074999D02*
X88507166Y-54041666D01*
X88507166Y-54041666D02*
X88607166Y-54041666D01*
X88607166Y-54041666D02*
X88673833Y-54074999D01*
X88673833Y-54074999D02*
X88707166Y-54108333D01*
X88707166Y-54108333D02*
X88740500Y-54174999D01*
X88740500Y-54174999D02*
X88740500Y-54441666D01*
X88373833Y-53441666D02*
X88373833Y-53574999D01*
X88373833Y-53574999D02*
X88407166Y-53641666D01*
X88407166Y-53641666D02*
X88440500Y-53674999D01*
X88440500Y-53674999D02*
X88540500Y-53741666D01*
X88540500Y-53741666D02*
X88673833Y-53774999D01*
X88673833Y-53774999D02*
X88940500Y-53774999D01*
X88940500Y-53774999D02*
X89007166Y-53741666D01*
X89007166Y-53741666D02*
X89040500Y-53708333D01*
X89040500Y-53708333D02*
X89073833Y-53641666D01*
X89073833Y-53641666D02*
X89073833Y-53508333D01*
X89073833Y-53508333D02*
X89040500Y-53441666D01*
X89040500Y-53441666D02*
X89007166Y-53408333D01*
X89007166Y-53408333D02*
X88940500Y-53374999D01*
X88940500Y-53374999D02*
X88773833Y-53374999D01*
X88773833Y-53374999D02*
X88707166Y-53408333D01*
X88707166Y-53408333D02*
X88673833Y-53441666D01*
X88673833Y-53441666D02*
X88640500Y-53508333D01*
X88640500Y-53508333D02*
X88640500Y-53641666D01*
X88640500Y-53641666D02*
X88673833Y-53708333D01*
X88673833Y-53708333D02*
X88707166Y-53741666D01*
X88707166Y-53741666D02*
X88773833Y-53774999D01*
X102757166Y-75075000D02*
X102790500Y-75108333D01*
X102790500Y-75108333D02*
X102823833Y-75208333D01*
X102823833Y-75208333D02*
X102823833Y-75275000D01*
X102823833Y-75275000D02*
X102790500Y-75375000D01*
X102790500Y-75375000D02*
X102723833Y-75441667D01*
X102723833Y-75441667D02*
X102657166Y-75475000D01*
X102657166Y-75475000D02*
X102523833Y-75508333D01*
X102523833Y-75508333D02*
X102423833Y-75508333D01*
X102423833Y-75508333D02*
X102290500Y-75475000D01*
X102290500Y-75475000D02*
X102223833Y-75441667D01*
X102223833Y-75441667D02*
X102157166Y-75375000D01*
X102157166Y-75375000D02*
X102123833Y-75275000D01*
X102123833Y-75275000D02*
X102123833Y-75208333D01*
X102123833Y-75208333D02*
X102157166Y-75108333D01*
X102157166Y-75108333D02*
X102190500Y-75075000D01*
X102823833Y-74408333D02*
X102823833Y-74808333D01*
X102823833Y-74608333D02*
X102123833Y-74608333D01*
X102123833Y-74608333D02*
X102223833Y-74675000D01*
X102223833Y-74675000D02*
X102290500Y-74741667D01*
X102290500Y-74741667D02*
X102323833Y-74808333D01*
X102123833Y-73975000D02*
X102123833Y-73908333D01*
X102123833Y-73908333D02*
X102157166Y-73841666D01*
X102157166Y-73841666D02*
X102190500Y-73808333D01*
X102190500Y-73808333D02*
X102257166Y-73775000D01*
X102257166Y-73775000D02*
X102390500Y-73741666D01*
X102390500Y-73741666D02*
X102557166Y-73741666D01*
X102557166Y-73741666D02*
X102690500Y-73775000D01*
X102690500Y-73775000D02*
X102757166Y-73808333D01*
X102757166Y-73808333D02*
X102790500Y-73841666D01*
X102790500Y-73841666D02*
X102823833Y-73908333D01*
X102823833Y-73908333D02*
X102823833Y-73975000D01*
X102823833Y-73975000D02*
X102790500Y-74041666D01*
X102790500Y-74041666D02*
X102757166Y-74075000D01*
X102757166Y-74075000D02*
X102690500Y-74108333D01*
X102690500Y-74108333D02*
X102557166Y-74141666D01*
X102557166Y-74141666D02*
X102390500Y-74141666D01*
X102390500Y-74141666D02*
X102257166Y-74108333D01*
X102257166Y-74108333D02*
X102190500Y-74075000D01*
X102190500Y-74075000D02*
X102157166Y-74041666D01*
X102157166Y-74041666D02*
X102123833Y-73975000D01*
X110448833Y-57233333D02*
X111015500Y-57233333D01*
X111015500Y-57233333D02*
X111082166Y-57200000D01*
X111082166Y-57200000D02*
X111115500Y-57166666D01*
X111115500Y-57166666D02*
X111148833Y-57100000D01*
X111148833Y-57100000D02*
X111148833Y-56966666D01*
X111148833Y-56966666D02*
X111115500Y-56900000D01*
X111115500Y-56900000D02*
X111082166Y-56866666D01*
X111082166Y-56866666D02*
X111015500Y-56833333D01*
X111015500Y-56833333D02*
X110448833Y-56833333D01*
X110515500Y-56533333D02*
X110482166Y-56500000D01*
X110482166Y-56500000D02*
X110448833Y-56433333D01*
X110448833Y-56433333D02*
X110448833Y-56266667D01*
X110448833Y-56266667D02*
X110482166Y-56200000D01*
X110482166Y-56200000D02*
X110515500Y-56166667D01*
X110515500Y-56166667D02*
X110582166Y-56133333D01*
X110582166Y-56133333D02*
X110648833Y-56133333D01*
X110648833Y-56133333D02*
X110748833Y-56166667D01*
X110748833Y-56166667D02*
X111148833Y-56566667D01*
X111148833Y-56566667D02*
X111148833Y-56133333D01*
X92674999Y-67557166D02*
X92641666Y-67590500D01*
X92641666Y-67590500D02*
X92541666Y-67623833D01*
X92541666Y-67623833D02*
X92474999Y-67623833D01*
X92474999Y-67623833D02*
X92374999Y-67590500D01*
X92374999Y-67590500D02*
X92308333Y-67523833D01*
X92308333Y-67523833D02*
X92274999Y-67457166D01*
X92274999Y-67457166D02*
X92241666Y-67323833D01*
X92241666Y-67323833D02*
X92241666Y-67223833D01*
X92241666Y-67223833D02*
X92274999Y-67090500D01*
X92274999Y-67090500D02*
X92308333Y-67023833D01*
X92308333Y-67023833D02*
X92374999Y-66957166D01*
X92374999Y-66957166D02*
X92474999Y-66923833D01*
X92474999Y-66923833D02*
X92541666Y-66923833D01*
X92541666Y-66923833D02*
X92641666Y-66957166D01*
X92641666Y-66957166D02*
X92674999Y-66990500D01*
X93341666Y-67623833D02*
X92941666Y-67623833D01*
X93141666Y-67623833D02*
X93141666Y-66923833D01*
X93141666Y-66923833D02*
X93074999Y-67023833D01*
X93074999Y-67023833D02*
X93008333Y-67090500D01*
X93008333Y-67090500D02*
X92941666Y-67123833D01*
X93608333Y-66990500D02*
X93641666Y-66957166D01*
X93641666Y-66957166D02*
X93708333Y-66923833D01*
X93708333Y-66923833D02*
X93875000Y-66923833D01*
X93875000Y-66923833D02*
X93941666Y-66957166D01*
X93941666Y-66957166D02*
X93975000Y-66990500D01*
X93975000Y-66990500D02*
X94008333Y-67057166D01*
X94008333Y-67057166D02*
X94008333Y-67123833D01*
X94008333Y-67123833D02*
X93975000Y-67223833D01*
X93975000Y-67223833D02*
X93575000Y-67623833D01*
X93575000Y-67623833D02*
X94008333Y-67623833D01*
X110248833Y-52375000D02*
X109915500Y-52608333D01*
X110248833Y-52775000D02*
X109548833Y-52775000D01*
X109548833Y-52775000D02*
X109548833Y-52508333D01*
X109548833Y-52508333D02*
X109582166Y-52441667D01*
X109582166Y-52441667D02*
X109615500Y-52408333D01*
X109615500Y-52408333D02*
X109682166Y-52375000D01*
X109682166Y-52375000D02*
X109782166Y-52375000D01*
X109782166Y-52375000D02*
X109848833Y-52408333D01*
X109848833Y-52408333D02*
X109882166Y-52441667D01*
X109882166Y-52441667D02*
X109915500Y-52508333D01*
X109915500Y-52508333D02*
X109915500Y-52775000D01*
X110248833Y-51708333D02*
X110248833Y-52108333D01*
X110248833Y-51908333D02*
X109548833Y-51908333D01*
X109548833Y-51908333D02*
X109648833Y-51975000D01*
X109648833Y-51975000D02*
X109715500Y-52041667D01*
X109715500Y-52041667D02*
X109748833Y-52108333D01*
X109548833Y-51275000D02*
X109548833Y-51208333D01*
X109548833Y-51208333D02*
X109582166Y-51141666D01*
X109582166Y-51141666D02*
X109615500Y-51108333D01*
X109615500Y-51108333D02*
X109682166Y-51075000D01*
X109682166Y-51075000D02*
X109815500Y-51041666D01*
X109815500Y-51041666D02*
X109982166Y-51041666D01*
X109982166Y-51041666D02*
X110115500Y-51075000D01*
X110115500Y-51075000D02*
X110182166Y-51108333D01*
X110182166Y-51108333D02*
X110215500Y-51141666D01*
X110215500Y-51141666D02*
X110248833Y-51208333D01*
X110248833Y-51208333D02*
X110248833Y-51275000D01*
X110248833Y-51275000D02*
X110215500Y-51341666D01*
X110215500Y-51341666D02*
X110182166Y-51375000D01*
X110182166Y-51375000D02*
X110115500Y-51408333D01*
X110115500Y-51408333D02*
X109982166Y-51441666D01*
X109982166Y-51441666D02*
X109815500Y-51441666D01*
X109815500Y-51441666D02*
X109682166Y-51408333D01*
X109682166Y-51408333D02*
X109615500Y-51375000D01*
X109615500Y-51375000D02*
X109582166Y-51341666D01*
X109582166Y-51341666D02*
X109548833Y-51275000D01*
X86741666Y-54973833D02*
X86741666Y-55540500D01*
X86741666Y-55540500D02*
X86775000Y-55607166D01*
X86775000Y-55607166D02*
X86808333Y-55640500D01*
X86808333Y-55640500D02*
X86875000Y-55673833D01*
X86875000Y-55673833D02*
X87008333Y-55673833D01*
X87008333Y-55673833D02*
X87075000Y-55640500D01*
X87075000Y-55640500D02*
X87108333Y-55607166D01*
X87108333Y-55607166D02*
X87141666Y-55540500D01*
X87141666Y-55540500D02*
X87141666Y-54973833D01*
X87408333Y-54973833D02*
X87841666Y-54973833D01*
X87841666Y-54973833D02*
X87608333Y-55240500D01*
X87608333Y-55240500D02*
X87708333Y-55240500D01*
X87708333Y-55240500D02*
X87774999Y-55273833D01*
X87774999Y-55273833D02*
X87808333Y-55307166D01*
X87808333Y-55307166D02*
X87841666Y-55373833D01*
X87841666Y-55373833D02*
X87841666Y-55540500D01*
X87841666Y-55540500D02*
X87808333Y-55607166D01*
X87808333Y-55607166D02*
X87774999Y-55640500D01*
X87774999Y-55640500D02*
X87708333Y-55673833D01*
X87708333Y-55673833D02*
X87508333Y-55673833D01*
X87508333Y-55673833D02*
X87441666Y-55640500D01*
X87441666Y-55640500D02*
X87408333Y-55607166D01*
X93974999Y-71473833D02*
X93741666Y-71140500D01*
X93574999Y-71473833D02*
X93574999Y-70773833D01*
X93574999Y-70773833D02*
X93841666Y-70773833D01*
X93841666Y-70773833D02*
X93908333Y-70807166D01*
X93908333Y-70807166D02*
X93941666Y-70840500D01*
X93941666Y-70840500D02*
X93974999Y-70907166D01*
X93974999Y-70907166D02*
X93974999Y-71007166D01*
X93974999Y-71007166D02*
X93941666Y-71073833D01*
X93941666Y-71073833D02*
X93908333Y-71107166D01*
X93908333Y-71107166D02*
X93841666Y-71140500D01*
X93841666Y-71140500D02*
X93574999Y-71140500D01*
X94641666Y-71473833D02*
X94241666Y-71473833D01*
X94441666Y-71473833D02*
X94441666Y-70773833D01*
X94441666Y-70773833D02*
X94374999Y-70873833D01*
X94374999Y-70873833D02*
X94308333Y-70940500D01*
X94308333Y-70940500D02*
X94241666Y-70973833D01*
X95041666Y-71073833D02*
X94975000Y-71040500D01*
X94975000Y-71040500D02*
X94941666Y-71007166D01*
X94941666Y-71007166D02*
X94908333Y-70940500D01*
X94908333Y-70940500D02*
X94908333Y-70907166D01*
X94908333Y-70907166D02*
X94941666Y-70840500D01*
X94941666Y-70840500D02*
X94975000Y-70807166D01*
X94975000Y-70807166D02*
X95041666Y-70773833D01*
X95041666Y-70773833D02*
X95175000Y-70773833D01*
X95175000Y-70773833D02*
X95241666Y-70807166D01*
X95241666Y-70807166D02*
X95275000Y-70840500D01*
X95275000Y-70840500D02*
X95308333Y-70907166D01*
X95308333Y-70907166D02*
X95308333Y-70940500D01*
X95308333Y-70940500D02*
X95275000Y-71007166D01*
X95275000Y-71007166D02*
X95241666Y-71040500D01*
X95241666Y-71040500D02*
X95175000Y-71073833D01*
X95175000Y-71073833D02*
X95041666Y-71073833D01*
X95041666Y-71073833D02*
X94975000Y-71107166D01*
X94975000Y-71107166D02*
X94941666Y-71140500D01*
X94941666Y-71140500D02*
X94908333Y-71207166D01*
X94908333Y-71207166D02*
X94908333Y-71340500D01*
X94908333Y-71340500D02*
X94941666Y-71407166D01*
X94941666Y-71407166D02*
X94975000Y-71440500D01*
X94975000Y-71440500D02*
X95041666Y-71473833D01*
X95041666Y-71473833D02*
X95175000Y-71473833D01*
X95175000Y-71473833D02*
X95241666Y-71440500D01*
X95241666Y-71440500D02*
X95275000Y-71407166D01*
X95275000Y-71407166D02*
X95308333Y-71340500D01*
X95308333Y-71340500D02*
X95308333Y-71207166D01*
X95308333Y-71207166D02*
X95275000Y-71140500D01*
X95275000Y-71140500D02*
X95241666Y-71107166D01*
X95241666Y-71107166D02*
X95175000Y-71073833D01*
X109458333Y-60157166D02*
X109425000Y-60190500D01*
X109425000Y-60190500D02*
X109325000Y-60223833D01*
X109325000Y-60223833D02*
X109258333Y-60223833D01*
X109258333Y-60223833D02*
X109158333Y-60190500D01*
X109158333Y-60190500D02*
X109091667Y-60123833D01*
X109091667Y-60123833D02*
X109058333Y-60057166D01*
X109058333Y-60057166D02*
X109025000Y-59923833D01*
X109025000Y-59923833D02*
X109025000Y-59823833D01*
X109025000Y-59823833D02*
X109058333Y-59690500D01*
X109058333Y-59690500D02*
X109091667Y-59623833D01*
X109091667Y-59623833D02*
X109158333Y-59557166D01*
X109158333Y-59557166D02*
X109258333Y-59523833D01*
X109258333Y-59523833D02*
X109325000Y-59523833D01*
X109325000Y-59523833D02*
X109425000Y-59557166D01*
X109425000Y-59557166D02*
X109458333Y-59590500D01*
X109691667Y-59523833D02*
X110125000Y-59523833D01*
X110125000Y-59523833D02*
X109891667Y-59790500D01*
X109891667Y-59790500D02*
X109991667Y-59790500D01*
X109991667Y-59790500D02*
X110058333Y-59823833D01*
X110058333Y-59823833D02*
X110091667Y-59857166D01*
X110091667Y-59857166D02*
X110125000Y-59923833D01*
X110125000Y-59923833D02*
X110125000Y-60090500D01*
X110125000Y-60090500D02*
X110091667Y-60157166D01*
X110091667Y-60157166D02*
X110058333Y-60190500D01*
X110058333Y-60190500D02*
X109991667Y-60223833D01*
X109991667Y-60223833D02*
X109791667Y-60223833D01*
X109791667Y-60223833D02*
X109725000Y-60190500D01*
X109725000Y-60190500D02*
X109691667Y-60157166D01*
X106758333Y-64548833D02*
X106525000Y-64215500D01*
X106358333Y-64548833D02*
X106358333Y-63848833D01*
X106358333Y-63848833D02*
X106625000Y-63848833D01*
X106625000Y-63848833D02*
X106691667Y-63882166D01*
X106691667Y-63882166D02*
X106725000Y-63915500D01*
X106725000Y-63915500D02*
X106758333Y-63982166D01*
X106758333Y-63982166D02*
X106758333Y-64082166D01*
X106758333Y-64082166D02*
X106725000Y-64148833D01*
X106725000Y-64148833D02*
X106691667Y-64182166D01*
X106691667Y-64182166D02*
X106625000Y-64215500D01*
X106625000Y-64215500D02*
X106358333Y-64215500D01*
X106991667Y-63848833D02*
X107425000Y-63848833D01*
X107425000Y-63848833D02*
X107191667Y-64115500D01*
X107191667Y-64115500D02*
X107291667Y-64115500D01*
X107291667Y-64115500D02*
X107358333Y-64148833D01*
X107358333Y-64148833D02*
X107391667Y-64182166D01*
X107391667Y-64182166D02*
X107425000Y-64248833D01*
X107425000Y-64248833D02*
X107425000Y-64415500D01*
X107425000Y-64415500D02*
X107391667Y-64482166D01*
X107391667Y-64482166D02*
X107358333Y-64515500D01*
X107358333Y-64515500D02*
X107291667Y-64548833D01*
X107291667Y-64548833D02*
X107091667Y-64548833D01*
X107091667Y-64548833D02*
X107025000Y-64515500D01*
X107025000Y-64515500D02*
X106991667Y-64482166D01*
X86932166Y-57141666D02*
X86965500Y-57174999D01*
X86965500Y-57174999D02*
X86998833Y-57274999D01*
X86998833Y-57274999D02*
X86998833Y-57341666D01*
X86998833Y-57341666D02*
X86965500Y-57441666D01*
X86965500Y-57441666D02*
X86898833Y-57508333D01*
X86898833Y-57508333D02*
X86832166Y-57541666D01*
X86832166Y-57541666D02*
X86698833Y-57574999D01*
X86698833Y-57574999D02*
X86598833Y-57574999D01*
X86598833Y-57574999D02*
X86465500Y-57541666D01*
X86465500Y-57541666D02*
X86398833Y-57508333D01*
X86398833Y-57508333D02*
X86332166Y-57441666D01*
X86332166Y-57441666D02*
X86298833Y-57341666D01*
X86298833Y-57341666D02*
X86298833Y-57274999D01*
X86298833Y-57274999D02*
X86332166Y-57174999D01*
X86332166Y-57174999D02*
X86365500Y-57141666D01*
X86998833Y-56474999D02*
X86998833Y-56874999D01*
X86998833Y-56674999D02*
X86298833Y-56674999D01*
X86298833Y-56674999D02*
X86398833Y-56741666D01*
X86398833Y-56741666D02*
X86465500Y-56808333D01*
X86465500Y-56808333D02*
X86498833Y-56874999D01*
X109908333Y-76473833D02*
X109675000Y-76140500D01*
X109508333Y-76473833D02*
X109508333Y-75773833D01*
X109508333Y-75773833D02*
X109775000Y-75773833D01*
X109775000Y-75773833D02*
X109841667Y-75807166D01*
X109841667Y-75807166D02*
X109875000Y-75840500D01*
X109875000Y-75840500D02*
X109908333Y-75907166D01*
X109908333Y-75907166D02*
X109908333Y-76007166D01*
X109908333Y-76007166D02*
X109875000Y-76073833D01*
X109875000Y-76073833D02*
X109841667Y-76107166D01*
X109841667Y-76107166D02*
X109775000Y-76140500D01*
X109775000Y-76140500D02*
X109508333Y-76140500D01*
X110141667Y-75773833D02*
X110608333Y-75773833D01*
X110608333Y-75773833D02*
X110308333Y-76473833D01*
X91374999Y-71473833D02*
X91141666Y-71140500D01*
X90974999Y-71473833D02*
X90974999Y-70773833D01*
X90974999Y-70773833D02*
X91241666Y-70773833D01*
X91241666Y-70773833D02*
X91308333Y-70807166D01*
X91308333Y-70807166D02*
X91341666Y-70840500D01*
X91341666Y-70840500D02*
X91374999Y-70907166D01*
X91374999Y-70907166D02*
X91374999Y-71007166D01*
X91374999Y-71007166D02*
X91341666Y-71073833D01*
X91341666Y-71073833D02*
X91308333Y-71107166D01*
X91308333Y-71107166D02*
X91241666Y-71140500D01*
X91241666Y-71140500D02*
X90974999Y-71140500D01*
X92041666Y-71473833D02*
X91641666Y-71473833D01*
X91841666Y-71473833D02*
X91841666Y-70773833D01*
X91841666Y-70773833D02*
X91774999Y-70873833D01*
X91774999Y-70873833D02*
X91708333Y-70940500D01*
X91708333Y-70940500D02*
X91641666Y-70973833D01*
X92375000Y-71473833D02*
X92508333Y-71473833D01*
X92508333Y-71473833D02*
X92575000Y-71440500D01*
X92575000Y-71440500D02*
X92608333Y-71407166D01*
X92608333Y-71407166D02*
X92675000Y-71307166D01*
X92675000Y-71307166D02*
X92708333Y-71173833D01*
X92708333Y-71173833D02*
X92708333Y-70907166D01*
X92708333Y-70907166D02*
X92675000Y-70840500D01*
X92675000Y-70840500D02*
X92641666Y-70807166D01*
X92641666Y-70807166D02*
X92575000Y-70773833D01*
X92575000Y-70773833D02*
X92441666Y-70773833D01*
X92441666Y-70773833D02*
X92375000Y-70807166D01*
X92375000Y-70807166D02*
X92341666Y-70840500D01*
X92341666Y-70840500D02*
X92308333Y-70907166D01*
X92308333Y-70907166D02*
X92308333Y-71073833D01*
X92308333Y-71073833D02*
X92341666Y-71140500D01*
X92341666Y-71140500D02*
X92375000Y-71173833D01*
X92375000Y-71173833D02*
X92441666Y-71207166D01*
X92441666Y-71207166D02*
X92575000Y-71207166D01*
X92575000Y-71207166D02*
X92641666Y-71173833D01*
X92641666Y-71173833D02*
X92675000Y-71140500D01*
X92675000Y-71140500D02*
X92708333Y-71073833D01*
X94298833Y-55241666D02*
X93965500Y-55474999D01*
X94298833Y-55641666D02*
X93598833Y-55641666D01*
X93598833Y-55641666D02*
X93598833Y-55374999D01*
X93598833Y-55374999D02*
X93632166Y-55308333D01*
X93632166Y-55308333D02*
X93665500Y-55274999D01*
X93665500Y-55274999D02*
X93732166Y-55241666D01*
X93732166Y-55241666D02*
X93832166Y-55241666D01*
X93832166Y-55241666D02*
X93898833Y-55274999D01*
X93898833Y-55274999D02*
X93932166Y-55308333D01*
X93932166Y-55308333D02*
X93965500Y-55374999D01*
X93965500Y-55374999D02*
X93965500Y-55641666D01*
X94298833Y-54574999D02*
X94298833Y-54974999D01*
X94298833Y-54774999D02*
X93598833Y-54774999D01*
X93598833Y-54774999D02*
X93698833Y-54841666D01*
X93698833Y-54841666D02*
X93765500Y-54908333D01*
X93765500Y-54908333D02*
X93798833Y-54974999D01*
G36*
X86268085Y-70101866D02*
G01*
X86276990Y-70098062D01*
X86285594Y-70093995D01*
X86293897Y-70089674D01*
X86301902Y-70085107D01*
X86309609Y-70080301D01*
X86317020Y-70075266D01*
X86324135Y-70070009D01*
X86330957Y-70064538D01*
X86337485Y-70058862D01*
X86343722Y-70052988D01*
X86349669Y-70046925D01*
X86355327Y-70040680D01*
X86360697Y-70034263D01*
X86365780Y-70027680D01*
X86370577Y-70020940D01*
X86375091Y-70014052D01*
X86379321Y-70007022D01*
X86383270Y-69999860D01*
X86386938Y-69992574D01*
X86390327Y-69985171D01*
X86393438Y-69977659D01*
X86396271Y-69970048D01*
X86398829Y-69962344D01*
X86401113Y-69954557D01*
X86403123Y-69946693D01*
X86404862Y-69938762D01*
X86406329Y-69930771D01*
X86407527Y-69922728D01*
X86408457Y-69914643D01*
X86409120Y-69906521D01*
X86409516Y-69898373D01*
X86409648Y-69890205D01*
X86409448Y-69880283D01*
X86408847Y-69870372D01*
X86407847Y-69860489D01*
X86406450Y-69850651D01*
X86404657Y-69840874D01*
X86402469Y-69831176D01*
X86399889Y-69821573D01*
X86396916Y-69812083D01*
X86393554Y-69802721D01*
X86389803Y-69793506D01*
X86385664Y-69784454D01*
X86381140Y-69775582D01*
X86376231Y-69766906D01*
X86370939Y-69758445D01*
X86365265Y-69750214D01*
X86359212Y-69742231D01*
X86352780Y-69734512D01*
X86345970Y-69727074D01*
X86338785Y-69719935D01*
X86331226Y-69713111D01*
X86323293Y-69706619D01*
X86314989Y-69700476D01*
X86306315Y-69694699D01*
X86297273Y-69689305D01*
X86287863Y-69684310D01*
X86278088Y-69679732D01*
X86267948Y-69675588D01*
X86257445Y-69671894D01*
X86246582Y-69668667D01*
X86235358Y-69665925D01*
X86223775Y-69663683D01*
X86211836Y-69661960D01*
X86204575Y-69661298D01*
X86197405Y-69660700D01*
X86190371Y-69660231D01*
X86183515Y-69659955D01*
X86179693Y-69659909D01*
X86171471Y-69660028D01*
X86163043Y-69660404D01*
X86154434Y-69661067D01*
X86145670Y-69662046D01*
X86136779Y-69663369D01*
X86127785Y-69665066D01*
X86118716Y-69667165D01*
X86109596Y-69669697D01*
X86100452Y-69672689D01*
X86091310Y-69676171D01*
X86082196Y-69680172D01*
X86073136Y-69684721D01*
X86064157Y-69689846D01*
X86055283Y-69695578D01*
X86046542Y-69701946D01*
X86037959Y-69708977D01*
X86029696Y-69716583D01*
X86021841Y-69724719D01*
X86014414Y-69733387D01*
X86007431Y-69742589D01*
X86000908Y-69752325D01*
X85994863Y-69762598D01*
X85989313Y-69773409D01*
X85984275Y-69784759D01*
X85979766Y-69796651D01*
X85975802Y-69809085D01*
X85972402Y-69822062D01*
X85970919Y-69828756D01*
X85969582Y-69835586D01*
X85968395Y-69842552D01*
X85967359Y-69849656D01*
X85966477Y-69856896D01*
X85965750Y-69864274D01*
X85965181Y-69871790D01*
X85964772Y-69879443D01*
X85964525Y-69887234D01*
X85964442Y-69895163D01*
X85964043Y-69903438D01*
X85962853Y-69911320D01*
X85960881Y-69918785D01*
X85958138Y-69925810D01*
X85954633Y-69932369D01*
X85950377Y-69938440D01*
X85945380Y-69943998D01*
X85939652Y-69949019D01*
X85933676Y-69953628D01*
X85927939Y-69957553D01*
X85919817Y-69962275D01*
X85912321Y-69965758D01*
X85905501Y-69968182D01*
X85897550Y-69970079D01*
X85889618Y-69970902D01*
X85882687Y-69970662D01*
X85881351Y-69970561D01*
X85871398Y-69969984D01*
X85861488Y-69968218D01*
X85851824Y-69965209D01*
X85842612Y-69960905D01*
X85834056Y-69955251D01*
X85828817Y-69950707D01*
X85824021Y-69945523D01*
X85819729Y-69939684D01*
X85816001Y-69933175D01*
X85812898Y-69925980D01*
X85810481Y-69918082D01*
X85808809Y-69909467D01*
X85807945Y-69900118D01*
X85807834Y-69895163D01*
X85808638Y-69882554D01*
X85810912Y-69871752D01*
X85814445Y-69862524D01*
X85819027Y-69854633D01*
X85824449Y-69847843D01*
X85830500Y-69841921D01*
X85836971Y-69836629D01*
X85843652Y-69831733D01*
X85850333Y-69826998D01*
X85856804Y-69822187D01*
X85862855Y-69817066D01*
X85868277Y-69811399D01*
X85872859Y-69804950D01*
X85876392Y-69797485D01*
X85878666Y-69788767D01*
X85879470Y-69778562D01*
X85878927Y-69766204D01*
X85877345Y-69755203D01*
X85874792Y-69745527D01*
X85871338Y-69737143D01*
X85867052Y-69730018D01*
X85862004Y-69724121D01*
X85856263Y-69719418D01*
X85849898Y-69715877D01*
X85842978Y-69713466D01*
X85835574Y-69712153D01*
X85827753Y-69711904D01*
X85819586Y-69712688D01*
X85811142Y-69714471D01*
X85802489Y-69717222D01*
X85793698Y-69720908D01*
X85784838Y-69725497D01*
X85775978Y-69730955D01*
X85767187Y-69737252D01*
X85758535Y-69744353D01*
X85750091Y-69752227D01*
X85741924Y-69760841D01*
X85734103Y-69770163D01*
X85726698Y-69780160D01*
X85719779Y-69790799D01*
X85713414Y-69802050D01*
X85707673Y-69813878D01*
X85702625Y-69826251D01*
X85698339Y-69839138D01*
X85694885Y-69852504D01*
X85692332Y-69866319D01*
X85690749Y-69880550D01*
X85690206Y-69895163D01*
X85690332Y-69903078D01*
X85690706Y-69910825D01*
X85691322Y-69918406D01*
X85692176Y-69925820D01*
X85693261Y-69933068D01*
X85694572Y-69940149D01*
X85696105Y-69947064D01*
X85697852Y-69953814D01*
X85699809Y-69960398D01*
X85704332Y-69973070D01*
X85709628Y-69985083D01*
X85715655Y-69996438D01*
X85722370Y-70007138D01*
X85729727Y-70017182D01*
X85737684Y-70026575D01*
X85746198Y-70035316D01*
X85755224Y-70043408D01*
X85764719Y-70050854D01*
X85774640Y-70057653D01*
X85784943Y-70063809D01*
X85790224Y-70066646D01*
X85798017Y-70070600D01*
X85805524Y-70074189D01*
X85812738Y-70077406D01*
X85819652Y-70080248D01*
X85826260Y-70082709D01*
X85834581Y-70085389D01*
X85842330Y-70087371D01*
X85849489Y-70088642D01*
X85857586Y-70089214D01*
X85864989Y-70089281D01*
X85872268Y-70089495D01*
X85879287Y-70089870D01*
X85884257Y-70090240D01*
X85892802Y-70090050D01*
X85901368Y-70089479D01*
X85909937Y-70088525D01*
X85918489Y-70087188D01*
X85927006Y-70085465D01*
X85935467Y-70083356D01*
X85943855Y-70080859D01*
X85952148Y-70077973D01*
X85960330Y-70074696D01*
X85968379Y-70071027D01*
X85976277Y-70066964D01*
X85984004Y-70062507D01*
X85991542Y-70057653D01*
X85998872Y-70052402D01*
X86005973Y-70046752D01*
X86012827Y-70040701D01*
X86019414Y-70034249D01*
X86025716Y-70027394D01*
X86031713Y-70020134D01*
X86037386Y-70012469D01*
X86042715Y-70004396D01*
X86047682Y-69995914D01*
X86052267Y-69987023D01*
X86056451Y-69977720D01*
X86060215Y-69968005D01*
X86063539Y-69957875D01*
X86066404Y-69947330D01*
X86068792Y-69936368D01*
X86070683Y-69924988D01*
X86072057Y-69913188D01*
X86072895Y-69900968D01*
X86073179Y-69888324D01*
X86073807Y-69875412D01*
X86075637Y-69863316D01*
X86078589Y-69852038D01*
X86082583Y-69841580D01*
X86087538Y-69831942D01*
X86093375Y-69823128D01*
X86100013Y-69815138D01*
X86107373Y-69807974D01*
X86115374Y-69801638D01*
X86123936Y-69796132D01*
X86132979Y-69791457D01*
X86142422Y-69787616D01*
X86152186Y-69784609D01*
X86162190Y-69782438D01*
X86172355Y-69781106D01*
X86182600Y-69780613D01*
X86192845Y-69780962D01*
X86203010Y-69782154D01*
X86213014Y-69784191D01*
X86222778Y-69787075D01*
X86232221Y-69790807D01*
X86241264Y-69795388D01*
X86249826Y-69800822D01*
X86257827Y-69807108D01*
X86265187Y-69814250D01*
X86271825Y-69822248D01*
X86277662Y-69831105D01*
X86282617Y-69840822D01*
X86286611Y-69851401D01*
X86289563Y-69862843D01*
X86291393Y-69875150D01*
X86292021Y-69888324D01*
X86291684Y-69897056D01*
X86290692Y-69905601D01*
X86289068Y-69913934D01*
X86286838Y-69922030D01*
X86284027Y-69929862D01*
X86280661Y-69937405D01*
X86276763Y-69944632D01*
X86272359Y-69951519D01*
X86267475Y-69958040D01*
X86262134Y-69964167D01*
X86256363Y-69969877D01*
X86250187Y-69975142D01*
X86243629Y-69979938D01*
X86236716Y-69984238D01*
X86229472Y-69988017D01*
X86221923Y-69991248D01*
X86214676Y-69994503D01*
X86208215Y-69998190D01*
X86202525Y-70002280D01*
X86196108Y-70008315D01*
X86190995Y-70014952D01*
X86187145Y-70022125D01*
X86184523Y-70029769D01*
X86183089Y-70037817D01*
X86182771Y-70044078D01*
X86183182Y-70051392D01*
X86184395Y-70058541D01*
X86186377Y-70065458D01*
X86189097Y-70072074D01*
X86192522Y-70078322D01*
X86196620Y-70084133D01*
X86201359Y-70089439D01*
X86206707Y-70094172D01*
X86212388Y-70098392D01*
X86219307Y-70102324D01*
X86225836Y-70104990D01*
X86232867Y-70106858D01*
X86240301Y-70107781D01*
X86242952Y-70107850D01*
X86250517Y-70107254D01*
X86257481Y-70105716D01*
X86264733Y-70103252D01*
X86268085Y-70101866D01*
G37*
G36*
X86050034Y-68979817D02*
G01*
X86056923Y-68980085D01*
X86064930Y-68980538D01*
X86073116Y-68981067D01*
X86080672Y-68981587D01*
X86089137Y-68982190D01*
X86096089Y-68982696D01*
X86103243Y-68983241D01*
X86110852Y-68984296D01*
X86118912Y-68985856D01*
X86127420Y-68987917D01*
X86136370Y-68990475D01*
X86145759Y-68993526D01*
X86152260Y-68995831D01*
X86158953Y-68998353D01*
X86165837Y-69001089D01*
X86172910Y-69004039D01*
X86180171Y-69007200D01*
X86187618Y-69010573D01*
X86195252Y-69014155D01*
X86202961Y-69017926D01*
X86210574Y-69021928D01*
X86218088Y-69026163D01*
X86225503Y-69030629D01*
X86232818Y-69035327D01*
X86240031Y-69040256D01*
X86247143Y-69045416D01*
X86254151Y-69050807D01*
X86261055Y-69056427D01*
X86267854Y-69062279D01*
X86274547Y-69068360D01*
X86281132Y-69074670D01*
X86287609Y-69081210D01*
X86293978Y-69087980D01*
X86300236Y-69094978D01*
X86306382Y-69102204D01*
X86313347Y-69110839D01*
X86319921Y-69119464D01*
X86326114Y-69128082D01*
X86331939Y-69136694D01*
X86337405Y-69145304D01*
X86342524Y-69153912D01*
X86347308Y-69162521D01*
X86351767Y-69171132D01*
X86355913Y-69179748D01*
X86359756Y-69188370D01*
X86363309Y-69197001D01*
X86366582Y-69205642D01*
X86369586Y-69214295D01*
X86372333Y-69222963D01*
X86374834Y-69231646D01*
X86377100Y-69240348D01*
X86379141Y-69249070D01*
X86380970Y-69257814D01*
X86382598Y-69266581D01*
X86384035Y-69275375D01*
X86385293Y-69284196D01*
X86386383Y-69293047D01*
X86387316Y-69301930D01*
X86388103Y-69310847D01*
X86388756Y-69319799D01*
X86389286Y-69328788D01*
X86389703Y-69337817D01*
X86390020Y-69346887D01*
X86390246Y-69356001D01*
X86390394Y-69365160D01*
X86390475Y-69374366D01*
X86390500Y-69383621D01*
X86390419Y-69390905D01*
X86390269Y-69398414D01*
X86390063Y-69407853D01*
X86389904Y-69415297D01*
X86389735Y-69423717D01*
X86389559Y-69433160D01*
X86389384Y-69443672D01*
X86389214Y-69455302D01*
X86389055Y-69468095D01*
X86388981Y-69474943D01*
X86388913Y-69482100D01*
X86388849Y-69489571D01*
X86388792Y-69497363D01*
X86388742Y-69505481D01*
X86388700Y-69513931D01*
X86388665Y-69522719D01*
X86388640Y-69531852D01*
X86388624Y-69541334D01*
X86388619Y-69551172D01*
X86388326Y-69557818D01*
X86386839Y-69567219D01*
X86384195Y-69575920D01*
X86380505Y-69583898D01*
X86375881Y-69591136D01*
X86370434Y-69597611D01*
X86364276Y-69603304D01*
X86357518Y-69608195D01*
X86350272Y-69612263D01*
X86342650Y-69615488D01*
X86334763Y-69617850D01*
X86333368Y-69618094D01*
X86326244Y-69619242D01*
X86319034Y-69619731D01*
X86317358Y-69619713D01*
X86310203Y-69619226D01*
X86302503Y-69617891D01*
X86294488Y-69615465D01*
X86286389Y-69611707D01*
X86280397Y-69607868D01*
X86274585Y-69603040D01*
X86269049Y-69597122D01*
X86263886Y-69590011D01*
X86259195Y-69581604D01*
X86255021Y-69573483D01*
X86250275Y-69565662D01*
X86244980Y-69558148D01*
X86239162Y-69550945D01*
X86232843Y-69544057D01*
X86226049Y-69537489D01*
X86218803Y-69531246D01*
X86211131Y-69525334D01*
X86203055Y-69519756D01*
X86194602Y-69514517D01*
X86185794Y-69509622D01*
X86176656Y-69505077D01*
X86167213Y-69500884D01*
X86157488Y-69497051D01*
X86147507Y-69493580D01*
X86137293Y-69490477D01*
X86132289Y-69489057D01*
X86122652Y-69486527D01*
X86113524Y-69484387D01*
X86104919Y-69482605D01*
X86096853Y-69481149D01*
X86089342Y-69479988D01*
X86079150Y-69478730D01*
X86070293Y-69477957D01*
X86062824Y-69477564D01*
X86055115Y-69477446D01*
X86047876Y-69477655D01*
X86039761Y-69477752D01*
X86031645Y-69478047D01*
X86023534Y-69478539D01*
X86015440Y-69479231D01*
X86007369Y-69480122D01*
X85999332Y-69481216D01*
X85991336Y-69482512D01*
X85983391Y-69484012D01*
X85975505Y-69485718D01*
X85967687Y-69487631D01*
X85959946Y-69489751D01*
X85952291Y-69492080D01*
X85944731Y-69494620D01*
X85937273Y-69497371D01*
X85929928Y-69500335D01*
X85922704Y-69503514D01*
X85915610Y-69506907D01*
X85908654Y-69510518D01*
X85901845Y-69514346D01*
X85895193Y-69518393D01*
X85888706Y-69522661D01*
X85882392Y-69527151D01*
X85876261Y-69531863D01*
X85870321Y-69536799D01*
X85864581Y-69541961D01*
X85859050Y-69547350D01*
X85853737Y-69552966D01*
X85848650Y-69558812D01*
X85843798Y-69564888D01*
X85839191Y-69571195D01*
X85834837Y-69577736D01*
X85830744Y-69584511D01*
X85825791Y-69592411D01*
X85820421Y-69599062D01*
X85814731Y-69604567D01*
X85808820Y-69609028D01*
X85802783Y-69612550D01*
X85794708Y-69615962D01*
X85786813Y-69618131D01*
X85779329Y-69619300D01*
X85770904Y-69619731D01*
X85763311Y-69619402D01*
X85755715Y-69618258D01*
X85748983Y-69616448D01*
X85741803Y-69613590D01*
X85734300Y-69609452D01*
X85728535Y-69605368D01*
X85722710Y-69600336D01*
X85716878Y-69594256D01*
X85714926Y-69592191D01*
X85710635Y-69586634D01*
X85707168Y-69580534D01*
X85704505Y-69573914D01*
X85702627Y-69566798D01*
X85701515Y-69559209D01*
X85701148Y-69551172D01*
X85701148Y-69410976D01*
X85817921Y-69410976D01*
X85830342Y-69402953D01*
X85843100Y-69395427D01*
X85856172Y-69388403D01*
X85869536Y-69381883D01*
X85883170Y-69375871D01*
X85897051Y-69370372D01*
X85911157Y-69365387D01*
X85925466Y-69360922D01*
X85939957Y-69356980D01*
X85954606Y-69353563D01*
X85969391Y-69350677D01*
X85984290Y-69348324D01*
X85999281Y-69346508D01*
X86014342Y-69345233D01*
X86029451Y-69344502D01*
X86044584Y-69344319D01*
X86059721Y-69344688D01*
X86074839Y-69345611D01*
X86089915Y-69347094D01*
X86104927Y-69349138D01*
X86119853Y-69351749D01*
X86134672Y-69354929D01*
X86149359Y-69358681D01*
X86163895Y-69363011D01*
X86178255Y-69367921D01*
X86192419Y-69373415D01*
X86206363Y-69379496D01*
X86220066Y-69386169D01*
X86233505Y-69393436D01*
X86246658Y-69401301D01*
X86259503Y-69409768D01*
X86272017Y-69418841D01*
X86272017Y-69323782D01*
X86271417Y-69310587D01*
X86270176Y-69297834D01*
X86268315Y-69285520D01*
X86265859Y-69273645D01*
X86262828Y-69262207D01*
X86259244Y-69251204D01*
X86255131Y-69240635D01*
X86250510Y-69230499D01*
X86245403Y-69220793D01*
X86239833Y-69211518D01*
X86233822Y-69202670D01*
X86227391Y-69194249D01*
X86220564Y-69186253D01*
X86213362Y-69178680D01*
X86205808Y-69171530D01*
X86197923Y-69164801D01*
X86189731Y-69158491D01*
X86181252Y-69152598D01*
X86172510Y-69147122D01*
X86163526Y-69142061D01*
X86154324Y-69137413D01*
X86144924Y-69133177D01*
X86135349Y-69129351D01*
X86125622Y-69125935D01*
X86115764Y-69122925D01*
X86105797Y-69120322D01*
X86095745Y-69118123D01*
X86085629Y-69116328D01*
X86075471Y-69114934D01*
X86065294Y-69113940D01*
X86055119Y-69113345D01*
X86044969Y-69113147D01*
X86042014Y-69112960D01*
X86035115Y-69112803D01*
X86026798Y-69113108D01*
X86018948Y-69113790D01*
X86009733Y-69115008D01*
X86002838Y-69116182D01*
X85995345Y-69117691D01*
X85987259Y-69119573D01*
X85978585Y-69121868D01*
X85969325Y-69124614D01*
X85959484Y-69127850D01*
X85954510Y-69129543D01*
X85947151Y-69132297D01*
X85939921Y-69135306D01*
X85932830Y-69138565D01*
X85925883Y-69142070D01*
X85919089Y-69145816D01*
X85912456Y-69149801D01*
X85905990Y-69154018D01*
X85899700Y-69158465D01*
X85893593Y-69163136D01*
X85887677Y-69168028D01*
X85879934Y-69175030D01*
X85872555Y-69182445D01*
X85865558Y-69190273D01*
X85858962Y-69198514D01*
X85852785Y-69207167D01*
X85847048Y-69216233D01*
X85841767Y-69225712D01*
X85836963Y-69235604D01*
X85832653Y-69245908D01*
X85828857Y-69256625D01*
X85825594Y-69267755D01*
X85822882Y-69279297D01*
X85820740Y-69291252D01*
X85819186Y-69303620D01*
X85818240Y-69316401D01*
X85817921Y-69329595D01*
X85817921Y-69410976D01*
X85701148Y-69410976D01*
X85701148Y-69317969D01*
X85701369Y-69310432D01*
X85702184Y-69303224D01*
X85703200Y-69296426D01*
X85704150Y-69286919D01*
X85705330Y-69277534D01*
X85706737Y-69268274D01*
X85708366Y-69259139D01*
X85710213Y-69250130D01*
X85712274Y-69241248D01*
X85714545Y-69232495D01*
X85717022Y-69223871D01*
X85719701Y-69215377D01*
X85722577Y-69207014D01*
X85725648Y-69198784D01*
X85728908Y-69190687D01*
X85732353Y-69182724D01*
X85735980Y-69174896D01*
X85739785Y-69167205D01*
X85743763Y-69159650D01*
X85747910Y-69152234D01*
X85752222Y-69144958D01*
X85756696Y-69137821D01*
X85761327Y-69130826D01*
X85766110Y-69123973D01*
X85771043Y-69117263D01*
X85776120Y-69110698D01*
X85781339Y-69104277D01*
X85786694Y-69098003D01*
X85792182Y-69091877D01*
X85797798Y-69085898D01*
X85803539Y-69080069D01*
X85809400Y-69074390D01*
X85815378Y-69068863D01*
X85821468Y-69063487D01*
X85827666Y-69058265D01*
X85834064Y-69053211D01*
X85840527Y-69048340D01*
X85847052Y-69043648D01*
X85853636Y-69039136D01*
X85860275Y-69034802D01*
X85866966Y-69030644D01*
X85873706Y-69026660D01*
X85880491Y-69022850D01*
X85887317Y-69019212D01*
X85894181Y-69015745D01*
X85901080Y-69012447D01*
X85908011Y-69009317D01*
X85914969Y-69006354D01*
X85921951Y-69003555D01*
X85928955Y-69000920D01*
X85935976Y-68998447D01*
X85943011Y-68996135D01*
X85950056Y-68993982D01*
X85957109Y-68991987D01*
X85964165Y-68990149D01*
X85971222Y-68988466D01*
X85978275Y-68986937D01*
X85985322Y-68985560D01*
X85992358Y-68984334D01*
X85999382Y-68983257D01*
X86006388Y-68982329D01*
X86013374Y-68981547D01*
X86020335Y-68980911D01*
X86027270Y-68980418D01*
X86034174Y-68980068D01*
X86047876Y-68979790D01*
X86050034Y-68979817D01*
G37*
G36*
X86366541Y-68282225D02*
G01*
X86373954Y-68284018D01*
X86380498Y-68287383D01*
X86386104Y-68292713D01*
X86389299Y-68298847D01*
X86390500Y-68306681D01*
X86390500Y-68359511D01*
X86390394Y-68369409D01*
X86390071Y-68377693D01*
X86389521Y-68384563D01*
X86388415Y-68391865D01*
X86385911Y-68399793D01*
X86381611Y-68406352D01*
X86376651Y-68411486D01*
X86370088Y-68417082D01*
X86363767Y-68422838D01*
X86357685Y-68428749D01*
X86351840Y-68434808D01*
X86346230Y-68441010D01*
X86340852Y-68447349D01*
X86335705Y-68453818D01*
X86330786Y-68460412D01*
X86326093Y-68467126D01*
X86321624Y-68473952D01*
X86317377Y-68480886D01*
X86313350Y-68487920D01*
X86309540Y-68495050D01*
X86305945Y-68502270D01*
X86302564Y-68509572D01*
X86299394Y-68516953D01*
X86296433Y-68524405D01*
X86293678Y-68531922D01*
X86291128Y-68539500D01*
X86288780Y-68547131D01*
X86286633Y-68554811D01*
X86284683Y-68562532D01*
X86282930Y-68570290D01*
X86281370Y-68578077D01*
X86280002Y-68585889D01*
X86278823Y-68593720D01*
X86277832Y-68601562D01*
X86277025Y-68609412D01*
X86276402Y-68617262D01*
X86275959Y-68625107D01*
X86275695Y-68632940D01*
X86275608Y-68640756D01*
X86275652Y-68642362D01*
X86275978Y-68649339D01*
X86276263Y-68656650D01*
X86276473Y-68664414D01*
X86276589Y-68671742D01*
X86276633Y-68680080D01*
X86276918Y-68684576D01*
X86277690Y-68691714D01*
X86278877Y-68699330D01*
X86280479Y-68707428D01*
X86282496Y-68716013D01*
X86284927Y-68725091D01*
X86287773Y-68734666D01*
X86289901Y-68741329D01*
X86292213Y-68748216D01*
X86294710Y-68755330D01*
X86297390Y-68762672D01*
X86300255Y-68770243D01*
X86303305Y-68778045D01*
X86306570Y-68785865D01*
X86310019Y-68793550D01*
X86313648Y-68801098D01*
X86317458Y-68808507D01*
X86321446Y-68815775D01*
X86325610Y-68822900D01*
X86329950Y-68829879D01*
X86334464Y-68836709D01*
X86339150Y-68843390D01*
X86344007Y-68849918D01*
X86349033Y-68856291D01*
X86354227Y-68862507D01*
X86359587Y-68868564D01*
X86365112Y-68874459D01*
X86370801Y-68880191D01*
X86376651Y-68885756D01*
X86382321Y-68889894D01*
X86386402Y-68895885D01*
X86388415Y-68902488D01*
X86389521Y-68909766D01*
X86390071Y-68916652D01*
X86390394Y-68924948D01*
X86390500Y-68934825D01*
X86390500Y-68985774D01*
X86389610Y-68993307D01*
X86386973Y-68999751D01*
X86382638Y-69005104D01*
X86376651Y-69009368D01*
X86373459Y-69010810D01*
X86366807Y-69012735D01*
X86359896Y-69013300D01*
X86356818Y-69013269D01*
X86349980Y-69012274D01*
X86292529Y-68985538D01*
X86238797Y-68960582D01*
X86188654Y-68937337D01*
X86141972Y-68915735D01*
X86098622Y-68895709D01*
X86058474Y-68877189D01*
X86021400Y-68860107D01*
X85987269Y-68844395D01*
X85955955Y-68829985D01*
X85927326Y-68816808D01*
X85901254Y-68804795D01*
X85877611Y-68793880D01*
X85856266Y-68783992D01*
X85837091Y-68775065D01*
X85819957Y-68767029D01*
X85804735Y-68759816D01*
X85791295Y-68753358D01*
X85779509Y-68747586D01*
X85769248Y-68742433D01*
X85760382Y-68737829D01*
X85752782Y-68733707D01*
X85746320Y-68729998D01*
X85736291Y-68723546D01*
X85729262Y-68717927D01*
X85724201Y-68712593D01*
X85720075Y-68706998D01*
X85715852Y-68700596D01*
X85714441Y-68698315D01*
X85710753Y-68691620D01*
X85707817Y-68685177D01*
X85704924Y-68677050D01*
X85703014Y-68669540D01*
X85701698Y-68661166D01*
X85701207Y-68654095D01*
X85701156Y-68647766D01*
X85841344Y-68647766D01*
X85857418Y-68655331D01*
X85872917Y-68662609D01*
X85887853Y-68669607D01*
X85902238Y-68676332D01*
X85916082Y-68682789D01*
X85929398Y-68688985D01*
X85942196Y-68694927D01*
X85954489Y-68700620D01*
X85966287Y-68706071D01*
X85977602Y-68711286D01*
X85988446Y-68716271D01*
X85998829Y-68721033D01*
X86008764Y-68725578D01*
X86018263Y-68729913D01*
X86027335Y-68734042D01*
X86035993Y-68737974D01*
X86044249Y-68741714D01*
X86052113Y-68745269D01*
X86059598Y-68748644D01*
X86066714Y-68751846D01*
X86073473Y-68754881D01*
X86079887Y-68757756D01*
X86091724Y-68763051D01*
X86102317Y-68767779D01*
X86111758Y-68771992D01*
X86120137Y-68775739D01*
X86127548Y-68779071D01*
X86130946Y-68780581D01*
X86140081Y-68784616D01*
X86147858Y-68788016D01*
X86154580Y-68790922D01*
X86162419Y-68794266D01*
X86169630Y-68797309D01*
X86176924Y-68800382D01*
X86185016Y-68803813D01*
X86192038Y-68806822D01*
X86200210Y-68810359D01*
X86198555Y-68805751D01*
X86196125Y-68798749D01*
X86193766Y-68791640D01*
X86191489Y-68784426D01*
X86189302Y-68777106D01*
X86187217Y-68769682D01*
X86185243Y-68762155D01*
X86183391Y-68754525D01*
X86181672Y-68746793D01*
X86180094Y-68738961D01*
X86178668Y-68731029D01*
X86178211Y-68728466D01*
X86176943Y-68720988D01*
X86175822Y-68713832D01*
X86174845Y-68707002D01*
X86173758Y-68698408D01*
X86172908Y-68690410D01*
X86172285Y-68683019D01*
X86171811Y-68674647D01*
X86171658Y-68667257D01*
X86171637Y-68663017D01*
X86171493Y-68655641D01*
X86171190Y-68648072D01*
X86170803Y-68640756D01*
X86170905Y-68631009D01*
X86171208Y-68621201D01*
X86171711Y-68611344D01*
X86172411Y-68601449D01*
X86173305Y-68591529D01*
X86174391Y-68581593D01*
X86175667Y-68571655D01*
X86177129Y-68561726D01*
X86178775Y-68551816D01*
X86180604Y-68541938D01*
X86182611Y-68532103D01*
X86184796Y-68522322D01*
X86187155Y-68512608D01*
X86189685Y-68502971D01*
X86192385Y-68493424D01*
X86195252Y-68483977D01*
X86172684Y-68493893D01*
X86167892Y-68496536D01*
X86160643Y-68500412D01*
X86151927Y-68504833D01*
X86144528Y-68508445D01*
X86135315Y-68512842D01*
X86123826Y-68518241D01*
X86117083Y-68521385D01*
X86109596Y-68524860D01*
X86101307Y-68528695D01*
X86092160Y-68532916D01*
X86082094Y-68537550D01*
X86071053Y-68542625D01*
X86058979Y-68548167D01*
X86045813Y-68554205D01*
X86031497Y-68560764D01*
X86015974Y-68567872D01*
X85999185Y-68575557D01*
X85981072Y-68583845D01*
X85961577Y-68592764D01*
X85940642Y-68602341D01*
X85918209Y-68612602D01*
X85894221Y-68623575D01*
X85868618Y-68635288D01*
X85841344Y-68647766D01*
X85701156Y-68647766D01*
X85701148Y-68646740D01*
X85701190Y-68643944D01*
X85701833Y-68635138D01*
X85703328Y-68625837D01*
X85705764Y-68616208D01*
X85707956Y-68609691D01*
X85710633Y-68603153D01*
X85713822Y-68596646D01*
X85717550Y-68590219D01*
X85721844Y-68583922D01*
X85726730Y-68577806D01*
X85732236Y-68571920D01*
X85738388Y-68566314D01*
X85745212Y-68561039D01*
X85752737Y-68556145D01*
X85760988Y-68551681D01*
X85768322Y-68548697D01*
X85776480Y-68545113D01*
X85787355Y-68540265D01*
X85800739Y-68534249D01*
X85816422Y-68527162D01*
X85834199Y-68519103D01*
X85853859Y-68510167D01*
X85875196Y-68500454D01*
X85898001Y-68490059D01*
X85922066Y-68479081D01*
X85947183Y-68467616D01*
X85973144Y-68455762D01*
X85999741Y-68443616D01*
X86026765Y-68431275D01*
X86054009Y-68418837D01*
X86081265Y-68406399D01*
X86108324Y-68394059D01*
X86134978Y-68381913D01*
X86161019Y-68370059D01*
X86186240Y-68358594D01*
X86210432Y-68347616D01*
X86233387Y-68337221D01*
X86254896Y-68327507D01*
X86274753Y-68318572D01*
X86292748Y-68310513D01*
X86308674Y-68303426D01*
X86322322Y-68297410D01*
X86333485Y-68292561D01*
X86341954Y-68288977D01*
X86349980Y-68285994D01*
X86350444Y-68285727D01*
X86356846Y-68283058D01*
X86363828Y-68282061D01*
X86366541Y-68282225D01*
G37*
G36*
X86243085Y-67390470D02*
G01*
X86251990Y-67386666D01*
X86260594Y-67382599D01*
X86268897Y-67378278D01*
X86276902Y-67373711D01*
X86284609Y-67368905D01*
X86292020Y-67363870D01*
X86299135Y-67358613D01*
X86305957Y-67353142D01*
X86312485Y-67347466D01*
X86318722Y-67341592D01*
X86324669Y-67335529D01*
X86330327Y-67329284D01*
X86335697Y-67322867D01*
X86340780Y-67316284D01*
X86345577Y-67309544D01*
X86350091Y-67302656D01*
X86354321Y-67295626D01*
X86358270Y-67288464D01*
X86361938Y-67281178D01*
X86365327Y-67273775D01*
X86368438Y-67266263D01*
X86371271Y-67258652D01*
X86373829Y-67250948D01*
X86376113Y-67243161D01*
X86378123Y-67235297D01*
X86379862Y-67227366D01*
X86381329Y-67219375D01*
X86382527Y-67211332D01*
X86383457Y-67203247D01*
X86384120Y-67195125D01*
X86384516Y-67186977D01*
X86384648Y-67178809D01*
X86384448Y-67168887D01*
X86383847Y-67158976D01*
X86382847Y-67149093D01*
X86381450Y-67139255D01*
X86379657Y-67129478D01*
X86377469Y-67119780D01*
X86374889Y-67110177D01*
X86371916Y-67100687D01*
X86368554Y-67091325D01*
X86364803Y-67082110D01*
X86360664Y-67073058D01*
X86356140Y-67064186D01*
X86351231Y-67055510D01*
X86345939Y-67047049D01*
X86340265Y-67038818D01*
X86334212Y-67030835D01*
X86327780Y-67023116D01*
X86320970Y-67015678D01*
X86313785Y-67008539D01*
X86306226Y-67001715D01*
X86298293Y-66995223D01*
X86289989Y-66989080D01*
X86281315Y-66983303D01*
X86272273Y-66977909D01*
X86262863Y-66972914D01*
X86253088Y-66968336D01*
X86242948Y-66964192D01*
X86232445Y-66960498D01*
X86221582Y-66957271D01*
X86210358Y-66954529D01*
X86198775Y-66952287D01*
X86186836Y-66950564D01*
X86179575Y-66949902D01*
X86172405Y-66949304D01*
X86165371Y-66948835D01*
X86158515Y-66948559D01*
X86154693Y-66948513D01*
X86146471Y-66948632D01*
X86138043Y-66949008D01*
X86129434Y-66949671D01*
X86120670Y-66950650D01*
X86111779Y-66951973D01*
X86102785Y-66953670D01*
X86093716Y-66955769D01*
X86084596Y-66958301D01*
X86075452Y-66961293D01*
X86066310Y-66964775D01*
X86057196Y-66968776D01*
X86048136Y-66973325D01*
X86039157Y-66978450D01*
X86030283Y-66984182D01*
X86021542Y-66990550D01*
X86012959Y-66997581D01*
X86004696Y-67005187D01*
X85996841Y-67013323D01*
X85989414Y-67021991D01*
X85982431Y-67031193D01*
X85975908Y-67040929D01*
X85969863Y-67051202D01*
X85964313Y-67062013D01*
X85959275Y-67073363D01*
X85954766Y-67085255D01*
X85950802Y-67097689D01*
X85947402Y-67110666D01*
X85945919Y-67117360D01*
X85944582Y-67124190D01*
X85943395Y-67131156D01*
X85942359Y-67138260D01*
X85941477Y-67145500D01*
X85940750Y-67152878D01*
X85940181Y-67160394D01*
X85939772Y-67168047D01*
X85939525Y-67175838D01*
X85939442Y-67183767D01*
X85939043Y-67192042D01*
X85937853Y-67199924D01*
X85935881Y-67207389D01*
X85933138Y-67214414D01*
X85929633Y-67220973D01*
X85925377Y-67227044D01*
X85920380Y-67232602D01*
X85914652Y-67237623D01*
X85908676Y-67242232D01*
X85902939Y-67246157D01*
X85894817Y-67250879D01*
X85887321Y-67254362D01*
X85880501Y-67256786D01*
X85872550Y-67258683D01*
X85864618Y-67259506D01*
X85857687Y-67259266D01*
X85856351Y-67259165D01*
X85846398Y-67258588D01*
X85836488Y-67256822D01*
X85826824Y-67253813D01*
X85817612Y-67249509D01*
X85809056Y-67243855D01*
X85803817Y-67239311D01*
X85799021Y-67234127D01*
X85794729Y-67228288D01*
X85791001Y-67221779D01*
X85787898Y-67214584D01*
X85785481Y-67206686D01*
X85783809Y-67198071D01*
X85782945Y-67188722D01*
X85782834Y-67183767D01*
X85783638Y-67171158D01*
X85785912Y-67160356D01*
X85789445Y-67151128D01*
X85794027Y-67143237D01*
X85799449Y-67136447D01*
X85805500Y-67130525D01*
X85811971Y-67125233D01*
X85818652Y-67120337D01*
X85825333Y-67115602D01*
X85831804Y-67110791D01*
X85837855Y-67105670D01*
X85843277Y-67100003D01*
X85847859Y-67093554D01*
X85851392Y-67086089D01*
X85853666Y-67077371D01*
X85854470Y-67067166D01*
X85853927Y-67054808D01*
X85852345Y-67043807D01*
X85849792Y-67034131D01*
X85846338Y-67025747D01*
X85842052Y-67018622D01*
X85837004Y-67012725D01*
X85831263Y-67008022D01*
X85824898Y-67004481D01*
X85817978Y-67002070D01*
X85810574Y-67000757D01*
X85802753Y-67000508D01*
X85794586Y-67001292D01*
X85786142Y-67003075D01*
X85777489Y-67005826D01*
X85768698Y-67009512D01*
X85759838Y-67014101D01*
X85750978Y-67019559D01*
X85742187Y-67025856D01*
X85733535Y-67032957D01*
X85725091Y-67040831D01*
X85716924Y-67049445D01*
X85709103Y-67058767D01*
X85701698Y-67068764D01*
X85694779Y-67079403D01*
X85688414Y-67090654D01*
X85682673Y-67102482D01*
X85677625Y-67114855D01*
X85673339Y-67127742D01*
X85669885Y-67141108D01*
X85667332Y-67154923D01*
X85665749Y-67169154D01*
X85665206Y-67183767D01*
X85665332Y-67191682D01*
X85665706Y-67199429D01*
X85666322Y-67207010D01*
X85667176Y-67214424D01*
X85668261Y-67221672D01*
X85669572Y-67228753D01*
X85671105Y-67235668D01*
X85672852Y-67242418D01*
X85674809Y-67249002D01*
X85679332Y-67261674D01*
X85684628Y-67273687D01*
X85690655Y-67285042D01*
X85697370Y-67295742D01*
X85704727Y-67305786D01*
X85712684Y-67315179D01*
X85721198Y-67323920D01*
X85730224Y-67332012D01*
X85739719Y-67339458D01*
X85749640Y-67346257D01*
X85759943Y-67352413D01*
X85765224Y-67355250D01*
X85773017Y-67359204D01*
X85780524Y-67362793D01*
X85787738Y-67366010D01*
X85794652Y-67368852D01*
X85801260Y-67371313D01*
X85809581Y-67373993D01*
X85817330Y-67375975D01*
X85824489Y-67377246D01*
X85832586Y-67377818D01*
X85839989Y-67377885D01*
X85847268Y-67378099D01*
X85854287Y-67378474D01*
X85859257Y-67378844D01*
X85867802Y-67378654D01*
X85876368Y-67378083D01*
X85884937Y-67377129D01*
X85893489Y-67375792D01*
X85902006Y-67374069D01*
X85910467Y-67371960D01*
X85918855Y-67369463D01*
X85927148Y-67366577D01*
X85935330Y-67363300D01*
X85943379Y-67359631D01*
X85951277Y-67355568D01*
X85959004Y-67351111D01*
X85966542Y-67346257D01*
X85973872Y-67341006D01*
X85980973Y-67335356D01*
X85987827Y-67329305D01*
X85994414Y-67322853D01*
X86000716Y-67315998D01*
X86006713Y-67308738D01*
X86012386Y-67301073D01*
X86017715Y-67293000D01*
X86022682Y-67284518D01*
X86027267Y-67275627D01*
X86031451Y-67266324D01*
X86035215Y-67256609D01*
X86038539Y-67246479D01*
X86041404Y-67235934D01*
X86043792Y-67224972D01*
X86045683Y-67213592D01*
X86047057Y-67201792D01*
X86047895Y-67189572D01*
X86048179Y-67176928D01*
X86048807Y-67164016D01*
X86050637Y-67151920D01*
X86053589Y-67140642D01*
X86057583Y-67130184D01*
X86062538Y-67120546D01*
X86068375Y-67111732D01*
X86075013Y-67103742D01*
X86082373Y-67096578D01*
X86090374Y-67090242D01*
X86098936Y-67084736D01*
X86107979Y-67080061D01*
X86117422Y-67076220D01*
X86127186Y-67073213D01*
X86137190Y-67071042D01*
X86147355Y-67069710D01*
X86157600Y-67069217D01*
X86167845Y-67069566D01*
X86178010Y-67070758D01*
X86188014Y-67072795D01*
X86197778Y-67075679D01*
X86207221Y-67079411D01*
X86216264Y-67083992D01*
X86224826Y-67089426D01*
X86232827Y-67095712D01*
X86240187Y-67102854D01*
X86246825Y-67110852D01*
X86252662Y-67119709D01*
X86257617Y-67129426D01*
X86261611Y-67140005D01*
X86264563Y-67151447D01*
X86266393Y-67163754D01*
X86267021Y-67176928D01*
X86266684Y-67185660D01*
X86265692Y-67194205D01*
X86264068Y-67202538D01*
X86261838Y-67210634D01*
X86259027Y-67218466D01*
X86255661Y-67226009D01*
X86251763Y-67233236D01*
X86247359Y-67240123D01*
X86242475Y-67246644D01*
X86237134Y-67252771D01*
X86231363Y-67258481D01*
X86225187Y-67263746D01*
X86218629Y-67268542D01*
X86211716Y-67272842D01*
X86204472Y-67276621D01*
X86196923Y-67279852D01*
X86189676Y-67283107D01*
X86183215Y-67286794D01*
X86177525Y-67290884D01*
X86171108Y-67296919D01*
X86165995Y-67303556D01*
X86162145Y-67310729D01*
X86159523Y-67318373D01*
X86158089Y-67326421D01*
X86157771Y-67332682D01*
X86158182Y-67339996D01*
X86159395Y-67347145D01*
X86161377Y-67354062D01*
X86164097Y-67360678D01*
X86167522Y-67366926D01*
X86171620Y-67372737D01*
X86176359Y-67378043D01*
X86181707Y-67382776D01*
X86187388Y-67386996D01*
X86194307Y-67390928D01*
X86200836Y-67393594D01*
X86207867Y-67395462D01*
X86215301Y-67396385D01*
X86217952Y-67396454D01*
X86225517Y-67395858D01*
X86232481Y-67394320D01*
X86239733Y-67391856D01*
X86243085Y-67390470D01*
G37*
G36*
X86019969Y-66908848D02*
G01*
X86038063Y-66908388D01*
X86055885Y-66907025D01*
X86073413Y-66904776D01*
X86090628Y-66901663D01*
X86107511Y-66897704D01*
X86124042Y-66892921D01*
X86140201Y-66887332D01*
X86155968Y-66880958D01*
X86171323Y-66873819D01*
X86186248Y-66865934D01*
X86200721Y-66857324D01*
X86214724Y-66848008D01*
X86228236Y-66838006D01*
X86241238Y-66827338D01*
X86253710Y-66816025D01*
X86265632Y-66804086D01*
X86276984Y-66791540D01*
X86287748Y-66778409D01*
X86297902Y-66764711D01*
X86307427Y-66750467D01*
X86316304Y-66735696D01*
X86324513Y-66720419D01*
X86332034Y-66704655D01*
X86338847Y-66688424D01*
X86344932Y-66671747D01*
X86350270Y-66654643D01*
X86354841Y-66637132D01*
X86358626Y-66619234D01*
X86361603Y-66600968D01*
X86363755Y-66582356D01*
X86365060Y-66563416D01*
X86365500Y-66544169D01*
X86365500Y-66426541D01*
X86365165Y-66419595D01*
X86362617Y-66407017D01*
X86357849Y-66396199D01*
X86351202Y-66387148D01*
X86343018Y-66379874D01*
X86333638Y-66374383D01*
X86323404Y-66370686D01*
X86312657Y-66368789D01*
X86301740Y-66368701D01*
X86290994Y-66370430D01*
X86280760Y-66373986D01*
X86271380Y-66379375D01*
X86263196Y-66386606D01*
X86256549Y-66395687D01*
X86251780Y-66406628D01*
X86249232Y-66419435D01*
X86248898Y-66426541D01*
X86248898Y-66535449D01*
X86247590Y-66564625D01*
X86243777Y-66591888D01*
X86237627Y-66617243D01*
X86229305Y-66640695D01*
X86218980Y-66662249D01*
X86206818Y-66681909D01*
X86192986Y-66699681D01*
X86177652Y-66715569D01*
X86160981Y-66729577D01*
X86143142Y-66741712D01*
X86124300Y-66751977D01*
X86104624Y-66760377D01*
X86084280Y-66766917D01*
X86063435Y-66771603D01*
X86042256Y-66774437D01*
X86020909Y-66775427D01*
X85999563Y-66774575D01*
X85978384Y-66771888D01*
X85957539Y-66767369D01*
X85937195Y-66761024D01*
X85917519Y-66752858D01*
X85898677Y-66742874D01*
X85880838Y-66731079D01*
X85864167Y-66717476D01*
X85848833Y-66702071D01*
X85835001Y-66684868D01*
X85822839Y-66665872D01*
X85812514Y-66645089D01*
X85804192Y-66622521D01*
X85798042Y-66598176D01*
X85794229Y-66572057D01*
X85792921Y-66544169D01*
X85792921Y-66426541D01*
X85792586Y-66419435D01*
X85790034Y-66406628D01*
X85785259Y-66395687D01*
X85778602Y-66386606D01*
X85770406Y-66379375D01*
X85761012Y-66373986D01*
X85750763Y-66370430D01*
X85740001Y-66368701D01*
X85729068Y-66368789D01*
X85718306Y-66370686D01*
X85708057Y-66374383D01*
X85698663Y-66379874D01*
X85690467Y-66387148D01*
X85683810Y-66396199D01*
X85679035Y-66407017D01*
X85676483Y-66419595D01*
X85676148Y-66426541D01*
X85676148Y-66554940D01*
X85677019Y-66573299D01*
X85678689Y-66591400D01*
X85681144Y-66609222D01*
X85684365Y-66626744D01*
X85688338Y-66643944D01*
X85693046Y-66660801D01*
X85698473Y-66677294D01*
X85704602Y-66693401D01*
X85711416Y-66709101D01*
X85718901Y-66724373D01*
X85727039Y-66739196D01*
X85735813Y-66753547D01*
X85745209Y-66767406D01*
X85755209Y-66780752D01*
X85765797Y-66793562D01*
X85776957Y-66805817D01*
X85788672Y-66817494D01*
X85800926Y-66828572D01*
X85813704Y-66839030D01*
X85826988Y-66848846D01*
X85840762Y-66858000D01*
X85855010Y-66866469D01*
X85869716Y-66874233D01*
X85884863Y-66881271D01*
X85900435Y-66887560D01*
X85916416Y-66893080D01*
X85932789Y-66897809D01*
X85949538Y-66901726D01*
X85966647Y-66904810D01*
X85984099Y-66907039D01*
X86001879Y-66908392D01*
X86019969Y-66908848D01*
G37*
G36*
X85734449Y-66289423D02*
G01*
X86070234Y-66289423D01*
X86085417Y-66288996D01*
X86100401Y-66287727D01*
X86115169Y-66285638D01*
X86129701Y-66282749D01*
X86143980Y-66279081D01*
X86157987Y-66274653D01*
X86171702Y-66269486D01*
X86185107Y-66263601D01*
X86198185Y-66257019D01*
X86210915Y-66249759D01*
X86223280Y-66241843D01*
X86235260Y-66233290D01*
X86246838Y-66224121D01*
X86257994Y-66214357D01*
X86268710Y-66204018D01*
X86278967Y-66193124D01*
X86288747Y-66181697D01*
X86298031Y-66169756D01*
X86306801Y-66157322D01*
X86315037Y-66144416D01*
X86322721Y-66131058D01*
X86329835Y-66117268D01*
X86336360Y-66103066D01*
X86342277Y-66088475D01*
X86347568Y-66073513D01*
X86352213Y-66058201D01*
X86356195Y-66042560D01*
X86359495Y-66026611D01*
X86362094Y-66010373D01*
X86363974Y-65993868D01*
X86365115Y-65977115D01*
X86365500Y-65960135D01*
X86365157Y-65951886D01*
X86364157Y-65944222D01*
X86362545Y-65937135D01*
X86360364Y-65930618D01*
X86354471Y-65919270D01*
X86346826Y-65910124D01*
X86337782Y-65903124D01*
X86327686Y-65898216D01*
X86316891Y-65895347D01*
X86305745Y-65894461D01*
X86294600Y-65895505D01*
X86283805Y-65898424D01*
X86273709Y-65903163D01*
X86264665Y-65909669D01*
X86257020Y-65917888D01*
X86251127Y-65927763D01*
X86247334Y-65939242D01*
X86245991Y-65952270D01*
X86245784Y-65963078D01*
X86245166Y-65973789D01*
X86244142Y-65984386D01*
X86242719Y-65994854D01*
X86240903Y-66005176D01*
X86238699Y-66015337D01*
X86236112Y-66025319D01*
X86233150Y-66035108D01*
X86229817Y-66044686D01*
X86226120Y-66054039D01*
X86222063Y-66063148D01*
X86217654Y-66072000D01*
X86212898Y-66080577D01*
X86207800Y-66088863D01*
X86202366Y-66096842D01*
X86196603Y-66104498D01*
X86190515Y-66111815D01*
X86184109Y-66118777D01*
X86177391Y-66125367D01*
X86170366Y-66131570D01*
X86163040Y-66137370D01*
X86155419Y-66142749D01*
X86147508Y-66147693D01*
X86139314Y-66152185D01*
X86130843Y-66156209D01*
X86122099Y-66159749D01*
X86113089Y-66162788D01*
X86103819Y-66165311D01*
X86094294Y-66167301D01*
X86084521Y-66168743D01*
X86074504Y-66169619D01*
X86064250Y-66169915D01*
X85734449Y-66169915D01*
X85727286Y-66170241D01*
X85717444Y-66171893D01*
X85708678Y-66174825D01*
X85700978Y-66178907D01*
X85694335Y-66184007D01*
X85688739Y-66189997D01*
X85684182Y-66196746D01*
X85680653Y-66204124D01*
X85678144Y-66212000D01*
X85676646Y-66220245D01*
X85676148Y-66228729D01*
X85676670Y-66237219D01*
X85678232Y-66245567D01*
X85680828Y-66253622D01*
X85684452Y-66261232D01*
X85689098Y-66268245D01*
X85694761Y-66274511D01*
X85701434Y-66279878D01*
X85709111Y-66284195D01*
X85717787Y-66287311D01*
X85727455Y-66289074D01*
X85734449Y-66289423D01*
G37*
X104258333Y-64248833D02*
X104258333Y-63548833D01*
X104258333Y-63548833D02*
X104425000Y-63548833D01*
X104425000Y-63548833D02*
X104525000Y-63582166D01*
X104525000Y-63582166D02*
X104591667Y-63648833D01*
X104591667Y-63648833D02*
X104625000Y-63715500D01*
X104625000Y-63715500D02*
X104658333Y-63848833D01*
X104658333Y-63848833D02*
X104658333Y-63948833D01*
X104658333Y-63948833D02*
X104625000Y-64082166D01*
X104625000Y-64082166D02*
X104591667Y-64148833D01*
X104591667Y-64148833D02*
X104525000Y-64215500D01*
X104525000Y-64215500D02*
X104425000Y-64248833D01*
X104425000Y-64248833D02*
X104258333Y-64248833D01*
X105325000Y-64248833D02*
X104925000Y-64248833D01*
X105125000Y-64248833D02*
X105125000Y-63548833D01*
X105125000Y-63548833D02*
X105058333Y-63648833D01*
X105058333Y-63648833D02*
X104991667Y-63715500D01*
X104991667Y-63715500D02*
X104925000Y-63748833D01*
X101799999Y-64148833D02*
X101566666Y-63815500D01*
X101399999Y-64148833D02*
X101399999Y-63448833D01*
X101399999Y-63448833D02*
X101666666Y-63448833D01*
X101666666Y-63448833D02*
X101733333Y-63482166D01*
X101733333Y-63482166D02*
X101766666Y-63515500D01*
X101766666Y-63515500D02*
X101799999Y-63582166D01*
X101799999Y-63582166D02*
X101799999Y-63682166D01*
X101799999Y-63682166D02*
X101766666Y-63748833D01*
X101766666Y-63748833D02*
X101733333Y-63782166D01*
X101733333Y-63782166D02*
X101666666Y-63815500D01*
X101666666Y-63815500D02*
X101399999Y-63815500D01*
X102466666Y-64148833D02*
X102066666Y-64148833D01*
X102266666Y-64148833D02*
X102266666Y-63448833D01*
X102266666Y-63448833D02*
X102199999Y-63548833D01*
X102199999Y-63548833D02*
X102133333Y-63615500D01*
X102133333Y-63615500D02*
X102066666Y-63648833D01*
X103100000Y-63448833D02*
X102766666Y-63448833D01*
X102766666Y-63448833D02*
X102733333Y-63782166D01*
X102733333Y-63782166D02*
X102766666Y-63748833D01*
X102766666Y-63748833D02*
X102833333Y-63715500D01*
X102833333Y-63715500D02*
X103000000Y-63715500D01*
X103000000Y-63715500D02*
X103066666Y-63748833D01*
X103066666Y-63748833D02*
X103100000Y-63782166D01*
X103100000Y-63782166D02*
X103133333Y-63848833D01*
X103133333Y-63848833D02*
X103133333Y-64015500D01*
X103133333Y-64015500D02*
X103100000Y-64082166D01*
X103100000Y-64082166D02*
X103066666Y-64115500D01*
X103066666Y-64115500D02*
X103000000Y-64148833D01*
X103000000Y-64148833D02*
X102833333Y-64148833D01*
X102833333Y-64148833D02*
X102766666Y-64115500D01*
X102766666Y-64115500D02*
X102733333Y-64082166D01*
X88491666Y-71223833D02*
X88491666Y-71723833D01*
X88491666Y-71723833D02*
X88458333Y-71823833D01*
X88458333Y-71823833D02*
X88391666Y-71890500D01*
X88391666Y-71890500D02*
X88291666Y-71923833D01*
X88291666Y-71923833D02*
X88225000Y-71923833D01*
X88791666Y-71290500D02*
X88824999Y-71257166D01*
X88824999Y-71257166D02*
X88891666Y-71223833D01*
X88891666Y-71223833D02*
X89058333Y-71223833D01*
X89058333Y-71223833D02*
X89124999Y-71257166D01*
X89124999Y-71257166D02*
X89158333Y-71290500D01*
X89158333Y-71290500D02*
X89191666Y-71357166D01*
X89191666Y-71357166D02*
X89191666Y-71423833D01*
X89191666Y-71423833D02*
X89158333Y-71523833D01*
X89158333Y-71523833D02*
X88758333Y-71923833D01*
X88758333Y-71923833D02*
X89191666Y-71923833D01*
X97549999Y-67607166D02*
X97516666Y-67640500D01*
X97516666Y-67640500D02*
X97416666Y-67673833D01*
X97416666Y-67673833D02*
X97349999Y-67673833D01*
X97349999Y-67673833D02*
X97249999Y-67640500D01*
X97249999Y-67640500D02*
X97183333Y-67573833D01*
X97183333Y-67573833D02*
X97149999Y-67507166D01*
X97149999Y-67507166D02*
X97116666Y-67373833D01*
X97116666Y-67373833D02*
X97116666Y-67273833D01*
X97116666Y-67273833D02*
X97149999Y-67140500D01*
X97149999Y-67140500D02*
X97183333Y-67073833D01*
X97183333Y-67073833D02*
X97249999Y-67007166D01*
X97249999Y-67007166D02*
X97349999Y-66973833D01*
X97349999Y-66973833D02*
X97416666Y-66973833D01*
X97416666Y-66973833D02*
X97516666Y-67007166D01*
X97516666Y-67007166D02*
X97549999Y-67040500D01*
X98216666Y-67673833D02*
X97816666Y-67673833D01*
X98016666Y-67673833D02*
X98016666Y-66973833D01*
X98016666Y-66973833D02*
X97949999Y-67073833D01*
X97949999Y-67073833D02*
X97883333Y-67140500D01*
X97883333Y-67140500D02*
X97816666Y-67173833D01*
X98816666Y-67207166D02*
X98816666Y-67673833D01*
X98650000Y-66940500D02*
X98483333Y-67440500D01*
X98483333Y-67440500D02*
X98916666Y-67440500D01*
X93182166Y-57191666D02*
X93215500Y-57224999D01*
X93215500Y-57224999D02*
X93248833Y-57324999D01*
X93248833Y-57324999D02*
X93248833Y-57391666D01*
X93248833Y-57391666D02*
X93215500Y-57491666D01*
X93215500Y-57491666D02*
X93148833Y-57558333D01*
X93148833Y-57558333D02*
X93082166Y-57591666D01*
X93082166Y-57591666D02*
X92948833Y-57624999D01*
X92948833Y-57624999D02*
X92848833Y-57624999D01*
X92848833Y-57624999D02*
X92715500Y-57591666D01*
X92715500Y-57591666D02*
X92648833Y-57558333D01*
X92648833Y-57558333D02*
X92582166Y-57491666D01*
X92582166Y-57491666D02*
X92548833Y-57391666D01*
X92548833Y-57391666D02*
X92548833Y-57324999D01*
X92548833Y-57324999D02*
X92582166Y-57224999D01*
X92582166Y-57224999D02*
X92615500Y-57191666D01*
X92548833Y-56958333D02*
X92548833Y-56491666D01*
X92548833Y-56491666D02*
X93248833Y-56791666D01*
X103099999Y-61732166D02*
X103066666Y-61765500D01*
X103066666Y-61765500D02*
X102966666Y-61798833D01*
X102966666Y-61798833D02*
X102899999Y-61798833D01*
X102899999Y-61798833D02*
X102799999Y-61765500D01*
X102799999Y-61765500D02*
X102733333Y-61698833D01*
X102733333Y-61698833D02*
X102699999Y-61632166D01*
X102699999Y-61632166D02*
X102666666Y-61498833D01*
X102666666Y-61498833D02*
X102666666Y-61398833D01*
X102666666Y-61398833D02*
X102699999Y-61265500D01*
X102699999Y-61265500D02*
X102733333Y-61198833D01*
X102733333Y-61198833D02*
X102799999Y-61132166D01*
X102799999Y-61132166D02*
X102899999Y-61098833D01*
X102899999Y-61098833D02*
X102966666Y-61098833D01*
X102966666Y-61098833D02*
X103066666Y-61132166D01*
X103066666Y-61132166D02*
X103099999Y-61165500D01*
X103766666Y-61798833D02*
X103366666Y-61798833D01*
X103566666Y-61798833D02*
X103566666Y-61098833D01*
X103566666Y-61098833D02*
X103499999Y-61198833D01*
X103499999Y-61198833D02*
X103433333Y-61265500D01*
X103433333Y-61265500D02*
X103366666Y-61298833D01*
X104000000Y-61098833D02*
X104433333Y-61098833D01*
X104433333Y-61098833D02*
X104200000Y-61365500D01*
X104200000Y-61365500D02*
X104300000Y-61365500D01*
X104300000Y-61365500D02*
X104366666Y-61398833D01*
X104366666Y-61398833D02*
X104400000Y-61432166D01*
X104400000Y-61432166D02*
X104433333Y-61498833D01*
X104433333Y-61498833D02*
X104433333Y-61665500D01*
X104433333Y-61665500D02*
X104400000Y-61732166D01*
X104400000Y-61732166D02*
X104366666Y-61765500D01*
X104366666Y-61765500D02*
X104300000Y-61798833D01*
X104300000Y-61798833D02*
X104100000Y-61798833D01*
X104100000Y-61798833D02*
X104033333Y-61765500D01*
X104033333Y-61765500D02*
X104000000Y-61732166D01*
X111398833Y-62016666D02*
X111065500Y-62249999D01*
X111398833Y-62416666D02*
X110698833Y-62416666D01*
X110698833Y-62416666D02*
X110698833Y-62149999D01*
X110698833Y-62149999D02*
X110732166Y-62083333D01*
X110732166Y-62083333D02*
X110765500Y-62049999D01*
X110765500Y-62049999D02*
X110832166Y-62016666D01*
X110832166Y-62016666D02*
X110932166Y-62016666D01*
X110932166Y-62016666D02*
X110998833Y-62049999D01*
X110998833Y-62049999D02*
X111032166Y-62083333D01*
X111032166Y-62083333D02*
X111065500Y-62149999D01*
X111065500Y-62149999D02*
X111065500Y-62416666D01*
X111398833Y-61683333D02*
X111398833Y-61549999D01*
X111398833Y-61549999D02*
X111365500Y-61483333D01*
X111365500Y-61483333D02*
X111332166Y-61449999D01*
X111332166Y-61449999D02*
X111232166Y-61383333D01*
X111232166Y-61383333D02*
X111098833Y-61349999D01*
X111098833Y-61349999D02*
X110832166Y-61349999D01*
X110832166Y-61349999D02*
X110765500Y-61383333D01*
X110765500Y-61383333D02*
X110732166Y-61416666D01*
X110732166Y-61416666D02*
X110698833Y-61483333D01*
X110698833Y-61483333D02*
X110698833Y-61616666D01*
X110698833Y-61616666D02*
X110732166Y-61683333D01*
X110732166Y-61683333D02*
X110765500Y-61716666D01*
X110765500Y-61716666D02*
X110832166Y-61749999D01*
X110832166Y-61749999D02*
X110998833Y-61749999D01*
X110998833Y-61749999D02*
X111065500Y-61716666D01*
X111065500Y-61716666D02*
X111098833Y-61683333D01*
X111098833Y-61683333D02*
X111132166Y-61616666D01*
X111132166Y-61616666D02*
X111132166Y-61483333D01*
X111132166Y-61483333D02*
X111098833Y-61416666D01*
X111098833Y-61416666D02*
X111065500Y-61383333D01*
X111065500Y-61383333D02*
X110998833Y-61349999D01*
X88733333Y-60832166D02*
X88700000Y-60865500D01*
X88700000Y-60865500D02*
X88600000Y-60898833D01*
X88600000Y-60898833D02*
X88533333Y-60898833D01*
X88533333Y-60898833D02*
X88433333Y-60865500D01*
X88433333Y-60865500D02*
X88366667Y-60798833D01*
X88366667Y-60798833D02*
X88333333Y-60732166D01*
X88333333Y-60732166D02*
X88300000Y-60598833D01*
X88300000Y-60598833D02*
X88300000Y-60498833D01*
X88300000Y-60498833D02*
X88333333Y-60365500D01*
X88333333Y-60365500D02*
X88366667Y-60298833D01*
X88366667Y-60298833D02*
X88433333Y-60232166D01*
X88433333Y-60232166D02*
X88533333Y-60198833D01*
X88533333Y-60198833D02*
X88600000Y-60198833D01*
X88600000Y-60198833D02*
X88700000Y-60232166D01*
X88700000Y-60232166D02*
X88733333Y-60265500D01*
X89133333Y-60498833D02*
X89066667Y-60465500D01*
X89066667Y-60465500D02*
X89033333Y-60432166D01*
X89033333Y-60432166D02*
X89000000Y-60365500D01*
X89000000Y-60365500D02*
X89000000Y-60332166D01*
X89000000Y-60332166D02*
X89033333Y-60265500D01*
X89033333Y-60265500D02*
X89066667Y-60232166D01*
X89066667Y-60232166D02*
X89133333Y-60198833D01*
X89133333Y-60198833D02*
X89266667Y-60198833D01*
X89266667Y-60198833D02*
X89333333Y-60232166D01*
X89333333Y-60232166D02*
X89366667Y-60265500D01*
X89366667Y-60265500D02*
X89400000Y-60332166D01*
X89400000Y-60332166D02*
X89400000Y-60365500D01*
X89400000Y-60365500D02*
X89366667Y-60432166D01*
X89366667Y-60432166D02*
X89333333Y-60465500D01*
X89333333Y-60465500D02*
X89266667Y-60498833D01*
X89266667Y-60498833D02*
X89133333Y-60498833D01*
X89133333Y-60498833D02*
X89066667Y-60532166D01*
X89066667Y-60532166D02*
X89033333Y-60565500D01*
X89033333Y-60565500D02*
X89000000Y-60632166D01*
X89000000Y-60632166D02*
X89000000Y-60765500D01*
X89000000Y-60765500D02*
X89033333Y-60832166D01*
X89033333Y-60832166D02*
X89066667Y-60865500D01*
X89066667Y-60865500D02*
X89133333Y-60898833D01*
X89133333Y-60898833D02*
X89266667Y-60898833D01*
X89266667Y-60898833D02*
X89333333Y-60865500D01*
X89333333Y-60865500D02*
X89366667Y-60832166D01*
X89366667Y-60832166D02*
X89400000Y-60765500D01*
X89400000Y-60765500D02*
X89400000Y-60632166D01*
X89400000Y-60632166D02*
X89366667Y-60565500D01*
X89366667Y-60565500D02*
X89333333Y-60532166D01*
X89333333Y-60532166D02*
X89266667Y-60498833D01*
X104798833Y-52816666D02*
X104465500Y-53049999D01*
X104798833Y-53216666D02*
X104098833Y-53216666D01*
X104098833Y-53216666D02*
X104098833Y-52949999D01*
X104098833Y-52949999D02*
X104132166Y-52883333D01*
X104132166Y-52883333D02*
X104165500Y-52849999D01*
X104165500Y-52849999D02*
X104232166Y-52816666D01*
X104232166Y-52816666D02*
X104332166Y-52816666D01*
X104332166Y-52816666D02*
X104398833Y-52849999D01*
X104398833Y-52849999D02*
X104432166Y-52883333D01*
X104432166Y-52883333D02*
X104465500Y-52949999D01*
X104465500Y-52949999D02*
X104465500Y-53216666D01*
X104332166Y-52216666D02*
X104798833Y-52216666D01*
X104065500Y-52383333D02*
X104565500Y-52549999D01*
X104565500Y-52549999D02*
X104565500Y-52116666D01*
X109858333Y-78023833D02*
X109625000Y-77690500D01*
X109458333Y-78023833D02*
X109458333Y-77323833D01*
X109458333Y-77323833D02*
X109725000Y-77323833D01*
X109725000Y-77323833D02*
X109791667Y-77357166D01*
X109791667Y-77357166D02*
X109825000Y-77390500D01*
X109825000Y-77390500D02*
X109858333Y-77457166D01*
X109858333Y-77457166D02*
X109858333Y-77557166D01*
X109858333Y-77557166D02*
X109825000Y-77623833D01*
X109825000Y-77623833D02*
X109791667Y-77657166D01*
X109791667Y-77657166D02*
X109725000Y-77690500D01*
X109725000Y-77690500D02*
X109458333Y-77690500D01*
X110258333Y-77623833D02*
X110191667Y-77590500D01*
X110191667Y-77590500D02*
X110158333Y-77557166D01*
X110158333Y-77557166D02*
X110125000Y-77490500D01*
X110125000Y-77490500D02*
X110125000Y-77457166D01*
X110125000Y-77457166D02*
X110158333Y-77390500D01*
X110158333Y-77390500D02*
X110191667Y-77357166D01*
X110191667Y-77357166D02*
X110258333Y-77323833D01*
X110258333Y-77323833D02*
X110391667Y-77323833D01*
X110391667Y-77323833D02*
X110458333Y-77357166D01*
X110458333Y-77357166D02*
X110491667Y-77390500D01*
X110491667Y-77390500D02*
X110525000Y-77457166D01*
X110525000Y-77457166D02*
X110525000Y-77490500D01*
X110525000Y-77490500D02*
X110491667Y-77557166D01*
X110491667Y-77557166D02*
X110458333Y-77590500D01*
X110458333Y-77590500D02*
X110391667Y-77623833D01*
X110391667Y-77623833D02*
X110258333Y-77623833D01*
X110258333Y-77623833D02*
X110191667Y-77657166D01*
X110191667Y-77657166D02*
X110158333Y-77690500D01*
X110158333Y-77690500D02*
X110125000Y-77757166D01*
X110125000Y-77757166D02*
X110125000Y-77890500D01*
X110125000Y-77890500D02*
X110158333Y-77957166D01*
X110158333Y-77957166D02*
X110191667Y-77990500D01*
X110191667Y-77990500D02*
X110258333Y-78023833D01*
X110258333Y-78023833D02*
X110391667Y-78023833D01*
X110391667Y-78023833D02*
X110458333Y-77990500D01*
X110458333Y-77990500D02*
X110491667Y-77957166D01*
X110491667Y-77957166D02*
X110525000Y-77890500D01*
X110525000Y-77890500D02*
X110525000Y-77757166D01*
X110525000Y-77757166D02*
X110491667Y-77690500D01*
X110491667Y-77690500D02*
X110458333Y-77657166D01*
X110458333Y-77657166D02*
X110391667Y-77623833D01*
X91223833Y-73341666D02*
X90523833Y-73341666D01*
X90523833Y-73341666D02*
X90523833Y-73174999D01*
X90523833Y-73174999D02*
X90557166Y-73074999D01*
X90557166Y-73074999D02*
X90623833Y-73008333D01*
X90623833Y-73008333D02*
X90690500Y-72974999D01*
X90690500Y-72974999D02*
X90823833Y-72941666D01*
X90823833Y-72941666D02*
X90923833Y-72941666D01*
X90923833Y-72941666D02*
X91057166Y-72974999D01*
X91057166Y-72974999D02*
X91123833Y-73008333D01*
X91123833Y-73008333D02*
X91190500Y-73074999D01*
X91190500Y-73074999D02*
X91223833Y-73174999D01*
X91223833Y-73174999D02*
X91223833Y-73341666D01*
X90523833Y-72708333D02*
X90523833Y-72274999D01*
X90523833Y-72274999D02*
X90790500Y-72508333D01*
X90790500Y-72508333D02*
X90790500Y-72408333D01*
X90790500Y-72408333D02*
X90823833Y-72341666D01*
X90823833Y-72341666D02*
X90857166Y-72308333D01*
X90857166Y-72308333D02*
X90923833Y-72274999D01*
X90923833Y-72274999D02*
X91090500Y-72274999D01*
X91090500Y-72274999D02*
X91157166Y-72308333D01*
X91157166Y-72308333D02*
X91190500Y-72341666D01*
X91190500Y-72341666D02*
X91223833Y-72408333D01*
X91223833Y-72408333D02*
X91223833Y-72608333D01*
X91223833Y-72608333D02*
X91190500Y-72674999D01*
X91190500Y-72674999D02*
X91157166Y-72708333D01*
X86933333Y-51873833D02*
X86933333Y-51173833D01*
X86933333Y-51173833D02*
X87100000Y-51173833D01*
X87100000Y-51173833D02*
X87200000Y-51207166D01*
X87200000Y-51207166D02*
X87266667Y-51273833D01*
X87266667Y-51273833D02*
X87300000Y-51340500D01*
X87300000Y-51340500D02*
X87333333Y-51473833D01*
X87333333Y-51473833D02*
X87333333Y-51573833D01*
X87333333Y-51573833D02*
X87300000Y-51707166D01*
X87300000Y-51707166D02*
X87266667Y-51773833D01*
X87266667Y-51773833D02*
X87200000Y-51840500D01*
X87200000Y-51840500D02*
X87100000Y-51873833D01*
X87100000Y-51873833D02*
X86933333Y-51873833D01*
X87933333Y-51407166D02*
X87933333Y-51873833D01*
X87766667Y-51140500D02*
X87600000Y-51640500D01*
X87600000Y-51640500D02*
X88033333Y-51640500D01*
X97582166Y-64266666D02*
X97615500Y-64299999D01*
X97615500Y-64299999D02*
X97648833Y-64399999D01*
X97648833Y-64399999D02*
X97648833Y-64466666D01*
X97648833Y-64466666D02*
X97615500Y-64566666D01*
X97615500Y-64566666D02*
X97548833Y-64633333D01*
X97548833Y-64633333D02*
X97482166Y-64666666D01*
X97482166Y-64666666D02*
X97348833Y-64699999D01*
X97348833Y-64699999D02*
X97248833Y-64699999D01*
X97248833Y-64699999D02*
X97115500Y-64666666D01*
X97115500Y-64666666D02*
X97048833Y-64633333D01*
X97048833Y-64633333D02*
X96982166Y-64566666D01*
X96982166Y-64566666D02*
X96948833Y-64466666D01*
X96948833Y-64466666D02*
X96948833Y-64399999D01*
X96948833Y-64399999D02*
X96982166Y-64299999D01*
X96982166Y-64299999D02*
X97015500Y-64266666D01*
X97648833Y-63933333D02*
X97648833Y-63799999D01*
X97648833Y-63799999D02*
X97615500Y-63733333D01*
X97615500Y-63733333D02*
X97582166Y-63699999D01*
X97582166Y-63699999D02*
X97482166Y-63633333D01*
X97482166Y-63633333D02*
X97348833Y-63599999D01*
X97348833Y-63599999D02*
X97082166Y-63599999D01*
X97082166Y-63599999D02*
X97015500Y-63633333D01*
X97015500Y-63633333D02*
X96982166Y-63666666D01*
X96982166Y-63666666D02*
X96948833Y-63733333D01*
X96948833Y-63733333D02*
X96948833Y-63866666D01*
X96948833Y-63866666D02*
X96982166Y-63933333D01*
X96982166Y-63933333D02*
X97015500Y-63966666D01*
X97015500Y-63966666D02*
X97082166Y-63999999D01*
X97082166Y-63999999D02*
X97248833Y-63999999D01*
X97248833Y-63999999D02*
X97315500Y-63966666D01*
X97315500Y-63966666D02*
X97348833Y-63933333D01*
X97348833Y-63933333D02*
X97382166Y-63866666D01*
X97382166Y-63866666D02*
X97382166Y-63733333D01*
X97382166Y-63733333D02*
X97348833Y-63666666D01*
X97348833Y-63666666D02*
X97315500Y-63633333D01*
X97315500Y-63633333D02*
X97248833Y-63599999D01*
X95308333Y-56190500D02*
X95241666Y-56157166D01*
X95241666Y-56157166D02*
X95175000Y-56090500D01*
X95175000Y-56090500D02*
X95075000Y-55990500D01*
X95075000Y-55990500D02*
X95008333Y-55957166D01*
X95008333Y-55957166D02*
X94941666Y-55957166D01*
X94975000Y-56123833D02*
X94908333Y-56090500D01*
X94908333Y-56090500D02*
X94841666Y-56023833D01*
X94841666Y-56023833D02*
X94808333Y-55890500D01*
X94808333Y-55890500D02*
X94808333Y-55657166D01*
X94808333Y-55657166D02*
X94841666Y-55523833D01*
X94841666Y-55523833D02*
X94908333Y-55457166D01*
X94908333Y-55457166D02*
X94975000Y-55423833D01*
X94975000Y-55423833D02*
X95108333Y-55423833D01*
X95108333Y-55423833D02*
X95175000Y-55457166D01*
X95175000Y-55457166D02*
X95241666Y-55523833D01*
X95241666Y-55523833D02*
X95275000Y-55657166D01*
X95275000Y-55657166D02*
X95275000Y-55890500D01*
X95275000Y-55890500D02*
X95241666Y-56023833D01*
X95241666Y-56023833D02*
X95175000Y-56090500D01*
X95175000Y-56090500D02*
X95108333Y-56123833D01*
X95108333Y-56123833D02*
X94975000Y-56123833D01*
X95941666Y-56123833D02*
X95541666Y-56123833D01*
X95741666Y-56123833D02*
X95741666Y-55423833D01*
X95741666Y-55423833D02*
X95674999Y-55523833D01*
X95674999Y-55523833D02*
X95608333Y-55590500D01*
X95608333Y-55590500D02*
X95541666Y-55623833D01*
X96249999Y-71479594D02*
X96016666Y-71146261D01*
X95849999Y-71479594D02*
X95849999Y-70779594D01*
X95849999Y-70779594D02*
X96116666Y-70779594D01*
X96116666Y-70779594D02*
X96183333Y-70812927D01*
X96183333Y-70812927D02*
X96216666Y-70846261D01*
X96216666Y-70846261D02*
X96249999Y-70912927D01*
X96249999Y-70912927D02*
X96249999Y-71012927D01*
X96249999Y-71012927D02*
X96216666Y-71079594D01*
X96216666Y-71079594D02*
X96183333Y-71112927D01*
X96183333Y-71112927D02*
X96116666Y-71146261D01*
X96116666Y-71146261D02*
X95849999Y-71146261D01*
X96916666Y-71479594D02*
X96516666Y-71479594D01*
X96716666Y-71479594D02*
X96716666Y-70779594D01*
X96716666Y-70779594D02*
X96649999Y-70879594D01*
X96649999Y-70879594D02*
X96583333Y-70946261D01*
X96583333Y-70946261D02*
X96516666Y-70979594D01*
X97516666Y-70779594D02*
X97383333Y-70779594D01*
X97383333Y-70779594D02*
X97316666Y-70812927D01*
X97316666Y-70812927D02*
X97283333Y-70846261D01*
X97283333Y-70846261D02*
X97216666Y-70946261D01*
X97216666Y-70946261D02*
X97183333Y-71079594D01*
X97183333Y-71079594D02*
X97183333Y-71346261D01*
X97183333Y-71346261D02*
X97216666Y-71412927D01*
X97216666Y-71412927D02*
X97250000Y-71446261D01*
X97250000Y-71446261D02*
X97316666Y-71479594D01*
X97316666Y-71479594D02*
X97450000Y-71479594D01*
X97450000Y-71479594D02*
X97516666Y-71446261D01*
X97516666Y-71446261D02*
X97550000Y-71412927D01*
X97550000Y-71412927D02*
X97583333Y-71346261D01*
X97583333Y-71346261D02*
X97583333Y-71179594D01*
X97583333Y-71179594D02*
X97550000Y-71112927D01*
X97550000Y-71112927D02*
X97516666Y-71079594D01*
X97516666Y-71079594D02*
X97450000Y-71046261D01*
X97450000Y-71046261D02*
X97316666Y-71046261D01*
X97316666Y-71046261D02*
X97250000Y-71079594D01*
X97250000Y-71079594D02*
X97216666Y-71112927D01*
X97216666Y-71112927D02*
X97183333Y-71179594D01*
X100666666Y-74898833D02*
X100666666Y-75398833D01*
X100666666Y-75398833D02*
X100633333Y-75498833D01*
X100633333Y-75498833D02*
X100566666Y-75565500D01*
X100566666Y-75565500D02*
X100466666Y-75598833D01*
X100466666Y-75598833D02*
X100400000Y-75598833D01*
X101333333Y-74898833D02*
X100999999Y-74898833D01*
X100999999Y-74898833D02*
X100966666Y-75232166D01*
X100966666Y-75232166D02*
X100999999Y-75198833D01*
X100999999Y-75198833D02*
X101066666Y-75165500D01*
X101066666Y-75165500D02*
X101233333Y-75165500D01*
X101233333Y-75165500D02*
X101299999Y-75198833D01*
X101299999Y-75198833D02*
X101333333Y-75232166D01*
X101333333Y-75232166D02*
X101366666Y-75298833D01*
X101366666Y-75298833D02*
X101366666Y-75465500D01*
X101366666Y-75465500D02*
X101333333Y-75532166D01*
X101333333Y-75532166D02*
X101299999Y-75565500D01*
X101299999Y-75565500D02*
X101233333Y-75598833D01*
X101233333Y-75598833D02*
X101066666Y-75598833D01*
X101066666Y-75598833D02*
X100999999Y-75565500D01*
X100999999Y-75565500D02*
X100966666Y-75532166D01*
X92098833Y-65408333D02*
X92665500Y-65408333D01*
X92665500Y-65408333D02*
X92732166Y-65375000D01*
X92732166Y-65375000D02*
X92765500Y-65341666D01*
X92765500Y-65341666D02*
X92798833Y-65275000D01*
X92798833Y-65275000D02*
X92798833Y-65141666D01*
X92798833Y-65141666D02*
X92765500Y-65075000D01*
X92765500Y-65075000D02*
X92732166Y-65041666D01*
X92732166Y-65041666D02*
X92665500Y-65008333D01*
X92665500Y-65008333D02*
X92098833Y-65008333D01*
X92798833Y-64308333D02*
X92798833Y-64708333D01*
X92798833Y-64508333D02*
X92098833Y-64508333D01*
X92098833Y-64508333D02*
X92198833Y-64575000D01*
X92198833Y-64575000D02*
X92265500Y-64641667D01*
X92265500Y-64641667D02*
X92298833Y-64708333D01*
X108049999Y-71957166D02*
X108016666Y-71990500D01*
X108016666Y-71990500D02*
X107916666Y-72023833D01*
X107916666Y-72023833D02*
X107849999Y-72023833D01*
X107849999Y-72023833D02*
X107749999Y-71990500D01*
X107749999Y-71990500D02*
X107683333Y-71923833D01*
X107683333Y-71923833D02*
X107649999Y-71857166D01*
X107649999Y-71857166D02*
X107616666Y-71723833D01*
X107616666Y-71723833D02*
X107616666Y-71623833D01*
X107616666Y-71623833D02*
X107649999Y-71490500D01*
X107649999Y-71490500D02*
X107683333Y-71423833D01*
X107683333Y-71423833D02*
X107749999Y-71357166D01*
X107749999Y-71357166D02*
X107849999Y-71323833D01*
X107849999Y-71323833D02*
X107916666Y-71323833D01*
X107916666Y-71323833D02*
X108016666Y-71357166D01*
X108016666Y-71357166D02*
X108049999Y-71390500D01*
X108716666Y-72023833D02*
X108316666Y-72023833D01*
X108516666Y-72023833D02*
X108516666Y-71323833D01*
X108516666Y-71323833D02*
X108449999Y-71423833D01*
X108449999Y-71423833D02*
X108383333Y-71490500D01*
X108383333Y-71490500D02*
X108316666Y-71523833D01*
X109383333Y-72023833D02*
X108983333Y-72023833D01*
X109183333Y-72023833D02*
X109183333Y-71323833D01*
X109183333Y-71323833D02*
X109116666Y-71423833D01*
X109116666Y-71423833D02*
X109050000Y-71490500D01*
X109050000Y-71490500D02*
X108983333Y-71523833D01*
X87649999Y-65673833D02*
X87416666Y-65340500D01*
X87249999Y-65673833D02*
X87249999Y-64973833D01*
X87249999Y-64973833D02*
X87516666Y-64973833D01*
X87516666Y-64973833D02*
X87583333Y-65007166D01*
X87583333Y-65007166D02*
X87616666Y-65040500D01*
X87616666Y-65040500D02*
X87649999Y-65107166D01*
X87649999Y-65107166D02*
X87649999Y-65207166D01*
X87649999Y-65207166D02*
X87616666Y-65273833D01*
X87616666Y-65273833D02*
X87583333Y-65307166D01*
X87583333Y-65307166D02*
X87516666Y-65340500D01*
X87516666Y-65340500D02*
X87249999Y-65340500D01*
X88316666Y-65673833D02*
X87916666Y-65673833D01*
X88116666Y-65673833D02*
X88116666Y-64973833D01*
X88116666Y-64973833D02*
X88049999Y-65073833D01*
X88049999Y-65073833D02*
X87983333Y-65140500D01*
X87983333Y-65140500D02*
X87916666Y-65173833D01*
X88550000Y-64973833D02*
X88983333Y-64973833D01*
X88983333Y-64973833D02*
X88750000Y-65240500D01*
X88750000Y-65240500D02*
X88850000Y-65240500D01*
X88850000Y-65240500D02*
X88916666Y-65273833D01*
X88916666Y-65273833D02*
X88950000Y-65307166D01*
X88950000Y-65307166D02*
X88983333Y-65373833D01*
X88983333Y-65373833D02*
X88983333Y-65540500D01*
X88983333Y-65540500D02*
X88950000Y-65607166D01*
X88950000Y-65607166D02*
X88916666Y-65640500D01*
X88916666Y-65640500D02*
X88850000Y-65673833D01*
X88850000Y-65673833D02*
X88650000Y-65673833D01*
X88650000Y-65673833D02*
X88583333Y-65640500D01*
X88583333Y-65640500D02*
X88550000Y-65607166D01*
X94032166Y-58900000D02*
X94065500Y-58933333D01*
X94065500Y-58933333D02*
X94098833Y-59033333D01*
X94098833Y-59033333D02*
X94098833Y-59100000D01*
X94098833Y-59100000D02*
X94065500Y-59200000D01*
X94065500Y-59200000D02*
X93998833Y-59266667D01*
X93998833Y-59266667D02*
X93932166Y-59300000D01*
X93932166Y-59300000D02*
X93798833Y-59333333D01*
X93798833Y-59333333D02*
X93698833Y-59333333D01*
X93698833Y-59333333D02*
X93565500Y-59300000D01*
X93565500Y-59300000D02*
X93498833Y-59266667D01*
X93498833Y-59266667D02*
X93432166Y-59200000D01*
X93432166Y-59200000D02*
X93398833Y-59100000D01*
X93398833Y-59100000D02*
X93398833Y-59033333D01*
X93398833Y-59033333D02*
X93432166Y-58933333D01*
X93432166Y-58933333D02*
X93465500Y-58900000D01*
X94098833Y-58233333D02*
X94098833Y-58633333D01*
X94098833Y-58433333D02*
X93398833Y-58433333D01*
X93398833Y-58433333D02*
X93498833Y-58500000D01*
X93498833Y-58500000D02*
X93565500Y-58566667D01*
X93565500Y-58566667D02*
X93598833Y-58633333D01*
X93398833Y-57600000D02*
X93398833Y-57933333D01*
X93398833Y-57933333D02*
X93732166Y-57966666D01*
X93732166Y-57966666D02*
X93698833Y-57933333D01*
X93698833Y-57933333D02*
X93665500Y-57866666D01*
X93665500Y-57866666D02*
X93665500Y-57700000D01*
X93665500Y-57700000D02*
X93698833Y-57633333D01*
X93698833Y-57633333D02*
X93732166Y-57600000D01*
X93732166Y-57600000D02*
X93798833Y-57566666D01*
X93798833Y-57566666D02*
X93965500Y-57566666D01*
X93965500Y-57566666D02*
X94032166Y-57600000D01*
X94032166Y-57600000D02*
X94065500Y-57633333D01*
X94065500Y-57633333D02*
X94098833Y-57700000D01*
X94098833Y-57700000D02*
X94098833Y-57866666D01*
X94098833Y-57866666D02*
X94065500Y-57933333D01*
X94065500Y-57933333D02*
X94032166Y-57966666D01*
X87258333Y-59707166D02*
X87225000Y-59740500D01*
X87225000Y-59740500D02*
X87125000Y-59773833D01*
X87125000Y-59773833D02*
X87058333Y-59773833D01*
X87058333Y-59773833D02*
X86958333Y-59740500D01*
X86958333Y-59740500D02*
X86891667Y-59673833D01*
X86891667Y-59673833D02*
X86858333Y-59607166D01*
X86858333Y-59607166D02*
X86825000Y-59473833D01*
X86825000Y-59473833D02*
X86825000Y-59373833D01*
X86825000Y-59373833D02*
X86858333Y-59240500D01*
X86858333Y-59240500D02*
X86891667Y-59173833D01*
X86891667Y-59173833D02*
X86958333Y-59107166D01*
X86958333Y-59107166D02*
X87058333Y-59073833D01*
X87058333Y-59073833D02*
X87125000Y-59073833D01*
X87125000Y-59073833D02*
X87225000Y-59107166D01*
X87225000Y-59107166D02*
X87258333Y-59140500D01*
X87858333Y-59073833D02*
X87725000Y-59073833D01*
X87725000Y-59073833D02*
X87658333Y-59107166D01*
X87658333Y-59107166D02*
X87625000Y-59140500D01*
X87625000Y-59140500D02*
X87558333Y-59240500D01*
X87558333Y-59240500D02*
X87525000Y-59373833D01*
X87525000Y-59373833D02*
X87525000Y-59640500D01*
X87525000Y-59640500D02*
X87558333Y-59707166D01*
X87558333Y-59707166D02*
X87591667Y-59740500D01*
X87591667Y-59740500D02*
X87658333Y-59773833D01*
X87658333Y-59773833D02*
X87791667Y-59773833D01*
X87791667Y-59773833D02*
X87858333Y-59740500D01*
X87858333Y-59740500D02*
X87891667Y-59707166D01*
X87891667Y-59707166D02*
X87925000Y-59640500D01*
X87925000Y-59640500D02*
X87925000Y-59473833D01*
X87925000Y-59473833D02*
X87891667Y-59407166D01*
X87891667Y-59407166D02*
X87858333Y-59373833D01*
X87858333Y-59373833D02*
X87791667Y-59340500D01*
X87791667Y-59340500D02*
X87658333Y-59340500D01*
X87658333Y-59340500D02*
X87591667Y-59373833D01*
X87591667Y-59373833D02*
X87558333Y-59407166D01*
X87558333Y-59407166D02*
X87525000Y-59473833D01*
X95533333Y-57157166D02*
X95500000Y-57190500D01*
X95500000Y-57190500D02*
X95400000Y-57223833D01*
X95400000Y-57223833D02*
X95333333Y-57223833D01*
X95333333Y-57223833D02*
X95233333Y-57190500D01*
X95233333Y-57190500D02*
X95166667Y-57123833D01*
X95166667Y-57123833D02*
X95133333Y-57057166D01*
X95133333Y-57057166D02*
X95100000Y-56923833D01*
X95100000Y-56923833D02*
X95100000Y-56823833D01*
X95100000Y-56823833D02*
X95133333Y-56690500D01*
X95133333Y-56690500D02*
X95166667Y-56623833D01*
X95166667Y-56623833D02*
X95233333Y-56557166D01*
X95233333Y-56557166D02*
X95333333Y-56523833D01*
X95333333Y-56523833D02*
X95400000Y-56523833D01*
X95400000Y-56523833D02*
X95500000Y-56557166D01*
X95500000Y-56557166D02*
X95533333Y-56590500D01*
X96133333Y-56757166D02*
X96133333Y-57223833D01*
X95966667Y-56490500D02*
X95800000Y-56990500D01*
X95800000Y-56990500D02*
X96233333Y-56990500D01*
X87624999Y-68273833D02*
X87391666Y-67940500D01*
X87224999Y-68273833D02*
X87224999Y-67573833D01*
X87224999Y-67573833D02*
X87491666Y-67573833D01*
X87491666Y-67573833D02*
X87558333Y-67607166D01*
X87558333Y-67607166D02*
X87591666Y-67640500D01*
X87591666Y-67640500D02*
X87624999Y-67707166D01*
X87624999Y-67707166D02*
X87624999Y-67807166D01*
X87624999Y-67807166D02*
X87591666Y-67873833D01*
X87591666Y-67873833D02*
X87558333Y-67907166D01*
X87558333Y-67907166D02*
X87491666Y-67940500D01*
X87491666Y-67940500D02*
X87224999Y-67940500D01*
X88291666Y-68273833D02*
X87891666Y-68273833D01*
X88091666Y-68273833D02*
X88091666Y-67573833D01*
X88091666Y-67573833D02*
X88024999Y-67673833D01*
X88024999Y-67673833D02*
X87958333Y-67740500D01*
X87958333Y-67740500D02*
X87891666Y-67773833D01*
X88891666Y-67807166D02*
X88891666Y-68273833D01*
X88725000Y-67540500D02*
X88558333Y-68040500D01*
X88558333Y-68040500D02*
X88991666Y-68040500D01*
D11*
X99675000Y-60135000D02*
X102600000Y-60135000D01*
X99675000Y-56915000D02*
X101175000Y-56915000D01*
X99675000Y-60135000D02*
X98175000Y-60135000D01*
X99675000Y-56915000D02*
X98175000Y-56915000D01*
X109437500Y-69235000D02*
X111112500Y-69235000D01*
X109437500Y-69235000D02*
X108787500Y-69235000D01*
X109437500Y-66115000D02*
X110087500Y-66115000D01*
X109437500Y-66115000D02*
X108787500Y-66115000D01*
X91590000Y-55257836D02*
X91590000Y-55042164D01*
X92310000Y-55257836D02*
X92310000Y-55042164D01*
X99822500Y-68718503D02*
X99822500Y-69193019D01*
X98777500Y-68718503D02*
X98777500Y-69193019D01*
X91920000Y-59921359D02*
X91920000Y-60228641D01*
X92680000Y-59921359D02*
X92680000Y-60228641D01*
X106242164Y-50790000D02*
X106457836Y-50790000D01*
X106242164Y-51510000D02*
X106457836Y-51510000D01*
X105040000Y-82985000D02*
X107860000Y-82985000D01*
X105040000Y-82985000D02*
X103740000Y-81285000D01*
X107860000Y-82985000D02*
X109160000Y-81285000D01*
X103740000Y-81285000D02*
X103740000Y-72565000D01*
X109160000Y-81285000D02*
X109160000Y-72565000D01*
X103740000Y-72565000D02*
X109160000Y-72565000D01*
X110290000Y-73300000D02*
X110290000Y-74975000D01*
X110290000Y-73300000D02*
X110290000Y-72650000D01*
X113410000Y-73300000D02*
X113410000Y-73950000D01*
X113410000Y-73300000D02*
X113410000Y-72650000D01*
X105400000Y-71935000D02*
X107200000Y-71935000D01*
X105400000Y-71935000D02*
X104600000Y-71935000D01*
X105400000Y-68815000D02*
X106200000Y-68815000D01*
X105400000Y-68815000D02*
X104600000Y-68815000D01*
X100472500Y-54712742D02*
X100472500Y-55187258D01*
X99427500Y-54712742D02*
X99427500Y-55187258D01*
X90928641Y-60005000D02*
X90621359Y-60005000D01*
X90928641Y-59245000D02*
X90621359Y-59245000D01*
X98375000Y-62075000D02*
X98375000Y-61475000D01*
X98925000Y-63275000D02*
X99525000Y-63275000D01*
X99025000Y-60775000D02*
X101825000Y-60775000D01*
X99225000Y-62975000D02*
X98925000Y-63275000D01*
X99225000Y-62975000D02*
X99525000Y-63275000D01*
X101825000Y-62775000D02*
X99025000Y-62775000D01*
X102475000Y-61475000D02*
X102475000Y-62075000D01*
X99075000Y-60775000D02*
G75*
G03*
X98375000Y-61475000I-1J-699999D01*
G01*
X98375000Y-62075000D02*
G75*
G03*
X99075000Y-62775000I699999J-1D01*
G01*
X102475000Y-61475000D02*
G75*
G03*
X101775000Y-60775000I-700000J0D01*
G01*
X101775000Y-62775000D02*
G75*
G03*
X102475000Y-62075000I0J700000D01*
G01*
X92428641Y-51905000D02*
X92121359Y-51905000D01*
X92428641Y-51145000D02*
X92121359Y-51145000D01*
X96440000Y-72503261D02*
X96440000Y-74178261D01*
X96440000Y-72503261D02*
X96440000Y-71853261D01*
X99560000Y-72503261D02*
X99560000Y-73153261D01*
X99560000Y-72503261D02*
X99560000Y-71853261D01*
X90155000Y-54146359D02*
X90155000Y-54453641D01*
X89395000Y-54146359D02*
X89395000Y-54453641D01*
X103010000Y-71909420D02*
X103010000Y-72190580D01*
X101990000Y-71909420D02*
X101990000Y-72190580D01*
X101225000Y-65575000D02*
X101225000Y-66175000D01*
X100525000Y-66875000D02*
X99125000Y-66875000D01*
X99125000Y-64875000D02*
X100525000Y-64875000D01*
X98425000Y-66175000D02*
X98425000Y-65575000D01*
X100525000Y-66875000D02*
G75*
G03*
X101225000Y-66175000I1J699999D01*
G01*
X101225000Y-65575000D02*
G75*
G03*
X100525000Y-64875000I-699999J1D01*
G01*
X98425000Y-66175000D02*
G75*
G03*
X99125000Y-66875000I700000J0D01*
G01*
X99125000Y-64875000D02*
G75*
G03*
X98425000Y-65575000I0J-700000D01*
G01*
X106600000Y-59260000D02*
X110050000Y-59260000D01*
X106600000Y-59260000D02*
X104650000Y-59260000D01*
X106600000Y-54140000D02*
X108550000Y-54140000D01*
X106600000Y-54140000D02*
X104650000Y-54140000D01*
X93485000Y-68517164D02*
X93485000Y-68732836D01*
X92765000Y-68517164D02*
X92765000Y-68732836D01*
X108127500Y-52162258D02*
X108127500Y-51687742D01*
X109172500Y-52162258D02*
X109172500Y-51687742D01*
X90275000Y-58720000D02*
X89275000Y-58720000D01*
X88525000Y-55480000D02*
X90895000Y-55480000D01*
X88075000Y-56600000D02*
X88075000Y-55100000D01*
X88075000Y-55100000D02*
X89275000Y-55100000D01*
X93902500Y-69187258D02*
X93902500Y-68712742D01*
X94947500Y-69187258D02*
X94947500Y-68712742D01*
X107615580Y-60735000D02*
X107334420Y-60735000D01*
X107615580Y-59715000D02*
X107334420Y-59715000D01*
X109337258Y-64747500D02*
X108862742Y-64747500D01*
X109337258Y-63702500D02*
X108862742Y-63702500D01*
X87960000Y-56917164D02*
X87960000Y-57132836D01*
X87240000Y-56917164D02*
X87240000Y-57132836D01*
X111837742Y-75615000D02*
X112312258Y-75615000D01*
X111837742Y-76660000D02*
X112312258Y-76660000D01*
X92347500Y-68712742D02*
X92347500Y-69187258D01*
X91302500Y-68712742D02*
X91302500Y-69187258D01*
X92620000Y-55278641D02*
X92620000Y-54971359D01*
X93380000Y-55278641D02*
X93380000Y-54971359D01*
X113980000Y-54715000D02*
X113980000Y-71015000D01*
X103790000Y-52755000D02*
X103790000Y-50095000D01*
X96110000Y-52755000D02*
X103790000Y-52755000D01*
X96110000Y-52755000D02*
X96110000Y-50095000D01*
X96110000Y-50095000D02*
X103790000Y-50095000D01*
X94840000Y-52755000D02*
X93510000Y-52755000D01*
X93510000Y-52755000D02*
X93510000Y-51425000D01*
X83320000Y-54715000D02*
X83320000Y-71015000D01*
X108935000Y-63250000D02*
X108935000Y-61250000D01*
X108935000Y-63250000D02*
X104925000Y-63250000D01*
X108935000Y-61250000D02*
X104925000Y-61250000D01*
X99887258Y-64347500D02*
X99412742Y-64347500D01*
X99887258Y-63302500D02*
X99412742Y-63302500D01*
X87860000Y-70290000D02*
X87860000Y-72090000D01*
X86260000Y-70290000D02*
X87860000Y-70290000D01*
X87860000Y-76960000D02*
X88800000Y-76960000D01*
X83390000Y-77490000D02*
X83390000Y-71560000D01*
X87860000Y-78760000D02*
X87860000Y-76960000D01*
X86260000Y-78760000D02*
X87860000Y-78760000D01*
X98360000Y-68522925D02*
X98360000Y-68738597D01*
X97640000Y-68522925D02*
X97640000Y-68738597D01*
X92310000Y-56967164D02*
X92310000Y-57182836D01*
X91590000Y-56967164D02*
X91590000Y-57182836D01*
X104234420Y-59715000D02*
X104515580Y-59715000D01*
X104234420Y-60735000D02*
X104515580Y-60735000D01*
X109327500Y-62137258D02*
X109327500Y-61662742D01*
X110372500Y-62137258D02*
X110372500Y-61662742D01*
X88742164Y-59265000D02*
X88957836Y-59265000D01*
X88742164Y-59985000D02*
X88957836Y-59985000D01*
X106587258Y-53222500D02*
X106112742Y-53222500D01*
X106587258Y-52177500D02*
X106112742Y-52177500D01*
X112312258Y-78235000D02*
X111837742Y-78235000D01*
X112312258Y-77190000D02*
X111837742Y-77190000D01*
X91565000Y-72485000D02*
X91565000Y-74160000D01*
X91565000Y-72485000D02*
X91565000Y-71835000D01*
X94685000Y-72485000D02*
X94685000Y-73135000D01*
X94685000Y-72485000D02*
X94685000Y-71835000D01*
X88177500Y-50815000D02*
X88177500Y-52285000D01*
X88177500Y-52285000D02*
X90462500Y-52285000D01*
X90462500Y-50815000D02*
X88177500Y-50815000D01*
X97835000Y-61849420D02*
X97835000Y-62130580D01*
X96815000Y-61849420D02*
X96815000Y-62130580D01*
X97175000Y-56485000D02*
X98850000Y-56485000D01*
X97175000Y-56485000D02*
X96525000Y-56485000D01*
X97175000Y-53365000D02*
X97825000Y-53365000D01*
X97175000Y-53365000D02*
X96525000Y-53365000D01*
X96177500Y-69193019D02*
X96177500Y-68718503D01*
X97222500Y-69193019D02*
X97222500Y-68718503D01*
X88840000Y-76460000D02*
X91190000Y-76460000D01*
X88840000Y-79090000D02*
X88840000Y-76460000D01*
X100010000Y-76460000D02*
X100010000Y-74750000D01*
X102250000Y-83030000D02*
X88950000Y-83030000D01*
X102360000Y-76460000D02*
X100010000Y-76460000D01*
X102360000Y-79090000D02*
X102360000Y-76460000D01*
X96315000Y-63645000D02*
X96315000Y-62145000D01*
X96315000Y-63645000D02*
X96315000Y-65145000D01*
X93095000Y-63645000D02*
X93095000Y-62145000D01*
X93095000Y-63645000D02*
X93095000Y-66520000D01*
X108884420Y-69990000D02*
X109165580Y-69990000D01*
X108884420Y-71010000D02*
X109165580Y-71010000D01*
X88337258Y-67197500D02*
X87862742Y-67197500D01*
X88337258Y-66152500D02*
X87862742Y-66152500D01*
X93907836Y-60210000D02*
X93692164Y-60210000D01*
X93907836Y-59490000D02*
X93692164Y-59490000D01*
G36*
X102493485Y-65618540D02*
G01*
X102551270Y-65675055D01*
X102574765Y-65772845D01*
X102574765Y-65955725D01*
X102261075Y-65955725D01*
X102261075Y-65772845D01*
X102284570Y-65680770D01*
X102342355Y-65623620D01*
X102417920Y-65602030D01*
X102493485Y-65618540D01*
G37*
G36*
X102720180Y-68583990D02*
G01*
X102714147Y-68638283D01*
X102712560Y-68693210D01*
X102715417Y-68748138D01*
X102722720Y-68802430D01*
X102734309Y-68854976D01*
X102750025Y-68904665D01*
X102718275Y-68890695D01*
X102692875Y-68879900D01*
X102656045Y-68864025D01*
X102588735Y-68833545D01*
X102537141Y-68810050D01*
X102471260Y-68780205D01*
X102388234Y-68742105D01*
X102285205Y-68693845D01*
X102391250Y-68645426D01*
X102475705Y-68606850D01*
X102542062Y-68576370D01*
X102593815Y-68552240D01*
X102659855Y-68521125D01*
X102693510Y-68505250D01*
X102715100Y-68495090D01*
X102743675Y-68481755D01*
X102720180Y-68583990D01*
G37*
G36*
X103280038Y-65521385D02*
G01*
X103280038Y-66275765D01*
X103280038Y-67216835D01*
X103280038Y-67900095D01*
X103280038Y-68251885D01*
X103280038Y-69312335D01*
X103280038Y-70141645D01*
X103280038Y-70406228D01*
X101819962Y-70406228D01*
X101819962Y-70141645D01*
X101819962Y-70042585D01*
X102103595Y-70042585D01*
X102122010Y-70114340D01*
X102179795Y-70141645D01*
X102916395Y-70141645D01*
X102974815Y-70118150D01*
X102993865Y-70065445D01*
X102974180Y-70011470D01*
X102916395Y-69986705D01*
X102271235Y-69986705D01*
X102312510Y-69897805D01*
X102377915Y-69827955D01*
X102462370Y-69782235D01*
X102559525Y-69764455D01*
X102614770Y-69740325D01*
X102633185Y-69688255D01*
X102614770Y-69635550D01*
X102559525Y-69610785D01*
X102463005Y-69593005D01*
X102379185Y-69547285D01*
X102313145Y-69478070D01*
X102271235Y-69388535D01*
X102916395Y-69388535D01*
X102974815Y-69365040D01*
X102993865Y-69312335D01*
X102974180Y-69258360D01*
X102916395Y-69233595D01*
X102179795Y-69233595D01*
X102126455Y-69255185D01*
X102104865Y-69308525D01*
X102108834Y-69373613D01*
X102120740Y-69431715D01*
X102160110Y-69527600D01*
X102209640Y-69598720D01*
X102257900Y-69648250D01*
X102293460Y-69678095D01*
X102302985Y-69690795D01*
X102259487Y-69725561D01*
X102220435Y-69766360D01*
X102186304Y-69811286D01*
X102157570Y-69858435D01*
X102117565Y-69954955D01*
X102103595Y-70042585D01*
X101819962Y-70042585D01*
X101819962Y-68709720D01*
X102104230Y-68709720D01*
X102122645Y-68762425D01*
X102137250Y-68782110D01*
X102167095Y-68803700D01*
X102236945Y-68839895D01*
X102294412Y-68867200D01*
X102372835Y-68903395D01*
X102437605Y-68933028D01*
X102513382Y-68967742D01*
X102600165Y-69007535D01*
X102673508Y-69041269D01*
X102755105Y-69078973D01*
X102844958Y-69120644D01*
X102943065Y-69166285D01*
X102977990Y-69162475D01*
X102995135Y-69131995D01*
X102995135Y-69065955D01*
X102993230Y-69029125D01*
X102987515Y-69011345D01*
X102977355Y-69002455D01*
X102923380Y-68939114D01*
X102883375Y-68863390D01*
X102858134Y-68780364D01*
X102848450Y-68695115D01*
X102854800Y-68609866D01*
X102877660Y-68526840D01*
X102918141Y-68451116D01*
X102977355Y-68387775D01*
X102987515Y-68375710D01*
X102993230Y-68357295D01*
X102995135Y-68320465D01*
X102995135Y-68251885D01*
X102977990Y-68224580D01*
X102943065Y-68225215D01*
X102906870Y-68239820D01*
X102819875Y-68278555D01*
X102762884Y-68304431D01*
X102698590Y-68333800D01*
X102630010Y-68365233D01*
X102560160Y-68397300D01*
X102490310Y-68429368D01*
X102421730Y-68460800D01*
X102357595Y-68490169D01*
X102301080Y-68516045D01*
X102215355Y-68554780D01*
X102181065Y-68569385D01*
X102134710Y-68605580D01*
X102108675Y-68654475D01*
X102104230Y-68709720D01*
X101819962Y-68709720D01*
X101819962Y-67906445D01*
X102084545Y-67906445D01*
X102093911Y-67982327D01*
X102122010Y-68044875D01*
X102163920Y-68093929D01*
X102214720Y-68129330D01*
X102272505Y-68150920D01*
X102335370Y-68158540D01*
X102398235Y-68151873D01*
X102456020Y-68130600D01*
X102506820Y-68094723D01*
X102548730Y-68044240D01*
X102576829Y-67978676D01*
X102586195Y-67897555D01*
X102606515Y-67820720D01*
X102657950Y-67773730D01*
X102724625Y-67757855D01*
X102791300Y-67773095D01*
X102842735Y-67819450D01*
X102863055Y-67897555D01*
X102838290Y-67979470D01*
X102774155Y-68030905D01*
X102736690Y-68059480D01*
X102724625Y-68099485D01*
X102732880Y-68135680D01*
X102755105Y-68164890D01*
X102789395Y-68180765D01*
X102832575Y-68174415D01*
X102913855Y-68126155D01*
X102971005Y-68060750D01*
X103004660Y-67983280D01*
X103015455Y-67900095D01*
X102998945Y-67799130D01*
X102950050Y-67708325D01*
X102914014Y-67670860D01*
X102870675Y-67639745D01*
X102819875Y-67616885D01*
X102761455Y-67604185D01*
X102700495Y-67602280D01*
X102642075Y-67611805D01*
X102588259Y-67632760D01*
X102541110Y-67665145D01*
X102501740Y-67708801D01*
X102471260Y-67763570D01*
X102451734Y-67829451D01*
X102445225Y-67906445D01*
X102412840Y-67976295D01*
X102341085Y-68003600D01*
X102269330Y-67982010D01*
X102236945Y-67906445D01*
X102251550Y-67853740D01*
X102284570Y-67823895D01*
X102317590Y-67797860D01*
X102332195Y-67755315D01*
X102313780Y-67689910D01*
X102268060Y-67668955D01*
X102208370Y-67686735D01*
X102148680Y-67736265D01*
X102102960Y-67811830D01*
X102084545Y-67906445D01*
X101819962Y-67906445D01*
X101819962Y-67483535D01*
X102106135Y-67483535D01*
X102130265Y-67541955D01*
X102183605Y-67561005D01*
X102236945Y-67541320D01*
X102261075Y-67483535D01*
X102261075Y-67294305D01*
X102917665Y-67294305D01*
X102975450Y-67270175D01*
X102995135Y-67216835D01*
X102975450Y-67163495D01*
X102917665Y-67139365D01*
X102261075Y-67139365D01*
X102261075Y-66950135D01*
X102236945Y-66891715D01*
X102183605Y-66873300D01*
X102130265Y-66892985D01*
X102106135Y-66950135D01*
X102106135Y-67483535D01*
X101819962Y-67483535D01*
X101819962Y-66734235D01*
X102106135Y-66734235D01*
X102127725Y-66787575D01*
X102181065Y-66809165D01*
X102920205Y-66809165D01*
X102972910Y-66787575D01*
X102995135Y-66734235D01*
X102995135Y-66275765D01*
X102971005Y-66218615D01*
X102917665Y-66199565D01*
X102864325Y-66218615D01*
X102840195Y-66275765D01*
X102840195Y-66654225D01*
X102631915Y-66654225D01*
X102631915Y-66353235D01*
X102607785Y-66296085D01*
X102555080Y-66277035D01*
X102502375Y-66296085D01*
X102478245Y-66353235D01*
X102478245Y-66654225D01*
X102261075Y-66654225D01*
X102261075Y-66275765D01*
X102236945Y-66218615D01*
X102183605Y-66199565D01*
X102130265Y-66218615D01*
X102106135Y-66275765D01*
X102106135Y-66734235D01*
X101819962Y-66734235D01*
X101819962Y-66035735D01*
X102106135Y-66035735D01*
X102127725Y-66089075D01*
X102181065Y-66110665D01*
X102917665Y-66110665D01*
X102974180Y-66086535D01*
X102995135Y-66031925D01*
X102972275Y-65977315D01*
X102949415Y-65961440D01*
X102913855Y-65955725D01*
X102847180Y-65955090D01*
X102796539Y-65955566D01*
X102729705Y-65955725D01*
X102729705Y-65935405D01*
X102790824Y-65900004D01*
X102844640Y-65854760D01*
X102890677Y-65802531D01*
X102928460Y-65746175D01*
X102958146Y-65687596D01*
X102979895Y-65628700D01*
X102993230Y-65572344D01*
X102997675Y-65521385D01*
X102978625Y-65440105D01*
X102920205Y-65408355D01*
X102873215Y-65424230D01*
X102852895Y-65466140D01*
X102844005Y-65526465D01*
X102831305Y-65596950D01*
X102797650Y-65669340D01*
X102728435Y-65736015D01*
X102717481Y-65677119D01*
X102697320Y-65622350D01*
X102668745Y-65572979D01*
X102632550Y-65530275D01*
X102589211Y-65495191D01*
X102539205Y-65468680D01*
X102483960Y-65452011D01*
X102424905Y-65446455D01*
X102360770Y-65452964D01*
X102300445Y-65472490D01*
X102245835Y-65503129D01*
X102198845Y-65542975D01*
X102160269Y-65591235D01*
X102130900Y-65647115D01*
X102112326Y-65708392D01*
X102106135Y-65772845D01*
X102106135Y-66035735D01*
X101819962Y-66035735D01*
X101819962Y-65408355D01*
X101819962Y-65143772D01*
X103280038Y-65143772D01*
X103280038Y-65408355D01*
X103280038Y-65521385D01*
G37*
X87482836Y-58810000D02*
X87267164Y-58810000D01*
X87482836Y-58090000D02*
X87267164Y-58090000D01*
X95140000Y-58940580D02*
X95140000Y-58659420D01*
X96160000Y-58940580D02*
X96160000Y-58659420D01*
X88312258Y-69697500D02*
X87837742Y-69697500D01*
X88312258Y-68652500D02*
X87837742Y-68652500D01*
%LPC*%
D13*
X101875000Y-59525000D03*
X101875000Y-59025000D03*
X101875000Y-58525000D03*
X101875000Y-58025000D03*
X101875000Y-57525000D03*
X97475000Y-57525000D03*
X97475000Y-58025000D03*
X97475000Y-58525000D03*
X97475000Y-59025000D03*
X97475000Y-59525000D03*
D14*
X110375000Y-68625000D03*
X110375000Y-66725000D03*
X108500000Y-67675000D03*
D15*
X91950000Y-55630000D03*
X91950000Y-54670000D03*
D16*
X99300000Y-68130761D03*
X99300000Y-69780761D03*
D17*
X92300000Y-60585000D03*
X92300000Y-59565000D03*
D18*
X105870000Y-51150000D03*
X106830000Y-51150000D03*
D19*
X106450000Y-80275000D03*
D20*
X106450000Y-75275000D03*
D21*
X110900000Y-74237500D03*
X112800000Y-74237500D03*
X111850000Y-72362500D03*
D22*
X106537500Y-71325000D03*
X106537500Y-70375000D03*
X106537500Y-69425000D03*
X104262500Y-69425000D03*
X104262500Y-71325000D03*
D16*
X99950000Y-54125000D03*
X99950000Y-55775000D03*
D23*
X91285000Y-59625000D03*
X90265000Y-59625000D03*
D24*
X99125000Y-61775000D03*
D25*
X100425000Y-61775000D03*
D26*
X101725000Y-61775000D03*
D23*
X92785000Y-51525000D03*
X91765000Y-51525000D03*
D21*
X97050000Y-73440761D03*
X98950000Y-73440761D03*
X98000000Y-71565761D03*
D17*
X89775000Y-53790000D03*
X89775000Y-54810000D03*
D27*
X102500000Y-71275000D03*
X102500000Y-72825000D03*
D28*
X100475000Y-65875000D03*
D29*
X99175000Y-65875000D03*
D30*
X109075000Y-58605000D03*
X109075000Y-57335000D03*
X109075000Y-56065000D03*
X109075000Y-54795000D03*
X104125000Y-54795000D03*
X104125000Y-56065000D03*
X104125000Y-57335000D03*
X104125000Y-58605000D03*
D31*
X93125000Y-68145000D03*
X93125000Y-69105000D03*
D32*
X108650000Y-52750000D03*
X108650000Y-51100000D03*
D33*
X89775000Y-57100000D03*
D34*
X90725000Y-55850000D03*
X90725000Y-56350000D03*
X90725000Y-56850000D03*
X90725000Y-57350000D03*
X90725000Y-57850000D03*
X90725000Y-58350000D03*
X88825000Y-58350000D03*
X88825000Y-57850000D03*
X88825000Y-57350000D03*
X88825000Y-56850000D03*
X88825000Y-56350000D03*
X88825000Y-55850000D03*
D32*
X94425000Y-69775000D03*
X94425000Y-68125000D03*
D35*
X112000000Y-81225000D03*
D36*
X108250000Y-60225000D03*
X106700000Y-60225000D03*
D37*
X109925000Y-64225000D03*
X108275000Y-64225000D03*
D35*
X85300000Y-52075000D03*
D31*
X87600000Y-56545000D03*
X87600000Y-57505000D03*
D38*
X111250000Y-76137500D03*
X112900000Y-76137500D03*
D16*
X91825000Y-68125000D03*
X91825000Y-69775000D03*
D39*
X93000000Y-55635000D03*
X93000000Y-54615000D03*
D40*
X102460000Y-51425000D03*
X99920000Y-51425000D03*
D41*
X112650000Y-56505000D03*
X112650000Y-59045000D03*
X112650000Y-61585000D03*
X112650000Y-64125000D03*
X112650000Y-66665000D03*
X112650000Y-69205000D03*
X84650000Y-69205000D03*
X84650000Y-66665000D03*
X84650000Y-64125000D03*
X84650000Y-61585000D03*
X84650000Y-59045000D03*
X84650000Y-56505000D03*
D40*
X97380000Y-51425000D03*
D42*
X94840000Y-51425000D03*
D35*
X105150000Y-65887500D03*
D43*
X108225000Y-62250000D03*
X104925000Y-62250000D03*
D37*
X100475000Y-63825000D03*
X98825000Y-63825000D03*
D35*
X85300000Y-81225000D03*
D44*
X84800000Y-70800000D03*
X84800000Y-78250000D03*
D45*
X87950000Y-72650000D03*
X87950000Y-73900000D03*
X87950000Y-75150000D03*
X87950000Y-76400000D03*
D31*
X98000000Y-68150761D03*
X98000000Y-69110761D03*
X91950000Y-56595000D03*
X91950000Y-57555000D03*
D46*
X103600000Y-60225000D03*
X105150000Y-60225000D03*
D32*
X109850000Y-62725000D03*
X109850000Y-61075000D03*
D35*
X112000000Y-52075000D03*
D18*
X88370000Y-59625000D03*
X89330000Y-59625000D03*
D37*
X107175000Y-52700000D03*
X105525000Y-52700000D03*
X112900000Y-77712500D03*
X111250000Y-77712500D03*
D21*
X92175000Y-73422500D03*
X94075000Y-73422500D03*
X93125000Y-71547500D03*
D47*
X88875000Y-51550000D03*
X90450000Y-51550000D03*
D27*
X97325000Y-61215000D03*
X97325000Y-62765000D03*
D14*
X98112500Y-55875000D03*
X98112500Y-53975000D03*
X96237500Y-54925000D03*
D32*
X96700000Y-69780761D03*
X96700000Y-68130761D03*
D48*
X89250000Y-81000000D03*
X101950000Y-81000000D03*
D49*
X91850000Y-75950000D03*
X93350000Y-75950000D03*
X94850000Y-75950000D03*
X96350000Y-75950000D03*
X97850000Y-75950000D03*
X99350000Y-75950000D03*
D50*
X94705000Y-63645000D03*
D51*
X93705000Y-61495000D03*
X94205000Y-61495000D03*
X94705000Y-61495000D03*
X95205000Y-61495000D03*
X95705000Y-61495000D03*
X95705000Y-65795000D03*
X95205000Y-65795000D03*
X94705000Y-65795000D03*
X94205000Y-65795000D03*
X93705000Y-65795000D03*
D46*
X108250000Y-70500000D03*
X109800000Y-70500000D03*
D37*
X88925000Y-66675000D03*
X87275000Y-66675000D03*
D52*
X94280000Y-59850000D03*
X93320000Y-59850000D03*
X87855000Y-58450000D03*
X86895000Y-58450000D03*
D53*
X95650000Y-59575000D03*
X95650000Y-58025000D03*
D37*
X88900000Y-69175000D03*
X87250000Y-69175000D03*
M02*
