%TF.GenerationSoftware,KiCad,Pcbnew,7.0.1*%
%TF.CreationDate,2023-08-13T10:26:00+02:00*%
%TF.ProjectId,voltmeter,766f6c74-6d65-4746-9572-2e6b69636164,3*%
%TF.SameCoordinates,Original*%
%TF.FileFunction,Drillmap*%
%TF.FilePolarity,Positive*%
%FSLAX45Y45*%
G04 Gerber Fmt 4.5, Leading zero omitted, Abs format (unit mm)*
G04 Created by KiCad (PCBNEW 7.0.1) date 2023-08-13 10:26:00*
%MOMM*%
%LPD*%
G01*
G04 APERTURE LIST*
%ADD10C,0.100000*%
%ADD11C,0.200000*%
%ADD12C,0.220000*%
G04 APERTURE END LIST*
D10*
X8330000Y-8122500D02*
X8330000Y-5207500D01*
X11200000Y-8322500D02*
X8530000Y-8322500D01*
X11400000Y-5207500D02*
X11400000Y-8122500D01*
X8530000Y-5007500D02*
G75*
G03*
X8330000Y-5207500I0J-200000D01*
G01*
X8530000Y-5007500D02*
X11200000Y-5007500D01*
X8330000Y-8122500D02*
G75*
G03*
X8530000Y-8322500I200000J0D01*
G01*
X11200000Y-8322500D02*
G75*
G03*
X11400000Y-8122500I0J200000D01*
G01*
X11400000Y-5207500D02*
G75*
G03*
X11200000Y-5007500I-200000J0D01*
G01*
D11*
D12*
X8420000Y-5097500D02*
X8640000Y-5317500D01*
X8640000Y-5097500D02*
X8420000Y-5317500D01*
X8420000Y-8012500D02*
X8640000Y-8232500D01*
X8640000Y-8012500D02*
X8420000Y-8232500D01*
X10405000Y-6478750D02*
X10625000Y-6698750D01*
X10625000Y-6478750D02*
X10405000Y-6698750D01*
X11090000Y-5097500D02*
X11310000Y-5317500D01*
X11310000Y-5097500D02*
X11090000Y-5317500D01*
X11090000Y-8012500D02*
X11310000Y-8232500D01*
X11310000Y-8012500D02*
X11090000Y-8232500D01*
D11*
X8572619Y-8640024D02*
X8572619Y-8440024D01*
X8572619Y-8440024D02*
X8620238Y-8440024D01*
X8620238Y-8440024D02*
X8648810Y-8449548D01*
X8648810Y-8449548D02*
X8667857Y-8468595D01*
X8667857Y-8468595D02*
X8677381Y-8487643D01*
X8677381Y-8487643D02*
X8686905Y-8525738D01*
X8686905Y-8525738D02*
X8686905Y-8554310D01*
X8686905Y-8554310D02*
X8677381Y-8592405D01*
X8677381Y-8592405D02*
X8667857Y-8611452D01*
X8667857Y-8611452D02*
X8648810Y-8630500D01*
X8648810Y-8630500D02*
X8620238Y-8640024D01*
X8620238Y-8640024D02*
X8572619Y-8640024D01*
X8772619Y-8640024D02*
X8772619Y-8506690D01*
X8772619Y-8544786D02*
X8782143Y-8525738D01*
X8782143Y-8525738D02*
X8791667Y-8516214D01*
X8791667Y-8516214D02*
X8810714Y-8506690D01*
X8810714Y-8506690D02*
X8829762Y-8506690D01*
X8896429Y-8640024D02*
X8896429Y-8506690D01*
X8896429Y-8440024D02*
X8886905Y-8449548D01*
X8886905Y-8449548D02*
X8896429Y-8459071D01*
X8896429Y-8459071D02*
X8905952Y-8449548D01*
X8905952Y-8449548D02*
X8896429Y-8440024D01*
X8896429Y-8440024D02*
X8896429Y-8459071D01*
X9020238Y-8640024D02*
X9001190Y-8630500D01*
X9001190Y-8630500D02*
X8991667Y-8611452D01*
X8991667Y-8611452D02*
X8991667Y-8440024D01*
X9125000Y-8640024D02*
X9105952Y-8630500D01*
X9105952Y-8630500D02*
X9096429Y-8611452D01*
X9096429Y-8611452D02*
X9096429Y-8440024D01*
X9353571Y-8640024D02*
X9353571Y-8440024D01*
X9353571Y-8440024D02*
X9420238Y-8582881D01*
X9420238Y-8582881D02*
X9486905Y-8440024D01*
X9486905Y-8440024D02*
X9486905Y-8640024D01*
X9667857Y-8640024D02*
X9667857Y-8535262D01*
X9667857Y-8535262D02*
X9658333Y-8516214D01*
X9658333Y-8516214D02*
X9639286Y-8506690D01*
X9639286Y-8506690D02*
X9601190Y-8506690D01*
X9601190Y-8506690D02*
X9582143Y-8516214D01*
X9667857Y-8630500D02*
X9648810Y-8640024D01*
X9648810Y-8640024D02*
X9601190Y-8640024D01*
X9601190Y-8640024D02*
X9582143Y-8630500D01*
X9582143Y-8630500D02*
X9572619Y-8611452D01*
X9572619Y-8611452D02*
X9572619Y-8592405D01*
X9572619Y-8592405D02*
X9582143Y-8573357D01*
X9582143Y-8573357D02*
X9601190Y-8563833D01*
X9601190Y-8563833D02*
X9648810Y-8563833D01*
X9648810Y-8563833D02*
X9667857Y-8554310D01*
X9763095Y-8506690D02*
X9763095Y-8706690D01*
X9763095Y-8516214D02*
X9782143Y-8506690D01*
X9782143Y-8506690D02*
X9820238Y-8506690D01*
X9820238Y-8506690D02*
X9839286Y-8516214D01*
X9839286Y-8516214D02*
X9848810Y-8525738D01*
X9848810Y-8525738D02*
X9858333Y-8544786D01*
X9858333Y-8544786D02*
X9858333Y-8601929D01*
X9858333Y-8601929D02*
X9848810Y-8620976D01*
X9848810Y-8620976D02*
X9839286Y-8630500D01*
X9839286Y-8630500D02*
X9820238Y-8640024D01*
X9820238Y-8640024D02*
X9782143Y-8640024D01*
X9782143Y-8640024D02*
X9763095Y-8630500D01*
X9944048Y-8620976D02*
X9953571Y-8630500D01*
X9953571Y-8630500D02*
X9944048Y-8640024D01*
X9944048Y-8640024D02*
X9934524Y-8630500D01*
X9934524Y-8630500D02*
X9944048Y-8620976D01*
X9944048Y-8620976D02*
X9944048Y-8640024D01*
X9944048Y-8516214D02*
X9953571Y-8525738D01*
X9953571Y-8525738D02*
X9944048Y-8535262D01*
X9944048Y-8535262D02*
X9934524Y-8525738D01*
X9934524Y-8525738D02*
X9944048Y-8516214D01*
X9944048Y-8516214D02*
X9944048Y-8535262D01*
X8125000Y-8867500D02*
X8325000Y-9067500D01*
X8325000Y-8867500D02*
X8125000Y-9067500D01*
X8563095Y-8879071D02*
X8572619Y-8869548D01*
X8572619Y-8869548D02*
X8591667Y-8860024D01*
X8591667Y-8860024D02*
X8639286Y-8860024D01*
X8639286Y-8860024D02*
X8658333Y-8869548D01*
X8658333Y-8869548D02*
X8667857Y-8879071D01*
X8667857Y-8879071D02*
X8677381Y-8898119D01*
X8677381Y-8898119D02*
X8677381Y-8917167D01*
X8677381Y-8917167D02*
X8667857Y-8945738D01*
X8667857Y-8945738D02*
X8553571Y-9060024D01*
X8553571Y-9060024D02*
X8677381Y-9060024D01*
X8763095Y-9040976D02*
X8772619Y-9050500D01*
X8772619Y-9050500D02*
X8763095Y-9060024D01*
X8763095Y-9060024D02*
X8753571Y-9050500D01*
X8753571Y-9050500D02*
X8763095Y-9040976D01*
X8763095Y-9040976D02*
X8763095Y-9060024D01*
X8848810Y-8879071D02*
X8858333Y-8869548D01*
X8858333Y-8869548D02*
X8877381Y-8860024D01*
X8877381Y-8860024D02*
X8925000Y-8860024D01*
X8925000Y-8860024D02*
X8944048Y-8869548D01*
X8944048Y-8869548D02*
X8953571Y-8879071D01*
X8953571Y-8879071D02*
X8963095Y-8898119D01*
X8963095Y-8898119D02*
X8963095Y-8917167D01*
X8963095Y-8917167D02*
X8953571Y-8945738D01*
X8953571Y-8945738D02*
X8839286Y-9060024D01*
X8839286Y-9060024D02*
X8963095Y-9060024D01*
X9086905Y-8860024D02*
X9105952Y-8860024D01*
X9105952Y-8860024D02*
X9125000Y-8869548D01*
X9125000Y-8869548D02*
X9134524Y-8879071D01*
X9134524Y-8879071D02*
X9144048Y-8898119D01*
X9144048Y-8898119D02*
X9153571Y-8936214D01*
X9153571Y-8936214D02*
X9153571Y-8983833D01*
X9153571Y-8983833D02*
X9144048Y-9021929D01*
X9144048Y-9021929D02*
X9134524Y-9040976D01*
X9134524Y-9040976D02*
X9125000Y-9050500D01*
X9125000Y-9050500D02*
X9105952Y-9060024D01*
X9105952Y-9060024D02*
X9086905Y-9060024D01*
X9086905Y-9060024D02*
X9067857Y-9050500D01*
X9067857Y-9050500D02*
X9058333Y-9040976D01*
X9058333Y-9040976D02*
X9048810Y-9021929D01*
X9048810Y-9021929D02*
X9039286Y-8983833D01*
X9039286Y-8983833D02*
X9039286Y-8936214D01*
X9039286Y-8936214D02*
X9048810Y-8898119D01*
X9048810Y-8898119D02*
X9058333Y-8879071D01*
X9058333Y-8879071D02*
X9067857Y-8869548D01*
X9067857Y-8869548D02*
X9086905Y-8860024D01*
X9277381Y-8860024D02*
X9296429Y-8860024D01*
X9296429Y-8860024D02*
X9315476Y-8869548D01*
X9315476Y-8869548D02*
X9325000Y-8879071D01*
X9325000Y-8879071D02*
X9334524Y-8898119D01*
X9334524Y-8898119D02*
X9344048Y-8936214D01*
X9344048Y-8936214D02*
X9344048Y-8983833D01*
X9344048Y-8983833D02*
X9334524Y-9021929D01*
X9334524Y-9021929D02*
X9325000Y-9040976D01*
X9325000Y-9040976D02*
X9315476Y-9050500D01*
X9315476Y-9050500D02*
X9296429Y-9060024D01*
X9296429Y-9060024D02*
X9277381Y-9060024D01*
X9277381Y-9060024D02*
X9258333Y-9050500D01*
X9258333Y-9050500D02*
X9248810Y-9040976D01*
X9248810Y-9040976D02*
X9239286Y-9021929D01*
X9239286Y-9021929D02*
X9229762Y-8983833D01*
X9229762Y-8983833D02*
X9229762Y-8936214D01*
X9229762Y-8936214D02*
X9239286Y-8898119D01*
X9239286Y-8898119D02*
X9248810Y-8879071D01*
X9248810Y-8879071D02*
X9258333Y-8869548D01*
X9258333Y-8869548D02*
X9277381Y-8860024D01*
X9429762Y-9060024D02*
X9429762Y-8926690D01*
X9429762Y-8945738D02*
X9439286Y-8936214D01*
X9439286Y-8936214D02*
X9458333Y-8926690D01*
X9458333Y-8926690D02*
X9486905Y-8926690D01*
X9486905Y-8926690D02*
X9505952Y-8936214D01*
X9505952Y-8936214D02*
X9515476Y-8955262D01*
X9515476Y-8955262D02*
X9515476Y-9060024D01*
X9515476Y-8955262D02*
X9525000Y-8936214D01*
X9525000Y-8936214D02*
X9544048Y-8926690D01*
X9544048Y-8926690D02*
X9572619Y-8926690D01*
X9572619Y-8926690D02*
X9591667Y-8936214D01*
X9591667Y-8936214D02*
X9601191Y-8955262D01*
X9601191Y-8955262D02*
X9601191Y-9060024D01*
X9696429Y-9060024D02*
X9696429Y-8926690D01*
X9696429Y-8945738D02*
X9705952Y-8936214D01*
X9705952Y-8936214D02*
X9725000Y-8926690D01*
X9725000Y-8926690D02*
X9753572Y-8926690D01*
X9753572Y-8926690D02*
X9772619Y-8936214D01*
X9772619Y-8936214D02*
X9782143Y-8955262D01*
X9782143Y-8955262D02*
X9782143Y-9060024D01*
X9782143Y-8955262D02*
X9791667Y-8936214D01*
X9791667Y-8936214D02*
X9810714Y-8926690D01*
X9810714Y-8926690D02*
X9839286Y-8926690D01*
X9839286Y-8926690D02*
X9858333Y-8936214D01*
X9858333Y-8936214D02*
X9867857Y-8955262D01*
X9867857Y-8955262D02*
X9867857Y-9060024D01*
X10258333Y-8850500D02*
X10086905Y-9107643D01*
X10515476Y-8860024D02*
X10534524Y-8860024D01*
X10534524Y-8860024D02*
X10553572Y-8869548D01*
X10553572Y-8869548D02*
X10563095Y-8879071D01*
X10563095Y-8879071D02*
X10572619Y-8898119D01*
X10572619Y-8898119D02*
X10582143Y-8936214D01*
X10582143Y-8936214D02*
X10582143Y-8983833D01*
X10582143Y-8983833D02*
X10572619Y-9021929D01*
X10572619Y-9021929D02*
X10563095Y-9040976D01*
X10563095Y-9040976D02*
X10553572Y-9050500D01*
X10553572Y-9050500D02*
X10534524Y-9060024D01*
X10534524Y-9060024D02*
X10515476Y-9060024D01*
X10515476Y-9060024D02*
X10496429Y-9050500D01*
X10496429Y-9050500D02*
X10486905Y-9040976D01*
X10486905Y-9040976D02*
X10477381Y-9021929D01*
X10477381Y-9021929D02*
X10467857Y-8983833D01*
X10467857Y-8983833D02*
X10467857Y-8936214D01*
X10467857Y-8936214D02*
X10477381Y-8898119D01*
X10477381Y-8898119D02*
X10486905Y-8879071D01*
X10486905Y-8879071D02*
X10496429Y-8869548D01*
X10496429Y-8869548D02*
X10515476Y-8860024D01*
X10667857Y-9040976D02*
X10677381Y-9050500D01*
X10677381Y-9050500D02*
X10667857Y-9060024D01*
X10667857Y-9060024D02*
X10658334Y-9050500D01*
X10658334Y-9050500D02*
X10667857Y-9040976D01*
X10667857Y-9040976D02*
X10667857Y-9060024D01*
X10801191Y-8860024D02*
X10820238Y-8860024D01*
X10820238Y-8860024D02*
X10839286Y-8869548D01*
X10839286Y-8869548D02*
X10848810Y-8879071D01*
X10848810Y-8879071D02*
X10858334Y-8898119D01*
X10858334Y-8898119D02*
X10867857Y-8936214D01*
X10867857Y-8936214D02*
X10867857Y-8983833D01*
X10867857Y-8983833D02*
X10858334Y-9021929D01*
X10858334Y-9021929D02*
X10848810Y-9040976D01*
X10848810Y-9040976D02*
X10839286Y-9050500D01*
X10839286Y-9050500D02*
X10820238Y-9060024D01*
X10820238Y-9060024D02*
X10801191Y-9060024D01*
X10801191Y-9060024D02*
X10782143Y-9050500D01*
X10782143Y-9050500D02*
X10772619Y-9040976D01*
X10772619Y-9040976D02*
X10763095Y-9021929D01*
X10763095Y-9021929D02*
X10753572Y-8983833D01*
X10753572Y-8983833D02*
X10753572Y-8936214D01*
X10753572Y-8936214D02*
X10763095Y-8898119D01*
X10763095Y-8898119D02*
X10772619Y-8879071D01*
X10772619Y-8879071D02*
X10782143Y-8869548D01*
X10782143Y-8869548D02*
X10801191Y-8860024D01*
X10982143Y-8945738D02*
X10963095Y-8936214D01*
X10963095Y-8936214D02*
X10953572Y-8926690D01*
X10953572Y-8926690D02*
X10944048Y-8907643D01*
X10944048Y-8907643D02*
X10944048Y-8898119D01*
X10944048Y-8898119D02*
X10953572Y-8879071D01*
X10953572Y-8879071D02*
X10963095Y-8869548D01*
X10963095Y-8869548D02*
X10982143Y-8860024D01*
X10982143Y-8860024D02*
X11020238Y-8860024D01*
X11020238Y-8860024D02*
X11039286Y-8869548D01*
X11039286Y-8869548D02*
X11048810Y-8879071D01*
X11048810Y-8879071D02*
X11058334Y-8898119D01*
X11058334Y-8898119D02*
X11058334Y-8907643D01*
X11058334Y-8907643D02*
X11048810Y-8926690D01*
X11048810Y-8926690D02*
X11039286Y-8936214D01*
X11039286Y-8936214D02*
X11020238Y-8945738D01*
X11020238Y-8945738D02*
X10982143Y-8945738D01*
X10982143Y-8945738D02*
X10963095Y-8955262D01*
X10963095Y-8955262D02*
X10953572Y-8964786D01*
X10953572Y-8964786D02*
X10944048Y-8983833D01*
X10944048Y-8983833D02*
X10944048Y-9021929D01*
X10944048Y-9021929D02*
X10953572Y-9040976D01*
X10953572Y-9040976D02*
X10963095Y-9050500D01*
X10963095Y-9050500D02*
X10982143Y-9060024D01*
X10982143Y-9060024D02*
X11020238Y-9060024D01*
X11020238Y-9060024D02*
X11039286Y-9050500D01*
X11039286Y-9050500D02*
X11048810Y-9040976D01*
X11048810Y-9040976D02*
X11058334Y-9021929D01*
X11058334Y-9021929D02*
X11058334Y-8983833D01*
X11058334Y-8983833D02*
X11048810Y-8964786D01*
X11048810Y-8964786D02*
X11039286Y-8955262D01*
X11039286Y-8955262D02*
X11020238Y-8945738D01*
X11229762Y-8860024D02*
X11191667Y-8860024D01*
X11191667Y-8860024D02*
X11172619Y-8869548D01*
X11172619Y-8869548D02*
X11163095Y-8879071D01*
X11163095Y-8879071D02*
X11144048Y-8907643D01*
X11144048Y-8907643D02*
X11134524Y-8945738D01*
X11134524Y-8945738D02*
X11134524Y-9021929D01*
X11134524Y-9021929D02*
X11144048Y-9040976D01*
X11144048Y-9040976D02*
X11153572Y-9050500D01*
X11153572Y-9050500D02*
X11172619Y-9060024D01*
X11172619Y-9060024D02*
X11210714Y-9060024D01*
X11210714Y-9060024D02*
X11229762Y-9050500D01*
X11229762Y-9050500D02*
X11239286Y-9040976D01*
X11239286Y-9040976D02*
X11248810Y-9021929D01*
X11248810Y-9021929D02*
X11248810Y-8974310D01*
X11248810Y-8974310D02*
X11239286Y-8955262D01*
X11239286Y-8955262D02*
X11229762Y-8945738D01*
X11229762Y-8945738D02*
X11210714Y-8936214D01*
X11210714Y-8936214D02*
X11172619Y-8936214D01*
X11172619Y-8936214D02*
X11153572Y-8945738D01*
X11153572Y-8945738D02*
X11144048Y-8955262D01*
X11144048Y-8955262D02*
X11134524Y-8974310D01*
X11420238Y-8860024D02*
X11382143Y-8860024D01*
X11382143Y-8860024D02*
X11363095Y-8869548D01*
X11363095Y-8869548D02*
X11353572Y-8879071D01*
X11353572Y-8879071D02*
X11334524Y-8907643D01*
X11334524Y-8907643D02*
X11325000Y-8945738D01*
X11325000Y-8945738D02*
X11325000Y-9021929D01*
X11325000Y-9021929D02*
X11334524Y-9040976D01*
X11334524Y-9040976D02*
X11344048Y-9050500D01*
X11344048Y-9050500D02*
X11363095Y-9060024D01*
X11363095Y-9060024D02*
X11401191Y-9060024D01*
X11401191Y-9060024D02*
X11420238Y-9050500D01*
X11420238Y-9050500D02*
X11429762Y-9040976D01*
X11429762Y-9040976D02*
X11439286Y-9021929D01*
X11439286Y-9021929D02*
X11439286Y-8974310D01*
X11439286Y-8974310D02*
X11429762Y-8955262D01*
X11429762Y-8955262D02*
X11420238Y-8945738D01*
X11420238Y-8945738D02*
X11401191Y-8936214D01*
X11401191Y-8936214D02*
X11363095Y-8936214D01*
X11363095Y-8936214D02*
X11344048Y-8945738D01*
X11344048Y-8945738D02*
X11334524Y-8955262D01*
X11334524Y-8955262D02*
X11325000Y-8974310D01*
X11515476Y-8860024D02*
X11515476Y-8898119D01*
X11591667Y-8860024D02*
X11591667Y-8898119D01*
X11886905Y-9136214D02*
X11877381Y-9126690D01*
X11877381Y-9126690D02*
X11858334Y-9098119D01*
X11858334Y-9098119D02*
X11848810Y-9079071D01*
X11848810Y-9079071D02*
X11839286Y-9050500D01*
X11839286Y-9050500D02*
X11829762Y-9002881D01*
X11829762Y-9002881D02*
X11829762Y-8964786D01*
X11829762Y-8964786D02*
X11839286Y-8917167D01*
X11839286Y-8917167D02*
X11848810Y-8888595D01*
X11848810Y-8888595D02*
X11858334Y-8869548D01*
X11858334Y-8869548D02*
X11877381Y-8840976D01*
X11877381Y-8840976D02*
X11886905Y-8831452D01*
X12058334Y-8860024D02*
X11963095Y-8860024D01*
X11963095Y-8860024D02*
X11953572Y-8955262D01*
X11953572Y-8955262D02*
X11963095Y-8945738D01*
X11963095Y-8945738D02*
X11982143Y-8936214D01*
X11982143Y-8936214D02*
X12029762Y-8936214D01*
X12029762Y-8936214D02*
X12048810Y-8945738D01*
X12048810Y-8945738D02*
X12058334Y-8955262D01*
X12058334Y-8955262D02*
X12067857Y-8974310D01*
X12067857Y-8974310D02*
X12067857Y-9021929D01*
X12067857Y-9021929D02*
X12058334Y-9040976D01*
X12058334Y-9040976D02*
X12048810Y-9050500D01*
X12048810Y-9050500D02*
X12029762Y-9060024D01*
X12029762Y-9060024D02*
X11982143Y-9060024D01*
X11982143Y-9060024D02*
X11963095Y-9050500D01*
X11963095Y-9050500D02*
X11953572Y-9040976D01*
X12305953Y-9060024D02*
X12305953Y-8860024D01*
X12391667Y-9060024D02*
X12391667Y-8955262D01*
X12391667Y-8955262D02*
X12382143Y-8936214D01*
X12382143Y-8936214D02*
X12363096Y-8926690D01*
X12363096Y-8926690D02*
X12334524Y-8926690D01*
X12334524Y-8926690D02*
X12315476Y-8936214D01*
X12315476Y-8936214D02*
X12305953Y-8945738D01*
X12515476Y-9060024D02*
X12496429Y-9050500D01*
X12496429Y-9050500D02*
X12486905Y-9040976D01*
X12486905Y-9040976D02*
X12477381Y-9021929D01*
X12477381Y-9021929D02*
X12477381Y-8964786D01*
X12477381Y-8964786D02*
X12486905Y-8945738D01*
X12486905Y-8945738D02*
X12496429Y-8936214D01*
X12496429Y-8936214D02*
X12515476Y-8926690D01*
X12515476Y-8926690D02*
X12544048Y-8926690D01*
X12544048Y-8926690D02*
X12563096Y-8936214D01*
X12563096Y-8936214D02*
X12572619Y-8945738D01*
X12572619Y-8945738D02*
X12582143Y-8964786D01*
X12582143Y-8964786D02*
X12582143Y-9021929D01*
X12582143Y-9021929D02*
X12572619Y-9040976D01*
X12572619Y-9040976D02*
X12563096Y-9050500D01*
X12563096Y-9050500D02*
X12544048Y-9060024D01*
X12544048Y-9060024D02*
X12515476Y-9060024D01*
X12696429Y-9060024D02*
X12677381Y-9050500D01*
X12677381Y-9050500D02*
X12667857Y-9031452D01*
X12667857Y-9031452D02*
X12667857Y-8860024D01*
X12848810Y-9050500D02*
X12829762Y-9060024D01*
X12829762Y-9060024D02*
X12791667Y-9060024D01*
X12791667Y-9060024D02*
X12772619Y-9050500D01*
X12772619Y-9050500D02*
X12763096Y-9031452D01*
X12763096Y-9031452D02*
X12763096Y-8955262D01*
X12763096Y-8955262D02*
X12772619Y-8936214D01*
X12772619Y-8936214D02*
X12791667Y-8926690D01*
X12791667Y-8926690D02*
X12829762Y-8926690D01*
X12829762Y-8926690D02*
X12848810Y-8936214D01*
X12848810Y-8936214D02*
X12858334Y-8955262D01*
X12858334Y-8955262D02*
X12858334Y-8974310D01*
X12858334Y-8974310D02*
X12763096Y-8993357D01*
X12934524Y-9050500D02*
X12953572Y-9060024D01*
X12953572Y-9060024D02*
X12991667Y-9060024D01*
X12991667Y-9060024D02*
X13010715Y-9050500D01*
X13010715Y-9050500D02*
X13020238Y-9031452D01*
X13020238Y-9031452D02*
X13020238Y-9021929D01*
X13020238Y-9021929D02*
X13010715Y-9002881D01*
X13010715Y-9002881D02*
X12991667Y-8993357D01*
X12991667Y-8993357D02*
X12963096Y-8993357D01*
X12963096Y-8993357D02*
X12944048Y-8983833D01*
X12944048Y-8983833D02*
X12934524Y-8964786D01*
X12934524Y-8964786D02*
X12934524Y-8955262D01*
X12934524Y-8955262D02*
X12944048Y-8936214D01*
X12944048Y-8936214D02*
X12963096Y-8926690D01*
X12963096Y-8926690D02*
X12991667Y-8926690D01*
X12991667Y-8926690D02*
X13010715Y-8936214D01*
X13086905Y-9136214D02*
X13096429Y-9126690D01*
X13096429Y-9126690D02*
X13115477Y-9098119D01*
X13115477Y-9098119D02*
X13125000Y-9079071D01*
X13125000Y-9079071D02*
X13134524Y-9050500D01*
X13134524Y-9050500D02*
X13144048Y-9002881D01*
X13144048Y-9002881D02*
X13144048Y-8964786D01*
X13144048Y-8964786D02*
X13134524Y-8917167D01*
X13134524Y-8917167D02*
X13125000Y-8888595D01*
X13125000Y-8888595D02*
X13115477Y-8869548D01*
X13115477Y-8869548D02*
X13096429Y-8840976D01*
X13096429Y-8840976D02*
X13086905Y-8831452D01*
X13448810Y-9136214D02*
X13439286Y-9126690D01*
X13439286Y-9126690D02*
X13420238Y-9098119D01*
X13420238Y-9098119D02*
X13410715Y-9079071D01*
X13410715Y-9079071D02*
X13401191Y-9050500D01*
X13401191Y-9050500D02*
X13391667Y-9002881D01*
X13391667Y-9002881D02*
X13391667Y-8964786D01*
X13391667Y-8964786D02*
X13401191Y-8917167D01*
X13401191Y-8917167D02*
X13410715Y-8888595D01*
X13410715Y-8888595D02*
X13420238Y-8869548D01*
X13420238Y-8869548D02*
X13439286Y-8840976D01*
X13439286Y-8840976D02*
X13448810Y-8831452D01*
X13525000Y-8926690D02*
X13525000Y-9060024D01*
X13525000Y-8945738D02*
X13534524Y-8936214D01*
X13534524Y-8936214D02*
X13553572Y-8926690D01*
X13553572Y-8926690D02*
X13582143Y-8926690D01*
X13582143Y-8926690D02*
X13601191Y-8936214D01*
X13601191Y-8936214D02*
X13610715Y-8955262D01*
X13610715Y-8955262D02*
X13610715Y-9060024D01*
X13734524Y-9060024D02*
X13715477Y-9050500D01*
X13715477Y-9050500D02*
X13705953Y-9040976D01*
X13705953Y-9040976D02*
X13696429Y-9021929D01*
X13696429Y-9021929D02*
X13696429Y-8964786D01*
X13696429Y-8964786D02*
X13705953Y-8945738D01*
X13705953Y-8945738D02*
X13715477Y-8936214D01*
X13715477Y-8936214D02*
X13734524Y-8926690D01*
X13734524Y-8926690D02*
X13763096Y-8926690D01*
X13763096Y-8926690D02*
X13782143Y-8936214D01*
X13782143Y-8936214D02*
X13791667Y-8945738D01*
X13791667Y-8945738D02*
X13801191Y-8964786D01*
X13801191Y-8964786D02*
X13801191Y-9021929D01*
X13801191Y-9021929D02*
X13791667Y-9040976D01*
X13791667Y-9040976D02*
X13782143Y-9050500D01*
X13782143Y-9050500D02*
X13763096Y-9060024D01*
X13763096Y-9060024D02*
X13734524Y-9060024D01*
X13858334Y-8926690D02*
X13934524Y-8926690D01*
X13886905Y-8860024D02*
X13886905Y-9031452D01*
X13886905Y-9031452D02*
X13896429Y-9050500D01*
X13896429Y-9050500D02*
X13915477Y-9060024D01*
X13915477Y-9060024D02*
X13934524Y-9060024D01*
X14153572Y-8926690D02*
X14153572Y-9126690D01*
X14153572Y-8936214D02*
X14172619Y-8926690D01*
X14172619Y-8926690D02*
X14210715Y-8926690D01*
X14210715Y-8926690D02*
X14229762Y-8936214D01*
X14229762Y-8936214D02*
X14239286Y-8945738D01*
X14239286Y-8945738D02*
X14248810Y-8964786D01*
X14248810Y-8964786D02*
X14248810Y-9021929D01*
X14248810Y-9021929D02*
X14239286Y-9040976D01*
X14239286Y-9040976D02*
X14229762Y-9050500D01*
X14229762Y-9050500D02*
X14210715Y-9060024D01*
X14210715Y-9060024D02*
X14172619Y-9060024D01*
X14172619Y-9060024D02*
X14153572Y-9050500D01*
X14363096Y-9060024D02*
X14344048Y-9050500D01*
X14344048Y-9050500D02*
X14334524Y-9031452D01*
X14334524Y-9031452D02*
X14334524Y-8860024D01*
X14525000Y-9060024D02*
X14525000Y-8955262D01*
X14525000Y-8955262D02*
X14515477Y-8936214D01*
X14515477Y-8936214D02*
X14496429Y-8926690D01*
X14496429Y-8926690D02*
X14458334Y-8926690D01*
X14458334Y-8926690D02*
X14439286Y-8936214D01*
X14525000Y-9050500D02*
X14505953Y-9060024D01*
X14505953Y-9060024D02*
X14458334Y-9060024D01*
X14458334Y-9060024D02*
X14439286Y-9050500D01*
X14439286Y-9050500D02*
X14429762Y-9031452D01*
X14429762Y-9031452D02*
X14429762Y-9012405D01*
X14429762Y-9012405D02*
X14439286Y-8993357D01*
X14439286Y-8993357D02*
X14458334Y-8983833D01*
X14458334Y-8983833D02*
X14505953Y-8983833D01*
X14505953Y-8983833D02*
X14525000Y-8974310D01*
X14591667Y-8926690D02*
X14667858Y-8926690D01*
X14620239Y-8860024D02*
X14620239Y-9031452D01*
X14620239Y-9031452D02*
X14629762Y-9050500D01*
X14629762Y-9050500D02*
X14648810Y-9060024D01*
X14648810Y-9060024D02*
X14667858Y-9060024D01*
X14810715Y-9050500D02*
X14791667Y-9060024D01*
X14791667Y-9060024D02*
X14753572Y-9060024D01*
X14753572Y-9060024D02*
X14734524Y-9050500D01*
X14734524Y-9050500D02*
X14725000Y-9031452D01*
X14725000Y-9031452D02*
X14725000Y-8955262D01*
X14725000Y-8955262D02*
X14734524Y-8936214D01*
X14734524Y-8936214D02*
X14753572Y-8926690D01*
X14753572Y-8926690D02*
X14791667Y-8926690D01*
X14791667Y-8926690D02*
X14810715Y-8936214D01*
X14810715Y-8936214D02*
X14820239Y-8955262D01*
X14820239Y-8955262D02*
X14820239Y-8974310D01*
X14820239Y-8974310D02*
X14725000Y-8993357D01*
X14991667Y-9060024D02*
X14991667Y-8860024D01*
X14991667Y-9050500D02*
X14972620Y-9060024D01*
X14972620Y-9060024D02*
X14934524Y-9060024D01*
X14934524Y-9060024D02*
X14915477Y-9050500D01*
X14915477Y-9050500D02*
X14905953Y-9040976D01*
X14905953Y-9040976D02*
X14896429Y-9021929D01*
X14896429Y-9021929D02*
X14896429Y-8964786D01*
X14896429Y-8964786D02*
X14905953Y-8945738D01*
X14905953Y-8945738D02*
X14915477Y-8936214D01*
X14915477Y-8936214D02*
X14934524Y-8926690D01*
X14934524Y-8926690D02*
X14972620Y-8926690D01*
X14972620Y-8926690D02*
X14991667Y-8936214D01*
X15067858Y-9136214D02*
X15077381Y-9126690D01*
X15077381Y-9126690D02*
X15096429Y-9098119D01*
X15096429Y-9098119D02*
X15105953Y-9079071D01*
X15105953Y-9079071D02*
X15115477Y-9050500D01*
X15115477Y-9050500D02*
X15125000Y-9002881D01*
X15125000Y-9002881D02*
X15125000Y-8964786D01*
X15125000Y-8964786D02*
X15115477Y-8917167D01*
X15115477Y-8917167D02*
X15105953Y-8888595D01*
X15105953Y-8888595D02*
X15096429Y-8869548D01*
X15096429Y-8869548D02*
X15077381Y-8840976D01*
X15077381Y-8840976D02*
X15067858Y-8831452D01*
M02*
