G04 #@! TF.GenerationSoftware,KiCad,Pcbnew,7.0.1*
G04 #@! TF.CreationDate,2023-08-13T10:25:55+02:00*
G04 #@! TF.ProjectId,voltmeter,766f6c74-6d65-4746-9572-2e6b69636164,3*
G04 #@! TF.SameCoordinates,Original*
G04 #@! TF.FileFunction,Soldermask,Top*
G04 #@! TF.FilePolarity,Negative*
%FSLAX46Y46*%
G04 Gerber Fmt 4.6, Leading zero omitted, Abs format (unit mm)*
G04 Created by KiCad (PCBNEW 7.0.1) date 2023-08-13 10:25:55*
%MOMM*%
%LPD*%
G01*
G04 APERTURE LIST*
G04 Aperture macros list*
%AMRoundRect*
0 Rectangle with rounded corners*
0 $1 Rounding radius*
0 $2 $3 $4 $5 $6 $7 $8 $9 X,Y pos of 4 corners*
0 Add a 4 corners polygon primitive as box body*
4,1,4,$2,$3,$4,$5,$6,$7,$8,$9,$2,$3,0*
0 Add four circle primitives for the rounded corners*
1,1,$1+$1,$2,$3*
1,1,$1+$1,$4,$5*
1,1,$1+$1,$6,$7*
1,1,$1+$1,$8,$9*
0 Add four rect primitives between the rounded corners*
20,1,$1+$1,$2,$3,$4,$5,0*
20,1,$1+$1,$4,$5,$6,$7,0*
20,1,$1+$1,$6,$7,$8,$9,0*
20,1,$1+$1,$8,$9,$2,$3,0*%
%AMFreePoly0*
4,1,19,0.550000,-0.750000,0.000000,-0.750000,0.000000,-0.744911,-0.071157,-0.744911,-0.207708,-0.704816,-0.327430,-0.627875,-0.420627,-0.520320,-0.479746,-0.390866,-0.500000,-0.250000,-0.500000,0.250000,-0.479746,0.390866,-0.420627,0.520320,-0.327430,0.627875,-0.207708,0.704816,-0.071157,0.744911,0.000000,0.744911,0.000000,0.750000,0.550000,0.750000,0.550000,-0.750000,0.550000,-0.750000,
$1*%
%AMFreePoly1*
4,1,19,0.000000,0.744911,0.071157,0.744911,0.207708,0.704816,0.327430,0.627875,0.420627,0.520320,0.479746,0.390866,0.500000,0.250000,0.500000,-0.250000,0.479746,-0.390866,0.420627,-0.520320,0.327430,-0.627875,0.207708,-0.704816,0.071157,-0.744911,0.000000,-0.744911,0.000000,-0.750000,-0.550000,-0.750000,-0.550000,0.750000,0.000000,0.750000,0.000000,0.744911,0.000000,0.744911,
$1*%
%AMFreePoly2*
4,1,19,0.500000,-0.750000,0.000000,-0.750000,0.000000,-0.744911,-0.071157,-0.744911,-0.207708,-0.704816,-0.327430,-0.627875,-0.420627,-0.520320,-0.479746,-0.390866,-0.500000,-0.250000,-0.500000,0.250000,-0.479746,0.390866,-0.420627,0.520320,-0.327430,0.627875,-0.207708,0.704816,-0.071157,0.744911,0.000000,0.744911,0.000000,0.750000,0.500000,0.750000,0.500000,-0.750000,0.500000,-0.750000,
$1*%
%AMFreePoly3*
4,1,19,0.000000,0.744911,0.071157,0.744911,0.207708,0.704816,0.327430,0.627875,0.420627,0.520320,0.479746,0.390866,0.500000,0.250000,0.500000,-0.250000,0.479746,-0.390866,0.420627,-0.520320,0.327430,-0.627875,0.207708,-0.704816,0.071157,-0.744911,0.000000,-0.744911,0.000000,-0.750000,-0.500000,-0.750000,-0.500000,0.750000,0.000000,0.750000,0.000000,0.744911,0.000000,0.744911,
$1*%
G04 Aperture macros list end*
%ADD10RoundRect,0.140000X0.170000X-0.140000X0.170000X0.140000X-0.170000X0.140000X-0.170000X-0.140000X0*%
%ADD11RoundRect,0.200000X-0.275000X0.200000X-0.275000X-0.200000X0.275000X-0.200000X0.275000X0.200000X0*%
%ADD12RoundRect,0.135000X-0.185000X0.135000X-0.185000X-0.135000X0.185000X-0.135000X0.185000X0.135000X0*%
%ADD13RoundRect,0.140000X-0.140000X-0.170000X0.140000X-0.170000X0.140000X0.170000X-0.140000X0.170000X0*%
%ADD14R,3.800000X3.800000*%
%ADD15C,3.800000*%
%ADD16RoundRect,0.150000X0.150000X-0.587500X0.150000X0.587500X-0.150000X0.587500X-0.150000X-0.587500X0*%
%ADD17RoundRect,0.150000X0.512500X0.150000X-0.512500X0.150000X-0.512500X-0.150000X0.512500X-0.150000X0*%
%ADD18RoundRect,0.135000X0.135000X0.185000X-0.135000X0.185000X-0.135000X-0.185000X0.135000X-0.185000X0*%
%ADD19FreePoly0,0.000000*%
%ADD20R,1.000000X1.500000*%
%ADD21FreePoly1,0.000000*%
%ADD22RoundRect,0.225000X-0.250000X0.225000X-0.250000X-0.225000X0.250000X-0.225000X0.250000X0.225000X0*%
%ADD23FreePoly2,180.000000*%
%ADD24FreePoly3,180.000000*%
%ADD25RoundRect,0.150000X0.825000X0.150000X-0.825000X0.150000X-0.825000X-0.150000X0.825000X-0.150000X0*%
%ADD26RoundRect,0.140000X-0.170000X0.140000X-0.170000X-0.140000X0.170000X-0.140000X0.170000X0.140000X0*%
%ADD27RoundRect,0.200000X0.275000X-0.200000X0.275000X0.200000X-0.275000X0.200000X-0.275000X-0.200000X0*%
%ADD28R,0.500000X0.250000*%
%ADD29R,1.000000X2.650000*%
%ADD30C,2.200000*%
%ADD31RoundRect,0.225000X0.225000X0.250000X-0.225000X0.250000X-0.225000X-0.250000X0.225000X-0.250000X0*%
%ADD32RoundRect,0.200000X0.200000X0.275000X-0.200000X0.275000X-0.200000X-0.275000X0.200000X-0.275000X0*%
%ADD33RoundRect,0.200000X-0.200000X-0.275000X0.200000X-0.275000X0.200000X0.275000X-0.200000X0.275000X0*%
%ADD34RoundRect,0.150000X0.587500X0.150000X-0.587500X0.150000X-0.587500X-0.150000X0.587500X-0.150000X0*%
%ADD35RoundRect,0.075000X0.650000X0.075000X-0.650000X0.075000X-0.650000X-0.075000X0.650000X-0.075000X0*%
%ADD36RoundRect,0.135000X0.185000X-0.135000X0.185000X0.135000X-0.185000X0.135000X-0.185000X-0.135000X0*%
%ADD37R,2.000000X2.000000*%
%ADD38O,2.000000X2.000000*%
%ADD39O,1.700000X1.700000*%
%ADD40RoundRect,0.225000X0.225000X0.375000X-0.225000X0.375000X-0.225000X-0.375000X0.225000X-0.375000X0*%
%ADD41RoundRect,0.150000X0.700000X-0.150000X0.700000X0.150000X-0.700000X0.150000X-0.700000X-0.150000X0*%
%ADD42RoundRect,0.250000X0.950000X-0.250000X0.950000X0.250000X-0.950000X0.250000X-0.950000X-0.250000X0*%
%ADD43RoundRect,0.225000X-0.225000X-0.250000X0.225000X-0.250000X0.225000X0.250000X-0.225000X0.250000X0*%
%ADD44RoundRect,0.218750X-0.218750X-0.256250X0.218750X-0.256250X0.218750X0.256250X-0.218750X0.256250X0*%
%ADD45RoundRect,0.200000X0.200000X1.000000X-0.200000X1.000000X-0.200000X-1.000000X0.200000X-1.000000X0*%
%ADD46RoundRect,0.250000X0.650000X1.400000X-0.650000X1.400000X-0.650000X-1.400000X0.650000X-1.400000X0*%
%ADD47RoundRect,0.075000X0.075000X-0.650000X0.075000X0.650000X-0.075000X0.650000X-0.075000X-0.650000X0*%
%ADD48R,1.880000X1.680000*%
%ADD49RoundRect,0.140000X0.140000X0.170000X-0.140000X0.170000X-0.140000X-0.170000X0.140000X-0.170000X0*%
%ADD50RoundRect,0.225000X0.250000X-0.225000X0.250000X0.225000X-0.250000X0.225000X-0.250000X-0.225000X0*%
G04 APERTURE END LIST*
D10*
X91950000Y-55630000D03*
X91950000Y-54670000D03*
D11*
X99300000Y-68130761D03*
X99300000Y-69780761D03*
D12*
X92300000Y-59565000D03*
X92300000Y-60585000D03*
D13*
X105870000Y-51150000D03*
X106830000Y-51150000D03*
D14*
X106450000Y-80275000D03*
D15*
X106450000Y-75275000D03*
D16*
X110900000Y-74237500D03*
X112800000Y-74237500D03*
X111850000Y-72362500D03*
D17*
X106537500Y-71325000D03*
X106537500Y-70375000D03*
X106537500Y-69425000D03*
X104262500Y-69425000D03*
X104262500Y-71325000D03*
D11*
X99950000Y-54125000D03*
X99950000Y-55775000D03*
D18*
X91285000Y-59625000D03*
X90265000Y-59625000D03*
D19*
X99125000Y-61775000D03*
D20*
X100425000Y-61775000D03*
D21*
X101725000Y-61775000D03*
D18*
X92785000Y-51525000D03*
X91765000Y-51525000D03*
D16*
X97050000Y-73440761D03*
X98950000Y-73440761D03*
X98000000Y-71565761D03*
D12*
X89775000Y-53790000D03*
X89775000Y-54810000D03*
D22*
X102500000Y-71275000D03*
X102500000Y-72825000D03*
D23*
X100475000Y-65875000D03*
D24*
X99175000Y-65875000D03*
D25*
X109075000Y-58605000D03*
X109075000Y-57335000D03*
X109075000Y-56065000D03*
X109075000Y-54795000D03*
X104125000Y-54795000D03*
X104125000Y-56065000D03*
X104125000Y-57335000D03*
X104125000Y-58605000D03*
D26*
X93125000Y-68145000D03*
X93125000Y-69105000D03*
D27*
X108650000Y-52750000D03*
X108650000Y-51100000D03*
D28*
X88825000Y-55850000D03*
X88825000Y-56350000D03*
X88825000Y-56850000D03*
X88825000Y-57350000D03*
X88825000Y-57850000D03*
X88825000Y-58350000D03*
X90725000Y-58350000D03*
X90725000Y-57850000D03*
X90725000Y-57350000D03*
X90725000Y-56850000D03*
X90725000Y-56350000D03*
X90725000Y-55850000D03*
D29*
X89775000Y-57100000D03*
D27*
X94425000Y-69775000D03*
X94425000Y-68125000D03*
D30*
X112000000Y-81225000D03*
D31*
X108250000Y-60225000D03*
X106700000Y-60225000D03*
D32*
X109925000Y-64225000D03*
X108275000Y-64225000D03*
D30*
X85300000Y-52075000D03*
D26*
X87600000Y-56545000D03*
X87600000Y-57505000D03*
D33*
X111250000Y-76137500D03*
X112900000Y-76137500D03*
D34*
X110375000Y-68625000D03*
X110375000Y-66725000D03*
X108500000Y-67675000D03*
D11*
X91825000Y-68125000D03*
X91825000Y-69775000D03*
D35*
X101875000Y-59525000D03*
X101875000Y-59025000D03*
X101875000Y-58525000D03*
X101875000Y-58025000D03*
X101875000Y-57525000D03*
X97475000Y-57525000D03*
X97475000Y-58025000D03*
X97475000Y-58525000D03*
X97475000Y-59025000D03*
X97475000Y-59525000D03*
D36*
X93000000Y-55635000D03*
X93000000Y-54615000D03*
D30*
X105150000Y-65887500D03*
D37*
X94840000Y-51425000D03*
D38*
X97380000Y-51425000D03*
D39*
X84650000Y-56505000D03*
X84650000Y-59045000D03*
X84650000Y-61585000D03*
X84650000Y-64125000D03*
X84650000Y-66665000D03*
X84650000Y-69205000D03*
X112650000Y-69205000D03*
X112650000Y-66665000D03*
X112650000Y-64125000D03*
X112650000Y-61585000D03*
X112650000Y-59045000D03*
X112650000Y-56505000D03*
D38*
X99920000Y-51425000D03*
X102460000Y-51425000D03*
D40*
X108225000Y-62250000D03*
X104925000Y-62250000D03*
D32*
X100475000Y-63825000D03*
X98825000Y-63825000D03*
D30*
X85300000Y-81225000D03*
D41*
X87950000Y-76400000D03*
X87950000Y-75150000D03*
X87950000Y-73900000D03*
X87950000Y-72650000D03*
D42*
X84800000Y-78250000D03*
X84800000Y-70800000D03*
D26*
X98000000Y-68150761D03*
X98000000Y-69110761D03*
X91950000Y-56595000D03*
X91950000Y-57555000D03*
D43*
X103600000Y-60225000D03*
X105150000Y-60225000D03*
D27*
X109850000Y-62725000D03*
X109850000Y-61075000D03*
D30*
X112000000Y-52075000D03*
D13*
X88370000Y-59625000D03*
X89330000Y-59625000D03*
D32*
X107175000Y-52700000D03*
X105525000Y-52700000D03*
X112900000Y-77712500D03*
X111250000Y-77712500D03*
D16*
X92175000Y-73422500D03*
X94075000Y-73422500D03*
X93125000Y-71547500D03*
D44*
X88875000Y-51550000D03*
X90450000Y-51550000D03*
D22*
X97325000Y-61215000D03*
X97325000Y-62765000D03*
D34*
X98112500Y-55875000D03*
X98112500Y-53975000D03*
X96237500Y-54925000D03*
D27*
X96700000Y-69780761D03*
X96700000Y-68130761D03*
D45*
X99350000Y-75950000D03*
X97850000Y-75950000D03*
X96350000Y-75950000D03*
X94850000Y-75950000D03*
X93350000Y-75950000D03*
X91850000Y-75950000D03*
D46*
X101950000Y-81000000D03*
X89250000Y-81000000D03*
D47*
X93705000Y-65795000D03*
X94205000Y-65795000D03*
X94705000Y-65795000D03*
X95205000Y-65795000D03*
X95705000Y-65795000D03*
X95705000Y-61495000D03*
X95205000Y-61495000D03*
X94705000Y-61495000D03*
X94205000Y-61495000D03*
X93705000Y-61495000D03*
D48*
X94705000Y-63645000D03*
D43*
X108250000Y-70500000D03*
X109800000Y-70500000D03*
D32*
X88925000Y-66675000D03*
X87275000Y-66675000D03*
D49*
X94280000Y-59850000D03*
X93320000Y-59850000D03*
X87855000Y-58450000D03*
X86895000Y-58450000D03*
D50*
X95650000Y-59575000D03*
X95650000Y-58025000D03*
D32*
X88900000Y-69175000D03*
X87250000Y-69175000D03*
M02*
