M48
; DRILL file {KiCad 7.0.1} date Fri Jul 14 19:01:58 2023
; FORMAT={-:-/ absolute / metric / decimal}
; #@! TF.CreationDate,2023-07-14T19:01:58+02:00
; #@! TF.GenerationSoftware,Kicad,Pcbnew,7.0.1
; #@! TF.FileFunction,Plated,1,2,PTH
FMAT,2
METRIC
; #@! TA.AperFunction,Plated,PTH,ViaDrill
T1C0.400
; #@! TA.AperFunction,Plated,PTH,ComponentDrill
T2C0.950
; #@! TA.AperFunction,Plated,PTH,ComponentDrill
T3C1.000
%
G90
G05
T1
X91.6Y-54.625
X91.6Y-59.625
X91.6Y-69.625
X91.6Y-74.625
X96.6Y-49.625
X96.6Y-54.625
X96.6Y-59.625
X96.6Y-74.625
X101.6Y-54.625
X101.6Y-59.625
X101.6Y-74.625
X106.6Y-49.625
X106.6Y-54.625
X106.6Y-59.625
X106.6Y-64.625
X106.6Y-74.625
X111.6Y-54.625
X111.6Y-59.625
X111.6Y-69.625
X111.6Y-74.625
X116.6Y-69.625
X116.6Y-74.625
T2
X96.195Y-71.2
X98.695Y-71.2
X101.195Y-71.2
X103.695Y-71.2
X106.195Y-71.2
X108.695Y-71.2
T3
X88.425Y-52.023
X88.425Y-54.563
X88.425Y-57.103
X88.425Y-59.643
X88.425Y-62.183
X88.425Y-64.723
X98.615Y-46.943
X101.155Y-46.943
X103.695Y-46.943
X106.235Y-46.943
X116.425Y-52.023
X116.425Y-54.563
X116.425Y-57.103
X116.425Y-59.643
X116.425Y-62.183
X116.425Y-64.723
T0
M30
