G04 #@! TF.GenerationSoftware,KiCad,Pcbnew,7.0.1*
G04 #@! TF.CreationDate,2023-07-14T19:01:49+02:00*
G04 #@! TF.ProjectId,spectrophotometer_interface,73706563-7472-46f7-9068-6f746f6d6574,rev?*
G04 #@! TF.SameCoordinates,Original*
G04 #@! TF.FileFunction,Copper,L2,Bot*
G04 #@! TF.FilePolarity,Positive*
%FSLAX46Y46*%
G04 Gerber Fmt 4.6, Leading zero omitted, Abs format (unit mm)*
G04 Created by KiCad (PCBNEW 7.0.1) date 2023-07-14 19:01:49*
%MOMM*%
%LPD*%
G01*
G04 APERTURE LIST*
G04 Aperture macros list*
%AMRoundRect*
0 Rectangle with rounded corners*
0 $1 Rounding radius*
0 $2 $3 $4 $5 $6 $7 $8 $9 X,Y pos of 4 corners*
0 Add a 4 corners polygon primitive as box body*
4,1,4,$2,$3,$4,$5,$6,$7,$8,$9,$2,$3,0*
0 Add four circle primitives for the rounded corners*
1,1,$1+$1,$2,$3*
1,1,$1+$1,$4,$5*
1,1,$1+$1,$6,$7*
1,1,$1+$1,$8,$9*
0 Add four rect primitives between the rounded corners*
20,1,$1+$1,$2,$3,$4,$5,0*
20,1,$1+$1,$4,$5,$6,$7,0*
20,1,$1+$1,$6,$7,$8,$9,0*
20,1,$1+$1,$8,$9,$2,$3,0*%
G04 Aperture macros list end*
G04 #@! TA.AperFunction,ComponentPad*
%ADD10O,2.000000X2.000000*%
G04 #@! TD*
G04 #@! TA.AperFunction,ComponentPad*
%ADD11O,1.700000X1.700000*%
G04 #@! TD*
G04 #@! TA.AperFunction,ComponentPad*
%ADD12R,2.000000X2.000000*%
G04 #@! TD*
G04 #@! TA.AperFunction,ComponentPad*
%ADD13O,1.700000X1.950000*%
G04 #@! TD*
G04 #@! TA.AperFunction,ComponentPad*
%ADD14RoundRect,0.250000X-0.600000X-0.725000X0.600000X-0.725000X0.600000X0.725000X-0.600000X0.725000X0*%
G04 #@! TD*
G04 #@! TA.AperFunction,ViaPad*
%ADD15C,0.800000*%
G04 #@! TD*
G04 #@! TA.AperFunction,Conductor*
%ADD16C,1.000000*%
G04 #@! TD*
G04 APERTURE END LIST*
D10*
X106235000Y-46943205D03*
X103695000Y-46943205D03*
D11*
X116425000Y-52023205D03*
X116425000Y-54563205D03*
X116425000Y-57103205D03*
X116425000Y-59643205D03*
X116425000Y-62183205D03*
X116425000Y-64723205D03*
X88425000Y-64723205D03*
X88425000Y-62183205D03*
X88425000Y-59643205D03*
X88425000Y-57103205D03*
X88425000Y-54563205D03*
X88425000Y-52023205D03*
D10*
X101155000Y-46943205D03*
D12*
X98615000Y-46943205D03*
D13*
X108694840Y-71200000D03*
X106194840Y-71200000D03*
X103694840Y-71200000D03*
X101194840Y-71200000D03*
X98694840Y-71200000D03*
D14*
X96194840Y-71200000D03*
D15*
X116600000Y-74625000D03*
X116600000Y-69625000D03*
X111600000Y-74625000D03*
X111600000Y-69625000D03*
X111600000Y-59625000D03*
X111600000Y-54625000D03*
X106600000Y-74625000D03*
X106600000Y-64625000D03*
X106600000Y-59625000D03*
X106600000Y-54625000D03*
X106600000Y-49625000D03*
X101600000Y-74625000D03*
X101600000Y-59625000D03*
X101600000Y-54625000D03*
X96600000Y-74625000D03*
X96600000Y-59625000D03*
X96600000Y-54625000D03*
X96600000Y-49625000D03*
X91600000Y-74625000D03*
X91600000Y-69625000D03*
X91600000Y-59625000D03*
X91600000Y-54625000D03*
D16*
X100715650Y-49254170D02*
G75*
G03*
X101155000Y-48193520I-1060650J1060670D01*
G01*
X99134178Y-68785658D02*
G75*
G03*
X98694840Y-69846320I1060622J-1060642D01*
G01*
X100284178Y-49685658D02*
G75*
G03*
X99844840Y-50746320I1060622J-1060642D01*
G01*
X99405518Y-68514358D02*
G75*
G03*
X99844840Y-67453680I-1060718J1060658D01*
G01*
X101155000Y-48193520D02*
X101155000Y-46943205D01*
X100284180Y-49685660D02*
X100715660Y-49254180D01*
X99134180Y-68785660D02*
X99405500Y-68514340D01*
X99844840Y-67453680D02*
X99844840Y-50746320D01*
X98694840Y-71200000D02*
X98694840Y-69846320D01*
G04 #@! TA.AperFunction,Conductor*
G36*
X97326081Y-45315668D02*
G01*
X97370969Y-45357460D01*
X97390338Y-45415654D01*
X97379449Y-45476011D01*
X97340965Y-45523767D01*
X97257811Y-45586015D01*
X97171647Y-45701115D01*
X97121402Y-45835829D01*
X97115000Y-45895381D01*
X97115000Y-46693205D01*
X98741000Y-46693205D01*
X98803000Y-46709818D01*
X98848387Y-46755205D01*
X98865000Y-46817205D01*
X98865000Y-48443205D01*
X99662824Y-48443205D01*
X99722375Y-48436802D01*
X99819440Y-48400599D01*
X99885660Y-48394911D01*
X99945305Y-48424235D01*
X99981239Y-48480148D01*
X99983139Y-48546584D01*
X99950458Y-48604459D01*
X99942650Y-48612268D01*
X99942646Y-48612271D01*
X99938677Y-48616242D01*
X99938673Y-48616245D01*
X99938667Y-48616251D01*
X99938668Y-48616251D01*
X99620061Y-48934859D01*
X99613048Y-48941872D01*
X99613035Y-48941880D01*
X99477425Y-49077488D01*
X99302316Y-49297065D01*
X99152891Y-49534872D01*
X99031034Y-49787910D01*
X98938273Y-50053009D01*
X98875780Y-50326820D01*
X98844338Y-50605901D01*
X98844340Y-50715134D01*
X98844340Y-67348700D01*
X98844339Y-67348710D01*
X98844339Y-67447603D01*
X98843742Y-67459755D01*
X98835939Y-67538993D01*
X98831197Y-67562833D01*
X98809863Y-67633168D01*
X98800562Y-67655627D01*
X98765918Y-67720445D01*
X98752413Y-67740657D01*
X98702067Y-67802006D01*
X98693893Y-67811024D01*
X98463045Y-68041873D01*
X98463035Y-68041880D01*
X98327425Y-68177488D01*
X98152316Y-68397065D01*
X98002891Y-68634872D01*
X97881034Y-68887910D01*
X97788273Y-69153009D01*
X97725780Y-69426820D01*
X97694338Y-69705902D01*
X97694338Y-69747443D01*
X97690457Y-69778221D01*
X97669238Y-69861031D01*
X97650052Y-69935906D01*
X97649250Y-69938884D01*
X97630474Y-70005248D01*
X97602864Y-70054951D01*
X97555974Y-70087108D01*
X97499661Y-70094956D01*
X97445765Y-70076846D01*
X97405618Y-70036586D01*
X97387156Y-70006654D01*
X97263185Y-69882683D01*
X97113962Y-69790642D01*
X96947536Y-69735493D01*
X96844819Y-69725000D01*
X96444840Y-69725000D01*
X96444840Y-72674999D01*
X96844819Y-72674999D01*
X96947535Y-72664506D01*
X97113962Y-72609357D01*
X97263185Y-72517316D01*
X97387156Y-72393345D01*
X97482655Y-72238516D01*
X97521568Y-72199032D01*
X97573798Y-72180451D01*
X97628905Y-72186486D01*
X97675875Y-72215931D01*
X97823439Y-72363495D01*
X98017010Y-72499035D01*
X98231177Y-72598903D01*
X98459432Y-72660063D01*
X98694840Y-72680659D01*
X98930248Y-72660063D01*
X99158503Y-72598903D01*
X99372669Y-72499035D01*
X99566241Y-72363495D01*
X99733335Y-72196401D01*
X99843266Y-72039401D01*
X99887583Y-72000537D01*
X99944840Y-71986526D01*
X100002097Y-72000537D01*
X100046413Y-72039401D01*
X100156345Y-72196401D01*
X100323439Y-72363495D01*
X100517010Y-72499035D01*
X100731177Y-72598903D01*
X100959432Y-72660063D01*
X101194840Y-72680659D01*
X101430248Y-72660063D01*
X101658503Y-72598903D01*
X101872669Y-72499035D01*
X102066241Y-72363495D01*
X102233335Y-72196401D01*
X102343266Y-72039401D01*
X102387583Y-72000537D01*
X102444840Y-71986526D01*
X102502097Y-72000537D01*
X102546413Y-72039401D01*
X102656345Y-72196401D01*
X102823439Y-72363495D01*
X103017010Y-72499035D01*
X103231177Y-72598903D01*
X103459432Y-72660063D01*
X103694840Y-72680659D01*
X103930248Y-72660063D01*
X104158503Y-72598903D01*
X104372669Y-72499035D01*
X104566241Y-72363495D01*
X104733335Y-72196401D01*
X104843266Y-72039401D01*
X104887583Y-72000537D01*
X104944840Y-71986526D01*
X105002097Y-72000537D01*
X105046413Y-72039401D01*
X105156345Y-72196401D01*
X105323439Y-72363495D01*
X105517010Y-72499035D01*
X105731177Y-72598903D01*
X105959432Y-72660063D01*
X106194840Y-72680659D01*
X106430248Y-72660063D01*
X106658503Y-72598903D01*
X106872669Y-72499035D01*
X107066241Y-72363495D01*
X107233335Y-72196401D01*
X107343266Y-72039401D01*
X107387583Y-72000537D01*
X107444840Y-71986526D01*
X107502097Y-72000537D01*
X107546413Y-72039401D01*
X107656345Y-72196401D01*
X107823439Y-72363495D01*
X108017010Y-72499035D01*
X108231177Y-72598903D01*
X108459432Y-72660063D01*
X108694840Y-72680659D01*
X108930248Y-72660063D01*
X109158503Y-72598903D01*
X109372669Y-72499035D01*
X109566241Y-72363495D01*
X109733335Y-72196401D01*
X109868875Y-72002829D01*
X109968743Y-71788663D01*
X110029903Y-71560408D01*
X110045340Y-71383966D01*
X110045340Y-71016034D01*
X110029903Y-70839592D01*
X109968743Y-70611337D01*
X109868875Y-70397171D01*
X109733335Y-70203599D01*
X109566241Y-70036505D01*
X109372670Y-69900965D01*
X109158503Y-69801097D01*
X109073135Y-69778223D01*
X108930247Y-69739936D01*
X108694840Y-69719340D01*
X108459432Y-69739936D01*
X108231176Y-69801097D01*
X108017010Y-69900965D01*
X107823438Y-70036505D01*
X107656345Y-70203598D01*
X107546415Y-70360596D01*
X107502097Y-70399462D01*
X107444840Y-70413473D01*
X107387583Y-70399462D01*
X107343265Y-70360596D01*
X107295461Y-70292325D01*
X107233335Y-70203599D01*
X107066241Y-70036505D01*
X106872670Y-69900965D01*
X106658503Y-69801097D01*
X106573135Y-69778223D01*
X106430247Y-69739936D01*
X106194840Y-69719340D01*
X105959432Y-69739936D01*
X105731176Y-69801097D01*
X105517010Y-69900965D01*
X105323438Y-70036505D01*
X105156345Y-70203598D01*
X105046415Y-70360596D01*
X105002097Y-70399462D01*
X104944840Y-70413473D01*
X104887583Y-70399462D01*
X104843265Y-70360596D01*
X104795461Y-70292325D01*
X104733335Y-70203599D01*
X104566241Y-70036505D01*
X104372670Y-69900965D01*
X104158503Y-69801097D01*
X104073135Y-69778223D01*
X103930247Y-69739936D01*
X103694840Y-69719340D01*
X103459432Y-69739936D01*
X103231176Y-69801097D01*
X103017010Y-69900965D01*
X102823438Y-70036505D01*
X102656345Y-70203598D01*
X102546415Y-70360596D01*
X102502097Y-70399462D01*
X102444840Y-70413473D01*
X102387583Y-70399462D01*
X102343265Y-70360596D01*
X102295461Y-70292325D01*
X102233335Y-70203599D01*
X102066241Y-70036505D01*
X101872670Y-69900965D01*
X101658503Y-69801097D01*
X101573135Y-69778223D01*
X101430247Y-69739936D01*
X101194840Y-69719340D01*
X100959432Y-69739936D01*
X100731176Y-69801097D01*
X100517010Y-69900965D01*
X100323438Y-70036505D01*
X100156348Y-70203595D01*
X100156345Y-70203598D01*
X100156345Y-70203599D01*
X100094219Y-70292325D01*
X100067478Y-70330515D01*
X100015680Y-70372962D01*
X99949363Y-70382283D01*
X99887871Y-70355760D01*
X99849139Y-70301131D01*
X99845962Y-70292238D01*
X99844526Y-70287970D01*
X99793841Y-70127471D01*
X99792791Y-70123962D01*
X99740428Y-69938884D01*
X99739637Y-69935949D01*
X99725988Y-69882683D01*
X99706686Y-69807355D01*
X99703402Y-69764437D01*
X99703536Y-69763076D01*
X99703738Y-69761025D01*
X99708481Y-69737177D01*
X99729814Y-69666853D01*
X99739116Y-69644396D01*
X99773760Y-69579581D01*
X99787262Y-69559372D01*
X99837750Y-69497853D01*
X99845913Y-69488848D01*
X99921414Y-69413348D01*
X99921418Y-69413341D01*
X100036625Y-69298134D01*
X100036640Y-69298123D01*
X100047422Y-69287340D01*
X100047426Y-69287338D01*
X100076642Y-69258118D01*
X100076755Y-69258043D01*
X100112997Y-69221797D01*
X100112999Y-69221799D01*
X100212291Y-69122501D01*
X100387392Y-68902919D01*
X100536807Y-68665114D01*
X100658658Y-68412075D01*
X100751411Y-68146984D01*
X100813901Y-67873175D01*
X100845342Y-67594091D01*
X100845340Y-67453667D01*
X100845340Y-61348014D01*
X107566828Y-61348014D01*
X107576613Y-61578370D01*
X107625190Y-61803769D01*
X107668908Y-61912565D01*
X107711159Y-62017711D01*
X107832049Y-62214048D01*
X107911061Y-62303823D01*
X107984381Y-62387132D01*
X108163768Y-62531977D01*
X108365063Y-62644426D01*
X108582464Y-62721239D01*
X108809713Y-62760205D01*
X108809715Y-62760205D01*
X108982535Y-62760205D01*
X108982539Y-62760205D01*
X109097337Y-62750433D01*
X109154739Y-62745548D01*
X109377869Y-62687450D01*
X109587971Y-62592478D01*
X109779000Y-62463364D01*
X109945462Y-62303824D01*
X110082566Y-62118447D01*
X110186370Y-61912565D01*
X110253886Y-61692102D01*
X110283172Y-61463399D01*
X110273386Y-61233037D01*
X110224810Y-61007643D01*
X110138841Y-60793699D01*
X110017951Y-60597362D01*
X109919632Y-60485650D01*
X109865618Y-60424277D01*
X109686231Y-60279432D01*
X109484936Y-60166983D01*
X109267535Y-60090170D01*
X109040287Y-60051205D01*
X109040285Y-60051205D01*
X108867465Y-60051205D01*
X108867461Y-60051205D01*
X108695262Y-60065861D01*
X108472129Y-60123960D01*
X108262029Y-60218931D01*
X108071000Y-60348045D01*
X107904537Y-60507586D01*
X107767434Y-60692962D01*
X107663630Y-60898844D01*
X107641697Y-60970462D01*
X107596114Y-61119308D01*
X107571465Y-61311804D01*
X107566828Y-61348014D01*
X100845340Y-61348014D01*
X100845340Y-50839022D01*
X100845341Y-50839017D01*
X100845340Y-50752395D01*
X100845937Y-50740245D01*
X100853096Y-50667545D01*
X100853739Y-50661014D01*
X100858481Y-50637177D01*
X100879814Y-50566853D01*
X100889116Y-50544396D01*
X100923760Y-50479581D01*
X100937262Y-50459372D01*
X100987751Y-50397852D01*
X100995914Y-50388847D01*
X101071413Y-50313349D01*
X101071419Y-50313340D01*
X101394269Y-49990490D01*
X101423114Y-49961647D01*
X101423113Y-49961646D01*
X101459431Y-49925331D01*
X101459442Y-49925316D01*
X101463556Y-49921202D01*
X101463705Y-49921035D01*
X101522400Y-49862343D01*
X101697508Y-49642769D01*
X101846931Y-49404969D01*
X101968790Y-49151934D01*
X102061552Y-48886847D01*
X102124050Y-48613040D01*
X102155498Y-48333958D01*
X102155498Y-48312635D01*
X102155500Y-48312621D01*
X102155500Y-48267020D01*
X102158067Y-48241919D01*
X102158469Y-48239975D01*
X102171821Y-48121971D01*
X102198368Y-48058253D01*
X102204239Y-48050946D01*
X102209361Y-48044570D01*
X102243752Y-48001763D01*
X102243883Y-48001599D01*
X102246029Y-47998910D01*
X102332282Y-47890036D01*
X102373437Y-47856424D01*
X102424885Y-47843124D01*
X102477175Y-47852580D01*
X102520703Y-47883054D01*
X102669390Y-48044571D01*
X102675259Y-48050946D01*
X102871485Y-48203675D01*
X102871487Y-48203676D01*
X102871491Y-48203679D01*
X103090190Y-48322033D01*
X103325386Y-48402776D01*
X103570665Y-48443705D01*
X103819335Y-48443705D01*
X104064614Y-48402776D01*
X104299810Y-48322033D01*
X104518509Y-48203679D01*
X104714744Y-48050943D01*
X104873771Y-47878193D01*
X104931259Y-47842856D01*
X104998741Y-47842856D01*
X105056228Y-47878193D01*
X105215256Y-48050943D01*
X105252585Y-48079997D01*
X105411485Y-48203675D01*
X105411487Y-48203676D01*
X105411491Y-48203679D01*
X105630190Y-48322033D01*
X105865386Y-48402776D01*
X106110665Y-48443705D01*
X106359335Y-48443705D01*
X106604614Y-48402776D01*
X106839810Y-48322033D01*
X107058509Y-48203679D01*
X107254744Y-48050943D01*
X107423164Y-47867990D01*
X107559173Y-47659812D01*
X107659063Y-47432086D01*
X107720108Y-47191026D01*
X107740643Y-46943205D01*
X107720108Y-46695384D01*
X107659063Y-46454324D01*
X107559173Y-46226598D01*
X107423164Y-46018420D01*
X107254744Y-45835467D01*
X107169752Y-45769315D01*
X107058514Y-45682734D01*
X107058510Y-45682731D01*
X107058509Y-45682731D01*
X106839810Y-45564377D01*
X106839806Y-45564375D01*
X106839805Y-45564375D01*
X106773991Y-45541781D01*
X106717673Y-45502270D01*
X106691084Y-45438820D01*
X106702407Y-45370962D01*
X106748158Y-45319584D01*
X106814254Y-45300500D01*
X108464952Y-45300500D01*
X108474684Y-45300882D01*
X108647748Y-45314506D01*
X108666962Y-45317550D01*
X108675431Y-45319584D01*
X108831002Y-45356938D01*
X108849506Y-45362951D01*
X109005365Y-45427513D01*
X109022701Y-45436347D01*
X109166542Y-45524496D01*
X109182284Y-45535933D01*
X109310567Y-45645500D01*
X109324317Y-45659250D01*
X109433885Y-45787542D01*
X109445319Y-45803279D01*
X109533469Y-45947128D01*
X109542302Y-45964465D01*
X109606858Y-46120321D01*
X109612871Y-46138826D01*
X109652254Y-46302869D01*
X109655298Y-46322087D01*
X109668958Y-46495651D01*
X109669340Y-46505380D01*
X109669340Y-47448598D01*
X109669300Y-47448799D01*
X109669300Y-47618014D01*
X109700108Y-47852017D01*
X109761198Y-48080005D01*
X109824314Y-48232377D01*
X109851522Y-48298062D01*
X109969537Y-48502465D01*
X110113223Y-48689716D01*
X110280120Y-48856609D01*
X110382101Y-48934859D01*
X110467376Y-49000291D01*
X110569578Y-49059294D01*
X110671781Y-49118299D01*
X110752988Y-49151934D01*
X110889837Y-49208616D01*
X110889840Y-49208616D01*
X110889843Y-49208618D01*
X111117828Y-49269701D01*
X111351835Y-49300503D01*
X111469848Y-49300500D01*
X116464952Y-49300500D01*
X116474684Y-49300882D01*
X116647748Y-49314506D01*
X116666962Y-49317550D01*
X116735512Y-49334010D01*
X116831002Y-49356938D01*
X116849506Y-49362951D01*
X117005365Y-49427513D01*
X117022701Y-49436347D01*
X117166542Y-49524496D01*
X117182284Y-49535933D01*
X117310567Y-49645500D01*
X117324317Y-49659250D01*
X117433885Y-49787542D01*
X117445319Y-49803279D01*
X117533469Y-49947128D01*
X117542302Y-49964465D01*
X117606858Y-50120321D01*
X117612871Y-50138826D01*
X117652254Y-50302869D01*
X117655298Y-50322087D01*
X117668958Y-50495651D01*
X117669340Y-50505380D01*
X117669340Y-51058287D01*
X117655825Y-51114582D01*
X117618225Y-51158605D01*
X117564738Y-51180760D01*
X117507022Y-51176218D01*
X117457659Y-51145968D01*
X117296404Y-50984713D01*
X117296403Y-50984712D01*
X117296401Y-50984710D01*
X117102830Y-50849170D01*
X116888663Y-50749302D01*
X116827502Y-50732914D01*
X116660407Y-50688141D01*
X116425000Y-50667545D01*
X116189592Y-50688141D01*
X115961336Y-50749302D01*
X115747170Y-50849170D01*
X115553598Y-50984710D01*
X115386505Y-51151803D01*
X115250965Y-51345375D01*
X115151097Y-51559541D01*
X115089936Y-51787797D01*
X115069340Y-52023205D01*
X115089936Y-52258612D01*
X115134709Y-52425707D01*
X115151097Y-52486868D01*
X115250965Y-52701035D01*
X115386505Y-52894606D01*
X115553599Y-53061700D01*
X115739160Y-53191631D01*
X115778024Y-53235948D01*
X115792035Y-53293205D01*
X115778024Y-53350462D01*
X115739159Y-53394780D01*
X115553595Y-53524713D01*
X115386505Y-53691803D01*
X115250965Y-53885375D01*
X115151097Y-54099541D01*
X115089936Y-54327797D01*
X115069340Y-54563204D01*
X115089936Y-54798612D01*
X115134709Y-54965707D01*
X115151097Y-55026868D01*
X115250965Y-55241035D01*
X115386505Y-55434606D01*
X115553599Y-55601700D01*
X115739160Y-55731631D01*
X115778024Y-55775948D01*
X115792035Y-55833205D01*
X115778024Y-55890462D01*
X115739159Y-55934780D01*
X115553595Y-56064713D01*
X115386505Y-56231803D01*
X115250965Y-56425375D01*
X115151097Y-56639541D01*
X115089936Y-56867797D01*
X115069340Y-57103204D01*
X115089936Y-57338612D01*
X115134709Y-57505706D01*
X115151097Y-57566868D01*
X115250965Y-57781035D01*
X115386505Y-57974606D01*
X115553599Y-58141700D01*
X115739160Y-58271631D01*
X115778024Y-58315948D01*
X115792035Y-58373205D01*
X115778024Y-58430462D01*
X115739159Y-58474780D01*
X115553595Y-58604713D01*
X115386505Y-58771803D01*
X115250965Y-58965375D01*
X115151097Y-59179541D01*
X115089936Y-59407797D01*
X115069340Y-59643205D01*
X115089936Y-59878612D01*
X115134709Y-60045707D01*
X115151097Y-60106868D01*
X115250965Y-60321035D01*
X115386505Y-60514606D01*
X115553599Y-60681700D01*
X115739160Y-60811631D01*
X115778024Y-60855948D01*
X115792035Y-60913205D01*
X115778024Y-60970462D01*
X115739158Y-61014780D01*
X115589879Y-61119307D01*
X115553595Y-61144713D01*
X115386505Y-61311803D01*
X115250965Y-61505375D01*
X115151097Y-61719541D01*
X115089936Y-61947797D01*
X115069340Y-62183204D01*
X115089936Y-62418612D01*
X115120312Y-62531977D01*
X115151097Y-62646868D01*
X115250965Y-62861035D01*
X115386505Y-63054606D01*
X115553599Y-63221700D01*
X115739160Y-63351631D01*
X115778024Y-63395948D01*
X115792035Y-63453205D01*
X115778024Y-63510462D01*
X115739159Y-63554780D01*
X115553595Y-63684713D01*
X115386505Y-63851803D01*
X115250965Y-64045375D01*
X115151097Y-64259541D01*
X115089936Y-64487797D01*
X115069340Y-64723205D01*
X115089936Y-64958612D01*
X115134709Y-65125706D01*
X115151097Y-65186868D01*
X115250965Y-65401035D01*
X115386505Y-65594606D01*
X115553599Y-65761700D01*
X115747170Y-65897240D01*
X115961337Y-65997108D01*
X116189592Y-66058268D01*
X116425000Y-66078864D01*
X116660408Y-66058268D01*
X116888663Y-65997108D01*
X117102830Y-65897240D01*
X117296401Y-65761700D01*
X117457659Y-65600442D01*
X117507022Y-65570192D01*
X117564738Y-65565650D01*
X117618225Y-65587805D01*
X117655825Y-65631828D01*
X117669340Y-65688123D01*
X117669340Y-74495125D01*
X117668958Y-74504854D01*
X117655337Y-74677918D01*
X117652293Y-74697136D01*
X117612909Y-74861185D01*
X117606896Y-74879690D01*
X117542336Y-75035555D01*
X117533503Y-75052891D01*
X117445357Y-75196737D01*
X117433920Y-75212480D01*
X117324350Y-75340772D01*
X117310592Y-75354531D01*
X117182307Y-75464099D01*
X117166566Y-75475535D01*
X117022720Y-75563688D01*
X117005383Y-75572522D01*
X116849518Y-75637087D01*
X116831013Y-75643100D01*
X116666965Y-75682489D01*
X116647747Y-75685533D01*
X116475205Y-75699117D01*
X116465473Y-75699500D01*
X88537551Y-75699500D01*
X88537545Y-75699499D01*
X88474701Y-75699499D01*
X88464976Y-75699117D01*
X88291912Y-75685502D01*
X88272692Y-75682458D01*
X88108650Y-75643078D01*
X88090144Y-75637066D01*
X87934275Y-75572506D01*
X87916938Y-75563673D01*
X87773087Y-75475525D01*
X87757345Y-75464087D01*
X87629056Y-75354521D01*
X87615297Y-75340763D01*
X87505731Y-75212481D01*
X87494293Y-75196739D01*
X87406140Y-75052889D01*
X87397306Y-75035551D01*
X87332745Y-74879689D01*
X87326732Y-74861184D01*
X87287346Y-74697135D01*
X87284302Y-74677916D01*
X87270722Y-74505362D01*
X87270340Y-74495633D01*
X87270340Y-71450000D01*
X94844841Y-71450000D01*
X94844841Y-71974979D01*
X94855333Y-72077695D01*
X94910482Y-72244122D01*
X95002523Y-72393345D01*
X95126494Y-72517316D01*
X95275717Y-72609357D01*
X95442143Y-72664506D01*
X95544861Y-72675000D01*
X95944840Y-72675000D01*
X95944840Y-71450000D01*
X94844841Y-71450000D01*
X87270340Y-71450000D01*
X87270340Y-70950000D01*
X94844840Y-70950000D01*
X95944840Y-70950000D01*
X95944840Y-69725001D01*
X95544861Y-69725001D01*
X95442144Y-69735493D01*
X95275717Y-69790642D01*
X95126494Y-69882683D01*
X95002523Y-70006654D01*
X94910482Y-70155877D01*
X94855333Y-70322303D01*
X94844840Y-70425021D01*
X94844840Y-70950000D01*
X87270340Y-70950000D01*
X87270340Y-65777803D01*
X87283855Y-65721508D01*
X87321455Y-65677485D01*
X87374942Y-65655330D01*
X87432658Y-65659872D01*
X87482021Y-65690122D01*
X87553599Y-65761700D01*
X87747170Y-65897240D01*
X87961337Y-65997108D01*
X88189592Y-66058268D01*
X88425000Y-66078864D01*
X88660408Y-66058268D01*
X88888663Y-65997108D01*
X89102830Y-65897240D01*
X89296401Y-65761700D01*
X89463495Y-65594606D01*
X89599035Y-65401035D01*
X89698903Y-65186868D01*
X89760063Y-64958613D01*
X89780659Y-64723205D01*
X89760063Y-64487797D01*
X89698903Y-64259542D01*
X89599035Y-64045376D01*
X89463495Y-63851804D01*
X89296401Y-63684710D01*
X89110839Y-63554778D01*
X89071975Y-63510462D01*
X89057964Y-63453205D01*
X89071975Y-63395948D01*
X89110839Y-63351631D01*
X89296401Y-63221700D01*
X89463495Y-63054606D01*
X89599035Y-62861035D01*
X89698903Y-62646868D01*
X89760063Y-62418613D01*
X89780659Y-62183205D01*
X89760063Y-61947797D01*
X89698903Y-61719542D01*
X89599035Y-61505376D01*
X89463495Y-61311804D01*
X89296401Y-61144710D01*
X89110839Y-61014778D01*
X89071975Y-60970462D01*
X89057964Y-60913205D01*
X89071975Y-60855948D01*
X89110839Y-60811631D01*
X89296401Y-60681700D01*
X89463495Y-60514606D01*
X89599035Y-60321035D01*
X89698903Y-60106868D01*
X89760063Y-59878613D01*
X89780659Y-59643205D01*
X89760063Y-59407797D01*
X89698903Y-59179542D01*
X89599035Y-58965376D01*
X89463495Y-58771804D01*
X89296401Y-58604710D01*
X89110839Y-58474778D01*
X89071975Y-58430462D01*
X89057964Y-58373205D01*
X89071975Y-58315948D01*
X89110839Y-58271631D01*
X89296401Y-58141700D01*
X89463495Y-57974606D01*
X89599035Y-57781035D01*
X89698903Y-57566868D01*
X89760063Y-57338613D01*
X89780659Y-57103205D01*
X89760063Y-56867797D01*
X89698903Y-56639542D01*
X89599035Y-56425376D01*
X89463495Y-56231804D01*
X89296401Y-56064710D01*
X89110839Y-55934778D01*
X89071975Y-55890462D01*
X89057964Y-55833205D01*
X89071975Y-55775948D01*
X89110839Y-55731631D01*
X89296401Y-55601700D01*
X89463495Y-55434606D01*
X89599035Y-55241035D01*
X89698903Y-55026868D01*
X89760063Y-54798613D01*
X89780659Y-54563205D01*
X89760063Y-54327797D01*
X89698903Y-54099542D01*
X89599035Y-53885376D01*
X89463495Y-53691804D01*
X89296401Y-53524710D01*
X89110839Y-53394778D01*
X89071975Y-53350462D01*
X89057964Y-53293205D01*
X89071975Y-53235948D01*
X89110839Y-53191631D01*
X89296401Y-53061700D01*
X89463495Y-52894606D01*
X89599035Y-52701035D01*
X89698903Y-52486868D01*
X89760063Y-52258613D01*
X89780659Y-52023205D01*
X89760063Y-51787797D01*
X89698903Y-51559542D01*
X89599035Y-51345376D01*
X89463495Y-51151804D01*
X89296401Y-50984710D01*
X89102830Y-50849170D01*
X88888663Y-50749302D01*
X88827502Y-50732914D01*
X88660407Y-50688141D01*
X88425000Y-50667545D01*
X88189592Y-50688141D01*
X87961336Y-50749302D01*
X87747170Y-50849170D01*
X87553598Y-50984710D01*
X87482021Y-51056288D01*
X87432658Y-51086538D01*
X87374942Y-51091080D01*
X87321455Y-51068925D01*
X87283855Y-51024902D01*
X87270340Y-50968607D01*
X87270340Y-50504875D01*
X87270722Y-50495146D01*
X87272548Y-50471942D01*
X87284342Y-50322085D01*
X87287386Y-50302870D01*
X87326771Y-50138822D01*
X87332779Y-50120331D01*
X87397347Y-49964454D01*
X87406172Y-49947134D01*
X87494331Y-49803275D01*
X87505757Y-49787549D01*
X87615331Y-49659257D01*
X87629078Y-49645510D01*
X87757375Y-49535938D01*
X87773111Y-49524507D01*
X87916959Y-49436360D01*
X87934286Y-49427531D01*
X88090162Y-49362969D01*
X88108647Y-49356963D01*
X88272709Y-49317579D01*
X88291918Y-49314537D01*
X88465489Y-49300881D01*
X88475206Y-49300500D01*
X88517427Y-49300501D01*
X88517430Y-49300500D01*
X93418439Y-49300500D01*
X93418645Y-49300540D01*
X93469848Y-49300539D01*
X93469848Y-49300540D01*
X93587860Y-49300537D01*
X93821863Y-49269724D01*
X94049842Y-49208631D01*
X94267898Y-49118305D01*
X94472298Y-49000290D01*
X94659545Y-48856605D01*
X94826437Y-48689709D01*
X94970116Y-48502458D01*
X95088126Y-48298054D01*
X95178447Y-48079997D01*
X95239533Y-47852016D01*
X95270340Y-47618012D01*
X95270340Y-47500000D01*
X95270340Y-47452405D01*
X95270340Y-47193205D01*
X97115000Y-47193205D01*
X97115000Y-47991029D01*
X97121402Y-48050580D01*
X97171647Y-48185294D01*
X97257811Y-48300393D01*
X97372910Y-48386557D01*
X97507624Y-48436802D01*
X97567176Y-48443205D01*
X98365000Y-48443205D01*
X98365000Y-47193205D01*
X97115000Y-47193205D01*
X95270340Y-47193205D01*
X95270340Y-46504875D01*
X95270722Y-46495146D01*
X95284342Y-46322089D01*
X95287386Y-46302870D01*
X95326771Y-46138822D01*
X95332779Y-46120331D01*
X95397347Y-45964454D01*
X95406172Y-45947134D01*
X95494331Y-45803275D01*
X95505757Y-45787549D01*
X95615331Y-45659257D01*
X95629078Y-45645510D01*
X95757375Y-45535938D01*
X95773111Y-45524507D01*
X95916959Y-45436360D01*
X95934286Y-45427531D01*
X96090162Y-45362969D01*
X96108647Y-45356963D01*
X96272709Y-45317579D01*
X96291918Y-45314537D01*
X96465489Y-45300881D01*
X96475206Y-45300500D01*
X96517427Y-45300501D01*
X96517430Y-45300500D01*
X97266654Y-45300500D01*
X97326081Y-45315668D01*
G37*
G04 #@! TD.AperFunction*
G04 #@! TA.AperFunction,Conductor*
G36*
X101159486Y-46944068D02*
G01*
X102066968Y-47320941D01*
X102071996Y-47324937D01*
X102074156Y-47330985D01*
X102072799Y-47337262D01*
X101964341Y-47540130D01*
X101963194Y-47541879D01*
X101849854Y-47684942D01*
X101849804Y-47685005D01*
X101750991Y-47808002D01*
X101681345Y-47960704D01*
X101656175Y-48183136D01*
X101652343Y-48190546D01*
X101644549Y-48193520D01*
X100665451Y-48193520D01*
X100657657Y-48190546D01*
X100653825Y-48183136D01*
X100651679Y-48164176D01*
X100628654Y-47960705D01*
X100559006Y-47808002D01*
X100460194Y-47685005D01*
X100460144Y-47684942D01*
X100346803Y-47541879D01*
X100345656Y-47540130D01*
X100321401Y-47494762D01*
X100237199Y-47337259D01*
X100235843Y-47330985D01*
X100238003Y-47324937D01*
X100243029Y-47320941D01*
X101150515Y-46944067D01*
X101154999Y-46943173D01*
X101159486Y-46944068D01*
G37*
G04 #@! TD.AperFunction*
G04 #@! TA.AperFunction,Conductor*
G36*
X99192933Y-69848777D02*
G01*
X99197094Y-69855116D01*
X99251901Y-70069008D01*
X99308957Y-70270674D01*
X99308959Y-70270679D01*
X99366018Y-70451359D01*
X99415911Y-70590984D01*
X99423079Y-70611042D01*
X99476235Y-70740233D01*
X99476486Y-70748470D01*
X99471245Y-70754829D01*
X98700669Y-71197649D01*
X98694839Y-71199205D01*
X98689009Y-71197649D01*
X97918434Y-70754829D01*
X97913193Y-70748470D01*
X97913443Y-70740235D01*
X97966601Y-70611039D01*
X98023661Y-70451359D01*
X98080720Y-70270679D01*
X98137780Y-70068999D01*
X98192586Y-69855115D01*
X98196747Y-69848777D01*
X98203920Y-69846320D01*
X99185760Y-69846320D01*
X99192933Y-69848777D01*
G37*
G04 #@! TD.AperFunction*
M02*
