G04 #@! TF.GenerationSoftware,KiCad,Pcbnew,7.0.1*
G04 #@! TF.CreationDate,2023-07-15T02:44:33+02:00*
G04 #@! TF.ProjectId,ADS1115_POTENTIOMETER,41445331-3131-4355-9f50-4f54454e5449,1*
G04 #@! TF.SameCoordinates,Original*
G04 #@! TF.FileFunction,Legend,Top*
G04 #@! TF.FilePolarity,Positive*
%FSLAX46Y46*%
G04 Gerber Fmt 4.6, Leading zero omitted, Abs format (unit mm)*
G04 Created by KiCad (PCBNEW 7.0.1) date 2023-07-15 02:44:33*
%MOMM*%
%LPD*%
G01*
G04 APERTURE LIST*
G04 Aperture macros list*
%AMRoundRect*
0 Rectangle with rounded corners*
0 $1 Rounding radius*
0 $2 $3 $4 $5 $6 $7 $8 $9 X,Y pos of 4 corners*
0 Add a 4 corners polygon primitive as box body*
4,1,4,$2,$3,$4,$5,$6,$7,$8,$9,$2,$3,0*
0 Add four circle primitives for the rounded corners*
1,1,$1+$1,$2,$3*
1,1,$1+$1,$4,$5*
1,1,$1+$1,$6,$7*
1,1,$1+$1,$8,$9*
0 Add four rect primitives between the rounded corners*
20,1,$1+$1,$2,$3,$4,$5,0*
20,1,$1+$1,$4,$5,$6,$7,0*
20,1,$1+$1,$6,$7,$8,$9,0*
20,1,$1+$1,$8,$9,$2,$3,0*%
%AMFreePoly0*
4,1,19,0.550000,-0.750000,0.000000,-0.750000,0.000000,-0.744911,-0.071157,-0.744911,-0.207708,-0.704816,-0.327430,-0.627875,-0.420627,-0.520320,-0.479746,-0.390866,-0.500000,-0.250000,-0.500000,0.250000,-0.479746,0.390866,-0.420627,0.520320,-0.327430,0.627875,-0.207708,0.704816,-0.071157,0.744911,0.000000,0.744911,0.000000,0.750000,0.550000,0.750000,0.550000,-0.750000,0.550000,-0.750000,
$1*%
%AMFreePoly1*
4,1,19,0.000000,0.744911,0.071157,0.744911,0.207708,0.704816,0.327430,0.627875,0.420627,0.520320,0.479746,0.390866,0.500000,0.250000,0.500000,-0.250000,0.479746,-0.390866,0.420627,-0.520320,0.327430,-0.627875,0.207708,-0.704816,0.071157,-0.744911,0.000000,-0.744911,0.000000,-0.750000,-0.550000,-0.750000,-0.550000,0.750000,0.000000,0.750000,0.000000,0.744911,0.000000,0.744911,
$1*%
G04 Aperture macros list end*
%ADD10C,0.100000*%
%ADD11C,0.150000*%
%ADD12C,0.120000*%
%ADD13C,2.200000*%
%ADD14RoundRect,0.237500X0.237500X-0.300000X0.237500X0.300000X-0.237500X0.300000X-0.237500X-0.300000X0*%
%ADD15RoundRect,0.237500X-0.237500X0.250000X-0.237500X-0.250000X0.237500X-0.250000X0.237500X0.250000X0*%
%ADD16RoundRect,0.237500X0.250000X0.237500X-0.250000X0.237500X-0.250000X-0.237500X0.250000X-0.237500X0*%
%ADD17RoundRect,0.250000X1.150000X-0.250000X1.150000X0.250000X-1.150000X0.250000X-1.150000X-0.250000X0*%
%ADD18RoundRect,0.150000X0.700000X-0.150000X0.700000X0.150000X-0.700000X0.150000X-0.700000X-0.150000X0*%
%ADD19O,1.300000X0.800000*%
%ADD20RoundRect,0.200000X0.450000X-0.200000X0.450000X0.200000X-0.450000X0.200000X-0.450000X-0.200000X0*%
%ADD21O,2.000000X2.000000*%
%ADD22O,1.700000X1.700000*%
%ADD23R,2.000000X2.000000*%
%ADD24RoundRect,0.237500X-0.237500X0.300000X-0.237500X-0.300000X0.237500X-0.300000X0.237500X0.300000X0*%
%ADD25O,1.950000X1.700000*%
%ADD26RoundRect,0.250000X-0.725000X0.600000X-0.725000X-0.600000X0.725000X-0.600000X0.725000X0.600000X0*%
%ADD27FreePoly0,270.000000*%
%ADD28R,1.500000X1.000000*%
%ADD29FreePoly1,270.000000*%
%ADD30RoundRect,0.075000X-0.650000X-0.075000X0.650000X-0.075000X0.650000X0.075000X-0.650000X0.075000X0*%
%ADD31RoundRect,0.150000X-0.512500X-0.150000X0.512500X-0.150000X0.512500X0.150000X-0.512500X0.150000X0*%
G04 APERTURE END LIST*
D10*
X110487118Y-67459198D02*
X110253785Y-67125865D01*
X110087118Y-67459198D02*
X110087118Y-66759198D01*
X110087118Y-66759198D02*
X110353785Y-66759198D01*
X110353785Y-66759198D02*
X110420452Y-66792531D01*
X110420452Y-66792531D02*
X110453785Y-66825865D01*
X110453785Y-66825865D02*
X110487118Y-66892531D01*
X110487118Y-66892531D02*
X110487118Y-66992531D01*
X110487118Y-66992531D02*
X110453785Y-67059198D01*
X110453785Y-67059198D02*
X110420452Y-67092531D01*
X110420452Y-67092531D02*
X110353785Y-67125865D01*
X110353785Y-67125865D02*
X110087118Y-67125865D01*
X110720452Y-66759198D02*
X111153785Y-66759198D01*
X111153785Y-66759198D02*
X110920452Y-67025865D01*
X110920452Y-67025865D02*
X111020452Y-67025865D01*
X111020452Y-67025865D02*
X111087118Y-67059198D01*
X111087118Y-67059198D02*
X111120452Y-67092531D01*
X111120452Y-67092531D02*
X111153785Y-67159198D01*
X111153785Y-67159198D02*
X111153785Y-67325865D01*
X111153785Y-67325865D02*
X111120452Y-67392531D01*
X111120452Y-67392531D02*
X111087118Y-67425865D01*
X111087118Y-67425865D02*
X111020452Y-67459198D01*
X111020452Y-67459198D02*
X110820452Y-67459198D01*
X110820452Y-67459198D02*
X110753785Y-67425865D01*
X110753785Y-67425865D02*
X110720452Y-67392531D01*
X111453785Y-67192531D02*
X111987119Y-67192531D01*
X112620452Y-66759198D02*
X112487119Y-66759198D01*
X112487119Y-66759198D02*
X112420452Y-66792531D01*
X112420452Y-66792531D02*
X112387119Y-66825865D01*
X112387119Y-66825865D02*
X112320452Y-66925865D01*
X112320452Y-66925865D02*
X112287119Y-67059198D01*
X112287119Y-67059198D02*
X112287119Y-67325865D01*
X112287119Y-67325865D02*
X112320452Y-67392531D01*
X112320452Y-67392531D02*
X112353786Y-67425865D01*
X112353786Y-67425865D02*
X112420452Y-67459198D01*
X112420452Y-67459198D02*
X112553786Y-67459198D01*
X112553786Y-67459198D02*
X112620452Y-67425865D01*
X112620452Y-67425865D02*
X112653786Y-67392531D01*
X112653786Y-67392531D02*
X112687119Y-67325865D01*
X112687119Y-67325865D02*
X112687119Y-67159198D01*
X112687119Y-67159198D02*
X112653786Y-67092531D01*
X112653786Y-67092531D02*
X112620452Y-67059198D01*
X112620452Y-67059198D02*
X112553786Y-67025865D01*
X112553786Y-67025865D02*
X112420452Y-67025865D01*
X112420452Y-67025865D02*
X112353786Y-67059198D01*
X112353786Y-67059198D02*
X112320452Y-67092531D01*
X112320452Y-67092531D02*
X112287119Y-67159198D01*
D11*
X100085452Y-50845365D02*
X100160452Y-50845365D01*
X100085452Y-50520365D02*
X100485452Y-50520365D01*
X100085452Y-50845365D02*
X100010452Y-50845365D01*
D10*
G36*
X101992818Y-50648365D02*
G01*
X102005417Y-50648153D01*
X102017662Y-50647523D01*
X102029550Y-50646479D01*
X102041079Y-50645028D01*
X102052245Y-50643175D01*
X102063045Y-50640926D01*
X102073476Y-50638287D01*
X102083536Y-50635264D01*
X102093221Y-50631862D01*
X102102527Y-50628087D01*
X102111453Y-50623945D01*
X102119994Y-50619441D01*
X102128149Y-50614582D01*
X102135913Y-50609373D01*
X102143285Y-50603820D01*
X102150260Y-50597928D01*
X102156836Y-50591704D01*
X102163009Y-50585153D01*
X102168778Y-50578281D01*
X102174138Y-50571094D01*
X102179086Y-50563597D01*
X102183621Y-50555797D01*
X102187738Y-50547698D01*
X102191434Y-50539307D01*
X102194707Y-50530630D01*
X102197553Y-50521671D01*
X102199970Y-50512438D01*
X102201954Y-50502936D01*
X102203503Y-50493170D01*
X102204613Y-50483146D01*
X102205281Y-50472871D01*
X102205504Y-50462349D01*
X102205396Y-50455176D01*
X102205073Y-50448147D01*
X102204541Y-50441265D01*
X102202865Y-50427953D01*
X102200401Y-50415256D01*
X102197185Y-50403196D01*
X102193250Y-50391790D01*
X102188633Y-50381058D01*
X102183366Y-50371018D01*
X102177485Y-50361690D01*
X102171024Y-50353093D01*
X102164018Y-50345246D01*
X102156501Y-50338168D01*
X102148509Y-50331878D01*
X102140074Y-50326394D01*
X102131233Y-50321737D01*
X102122020Y-50317924D01*
X102117284Y-50316341D01*
X102125515Y-50312660D01*
X102133277Y-50308238D01*
X102140561Y-50303097D01*
X102147359Y-50297262D01*
X102153661Y-50290755D01*
X102159461Y-50283601D01*
X102164748Y-50275822D01*
X102169515Y-50267443D01*
X102173753Y-50258487D01*
X102177454Y-50248978D01*
X102180609Y-50238939D01*
X102183209Y-50228393D01*
X102185246Y-50217364D01*
X102186712Y-50205876D01*
X102187597Y-50193952D01*
X102187894Y-50181616D01*
X102187735Y-50172756D01*
X102187254Y-50164037D01*
X102186447Y-50155469D01*
X102185307Y-50147061D01*
X102183830Y-50138821D01*
X102182012Y-50130760D01*
X102179845Y-50122886D01*
X102177326Y-50115208D01*
X102174450Y-50107736D01*
X102171211Y-50100479D01*
X102167604Y-50093445D01*
X102163623Y-50086645D01*
X102159265Y-50080087D01*
X102154523Y-50073781D01*
X102149393Y-50067735D01*
X102143870Y-50061959D01*
X102137947Y-50056462D01*
X102131621Y-50051253D01*
X102124886Y-50046342D01*
X102117737Y-50041737D01*
X102110168Y-50037447D01*
X102102175Y-50033483D01*
X102093753Y-50029853D01*
X102084896Y-50026565D01*
X102075599Y-50023631D01*
X102065857Y-50021057D01*
X102055665Y-50018855D01*
X102045018Y-50017032D01*
X102033911Y-50015599D01*
X102022338Y-50014563D01*
X102010295Y-50013935D01*
X101997776Y-50013724D01*
X101532225Y-50013724D01*
X101532225Y-50172555D01*
X101975208Y-50172555D01*
X101983137Y-50172977D01*
X101990372Y-50174235D01*
X101996893Y-50176319D01*
X102004446Y-50180363D01*
X102010654Y-50185829D01*
X102015473Y-50192691D01*
X102018857Y-50200922D01*
X102020429Y-50207980D01*
X102021150Y-50215782D01*
X102021199Y-50218546D01*
X102020765Y-50226615D01*
X102019474Y-50233979D01*
X102017347Y-50240620D01*
X102013240Y-50248314D01*
X102007721Y-50254639D01*
X102000835Y-50259551D01*
X101992626Y-50263003D01*
X101985627Y-50264606D01*
X101977927Y-50265342D01*
X101975208Y-50265392D01*
X101539063Y-50265392D01*
X101539063Y-50396697D01*
X101984953Y-50396697D01*
X101993454Y-50397165D01*
X102001242Y-50398551D01*
X102008291Y-50400824D01*
X102014574Y-50403955D01*
X102021712Y-50409413D01*
X102027375Y-50416273D01*
X102030616Y-50422297D01*
X102032965Y-50429040D01*
X102034394Y-50436474D01*
X102034876Y-50444568D01*
X102034394Y-50452175D01*
X102032965Y-50459114D01*
X102029634Y-50467299D01*
X102024732Y-50474225D01*
X102018323Y-50479849D01*
X102010472Y-50484130D01*
X102003675Y-50486434D01*
X101996130Y-50487940D01*
X101987864Y-50488632D01*
X101984953Y-50488679D01*
X101532225Y-50488679D01*
X101532225Y-50648365D01*
X101992818Y-50648365D01*
G37*
G36*
X102636691Y-50648365D02*
G01*
X102645859Y-50647954D01*
X102654609Y-50646722D01*
X102662935Y-50644669D01*
X102670834Y-50641792D01*
X102678302Y-50638091D01*
X102685333Y-50633566D01*
X102691924Y-50628215D01*
X102698072Y-50622038D01*
X102703770Y-50615033D01*
X102709016Y-50607201D01*
X102712259Y-50601519D01*
X103038470Y-50013724D01*
X102845445Y-50013724D01*
X102617029Y-50443371D01*
X102388784Y-50013724D01*
X102195759Y-50013724D01*
X102521115Y-50601519D01*
X102526038Y-50609904D01*
X102531469Y-50617460D01*
X102537392Y-50624189D01*
X102543793Y-50630090D01*
X102550656Y-50635166D01*
X102557966Y-50639416D01*
X102565707Y-50642842D01*
X102573865Y-50645445D01*
X102582423Y-50647224D01*
X102591368Y-50648182D01*
X102597539Y-50648365D01*
X102636691Y-50648365D01*
G37*
G36*
X103537019Y-50648365D02*
G01*
X103549618Y-50648153D01*
X103561863Y-50647523D01*
X103573751Y-50646479D01*
X103585280Y-50645028D01*
X103596446Y-50643175D01*
X103607246Y-50640926D01*
X103617677Y-50638287D01*
X103627737Y-50635264D01*
X103637421Y-50631862D01*
X103646728Y-50628087D01*
X103655654Y-50623945D01*
X103664195Y-50619441D01*
X103672350Y-50614582D01*
X103680114Y-50609373D01*
X103687486Y-50603820D01*
X103694461Y-50597928D01*
X103701037Y-50591704D01*
X103707210Y-50585153D01*
X103712979Y-50578281D01*
X103718339Y-50571094D01*
X103723287Y-50563597D01*
X103727822Y-50555797D01*
X103731939Y-50547698D01*
X103735635Y-50539307D01*
X103738908Y-50530630D01*
X103741754Y-50521671D01*
X103744171Y-50512438D01*
X103746155Y-50502936D01*
X103747704Y-50493170D01*
X103748814Y-50483146D01*
X103749482Y-50472871D01*
X103749705Y-50462349D01*
X103749597Y-50455176D01*
X103749274Y-50448147D01*
X103748742Y-50441265D01*
X103747065Y-50427953D01*
X103744602Y-50415256D01*
X103741386Y-50403196D01*
X103737451Y-50391790D01*
X103732833Y-50381058D01*
X103727567Y-50371018D01*
X103721686Y-50361690D01*
X103715225Y-50353093D01*
X103708219Y-50345246D01*
X103700702Y-50338168D01*
X103692710Y-50331878D01*
X103684275Y-50326394D01*
X103675434Y-50321737D01*
X103666220Y-50317924D01*
X103661485Y-50316341D01*
X103669716Y-50312660D01*
X103677478Y-50308238D01*
X103684762Y-50303097D01*
X103691560Y-50297262D01*
X103697862Y-50290755D01*
X103703662Y-50283601D01*
X103708949Y-50275822D01*
X103713716Y-50267443D01*
X103717954Y-50258487D01*
X103721655Y-50248978D01*
X103724810Y-50238939D01*
X103727410Y-50228393D01*
X103729447Y-50217364D01*
X103730913Y-50205876D01*
X103731798Y-50193952D01*
X103732095Y-50181616D01*
X103731936Y-50172756D01*
X103731455Y-50164037D01*
X103730648Y-50155469D01*
X103729508Y-50147061D01*
X103728031Y-50138821D01*
X103726212Y-50130760D01*
X103724046Y-50122886D01*
X103721527Y-50115208D01*
X103718651Y-50107736D01*
X103715412Y-50100479D01*
X103711805Y-50093445D01*
X103707824Y-50086645D01*
X103703466Y-50080087D01*
X103698724Y-50073781D01*
X103693594Y-50067735D01*
X103688071Y-50061959D01*
X103682148Y-50056462D01*
X103675822Y-50051253D01*
X103669087Y-50046342D01*
X103661938Y-50041737D01*
X103654369Y-50037447D01*
X103646376Y-50033483D01*
X103637954Y-50029853D01*
X103629097Y-50026565D01*
X103619800Y-50023631D01*
X103610058Y-50021057D01*
X103599866Y-50018855D01*
X103589219Y-50017032D01*
X103578112Y-50015599D01*
X103566539Y-50014563D01*
X103554496Y-50013935D01*
X103541977Y-50013724D01*
X103076425Y-50013724D01*
X103076425Y-50172555D01*
X103519409Y-50172555D01*
X103527338Y-50172977D01*
X103534573Y-50174235D01*
X103541094Y-50176319D01*
X103548647Y-50180363D01*
X103554855Y-50185829D01*
X103559674Y-50192691D01*
X103563058Y-50200922D01*
X103564630Y-50207980D01*
X103565351Y-50215782D01*
X103565400Y-50218546D01*
X103564965Y-50226615D01*
X103563675Y-50233979D01*
X103561548Y-50240620D01*
X103557441Y-50248314D01*
X103551922Y-50254639D01*
X103545036Y-50259551D01*
X103536827Y-50263003D01*
X103529828Y-50264606D01*
X103522128Y-50265342D01*
X103519409Y-50265392D01*
X103083264Y-50265392D01*
X103083264Y-50396697D01*
X103529154Y-50396697D01*
X103537655Y-50397165D01*
X103545443Y-50398551D01*
X103552492Y-50400824D01*
X103558775Y-50403955D01*
X103565913Y-50409413D01*
X103571576Y-50416273D01*
X103574817Y-50422297D01*
X103577166Y-50429040D01*
X103578595Y-50436474D01*
X103579077Y-50444568D01*
X103578595Y-50452175D01*
X103577166Y-50459114D01*
X103573835Y-50467299D01*
X103568933Y-50474225D01*
X103562524Y-50479849D01*
X103554673Y-50484130D01*
X103547876Y-50486434D01*
X103540331Y-50487940D01*
X103532065Y-50488632D01*
X103529154Y-50488679D01*
X103076425Y-50488679D01*
X103076425Y-50648365D01*
X103537019Y-50648365D01*
G37*
D12*
X100100452Y-49687865D02*
X100100452Y-50195365D01*
D11*
X100100452Y-50195365D02*
X100810452Y-50195365D01*
X100085452Y-50520365D02*
X99685452Y-50520365D01*
X99390452Y-50195365D02*
X100100452Y-50195365D01*
D10*
X110487118Y-66222531D02*
X110453785Y-66255865D01*
X110453785Y-66255865D02*
X110353785Y-66289198D01*
X110353785Y-66289198D02*
X110287118Y-66289198D01*
X110287118Y-66289198D02*
X110187118Y-66255865D01*
X110187118Y-66255865D02*
X110120452Y-66189198D01*
X110120452Y-66189198D02*
X110087118Y-66122531D01*
X110087118Y-66122531D02*
X110053785Y-65989198D01*
X110053785Y-65989198D02*
X110053785Y-65889198D01*
X110053785Y-65889198D02*
X110087118Y-65755865D01*
X110087118Y-65755865D02*
X110120452Y-65689198D01*
X110120452Y-65689198D02*
X110187118Y-65622531D01*
X110187118Y-65622531D02*
X110287118Y-65589198D01*
X110287118Y-65589198D02*
X110353785Y-65589198D01*
X110353785Y-65589198D02*
X110453785Y-65622531D01*
X110453785Y-65622531D02*
X110487118Y-65655865D01*
X111087118Y-65822531D02*
X111087118Y-66289198D01*
X110920452Y-65555865D02*
X110753785Y-66055865D01*
X110753785Y-66055865D02*
X111187118Y-66055865D01*
X111453785Y-66022531D02*
X111987119Y-66022531D01*
X112253786Y-65589198D02*
X112720452Y-65589198D01*
X112720452Y-65589198D02*
X112420452Y-66289198D01*
X106103785Y-59292531D02*
X106070452Y-59325865D01*
X106070452Y-59325865D02*
X105970452Y-59359198D01*
X105970452Y-59359198D02*
X105903785Y-59359198D01*
X105903785Y-59359198D02*
X105803785Y-59325865D01*
X105803785Y-59325865D02*
X105737119Y-59259198D01*
X105737119Y-59259198D02*
X105703785Y-59192531D01*
X105703785Y-59192531D02*
X105670452Y-59059198D01*
X105670452Y-59059198D02*
X105670452Y-58959198D01*
X105670452Y-58959198D02*
X105703785Y-58825865D01*
X105703785Y-58825865D02*
X105737119Y-58759198D01*
X105737119Y-58759198D02*
X105803785Y-58692531D01*
X105803785Y-58692531D02*
X105903785Y-58659198D01*
X105903785Y-58659198D02*
X105970452Y-58659198D01*
X105970452Y-58659198D02*
X106070452Y-58692531D01*
X106070452Y-58692531D02*
X106103785Y-58725865D01*
X106337119Y-58659198D02*
X106770452Y-58659198D01*
X106770452Y-58659198D02*
X106537119Y-58925865D01*
X106537119Y-58925865D02*
X106637119Y-58925865D01*
X106637119Y-58925865D02*
X106703785Y-58959198D01*
X106703785Y-58959198D02*
X106737119Y-58992531D01*
X106737119Y-58992531D02*
X106770452Y-59059198D01*
X106770452Y-59059198D02*
X106770452Y-59225865D01*
X106770452Y-59225865D02*
X106737119Y-59292531D01*
X106737119Y-59292531D02*
X106703785Y-59325865D01*
X106703785Y-59325865D02*
X106637119Y-59359198D01*
X106637119Y-59359198D02*
X106437119Y-59359198D01*
X106437119Y-59359198D02*
X106370452Y-59325865D01*
X106370452Y-59325865D02*
X106337119Y-59292531D01*
X93253785Y-65259198D02*
X93020452Y-64925865D01*
X92853785Y-65259198D02*
X92853785Y-64559198D01*
X92853785Y-64559198D02*
X93120452Y-64559198D01*
X93120452Y-64559198D02*
X93187119Y-64592531D01*
X93187119Y-64592531D02*
X93220452Y-64625865D01*
X93220452Y-64625865D02*
X93253785Y-64692531D01*
X93253785Y-64692531D02*
X93253785Y-64792531D01*
X93253785Y-64792531D02*
X93220452Y-64859198D01*
X93220452Y-64859198D02*
X93187119Y-64892531D01*
X93187119Y-64892531D02*
X93120452Y-64925865D01*
X93120452Y-64925865D02*
X92853785Y-64925865D01*
X93520452Y-64625865D02*
X93553785Y-64592531D01*
X93553785Y-64592531D02*
X93620452Y-64559198D01*
X93620452Y-64559198D02*
X93787119Y-64559198D01*
X93787119Y-64559198D02*
X93853785Y-64592531D01*
X93853785Y-64592531D02*
X93887119Y-64625865D01*
X93887119Y-64625865D02*
X93920452Y-64692531D01*
X93920452Y-64692531D02*
X93920452Y-64759198D01*
X93920452Y-64759198D02*
X93887119Y-64859198D01*
X93887119Y-64859198D02*
X93487119Y-65259198D01*
X93487119Y-65259198D02*
X93920452Y-65259198D01*
X93253785Y-62709198D02*
X93020452Y-62375865D01*
X92853785Y-62709198D02*
X92853785Y-62009198D01*
X92853785Y-62009198D02*
X93120452Y-62009198D01*
X93120452Y-62009198D02*
X93187119Y-62042531D01*
X93187119Y-62042531D02*
X93220452Y-62075865D01*
X93220452Y-62075865D02*
X93253785Y-62142531D01*
X93253785Y-62142531D02*
X93253785Y-62242531D01*
X93253785Y-62242531D02*
X93220452Y-62309198D01*
X93220452Y-62309198D02*
X93187119Y-62342531D01*
X93187119Y-62342531D02*
X93120452Y-62375865D01*
X93120452Y-62375865D02*
X92853785Y-62375865D01*
X93920452Y-62709198D02*
X93520452Y-62709198D01*
X93720452Y-62709198D02*
X93720452Y-62009198D01*
X93720452Y-62009198D02*
X93653785Y-62109198D01*
X93653785Y-62109198D02*
X93587119Y-62175865D01*
X93587119Y-62175865D02*
X93520452Y-62209198D01*
X96637118Y-57859198D02*
X96637118Y-58359198D01*
X96637118Y-58359198D02*
X96603785Y-58459198D01*
X96603785Y-58459198D02*
X96537118Y-58525865D01*
X96537118Y-58525865D02*
X96437118Y-58559198D01*
X96437118Y-58559198D02*
X96370452Y-58559198D01*
X97270451Y-57859198D02*
X97137118Y-57859198D01*
X97137118Y-57859198D02*
X97070451Y-57892531D01*
X97070451Y-57892531D02*
X97037118Y-57925865D01*
X97037118Y-57925865D02*
X96970451Y-58025865D01*
X96970451Y-58025865D02*
X96937118Y-58159198D01*
X96937118Y-58159198D02*
X96937118Y-58425865D01*
X96937118Y-58425865D02*
X96970451Y-58492531D01*
X96970451Y-58492531D02*
X97003785Y-58525865D01*
X97003785Y-58525865D02*
X97070451Y-58559198D01*
X97070451Y-58559198D02*
X97203785Y-58559198D01*
X97203785Y-58559198D02*
X97270451Y-58525865D01*
X97270451Y-58525865D02*
X97303785Y-58492531D01*
X97303785Y-58492531D02*
X97337118Y-58425865D01*
X97337118Y-58425865D02*
X97337118Y-58259198D01*
X97337118Y-58259198D02*
X97303785Y-58192531D01*
X97303785Y-58192531D02*
X97270451Y-58159198D01*
X97270451Y-58159198D02*
X97203785Y-58125865D01*
X97203785Y-58125865D02*
X97070451Y-58125865D01*
X97070451Y-58125865D02*
X97003785Y-58159198D01*
X97003785Y-58159198D02*
X96970451Y-58192531D01*
X96970451Y-58192531D02*
X96937118Y-58259198D01*
G36*
X91600049Y-64431617D02*
G01*
X91610226Y-64427269D01*
X91620059Y-64422621D01*
X91629549Y-64417683D01*
X91638697Y-64412463D01*
X91647505Y-64406971D01*
X91655975Y-64401217D01*
X91664106Y-64395209D01*
X91671902Y-64388957D01*
X91679364Y-64382469D01*
X91686492Y-64375756D01*
X91693288Y-64368827D01*
X91699754Y-64361690D01*
X91705891Y-64354356D01*
X91711700Y-64346833D01*
X91717183Y-64339130D01*
X91722342Y-64331257D01*
X91727176Y-64323224D01*
X91731689Y-64315039D01*
X91735881Y-64306711D01*
X91739754Y-64298251D01*
X91743309Y-64289666D01*
X91746548Y-64280967D01*
X91749471Y-64272163D01*
X91752081Y-64263263D01*
X91754379Y-64254276D01*
X91756366Y-64245212D01*
X91758043Y-64236080D01*
X91759412Y-64226888D01*
X91760474Y-64217647D01*
X91761232Y-64208366D01*
X91761685Y-64199053D01*
X91761836Y-64189719D01*
X91761606Y-64178379D01*
X91760920Y-64167053D01*
X91759777Y-64155758D01*
X91758180Y-64144514D01*
X91756131Y-64133340D01*
X91753631Y-64122257D01*
X91750682Y-64111282D01*
X91747285Y-64100436D01*
X91743442Y-64089737D01*
X91739155Y-64079205D01*
X91734425Y-64068860D01*
X91729254Y-64058721D01*
X91723644Y-64048806D01*
X91717597Y-64039135D01*
X91711113Y-64029729D01*
X91704194Y-64020605D01*
X91696843Y-64011783D01*
X91689061Y-64003283D01*
X91680849Y-63995124D01*
X91672210Y-63987325D01*
X91663144Y-63979906D01*
X91653654Y-63972885D01*
X91643741Y-63966283D01*
X91633407Y-63960118D01*
X91622653Y-63954410D01*
X91611481Y-63949178D01*
X91599893Y-63944442D01*
X91587890Y-63940220D01*
X91575474Y-63936532D01*
X91562647Y-63933398D01*
X91549410Y-63930837D01*
X91535764Y-63928867D01*
X91527466Y-63928110D01*
X91519273Y-63927427D01*
X91511233Y-63926891D01*
X91503398Y-63926575D01*
X91499030Y-63926523D01*
X91489633Y-63926659D01*
X91480001Y-63927089D01*
X91470162Y-63927847D01*
X91460147Y-63928965D01*
X91449985Y-63930477D01*
X91439707Y-63932416D01*
X91429341Y-63934816D01*
X91418919Y-63937709D01*
X91408469Y-63941128D01*
X91398021Y-63945108D01*
X91387605Y-63949680D01*
X91377251Y-63954879D01*
X91366988Y-63960737D01*
X91356847Y-63967288D01*
X91346858Y-63974565D01*
X91337048Y-63982601D01*
X91327604Y-63991293D01*
X91318628Y-64000591D01*
X91310140Y-64010498D01*
X91302158Y-64021014D01*
X91294704Y-64032141D01*
X91287795Y-64043882D01*
X91281453Y-64056237D01*
X91275695Y-64069209D01*
X91270541Y-64082799D01*
X91266012Y-64097009D01*
X91262126Y-64111841D01*
X91260430Y-64119491D01*
X91258903Y-64127296D01*
X91257546Y-64135258D01*
X91256362Y-64143377D01*
X91255354Y-64151652D01*
X91254523Y-64160084D01*
X91253873Y-64168673D01*
X91253406Y-64177419D01*
X91253124Y-64186323D01*
X91253029Y-64195385D01*
X91252573Y-64204842D01*
X91251212Y-64213850D01*
X91248959Y-64222382D01*
X91245824Y-64230409D01*
X91241819Y-64237906D01*
X91236955Y-64244844D01*
X91231244Y-64251196D01*
X91224697Y-64256934D01*
X91217867Y-64262202D01*
X91211311Y-64266688D01*
X91202029Y-64272084D01*
X91193462Y-64276065D01*
X91185668Y-64278835D01*
X91176580Y-64281003D01*
X91167515Y-64281944D01*
X91159595Y-64281669D01*
X91158067Y-64281554D01*
X91146693Y-64280895D01*
X91135367Y-64278876D01*
X91124323Y-64275438D01*
X91113795Y-64270518D01*
X91104016Y-64264057D01*
X91098029Y-64258863D01*
X91092548Y-64252939D01*
X91087643Y-64246266D01*
X91083382Y-64238828D01*
X91079836Y-64230604D01*
X91077073Y-64221578D01*
X91075163Y-64211732D01*
X91074175Y-64201047D01*
X91074048Y-64195385D01*
X91074967Y-64180974D01*
X91077566Y-64168630D01*
X91081603Y-64158083D01*
X91086840Y-64149064D01*
X91093036Y-64141305D01*
X91099952Y-64134537D01*
X91107348Y-64128489D01*
X91114983Y-64122894D01*
X91122618Y-64117482D01*
X91130014Y-64111984D01*
X91136930Y-64106131D01*
X91143126Y-64099654D01*
X91148363Y-64092284D01*
X91152400Y-64083752D01*
X91154999Y-64073789D01*
X91155918Y-64062126D01*
X91155298Y-64048003D01*
X91153489Y-64035431D01*
X91150571Y-64024372D01*
X91146624Y-64014790D01*
X91141726Y-64006648D01*
X91135957Y-63999908D01*
X91129395Y-63994533D01*
X91122121Y-63990487D01*
X91114213Y-63987731D01*
X91105750Y-63986230D01*
X91096813Y-63985946D01*
X91087479Y-63986842D01*
X91077828Y-63988880D01*
X91067940Y-63992024D01*
X91057893Y-63996237D01*
X91047767Y-64001481D01*
X91037641Y-64007719D01*
X91027595Y-64014915D01*
X91017706Y-64023030D01*
X91008056Y-64032029D01*
X90998722Y-64041874D01*
X90989784Y-64052527D01*
X90981322Y-64063952D01*
X90973414Y-64076112D01*
X90966139Y-64088969D01*
X90959578Y-64102487D01*
X90953809Y-64116628D01*
X90948911Y-64131356D01*
X90944963Y-64146632D01*
X90942046Y-64162421D01*
X90940237Y-64178684D01*
X90939617Y-64195385D01*
X90939760Y-64204430D01*
X90940188Y-64213285D01*
X90940892Y-64221948D01*
X90941867Y-64230421D01*
X90943108Y-64238704D01*
X90944606Y-64246797D01*
X90946357Y-64254701D01*
X90948354Y-64262414D01*
X90950591Y-64269939D01*
X90955760Y-64284422D01*
X90961813Y-64298151D01*
X90968701Y-64311128D01*
X90976374Y-64323356D01*
X90984783Y-64334835D01*
X90993877Y-64345569D01*
X91003607Y-64355560D01*
X91013922Y-64364808D01*
X91024774Y-64373317D01*
X91036112Y-64381088D01*
X91047887Y-64388123D01*
X91053922Y-64391366D01*
X91062829Y-64395885D01*
X91071408Y-64399986D01*
X91079653Y-64403663D01*
X91087554Y-64406911D01*
X91095106Y-64409723D01*
X91104616Y-64412786D01*
X91113472Y-64415051D01*
X91121654Y-64416504D01*
X91130908Y-64417158D01*
X91139368Y-64417234D01*
X91147687Y-64417478D01*
X91155709Y-64417907D01*
X91161389Y-64418330D01*
X91171154Y-64418113D01*
X91180944Y-64417460D01*
X91190737Y-64416370D01*
X91200511Y-64414842D01*
X91210245Y-64412873D01*
X91219915Y-64410463D01*
X91229500Y-64407609D01*
X91238979Y-64404310D01*
X91248329Y-64400565D01*
X91257528Y-64396372D01*
X91266554Y-64391729D01*
X91275386Y-64386635D01*
X91284000Y-64381088D01*
X91292377Y-64375087D01*
X91300492Y-64368629D01*
X91308326Y-64361714D01*
X91315854Y-64354341D01*
X91323056Y-64346506D01*
X91329910Y-64338209D01*
X91336393Y-64329448D01*
X91342484Y-64320222D01*
X91348160Y-64310529D01*
X91353400Y-64300368D01*
X91358182Y-64289736D01*
X91362483Y-64278633D01*
X91366282Y-64267056D01*
X91369557Y-64255005D01*
X91372286Y-64242477D01*
X91374446Y-64229471D01*
X91376017Y-64215985D01*
X91376975Y-64202019D01*
X91377300Y-64187569D01*
X91378017Y-64172813D01*
X91380109Y-64158989D01*
X91383482Y-64146099D01*
X91388046Y-64134147D01*
X91393710Y-64123132D01*
X91400381Y-64113059D01*
X91407967Y-64103927D01*
X91416379Y-64095740D01*
X91425522Y-64088499D01*
X91435307Y-64082207D01*
X91445642Y-64076864D01*
X91456434Y-64072474D01*
X91467593Y-64069037D01*
X91479027Y-64066557D01*
X91490644Y-64065034D01*
X91502352Y-64064471D01*
X91514060Y-64064870D01*
X91525677Y-64066232D01*
X91537111Y-64068560D01*
X91548270Y-64071855D01*
X91559062Y-64076120D01*
X91569397Y-64081357D01*
X91579182Y-64087566D01*
X91588326Y-64094751D01*
X91596737Y-64102913D01*
X91604323Y-64112054D01*
X91610994Y-64122176D01*
X91616658Y-64133281D01*
X91621222Y-64145371D01*
X91624596Y-64158448D01*
X91626687Y-64172513D01*
X91627404Y-64187569D01*
X91627020Y-64197548D01*
X91625886Y-64207314D01*
X91624030Y-64216837D01*
X91621482Y-64226089D01*
X91618269Y-64235040D01*
X91614421Y-64243661D01*
X91609967Y-64251921D01*
X91604934Y-64259792D01*
X91599352Y-64267244D01*
X91593249Y-64274247D01*
X91586653Y-64280772D01*
X91579594Y-64286790D01*
X91572100Y-64292271D01*
X91564199Y-64297185D01*
X91555920Y-64301504D01*
X91547293Y-64305197D01*
X91539010Y-64308916D01*
X91531627Y-64313129D01*
X91525124Y-64317804D01*
X91517790Y-64324701D01*
X91511946Y-64332286D01*
X91507547Y-64340484D01*
X91504550Y-64349220D01*
X91502911Y-64358418D01*
X91502547Y-64365573D01*
X91503018Y-64373932D01*
X91504404Y-64382103D01*
X91506669Y-64390008D01*
X91509777Y-64397569D01*
X91513691Y-64404710D01*
X91518374Y-64411351D01*
X91523790Y-64417415D01*
X91529903Y-64422824D01*
X91536395Y-64427647D01*
X91544303Y-64432140D01*
X91551764Y-64435187D01*
X91559800Y-64437322D01*
X91568296Y-64438377D01*
X91571326Y-64438456D01*
X91579972Y-64437775D01*
X91587930Y-64436017D01*
X91596218Y-64433201D01*
X91600049Y-64431617D01*
G37*
G36*
X91345060Y-63881191D02*
G01*
X91365739Y-63880666D01*
X91386106Y-63879108D01*
X91406138Y-63876538D01*
X91425813Y-63872980D01*
X91445108Y-63868456D01*
X91464000Y-63862989D01*
X91482467Y-63856602D01*
X91500487Y-63849317D01*
X91518036Y-63841158D01*
X91535092Y-63832147D01*
X91551633Y-63822307D01*
X91567636Y-63811660D01*
X91583079Y-63800229D01*
X91597938Y-63788038D01*
X91612192Y-63775108D01*
X91625817Y-63761463D01*
X91638791Y-63747126D01*
X91651092Y-63732118D01*
X91662697Y-63716463D01*
X91673583Y-63700184D01*
X91683729Y-63683303D01*
X91693110Y-63665844D01*
X91701705Y-63647828D01*
X91709491Y-63629279D01*
X91716446Y-63610219D01*
X91722547Y-63590672D01*
X91727771Y-63570659D01*
X91732096Y-63550204D01*
X91735499Y-63529329D01*
X91737957Y-63508058D01*
X91739449Y-63486412D01*
X91739952Y-63464415D01*
X91739952Y-63329984D01*
X91739569Y-63322045D01*
X91736657Y-63307671D01*
X91731208Y-63295307D01*
X91723611Y-63284963D01*
X91714258Y-63276650D01*
X91703538Y-63270375D01*
X91691842Y-63266149D01*
X91679560Y-63263981D01*
X91667084Y-63263881D01*
X91654802Y-63265857D01*
X91643106Y-63269920D01*
X91632386Y-63276079D01*
X91623033Y-63284343D01*
X91615436Y-63294722D01*
X91609987Y-63307226D01*
X91607075Y-63321862D01*
X91606693Y-63329984D01*
X91606693Y-63454450D01*
X91605198Y-63487793D01*
X91600840Y-63518951D01*
X91593811Y-63547928D01*
X91584301Y-63574731D01*
X91572501Y-63599364D01*
X91558601Y-63621833D01*
X91542793Y-63642143D01*
X91525268Y-63660301D01*
X91506216Y-63676311D01*
X91485828Y-63690179D01*
X91464295Y-63701910D01*
X91441808Y-63711511D01*
X91418558Y-63718985D01*
X91394735Y-63724340D01*
X91370530Y-63727580D01*
X91346134Y-63728710D01*
X91321739Y-63727737D01*
X91297534Y-63724666D01*
X91273711Y-63719502D01*
X91250461Y-63712250D01*
X91227973Y-63702917D01*
X91206440Y-63691507D01*
X91186053Y-63678027D01*
X91167001Y-63662481D01*
X91149475Y-63644875D01*
X91133667Y-63625215D01*
X91119768Y-63603505D01*
X91107968Y-63579752D01*
X91098458Y-63553961D01*
X91091428Y-63526138D01*
X91087071Y-63496287D01*
X91085576Y-63464415D01*
X91085576Y-63329984D01*
X91085193Y-63321862D01*
X91082277Y-63307226D01*
X91076820Y-63294722D01*
X91069212Y-63284343D01*
X91059845Y-63276079D01*
X91049109Y-63269920D01*
X91037396Y-63265857D01*
X91025096Y-63263881D01*
X91012601Y-63263981D01*
X91000302Y-63266149D01*
X90988589Y-63270375D01*
X90977853Y-63276650D01*
X90968486Y-63284963D01*
X90960878Y-63295307D01*
X90955421Y-63307671D01*
X90952505Y-63322045D01*
X90952122Y-63329984D01*
X90952122Y-63476725D01*
X90953116Y-63497707D01*
X90955026Y-63518394D01*
X90957830Y-63538762D01*
X90961513Y-63558787D01*
X90966053Y-63578444D01*
X90971434Y-63597710D01*
X90977635Y-63616559D01*
X90984640Y-63634967D01*
X90992428Y-63652910D01*
X91000982Y-63670363D01*
X91010282Y-63687303D01*
X91020310Y-63703705D01*
X91031048Y-63719544D01*
X91042476Y-63734796D01*
X91054577Y-63749437D01*
X91067331Y-63763442D01*
X91080720Y-63776787D01*
X91094725Y-63789447D01*
X91109328Y-63801399D01*
X91124510Y-63812618D01*
X91140251Y-63823079D01*
X91156535Y-63832759D01*
X91173341Y-63841632D01*
X91190652Y-63849675D01*
X91208449Y-63856862D01*
X91226713Y-63863171D01*
X91245425Y-63868575D01*
X91264567Y-63873052D01*
X91284120Y-63876576D01*
X91304065Y-63879124D01*
X91324385Y-63880670D01*
X91345060Y-63881191D01*
G37*
G36*
X91018751Y-63173278D02*
G01*
X91402506Y-63173278D01*
X91419857Y-63172789D01*
X91436982Y-63171340D01*
X91453859Y-63168952D01*
X91470468Y-63165650D01*
X91486787Y-63161458D01*
X91502794Y-63156397D01*
X91518469Y-63150492D01*
X91533789Y-63143767D01*
X91548735Y-63136244D01*
X91563283Y-63127947D01*
X91577415Y-63118900D01*
X91591106Y-63109125D01*
X91604338Y-63098646D01*
X91617088Y-63087487D01*
X91629335Y-63075671D01*
X91641058Y-63063222D01*
X91652235Y-63050162D01*
X91662845Y-63036515D01*
X91672867Y-63022305D01*
X91682280Y-63007555D01*
X91691062Y-62992288D01*
X91699192Y-62976528D01*
X91706649Y-62960298D01*
X91713411Y-62943622D01*
X91719458Y-62926523D01*
X91724767Y-62909024D01*
X91729318Y-62891149D01*
X91733089Y-62872921D01*
X91736060Y-62854363D01*
X91738208Y-62835500D01*
X91739512Y-62816354D01*
X91739952Y-62796948D01*
X91739560Y-62787521D01*
X91738418Y-62778762D01*
X91736575Y-62770662D01*
X91734083Y-62763215D01*
X91727347Y-62750246D01*
X91718611Y-62739792D01*
X91708274Y-62731792D01*
X91696737Y-62726184D01*
X91684399Y-62722905D01*
X91671661Y-62721892D01*
X91658923Y-62723085D01*
X91646586Y-62726421D01*
X91635049Y-62731838D01*
X91624712Y-62739273D01*
X91615975Y-62748665D01*
X91609240Y-62759952D01*
X91604905Y-62773071D01*
X91603371Y-62787960D01*
X91603134Y-62800312D01*
X91602427Y-62812553D01*
X91601257Y-62824664D01*
X91599631Y-62836627D01*
X91597555Y-62848424D01*
X91595036Y-62860036D01*
X91592081Y-62871445D01*
X91588695Y-62882632D01*
X91584886Y-62893578D01*
X91580660Y-62904267D01*
X91576025Y-62914678D01*
X91570985Y-62924794D01*
X91565549Y-62934596D01*
X91559723Y-62944065D01*
X91553513Y-62953184D01*
X91546926Y-62961934D01*
X91539969Y-62970297D01*
X91532648Y-62978253D01*
X91524970Y-62985785D01*
X91516941Y-62992874D01*
X91508569Y-62999502D01*
X91499859Y-63005650D01*
X91490819Y-63011300D01*
X91481454Y-63016434D01*
X91471772Y-63021033D01*
X91461779Y-63025078D01*
X91451482Y-63028551D01*
X91440888Y-63031435D01*
X91430003Y-63033709D01*
X91418833Y-63035357D01*
X91407385Y-63036359D01*
X91395667Y-63036697D01*
X91018751Y-63036697D01*
X91010565Y-63037070D01*
X90999317Y-63038958D01*
X90989299Y-63042308D01*
X90980498Y-63046973D01*
X90972906Y-63052802D01*
X90966511Y-63059648D01*
X90961303Y-63067361D01*
X90957270Y-63075793D01*
X90954403Y-63084794D01*
X90952690Y-63094217D01*
X90952122Y-63103913D01*
X90952718Y-63113616D01*
X90954503Y-63123157D01*
X90957470Y-63132362D01*
X90961612Y-63141059D01*
X90966922Y-63149074D01*
X90973393Y-63156235D01*
X90981019Y-63162369D01*
X90989793Y-63167303D01*
X90999708Y-63170864D01*
X91010758Y-63172879D01*
X91018751Y-63173278D01*
G37*
G36*
X91612549Y-67166069D02*
G01*
X91622726Y-67161721D01*
X91632559Y-67157073D01*
X91642049Y-67152135D01*
X91651197Y-67146915D01*
X91660005Y-67141423D01*
X91668475Y-67135669D01*
X91676606Y-67129661D01*
X91684402Y-67123409D01*
X91691864Y-67116921D01*
X91698992Y-67110208D01*
X91705788Y-67103279D01*
X91712254Y-67096142D01*
X91718391Y-67088808D01*
X91724200Y-67081285D01*
X91729683Y-67073582D01*
X91734842Y-67065709D01*
X91739676Y-67057676D01*
X91744189Y-67049491D01*
X91748381Y-67041163D01*
X91752254Y-67032703D01*
X91755809Y-67024118D01*
X91759048Y-67015419D01*
X91761971Y-67006615D01*
X91764581Y-66997715D01*
X91766879Y-66988728D01*
X91768866Y-66979664D01*
X91770543Y-66970532D01*
X91771912Y-66961340D01*
X91772974Y-66952099D01*
X91773732Y-66942818D01*
X91774185Y-66933505D01*
X91774336Y-66924171D01*
X91774106Y-66912831D01*
X91773420Y-66901505D01*
X91772277Y-66890210D01*
X91770680Y-66878966D01*
X91768631Y-66867792D01*
X91766131Y-66856709D01*
X91763182Y-66845734D01*
X91759785Y-66834888D01*
X91755942Y-66824189D01*
X91751655Y-66813657D01*
X91746925Y-66803312D01*
X91741754Y-66793173D01*
X91736144Y-66783258D01*
X91730097Y-66773587D01*
X91723613Y-66764181D01*
X91716694Y-66755057D01*
X91709343Y-66746235D01*
X91701561Y-66737735D01*
X91693349Y-66729576D01*
X91684710Y-66721777D01*
X91675644Y-66714358D01*
X91666154Y-66707337D01*
X91656241Y-66700735D01*
X91645907Y-66694570D01*
X91635153Y-66688862D01*
X91623981Y-66683630D01*
X91612393Y-66678894D01*
X91600390Y-66674672D01*
X91587974Y-66670984D01*
X91575147Y-66667850D01*
X91561910Y-66665289D01*
X91548264Y-66663319D01*
X91539966Y-66662562D01*
X91531773Y-66661879D01*
X91523733Y-66661343D01*
X91515898Y-66661027D01*
X91511530Y-66660975D01*
X91502133Y-66661111D01*
X91492501Y-66661541D01*
X91482662Y-66662299D01*
X91472647Y-66663417D01*
X91462485Y-66664929D01*
X91452207Y-66666868D01*
X91441841Y-66669268D01*
X91431419Y-66672161D01*
X91420969Y-66675580D01*
X91410521Y-66679560D01*
X91400105Y-66684132D01*
X91389751Y-66689331D01*
X91379488Y-66695189D01*
X91369347Y-66701740D01*
X91359358Y-66709017D01*
X91349548Y-66717053D01*
X91340104Y-66725745D01*
X91331128Y-66735043D01*
X91322640Y-66744950D01*
X91314658Y-66755466D01*
X91307204Y-66766593D01*
X91300295Y-66778334D01*
X91293953Y-66790689D01*
X91288195Y-66803661D01*
X91283041Y-66817251D01*
X91278512Y-66831461D01*
X91274626Y-66846293D01*
X91272930Y-66853943D01*
X91271403Y-66861748D01*
X91270046Y-66869710D01*
X91268862Y-66877829D01*
X91267854Y-66886104D01*
X91267023Y-66894536D01*
X91266373Y-66903125D01*
X91265906Y-66911871D01*
X91265624Y-66920775D01*
X91265529Y-66929837D01*
X91265073Y-66939294D01*
X91263712Y-66948302D01*
X91261459Y-66956834D01*
X91258324Y-66964861D01*
X91254319Y-66972358D01*
X91249455Y-66979296D01*
X91243744Y-66985648D01*
X91237197Y-66991386D01*
X91230367Y-66996654D01*
X91223811Y-67001140D01*
X91214529Y-67006536D01*
X91205962Y-67010517D01*
X91198168Y-67013287D01*
X91189080Y-67015455D01*
X91180015Y-67016396D01*
X91172095Y-67016121D01*
X91170567Y-67016006D01*
X91159193Y-67015347D01*
X91147867Y-67013328D01*
X91136823Y-67009890D01*
X91126295Y-67004970D01*
X91116516Y-66998509D01*
X91110529Y-66993315D01*
X91105048Y-66987391D01*
X91100143Y-66980718D01*
X91095882Y-66973280D01*
X91092336Y-66965056D01*
X91089573Y-66956030D01*
X91087663Y-66946184D01*
X91086675Y-66935499D01*
X91086548Y-66929837D01*
X91087467Y-66915426D01*
X91090066Y-66903082D01*
X91094103Y-66892535D01*
X91099340Y-66883516D01*
X91105536Y-66875757D01*
X91112452Y-66868989D01*
X91119848Y-66862941D01*
X91127483Y-66857346D01*
X91135118Y-66851934D01*
X91142514Y-66846436D01*
X91149430Y-66840583D01*
X91155626Y-66834106D01*
X91160863Y-66826736D01*
X91164900Y-66818204D01*
X91167499Y-66808241D01*
X91168418Y-66796578D01*
X91167798Y-66782455D01*
X91165989Y-66769883D01*
X91163071Y-66758824D01*
X91159124Y-66749242D01*
X91154226Y-66741100D01*
X91148457Y-66734360D01*
X91141895Y-66728985D01*
X91134621Y-66724939D01*
X91126713Y-66722183D01*
X91118250Y-66720682D01*
X91109313Y-66720398D01*
X91099979Y-66721294D01*
X91090328Y-66723332D01*
X91080440Y-66726476D01*
X91070393Y-66730689D01*
X91060267Y-66735933D01*
X91050141Y-66742171D01*
X91040095Y-66749367D01*
X91030206Y-66757482D01*
X91020556Y-66766481D01*
X91011222Y-66776326D01*
X91002284Y-66786979D01*
X90993822Y-66798404D01*
X90985914Y-66810564D01*
X90978639Y-66823421D01*
X90972078Y-66836939D01*
X90966309Y-66851080D01*
X90961411Y-66865808D01*
X90957463Y-66881084D01*
X90954546Y-66896873D01*
X90952737Y-66913136D01*
X90952117Y-66929837D01*
X90952260Y-66938882D01*
X90952688Y-66947737D01*
X90953392Y-66956400D01*
X90954367Y-66964873D01*
X90955608Y-66973156D01*
X90957106Y-66981249D01*
X90958857Y-66989153D01*
X90960854Y-66996866D01*
X90963091Y-67004391D01*
X90968260Y-67018874D01*
X90974313Y-67032603D01*
X90981201Y-67045580D01*
X90988874Y-67057808D01*
X90997283Y-67069287D01*
X91006377Y-67080021D01*
X91016107Y-67090012D01*
X91026422Y-67099260D01*
X91037274Y-67107769D01*
X91048612Y-67115540D01*
X91060387Y-67122575D01*
X91066422Y-67125818D01*
X91075329Y-67130337D01*
X91083908Y-67134438D01*
X91092153Y-67138115D01*
X91100054Y-67141363D01*
X91107606Y-67144175D01*
X91117116Y-67147238D01*
X91125972Y-67149503D01*
X91134154Y-67150956D01*
X91143408Y-67151610D01*
X91151868Y-67151686D01*
X91160187Y-67151930D01*
X91168209Y-67152359D01*
X91173889Y-67152782D01*
X91183654Y-67152565D01*
X91193444Y-67151912D01*
X91203237Y-67150822D01*
X91213011Y-67149294D01*
X91222745Y-67147325D01*
X91232415Y-67144915D01*
X91242000Y-67142061D01*
X91251479Y-67138762D01*
X91260829Y-67135017D01*
X91270028Y-67130824D01*
X91279054Y-67126181D01*
X91287886Y-67121087D01*
X91296500Y-67115540D01*
X91304877Y-67109539D01*
X91312992Y-67103081D01*
X91320826Y-67096166D01*
X91328354Y-67088793D01*
X91335556Y-67080958D01*
X91342410Y-67072661D01*
X91348893Y-67063900D01*
X91354984Y-67054674D01*
X91360660Y-67044981D01*
X91365900Y-67034820D01*
X91370682Y-67024188D01*
X91374983Y-67013085D01*
X91378782Y-67001508D01*
X91382057Y-66989457D01*
X91384786Y-66976929D01*
X91386946Y-66963923D01*
X91388517Y-66950437D01*
X91389475Y-66936471D01*
X91389800Y-66922021D01*
X91390517Y-66907265D01*
X91392609Y-66893441D01*
X91395982Y-66880551D01*
X91400546Y-66868599D01*
X91406210Y-66857584D01*
X91412881Y-66847511D01*
X91420467Y-66838379D01*
X91428879Y-66830192D01*
X91438022Y-66822951D01*
X91447807Y-66816659D01*
X91458142Y-66811316D01*
X91468934Y-66806926D01*
X91480093Y-66803489D01*
X91491527Y-66801009D01*
X91503144Y-66799486D01*
X91514852Y-66798923D01*
X91526560Y-66799322D01*
X91538177Y-66800684D01*
X91549611Y-66803012D01*
X91560770Y-66806307D01*
X91571562Y-66810572D01*
X91581897Y-66815809D01*
X91591682Y-66822018D01*
X91600826Y-66829203D01*
X91609237Y-66837365D01*
X91616823Y-66846506D01*
X91623494Y-66856628D01*
X91629158Y-66867733D01*
X91633722Y-66879823D01*
X91637096Y-66892900D01*
X91639187Y-66906965D01*
X91639904Y-66922021D01*
X91639520Y-66932000D01*
X91638386Y-66941766D01*
X91636530Y-66951289D01*
X91633982Y-66960541D01*
X91630769Y-66969492D01*
X91626921Y-66978113D01*
X91622467Y-66986373D01*
X91617434Y-66994244D01*
X91611852Y-67001696D01*
X91605749Y-67008699D01*
X91599153Y-67015224D01*
X91592094Y-67021242D01*
X91584600Y-67026723D01*
X91576699Y-67031637D01*
X91568420Y-67035956D01*
X91559793Y-67039649D01*
X91551510Y-67043368D01*
X91544127Y-67047581D01*
X91537624Y-67052256D01*
X91530290Y-67059153D01*
X91524446Y-67066738D01*
X91520047Y-67074936D01*
X91517050Y-67083672D01*
X91515411Y-67092870D01*
X91515047Y-67100025D01*
X91515518Y-67108384D01*
X91516904Y-67116555D01*
X91519169Y-67124460D01*
X91522277Y-67132021D01*
X91526191Y-67139162D01*
X91530874Y-67145803D01*
X91536290Y-67151867D01*
X91542403Y-67157276D01*
X91548895Y-67162099D01*
X91556803Y-67166592D01*
X91564264Y-67169639D01*
X91572300Y-67171774D01*
X91580796Y-67172829D01*
X91583826Y-67172908D01*
X91592472Y-67172227D01*
X91600430Y-67170469D01*
X91608718Y-67167653D01*
X91612549Y-67166069D01*
G37*
G36*
X91363348Y-65883727D02*
G01*
X91371221Y-65884034D01*
X91380372Y-65884551D01*
X91389727Y-65885156D01*
X91398363Y-65885750D01*
X91408037Y-65886439D01*
X91415983Y-65887018D01*
X91424158Y-65887640D01*
X91432854Y-65888845D01*
X91442066Y-65890628D01*
X91451789Y-65892984D01*
X91462018Y-65895907D01*
X91472749Y-65899394D01*
X91480178Y-65902029D01*
X91487827Y-65904911D01*
X91495694Y-65908038D01*
X91503778Y-65911409D01*
X91512076Y-65915022D01*
X91520587Y-65918876D01*
X91529311Y-65922970D01*
X91538122Y-65927280D01*
X91546822Y-65931854D01*
X91555410Y-65936694D01*
X91563884Y-65941798D01*
X91572244Y-65947167D01*
X91580488Y-65952800D01*
X91588615Y-65958697D01*
X91596625Y-65964858D01*
X91604515Y-65971282D01*
X91612285Y-65977969D01*
X91619934Y-65984919D01*
X91627460Y-65992131D01*
X91634863Y-65999605D01*
X91642141Y-66007341D01*
X91649293Y-66015339D01*
X91656318Y-66023598D01*
X91664278Y-66033466D01*
X91671791Y-66043323D01*
X91678869Y-66053172D01*
X91685525Y-66063015D01*
X91691772Y-66072855D01*
X91697622Y-66082693D01*
X91703089Y-66092531D01*
X91708186Y-66102373D01*
X91712924Y-66112220D01*
X91717316Y-66122074D01*
X91721377Y-66131937D01*
X91725117Y-66141813D01*
X91728551Y-66151702D01*
X91731690Y-66161608D01*
X91734548Y-66171532D01*
X91737137Y-66181477D01*
X91739471Y-66191445D01*
X91741561Y-66201438D01*
X91743421Y-66211458D01*
X91745064Y-66221508D01*
X91746501Y-66231589D01*
X91747747Y-66241705D01*
X91748813Y-66251856D01*
X91749713Y-66262047D01*
X91750459Y-66272277D01*
X91751064Y-66282551D01*
X91751541Y-66292870D01*
X91751903Y-66303236D01*
X91752162Y-66313651D01*
X91752331Y-66324119D01*
X91752424Y-66334640D01*
X91752452Y-66345217D01*
X91752359Y-66353541D01*
X91752188Y-66362123D01*
X91751953Y-66372911D01*
X91751771Y-66381419D01*
X91751577Y-66391041D01*
X91751377Y-66401833D01*
X91751176Y-66413847D01*
X91750982Y-66427138D01*
X91750801Y-66441759D01*
X91750717Y-66449585D01*
X91750638Y-66457764D01*
X91750566Y-66466303D01*
X91750501Y-66475208D01*
X91750443Y-66484486D01*
X91750395Y-66494143D01*
X91750355Y-66504187D01*
X91750326Y-66514624D01*
X91750308Y-66525460D01*
X91750302Y-66536704D01*
X91749967Y-66544300D01*
X91748268Y-66555044D01*
X91745246Y-66564987D01*
X91741029Y-66574106D01*
X91735744Y-66582377D01*
X91729519Y-66589777D01*
X91722481Y-66596284D01*
X91714758Y-66601873D01*
X91706478Y-66606523D01*
X91697767Y-66610208D01*
X91688753Y-66612908D01*
X91687158Y-66613186D01*
X91679017Y-66614498D01*
X91670777Y-66615057D01*
X91668861Y-66615037D01*
X91660684Y-66614480D01*
X91651884Y-66612954D01*
X91642725Y-66610182D01*
X91633468Y-66605887D01*
X91626620Y-66601500D01*
X91619977Y-66595982D01*
X91613651Y-66589218D01*
X91607751Y-66581091D01*
X91602389Y-66571484D01*
X91597619Y-66562202D01*
X91592195Y-66553265D01*
X91586144Y-66544677D01*
X91579494Y-66536444D01*
X91572273Y-66528572D01*
X91564508Y-66521067D01*
X91556227Y-66513932D01*
X91547458Y-66507175D01*
X91538230Y-66500800D01*
X91528568Y-66494813D01*
X91518502Y-66489219D01*
X91508059Y-66484024D01*
X91497267Y-66479233D01*
X91486153Y-66474851D01*
X91474746Y-66470885D01*
X91463073Y-66467339D01*
X91457354Y-66465715D01*
X91446340Y-66462824D01*
X91435908Y-66460378D01*
X91426074Y-66458342D01*
X91416856Y-66456678D01*
X91408272Y-66455351D01*
X91396623Y-66453913D01*
X91386501Y-66453030D01*
X91377965Y-66452581D01*
X91369155Y-66452446D01*
X91360881Y-66452684D01*
X91351608Y-66452796D01*
X91342332Y-66453133D01*
X91333063Y-66453695D01*
X91323812Y-66454486D01*
X91314588Y-66455505D01*
X91305403Y-66456754D01*
X91296264Y-66458236D01*
X91287184Y-66459950D01*
X91278172Y-66461900D01*
X91269237Y-66464085D01*
X91260390Y-66466509D01*
X91251642Y-66469171D01*
X91243001Y-66472073D01*
X91234479Y-66475218D01*
X91226084Y-66478605D01*
X91217828Y-66482238D01*
X91209720Y-66486116D01*
X91201771Y-66490242D01*
X91193990Y-66494617D01*
X91186387Y-66499243D01*
X91178973Y-66504121D01*
X91171757Y-66509251D01*
X91164750Y-66514637D01*
X91157961Y-66520278D01*
X91151402Y-66526178D01*
X91145080Y-66532336D01*
X91139008Y-66538755D01*
X91133195Y-66545435D01*
X91127650Y-66552379D01*
X91122385Y-66559588D01*
X91117408Y-66567063D01*
X91112731Y-66574806D01*
X91107070Y-66583834D01*
X91100933Y-66591435D01*
X91094431Y-66597727D01*
X91087675Y-66602826D01*
X91080776Y-66606851D01*
X91071546Y-66610750D01*
X91062524Y-66613228D01*
X91053971Y-66614565D01*
X91044343Y-66615057D01*
X91035664Y-66614681D01*
X91026983Y-66613374D01*
X91019289Y-66611306D01*
X91011084Y-66608039D01*
X91002509Y-66603310D01*
X90995920Y-66598643D01*
X90989263Y-66592891D01*
X90982598Y-66585943D01*
X90980368Y-66583583D01*
X90975463Y-66577232D01*
X90971501Y-66570260D01*
X90968458Y-66562695D01*
X90966312Y-66554563D01*
X90965041Y-66545890D01*
X90964622Y-66536704D01*
X90964622Y-66376480D01*
X91098076Y-66376480D01*
X91112272Y-66367311D01*
X91126852Y-66358710D01*
X91141792Y-66350682D01*
X91157065Y-66343231D01*
X91172646Y-66336361D01*
X91188510Y-66330075D01*
X91204632Y-66324379D01*
X91220985Y-66319276D01*
X91237545Y-66314770D01*
X91254287Y-66310866D01*
X91271184Y-66307567D01*
X91288212Y-66304878D01*
X91305345Y-66302803D01*
X91322558Y-66301346D01*
X91339824Y-66300510D01*
X91357120Y-66300301D01*
X91374419Y-66300722D01*
X91391696Y-66301778D01*
X91408926Y-66303472D01*
X91426083Y-66305808D01*
X91443142Y-66308792D01*
X91460077Y-66312426D01*
X91476863Y-66316715D01*
X91493475Y-66321663D01*
X91509887Y-66327275D01*
X91526074Y-66333553D01*
X91542010Y-66340503D01*
X91557670Y-66348129D01*
X91573029Y-66356434D01*
X91588061Y-66365423D01*
X91602741Y-66375100D01*
X91617043Y-66385469D01*
X91617043Y-66276829D01*
X91616357Y-66261750D01*
X91614938Y-66247175D01*
X91612813Y-66233102D01*
X91610005Y-66219530D01*
X91606541Y-66206458D01*
X91602446Y-66193884D01*
X91597745Y-66181805D01*
X91592463Y-66170220D01*
X91586627Y-66159129D01*
X91580261Y-66148528D01*
X91573391Y-66138416D01*
X91566042Y-66128792D01*
X91558239Y-66119654D01*
X91550009Y-66111000D01*
X91541375Y-66102828D01*
X91532364Y-66095137D01*
X91523001Y-66087925D01*
X91513312Y-66081191D01*
X91503321Y-66074933D01*
X91493054Y-66069149D01*
X91482536Y-66063837D01*
X91471794Y-66058995D01*
X91460851Y-66054623D01*
X91449734Y-66050719D01*
X91438468Y-66047279D01*
X91427078Y-66044304D01*
X91415589Y-66041792D01*
X91404028Y-66039739D01*
X91392419Y-66038146D01*
X91380788Y-66037010D01*
X91369159Y-66036330D01*
X91357560Y-66036104D01*
X91354183Y-66035890D01*
X91346298Y-66035711D01*
X91336792Y-66036059D01*
X91327822Y-66036839D01*
X91317290Y-66038231D01*
X91309409Y-66039573D01*
X91300846Y-66041297D01*
X91291606Y-66043448D01*
X91281692Y-66046071D01*
X91271109Y-66049209D01*
X91259863Y-66052908D01*
X91254177Y-66054842D01*
X91245767Y-66057990D01*
X91237505Y-66061429D01*
X91229400Y-66065153D01*
X91221461Y-66069159D01*
X91213697Y-66073441D01*
X91206116Y-66077994D01*
X91198726Y-66082814D01*
X91191538Y-66087896D01*
X91184558Y-66093234D01*
X91177797Y-66098825D01*
X91168948Y-66106828D01*
X91160515Y-66115302D01*
X91152518Y-66124249D01*
X91144980Y-66133666D01*
X91137921Y-66143556D01*
X91131364Y-66153917D01*
X91125329Y-66164750D01*
X91119838Y-66176055D01*
X91114913Y-66187831D01*
X91110575Y-66200079D01*
X91106845Y-66212799D01*
X91103746Y-66225990D01*
X91101297Y-66239653D01*
X91099522Y-66253788D01*
X91098441Y-66268395D01*
X91098076Y-66283473D01*
X91098076Y-66376480D01*
X90964622Y-66376480D01*
X90964622Y-66270186D01*
X90964874Y-66261573D01*
X90965805Y-66253335D01*
X90966967Y-66245566D01*
X90968052Y-66234700D01*
X90969401Y-66223975D01*
X90971009Y-66213392D01*
X90972870Y-66202952D01*
X90974981Y-66192656D01*
X90977337Y-66182506D01*
X90979932Y-66172502D01*
X90982763Y-66162646D01*
X90985824Y-66152939D01*
X90989112Y-66143381D01*
X90992621Y-66133975D01*
X90996347Y-66124721D01*
X91000284Y-66115621D01*
X91004430Y-66106675D01*
X91008778Y-66097884D01*
X91013324Y-66089251D01*
X91018063Y-66080775D01*
X91022992Y-66072459D01*
X91028105Y-66064303D01*
X91033397Y-66056309D01*
X91038864Y-66048477D01*
X91044501Y-66040808D01*
X91050304Y-66033305D01*
X91056268Y-66025968D01*
X91062388Y-66018797D01*
X91068660Y-66011795D01*
X91075078Y-66004963D01*
X91081639Y-65998301D01*
X91088338Y-65991811D01*
X91095170Y-65985493D01*
X91102130Y-65979350D01*
X91109214Y-65973382D01*
X91116525Y-65967606D01*
X91123911Y-65962039D01*
X91131368Y-65956677D01*
X91138893Y-65951520D01*
X91146481Y-65946567D01*
X91154128Y-65941815D01*
X91161830Y-65937262D01*
X91169584Y-65932908D01*
X91177386Y-65928750D01*
X91185231Y-65924788D01*
X91193115Y-65921019D01*
X91201036Y-65917442D01*
X91208988Y-65914055D01*
X91216968Y-65910856D01*
X91224972Y-65907845D01*
X91232996Y-65905019D01*
X91241036Y-65902376D01*
X91249088Y-65899916D01*
X91257148Y-65897636D01*
X91265212Y-65895535D01*
X91273277Y-65893612D01*
X91281338Y-65891864D01*
X91289391Y-65890291D01*
X91297433Y-65888889D01*
X91305460Y-65887659D01*
X91313467Y-65886598D01*
X91321450Y-65885705D01*
X91329407Y-65884977D01*
X91337332Y-65884414D01*
X91345222Y-65884014D01*
X91360881Y-65883696D01*
X91363348Y-65883727D01*
G37*
G36*
X91725070Y-65086479D02*
G01*
X91733542Y-65088528D01*
X91741021Y-65092374D01*
X91747428Y-65098466D01*
X91751079Y-65105475D01*
X91752452Y-65114429D01*
X91752452Y-65174806D01*
X91752331Y-65186118D01*
X91751962Y-65195586D01*
X91751333Y-65203437D01*
X91750069Y-65211782D01*
X91747208Y-65220842D01*
X91742293Y-65228339D01*
X91736625Y-65234206D01*
X91729125Y-65240601D01*
X91721900Y-65247180D01*
X91714949Y-65253935D01*
X91708269Y-65260860D01*
X91701857Y-65267948D01*
X91695711Y-65275192D01*
X91689829Y-65282585D01*
X91684207Y-65290122D01*
X91678844Y-65297794D01*
X91673737Y-65305596D01*
X91668883Y-65313520D01*
X91664280Y-65321559D01*
X91659926Y-65329708D01*
X91655818Y-65337959D01*
X91651954Y-65346305D01*
X91648331Y-65354739D01*
X91644946Y-65363256D01*
X91641798Y-65371848D01*
X91638884Y-65380508D01*
X91636201Y-65389229D01*
X91633746Y-65398006D01*
X91631519Y-65406830D01*
X91629515Y-65415696D01*
X91627732Y-65424596D01*
X91626168Y-65433524D01*
X91624821Y-65442473D01*
X91623688Y-65451436D01*
X91622767Y-65460407D01*
X91622054Y-65469378D01*
X91621548Y-65478344D01*
X91621247Y-65487296D01*
X91621147Y-65496229D01*
X91621197Y-65498064D01*
X91621570Y-65506038D01*
X91621896Y-65514394D01*
X91622136Y-65523267D01*
X91622269Y-65531641D01*
X91622319Y-65541170D01*
X91622644Y-65546308D01*
X91623527Y-65554467D01*
X91624883Y-65563170D01*
X91626714Y-65572425D01*
X91629019Y-65582237D01*
X91631797Y-65592612D01*
X91635050Y-65603555D01*
X91637482Y-65611169D01*
X91640124Y-65619041D01*
X91642977Y-65627171D01*
X91646041Y-65635561D01*
X91649315Y-65644214D01*
X91652800Y-65653131D01*
X91656532Y-65662067D01*
X91660473Y-65670850D01*
X91664622Y-65679477D01*
X91668975Y-65687945D01*
X91673533Y-65696251D01*
X91678293Y-65704393D01*
X91683252Y-65712369D01*
X91688411Y-65720176D01*
X91693767Y-65727810D01*
X91699317Y-65735271D01*
X91705061Y-65742555D01*
X91710997Y-65749659D01*
X91717123Y-65756581D01*
X91723438Y-65763318D01*
X91729939Y-65769869D01*
X91736625Y-65776229D01*
X91743105Y-65780958D01*
X91747768Y-65787804D01*
X91750069Y-65795351D01*
X91751333Y-65803669D01*
X91751962Y-65811538D01*
X91752331Y-65821020D01*
X91752452Y-65832307D01*
X91752452Y-65890535D01*
X91751435Y-65899144D01*
X91748421Y-65906508D01*
X91743466Y-65912627D01*
X91736625Y-65917499D01*
X91732977Y-65919148D01*
X91725374Y-65921347D01*
X91717476Y-65921993D01*
X91713958Y-65921958D01*
X91706143Y-65920821D01*
X91640485Y-65890265D01*
X91579077Y-65861744D01*
X91521771Y-65835178D01*
X91468420Y-65810491D01*
X91418877Y-65787603D01*
X91372994Y-65766438D01*
X91330623Y-65746916D01*
X91291617Y-65728959D01*
X91255829Y-65712490D01*
X91223110Y-65697431D01*
X91193314Y-65683702D01*
X91166293Y-65671227D01*
X91141899Y-65659927D01*
X91119985Y-65649724D01*
X91100403Y-65640540D01*
X91083006Y-65632297D01*
X91067647Y-65624916D01*
X91054177Y-65618320D01*
X91042450Y-65612431D01*
X91032317Y-65607169D01*
X91023632Y-65602458D01*
X91016246Y-65598219D01*
X91004784Y-65590846D01*
X90996752Y-65584424D01*
X90990968Y-65578328D01*
X90986252Y-65571934D01*
X90981426Y-65564617D01*
X90979813Y-65562011D01*
X90975599Y-65554359D01*
X90972243Y-65546996D01*
X90968937Y-65537708D01*
X90966753Y-65529124D01*
X90965250Y-65519554D01*
X90964688Y-65511473D01*
X90964631Y-65504240D01*
X91124845Y-65504240D01*
X91143215Y-65512886D01*
X91160929Y-65521204D01*
X91177999Y-65529202D01*
X91194438Y-65536887D01*
X91210260Y-65544267D01*
X91225478Y-65551348D01*
X91240105Y-65558138D01*
X91254153Y-65564645D01*
X91267637Y-65570874D01*
X91280568Y-65576834D01*
X91292961Y-65582532D01*
X91304828Y-65587974D01*
X91316183Y-65593168D01*
X91327038Y-65598122D01*
X91337406Y-65602842D01*
X91347301Y-65607335D01*
X91356736Y-65611610D01*
X91365724Y-65615672D01*
X91374278Y-65619529D01*
X91382411Y-65623189D01*
X91390135Y-65626658D01*
X91397466Y-65629944D01*
X91410994Y-65635994D01*
X91423100Y-65641398D01*
X91433889Y-65646212D01*
X91443466Y-65650495D01*
X91451935Y-65654303D01*
X91455819Y-65656029D01*
X91466258Y-65660640D01*
X91475147Y-65664526D01*
X91482829Y-65667847D01*
X91491788Y-65671669D01*
X91500029Y-65675147D01*
X91508366Y-65678658D01*
X91517614Y-65682580D01*
X91525638Y-65686019D01*
X91534978Y-65690060D01*
X91533087Y-65684794D01*
X91530310Y-65676792D01*
X91527614Y-65668668D01*
X91525010Y-65660423D01*
X91522512Y-65652057D01*
X91520129Y-65643573D01*
X91517873Y-65634970D01*
X91515757Y-65626250D01*
X91513791Y-65617414D01*
X91511988Y-65608463D01*
X91510358Y-65599397D01*
X91509836Y-65596468D01*
X91508387Y-65587923D01*
X91507106Y-65579745D01*
X91505989Y-65571938D01*
X91504746Y-65562117D01*
X91503775Y-65552977D01*
X91503064Y-65544529D01*
X91502522Y-65534961D01*
X91502347Y-65526515D01*
X91502323Y-65521670D01*
X91502158Y-65513240D01*
X91501813Y-65504590D01*
X91501370Y-65496229D01*
X91501486Y-65485089D01*
X91501833Y-65473880D01*
X91502408Y-65462615D01*
X91503208Y-65451307D01*
X91504230Y-65439969D01*
X91505471Y-65428614D01*
X91506928Y-65417256D01*
X91508599Y-65405908D01*
X91510481Y-65394583D01*
X91512571Y-65383294D01*
X91514865Y-65372054D01*
X91517362Y-65360876D01*
X91520057Y-65349774D01*
X91522949Y-65338761D01*
X91526035Y-65327849D01*
X91529311Y-65317053D01*
X91503519Y-65328386D01*
X91498043Y-65331406D01*
X91489758Y-65335835D01*
X91479797Y-65340888D01*
X91471341Y-65345016D01*
X91460813Y-65350041D01*
X91447682Y-65356212D01*
X91439975Y-65359804D01*
X91431419Y-65363776D01*
X91421946Y-65368159D01*
X91411492Y-65372983D01*
X91399988Y-65378279D01*
X91387370Y-65384079D01*
X91373571Y-65390413D01*
X91358524Y-65397313D01*
X91342163Y-65404809D01*
X91324422Y-65412933D01*
X91305234Y-65421716D01*
X91284534Y-65431188D01*
X91262254Y-65441381D01*
X91238329Y-65452325D01*
X91212691Y-65464053D01*
X91185276Y-65476594D01*
X91156016Y-65489979D01*
X91124845Y-65504240D01*
X90964631Y-65504240D01*
X90964622Y-65503068D01*
X90964669Y-65499873D01*
X90965404Y-65489809D01*
X90967113Y-65479178D01*
X90969897Y-65468174D01*
X90972401Y-65460726D01*
X90975461Y-65453254D01*
X90979105Y-65445818D01*
X90983366Y-65438472D01*
X90988273Y-65431276D01*
X90993858Y-65424286D01*
X91000150Y-65417559D01*
X91007181Y-65411152D01*
X91014980Y-65405124D01*
X91023580Y-65399530D01*
X91033010Y-65394429D01*
X91041392Y-65391019D01*
X91050715Y-65386923D01*
X91063144Y-65381382D01*
X91078439Y-65374506D01*
X91096363Y-65366407D01*
X91116679Y-65357196D01*
X91139149Y-65346985D01*
X91163534Y-65335883D01*
X91189596Y-65324004D01*
X91217099Y-65311457D01*
X91245804Y-65298354D01*
X91275474Y-65284807D01*
X91305870Y-65270926D01*
X91336755Y-65256822D01*
X91367891Y-65242607D01*
X91399040Y-65228393D01*
X91429965Y-65214289D01*
X91460427Y-65200408D01*
X91490188Y-65186861D01*
X91519012Y-65173758D01*
X91546660Y-65161211D01*
X91572894Y-65149331D01*
X91597476Y-65138230D01*
X91620169Y-65128019D01*
X91640735Y-65118808D01*
X91658936Y-65110709D01*
X91674535Y-65103833D01*
X91687292Y-65098292D01*
X91696971Y-65094196D01*
X91706143Y-65090786D01*
X91706674Y-65090481D01*
X91713991Y-65087431D01*
X91721970Y-65086292D01*
X91725070Y-65086479D01*
G37*
X111695118Y-53764531D02*
X111728452Y-53797864D01*
X111728452Y-53797864D02*
X111761785Y-53897864D01*
X111761785Y-53897864D02*
X111761785Y-53964531D01*
X111761785Y-53964531D02*
X111728452Y-54064531D01*
X111728452Y-54064531D02*
X111661785Y-54131198D01*
X111661785Y-54131198D02*
X111595118Y-54164531D01*
X111595118Y-54164531D02*
X111461785Y-54197864D01*
X111461785Y-54197864D02*
X111361785Y-54197864D01*
X111361785Y-54197864D02*
X111228452Y-54164531D01*
X111228452Y-54164531D02*
X111161785Y-54131198D01*
X111161785Y-54131198D02*
X111095118Y-54064531D01*
X111095118Y-54064531D02*
X111061785Y-53964531D01*
X111061785Y-53964531D02*
X111061785Y-53897864D01*
X111061785Y-53897864D02*
X111095118Y-53797864D01*
X111095118Y-53797864D02*
X111128452Y-53764531D01*
X111128452Y-53497864D02*
X111095118Y-53464531D01*
X111095118Y-53464531D02*
X111061785Y-53397864D01*
X111061785Y-53397864D02*
X111061785Y-53231198D01*
X111061785Y-53231198D02*
X111095118Y-53164531D01*
X111095118Y-53164531D02*
X111128452Y-53131198D01*
X111128452Y-53131198D02*
X111195118Y-53097864D01*
X111195118Y-53097864D02*
X111261785Y-53097864D01*
X111261785Y-53097864D02*
X111361785Y-53131198D01*
X111361785Y-53131198D02*
X111761785Y-53531198D01*
X111761785Y-53531198D02*
X111761785Y-53097864D01*
X103127618Y-53764531D02*
X103160952Y-53797864D01*
X103160952Y-53797864D02*
X103194285Y-53897864D01*
X103194285Y-53897864D02*
X103194285Y-53964531D01*
X103194285Y-53964531D02*
X103160952Y-54064531D01*
X103160952Y-54064531D02*
X103094285Y-54131198D01*
X103094285Y-54131198D02*
X103027618Y-54164531D01*
X103027618Y-54164531D02*
X102894285Y-54197864D01*
X102894285Y-54197864D02*
X102794285Y-54197864D01*
X102794285Y-54197864D02*
X102660952Y-54164531D01*
X102660952Y-54164531D02*
X102594285Y-54131198D01*
X102594285Y-54131198D02*
X102527618Y-54064531D01*
X102527618Y-54064531D02*
X102494285Y-53964531D01*
X102494285Y-53964531D02*
X102494285Y-53897864D01*
X102494285Y-53897864D02*
X102527618Y-53797864D01*
X102527618Y-53797864D02*
X102560952Y-53764531D01*
X103194285Y-53097864D02*
X103194285Y-53497864D01*
X103194285Y-53297864D02*
X102494285Y-53297864D01*
X102494285Y-53297864D02*
X102594285Y-53364531D01*
X102594285Y-53364531D02*
X102660952Y-53431198D01*
X102660952Y-53431198D02*
X102694285Y-53497864D01*
X117137118Y-77459198D02*
X117137118Y-77959198D01*
X117137118Y-77959198D02*
X117103785Y-78059198D01*
X117103785Y-78059198D02*
X117037118Y-78125865D01*
X117037118Y-78125865D02*
X116937118Y-78159198D01*
X116937118Y-78159198D02*
X116870452Y-78159198D01*
X117803785Y-77459198D02*
X117470451Y-77459198D01*
X117470451Y-77459198D02*
X117437118Y-77792531D01*
X117437118Y-77792531D02*
X117470451Y-77759198D01*
X117470451Y-77759198D02*
X117537118Y-77725865D01*
X117537118Y-77725865D02*
X117703785Y-77725865D01*
X117703785Y-77725865D02*
X117770451Y-77759198D01*
X117770451Y-77759198D02*
X117803785Y-77792531D01*
X117803785Y-77792531D02*
X117837118Y-77859198D01*
X117837118Y-77859198D02*
X117837118Y-78025865D01*
X117837118Y-78025865D02*
X117803785Y-78092531D01*
X117803785Y-78092531D02*
X117770451Y-78125865D01*
X117770451Y-78125865D02*
X117703785Y-78159198D01*
X117703785Y-78159198D02*
X117537118Y-78159198D01*
X117537118Y-78159198D02*
X117470451Y-78125865D01*
X117470451Y-78125865D02*
X117437118Y-78092531D01*
X109137118Y-77459198D02*
X109137118Y-77959198D01*
X109137118Y-77959198D02*
X109103785Y-78059198D01*
X109103785Y-78059198D02*
X109037118Y-78125865D01*
X109037118Y-78125865D02*
X108937118Y-78159198D01*
X108937118Y-78159198D02*
X108870452Y-78159198D01*
X109770451Y-77692531D02*
X109770451Y-78159198D01*
X109603785Y-77425865D02*
X109437118Y-77925865D01*
X109437118Y-77925865D02*
X109870451Y-77925865D01*
X101237118Y-77459198D02*
X101237118Y-77959198D01*
X101237118Y-77959198D02*
X101203785Y-78059198D01*
X101203785Y-78059198D02*
X101137118Y-78125865D01*
X101137118Y-78125865D02*
X101037118Y-78159198D01*
X101037118Y-78159198D02*
X100970452Y-78159198D01*
X101503785Y-77459198D02*
X101937118Y-77459198D01*
X101937118Y-77459198D02*
X101703785Y-77725865D01*
X101703785Y-77725865D02*
X101803785Y-77725865D01*
X101803785Y-77725865D02*
X101870451Y-77759198D01*
X101870451Y-77759198D02*
X101903785Y-77792531D01*
X101903785Y-77792531D02*
X101937118Y-77859198D01*
X101937118Y-77859198D02*
X101937118Y-78025865D01*
X101937118Y-78025865D02*
X101903785Y-78092531D01*
X101903785Y-78092531D02*
X101870451Y-78125865D01*
X101870451Y-78125865D02*
X101803785Y-78159198D01*
X101803785Y-78159198D02*
X101603785Y-78159198D01*
X101603785Y-78159198D02*
X101537118Y-78125865D01*
X101537118Y-78125865D02*
X101503785Y-78092531D01*
X93187118Y-77459198D02*
X93187118Y-77959198D01*
X93187118Y-77959198D02*
X93153785Y-78059198D01*
X93153785Y-78059198D02*
X93087118Y-78125865D01*
X93087118Y-78125865D02*
X92987118Y-78159198D01*
X92987118Y-78159198D02*
X92920452Y-78159198D01*
X93487118Y-77525865D02*
X93520451Y-77492531D01*
X93520451Y-77492531D02*
X93587118Y-77459198D01*
X93587118Y-77459198D02*
X93753785Y-77459198D01*
X93753785Y-77459198D02*
X93820451Y-77492531D01*
X93820451Y-77492531D02*
X93853785Y-77525865D01*
X93853785Y-77525865D02*
X93887118Y-77592531D01*
X93887118Y-77592531D02*
X93887118Y-77659198D01*
X93887118Y-77659198D02*
X93853785Y-77759198D01*
X93853785Y-77759198D02*
X93453785Y-78159198D01*
X93453785Y-78159198D02*
X93887118Y-78159198D01*
X101687118Y-59834198D02*
X101687118Y-60400865D01*
X101687118Y-60400865D02*
X101720452Y-60467531D01*
X101720452Y-60467531D02*
X101753785Y-60500865D01*
X101753785Y-60500865D02*
X101820452Y-60534198D01*
X101820452Y-60534198D02*
X101953785Y-60534198D01*
X101953785Y-60534198D02*
X102020452Y-60500865D01*
X102020452Y-60500865D02*
X102053785Y-60467531D01*
X102053785Y-60467531D02*
X102087118Y-60400865D01*
X102087118Y-60400865D02*
X102087118Y-59834198D01*
X102787118Y-60534198D02*
X102387118Y-60534198D01*
X102587118Y-60534198D02*
X102587118Y-59834198D01*
X102587118Y-59834198D02*
X102520451Y-59934198D01*
X102520451Y-59934198D02*
X102453785Y-60000865D01*
X102453785Y-60000865D02*
X102387118Y-60034198D01*
X106549618Y-50959198D02*
X106549618Y-51525865D01*
X106549618Y-51525865D02*
X106582952Y-51592531D01*
X106582952Y-51592531D02*
X106616285Y-51625865D01*
X106616285Y-51625865D02*
X106682952Y-51659198D01*
X106682952Y-51659198D02*
X106816285Y-51659198D01*
X106816285Y-51659198D02*
X106882952Y-51625865D01*
X106882952Y-51625865D02*
X106916285Y-51592531D01*
X106916285Y-51592531D02*
X106949618Y-51525865D01*
X106949618Y-51525865D02*
X106949618Y-50959198D01*
X107249618Y-51025865D02*
X107282951Y-50992531D01*
X107282951Y-50992531D02*
X107349618Y-50959198D01*
X107349618Y-50959198D02*
X107516285Y-50959198D01*
X107516285Y-50959198D02*
X107582951Y-50992531D01*
X107582951Y-50992531D02*
X107616285Y-51025865D01*
X107616285Y-51025865D02*
X107649618Y-51092531D01*
X107649618Y-51092531D02*
X107649618Y-51159198D01*
X107649618Y-51159198D02*
X107616285Y-51259198D01*
X107616285Y-51259198D02*
X107216285Y-51659198D01*
X107216285Y-51659198D02*
X107649618Y-51659198D01*
G36*
X96426228Y-74804345D02*
G01*
X96426228Y-75444425D01*
X96426228Y-76233095D01*
X96426228Y-76857935D01*
X96426228Y-77122518D01*
X94973772Y-77558255D01*
X94973772Y-77122518D01*
X94973772Y-76857935D01*
X94973772Y-76399465D01*
X95262485Y-76399465D01*
X95272962Y-76491858D01*
X95299315Y-76578535D01*
X95339796Y-76656958D01*
X95392660Y-76724585D01*
X95456954Y-76780148D01*
X95531725Y-76822375D01*
X95615227Y-76849045D01*
X95705715Y-76857935D01*
X95796520Y-76848886D01*
X95880975Y-76821740D01*
X95957016Y-76778719D01*
X96022580Y-76722045D01*
X96076396Y-76652830D01*
X96117195Y-76572185D01*
X96142913Y-76482333D01*
X96151485Y-76385495D01*
X96151485Y-76233095D01*
X96127990Y-76177215D01*
X96075920Y-76158165D01*
X96023850Y-76176580D01*
X96000355Y-76233095D01*
X96000355Y-76374065D01*
X95989560Y-76469474D01*
X95957175Y-76547420D01*
X95908439Y-76607904D01*
X95848590Y-76650925D01*
X95780486Y-76676643D01*
X95706985Y-76685215D01*
X95633484Y-76676960D01*
X95565380Y-76652195D01*
X95505531Y-76610603D01*
X95456795Y-76551865D01*
X95424410Y-76476618D01*
X95413615Y-76385495D01*
X95413615Y-76233095D01*
X95390120Y-76176580D01*
X95338050Y-76158165D01*
X95285980Y-76177215D01*
X95262485Y-76233095D01*
X95262485Y-76399465D01*
X94973772Y-76399465D01*
X94973772Y-75976555D01*
X95262485Y-75976555D01*
X95282170Y-76030530D01*
X95339955Y-76055295D01*
X96074015Y-76055295D01*
X96132435Y-76031800D01*
X96151485Y-75979095D01*
X96131800Y-75925120D01*
X96074015Y-75900355D01*
X95781915Y-75900355D01*
X95750165Y-75802565D01*
X95741275Y-75711125D01*
X95746990Y-75636195D01*
X95759690Y-75576505D01*
X95773660Y-75537135D01*
X95783185Y-75523165D01*
X96074015Y-75523165D01*
X96131800Y-75498400D01*
X96151485Y-75444425D01*
X96131800Y-75391085D01*
X96074015Y-75366955D01*
X95339955Y-75366955D01*
X95281535Y-75391085D01*
X95262485Y-75444425D01*
X95281535Y-75498400D01*
X95339955Y-75523165D01*
X95630785Y-75523165D01*
X95628245Y-75537135D01*
X95619990Y-75575870D01*
X95611100Y-75635560D01*
X95606655Y-75713665D01*
X95612370Y-75801295D01*
X95632055Y-75900355D01*
X95339955Y-75900355D01*
X95281535Y-75923850D01*
X95262485Y-75976555D01*
X94973772Y-75976555D01*
X94973772Y-74804345D01*
X95238355Y-74804345D01*
X95247404Y-74896737D01*
X95274550Y-74983415D01*
X95317412Y-75061996D01*
X95373610Y-75130100D01*
X95441714Y-75186298D01*
X95520295Y-75229160D01*
X95606973Y-75256306D01*
X95699365Y-75265355D01*
X95791916Y-75256306D01*
X95879070Y-75229160D01*
X95958128Y-75186298D01*
X96026390Y-75130100D01*
X96082588Y-75061996D01*
X96125450Y-74983415D01*
X96152596Y-74896737D01*
X96161645Y-74804345D01*
X96152596Y-74711794D01*
X96125450Y-74624640D01*
X96082588Y-74545583D01*
X96026390Y-74477320D01*
X95958128Y-74421122D01*
X95879070Y-74378260D01*
X95791916Y-74351114D01*
X95699365Y-74342065D01*
X95606973Y-74351114D01*
X95520295Y-74378260D01*
X95441714Y-74421122D01*
X95373610Y-74477320D01*
X95317412Y-74545583D01*
X95274550Y-74624640D01*
X95247404Y-74711794D01*
X95238355Y-74804345D01*
X94973772Y-74804345D01*
X94973772Y-74342065D01*
X94973772Y-74077482D01*
X94973772Y-73641745D01*
X96426228Y-74077482D01*
X96426228Y-74342065D01*
X96426228Y-74804345D01*
G37*
G36*
X95758420Y-74503831D02*
G01*
X95815570Y-74520500D01*
X95869069Y-74548281D01*
X95916535Y-74587175D01*
X95955429Y-74634641D01*
X95983210Y-74688140D01*
X95999879Y-74745131D01*
X96005435Y-74803075D01*
X95999879Y-74861971D01*
X95983210Y-74919280D01*
X95955429Y-74972779D01*
X95916535Y-75020245D01*
X95868116Y-75059298D01*
X95814300Y-75087555D01*
X95757309Y-75104700D01*
X95699365Y-75110415D01*
X95641421Y-75104700D01*
X95584430Y-75087555D01*
X95530931Y-75059298D01*
X95483465Y-75020245D01*
X95444412Y-74972779D01*
X95416155Y-74919280D01*
X95399010Y-74862289D01*
X95393295Y-74804345D01*
X95399010Y-74745449D01*
X95416155Y-74688140D01*
X95444412Y-74634641D01*
X95483465Y-74587175D01*
X95530931Y-74548281D01*
X95584430Y-74520500D01*
X95641580Y-74503831D01*
X95700000Y-74498275D01*
X95758420Y-74503831D01*
G37*
G36*
X96909083Y-70326240D02*
G01*
X96909083Y-70738990D01*
X96909083Y-71527660D01*
X96909083Y-72434860D01*
X96909083Y-72699443D01*
X96909083Y-73124893D01*
X95490917Y-72699443D01*
X95490917Y-72434860D01*
X95490917Y-71694030D01*
X95755500Y-71694030D01*
X95765978Y-71786423D01*
X95792330Y-71873100D01*
X95832811Y-71951523D01*
X95885675Y-72019150D01*
X95949969Y-72074713D01*
X96024740Y-72116940D01*
X96108242Y-72143610D01*
X96198730Y-72152500D01*
X96289535Y-72143451D01*
X96373990Y-72116305D01*
X96450031Y-72073284D01*
X96515595Y-72016610D01*
X96569411Y-71947395D01*
X96610210Y-71866750D01*
X96635928Y-71776898D01*
X96644500Y-71680060D01*
X96644500Y-71527660D01*
X96621005Y-71471780D01*
X96568935Y-71452730D01*
X96516865Y-71471145D01*
X96493370Y-71527660D01*
X96493370Y-71668630D01*
X96482575Y-71764039D01*
X96450190Y-71841985D01*
X96401454Y-71902469D01*
X96341605Y-71945490D01*
X96273501Y-71971208D01*
X96200000Y-71979780D01*
X96126499Y-71971525D01*
X96058395Y-71946760D01*
X95998546Y-71905168D01*
X95949810Y-71846430D01*
X95917425Y-71771183D01*
X95906630Y-71680060D01*
X95906630Y-71527660D01*
X95883135Y-71471145D01*
X95831065Y-71452730D01*
X95778995Y-71471780D01*
X95755500Y-71527660D01*
X95755500Y-71694030D01*
X95490917Y-71694030D01*
X95490917Y-71271120D01*
X95755500Y-71271120D01*
X95775185Y-71325095D01*
X95832970Y-71349860D01*
X96567030Y-71349860D01*
X96625450Y-71326365D01*
X96644500Y-71273660D01*
X96624815Y-71219685D01*
X96567030Y-71194920D01*
X96274930Y-71194920D01*
X96243180Y-71097130D01*
X96234290Y-71005690D01*
X96240005Y-70930760D01*
X96252705Y-70871070D01*
X96266675Y-70831700D01*
X96276200Y-70817730D01*
X96567030Y-70817730D01*
X96624815Y-70792965D01*
X96644500Y-70738990D01*
X96624815Y-70685650D01*
X96567030Y-70661520D01*
X95832970Y-70661520D01*
X95774550Y-70685650D01*
X95755500Y-70738990D01*
X95774550Y-70792965D01*
X95832970Y-70817730D01*
X96123800Y-70817730D01*
X96121260Y-70831700D01*
X96113005Y-70870435D01*
X96104115Y-70930125D01*
X96099670Y-71008230D01*
X96105385Y-71095860D01*
X96125070Y-71194920D01*
X95832970Y-71194920D01*
X95774550Y-71218415D01*
X95755500Y-71271120D01*
X95490917Y-71271120D01*
X95490917Y-70488800D01*
X95763120Y-70488800D01*
X95780900Y-70540235D01*
X95835510Y-70559920D01*
X95883770Y-70545315D01*
X95910440Y-70507850D01*
X95963780Y-70432920D01*
X96052680Y-70402440D01*
X96559410Y-70402440D01*
X96617830Y-70378945D01*
X96636880Y-70326240D01*
X96617195Y-70272265D01*
X96559410Y-70247500D01*
X96052680Y-70247500D01*
X95989656Y-70254803D01*
X95932665Y-70274170D01*
X95882817Y-70302269D01*
X95841225Y-70335765D01*
X95783440Y-70413235D01*
X95763120Y-70488800D01*
X95490917Y-70488800D01*
X95490917Y-69965140D01*
X95490917Y-69700557D01*
X96909083Y-69275107D01*
X96909083Y-69700557D01*
X96909083Y-69965140D01*
X96909083Y-70326240D01*
G37*
G36*
X104812258Y-72356860D02*
G01*
X104812258Y-73031230D01*
X104812258Y-73819900D01*
X104812258Y-74584860D01*
X104812258Y-74849443D01*
X104812258Y-75276798D01*
X103387742Y-74849443D01*
X103387742Y-74584860D01*
X103387742Y-73986270D01*
X103658675Y-73986270D01*
X103669152Y-74078663D01*
X103695505Y-74165340D01*
X103735986Y-74243763D01*
X103788850Y-74311390D01*
X103853144Y-74366953D01*
X103927915Y-74409180D01*
X104011418Y-74435850D01*
X104101905Y-74444740D01*
X104192710Y-74435691D01*
X104277165Y-74408545D01*
X104353206Y-74365524D01*
X104418770Y-74308850D01*
X104472586Y-74239635D01*
X104513385Y-74158990D01*
X104539103Y-74069138D01*
X104547675Y-73972300D01*
X104547675Y-73819900D01*
X104524180Y-73764020D01*
X104472110Y-73744970D01*
X104420040Y-73763385D01*
X104396545Y-73819900D01*
X104396545Y-73960870D01*
X104385750Y-74056279D01*
X104353365Y-74134225D01*
X104304629Y-74194709D01*
X104244780Y-74237730D01*
X104176676Y-74263448D01*
X104103175Y-74272020D01*
X104029674Y-74263765D01*
X103961570Y-74239000D01*
X103901721Y-74197408D01*
X103852985Y-74138670D01*
X103820600Y-74063423D01*
X103809805Y-73972300D01*
X103809805Y-73819900D01*
X103786310Y-73763385D01*
X103734240Y-73744970D01*
X103682170Y-73764020D01*
X103658675Y-73819900D01*
X103658675Y-73986270D01*
X103387742Y-73986270D01*
X103387742Y-73563360D01*
X103658675Y-73563360D01*
X103678360Y-73617335D01*
X103736145Y-73642100D01*
X104470205Y-73642100D01*
X104528625Y-73618605D01*
X104547675Y-73565900D01*
X104527990Y-73511925D01*
X104470205Y-73487160D01*
X104178105Y-73487160D01*
X104146355Y-73389370D01*
X104137465Y-73297930D01*
X104143180Y-73223000D01*
X104155880Y-73163310D01*
X104169850Y-73123940D01*
X104179375Y-73109970D01*
X104470205Y-73109970D01*
X104527990Y-73085205D01*
X104547675Y-73031230D01*
X104527990Y-72977890D01*
X104470205Y-72953760D01*
X103736145Y-72953760D01*
X103677725Y-72977890D01*
X103658675Y-73031230D01*
X103677725Y-73085205D01*
X103736145Y-73109970D01*
X104026975Y-73109970D01*
X104024435Y-73123940D01*
X104016180Y-73162675D01*
X104007290Y-73222365D01*
X104002845Y-73300470D01*
X104008560Y-73388100D01*
X104028245Y-73487160D01*
X103736145Y-73487160D01*
X103677725Y-73510655D01*
X103658675Y-73563360D01*
X103387742Y-73563360D01*
X103387742Y-72717540D01*
X103652325Y-72717540D01*
X103676455Y-72774690D01*
X103729160Y-72793105D01*
X103781230Y-72773420D01*
X103804725Y-72717540D01*
X103804725Y-72552440D01*
X103814885Y-72498465D01*
X103843460Y-72452745D01*
X103887275Y-72421630D01*
X103941885Y-72410200D01*
X103994431Y-72419408D01*
X104037770Y-72444490D01*
X104074600Y-72481638D01*
X104107620Y-72527040D01*
X104137941Y-72578316D01*
X104166675Y-72633085D01*
X104196679Y-72687695D01*
X104230810Y-72738495D01*
X104270021Y-72783263D01*
X104315265Y-72819775D01*
X104369240Y-72844064D01*
X104434645Y-72852160D01*
X104466395Y-72852160D01*
X104519100Y-72830570D01*
X104541325Y-72777230D01*
X104541325Y-72356860D01*
X104517830Y-72300345D01*
X104465760Y-72281930D01*
X104413055Y-72300345D01*
X104388925Y-72356860D01*
X104388925Y-72668010D01*
X104347650Y-72648325D01*
X104313360Y-72600700D01*
X104280975Y-72534660D01*
X104244145Y-72459095D01*
X104197155Y-72383530D01*
X104134925Y-72318125D01*
X104051740Y-72272405D01*
X104000464Y-72259546D01*
X103941885Y-72255260D01*
X103885846Y-72260816D01*
X103832030Y-72277485D01*
X103782500Y-72303996D01*
X103739320Y-72339080D01*
X103703442Y-72382101D01*
X103675820Y-72432425D01*
X103658199Y-72489099D01*
X103652325Y-72551170D01*
X103652325Y-72717540D01*
X103387742Y-72717540D01*
X103387742Y-72115140D01*
X103387742Y-71850557D01*
X104812258Y-71423202D01*
X104812258Y-71850557D01*
X104812258Y-72115140D01*
X104812258Y-72356860D01*
G37*
G36*
X112830038Y-72563235D02*
G01*
X112830038Y-73022975D01*
X112830038Y-73811645D01*
X112830038Y-74584860D01*
X112830038Y-74849443D01*
X112830038Y-75287466D01*
X111369962Y-74849443D01*
X111369962Y-74584860D01*
X111369962Y-73978015D01*
X111665025Y-73978015D01*
X111675503Y-74070407D01*
X111701855Y-74157085D01*
X111742336Y-74235507D01*
X111795200Y-74303135D01*
X111859494Y-74358697D01*
X111934265Y-74400925D01*
X112017767Y-74427595D01*
X112108255Y-74436485D01*
X112199060Y-74427436D01*
X112283515Y-74400290D01*
X112359556Y-74357269D01*
X112425120Y-74300595D01*
X112478936Y-74231380D01*
X112519735Y-74150735D01*
X112545453Y-74060882D01*
X112554025Y-73964045D01*
X112554025Y-73811645D01*
X112530530Y-73755765D01*
X112478460Y-73736715D01*
X112426390Y-73755130D01*
X112402895Y-73811645D01*
X112402895Y-73952615D01*
X112392100Y-74048024D01*
X112359715Y-74125970D01*
X112310979Y-74186454D01*
X112251130Y-74229475D01*
X112183026Y-74255192D01*
X112109525Y-74263765D01*
X112036024Y-74255510D01*
X111967920Y-74230745D01*
X111908071Y-74189152D01*
X111859335Y-74130415D01*
X111826950Y-74055167D01*
X111816155Y-73964045D01*
X111816155Y-73811645D01*
X111792660Y-73755130D01*
X111740590Y-73736715D01*
X111688520Y-73755765D01*
X111665025Y-73811645D01*
X111665025Y-73978015D01*
X111369962Y-73978015D01*
X111369962Y-73555105D01*
X111665025Y-73555105D01*
X111684710Y-73609080D01*
X111742495Y-73633845D01*
X112476555Y-73633845D01*
X112534975Y-73610350D01*
X112554025Y-73557645D01*
X112534340Y-73503670D01*
X112476555Y-73478905D01*
X112184455Y-73478905D01*
X112152705Y-73381115D01*
X112143815Y-73289675D01*
X112149530Y-73214745D01*
X112162230Y-73155055D01*
X112176200Y-73115685D01*
X112185725Y-73101715D01*
X112476555Y-73101715D01*
X112534340Y-73076950D01*
X112554025Y-73022975D01*
X112534340Y-72969635D01*
X112476555Y-72945505D01*
X111742495Y-72945505D01*
X111684075Y-72969635D01*
X111665025Y-73022975D01*
X111684075Y-73076950D01*
X111742495Y-73101715D01*
X112033325Y-73101715D01*
X112030785Y-73115685D01*
X112022530Y-73154420D01*
X112013640Y-73214110D01*
X112009195Y-73292215D01*
X112014910Y-73379845D01*
X112034595Y-73478905D01*
X111742495Y-73478905D01*
X111684075Y-73502400D01*
X111665025Y-73555105D01*
X111369962Y-73555105D01*
X111369962Y-72574665D01*
X111634545Y-72574665D01*
X111652960Y-72671185D01*
X111698680Y-72745480D01*
X111758370Y-72793740D01*
X111818060Y-72812155D01*
X111863780Y-72797550D01*
X111882195Y-72744845D01*
X111867590Y-72685790D01*
X111834570Y-72657215D01*
X111801550Y-72629910D01*
X111786945Y-72574665D01*
X111819330Y-72499735D01*
X111891085Y-72478780D01*
X111962840Y-72505450D01*
X111995225Y-72574665D01*
X112017450Y-72631180D01*
X112065710Y-72649595D01*
X112113970Y-72631180D01*
X112136195Y-72578475D01*
X112147625Y-72511165D01*
X112178740Y-72462270D01*
X112223190Y-72432425D01*
X112274625Y-72422265D01*
X112333045Y-72434965D01*
X112376225Y-72467350D01*
X112403530Y-72513070D01*
X112413055Y-72565775D01*
X112391465Y-72641975D01*
X112322885Y-72695315D01*
X112292405Y-72716905D01*
X112278435Y-72743575D01*
X112274625Y-72763895D01*
X112274625Y-72767705D01*
X112296215Y-72827395D01*
X112350190Y-72843270D01*
X112420040Y-72820410D01*
X112489890Y-72763260D01*
X112543865Y-72676265D01*
X112560058Y-72622607D01*
X112565455Y-72563235D01*
X112558629Y-72496719D01*
X112538150Y-72436870D01*
X112506718Y-72384800D01*
X112467030Y-72341620D01*
X112420040Y-72307648D01*
X112366700Y-72283200D01*
X112309868Y-72269389D01*
X112252400Y-72267325D01*
X112195409Y-72277326D01*
X112140005Y-72299710D01*
X112088570Y-72335111D01*
X112043485Y-72384165D01*
X111958395Y-72334000D01*
X111867590Y-72322570D01*
X111779960Y-72345430D01*
X111705030Y-72398135D01*
X111653595Y-72476240D01*
X111634545Y-72574665D01*
X111369962Y-72574665D01*
X111369962Y-72115140D01*
X111369962Y-71850557D01*
X112830038Y-71412534D01*
X112830038Y-71850557D01*
X112830038Y-72115140D01*
X112830038Y-72563235D01*
G37*
G36*
X108632418Y-56485321D02*
G01*
X108751183Y-56563903D01*
X108828872Y-56684156D01*
X108854768Y-56835365D01*
X108828872Y-56984788D01*
X108751183Y-57104446D01*
X108632418Y-57183028D01*
X108483293Y-57209221D01*
X107980849Y-57209221D01*
X107980849Y-56459128D01*
X108483293Y-56459128D01*
X108632418Y-56485321D01*
G37*
G36*
X113886349Y-58105365D02*
G01*
X112950518Y-58105365D01*
X112014686Y-58105365D01*
X110624036Y-58105365D01*
X108454718Y-58105365D01*
X107409349Y-58105365D01*
X105361474Y-58105365D01*
X104865380Y-58105365D01*
X104865380Y-57609271D01*
X105361474Y-57609271D01*
X105821055Y-57609271D01*
X106387793Y-56542471D01*
X106652111Y-57040152D01*
X106278255Y-57040152D01*
X106102043Y-57371146D01*
X106828324Y-57371146D01*
X106956911Y-57609271D01*
X107409349Y-57609271D01*
X107564130Y-57609271D01*
X108454718Y-57609271D01*
X108625349Y-57595802D01*
X108780056Y-57555395D01*
X108918838Y-57488051D01*
X109041696Y-57393768D01*
X109142229Y-57278054D01*
X109214039Y-57146416D01*
X109257124Y-56998853D01*
X109271486Y-56835365D01*
X109257124Y-56671877D01*
X109215864Y-56530565D01*
X109428649Y-56530565D01*
X109444127Y-56660079D01*
X109490561Y-56772394D01*
X109567952Y-56867512D01*
X109669420Y-56939611D01*
X109788085Y-56982870D01*
X109923949Y-56997290D01*
X110604986Y-56997290D01*
X110678805Y-57025865D01*
X110707380Y-57104446D01*
X110678805Y-57181837D01*
X110604986Y-57209221D01*
X109447699Y-57209221D01*
X109447699Y-57609271D01*
X110624036Y-57609271D01*
X110761223Y-57594719D01*
X110880682Y-57551063D01*
X110982414Y-57478303D01*
X111059805Y-57381994D01*
X111106239Y-57267694D01*
X111121718Y-57135403D01*
X111106239Y-57005757D01*
X111059805Y-56893044D01*
X110982414Y-56797265D01*
X110880682Y-56724505D01*
X110761223Y-56680848D01*
X110624036Y-56666296D01*
X109942999Y-56666296D01*
X109870371Y-56637721D01*
X109842986Y-56561521D01*
X109870371Y-56485321D01*
X109936397Y-56461509D01*
X111243161Y-56461509D01*
X111428899Y-56461509D01*
X111551533Y-56507943D01*
X111597968Y-56628196D01*
X111597968Y-57609271D01*
X112014686Y-57609271D01*
X112014686Y-56544853D01*
X112004649Y-56461509D01*
X112178993Y-56461509D01*
X112364730Y-56461509D01*
X112487364Y-56507943D01*
X112533799Y-56628196D01*
X112533799Y-57609271D01*
X112950518Y-57609271D01*
X112950518Y-56544853D01*
X112940480Y-56461509D01*
X113114824Y-56461509D01*
X113300561Y-56461509D01*
X113423196Y-56507943D01*
X113469630Y-56628196D01*
X113469630Y-57609271D01*
X113886349Y-57609271D01*
X114133999Y-57609271D01*
X115167461Y-57609271D01*
X115307823Y-57594719D01*
X115430457Y-57551063D01*
X115535364Y-57478303D01*
X115615401Y-57381994D01*
X115663423Y-57267694D01*
X115679430Y-57135403D01*
X115663555Y-57006947D01*
X115615930Y-56894632D01*
X115536555Y-56798456D01*
X115433103Y-56725034D01*
X115313247Y-56680981D01*
X115176986Y-56666296D01*
X114531668Y-56666296D01*
X114531668Y-56459128D01*
X115612755Y-56459128D01*
X115612755Y-56061459D01*
X114133999Y-56061459D01*
X114133999Y-56997290D01*
X115160318Y-56997290D01*
X115231755Y-57027056D01*
X115260330Y-57104446D01*
X115229374Y-57181837D01*
X115148411Y-57209221D01*
X114133999Y-57209221D01*
X114133999Y-57609271D01*
X113886349Y-57609271D01*
X113886349Y-56544853D01*
X113870209Y-56410841D01*
X113821791Y-56294557D01*
X113741093Y-56195999D01*
X113635524Y-56121255D01*
X113512493Y-56076408D01*
X113371999Y-56061459D01*
X113114824Y-56061459D01*
X113114824Y-56461509D01*
X112940480Y-56461509D01*
X112934378Y-56410841D01*
X112885959Y-56294557D01*
X112805261Y-56195999D01*
X112699693Y-56121255D01*
X112576661Y-56076408D01*
X112436168Y-56061459D01*
X112178993Y-56061459D01*
X112178993Y-56461509D01*
X112004649Y-56461509D01*
X111998547Y-56410841D01*
X111950128Y-56294557D01*
X111869430Y-56195999D01*
X111763861Y-56121255D01*
X111640830Y-56076408D01*
X111500336Y-56061459D01*
X111243161Y-56061459D01*
X111243161Y-56461509D01*
X109936397Y-56461509D01*
X109942999Y-56459128D01*
X111100286Y-56459128D01*
X111100286Y-56061459D01*
X109923949Y-56061459D01*
X109788085Y-56075879D01*
X109669420Y-56119138D01*
X109567952Y-56191237D01*
X109490561Y-56286619D01*
X109444127Y-56399729D01*
X109428649Y-56530565D01*
X109215864Y-56530565D01*
X109214039Y-56524314D01*
X109142229Y-56392676D01*
X109041696Y-56276962D01*
X108918838Y-56182679D01*
X108780056Y-56115335D01*
X108625349Y-56074928D01*
X108454718Y-56061459D01*
X107564130Y-56061459D01*
X107564130Y-57609271D01*
X107409349Y-57609271D01*
X106618774Y-56175759D01*
X106540193Y-56090034D01*
X106433036Y-56061459D01*
X106337786Y-56061459D01*
X106230630Y-56090034D01*
X106152049Y-56175759D01*
X105361474Y-57609271D01*
X104865380Y-57609271D01*
X104865380Y-55565365D01*
X105361474Y-55565365D01*
X115679430Y-55565365D01*
X116175524Y-55565365D01*
X116175524Y-58105365D01*
X115679430Y-58105365D01*
X115167461Y-58105365D01*
X113886349Y-58105365D01*
G37*
G36*
X114047968Y-61105365D02*
G01*
X111842930Y-61105365D01*
X110683261Y-61105365D01*
X110266543Y-61105365D01*
X109770449Y-61105365D01*
X109770449Y-60609271D01*
X110266543Y-60609271D01*
X110683261Y-60609271D01*
X110683261Y-60009196D01*
X110821374Y-60009196D01*
X111426211Y-60009196D01*
X111426211Y-60609271D01*
X111842930Y-60609271D01*
X112000093Y-60609271D01*
X112459674Y-60609271D01*
X113026411Y-59542471D01*
X113290730Y-60040152D01*
X112916874Y-60040152D01*
X112740661Y-60371146D01*
X113466943Y-60371146D01*
X113595530Y-60609271D01*
X114047968Y-60609271D01*
X113413670Y-59459128D01*
X114119405Y-59459128D01*
X114688524Y-59459128D01*
X114688524Y-60609271D01*
X115105243Y-60609271D01*
X115105243Y-59459128D01*
X115674361Y-59459128D01*
X115674361Y-59061459D01*
X114119405Y-59061459D01*
X114119405Y-59459128D01*
X113413670Y-59459128D01*
X113257393Y-59175759D01*
X113178811Y-59090034D01*
X113071655Y-59061459D01*
X112976405Y-59061459D01*
X112869249Y-59090034D01*
X112790668Y-59175759D01*
X112000093Y-60609271D01*
X111842930Y-60609271D01*
X111842930Y-59061459D01*
X111426211Y-59061459D01*
X111426211Y-59630578D01*
X110821374Y-59630578D01*
X110821374Y-60009196D01*
X110683261Y-60009196D01*
X110683261Y-59061459D01*
X110266543Y-59061459D01*
X110266543Y-60609271D01*
X109770449Y-60609271D01*
X109770449Y-58565365D01*
X110266543Y-58565365D01*
X115674361Y-58565365D01*
X116170455Y-58565365D01*
X116170455Y-61105365D01*
X115674361Y-61105365D01*
X115105243Y-61105365D01*
X114047968Y-61105365D01*
G37*
D12*
X106730452Y-61456632D02*
X106730452Y-61164098D01*
X105710452Y-61456632D02*
X105710452Y-61164098D01*
X106837952Y-65930641D02*
X106837952Y-66440089D01*
X105792952Y-65930641D02*
X105792952Y-66440089D01*
X105217952Y-65930641D02*
X105217952Y-66440089D01*
X104172952Y-65930641D02*
X104172952Y-66440089D01*
X100292952Y-65930641D02*
X100292952Y-66440089D01*
X99247952Y-65930641D02*
X99247952Y-66440089D01*
X97622952Y-65930641D02*
X97622952Y-66440089D01*
X98667952Y-65930641D02*
X98667952Y-66440089D01*
X93625176Y-65612865D02*
X93115728Y-65612865D01*
X93625176Y-66657865D02*
X93115728Y-66657865D01*
X93625176Y-64107865D02*
X93115728Y-64107865D01*
X93625176Y-63062865D02*
X93115728Y-63062865D01*
X97705452Y-50475365D02*
X97705452Y-52275365D01*
X96105452Y-50475365D02*
X97705452Y-50475365D01*
X96145452Y-51735365D02*
X95395452Y-51735365D01*
X95395452Y-51735365D02*
X93745452Y-51735365D01*
X93745452Y-51735365D02*
X93745452Y-54710365D01*
X96145452Y-54710365D02*
X96145452Y-51735365D01*
X96145452Y-54710365D02*
X96145452Y-57685365D01*
X97705452Y-57145365D02*
X98645452Y-57145365D01*
X93235452Y-57675365D02*
X93235452Y-51745365D01*
X96145452Y-57685365D02*
X95395452Y-57685365D01*
X95395452Y-57685365D02*
X93745452Y-57685365D01*
X93745452Y-57685365D02*
X93745452Y-54710365D01*
X97705452Y-58945365D02*
X97705452Y-57145365D01*
X96105452Y-58945365D02*
X97705452Y-58945365D01*
X98767952Y-49685365D02*
X98767952Y-48355365D01*
X109047952Y-49685365D02*
X109047952Y-47025365D01*
X101367952Y-49685365D02*
X109047952Y-49685365D01*
X101367952Y-47025365D02*
X109047952Y-47025365D01*
X100097952Y-49685365D02*
X98767952Y-49685365D01*
X101367952Y-49685365D02*
X101367952Y-47025365D01*
X88577952Y-51645365D02*
X88577952Y-67945365D01*
X119237952Y-51645365D02*
X119237952Y-67945365D01*
X100885452Y-66039098D02*
X100885452Y-66331632D01*
X101905452Y-66039098D02*
X101905452Y-66331632D01*
X96010452Y-66039098D02*
X96010452Y-66331632D01*
X97030452Y-66039098D02*
X97030452Y-66331632D01*
X103555452Y-66039098D02*
X103555452Y-66331632D01*
X102535452Y-66039098D02*
X102535452Y-66331632D01*
X108455452Y-66039098D02*
X108455452Y-66331632D01*
X107435452Y-66039098D02*
X107435452Y-66331632D01*
X110517952Y-53501598D02*
X110517952Y-53794132D01*
X109497952Y-53501598D02*
X109497952Y-53794132D01*
X104642952Y-53501598D02*
X104642952Y-53794132D01*
X103622952Y-53501598D02*
X103622952Y-53794132D01*
X119145452Y-68010365D02*
X117895452Y-68010365D01*
X112885452Y-68300365D02*
X112885452Y-78420365D01*
X118095452Y-71610365D02*
X118095452Y-75110365D01*
X118095452Y-68310365D02*
X118095452Y-70110365D01*
X112885452Y-78420365D02*
X118855452Y-78420365D01*
X118845452Y-71610365D02*
X118095452Y-71610365D01*
X118095452Y-70110365D02*
X118845452Y-70110365D01*
X118095452Y-76610365D02*
X118095452Y-78410365D01*
X116595452Y-69060365D02*
X113645452Y-69060365D01*
X116595452Y-68310365D02*
X116595452Y-69060365D01*
X118855452Y-68300365D02*
X112885452Y-68300365D01*
X118095452Y-75110365D02*
X118845452Y-75110365D01*
X113645452Y-69060365D02*
X113645452Y-73360365D01*
X118845452Y-68310365D02*
X118095452Y-68310365D01*
X118855452Y-78420365D02*
X118855452Y-68300365D01*
X119145452Y-69260365D02*
X119145452Y-68010365D01*
X118095452Y-78410365D02*
X118845452Y-78410365D01*
X118845452Y-75110365D02*
X118845452Y-71610365D01*
X116595452Y-77660365D02*
X113645452Y-77660365D01*
X116595452Y-78410365D02*
X116595452Y-77660365D01*
X118845452Y-76610365D02*
X118095452Y-76610365D01*
X118845452Y-70110365D02*
X118845452Y-68310365D01*
X118845452Y-78410365D02*
X118845452Y-76610365D01*
X113645452Y-77660365D02*
X113645452Y-73360365D01*
X111145452Y-68010365D02*
X109895452Y-68010365D01*
X104885452Y-68300365D02*
X104885452Y-78420365D01*
X110095452Y-71610365D02*
X110095452Y-75110365D01*
X110095452Y-68310365D02*
X110095452Y-70110365D01*
X104885452Y-78420365D02*
X110855452Y-78420365D01*
X110845452Y-71610365D02*
X110095452Y-71610365D01*
X110095452Y-70110365D02*
X110845452Y-70110365D01*
X110095452Y-76610365D02*
X110095452Y-78410365D01*
X108595452Y-69060365D02*
X105645452Y-69060365D01*
X108595452Y-68310365D02*
X108595452Y-69060365D01*
X110855452Y-68300365D02*
X104885452Y-68300365D01*
X110095452Y-75110365D02*
X110845452Y-75110365D01*
X105645452Y-69060365D02*
X105645452Y-73360365D01*
X110845452Y-68310365D02*
X110095452Y-68310365D01*
X110855452Y-78420365D02*
X110855452Y-68300365D01*
X111145452Y-69260365D02*
X111145452Y-68010365D01*
X110095452Y-78410365D02*
X110845452Y-78410365D01*
X110845452Y-75110365D02*
X110845452Y-71610365D01*
X108595452Y-77660365D02*
X105645452Y-77660365D01*
X108595452Y-78410365D02*
X108595452Y-77660365D01*
X110845452Y-76610365D02*
X110095452Y-76610365D01*
X110845452Y-70110365D02*
X110845452Y-68310365D01*
X110845452Y-78410365D02*
X110845452Y-76610365D01*
X105645452Y-77660365D02*
X105645452Y-73360365D01*
X103220452Y-68010365D02*
X101970452Y-68010365D01*
X96960452Y-68300365D02*
X96960452Y-78420365D01*
X102170452Y-71610365D02*
X102170452Y-75110365D01*
X102170452Y-68310365D02*
X102170452Y-70110365D01*
X96960452Y-78420365D02*
X102930452Y-78420365D01*
X102920452Y-71610365D02*
X102170452Y-71610365D01*
X102170452Y-70110365D02*
X102920452Y-70110365D01*
X102170452Y-76610365D02*
X102170452Y-78410365D01*
X100670452Y-69060365D02*
X97720452Y-69060365D01*
X100670452Y-68310365D02*
X100670452Y-69060365D01*
X102930452Y-68300365D02*
X96960452Y-68300365D01*
X102170452Y-75110365D02*
X102920452Y-75110365D01*
X97720452Y-69060365D02*
X97720452Y-73360365D01*
X102920452Y-68310365D02*
X102170452Y-68310365D01*
X102930452Y-78420365D02*
X102930452Y-68300365D01*
X103220452Y-69260365D02*
X103220452Y-68010365D01*
X102170452Y-78410365D02*
X102920452Y-78410365D01*
X102920452Y-75110365D02*
X102920452Y-71610365D01*
X100670452Y-77660365D02*
X97720452Y-77660365D01*
X100670452Y-78410365D02*
X100670452Y-77660365D01*
X102920452Y-76610365D02*
X102170452Y-76610365D01*
X102920452Y-70110365D02*
X102920452Y-68310365D01*
X102920452Y-78410365D02*
X102920452Y-76610365D01*
X97720452Y-77660365D02*
X97720452Y-73360365D01*
X95220452Y-68010365D02*
X93970452Y-68010365D01*
X88960452Y-68300365D02*
X88960452Y-78420365D01*
X94170452Y-71610365D02*
X94170452Y-75110365D01*
X94170452Y-68310365D02*
X94170452Y-70110365D01*
X88960452Y-78420365D02*
X94930452Y-78420365D01*
X94920452Y-71610365D02*
X94170452Y-71610365D01*
X94170452Y-70110365D02*
X94920452Y-70110365D01*
X94170452Y-76610365D02*
X94170452Y-78410365D01*
X92670452Y-69060365D02*
X89720452Y-69060365D01*
X92670452Y-68310365D02*
X92670452Y-69060365D01*
X94930452Y-68300365D02*
X88960452Y-68300365D01*
X94170452Y-75110365D02*
X94920452Y-75110365D01*
X89720452Y-69060365D02*
X89720452Y-73360365D01*
X94920452Y-68310365D02*
X94170452Y-68310365D01*
X94930452Y-78420365D02*
X94930452Y-68300365D01*
X95220452Y-69260365D02*
X95220452Y-68010365D01*
X94170452Y-78410365D02*
X94920452Y-78410365D01*
X94920452Y-75110365D02*
X94920452Y-71610365D01*
X92670452Y-77660365D02*
X89720452Y-77660365D01*
X92670452Y-78410365D02*
X92670452Y-77660365D01*
X94920452Y-76610365D02*
X94170452Y-76610365D01*
X94920452Y-70110365D02*
X94920452Y-68310365D01*
X94920452Y-78410365D02*
X94920452Y-76610365D01*
X89720452Y-77660365D02*
X89720452Y-73360365D01*
X95562952Y-63460365D02*
X95562952Y-60660365D01*
X96862952Y-64110365D02*
X96262952Y-64110365D01*
X97562952Y-60660365D02*
X97562952Y-63460365D01*
X95362952Y-60860365D02*
X95062952Y-61160365D01*
X96262952Y-60010365D02*
X96862952Y-60010365D01*
X95362952Y-60860365D02*
X95062952Y-60560365D01*
X95062952Y-60560365D02*
X95062952Y-61160365D01*
X96862952Y-64110365D02*
G75*
G03*
X97562952Y-63410365I0J700000D01*
G01*
X97562952Y-60710365D02*
G75*
G03*
X96862952Y-60010365I-699999J1D01*
G01*
X96262952Y-60010365D02*
G75*
G03*
X95562952Y-60710365I-1J-699999D01*
G01*
X95562952Y-63410365D02*
G75*
G03*
X96262952Y-64110365I700000J0D01*
G01*
X102220452Y-61050365D02*
X99295452Y-61050365D01*
X102220452Y-64270365D02*
X100720452Y-64270365D01*
X102220452Y-61050365D02*
X103720452Y-61050365D01*
X102220452Y-64270365D02*
X103720452Y-64270365D01*
X107082952Y-55195365D02*
X107882952Y-55195365D01*
X107082952Y-52075365D02*
X107882952Y-52075365D01*
X107082952Y-52075365D02*
X105282952Y-52075365D01*
X107082952Y-55195365D02*
X106282952Y-55195365D01*
%LPC*%
D13*
X117395452Y-48810365D03*
X90395452Y-48810365D03*
D14*
X106220452Y-60447865D03*
X106220452Y-62172865D03*
D15*
X106315452Y-65272865D03*
X106315452Y-67097865D03*
X104695452Y-65272865D03*
X104695452Y-67097865D03*
X99770452Y-65272865D03*
X99770452Y-67097865D03*
X98145452Y-67097865D03*
X98145452Y-65272865D03*
D16*
X92457952Y-66135365D03*
X94282952Y-66135365D03*
X94282952Y-63585365D03*
X92457952Y-63585365D03*
D17*
X94445452Y-50985365D03*
X94445452Y-58435365D03*
D18*
X97795452Y-52835365D03*
D19*
X95395452Y-52835365D03*
D18*
X97795452Y-54085365D03*
D19*
X95395452Y-54085365D03*
D18*
X97795452Y-55335365D03*
D19*
X95395452Y-55335365D03*
D18*
X97795452Y-56585365D03*
D20*
X95395452Y-56585365D03*
D21*
X107717952Y-48355365D03*
X105177952Y-48355365D03*
D22*
X117907952Y-53435365D03*
X117907952Y-55975365D03*
X117907952Y-58515365D03*
X117907952Y-61055365D03*
X117907952Y-63595365D03*
X117907952Y-66135365D03*
X89907952Y-66135365D03*
X89907952Y-63595365D03*
X89907952Y-61055365D03*
X89907952Y-58515365D03*
X89907952Y-55975365D03*
X89907952Y-53435365D03*
D21*
X102637952Y-48355365D03*
D23*
X100097952Y-48355365D03*
D13*
X110407952Y-62817865D03*
D24*
X101395452Y-67047865D03*
X101395452Y-65322865D03*
X96520452Y-67047865D03*
X96520452Y-65322865D03*
X103045452Y-65322865D03*
X103045452Y-67047865D03*
X107945452Y-65322865D03*
X107945452Y-67047865D03*
X110007952Y-52785365D03*
X110007952Y-54510365D03*
X104132952Y-52785365D03*
X104132952Y-54510365D03*
D25*
X116395452Y-75860365D03*
X116395452Y-73360365D03*
D26*
X116395452Y-70860365D03*
D25*
X108395452Y-75860365D03*
X108395452Y-73360365D03*
D26*
X108395452Y-70860365D03*
D25*
X100470452Y-75860365D03*
X100470452Y-73360365D03*
D26*
X100470452Y-70860365D03*
D25*
X92470452Y-75860365D03*
X92470452Y-73360365D03*
D26*
X92470452Y-70860365D03*
D27*
X96562952Y-60760365D03*
D28*
X96562952Y-62060365D03*
D29*
X96562952Y-63360365D03*
D30*
X100020452Y-61660365D03*
X100020452Y-62160365D03*
X100020452Y-62660365D03*
X100020452Y-63160365D03*
X100020452Y-63660365D03*
X104420452Y-63660365D03*
X104420452Y-63160365D03*
X104420452Y-62660365D03*
X104420452Y-62160365D03*
X104420452Y-61660365D03*
D31*
X108220452Y-52685365D03*
X108220452Y-54585365D03*
X105945452Y-54585365D03*
X105945452Y-53635365D03*
X105945452Y-52685365D03*
M02*
