M48
; DRILL file {KiCad 7.0.1} date Sun Jul 16 12:44:05 2023
; FORMAT={-:-/ absolute / metric / decimal}
; #@! TF.CreationDate,2023-07-16T12:44:05+02:00
; #@! TF.GenerationSoftware,Kicad,Pcbnew,7.0.1
; #@! TF.FileFunction,Plated,1,2,PTH
FMAT,2
METRIC
; #@! TA.AperFunction,Plated,PTH,ViaDrill
T1C0.300
; #@! TA.AperFunction,Plated,PTH,ComponentDrill
T2C0.500
; #@! TA.AperFunction,Plated,PTH,ComponentDrill
T3C0.950
; #@! TA.AperFunction,Plated,PTH,ComponentDrill
T4C1.000
%
G90
G05
T1
X89.32Y-68.06
X90.32Y-68.06
X90.46Y-51.415
X90.46Y-71.735
X90.46Y-74.275
X90.46Y-76.815
X91.235Y-77.875
X91.32Y-68.06
X92.32Y-68.06
X93.0Y-48.875
X93.0Y-53.955
X93.0Y-56.495
X93.32Y-68.06
X93.775Y-77.875
X94.32Y-68.06
X95.32Y-65.06
X95.32Y-66.06
X95.32Y-67.06
X95.32Y-68.06
X95.54Y-48.875
X95.54Y-74.275
X96.315Y-77.875
X96.52Y-68.035
X98.08Y-48.875
X98.08Y-51.415
X98.08Y-74.275
X98.145Y-62.56
X98.85Y-77.875
X100.82Y-58.485
X100.82Y-59.96
X101.22Y-64.035
X101.345Y-62.66
X101.39Y-77.875
X101.395Y-68.135
X102.22Y-64.035
X103.045Y-68.135
X103.16Y-74.275
X103.22Y-64.035
X103.925Y-77.875
X104.133Y-55.66
X105.145Y-60.46
X106.465Y-77.875
X107.195Y-64.035
X107.945Y-68.035
X108.195Y-64.035
X108.75Y-51.575
X109.0Y-77.875
X109.195Y-65.035
X109.195Y-66.035
X109.195Y-67.035
X109.195Y-68.035
X109.75Y-51.575
X110.008Y-55.635
X110.195Y-68.035
X110.743Y-51.568
X110.78Y-48.875
X110.78Y-56.495
X110.78Y-59.035
X110.78Y-71.735
X110.78Y-74.275
X111.195Y-68.035
X111.54Y-77.875
X111.743Y-51.568
X111.8Y-54.7
X112.195Y-68.035
X112.743Y-51.568
X112.8Y-54.7
X112.8Y-55.7
X112.8Y-56.7
X112.8Y-57.7
X112.8Y-58.7
X112.8Y-59.7
X112.8Y-60.7
X112.8Y-61.7
X112.8Y-62.7
X112.8Y-63.7
X112.8Y-64.7
X112.8Y-65.7
X112.8Y-66.7
X113.195Y-68.035
X113.32Y-48.875
X113.743Y-51.568
X114.075Y-77.875
X114.195Y-68.035
X114.45Y-52.275
X115.175Y-53.0
X115.195Y-68.035
X115.875Y-53.7
X115.875Y-54.7
X115.875Y-55.7
X115.875Y-56.7
X115.875Y-57.7
X115.875Y-58.7
X115.875Y-59.7
X115.875Y-60.7
X115.875Y-61.7
X115.875Y-62.7
X115.875Y-63.7
X115.875Y-64.7
X116.615Y-77.875
T2
X95.395Y-52.835
X95.395Y-54.085
X95.395Y-55.335
X95.395Y-56.585
T3
X92.47Y-70.86
X92.47Y-73.36
X92.47Y-75.86
X100.47Y-70.86
X100.47Y-73.36
X100.47Y-75.86
X108.395Y-70.86
X108.395Y-73.36
X108.395Y-75.86
X116.395Y-70.86
X116.395Y-73.36
X116.395Y-75.86
T4
X89.908Y-53.435
X89.908Y-55.975
X89.908Y-58.515
X89.908Y-61.055
X89.908Y-63.595
X89.908Y-66.135
X100.098Y-48.355
X102.638Y-48.355
X105.178Y-48.355
X107.718Y-48.355
X117.908Y-53.435
X117.908Y-55.975
X117.908Y-58.515
X117.908Y-61.055
X117.908Y-63.595
X117.908Y-66.135
T0
M30
