G04 #@! TF.GenerationSoftware,KiCad,Pcbnew,7.0.1*
G04 #@! TF.CreationDate,2023-07-15T02:44:33+02:00*
G04 #@! TF.ProjectId,ADS1115_POTENTIOMETER,41445331-3131-4355-9f50-4f54454e5449,1*
G04 #@! TF.SameCoordinates,Original*
G04 #@! TF.FileFunction,Soldermask,Top*
G04 #@! TF.FilePolarity,Negative*
%FSLAX46Y46*%
G04 Gerber Fmt 4.6, Leading zero omitted, Abs format (unit mm)*
G04 Created by KiCad (PCBNEW 7.0.1) date 2023-07-15 02:44:33*
%MOMM*%
%LPD*%
G01*
G04 APERTURE LIST*
G04 Aperture macros list*
%AMRoundRect*
0 Rectangle with rounded corners*
0 $1 Rounding radius*
0 $2 $3 $4 $5 $6 $7 $8 $9 X,Y pos of 4 corners*
0 Add a 4 corners polygon primitive as box body*
4,1,4,$2,$3,$4,$5,$6,$7,$8,$9,$2,$3,0*
0 Add four circle primitives for the rounded corners*
1,1,$1+$1,$2,$3*
1,1,$1+$1,$4,$5*
1,1,$1+$1,$6,$7*
1,1,$1+$1,$8,$9*
0 Add four rect primitives between the rounded corners*
20,1,$1+$1,$2,$3,$4,$5,0*
20,1,$1+$1,$4,$5,$6,$7,0*
20,1,$1+$1,$6,$7,$8,$9,0*
20,1,$1+$1,$8,$9,$2,$3,0*%
%AMFreePoly0*
4,1,19,0.550000,-0.750000,0.000000,-0.750000,0.000000,-0.744911,-0.071157,-0.744911,-0.207708,-0.704816,-0.327430,-0.627875,-0.420627,-0.520320,-0.479746,-0.390866,-0.500000,-0.250000,-0.500000,0.250000,-0.479746,0.390866,-0.420627,0.520320,-0.327430,0.627875,-0.207708,0.704816,-0.071157,0.744911,0.000000,0.744911,0.000000,0.750000,0.550000,0.750000,0.550000,-0.750000,0.550000,-0.750000,
$1*%
%AMFreePoly1*
4,1,19,0.000000,0.744911,0.071157,0.744911,0.207708,0.704816,0.327430,0.627875,0.420627,0.520320,0.479746,0.390866,0.500000,0.250000,0.500000,-0.250000,0.479746,-0.390866,0.420627,-0.520320,0.327430,-0.627875,0.207708,-0.704816,0.071157,-0.744911,0.000000,-0.744911,0.000000,-0.750000,-0.550000,-0.750000,-0.550000,0.750000,0.000000,0.750000,0.000000,0.744911,0.000000,0.744911,
$1*%
G04 Aperture macros list end*
%ADD10C,2.200000*%
%ADD11RoundRect,0.237500X0.237500X-0.300000X0.237500X0.300000X-0.237500X0.300000X-0.237500X-0.300000X0*%
%ADD12RoundRect,0.237500X-0.237500X0.250000X-0.237500X-0.250000X0.237500X-0.250000X0.237500X0.250000X0*%
%ADD13RoundRect,0.237500X0.250000X0.237500X-0.250000X0.237500X-0.250000X-0.237500X0.250000X-0.237500X0*%
%ADD14RoundRect,0.250000X1.150000X-0.250000X1.150000X0.250000X-1.150000X0.250000X-1.150000X-0.250000X0*%
%ADD15RoundRect,0.150000X0.700000X-0.150000X0.700000X0.150000X-0.700000X0.150000X-0.700000X-0.150000X0*%
%ADD16O,1.300000X0.800000*%
%ADD17RoundRect,0.200000X0.450000X-0.200000X0.450000X0.200000X-0.450000X0.200000X-0.450000X-0.200000X0*%
%ADD18O,2.000000X2.000000*%
%ADD19O,1.700000X1.700000*%
%ADD20R,2.000000X2.000000*%
%ADD21RoundRect,0.237500X-0.237500X0.300000X-0.237500X-0.300000X0.237500X-0.300000X0.237500X0.300000X0*%
%ADD22O,1.950000X1.700000*%
%ADD23RoundRect,0.250000X-0.725000X0.600000X-0.725000X-0.600000X0.725000X-0.600000X0.725000X0.600000X0*%
%ADD24FreePoly0,270.000000*%
%ADD25R,1.500000X1.000000*%
%ADD26FreePoly1,270.000000*%
%ADD27RoundRect,0.075000X-0.650000X-0.075000X0.650000X-0.075000X0.650000X0.075000X-0.650000X0.075000X0*%
%ADD28RoundRect,0.150000X-0.512500X-0.150000X0.512500X-0.150000X0.512500X0.150000X-0.512500X0.150000X0*%
G04 APERTURE END LIST*
D10*
X117395452Y-48810365D03*
X90395452Y-48810365D03*
D11*
X106220452Y-60447865D03*
X106220452Y-62172865D03*
D12*
X106315452Y-65272865D03*
X106315452Y-67097865D03*
X104695452Y-65272865D03*
X104695452Y-67097865D03*
X99770452Y-65272865D03*
X99770452Y-67097865D03*
X98145452Y-67097865D03*
X98145452Y-65272865D03*
D13*
X92457952Y-66135365D03*
X94282952Y-66135365D03*
X94282952Y-63585365D03*
X92457952Y-63585365D03*
D14*
X94445452Y-50985365D03*
X94445452Y-58435365D03*
D15*
X97795452Y-52835365D03*
D16*
X95395452Y-52835365D03*
D15*
X97795452Y-54085365D03*
D16*
X95395452Y-54085365D03*
D15*
X97795452Y-55335365D03*
D16*
X95395452Y-55335365D03*
D15*
X97795452Y-56585365D03*
D17*
X95395452Y-56585365D03*
D18*
X107717952Y-48355365D03*
X105177952Y-48355365D03*
D19*
X117907952Y-53435365D03*
X117907952Y-55975365D03*
X117907952Y-58515365D03*
X117907952Y-61055365D03*
X117907952Y-63595365D03*
X117907952Y-66135365D03*
X89907952Y-66135365D03*
X89907952Y-63595365D03*
X89907952Y-61055365D03*
X89907952Y-58515365D03*
X89907952Y-55975365D03*
X89907952Y-53435365D03*
D18*
X102637952Y-48355365D03*
D20*
X100097952Y-48355365D03*
D10*
X110407952Y-62817865D03*
D21*
X101395452Y-67047865D03*
X101395452Y-65322865D03*
X96520452Y-67047865D03*
X96520452Y-65322865D03*
X103045452Y-65322865D03*
X103045452Y-67047865D03*
X107945452Y-65322865D03*
X107945452Y-67047865D03*
X110007952Y-52785365D03*
X110007952Y-54510365D03*
X104132952Y-52785365D03*
X104132952Y-54510365D03*
D22*
X116395452Y-75860365D03*
X116395452Y-73360365D03*
D23*
X116395452Y-70860365D03*
D22*
X108395452Y-75860365D03*
X108395452Y-73360365D03*
D23*
X108395452Y-70860365D03*
D22*
X100470452Y-75860365D03*
X100470452Y-73360365D03*
D23*
X100470452Y-70860365D03*
D22*
X92470452Y-75860365D03*
X92470452Y-73360365D03*
D23*
X92470452Y-70860365D03*
D24*
X96562952Y-60760365D03*
D25*
X96562952Y-62060365D03*
D26*
X96562952Y-63360365D03*
D27*
X100020452Y-61660365D03*
X100020452Y-62160365D03*
X100020452Y-62660365D03*
X100020452Y-63160365D03*
X100020452Y-63660365D03*
X104420452Y-63660365D03*
X104420452Y-63160365D03*
X104420452Y-62660365D03*
X104420452Y-62160365D03*
X104420452Y-61660365D03*
D28*
X108220452Y-52685365D03*
X108220452Y-54585365D03*
X105945452Y-54585365D03*
X105945452Y-53635365D03*
X105945452Y-52685365D03*
M02*
