G04 #@! TF.GenerationSoftware,KiCad,Pcbnew,(6.0.4)*
G04 #@! TF.CreationDate,2022-12-04T19:10:42+01:00*
G04 #@! TF.ProjectId,can_controller_board,63616e5f-636f-46e7-9472-6f6c6c65725f,1.0*
G04 #@! TF.SameCoordinates,Original*
G04 #@! TF.FileFunction,Soldermask,Top*
G04 #@! TF.FilePolarity,Negative*
%FSLAX46Y46*%
G04 Gerber Fmt 4.6, Leading zero omitted, Abs format (unit mm)*
G04 Created by KiCad (PCBNEW (6.0.4)) date 2022-12-04 19:10:42*
%MOMM*%
%LPD*%
G01*
G04 APERTURE LIST*
G04 Aperture macros list*
%AMRoundRect*
0 Rectangle with rounded corners*
0 $1 Rounding radius*
0 $2 $3 $4 $5 $6 $7 $8 $9 X,Y pos of 4 corners*
0 Add a 4 corners polygon primitive as box body*
4,1,4,$2,$3,$4,$5,$6,$7,$8,$9,$2,$3,0*
0 Add four circle primitives for the rounded corners*
1,1,$1+$1,$2,$3*
1,1,$1+$1,$4,$5*
1,1,$1+$1,$6,$7*
1,1,$1+$1,$8,$9*
0 Add four rect primitives between the rounded corners*
20,1,$1+$1,$2,$3,$4,$5,0*
20,1,$1+$1,$4,$5,$6,$7,0*
20,1,$1+$1,$6,$7,$8,$9,0*
20,1,$1+$1,$8,$9,$2,$3,0*%
G04 Aperture macros list end*
%ADD10C,0.010000*%
%ADD11RoundRect,0.237500X0.237500X-0.300000X0.237500X0.300000X-0.237500X0.300000X-0.237500X-0.300000X0*%
%ADD12RoundRect,0.237500X-0.237500X0.300000X-0.237500X-0.300000X0.237500X-0.300000X0.237500X0.300000X0*%
%ADD13C,0.700000*%
%ADD14C,4.400000*%
%ADD15C,1.308000*%
%ADD16RoundRect,0.250001X1.399999X-1.099999X1.399999X1.099999X-1.399999X1.099999X-1.399999X-1.099999X0*%
%ADD17O,3.300000X2.700000*%
%ADD18R,1.000000X3.150000*%
%ADD19RoundRect,0.250001X-1.399999X1.099999X-1.399999X-1.099999X1.399999X-1.099999X1.399999X1.099999X0*%
%ADD20R,0.450000X1.500000*%
%ADD21O,1.800000X1.100000*%
%ADD22O,2.200000X1.100000*%
%ADD23R,0.900000X1.200000*%
%ADD24R,3.200000X1.600000*%
%ADD25R,3.716000X3.716000*%
%ADD26C,3.716000*%
%ADD27O,2.400000X1.200000*%
%ADD28RoundRect,0.237500X0.250000X0.237500X-0.250000X0.237500X-0.250000X-0.237500X0.250000X-0.237500X0*%
%ADD29RoundRect,0.237500X-0.250000X-0.237500X0.250000X-0.237500X0.250000X0.237500X-0.250000X0.237500X0*%
%ADD30RoundRect,0.237500X-0.300000X-0.237500X0.300000X-0.237500X0.300000X0.237500X-0.300000X0.237500X0*%
%ADD31R,2.900000X5.400000*%
%ADD32RoundRect,0.237500X0.300000X0.237500X-0.300000X0.237500X-0.300000X-0.237500X0.300000X-0.237500X0*%
%ADD33R,3.000000X2.400000*%
%ADD34C,1.020000*%
%ADD35C,1.520000*%
%ADD36C,2.910000*%
%ADD37RoundRect,0.237500X-0.237500X0.250000X-0.237500X-0.250000X0.237500X-0.250000X0.237500X0.250000X0*%
%ADD38C,1.450000*%
%ADD39RoundRect,0.200000X-0.450000X0.200000X-0.450000X-0.200000X0.450000X-0.200000X0.450000X0.200000X0*%
%ADD40O,1.300000X0.800000*%
%ADD41C,2.550000*%
%ADD42C,1.500000*%
G04 APERTURE END LIST*
G04 #@! TO.C,J6*
G36*
X110101200Y-69936952D02*
G01*
X104898800Y-69936952D01*
X104898800Y-67984552D01*
X110101200Y-67984552D01*
X110101200Y-69936952D01*
G37*
D10*
X110101200Y-69936952D02*
X104898800Y-69936952D01*
X104898800Y-67984552D01*
X110101200Y-67984552D01*
X110101200Y-69936952D01*
G36*
X103001200Y-77966952D02*
G01*
X100398800Y-77966952D01*
X100398800Y-77014552D01*
X103001200Y-77014552D01*
X103001200Y-77966952D01*
G37*
X103001200Y-77966952D02*
X100398800Y-77966952D01*
X100398800Y-77014552D01*
X103001200Y-77014552D01*
X103001200Y-77966952D01*
G36*
X112401200Y-77966952D02*
G01*
X109798800Y-77966952D01*
X109798800Y-77014552D01*
X112401200Y-77014552D01*
X112401200Y-77966952D01*
G37*
X112401200Y-77966952D02*
X109798800Y-77966952D01*
X109798800Y-77014552D01*
X112401200Y-77014552D01*
X112401200Y-77966952D01*
G36*
X112401200Y-74966952D02*
G01*
X109798800Y-74966952D01*
X109798800Y-74014552D01*
X112401200Y-74014552D01*
X112401200Y-74966952D01*
G37*
X112401200Y-74966952D02*
X109798800Y-74966952D01*
X109798800Y-74014552D01*
X112401200Y-74014552D01*
X112401200Y-74966952D01*
G36*
X112401200Y-76466952D02*
G01*
X109798800Y-76466952D01*
X109798800Y-75514552D01*
X112401200Y-75514552D01*
X112401200Y-76466952D01*
G37*
X112401200Y-76466952D02*
X109798800Y-76466952D01*
X109798800Y-75514552D01*
X112401200Y-75514552D01*
X112401200Y-76466952D01*
G36*
X103001200Y-76466952D02*
G01*
X100398800Y-76466952D01*
X100398800Y-75514552D01*
X103001200Y-75514552D01*
X103001200Y-76466952D01*
G37*
X103001200Y-76466952D02*
X100398800Y-76466952D01*
X100398800Y-75514552D01*
X103001200Y-75514552D01*
X103001200Y-76466952D01*
G36*
X110101200Y-80996952D02*
G01*
X104898800Y-80996952D01*
X104898800Y-79044552D01*
X110101200Y-79044552D01*
X110101200Y-80996952D01*
G37*
X110101200Y-80996952D02*
X104898800Y-80996952D01*
X104898800Y-79044552D01*
X110101200Y-79044552D01*
X110101200Y-80996952D01*
G36*
X103001200Y-71966952D02*
G01*
X100398800Y-71966952D01*
X100398800Y-71014552D01*
X103001200Y-71014552D01*
X103001200Y-71966952D01*
G37*
X103001200Y-71966952D02*
X100398800Y-71966952D01*
X100398800Y-71014552D01*
X103001200Y-71014552D01*
X103001200Y-71966952D01*
G36*
X112401200Y-71966952D02*
G01*
X109798800Y-71966952D01*
X109798800Y-71014552D01*
X112401200Y-71014552D01*
X112401200Y-71966952D01*
G37*
X112401200Y-71966952D02*
X109798800Y-71966952D01*
X109798800Y-71014552D01*
X112401200Y-71014552D01*
X112401200Y-71966952D01*
G36*
X103001200Y-74966952D02*
G01*
X100398800Y-74966952D01*
X100398800Y-74014552D01*
X103001200Y-74014552D01*
X103001200Y-74966952D01*
G37*
X103001200Y-74966952D02*
X100398800Y-74966952D01*
X100398800Y-74014552D01*
X103001200Y-74014552D01*
X103001200Y-74966952D01*
G36*
X103001200Y-73466952D02*
G01*
X100398800Y-73466952D01*
X100398800Y-72514552D01*
X103001200Y-72514552D01*
X103001200Y-73466952D01*
G37*
X103001200Y-73466952D02*
X100398800Y-73466952D01*
X100398800Y-72514552D01*
X103001200Y-72514552D01*
X103001200Y-73466952D01*
G36*
X112401200Y-73466952D02*
G01*
X109798800Y-73466952D01*
X109798800Y-72514552D01*
X112401200Y-72514552D01*
X112401200Y-73466952D01*
G37*
X112401200Y-73466952D02*
X109798800Y-73466952D01*
X109798800Y-72514552D01*
X112401200Y-72514552D01*
X112401200Y-73466952D01*
G04 #@! TO.C,J16*
G36*
X188454621Y-73422024D02*
G01*
X185852221Y-73422024D01*
X185852221Y-72469624D01*
X188454621Y-72469624D01*
X188454621Y-73422024D01*
G37*
X188454621Y-73422024D02*
X185852221Y-73422024D01*
X185852221Y-72469624D01*
X188454621Y-72469624D01*
X188454621Y-73422024D01*
G36*
X186154621Y-80952024D02*
G01*
X180952221Y-80952024D01*
X180952221Y-78999624D01*
X186154621Y-78999624D01*
X186154621Y-80952024D01*
G37*
X186154621Y-80952024D02*
X180952221Y-80952024D01*
X180952221Y-78999624D01*
X186154621Y-78999624D01*
X186154621Y-80952024D01*
G36*
X188454621Y-77922024D02*
G01*
X185852221Y-77922024D01*
X185852221Y-76969624D01*
X188454621Y-76969624D01*
X188454621Y-77922024D01*
G37*
X188454621Y-77922024D02*
X185852221Y-77922024D01*
X185852221Y-76969624D01*
X188454621Y-76969624D01*
X188454621Y-77922024D01*
G36*
X179054621Y-76422024D02*
G01*
X176452221Y-76422024D01*
X176452221Y-75469624D01*
X179054621Y-75469624D01*
X179054621Y-76422024D01*
G37*
X179054621Y-76422024D02*
X176452221Y-76422024D01*
X176452221Y-75469624D01*
X179054621Y-75469624D01*
X179054621Y-76422024D01*
G36*
X179054621Y-77922024D02*
G01*
X176452221Y-77922024D01*
X176452221Y-76969624D01*
X179054621Y-76969624D01*
X179054621Y-77922024D01*
G37*
X179054621Y-77922024D02*
X176452221Y-77922024D01*
X176452221Y-76969624D01*
X179054621Y-76969624D01*
X179054621Y-77922024D01*
G36*
X179054621Y-71922024D02*
G01*
X176452221Y-71922024D01*
X176452221Y-70969624D01*
X179054621Y-70969624D01*
X179054621Y-71922024D01*
G37*
X179054621Y-71922024D02*
X176452221Y-71922024D01*
X176452221Y-70969624D01*
X179054621Y-70969624D01*
X179054621Y-71922024D01*
G36*
X188454621Y-76422024D02*
G01*
X185852221Y-76422024D01*
X185852221Y-75469624D01*
X188454621Y-75469624D01*
X188454621Y-76422024D01*
G37*
X188454621Y-76422024D02*
X185852221Y-76422024D01*
X185852221Y-75469624D01*
X188454621Y-75469624D01*
X188454621Y-76422024D01*
G36*
X179054621Y-74922024D02*
G01*
X176452221Y-74922024D01*
X176452221Y-73969624D01*
X179054621Y-73969624D01*
X179054621Y-74922024D01*
G37*
X179054621Y-74922024D02*
X176452221Y-74922024D01*
X176452221Y-73969624D01*
X179054621Y-73969624D01*
X179054621Y-74922024D01*
G36*
X188454621Y-74922024D02*
G01*
X185852221Y-74922024D01*
X185852221Y-73969624D01*
X188454621Y-73969624D01*
X188454621Y-74922024D01*
G37*
X188454621Y-74922024D02*
X185852221Y-74922024D01*
X185852221Y-73969624D01*
X188454621Y-73969624D01*
X188454621Y-74922024D01*
G36*
X188454621Y-71922024D02*
G01*
X185852221Y-71922024D01*
X185852221Y-70969624D01*
X188454621Y-70969624D01*
X188454621Y-71922024D01*
G37*
X188454621Y-71922024D02*
X185852221Y-71922024D01*
X185852221Y-70969624D01*
X188454621Y-70969624D01*
X188454621Y-71922024D01*
G36*
X186154621Y-69892024D02*
G01*
X180952221Y-69892024D01*
X180952221Y-67939624D01*
X186154621Y-67939624D01*
X186154621Y-69892024D01*
G37*
X186154621Y-69892024D02*
X180952221Y-69892024D01*
X180952221Y-67939624D01*
X186154621Y-67939624D01*
X186154621Y-69892024D01*
G36*
X179054621Y-73422024D02*
G01*
X176452221Y-73422024D01*
X176452221Y-72469624D01*
X179054621Y-72469624D01*
X179054621Y-73422024D01*
G37*
X179054621Y-73422024D02*
X176452221Y-73422024D01*
X176452221Y-72469624D01*
X179054621Y-72469624D01*
X179054621Y-73422024D01*
G04 #@! TO.C,J36*
G36*
X137360621Y-130334523D02*
G01*
X134758221Y-130334523D01*
X134758221Y-129382123D01*
X137360621Y-129382123D01*
X137360621Y-130334523D01*
G37*
X137360621Y-130334523D02*
X134758221Y-130334523D01*
X134758221Y-129382123D01*
X137360621Y-129382123D01*
X137360621Y-130334523D01*
G36*
X146760621Y-134834523D02*
G01*
X144158221Y-134834523D01*
X144158221Y-133882123D01*
X146760621Y-133882123D01*
X146760621Y-134834523D01*
G37*
X146760621Y-134834523D02*
X144158221Y-134834523D01*
X144158221Y-133882123D01*
X146760621Y-133882123D01*
X146760621Y-134834523D01*
G36*
X137360621Y-134834523D02*
G01*
X134758221Y-134834523D01*
X134758221Y-133882123D01*
X137360621Y-133882123D01*
X137360621Y-134834523D01*
G37*
X137360621Y-134834523D02*
X134758221Y-134834523D01*
X134758221Y-133882123D01*
X137360621Y-133882123D01*
X137360621Y-134834523D01*
G36*
X142260621Y-126804523D02*
G01*
X137058221Y-126804523D01*
X137058221Y-124852123D01*
X142260621Y-124852123D01*
X142260621Y-126804523D01*
G37*
X142260621Y-126804523D02*
X137058221Y-126804523D01*
X137058221Y-124852123D01*
X142260621Y-124852123D01*
X142260621Y-126804523D01*
G36*
X146760621Y-133334523D02*
G01*
X144158221Y-133334523D01*
X144158221Y-132382123D01*
X146760621Y-132382123D01*
X146760621Y-133334523D01*
G37*
X146760621Y-133334523D02*
X144158221Y-133334523D01*
X144158221Y-132382123D01*
X146760621Y-132382123D01*
X146760621Y-133334523D01*
G36*
X137360621Y-128834523D02*
G01*
X134758221Y-128834523D01*
X134758221Y-127882123D01*
X137360621Y-127882123D01*
X137360621Y-128834523D01*
G37*
X137360621Y-128834523D02*
X134758221Y-128834523D01*
X134758221Y-127882123D01*
X137360621Y-127882123D01*
X137360621Y-128834523D01*
G36*
X146760621Y-131834523D02*
G01*
X144158221Y-131834523D01*
X144158221Y-130882123D01*
X146760621Y-130882123D01*
X146760621Y-131834523D01*
G37*
X146760621Y-131834523D02*
X144158221Y-131834523D01*
X144158221Y-130882123D01*
X146760621Y-130882123D01*
X146760621Y-131834523D01*
G36*
X146760621Y-128834523D02*
G01*
X144158221Y-128834523D01*
X144158221Y-127882123D01*
X146760621Y-127882123D01*
X146760621Y-128834523D01*
G37*
X146760621Y-128834523D02*
X144158221Y-128834523D01*
X144158221Y-127882123D01*
X146760621Y-127882123D01*
X146760621Y-128834523D01*
G36*
X137360621Y-133334523D02*
G01*
X134758221Y-133334523D01*
X134758221Y-132382123D01*
X137360621Y-132382123D01*
X137360621Y-133334523D01*
G37*
X137360621Y-133334523D02*
X134758221Y-133334523D01*
X134758221Y-132382123D01*
X137360621Y-132382123D01*
X137360621Y-133334523D01*
G36*
X142260621Y-137864523D02*
G01*
X137058221Y-137864523D01*
X137058221Y-135912123D01*
X142260621Y-135912123D01*
X142260621Y-137864523D01*
G37*
X142260621Y-137864523D02*
X137058221Y-137864523D01*
X137058221Y-135912123D01*
X142260621Y-135912123D01*
X142260621Y-137864523D01*
G36*
X137360621Y-131834523D02*
G01*
X134758221Y-131834523D01*
X134758221Y-130882123D01*
X137360621Y-130882123D01*
X137360621Y-131834523D01*
G37*
X137360621Y-131834523D02*
X134758221Y-131834523D01*
X134758221Y-130882123D01*
X137360621Y-130882123D01*
X137360621Y-131834523D01*
G36*
X146760621Y-130334523D02*
G01*
X144158221Y-130334523D01*
X144158221Y-129382123D01*
X146760621Y-129382123D01*
X146760621Y-130334523D01*
G37*
X146760621Y-130334523D02*
X144158221Y-130334523D01*
X144158221Y-129382123D01*
X146760621Y-129382123D01*
X146760621Y-130334523D01*
G04 #@! TO.C,J26*
G36*
X221987376Y-130382766D02*
G01*
X219384976Y-130382766D01*
X219384976Y-129430366D01*
X221987376Y-129430366D01*
X221987376Y-130382766D01*
G37*
X221987376Y-130382766D02*
X219384976Y-130382766D01*
X219384976Y-129430366D01*
X221987376Y-129430366D01*
X221987376Y-130382766D01*
G36*
X217487376Y-137912766D02*
G01*
X212284976Y-137912766D01*
X212284976Y-135960366D01*
X217487376Y-135960366D01*
X217487376Y-137912766D01*
G37*
X217487376Y-137912766D02*
X212284976Y-137912766D01*
X212284976Y-135960366D01*
X217487376Y-135960366D01*
X217487376Y-137912766D01*
G36*
X212587376Y-134882766D02*
G01*
X209984976Y-134882766D01*
X209984976Y-133930366D01*
X212587376Y-133930366D01*
X212587376Y-134882766D01*
G37*
X212587376Y-134882766D02*
X209984976Y-134882766D01*
X209984976Y-133930366D01*
X212587376Y-133930366D01*
X212587376Y-134882766D01*
G36*
X221987376Y-131882766D02*
G01*
X219384976Y-131882766D01*
X219384976Y-130930366D01*
X221987376Y-130930366D01*
X221987376Y-131882766D01*
G37*
X221987376Y-131882766D02*
X219384976Y-131882766D01*
X219384976Y-130930366D01*
X221987376Y-130930366D01*
X221987376Y-131882766D01*
G36*
X221987376Y-128882766D02*
G01*
X219384976Y-128882766D01*
X219384976Y-127930366D01*
X221987376Y-127930366D01*
X221987376Y-128882766D01*
G37*
X221987376Y-128882766D02*
X219384976Y-128882766D01*
X219384976Y-127930366D01*
X221987376Y-127930366D01*
X221987376Y-128882766D01*
G36*
X217487376Y-126852766D02*
G01*
X212284976Y-126852766D01*
X212284976Y-124900366D01*
X217487376Y-124900366D01*
X217487376Y-126852766D01*
G37*
X217487376Y-126852766D02*
X212284976Y-126852766D01*
X212284976Y-124900366D01*
X217487376Y-124900366D01*
X217487376Y-126852766D01*
G36*
X221987376Y-133382766D02*
G01*
X219384976Y-133382766D01*
X219384976Y-132430366D01*
X221987376Y-132430366D01*
X221987376Y-133382766D01*
G37*
X221987376Y-133382766D02*
X219384976Y-133382766D01*
X219384976Y-132430366D01*
X221987376Y-132430366D01*
X221987376Y-133382766D01*
G36*
X212587376Y-130382766D02*
G01*
X209984976Y-130382766D01*
X209984976Y-129430366D01*
X212587376Y-129430366D01*
X212587376Y-130382766D01*
G37*
X212587376Y-130382766D02*
X209984976Y-130382766D01*
X209984976Y-129430366D01*
X212587376Y-129430366D01*
X212587376Y-130382766D01*
G36*
X212587376Y-133382766D02*
G01*
X209984976Y-133382766D01*
X209984976Y-132430366D01*
X212587376Y-132430366D01*
X212587376Y-133382766D01*
G37*
X212587376Y-133382766D02*
X209984976Y-133382766D01*
X209984976Y-132430366D01*
X212587376Y-132430366D01*
X212587376Y-133382766D01*
G36*
X221987376Y-134882766D02*
G01*
X219384976Y-134882766D01*
X219384976Y-133930366D01*
X221987376Y-133930366D01*
X221987376Y-134882766D01*
G37*
X221987376Y-134882766D02*
X219384976Y-134882766D01*
X219384976Y-133930366D01*
X221987376Y-133930366D01*
X221987376Y-134882766D01*
G36*
X212587376Y-128882766D02*
G01*
X209984976Y-128882766D01*
X209984976Y-127930366D01*
X212587376Y-127930366D01*
X212587376Y-128882766D01*
G37*
X212587376Y-128882766D02*
X209984976Y-128882766D01*
X209984976Y-127930366D01*
X212587376Y-127930366D01*
X212587376Y-128882766D01*
G36*
X212587376Y-131882766D02*
G01*
X209984976Y-131882766D01*
X209984976Y-130930366D01*
X212587376Y-130930366D01*
X212587376Y-131882766D01*
G37*
X212587376Y-131882766D02*
X209984976Y-131882766D01*
X209984976Y-130930366D01*
X212587376Y-130930366D01*
X212587376Y-131882766D01*
G04 #@! TD*
D11*
G04 #@! TO.C,Cf5*
X224069842Y-73667573D03*
X224069842Y-71942573D03*
G04 #@! TD*
D12*
G04 #@! TO.C,Cs11*
X100793000Y-132136573D03*
X100793000Y-133861573D03*
G04 #@! TD*
D13*
G04 #@! TO.C,H5*
X168600000Y-139050000D03*
X169766726Y-136233274D03*
X166950000Y-137400000D03*
X168600000Y-135750000D03*
D14*
X168600000Y-137400000D03*
D13*
X167433274Y-138566726D03*
X170250000Y-137400000D03*
X167433274Y-136233274D03*
X169766726Y-138566726D03*
G04 #@! TD*
D11*
G04 #@! TO.C,Cf2*
X148016421Y-73712501D03*
X148016421Y-71987501D03*
G04 #@! TD*
D15*
G04 #@! TO.C,SW7*
X149700000Y-129500000D03*
X149700000Y-126960000D03*
X149700000Y-132040000D03*
G04 #@! TD*
D16*
G04 #@! TO.C,J3*
X151653245Y-80171757D03*
D17*
X151653245Y-75971757D03*
X157153245Y-80171757D03*
X157153245Y-75971757D03*
G04 #@! TD*
D18*
G04 #@! TO.C,J25*
X173976176Y-108797317D03*
X173976176Y-113847317D03*
X171436176Y-108797317D03*
X171436176Y-113847317D03*
X168896176Y-108797317D03*
X168896176Y-113847317D03*
X166356176Y-108797317D03*
X166356176Y-113847317D03*
X163816176Y-108797317D03*
X163816176Y-113847317D03*
G04 #@! TD*
D19*
G04 #@! TO.C,J33*
X95506176Y-125677317D03*
D17*
X95506176Y-129877317D03*
X90006176Y-125677317D03*
X90006176Y-129877317D03*
G04 #@! TD*
D20*
G04 #@! TO.C,J20*
X192668421Y-89030073D03*
X193318421Y-89030073D03*
X193968421Y-89030073D03*
X194618421Y-89030073D03*
X195268421Y-89030073D03*
D21*
X196768421Y-88780073D03*
X191168421Y-88780073D03*
D22*
X193968421Y-90930073D03*
G04 #@! TD*
D23*
G04 #@! TO.C,D12*
X120643000Y-124149073D03*
X123943000Y-124149073D03*
G04 #@! TD*
D18*
G04 #@! TO.C,J15*
X224463421Y-97055073D03*
X224463421Y-92005073D03*
X227003421Y-97055073D03*
X227003421Y-92005073D03*
X229543421Y-97055073D03*
X229543421Y-92005073D03*
X232083421Y-97055073D03*
X232083421Y-92005073D03*
X234623421Y-97055073D03*
X234623421Y-92005073D03*
G04 #@! TD*
D24*
G04 #@! TO.C,C6*
X122015000Y-74800001D03*
X117015000Y-74800001D03*
G04 #@! TD*
G04 #@! TO.C,C30*
X125144421Y-131049073D03*
X130144421Y-131049073D03*
G04 #@! TD*
D15*
G04 #@! TO.C,SW5*
X224926755Y-129548244D03*
X224926755Y-127008244D03*
X224926755Y-132088244D03*
G04 #@! TD*
D25*
G04 #@! TO.C,J2*
X73275000Y-92075000D03*
D26*
X73275000Y-99275000D03*
D27*
X67275000Y-88925000D03*
X67275000Y-102425000D03*
G04 #@! TD*
D28*
G04 #@! TO.C,Rs11*
X100855500Y-135549073D03*
X99030500Y-135549073D03*
G04 #@! TD*
D29*
G04 #@! TO.C,R13*
X156200342Y-69604146D03*
X158025342Y-69604146D03*
G04 #@! TD*
D28*
G04 #@! TO.C,R21*
X236512500Y-136000000D03*
X234687500Y-136000000D03*
G04 #@! TD*
D30*
G04 #@! TO.C,C19*
X234737500Y-134400000D03*
X236462500Y-134400000D03*
G04 #@! TD*
D31*
G04 #@! TO.C,L14*
X112550000Y-124000000D03*
X102650000Y-124000000D03*
G04 #@! TD*
D12*
G04 #@! TO.C,Cs8*
X176019755Y-132184817D03*
X176019755Y-133909817D03*
G04 #@! TD*
D14*
G04 #@! TO.C,H1*
X202600000Y-137400000D03*
D13*
X201433274Y-136233274D03*
X201433274Y-138566726D03*
X202600000Y-135750000D03*
X200950000Y-137400000D03*
X202600000Y-139050000D03*
X204250000Y-137400000D03*
X203766726Y-138566726D03*
X203766726Y-136233274D03*
G04 #@! TD*
D31*
G04 #@! TO.C,L10*
X187800000Y-124050000D03*
X177900000Y-124050000D03*
G04 #@! TD*
D32*
G04 #@! TO.C,C3*
X88560579Y-71508244D03*
X86835579Y-71508244D03*
G04 #@! TD*
D31*
G04 #@! TO.C,L2*
X134609421Y-81849074D03*
X144509421Y-81849074D03*
G04 #@! TD*
D13*
G04 #@! TO.C,H7*
X151233274Y-67033274D03*
X152400000Y-69850000D03*
D14*
X152400000Y-68200000D03*
D13*
X151233274Y-69366726D03*
X153566726Y-67033274D03*
X153566726Y-69366726D03*
X150750000Y-68200000D03*
X154050000Y-68200000D03*
X152400000Y-66550000D03*
G04 #@! TD*
D23*
G04 #@! TO.C,D8*
X195869755Y-120897317D03*
X199169755Y-120897317D03*
G04 #@! TD*
G04 #@! TO.C,D5*
X202569842Y-84955073D03*
X199269842Y-84955073D03*
G04 #@! TD*
D19*
G04 #@! TO.C,J23*
X170732931Y-125725561D03*
D17*
X170732931Y-129925561D03*
X165232931Y-125725561D03*
X165232931Y-129925561D03*
G04 #@! TD*
D11*
G04 #@! TO.C,Cs5*
X222419842Y-73667573D03*
X222419842Y-71942573D03*
G04 #@! TD*
D12*
G04 #@! TO.C,Cf11*
X99143000Y-132136573D03*
X99143000Y-133861573D03*
G04 #@! TD*
D29*
G04 #@! TO.C,R7*
X86546921Y-78749074D03*
X88371921Y-78749074D03*
G04 #@! TD*
D13*
G04 #@! TO.C,H3*
X195646176Y-70137317D03*
X195646176Y-66837317D03*
X194479450Y-69654043D03*
D14*
X195646176Y-68487317D03*
D13*
X196812902Y-67320591D03*
X197296176Y-68487317D03*
X194479450Y-67320591D03*
X196812902Y-69654043D03*
X193996176Y-68487317D03*
G04 #@! TD*
D15*
G04 #@! TO.C,SW1*
X97459421Y-76349074D03*
X97459421Y-78889074D03*
X97459421Y-73809074D03*
G04 #@! TD*
D29*
G04 #@! TO.C,Rs5*
X222357342Y-70255073D03*
X224182342Y-70255073D03*
G04 #@! TD*
D23*
G04 #@! TO.C,D6*
X202569842Y-81655073D03*
X199269842Y-81655073D03*
G04 #@! TD*
D33*
G04 #@! TO.C,F1*
X126840000Y-95550001D03*
X126840000Y-90690001D03*
G04 #@! TD*
D28*
G04 #@! TO.C,R30*
X163112500Y-136200000D03*
X161287500Y-136200000D03*
G04 #@! TD*
D20*
G04 #@! TO.C,J10*
X116615000Y-89075001D03*
X117265000Y-89075001D03*
X117915000Y-89075001D03*
X118565000Y-89075001D03*
X119215000Y-89075001D03*
D21*
X115115000Y-88825001D03*
X120715000Y-88825001D03*
D22*
X117915000Y-90975001D03*
G04 #@! TD*
D29*
G04 #@! TO.C,Rs2*
X146303921Y-70300001D03*
X148128921Y-70300001D03*
G04 #@! TD*
G04 #@! TO.C,R12*
X160100342Y-69604146D03*
X161925342Y-69604146D03*
G04 #@! TD*
D23*
G04 #@! TO.C,D3*
X126516421Y-81700001D03*
X123216421Y-81700001D03*
G04 #@! TD*
D29*
G04 #@! TO.C,R16*
X162600342Y-78704146D03*
X164425342Y-78704146D03*
G04 #@! TD*
D23*
G04 #@! TO.C,D9*
X195869755Y-124197317D03*
X199169755Y-124197317D03*
G04 #@! TD*
D29*
G04 #@! TO.C,R3*
X86521755Y-69908244D03*
X88346755Y-69908244D03*
G04 #@! TD*
D11*
G04 #@! TO.C,Cs2*
X146366421Y-73712501D03*
X146366421Y-71987501D03*
G04 #@! TD*
D18*
G04 #@! TO.C,J35*
X98749421Y-108749073D03*
X98749421Y-113799073D03*
X96209421Y-108749073D03*
X96209421Y-113799073D03*
X93669421Y-108749073D03*
X93669421Y-113799073D03*
X91129421Y-108749073D03*
X91129421Y-113799073D03*
X88589421Y-108749073D03*
X88589421Y-113799073D03*
G04 #@! TD*
D34*
G04 #@! TO.C,J24*
X223200000Y-116310000D03*
X211200000Y-116310000D03*
D35*
X220200000Y-120250000D03*
X217200000Y-120250000D03*
X214200000Y-120250000D03*
X220200000Y-117250000D03*
X217200000Y-117250000D03*
X214200000Y-117250000D03*
D36*
X222350000Y-118750000D03*
X212050000Y-118750000D03*
G04 #@! TD*
D34*
G04 #@! TO.C,J4*
X99307150Y-89525000D03*
X111307150Y-89525000D03*
D35*
X102307150Y-85585000D03*
X105307150Y-85585000D03*
X108307150Y-85585000D03*
X102307150Y-88585000D03*
X105307150Y-88585000D03*
X108307150Y-88585000D03*
D36*
X100157150Y-87085000D03*
X110457150Y-87085000D03*
G04 #@! TD*
D28*
G04 #@! TO.C,R34*
X160612500Y-127100000D03*
X158787500Y-127100000D03*
G04 #@! TD*
D24*
G04 #@! TO.C,C22*
X200371176Y-131097317D03*
X205371176Y-131097317D03*
G04 #@! TD*
D37*
G04 #@! TO.C,R31*
X165100000Y-134387500D03*
X165100000Y-136212500D03*
G04 #@! TD*
D28*
G04 #@! TO.C,R25*
X235839255Y-127148244D03*
X234014255Y-127148244D03*
G04 #@! TD*
D16*
G04 #@! TO.C,J13*
X227706666Y-80126829D03*
D17*
X227706666Y-75926829D03*
X233206666Y-80126829D03*
X233206666Y-75926829D03*
G04 #@! TD*
D13*
G04 #@! TO.C,H2*
X126229450Y-136320591D03*
D14*
X127396176Y-137487317D03*
D13*
X127396176Y-135837317D03*
X128562902Y-138654043D03*
X127396176Y-139137317D03*
X126229450Y-138654043D03*
X125746176Y-137487317D03*
X129046176Y-137487317D03*
X128562902Y-136320591D03*
G04 #@! TD*
D33*
G04 #@! TO.C,F2*
X202893421Y-95505073D03*
X202893421Y-90645073D03*
G04 #@! TD*
D12*
G04 #@! TO.C,Cf8*
X174369755Y-132184817D03*
X174369755Y-133909817D03*
G04 #@! TD*
D15*
G04 #@! TO.C,SW3*
X173512842Y-76304146D03*
X173512842Y-78844146D03*
X173512842Y-73764146D03*
G04 #@! TD*
D20*
G04 #@! TO.C,J30*
X205771176Y-116822317D03*
X205121176Y-116822317D03*
X204471176Y-116822317D03*
X203821176Y-116822317D03*
X203171176Y-116822317D03*
D21*
X207271176Y-117072317D03*
X201671176Y-117072317D03*
D22*
X204471176Y-114922317D03*
G04 #@! TD*
D31*
G04 #@! TO.C,L6*
X210662842Y-81804146D03*
X220562842Y-81804146D03*
G04 #@! TD*
D33*
G04 #@! TO.C,F4*
X120319421Y-110299073D03*
X120319421Y-115159073D03*
G04 #@! TD*
G04 #@! TO.C,F3*
X195546176Y-110347317D03*
X195546176Y-115207317D03*
G04 #@! TD*
D11*
G04 #@! TO.C,C32*
X133000000Y-121562500D03*
X133000000Y-119837500D03*
G04 #@! TD*
D13*
G04 #@! TO.C,H4*
X118379450Y-67320591D03*
X121196176Y-68487317D03*
X119546176Y-66837317D03*
X120712902Y-67320591D03*
X117896176Y-68487317D03*
X120712902Y-69654043D03*
D14*
X119546176Y-68487317D03*
D13*
X118379450Y-69654043D03*
X119546176Y-70137317D03*
G04 #@! TD*
D20*
G04 #@! TO.C,J40*
X130544421Y-116774073D03*
X129894421Y-116774073D03*
X129244421Y-116774073D03*
X128594421Y-116774073D03*
X127944421Y-116774073D03*
D21*
X126444421Y-117024073D03*
X132044421Y-117024073D03*
D22*
X129244421Y-114874073D03*
G04 #@! TD*
D34*
G04 #@! TO.C,J14*
X187300000Y-89490000D03*
X175300000Y-89490000D03*
D35*
X178300000Y-85550000D03*
X181300000Y-85550000D03*
X184300000Y-85550000D03*
X178300000Y-88550000D03*
X181300000Y-88550000D03*
X184300000Y-88550000D03*
D36*
X176150000Y-87050000D03*
X186450000Y-87050000D03*
G04 #@! TD*
D13*
G04 #@! TO.C,H8*
X234166726Y-70166726D03*
X234166726Y-67833274D03*
X231833274Y-67833274D03*
X231350000Y-69000000D03*
X231833274Y-70166726D03*
X233000000Y-70650000D03*
X233000000Y-67350000D03*
D14*
X233000000Y-69000000D03*
D13*
X234650000Y-69000000D03*
G04 #@! TD*
D23*
G04 #@! TO.C,D11*
X120643000Y-120849073D03*
X123943000Y-120849073D03*
G04 #@! TD*
D24*
G04 #@! TO.C,C14*
X198068421Y-74755073D03*
X193068421Y-74755073D03*
G04 #@! TD*
D34*
G04 #@! TO.C,J34*
X147800000Y-116360000D03*
X135800000Y-116360000D03*
D35*
X144800000Y-120300000D03*
X141800000Y-120300000D03*
X138800000Y-120300000D03*
X144800000Y-117300000D03*
X141800000Y-117300000D03*
X138800000Y-117300000D03*
D36*
X146950000Y-118800000D03*
X136650000Y-118800000D03*
G04 #@! TD*
D18*
G04 #@! TO.C,J5*
X148410000Y-97100001D03*
X148410000Y-92050001D03*
X150950000Y-97100001D03*
X150950000Y-92050001D03*
X153490000Y-97100001D03*
X153490000Y-92050001D03*
X156030000Y-97100001D03*
X156030000Y-92050001D03*
X158570000Y-97100001D03*
X158570000Y-92050001D03*
G04 #@! TD*
D23*
G04 #@! TO.C,D2*
X126516421Y-85000001D03*
X123216421Y-85000001D03*
G04 #@! TD*
D28*
G04 #@! TO.C,Rs8*
X176082255Y-135597317D03*
X174257255Y-135597317D03*
G04 #@! TD*
D13*
G04 #@! TO.C,H6*
X107113245Y-94333274D03*
X107596519Y-95500000D03*
X109929971Y-95500000D03*
X109929971Y-93166548D03*
X110413245Y-94333274D03*
D14*
X108763245Y-94333274D03*
D13*
X107596519Y-93166548D03*
X108763245Y-92683274D03*
X108763245Y-95983274D03*
G04 #@! TD*
D38*
G04 #@! TO.C,J31*
X121305500Y-112799073D03*
X121305500Y-134799073D03*
G04 #@! TD*
D13*
G04 #@! TO.C,H24*
X139566726Y-112766726D03*
D14*
X138400000Y-111600000D03*
D13*
X139566726Y-110433274D03*
X138400000Y-113250000D03*
X138400000Y-109950000D03*
X137233274Y-112766726D03*
X137233274Y-110433274D03*
X140050000Y-111600000D03*
X136750000Y-111600000D03*
G04 #@! TD*
G04 #@! TO.C,H18*
X212633274Y-112566726D03*
X214966726Y-110233274D03*
D14*
X213800000Y-111400000D03*
D13*
X214966726Y-112566726D03*
X212633274Y-110233274D03*
X215450000Y-111400000D03*
X212150000Y-111400000D03*
X213800000Y-113050000D03*
X213800000Y-109750000D03*
G04 #@! TD*
D38*
G04 #@! TO.C,J11*
X201907342Y-93005073D03*
X201907342Y-71005073D03*
G04 #@! TD*
G04 #@! TO.C,J1*
X125853921Y-93050001D03*
X125853921Y-71050001D03*
G04 #@! TD*
D13*
G04 #@! TO.C,H12*
X184800000Y-92750000D03*
X185966726Y-93233274D03*
D14*
X184800000Y-94400000D03*
D13*
X186450000Y-94400000D03*
X183633274Y-95566726D03*
X185966726Y-95566726D03*
X184800000Y-96050000D03*
X183150000Y-94400000D03*
X183633274Y-93233274D03*
G04 #@! TD*
D39*
G04 #@! TO.C,J7*
X159277500Y-106635000D03*
D40*
X159277500Y-107885000D03*
X159277500Y-109135000D03*
X159277500Y-110385000D03*
G04 #@! TD*
D41*
G04 #@! TO.C,J8*
X222974176Y-110375000D03*
X222974176Y-105375000D03*
D42*
X232974176Y-102375000D03*
X232974176Y-113375000D03*
G04 #@! TD*
D38*
G04 #@! TO.C,J21*
X196532255Y-112847317D03*
X196532255Y-134847317D03*
G04 #@! TD*
M02*
