%TF.GenerationSoftware,KiCad,Pcbnew,8.0.7*%
%TF.CreationDate,2024-12-18T23:49:56+01:00*%
%TF.ProjectId,neopixel_eliot_hat,6e656f70-6978-4656-9c5f-656c696f745f,rev?*%
%TF.SameCoordinates,Original*%
%TF.FileFunction,Drillmap*%
%TF.FilePolarity,Positive*%
%FSLAX45Y45*%
G04 Gerber Fmt 4.5, Leading zero omitted, Abs format (unit mm)*
G04 Created by KiCad (PCBNEW 8.0.7) date 2024-12-18 23:49:56*
%MOMM*%
%LPD*%
G01*
G04 APERTURE LIST*
%ADD10C,0.100000*%
%ADD11C,0.200000*%
G04 APERTURE END LIST*
D10*
X12085977Y-3885322D02*
G75*
G02*
X12281998Y-4081345I3J-196018D01*
G01*
X12282000Y-6759299D02*
G75*
G02*
X12085977Y-6955320I-196030J9D01*
G01*
X12282000Y-4081345D02*
X12282000Y-6759299D01*
X9408023Y-6955322D02*
G75*
G02*
X9211998Y-6759299I-3J196022D01*
G01*
X12085977Y-6955322D02*
X9408023Y-6955322D01*
X9212000Y-6759299D02*
X9212000Y-4081345D01*
X9408023Y-3885322D02*
X12085977Y-3885322D01*
X9212000Y-4081345D02*
G75*
G02*
X9408023Y-3885320I196010J15D01*
G01*
D11*
D10*
X9262000Y-4958000D02*
X9292000Y-4988000D01*
X9292000Y-4958000D02*
X9262000Y-4988000D01*
X9379000Y-6106000D02*
X9409000Y-6136000D01*
X9409000Y-6106000D02*
X9379000Y-6136000D01*
X9380000Y-6419000D02*
X9410000Y-6449000D01*
X9410000Y-6419000D02*
X9380000Y-6449000D01*
X9380000Y-6532000D02*
X9410000Y-6562000D01*
X9410000Y-6532000D02*
X9380000Y-6562000D01*
X9380000Y-6825000D02*
X9410000Y-6855000D01*
X9410000Y-6825000D02*
X9380000Y-6855000D01*
X9525000Y-4561000D02*
X9555000Y-4591000D01*
X9555000Y-4561000D02*
X9525000Y-4591000D01*
X9552000Y-5847000D02*
X9582000Y-5877000D01*
X9582000Y-5847000D02*
X9552000Y-5877000D01*
X9652000Y-4471000D02*
X9682000Y-4501000D01*
X9682000Y-4471000D02*
X9652000Y-4501000D01*
X9716462Y-4033000D02*
X9746462Y-4063000D01*
X9746462Y-4033000D02*
X9716462Y-4063000D01*
X9749000Y-4628000D02*
X9779000Y-4658000D01*
X9779000Y-4628000D02*
X9749000Y-4658000D01*
X9828181Y-4585217D02*
X9858181Y-4615217D01*
X9858181Y-4585217D02*
X9828181Y-4615217D01*
X9880000Y-5320000D02*
X9910000Y-5350000D01*
X9910000Y-5320000D02*
X9880000Y-5350000D01*
X9929000Y-5581000D02*
X9959000Y-5611000D01*
X9959000Y-5581000D02*
X9929000Y-5611000D01*
X9939000Y-5492000D02*
X9969000Y-5522000D01*
X9969000Y-5492000D02*
X9939000Y-5522000D01*
X9986000Y-5913000D02*
X10016000Y-5943000D01*
X10016000Y-5913000D02*
X9986000Y-5943000D01*
X9990000Y-5312500D02*
X10020000Y-5342500D01*
X10020000Y-5312500D02*
X9990000Y-5342500D01*
X10074000Y-5501000D02*
X10104000Y-5531000D01*
X10104000Y-5501000D02*
X10074000Y-5531000D01*
X10078000Y-5603000D02*
X10108000Y-5633000D01*
X10108000Y-5603000D02*
X10078000Y-5633000D01*
X10145000Y-5287500D02*
X10175000Y-5317500D01*
X10175000Y-5287500D02*
X10145000Y-5317500D01*
X10155538Y-4160538D02*
X10185538Y-4190538D01*
X10185538Y-4160538D02*
X10155538Y-4190538D01*
X10165000Y-4441000D02*
X10195000Y-4471000D01*
X10195000Y-4441000D02*
X10165000Y-4471000D01*
X10177983Y-4351941D02*
X10207983Y-4381941D01*
X10207983Y-4351941D02*
X10177983Y-4381941D01*
X10182500Y-4860000D02*
X10212500Y-4890000D01*
X10212500Y-4860000D02*
X10182500Y-4890000D01*
X10198153Y-4524672D02*
X10228153Y-4554672D01*
X10228153Y-4524672D02*
X10198153Y-4554672D01*
X10207500Y-5102500D02*
X10237500Y-5132500D01*
X10237500Y-5102500D02*
X10207500Y-5132500D01*
X10209142Y-3935322D02*
X10239142Y-3965322D01*
X10239142Y-3935322D02*
X10209142Y-3965322D01*
X10222000Y-4628538D02*
X10252000Y-4658538D01*
X10252000Y-4628538D02*
X10222000Y-4658538D01*
X10243000Y-6821000D02*
X10273000Y-6851000D01*
X10273000Y-6821000D02*
X10243000Y-6851000D01*
X10244898Y-6113102D02*
X10274898Y-6143102D01*
X10274898Y-6113102D02*
X10244898Y-6143102D01*
X10245000Y-6426000D02*
X10275000Y-6456000D01*
X10275000Y-6426000D02*
X10245000Y-6456000D01*
X10245000Y-6525000D02*
X10275000Y-6555000D01*
X10275000Y-6525000D02*
X10245000Y-6555000D01*
X10252500Y-5390000D02*
X10282500Y-5420000D01*
X10282500Y-5390000D02*
X10252500Y-5420000D01*
X10253000Y-4718000D02*
X10283000Y-4748000D01*
X10283000Y-4718000D02*
X10253000Y-4748000D01*
X10296742Y-4204602D02*
X10326742Y-4234602D01*
X10326742Y-4204602D02*
X10296742Y-4234602D01*
X10304000Y-3936000D02*
X10334000Y-3966000D01*
X10334000Y-3936000D02*
X10304000Y-3966000D01*
X10310602Y-5740398D02*
X10340602Y-5770398D01*
X10340602Y-5740398D02*
X10310602Y-5770398D01*
X10328000Y-4289000D02*
X10358000Y-4319000D01*
X10358000Y-4289000D02*
X10328000Y-4319000D01*
X10371000Y-5798000D02*
X10401000Y-5828000D01*
X10401000Y-5798000D02*
X10371000Y-5828000D01*
X10372000Y-6459000D02*
X10402000Y-6489000D01*
X10402000Y-6459000D02*
X10372000Y-6489000D01*
X10379000Y-6364000D02*
X10409000Y-6394000D01*
X10409000Y-6364000D02*
X10379000Y-6394000D01*
X10399000Y-3936000D02*
X10429000Y-3966000D01*
X10429000Y-3936000D02*
X10399000Y-3966000D01*
X10401000Y-6645000D02*
X10431000Y-6675000D01*
X10431000Y-6645000D02*
X10401000Y-6675000D01*
X10410000Y-4206000D02*
X10440000Y-4236000D01*
X10440000Y-4206000D02*
X10410000Y-4236000D01*
X10469173Y-6578500D02*
X10499173Y-6608500D01*
X10499173Y-6578500D02*
X10469173Y-6608500D01*
X10513000Y-5667500D02*
X10543000Y-5697500D01*
X10543000Y-5667500D02*
X10513000Y-5697500D01*
X10516006Y-5572082D02*
X10546006Y-5602082D01*
X10546006Y-5572082D02*
X10516006Y-5602082D01*
X10590000Y-5024000D02*
X10620000Y-5054000D01*
X10620000Y-5024000D02*
X10590000Y-5054000D01*
X10600000Y-5184000D02*
X10630000Y-5214000D01*
X10630000Y-5184000D02*
X10600000Y-5214000D01*
X10600000Y-5706000D02*
X10630000Y-5736000D01*
X10630000Y-5706000D02*
X10600000Y-5736000D01*
X10658000Y-5875426D02*
X10688000Y-5905426D01*
X10688000Y-5875426D02*
X10658000Y-5905426D01*
X10669682Y-4436000D02*
X10699682Y-4466000D01*
X10699682Y-4436000D02*
X10669682Y-4466000D01*
X10755000Y-4485288D02*
X10785000Y-4515288D01*
X10785000Y-4485288D02*
X10755000Y-4515288D01*
X10804500Y-5184000D02*
X10834500Y-5214000D01*
X10834500Y-5184000D02*
X10804500Y-5214000D01*
X10822459Y-4425712D02*
X10852459Y-4455712D01*
X10852459Y-4425712D02*
X10822459Y-4455712D01*
X10888000Y-4531000D02*
X10918000Y-4561000D01*
X10918000Y-4531000D02*
X10888000Y-4561000D01*
X10916500Y-4370500D02*
X10946500Y-4400500D01*
X10946500Y-4370500D02*
X10916500Y-4400500D01*
X10943000Y-5620000D02*
X10973000Y-5650000D01*
X10973000Y-5620000D02*
X10943000Y-5650000D01*
X10958000Y-4623000D02*
X10988000Y-4653000D01*
X10988000Y-4623000D02*
X10958000Y-4653000D01*
X10993000Y-4449000D02*
X11023000Y-4479000D01*
X11023000Y-4449000D02*
X10993000Y-4479000D01*
X11036000Y-6480000D02*
X11066000Y-6510000D01*
X11066000Y-6480000D02*
X11036000Y-6510000D01*
X11050000Y-6267000D02*
X11080000Y-6297000D01*
X11080000Y-6267000D02*
X11050000Y-6297000D01*
X11050000Y-6339000D02*
X11080000Y-6369000D01*
X11080000Y-6339000D02*
X11050000Y-6369000D01*
X11071000Y-4524000D02*
X11101000Y-4554000D01*
X11101000Y-4524000D02*
X11071000Y-4554000D01*
X11076000Y-5617000D02*
X11106000Y-5647000D01*
X11106000Y-5617000D02*
X11076000Y-5647000D01*
X11124000Y-6267000D02*
X11154000Y-6297000D01*
X11154000Y-6267000D02*
X11124000Y-6297000D01*
X11124000Y-6339000D02*
X11154000Y-6369000D01*
X11154000Y-6339000D02*
X11124000Y-6369000D01*
X11153000Y-6458000D02*
X11183000Y-6488000D01*
X11183000Y-6458000D02*
X11153000Y-6488000D01*
X11166000Y-5610000D02*
X11196000Y-5640000D01*
X11196000Y-5610000D02*
X11166000Y-5640000D01*
X11182000Y-6073000D02*
X11212000Y-6103000D01*
X11212000Y-6073000D02*
X11182000Y-6103000D01*
X11206000Y-5359750D02*
X11236000Y-5389750D01*
X11236000Y-5359750D02*
X11206000Y-5389750D01*
X11242000Y-4226000D02*
X11272000Y-4256000D01*
X11272000Y-4226000D02*
X11242000Y-4256000D01*
X11278197Y-4712702D02*
X11308197Y-4742702D01*
X11308197Y-4712702D02*
X11278197Y-4742702D01*
X11345000Y-4310000D02*
X11375000Y-4340000D01*
X11375000Y-4310000D02*
X11345000Y-4340000D01*
X11376615Y-5375098D02*
X11406615Y-5405098D01*
X11406615Y-5375098D02*
X11376615Y-5405098D01*
X11397000Y-4400000D02*
X11427000Y-4430000D01*
X11427000Y-4400000D02*
X11397000Y-4430000D01*
X11452500Y-5266000D02*
X11482500Y-5296000D01*
X11482500Y-5266000D02*
X11452500Y-5296000D01*
X11470000Y-4404000D02*
X11500000Y-4434000D01*
X11500000Y-4404000D02*
X11470000Y-4434000D01*
X11473000Y-6454000D02*
X11503000Y-6484000D01*
X11503000Y-6454000D02*
X11473000Y-6484000D01*
X11498000Y-4309000D02*
X11528000Y-4339000D01*
X11528000Y-4309000D02*
X11498000Y-4339000D01*
X11568000Y-4795000D02*
X11598000Y-4825000D01*
X11598000Y-4795000D02*
X11568000Y-4825000D01*
X11584000Y-4288000D02*
X11614000Y-4318000D01*
X11614000Y-4288000D02*
X11584000Y-4318000D01*
X11587000Y-5383000D02*
X11617000Y-5413000D01*
X11617000Y-5383000D02*
X11587000Y-5413000D01*
X11610000Y-5481000D02*
X11640000Y-5511000D01*
X11640000Y-5481000D02*
X11610000Y-5511000D01*
X11665000Y-5869000D02*
X11695000Y-5899000D01*
X11695000Y-5869000D02*
X11665000Y-5899000D01*
X11699000Y-4476000D02*
X11729000Y-4506000D01*
X11729000Y-4476000D02*
X11699000Y-4506000D01*
X11699000Y-4629500D02*
X11729000Y-4659500D01*
X11729000Y-4629500D02*
X11699000Y-4659500D01*
X11699000Y-4783000D02*
X11729000Y-4813000D01*
X11729000Y-4783000D02*
X11699000Y-4813000D01*
X11699000Y-4936500D02*
X11729000Y-4966500D01*
X11729000Y-4936500D02*
X11699000Y-4966500D01*
X11699000Y-5090000D02*
X11729000Y-5120000D01*
X11729000Y-5090000D02*
X11699000Y-5120000D01*
X11699000Y-5243500D02*
X11729000Y-5273500D01*
X11729000Y-5243500D02*
X11699000Y-5273500D01*
X11699000Y-5397000D02*
X11729000Y-5427000D01*
X11729000Y-5397000D02*
X11699000Y-5427000D01*
X11701000Y-5488000D02*
X11731000Y-5518000D01*
X11731000Y-5488000D02*
X11701000Y-5518000D01*
X11735000Y-6454000D02*
X11765000Y-6484000D01*
X11765000Y-6454000D02*
X11735000Y-6484000D01*
X11769176Y-4032824D02*
X11799176Y-4062824D01*
X11799176Y-4032824D02*
X11769176Y-4062824D01*
X11812000Y-6801000D02*
X11842000Y-6831000D01*
X11842000Y-6801000D02*
X11812000Y-6831000D01*
X11923176Y-4186824D02*
X11953176Y-4216824D01*
X11953176Y-4186824D02*
X11923176Y-4216824D01*
X11963000Y-6636000D02*
X11993000Y-6666000D01*
X11993000Y-6636000D02*
X11963000Y-6666000D01*
X11972000Y-6461000D02*
X12002000Y-6491000D01*
X12002000Y-6461000D02*
X11972000Y-6491000D01*
X12020000Y-6402000D02*
X12050000Y-6432000D01*
X12050000Y-6402000D02*
X12020000Y-6432000D01*
X12021000Y-6518000D02*
X12051000Y-6548000D01*
X12051000Y-6518000D02*
X12021000Y-6548000D01*
X12033000Y-6066000D02*
X12063000Y-6096000D01*
X12063000Y-6066000D02*
X12033000Y-6096000D01*
X12065000Y-6460000D02*
X12095000Y-6490000D01*
X12095000Y-6460000D02*
X12065000Y-6490000D01*
X9425000Y-6273000D02*
G75*
G02*
X9365000Y-6273000I-30000J0D01*
G01*
X9365000Y-6273000D02*
G75*
G02*
X9425000Y-6273000I30000J0D01*
G01*
X9365000Y-6218000D02*
X9365000Y-6328000D01*
X9425000Y-6328000D02*
G75*
G02*
X9365000Y-6328000I-30000J0D01*
G01*
X9425000Y-6328000D02*
X9425000Y-6218000D01*
X9425000Y-6218000D02*
G75*
G03*
X9365000Y-6218000I-30000J0D01*
G01*
X9425000Y-6691000D02*
G75*
G02*
X9365000Y-6691000I-30000J0D01*
G01*
X9365000Y-6691000D02*
G75*
G02*
X9425000Y-6691000I30000J0D01*
G01*
X9365000Y-6651000D02*
X9365000Y-6731000D01*
X9425000Y-6731000D02*
G75*
G02*
X9365000Y-6731000I-30000J0D01*
G01*
X9425000Y-6731000D02*
X9425000Y-6651000D01*
X9425000Y-6651000D02*
G75*
G03*
X9365000Y-6651000I-30000J0D01*
G01*
X10289000Y-6273000D02*
G75*
G02*
X10229000Y-6273000I-30000J0D01*
G01*
X10229000Y-6273000D02*
G75*
G02*
X10289000Y-6273000I30000J0D01*
G01*
X10229000Y-6218000D02*
X10229000Y-6328000D01*
X10289000Y-6328000D02*
G75*
G02*
X10229000Y-6328000I-30000J0D01*
G01*
X10289000Y-6328000D02*
X10289000Y-6218000D01*
X10289000Y-6218000D02*
G75*
G03*
X10229000Y-6218000I-30000J0D01*
G01*
X10289000Y-6691000D02*
G75*
G02*
X10229000Y-6691000I-30000J0D01*
G01*
X10229000Y-6691000D02*
G75*
G02*
X10289000Y-6691000I30000J0D01*
G01*
X10229000Y-6651000D02*
X10229000Y-6731000D01*
X10289000Y-6731000D02*
G75*
G02*
X10229000Y-6731000I-30000J0D01*
G01*
X10289000Y-6731000D02*
X10289000Y-6651000D01*
X10289000Y-6651000D02*
G75*
G03*
X10229000Y-6651000I-30000J0D01*
G01*
X10472000Y-6851000D02*
G75*
G02*
X10412000Y-6851000I-30000J0D01*
G01*
X10412000Y-6851000D02*
G75*
G02*
X10472000Y-6851000I30000J0D01*
G01*
X10546000Y-6187000D02*
G75*
G02*
X10486000Y-6187000I-30000J0D01*
G01*
X10486000Y-6187000D02*
G75*
G02*
X10546000Y-6187000I30000J0D01*
G01*
X11216000Y-4659000D02*
G75*
G02*
X11156000Y-4659000I-30000J0D01*
G01*
X11156000Y-4659000D02*
G75*
G02*
X11216000Y-4659000I30000J0D01*
G01*
X9412000Y-4102500D02*
X9412000Y-4167500D01*
X9379500Y-4135000D02*
X9444500Y-4135000D01*
X9412000Y-4229500D02*
X9412000Y-4294500D01*
X9379500Y-4262000D02*
X9444500Y-4262000D01*
X9539000Y-4102500D02*
X9539000Y-4167500D01*
X9506500Y-4135000D02*
X9571500Y-4135000D01*
X9539000Y-4229500D02*
X9539000Y-4294500D01*
X9506500Y-4262000D02*
X9571500Y-4262000D01*
X9666000Y-4102500D02*
X9666000Y-4167500D01*
X9633500Y-4135000D02*
X9698500Y-4135000D01*
X9666000Y-4229500D02*
X9666000Y-4294500D01*
X9633500Y-4262000D02*
X9698500Y-4262000D01*
X9793000Y-4102500D02*
X9793000Y-4167500D01*
X9760500Y-4135000D02*
X9825500Y-4135000D01*
X9793000Y-4229500D02*
X9793000Y-4294500D01*
X9760500Y-4262000D02*
X9825500Y-4262000D01*
X9920000Y-4102500D02*
X9920000Y-4167500D01*
X9887500Y-4135000D02*
X9952500Y-4135000D01*
X9920000Y-4229500D02*
X9920000Y-4294500D01*
X9887500Y-4262000D02*
X9952500Y-4262000D01*
X11359588Y-6683588D02*
X11359588Y-6616412D01*
X11292412Y-6616412D01*
X11292412Y-6683588D01*
X11359588Y-6683588D01*
X11609588Y-6683588D02*
X11609588Y-6616412D01*
X11542412Y-6616412D01*
X11542412Y-6683588D01*
X11609588Y-6683588D01*
X11859588Y-6683588D02*
X11859588Y-6616412D01*
X11792412Y-6616412D01*
X11792412Y-6683588D01*
X11859588Y-6683588D01*
X9347000Y-4644000D02*
X9397000Y-4594000D01*
X9347000Y-4544000D01*
X9297000Y-4594000D01*
X9347000Y-4644000D01*
X9347000Y-4898000D02*
X9397000Y-4848000D01*
X9347000Y-4798000D01*
X9297000Y-4848000D01*
X9347000Y-4898000D01*
X9347000Y-5152000D02*
X9397000Y-5102000D01*
X9347000Y-5052000D01*
X9297000Y-5102000D01*
X9347000Y-5152000D01*
X9347000Y-5406000D02*
X9397000Y-5356000D01*
X9347000Y-5306000D01*
X9297000Y-5356000D01*
X9347000Y-5406000D01*
X9347000Y-5660000D02*
X9397000Y-5610000D01*
X9347000Y-5560000D01*
X9297000Y-5610000D01*
X9347000Y-5660000D01*
X9347000Y-5914000D02*
X9397000Y-5864000D01*
X9347000Y-5814000D01*
X9297000Y-5864000D01*
X9347000Y-5914000D01*
X10366000Y-4136000D02*
X10416000Y-4086000D01*
X10366000Y-4036000D01*
X10316000Y-4086000D01*
X10366000Y-4136000D01*
X10620000Y-4136000D02*
X10670000Y-4086000D01*
X10620000Y-4036000D01*
X10570000Y-4086000D01*
X10620000Y-4136000D01*
X10874000Y-4136000D02*
X10924000Y-4086000D01*
X10874000Y-4036000D01*
X10824000Y-4086000D01*
X10874000Y-4136000D01*
X11128000Y-4136000D02*
X11178000Y-4086000D01*
X11128000Y-4036000D01*
X11078000Y-4086000D01*
X11128000Y-4136000D01*
X12147000Y-4644000D02*
X12197000Y-4594000D01*
X12147000Y-4544000D01*
X12097000Y-4594000D01*
X12147000Y-4644000D01*
X12147000Y-4898000D02*
X12197000Y-4848000D01*
X12147000Y-4798000D01*
X12097000Y-4848000D01*
X12147000Y-4898000D01*
X12147000Y-5152000D02*
X12197000Y-5102000D01*
X12147000Y-5052000D01*
X12097000Y-5102000D01*
X12147000Y-5152000D01*
X12147000Y-5406000D02*
X12197000Y-5356000D01*
X12147000Y-5306000D01*
X12097000Y-5356000D01*
X12147000Y-5406000D01*
X12147000Y-5660000D02*
X12197000Y-5610000D01*
X12147000Y-5560000D01*
X12097000Y-5610000D01*
X12147000Y-5660000D01*
X12147000Y-5914000D02*
X12197000Y-5864000D01*
X12147000Y-5814000D01*
X12097000Y-5864000D01*
X12147000Y-5914000D01*
D11*
X9467775Y-7271806D02*
X9467775Y-7071806D01*
X9467775Y-7071806D02*
X9515394Y-7071806D01*
X9515394Y-7071806D02*
X9543965Y-7081330D01*
X9543965Y-7081330D02*
X9563013Y-7100377D01*
X9563013Y-7100377D02*
X9572536Y-7119425D01*
X9572536Y-7119425D02*
X9582060Y-7157520D01*
X9582060Y-7157520D02*
X9582060Y-7186092D01*
X9582060Y-7186092D02*
X9572536Y-7224187D01*
X9572536Y-7224187D02*
X9563013Y-7243235D01*
X9563013Y-7243235D02*
X9543965Y-7262282D01*
X9543965Y-7262282D02*
X9515394Y-7271806D01*
X9515394Y-7271806D02*
X9467775Y-7271806D01*
X9667775Y-7271806D02*
X9667775Y-7138473D01*
X9667775Y-7176568D02*
X9677298Y-7157520D01*
X9677298Y-7157520D02*
X9686822Y-7147996D01*
X9686822Y-7147996D02*
X9705870Y-7138473D01*
X9705870Y-7138473D02*
X9724917Y-7138473D01*
X9791584Y-7271806D02*
X9791584Y-7138473D01*
X9791584Y-7071806D02*
X9782060Y-7081330D01*
X9782060Y-7081330D02*
X9791584Y-7090854D01*
X9791584Y-7090854D02*
X9801108Y-7081330D01*
X9801108Y-7081330D02*
X9791584Y-7071806D01*
X9791584Y-7071806D02*
X9791584Y-7090854D01*
X9915394Y-7271806D02*
X9896346Y-7262282D01*
X9896346Y-7262282D02*
X9886822Y-7243235D01*
X9886822Y-7243235D02*
X9886822Y-7071806D01*
X10020155Y-7271806D02*
X10001108Y-7262282D01*
X10001108Y-7262282D02*
X9991584Y-7243235D01*
X9991584Y-7243235D02*
X9991584Y-7071806D01*
X10248727Y-7271806D02*
X10248727Y-7071806D01*
X10248727Y-7071806D02*
X10315394Y-7214663D01*
X10315394Y-7214663D02*
X10382060Y-7071806D01*
X10382060Y-7071806D02*
X10382060Y-7271806D01*
X10563013Y-7271806D02*
X10563013Y-7167044D01*
X10563013Y-7167044D02*
X10553489Y-7147996D01*
X10553489Y-7147996D02*
X10534441Y-7138473D01*
X10534441Y-7138473D02*
X10496346Y-7138473D01*
X10496346Y-7138473D02*
X10477298Y-7147996D01*
X10563013Y-7262282D02*
X10543965Y-7271806D01*
X10543965Y-7271806D02*
X10496346Y-7271806D01*
X10496346Y-7271806D02*
X10477298Y-7262282D01*
X10477298Y-7262282D02*
X10467775Y-7243235D01*
X10467775Y-7243235D02*
X10467775Y-7224187D01*
X10467775Y-7224187D02*
X10477298Y-7205139D01*
X10477298Y-7205139D02*
X10496346Y-7195616D01*
X10496346Y-7195616D02*
X10543965Y-7195616D01*
X10543965Y-7195616D02*
X10563013Y-7186092D01*
X10658251Y-7138473D02*
X10658251Y-7338473D01*
X10658251Y-7147996D02*
X10677298Y-7138473D01*
X10677298Y-7138473D02*
X10715394Y-7138473D01*
X10715394Y-7138473D02*
X10734441Y-7147996D01*
X10734441Y-7147996D02*
X10743965Y-7157520D01*
X10743965Y-7157520D02*
X10753489Y-7176568D01*
X10753489Y-7176568D02*
X10753489Y-7233711D01*
X10753489Y-7233711D02*
X10743965Y-7252758D01*
X10743965Y-7252758D02*
X10734441Y-7262282D01*
X10734441Y-7262282D02*
X10715394Y-7271806D01*
X10715394Y-7271806D02*
X10677298Y-7271806D01*
X10677298Y-7271806D02*
X10658251Y-7262282D01*
X10839203Y-7252758D02*
X10848727Y-7262282D01*
X10848727Y-7262282D02*
X10839203Y-7271806D01*
X10839203Y-7271806D02*
X10829679Y-7262282D01*
X10829679Y-7262282D02*
X10839203Y-7252758D01*
X10839203Y-7252758D02*
X10839203Y-7271806D01*
X10839203Y-7147996D02*
X10848727Y-7157520D01*
X10848727Y-7157520D02*
X10839203Y-7167044D01*
X10839203Y-7167044D02*
X10829679Y-7157520D01*
X10829679Y-7157520D02*
X10839203Y-7147996D01*
X10839203Y-7147996D02*
X10839203Y-7167044D01*
D10*
X9176998Y-7585322D02*
X9206998Y-7615322D01*
X9206998Y-7585322D02*
X9176998Y-7615322D01*
D11*
X9505870Y-7491806D02*
X9524917Y-7491806D01*
X9524917Y-7491806D02*
X9543965Y-7501330D01*
X9543965Y-7501330D02*
X9553489Y-7510854D01*
X9553489Y-7510854D02*
X9563013Y-7529901D01*
X9563013Y-7529901D02*
X9572536Y-7567996D01*
X9572536Y-7567996D02*
X9572536Y-7615616D01*
X9572536Y-7615616D02*
X9563013Y-7653711D01*
X9563013Y-7653711D02*
X9553489Y-7672758D01*
X9553489Y-7672758D02*
X9543965Y-7682282D01*
X9543965Y-7682282D02*
X9524917Y-7691806D01*
X9524917Y-7691806D02*
X9505870Y-7691806D01*
X9505870Y-7691806D02*
X9486822Y-7682282D01*
X9486822Y-7682282D02*
X9477298Y-7672758D01*
X9477298Y-7672758D02*
X9467775Y-7653711D01*
X9467775Y-7653711D02*
X9458251Y-7615616D01*
X9458251Y-7615616D02*
X9458251Y-7567996D01*
X9458251Y-7567996D02*
X9467775Y-7529901D01*
X9467775Y-7529901D02*
X9477298Y-7510854D01*
X9477298Y-7510854D02*
X9486822Y-7501330D01*
X9486822Y-7501330D02*
X9505870Y-7491806D01*
X9658251Y-7672758D02*
X9667775Y-7682282D01*
X9667775Y-7682282D02*
X9658251Y-7691806D01*
X9658251Y-7691806D02*
X9648727Y-7682282D01*
X9648727Y-7682282D02*
X9658251Y-7672758D01*
X9658251Y-7672758D02*
X9658251Y-7691806D01*
X9734441Y-7491806D02*
X9858251Y-7491806D01*
X9858251Y-7491806D02*
X9791584Y-7567996D01*
X9791584Y-7567996D02*
X9820156Y-7567996D01*
X9820156Y-7567996D02*
X9839203Y-7577520D01*
X9839203Y-7577520D02*
X9848727Y-7587044D01*
X9848727Y-7587044D02*
X9858251Y-7606092D01*
X9858251Y-7606092D02*
X9858251Y-7653711D01*
X9858251Y-7653711D02*
X9848727Y-7672758D01*
X9848727Y-7672758D02*
X9839203Y-7682282D01*
X9839203Y-7682282D02*
X9820156Y-7691806D01*
X9820156Y-7691806D02*
X9763013Y-7691806D01*
X9763013Y-7691806D02*
X9743965Y-7682282D01*
X9743965Y-7682282D02*
X9734441Y-7672758D01*
X9982060Y-7491806D02*
X10001108Y-7491806D01*
X10001108Y-7491806D02*
X10020156Y-7501330D01*
X10020156Y-7501330D02*
X10029679Y-7510854D01*
X10029679Y-7510854D02*
X10039203Y-7529901D01*
X10039203Y-7529901D02*
X10048727Y-7567996D01*
X10048727Y-7567996D02*
X10048727Y-7615616D01*
X10048727Y-7615616D02*
X10039203Y-7653711D01*
X10039203Y-7653711D02*
X10029679Y-7672758D01*
X10029679Y-7672758D02*
X10020156Y-7682282D01*
X10020156Y-7682282D02*
X10001108Y-7691806D01*
X10001108Y-7691806D02*
X9982060Y-7691806D01*
X9982060Y-7691806D02*
X9963013Y-7682282D01*
X9963013Y-7682282D02*
X9953489Y-7672758D01*
X9953489Y-7672758D02*
X9943965Y-7653711D01*
X9943965Y-7653711D02*
X9934441Y-7615616D01*
X9934441Y-7615616D02*
X9934441Y-7567996D01*
X9934441Y-7567996D02*
X9943965Y-7529901D01*
X9943965Y-7529901D02*
X9953489Y-7510854D01*
X9953489Y-7510854D02*
X9963013Y-7501330D01*
X9963013Y-7501330D02*
X9982060Y-7491806D01*
X10172536Y-7491806D02*
X10191584Y-7491806D01*
X10191584Y-7491806D02*
X10210632Y-7501330D01*
X10210632Y-7501330D02*
X10220156Y-7510854D01*
X10220156Y-7510854D02*
X10229679Y-7529901D01*
X10229679Y-7529901D02*
X10239203Y-7567996D01*
X10239203Y-7567996D02*
X10239203Y-7615616D01*
X10239203Y-7615616D02*
X10229679Y-7653711D01*
X10229679Y-7653711D02*
X10220156Y-7672758D01*
X10220156Y-7672758D02*
X10210632Y-7682282D01*
X10210632Y-7682282D02*
X10191584Y-7691806D01*
X10191584Y-7691806D02*
X10172536Y-7691806D01*
X10172536Y-7691806D02*
X10153489Y-7682282D01*
X10153489Y-7682282D02*
X10143965Y-7672758D01*
X10143965Y-7672758D02*
X10134441Y-7653711D01*
X10134441Y-7653711D02*
X10124917Y-7615616D01*
X10124917Y-7615616D02*
X10124917Y-7567996D01*
X10124917Y-7567996D02*
X10134441Y-7529901D01*
X10134441Y-7529901D02*
X10143965Y-7510854D01*
X10143965Y-7510854D02*
X10153489Y-7501330D01*
X10153489Y-7501330D02*
X10172536Y-7491806D01*
X10324917Y-7691806D02*
X10324917Y-7558473D01*
X10324917Y-7577520D02*
X10334441Y-7567996D01*
X10334441Y-7567996D02*
X10353489Y-7558473D01*
X10353489Y-7558473D02*
X10382060Y-7558473D01*
X10382060Y-7558473D02*
X10401108Y-7567996D01*
X10401108Y-7567996D02*
X10410632Y-7587044D01*
X10410632Y-7587044D02*
X10410632Y-7691806D01*
X10410632Y-7587044D02*
X10420156Y-7567996D01*
X10420156Y-7567996D02*
X10439203Y-7558473D01*
X10439203Y-7558473D02*
X10467775Y-7558473D01*
X10467775Y-7558473D02*
X10486822Y-7567996D01*
X10486822Y-7567996D02*
X10496346Y-7587044D01*
X10496346Y-7587044D02*
X10496346Y-7691806D01*
X10591584Y-7691806D02*
X10591584Y-7558473D01*
X10591584Y-7577520D02*
X10601108Y-7567996D01*
X10601108Y-7567996D02*
X10620156Y-7558473D01*
X10620156Y-7558473D02*
X10648727Y-7558473D01*
X10648727Y-7558473D02*
X10667775Y-7567996D01*
X10667775Y-7567996D02*
X10677298Y-7587044D01*
X10677298Y-7587044D02*
X10677298Y-7691806D01*
X10677298Y-7587044D02*
X10686822Y-7567996D01*
X10686822Y-7567996D02*
X10705870Y-7558473D01*
X10705870Y-7558473D02*
X10734441Y-7558473D01*
X10734441Y-7558473D02*
X10753489Y-7567996D01*
X10753489Y-7567996D02*
X10763013Y-7587044D01*
X10763013Y-7587044D02*
X10763013Y-7691806D01*
X11153489Y-7482282D02*
X10982060Y-7739425D01*
X11410632Y-7491806D02*
X11429679Y-7491806D01*
X11429679Y-7491806D02*
X11448727Y-7501330D01*
X11448727Y-7501330D02*
X11458251Y-7510854D01*
X11458251Y-7510854D02*
X11467775Y-7529901D01*
X11467775Y-7529901D02*
X11477298Y-7567996D01*
X11477298Y-7567996D02*
X11477298Y-7615616D01*
X11477298Y-7615616D02*
X11467775Y-7653711D01*
X11467775Y-7653711D02*
X11458251Y-7672758D01*
X11458251Y-7672758D02*
X11448727Y-7682282D01*
X11448727Y-7682282D02*
X11429679Y-7691806D01*
X11429679Y-7691806D02*
X11410632Y-7691806D01*
X11410632Y-7691806D02*
X11391584Y-7682282D01*
X11391584Y-7682282D02*
X11382060Y-7672758D01*
X11382060Y-7672758D02*
X11372537Y-7653711D01*
X11372537Y-7653711D02*
X11363013Y-7615616D01*
X11363013Y-7615616D02*
X11363013Y-7567996D01*
X11363013Y-7567996D02*
X11372537Y-7529901D01*
X11372537Y-7529901D02*
X11382060Y-7510854D01*
X11382060Y-7510854D02*
X11391584Y-7501330D01*
X11391584Y-7501330D02*
X11410632Y-7491806D01*
X11563013Y-7672758D02*
X11572537Y-7682282D01*
X11572537Y-7682282D02*
X11563013Y-7691806D01*
X11563013Y-7691806D02*
X11553489Y-7682282D01*
X11553489Y-7682282D02*
X11563013Y-7672758D01*
X11563013Y-7672758D02*
X11563013Y-7691806D01*
X11696346Y-7491806D02*
X11715394Y-7491806D01*
X11715394Y-7491806D02*
X11734441Y-7501330D01*
X11734441Y-7501330D02*
X11743965Y-7510854D01*
X11743965Y-7510854D02*
X11753489Y-7529901D01*
X11753489Y-7529901D02*
X11763013Y-7567996D01*
X11763013Y-7567996D02*
X11763013Y-7615616D01*
X11763013Y-7615616D02*
X11753489Y-7653711D01*
X11753489Y-7653711D02*
X11743965Y-7672758D01*
X11743965Y-7672758D02*
X11734441Y-7682282D01*
X11734441Y-7682282D02*
X11715394Y-7691806D01*
X11715394Y-7691806D02*
X11696346Y-7691806D01*
X11696346Y-7691806D02*
X11677298Y-7682282D01*
X11677298Y-7682282D02*
X11667775Y-7672758D01*
X11667775Y-7672758D02*
X11658251Y-7653711D01*
X11658251Y-7653711D02*
X11648727Y-7615616D01*
X11648727Y-7615616D02*
X11648727Y-7567996D01*
X11648727Y-7567996D02*
X11658251Y-7529901D01*
X11658251Y-7529901D02*
X11667775Y-7510854D01*
X11667775Y-7510854D02*
X11677298Y-7501330D01*
X11677298Y-7501330D02*
X11696346Y-7491806D01*
X11953489Y-7691806D02*
X11839203Y-7691806D01*
X11896346Y-7691806D02*
X11896346Y-7491806D01*
X11896346Y-7491806D02*
X11877298Y-7520377D01*
X11877298Y-7520377D02*
X11858251Y-7539425D01*
X11858251Y-7539425D02*
X11839203Y-7548949D01*
X12143965Y-7691806D02*
X12029679Y-7691806D01*
X12086822Y-7691806D02*
X12086822Y-7491806D01*
X12086822Y-7491806D02*
X12067775Y-7520377D01*
X12067775Y-7520377D02*
X12048727Y-7539425D01*
X12048727Y-7539425D02*
X12029679Y-7548949D01*
X12258251Y-7577520D02*
X12239203Y-7567996D01*
X12239203Y-7567996D02*
X12229679Y-7558473D01*
X12229679Y-7558473D02*
X12220156Y-7539425D01*
X12220156Y-7539425D02*
X12220156Y-7529901D01*
X12220156Y-7529901D02*
X12229679Y-7510854D01*
X12229679Y-7510854D02*
X12239203Y-7501330D01*
X12239203Y-7501330D02*
X12258251Y-7491806D01*
X12258251Y-7491806D02*
X12296346Y-7491806D01*
X12296346Y-7491806D02*
X12315394Y-7501330D01*
X12315394Y-7501330D02*
X12324918Y-7510854D01*
X12324918Y-7510854D02*
X12334441Y-7529901D01*
X12334441Y-7529901D02*
X12334441Y-7539425D01*
X12334441Y-7539425D02*
X12324918Y-7558473D01*
X12324918Y-7558473D02*
X12315394Y-7567996D01*
X12315394Y-7567996D02*
X12296346Y-7577520D01*
X12296346Y-7577520D02*
X12258251Y-7577520D01*
X12258251Y-7577520D02*
X12239203Y-7587044D01*
X12239203Y-7587044D02*
X12229679Y-7596568D01*
X12229679Y-7596568D02*
X12220156Y-7615616D01*
X12220156Y-7615616D02*
X12220156Y-7653711D01*
X12220156Y-7653711D02*
X12229679Y-7672758D01*
X12229679Y-7672758D02*
X12239203Y-7682282D01*
X12239203Y-7682282D02*
X12258251Y-7691806D01*
X12258251Y-7691806D02*
X12296346Y-7691806D01*
X12296346Y-7691806D02*
X12315394Y-7682282D01*
X12315394Y-7682282D02*
X12324918Y-7672758D01*
X12324918Y-7672758D02*
X12334441Y-7653711D01*
X12334441Y-7653711D02*
X12334441Y-7615616D01*
X12334441Y-7615616D02*
X12324918Y-7596568D01*
X12324918Y-7596568D02*
X12315394Y-7587044D01*
X12315394Y-7587044D02*
X12296346Y-7577520D01*
X12410632Y-7491806D02*
X12410632Y-7529901D01*
X12486822Y-7491806D02*
X12486822Y-7529901D01*
X12782061Y-7767996D02*
X12772537Y-7758473D01*
X12772537Y-7758473D02*
X12753489Y-7729901D01*
X12753489Y-7729901D02*
X12743965Y-7710854D01*
X12743965Y-7710854D02*
X12734441Y-7682282D01*
X12734441Y-7682282D02*
X12724918Y-7634663D01*
X12724918Y-7634663D02*
X12724918Y-7596568D01*
X12724918Y-7596568D02*
X12734441Y-7548949D01*
X12734441Y-7548949D02*
X12743965Y-7520377D01*
X12743965Y-7520377D02*
X12753489Y-7501330D01*
X12753489Y-7501330D02*
X12772537Y-7472758D01*
X12772537Y-7472758D02*
X12782061Y-7463235D01*
X12963013Y-7691806D02*
X12848727Y-7691806D01*
X12905870Y-7691806D02*
X12905870Y-7491806D01*
X12905870Y-7491806D02*
X12886822Y-7520377D01*
X12886822Y-7520377D02*
X12867775Y-7539425D01*
X12867775Y-7539425D02*
X12848727Y-7548949D01*
X13086822Y-7491806D02*
X13105870Y-7491806D01*
X13105870Y-7491806D02*
X13124918Y-7501330D01*
X13124918Y-7501330D02*
X13134441Y-7510854D01*
X13134441Y-7510854D02*
X13143965Y-7529901D01*
X13143965Y-7529901D02*
X13153489Y-7567996D01*
X13153489Y-7567996D02*
X13153489Y-7615616D01*
X13153489Y-7615616D02*
X13143965Y-7653711D01*
X13143965Y-7653711D02*
X13134441Y-7672758D01*
X13134441Y-7672758D02*
X13124918Y-7682282D01*
X13124918Y-7682282D02*
X13105870Y-7691806D01*
X13105870Y-7691806D02*
X13086822Y-7691806D01*
X13086822Y-7691806D02*
X13067775Y-7682282D01*
X13067775Y-7682282D02*
X13058251Y-7672758D01*
X13058251Y-7672758D02*
X13048727Y-7653711D01*
X13048727Y-7653711D02*
X13039203Y-7615616D01*
X13039203Y-7615616D02*
X13039203Y-7567996D01*
X13039203Y-7567996D02*
X13048727Y-7529901D01*
X13048727Y-7529901D02*
X13058251Y-7510854D01*
X13058251Y-7510854D02*
X13067775Y-7501330D01*
X13067775Y-7501330D02*
X13086822Y-7491806D01*
X13229680Y-7510854D02*
X13239203Y-7501330D01*
X13239203Y-7501330D02*
X13258251Y-7491806D01*
X13258251Y-7491806D02*
X13305870Y-7491806D01*
X13305870Y-7491806D02*
X13324918Y-7501330D01*
X13324918Y-7501330D02*
X13334441Y-7510854D01*
X13334441Y-7510854D02*
X13343965Y-7529901D01*
X13343965Y-7529901D02*
X13343965Y-7548949D01*
X13343965Y-7548949D02*
X13334441Y-7577520D01*
X13334441Y-7577520D02*
X13220156Y-7691806D01*
X13220156Y-7691806D02*
X13343965Y-7691806D01*
X13582061Y-7691806D02*
X13582061Y-7491806D01*
X13667775Y-7691806D02*
X13667775Y-7587044D01*
X13667775Y-7587044D02*
X13658251Y-7567996D01*
X13658251Y-7567996D02*
X13639203Y-7558473D01*
X13639203Y-7558473D02*
X13610632Y-7558473D01*
X13610632Y-7558473D02*
X13591584Y-7567996D01*
X13591584Y-7567996D02*
X13582061Y-7577520D01*
X13791584Y-7691806D02*
X13772537Y-7682282D01*
X13772537Y-7682282D02*
X13763013Y-7672758D01*
X13763013Y-7672758D02*
X13753489Y-7653711D01*
X13753489Y-7653711D02*
X13753489Y-7596568D01*
X13753489Y-7596568D02*
X13763013Y-7577520D01*
X13763013Y-7577520D02*
X13772537Y-7567996D01*
X13772537Y-7567996D02*
X13791584Y-7558473D01*
X13791584Y-7558473D02*
X13820156Y-7558473D01*
X13820156Y-7558473D02*
X13839203Y-7567996D01*
X13839203Y-7567996D02*
X13848727Y-7577520D01*
X13848727Y-7577520D02*
X13858251Y-7596568D01*
X13858251Y-7596568D02*
X13858251Y-7653711D01*
X13858251Y-7653711D02*
X13848727Y-7672758D01*
X13848727Y-7672758D02*
X13839203Y-7682282D01*
X13839203Y-7682282D02*
X13820156Y-7691806D01*
X13820156Y-7691806D02*
X13791584Y-7691806D01*
X13972537Y-7691806D02*
X13953489Y-7682282D01*
X13953489Y-7682282D02*
X13943965Y-7663235D01*
X13943965Y-7663235D02*
X13943965Y-7491806D01*
X14124918Y-7682282D02*
X14105870Y-7691806D01*
X14105870Y-7691806D02*
X14067775Y-7691806D01*
X14067775Y-7691806D02*
X14048727Y-7682282D01*
X14048727Y-7682282D02*
X14039203Y-7663235D01*
X14039203Y-7663235D02*
X14039203Y-7587044D01*
X14039203Y-7587044D02*
X14048727Y-7567996D01*
X14048727Y-7567996D02*
X14067775Y-7558473D01*
X14067775Y-7558473D02*
X14105870Y-7558473D01*
X14105870Y-7558473D02*
X14124918Y-7567996D01*
X14124918Y-7567996D02*
X14134442Y-7587044D01*
X14134442Y-7587044D02*
X14134442Y-7606092D01*
X14134442Y-7606092D02*
X14039203Y-7625139D01*
X14210632Y-7682282D02*
X14229680Y-7691806D01*
X14229680Y-7691806D02*
X14267775Y-7691806D01*
X14267775Y-7691806D02*
X14286823Y-7682282D01*
X14286823Y-7682282D02*
X14296346Y-7663235D01*
X14296346Y-7663235D02*
X14296346Y-7653711D01*
X14296346Y-7653711D02*
X14286823Y-7634663D01*
X14286823Y-7634663D02*
X14267775Y-7625139D01*
X14267775Y-7625139D02*
X14239203Y-7625139D01*
X14239203Y-7625139D02*
X14220156Y-7615616D01*
X14220156Y-7615616D02*
X14210632Y-7596568D01*
X14210632Y-7596568D02*
X14210632Y-7587044D01*
X14210632Y-7587044D02*
X14220156Y-7567996D01*
X14220156Y-7567996D02*
X14239203Y-7558473D01*
X14239203Y-7558473D02*
X14267775Y-7558473D01*
X14267775Y-7558473D02*
X14286823Y-7567996D01*
X14363013Y-7767996D02*
X14372537Y-7758473D01*
X14372537Y-7758473D02*
X14391584Y-7729901D01*
X14391584Y-7729901D02*
X14401108Y-7710854D01*
X14401108Y-7710854D02*
X14410632Y-7682282D01*
X14410632Y-7682282D02*
X14420156Y-7634663D01*
X14420156Y-7634663D02*
X14420156Y-7596568D01*
X14420156Y-7596568D02*
X14410632Y-7548949D01*
X14410632Y-7548949D02*
X14401108Y-7520377D01*
X14401108Y-7520377D02*
X14391584Y-7501330D01*
X14391584Y-7501330D02*
X14372537Y-7472758D01*
X14372537Y-7472758D02*
X14363013Y-7463235D01*
D10*
X9206998Y-7864322D02*
G75*
G02*
X9146998Y-7864322I-30000J0D01*
G01*
X9146998Y-7864322D02*
G75*
G02*
X9206998Y-7864322I30000J0D01*
G01*
D11*
X9505870Y-7755806D02*
X9524917Y-7755806D01*
X9524917Y-7755806D02*
X9543965Y-7765330D01*
X9543965Y-7765330D02*
X9553489Y-7774854D01*
X9553489Y-7774854D02*
X9563013Y-7793901D01*
X9563013Y-7793901D02*
X9572536Y-7831996D01*
X9572536Y-7831996D02*
X9572536Y-7879616D01*
X9572536Y-7879616D02*
X9563013Y-7917711D01*
X9563013Y-7917711D02*
X9553489Y-7936758D01*
X9553489Y-7936758D02*
X9543965Y-7946282D01*
X9543965Y-7946282D02*
X9524917Y-7955806D01*
X9524917Y-7955806D02*
X9505870Y-7955806D01*
X9505870Y-7955806D02*
X9486822Y-7946282D01*
X9486822Y-7946282D02*
X9477298Y-7936758D01*
X9477298Y-7936758D02*
X9467775Y-7917711D01*
X9467775Y-7917711D02*
X9458251Y-7879616D01*
X9458251Y-7879616D02*
X9458251Y-7831996D01*
X9458251Y-7831996D02*
X9467775Y-7793901D01*
X9467775Y-7793901D02*
X9477298Y-7774854D01*
X9477298Y-7774854D02*
X9486822Y-7765330D01*
X9486822Y-7765330D02*
X9505870Y-7755806D01*
X9658251Y-7936758D02*
X9667775Y-7946282D01*
X9667775Y-7946282D02*
X9658251Y-7955806D01*
X9658251Y-7955806D02*
X9648727Y-7946282D01*
X9648727Y-7946282D02*
X9658251Y-7936758D01*
X9658251Y-7936758D02*
X9658251Y-7955806D01*
X9839203Y-7755806D02*
X9801108Y-7755806D01*
X9801108Y-7755806D02*
X9782060Y-7765330D01*
X9782060Y-7765330D02*
X9772536Y-7774854D01*
X9772536Y-7774854D02*
X9753489Y-7803425D01*
X9753489Y-7803425D02*
X9743965Y-7841520D01*
X9743965Y-7841520D02*
X9743965Y-7917711D01*
X9743965Y-7917711D02*
X9753489Y-7936758D01*
X9753489Y-7936758D02*
X9763013Y-7946282D01*
X9763013Y-7946282D02*
X9782060Y-7955806D01*
X9782060Y-7955806D02*
X9820156Y-7955806D01*
X9820156Y-7955806D02*
X9839203Y-7946282D01*
X9839203Y-7946282D02*
X9848727Y-7936758D01*
X9848727Y-7936758D02*
X9858251Y-7917711D01*
X9858251Y-7917711D02*
X9858251Y-7870092D01*
X9858251Y-7870092D02*
X9848727Y-7851044D01*
X9848727Y-7851044D02*
X9839203Y-7841520D01*
X9839203Y-7841520D02*
X9820156Y-7831996D01*
X9820156Y-7831996D02*
X9782060Y-7831996D01*
X9782060Y-7831996D02*
X9763013Y-7841520D01*
X9763013Y-7841520D02*
X9753489Y-7851044D01*
X9753489Y-7851044D02*
X9743965Y-7870092D01*
X9982060Y-7755806D02*
X10001108Y-7755806D01*
X10001108Y-7755806D02*
X10020156Y-7765330D01*
X10020156Y-7765330D02*
X10029679Y-7774854D01*
X10029679Y-7774854D02*
X10039203Y-7793901D01*
X10039203Y-7793901D02*
X10048727Y-7831996D01*
X10048727Y-7831996D02*
X10048727Y-7879616D01*
X10048727Y-7879616D02*
X10039203Y-7917711D01*
X10039203Y-7917711D02*
X10029679Y-7936758D01*
X10029679Y-7936758D02*
X10020156Y-7946282D01*
X10020156Y-7946282D02*
X10001108Y-7955806D01*
X10001108Y-7955806D02*
X9982060Y-7955806D01*
X9982060Y-7955806D02*
X9963013Y-7946282D01*
X9963013Y-7946282D02*
X9953489Y-7936758D01*
X9953489Y-7936758D02*
X9943965Y-7917711D01*
X9943965Y-7917711D02*
X9934441Y-7879616D01*
X9934441Y-7879616D02*
X9934441Y-7831996D01*
X9934441Y-7831996D02*
X9943965Y-7793901D01*
X9943965Y-7793901D02*
X9953489Y-7774854D01*
X9953489Y-7774854D02*
X9963013Y-7765330D01*
X9963013Y-7765330D02*
X9982060Y-7755806D01*
X10172536Y-7755806D02*
X10191584Y-7755806D01*
X10191584Y-7755806D02*
X10210632Y-7765330D01*
X10210632Y-7765330D02*
X10220156Y-7774854D01*
X10220156Y-7774854D02*
X10229679Y-7793901D01*
X10229679Y-7793901D02*
X10239203Y-7831996D01*
X10239203Y-7831996D02*
X10239203Y-7879616D01*
X10239203Y-7879616D02*
X10229679Y-7917711D01*
X10229679Y-7917711D02*
X10220156Y-7936758D01*
X10220156Y-7936758D02*
X10210632Y-7946282D01*
X10210632Y-7946282D02*
X10191584Y-7955806D01*
X10191584Y-7955806D02*
X10172536Y-7955806D01*
X10172536Y-7955806D02*
X10153489Y-7946282D01*
X10153489Y-7946282D02*
X10143965Y-7936758D01*
X10143965Y-7936758D02*
X10134441Y-7917711D01*
X10134441Y-7917711D02*
X10124917Y-7879616D01*
X10124917Y-7879616D02*
X10124917Y-7831996D01*
X10124917Y-7831996D02*
X10134441Y-7793901D01*
X10134441Y-7793901D02*
X10143965Y-7774854D01*
X10143965Y-7774854D02*
X10153489Y-7765330D01*
X10153489Y-7765330D02*
X10172536Y-7755806D01*
X10324917Y-7955806D02*
X10324917Y-7822473D01*
X10324917Y-7841520D02*
X10334441Y-7831996D01*
X10334441Y-7831996D02*
X10353489Y-7822473D01*
X10353489Y-7822473D02*
X10382060Y-7822473D01*
X10382060Y-7822473D02*
X10401108Y-7831996D01*
X10401108Y-7831996D02*
X10410632Y-7851044D01*
X10410632Y-7851044D02*
X10410632Y-7955806D01*
X10410632Y-7851044D02*
X10420156Y-7831996D01*
X10420156Y-7831996D02*
X10439203Y-7822473D01*
X10439203Y-7822473D02*
X10467775Y-7822473D01*
X10467775Y-7822473D02*
X10486822Y-7831996D01*
X10486822Y-7831996D02*
X10496346Y-7851044D01*
X10496346Y-7851044D02*
X10496346Y-7955806D01*
X10591584Y-7955806D02*
X10591584Y-7822473D01*
X10591584Y-7841520D02*
X10601108Y-7831996D01*
X10601108Y-7831996D02*
X10620156Y-7822473D01*
X10620156Y-7822473D02*
X10648727Y-7822473D01*
X10648727Y-7822473D02*
X10667775Y-7831996D01*
X10667775Y-7831996D02*
X10677298Y-7851044D01*
X10677298Y-7851044D02*
X10677298Y-7955806D01*
X10677298Y-7851044D02*
X10686822Y-7831996D01*
X10686822Y-7831996D02*
X10705870Y-7822473D01*
X10705870Y-7822473D02*
X10734441Y-7822473D01*
X10734441Y-7822473D02*
X10753489Y-7831996D01*
X10753489Y-7831996D02*
X10763013Y-7851044D01*
X10763013Y-7851044D02*
X10763013Y-7955806D01*
X11153489Y-7746282D02*
X10982060Y-8003425D01*
X11410632Y-7755806D02*
X11429679Y-7755806D01*
X11429679Y-7755806D02*
X11448727Y-7765330D01*
X11448727Y-7765330D02*
X11458251Y-7774854D01*
X11458251Y-7774854D02*
X11467775Y-7793901D01*
X11467775Y-7793901D02*
X11477298Y-7831996D01*
X11477298Y-7831996D02*
X11477298Y-7879616D01*
X11477298Y-7879616D02*
X11467775Y-7917711D01*
X11467775Y-7917711D02*
X11458251Y-7936758D01*
X11458251Y-7936758D02*
X11448727Y-7946282D01*
X11448727Y-7946282D02*
X11429679Y-7955806D01*
X11429679Y-7955806D02*
X11410632Y-7955806D01*
X11410632Y-7955806D02*
X11391584Y-7946282D01*
X11391584Y-7946282D02*
X11382060Y-7936758D01*
X11382060Y-7936758D02*
X11372537Y-7917711D01*
X11372537Y-7917711D02*
X11363013Y-7879616D01*
X11363013Y-7879616D02*
X11363013Y-7831996D01*
X11363013Y-7831996D02*
X11372537Y-7793901D01*
X11372537Y-7793901D02*
X11382060Y-7774854D01*
X11382060Y-7774854D02*
X11391584Y-7765330D01*
X11391584Y-7765330D02*
X11410632Y-7755806D01*
X11563013Y-7936758D02*
X11572537Y-7946282D01*
X11572537Y-7946282D02*
X11563013Y-7955806D01*
X11563013Y-7955806D02*
X11553489Y-7946282D01*
X11553489Y-7946282D02*
X11563013Y-7936758D01*
X11563013Y-7936758D02*
X11563013Y-7955806D01*
X11696346Y-7755806D02*
X11715394Y-7755806D01*
X11715394Y-7755806D02*
X11734441Y-7765330D01*
X11734441Y-7765330D02*
X11743965Y-7774854D01*
X11743965Y-7774854D02*
X11753489Y-7793901D01*
X11753489Y-7793901D02*
X11763013Y-7831996D01*
X11763013Y-7831996D02*
X11763013Y-7879616D01*
X11763013Y-7879616D02*
X11753489Y-7917711D01*
X11753489Y-7917711D02*
X11743965Y-7936758D01*
X11743965Y-7936758D02*
X11734441Y-7946282D01*
X11734441Y-7946282D02*
X11715394Y-7955806D01*
X11715394Y-7955806D02*
X11696346Y-7955806D01*
X11696346Y-7955806D02*
X11677298Y-7946282D01*
X11677298Y-7946282D02*
X11667775Y-7936758D01*
X11667775Y-7936758D02*
X11658251Y-7917711D01*
X11658251Y-7917711D02*
X11648727Y-7879616D01*
X11648727Y-7879616D02*
X11648727Y-7831996D01*
X11648727Y-7831996D02*
X11658251Y-7793901D01*
X11658251Y-7793901D02*
X11667775Y-7774854D01*
X11667775Y-7774854D02*
X11677298Y-7765330D01*
X11677298Y-7765330D02*
X11696346Y-7755806D01*
X11839203Y-7774854D02*
X11848727Y-7765330D01*
X11848727Y-7765330D02*
X11867775Y-7755806D01*
X11867775Y-7755806D02*
X11915394Y-7755806D01*
X11915394Y-7755806D02*
X11934441Y-7765330D01*
X11934441Y-7765330D02*
X11943965Y-7774854D01*
X11943965Y-7774854D02*
X11953489Y-7793901D01*
X11953489Y-7793901D02*
X11953489Y-7812949D01*
X11953489Y-7812949D02*
X11943965Y-7841520D01*
X11943965Y-7841520D02*
X11829679Y-7955806D01*
X11829679Y-7955806D02*
X11953489Y-7955806D01*
X12020156Y-7755806D02*
X12143965Y-7755806D01*
X12143965Y-7755806D02*
X12077298Y-7831996D01*
X12077298Y-7831996D02*
X12105870Y-7831996D01*
X12105870Y-7831996D02*
X12124918Y-7841520D01*
X12124918Y-7841520D02*
X12134441Y-7851044D01*
X12134441Y-7851044D02*
X12143965Y-7870092D01*
X12143965Y-7870092D02*
X12143965Y-7917711D01*
X12143965Y-7917711D02*
X12134441Y-7936758D01*
X12134441Y-7936758D02*
X12124918Y-7946282D01*
X12124918Y-7946282D02*
X12105870Y-7955806D01*
X12105870Y-7955806D02*
X12048727Y-7955806D01*
X12048727Y-7955806D02*
X12029679Y-7946282D01*
X12029679Y-7946282D02*
X12020156Y-7936758D01*
X12315394Y-7755806D02*
X12277298Y-7755806D01*
X12277298Y-7755806D02*
X12258251Y-7765330D01*
X12258251Y-7765330D02*
X12248727Y-7774854D01*
X12248727Y-7774854D02*
X12229679Y-7803425D01*
X12229679Y-7803425D02*
X12220156Y-7841520D01*
X12220156Y-7841520D02*
X12220156Y-7917711D01*
X12220156Y-7917711D02*
X12229679Y-7936758D01*
X12229679Y-7936758D02*
X12239203Y-7946282D01*
X12239203Y-7946282D02*
X12258251Y-7955806D01*
X12258251Y-7955806D02*
X12296346Y-7955806D01*
X12296346Y-7955806D02*
X12315394Y-7946282D01*
X12315394Y-7946282D02*
X12324918Y-7936758D01*
X12324918Y-7936758D02*
X12334441Y-7917711D01*
X12334441Y-7917711D02*
X12334441Y-7870092D01*
X12334441Y-7870092D02*
X12324918Y-7851044D01*
X12324918Y-7851044D02*
X12315394Y-7841520D01*
X12315394Y-7841520D02*
X12296346Y-7831996D01*
X12296346Y-7831996D02*
X12258251Y-7831996D01*
X12258251Y-7831996D02*
X12239203Y-7841520D01*
X12239203Y-7841520D02*
X12229679Y-7851044D01*
X12229679Y-7851044D02*
X12220156Y-7870092D01*
X12410632Y-7755806D02*
X12410632Y-7793901D01*
X12486822Y-7755806D02*
X12486822Y-7793901D01*
X12782061Y-8031996D02*
X12772537Y-8022473D01*
X12772537Y-8022473D02*
X12753489Y-7993901D01*
X12753489Y-7993901D02*
X12743965Y-7974854D01*
X12743965Y-7974854D02*
X12734441Y-7946282D01*
X12734441Y-7946282D02*
X12724918Y-7898663D01*
X12724918Y-7898663D02*
X12724918Y-7860568D01*
X12724918Y-7860568D02*
X12734441Y-7812949D01*
X12734441Y-7812949D02*
X12743965Y-7784377D01*
X12743965Y-7784377D02*
X12753489Y-7765330D01*
X12753489Y-7765330D02*
X12772537Y-7736758D01*
X12772537Y-7736758D02*
X12782061Y-7727235D01*
X12839203Y-7755806D02*
X12963013Y-7755806D01*
X12963013Y-7755806D02*
X12896346Y-7831996D01*
X12896346Y-7831996D02*
X12924918Y-7831996D01*
X12924918Y-7831996D02*
X12943965Y-7841520D01*
X12943965Y-7841520D02*
X12953489Y-7851044D01*
X12953489Y-7851044D02*
X12963013Y-7870092D01*
X12963013Y-7870092D02*
X12963013Y-7917711D01*
X12963013Y-7917711D02*
X12953489Y-7936758D01*
X12953489Y-7936758D02*
X12943965Y-7946282D01*
X12943965Y-7946282D02*
X12924918Y-7955806D01*
X12924918Y-7955806D02*
X12867775Y-7955806D01*
X12867775Y-7955806D02*
X12848727Y-7946282D01*
X12848727Y-7946282D02*
X12839203Y-7936758D01*
X13201108Y-7955806D02*
X13201108Y-7755806D01*
X13286822Y-7955806D02*
X13286822Y-7851044D01*
X13286822Y-7851044D02*
X13277299Y-7831996D01*
X13277299Y-7831996D02*
X13258251Y-7822473D01*
X13258251Y-7822473D02*
X13229680Y-7822473D01*
X13229680Y-7822473D02*
X13210632Y-7831996D01*
X13210632Y-7831996D02*
X13201108Y-7841520D01*
X13410632Y-7955806D02*
X13391584Y-7946282D01*
X13391584Y-7946282D02*
X13382061Y-7936758D01*
X13382061Y-7936758D02*
X13372537Y-7917711D01*
X13372537Y-7917711D02*
X13372537Y-7860568D01*
X13372537Y-7860568D02*
X13382061Y-7841520D01*
X13382061Y-7841520D02*
X13391584Y-7831996D01*
X13391584Y-7831996D02*
X13410632Y-7822473D01*
X13410632Y-7822473D02*
X13439203Y-7822473D01*
X13439203Y-7822473D02*
X13458251Y-7831996D01*
X13458251Y-7831996D02*
X13467775Y-7841520D01*
X13467775Y-7841520D02*
X13477299Y-7860568D01*
X13477299Y-7860568D02*
X13477299Y-7917711D01*
X13477299Y-7917711D02*
X13467775Y-7936758D01*
X13467775Y-7936758D02*
X13458251Y-7946282D01*
X13458251Y-7946282D02*
X13439203Y-7955806D01*
X13439203Y-7955806D02*
X13410632Y-7955806D01*
X13591584Y-7955806D02*
X13572537Y-7946282D01*
X13572537Y-7946282D02*
X13563013Y-7927235D01*
X13563013Y-7927235D02*
X13563013Y-7755806D01*
X13743965Y-7946282D02*
X13724918Y-7955806D01*
X13724918Y-7955806D02*
X13686822Y-7955806D01*
X13686822Y-7955806D02*
X13667775Y-7946282D01*
X13667775Y-7946282D02*
X13658251Y-7927235D01*
X13658251Y-7927235D02*
X13658251Y-7851044D01*
X13658251Y-7851044D02*
X13667775Y-7831996D01*
X13667775Y-7831996D02*
X13686822Y-7822473D01*
X13686822Y-7822473D02*
X13724918Y-7822473D01*
X13724918Y-7822473D02*
X13743965Y-7831996D01*
X13743965Y-7831996D02*
X13753489Y-7851044D01*
X13753489Y-7851044D02*
X13753489Y-7870092D01*
X13753489Y-7870092D02*
X13658251Y-7889139D01*
X13829680Y-7946282D02*
X13848727Y-7955806D01*
X13848727Y-7955806D02*
X13886822Y-7955806D01*
X13886822Y-7955806D02*
X13905870Y-7946282D01*
X13905870Y-7946282D02*
X13915394Y-7927235D01*
X13915394Y-7927235D02*
X13915394Y-7917711D01*
X13915394Y-7917711D02*
X13905870Y-7898663D01*
X13905870Y-7898663D02*
X13886822Y-7889139D01*
X13886822Y-7889139D02*
X13858251Y-7889139D01*
X13858251Y-7889139D02*
X13839203Y-7879616D01*
X13839203Y-7879616D02*
X13829680Y-7860568D01*
X13829680Y-7860568D02*
X13829680Y-7851044D01*
X13829680Y-7851044D02*
X13839203Y-7831996D01*
X13839203Y-7831996D02*
X13858251Y-7822473D01*
X13858251Y-7822473D02*
X13886822Y-7822473D01*
X13886822Y-7822473D02*
X13905870Y-7831996D01*
X14153489Y-7879616D02*
X14305870Y-7879616D01*
X14229680Y-7955806D02*
X14229680Y-7803425D01*
X14639204Y-7822473D02*
X14639204Y-7955806D01*
X14591584Y-7746282D02*
X14543965Y-7889139D01*
X14543965Y-7889139D02*
X14667775Y-7889139D01*
X14886823Y-7946282D02*
X14905870Y-7955806D01*
X14905870Y-7955806D02*
X14943965Y-7955806D01*
X14943965Y-7955806D02*
X14963013Y-7946282D01*
X14963013Y-7946282D02*
X14972537Y-7927235D01*
X14972537Y-7927235D02*
X14972537Y-7917711D01*
X14972537Y-7917711D02*
X14963013Y-7898663D01*
X14963013Y-7898663D02*
X14943965Y-7889139D01*
X14943965Y-7889139D02*
X14915394Y-7889139D01*
X14915394Y-7889139D02*
X14896346Y-7879616D01*
X14896346Y-7879616D02*
X14886823Y-7860568D01*
X14886823Y-7860568D02*
X14886823Y-7851044D01*
X14886823Y-7851044D02*
X14896346Y-7831996D01*
X14896346Y-7831996D02*
X14915394Y-7822473D01*
X14915394Y-7822473D02*
X14943965Y-7822473D01*
X14943965Y-7822473D02*
X14963013Y-7831996D01*
X15086823Y-7955806D02*
X15067775Y-7946282D01*
X15067775Y-7946282D02*
X15058251Y-7927235D01*
X15058251Y-7927235D02*
X15058251Y-7755806D01*
X15191585Y-7955806D02*
X15172537Y-7946282D01*
X15172537Y-7946282D02*
X15163013Y-7936758D01*
X15163013Y-7936758D02*
X15153489Y-7917711D01*
X15153489Y-7917711D02*
X15153489Y-7860568D01*
X15153489Y-7860568D02*
X15163013Y-7841520D01*
X15163013Y-7841520D02*
X15172537Y-7831996D01*
X15172537Y-7831996D02*
X15191585Y-7822473D01*
X15191585Y-7822473D02*
X15220156Y-7822473D01*
X15220156Y-7822473D02*
X15239204Y-7831996D01*
X15239204Y-7831996D02*
X15248727Y-7841520D01*
X15248727Y-7841520D02*
X15258251Y-7860568D01*
X15258251Y-7860568D02*
X15258251Y-7917711D01*
X15258251Y-7917711D02*
X15248727Y-7936758D01*
X15248727Y-7936758D02*
X15239204Y-7946282D01*
X15239204Y-7946282D02*
X15220156Y-7955806D01*
X15220156Y-7955806D02*
X15191585Y-7955806D01*
X15315394Y-7822473D02*
X15391585Y-7822473D01*
X15343966Y-7755806D02*
X15343966Y-7927235D01*
X15343966Y-7927235D02*
X15353489Y-7946282D01*
X15353489Y-7946282D02*
X15372537Y-7955806D01*
X15372537Y-7955806D02*
X15391585Y-7955806D01*
X15448727Y-7946282D02*
X15467775Y-7955806D01*
X15467775Y-7955806D02*
X15505870Y-7955806D01*
X15505870Y-7955806D02*
X15524918Y-7946282D01*
X15524918Y-7946282D02*
X15534442Y-7927235D01*
X15534442Y-7927235D02*
X15534442Y-7917711D01*
X15534442Y-7917711D02*
X15524918Y-7898663D01*
X15524918Y-7898663D02*
X15505870Y-7889139D01*
X15505870Y-7889139D02*
X15477299Y-7889139D01*
X15477299Y-7889139D02*
X15458251Y-7879616D01*
X15458251Y-7879616D02*
X15448727Y-7860568D01*
X15448727Y-7860568D02*
X15448727Y-7851044D01*
X15448727Y-7851044D02*
X15458251Y-7831996D01*
X15458251Y-7831996D02*
X15477299Y-7822473D01*
X15477299Y-7822473D02*
X15505870Y-7822473D01*
X15505870Y-7822473D02*
X15524918Y-7831996D01*
X15601108Y-8031996D02*
X15610632Y-8022473D01*
X15610632Y-8022473D02*
X15629680Y-7993901D01*
X15629680Y-7993901D02*
X15639204Y-7974854D01*
X15639204Y-7974854D02*
X15648727Y-7946282D01*
X15648727Y-7946282D02*
X15658251Y-7898663D01*
X15658251Y-7898663D02*
X15658251Y-7860568D01*
X15658251Y-7860568D02*
X15648727Y-7812949D01*
X15648727Y-7812949D02*
X15639204Y-7784377D01*
X15639204Y-7784377D02*
X15629680Y-7765330D01*
X15629680Y-7765330D02*
X15610632Y-7736758D01*
X15610632Y-7736758D02*
X15601108Y-7727235D01*
D10*
X9174498Y-8095822D02*
X9174498Y-8160822D01*
X9141998Y-8128322D02*
X9206998Y-8128322D01*
D11*
X9505870Y-8019806D02*
X9524917Y-8019806D01*
X9524917Y-8019806D02*
X9543965Y-8029330D01*
X9543965Y-8029330D02*
X9553489Y-8038854D01*
X9553489Y-8038854D02*
X9563013Y-8057901D01*
X9563013Y-8057901D02*
X9572536Y-8095996D01*
X9572536Y-8095996D02*
X9572536Y-8143616D01*
X9572536Y-8143616D02*
X9563013Y-8181711D01*
X9563013Y-8181711D02*
X9553489Y-8200758D01*
X9553489Y-8200758D02*
X9543965Y-8210282D01*
X9543965Y-8210282D02*
X9524917Y-8219806D01*
X9524917Y-8219806D02*
X9505870Y-8219806D01*
X9505870Y-8219806D02*
X9486822Y-8210282D01*
X9486822Y-8210282D02*
X9477298Y-8200758D01*
X9477298Y-8200758D02*
X9467775Y-8181711D01*
X9467775Y-8181711D02*
X9458251Y-8143616D01*
X9458251Y-8143616D02*
X9458251Y-8095996D01*
X9458251Y-8095996D02*
X9467775Y-8057901D01*
X9467775Y-8057901D02*
X9477298Y-8038854D01*
X9477298Y-8038854D02*
X9486822Y-8029330D01*
X9486822Y-8029330D02*
X9505870Y-8019806D01*
X9658251Y-8200758D02*
X9667775Y-8210282D01*
X9667775Y-8210282D02*
X9658251Y-8219806D01*
X9658251Y-8219806D02*
X9648727Y-8210282D01*
X9648727Y-8210282D02*
X9658251Y-8200758D01*
X9658251Y-8200758D02*
X9658251Y-8219806D01*
X9839203Y-8019806D02*
X9801108Y-8019806D01*
X9801108Y-8019806D02*
X9782060Y-8029330D01*
X9782060Y-8029330D02*
X9772536Y-8038854D01*
X9772536Y-8038854D02*
X9753489Y-8067425D01*
X9753489Y-8067425D02*
X9743965Y-8105520D01*
X9743965Y-8105520D02*
X9743965Y-8181711D01*
X9743965Y-8181711D02*
X9753489Y-8200758D01*
X9753489Y-8200758D02*
X9763013Y-8210282D01*
X9763013Y-8210282D02*
X9782060Y-8219806D01*
X9782060Y-8219806D02*
X9820156Y-8219806D01*
X9820156Y-8219806D02*
X9839203Y-8210282D01*
X9839203Y-8210282D02*
X9848727Y-8200758D01*
X9848727Y-8200758D02*
X9858251Y-8181711D01*
X9858251Y-8181711D02*
X9858251Y-8134092D01*
X9858251Y-8134092D02*
X9848727Y-8115044D01*
X9848727Y-8115044D02*
X9839203Y-8105520D01*
X9839203Y-8105520D02*
X9820156Y-8095996D01*
X9820156Y-8095996D02*
X9782060Y-8095996D01*
X9782060Y-8095996D02*
X9763013Y-8105520D01*
X9763013Y-8105520D02*
X9753489Y-8115044D01*
X9753489Y-8115044D02*
X9743965Y-8134092D01*
X10039203Y-8019806D02*
X9943965Y-8019806D01*
X9943965Y-8019806D02*
X9934441Y-8115044D01*
X9934441Y-8115044D02*
X9943965Y-8105520D01*
X9943965Y-8105520D02*
X9963013Y-8095996D01*
X9963013Y-8095996D02*
X10010632Y-8095996D01*
X10010632Y-8095996D02*
X10029679Y-8105520D01*
X10029679Y-8105520D02*
X10039203Y-8115044D01*
X10039203Y-8115044D02*
X10048727Y-8134092D01*
X10048727Y-8134092D02*
X10048727Y-8181711D01*
X10048727Y-8181711D02*
X10039203Y-8200758D01*
X10039203Y-8200758D02*
X10029679Y-8210282D01*
X10029679Y-8210282D02*
X10010632Y-8219806D01*
X10010632Y-8219806D02*
X9963013Y-8219806D01*
X9963013Y-8219806D02*
X9943965Y-8210282D01*
X9943965Y-8210282D02*
X9934441Y-8200758D01*
X10172536Y-8019806D02*
X10191584Y-8019806D01*
X10191584Y-8019806D02*
X10210632Y-8029330D01*
X10210632Y-8029330D02*
X10220156Y-8038854D01*
X10220156Y-8038854D02*
X10229679Y-8057901D01*
X10229679Y-8057901D02*
X10239203Y-8095996D01*
X10239203Y-8095996D02*
X10239203Y-8143616D01*
X10239203Y-8143616D02*
X10229679Y-8181711D01*
X10229679Y-8181711D02*
X10220156Y-8200758D01*
X10220156Y-8200758D02*
X10210632Y-8210282D01*
X10210632Y-8210282D02*
X10191584Y-8219806D01*
X10191584Y-8219806D02*
X10172536Y-8219806D01*
X10172536Y-8219806D02*
X10153489Y-8210282D01*
X10153489Y-8210282D02*
X10143965Y-8200758D01*
X10143965Y-8200758D02*
X10134441Y-8181711D01*
X10134441Y-8181711D02*
X10124917Y-8143616D01*
X10124917Y-8143616D02*
X10124917Y-8095996D01*
X10124917Y-8095996D02*
X10134441Y-8057901D01*
X10134441Y-8057901D02*
X10143965Y-8038854D01*
X10143965Y-8038854D02*
X10153489Y-8029330D01*
X10153489Y-8029330D02*
X10172536Y-8019806D01*
X10324917Y-8219806D02*
X10324917Y-8086473D01*
X10324917Y-8105520D02*
X10334441Y-8095996D01*
X10334441Y-8095996D02*
X10353489Y-8086473D01*
X10353489Y-8086473D02*
X10382060Y-8086473D01*
X10382060Y-8086473D02*
X10401108Y-8095996D01*
X10401108Y-8095996D02*
X10410632Y-8115044D01*
X10410632Y-8115044D02*
X10410632Y-8219806D01*
X10410632Y-8115044D02*
X10420156Y-8095996D01*
X10420156Y-8095996D02*
X10439203Y-8086473D01*
X10439203Y-8086473D02*
X10467775Y-8086473D01*
X10467775Y-8086473D02*
X10486822Y-8095996D01*
X10486822Y-8095996D02*
X10496346Y-8115044D01*
X10496346Y-8115044D02*
X10496346Y-8219806D01*
X10591584Y-8219806D02*
X10591584Y-8086473D01*
X10591584Y-8105520D02*
X10601108Y-8095996D01*
X10601108Y-8095996D02*
X10620156Y-8086473D01*
X10620156Y-8086473D02*
X10648727Y-8086473D01*
X10648727Y-8086473D02*
X10667775Y-8095996D01*
X10667775Y-8095996D02*
X10677298Y-8115044D01*
X10677298Y-8115044D02*
X10677298Y-8219806D01*
X10677298Y-8115044D02*
X10686822Y-8095996D01*
X10686822Y-8095996D02*
X10705870Y-8086473D01*
X10705870Y-8086473D02*
X10734441Y-8086473D01*
X10734441Y-8086473D02*
X10753489Y-8095996D01*
X10753489Y-8095996D02*
X10763013Y-8115044D01*
X10763013Y-8115044D02*
X10763013Y-8219806D01*
X11153489Y-8010282D02*
X10982060Y-8267425D01*
X11410632Y-8019806D02*
X11429679Y-8019806D01*
X11429679Y-8019806D02*
X11448727Y-8029330D01*
X11448727Y-8029330D02*
X11458251Y-8038854D01*
X11458251Y-8038854D02*
X11467775Y-8057901D01*
X11467775Y-8057901D02*
X11477298Y-8095996D01*
X11477298Y-8095996D02*
X11477298Y-8143616D01*
X11477298Y-8143616D02*
X11467775Y-8181711D01*
X11467775Y-8181711D02*
X11458251Y-8200758D01*
X11458251Y-8200758D02*
X11448727Y-8210282D01*
X11448727Y-8210282D02*
X11429679Y-8219806D01*
X11429679Y-8219806D02*
X11410632Y-8219806D01*
X11410632Y-8219806D02*
X11391584Y-8210282D01*
X11391584Y-8210282D02*
X11382060Y-8200758D01*
X11382060Y-8200758D02*
X11372537Y-8181711D01*
X11372537Y-8181711D02*
X11363013Y-8143616D01*
X11363013Y-8143616D02*
X11363013Y-8095996D01*
X11363013Y-8095996D02*
X11372537Y-8057901D01*
X11372537Y-8057901D02*
X11382060Y-8038854D01*
X11382060Y-8038854D02*
X11391584Y-8029330D01*
X11391584Y-8029330D02*
X11410632Y-8019806D01*
X11563013Y-8200758D02*
X11572537Y-8210282D01*
X11572537Y-8210282D02*
X11563013Y-8219806D01*
X11563013Y-8219806D02*
X11553489Y-8210282D01*
X11553489Y-8210282D02*
X11563013Y-8200758D01*
X11563013Y-8200758D02*
X11563013Y-8219806D01*
X11696346Y-8019806D02*
X11715394Y-8019806D01*
X11715394Y-8019806D02*
X11734441Y-8029330D01*
X11734441Y-8029330D02*
X11743965Y-8038854D01*
X11743965Y-8038854D02*
X11753489Y-8057901D01*
X11753489Y-8057901D02*
X11763013Y-8095996D01*
X11763013Y-8095996D02*
X11763013Y-8143616D01*
X11763013Y-8143616D02*
X11753489Y-8181711D01*
X11753489Y-8181711D02*
X11743965Y-8200758D01*
X11743965Y-8200758D02*
X11734441Y-8210282D01*
X11734441Y-8210282D02*
X11715394Y-8219806D01*
X11715394Y-8219806D02*
X11696346Y-8219806D01*
X11696346Y-8219806D02*
X11677298Y-8210282D01*
X11677298Y-8210282D02*
X11667775Y-8200758D01*
X11667775Y-8200758D02*
X11658251Y-8181711D01*
X11658251Y-8181711D02*
X11648727Y-8143616D01*
X11648727Y-8143616D02*
X11648727Y-8095996D01*
X11648727Y-8095996D02*
X11658251Y-8057901D01*
X11658251Y-8057901D02*
X11667775Y-8038854D01*
X11667775Y-8038854D02*
X11677298Y-8029330D01*
X11677298Y-8029330D02*
X11696346Y-8019806D01*
X11839203Y-8038854D02*
X11848727Y-8029330D01*
X11848727Y-8029330D02*
X11867775Y-8019806D01*
X11867775Y-8019806D02*
X11915394Y-8019806D01*
X11915394Y-8019806D02*
X11934441Y-8029330D01*
X11934441Y-8029330D02*
X11943965Y-8038854D01*
X11943965Y-8038854D02*
X11953489Y-8057901D01*
X11953489Y-8057901D02*
X11953489Y-8076949D01*
X11953489Y-8076949D02*
X11943965Y-8105520D01*
X11943965Y-8105520D02*
X11829679Y-8219806D01*
X11829679Y-8219806D02*
X11953489Y-8219806D01*
X12134441Y-8019806D02*
X12039203Y-8019806D01*
X12039203Y-8019806D02*
X12029679Y-8115044D01*
X12029679Y-8115044D02*
X12039203Y-8105520D01*
X12039203Y-8105520D02*
X12058251Y-8095996D01*
X12058251Y-8095996D02*
X12105870Y-8095996D01*
X12105870Y-8095996D02*
X12124918Y-8105520D01*
X12124918Y-8105520D02*
X12134441Y-8115044D01*
X12134441Y-8115044D02*
X12143965Y-8134092D01*
X12143965Y-8134092D02*
X12143965Y-8181711D01*
X12143965Y-8181711D02*
X12134441Y-8200758D01*
X12134441Y-8200758D02*
X12124918Y-8210282D01*
X12124918Y-8210282D02*
X12105870Y-8219806D01*
X12105870Y-8219806D02*
X12058251Y-8219806D01*
X12058251Y-8219806D02*
X12039203Y-8210282D01*
X12039203Y-8210282D02*
X12029679Y-8200758D01*
X12315394Y-8019806D02*
X12277298Y-8019806D01*
X12277298Y-8019806D02*
X12258251Y-8029330D01*
X12258251Y-8029330D02*
X12248727Y-8038854D01*
X12248727Y-8038854D02*
X12229679Y-8067425D01*
X12229679Y-8067425D02*
X12220156Y-8105520D01*
X12220156Y-8105520D02*
X12220156Y-8181711D01*
X12220156Y-8181711D02*
X12229679Y-8200758D01*
X12229679Y-8200758D02*
X12239203Y-8210282D01*
X12239203Y-8210282D02*
X12258251Y-8219806D01*
X12258251Y-8219806D02*
X12296346Y-8219806D01*
X12296346Y-8219806D02*
X12315394Y-8210282D01*
X12315394Y-8210282D02*
X12324918Y-8200758D01*
X12324918Y-8200758D02*
X12334441Y-8181711D01*
X12334441Y-8181711D02*
X12334441Y-8134092D01*
X12334441Y-8134092D02*
X12324918Y-8115044D01*
X12324918Y-8115044D02*
X12315394Y-8105520D01*
X12315394Y-8105520D02*
X12296346Y-8095996D01*
X12296346Y-8095996D02*
X12258251Y-8095996D01*
X12258251Y-8095996D02*
X12239203Y-8105520D01*
X12239203Y-8105520D02*
X12229679Y-8115044D01*
X12229679Y-8115044D02*
X12220156Y-8134092D01*
X12410632Y-8019806D02*
X12410632Y-8057901D01*
X12486822Y-8019806D02*
X12486822Y-8057901D01*
X12782061Y-8295996D02*
X12772537Y-8286473D01*
X12772537Y-8286473D02*
X12753489Y-8257901D01*
X12753489Y-8257901D02*
X12743965Y-8238854D01*
X12743965Y-8238854D02*
X12734441Y-8210282D01*
X12734441Y-8210282D02*
X12724918Y-8162663D01*
X12724918Y-8162663D02*
X12724918Y-8124568D01*
X12724918Y-8124568D02*
X12734441Y-8076949D01*
X12734441Y-8076949D02*
X12743965Y-8048377D01*
X12743965Y-8048377D02*
X12753489Y-8029330D01*
X12753489Y-8029330D02*
X12772537Y-8000758D01*
X12772537Y-8000758D02*
X12782061Y-7991235D01*
X12963013Y-8219806D02*
X12848727Y-8219806D01*
X12905870Y-8219806D02*
X12905870Y-8019806D01*
X12905870Y-8019806D02*
X12886822Y-8048377D01*
X12886822Y-8048377D02*
X12867775Y-8067425D01*
X12867775Y-8067425D02*
X12848727Y-8076949D01*
X13086822Y-8019806D02*
X13105870Y-8019806D01*
X13105870Y-8019806D02*
X13124918Y-8029330D01*
X13124918Y-8029330D02*
X13134441Y-8038854D01*
X13134441Y-8038854D02*
X13143965Y-8057901D01*
X13143965Y-8057901D02*
X13153489Y-8095996D01*
X13153489Y-8095996D02*
X13153489Y-8143616D01*
X13153489Y-8143616D02*
X13143965Y-8181711D01*
X13143965Y-8181711D02*
X13134441Y-8200758D01*
X13134441Y-8200758D02*
X13124918Y-8210282D01*
X13124918Y-8210282D02*
X13105870Y-8219806D01*
X13105870Y-8219806D02*
X13086822Y-8219806D01*
X13086822Y-8219806D02*
X13067775Y-8210282D01*
X13067775Y-8210282D02*
X13058251Y-8200758D01*
X13058251Y-8200758D02*
X13048727Y-8181711D01*
X13048727Y-8181711D02*
X13039203Y-8143616D01*
X13039203Y-8143616D02*
X13039203Y-8095996D01*
X13039203Y-8095996D02*
X13048727Y-8057901D01*
X13048727Y-8057901D02*
X13058251Y-8038854D01*
X13058251Y-8038854D02*
X13067775Y-8029330D01*
X13067775Y-8029330D02*
X13086822Y-8019806D01*
X13391584Y-8219806D02*
X13391584Y-8019806D01*
X13477299Y-8219806D02*
X13477299Y-8115044D01*
X13477299Y-8115044D02*
X13467775Y-8095996D01*
X13467775Y-8095996D02*
X13448727Y-8086473D01*
X13448727Y-8086473D02*
X13420156Y-8086473D01*
X13420156Y-8086473D02*
X13401108Y-8095996D01*
X13401108Y-8095996D02*
X13391584Y-8105520D01*
X13601108Y-8219806D02*
X13582061Y-8210282D01*
X13582061Y-8210282D02*
X13572537Y-8200758D01*
X13572537Y-8200758D02*
X13563013Y-8181711D01*
X13563013Y-8181711D02*
X13563013Y-8124568D01*
X13563013Y-8124568D02*
X13572537Y-8105520D01*
X13572537Y-8105520D02*
X13582061Y-8095996D01*
X13582061Y-8095996D02*
X13601108Y-8086473D01*
X13601108Y-8086473D02*
X13629680Y-8086473D01*
X13629680Y-8086473D02*
X13648727Y-8095996D01*
X13648727Y-8095996D02*
X13658251Y-8105520D01*
X13658251Y-8105520D02*
X13667775Y-8124568D01*
X13667775Y-8124568D02*
X13667775Y-8181711D01*
X13667775Y-8181711D02*
X13658251Y-8200758D01*
X13658251Y-8200758D02*
X13648727Y-8210282D01*
X13648727Y-8210282D02*
X13629680Y-8219806D01*
X13629680Y-8219806D02*
X13601108Y-8219806D01*
X13782061Y-8219806D02*
X13763013Y-8210282D01*
X13763013Y-8210282D02*
X13753489Y-8191235D01*
X13753489Y-8191235D02*
X13753489Y-8019806D01*
X13934442Y-8210282D02*
X13915394Y-8219806D01*
X13915394Y-8219806D02*
X13877299Y-8219806D01*
X13877299Y-8219806D02*
X13858251Y-8210282D01*
X13858251Y-8210282D02*
X13848727Y-8191235D01*
X13848727Y-8191235D02*
X13848727Y-8115044D01*
X13848727Y-8115044D02*
X13858251Y-8095996D01*
X13858251Y-8095996D02*
X13877299Y-8086473D01*
X13877299Y-8086473D02*
X13915394Y-8086473D01*
X13915394Y-8086473D02*
X13934442Y-8095996D01*
X13934442Y-8095996D02*
X13943965Y-8115044D01*
X13943965Y-8115044D02*
X13943965Y-8134092D01*
X13943965Y-8134092D02*
X13848727Y-8153139D01*
X14020156Y-8210282D02*
X14039203Y-8219806D01*
X14039203Y-8219806D02*
X14077299Y-8219806D01*
X14077299Y-8219806D02*
X14096346Y-8210282D01*
X14096346Y-8210282D02*
X14105870Y-8191235D01*
X14105870Y-8191235D02*
X14105870Y-8181711D01*
X14105870Y-8181711D02*
X14096346Y-8162663D01*
X14096346Y-8162663D02*
X14077299Y-8153139D01*
X14077299Y-8153139D02*
X14048727Y-8153139D01*
X14048727Y-8153139D02*
X14029680Y-8143616D01*
X14029680Y-8143616D02*
X14020156Y-8124568D01*
X14020156Y-8124568D02*
X14020156Y-8115044D01*
X14020156Y-8115044D02*
X14029680Y-8095996D01*
X14029680Y-8095996D02*
X14048727Y-8086473D01*
X14048727Y-8086473D02*
X14077299Y-8086473D01*
X14077299Y-8086473D02*
X14096346Y-8095996D01*
X14172537Y-8295996D02*
X14182061Y-8286473D01*
X14182061Y-8286473D02*
X14201108Y-8257901D01*
X14201108Y-8257901D02*
X14210632Y-8238854D01*
X14210632Y-8238854D02*
X14220156Y-8210282D01*
X14220156Y-8210282D02*
X14229680Y-8162663D01*
X14229680Y-8162663D02*
X14229680Y-8124568D01*
X14229680Y-8124568D02*
X14220156Y-8076949D01*
X14220156Y-8076949D02*
X14210632Y-8048377D01*
X14210632Y-8048377D02*
X14201108Y-8029330D01*
X14201108Y-8029330D02*
X14182061Y-8000758D01*
X14182061Y-8000758D02*
X14172537Y-7991235D01*
D10*
X9193086Y-8425910D02*
X9193086Y-8358734D01*
X9125910Y-8358734D01*
X9125910Y-8425910D01*
X9193086Y-8425910D01*
D11*
X9505870Y-8283806D02*
X9524917Y-8283806D01*
X9524917Y-8283806D02*
X9543965Y-8293330D01*
X9543965Y-8293330D02*
X9553489Y-8302854D01*
X9553489Y-8302854D02*
X9563013Y-8321901D01*
X9563013Y-8321901D02*
X9572536Y-8359996D01*
X9572536Y-8359996D02*
X9572536Y-8407616D01*
X9572536Y-8407616D02*
X9563013Y-8445711D01*
X9563013Y-8445711D02*
X9553489Y-8464758D01*
X9553489Y-8464758D02*
X9543965Y-8474282D01*
X9543965Y-8474282D02*
X9524917Y-8483806D01*
X9524917Y-8483806D02*
X9505870Y-8483806D01*
X9505870Y-8483806D02*
X9486822Y-8474282D01*
X9486822Y-8474282D02*
X9477298Y-8464758D01*
X9477298Y-8464758D02*
X9467775Y-8445711D01*
X9467775Y-8445711D02*
X9458251Y-8407616D01*
X9458251Y-8407616D02*
X9458251Y-8359996D01*
X9458251Y-8359996D02*
X9467775Y-8321901D01*
X9467775Y-8321901D02*
X9477298Y-8302854D01*
X9477298Y-8302854D02*
X9486822Y-8293330D01*
X9486822Y-8293330D02*
X9505870Y-8283806D01*
X9658251Y-8464758D02*
X9667775Y-8474282D01*
X9667775Y-8474282D02*
X9658251Y-8483806D01*
X9658251Y-8483806D02*
X9648727Y-8474282D01*
X9648727Y-8474282D02*
X9658251Y-8464758D01*
X9658251Y-8464758D02*
X9658251Y-8483806D01*
X9763013Y-8483806D02*
X9801108Y-8483806D01*
X9801108Y-8483806D02*
X9820156Y-8474282D01*
X9820156Y-8474282D02*
X9829679Y-8464758D01*
X9829679Y-8464758D02*
X9848727Y-8436187D01*
X9848727Y-8436187D02*
X9858251Y-8398092D01*
X9858251Y-8398092D02*
X9858251Y-8321901D01*
X9858251Y-8321901D02*
X9848727Y-8302854D01*
X9848727Y-8302854D02*
X9839203Y-8293330D01*
X9839203Y-8293330D02*
X9820156Y-8283806D01*
X9820156Y-8283806D02*
X9782060Y-8283806D01*
X9782060Y-8283806D02*
X9763013Y-8293330D01*
X9763013Y-8293330D02*
X9753489Y-8302854D01*
X9753489Y-8302854D02*
X9743965Y-8321901D01*
X9743965Y-8321901D02*
X9743965Y-8369520D01*
X9743965Y-8369520D02*
X9753489Y-8388568D01*
X9753489Y-8388568D02*
X9763013Y-8398092D01*
X9763013Y-8398092D02*
X9782060Y-8407616D01*
X9782060Y-8407616D02*
X9820156Y-8407616D01*
X9820156Y-8407616D02*
X9839203Y-8398092D01*
X9839203Y-8398092D02*
X9848727Y-8388568D01*
X9848727Y-8388568D02*
X9858251Y-8369520D01*
X10039203Y-8283806D02*
X9943965Y-8283806D01*
X9943965Y-8283806D02*
X9934441Y-8379044D01*
X9934441Y-8379044D02*
X9943965Y-8369520D01*
X9943965Y-8369520D02*
X9963013Y-8359996D01*
X9963013Y-8359996D02*
X10010632Y-8359996D01*
X10010632Y-8359996D02*
X10029679Y-8369520D01*
X10029679Y-8369520D02*
X10039203Y-8379044D01*
X10039203Y-8379044D02*
X10048727Y-8398092D01*
X10048727Y-8398092D02*
X10048727Y-8445711D01*
X10048727Y-8445711D02*
X10039203Y-8464758D01*
X10039203Y-8464758D02*
X10029679Y-8474282D01*
X10029679Y-8474282D02*
X10010632Y-8483806D01*
X10010632Y-8483806D02*
X9963013Y-8483806D01*
X9963013Y-8483806D02*
X9943965Y-8474282D01*
X9943965Y-8474282D02*
X9934441Y-8464758D01*
X10172536Y-8283806D02*
X10191584Y-8283806D01*
X10191584Y-8283806D02*
X10210632Y-8293330D01*
X10210632Y-8293330D02*
X10220156Y-8302854D01*
X10220156Y-8302854D02*
X10229679Y-8321901D01*
X10229679Y-8321901D02*
X10239203Y-8359996D01*
X10239203Y-8359996D02*
X10239203Y-8407616D01*
X10239203Y-8407616D02*
X10229679Y-8445711D01*
X10229679Y-8445711D02*
X10220156Y-8464758D01*
X10220156Y-8464758D02*
X10210632Y-8474282D01*
X10210632Y-8474282D02*
X10191584Y-8483806D01*
X10191584Y-8483806D02*
X10172536Y-8483806D01*
X10172536Y-8483806D02*
X10153489Y-8474282D01*
X10153489Y-8474282D02*
X10143965Y-8464758D01*
X10143965Y-8464758D02*
X10134441Y-8445711D01*
X10134441Y-8445711D02*
X10124917Y-8407616D01*
X10124917Y-8407616D02*
X10124917Y-8359996D01*
X10124917Y-8359996D02*
X10134441Y-8321901D01*
X10134441Y-8321901D02*
X10143965Y-8302854D01*
X10143965Y-8302854D02*
X10153489Y-8293330D01*
X10153489Y-8293330D02*
X10172536Y-8283806D01*
X10324917Y-8483806D02*
X10324917Y-8350473D01*
X10324917Y-8369520D02*
X10334441Y-8359996D01*
X10334441Y-8359996D02*
X10353489Y-8350473D01*
X10353489Y-8350473D02*
X10382060Y-8350473D01*
X10382060Y-8350473D02*
X10401108Y-8359996D01*
X10401108Y-8359996D02*
X10410632Y-8379044D01*
X10410632Y-8379044D02*
X10410632Y-8483806D01*
X10410632Y-8379044D02*
X10420156Y-8359996D01*
X10420156Y-8359996D02*
X10439203Y-8350473D01*
X10439203Y-8350473D02*
X10467775Y-8350473D01*
X10467775Y-8350473D02*
X10486822Y-8359996D01*
X10486822Y-8359996D02*
X10496346Y-8379044D01*
X10496346Y-8379044D02*
X10496346Y-8483806D01*
X10591584Y-8483806D02*
X10591584Y-8350473D01*
X10591584Y-8369520D02*
X10601108Y-8359996D01*
X10601108Y-8359996D02*
X10620156Y-8350473D01*
X10620156Y-8350473D02*
X10648727Y-8350473D01*
X10648727Y-8350473D02*
X10667775Y-8359996D01*
X10667775Y-8359996D02*
X10677298Y-8379044D01*
X10677298Y-8379044D02*
X10677298Y-8483806D01*
X10677298Y-8379044D02*
X10686822Y-8359996D01*
X10686822Y-8359996D02*
X10705870Y-8350473D01*
X10705870Y-8350473D02*
X10734441Y-8350473D01*
X10734441Y-8350473D02*
X10753489Y-8359996D01*
X10753489Y-8359996D02*
X10763013Y-8379044D01*
X10763013Y-8379044D02*
X10763013Y-8483806D01*
X11153489Y-8274282D02*
X10982060Y-8531425D01*
X11410632Y-8283806D02*
X11429679Y-8283806D01*
X11429679Y-8283806D02*
X11448727Y-8293330D01*
X11448727Y-8293330D02*
X11458251Y-8302854D01*
X11458251Y-8302854D02*
X11467775Y-8321901D01*
X11467775Y-8321901D02*
X11477298Y-8359996D01*
X11477298Y-8359996D02*
X11477298Y-8407616D01*
X11477298Y-8407616D02*
X11467775Y-8445711D01*
X11467775Y-8445711D02*
X11458251Y-8464758D01*
X11458251Y-8464758D02*
X11448727Y-8474282D01*
X11448727Y-8474282D02*
X11429679Y-8483806D01*
X11429679Y-8483806D02*
X11410632Y-8483806D01*
X11410632Y-8483806D02*
X11391584Y-8474282D01*
X11391584Y-8474282D02*
X11382060Y-8464758D01*
X11382060Y-8464758D02*
X11372537Y-8445711D01*
X11372537Y-8445711D02*
X11363013Y-8407616D01*
X11363013Y-8407616D02*
X11363013Y-8359996D01*
X11363013Y-8359996D02*
X11372537Y-8321901D01*
X11372537Y-8321901D02*
X11382060Y-8302854D01*
X11382060Y-8302854D02*
X11391584Y-8293330D01*
X11391584Y-8293330D02*
X11410632Y-8283806D01*
X11563013Y-8464758D02*
X11572537Y-8474282D01*
X11572537Y-8474282D02*
X11563013Y-8483806D01*
X11563013Y-8483806D02*
X11553489Y-8474282D01*
X11553489Y-8474282D02*
X11563013Y-8464758D01*
X11563013Y-8464758D02*
X11563013Y-8483806D01*
X11696346Y-8283806D02*
X11715394Y-8283806D01*
X11715394Y-8283806D02*
X11734441Y-8293330D01*
X11734441Y-8293330D02*
X11743965Y-8302854D01*
X11743965Y-8302854D02*
X11753489Y-8321901D01*
X11753489Y-8321901D02*
X11763013Y-8359996D01*
X11763013Y-8359996D02*
X11763013Y-8407616D01*
X11763013Y-8407616D02*
X11753489Y-8445711D01*
X11753489Y-8445711D02*
X11743965Y-8464758D01*
X11743965Y-8464758D02*
X11734441Y-8474282D01*
X11734441Y-8474282D02*
X11715394Y-8483806D01*
X11715394Y-8483806D02*
X11696346Y-8483806D01*
X11696346Y-8483806D02*
X11677298Y-8474282D01*
X11677298Y-8474282D02*
X11667775Y-8464758D01*
X11667775Y-8464758D02*
X11658251Y-8445711D01*
X11658251Y-8445711D02*
X11648727Y-8407616D01*
X11648727Y-8407616D02*
X11648727Y-8359996D01*
X11648727Y-8359996D02*
X11658251Y-8321901D01*
X11658251Y-8321901D02*
X11667775Y-8302854D01*
X11667775Y-8302854D02*
X11677298Y-8293330D01*
X11677298Y-8293330D02*
X11696346Y-8283806D01*
X11829679Y-8283806D02*
X11953489Y-8283806D01*
X11953489Y-8283806D02*
X11886822Y-8359996D01*
X11886822Y-8359996D02*
X11915394Y-8359996D01*
X11915394Y-8359996D02*
X11934441Y-8369520D01*
X11934441Y-8369520D02*
X11943965Y-8379044D01*
X11943965Y-8379044D02*
X11953489Y-8398092D01*
X11953489Y-8398092D02*
X11953489Y-8445711D01*
X11953489Y-8445711D02*
X11943965Y-8464758D01*
X11943965Y-8464758D02*
X11934441Y-8474282D01*
X11934441Y-8474282D02*
X11915394Y-8483806D01*
X11915394Y-8483806D02*
X11858251Y-8483806D01*
X11858251Y-8483806D02*
X11839203Y-8474282D01*
X11839203Y-8474282D02*
X11829679Y-8464758D01*
X12020156Y-8283806D02*
X12153489Y-8283806D01*
X12153489Y-8283806D02*
X12067775Y-8483806D01*
X12315394Y-8350473D02*
X12315394Y-8483806D01*
X12267775Y-8274282D02*
X12220156Y-8417139D01*
X12220156Y-8417139D02*
X12343965Y-8417139D01*
X12410632Y-8283806D02*
X12410632Y-8321901D01*
X12486822Y-8283806D02*
X12486822Y-8321901D01*
X12782061Y-8559997D02*
X12772537Y-8550473D01*
X12772537Y-8550473D02*
X12753489Y-8521901D01*
X12753489Y-8521901D02*
X12743965Y-8502854D01*
X12743965Y-8502854D02*
X12734441Y-8474282D01*
X12734441Y-8474282D02*
X12724918Y-8426663D01*
X12724918Y-8426663D02*
X12724918Y-8388568D01*
X12724918Y-8388568D02*
X12734441Y-8340949D01*
X12734441Y-8340949D02*
X12743965Y-8312377D01*
X12743965Y-8312377D02*
X12753489Y-8293330D01*
X12753489Y-8293330D02*
X12772537Y-8264758D01*
X12772537Y-8264758D02*
X12782061Y-8255235D01*
X12839203Y-8283806D02*
X12963013Y-8283806D01*
X12963013Y-8283806D02*
X12896346Y-8359996D01*
X12896346Y-8359996D02*
X12924918Y-8359996D01*
X12924918Y-8359996D02*
X12943965Y-8369520D01*
X12943965Y-8369520D02*
X12953489Y-8379044D01*
X12953489Y-8379044D02*
X12963013Y-8398092D01*
X12963013Y-8398092D02*
X12963013Y-8445711D01*
X12963013Y-8445711D02*
X12953489Y-8464758D01*
X12953489Y-8464758D02*
X12943965Y-8474282D01*
X12943965Y-8474282D02*
X12924918Y-8483806D01*
X12924918Y-8483806D02*
X12867775Y-8483806D01*
X12867775Y-8483806D02*
X12848727Y-8474282D01*
X12848727Y-8474282D02*
X12839203Y-8464758D01*
X13201108Y-8483806D02*
X13201108Y-8283806D01*
X13286822Y-8483806D02*
X13286822Y-8379044D01*
X13286822Y-8379044D02*
X13277299Y-8359996D01*
X13277299Y-8359996D02*
X13258251Y-8350473D01*
X13258251Y-8350473D02*
X13229680Y-8350473D01*
X13229680Y-8350473D02*
X13210632Y-8359996D01*
X13210632Y-8359996D02*
X13201108Y-8369520D01*
X13410632Y-8483806D02*
X13391584Y-8474282D01*
X13391584Y-8474282D02*
X13382061Y-8464758D01*
X13382061Y-8464758D02*
X13372537Y-8445711D01*
X13372537Y-8445711D02*
X13372537Y-8388568D01*
X13372537Y-8388568D02*
X13382061Y-8369520D01*
X13382061Y-8369520D02*
X13391584Y-8359996D01*
X13391584Y-8359996D02*
X13410632Y-8350473D01*
X13410632Y-8350473D02*
X13439203Y-8350473D01*
X13439203Y-8350473D02*
X13458251Y-8359996D01*
X13458251Y-8359996D02*
X13467775Y-8369520D01*
X13467775Y-8369520D02*
X13477299Y-8388568D01*
X13477299Y-8388568D02*
X13477299Y-8445711D01*
X13477299Y-8445711D02*
X13467775Y-8464758D01*
X13467775Y-8464758D02*
X13458251Y-8474282D01*
X13458251Y-8474282D02*
X13439203Y-8483806D01*
X13439203Y-8483806D02*
X13410632Y-8483806D01*
X13591584Y-8483806D02*
X13572537Y-8474282D01*
X13572537Y-8474282D02*
X13563013Y-8455235D01*
X13563013Y-8455235D02*
X13563013Y-8283806D01*
X13743965Y-8474282D02*
X13724918Y-8483806D01*
X13724918Y-8483806D02*
X13686822Y-8483806D01*
X13686822Y-8483806D02*
X13667775Y-8474282D01*
X13667775Y-8474282D02*
X13658251Y-8455235D01*
X13658251Y-8455235D02*
X13658251Y-8379044D01*
X13658251Y-8379044D02*
X13667775Y-8359996D01*
X13667775Y-8359996D02*
X13686822Y-8350473D01*
X13686822Y-8350473D02*
X13724918Y-8350473D01*
X13724918Y-8350473D02*
X13743965Y-8359996D01*
X13743965Y-8359996D02*
X13753489Y-8379044D01*
X13753489Y-8379044D02*
X13753489Y-8398092D01*
X13753489Y-8398092D02*
X13658251Y-8417139D01*
X13829680Y-8474282D02*
X13848727Y-8483806D01*
X13848727Y-8483806D02*
X13886822Y-8483806D01*
X13886822Y-8483806D02*
X13905870Y-8474282D01*
X13905870Y-8474282D02*
X13915394Y-8455235D01*
X13915394Y-8455235D02*
X13915394Y-8445711D01*
X13915394Y-8445711D02*
X13905870Y-8426663D01*
X13905870Y-8426663D02*
X13886822Y-8417139D01*
X13886822Y-8417139D02*
X13858251Y-8417139D01*
X13858251Y-8417139D02*
X13839203Y-8407616D01*
X13839203Y-8407616D02*
X13829680Y-8388568D01*
X13829680Y-8388568D02*
X13829680Y-8379044D01*
X13829680Y-8379044D02*
X13839203Y-8359996D01*
X13839203Y-8359996D02*
X13858251Y-8350473D01*
X13858251Y-8350473D02*
X13886822Y-8350473D01*
X13886822Y-8350473D02*
X13905870Y-8359996D01*
X13982061Y-8559997D02*
X13991584Y-8550473D01*
X13991584Y-8550473D02*
X14010632Y-8521901D01*
X14010632Y-8521901D02*
X14020156Y-8502854D01*
X14020156Y-8502854D02*
X14029680Y-8474282D01*
X14029680Y-8474282D02*
X14039203Y-8426663D01*
X14039203Y-8426663D02*
X14039203Y-8388568D01*
X14039203Y-8388568D02*
X14029680Y-8340949D01*
X14029680Y-8340949D02*
X14020156Y-8312377D01*
X14020156Y-8312377D02*
X14010632Y-8293330D01*
X14010632Y-8293330D02*
X13991584Y-8264758D01*
X13991584Y-8264758D02*
X13982061Y-8255235D01*
D10*
X9156998Y-8706322D02*
X9206998Y-8656322D01*
X9156998Y-8606322D01*
X9106998Y-8656322D01*
X9156998Y-8706322D01*
D11*
X9572536Y-8747806D02*
X9458251Y-8747806D01*
X9515394Y-8747806D02*
X9515394Y-8547806D01*
X9515394Y-8547806D02*
X9496346Y-8576378D01*
X9496346Y-8576378D02*
X9477298Y-8595425D01*
X9477298Y-8595425D02*
X9458251Y-8604949D01*
X9658251Y-8728758D02*
X9667775Y-8738282D01*
X9667775Y-8738282D02*
X9658251Y-8747806D01*
X9658251Y-8747806D02*
X9648727Y-8738282D01*
X9648727Y-8738282D02*
X9658251Y-8728758D01*
X9658251Y-8728758D02*
X9658251Y-8747806D01*
X9791584Y-8547806D02*
X9810632Y-8547806D01*
X9810632Y-8547806D02*
X9829679Y-8557330D01*
X9829679Y-8557330D02*
X9839203Y-8566854D01*
X9839203Y-8566854D02*
X9848727Y-8585901D01*
X9848727Y-8585901D02*
X9858251Y-8623997D01*
X9858251Y-8623997D02*
X9858251Y-8671616D01*
X9858251Y-8671616D02*
X9848727Y-8709711D01*
X9848727Y-8709711D02*
X9839203Y-8728758D01*
X9839203Y-8728758D02*
X9829679Y-8738282D01*
X9829679Y-8738282D02*
X9810632Y-8747806D01*
X9810632Y-8747806D02*
X9791584Y-8747806D01*
X9791584Y-8747806D02*
X9772536Y-8738282D01*
X9772536Y-8738282D02*
X9763013Y-8728758D01*
X9763013Y-8728758D02*
X9753489Y-8709711D01*
X9753489Y-8709711D02*
X9743965Y-8671616D01*
X9743965Y-8671616D02*
X9743965Y-8623997D01*
X9743965Y-8623997D02*
X9753489Y-8585901D01*
X9753489Y-8585901D02*
X9763013Y-8566854D01*
X9763013Y-8566854D02*
X9772536Y-8557330D01*
X9772536Y-8557330D02*
X9791584Y-8547806D01*
X9982060Y-8547806D02*
X10001108Y-8547806D01*
X10001108Y-8547806D02*
X10020156Y-8557330D01*
X10020156Y-8557330D02*
X10029679Y-8566854D01*
X10029679Y-8566854D02*
X10039203Y-8585901D01*
X10039203Y-8585901D02*
X10048727Y-8623997D01*
X10048727Y-8623997D02*
X10048727Y-8671616D01*
X10048727Y-8671616D02*
X10039203Y-8709711D01*
X10039203Y-8709711D02*
X10029679Y-8728758D01*
X10029679Y-8728758D02*
X10020156Y-8738282D01*
X10020156Y-8738282D02*
X10001108Y-8747806D01*
X10001108Y-8747806D02*
X9982060Y-8747806D01*
X9982060Y-8747806D02*
X9963013Y-8738282D01*
X9963013Y-8738282D02*
X9953489Y-8728758D01*
X9953489Y-8728758D02*
X9943965Y-8709711D01*
X9943965Y-8709711D02*
X9934441Y-8671616D01*
X9934441Y-8671616D02*
X9934441Y-8623997D01*
X9934441Y-8623997D02*
X9943965Y-8585901D01*
X9943965Y-8585901D02*
X9953489Y-8566854D01*
X9953489Y-8566854D02*
X9963013Y-8557330D01*
X9963013Y-8557330D02*
X9982060Y-8547806D01*
X10172536Y-8547806D02*
X10191584Y-8547806D01*
X10191584Y-8547806D02*
X10210632Y-8557330D01*
X10210632Y-8557330D02*
X10220156Y-8566854D01*
X10220156Y-8566854D02*
X10229679Y-8585901D01*
X10229679Y-8585901D02*
X10239203Y-8623997D01*
X10239203Y-8623997D02*
X10239203Y-8671616D01*
X10239203Y-8671616D02*
X10229679Y-8709711D01*
X10229679Y-8709711D02*
X10220156Y-8728758D01*
X10220156Y-8728758D02*
X10210632Y-8738282D01*
X10210632Y-8738282D02*
X10191584Y-8747806D01*
X10191584Y-8747806D02*
X10172536Y-8747806D01*
X10172536Y-8747806D02*
X10153489Y-8738282D01*
X10153489Y-8738282D02*
X10143965Y-8728758D01*
X10143965Y-8728758D02*
X10134441Y-8709711D01*
X10134441Y-8709711D02*
X10124917Y-8671616D01*
X10124917Y-8671616D02*
X10124917Y-8623997D01*
X10124917Y-8623997D02*
X10134441Y-8585901D01*
X10134441Y-8585901D02*
X10143965Y-8566854D01*
X10143965Y-8566854D02*
X10153489Y-8557330D01*
X10153489Y-8557330D02*
X10172536Y-8547806D01*
X10324917Y-8747806D02*
X10324917Y-8614473D01*
X10324917Y-8633520D02*
X10334441Y-8623997D01*
X10334441Y-8623997D02*
X10353489Y-8614473D01*
X10353489Y-8614473D02*
X10382060Y-8614473D01*
X10382060Y-8614473D02*
X10401108Y-8623997D01*
X10401108Y-8623997D02*
X10410632Y-8643044D01*
X10410632Y-8643044D02*
X10410632Y-8747806D01*
X10410632Y-8643044D02*
X10420156Y-8623997D01*
X10420156Y-8623997D02*
X10439203Y-8614473D01*
X10439203Y-8614473D02*
X10467775Y-8614473D01*
X10467775Y-8614473D02*
X10486822Y-8623997D01*
X10486822Y-8623997D02*
X10496346Y-8643044D01*
X10496346Y-8643044D02*
X10496346Y-8747806D01*
X10591584Y-8747806D02*
X10591584Y-8614473D01*
X10591584Y-8633520D02*
X10601108Y-8623997D01*
X10601108Y-8623997D02*
X10620156Y-8614473D01*
X10620156Y-8614473D02*
X10648727Y-8614473D01*
X10648727Y-8614473D02*
X10667775Y-8623997D01*
X10667775Y-8623997D02*
X10677298Y-8643044D01*
X10677298Y-8643044D02*
X10677298Y-8747806D01*
X10677298Y-8643044D02*
X10686822Y-8623997D01*
X10686822Y-8623997D02*
X10705870Y-8614473D01*
X10705870Y-8614473D02*
X10734441Y-8614473D01*
X10734441Y-8614473D02*
X10753489Y-8623997D01*
X10753489Y-8623997D02*
X10763013Y-8643044D01*
X10763013Y-8643044D02*
X10763013Y-8747806D01*
X11153489Y-8538282D02*
X10982060Y-8795425D01*
X11410632Y-8547806D02*
X11429679Y-8547806D01*
X11429679Y-8547806D02*
X11448727Y-8557330D01*
X11448727Y-8557330D02*
X11458251Y-8566854D01*
X11458251Y-8566854D02*
X11467775Y-8585901D01*
X11467775Y-8585901D02*
X11477298Y-8623997D01*
X11477298Y-8623997D02*
X11477298Y-8671616D01*
X11477298Y-8671616D02*
X11467775Y-8709711D01*
X11467775Y-8709711D02*
X11458251Y-8728758D01*
X11458251Y-8728758D02*
X11448727Y-8738282D01*
X11448727Y-8738282D02*
X11429679Y-8747806D01*
X11429679Y-8747806D02*
X11410632Y-8747806D01*
X11410632Y-8747806D02*
X11391584Y-8738282D01*
X11391584Y-8738282D02*
X11382060Y-8728758D01*
X11382060Y-8728758D02*
X11372537Y-8709711D01*
X11372537Y-8709711D02*
X11363013Y-8671616D01*
X11363013Y-8671616D02*
X11363013Y-8623997D01*
X11363013Y-8623997D02*
X11372537Y-8585901D01*
X11372537Y-8585901D02*
X11382060Y-8566854D01*
X11382060Y-8566854D02*
X11391584Y-8557330D01*
X11391584Y-8557330D02*
X11410632Y-8547806D01*
X11563013Y-8728758D02*
X11572537Y-8738282D01*
X11572537Y-8738282D02*
X11563013Y-8747806D01*
X11563013Y-8747806D02*
X11553489Y-8738282D01*
X11553489Y-8738282D02*
X11563013Y-8728758D01*
X11563013Y-8728758D02*
X11563013Y-8747806D01*
X11696346Y-8547806D02*
X11715394Y-8547806D01*
X11715394Y-8547806D02*
X11734441Y-8557330D01*
X11734441Y-8557330D02*
X11743965Y-8566854D01*
X11743965Y-8566854D02*
X11753489Y-8585901D01*
X11753489Y-8585901D02*
X11763013Y-8623997D01*
X11763013Y-8623997D02*
X11763013Y-8671616D01*
X11763013Y-8671616D02*
X11753489Y-8709711D01*
X11753489Y-8709711D02*
X11743965Y-8728758D01*
X11743965Y-8728758D02*
X11734441Y-8738282D01*
X11734441Y-8738282D02*
X11715394Y-8747806D01*
X11715394Y-8747806D02*
X11696346Y-8747806D01*
X11696346Y-8747806D02*
X11677298Y-8738282D01*
X11677298Y-8738282D02*
X11667775Y-8728758D01*
X11667775Y-8728758D02*
X11658251Y-8709711D01*
X11658251Y-8709711D02*
X11648727Y-8671616D01*
X11648727Y-8671616D02*
X11648727Y-8623997D01*
X11648727Y-8623997D02*
X11658251Y-8585901D01*
X11658251Y-8585901D02*
X11667775Y-8566854D01*
X11667775Y-8566854D02*
X11677298Y-8557330D01*
X11677298Y-8557330D02*
X11696346Y-8547806D01*
X11829679Y-8547806D02*
X11953489Y-8547806D01*
X11953489Y-8547806D02*
X11886822Y-8623997D01*
X11886822Y-8623997D02*
X11915394Y-8623997D01*
X11915394Y-8623997D02*
X11934441Y-8633520D01*
X11934441Y-8633520D02*
X11943965Y-8643044D01*
X11943965Y-8643044D02*
X11953489Y-8662092D01*
X11953489Y-8662092D02*
X11953489Y-8709711D01*
X11953489Y-8709711D02*
X11943965Y-8728758D01*
X11943965Y-8728758D02*
X11934441Y-8738282D01*
X11934441Y-8738282D02*
X11915394Y-8747806D01*
X11915394Y-8747806D02*
X11858251Y-8747806D01*
X11858251Y-8747806D02*
X11839203Y-8738282D01*
X11839203Y-8738282D02*
X11829679Y-8728758D01*
X12048727Y-8747806D02*
X12086822Y-8747806D01*
X12086822Y-8747806D02*
X12105870Y-8738282D01*
X12105870Y-8738282D02*
X12115394Y-8728758D01*
X12115394Y-8728758D02*
X12134441Y-8700187D01*
X12134441Y-8700187D02*
X12143965Y-8662092D01*
X12143965Y-8662092D02*
X12143965Y-8585901D01*
X12143965Y-8585901D02*
X12134441Y-8566854D01*
X12134441Y-8566854D02*
X12124918Y-8557330D01*
X12124918Y-8557330D02*
X12105870Y-8547806D01*
X12105870Y-8547806D02*
X12067775Y-8547806D01*
X12067775Y-8547806D02*
X12048727Y-8557330D01*
X12048727Y-8557330D02*
X12039203Y-8566854D01*
X12039203Y-8566854D02*
X12029679Y-8585901D01*
X12029679Y-8585901D02*
X12029679Y-8633520D01*
X12029679Y-8633520D02*
X12039203Y-8652568D01*
X12039203Y-8652568D02*
X12048727Y-8662092D01*
X12048727Y-8662092D02*
X12067775Y-8671616D01*
X12067775Y-8671616D02*
X12105870Y-8671616D01*
X12105870Y-8671616D02*
X12124918Y-8662092D01*
X12124918Y-8662092D02*
X12134441Y-8652568D01*
X12134441Y-8652568D02*
X12143965Y-8633520D01*
X12315394Y-8614473D02*
X12315394Y-8747806D01*
X12267775Y-8538282D02*
X12220156Y-8681139D01*
X12220156Y-8681139D02*
X12343965Y-8681139D01*
X12410632Y-8547806D02*
X12410632Y-8585901D01*
X12486822Y-8547806D02*
X12486822Y-8585901D01*
X12782061Y-8823997D02*
X12772537Y-8814473D01*
X12772537Y-8814473D02*
X12753489Y-8785901D01*
X12753489Y-8785901D02*
X12743965Y-8766854D01*
X12743965Y-8766854D02*
X12734441Y-8738282D01*
X12734441Y-8738282D02*
X12724918Y-8690663D01*
X12724918Y-8690663D02*
X12724918Y-8652568D01*
X12724918Y-8652568D02*
X12734441Y-8604949D01*
X12734441Y-8604949D02*
X12743965Y-8576378D01*
X12743965Y-8576378D02*
X12753489Y-8557330D01*
X12753489Y-8557330D02*
X12772537Y-8528758D01*
X12772537Y-8528758D02*
X12782061Y-8519235D01*
X12963013Y-8747806D02*
X12848727Y-8747806D01*
X12905870Y-8747806D02*
X12905870Y-8547806D01*
X12905870Y-8547806D02*
X12886822Y-8576378D01*
X12886822Y-8576378D02*
X12867775Y-8595425D01*
X12867775Y-8595425D02*
X12848727Y-8604949D01*
X13134441Y-8547806D02*
X13096346Y-8547806D01*
X13096346Y-8547806D02*
X13077299Y-8557330D01*
X13077299Y-8557330D02*
X13067775Y-8566854D01*
X13067775Y-8566854D02*
X13048727Y-8595425D01*
X13048727Y-8595425D02*
X13039203Y-8633520D01*
X13039203Y-8633520D02*
X13039203Y-8709711D01*
X13039203Y-8709711D02*
X13048727Y-8728758D01*
X13048727Y-8728758D02*
X13058251Y-8738282D01*
X13058251Y-8738282D02*
X13077299Y-8747806D01*
X13077299Y-8747806D02*
X13115394Y-8747806D01*
X13115394Y-8747806D02*
X13134441Y-8738282D01*
X13134441Y-8738282D02*
X13143965Y-8728758D01*
X13143965Y-8728758D02*
X13153489Y-8709711D01*
X13153489Y-8709711D02*
X13153489Y-8662092D01*
X13153489Y-8662092D02*
X13143965Y-8643044D01*
X13143965Y-8643044D02*
X13134441Y-8633520D01*
X13134441Y-8633520D02*
X13115394Y-8623997D01*
X13115394Y-8623997D02*
X13077299Y-8623997D01*
X13077299Y-8623997D02*
X13058251Y-8633520D01*
X13058251Y-8633520D02*
X13048727Y-8643044D01*
X13048727Y-8643044D02*
X13039203Y-8662092D01*
X13391584Y-8747806D02*
X13391584Y-8547806D01*
X13477299Y-8747806D02*
X13477299Y-8643044D01*
X13477299Y-8643044D02*
X13467775Y-8623997D01*
X13467775Y-8623997D02*
X13448727Y-8614473D01*
X13448727Y-8614473D02*
X13420156Y-8614473D01*
X13420156Y-8614473D02*
X13401108Y-8623997D01*
X13401108Y-8623997D02*
X13391584Y-8633520D01*
X13601108Y-8747806D02*
X13582061Y-8738282D01*
X13582061Y-8738282D02*
X13572537Y-8728758D01*
X13572537Y-8728758D02*
X13563013Y-8709711D01*
X13563013Y-8709711D02*
X13563013Y-8652568D01*
X13563013Y-8652568D02*
X13572537Y-8633520D01*
X13572537Y-8633520D02*
X13582061Y-8623997D01*
X13582061Y-8623997D02*
X13601108Y-8614473D01*
X13601108Y-8614473D02*
X13629680Y-8614473D01*
X13629680Y-8614473D02*
X13648727Y-8623997D01*
X13648727Y-8623997D02*
X13658251Y-8633520D01*
X13658251Y-8633520D02*
X13667775Y-8652568D01*
X13667775Y-8652568D02*
X13667775Y-8709711D01*
X13667775Y-8709711D02*
X13658251Y-8728758D01*
X13658251Y-8728758D02*
X13648727Y-8738282D01*
X13648727Y-8738282D02*
X13629680Y-8747806D01*
X13629680Y-8747806D02*
X13601108Y-8747806D01*
X13782061Y-8747806D02*
X13763013Y-8738282D01*
X13763013Y-8738282D02*
X13753489Y-8719235D01*
X13753489Y-8719235D02*
X13753489Y-8547806D01*
X13934442Y-8738282D02*
X13915394Y-8747806D01*
X13915394Y-8747806D02*
X13877299Y-8747806D01*
X13877299Y-8747806D02*
X13858251Y-8738282D01*
X13858251Y-8738282D02*
X13848727Y-8719235D01*
X13848727Y-8719235D02*
X13848727Y-8643044D01*
X13848727Y-8643044D02*
X13858251Y-8623997D01*
X13858251Y-8623997D02*
X13877299Y-8614473D01*
X13877299Y-8614473D02*
X13915394Y-8614473D01*
X13915394Y-8614473D02*
X13934442Y-8623997D01*
X13934442Y-8623997D02*
X13943965Y-8643044D01*
X13943965Y-8643044D02*
X13943965Y-8662092D01*
X13943965Y-8662092D02*
X13848727Y-8681139D01*
X14020156Y-8738282D02*
X14039203Y-8747806D01*
X14039203Y-8747806D02*
X14077299Y-8747806D01*
X14077299Y-8747806D02*
X14096346Y-8738282D01*
X14096346Y-8738282D02*
X14105870Y-8719235D01*
X14105870Y-8719235D02*
X14105870Y-8709711D01*
X14105870Y-8709711D02*
X14096346Y-8690663D01*
X14096346Y-8690663D02*
X14077299Y-8681139D01*
X14077299Y-8681139D02*
X14048727Y-8681139D01*
X14048727Y-8681139D02*
X14029680Y-8671616D01*
X14029680Y-8671616D02*
X14020156Y-8652568D01*
X14020156Y-8652568D02*
X14020156Y-8643044D01*
X14020156Y-8643044D02*
X14029680Y-8623997D01*
X14029680Y-8623997D02*
X14048727Y-8614473D01*
X14048727Y-8614473D02*
X14077299Y-8614473D01*
X14077299Y-8614473D02*
X14096346Y-8623997D01*
X14172537Y-8823997D02*
X14182061Y-8814473D01*
X14182061Y-8814473D02*
X14201108Y-8785901D01*
X14201108Y-8785901D02*
X14210632Y-8766854D01*
X14210632Y-8766854D02*
X14220156Y-8738282D01*
X14220156Y-8738282D02*
X14229680Y-8690663D01*
X14229680Y-8690663D02*
X14229680Y-8652568D01*
X14229680Y-8652568D02*
X14220156Y-8604949D01*
X14220156Y-8604949D02*
X14210632Y-8576378D01*
X14210632Y-8576378D02*
X14201108Y-8557330D01*
X14201108Y-8557330D02*
X14182061Y-8528758D01*
X14182061Y-8528758D02*
X14172537Y-8519235D01*
M02*
