%TF.GenerationSoftware,KiCad,Pcbnew,8.0.7*%
%TF.CreationDate,2024-12-18T23:50:21+01:00*%
%TF.ProjectId,neopixel_eliot_hat,6e656f70-6978-4656-9c5f-656c696f745f,rev?*%
%TF.SameCoordinates,Original*%
%TF.FileFunction,Paste,Top*%
%TF.FilePolarity,Positive*%
%FSLAX46Y46*%
G04 Gerber Fmt 4.6, Leading zero omitted, Abs format (unit mm)*
G04 Created by KiCad (PCBNEW 8.0.7) date 2024-12-18 23:50:21*
%MOMM*%
%LPD*%
G01*
G04 APERTURE LIST*
G04 Aperture macros list*
%AMRoundRect*
0 Rectangle with rounded corners*
0 $1 Rounding radius*
0 $2 $3 $4 $5 $6 $7 $8 $9 X,Y pos of 4 corners*
0 Add a 4 corners polygon primitive as box body*
4,1,4,$2,$3,$4,$5,$6,$7,$8,$9,$2,$3,0*
0 Add four circle primitives for the rounded corners*
1,1,$1+$1,$2,$3*
1,1,$1+$1,$4,$5*
1,1,$1+$1,$6,$7*
1,1,$1+$1,$8,$9*
0 Add four rect primitives between the rounded corners*
20,1,$1+$1,$2,$3,$4,$5,0*
20,1,$1+$1,$4,$5,$6,$7,0*
20,1,$1+$1,$6,$7,$8,$9,0*
20,1,$1+$1,$8,$9,$2,$3,0*%
G04 Aperture macros list end*
%ADD10RoundRect,0.079500X0.100500X-0.079500X0.100500X0.079500X-0.100500X0.079500X-0.100500X-0.079500X0*%
%ADD11RoundRect,0.137500X0.137500X-0.137500X0.137500X0.137500X-0.137500X0.137500X-0.137500X-0.137500X0*%
%ADD12RoundRect,0.130000X0.130000X-0.130000X0.130000X0.130000X-0.130000X0.130000X-0.130000X-0.130000X0*%
%ADD13RoundRect,0.130000X-0.130000X-0.130000X0.130000X-0.130000X0.130000X0.130000X-0.130000X0.130000X0*%
%ADD14RoundRect,0.130000X0.130000X0.130000X-0.130000X0.130000X-0.130000X-0.130000X0.130000X-0.130000X0*%
%ADD15RoundRect,0.130000X-0.130000X0.130000X-0.130000X-0.130000X0.130000X-0.130000X0.130000X0.130000X0*%
%ADD16RoundRect,0.225000X0.225000X0.375000X-0.225000X0.375000X-0.225000X-0.375000X0.225000X-0.375000X0*%
%ADD17RoundRect,0.135000X0.135000X0.185000X-0.135000X0.185000X-0.135000X-0.185000X0.135000X-0.185000X0*%
%ADD18RoundRect,0.218750X0.218750X0.256250X-0.218750X0.256250X-0.218750X-0.256250X0.218750X-0.256250X0*%
%ADD19R,0.550000X0.550000*%
%ADD20RoundRect,0.200000X0.200000X0.275000X-0.200000X0.275000X-0.200000X-0.275000X0.200000X-0.275000X0*%
%ADD21RoundRect,0.200000X-0.275000X0.200000X-0.275000X-0.200000X0.275000X-0.200000X0.275000X0.200000X0*%
%ADD22R,0.950000X0.450000*%
%ADD23RoundRect,0.250000X-0.450000X-0.425000X0.450000X-0.425000X0.450000X0.425000X-0.450000X0.425000X0*%
%ADD24RoundRect,0.135000X-0.185000X0.135000X-0.185000X-0.135000X0.185000X-0.135000X0.185000X0.135000X0*%
%ADD25RoundRect,0.150000X-0.150000X0.587500X-0.150000X-0.587500X0.150000X-0.587500X0.150000X0.587500X0*%
%ADD26RoundRect,0.140000X-0.140000X-0.170000X0.140000X-0.170000X0.140000X0.170000X-0.140000X0.170000X0*%
%ADD27RoundRect,0.140000X0.140000X0.170000X-0.140000X0.170000X-0.140000X-0.170000X0.140000X-0.170000X0*%
%ADD28R,1.900000X0.400000*%
%ADD29RoundRect,0.175000X-0.175000X-0.325000X0.175000X-0.325000X0.175000X0.325000X-0.175000X0.325000X0*%
%ADD30RoundRect,0.150000X-0.200000X-0.150000X0.200000X-0.150000X0.200000X0.150000X-0.200000X0.150000X0*%
%ADD31R,0.600000X0.250000*%
%ADD32RoundRect,0.150000X-0.150000X-0.425000X0.150000X-0.425000X0.150000X0.425000X-0.150000X0.425000X0*%
%ADD33RoundRect,0.075000X-0.075000X-0.500000X0.075000X-0.500000X0.075000X0.500000X-0.075000X0.500000X0*%
%ADD34O,1.000000X2.100000*%
%ADD35O,1.000000X1.800000*%
%ADD36R,0.850000X0.300000*%
%ADD37R,0.250000X0.750000*%
%ADD38R,5.700000X5.700000*%
%ADD39RoundRect,0.140000X0.170000X-0.140000X0.170000X0.140000X-0.170000X0.140000X-0.170000X-0.140000X0*%
G04 APERTURE END LIST*
D10*
%TO.C,R5*%
X100010000Y-60015000D03*
X100010000Y-60705000D03*
%TD*%
D11*
%TO.C,R6*%
X98140000Y-53910000D03*
X98140000Y-54710000D03*
%TD*%
D10*
%TO.C,R4*%
X95690000Y-60015000D03*
X95690000Y-60705000D03*
%TD*%
D12*
%TO.C,C3*%
X107210000Y-64040000D03*
X107210000Y-64840000D03*
%TD*%
D13*
%TO.C,C16*%
X112210000Y-48600000D03*
X111410000Y-48600000D03*
%TD*%
D11*
%TO.C,R8*%
X97380000Y-53910000D03*
X97380000Y-54710000D03*
%TD*%
D14*
%TO.C,C17*%
X101250000Y-53850000D03*
X100450000Y-53850000D03*
%TD*%
%TO.C,C2*%
X104950000Y-63855000D03*
X105750000Y-63855000D03*
%TD*%
D13*
%TO.C,C18*%
X110370000Y-55590000D03*
X109570000Y-55590000D03*
%TD*%
D12*
%TO.C,C20*%
X104080000Y-45730000D03*
X104080000Y-46530000D03*
%TD*%
D15*
%TO.C,C9*%
X105780000Y-43880000D03*
X105780000Y-43080000D03*
%TD*%
D16*
%TO.C,D3*%
X104380000Y-59910000D03*
X101080000Y-59910000D03*
%TD*%
D17*
%TO.C,R13*%
X113520000Y-56970000D03*
X112500000Y-56970000D03*
%TD*%
D18*
%TO.C,D2*%
X117770000Y-60810000D03*
X116195000Y-60810000D03*
%TD*%
D19*
%TO.C,S1*%
X114870000Y-45030000D03*
X114120000Y-45030000D03*
X114120000Y-47680000D03*
X114870000Y-47680000D03*
%TD*%
D17*
%TO.C,R10*%
X96740000Y-56870000D03*
X95720000Y-56870000D03*
%TD*%
D20*
%TO.C,R12*%
X114765000Y-60810000D03*
X113115000Y-60810000D03*
%TD*%
D21*
%TO.C,R2*%
X109415000Y-64940000D03*
X109415000Y-66590000D03*
%TD*%
D22*
%TO.C,LV1*%
X105758223Y-65960000D03*
X105758223Y-66610000D03*
X105758223Y-67260000D03*
X107958223Y-67260000D03*
X107958223Y-66610000D03*
X107958223Y-65960000D03*
%TD*%
D23*
%TO.C,C14*%
X110690000Y-58830000D03*
X113390000Y-58830000D03*
%TD*%
D24*
%TO.C,R9*%
X95800000Y-53910000D03*
X95800000Y-54930000D03*
%TD*%
D25*
%TO.C,Q3*%
X102082500Y-55862500D03*
X100182500Y-55862500D03*
X101132500Y-57737500D03*
%TD*%
D26*
%TO.C,C6*%
X105280000Y-46500000D03*
X106240000Y-46500000D03*
%TD*%
D20*
%TO.C,R3*%
X109600000Y-68670000D03*
X107950000Y-68670000D03*
%TD*%
%TO.C,R14*%
X116260000Y-57020000D03*
X114610000Y-57020000D03*
%TD*%
D27*
%TO.C,C1*%
X105740000Y-64725000D03*
X104780000Y-64725000D03*
%TD*%
D28*
%TO.C,Y1*%
X112910000Y-52790000D03*
X112910000Y-51590000D03*
X112910000Y-50390000D03*
%TD*%
D29*
%TO.C,D1*%
X96760000Y-58620000D03*
D30*
X96760000Y-60320000D03*
X98760000Y-60320000D03*
X98760000Y-58420000D03*
%TD*%
D31*
%TO.C,D5*%
X96600000Y-50753223D03*
X96600000Y-50253223D03*
X96600000Y-49753223D03*
X96600000Y-49253223D03*
X96600000Y-48753223D03*
X95750000Y-48753223D03*
X95750000Y-49253223D03*
X95750000Y-49753223D03*
X95750000Y-50253223D03*
X95750000Y-50753223D03*
%TD*%
D32*
%TO.C,J5*%
X95070000Y-62155000D03*
X95870000Y-62155000D03*
D33*
X97020000Y-62155000D03*
X98020000Y-62155000D03*
X98520000Y-62155000D03*
X99520000Y-62155000D03*
D32*
X100670000Y-62155000D03*
X101470000Y-62155000D03*
X101470000Y-62155000D03*
X100670000Y-62155000D03*
D33*
X100020000Y-62155000D03*
X99020000Y-62155000D03*
X97520000Y-62155000D03*
X96520000Y-62155000D03*
D32*
X95870000Y-62155000D03*
X95070000Y-62155000D03*
D34*
X93950000Y-62730000D03*
D35*
X93950000Y-66910000D03*
D34*
X102590000Y-62730000D03*
D35*
X102590000Y-66910000D03*
%TD*%
D27*
%TO.C,R7*%
X111640000Y-56980000D03*
X110680000Y-56980000D03*
%TD*%
D19*
%TO.C,S2*%
X107470000Y-59890000D03*
X108220000Y-59890000D03*
X108220000Y-57240000D03*
X107470000Y-57240000D03*
%TD*%
D36*
%TO.C,IC4*%
X110280000Y-53840000D03*
X110280000Y-53340000D03*
X110280000Y-52840000D03*
X110280000Y-52340000D03*
X110280000Y-51840000D03*
X110280000Y-51340000D03*
X110280000Y-50840000D03*
X110280000Y-50340000D03*
X110280000Y-49840000D03*
X110280000Y-49340000D03*
X110280000Y-48840000D03*
X110280000Y-48340000D03*
D37*
X109580000Y-47640000D03*
X109080000Y-47640000D03*
X108580000Y-47640000D03*
X108080000Y-47640000D03*
X107580000Y-47640000D03*
X107080000Y-47640000D03*
X106580000Y-47640000D03*
X106080000Y-47640000D03*
X105580000Y-47640000D03*
X105080000Y-47640000D03*
X104580000Y-47640000D03*
X104080000Y-47640000D03*
D36*
X103380000Y-48340000D03*
X103380000Y-48840000D03*
X103380000Y-49340000D03*
X103380000Y-49840000D03*
X103380000Y-50340000D03*
X103380000Y-50840000D03*
X103380000Y-51340000D03*
X103380000Y-51840000D03*
X103380000Y-52340000D03*
X103380000Y-52840000D03*
X103380000Y-53340000D03*
X103380000Y-53840000D03*
D37*
X104080000Y-54540000D03*
X104580000Y-54540000D03*
X105080000Y-54540000D03*
X105580000Y-54540000D03*
X106080000Y-54540000D03*
X106580000Y-54540000D03*
X107080000Y-54540000D03*
X107580000Y-54540000D03*
X108080000Y-54540000D03*
X108580000Y-54540000D03*
X109080000Y-54540000D03*
X109580000Y-54540000D03*
D38*
X106830000Y-51090000D03*
%TD*%
D39*
%TO.C,C4*%
X108050000Y-64840000D03*
X108050000Y-63880000D03*
%TD*%
%TO.C,C7*%
X103230000Y-46530000D03*
X103230000Y-45570000D03*
%TD*%
M02*
