%TF.GenerationSoftware,KiCad,Pcbnew,7.0.8*%
%TF.CreationDate,2024-03-19T19:35:36+01:00*%
%TF.ProjectId,neopixel_eliot_hat,6e656f70-6978-4656-9c5f-656c696f745f,rev?*%
%TF.SameCoordinates,Original*%
%TF.FileFunction,Copper,L3,Inr*%
%TF.FilePolarity,Positive*%
%FSLAX46Y46*%
G04 Gerber Fmt 4.6, Leading zero omitted, Abs format (unit mm)*
G04 Created by KiCad (PCBNEW 7.0.8) date 2024-03-19 19:35:36*
%MOMM*%
%LPD*%
G01*
G04 APERTURE LIST*
G04 Aperture macros list*
%AMRoundRect*
0 Rectangle with rounded corners*
0 $1 Rounding radius*
0 $2 $3 $4 $5 $6 $7 $8 $9 X,Y pos of 4 corners*
0 Add a 4 corners polygon primitive as box body*
4,1,4,$2,$3,$4,$5,$6,$7,$8,$9,$2,$3,0*
0 Add four circle primitives for the rounded corners*
1,1,$1+$1,$2,$3*
1,1,$1+$1,$4,$5*
1,1,$1+$1,$6,$7*
1,1,$1+$1,$8,$9*
0 Add four rect primitives between the rounded corners*
20,1,$1+$1,$2,$3,$4,$5,0*
20,1,$1+$1,$4,$5,$6,$7,0*
20,1,$1+$1,$6,$7,$8,$9,0*
20,1,$1+$1,$8,$9,$2,$3,0*%
G04 Aperture macros list end*
%TA.AperFunction,ComponentPad*%
%ADD10C,0.254000*%
%TD*%
%TA.AperFunction,ComponentPad*%
%ADD11R,2.000000X2.000000*%
%TD*%
%TA.AperFunction,ComponentPad*%
%ADD12O,2.000000X2.000000*%
%TD*%
%TA.AperFunction,ComponentPad*%
%ADD13O,1.700000X1.700000*%
%TD*%
%TA.AperFunction,ComponentPad*%
%ADD14O,1.000000X1.800000*%
%TD*%
%TA.AperFunction,ComponentPad*%
%ADD15O,1.000000X2.100000*%
%TD*%
%TA.AperFunction,ComponentPad*%
%ADD16R,0.850000X0.850000*%
%TD*%
%TA.AperFunction,ComponentPad*%
%ADD17O,0.850000X0.850000*%
%TD*%
%TA.AperFunction,ComponentPad*%
%ADD18RoundRect,0.250000X0.725000X-0.600000X0.725000X0.600000X-0.725000X0.600000X-0.725000X-0.600000X0*%
%TD*%
%TA.AperFunction,ComponentPad*%
%ADD19O,1.950000X1.700000*%
%TD*%
%TA.AperFunction,ViaPad*%
%ADD20C,0.700000*%
%TD*%
%TA.AperFunction,ViaPad*%
%ADD21C,0.600000*%
%TD*%
G04 APERTURE END LIST*
D10*
%TO.N,+3V3*%
%TO.C,LV1*%
X152080000Y-95047500D03*
%TO.N,GND*%
X153350000Y-95047500D03*
%TO.N,/IO27*%
X154620000Y-95047500D03*
%TO.N,Net-(LV1-I{slash}O_B)*%
X155890000Y-95047500D03*
%TO.N,Net-(LV1-DIR)*%
X157160000Y-95047500D03*
%TO.N,+5V_MCU*%
X158430000Y-95047500D03*
%TD*%
D11*
%TO.N,GND*%
%TO.C,J2*%
X149265000Y-64425000D03*
D12*
%TO.N,unconnected-(J2-3.3V-Pad2)*%
X151805000Y-64425000D03*
D13*
%TO.N,Net-(J2-SPI_SCK)*%
X139075000Y-69505000D03*
%TO.N,Net-(J2-SPI_MOSI)*%
X139075000Y-72045000D03*
%TO.N,Net-(J2-SPI_MISO)*%
X139075000Y-74585000D03*
%TO.N,Net-(J2-SPI_CS)*%
X139075000Y-77125000D03*
%TO.N,Net-(J2-I2C_SCL)*%
X139075000Y-79665000D03*
%TO.N,Net-(J2-I2C_SDA)*%
X139075000Y-82205000D03*
%TO.N,/MCU_GPIO1*%
X167075000Y-82205000D03*
%TO.N,/MCU_GPIO2*%
X167075000Y-79665000D03*
%TO.N,/MCU_GPIO3*%
X167075000Y-77125000D03*
%TO.N,/MCU_GPIO4*%
X167075000Y-74585000D03*
%TO.N,unconnected-(J2-GPIO_5-Pad13)*%
X167075000Y-72045000D03*
%TO.N,unconnected-(J2-GPIO_6-Pad14)*%
X167075000Y-69505000D03*
D12*
%TO.N,+5V_MCU*%
X154345000Y-64425000D03*
X156885000Y-64425000D03*
%TD*%
D14*
%TO.N,GND*%
%TO.C,J4*%
X147510000Y-93042500D03*
D15*
X147510000Y-88862500D03*
D14*
X138870000Y-93042500D03*
D15*
X138870000Y-88862500D03*
%TD*%
D16*
%TO.N,+3V3*%
%TO.C,J3*%
X162250000Y-68175000D03*
D17*
%TO.N,Net-(D1-IO2)*%
X161250000Y-68175000D03*
%TO.N,Net-(D1-IO1)*%
X160250000Y-68175000D03*
%TO.N,Net-(D1-IO3)*%
X159250000Y-68175000D03*
%TO.N,Net-(D1-IO4)*%
X158250000Y-68175000D03*
%TO.N,Net-(D1-IO5)*%
X157250000Y-68175000D03*
%TO.N,GND*%
X156250000Y-68175000D03*
%TD*%
D18*
%TO.N,GND*%
%TO.C,J1*%
X165450000Y-93425000D03*
D19*
%TO.N,/DATA_5V*%
X165450000Y-90925000D03*
%TO.N,+5V_MCU*%
X165450000Y-88425000D03*
%TD*%
D20*
%TO.N,+3V3*%
X142775000Y-78475000D03*
X155442024Y-78467024D03*
D21*
X140425000Y-80214500D03*
D20*
X156640000Y-91500000D03*
X152000000Y-90560000D03*
X162475000Y-89050500D03*
%TO.N,GND*%
X150800000Y-68175000D03*
X149475000Y-72050000D03*
X163040895Y-71359105D03*
X139125000Y-65250000D03*
X164025000Y-95400000D03*
X153950000Y-68175000D03*
X145925000Y-68225000D03*
X158925000Y-82680500D03*
X162325000Y-77100000D03*
X163150000Y-77925000D03*
X150125000Y-81700000D03*
X160625000Y-77925000D03*
X139125000Y-66925000D03*
X149275000Y-73500000D03*
X161450000Y-78775000D03*
X160975000Y-65975000D03*
X162325000Y-77925000D03*
X139275000Y-90850000D03*
X160175000Y-65975000D03*
X143225000Y-94375000D03*
X167520000Y-67165000D03*
X150150000Y-80875000D03*
X166720000Y-66290000D03*
X162450000Y-85474500D03*
X155675000Y-72050000D03*
X144825000Y-94375000D03*
X147500000Y-94612500D03*
X163150000Y-78775000D03*
X150900000Y-94612500D03*
X161450000Y-77100000D03*
X139125000Y-66125000D03*
X142750000Y-73725000D03*
X160625000Y-78775000D03*
X152000000Y-88599500D03*
X140975000Y-85600000D03*
X162325000Y-78775000D03*
X149350000Y-80850000D03*
X149325000Y-70050000D03*
X149500000Y-95400000D03*
X150900000Y-95400000D03*
X145125000Y-68200000D03*
X157468383Y-82680500D03*
X155675000Y-73500000D03*
X160625000Y-77100000D03*
X155589750Y-89819500D03*
X148050000Y-64025000D03*
X166720000Y-67165000D03*
X161775000Y-65975000D03*
X159375000Y-65975000D03*
X155675000Y-75525000D03*
X167520000Y-66290000D03*
X149325000Y-81675000D03*
X154750000Y-68175000D03*
X147525000Y-90787500D03*
X149500000Y-94612500D03*
X161450000Y-77925000D03*
X160000000Y-94950500D03*
X163150000Y-77100000D03*
X155675000Y-70050000D03*
X151600000Y-68175000D03*
X139125000Y-64450000D03*
X149250000Y-75475000D03*
%TO.N,+5V_MCU*%
X154135000Y-87090000D03*
X147475000Y-70150000D03*
X153360000Y-87615000D03*
X153360000Y-86590000D03*
X165090000Y-72645000D03*
X146800000Y-70750000D03*
X146200000Y-66600000D03*
X161100000Y-89800000D03*
X147475000Y-71350000D03*
X165635000Y-73210000D03*
X152610000Y-87090000D03*
X165090000Y-73795000D03*
X148075000Y-70750000D03*
X144925000Y-66600000D03*
X145600000Y-66000000D03*
X145600000Y-67200000D03*
X164610000Y-73210000D03*
D21*
%TO.N,/EN*%
X154493556Y-81606444D03*
X150950000Y-84750000D03*
D20*
X159400000Y-77575000D03*
X141850000Y-78449500D03*
X156748631Y-71487892D03*
%TO.N,/DATA_5V*%
X154875000Y-90625000D03*
D21*
%TO.N,Net-(D1-IO3)*%
X160250000Y-73175000D03*
X159000000Y-69250000D03*
%TO.N,Net-(D1-IO4)*%
X158250000Y-73175000D03*
X157849500Y-70732339D03*
%TO.N,/JTCK*%
X157395639Y-75664880D03*
X163075000Y-75675000D03*
%TO.N,Net-(S1-B)*%
X150700000Y-71050000D03*
D20*
%TO.N,/D-*%
X162850000Y-84250000D03*
X153830000Y-85560000D03*
%TO.N,/D+*%
X162276376Y-83250501D03*
X153125730Y-85079331D03*
D21*
%TO.N,/IO27*%
X154877067Y-82490905D03*
X152850000Y-89850000D03*
%TO.N,/U0RXD*%
X144136043Y-79686043D03*
%TO.N,/U0TXD*%
X145060824Y-79649500D03*
%TO.N,Net-(S2-B)*%
X151400000Y-74500000D03*
%TO.N,Net-(J2-SPI_SCK)*%
X148075000Y-73425000D03*
%TO.N,Net-(J2-SPI_MISO)*%
X147550500Y-74960035D03*
%TO.N,Net-(J2-SPI_CS)*%
X148150000Y-75975000D03*
%TO.N,Net-(J2-I2C_SDA)*%
X144950000Y-80475000D03*
%TO.N,Net-(J4-CC1)*%
X144450000Y-89750500D03*
%TO.N,Net-(J4-CC2)*%
X143225000Y-89750500D03*
%TD*%
%TA.AperFunction,Conductor*%
%TO.N,GND*%
G36*
X147708039Y-63420185D02*
G01*
X147753794Y-63472989D01*
X147765000Y-63524500D01*
X147765000Y-64175000D01*
X148831314Y-64175000D01*
X148805507Y-64215156D01*
X148765000Y-64353111D01*
X148765000Y-64496889D01*
X148805507Y-64634844D01*
X148831314Y-64675000D01*
X147765000Y-64675000D01*
X147765000Y-65472844D01*
X147771401Y-65532372D01*
X147771403Y-65532379D01*
X147821645Y-65667086D01*
X147821649Y-65667093D01*
X147907809Y-65782187D01*
X147907812Y-65782190D01*
X148022906Y-65868350D01*
X148022913Y-65868354D01*
X148157620Y-65918596D01*
X148157627Y-65918598D01*
X148217155Y-65924999D01*
X148217172Y-65925000D01*
X149015000Y-65925000D01*
X149015000Y-64860501D01*
X149122685Y-64909680D01*
X149229237Y-64925000D01*
X149300763Y-64925000D01*
X149407315Y-64909680D01*
X149515000Y-64860501D01*
X149515000Y-65925000D01*
X150312828Y-65925000D01*
X150312844Y-65924999D01*
X150372372Y-65918598D01*
X150372379Y-65918596D01*
X150507086Y-65868354D01*
X150507093Y-65868350D01*
X150622187Y-65782190D01*
X150622190Y-65782187D01*
X150708350Y-65667093D01*
X150708354Y-65667086D01*
X150758596Y-65532379D01*
X150758598Y-65532372D01*
X150764999Y-65472844D01*
X150765000Y-65472827D01*
X150765000Y-65452837D01*
X150784685Y-65385798D01*
X150837489Y-65340043D01*
X150906647Y-65330099D01*
X150970203Y-65359124D01*
X150976681Y-65365156D01*
X150998123Y-65386598D01*
X151177361Y-65512102D01*
X151375670Y-65604575D01*
X151587023Y-65661207D01*
X151769926Y-65677208D01*
X151804998Y-65680277D01*
X151805000Y-65680277D01*
X151805002Y-65680277D01*
X151833254Y-65677805D01*
X152022977Y-65661207D01*
X152234330Y-65604575D01*
X152432639Y-65512102D01*
X152611877Y-65386598D01*
X152766598Y-65231877D01*
X152892102Y-65052639D01*
X152962618Y-64901414D01*
X153008790Y-64848977D01*
X153075984Y-64829825D01*
X153142865Y-64850041D01*
X153187381Y-64901414D01*
X153257898Y-65052639D01*
X153383402Y-65231877D01*
X153538123Y-65386598D01*
X153717361Y-65512102D01*
X153915670Y-65604575D01*
X154127023Y-65661207D01*
X154309926Y-65677208D01*
X154344998Y-65680277D01*
X154345000Y-65680277D01*
X154345002Y-65680277D01*
X154373254Y-65677805D01*
X154562977Y-65661207D01*
X154774330Y-65604575D01*
X154972639Y-65512102D01*
X155151877Y-65386598D01*
X155306598Y-65231877D01*
X155432102Y-65052639D01*
X155502618Y-64901414D01*
X155548790Y-64848977D01*
X155615984Y-64829825D01*
X155682865Y-64850041D01*
X155727381Y-64901414D01*
X155797898Y-65052639D01*
X155923402Y-65231877D01*
X156078123Y-65386598D01*
X156257361Y-65512102D01*
X156455670Y-65604575D01*
X156667023Y-65661207D01*
X156849926Y-65677208D01*
X156884998Y-65680277D01*
X156885000Y-65680277D01*
X156885002Y-65680277D01*
X156913254Y-65677805D01*
X157102977Y-65661207D01*
X157314330Y-65604575D01*
X157512639Y-65512102D01*
X157691877Y-65386598D01*
X157846598Y-65231877D01*
X157972102Y-65052639D01*
X158064575Y-64854330D01*
X158121207Y-64642977D01*
X158140277Y-64425000D01*
X158121207Y-64207023D01*
X158064575Y-63995670D01*
X157972102Y-63797362D01*
X157972100Y-63797359D01*
X157972099Y-63797357D01*
X157846597Y-63618121D01*
X157840657Y-63612181D01*
X157807172Y-63550858D01*
X157812156Y-63481166D01*
X157854028Y-63425233D01*
X157919492Y-63400816D01*
X157928338Y-63400500D01*
X168000500Y-63400500D01*
X168067539Y-63420185D01*
X168113294Y-63472989D01*
X168124500Y-63524500D01*
X168124500Y-68698647D01*
X168104815Y-68765686D01*
X168052011Y-68811441D01*
X167982853Y-68821385D01*
X167919297Y-68792360D01*
X167901547Y-68773375D01*
X167891763Y-68760420D01*
X167891763Y-68760419D01*
X167741041Y-68623019D01*
X167741039Y-68623017D01*
X167567642Y-68515655D01*
X167567635Y-68515651D01*
X167472546Y-68478814D01*
X167377456Y-68441976D01*
X167176976Y-68404500D01*
X166973024Y-68404500D01*
X166772544Y-68441976D01*
X166772541Y-68441976D01*
X166772541Y-68441977D01*
X166582364Y-68515651D01*
X166582357Y-68515655D01*
X166408960Y-68623017D01*
X166408958Y-68623019D01*
X166258237Y-68760418D01*
X166135327Y-68923178D01*
X166044422Y-69105739D01*
X166044417Y-69105752D01*
X165988602Y-69301917D01*
X165969785Y-69504999D01*
X165969785Y-69505000D01*
X165988602Y-69708082D01*
X166044417Y-69904247D01*
X166044422Y-69904260D01*
X166135327Y-70086821D01*
X166258237Y-70249581D01*
X166408958Y-70386980D01*
X166408960Y-70386982D01*
X166506150Y-70447159D01*
X166582363Y-70494348D01*
X166772544Y-70568024D01*
X166973024Y-70605500D01*
X166973026Y-70605500D01*
X167176974Y-70605500D01*
X167176976Y-70605500D01*
X167377456Y-70568024D01*
X167567637Y-70494348D01*
X167741041Y-70386981D01*
X167891764Y-70249579D01*
X167901546Y-70236624D01*
X167957654Y-70194990D01*
X168027365Y-70190297D01*
X168088548Y-70224039D01*
X168121776Y-70285502D01*
X168124500Y-70311352D01*
X168124500Y-71238647D01*
X168104815Y-71305686D01*
X168052011Y-71351441D01*
X167982853Y-71361385D01*
X167919297Y-71332360D01*
X167901547Y-71313375D01*
X167891763Y-71300420D01*
X167891763Y-71300419D01*
X167741041Y-71163019D01*
X167741039Y-71163017D01*
X167567642Y-71055655D01*
X167567635Y-71055651D01*
X167431199Y-71002796D01*
X167377456Y-70981976D01*
X167176976Y-70944500D01*
X166973024Y-70944500D01*
X166772544Y-70981976D01*
X166772541Y-70981976D01*
X166772541Y-70981977D01*
X166582364Y-71055651D01*
X166582357Y-71055655D01*
X166408960Y-71163017D01*
X166408958Y-71163019D01*
X166258237Y-71300418D01*
X166135327Y-71463178D01*
X166044422Y-71645739D01*
X166044417Y-71645752D01*
X165988602Y-71841917D01*
X165969785Y-72044999D01*
X165969785Y-72045000D01*
X165988602Y-72248082D01*
X166044417Y-72444247D01*
X166044421Y-72444256D01*
X166075717Y-72507108D01*
X166087977Y-72575894D01*
X166061103Y-72640388D01*
X166003627Y-72680116D01*
X165933797Y-72682462D01*
X165917264Y-72676940D01*
X165791765Y-72624957D01*
X165791756Y-72624954D01*
X165785630Y-72624148D01*
X165721735Y-72595879D01*
X165683266Y-72537553D01*
X165678882Y-72517394D01*
X165677528Y-72507108D01*
X165675044Y-72488238D01*
X165614536Y-72342159D01*
X165518282Y-72216718D01*
X165392841Y-72120464D01*
X165278098Y-72072936D01*
X165246762Y-72059956D01*
X165246760Y-72059955D01*
X165090001Y-72039318D01*
X165089999Y-72039318D01*
X164933239Y-72059955D01*
X164933237Y-72059956D01*
X164787160Y-72120463D01*
X164661718Y-72216718D01*
X164565463Y-72342160D01*
X164504956Y-72488237D01*
X164504956Y-72488238D01*
X164498245Y-72539207D01*
X164469977Y-72603103D01*
X164422760Y-72637580D01*
X164307159Y-72685464D01*
X164181718Y-72781718D01*
X164085463Y-72907160D01*
X164024956Y-73053237D01*
X164024955Y-73053239D01*
X164004318Y-73209998D01*
X164004318Y-73210001D01*
X164024955Y-73366760D01*
X164024956Y-73366762D01*
X164085464Y-73512841D01*
X164181718Y-73638282D01*
X164307159Y-73734536D01*
X164413652Y-73778647D01*
X164419975Y-73781266D01*
X164474378Y-73825107D01*
X164495461Y-73879641D01*
X164504956Y-73951761D01*
X164504956Y-73951762D01*
X164532864Y-74019139D01*
X164565464Y-74097841D01*
X164661718Y-74223282D01*
X164787159Y-74319536D01*
X164933238Y-74380044D01*
X165011619Y-74390363D01*
X165089999Y-74400682D01*
X165090000Y-74400682D01*
X165090001Y-74400682D01*
X165142254Y-74393802D01*
X165246762Y-74380044D01*
X165392841Y-74319536D01*
X165518282Y-74223282D01*
X165614536Y-74097841D01*
X165675044Y-73951762D01*
X165681561Y-73902252D01*
X165709826Y-73838357D01*
X165768150Y-73799885D01*
X165788318Y-73795497D01*
X165791762Y-73795044D01*
X165937841Y-73734536D01*
X166063282Y-73638282D01*
X166159536Y-73512841D01*
X166220044Y-73366762D01*
X166240682Y-73210000D01*
X166232190Y-73145500D01*
X166219316Y-73047709D01*
X166230082Y-72978674D01*
X166276462Y-72926418D01*
X166343730Y-72907533D01*
X166407533Y-72926097D01*
X166408955Y-72926977D01*
X166408959Y-72926981D01*
X166582363Y-73034348D01*
X166772544Y-73108024D01*
X166973024Y-73145500D01*
X166973026Y-73145500D01*
X167176974Y-73145500D01*
X167176976Y-73145500D01*
X167377456Y-73108024D01*
X167567637Y-73034348D01*
X167741041Y-72926981D01*
X167891764Y-72789579D01*
X167901546Y-72776624D01*
X167957654Y-72734990D01*
X168027365Y-72730297D01*
X168088548Y-72764039D01*
X168121776Y-72825502D01*
X168124500Y-72851352D01*
X168124500Y-73778647D01*
X168104815Y-73845686D01*
X168052011Y-73891441D01*
X167982853Y-73901385D01*
X167919297Y-73872360D01*
X167901547Y-73853375D01*
X167891763Y-73840420D01*
X167891763Y-73840419D01*
X167741041Y-73703019D01*
X167741039Y-73703017D01*
X167567642Y-73595655D01*
X167567635Y-73595651D01*
X167472546Y-73558814D01*
X167377456Y-73521976D01*
X167176976Y-73484500D01*
X166973024Y-73484500D01*
X166772544Y-73521976D01*
X166772541Y-73521976D01*
X166772541Y-73521977D01*
X166582364Y-73595651D01*
X166582357Y-73595655D01*
X166408960Y-73703017D01*
X166408958Y-73703019D01*
X166258237Y-73840418D01*
X166135327Y-74003178D01*
X166044422Y-74185739D01*
X166044417Y-74185752D01*
X165988602Y-74381917D01*
X165969785Y-74584999D01*
X165969785Y-74585000D01*
X165988602Y-74788082D01*
X166044417Y-74984247D01*
X166044422Y-74984260D01*
X166135327Y-75166821D01*
X166258237Y-75329581D01*
X166408958Y-75466980D01*
X166408960Y-75466982D01*
X166496479Y-75521171D01*
X166582363Y-75574348D01*
X166772544Y-75648024D01*
X166973024Y-75685500D01*
X166973026Y-75685500D01*
X167176974Y-75685500D01*
X167176976Y-75685500D01*
X167377456Y-75648024D01*
X167567637Y-75574348D01*
X167741041Y-75466981D01*
X167891764Y-75329579D01*
X167901546Y-75316624D01*
X167957654Y-75274990D01*
X168027365Y-75270297D01*
X168088548Y-75304039D01*
X168121776Y-75365502D01*
X168124500Y-75391352D01*
X168124500Y-76318647D01*
X168104815Y-76385686D01*
X168052011Y-76431441D01*
X167982853Y-76441385D01*
X167919297Y-76412360D01*
X167901547Y-76393375D01*
X167891763Y-76380420D01*
X167891763Y-76380419D01*
X167741041Y-76243019D01*
X167741039Y-76243017D01*
X167567642Y-76135655D01*
X167567635Y-76135651D01*
X167472546Y-76098814D01*
X167377456Y-76061976D01*
X167176976Y-76024500D01*
X166973024Y-76024500D01*
X166772544Y-76061976D01*
X166772541Y-76061976D01*
X166772541Y-76061977D01*
X166582364Y-76135651D01*
X166582357Y-76135655D01*
X166408960Y-76243017D01*
X166408958Y-76243019D01*
X166258237Y-76380418D01*
X166135327Y-76543178D01*
X166044422Y-76725739D01*
X166044417Y-76725752D01*
X165988602Y-76921917D01*
X165969785Y-77124999D01*
X165969785Y-77125000D01*
X165988602Y-77328082D01*
X166044417Y-77524247D01*
X166044422Y-77524260D01*
X166135327Y-77706821D01*
X166258237Y-77869581D01*
X166408958Y-78006980D01*
X166408960Y-78006982D01*
X166508141Y-78068392D01*
X166582363Y-78114348D01*
X166772544Y-78188024D01*
X166973024Y-78225500D01*
X166973026Y-78225500D01*
X167176974Y-78225500D01*
X167176976Y-78225500D01*
X167377456Y-78188024D01*
X167567637Y-78114348D01*
X167741041Y-78006981D01*
X167891764Y-77869579D01*
X167901546Y-77856624D01*
X167957654Y-77814990D01*
X168027365Y-77810297D01*
X168088548Y-77844039D01*
X168121776Y-77905502D01*
X168124500Y-77931352D01*
X168124500Y-78858647D01*
X168104815Y-78925686D01*
X168052011Y-78971441D01*
X167982853Y-78981385D01*
X167919297Y-78952360D01*
X167901547Y-78933375D01*
X167891763Y-78920420D01*
X167891763Y-78920419D01*
X167741041Y-78783019D01*
X167741039Y-78783017D01*
X167567642Y-78675655D01*
X167567635Y-78675651D01*
X167433749Y-78623784D01*
X167377456Y-78601976D01*
X167176976Y-78564500D01*
X166973024Y-78564500D01*
X166772544Y-78601976D01*
X166772541Y-78601976D01*
X166772541Y-78601977D01*
X166582364Y-78675651D01*
X166582357Y-78675655D01*
X166408960Y-78783017D01*
X166408958Y-78783019D01*
X166258237Y-78920418D01*
X166135327Y-79083178D01*
X166044422Y-79265739D01*
X166044417Y-79265752D01*
X165988602Y-79461917D01*
X165969785Y-79664999D01*
X165969785Y-79665000D01*
X165988602Y-79868082D01*
X166044417Y-80064247D01*
X166044422Y-80064260D01*
X166135327Y-80246821D01*
X166258237Y-80409581D01*
X166408958Y-80546980D01*
X166408960Y-80546982D01*
X166408962Y-80546983D01*
X166582363Y-80654348D01*
X166772544Y-80728024D01*
X166973024Y-80765500D01*
X166973026Y-80765500D01*
X167176974Y-80765500D01*
X167176976Y-80765500D01*
X167377456Y-80728024D01*
X167567637Y-80654348D01*
X167741041Y-80546981D01*
X167891764Y-80409579D01*
X167901546Y-80396624D01*
X167957654Y-80354990D01*
X168027365Y-80350297D01*
X168088548Y-80384039D01*
X168121776Y-80445502D01*
X168124500Y-80471352D01*
X168124500Y-81398647D01*
X168104815Y-81465686D01*
X168052011Y-81511441D01*
X167982853Y-81521385D01*
X167919297Y-81492360D01*
X167901547Y-81473375D01*
X167891763Y-81460420D01*
X167891763Y-81460419D01*
X167741041Y-81323019D01*
X167741039Y-81323017D01*
X167567642Y-81215655D01*
X167567635Y-81215651D01*
X167472546Y-81178814D01*
X167377456Y-81141976D01*
X167176976Y-81104500D01*
X166973024Y-81104500D01*
X166772544Y-81141976D01*
X166772541Y-81141976D01*
X166772541Y-81141977D01*
X166582364Y-81215651D01*
X166582357Y-81215655D01*
X166408960Y-81323017D01*
X166408958Y-81323019D01*
X166258237Y-81460418D01*
X166135327Y-81623178D01*
X166044422Y-81805739D01*
X166044417Y-81805752D01*
X165988602Y-82001917D01*
X165969785Y-82204999D01*
X165969785Y-82205000D01*
X165988602Y-82408082D01*
X166044417Y-82604247D01*
X166044422Y-82604260D01*
X166135327Y-82786821D01*
X166258237Y-82949581D01*
X166408958Y-83086980D01*
X166408960Y-83086982D01*
X166419875Y-83093740D01*
X166582363Y-83194348D01*
X166772544Y-83268024D01*
X166973024Y-83305500D01*
X166973026Y-83305500D01*
X167176974Y-83305500D01*
X167176976Y-83305500D01*
X167377456Y-83268024D01*
X167567637Y-83194348D01*
X167741041Y-83086981D01*
X167891764Y-82949579D01*
X167901546Y-82936624D01*
X167957654Y-82894990D01*
X168027365Y-82890297D01*
X168088548Y-82924039D01*
X168121776Y-82985502D01*
X168124500Y-83011352D01*
X168124500Y-95825500D01*
X168104815Y-95892539D01*
X168052011Y-95938294D01*
X168000500Y-95949500D01*
X138149500Y-95949500D01*
X138082461Y-95929815D01*
X138036706Y-95877011D01*
X138025500Y-95825500D01*
X138025500Y-95573700D01*
X153003402Y-95573700D01*
X153126030Y-95638061D01*
X153273867Y-95674500D01*
X153426133Y-95674500D01*
X153573971Y-95638060D01*
X153696596Y-95573701D01*
X153696596Y-95573700D01*
X153350001Y-95227105D01*
X153350000Y-95227105D01*
X153003402Y-95573700D01*
X138025500Y-95573700D01*
X138025500Y-95047503D01*
X151697794Y-95047503D01*
X151716498Y-95165604D01*
X151716498Y-95165605D01*
X151770790Y-95272157D01*
X151855342Y-95356709D01*
X151855344Y-95356710D01*
X151855345Y-95356711D01*
X151961892Y-95411000D01*
X151961893Y-95411000D01*
X151961895Y-95411001D01*
X152079997Y-95429706D01*
X152080000Y-95429706D01*
X152080003Y-95429706D01*
X152198104Y-95411001D01*
X152198105Y-95411001D01*
X152198106Y-95411000D01*
X152198108Y-95411000D01*
X152304655Y-95356711D01*
X152389211Y-95272155D01*
X152443500Y-95165608D01*
X152443500Y-95165606D01*
X152443501Y-95165605D01*
X152443501Y-95165604D01*
X152462206Y-95047503D01*
X152462206Y-95047500D01*
X152718395Y-95047500D01*
X152736747Y-95198652D01*
X152790742Y-95341020D01*
X152825915Y-95391978D01*
X153137903Y-95079992D01*
X153250000Y-95079992D01*
X153288197Y-95132565D01*
X153334162Y-95147500D01*
X153365838Y-95147500D01*
X153411803Y-95132565D01*
X153450000Y-95079992D01*
X153450000Y-95047501D01*
X153529605Y-95047501D01*
X153874083Y-95391979D01*
X153909257Y-95341021D01*
X153963252Y-95198652D01*
X153981604Y-95047503D01*
X154237794Y-95047503D01*
X154256498Y-95165604D01*
X154256498Y-95165605D01*
X154310790Y-95272157D01*
X154395342Y-95356709D01*
X154395344Y-95356710D01*
X154395345Y-95356711D01*
X154501892Y-95411000D01*
X154501893Y-95411000D01*
X154501895Y-95411001D01*
X154619997Y-95429706D01*
X154620000Y-95429706D01*
X154620003Y-95429706D01*
X154738104Y-95411001D01*
X154738105Y-95411001D01*
X154738106Y-95411000D01*
X154738108Y-95411000D01*
X154844655Y-95356711D01*
X154929211Y-95272155D01*
X154983500Y-95165608D01*
X154983500Y-95165606D01*
X154983501Y-95165605D01*
X154983501Y-95165604D01*
X155002206Y-95047503D01*
X155507794Y-95047503D01*
X155526498Y-95165604D01*
X155526498Y-95165605D01*
X155580790Y-95272157D01*
X155665342Y-95356709D01*
X155665344Y-95356710D01*
X155665345Y-95356711D01*
X155771892Y-95411000D01*
X155771893Y-95411000D01*
X155771895Y-95411001D01*
X155889997Y-95429706D01*
X155890000Y-95429706D01*
X155890003Y-95429706D01*
X156008104Y-95411001D01*
X156008105Y-95411001D01*
X156008106Y-95411000D01*
X156008108Y-95411000D01*
X156114655Y-95356711D01*
X156199211Y-95272155D01*
X156253500Y-95165608D01*
X156253500Y-95165606D01*
X156253501Y-95165605D01*
X156253501Y-95165604D01*
X156272206Y-95047503D01*
X156777794Y-95047503D01*
X156796498Y-95165604D01*
X156796498Y-95165605D01*
X156850790Y-95272157D01*
X156935342Y-95356709D01*
X156935344Y-95356710D01*
X156935345Y-95356711D01*
X157041892Y-95411000D01*
X157041893Y-95411000D01*
X157041895Y-95411001D01*
X157159997Y-95429706D01*
X157160000Y-95429706D01*
X157160003Y-95429706D01*
X157278104Y-95411001D01*
X157278105Y-95411001D01*
X157278106Y-95411000D01*
X157278108Y-95411000D01*
X157384655Y-95356711D01*
X157469211Y-95272155D01*
X157523500Y-95165608D01*
X157523500Y-95165606D01*
X157523501Y-95165605D01*
X157523501Y-95165604D01*
X157542206Y-95047503D01*
X158047794Y-95047503D01*
X158066498Y-95165604D01*
X158066498Y-95165605D01*
X158120790Y-95272157D01*
X158205342Y-95356709D01*
X158205344Y-95356710D01*
X158205345Y-95356711D01*
X158311892Y-95411000D01*
X158311893Y-95411000D01*
X158311895Y-95411001D01*
X158429997Y-95429706D01*
X158430000Y-95429706D01*
X158430003Y-95429706D01*
X158548104Y-95411001D01*
X158548105Y-95411001D01*
X158548106Y-95411000D01*
X158548108Y-95411000D01*
X158654655Y-95356711D01*
X158739211Y-95272155D01*
X158793500Y-95165608D01*
X158793500Y-95165606D01*
X158793501Y-95165605D01*
X158793501Y-95165604D01*
X158812206Y-95047503D01*
X158812206Y-95047496D01*
X158793501Y-94929395D01*
X158793501Y-94929394D01*
X158793500Y-94929392D01*
X158739211Y-94822845D01*
X158739210Y-94822844D01*
X158739209Y-94822842D01*
X158654657Y-94738290D01*
X158548104Y-94683998D01*
X158430003Y-94665294D01*
X158429997Y-94665294D01*
X158311895Y-94683998D01*
X158311894Y-94683998D01*
X158205342Y-94738290D01*
X158120790Y-94822842D01*
X158066498Y-94929394D01*
X158066498Y-94929395D01*
X158047794Y-95047496D01*
X158047794Y-95047503D01*
X157542206Y-95047503D01*
X157542206Y-95047496D01*
X157523501Y-94929395D01*
X157523501Y-94929394D01*
X157523500Y-94929392D01*
X157469211Y-94822845D01*
X157469210Y-94822844D01*
X157469209Y-94822842D01*
X157384657Y-94738290D01*
X157278104Y-94683998D01*
X157160003Y-94665294D01*
X157159997Y-94665294D01*
X157041895Y-94683998D01*
X157041894Y-94683998D01*
X156935342Y-94738290D01*
X156850790Y-94822842D01*
X156796498Y-94929394D01*
X156796498Y-94929395D01*
X156777794Y-95047496D01*
X156777794Y-95047503D01*
X156272206Y-95047503D01*
X156272206Y-95047496D01*
X156253501Y-94929395D01*
X156253501Y-94929394D01*
X156253500Y-94929392D01*
X156199211Y-94822845D01*
X156199210Y-94822844D01*
X156199209Y-94822842D01*
X156114657Y-94738290D01*
X156008104Y-94683998D01*
X155890003Y-94665294D01*
X155889997Y-94665294D01*
X155771895Y-94683998D01*
X155771894Y-94683998D01*
X155665342Y-94738290D01*
X155580790Y-94822842D01*
X155526498Y-94929394D01*
X155526498Y-94929395D01*
X155507794Y-95047496D01*
X155507794Y-95047503D01*
X155002206Y-95047503D01*
X155002206Y-95047496D01*
X154983501Y-94929395D01*
X154983501Y-94929394D01*
X154983500Y-94929392D01*
X154929211Y-94822845D01*
X154929210Y-94822844D01*
X154929209Y-94822842D01*
X154844657Y-94738290D01*
X154738104Y-94683998D01*
X154620003Y-94665294D01*
X154619997Y-94665294D01*
X154501895Y-94683998D01*
X154501894Y-94683998D01*
X154395342Y-94738290D01*
X154310790Y-94822842D01*
X154256498Y-94929394D01*
X154256498Y-94929395D01*
X154237794Y-95047496D01*
X154237794Y-95047503D01*
X153981604Y-95047503D01*
X153981604Y-95047500D01*
X153963252Y-94896347D01*
X153909256Y-94753975D01*
X153874084Y-94703020D01*
X153874083Y-94703019D01*
X153529605Y-95047499D01*
X153529605Y-95047501D01*
X153450000Y-95047501D01*
X153450000Y-95015008D01*
X153411803Y-94962435D01*
X153365838Y-94947500D01*
X153334162Y-94947500D01*
X153288197Y-94962435D01*
X153250000Y-95015008D01*
X153250000Y-95079992D01*
X153137903Y-95079992D01*
X153170395Y-95047500D01*
X152825914Y-94703019D01*
X152790746Y-94753971D01*
X152790743Y-94753977D01*
X152736747Y-94896347D01*
X152718395Y-95047500D01*
X152462206Y-95047500D01*
X152462206Y-95047496D01*
X152443501Y-94929395D01*
X152443501Y-94929394D01*
X152443500Y-94929392D01*
X152389211Y-94822845D01*
X152389210Y-94822844D01*
X152389209Y-94822842D01*
X152304657Y-94738290D01*
X152198104Y-94683998D01*
X152080003Y-94665294D01*
X152079997Y-94665294D01*
X151961895Y-94683998D01*
X151961894Y-94683998D01*
X151855342Y-94738290D01*
X151770790Y-94822842D01*
X151716498Y-94929394D01*
X151716498Y-94929395D01*
X151697794Y-95047496D01*
X151697794Y-95047503D01*
X138025500Y-95047503D01*
X138025500Y-94521298D01*
X153003403Y-94521298D01*
X153350000Y-94867895D01*
X153350001Y-94867895D01*
X153696596Y-94521298D01*
X153573968Y-94456938D01*
X153426133Y-94420500D01*
X153273867Y-94420500D01*
X153126031Y-94456938D01*
X153003403Y-94521298D01*
X138025500Y-94521298D01*
X138025500Y-94306181D01*
X138045185Y-94239142D01*
X138097989Y-94193387D01*
X138167147Y-94183443D01*
X138225401Y-94208125D01*
X138338304Y-94295518D01*
X138520907Y-94385089D01*
X138620000Y-94410744D01*
X138620000Y-93608610D01*
X138644457Y-93648110D01*
X138733962Y-93715701D01*
X138841840Y-93746395D01*
X138953521Y-93736046D01*
X139053922Y-93686052D01*
X139120000Y-93613569D01*
X139120000Y-94415866D01*
X139121944Y-94415569D01*
X139121945Y-94415569D01*
X139312660Y-94344936D01*
X139312664Y-94344934D01*
X139485267Y-94237350D01*
X139632668Y-94097235D01*
X139632669Y-94097233D01*
X139748856Y-93930304D01*
X139829059Y-93743407D01*
X139870000Y-93544190D01*
X139870000Y-93493213D01*
X146510000Y-93493213D01*
X146525418Y-93644838D01*
X146586299Y-93838881D01*
X146586304Y-93838891D01*
X146685005Y-94016715D01*
X146685005Y-94016716D01*
X146817478Y-94171030D01*
X146817479Y-94171031D01*
X146978304Y-94295518D01*
X147160907Y-94385089D01*
X147260000Y-94410744D01*
X147260000Y-93608610D01*
X147284457Y-93648110D01*
X147373962Y-93715701D01*
X147481840Y-93746395D01*
X147593521Y-93736046D01*
X147693922Y-93686052D01*
X147760000Y-93613569D01*
X147760000Y-94415866D01*
X147761944Y-94415569D01*
X147761945Y-94415569D01*
X147952660Y-94344936D01*
X147952664Y-94344934D01*
X148125267Y-94237350D01*
X148272668Y-94097235D01*
X148272669Y-94097233D01*
X148388856Y-93930304D01*
X148469059Y-93743407D01*
X148510000Y-93544190D01*
X148510000Y-93292500D01*
X147810000Y-93292500D01*
X147810000Y-93175000D01*
X163975000Y-93175000D01*
X165046031Y-93175000D01*
X165013481Y-93225649D01*
X164975000Y-93356705D01*
X164975000Y-93493295D01*
X165013481Y-93624351D01*
X165046031Y-93675000D01*
X163975001Y-93675000D01*
X163975001Y-94074986D01*
X163985494Y-94177697D01*
X164040641Y-94344119D01*
X164040643Y-94344124D01*
X164132684Y-94493345D01*
X164256654Y-94617315D01*
X164405875Y-94709356D01*
X164405880Y-94709358D01*
X164572302Y-94764505D01*
X164572309Y-94764506D01*
X164675019Y-94774999D01*
X165199999Y-94774999D01*
X165200000Y-94774998D01*
X165200000Y-93833018D01*
X165314801Y-93885446D01*
X165416025Y-93900000D01*
X165483975Y-93900000D01*
X165585199Y-93885446D01*
X165700000Y-93833018D01*
X165700000Y-94774999D01*
X166224972Y-94774999D01*
X166224986Y-94774998D01*
X166327697Y-94764505D01*
X166494119Y-94709358D01*
X166494124Y-94709356D01*
X166643345Y-94617315D01*
X166767315Y-94493345D01*
X166859356Y-94344124D01*
X166859358Y-94344119D01*
X166914505Y-94177697D01*
X166914506Y-94177690D01*
X166924999Y-94074986D01*
X166925000Y-94074973D01*
X166925000Y-93675000D01*
X165853969Y-93675000D01*
X165886519Y-93624351D01*
X165925000Y-93493295D01*
X165925000Y-93356705D01*
X165886519Y-93225649D01*
X165853969Y-93175000D01*
X166924999Y-93175000D01*
X166924999Y-92775028D01*
X166924998Y-92775013D01*
X166914505Y-92672302D01*
X166859358Y-92505880D01*
X166859356Y-92505875D01*
X166767315Y-92356654D01*
X166643345Y-92232684D01*
X166494124Y-92140643D01*
X166494119Y-92140641D01*
X166327697Y-92085494D01*
X166327690Y-92085493D01*
X166236324Y-92076159D01*
X166171633Y-92049763D01*
X166131481Y-91992582D01*
X166128618Y-91922771D01*
X166163952Y-91862494D01*
X166172275Y-91855331D01*
X166239021Y-91802841D01*
X166337886Y-91725092D01*
X166475519Y-91566256D01*
X166513772Y-91500001D01*
X166580601Y-91384249D01*
X166580600Y-91384249D01*
X166580604Y-91384244D01*
X166649344Y-91185633D01*
X166679254Y-90977602D01*
X166669254Y-90767670D01*
X166619704Y-90563424D01*
X166618141Y-90560001D01*
X166532401Y-90372256D01*
X166532398Y-90372251D01*
X166532397Y-90372250D01*
X166532396Y-90372247D01*
X166410486Y-90201048D01*
X166410484Y-90201046D01*
X166410479Y-90201040D01*
X166258379Y-90056014D01*
X166081574Y-89942388D01*
X166070613Y-89938000D01*
X165900403Y-89869858D01*
X165886455Y-89864274D01*
X165680086Y-89824500D01*
X165680085Y-89824500D01*
X165272575Y-89824500D01*
X165115782Y-89839472D01*
X165115778Y-89839473D01*
X164914127Y-89898683D01*
X164727313Y-89994991D01*
X164562116Y-90124905D01*
X164562112Y-90124909D01*
X164424478Y-90283746D01*
X164319398Y-90465750D01*
X164250656Y-90664365D01*
X164250656Y-90664367D01*
X164222121Y-90862839D01*
X164220746Y-90872401D01*
X164230745Y-91082327D01*
X164280296Y-91286578D01*
X164280298Y-91286582D01*
X164367598Y-91477743D01*
X164367601Y-91477748D01*
X164367602Y-91477750D01*
X164367604Y-91477753D01*
X164430627Y-91566256D01*
X164489515Y-91648953D01*
X164489520Y-91648959D01*
X164641622Y-91793987D01*
X164725285Y-91847754D01*
X164771040Y-91900558D01*
X164780984Y-91969716D01*
X164751959Y-92033272D01*
X164693181Y-92071046D01*
X164670848Y-92075427D01*
X164572302Y-92085494D01*
X164405880Y-92140641D01*
X164405875Y-92140643D01*
X164256654Y-92232684D01*
X164132684Y-92356654D01*
X164040643Y-92505875D01*
X164040641Y-92505880D01*
X163985494Y-92672302D01*
X163985493Y-92672309D01*
X163975000Y-92775013D01*
X163975000Y-93175000D01*
X147810000Y-93175000D01*
X147810000Y-92792500D01*
X148510000Y-92792500D01*
X148510000Y-92591786D01*
X148494581Y-92440161D01*
X148433700Y-92246118D01*
X148433695Y-92246108D01*
X148334994Y-92068284D01*
X148334994Y-92068283D01*
X148202521Y-91913969D01*
X148202520Y-91913968D01*
X148041695Y-91789481D01*
X147859093Y-91699911D01*
X147760000Y-91674253D01*
X147760000Y-92476389D01*
X147735543Y-92436890D01*
X147646038Y-92369299D01*
X147538160Y-92338605D01*
X147426479Y-92348954D01*
X147326078Y-92398948D01*
X147260000Y-92471430D01*
X147260000Y-91669133D01*
X147258053Y-91669431D01*
X147258047Y-91669433D01*
X147067342Y-91740062D01*
X147067335Y-91740065D01*
X146894732Y-91847649D01*
X146747331Y-91987764D01*
X146747330Y-91987766D01*
X146631143Y-92154695D01*
X146550940Y-92341592D01*
X146510000Y-92540809D01*
X146510000Y-92792500D01*
X147210000Y-92792500D01*
X147210000Y-93292500D01*
X146510000Y-93292500D01*
X146510000Y-93493213D01*
X139870000Y-93493213D01*
X139870000Y-93292500D01*
X139170000Y-93292500D01*
X139170000Y-92792500D01*
X139870000Y-92792500D01*
X139870000Y-92591786D01*
X139854581Y-92440161D01*
X139793700Y-92246118D01*
X139793695Y-92246108D01*
X139694994Y-92068284D01*
X139694994Y-92068283D01*
X139562521Y-91913969D01*
X139562520Y-91913968D01*
X139401695Y-91789481D01*
X139219093Y-91699911D01*
X139120000Y-91674253D01*
X139120000Y-92476389D01*
X139095543Y-92436890D01*
X139006038Y-92369299D01*
X138898160Y-92338605D01*
X138786479Y-92348954D01*
X138686078Y-92398948D01*
X138620000Y-92471430D01*
X138620000Y-91669133D01*
X138618053Y-91669431D01*
X138618047Y-91669433D01*
X138427342Y-91740062D01*
X138427335Y-91740065D01*
X138254732Y-91847649D01*
X138234930Y-91866473D01*
X138172778Y-91898392D01*
X138103235Y-91891643D01*
X138048381Y-91848367D01*
X138025631Y-91782305D01*
X138025500Y-91776597D01*
X138025500Y-91500001D01*
X156034318Y-91500001D01*
X156054955Y-91656760D01*
X156054956Y-91656762D01*
X156111796Y-91793987D01*
X156115464Y-91802841D01*
X156211718Y-91928282D01*
X156337159Y-92024536D01*
X156483238Y-92085044D01*
X156561619Y-92095363D01*
X156639999Y-92105682D01*
X156640000Y-92105682D01*
X156640001Y-92105682D01*
X156692254Y-92098802D01*
X156796762Y-92085044D01*
X156942841Y-92024536D01*
X157068282Y-91928282D01*
X157164536Y-91802841D01*
X157225044Y-91656762D01*
X157245682Y-91500000D01*
X157242752Y-91477748D01*
X157230443Y-91384249D01*
X157225044Y-91343238D01*
X157164536Y-91197159D01*
X157068282Y-91071718D01*
X156942841Y-90975464D01*
X156796762Y-90914956D01*
X156796760Y-90914955D01*
X156640001Y-90894318D01*
X156639999Y-90894318D01*
X156483239Y-90914955D01*
X156483237Y-90914956D01*
X156337160Y-90975463D01*
X156211718Y-91071718D01*
X156115463Y-91197160D01*
X156054956Y-91343237D01*
X156054955Y-91343239D01*
X156034318Y-91499998D01*
X156034318Y-91500001D01*
X138025500Y-91500001D01*
X138025500Y-90560001D01*
X151394318Y-90560001D01*
X151414955Y-90716760D01*
X151414956Y-90716762D01*
X151475464Y-90862841D01*
X151571718Y-90988282D01*
X151697159Y-91084536D01*
X151843238Y-91145044D01*
X151921619Y-91155363D01*
X151999999Y-91165682D01*
X152000000Y-91165682D01*
X152000001Y-91165682D01*
X152052254Y-91158802D01*
X152156762Y-91145044D01*
X152302841Y-91084536D01*
X152428282Y-90988282D01*
X152524536Y-90862841D01*
X152585044Y-90716762D01*
X152597125Y-90625001D01*
X154269318Y-90625001D01*
X154289955Y-90781760D01*
X154289956Y-90781762D01*
X154350464Y-90927841D01*
X154446718Y-91053282D01*
X154572159Y-91149536D01*
X154718238Y-91210044D01*
X154796619Y-91220363D01*
X154874999Y-91230682D01*
X154875000Y-91230682D01*
X154875001Y-91230682D01*
X154927254Y-91223802D01*
X155031762Y-91210044D01*
X155177841Y-91149536D01*
X155303282Y-91053282D01*
X155399536Y-90927841D01*
X155460044Y-90781762D01*
X155480682Y-90625000D01*
X155472575Y-90563424D01*
X155460044Y-90468239D01*
X155460044Y-90468238D01*
X155399536Y-90322159D01*
X155303282Y-90196718D01*
X155177841Y-90100464D01*
X155097614Y-90067233D01*
X155031762Y-90039956D01*
X155031760Y-90039955D01*
X154875001Y-90019318D01*
X154874999Y-90019318D01*
X154718239Y-90039955D01*
X154718237Y-90039956D01*
X154572160Y-90100463D01*
X154446718Y-90196718D01*
X154350463Y-90322160D01*
X154289956Y-90468237D01*
X154289955Y-90468239D01*
X154269318Y-90624998D01*
X154269318Y-90625001D01*
X152597125Y-90625001D01*
X152605682Y-90560000D01*
X152601733Y-90530004D01*
X152612498Y-90460969D01*
X152658878Y-90408713D01*
X152726147Y-90389828D01*
X152740841Y-90390878D01*
X152850000Y-90405250D01*
X152993709Y-90386330D01*
X153127625Y-90330861D01*
X153242621Y-90242621D01*
X153330861Y-90127625D01*
X153386330Y-89993709D01*
X153405250Y-89850000D01*
X153398667Y-89800001D01*
X160494318Y-89800001D01*
X160514955Y-89956760D01*
X160514956Y-89956762D01*
X160556067Y-90056014D01*
X160575464Y-90102841D01*
X160671718Y-90228282D01*
X160797159Y-90324536D01*
X160943238Y-90385044D01*
X160987567Y-90390880D01*
X161099999Y-90405682D01*
X161100000Y-90405682D01*
X161100001Y-90405682D01*
X161152254Y-90398802D01*
X161256762Y-90385044D01*
X161402841Y-90324536D01*
X161528282Y-90228282D01*
X161624536Y-90102841D01*
X161685044Y-89956762D01*
X161703981Y-89812923D01*
X161705682Y-89800001D01*
X161705682Y-89799998D01*
X161686294Y-89652733D01*
X161685044Y-89643238D01*
X161624536Y-89497159D01*
X161528282Y-89371718D01*
X161402841Y-89275464D01*
X161388778Y-89269639D01*
X161256762Y-89214956D01*
X161256760Y-89214955D01*
X161100001Y-89194318D01*
X161099999Y-89194318D01*
X160943239Y-89214955D01*
X160943237Y-89214956D01*
X160797160Y-89275463D01*
X160671718Y-89371718D01*
X160575463Y-89497160D01*
X160514956Y-89643237D01*
X160514955Y-89643239D01*
X160494318Y-89799998D01*
X160494318Y-89800001D01*
X153398667Y-89800001D01*
X153386330Y-89706291D01*
X153330861Y-89572375D01*
X153242621Y-89457379D01*
X153127625Y-89369139D01*
X153127624Y-89369138D01*
X153127622Y-89369137D01*
X152993712Y-89313671D01*
X152993710Y-89313670D01*
X152993709Y-89313670D01*
X152921854Y-89304210D01*
X152850001Y-89294750D01*
X152849999Y-89294750D01*
X152706291Y-89313670D01*
X152706287Y-89313671D01*
X152572377Y-89369137D01*
X152457379Y-89457379D01*
X152369137Y-89572377D01*
X152313671Y-89706287D01*
X152313670Y-89706291D01*
X152294750Y-89849999D01*
X152294750Y-89851727D01*
X152294337Y-89853131D01*
X152293689Y-89858058D01*
X152292920Y-89857956D01*
X152275065Y-89918766D01*
X152222261Y-89964521D01*
X152154565Y-89974666D01*
X152000001Y-89954318D01*
X151999999Y-89954318D01*
X151843239Y-89974955D01*
X151843237Y-89974956D01*
X151697160Y-90035463D01*
X151571718Y-90131718D01*
X151475463Y-90257160D01*
X151414956Y-90403237D01*
X151414955Y-90403239D01*
X151394318Y-90559998D01*
X151394318Y-90560001D01*
X138025500Y-90560001D01*
X138025500Y-90276181D01*
X138045185Y-90209142D01*
X138097989Y-90163387D01*
X138167147Y-90153443D01*
X138225401Y-90178125D01*
X138338304Y-90265518D01*
X138520907Y-90355089D01*
X138620000Y-90380744D01*
X138620000Y-89578610D01*
X138644457Y-89618110D01*
X138733962Y-89685701D01*
X138841840Y-89716395D01*
X138953521Y-89706046D01*
X139053922Y-89656052D01*
X139120000Y-89583569D01*
X139120000Y-90385866D01*
X139121944Y-90385569D01*
X139121945Y-90385569D01*
X139312660Y-90314936D01*
X139312664Y-90314934D01*
X139485267Y-90207350D01*
X139632668Y-90067235D01*
X139632669Y-90067233D01*
X139748855Y-89900305D01*
X139761921Y-89869858D01*
X139806447Y-89816013D01*
X139873015Y-89794789D01*
X139940491Y-89812923D01*
X139951359Y-89820380D01*
X139976240Y-89839472D01*
X140009767Y-89865198D01*
X140149764Y-89923187D01*
X140262280Y-89938000D01*
X140262287Y-89938000D01*
X140337713Y-89938000D01*
X140337720Y-89938000D01*
X140450236Y-89923187D01*
X140590233Y-89865198D01*
X140710451Y-89772951D01*
X140727678Y-89750500D01*
X142669750Y-89750500D01*
X142684850Y-89865197D01*
X142688670Y-89894208D01*
X142688671Y-89894212D01*
X142744137Y-90028122D01*
X142744138Y-90028124D01*
X142744139Y-90028125D01*
X142832379Y-90143121D01*
X142947375Y-90231361D01*
X143081291Y-90286830D01*
X143208280Y-90303548D01*
X143224999Y-90305750D01*
X143225000Y-90305750D01*
X143225001Y-90305750D01*
X143239977Y-90303778D01*
X143368709Y-90286830D01*
X143502625Y-90231361D01*
X143617621Y-90143121D01*
X143705861Y-90028125D01*
X143720115Y-89993712D01*
X143722939Y-89986895D01*
X143766779Y-89932491D01*
X143833073Y-89910426D01*
X143900773Y-89927705D01*
X143948384Y-89978842D01*
X143952061Y-89986895D01*
X143969137Y-90028122D01*
X143969138Y-90028124D01*
X143969139Y-90028125D01*
X144057379Y-90143121D01*
X144172375Y-90231361D01*
X144306291Y-90286830D01*
X144433280Y-90303548D01*
X144449999Y-90305750D01*
X144450000Y-90305750D01*
X144450001Y-90305750D01*
X144464977Y-90303778D01*
X144593709Y-90286830D01*
X144727625Y-90231361D01*
X144842621Y-90143121D01*
X144930861Y-90028125D01*
X144986330Y-89894209D01*
X145005250Y-89750500D01*
X144986330Y-89606791D01*
X144930861Y-89472875D01*
X144846167Y-89362500D01*
X145499534Y-89362500D01*
X145519312Y-89512734D01*
X145519313Y-89512736D01*
X145573368Y-89643237D01*
X145577302Y-89652733D01*
X145669549Y-89772951D01*
X145789767Y-89865198D01*
X145929764Y-89923187D01*
X146042280Y-89938000D01*
X146042287Y-89938000D01*
X146117713Y-89938000D01*
X146117720Y-89938000D01*
X146230236Y-89923187D01*
X146370233Y-89865198D01*
X146429578Y-89819660D01*
X146494746Y-89794466D01*
X146563191Y-89808504D01*
X146613181Y-89857317D01*
X146613483Y-89857858D01*
X146685005Y-89986715D01*
X146685005Y-89986716D01*
X146817478Y-90141030D01*
X146817479Y-90141031D01*
X146978304Y-90265518D01*
X147160907Y-90355089D01*
X147260000Y-90380744D01*
X147260000Y-89578610D01*
X147284457Y-89618110D01*
X147373962Y-89685701D01*
X147481840Y-89716395D01*
X147593521Y-89706046D01*
X147693922Y-89656052D01*
X147760000Y-89583569D01*
X147760000Y-90385866D01*
X147761944Y-90385569D01*
X147761945Y-90385569D01*
X147952660Y-90314936D01*
X147952664Y-90314934D01*
X148125267Y-90207350D01*
X148272668Y-90067235D01*
X148272669Y-90067233D01*
X148388856Y-89900304D01*
X148469059Y-89713407D01*
X148510000Y-89514190D01*
X148510000Y-89112500D01*
X147810000Y-89112500D01*
X147810000Y-89050501D01*
X161869318Y-89050501D01*
X161889955Y-89207260D01*
X161889956Y-89207262D01*
X161950464Y-89353341D01*
X162046718Y-89478782D01*
X162172159Y-89575036D01*
X162318238Y-89635544D01*
X162376680Y-89643238D01*
X162474999Y-89656182D01*
X162475000Y-89656182D01*
X162475001Y-89656182D01*
X162527254Y-89649302D01*
X162631762Y-89635544D01*
X162777841Y-89575036D01*
X162903282Y-89478782D01*
X162999536Y-89353341D01*
X163060044Y-89207262D01*
X163080682Y-89050500D01*
X163060044Y-88893738D01*
X162999536Y-88747659D01*
X162903282Y-88622218D01*
X162777841Y-88525964D01*
X162631762Y-88465456D01*
X162631760Y-88465455D01*
X162475001Y-88444818D01*
X162474999Y-88444818D01*
X162318239Y-88465455D01*
X162318237Y-88465456D01*
X162172160Y-88525963D01*
X162046718Y-88622218D01*
X161950463Y-88747660D01*
X161889956Y-88893737D01*
X161889955Y-88893739D01*
X161869318Y-89050498D01*
X161869318Y-89050501D01*
X147810000Y-89050501D01*
X147810000Y-88612500D01*
X148510000Y-88612500D01*
X148510000Y-88372401D01*
X164220746Y-88372401D01*
X164230745Y-88582327D01*
X164280296Y-88786578D01*
X164280298Y-88786582D01*
X164367598Y-88977743D01*
X164367601Y-88977748D01*
X164367602Y-88977750D01*
X164367604Y-88977753D01*
X164463557Y-89112500D01*
X164489515Y-89148953D01*
X164489520Y-89148959D01*
X164641620Y-89293985D01*
X164758562Y-89369139D01*
X164818428Y-89407613D01*
X165013543Y-89485725D01*
X165116729Y-89505612D01*
X165219914Y-89525500D01*
X165219915Y-89525500D01*
X165627419Y-89525500D01*
X165627425Y-89525500D01*
X165784218Y-89510528D01*
X165985875Y-89451316D01*
X166172682Y-89355011D01*
X166337886Y-89225092D01*
X166475519Y-89066256D01*
X166580604Y-88884244D01*
X166649344Y-88685633D01*
X166679254Y-88477602D01*
X166669254Y-88267670D01*
X166619704Y-88063424D01*
X166619701Y-88063417D01*
X166532401Y-87872256D01*
X166532398Y-87872251D01*
X166532397Y-87872250D01*
X166532396Y-87872247D01*
X166410486Y-87701048D01*
X166410484Y-87701046D01*
X166410479Y-87701040D01*
X166258379Y-87556014D01*
X166081574Y-87442388D01*
X165886455Y-87364274D01*
X165680086Y-87324500D01*
X165680085Y-87324500D01*
X165272575Y-87324500D01*
X165119332Y-87339133D01*
X165115782Y-87339472D01*
X165115778Y-87339473D01*
X164914127Y-87398683D01*
X164727313Y-87494991D01*
X164562116Y-87624905D01*
X164562112Y-87624909D01*
X164424478Y-87783746D01*
X164319398Y-87965750D01*
X164250656Y-88164365D01*
X164250656Y-88164367D01*
X164233356Y-88284698D01*
X164220746Y-88372401D01*
X148510000Y-88372401D01*
X148510000Y-88261786D01*
X148494581Y-88110161D01*
X148433700Y-87916118D01*
X148433695Y-87916108D01*
X148334994Y-87738284D01*
X148334994Y-87738283D01*
X148202521Y-87583969D01*
X148202520Y-87583968D01*
X148041695Y-87459481D01*
X147859093Y-87369911D01*
X147760000Y-87344253D01*
X147760000Y-88146389D01*
X147735543Y-88106890D01*
X147646038Y-88039299D01*
X147538160Y-88008605D01*
X147426479Y-88018954D01*
X147326078Y-88068948D01*
X147260000Y-88141430D01*
X147260000Y-87339133D01*
X147258053Y-87339431D01*
X147258047Y-87339433D01*
X147067342Y-87410062D01*
X147067335Y-87410065D01*
X146894732Y-87517649D01*
X146747331Y-87657764D01*
X146747330Y-87657766D01*
X146631143Y-87824695D01*
X146550940Y-88011592D01*
X146510000Y-88210809D01*
X146510000Y-88732115D01*
X146490315Y-88799154D01*
X146437511Y-88844909D01*
X146368353Y-88854853D01*
X146338548Y-88846676D01*
X146230239Y-88801814D01*
X146230237Y-88801813D01*
X146230236Y-88801813D01*
X146210039Y-88799154D01*
X146117727Y-88787000D01*
X146117720Y-88787000D01*
X146042280Y-88787000D01*
X146042272Y-88787000D01*
X145929764Y-88801813D01*
X145929763Y-88801813D01*
X145789770Y-88859800D01*
X145789767Y-88859801D01*
X145789767Y-88859802D01*
X145669549Y-88952049D01*
X145581915Y-89066256D01*
X145577300Y-89072270D01*
X145519313Y-89212263D01*
X145519312Y-89212265D01*
X145499534Y-89362499D01*
X145499534Y-89362500D01*
X144846167Y-89362500D01*
X144842621Y-89357879D01*
X144727625Y-89269639D01*
X144727624Y-89269638D01*
X144727622Y-89269637D01*
X144593712Y-89214171D01*
X144593710Y-89214170D01*
X144593709Y-89214170D01*
X144521854Y-89204710D01*
X144450001Y-89195250D01*
X144449999Y-89195250D01*
X144306291Y-89214170D01*
X144306287Y-89214171D01*
X144172377Y-89269637D01*
X144057379Y-89357879D01*
X143969138Y-89472876D01*
X143952061Y-89514105D01*
X143908220Y-89568508D01*
X143841926Y-89590573D01*
X143774226Y-89573294D01*
X143726616Y-89522156D01*
X143722939Y-89514105D01*
X143715920Y-89497159D01*
X143705861Y-89472875D01*
X143617621Y-89357879D01*
X143502625Y-89269639D01*
X143502624Y-89269638D01*
X143502622Y-89269637D01*
X143368712Y-89214171D01*
X143368710Y-89214170D01*
X143368709Y-89214170D01*
X143296854Y-89204710D01*
X143225001Y-89195250D01*
X143224999Y-89195250D01*
X143081291Y-89214170D01*
X143081287Y-89214171D01*
X142947377Y-89269637D01*
X142832379Y-89357879D01*
X142744137Y-89472877D01*
X142688671Y-89606787D01*
X142688670Y-89606791D01*
X142675603Y-89706046D01*
X142669750Y-89750500D01*
X140727678Y-89750500D01*
X140802698Y-89652733D01*
X140860687Y-89512736D01*
X140880466Y-89362500D01*
X140860687Y-89212264D01*
X140802698Y-89072267D01*
X140710451Y-88952049D01*
X140590233Y-88859802D01*
X140590229Y-88859800D01*
X140501069Y-88822869D01*
X140450236Y-88801813D01*
X140430039Y-88799154D01*
X140337727Y-88787000D01*
X140337720Y-88787000D01*
X140262280Y-88787000D01*
X140262272Y-88787000D01*
X140149764Y-88801813D01*
X140149760Y-88801814D01*
X140041452Y-88846676D01*
X139971982Y-88854145D01*
X139909503Y-88822869D01*
X139873852Y-88762780D01*
X139870000Y-88732115D01*
X139870000Y-88261786D01*
X139854581Y-88110161D01*
X139793700Y-87916118D01*
X139793695Y-87916108D01*
X139694994Y-87738284D01*
X139694994Y-87738283D01*
X139562521Y-87583969D01*
X139562520Y-87583968D01*
X139401695Y-87459481D01*
X139219093Y-87369911D01*
X139120000Y-87344253D01*
X139120000Y-88146389D01*
X139095543Y-88106890D01*
X139006038Y-88039299D01*
X138898160Y-88008605D01*
X138786479Y-88018954D01*
X138686078Y-88068948D01*
X138620000Y-88141430D01*
X138620000Y-87339133D01*
X138618053Y-87339431D01*
X138618047Y-87339433D01*
X138427342Y-87410062D01*
X138427335Y-87410065D01*
X138254732Y-87517649D01*
X138234930Y-87536473D01*
X138172778Y-87568392D01*
X138103235Y-87561643D01*
X138048381Y-87518367D01*
X138025631Y-87452305D01*
X138025500Y-87446597D01*
X138025500Y-87090001D01*
X152004318Y-87090001D01*
X152024955Y-87246760D01*
X152024956Y-87246762D01*
X152073631Y-87364275D01*
X152085464Y-87392841D01*
X152181718Y-87518282D01*
X152307159Y-87614536D01*
X152453238Y-87675044D01*
X152610000Y-87695682D01*
X152642207Y-87691441D01*
X152711239Y-87702205D01*
X152763496Y-87748584D01*
X152772953Y-87766927D01*
X152816578Y-87872247D01*
X152835464Y-87917841D01*
X152931718Y-88043282D01*
X153057159Y-88139536D01*
X153203238Y-88200044D01*
X153281619Y-88210363D01*
X153359999Y-88220682D01*
X153360000Y-88220682D01*
X153360001Y-88220682D01*
X153434993Y-88210809D01*
X153516762Y-88200044D01*
X153662841Y-88139536D01*
X153788282Y-88043282D01*
X153884536Y-87917841D01*
X153945044Y-87771762D01*
X153945044Y-87771760D01*
X153948154Y-87764253D01*
X153951374Y-87765587D01*
X153979254Y-87719654D01*
X154042043Y-87689007D01*
X154079019Y-87688312D01*
X154135000Y-87695682D01*
X154135001Y-87695682D01*
X154190981Y-87688312D01*
X154291762Y-87675044D01*
X154437841Y-87614536D01*
X154563282Y-87518282D01*
X154659536Y-87392841D01*
X154720044Y-87246762D01*
X154740682Y-87090000D01*
X154720044Y-86933238D01*
X154659536Y-86787159D01*
X154563282Y-86661718D01*
X154437841Y-86565464D01*
X154291762Y-86504956D01*
X154291760Y-86504955D01*
X154135001Y-86484318D01*
X154134999Y-86484318D01*
X154069265Y-86492972D01*
X154000230Y-86482206D01*
X153947974Y-86435826D01*
X153938519Y-86417486D01*
X153895840Y-86314450D01*
X153888372Y-86244985D01*
X153919647Y-86182506D01*
X153978956Y-86147314D01*
X153978912Y-86147147D01*
X153979509Y-86146986D01*
X153979735Y-86146853D01*
X153980707Y-86146665D01*
X153986754Y-86145044D01*
X153986762Y-86145044D01*
X154132841Y-86084536D01*
X154258282Y-85988282D01*
X154354536Y-85862841D01*
X154415044Y-85716762D01*
X154435682Y-85560000D01*
X154415044Y-85403238D01*
X154354536Y-85257159D01*
X154258282Y-85131718D01*
X154132841Y-85035464D01*
X153986762Y-84974956D01*
X153986760Y-84974955D01*
X153830002Y-84954318D01*
X153830000Y-84954318D01*
X153823739Y-84955142D01*
X153754704Y-84944373D01*
X153702450Y-84897991D01*
X153692998Y-84879655D01*
X153683068Y-84855682D01*
X153650266Y-84776490D01*
X153554012Y-84651049D01*
X153428571Y-84554795D01*
X153282492Y-84494287D01*
X153282490Y-84494286D01*
X153125731Y-84473649D01*
X153125729Y-84473649D01*
X152968969Y-84494286D01*
X152968967Y-84494287D01*
X152822890Y-84554794D01*
X152697448Y-84651049D01*
X152601193Y-84776491D01*
X152540686Y-84922568D01*
X152540685Y-84922570D01*
X152520048Y-85079329D01*
X152520048Y-85079332D01*
X152540685Y-85236091D01*
X152540686Y-85236093D01*
X152601194Y-85382172D01*
X152697448Y-85507613D01*
X152822889Y-85603867D01*
X152968968Y-85664375D01*
X153012644Y-85670125D01*
X153125729Y-85685013D01*
X153125730Y-85685013D01*
X153131980Y-85684190D01*
X153201015Y-85694952D01*
X153253273Y-85741330D01*
X153262729Y-85759671D01*
X153294158Y-85835546D01*
X153301627Y-85905014D01*
X153270353Y-85967493D01*
X153211042Y-86002683D01*
X153211088Y-86002853D01*
X153210485Y-86003014D01*
X153210264Y-86003146D01*
X153209296Y-86003333D01*
X153203237Y-86004956D01*
X153057160Y-86065463D01*
X152931718Y-86161718D01*
X152835464Y-86287159D01*
X152782773Y-86414365D01*
X152738931Y-86468768D01*
X152672637Y-86490832D01*
X152652029Y-86489850D01*
X152610004Y-86484318D01*
X152609999Y-86484318D01*
X152453239Y-86504955D01*
X152453237Y-86504956D01*
X152307160Y-86565463D01*
X152181718Y-86661718D01*
X152085463Y-86787160D01*
X152024956Y-86933237D01*
X152024955Y-86933239D01*
X152004318Y-87089998D01*
X152004318Y-87090001D01*
X138025500Y-87090001D01*
X138025500Y-84750000D01*
X150394750Y-84750000D01*
X150405946Y-84835044D01*
X150413670Y-84893708D01*
X150413671Y-84893712D01*
X150469137Y-85027622D01*
X150469138Y-85027624D01*
X150469139Y-85027625D01*
X150557379Y-85142621D01*
X150672375Y-85230861D01*
X150672376Y-85230861D01*
X150672377Y-85230862D01*
X150685006Y-85236093D01*
X150806291Y-85286330D01*
X150933280Y-85303048D01*
X150949999Y-85305250D01*
X150950000Y-85305250D01*
X150950001Y-85305250D01*
X150964977Y-85303278D01*
X151093709Y-85286330D01*
X151227625Y-85230861D01*
X151342621Y-85142621D01*
X151430861Y-85027625D01*
X151486330Y-84893709D01*
X151505250Y-84750000D01*
X151486330Y-84606291D01*
X151430861Y-84472375D01*
X151342621Y-84357379D01*
X151227625Y-84269139D01*
X151227624Y-84269138D01*
X151227622Y-84269137D01*
X151093712Y-84213671D01*
X151093710Y-84213670D01*
X151093709Y-84213670D01*
X151021854Y-84204210D01*
X150950001Y-84194750D01*
X150949999Y-84194750D01*
X150806291Y-84213670D01*
X150806287Y-84213671D01*
X150672377Y-84269137D01*
X150557379Y-84357379D01*
X150469137Y-84472377D01*
X150413671Y-84606287D01*
X150413670Y-84606291D01*
X150394750Y-84750000D01*
X138025500Y-84750000D01*
X138025500Y-83011352D01*
X138045185Y-82944313D01*
X138097989Y-82898558D01*
X138167147Y-82888614D01*
X138230703Y-82917639D01*
X138248451Y-82936622D01*
X138256787Y-82947660D01*
X138258238Y-82949581D01*
X138408958Y-83086980D01*
X138408960Y-83086982D01*
X138419875Y-83093740D01*
X138582363Y-83194348D01*
X138772544Y-83268024D01*
X138973024Y-83305500D01*
X138973026Y-83305500D01*
X139176974Y-83305500D01*
X139176976Y-83305500D01*
X139377456Y-83268024D01*
X139422686Y-83250502D01*
X161670694Y-83250502D01*
X161691331Y-83407261D01*
X161691332Y-83407263D01*
X161751840Y-83553342D01*
X161848094Y-83678783D01*
X161973535Y-83775037D01*
X162119614Y-83835545D01*
X162198443Y-83845923D01*
X162262338Y-83874188D01*
X162300810Y-83932512D01*
X162301642Y-84002377D01*
X162296819Y-84016312D01*
X162264956Y-84093238D01*
X162264955Y-84093239D01*
X162244318Y-84249998D01*
X162244318Y-84250001D01*
X162264955Y-84406760D01*
X162264956Y-84406762D01*
X162292661Y-84473649D01*
X162325464Y-84552841D01*
X162421718Y-84678282D01*
X162547159Y-84774536D01*
X162693238Y-84835044D01*
X162771619Y-84845363D01*
X162849999Y-84855682D01*
X162850000Y-84855682D01*
X162850001Y-84855682D01*
X162902254Y-84848802D01*
X163006762Y-84835044D01*
X163152841Y-84774536D01*
X163278282Y-84678282D01*
X163374536Y-84552841D01*
X163435044Y-84406762D01*
X163455682Y-84250000D01*
X163435044Y-84093238D01*
X163374536Y-83947159D01*
X163278282Y-83821718D01*
X163152841Y-83725464D01*
X163006762Y-83664956D01*
X163006760Y-83664955D01*
X162927933Y-83654578D01*
X162864036Y-83626312D01*
X162825565Y-83567987D01*
X162824734Y-83498122D01*
X162829557Y-83484186D01*
X162861420Y-83407263D01*
X162882058Y-83250501D01*
X162861420Y-83093739D01*
X162800912Y-82947660D01*
X162704658Y-82822219D01*
X162579217Y-82725965D01*
X162433138Y-82665457D01*
X162433136Y-82665456D01*
X162276377Y-82644819D01*
X162276375Y-82644819D01*
X162119615Y-82665456D01*
X162119613Y-82665457D01*
X161973536Y-82725964D01*
X161848094Y-82822219D01*
X161751839Y-82947661D01*
X161691332Y-83093738D01*
X161691331Y-83093740D01*
X161670694Y-83250499D01*
X161670694Y-83250502D01*
X139422686Y-83250502D01*
X139567637Y-83194348D01*
X139741041Y-83086981D01*
X139891764Y-82949579D01*
X140014673Y-82786821D01*
X140105582Y-82604250D01*
X140161397Y-82408083D01*
X140180215Y-82205000D01*
X140161397Y-82001917D01*
X140105582Y-81805750D01*
X140014673Y-81623179D01*
X140002035Y-81606444D01*
X153938306Y-81606444D01*
X153957226Y-81750152D01*
X153957227Y-81750156D01*
X154012693Y-81884066D01*
X154012694Y-81884068D01*
X154012695Y-81884069D01*
X154100935Y-81999065D01*
X154215931Y-82087305D01*
X154215932Y-82087305D01*
X154215933Y-82087306D01*
X154299783Y-82122037D01*
X154354187Y-82165877D01*
X154376252Y-82232171D01*
X154366893Y-82284050D01*
X154340736Y-82347198D01*
X154321817Y-82490904D01*
X154321817Y-82490905D01*
X154336739Y-82604250D01*
X154340737Y-82634613D01*
X154340738Y-82634617D01*
X154396204Y-82768527D01*
X154396205Y-82768529D01*
X154396206Y-82768530D01*
X154484446Y-82883526D01*
X154599442Y-82971766D01*
X154733358Y-83027235D01*
X154860347Y-83043953D01*
X154877066Y-83046155D01*
X154877067Y-83046155D01*
X154877068Y-83046155D01*
X154892044Y-83044183D01*
X155020776Y-83027235D01*
X155154692Y-82971766D01*
X155269688Y-82883526D01*
X155357928Y-82768530D01*
X155413397Y-82634614D01*
X155432317Y-82490905D01*
X155413397Y-82347196D01*
X155357928Y-82213280D01*
X155269688Y-82098284D01*
X155154692Y-82010044D01*
X155154688Y-82010042D01*
X155070839Y-81975311D01*
X155016435Y-81931470D01*
X154994370Y-81865176D01*
X155003728Y-81813303D01*
X155029886Y-81750153D01*
X155048806Y-81606444D01*
X155029886Y-81462735D01*
X154974417Y-81328819D01*
X154886177Y-81213823D01*
X154771181Y-81125583D01*
X154771180Y-81125582D01*
X154771178Y-81125581D01*
X154637268Y-81070115D01*
X154637266Y-81070114D01*
X154637265Y-81070114D01*
X154565410Y-81060654D01*
X154493557Y-81051194D01*
X154493555Y-81051194D01*
X154349847Y-81070114D01*
X154349843Y-81070115D01*
X154215933Y-81125581D01*
X154100935Y-81213823D01*
X154012693Y-81328821D01*
X153957227Y-81462731D01*
X153957226Y-81462735D01*
X153938306Y-81606443D01*
X153938306Y-81606444D01*
X140002035Y-81606444D01*
X139932988Y-81515010D01*
X139891762Y-81460418D01*
X139741041Y-81323019D01*
X139741039Y-81323017D01*
X139567642Y-81215655D01*
X139567635Y-81215651D01*
X139472546Y-81178814D01*
X139377456Y-81141976D01*
X139176976Y-81104500D01*
X138973024Y-81104500D01*
X138772544Y-81141976D01*
X138772541Y-81141976D01*
X138772541Y-81141977D01*
X138582364Y-81215651D01*
X138582357Y-81215655D01*
X138408960Y-81323017D01*
X138408958Y-81323019D01*
X138258236Y-81460419D01*
X138258236Y-81460420D01*
X138248453Y-81473375D01*
X138192343Y-81515010D01*
X138122631Y-81519701D01*
X138061450Y-81485958D01*
X138028224Y-81424494D01*
X138025500Y-81398647D01*
X138025500Y-80471352D01*
X138045185Y-80404313D01*
X138097989Y-80358558D01*
X138167147Y-80348614D01*
X138230703Y-80377639D01*
X138248451Y-80396622D01*
X138258236Y-80409579D01*
X138258238Y-80409581D01*
X138408958Y-80546980D01*
X138408960Y-80546982D01*
X138408962Y-80546983D01*
X138582363Y-80654348D01*
X138772544Y-80728024D01*
X138973024Y-80765500D01*
X138973026Y-80765500D01*
X139176974Y-80765500D01*
X139176976Y-80765500D01*
X139377456Y-80728024D01*
X139567637Y-80654348D01*
X139741041Y-80546981D01*
X139785567Y-80506389D01*
X139848367Y-80475774D01*
X139917754Y-80483971D01*
X139967476Y-80522539D01*
X140032379Y-80607121D01*
X140147375Y-80695361D01*
X140281291Y-80750830D01*
X140408280Y-80767548D01*
X140424999Y-80769750D01*
X140425000Y-80769750D01*
X140425001Y-80769750D01*
X140439977Y-80767778D01*
X140568709Y-80750830D01*
X140702625Y-80695361D01*
X140817621Y-80607121D01*
X140905861Y-80492125D01*
X140961330Y-80358209D01*
X140980250Y-80214500D01*
X140961330Y-80070791D01*
X140905861Y-79936875D01*
X140817621Y-79821879D01*
X140702625Y-79733639D01*
X140702624Y-79733638D01*
X140702622Y-79733637D01*
X140587717Y-79686043D01*
X143580793Y-79686043D01*
X143598676Y-79821879D01*
X143599713Y-79829751D01*
X143599714Y-79829755D01*
X143655180Y-79963665D01*
X143655181Y-79963667D01*
X143655182Y-79963668D01*
X143743422Y-80078664D01*
X143858418Y-80166904D01*
X143992334Y-80222373D01*
X144119323Y-80239091D01*
X144136042Y-80241293D01*
X144136043Y-80241293D01*
X144136044Y-80241293D01*
X144166609Y-80237268D01*
X144270407Y-80223603D01*
X144339441Y-80234368D01*
X144391697Y-80280748D01*
X144410583Y-80348017D01*
X144409531Y-80362728D01*
X144395230Y-80471352D01*
X144394750Y-80475000D01*
X144412144Y-80607121D01*
X144413670Y-80618708D01*
X144413671Y-80618712D01*
X144469137Y-80752622D01*
X144469138Y-80752624D01*
X144469139Y-80752625D01*
X144557379Y-80867621D01*
X144672375Y-80955861D01*
X144806291Y-81011330D01*
X144933280Y-81028048D01*
X144949999Y-81030250D01*
X144950000Y-81030250D01*
X144950001Y-81030250D01*
X144964977Y-81028278D01*
X145093709Y-81011330D01*
X145227625Y-80955861D01*
X145342621Y-80867621D01*
X145430861Y-80752625D01*
X145486330Y-80618709D01*
X145505250Y-80475000D01*
X145486330Y-80331291D01*
X145430861Y-80197375D01*
X145430858Y-80197371D01*
X145429876Y-80195669D01*
X145429481Y-80194044D01*
X145427751Y-80189866D01*
X145428402Y-80189596D01*
X145413401Y-80127769D01*
X145436251Y-80061742D01*
X145449589Y-80045976D01*
X145453440Y-80042124D01*
X145453445Y-80042121D01*
X145541685Y-79927125D01*
X145597154Y-79793209D01*
X145616074Y-79649500D01*
X145597154Y-79505791D01*
X145541685Y-79371875D01*
X145453445Y-79256879D01*
X145338449Y-79168639D01*
X145338448Y-79168638D01*
X145338446Y-79168637D01*
X145204536Y-79113171D01*
X145204534Y-79113170D01*
X145204533Y-79113170D01*
X145132678Y-79103710D01*
X145060825Y-79094250D01*
X145060823Y-79094250D01*
X144917115Y-79113170D01*
X144917111Y-79113171D01*
X144783201Y-79168637D01*
X144668198Y-79256883D01*
X144663827Y-79261254D01*
X144602500Y-79294733D01*
X144532809Y-79289741D01*
X144500671Y-79271942D01*
X144413668Y-79205182D01*
X144413667Y-79205181D01*
X144413665Y-79205180D01*
X144279755Y-79149714D01*
X144279753Y-79149713D01*
X144279752Y-79149713D01*
X144207897Y-79140253D01*
X144136044Y-79130793D01*
X144136042Y-79130793D01*
X143992334Y-79149713D01*
X143992330Y-79149714D01*
X143858420Y-79205180D01*
X143743422Y-79293422D01*
X143655180Y-79408420D01*
X143599714Y-79542330D01*
X143599713Y-79542334D01*
X143581830Y-79678170D01*
X143580793Y-79686043D01*
X140587717Y-79686043D01*
X140568712Y-79678171D01*
X140568710Y-79678170D01*
X140568709Y-79678170D01*
X140468675Y-79665000D01*
X140425001Y-79659250D01*
X140424999Y-79659250D01*
X140310405Y-79674337D01*
X140241369Y-79663572D01*
X140189113Y-79617192D01*
X140170748Y-79562840D01*
X140161397Y-79461917D01*
X140105582Y-79265750D01*
X140103343Y-79261254D01*
X140029607Y-79113171D01*
X140014673Y-79083179D01*
X139932251Y-78974035D01*
X139891762Y-78920418D01*
X139741041Y-78783019D01*
X139741039Y-78783017D01*
X139567642Y-78675655D01*
X139567635Y-78675651D01*
X139433749Y-78623784D01*
X139377456Y-78601976D01*
X139176976Y-78564500D01*
X138973024Y-78564500D01*
X138772544Y-78601976D01*
X138772541Y-78601976D01*
X138772541Y-78601977D01*
X138582364Y-78675651D01*
X138582357Y-78675655D01*
X138408960Y-78783017D01*
X138408958Y-78783019D01*
X138258236Y-78920419D01*
X138258236Y-78920420D01*
X138248453Y-78933375D01*
X138192343Y-78975010D01*
X138122631Y-78979701D01*
X138061450Y-78945958D01*
X138028224Y-78884494D01*
X138025500Y-78858647D01*
X138025500Y-78449501D01*
X141244318Y-78449501D01*
X141264955Y-78606260D01*
X141264956Y-78606262D01*
X141293699Y-78675655D01*
X141325464Y-78752341D01*
X141421718Y-78877782D01*
X141547159Y-78974036D01*
X141693238Y-79034544D01*
X141771619Y-79044863D01*
X141849999Y-79055182D01*
X141850000Y-79055182D01*
X141850001Y-79055182D01*
X141902254Y-79048302D01*
X142006762Y-79034544D01*
X142152841Y-78974036D01*
X142220398Y-78922198D01*
X142285567Y-78897004D01*
X142354012Y-78911042D01*
X142371364Y-78922193D01*
X142472159Y-78999536D01*
X142618238Y-79060044D01*
X142696619Y-79070363D01*
X142774999Y-79080682D01*
X142775000Y-79080682D01*
X142775001Y-79080682D01*
X142835584Y-79072706D01*
X142931762Y-79060044D01*
X143077841Y-78999536D01*
X143203282Y-78903282D01*
X143299536Y-78777841D01*
X143360044Y-78631762D01*
X143380682Y-78475000D01*
X143379632Y-78467025D01*
X154836342Y-78467025D01*
X154856979Y-78623784D01*
X154856980Y-78623786D01*
X154917488Y-78769865D01*
X155013742Y-78895306D01*
X155139183Y-78991560D01*
X155285262Y-79052068D01*
X155345846Y-79060044D01*
X155442023Y-79072706D01*
X155442024Y-79072706D01*
X155442025Y-79072706D01*
X155494278Y-79065826D01*
X155598786Y-79052068D01*
X155744865Y-78991560D01*
X155870306Y-78895306D01*
X155966560Y-78769865D01*
X156027068Y-78623786D01*
X156047706Y-78467024D01*
X156027068Y-78310262D01*
X155966560Y-78164183D01*
X155870306Y-78038742D01*
X155744865Y-77942488D01*
X155717980Y-77931352D01*
X155598786Y-77881980D01*
X155598784Y-77881979D01*
X155442025Y-77861342D01*
X155442023Y-77861342D01*
X155285263Y-77881979D01*
X155285261Y-77881980D01*
X155139184Y-77942487D01*
X155013742Y-78038742D01*
X154917487Y-78164184D01*
X154856980Y-78310261D01*
X154856979Y-78310263D01*
X154836342Y-78467022D01*
X154836342Y-78467025D01*
X143379632Y-78467025D01*
X143360044Y-78318238D01*
X143299536Y-78172159D01*
X143203282Y-78046718D01*
X143077841Y-77950464D01*
X143058585Y-77942488D01*
X142931762Y-77889956D01*
X142931760Y-77889955D01*
X142775001Y-77869318D01*
X142774999Y-77869318D01*
X142618239Y-77889955D01*
X142618237Y-77889956D01*
X142472158Y-77950464D01*
X142404600Y-78002302D01*
X142339430Y-78027495D01*
X142270986Y-78013456D01*
X142253629Y-78002301D01*
X142152842Y-77924964D01*
X142006762Y-77864456D01*
X142006760Y-77864455D01*
X141850001Y-77843818D01*
X141849999Y-77843818D01*
X141693239Y-77864455D01*
X141693237Y-77864456D01*
X141547160Y-77924963D01*
X141421718Y-78021218D01*
X141325463Y-78146660D01*
X141264956Y-78292737D01*
X141264955Y-78292739D01*
X141244318Y-78449498D01*
X141244318Y-78449501D01*
X138025500Y-78449501D01*
X138025500Y-77931352D01*
X138045185Y-77864313D01*
X138097989Y-77818558D01*
X138167147Y-77808614D01*
X138230703Y-77837639D01*
X138248451Y-77856622D01*
X138258039Y-77869318D01*
X138258238Y-77869581D01*
X138408958Y-78006980D01*
X138408960Y-78006982D01*
X138508141Y-78068392D01*
X138582363Y-78114348D01*
X138772544Y-78188024D01*
X138973024Y-78225500D01*
X138973026Y-78225500D01*
X139176974Y-78225500D01*
X139176976Y-78225500D01*
X139377456Y-78188024D01*
X139567637Y-78114348D01*
X139741041Y-78006981D01*
X139891764Y-77869579D01*
X140014673Y-77706821D01*
X140080311Y-77575001D01*
X158794318Y-77575001D01*
X158814955Y-77731760D01*
X158814956Y-77731762D01*
X158872042Y-77869581D01*
X158875464Y-77877841D01*
X158971718Y-78003282D01*
X159097159Y-78099536D01*
X159243238Y-78160044D01*
X159274685Y-78164184D01*
X159399999Y-78180682D01*
X159400000Y-78180682D01*
X159400001Y-78180682D01*
X159464739Y-78172159D01*
X159556762Y-78160044D01*
X159702841Y-78099536D01*
X159828282Y-78003282D01*
X159924536Y-77877841D01*
X159985044Y-77731762D01*
X160005682Y-77575000D01*
X159985044Y-77418238D01*
X159924536Y-77272159D01*
X159828282Y-77146718D01*
X159702841Y-77050464D01*
X159556762Y-76989956D01*
X159556760Y-76989955D01*
X159400001Y-76969318D01*
X159399999Y-76969318D01*
X159243239Y-76989955D01*
X159243237Y-76989956D01*
X159097160Y-77050463D01*
X158971718Y-77146718D01*
X158875463Y-77272160D01*
X158814956Y-77418237D01*
X158814955Y-77418239D01*
X158794318Y-77574998D01*
X158794318Y-77575001D01*
X140080311Y-77575001D01*
X140105582Y-77524250D01*
X140161397Y-77328083D01*
X140180215Y-77125000D01*
X140161397Y-76921917D01*
X140105582Y-76725750D01*
X140014673Y-76543179D01*
X139932988Y-76435010D01*
X139891762Y-76380418D01*
X139741041Y-76243019D01*
X139741039Y-76243017D01*
X139567642Y-76135655D01*
X139567635Y-76135651D01*
X139472546Y-76098814D01*
X139377456Y-76061976D01*
X139176976Y-76024500D01*
X138973024Y-76024500D01*
X138772544Y-76061976D01*
X138772541Y-76061976D01*
X138772541Y-76061977D01*
X138582364Y-76135651D01*
X138582357Y-76135655D01*
X138408960Y-76243017D01*
X138408958Y-76243019D01*
X138258236Y-76380419D01*
X138258236Y-76380420D01*
X138248453Y-76393375D01*
X138192343Y-76435010D01*
X138122631Y-76439701D01*
X138061450Y-76405958D01*
X138028224Y-76344494D01*
X138025500Y-76318647D01*
X138025500Y-75391352D01*
X138045185Y-75324313D01*
X138097989Y-75278558D01*
X138167147Y-75268614D01*
X138230703Y-75297639D01*
X138248451Y-75316622D01*
X138258236Y-75329579D01*
X138258238Y-75329581D01*
X138408958Y-75466980D01*
X138408960Y-75466982D01*
X138496479Y-75521171D01*
X138582363Y-75574348D01*
X138772544Y-75648024D01*
X138973024Y-75685500D01*
X138973026Y-75685500D01*
X139176974Y-75685500D01*
X139176976Y-75685500D01*
X139377456Y-75648024D01*
X139567637Y-75574348D01*
X139741041Y-75466981D01*
X139891764Y-75329579D01*
X140014673Y-75166821D01*
X140105582Y-74984250D01*
X140112472Y-74960035D01*
X146995250Y-74960035D01*
X147005294Y-75036329D01*
X147014170Y-75103743D01*
X147014171Y-75103747D01*
X147069637Y-75237657D01*
X147069638Y-75237659D01*
X147069639Y-75237660D01*
X147157879Y-75352656D01*
X147272875Y-75440896D01*
X147406791Y-75496365D01*
X147533780Y-75513083D01*
X147550499Y-75515285D01*
X147558628Y-75515285D01*
X147558628Y-75518613D01*
X147612340Y-75526952D01*
X147664626Y-75573297D01*
X147683557Y-75640553D01*
X147670276Y-75689049D01*
X147672249Y-75689866D01*
X147613671Y-75831287D01*
X147613670Y-75831291D01*
X147594750Y-75974999D01*
X147594750Y-75975000D01*
X147613670Y-76118708D01*
X147613671Y-76118712D01*
X147669137Y-76252622D01*
X147669138Y-76252624D01*
X147669139Y-76252625D01*
X147757379Y-76367621D01*
X147872375Y-76455861D01*
X148006291Y-76511330D01*
X148133280Y-76528048D01*
X148149999Y-76530250D01*
X148150000Y-76530250D01*
X148150001Y-76530250D01*
X148164977Y-76528278D01*
X148293709Y-76511330D01*
X148427625Y-76455861D01*
X148542621Y-76367621D01*
X148630861Y-76252625D01*
X148686330Y-76118709D01*
X148705250Y-75975000D01*
X148686330Y-75831291D01*
X148630861Y-75697375D01*
X148605927Y-75664880D01*
X156840389Y-75664880D01*
X156859309Y-75808588D01*
X156859310Y-75808592D01*
X156914776Y-75942502D01*
X156914777Y-75942504D01*
X156914778Y-75942505D01*
X157003018Y-76057501D01*
X157118014Y-76145741D01*
X157118015Y-76145741D01*
X157118016Y-76145742D01*
X157162652Y-76164230D01*
X157251930Y-76201210D01*
X157378919Y-76217928D01*
X157395638Y-76220130D01*
X157395639Y-76220130D01*
X157395640Y-76220130D01*
X157410616Y-76218158D01*
X157539348Y-76201210D01*
X157673264Y-76145741D01*
X157788260Y-76057501D01*
X157876500Y-75942505D01*
X157931969Y-75808589D01*
X157949557Y-75675000D01*
X162519750Y-75675000D01*
X162538670Y-75818708D01*
X162538671Y-75818712D01*
X162594137Y-75952622D01*
X162594138Y-75952624D01*
X162594139Y-75952625D01*
X162682379Y-76067621D01*
X162797375Y-76155861D01*
X162931291Y-76211330D01*
X163058280Y-76228048D01*
X163074999Y-76230250D01*
X163075000Y-76230250D01*
X163075001Y-76230250D01*
X163089977Y-76228278D01*
X163218709Y-76211330D01*
X163352625Y-76155861D01*
X163467621Y-76067621D01*
X163555861Y-75952625D01*
X163611330Y-75818709D01*
X163630250Y-75675000D01*
X163611330Y-75531291D01*
X163555861Y-75397375D01*
X163467621Y-75282379D01*
X163352625Y-75194139D01*
X163352624Y-75194138D01*
X163352622Y-75194137D01*
X163218712Y-75138671D01*
X163218710Y-75138670D01*
X163218709Y-75138670D01*
X163141841Y-75128550D01*
X163075001Y-75119750D01*
X163074999Y-75119750D01*
X162931291Y-75138670D01*
X162931287Y-75138671D01*
X162797377Y-75194137D01*
X162682379Y-75282379D01*
X162594137Y-75397377D01*
X162538671Y-75531287D01*
X162538670Y-75531291D01*
X162519750Y-75674999D01*
X162519750Y-75675000D01*
X157949557Y-75675000D01*
X157950889Y-75664880D01*
X157931969Y-75521171D01*
X157876500Y-75387255D01*
X157788260Y-75272259D01*
X157673264Y-75184019D01*
X157673263Y-75184018D01*
X157673261Y-75184017D01*
X157539351Y-75128551D01*
X157539349Y-75128550D01*
X157539348Y-75128550D01*
X157467493Y-75119090D01*
X157395640Y-75109630D01*
X157395638Y-75109630D01*
X157251930Y-75128550D01*
X157251926Y-75128551D01*
X157118016Y-75184017D01*
X157003018Y-75272259D01*
X156914776Y-75387257D01*
X156859310Y-75521167D01*
X156859309Y-75521171D01*
X156840389Y-75664879D01*
X156840389Y-75664880D01*
X148605927Y-75664880D01*
X148542621Y-75582379D01*
X148427625Y-75494139D01*
X148427624Y-75494138D01*
X148427622Y-75494137D01*
X148293712Y-75438671D01*
X148293710Y-75438670D01*
X148293709Y-75438670D01*
X148221854Y-75429210D01*
X148150001Y-75419750D01*
X148141872Y-75419750D01*
X148141872Y-75416444D01*
X148088026Y-75408019D01*
X148035794Y-75361612D01*
X148016944Y-75294334D01*
X148030223Y-75245985D01*
X148028251Y-75245169D01*
X148049388Y-75194139D01*
X148086830Y-75103744D01*
X148105750Y-74960035D01*
X148086830Y-74816326D01*
X148031361Y-74682410D01*
X147943121Y-74567414D01*
X147855266Y-74500000D01*
X150844750Y-74500000D01*
X150863670Y-74643708D01*
X150863671Y-74643712D01*
X150919137Y-74777622D01*
X150919138Y-74777624D01*
X150919139Y-74777625D01*
X151007379Y-74892621D01*
X151122375Y-74980861D01*
X151122376Y-74980861D01*
X151122377Y-74980862D01*
X151130557Y-74984250D01*
X151256291Y-75036330D01*
X151383280Y-75053048D01*
X151399999Y-75055250D01*
X151400000Y-75055250D01*
X151400001Y-75055250D01*
X151414977Y-75053278D01*
X151543709Y-75036330D01*
X151677625Y-74980861D01*
X151792621Y-74892621D01*
X151880861Y-74777625D01*
X151936330Y-74643709D01*
X151955250Y-74500000D01*
X151936330Y-74356291D01*
X151880861Y-74222375D01*
X151792621Y-74107379D01*
X151677625Y-74019139D01*
X151677624Y-74019138D01*
X151677622Y-74019137D01*
X151543712Y-73963671D01*
X151543710Y-73963670D01*
X151543709Y-73963670D01*
X151471854Y-73954210D01*
X151400001Y-73944750D01*
X151399999Y-73944750D01*
X151256291Y-73963670D01*
X151256287Y-73963671D01*
X151122377Y-74019137D01*
X151007379Y-74107379D01*
X150919137Y-74222377D01*
X150863671Y-74356287D01*
X150863670Y-74356291D01*
X150844750Y-74499999D01*
X150844750Y-74500000D01*
X147855266Y-74500000D01*
X147828125Y-74479174D01*
X147828124Y-74479173D01*
X147828122Y-74479172D01*
X147694212Y-74423706D01*
X147694210Y-74423705D01*
X147694209Y-74423705D01*
X147622354Y-74414245D01*
X147550501Y-74404785D01*
X147550499Y-74404785D01*
X147406791Y-74423705D01*
X147406787Y-74423706D01*
X147272877Y-74479172D01*
X147157879Y-74567414D01*
X147069637Y-74682412D01*
X147014171Y-74816322D01*
X147014170Y-74816326D01*
X147004126Y-74892620D01*
X146995250Y-74960035D01*
X140112472Y-74960035D01*
X140161397Y-74788083D01*
X140180215Y-74585000D01*
X140178585Y-74567414D01*
X140161397Y-74381917D01*
X140154106Y-74356291D01*
X140105582Y-74185750D01*
X140014673Y-74003179D01*
X139932988Y-73895010D01*
X139891762Y-73840418D01*
X139741041Y-73703019D01*
X139741039Y-73703017D01*
X139567642Y-73595655D01*
X139567635Y-73595651D01*
X139472546Y-73558814D01*
X139377456Y-73521976D01*
X139176976Y-73484500D01*
X138973024Y-73484500D01*
X138772544Y-73521976D01*
X138772541Y-73521976D01*
X138772541Y-73521977D01*
X138582364Y-73595651D01*
X138582357Y-73595655D01*
X138408960Y-73703017D01*
X138408958Y-73703019D01*
X138258236Y-73840419D01*
X138258236Y-73840420D01*
X138248453Y-73853375D01*
X138192343Y-73895010D01*
X138122631Y-73899701D01*
X138061450Y-73865958D01*
X138028224Y-73804494D01*
X138025500Y-73778647D01*
X138025500Y-73425000D01*
X147519750Y-73425000D01*
X147531314Y-73512839D01*
X147538670Y-73568708D01*
X147538671Y-73568712D01*
X147594137Y-73702622D01*
X147594138Y-73702624D01*
X147594139Y-73702625D01*
X147682379Y-73817621D01*
X147797375Y-73905861D01*
X147931291Y-73961330D01*
X148058280Y-73978048D01*
X148074999Y-73980250D01*
X148075000Y-73980250D01*
X148075001Y-73980250D01*
X148089977Y-73978278D01*
X148218709Y-73961330D01*
X148352625Y-73905861D01*
X148467621Y-73817621D01*
X148555861Y-73702625D01*
X148611330Y-73568709D01*
X148630250Y-73425000D01*
X148611330Y-73281291D01*
X148574350Y-73192013D01*
X148567303Y-73175000D01*
X157694750Y-73175000D01*
X157713670Y-73318708D01*
X157713671Y-73318712D01*
X157769137Y-73452622D01*
X157769138Y-73452624D01*
X157769139Y-73452625D01*
X157857379Y-73567621D01*
X157972375Y-73655861D01*
X158106291Y-73711330D01*
X158233280Y-73728048D01*
X158249999Y-73730250D01*
X158250000Y-73730250D01*
X158250001Y-73730250D01*
X158264977Y-73728278D01*
X158393709Y-73711330D01*
X158527625Y-73655861D01*
X158642621Y-73567621D01*
X158730861Y-73452625D01*
X158786330Y-73318709D01*
X158805250Y-73175000D01*
X159694750Y-73175000D01*
X159713670Y-73318708D01*
X159713671Y-73318712D01*
X159769137Y-73452622D01*
X159769138Y-73452624D01*
X159769139Y-73452625D01*
X159857379Y-73567621D01*
X159972375Y-73655861D01*
X160106291Y-73711330D01*
X160233280Y-73728048D01*
X160249999Y-73730250D01*
X160250000Y-73730250D01*
X160250001Y-73730250D01*
X160264977Y-73728278D01*
X160393709Y-73711330D01*
X160527625Y-73655861D01*
X160642621Y-73567621D01*
X160730861Y-73452625D01*
X160786330Y-73318709D01*
X160805250Y-73175000D01*
X160786330Y-73031291D01*
X160730861Y-72897375D01*
X160642621Y-72782379D01*
X160527625Y-72694139D01*
X160527624Y-72694138D01*
X160527622Y-72694137D01*
X160393712Y-72638671D01*
X160393710Y-72638670D01*
X160393709Y-72638670D01*
X160303709Y-72626821D01*
X160250001Y-72619750D01*
X160249999Y-72619750D01*
X160106291Y-72638670D01*
X160106287Y-72638671D01*
X159972377Y-72694137D01*
X159857379Y-72782379D01*
X159769137Y-72897377D01*
X159713671Y-73031287D01*
X159713670Y-73031291D01*
X159694750Y-73174999D01*
X159694750Y-73175000D01*
X158805250Y-73175000D01*
X158786330Y-73031291D01*
X158730861Y-72897375D01*
X158642621Y-72782379D01*
X158527625Y-72694139D01*
X158527624Y-72694138D01*
X158527622Y-72694137D01*
X158393712Y-72638671D01*
X158393710Y-72638670D01*
X158393709Y-72638670D01*
X158303709Y-72626821D01*
X158250001Y-72619750D01*
X158249999Y-72619750D01*
X158106291Y-72638670D01*
X158106287Y-72638671D01*
X157972377Y-72694137D01*
X157857379Y-72782379D01*
X157769137Y-72897377D01*
X157713671Y-73031287D01*
X157713670Y-73031291D01*
X157694750Y-73174999D01*
X157694750Y-73175000D01*
X148567303Y-73175000D01*
X148555862Y-73147377D01*
X148555861Y-73147376D01*
X148555861Y-73147375D01*
X148467621Y-73032379D01*
X148352625Y-72944139D01*
X148352624Y-72944138D01*
X148352622Y-72944137D01*
X148218712Y-72888671D01*
X148218710Y-72888670D01*
X148218709Y-72888670D01*
X148146854Y-72879210D01*
X148075001Y-72869750D01*
X148074999Y-72869750D01*
X147931291Y-72888670D01*
X147931287Y-72888671D01*
X147797377Y-72944137D01*
X147682379Y-73032379D01*
X147594137Y-73147377D01*
X147538671Y-73281287D01*
X147538670Y-73281291D01*
X147519750Y-73425000D01*
X138025500Y-73425000D01*
X138025500Y-72851352D01*
X138045185Y-72784313D01*
X138097989Y-72738558D01*
X138167147Y-72728614D01*
X138230703Y-72757639D01*
X138248451Y-72776622D01*
X138258236Y-72789579D01*
X138258238Y-72789581D01*
X138358718Y-72881180D01*
X138408341Y-72926418D01*
X138408958Y-72926980D01*
X138408960Y-72926982D01*
X138436667Y-72944137D01*
X138582363Y-73034348D01*
X138772544Y-73108024D01*
X138973024Y-73145500D01*
X138973026Y-73145500D01*
X139176974Y-73145500D01*
X139176976Y-73145500D01*
X139377456Y-73108024D01*
X139567637Y-73034348D01*
X139741041Y-72926981D01*
X139891764Y-72789579D01*
X140014673Y-72626821D01*
X140105582Y-72444250D01*
X140161397Y-72248083D01*
X140180215Y-72045000D01*
X140179688Y-72039318D01*
X140161397Y-71841917D01*
X140124500Y-71712239D01*
X140105582Y-71645750D01*
X140105036Y-71644654D01*
X140048374Y-71530861D01*
X140014673Y-71463179D01*
X139931205Y-71352649D01*
X139891762Y-71300418D01*
X139741041Y-71163019D01*
X139741039Y-71163017D01*
X139567642Y-71055655D01*
X139567635Y-71055651D01*
X139431199Y-71002796D01*
X139377456Y-70981976D01*
X139176976Y-70944500D01*
X138973024Y-70944500D01*
X138772544Y-70981976D01*
X138772541Y-70981976D01*
X138772541Y-70981977D01*
X138582364Y-71055651D01*
X138582357Y-71055655D01*
X138408960Y-71163017D01*
X138408958Y-71163019D01*
X138258236Y-71300419D01*
X138258236Y-71300420D01*
X138248453Y-71313375D01*
X138192343Y-71355010D01*
X138122631Y-71359701D01*
X138061450Y-71325958D01*
X138028224Y-71264494D01*
X138025500Y-71238647D01*
X138025500Y-70750001D01*
X146194318Y-70750001D01*
X146214955Y-70906760D01*
X146214956Y-70906762D01*
X146268474Y-71035967D01*
X146275464Y-71052841D01*
X146371718Y-71178282D01*
X146497159Y-71274536D01*
X146643238Y-71335044D01*
X146776969Y-71352649D01*
X146840863Y-71380915D01*
X146879335Y-71439239D01*
X146883720Y-71459401D01*
X146887471Y-71487890D01*
X146889956Y-71506761D01*
X146889956Y-71506762D01*
X146947527Y-71645752D01*
X146950464Y-71652841D01*
X147046718Y-71778282D01*
X147172159Y-71874536D01*
X147318238Y-71935044D01*
X147396619Y-71945363D01*
X147474999Y-71955682D01*
X147475000Y-71955682D01*
X147475001Y-71955682D01*
X147527254Y-71948802D01*
X147631762Y-71935044D01*
X147777841Y-71874536D01*
X147903282Y-71778282D01*
X147999536Y-71652841D01*
X148060044Y-71506762D01*
X148067601Y-71449355D01*
X148095867Y-71385459D01*
X148154191Y-71346987D01*
X148174353Y-71342601D01*
X148231762Y-71335044D01*
X148377841Y-71274536D01*
X148503282Y-71178282D01*
X148599536Y-71052841D01*
X148600713Y-71050000D01*
X150144750Y-71050000D01*
X150163670Y-71193708D01*
X150163671Y-71193712D01*
X150219137Y-71327622D01*
X150219138Y-71327624D01*
X150219139Y-71327625D01*
X150307379Y-71442621D01*
X150422375Y-71530861D01*
X150556291Y-71586330D01*
X150683280Y-71603048D01*
X150699999Y-71605250D01*
X150700000Y-71605250D01*
X150700001Y-71605250D01*
X150714977Y-71603278D01*
X150843709Y-71586330D01*
X150977625Y-71530861D01*
X151033622Y-71487893D01*
X156142949Y-71487893D01*
X156163586Y-71644652D01*
X156163587Y-71644654D01*
X156218937Y-71778282D01*
X156224095Y-71790733D01*
X156320349Y-71916174D01*
X156445790Y-72012428D01*
X156591869Y-72072936D01*
X156670250Y-72083255D01*
X156748630Y-72093574D01*
X156748631Y-72093574D01*
X156748632Y-72093574D01*
X156800885Y-72086694D01*
X156905393Y-72072936D01*
X157051472Y-72012428D01*
X157176913Y-71916174D01*
X157273167Y-71790733D01*
X157333675Y-71644654D01*
X157354313Y-71487892D01*
X157351059Y-71463179D01*
X157333675Y-71331131D01*
X157333674Y-71331129D01*
X157328179Y-71317861D01*
X157320710Y-71248392D01*
X157351985Y-71185913D01*
X157412075Y-71150261D01*
X157481900Y-71152755D01*
X157518227Y-71172034D01*
X157571873Y-71213199D01*
X157571874Y-71213199D01*
X157571875Y-71213200D01*
X157705791Y-71268669D01*
X157832780Y-71285387D01*
X157849499Y-71287589D01*
X157849500Y-71287589D01*
X157849501Y-71287589D01*
X157864477Y-71285617D01*
X157993209Y-71268669D01*
X158127125Y-71213200D01*
X158242121Y-71124960D01*
X158330361Y-71009964D01*
X158385830Y-70876048D01*
X158404750Y-70732339D01*
X158385830Y-70588630D01*
X158330361Y-70454714D01*
X158242121Y-70339718D01*
X158127125Y-70251478D01*
X158127124Y-70251477D01*
X158127122Y-70251476D01*
X157993212Y-70196010D01*
X157993210Y-70196009D01*
X157993209Y-70196009D01*
X157921354Y-70186549D01*
X157849501Y-70177089D01*
X157849499Y-70177089D01*
X157705791Y-70196009D01*
X157705787Y-70196010D01*
X157571877Y-70251476D01*
X157456879Y-70339718D01*
X157368637Y-70454716D01*
X157313171Y-70588626D01*
X157313170Y-70588630D01*
X157294250Y-70732338D01*
X157294250Y-70732339D01*
X157313170Y-70876047D01*
X157315274Y-70883899D01*
X157312499Y-70884642D01*
X157318491Y-70940314D01*
X157287222Y-71002796D01*
X157227137Y-71038454D01*
X157157311Y-71035967D01*
X157120973Y-71016685D01*
X157051473Y-70963356D01*
X156905393Y-70902848D01*
X156905391Y-70902847D01*
X156748632Y-70882210D01*
X156748630Y-70882210D01*
X156591870Y-70902847D01*
X156591868Y-70902848D01*
X156445791Y-70963355D01*
X156320349Y-71059610D01*
X156224094Y-71185052D01*
X156163587Y-71331129D01*
X156163586Y-71331131D01*
X156142949Y-71487890D01*
X156142949Y-71487893D01*
X151033622Y-71487893D01*
X151092621Y-71442621D01*
X151180861Y-71327625D01*
X151236330Y-71193709D01*
X151255250Y-71050000D01*
X151253402Y-71035967D01*
X151249979Y-71009964D01*
X151236330Y-70906291D01*
X151180861Y-70772375D01*
X151092621Y-70657379D01*
X150977625Y-70569139D01*
X150977624Y-70569138D01*
X150977622Y-70569137D01*
X150843712Y-70513671D01*
X150843710Y-70513670D01*
X150843709Y-70513670D01*
X150771854Y-70504210D01*
X150700001Y-70494750D01*
X150699999Y-70494750D01*
X150556291Y-70513670D01*
X150556287Y-70513671D01*
X150422377Y-70569137D01*
X150307379Y-70657379D01*
X150219137Y-70772377D01*
X150163671Y-70906287D01*
X150163670Y-70906291D01*
X150144750Y-71049999D01*
X150144750Y-71050000D01*
X148600713Y-71050000D01*
X148660044Y-70906762D01*
X148680682Y-70750000D01*
X148660044Y-70593238D01*
X148599536Y-70447159D01*
X148503282Y-70321718D01*
X148377841Y-70225464D01*
X148231762Y-70164956D01*
X148207043Y-70161701D01*
X148174354Y-70157398D01*
X148110458Y-70129131D01*
X148071987Y-70070806D01*
X148067601Y-70050644D01*
X148060044Y-69993238D01*
X147999536Y-69847159D01*
X147903282Y-69721718D01*
X147777841Y-69625464D01*
X147631762Y-69564956D01*
X147631760Y-69564955D01*
X147475001Y-69544318D01*
X147474999Y-69544318D01*
X147318239Y-69564955D01*
X147318237Y-69564956D01*
X147172160Y-69625463D01*
X147046718Y-69721718D01*
X146950463Y-69847160D01*
X146889956Y-69993237D01*
X146889956Y-69993239D01*
X146883721Y-70040597D01*
X146855454Y-70104493D01*
X146797129Y-70142964D01*
X146776968Y-70147350D01*
X146643238Y-70164956D01*
X146643237Y-70164956D01*
X146497160Y-70225463D01*
X146371718Y-70321718D01*
X146275463Y-70447160D01*
X146214956Y-70593237D01*
X146214955Y-70593239D01*
X146194318Y-70749998D01*
X146194318Y-70750001D01*
X138025500Y-70750001D01*
X138025500Y-70311352D01*
X138045185Y-70244313D01*
X138097989Y-70198558D01*
X138167147Y-70188614D01*
X138230703Y-70217639D01*
X138248451Y-70236622D01*
X138258236Y-70249579D01*
X138258238Y-70249581D01*
X138408958Y-70386980D01*
X138408960Y-70386982D01*
X138506150Y-70447159D01*
X138582363Y-70494348D01*
X138772544Y-70568024D01*
X138973024Y-70605500D01*
X138973026Y-70605500D01*
X139176974Y-70605500D01*
X139176976Y-70605500D01*
X139377456Y-70568024D01*
X139567637Y-70494348D01*
X139741041Y-70386981D01*
X139891764Y-70249579D01*
X140014673Y-70086821D01*
X140105582Y-69904250D01*
X140161397Y-69708083D01*
X140180215Y-69505000D01*
X140161397Y-69301917D01*
X140105582Y-69105750D01*
X140014673Y-68923179D01*
X139930333Y-68811495D01*
X139891762Y-68760418D01*
X139741041Y-68623019D01*
X139741039Y-68623017D01*
X139567642Y-68515655D01*
X139567635Y-68515651D01*
X139472546Y-68478814D01*
X139377456Y-68441976D01*
X139286642Y-68425000D01*
X155358628Y-68425000D01*
X155400316Y-68553306D01*
X155400317Y-68553307D01*
X155497536Y-68721694D01*
X155497535Y-68721694D01*
X155627639Y-68866190D01*
X155627642Y-68866192D01*
X155784950Y-68980484D01*
X155962587Y-69059573D01*
X155999999Y-69067524D01*
X156000000Y-69067524D01*
X156000000Y-68425000D01*
X155358628Y-68425000D01*
X139286642Y-68425000D01*
X139176976Y-68404500D01*
X138973024Y-68404500D01*
X138772544Y-68441976D01*
X138772541Y-68441976D01*
X138772541Y-68441977D01*
X138582364Y-68515651D01*
X138582357Y-68515655D01*
X138408960Y-68623017D01*
X138408958Y-68623019D01*
X138258236Y-68760419D01*
X138258236Y-68760420D01*
X138248453Y-68773375D01*
X138192343Y-68815010D01*
X138122631Y-68819701D01*
X138061450Y-68785958D01*
X138028224Y-68724494D01*
X138025500Y-68698647D01*
X138025500Y-68175000D01*
X155995102Y-68175000D01*
X156014505Y-68272545D01*
X156069760Y-68355240D01*
X156152455Y-68410495D01*
X156225376Y-68425000D01*
X156274624Y-68425000D01*
X156347545Y-68410495D01*
X156430240Y-68355240D01*
X156485495Y-68272545D01*
X156500000Y-68199623D01*
X156500000Y-69067524D01*
X156537412Y-69059573D01*
X156715049Y-68980484D01*
X156872354Y-68866194D01*
X156887905Y-68848923D01*
X156947390Y-68812273D01*
X157009731Y-68811495D01*
X157167979Y-68850500D01*
X157167980Y-68850500D01*
X157332022Y-68850500D01*
X157491291Y-68811243D01*
X157491291Y-68811242D01*
X157491295Y-68811242D01*
X157636546Y-68735008D01*
X157667772Y-68707343D01*
X157731004Y-68677622D01*
X157800268Y-68686804D01*
X157832228Y-68707344D01*
X157863451Y-68735006D01*
X157863452Y-68735006D01*
X157863454Y-68735008D01*
X158008705Y-68811242D01*
X158008707Y-68811242D01*
X158008708Y-68811243D01*
X158167978Y-68850500D01*
X158167979Y-68850500D01*
X158332023Y-68850500D01*
X158332023Y-68850499D01*
X158348128Y-68846529D01*
X158358568Y-68843957D01*
X158428371Y-68847025D01*
X158485433Y-68887344D01*
X158511639Y-68952113D01*
X158502807Y-69011805D01*
X158463669Y-69106293D01*
X158444750Y-69249999D01*
X158444750Y-69250000D01*
X158463670Y-69393708D01*
X158463671Y-69393712D01*
X158519137Y-69527622D01*
X158519138Y-69527624D01*
X158519139Y-69527625D01*
X158607379Y-69642621D01*
X158722375Y-69730861D01*
X158856291Y-69786330D01*
X158983280Y-69803048D01*
X158999999Y-69805250D01*
X159000000Y-69805250D01*
X159000001Y-69805250D01*
X159014977Y-69803278D01*
X159143709Y-69786330D01*
X159277625Y-69730861D01*
X159392621Y-69642621D01*
X159480861Y-69527625D01*
X159536330Y-69393709D01*
X159555250Y-69250000D01*
X159536330Y-69106291D01*
X159480861Y-68972375D01*
X159480858Y-68972371D01*
X159476797Y-68965336D01*
X159479719Y-68963648D01*
X159460171Y-68913049D01*
X159474225Y-68844608D01*
X159523050Y-68794630D01*
X159526041Y-68793005D01*
X159636546Y-68735008D01*
X159667772Y-68707343D01*
X159731004Y-68677622D01*
X159800268Y-68686804D01*
X159832228Y-68707344D01*
X159863451Y-68735006D01*
X159863452Y-68735006D01*
X159863454Y-68735008D01*
X160008705Y-68811242D01*
X160008707Y-68811242D01*
X160008708Y-68811243D01*
X160167978Y-68850500D01*
X160167979Y-68850500D01*
X160332022Y-68850500D01*
X160491291Y-68811243D01*
X160491291Y-68811242D01*
X160491295Y-68811242D01*
X160636546Y-68735008D01*
X160667772Y-68707343D01*
X160731004Y-68677622D01*
X160800268Y-68686804D01*
X160832228Y-68707344D01*
X160863451Y-68735006D01*
X160863452Y-68735006D01*
X160863454Y-68735008D01*
X161008705Y-68811242D01*
X161008707Y-68811242D01*
X161008708Y-68811243D01*
X161167978Y-68850500D01*
X161167979Y-68850500D01*
X161332022Y-68850500D01*
X161390991Y-68835965D01*
X161491295Y-68811242D01*
X161537480Y-68787001D01*
X161605985Y-68773275D01*
X161663994Y-68793694D01*
X161727260Y-68835966D01*
X161727262Y-68835966D01*
X161727264Y-68835967D01*
X161800321Y-68850499D01*
X161800324Y-68850500D01*
X161800326Y-68850500D01*
X162699676Y-68850500D01*
X162699677Y-68850499D01*
X162772740Y-68835966D01*
X162855601Y-68780601D01*
X162910966Y-68697740D01*
X162925500Y-68624674D01*
X162925500Y-67725326D01*
X162925500Y-67725323D01*
X162925499Y-67725321D01*
X162910967Y-67652264D01*
X162910966Y-67652260D01*
X162855601Y-67569399D01*
X162772740Y-67514034D01*
X162772739Y-67514033D01*
X162772735Y-67514032D01*
X162699677Y-67499500D01*
X162699674Y-67499500D01*
X161800326Y-67499500D01*
X161800323Y-67499500D01*
X161727264Y-67514032D01*
X161727261Y-67514033D01*
X161663995Y-67556305D01*
X161597317Y-67577181D01*
X161537481Y-67562998D01*
X161491294Y-67538757D01*
X161332022Y-67499500D01*
X161332021Y-67499500D01*
X161167979Y-67499500D01*
X161167978Y-67499500D01*
X161008708Y-67538756D01*
X160863451Y-67614993D01*
X160832225Y-67642657D01*
X160768992Y-67672377D01*
X160699728Y-67663192D01*
X160667775Y-67642657D01*
X160636548Y-67614993D01*
X160588129Y-67589580D01*
X160491295Y-67538758D01*
X160491294Y-67538757D01*
X160491291Y-67538756D01*
X160332022Y-67499500D01*
X160332021Y-67499500D01*
X160167979Y-67499500D01*
X160167978Y-67499500D01*
X160008708Y-67538756D01*
X159863451Y-67614993D01*
X159832225Y-67642657D01*
X159768992Y-67672377D01*
X159699728Y-67663192D01*
X159667775Y-67642657D01*
X159636548Y-67614993D01*
X159588129Y-67589580D01*
X159491295Y-67538758D01*
X159491294Y-67538757D01*
X159491291Y-67538756D01*
X159332022Y-67499500D01*
X159332021Y-67499500D01*
X159167979Y-67499500D01*
X159167978Y-67499500D01*
X159008708Y-67538756D01*
X158863451Y-67614993D01*
X158832225Y-67642657D01*
X158768992Y-67672377D01*
X158699728Y-67663192D01*
X158667775Y-67642657D01*
X158636548Y-67614993D01*
X158588129Y-67589580D01*
X158491295Y-67538758D01*
X158491294Y-67538757D01*
X158491291Y-67538756D01*
X158332022Y-67499500D01*
X158332021Y-67499500D01*
X158167979Y-67499500D01*
X158167978Y-67499500D01*
X158008708Y-67538756D01*
X157863451Y-67614993D01*
X157832225Y-67642657D01*
X157768992Y-67672377D01*
X157699728Y-67663192D01*
X157667775Y-67642657D01*
X157636548Y-67614993D01*
X157588129Y-67589580D01*
X157491295Y-67538758D01*
X157491294Y-67538757D01*
X157491291Y-67538756D01*
X157332022Y-67499500D01*
X157332021Y-67499500D01*
X157167979Y-67499500D01*
X157167978Y-67499500D01*
X157009734Y-67538504D01*
X156939932Y-67535435D01*
X156887910Y-67501080D01*
X156872356Y-67483806D01*
X156715051Y-67369516D01*
X156537412Y-67290426D01*
X156500000Y-67282473D01*
X156500000Y-68150376D01*
X156485495Y-68077455D01*
X156430240Y-67994760D01*
X156347545Y-67939505D01*
X156274624Y-67925000D01*
X156225376Y-67925000D01*
X156152455Y-67939505D01*
X156069760Y-67994760D01*
X156014505Y-68077455D01*
X155995102Y-68175000D01*
X138025500Y-68175000D01*
X138025500Y-67925000D01*
X155358628Y-67925000D01*
X156000000Y-67925000D01*
X156000000Y-67282473D01*
X155962585Y-67290426D01*
X155962580Y-67290428D01*
X155784953Y-67369513D01*
X155627643Y-67483806D01*
X155497535Y-67628305D01*
X155400317Y-67796692D01*
X155400316Y-67796693D01*
X155358628Y-67924999D01*
X155358628Y-67925000D01*
X138025500Y-67925000D01*
X138025500Y-66600001D01*
X144319318Y-66600001D01*
X144339955Y-66756760D01*
X144339956Y-66756762D01*
X144400464Y-66902841D01*
X144496718Y-67028282D01*
X144622159Y-67124536D01*
X144768238Y-67185044D01*
X144901969Y-67202649D01*
X144965863Y-67230915D01*
X145004335Y-67289239D01*
X145008721Y-67309402D01*
X145014956Y-67356761D01*
X145014956Y-67356762D01*
X145074734Y-67501080D01*
X145075464Y-67502841D01*
X145171718Y-67628282D01*
X145297159Y-67724536D01*
X145443238Y-67785044D01*
X145521619Y-67795363D01*
X145599999Y-67805682D01*
X145600000Y-67805682D01*
X145600001Y-67805682D01*
X145652254Y-67798802D01*
X145756762Y-67785044D01*
X145902841Y-67724536D01*
X146028282Y-67628282D01*
X146124536Y-67502841D01*
X146185044Y-67356762D01*
X146192601Y-67299355D01*
X146220867Y-67235459D01*
X146279191Y-67196987D01*
X146299353Y-67192601D01*
X146356762Y-67185044D01*
X146502841Y-67124536D01*
X146628282Y-67028282D01*
X146724536Y-66902841D01*
X146785044Y-66756762D01*
X146805682Y-66600000D01*
X146785044Y-66443238D01*
X146724536Y-66297159D01*
X146628282Y-66171718D01*
X146502841Y-66075464D01*
X146356762Y-66014956D01*
X146332043Y-66011701D01*
X146299354Y-66007398D01*
X146235458Y-65979131D01*
X146196987Y-65920806D01*
X146192601Y-65900644D01*
X146185044Y-65843238D01*
X146124536Y-65697159D01*
X146028282Y-65571718D01*
X145902841Y-65475464D01*
X145756762Y-65414956D01*
X145756760Y-65414955D01*
X145600001Y-65394318D01*
X145599999Y-65394318D01*
X145443239Y-65414955D01*
X145443237Y-65414956D01*
X145297160Y-65475463D01*
X145171718Y-65571718D01*
X145075463Y-65697160D01*
X145014956Y-65843237D01*
X145014956Y-65843239D01*
X145008721Y-65890597D01*
X144980454Y-65954493D01*
X144922129Y-65992964D01*
X144901968Y-65997350D01*
X144768238Y-66014956D01*
X144768237Y-66014956D01*
X144622160Y-66075463D01*
X144496718Y-66171718D01*
X144400463Y-66297160D01*
X144339956Y-66443237D01*
X144339955Y-66443239D01*
X144319318Y-66599998D01*
X144319318Y-66600001D01*
X138025500Y-66600001D01*
X138025500Y-63524500D01*
X138045185Y-63457461D01*
X138097989Y-63411706D01*
X138149500Y-63400500D01*
X147641000Y-63400500D01*
X147708039Y-63420185D01*
G37*
%TD.AperFunction*%
%TD*%
M02*
