%TF.GenerationSoftware,KiCad,Pcbnew,8.0.7*%
%TF.CreationDate,2024-12-18T23:50:21+01:00*%
%TF.ProjectId,neopixel_eliot_hat,6e656f70-6978-4656-9c5f-656c696f745f,rev?*%
%TF.SameCoordinates,Original*%
%TF.FileFunction,Legend,Top*%
%TF.FilePolarity,Positive*%
%FSLAX46Y46*%
G04 Gerber Fmt 4.6, Leading zero omitted, Abs format (unit mm)*
G04 Created by KiCad (PCBNEW 8.0.7) date 2024-12-18 23:50:21*
%MOMM*%
%LPD*%
G01*
G04 APERTURE LIST*
%ADD10C,0.000000*%
%ADD11C,0.120000*%
%ADD12C,0.100000*%
%ADD13C,0.200000*%
%ADD14C,0.160000*%
%ADD15C,0.250000*%
G04 APERTURE END LIST*
D10*
%TO.C,G1*%
G36*
X116330047Y-106104524D02*
G01*
X116379242Y-106130025D01*
X116424935Y-106154821D01*
X116451063Y-106169875D01*
X116492312Y-106194960D01*
X116029570Y-106750368D01*
X115941371Y-106856064D01*
X115858284Y-106955311D01*
X115781951Y-107046174D01*
X115714010Y-107126715D01*
X115656102Y-107194998D01*
X115609865Y-107249086D01*
X115576940Y-107287043D01*
X115558967Y-107306933D01*
X115556163Y-107309485D01*
X115542683Y-107301975D01*
X115515521Y-107278749D01*
X115479443Y-107244033D01*
X115460184Y-107224351D01*
X115418434Y-107177912D01*
X115391487Y-107141563D01*
X115381885Y-107118836D01*
X115382324Y-107116086D01*
X115392270Y-107102085D01*
X115417955Y-107069336D01*
X115457679Y-107019920D01*
X115509740Y-106955918D01*
X115572439Y-106879412D01*
X115644075Y-106792481D01*
X115722947Y-106697207D01*
X115807355Y-106595672D01*
X115820029Y-106580462D01*
X116250281Y-106064258D01*
X116330047Y-106104524D01*
G37*
G36*
X117802181Y-103033128D02*
G01*
X117976932Y-103057009D01*
X118146515Y-103103663D01*
X118308621Y-103172362D01*
X118460941Y-103262382D01*
X118601168Y-103372993D01*
X118726993Y-103503470D01*
X118836108Y-103653086D01*
X118888418Y-103743755D01*
X118964986Y-103917107D01*
X119015384Y-104095801D01*
X119039586Y-104277805D01*
X119037568Y-104461087D01*
X119009306Y-104643616D01*
X118954773Y-104823361D01*
X118902972Y-104942353D01*
X118806103Y-105110815D01*
X118691067Y-105259112D01*
X118558168Y-105386999D01*
X118407709Y-105494233D01*
X118239995Y-105580569D01*
X118055328Y-105645762D01*
X118016110Y-105656313D01*
X117938672Y-105671405D01*
X117845260Y-105682437D01*
X117745365Y-105688903D01*
X117648477Y-105690299D01*
X117564088Y-105686118D01*
X117531632Y-105682113D01*
X117341150Y-105639129D01*
X117163260Y-105572982D01*
X116999465Y-105485099D01*
X116851267Y-105376908D01*
X116720169Y-105249839D01*
X116607674Y-105105317D01*
X116515283Y-104944773D01*
X116444500Y-104769633D01*
X116402065Y-104608490D01*
X116387912Y-104504425D01*
X116382962Y-104385023D01*
X116386803Y-104259767D01*
X116399024Y-104138143D01*
X116419213Y-104029633D01*
X116428705Y-103994426D01*
X116496515Y-103812762D01*
X116586310Y-103646217D01*
X116697035Y-103496074D01*
X116827638Y-103363617D01*
X116977063Y-103250129D01*
X117097660Y-103179875D01*
X117270001Y-103105394D01*
X117446407Y-103056594D01*
X117624570Y-103032748D01*
X117802181Y-103033128D01*
G37*
G36*
X113948126Y-106269558D02*
G01*
X114067016Y-106389221D01*
X114199642Y-106527496D01*
X114343329Y-106681343D01*
X114495405Y-106847726D01*
X114653194Y-107023606D01*
X114814023Y-107205945D01*
X114975217Y-107391705D01*
X115134102Y-107577848D01*
X115288004Y-107761337D01*
X115434248Y-107939133D01*
X115570162Y-108108199D01*
X115601558Y-108147914D01*
X116082365Y-108780221D01*
X116541012Y-109428012D01*
X116977238Y-110090698D01*
X117390783Y-110767689D01*
X117781387Y-111458398D01*
X118148789Y-112162235D01*
X118492731Y-112878611D01*
X118812951Y-113606936D01*
X119109190Y-114346623D01*
X119381188Y-115097082D01*
X119628684Y-115857725D01*
X119851418Y-116627961D01*
X120049130Y-117407202D01*
X120221561Y-118194860D01*
X120355415Y-118913365D01*
X120371719Y-119009336D01*
X120386397Y-119096894D01*
X120398846Y-119172356D01*
X120408466Y-119232039D01*
X120414655Y-119272263D01*
X120416813Y-119289278D01*
X120411931Y-119291681D01*
X120396542Y-119293861D01*
X120369541Y-119295827D01*
X120329824Y-119297589D01*
X120276289Y-119299157D01*
X120207832Y-119300539D01*
X120123349Y-119301746D01*
X120021737Y-119302787D01*
X119901891Y-119303670D01*
X119762710Y-119304406D01*
X119603088Y-119305005D01*
X119421922Y-119305474D01*
X119218110Y-119305825D01*
X118990547Y-119306066D01*
X118738130Y-119306206D01*
X118459755Y-119306256D01*
X118432045Y-119306257D01*
X116447246Y-119306257D01*
X116456380Y-119262112D01*
X116469041Y-119196678D01*
X116484535Y-119109923D01*
X116501965Y-119007439D01*
X116520437Y-118894814D01*
X116539057Y-118777637D01*
X116556929Y-118661498D01*
X116573160Y-118551987D01*
X116586854Y-118454692D01*
X116592804Y-118409786D01*
X116662370Y-117783772D01*
X116710967Y-117151976D01*
X116738690Y-116517146D01*
X116745630Y-115882028D01*
X116731880Y-115249372D01*
X116697534Y-114621923D01*
X116642684Y-114002430D01*
X116567422Y-113393640D01*
X116471841Y-112798300D01*
X116388960Y-112372192D01*
X116251339Y-111773622D01*
X116092992Y-111192590D01*
X115913895Y-110629050D01*
X115714026Y-110082952D01*
X115493361Y-109554247D01*
X115251877Y-109042886D01*
X114989550Y-108548821D01*
X114706358Y-108072002D01*
X114402278Y-107612382D01*
X114077286Y-107169911D01*
X113731359Y-106744540D01*
X113703430Y-106712002D01*
X113541799Y-106524430D01*
X113701558Y-106354287D01*
X113861317Y-106184143D01*
X113948126Y-106269558D01*
G37*
G36*
X100703741Y-99816840D02*
G01*
X100758553Y-99822642D01*
X100834363Y-99831802D01*
X100928249Y-99843904D01*
X101037292Y-99858529D01*
X101158570Y-99875260D01*
X101289162Y-99893681D01*
X101426147Y-99913374D01*
X101566604Y-99933922D01*
X101707611Y-99954907D01*
X101846248Y-99975912D01*
X101979594Y-99996521D01*
X102104727Y-100016316D01*
X102218727Y-100034879D01*
X102249732Y-100040047D01*
X102970644Y-100172038D01*
X103673288Y-100323361D01*
X104358997Y-100494538D01*
X105029102Y-100686090D01*
X105684934Y-100898539D01*
X106327825Y-101132405D01*
X106959106Y-101388209D01*
X107580108Y-101666473D01*
X108192163Y-101967717D01*
X108796603Y-102292462D01*
X109394757Y-102641230D01*
X109987959Y-103014542D01*
X110188930Y-103147268D01*
X110290456Y-103215928D01*
X110403594Y-103293854D01*
X110525490Y-103378976D01*
X110653292Y-103469225D01*
X110784146Y-103562529D01*
X110915199Y-103656819D01*
X111043597Y-103750023D01*
X111166488Y-103840073D01*
X111281017Y-103924896D01*
X111384333Y-104002423D01*
X111473580Y-104070583D01*
X111545907Y-104127306D01*
X111594759Y-104167363D01*
X111635508Y-104201998D01*
X111520053Y-104310227D01*
X111473482Y-104352816D01*
X111433446Y-104387445D01*
X111404376Y-104410409D01*
X111391016Y-104418051D01*
X111376280Y-104409654D01*
X111344790Y-104386805D01*
X111300557Y-104352570D01*
X111247592Y-104310012D01*
X111221230Y-104288343D01*
X110836336Y-103985657D01*
X110429855Y-103696473D01*
X110004646Y-103422443D01*
X109563568Y-103165222D01*
X109109482Y-102926464D01*
X108645246Y-102707822D01*
X108173720Y-102510950D01*
X108097166Y-102481342D01*
X107541858Y-102276970D01*
X106989910Y-102089757D01*
X106442456Y-101919890D01*
X105900631Y-101767559D01*
X105365569Y-101632951D01*
X104838406Y-101516255D01*
X104320276Y-101417658D01*
X103812314Y-101337350D01*
X103315654Y-101275519D01*
X102831431Y-101232352D01*
X102360780Y-101208039D01*
X101904835Y-101202767D01*
X101464732Y-101216724D01*
X101041604Y-101250100D01*
X100828519Y-101275211D01*
X100765783Y-101283287D01*
X100712174Y-101289818D01*
X100673911Y-101294072D01*
X100658002Y-101295348D01*
X100654022Y-101290996D01*
X100650650Y-101276685D01*
X100647843Y-101250529D01*
X100645554Y-101210642D01*
X100643738Y-101155140D01*
X100642349Y-101082138D01*
X100641343Y-100989749D01*
X100640673Y-100876090D01*
X100640295Y-100739274D01*
X100640162Y-100577417D01*
X100640160Y-100555080D01*
X100640160Y-99814813D01*
X100672849Y-99814813D01*
X100703741Y-99816840D01*
G37*
G36*
X120145662Y-99390014D02*
G01*
X120233356Y-99397914D01*
X120304884Y-99413118D01*
X120365528Y-99436841D01*
X120420567Y-99470296D01*
X120432766Y-99479326D01*
X120488198Y-99527679D01*
X120529227Y-99579500D01*
X120557653Y-99639626D01*
X120575278Y-99712897D01*
X120583905Y-99804148D01*
X120585550Y-99889519D01*
X120576882Y-100039274D01*
X120551270Y-100201561D01*
X120508337Y-100377638D01*
X120447708Y-100568766D01*
X120369005Y-100776204D01*
X120271853Y-101001213D01*
X120220383Y-101111979D01*
X120137160Y-101279416D01*
X120038882Y-101463345D01*
X119928133Y-101659593D01*
X119807492Y-101863989D01*
X119679543Y-102072361D01*
X119546867Y-102280539D01*
X119412047Y-102484350D01*
X119277663Y-102679623D01*
X119146300Y-102862186D01*
X119092254Y-102934592D01*
X119049315Y-102991429D01*
X118947876Y-102907426D01*
X118892467Y-102861684D01*
X118826152Y-102807152D01*
X118759097Y-102752183D01*
X118723061Y-102722730D01*
X118599685Y-102622038D01*
X118661353Y-102491821D01*
X118744239Y-102315946D01*
X118820185Y-102153069D01*
X118888319Y-102005114D01*
X118947767Y-101874007D01*
X118997655Y-101761671D01*
X119037109Y-101670031D01*
X119062702Y-101607535D01*
X119125761Y-101436190D01*
X119172954Y-101282798D01*
X119204123Y-101148131D01*
X119219110Y-101032964D01*
X119217758Y-100938068D01*
X119209010Y-100891078D01*
X119182256Y-100830371D01*
X119139594Y-100773625D01*
X119088720Y-100730038D01*
X119062600Y-100716052D01*
X118984623Y-100697160D01*
X118888649Y-100697698D01*
X118775240Y-100717261D01*
X118644957Y-100755439D01*
X118498364Y-100811827D01*
X118336022Y-100886018D01*
X118158494Y-100977604D01*
X117966342Y-101086179D01*
X117760128Y-101211336D01*
X117540414Y-101352667D01*
X117307762Y-101509767D01*
X117062735Y-101682227D01*
X116805895Y-101869641D01*
X116537805Y-102071603D01*
X116259025Y-102287704D01*
X115970120Y-102517539D01*
X115671650Y-102760700D01*
X115364178Y-103016781D01*
X115048266Y-103285374D01*
X114724477Y-103566072D01*
X114393372Y-103858468D01*
X114055515Y-104162157D01*
X113711466Y-104476730D01*
X113361789Y-104801780D01*
X113175058Y-104977516D01*
X113087391Y-105060434D01*
X112982913Y-105159366D01*
X112862287Y-105273682D01*
X112726177Y-105402749D01*
X112575246Y-105545937D01*
X112410157Y-105702614D01*
X112231572Y-105872151D01*
X112040156Y-106053916D01*
X111836572Y-106247277D01*
X111621481Y-106451604D01*
X111395549Y-106666267D01*
X111159437Y-106890633D01*
X110913809Y-107124072D01*
X110659328Y-107365953D01*
X110396658Y-107615644D01*
X110126461Y-107872516D01*
X109849400Y-108135936D01*
X109566139Y-108405274D01*
X109277341Y-108679900D01*
X108983669Y-108959181D01*
X108685787Y-109242486D01*
X108384356Y-109529186D01*
X108080041Y-109818649D01*
X107773504Y-110110243D01*
X107465409Y-110403338D01*
X107156419Y-110697304D01*
X106847197Y-110991508D01*
X106538407Y-111285319D01*
X106230710Y-111578108D01*
X105924771Y-111869243D01*
X105621253Y-112158092D01*
X105320818Y-112444025D01*
X105024131Y-112726412D01*
X104731853Y-113004619D01*
X104444649Y-113278018D01*
X104163181Y-113545977D01*
X103888113Y-113807864D01*
X103620107Y-114063050D01*
X103359827Y-114310902D01*
X103107936Y-114550790D01*
X102865097Y-114782083D01*
X102631974Y-115004149D01*
X102409229Y-115216359D01*
X102197525Y-115418080D01*
X101997526Y-115608683D01*
X101809895Y-115787535D01*
X101635295Y-115954005D01*
X101474390Y-116107464D01*
X101327841Y-116247280D01*
X101196313Y-116372821D01*
X101080469Y-116483457D01*
X100980971Y-116578557D01*
X100898483Y-116657490D01*
X100833669Y-116719625D01*
X100787190Y-116764330D01*
X100759711Y-116790975D01*
X100759011Y-116791662D01*
X100640160Y-116908311D01*
X100642042Y-114463957D01*
X101431625Y-113818770D01*
X102022994Y-113334919D01*
X102634674Y-112833211D01*
X103266674Y-112313640D01*
X103919001Y-111776200D01*
X104591662Y-111220885D01*
X105284665Y-110647687D01*
X105998019Y-110056602D01*
X106731729Y-109447622D01*
X107485805Y-108820742D01*
X108260254Y-108175954D01*
X109055083Y-107513253D01*
X109870299Y-106832633D01*
X110705912Y-106134086D01*
X110888449Y-105981376D01*
X111217993Y-105705656D01*
X111527568Y-105446673D01*
X111818029Y-105203721D01*
X112090229Y-104976089D01*
X112345025Y-104763072D01*
X112583271Y-104563960D01*
X112805821Y-104378046D01*
X113013531Y-104204623D01*
X113207255Y-104042982D01*
X113387848Y-103892415D01*
X113556166Y-103752215D01*
X113713061Y-103621673D01*
X113859391Y-103500082D01*
X113996008Y-103386734D01*
X114123769Y-103280921D01*
X114243527Y-103181935D01*
X114356139Y-103089069D01*
X114462457Y-103001614D01*
X114563338Y-102918862D01*
X114659636Y-102840107D01*
X114752206Y-102764639D01*
X114841902Y-102691751D01*
X114929580Y-102620735D01*
X115016094Y-102550883D01*
X115102300Y-102481487D01*
X115189051Y-102411840D01*
X115277202Y-102341234D01*
X115367609Y-102268960D01*
X115461127Y-102194311D01*
X115472674Y-102185099D01*
X115626709Y-102062304D01*
X115762479Y-101954260D01*
X115882894Y-101858701D01*
X115990864Y-101773362D01*
X116089299Y-101695976D01*
X116181109Y-101624278D01*
X116269204Y-101556000D01*
X116356494Y-101488878D01*
X116445889Y-101420645D01*
X116540298Y-101349035D01*
X116642633Y-101271782D01*
X116729091Y-101206703D01*
X117066383Y-100956076D01*
X117385687Y-100725084D01*
X117687484Y-100513437D01*
X117972254Y-100320848D01*
X118240479Y-100147029D01*
X118492639Y-99991692D01*
X118729215Y-99854549D01*
X118950689Y-99735312D01*
X119157540Y-99633692D01*
X119350250Y-99549402D01*
X119529299Y-99482155D01*
X119690632Y-99432867D01*
X119764388Y-99414063D01*
X119824981Y-99401468D01*
X119882201Y-99393816D01*
X119945842Y-99389845D01*
X120025695Y-99388288D01*
X120036524Y-99388205D01*
X120145662Y-99390014D01*
G37*
D11*
%TO.C,D3*%
X105090000Y-58910000D02*
X101080000Y-58910000D01*
X105090000Y-60910000D02*
X101080000Y-60910000D01*
X105090000Y-60910000D02*
X105090000Y-58910000D01*
%TO.C,R13*%
X113163641Y-56590000D02*
X112856359Y-56590000D01*
X113163641Y-57350000D02*
X112856359Y-57350000D01*
%TO.C,D2*%
X116182500Y-61545000D02*
X118467500Y-61545000D01*
X118467500Y-60075000D02*
X116182500Y-60075000D01*
X118467500Y-61545000D02*
X118467500Y-60075000D01*
D12*
%TO.C,S1*%
X113695000Y-45030000D02*
X113695000Y-47680000D01*
D13*
X114795000Y-44355000D02*
X114795000Y-44355000D01*
X114995000Y-44355000D02*
X114995000Y-44355000D01*
D12*
X115295000Y-45055000D02*
X115295000Y-47655000D01*
D13*
X114795000Y-44355000D02*
G75*
G02*
X114995000Y-44355000I100000J0D01*
G01*
X114995000Y-44355000D02*
G75*
G02*
X114795000Y-44355000I-100000J0D01*
G01*
D11*
%TO.C,R10*%
X96383641Y-56490000D02*
X96076359Y-56490000D01*
X96383641Y-57250000D02*
X96076359Y-57250000D01*
%TO.C,R12*%
X114177258Y-60287500D02*
X113702742Y-60287500D01*
X114177258Y-61332500D02*
X113702742Y-61332500D01*
%TO.C,R2*%
X108892500Y-65527742D02*
X108892500Y-66002258D01*
X109937500Y-65527742D02*
X109937500Y-66002258D01*
D13*
%TO.C,LV1*%
X105283223Y-65385000D02*
X106233223Y-65385000D01*
X106583223Y-65610000D02*
X107133223Y-65610000D01*
X106583223Y-67610000D02*
X106583223Y-65610000D01*
X107133223Y-65610000D02*
X107133223Y-67610000D01*
X107133223Y-67610000D02*
X106583223Y-67610000D01*
D14*
%TO.C,TP2*%
X105860000Y-61870000D02*
G75*
G02*
X104460000Y-61870000I-700000J0D01*
G01*
X104460000Y-61870000D02*
G75*
G02*
X105860000Y-61870000I700000J0D01*
G01*
D11*
%TO.C,C14*%
X109730000Y-57895000D02*
X109730000Y-59765000D01*
X109730000Y-59765000D02*
X113640000Y-59765000D01*
X113640000Y-57895000D02*
X109730000Y-57895000D01*
%TO.C,R9*%
X95420000Y-54266359D02*
X95420000Y-54573641D01*
X96180000Y-54266359D02*
X96180000Y-54573641D01*
%TO.C,Q3*%
X99572500Y-56800000D02*
X99572500Y-56150000D01*
X99572500Y-56800000D02*
X99572500Y-57450000D01*
X102692500Y-56800000D02*
X102692500Y-56150000D01*
X102692500Y-56800000D02*
X102692500Y-57450000D01*
X102972500Y-55877500D02*
X102642500Y-55637500D01*
X102972500Y-55397500D01*
X102972500Y-55877500D01*
G36*
X102972500Y-55877500D02*
G01*
X102642500Y-55637500D01*
X102972500Y-55397500D01*
X102972500Y-55877500D01*
G37*
%TO.C,C6*%
X105652164Y-46140000D02*
X105867836Y-46140000D01*
X105652164Y-46860000D02*
X105867836Y-46860000D01*
%TO.C,R3*%
X109012258Y-68147500D02*
X108537742Y-68147500D01*
X109012258Y-69192500D02*
X108537742Y-69192500D01*
%TO.C,R14*%
X115672258Y-56497500D02*
X115197742Y-56497500D01*
X115672258Y-57542500D02*
X115197742Y-57542500D01*
%TO.C,C1*%
X105367836Y-64365000D02*
X105152164Y-64365000D01*
X105367836Y-65085000D02*
X105152164Y-65085000D01*
D12*
%TO.C,Y1*%
X112910000Y-53590000D02*
X112910000Y-53590000D01*
X112910000Y-53690000D02*
X112910000Y-53690000D01*
X112910000Y-53590000D02*
G75*
G02*
X112910000Y-53690000I0J-50000D01*
G01*
X112910000Y-53690000D02*
G75*
G02*
X112910000Y-53590000I0J50000D01*
G01*
D14*
%TO.C,TP5*%
X112560000Y-46590000D02*
G75*
G02*
X111160000Y-46590000I-700000J0D01*
G01*
X111160000Y-46590000D02*
G75*
G02*
X112560000Y-46590000I700000J0D01*
G01*
D11*
%TO.C,D1*%
X97110000Y-60930000D02*
X98410000Y-60930000D01*
X98410000Y-57810000D02*
X97140000Y-57810000D01*
X96760000Y-57860000D02*
X96520000Y-57530000D01*
X97000000Y-57530000D01*
X96760000Y-57860000D01*
G36*
X96760000Y-57860000D02*
G01*
X96520000Y-57530000D01*
X97000000Y-57530000D01*
X96760000Y-57860000D01*
G37*
%TO.C,J4*%
X89960000Y-37985000D02*
X89960000Y-34385000D01*
X89960000Y-37985000D02*
X93360000Y-37985000D01*
X93360000Y-43485000D02*
X93360000Y-37985000D01*
X93360000Y-43485000D02*
X99960000Y-43485000D01*
X99960000Y-37985000D02*
X99960000Y-43485000D01*
X103360000Y-34385000D02*
X103360000Y-37985000D01*
X103360000Y-37985000D02*
X99960000Y-37985000D01*
%TO.C,J1*%
X110700000Y-62990000D02*
X110700000Y-68960000D01*
X110700000Y-68960000D02*
X120820000Y-68960000D01*
X110710000Y-66700000D02*
X111460000Y-66700000D01*
X110710000Y-68200000D02*
X110710000Y-68950000D01*
X110710000Y-68950000D02*
X112510000Y-68950000D01*
X111460000Y-63750000D02*
X115760000Y-63750000D01*
X111460000Y-66700000D02*
X111460000Y-63750000D01*
X112510000Y-68200000D02*
X110710000Y-68200000D01*
X112510000Y-68950000D02*
X112510000Y-68200000D01*
X114010000Y-68200000D02*
X114010000Y-68950000D01*
X114010000Y-68950000D02*
X117510000Y-68950000D01*
X117510000Y-68200000D02*
X114010000Y-68200000D01*
X117510000Y-68950000D02*
X117510000Y-68200000D01*
X119010000Y-68200000D02*
X119010000Y-68950000D01*
X119010000Y-68950000D02*
X120810000Y-68950000D01*
X119860000Y-69250000D02*
X121110000Y-69250000D01*
X120060000Y-63750000D02*
X115760000Y-63750000D01*
X120060000Y-66700000D02*
X120060000Y-63750000D01*
X120810000Y-66700000D02*
X120060000Y-66700000D01*
X120810000Y-68200000D02*
X119010000Y-68200000D01*
X120810000Y-68950000D02*
X120810000Y-68200000D01*
X120820000Y-62990000D02*
X110700000Y-62990000D01*
X120820000Y-68960000D02*
X120820000Y-62990000D01*
X121110000Y-69250000D02*
X121110000Y-68000000D01*
%TO.C,D5*%
X95675000Y-48403223D02*
X96675000Y-48403223D01*
X95675000Y-51103223D02*
X96675000Y-51103223D01*
D12*
X96975000Y-51103223D02*
G75*
G02*
X96875000Y-51103223I-50000J0D01*
G01*
X96875000Y-51103223D02*
G75*
G02*
X96975000Y-51103223I50000J0D01*
G01*
D14*
%TO.C,TP1*%
X105120000Y-68510000D02*
G75*
G02*
X103720000Y-68510000I-700000J0D01*
G01*
X103720000Y-68510000D02*
G75*
G02*
X105120000Y-68510000I700000J0D01*
G01*
D11*
%TO.C,J5*%
X93600000Y-65735000D02*
X93600000Y-64035000D01*
X102940000Y-65735000D02*
X102940000Y-64035000D01*
%TO.C,R7*%
X111267836Y-56620000D02*
X111052164Y-56620000D01*
X111267836Y-57340000D02*
X111052164Y-57340000D01*
%TO.C,J2*%
X92140000Y-44150000D02*
X92140000Y-60450000D01*
X102330000Y-42190000D02*
X102330000Y-40860000D01*
X103660000Y-42190000D02*
X102330000Y-42190000D01*
X104930000Y-39530000D02*
X112610000Y-39530000D01*
X104930000Y-42190000D02*
X104930000Y-39530000D01*
X104930000Y-42190000D02*
X112610000Y-42190000D01*
X112610000Y-42190000D02*
X112610000Y-39530000D01*
X122800000Y-44150000D02*
X122800000Y-60450000D01*
D12*
%TO.C,S2*%
X107045000Y-59865000D02*
X107045000Y-57265000D01*
D13*
X107345000Y-60565000D02*
X107345000Y-60565000D01*
X107545000Y-60565000D02*
X107545000Y-60565000D01*
D12*
X108645000Y-59890000D02*
X108645000Y-57240000D01*
D13*
X107345000Y-60565000D02*
G75*
G02*
X107545000Y-60565000I100000J0D01*
G01*
X107545000Y-60565000D02*
G75*
G02*
X107345000Y-60565000I-100000J0D01*
G01*
D15*
%TO.C,IC4*%
X110830000Y-54590000D02*
G75*
G02*
X110580000Y-54590000I-125000J0D01*
G01*
X110580000Y-54590000D02*
G75*
G02*
X110830000Y-54590000I125000J0D01*
G01*
D11*
%TO.C,C4*%
X107690000Y-64467836D02*
X107690000Y-64252164D01*
X108410000Y-64467836D02*
X108410000Y-64252164D01*
%TO.C,C7*%
X102870000Y-46157836D02*
X102870000Y-45942164D01*
X103590000Y-46157836D02*
X103590000Y-45942164D01*
%TD*%
M02*
