%TF.GenerationSoftware,KiCad,Pcbnew,7.0.8*%
%TF.CreationDate,2024-03-19T19:35:36+01:00*%
%TF.ProjectId,neopixel_eliot_hat,6e656f70-6978-4656-9c5f-656c696f745f,rev?*%
%TF.SameCoordinates,Original*%
%TF.FileFunction,Soldermask,Bot*%
%TF.FilePolarity,Negative*%
%FSLAX46Y46*%
G04 Gerber Fmt 4.6, Leading zero omitted, Abs format (unit mm)*
G04 Created by KiCad (PCBNEW 7.0.8) date 2024-03-19 19:35:36*
%MOMM*%
%LPD*%
G01*
G04 APERTURE LIST*
G04 Aperture macros list*
%AMRoundRect*
0 Rectangle with rounded corners*
0 $1 Rounding radius*
0 $2 $3 $4 $5 $6 $7 $8 $9 X,Y pos of 4 corners*
0 Add a 4 corners polygon primitive as box body*
4,1,4,$2,$3,$4,$5,$6,$7,$8,$9,$2,$3,0*
0 Add four circle primitives for the rounded corners*
1,1,$1+$1,$2,$3*
1,1,$1+$1,$4,$5*
1,1,$1+$1,$6,$7*
1,1,$1+$1,$8,$9*
0 Add four rect primitives between the rounded corners*
20,1,$1+$1,$2,$3,$4,$5,0*
20,1,$1+$1,$4,$5,$6,$7,0*
20,1,$1+$1,$6,$7,$8,$9,0*
20,1,$1+$1,$8,$9,$2,$3,0*%
G04 Aperture macros list end*
%ADD10C,0.458000*%
%ADD11R,2.000000X2.000000*%
%ADD12O,2.000000X2.000000*%
%ADD13O,1.700000X1.700000*%
%ADD14R,1.200000X0.500000*%
%ADD15R,0.700000X0.700000*%
%ADD16RoundRect,0.200000X-0.200000X-0.275000X0.200000X-0.275000X0.200000X0.275000X-0.200000X0.275000X0*%
%ADD17RoundRect,0.225000X-0.250000X0.225000X-0.250000X-0.225000X0.250000X-0.225000X0.250000X0.225000X0*%
%ADD18C,0.650000*%
%ADD19RoundRect,0.150000X0.150000X0.425000X-0.150000X0.425000X-0.150000X-0.425000X0.150000X-0.425000X0*%
%ADD20RoundRect,0.075000X0.075000X0.500000X-0.075000X0.500000X-0.075000X-0.500000X0.075000X-0.500000X0*%
%ADD21O,1.000000X1.800000*%
%ADD22O,1.000000X2.100000*%
%ADD23RoundRect,0.237500X-0.237500X0.300000X-0.237500X-0.300000X0.237500X-0.300000X0.237500X0.300000X0*%
%ADD24RoundRect,0.237500X0.237500X-0.300000X0.237500X0.300000X-0.237500X0.300000X-0.237500X-0.300000X0*%
%ADD25RoundRect,0.225000X-0.225000X-0.250000X0.225000X-0.250000X0.225000X0.250000X-0.225000X0.250000X0*%
%ADD26R,1.500000X2.000000*%
%ADD27R,3.800000X2.000000*%
%ADD28RoundRect,0.062500X0.337500X0.062500X-0.337500X0.062500X-0.337500X-0.062500X0.337500X-0.062500X0*%
%ADD29RoundRect,0.062500X0.062500X0.337500X-0.062500X0.337500X-0.062500X-0.337500X0.062500X-0.337500X0*%
%ADD30R,3.350000X3.350000*%
%ADD31R,0.850000X0.850000*%
%ADD32O,0.850000X0.850000*%
%ADD33RoundRect,0.150000X-0.512500X-0.150000X0.512500X-0.150000X0.512500X0.150000X-0.512500X0.150000X0*%
%ADD34R,5.300000X2.000000*%
%ADD35RoundRect,0.250000X0.725000X-0.600000X0.725000X0.600000X-0.725000X0.600000X-0.725000X-0.600000X0*%
%ADD36O,1.950000X1.700000*%
%ADD37RoundRect,0.135000X0.135000X0.185000X-0.135000X0.185000X-0.135000X-0.185000X0.135000X-0.185000X0*%
G04 APERTURE END LIST*
D10*
%TO.C,LV1*%
X152080000Y-95047500D03*
X153350000Y-95047500D03*
X154620000Y-95047500D03*
X155890000Y-95047500D03*
X157160000Y-95047500D03*
X158430000Y-95047500D03*
%TD*%
D11*
%TO.C,J2*%
X149265000Y-64425000D03*
D12*
X151805000Y-64425000D03*
D13*
X139075000Y-69505000D03*
X139075000Y-72045000D03*
X139075000Y-74585000D03*
X139075000Y-77125000D03*
X139075000Y-79665000D03*
X139075000Y-82205000D03*
X167075000Y-82205000D03*
X167075000Y-79665000D03*
X167075000Y-77125000D03*
X167075000Y-74585000D03*
X167075000Y-72045000D03*
X167075000Y-69505000D03*
D12*
X154345000Y-64425000D03*
X156885000Y-64425000D03*
%TD*%
D14*
%TO.C,S2*%
X155475000Y-74500000D03*
X149575000Y-74500000D03*
D15*
X154675000Y-75500000D03*
X154675000Y-73500000D03*
X150375000Y-75500000D03*
X150375000Y-73500000D03*
%TD*%
D16*
%TO.C,R16*%
X159210000Y-88790000D03*
X160860000Y-88790000D03*
%TD*%
D14*
%TO.C,S1*%
X155475000Y-71050000D03*
X149575000Y-71050000D03*
D15*
X154675000Y-72050000D03*
X154675000Y-70050000D03*
X150375000Y-72050000D03*
X150375000Y-70050000D03*
%TD*%
D17*
%TO.C,C8*%
X162275000Y-70575000D03*
X162275000Y-72125000D03*
%TD*%
%TO.C,C9*%
X163775000Y-70575000D03*
X163775000Y-72125000D03*
%TD*%
D18*
%TO.C,J4*%
X146080000Y-89362500D03*
X140300000Y-89362500D03*
D19*
X146390000Y-88287500D03*
X145590000Y-88287500D03*
D20*
X144440000Y-88287500D03*
X143440000Y-88287500D03*
X142940000Y-88287500D03*
X141940000Y-88287500D03*
D19*
X140790000Y-88287500D03*
X139990000Y-88287500D03*
X139990000Y-88287500D03*
X140790000Y-88287500D03*
D20*
X141440000Y-88287500D03*
X142440000Y-88287500D03*
X143940000Y-88287500D03*
X144940000Y-88287500D03*
D19*
X145590000Y-88287500D03*
X146390000Y-88287500D03*
D21*
X147510000Y-93042500D03*
D22*
X147510000Y-88862500D03*
D21*
X138870000Y-93042500D03*
D22*
X138870000Y-88862500D03*
%TD*%
D23*
%TO.C,C13*%
X147725000Y-66287500D03*
X147725000Y-68012500D03*
%TD*%
D24*
%TO.C,C12*%
X149300000Y-68025000D03*
X149300000Y-66300000D03*
%TD*%
D16*
%TO.C,R12*%
X156085000Y-88790000D03*
X157735000Y-88790000D03*
%TD*%
D25*
%TO.C,C14*%
X159210000Y-87240000D03*
X160760000Y-87240000D03*
%TD*%
D26*
%TO.C,U2*%
X140950000Y-64425000D03*
X143250000Y-64425000D03*
D27*
X143250000Y-70725000D03*
D26*
X145550000Y-64425000D03*
%TD*%
D28*
%TO.C,U3*%
X160815000Y-81875000D03*
X160815000Y-82375000D03*
X160815000Y-82875000D03*
X160815000Y-83375000D03*
X160815000Y-83875000D03*
X160815000Y-84375000D03*
X160815000Y-84875000D03*
D29*
X159865000Y-85825000D03*
X159365000Y-85825000D03*
X158865000Y-85825000D03*
X158365000Y-85825000D03*
X157865000Y-85825000D03*
X157365000Y-85825000D03*
X156865000Y-85825000D03*
D28*
X155915000Y-84875000D03*
X155915000Y-84375000D03*
X155915000Y-83875000D03*
X155915000Y-83375000D03*
X155915000Y-82875000D03*
X155915000Y-82375000D03*
X155915000Y-81875000D03*
D29*
X156865000Y-80925000D03*
X157365000Y-80925000D03*
X157865000Y-80925000D03*
X158365000Y-80925000D03*
X158865000Y-80925000D03*
X159365000Y-80925000D03*
X159865000Y-80925000D03*
D30*
X158365000Y-83375000D03*
%TD*%
D31*
%TO.C,J3*%
X162250000Y-68175000D03*
D32*
X161250000Y-68175000D03*
X160250000Y-68175000D03*
X159250000Y-68175000D03*
X158250000Y-68175000D03*
X157250000Y-68175000D03*
X156250000Y-68175000D03*
%TD*%
D33*
%TO.C,U4*%
X142175000Y-86425000D03*
X142175000Y-85475000D03*
X142175000Y-84525000D03*
X144450000Y-84525000D03*
X144450000Y-85475000D03*
X144450000Y-86425000D03*
%TD*%
D34*
%TO.C,F1*%
X143510000Y-82040000D03*
X143510000Y-75440000D03*
%TD*%
D35*
%TO.C,J1*%
X165450000Y-93425000D03*
D36*
X165450000Y-90925000D03*
X165450000Y-88425000D03*
%TD*%
D37*
%TO.C,R19*%
X157120000Y-87050000D03*
X156100000Y-87050000D03*
%TD*%
M02*
