M48
; DRILL file {KiCad 8.0.7} date 2024-12-18T23:49:57+0100
; FORMAT={-:-/ absolute / inch / decimal}
; #@! TF.CreationDate,2024-12-18T23:49:57+01:00
; #@! TF.GenerationSoftware,Kicad,Pcbnew,8.0.7
; #@! TF.FileFunction,Plated,1,4,PTH
FMAT,2
INCH
; #@! TA.AperFunction,Plated,PTH,ViaDrill
T1C0.0118
; #@! TA.AperFunction,Plated,PTH,ComponentDrill
T2C0.0236
; #@! TA.AperFunction,Plated,PTH,ComponentDrill
T3C0.0256
; #@! TA.AperFunction,Plated,PTH,ComponentDrill
T4C0.0374
; #@! TA.AperFunction,Plated,PTH,ComponentDrill
T5C0.0394
%
G90
G05
T1
X3.6524Y-1.9579
X3.6984Y-2.4098
X3.6988Y-2.5331
X3.6988Y-2.5776
X3.6988Y-2.6929
X3.7559Y-1.8016
X3.7665Y-2.3079
X3.8059Y-1.7661
X3.8313Y-1.5937
X3.8441Y-1.828
X3.8753Y-1.8111
X3.8957Y-2.1004
X3.915Y-2.2031
X3.9189Y-2.1681
X3.9374Y-2.3339
X3.939Y-2.0974
X3.972Y-2.1717
X3.9736Y-2.2118
X4.0Y-2.0876
X4.0041Y-1.6439
X4.0079Y-1.7543
X4.013Y-1.7193
X4.0148Y-1.9193
X4.0209Y-1.7873
X4.0246Y-2.0148
X4.0253Y-1.5552
X4.0303Y-1.8282
X4.0386Y-2.6913
X4.0393Y-2.4126
X4.0394Y-2.5358
X4.0394Y-2.5748
X4.0423Y-2.128
X4.0425Y-1.8634
X4.0597Y-1.6613
X4.0626Y-1.5555
X4.0652Y-2.2659
X4.072Y-1.6945
X4.089Y-2.2886
X4.0894Y-2.5488
X4.0921Y-2.5114
X4.1Y-1.5555
X4.1008Y-2.622
X4.1043Y-1.6618
X4.1276Y-2.5959
X4.1449Y-2.2372
X4.1461Y-2.1996
X4.1752Y-1.9839
X4.1791Y-2.0469
X4.1791Y-2.2524
X4.202Y-2.3191
X4.2066Y-1.7524
X4.2402Y-1.7718
X4.2596Y-2.0469
X4.2667Y-1.7483
X4.2925Y-1.7898
X4.3037Y-1.7266
X4.3142Y-2.2185
X4.3201Y-1.826
X4.3339Y-1.7575
X4.3508Y-2.5571
X4.3563Y-2.4732
X4.3563Y-2.5016
X4.3646Y-1.787
X4.3665Y-2.2173
X4.3854Y-2.4732
X4.3854Y-2.5016
X4.3969Y-2.5484
X4.402Y-2.2146
X4.4083Y-2.3969
X4.4177Y-2.116
X4.4319Y-1.6697
X4.4461Y-1.8613
X4.4724Y-1.7028
X4.4849Y-2.1221
X4.4929Y-1.7382
X4.5148Y-2.0791
X4.5217Y-1.7398
X4.5228Y-2.5469
X4.5327Y-1.7024
X4.5602Y-1.8937
X4.5665Y-1.6941
X4.5677Y-2.1252
X4.5768Y-2.1638
X4.5984Y-2.3165
X4.6118Y-1.7681
X4.6118Y-1.8285
X4.6118Y-1.889
X4.6118Y-1.9494
X4.6118Y-2.0098
X4.6118Y-2.0703
X4.6118Y-2.1307
X4.6126Y-2.1665
X4.626Y-2.5469
X4.6394Y-1.5936
X4.6563Y-2.6835
X4.7001Y-1.6543
X4.7157Y-2.6185
X4.7193Y-2.5496
X4.7382Y-2.5264
X4.7386Y-2.572
X4.7433Y-2.3941
X4.7559Y-2.5492
T2
X4.111Y-2.6972
X4.1402Y-2.4358
X4.4039Y-1.8343
T3
X3.7055Y-1.628
X3.7055Y-1.678
X3.7555Y-1.628
X3.7555Y-1.678
X3.8055Y-1.628
X3.8055Y-1.678
X3.8555Y-1.628
X3.8555Y-1.678
X3.9055Y-1.628
X3.9055Y-1.678
T4
X4.4591Y-2.6181
X4.5575Y-2.6181
X4.6559Y-2.6181
T5
X3.6799Y-1.8087
X3.6799Y-1.9087
X3.6799Y-2.0087
X3.6799Y-2.1087
X3.6799Y-2.2087
X3.6799Y-2.3087
X4.0811Y-1.6087
X4.1811Y-1.6087
X4.2811Y-1.6087
X4.3811Y-1.6087
X4.7823Y-1.8087
X4.7823Y-1.9087
X4.7823Y-2.0087
X4.7823Y-2.1087
X4.7823Y-2.2087
X4.7823Y-2.3087
T2
G00X3.6988Y-2.448
M15
G01X3.6988Y-2.4913
M16
G05
G00X3.6988Y-2.6185
M15
G01X3.6988Y-2.65
M16
G05
G00X4.039Y-2.448
M15
G01X4.039Y-2.4913
M16
G05
G00X4.039Y-2.6185
M15
G01X4.039Y-2.65
M16
G05
M30
