%TF.GenerationSoftware,KiCad,Pcbnew,7.0.8*%
%TF.CreationDate,2024-07-27T19:07:12+04:00*%
%TF.ProjectId,neopixel_eliot_hat,6e656f70-6978-4656-9c5f-656c696f745f,rev?*%
%TF.SameCoordinates,Original*%
%TF.FileFunction,Copper,L4,Bot*%
%TF.FilePolarity,Positive*%
%FSLAX46Y46*%
G04 Gerber Fmt 4.6, Leading zero omitted, Abs format (unit mm)*
G04 Created by KiCad (PCBNEW 7.0.8) date 2024-07-27 19:07:12*
%MOMM*%
%LPD*%
G01*
G04 APERTURE LIST*
G04 Aperture macros list*
%AMRoundRect*
0 Rectangle with rounded corners*
0 $1 Rounding radius*
0 $2 $3 $4 $5 $6 $7 $8 $9 X,Y pos of 4 corners*
0 Add a 4 corners polygon primitive as box body*
4,1,4,$2,$3,$4,$5,$6,$7,$8,$9,$2,$3,0*
0 Add four circle primitives for the rounded corners*
1,1,$1+$1,$2,$3*
1,1,$1+$1,$4,$5*
1,1,$1+$1,$6,$7*
1,1,$1+$1,$8,$9*
0 Add four rect primitives between the rounded corners*
20,1,$1+$1,$2,$3,$4,$5,0*
20,1,$1+$1,$4,$5,$6,$7,0*
20,1,$1+$1,$6,$7,$8,$9,0*
20,1,$1+$1,$8,$9,$2,$3,0*%
G04 Aperture macros list end*
%TA.AperFunction,SMDPad,CuDef*%
%ADD10RoundRect,0.225000X-0.225000X-0.375000X0.225000X-0.375000X0.225000X0.375000X-0.225000X0.375000X0*%
%TD*%
%TA.AperFunction,SMDPad,CuDef*%
%ADD11RoundRect,0.225000X0.225000X0.250000X-0.225000X0.250000X-0.225000X-0.250000X0.225000X-0.250000X0*%
%TD*%
%TA.AperFunction,SMDPad,CuDef*%
%ADD12RoundRect,0.200000X-0.200000X-0.275000X0.200000X-0.275000X0.200000X0.275000X-0.200000X0.275000X0*%
%TD*%
%TA.AperFunction,SMDPad,CuDef*%
%ADD13RoundRect,0.225000X-0.225000X-0.250000X0.225000X-0.250000X0.225000X0.250000X-0.225000X0.250000X0*%
%TD*%
%TA.AperFunction,SMDPad,CuDef*%
%ADD14R,0.600000X0.800000*%
%TD*%
%TA.AperFunction,SMDPad,CuDef*%
%ADD15R,2.000000X1.500000*%
%TD*%
%TA.AperFunction,SMDPad,CuDef*%
%ADD16R,2.000000X3.800000*%
%TD*%
%TA.AperFunction,SMDPad,CuDef*%
%ADD17RoundRect,0.200000X-0.275000X0.200000X-0.275000X-0.200000X0.275000X-0.200000X0.275000X0.200000X0*%
%TD*%
%TA.AperFunction,ComponentPad*%
%ADD18C,1.200000*%
%TD*%
%TA.AperFunction,ComponentPad*%
%ADD19RoundRect,0.200000X-0.450000X0.200000X-0.450000X-0.200000X0.450000X-0.200000X0.450000X0.200000X0*%
%TD*%
%TA.AperFunction,SMDPad,CuDef*%
%ADD20RoundRect,0.150000X-0.700000X0.150000X-0.700000X-0.150000X0.700000X-0.150000X0.700000X0.150000X0*%
%TD*%
%TA.AperFunction,ComponentPad*%
%ADD21O,1.300000X0.800000*%
%TD*%
%TA.AperFunction,SMDPad,CuDef*%
%ADD22RoundRect,0.250000X-1.100000X0.250000X-1.100000X-0.250000X1.100000X-0.250000X1.100000X0.250000X0*%
%TD*%
%TA.AperFunction,SMDPad,CuDef*%
%ADD23RoundRect,0.135000X0.135000X0.185000X-0.135000X0.185000X-0.135000X-0.185000X0.135000X-0.185000X0*%
%TD*%
%TA.AperFunction,SMDPad,CuDef*%
%ADD24RoundRect,0.225000X-0.250000X0.225000X-0.250000X-0.225000X0.250000X-0.225000X0.250000X0.225000X0*%
%TD*%
%TA.AperFunction,SMDPad,CuDef*%
%ADD25RoundRect,0.135000X0.185000X-0.135000X0.185000X0.135000X-0.185000X0.135000X-0.185000X-0.135000X0*%
%TD*%
%TA.AperFunction,ComponentPad*%
%ADD26RoundRect,0.250000X0.725000X-0.600000X0.725000X0.600000X-0.725000X0.600000X-0.725000X-0.600000X0*%
%TD*%
%TA.AperFunction,ComponentPad*%
%ADD27O,1.950000X1.700000*%
%TD*%
%TA.AperFunction,SMDPad,CuDef*%
%ADD28RoundRect,0.243750X0.243750X0.456250X-0.243750X0.456250X-0.243750X-0.456250X0.243750X-0.456250X0*%
%TD*%
%TA.AperFunction,SMDPad,CuDef*%
%ADD29RoundRect,0.150000X-0.512500X-0.150000X0.512500X-0.150000X0.512500X0.150000X-0.512500X0.150000X0*%
%TD*%
%TA.AperFunction,SMDPad,CuDef*%
%ADD30RoundRect,0.062500X0.350000X0.062500X-0.350000X0.062500X-0.350000X-0.062500X0.350000X-0.062500X0*%
%TD*%
%TA.AperFunction,SMDPad,CuDef*%
%ADD31RoundRect,0.062500X0.062500X0.350000X-0.062500X0.350000X-0.062500X-0.350000X0.062500X-0.350000X0*%
%TD*%
%TA.AperFunction,ComponentPad*%
%ADD32C,0.500000*%
%TD*%
%TA.AperFunction,SMDPad,CuDef*%
%ADD33R,2.600000X2.600000*%
%TD*%
%TA.AperFunction,SMDPad,CuDef*%
%ADD34RoundRect,0.140000X-0.170000X0.140000X-0.170000X-0.140000X0.170000X-0.140000X0.170000X0.140000X0*%
%TD*%
%TA.AperFunction,SMDPad,CuDef*%
%ADD35RoundRect,0.200000X0.275000X-0.200000X0.275000X0.200000X-0.275000X0.200000X-0.275000X-0.200000X0*%
%TD*%
%TA.AperFunction,SMDPad,CuDef*%
%ADD36RoundRect,0.150000X0.587500X0.150000X-0.587500X0.150000X-0.587500X-0.150000X0.587500X-0.150000X0*%
%TD*%
%TA.AperFunction,SMDPad,CuDef*%
%ADD37RoundRect,0.218750X-0.256250X0.218750X-0.256250X-0.218750X0.256250X-0.218750X0.256250X0.218750X0*%
%TD*%
%TA.AperFunction,SMDPad,CuDef*%
%ADD38R,0.400000X1.350000*%
%TD*%
%TA.AperFunction,ComponentPad*%
%ADD39O,1.200000X1.900000*%
%TD*%
%TA.AperFunction,SMDPad,CuDef*%
%ADD40R,1.200000X1.900000*%
%TD*%
%TA.AperFunction,ComponentPad*%
%ADD41C,1.450000*%
%TD*%
%TA.AperFunction,SMDPad,CuDef*%
%ADD42R,1.500000X1.900000*%
%TD*%
%TA.AperFunction,ComponentPad*%
%ADD43R,2.000000X2.000000*%
%TD*%
%TA.AperFunction,ComponentPad*%
%ADD44O,2.000000X2.000000*%
%TD*%
%TA.AperFunction,ComponentPad*%
%ADD45O,1.700000X1.700000*%
%TD*%
%TA.AperFunction,ViaPad*%
%ADD46C,0.700000*%
%TD*%
%TA.AperFunction,Conductor*%
%ADD47C,0.500000*%
%TD*%
%TA.AperFunction,Conductor*%
%ADD48C,1.000000*%
%TD*%
%TA.AperFunction,Conductor*%
%ADD49C,0.200000*%
%TD*%
%TA.AperFunction,Conductor*%
%ADD50C,0.300000*%
%TD*%
%TA.AperFunction,Conductor*%
%ADD51C,2.000000*%
%TD*%
%TA.AperFunction,Conductor*%
%ADD52C,1.500000*%
%TD*%
%TA.AperFunction,Conductor*%
%ADD53C,0.250000*%
%TD*%
G04 APERTURE END LIST*
D10*
%TO.P,D3,1,A1*%
%TO.N,GND*%
X105035500Y-74207000D03*
%TO.P,D3,2,A2*%
%TO.N,VBUS*%
X108335500Y-74207000D03*
%TD*%
D11*
%TO.P,C14,2*%
%TO.N,GND*%
X101773000Y-58819500D03*
%TO.P,C14,1*%
%TO.N,+3V3*%
X103323000Y-58819500D03*
%TD*%
D12*
%TO.P,R12,2*%
%TO.N,+3V3*%
X103323000Y-60394500D03*
%TO.P,R12,1*%
%TO.N,Net-(D2-A)*%
X101673000Y-60394500D03*
%TD*%
D13*
%TO.P,C18,1*%
%TO.N,GND*%
X101225000Y-62850000D03*
%TO.P,C18,2*%
%TO.N,+3V3*%
X102775000Y-62850000D03*
%TD*%
%TO.P,C17,1*%
%TO.N,GND*%
X101225000Y-64350000D03*
%TO.P,C17,2*%
%TO.N,+3V3*%
X102775000Y-64350000D03*
%TD*%
D14*
%TO.P,Q2,1*%
%TO.N,/base_Q2*%
X106935500Y-65154500D03*
%TO.P,Q2,2*%
%TO.N,/DTR*%
X105035500Y-65154500D03*
%TO.P,Q2,3*%
%TO.N,/GPIO0*%
X105985500Y-63134500D03*
%TD*%
D15*
%TO.P,U2,1,ADJ*%
%TO.N,GND*%
X105535500Y-61169500D03*
%TO.P,U2,2,VO*%
%TO.N,+3V3*%
X105535500Y-58869500D03*
D16*
X111835500Y-58869500D03*
D15*
%TO.P,U2,3,VI*%
%TO.N,+5V_MCU*%
X105535500Y-56569500D03*
%TD*%
D11*
%TO.P,C8,1*%
%TO.N,+3V3*%
X115450000Y-71900000D03*
%TO.P,C8,2*%
%TO.N,GND*%
X113900000Y-71900000D03*
%TD*%
D17*
%TO.P,R21,1*%
%TO.N,/DTR*%
X105010500Y-66469500D03*
%TO.P,R21,2*%
%TO.N,/base_Q1*%
X105010500Y-68119500D03*
%TD*%
D11*
%TO.P,C9,2*%
%TO.N,GND*%
X113900000Y-73425000D03*
%TO.P,C9,1*%
%TO.N,+3V3*%
X115450000Y-73425000D03*
%TD*%
D18*
%TO.P,TP3,1,1*%
%TO.N,/U0RXD*%
X97550000Y-64800000D03*
%TD*%
%TO.P,TP2,1,1*%
%TO.N,VBUS_REV*%
X103050000Y-75119500D03*
%TD*%
%TO.P,TP8,1,1*%
%TO.N,/RTS*%
X102925000Y-67725000D03*
%TD*%
D17*
%TO.P,R19,1*%
%TO.N,/VBUS_USB*%
X100810500Y-72869500D03*
%TO.P,R19,2*%
%TO.N,GND*%
X100810500Y-74519500D03*
%TD*%
D19*
%TO.P,J7,1,Pin_1*%
%TO.N,+3V3*%
X114535500Y-76719500D03*
D20*
X113460500Y-76719500D03*
D21*
%TO.P,J7,2,Pin_2*%
%TO.N,/JTCK_SIG*%
X114535500Y-77969500D03*
D20*
X113460500Y-77969500D03*
D21*
%TO.P,J7,3,Pin_3*%
%TO.N,/JTMS_SIG*%
X114535500Y-79219500D03*
D20*
X113460500Y-79219500D03*
D21*
%TO.P,J7,4,Pin_4*%
%TO.N,/JTD0_SIG*%
X114535500Y-80469500D03*
D20*
X113460500Y-80469500D03*
D21*
%TO.P,J7,5,Pin_5*%
%TO.N,/JTDI_SIG*%
X114535500Y-81719500D03*
D20*
X113460500Y-81719500D03*
D21*
%TO.P,J7,6,Pin_6*%
%TO.N,GND*%
X114535500Y-82969500D03*
D20*
X113460500Y-82969500D03*
D22*
%TO.P,J7,MP*%
%TO.N,N/C*%
X116660500Y-74869500D03*
X116660500Y-84819500D03*
%TD*%
D23*
%TO.P,R20,1*%
%TO.N,/SUSPENDb*%
X95420500Y-69219500D03*
%TO.P,R20,2*%
%TO.N,GND*%
X94400500Y-69219500D03*
%TD*%
D17*
%TO.P,R6,1*%
%TO.N,/U0TXD*%
X96685500Y-60619500D03*
%TO.P,R6,2*%
%TO.N,/U0TXD_R*%
X96685500Y-62269500D03*
%TD*%
D24*
%TO.P,C16,2*%
%TO.N,GND*%
X99285500Y-74419500D03*
%TO.P,C16,1*%
%TO.N,/VBUS_USB*%
X99285500Y-72869500D03*
%TD*%
D25*
%TO.P,R22,1*%
%TO.N,+3V3*%
X96485500Y-73644500D03*
%TO.P,R22,2*%
%TO.N,/RSTb*%
X96485500Y-72624500D03*
%TD*%
D26*
%TO.P,J1,1,Pin_1*%
%TO.N,GND*%
X92860500Y-82619500D03*
D27*
%TO.P,J1,2,Pin_2*%
%TO.N,/DATA_5V*%
X92860500Y-80119500D03*
%TO.P,J1,3,Pin_3*%
%TO.N,+5V_MCU*%
X92860500Y-77619500D03*
%TD*%
D28*
%TO.P,F1,1*%
%TO.N,Net-(Q3-S)*%
X111612500Y-77250000D03*
%TO.P,F1,2*%
%TO.N,VBUS_REV*%
X109737500Y-77250000D03*
%TD*%
D18*
%TO.P,TP9,1,1*%
%TO.N,/GPIO0*%
X112325000Y-65250000D03*
%TD*%
%TO.P,TP7,1,1*%
%TO.N,/DTR*%
X99250000Y-64800000D03*
%TD*%
%TO.P,TP1,1,1*%
%TO.N,/SIGNAL_LED*%
X103075000Y-77525000D03*
%TD*%
D29*
%TO.P,U3,1,IO1*%
%TO.N,/D+*%
X105635500Y-78207000D03*
%TO.P,U3,2,VN*%
%TO.N,GND*%
X105635500Y-77257000D03*
%TO.P,U3,3,IO2*%
%TO.N,unconnected-(U3-IO2-Pad3)*%
X105635500Y-76307000D03*
%TO.P,U3,4,IO3*%
%TO.N,unconnected-(U3-IO3-Pad4)*%
X107910500Y-76307000D03*
%TO.P,U3,5,VP*%
%TO.N,VBUS_REV*%
X107910500Y-77257000D03*
%TO.P,U3,6,IO4*%
%TO.N,/D-*%
X107910500Y-78207000D03*
%TD*%
D30*
%TO.P,U5,1,~{RI}/CLK*%
%TO.N,unconnected-(U5-~{RI}{slash}CLK-Pad1)*%
X100473000Y-67719500D03*
%TO.P,U5,2,GND*%
%TO.N,GND*%
X100473000Y-68219500D03*
%TO.P,U5,3,D+*%
%TO.N,/D+*%
X100473000Y-68719500D03*
%TO.P,U5,4,D-*%
%TO.N,/D-*%
X100473000Y-69219500D03*
%TO.P,U5,5,VIO*%
%TO.N,+3V3*%
X100473000Y-69719500D03*
%TO.P,U5,6,VDD*%
X100473000Y-70219500D03*
D31*
%TO.P,U5,7,VREGIN*%
X99785500Y-70907000D03*
%TO.P,U5,8,VBUS*%
%TO.N,/VBUS_USB*%
X99285500Y-70907000D03*
%TO.P,U5,9,~{RST}*%
%TO.N,/RSTb*%
X98785500Y-70907000D03*
%TO.P,U5,10,NC*%
%TO.N,unconnected-(U5-NC-Pad10)*%
X98285500Y-70907000D03*
%TO.P,U5,11,~{WAKEUP}/GPIO.3*%
%TO.N,unconnected-(U5-~{WAKEUP}{slash}GPIO.3-Pad11)*%
X97785500Y-70907000D03*
%TO.P,U5,12,RS485/GPIO.2*%
%TO.N,unconnected-(U5-RS485{slash}GPIO.2-Pad12)*%
X97285500Y-70907000D03*
D30*
%TO.P,U5,13,~{RXT}/GPIO.1*%
%TO.N,unconnected-(U5-~{RXT}{slash}GPIO.1-Pad13)*%
X96598000Y-70219500D03*
%TO.P,U5,14,~{TXT}/GPIO.0*%
%TO.N,unconnected-(U5-~{TXT}{slash}GPIO.0-Pad14)*%
X96598000Y-69719500D03*
%TO.P,U5,15,~{SUSPEND}*%
%TO.N,/SUSPENDb*%
X96598000Y-69219500D03*
%TO.P,U5,16,NC*%
%TO.N,unconnected-(U5-NC-Pad16)*%
X96598000Y-68719500D03*
%TO.P,U5,17,SUSPEND*%
%TO.N,unconnected-(U5-SUSPEND-Pad17)*%
X96598000Y-68219500D03*
%TO.P,U5,18,~{CTS}*%
%TO.N,unconnected-(U5-~{CTS}-Pad18)*%
X96598000Y-67719500D03*
D31*
%TO.P,U5,19,~{RTS}*%
%TO.N,/RTS*%
X97285500Y-67032000D03*
%TO.P,U5,20,RXD*%
%TO.N,/U0TXD_R*%
X97785500Y-67032000D03*
%TO.P,U5,21,TXD*%
%TO.N,/U0RXD*%
X98285500Y-67032000D03*
%TO.P,U5,22,~{DSR}*%
%TO.N,unconnected-(U5-~{DSR}-Pad22)*%
X98785500Y-67032000D03*
%TO.P,U5,23,~{DTR}*%
%TO.N,/DTR*%
X99285500Y-67032000D03*
%TO.P,U5,24,~{DCD}*%
%TO.N,unconnected-(U5-~{DCD}-Pad24)*%
X99785500Y-67032000D03*
D32*
%TO.P,U5,25,GND*%
%TO.N,GND*%
X99585500Y-70019500D03*
X99585500Y-68969500D03*
X99585500Y-67919500D03*
X98535500Y-70019500D03*
X98535500Y-68969500D03*
D33*
X98535500Y-68969500D03*
D32*
X98535500Y-67919500D03*
X97485500Y-70019500D03*
X97485500Y-68969500D03*
X97485500Y-67919500D03*
%TD*%
D34*
%TO.P,C10,2*%
%TO.N,GND*%
X101735500Y-71379500D03*
%TO.P,C10,1*%
%TO.N,+3V3*%
X101735500Y-70419500D03*
%TD*%
D35*
%TO.P,R18,1*%
%TO.N,VBUS_REV*%
X97760500Y-74519500D03*
%TO.P,R18,2*%
%TO.N,/VBUS_USB*%
X97760500Y-72869500D03*
%TD*%
D18*
%TO.P,TP6,1,1*%
%TO.N,/EN*%
X109310500Y-69244500D03*
%TD*%
D14*
%TO.P,Q1,1*%
%TO.N,/base_Q1*%
X104985500Y-69434500D03*
%TO.P,Q1,2*%
%TO.N,/RTS*%
X106885500Y-69434500D03*
%TO.P,Q1,3*%
%TO.N,/EN*%
X105935500Y-71454500D03*
%TD*%
D36*
%TO.P,Q3,1,G*%
%TO.N,GND*%
X111962500Y-73250000D03*
%TO.P,Q3,2,S*%
%TO.N,Net-(Q3-S)*%
X111962500Y-75150000D03*
%TO.P,Q3,3,D*%
%TO.N,VBUS*%
X110087500Y-74200000D03*
%TD*%
D37*
%TO.P,D2,1,K*%
%TO.N,GND*%
X100060500Y-58832000D03*
%TO.P,D2,2,A*%
%TO.N,Net-(D2-A)*%
X100060500Y-60407000D03*
%TD*%
D35*
%TO.P,R23,1*%
%TO.N,/RTS*%
X106885500Y-68119500D03*
%TO.P,R23,2*%
%TO.N,/base_Q2*%
X106885500Y-66469500D03*
%TD*%
D18*
%TO.P,TP4,1,1*%
%TO.N,/U0TXD_R*%
X95775000Y-64800000D03*
%TD*%
D34*
%TO.P,C11,2*%
%TO.N,GND*%
X102710500Y-71379500D03*
%TO.P,C11,1*%
%TO.N,+3V3*%
X102710500Y-70419500D03*
%TD*%
D38*
%TO.P,J5,1,VBUS*%
%TO.N,VBUS*%
X107725500Y-80367000D03*
%TO.P,J5,2,D-*%
%TO.N,/D-*%
X107075500Y-80367000D03*
%TO.P,J5,3,D+*%
%TO.N,/D+*%
X106425500Y-80367000D03*
%TO.P,J5,4,ID*%
%TO.N,unconnected-(J5-ID-Pad4)*%
X105775500Y-80367000D03*
%TO.P,J5,5,GND*%
%TO.N,GND*%
X105125500Y-80367000D03*
D39*
%TO.P,J5,6,Shield*%
X109925500Y-83067000D03*
D40*
X109325500Y-83067000D03*
D41*
X108925500Y-80367000D03*
D42*
X107425500Y-83067000D03*
X105425500Y-83067000D03*
D41*
X103925500Y-80367000D03*
D40*
X103525500Y-83067000D03*
D39*
X102925500Y-83067000D03*
%TD*%
D43*
%TO.P,J2,1,GND*%
%TO.N,GND*%
X100425500Y-53819500D03*
D44*
%TO.P,J2,2,3.3V*%
%TO.N,unconnected-(J2-3.3V-Pad2)*%
X102965500Y-53819500D03*
D45*
%TO.P,J2,3,SPI_SCK*%
%TO.N,/SPI_SCK*%
X90235500Y-58899500D03*
%TO.P,J2,4,SPI_MOSI*%
%TO.N,/SPI_MOSI*%
X90235500Y-61439500D03*
%TO.P,J2,5,SPI_MISO*%
%TO.N,/SPI_MISO*%
X90235500Y-63979500D03*
%TO.P,J2,6,SPI_CS*%
%TO.N,/SPI_CS*%
X90235500Y-66519500D03*
%TO.P,J2,7,I2C_SCL*%
%TO.N,/I2C_SCL*%
X90235500Y-69059500D03*
%TO.P,J2,8,I2C_SDA*%
%TO.N,/I2C_SDA*%
X90235500Y-71599500D03*
%TO.P,J2,9,GPIO_1*%
%TO.N,/MCU_GPIO1*%
X118235500Y-71599500D03*
%TO.P,J2,10,GPIO_2*%
%TO.N,/MCU_GPIO2*%
X118235500Y-69059500D03*
%TO.P,J2,11,GPIO_3*%
%TO.N,/MCU_GPIO3*%
X118235500Y-66519500D03*
%TO.P,J2,12,GPIO_4*%
%TO.N,/MCU_GPIO4*%
X118235500Y-63979500D03*
%TO.P,J2,13,GPIO_5*%
%TO.N,unconnected-(J2-GPIO_5-Pad13)*%
X118235500Y-61439500D03*
%TO.P,J2,14,GPIO_6*%
%TO.N,unconnected-(J2-GPIO_6-Pad14)*%
X118235500Y-58899500D03*
D44*
%TO.P,J2,15,5V*%
%TO.N,+5V_MCU*%
X105505500Y-53819500D03*
%TO.P,J2,16,5V*%
X108045500Y-53819500D03*
%TD*%
D46*
%TO.N,+3V3*%
X104610500Y-70919500D03*
X109100000Y-70900000D03*
X100835500Y-82694500D03*
X116085500Y-62044500D03*
X101200000Y-65795000D03*
X98800000Y-62744000D03*
X98810500Y-59495000D03*
%TO.N,GND*%
X101410500Y-84119500D03*
X89925000Y-55525000D03*
X109060500Y-84779500D03*
X94400000Y-70175000D03*
X93950000Y-56275000D03*
X115175000Y-58625000D03*
X91260500Y-82269500D03*
X100025000Y-76075000D03*
X99710500Y-84119500D03*
X90700000Y-55525000D03*
X91385500Y-74019500D03*
X114375000Y-55025000D03*
X98846185Y-63592246D03*
X100560500Y-84119500D03*
X101585500Y-68069500D03*
X115150000Y-55025000D03*
X115175000Y-57875000D03*
X93950000Y-54194500D03*
X93175000Y-56275000D03*
X105160500Y-60819500D03*
X111585500Y-79534500D03*
X114085500Y-84779500D03*
X93175000Y-53444500D03*
X114375000Y-55775000D03*
X108835500Y-67344500D03*
X90700000Y-54194500D03*
X90485500Y-82269500D03*
X100560500Y-84894500D03*
X105948500Y-74292240D03*
X111585500Y-80384500D03*
X97415500Y-53444500D03*
X114275000Y-62950000D03*
X96435500Y-74444500D03*
X97415500Y-54194500D03*
X98190500Y-54194500D03*
X105935500Y-60819500D03*
X89925000Y-54194500D03*
X91260500Y-83019500D03*
X90700000Y-56275000D03*
X113285500Y-84779500D03*
X102635000Y-80344500D03*
X90535500Y-74019500D03*
X109910500Y-84779500D03*
X102925500Y-84779500D03*
X111585500Y-81234500D03*
X114400000Y-58625000D03*
X112475000Y-71875000D03*
X97310000Y-82269500D03*
X115150000Y-55775000D03*
X93950000Y-55525000D03*
X103735500Y-84779500D03*
X114400000Y-57875000D03*
X115375000Y-68975000D03*
X105160500Y-61569500D03*
X102235500Y-72219500D03*
X112435500Y-84779500D03*
X93950000Y-53444500D03*
X89925000Y-53444500D03*
X105935500Y-61569500D03*
X89925000Y-56275000D03*
X89685500Y-74019500D03*
X93175000Y-55525000D03*
X98190500Y-53444500D03*
X90700000Y-53444500D03*
X93175000Y-54194500D03*
X97060500Y-58844000D03*
X90485500Y-83019500D03*
%TO.N,+5V_MCU*%
X93285500Y-67694500D03*
X92560500Y-67419500D03*
X108000000Y-56500000D03*
X92735500Y-68244500D03*
X108775000Y-57250000D03*
X108000000Y-57250000D03*
X108775000Y-56500000D03*
%TO.N,/D-*%
X106623275Y-72831169D03*
X103921376Y-69580376D03*
%TO.N,/D+*%
X106035500Y-73444500D03*
X103249624Y-68908624D03*
%TO.N,/GPIO0*%
X108995500Y-60275000D03*
%TO.N,/SIGNAL_LED*%
X110239411Y-65025589D03*
X110400000Y-68775000D03*
X99395945Y-82014000D03*
X99410500Y-77595000D03*
%TO.N,/RTS*%
X95660500Y-67074500D03*
X101420500Y-67119000D03*
%TO.N,/U0RXD*%
X97885500Y-61045000D03*
%TO.N,/U0TXD*%
X96679759Y-61370000D03*
%TO.N,VBUS_REV*%
X109100000Y-75625000D03*
X97760500Y-75619500D03*
%TO.N,/SPI_MISO*%
X95608088Y-59420000D03*
X94285500Y-60744000D03*
%TO.N,/SPI_CS*%
X91385500Y-57545000D03*
%TO.N,/JTMS_SIG*%
X111050000Y-65350000D03*
X111550500Y-68319500D03*
%TO.N,/JTCK_SIG*%
X112500000Y-69125000D03*
X112614349Y-61495000D03*
%TO.N,/JTD0_SIG*%
X115375000Y-68125497D03*
X113335000Y-60450000D03*
%TO.N,/JTDI_SIG*%
X114146570Y-65570000D03*
X115370023Y-69920023D03*
%TD*%
D47*
%TO.N,+3V3*%
X104610500Y-70919500D02*
X102198000Y-73332000D01*
D48*
X103410500Y-58819500D02*
X105485500Y-58819500D01*
D47*
X101735500Y-70419500D02*
X100673000Y-70419500D01*
X104610500Y-70919500D02*
X104110500Y-70419500D01*
X113050000Y-58875000D02*
X116135500Y-61960500D01*
X101200000Y-65795000D02*
X101980000Y-65795000D01*
X115450000Y-70900000D02*
X115450000Y-71900000D01*
D48*
X103410500Y-60394500D02*
X103410500Y-61575000D01*
D47*
X101885500Y-81644500D02*
X101885500Y-73644500D01*
D48*
X111817798Y-58851798D02*
X111835500Y-58869500D01*
D47*
X114460500Y-76719500D02*
X113460500Y-76719500D01*
X101980000Y-65795000D02*
X102862500Y-64912500D01*
X115450000Y-71900000D02*
X115450000Y-73425000D01*
X109100000Y-70900000D02*
X115450000Y-70900000D01*
X98800000Y-59655500D02*
X98810500Y-59645000D01*
X103410500Y-61575000D02*
X99150000Y-61575000D01*
X100473000Y-70457000D02*
X100023000Y-70907000D01*
X98800000Y-61225000D02*
X98800000Y-59655500D01*
D48*
X105485500Y-58819500D02*
X105535500Y-58869500D01*
D47*
X98800000Y-61225000D02*
X98800000Y-62744000D01*
X100473000Y-70219500D02*
X100473000Y-70457000D01*
X100673000Y-70419500D02*
X100473000Y-70219500D01*
D48*
X103410500Y-62302000D02*
X102862500Y-62850000D01*
D49*
X101885500Y-73644500D02*
X96485500Y-73644500D01*
D48*
X103410500Y-61575000D02*
X103410500Y-62302000D01*
X105535500Y-58869500D02*
X105553202Y-58851798D01*
X102862500Y-62850000D02*
X102862500Y-64350000D01*
D47*
X115450000Y-70900000D02*
X116135500Y-70214500D01*
X104110500Y-70419500D02*
X102710500Y-70419500D01*
D48*
X103410500Y-59644500D02*
X103410500Y-60394500D01*
X103410500Y-58819500D02*
X103410500Y-59644500D01*
D47*
X102198000Y-73332000D02*
X101885500Y-73644500D01*
X111841000Y-58875000D02*
X113050000Y-58875000D01*
X111835500Y-58869500D02*
X111841000Y-58875000D01*
X100473000Y-70219500D02*
X100473000Y-69744500D01*
X99150000Y-61575000D02*
X98800000Y-61225000D01*
X114910500Y-73964500D02*
X114910500Y-76344500D01*
X101735500Y-70419500D02*
X102710500Y-70419500D01*
X116135500Y-70214500D02*
X116135500Y-62094500D01*
X116135500Y-61960500D02*
X116135500Y-63219500D01*
X100023000Y-70907000D02*
X99810500Y-70907000D01*
X116135500Y-62094500D02*
X116085500Y-62044500D01*
X102862500Y-64912500D02*
X102862500Y-64350000D01*
X100835500Y-82694500D02*
X101885500Y-81644500D01*
X115450000Y-73425000D02*
X114910500Y-73964500D01*
X114910500Y-76344500D02*
X114535500Y-76719500D01*
D48*
X105553202Y-58851798D02*
X111817798Y-58851798D01*
D50*
%TO.N,GND*%
X99285500Y-74419500D02*
X99385500Y-74519500D01*
D47*
X114535500Y-82969500D02*
X113460500Y-82969500D01*
X113875000Y-71875000D02*
X113900000Y-71900000D01*
X105125500Y-82767000D02*
X105125500Y-80367000D01*
D50*
X100035500Y-76064500D02*
X100035500Y-75860500D01*
D47*
X110263000Y-80367000D02*
X111568000Y-80367000D01*
X103925500Y-80367000D02*
X102657500Y-80367000D01*
X113310500Y-84744500D02*
X113285500Y-84769500D01*
X112475000Y-71875000D02*
X113875000Y-71875000D01*
X98846185Y-63592246D02*
X98863431Y-63575000D01*
D50*
X100060500Y-74519500D02*
X100810500Y-74519500D01*
D47*
X100073000Y-58819500D02*
X100060500Y-58832000D01*
D50*
X100035500Y-74544500D02*
X100035500Y-75860500D01*
D47*
X113460500Y-82969500D02*
X113310500Y-83119500D01*
X111568000Y-80367000D02*
X111585500Y-80384500D01*
D50*
X94400500Y-70174500D02*
X94400500Y-69219500D01*
X94400000Y-69925000D02*
X94400000Y-70175000D01*
X100025000Y-76075000D02*
X100035500Y-76064500D01*
D47*
X105425500Y-83067000D02*
X105125500Y-82767000D01*
D50*
X101435500Y-68219500D02*
X101585500Y-68069500D01*
D47*
X109325500Y-83067000D02*
X109925500Y-83067000D01*
X112475000Y-71875000D02*
X111962500Y-72387500D01*
D49*
X105035500Y-74207000D02*
X105863260Y-74207000D01*
D47*
X109925500Y-84764500D02*
X109910500Y-84779500D01*
X113310500Y-83119500D02*
X113310500Y-84744500D01*
X102657500Y-80367000D02*
X102635000Y-80344500D01*
D49*
X105357314Y-77257000D02*
X104723000Y-76622686D01*
X104723000Y-74519500D02*
X105035500Y-74207000D01*
D50*
X100473000Y-68219500D02*
X101435500Y-68219500D01*
D49*
X105863260Y-74207000D02*
X105948500Y-74292240D01*
D51*
X92860500Y-82619500D02*
X90860500Y-82619500D01*
D47*
X111962500Y-72387500D02*
X111962500Y-73250000D01*
X107425500Y-83067000D02*
X109325500Y-83067000D01*
D50*
X100035500Y-74544500D02*
X100060500Y-74519500D01*
D47*
X110263000Y-80367000D02*
X110260500Y-80369500D01*
X102925500Y-83067000D02*
X103525500Y-83067000D01*
X101735500Y-71379500D02*
X102235500Y-71379500D01*
X109925500Y-83067000D02*
X109925500Y-84764500D01*
D50*
X99385500Y-74519500D02*
X100010500Y-74519500D01*
D47*
X102235500Y-71379500D02*
X102710500Y-71379500D01*
X102235500Y-72219500D02*
X102235500Y-71379500D01*
X102925500Y-84779500D02*
X102925500Y-83067000D01*
X97060500Y-58844000D02*
X97159500Y-58745000D01*
X101685500Y-58819500D02*
X100073000Y-58819500D01*
X101137500Y-62850000D02*
X101137500Y-63575000D01*
X105425500Y-83067000D02*
X107425500Y-83067000D01*
D49*
X104723000Y-76622686D02*
X104723000Y-74519500D01*
D47*
X113900000Y-71900000D02*
X113900000Y-73425000D01*
D51*
X100425500Y-53819500D02*
X97485500Y-53819500D01*
D47*
X99973500Y-58745000D02*
X100060500Y-58832000D01*
X101137500Y-63575000D02*
X101137500Y-64350000D01*
X108925500Y-80367000D02*
X110263000Y-80367000D01*
D50*
X100010500Y-74519500D02*
X100035500Y-74544500D01*
D47*
X98863431Y-63575000D02*
X101137500Y-63575000D01*
X103525500Y-83067000D02*
X105425500Y-83067000D01*
D50*
X94400000Y-70175000D02*
X94400500Y-70174500D01*
D47*
X97159500Y-58745000D02*
X99973500Y-58745000D01*
D49*
X105635500Y-77257000D02*
X105357314Y-77257000D01*
D52*
%TO.N,+5V_MCU*%
X92835500Y-67844500D02*
X92835500Y-59919500D01*
X106844500Y-56569500D02*
X106850000Y-56575000D01*
X106850000Y-56575000D02*
X107125000Y-56850000D01*
X105535500Y-56569500D02*
X106844500Y-56569500D01*
X92835500Y-59919500D02*
X96210500Y-56544500D01*
X107125000Y-56850000D02*
X108400000Y-56850000D01*
X96210500Y-56544500D02*
X105510500Y-56544500D01*
X105510500Y-56544500D02*
X105535500Y-56569500D01*
D50*
%TO.N,/EN*%
X109260500Y-69244500D02*
X107050500Y-71454500D01*
X107050500Y-71454500D02*
X105935500Y-71454500D01*
X109310500Y-69244500D02*
X109260500Y-69244500D01*
D49*
%TO.N,/D-*%
X102344655Y-69159281D02*
X101535709Y-69159281D01*
X106623275Y-72889076D02*
X106998000Y-73263801D01*
X106975500Y-79792000D02*
X106975500Y-79472738D01*
X106998000Y-73263801D02*
X106998000Y-77572686D01*
X101535709Y-69159281D02*
X101500490Y-69194500D01*
X107510500Y-77807000D02*
X107910500Y-78207000D01*
X101091751Y-69219500D02*
X100473000Y-69219500D01*
X106998000Y-79450238D02*
X106998000Y-79119500D01*
X106998000Y-77572686D02*
X107232314Y-77807000D01*
X107075500Y-79892000D02*
X106975500Y-79792000D01*
X106998000Y-79119500D02*
X107910500Y-78207000D01*
X107075500Y-80367000D02*
X107075500Y-79892000D01*
X103921376Y-69580376D02*
X102765750Y-69580376D01*
X107232314Y-77807000D02*
X107510500Y-77807000D01*
X101500490Y-69194500D02*
X101116751Y-69194500D01*
X101116751Y-69194500D02*
X101091751Y-69219500D01*
X102765750Y-69580376D02*
X102344655Y-69159281D01*
X106975500Y-79472738D02*
X106998000Y-79450238D01*
X106623275Y-72831169D02*
X106623275Y-72889076D01*
%TO.N,/D+*%
X105635500Y-78207000D02*
X106548000Y-79119500D01*
X101091751Y-68719500D02*
X101116751Y-68744500D01*
X106035500Y-77807000D02*
X105635500Y-78207000D01*
X106548000Y-73450199D02*
X106548000Y-77572686D01*
X103027873Y-69130375D02*
X103249624Y-68908624D01*
X101116751Y-68744500D02*
X101328284Y-68744500D01*
X106425500Y-79892000D02*
X106525500Y-79792000D01*
X101363503Y-68709281D02*
X102531055Y-68709281D01*
X106425500Y-80367000D02*
X106425500Y-79892000D01*
X100473000Y-68719500D02*
X101091751Y-68719500D01*
X106525500Y-79792000D02*
X106525500Y-79300532D01*
X101328284Y-68744500D02*
X101363503Y-68709281D01*
X106548000Y-77572686D02*
X106313686Y-77807000D01*
X102531055Y-68709281D02*
X102952149Y-69130375D01*
X106542301Y-73444500D02*
X106548000Y-73450199D01*
X106548000Y-79119500D02*
X106548000Y-79278032D01*
X106525500Y-79300532D02*
X106548000Y-79278032D01*
X106313686Y-77807000D02*
X106035500Y-77807000D01*
X102952149Y-69130375D02*
X103027873Y-69130375D01*
X106035500Y-73444500D02*
X106542301Y-73444500D01*
D50*
%TO.N,/GPIO0*%
X112300000Y-65250000D02*
X112325000Y-65250000D01*
X112325000Y-65250000D02*
X112325000Y-63604500D01*
X106034500Y-63134500D02*
X107150000Y-64250000D01*
X107150000Y-64250000D02*
X111300000Y-64250000D01*
X111300000Y-64250000D02*
X112300000Y-65250000D01*
X105985500Y-63134500D02*
X106034500Y-63134500D01*
X105985500Y-63134500D02*
X105970500Y-63119500D01*
X112325000Y-63604500D02*
X108995500Y-60275000D01*
%TO.N,/DTR*%
X105035500Y-66444500D02*
X105035500Y-65154500D01*
X99250000Y-66996500D02*
X99250000Y-64800000D01*
X100050000Y-65600000D02*
X100050000Y-65625000D01*
X99285500Y-67032000D02*
X99250000Y-66996500D01*
X99250000Y-64800000D02*
X100050000Y-65600000D01*
X100869500Y-66444500D02*
X105035500Y-66444500D01*
X100050000Y-65625000D02*
X100869500Y-66444500D01*
X105010500Y-66469500D02*
X105035500Y-66444500D01*
D49*
%TO.N,/SIGNAL_LED*%
X99410500Y-81999445D02*
X99395945Y-82014000D01*
X110400000Y-65186178D02*
X110400000Y-68775000D01*
X110239411Y-65025589D02*
X110400000Y-65186178D01*
X99410500Y-77595000D02*
X99410500Y-81999445D01*
D50*
%TO.N,/RTS*%
X106085500Y-67319500D02*
X106885500Y-68119500D01*
X102275000Y-67725000D02*
X102925000Y-67725000D01*
X104050000Y-67725000D02*
X104455500Y-67319500D01*
X102925000Y-67725000D02*
X104050000Y-67725000D01*
X101420500Y-67119000D02*
X101669000Y-67119000D01*
X97128000Y-67074500D02*
X97285500Y-67232000D01*
X95660500Y-67074500D02*
X97128000Y-67074500D01*
X101669000Y-67119000D02*
X102275000Y-67725000D01*
X104455500Y-67319500D02*
X106085500Y-67319500D01*
X106885500Y-68119500D02*
X106885500Y-69434500D01*
%TO.N,/U0RXD*%
X97550000Y-65175000D02*
X98285500Y-65910500D01*
X98285500Y-65910500D02*
X98285500Y-67032000D01*
X97885500Y-61045000D02*
X97550000Y-61380500D01*
X97550000Y-61380500D02*
X97550000Y-65175000D01*
%TO.N,/U0TXD*%
X96679759Y-61370000D02*
X96679759Y-60625241D01*
X96679759Y-60625241D02*
X96685500Y-60619500D01*
D48*
%TO.N,Net-(D2-A)*%
X100073000Y-60394500D02*
X100060500Y-60407000D01*
X101585500Y-60394500D02*
X100073000Y-60394500D01*
D50*
%TO.N,/base_Q1*%
X105010500Y-69409500D02*
X104985500Y-69434500D01*
X105010500Y-68119500D02*
X105010500Y-69409500D01*
%TO.N,/base_Q2*%
X106885500Y-66469500D02*
X106885500Y-65204500D01*
X106885500Y-65204500D02*
X106935500Y-65154500D01*
D49*
%TO.N,/RSTb*%
X98785500Y-71319500D02*
X98335500Y-71769500D01*
X98335500Y-71769500D02*
X97135500Y-71769500D01*
X96485500Y-72419500D02*
X96485500Y-72624500D01*
X97135500Y-71769500D02*
X96485500Y-72419500D01*
X98785500Y-70907000D02*
X98785500Y-71319500D01*
D47*
%TO.N,VBUS*%
X110725000Y-78194000D02*
X110134500Y-78784500D01*
X110087500Y-74200000D02*
X108342500Y-74200000D01*
X110087500Y-74200000D02*
X110202818Y-74200000D01*
X110134500Y-78784500D02*
X108815500Y-78784500D01*
X110202818Y-74200000D02*
X110725000Y-74722182D01*
X108815500Y-78784500D02*
X107725500Y-79874500D01*
X108342500Y-74200000D02*
X108335500Y-74207000D01*
X110725000Y-74722182D02*
X110725000Y-78194000D01*
X107725500Y-79874500D02*
X107725500Y-80367000D01*
%TO.N,Net-(Q3-S)*%
X111600000Y-75512500D02*
X111962500Y-75150000D01*
X111600000Y-77237500D02*
X111600000Y-75512500D01*
X111612500Y-77250000D02*
X111600000Y-77237500D01*
%TO.N,VBUS_REV*%
X109737500Y-77250000D02*
X109737500Y-76212500D01*
X109730500Y-77257000D02*
X109737500Y-77250000D01*
X97760500Y-75619500D02*
X97760500Y-74519500D01*
X109737500Y-76212500D02*
X109150000Y-75625000D01*
X107910500Y-77257000D02*
X109730500Y-77257000D01*
X109150000Y-75625000D02*
X109100000Y-75625000D01*
D50*
%TO.N,/SUSPENDb*%
X96598000Y-69219500D02*
X95420500Y-69219500D01*
D53*
%TO.N,/VBUS_USB*%
X99285500Y-70907000D02*
X99285500Y-72869500D01*
D47*
X99285500Y-72869500D02*
X97760500Y-72869500D01*
X100810500Y-72869500D02*
X99285500Y-72869500D01*
D50*
%TO.N,/U0TXD_R*%
X95978654Y-64800000D02*
X97785500Y-66606846D01*
X95775000Y-64800000D02*
X96675000Y-63900000D01*
X97785500Y-66606846D02*
X97785500Y-67032000D01*
X96685500Y-62269500D02*
X96675000Y-62280000D01*
X95775000Y-64800000D02*
X95978654Y-64800000D01*
X96675000Y-62280000D02*
X96675000Y-63900000D01*
D49*
%TO.N,/SPI_MISO*%
X95608088Y-59420000D02*
X95608088Y-59421912D01*
X94286000Y-60744000D02*
X94285500Y-60744000D01*
X95608088Y-59421912D02*
X94286000Y-60744000D01*
%TO.N,/SPI_CS*%
X91385500Y-65369500D02*
X90235500Y-66519500D01*
X91385500Y-57545000D02*
X91385500Y-65369500D01*
D47*
%TO.N,/JTMS_SIG*%
X113460500Y-79219500D02*
X114535500Y-79219500D01*
D49*
X111050000Y-65350000D02*
X111050000Y-65625000D01*
X111050000Y-65625000D02*
X111550500Y-66125500D01*
X111550500Y-66125500D02*
X111550500Y-68319500D01*
%TO.N,/JTCK_SIG*%
X112500000Y-69125000D02*
X113475000Y-68150000D01*
X113475000Y-62325000D02*
X112645000Y-61495000D01*
D47*
X113460500Y-77969500D02*
X114535500Y-77969500D01*
D49*
X112645000Y-61495000D02*
X112614349Y-61495000D01*
X113475000Y-68150000D02*
X113475000Y-62325000D01*
D47*
%TO.N,/JTD0_SIG*%
X113460500Y-80469500D02*
X114535500Y-80469500D01*
D49*
X115375000Y-62490000D02*
X113335000Y-60450000D01*
X115375000Y-68125497D02*
X115375000Y-62490000D01*
D47*
%TO.N,/JTDI_SIG*%
X113460500Y-81719500D02*
X114535500Y-81719500D01*
D49*
X114150000Y-65573430D02*
X114150000Y-68700000D01*
X114146570Y-65570000D02*
X114150000Y-65573430D01*
X114150000Y-68700000D02*
X115370023Y-69920023D01*
%TD*%
%TA.AperFunction,Conductor*%
%TO.N,GND*%
G36*
X119228039Y-52814685D02*
G01*
X119273794Y-52867489D01*
X119285000Y-52919000D01*
X119285000Y-58093147D01*
X119265315Y-58160186D01*
X119212511Y-58205941D01*
X119143353Y-58215885D01*
X119079797Y-58186860D01*
X119062047Y-58167875D01*
X119052263Y-58154920D01*
X119052263Y-58154919D01*
X118901541Y-58017519D01*
X118901539Y-58017517D01*
X118728142Y-57910155D01*
X118728135Y-57910151D01*
X118591536Y-57857233D01*
X118537956Y-57836476D01*
X118337476Y-57799000D01*
X118133524Y-57799000D01*
X117933044Y-57836476D01*
X117933041Y-57836476D01*
X117933041Y-57836477D01*
X117742864Y-57910151D01*
X117742857Y-57910155D01*
X117569460Y-58017517D01*
X117569458Y-58017519D01*
X117418737Y-58154918D01*
X117295827Y-58317678D01*
X117204922Y-58500239D01*
X117204917Y-58500252D01*
X117149102Y-58696417D01*
X117130285Y-58899499D01*
X117130285Y-58899500D01*
X117149102Y-59102582D01*
X117204917Y-59298747D01*
X117204922Y-59298760D01*
X117295827Y-59481321D01*
X117418737Y-59644081D01*
X117569458Y-59781480D01*
X117569460Y-59781482D01*
X117666849Y-59841782D01*
X117742863Y-59888848D01*
X117933044Y-59962524D01*
X118133524Y-60000000D01*
X118133526Y-60000000D01*
X118337474Y-60000000D01*
X118337476Y-60000000D01*
X118537956Y-59962524D01*
X118728137Y-59888848D01*
X118901541Y-59781481D01*
X119052264Y-59644079D01*
X119062046Y-59631124D01*
X119118154Y-59589490D01*
X119187865Y-59584797D01*
X119249048Y-59618539D01*
X119282276Y-59680002D01*
X119285000Y-59705852D01*
X119285000Y-60633147D01*
X119265315Y-60700186D01*
X119212511Y-60745941D01*
X119143353Y-60755885D01*
X119079797Y-60726860D01*
X119062047Y-60707875D01*
X119052263Y-60694920D01*
X119052263Y-60694919D01*
X118901541Y-60557519D01*
X118901539Y-60557517D01*
X118728142Y-60450155D01*
X118728135Y-60450151D01*
X118549448Y-60380928D01*
X118537956Y-60376476D01*
X118337476Y-60339000D01*
X118133524Y-60339000D01*
X117933044Y-60376476D01*
X117933041Y-60376476D01*
X117933041Y-60376477D01*
X117742864Y-60450151D01*
X117742857Y-60450155D01*
X117569460Y-60557517D01*
X117569458Y-60557519D01*
X117418737Y-60694918D01*
X117295827Y-60857678D01*
X117204922Y-61040239D01*
X117204917Y-61040252D01*
X117149102Y-61236417D01*
X117130285Y-61439499D01*
X117130285Y-61439500D01*
X117149102Y-61642582D01*
X117204917Y-61838747D01*
X117204922Y-61838760D01*
X117295827Y-62021321D01*
X117418737Y-62184081D01*
X117569458Y-62321480D01*
X117569460Y-62321482D01*
X117613516Y-62348760D01*
X117742863Y-62428848D01*
X117933044Y-62502524D01*
X118133524Y-62540000D01*
X118133526Y-62540000D01*
X118337474Y-62540000D01*
X118337476Y-62540000D01*
X118537956Y-62502524D01*
X118728137Y-62428848D01*
X118901541Y-62321481D01*
X119052264Y-62184079D01*
X119062046Y-62171124D01*
X119118154Y-62129490D01*
X119187865Y-62124797D01*
X119249048Y-62158539D01*
X119282276Y-62220002D01*
X119285000Y-62245852D01*
X119285000Y-63173147D01*
X119265315Y-63240186D01*
X119212511Y-63285941D01*
X119143353Y-63295885D01*
X119079797Y-63266860D01*
X119062047Y-63247875D01*
X119052263Y-63234920D01*
X119052263Y-63234919D01*
X118901541Y-63097519D01*
X118901539Y-63097517D01*
X118728142Y-62990155D01*
X118728135Y-62990151D01*
X118633046Y-62953314D01*
X118537956Y-62916476D01*
X118337476Y-62879000D01*
X118133524Y-62879000D01*
X117933044Y-62916476D01*
X117933041Y-62916476D01*
X117933041Y-62916477D01*
X117742864Y-62990151D01*
X117742857Y-62990155D01*
X117569460Y-63097517D01*
X117569458Y-63097519D01*
X117418737Y-63234918D01*
X117295827Y-63397678D01*
X117204922Y-63580239D01*
X117204917Y-63580252D01*
X117149102Y-63776417D01*
X117130285Y-63979499D01*
X117130285Y-63979500D01*
X117149102Y-64182582D01*
X117204917Y-64378747D01*
X117204922Y-64378760D01*
X117295827Y-64561321D01*
X117418737Y-64724081D01*
X117569458Y-64861480D01*
X117569460Y-64861482D01*
X117651142Y-64912057D01*
X117742863Y-64968848D01*
X117933044Y-65042524D01*
X118133524Y-65080000D01*
X118133526Y-65080000D01*
X118337474Y-65080000D01*
X118337476Y-65080000D01*
X118537956Y-65042524D01*
X118728137Y-64968848D01*
X118901541Y-64861481D01*
X119052264Y-64724079D01*
X119062046Y-64711124D01*
X119118154Y-64669490D01*
X119187865Y-64664797D01*
X119249048Y-64698539D01*
X119282276Y-64760002D01*
X119285000Y-64785852D01*
X119285000Y-65713147D01*
X119265315Y-65780186D01*
X119212511Y-65825941D01*
X119143353Y-65835885D01*
X119079797Y-65806860D01*
X119062047Y-65787875D01*
X119052263Y-65774920D01*
X119052263Y-65774919D01*
X118901541Y-65637519D01*
X118901539Y-65637517D01*
X118728142Y-65530155D01*
X118728135Y-65530151D01*
X118620803Y-65488571D01*
X118537956Y-65456476D01*
X118337476Y-65419000D01*
X118133524Y-65419000D01*
X117933044Y-65456476D01*
X117933041Y-65456476D01*
X117933041Y-65456477D01*
X117742864Y-65530151D01*
X117742857Y-65530155D01*
X117569460Y-65637517D01*
X117569458Y-65637519D01*
X117418737Y-65774918D01*
X117295827Y-65937678D01*
X117204922Y-66120239D01*
X117204917Y-66120252D01*
X117149102Y-66316417D01*
X117130285Y-66519499D01*
X117130285Y-66519500D01*
X117149102Y-66722582D01*
X117204917Y-66918747D01*
X117204922Y-66918760D01*
X117295827Y-67101321D01*
X117418737Y-67264081D01*
X117569458Y-67401480D01*
X117569460Y-67401482D01*
X117619849Y-67432681D01*
X117742863Y-67508848D01*
X117933044Y-67582524D01*
X118133524Y-67620000D01*
X118133526Y-67620000D01*
X118337474Y-67620000D01*
X118337476Y-67620000D01*
X118537956Y-67582524D01*
X118728137Y-67508848D01*
X118901541Y-67401481D01*
X119052264Y-67264079D01*
X119062046Y-67251124D01*
X119118154Y-67209490D01*
X119187865Y-67204797D01*
X119249048Y-67238539D01*
X119282276Y-67300002D01*
X119285000Y-67325852D01*
X119285000Y-68253147D01*
X119265315Y-68320186D01*
X119212511Y-68365941D01*
X119143353Y-68375885D01*
X119079797Y-68346860D01*
X119062047Y-68327875D01*
X119052263Y-68314920D01*
X119052263Y-68314919D01*
X118901541Y-68177519D01*
X118901539Y-68177517D01*
X118728142Y-68070155D01*
X118728135Y-68070151D01*
X118590057Y-68016660D01*
X118537956Y-67996476D01*
X118337476Y-67959000D01*
X118133524Y-67959000D01*
X117933044Y-67996476D01*
X117933041Y-67996476D01*
X117933041Y-67996477D01*
X117742864Y-68070151D01*
X117742857Y-68070155D01*
X117569460Y-68177517D01*
X117569458Y-68177519D01*
X117418737Y-68314918D01*
X117295827Y-68477678D01*
X117204922Y-68660239D01*
X117204917Y-68660252D01*
X117149102Y-68856417D01*
X117130285Y-69059499D01*
X117130285Y-69059500D01*
X117149102Y-69262582D01*
X117204917Y-69458747D01*
X117204922Y-69458760D01*
X117295827Y-69641321D01*
X117418737Y-69804081D01*
X117569458Y-69941480D01*
X117569460Y-69941482D01*
X117641639Y-69986173D01*
X117742863Y-70048848D01*
X117933044Y-70122524D01*
X118133524Y-70160000D01*
X118133526Y-70160000D01*
X118337474Y-70160000D01*
X118337476Y-70160000D01*
X118537956Y-70122524D01*
X118728137Y-70048848D01*
X118901541Y-69941481D01*
X119052264Y-69804079D01*
X119062046Y-69791124D01*
X119118154Y-69749490D01*
X119187865Y-69744797D01*
X119249048Y-69778539D01*
X119282276Y-69840002D01*
X119285000Y-69865852D01*
X119285000Y-70793147D01*
X119265315Y-70860186D01*
X119212511Y-70905941D01*
X119143353Y-70915885D01*
X119079797Y-70886860D01*
X119062047Y-70867875D01*
X119052263Y-70854920D01*
X119052263Y-70854919D01*
X118901541Y-70717519D01*
X118901539Y-70717517D01*
X118728142Y-70610155D01*
X118728135Y-70610151D01*
X118587752Y-70555767D01*
X118537956Y-70536476D01*
X118337476Y-70499000D01*
X118133524Y-70499000D01*
X117933044Y-70536476D01*
X117933041Y-70536476D01*
X117933041Y-70536477D01*
X117742864Y-70610151D01*
X117742857Y-70610155D01*
X117569460Y-70717517D01*
X117569458Y-70717519D01*
X117418737Y-70854918D01*
X117295827Y-71017678D01*
X117204922Y-71200239D01*
X117204917Y-71200252D01*
X117149102Y-71396417D01*
X117130285Y-71599499D01*
X117130285Y-71599500D01*
X117149102Y-71802582D01*
X117204917Y-71998747D01*
X117204922Y-71998760D01*
X117295827Y-72181321D01*
X117418737Y-72344081D01*
X117569458Y-72481480D01*
X117569460Y-72481482D01*
X117660314Y-72537736D01*
X117742863Y-72588848D01*
X117933044Y-72662524D01*
X118133524Y-72700000D01*
X118133526Y-72700000D01*
X118337474Y-72700000D01*
X118337476Y-72700000D01*
X118537956Y-72662524D01*
X118728137Y-72588848D01*
X118901541Y-72481481D01*
X119052264Y-72344079D01*
X119062046Y-72331124D01*
X119118154Y-72289490D01*
X119187865Y-72284797D01*
X119249048Y-72318539D01*
X119282276Y-72380002D01*
X119285000Y-72405852D01*
X119285000Y-85220000D01*
X119265315Y-85287039D01*
X119212511Y-85332794D01*
X119161000Y-85344000D01*
X118370891Y-85344000D01*
X118303852Y-85324315D01*
X118258097Y-85271511D01*
X118248153Y-85202353D01*
X118254133Y-85178922D01*
X118254589Y-85176991D01*
X118254589Y-85176987D01*
X118254591Y-85176983D01*
X118261000Y-85117373D01*
X118260999Y-84521628D01*
X118254591Y-84462017D01*
X118239720Y-84422147D01*
X118204297Y-84327171D01*
X118204293Y-84327164D01*
X118118047Y-84211955D01*
X118118044Y-84211952D01*
X118002835Y-84125706D01*
X118002828Y-84125702D01*
X117867982Y-84075408D01*
X117867983Y-84075408D01*
X117808383Y-84069001D01*
X117808381Y-84069000D01*
X117808373Y-84069000D01*
X117808364Y-84069000D01*
X115512629Y-84069000D01*
X115512623Y-84069001D01*
X115453016Y-84075408D01*
X115318171Y-84125702D01*
X115318164Y-84125706D01*
X115202955Y-84211952D01*
X115202952Y-84211955D01*
X115116706Y-84327164D01*
X115116702Y-84327171D01*
X115066410Y-84462013D01*
X115066409Y-84462017D01*
X115060000Y-84521627D01*
X115060000Y-84521634D01*
X115060000Y-84521635D01*
X115060000Y-85117370D01*
X115060001Y-85117376D01*
X115066409Y-85176987D01*
X115068192Y-85184531D01*
X115066875Y-85184842D01*
X115071275Y-85246358D01*
X115037791Y-85307681D01*
X114976468Y-85341166D01*
X114950109Y-85344000D01*
X89310000Y-85344000D01*
X89242961Y-85324315D01*
X89197206Y-85271511D01*
X89186000Y-85220000D01*
X89186000Y-82369500D01*
X91385500Y-82369500D01*
X92456531Y-82369500D01*
X92423981Y-82420149D01*
X92385500Y-82551205D01*
X92385500Y-82687795D01*
X92423981Y-82818851D01*
X92456531Y-82869500D01*
X91385501Y-82869500D01*
X91385501Y-83269486D01*
X91395994Y-83372197D01*
X91451141Y-83538619D01*
X91451143Y-83538624D01*
X91543184Y-83687845D01*
X91667154Y-83811815D01*
X91816375Y-83903856D01*
X91816380Y-83903858D01*
X91982802Y-83959005D01*
X91982809Y-83959006D01*
X92085519Y-83969499D01*
X92610499Y-83969499D01*
X92610500Y-83969498D01*
X92610500Y-83027518D01*
X92725301Y-83079946D01*
X92826525Y-83094500D01*
X92894475Y-83094500D01*
X92995699Y-83079946D01*
X93110500Y-83027518D01*
X93110500Y-83969499D01*
X93635472Y-83969499D01*
X93635486Y-83969498D01*
X93738197Y-83959005D01*
X93904619Y-83903858D01*
X93904624Y-83903856D01*
X94053845Y-83811815D01*
X94177815Y-83687845D01*
X94269856Y-83538624D01*
X94269858Y-83538619D01*
X94325005Y-83372197D01*
X94325006Y-83372190D01*
X94335499Y-83269486D01*
X94335500Y-83269473D01*
X94335500Y-82869500D01*
X93264469Y-82869500D01*
X93297019Y-82818851D01*
X93335500Y-82687795D01*
X93335500Y-82551205D01*
X93297019Y-82420149D01*
X93264469Y-82369500D01*
X94335499Y-82369500D01*
X94335499Y-82014001D01*
X98790263Y-82014001D01*
X98810900Y-82170760D01*
X98810901Y-82170762D01*
X98866604Y-82305242D01*
X98871409Y-82316841D01*
X98967663Y-82442282D01*
X99093104Y-82538536D01*
X99239183Y-82599044D01*
X99297716Y-82606750D01*
X99395944Y-82619682D01*
X99395945Y-82619682D01*
X99395946Y-82619682D01*
X99448199Y-82612802D01*
X99552707Y-82599044D01*
X99698786Y-82538536D01*
X99824227Y-82442282D01*
X99920481Y-82316841D01*
X99980989Y-82170762D01*
X100001627Y-82014000D01*
X99980989Y-81857238D01*
X99920481Y-81711159D01*
X99824227Y-81585718D01*
X99813980Y-81577855D01*
X99809512Y-81574426D01*
X99768310Y-81517998D01*
X99761000Y-81476052D01*
X99761000Y-78144115D01*
X99780685Y-78077076D01*
X99809511Y-78045742D01*
X99838782Y-78023282D01*
X99935036Y-77897841D01*
X99995544Y-77751762D01*
X100016182Y-77595000D01*
X100012482Y-77566898D01*
X99995544Y-77438239D01*
X99995544Y-77438238D01*
X99935036Y-77292159D01*
X99838782Y-77166718D01*
X99713341Y-77070464D01*
X99704367Y-77066747D01*
X99567262Y-77009956D01*
X99567260Y-77009955D01*
X99410501Y-76989318D01*
X99410499Y-76989318D01*
X99253739Y-77009955D01*
X99253737Y-77009956D01*
X99107660Y-77070463D01*
X98982218Y-77166718D01*
X98885963Y-77292160D01*
X98825456Y-77438237D01*
X98825455Y-77438239D01*
X98804818Y-77594998D01*
X98804818Y-77595001D01*
X98825455Y-77751760D01*
X98825456Y-77751762D01*
X98878629Y-77880134D01*
X98885964Y-77897841D01*
X98982218Y-78023282D01*
X99011487Y-78045740D01*
X99052689Y-78102165D01*
X99060000Y-78144115D01*
X99060000Y-81453715D01*
X99040315Y-81520754D01*
X99011487Y-81552090D01*
X98967665Y-81585715D01*
X98871408Y-81711160D01*
X98810901Y-81857237D01*
X98810900Y-81857239D01*
X98790263Y-82013998D01*
X98790263Y-82014001D01*
X94335499Y-82014001D01*
X94335499Y-81969528D01*
X94335498Y-81969513D01*
X94325005Y-81866802D01*
X94269858Y-81700380D01*
X94269856Y-81700375D01*
X94177815Y-81551154D01*
X94053845Y-81427184D01*
X93904624Y-81335143D01*
X93904619Y-81335141D01*
X93738197Y-81279994D01*
X93738190Y-81279993D01*
X93646824Y-81270659D01*
X93582133Y-81244263D01*
X93541981Y-81187082D01*
X93539118Y-81117271D01*
X93574452Y-81056994D01*
X93582775Y-81049831D01*
X93597032Y-81038619D01*
X93748386Y-80919592D01*
X93886019Y-80760756D01*
X93991104Y-80578744D01*
X94059844Y-80380133D01*
X94089754Y-80172102D01*
X94079754Y-79962170D01*
X94030204Y-79757924D01*
X94030201Y-79757917D01*
X93942901Y-79566756D01*
X93942898Y-79566751D01*
X93942897Y-79566750D01*
X93942896Y-79566747D01*
X93820986Y-79395548D01*
X93820984Y-79395546D01*
X93820979Y-79395540D01*
X93668879Y-79250514D01*
X93492074Y-79136888D01*
X93296955Y-79058774D01*
X93090586Y-79019000D01*
X93090585Y-79019000D01*
X92683075Y-79019000D01*
X92526282Y-79033972D01*
X92526278Y-79033973D01*
X92324627Y-79093183D01*
X92137813Y-79189491D01*
X91972616Y-79319405D01*
X91972612Y-79319409D01*
X91834978Y-79478246D01*
X91729898Y-79660250D01*
X91661156Y-79858865D01*
X91661156Y-79858867D01*
X91633452Y-80051560D01*
X91631246Y-80066901D01*
X91641245Y-80276827D01*
X91690796Y-80481078D01*
X91690798Y-80481082D01*
X91778098Y-80672243D01*
X91778101Y-80672248D01*
X91778102Y-80672250D01*
X91778104Y-80672253D01*
X91883902Y-80820826D01*
X91900015Y-80843453D01*
X91900020Y-80843459D01*
X92052122Y-80988487D01*
X92135785Y-81042254D01*
X92181540Y-81095058D01*
X92191484Y-81164216D01*
X92162459Y-81227772D01*
X92103681Y-81265546D01*
X92081348Y-81269927D01*
X91982802Y-81279994D01*
X91816380Y-81335141D01*
X91816375Y-81335143D01*
X91667154Y-81427184D01*
X91543184Y-81551154D01*
X91451143Y-81700375D01*
X91451141Y-81700380D01*
X91395994Y-81866802D01*
X91395993Y-81866809D01*
X91385500Y-81969513D01*
X91385500Y-82369500D01*
X89186000Y-82369500D01*
X89186000Y-77566901D01*
X91631246Y-77566901D01*
X91641245Y-77776827D01*
X91690796Y-77981078D01*
X91690798Y-77981082D01*
X91778098Y-78172243D01*
X91778101Y-78172248D01*
X91778102Y-78172250D01*
X91778104Y-78172253D01*
X91895033Y-78336457D01*
X91900015Y-78343453D01*
X91900020Y-78343459D01*
X92052120Y-78488485D01*
X92147078Y-78549511D01*
X92228928Y-78602113D01*
X92424043Y-78680225D01*
X92469842Y-78689052D01*
X92630414Y-78720000D01*
X92630415Y-78720000D01*
X93037919Y-78720000D01*
X93037925Y-78720000D01*
X93194718Y-78705028D01*
X93396375Y-78645816D01*
X93583182Y-78549511D01*
X93748386Y-78419592D01*
X93886019Y-78260756D01*
X93891068Y-78252012D01*
X93991101Y-78078749D01*
X93991100Y-78078749D01*
X93991104Y-78078744D01*
X94059844Y-77880133D01*
X94089754Y-77672102D01*
X94079754Y-77462170D01*
X94030204Y-77257924D01*
X94030201Y-77257917D01*
X93942901Y-77066756D01*
X93942898Y-77066751D01*
X93942897Y-77066750D01*
X93942896Y-77066747D01*
X93820986Y-76895548D01*
X93820984Y-76895546D01*
X93820979Y-76895540D01*
X93668879Y-76750514D01*
X93492074Y-76636888D01*
X93448136Y-76619298D01*
X93353764Y-76581517D01*
X93296955Y-76558774D01*
X93090586Y-76519000D01*
X93090585Y-76519000D01*
X92683075Y-76519000D01*
X92526282Y-76533972D01*
X92526278Y-76533973D01*
X92324627Y-76593183D01*
X92137813Y-76689491D01*
X91972616Y-76819405D01*
X91972612Y-76819409D01*
X91834978Y-76978246D01*
X91729898Y-77160250D01*
X91661156Y-77358865D01*
X91661156Y-77358867D01*
X91631624Y-77564275D01*
X91631246Y-77566901D01*
X89186000Y-77566901D01*
X89186000Y-72405852D01*
X89205685Y-72338813D01*
X89258489Y-72293058D01*
X89327647Y-72283114D01*
X89391203Y-72312139D01*
X89408951Y-72331122D01*
X89418736Y-72344079D01*
X89418738Y-72344081D01*
X89483245Y-72402887D01*
X89542184Y-72456617D01*
X89569458Y-72481480D01*
X89569460Y-72481482D01*
X89660314Y-72537736D01*
X89742863Y-72588848D01*
X89933044Y-72662524D01*
X90133524Y-72700000D01*
X90133526Y-72700000D01*
X90337474Y-72700000D01*
X90337476Y-72700000D01*
X90537956Y-72662524D01*
X90728137Y-72588848D01*
X90901541Y-72481481D01*
X91039436Y-72355773D01*
X91052262Y-72344081D01*
X91052264Y-72344079D01*
X91175173Y-72181321D01*
X91266082Y-71998750D01*
X91321897Y-71802583D01*
X91340715Y-71599500D01*
X91337981Y-71570000D01*
X91321897Y-71396417D01*
X91308917Y-71350797D01*
X91266082Y-71200250D01*
X91263374Y-71194812D01*
X91204344Y-71076262D01*
X91175173Y-71017679D01*
X91108422Y-70929286D01*
X91052262Y-70854918D01*
X90901541Y-70717519D01*
X90901539Y-70717517D01*
X90728142Y-70610155D01*
X90728135Y-70610151D01*
X90587752Y-70555767D01*
X90537956Y-70536476D01*
X90337476Y-70499000D01*
X90133524Y-70499000D01*
X89933044Y-70536476D01*
X89933041Y-70536476D01*
X89933041Y-70536477D01*
X89742864Y-70610151D01*
X89742857Y-70610155D01*
X89569460Y-70717517D01*
X89569458Y-70717519D01*
X89418736Y-70854919D01*
X89418736Y-70854920D01*
X89408953Y-70867875D01*
X89352843Y-70909510D01*
X89283131Y-70914201D01*
X89221950Y-70880458D01*
X89188724Y-70818994D01*
X89186000Y-70793147D01*
X89186000Y-69865852D01*
X89205685Y-69798813D01*
X89258489Y-69753058D01*
X89327647Y-69743114D01*
X89391203Y-69772139D01*
X89408951Y-69791122D01*
X89418610Y-69803912D01*
X89418738Y-69804081D01*
X89502043Y-69880023D01*
X89545918Y-69920021D01*
X89569458Y-69941480D01*
X89569460Y-69941482D01*
X89641639Y-69986173D01*
X89742863Y-70048848D01*
X89933044Y-70122524D01*
X90133524Y-70160000D01*
X90133526Y-70160000D01*
X90337474Y-70160000D01*
X90337476Y-70160000D01*
X90537956Y-70122524D01*
X90728137Y-70048848D01*
X90901541Y-69941481D01*
X91052264Y-69804079D01*
X91175173Y-69641321D01*
X91260729Y-69469500D01*
X93630569Y-69469500D01*
X93633332Y-69504622D01*
X93633333Y-69504628D01*
X93678092Y-69658688D01*
X93678093Y-69658691D01*
X93759761Y-69796785D01*
X93759768Y-69796794D01*
X93873205Y-69910231D01*
X93873214Y-69910238D01*
X94011305Y-69991904D01*
X94150500Y-70032344D01*
X94150500Y-69469500D01*
X93630569Y-69469500D01*
X91260729Y-69469500D01*
X91266082Y-69458750D01*
X91321897Y-69262583D01*
X91340715Y-69059500D01*
X91332375Y-68969500D01*
X91321897Y-68856417D01*
X91311157Y-68818672D01*
X91266082Y-68660250D01*
X91265917Y-68659919D01*
X91213066Y-68553779D01*
X91175173Y-68477679D01*
X91091504Y-68366883D01*
X91052262Y-68314918D01*
X90901541Y-68177519D01*
X90901539Y-68177517D01*
X90728142Y-68070155D01*
X90728135Y-68070151D01*
X90590057Y-68016660D01*
X90537956Y-67996476D01*
X90337476Y-67959000D01*
X90133524Y-67959000D01*
X89933044Y-67996476D01*
X89933041Y-67996476D01*
X89933041Y-67996477D01*
X89742864Y-68070151D01*
X89742857Y-68070155D01*
X89569460Y-68177517D01*
X89569458Y-68177519D01*
X89418736Y-68314919D01*
X89418736Y-68314920D01*
X89408953Y-68327875D01*
X89352843Y-68369510D01*
X89283131Y-68374201D01*
X89221950Y-68340458D01*
X89188724Y-68278994D01*
X89186000Y-68253147D01*
X89186000Y-67325852D01*
X89205685Y-67258813D01*
X89258489Y-67213058D01*
X89327647Y-67203114D01*
X89391203Y-67232139D01*
X89408951Y-67251122D01*
X89417543Y-67262499D01*
X89418738Y-67264081D01*
X89486498Y-67325852D01*
X89542976Y-67377339D01*
X89569458Y-67401480D01*
X89569460Y-67401482D01*
X89619849Y-67432681D01*
X89742863Y-67508848D01*
X89933044Y-67582524D01*
X90133524Y-67620000D01*
X90133526Y-67620000D01*
X90337474Y-67620000D01*
X90337476Y-67620000D01*
X90537956Y-67582524D01*
X90728137Y-67508848D01*
X90901541Y-67401481D01*
X91042643Y-67272850D01*
X91052262Y-67264081D01*
X91053457Y-67262499D01*
X91175173Y-67101321D01*
X91266082Y-66918750D01*
X91321897Y-66722583D01*
X91340715Y-66519500D01*
X91327325Y-66375001D01*
X91321897Y-66316417D01*
X91295606Y-66224014D01*
X91266082Y-66120250D01*
X91260756Y-66109555D01*
X91248496Y-66040772D01*
X91275369Y-65976277D01*
X91284066Y-65966614D01*
X91598546Y-65652134D01*
X91618402Y-65636011D01*
X91626169Y-65630937D01*
X91626176Y-65630927D01*
X91627011Y-65630160D01*
X91628429Y-65629459D01*
X91634776Y-65625314D01*
X91635276Y-65626080D01*
X91689664Y-65599234D01*
X91759091Y-65607090D01*
X91813249Y-65651234D01*
X91834944Y-65717650D01*
X91835000Y-65721385D01*
X91835000Y-67895243D01*
X91850425Y-68046939D01*
X91911337Y-68241079D01*
X91911344Y-68241094D01*
X92010089Y-68418999D01*
X92010092Y-68419004D01*
X92142632Y-68573393D01*
X92142634Y-68573395D01*
X92303537Y-68697945D01*
X92303547Y-68697951D01*
X92393566Y-68742108D01*
X92414439Y-68755056D01*
X92432659Y-68769036D01*
X92578738Y-68829544D01*
X92735500Y-68850182D01*
X92773488Y-68845180D01*
X92795938Y-68844279D01*
X92886436Y-68848869D01*
X93087571Y-68818056D01*
X93278387Y-68747386D01*
X93451071Y-68639752D01*
X93513887Y-68580040D01*
X93576035Y-68548120D01*
X93645578Y-68554868D01*
X93700434Y-68598141D01*
X93723185Y-68664203D01*
X93706610Y-68732078D01*
X93706050Y-68733034D01*
X93678094Y-68780306D01*
X93678092Y-68780311D01*
X93633333Y-68934371D01*
X93633332Y-68934377D01*
X93630569Y-68969500D01*
X94150500Y-68969500D01*
X94150500Y-68406654D01*
X94150498Y-68406653D01*
X94011311Y-68447091D01*
X94011308Y-68447093D01*
X93866496Y-68532735D01*
X93865741Y-68531458D01*
X93808787Y-68553812D01*
X93740271Y-68540123D01*
X93690033Y-68491565D01*
X93674022Y-68423554D01*
X93696065Y-68359458D01*
X93714795Y-68332549D01*
X93795040Y-68145558D01*
X93836000Y-67946241D01*
X93837266Y-67940081D01*
X93837935Y-67940218D01*
X93844523Y-67914081D01*
X93870544Y-67851262D01*
X93886861Y-67727319D01*
X93891182Y-67694501D01*
X93891182Y-67694498D01*
X93870544Y-67537739D01*
X93870542Y-67537734D01*
X93845439Y-67477128D01*
X93836000Y-67429676D01*
X93836000Y-61393366D01*
X93855685Y-61326327D01*
X93908489Y-61280572D01*
X93977647Y-61270628D01*
X94007445Y-61278802D01*
X94128738Y-61329044D01*
X94198566Y-61338237D01*
X94285499Y-61349682D01*
X94285500Y-61349682D01*
X94285501Y-61349682D01*
X94337754Y-61342802D01*
X94442262Y-61329044D01*
X94588341Y-61268536D01*
X94713782Y-61172282D01*
X94810036Y-61046841D01*
X94870544Y-60900762D01*
X94890457Y-60749510D01*
X94891182Y-60744001D01*
X94888925Y-60726860D01*
X94886424Y-60707863D01*
X94897189Y-60638831D01*
X94921679Y-60604001D01*
X95469335Y-60056344D01*
X95530656Y-60022861D01*
X95573195Y-60021088D01*
X95608088Y-60025682D01*
X95764850Y-60005044D01*
X95910929Y-59944536D01*
X95910930Y-59944535D01*
X95916814Y-59942098D01*
X95986284Y-59934629D01*
X96048763Y-59965904D01*
X96084415Y-60025993D01*
X96081921Y-60095818D01*
X96064038Y-60130291D01*
X96055827Y-60141418D01*
X96007707Y-60206618D01*
X96007706Y-60206619D01*
X95962853Y-60334798D01*
X95962853Y-60334800D01*
X95960000Y-60365230D01*
X95960000Y-60873769D01*
X95962853Y-60904199D01*
X95962853Y-60904201D01*
X96003374Y-61019999D01*
X96007707Y-61032382D01*
X96072053Y-61119569D01*
X96096024Y-61185196D01*
X96095222Y-61209386D01*
X96074077Y-61369998D01*
X96074077Y-61370001D01*
X96094714Y-61526760D01*
X96094716Y-61526765D01*
X96126080Y-61602486D01*
X96133549Y-61671956D01*
X96102273Y-61734435D01*
X96092915Y-61742784D01*
X96088350Y-61747350D01*
X96007707Y-61856617D01*
X96007706Y-61856619D01*
X95962853Y-61984798D01*
X95962853Y-61984800D01*
X95960000Y-62015230D01*
X95960000Y-62523769D01*
X95962853Y-62554199D01*
X95962853Y-62554201D01*
X95999940Y-62660186D01*
X96007707Y-62682382D01*
X96088350Y-62791650D01*
X96196327Y-62871340D01*
X96197618Y-62872293D01*
X96205837Y-62876637D01*
X96204374Y-62879404D01*
X96248225Y-62910850D01*
X96273977Y-62975801D01*
X96274500Y-62987178D01*
X96274500Y-63682745D01*
X96254815Y-63749784D01*
X96238185Y-63770421D01*
X96152261Y-63856346D01*
X96072580Y-63936027D01*
X96011257Y-63969511D01*
X95959118Y-63969634D01*
X95864391Y-63949500D01*
X95685609Y-63949500D01*
X95654954Y-63956015D01*
X95510733Y-63986670D01*
X95510728Y-63986672D01*
X95347408Y-64059387D01*
X95202768Y-64164475D01*
X95083140Y-64297336D01*
X94993750Y-64452164D01*
X94993747Y-64452170D01*
X94938504Y-64622192D01*
X94938503Y-64622194D01*
X94919815Y-64800000D01*
X94938503Y-64977805D01*
X94938504Y-64977807D01*
X94993747Y-65147829D01*
X94993750Y-65147835D01*
X95083141Y-65302665D01*
X95117664Y-65341006D01*
X95202764Y-65435521D01*
X95202767Y-65435523D01*
X95202770Y-65435526D01*
X95347407Y-65540612D01*
X95510733Y-65613329D01*
X95685609Y-65650500D01*
X95685610Y-65650500D01*
X95864389Y-65650500D01*
X95864391Y-65650500D01*
X96039267Y-65613329D01*
X96090334Y-65590591D01*
X96159584Y-65581306D01*
X96222861Y-65610934D01*
X96228452Y-65616190D01*
X96950569Y-66338307D01*
X96984054Y-66399630D01*
X96979070Y-66469322D01*
X96964465Y-66497108D01*
X96962650Y-66499699D01*
X96914759Y-66602404D01*
X96868587Y-66654844D01*
X96802377Y-66674000D01*
X96167080Y-66674000D01*
X96100041Y-66654315D01*
X96091593Y-66648376D01*
X96088783Y-66646220D01*
X96088782Y-66646218D01*
X95963341Y-66549964D01*
X95947810Y-66543531D01*
X95817262Y-66489456D01*
X95817260Y-66489455D01*
X95660501Y-66468818D01*
X95660499Y-66468818D01*
X95503739Y-66489455D01*
X95503737Y-66489456D01*
X95357660Y-66549963D01*
X95232218Y-66646218D01*
X95135963Y-66771660D01*
X95075456Y-66917737D01*
X95075455Y-66917739D01*
X95054818Y-67074498D01*
X95054818Y-67074501D01*
X95075455Y-67231260D01*
X95075456Y-67231262D01*
X95114636Y-67325852D01*
X95135964Y-67377341D01*
X95232218Y-67502782D01*
X95357659Y-67599036D01*
X95503738Y-67659544D01*
X95540327Y-67664361D01*
X95660499Y-67680182D01*
X95660500Y-67680182D01*
X95794818Y-67662498D01*
X95863849Y-67673263D01*
X95916105Y-67719643D01*
X95935000Y-67785434D01*
X95935000Y-67818679D01*
X95941000Y-67864256D01*
X95941003Y-67864266D01*
X95965638Y-67917096D01*
X95976130Y-67986173D01*
X95965639Y-68021903D01*
X95943141Y-68070152D01*
X95941000Y-68074743D01*
X95935001Y-68120311D01*
X95935000Y-68120327D01*
X95935000Y-68318680D01*
X95941000Y-68364256D01*
X95941003Y-68364266D01*
X95965638Y-68417096D01*
X95976130Y-68486173D01*
X95965639Y-68521903D01*
X95962505Y-68528625D01*
X95941000Y-68574742D01*
X95936401Y-68609673D01*
X95908133Y-68673569D01*
X95849807Y-68712039D01*
X95779943Y-68712869D01*
X95759002Y-68704886D01*
X95667019Y-68659918D01*
X95654528Y-68658098D01*
X95592082Y-68649000D01*
X95248918Y-68649000D01*
X95173982Y-68659918D01*
X95173981Y-68659918D01*
X95173976Y-68659919D01*
X95164780Y-68662761D01*
X95164194Y-68660867D01*
X95107373Y-68670565D01*
X95043078Y-68643217D01*
X95034113Y-68635087D01*
X94927794Y-68528768D01*
X94927785Y-68528761D01*
X94789691Y-68447093D01*
X94789688Y-68447091D01*
X94650501Y-68406653D01*
X94650500Y-68406654D01*
X94650500Y-70032343D01*
X94789694Y-69991904D01*
X94927785Y-69910238D01*
X94927790Y-69910234D01*
X95034112Y-69803912D01*
X95095435Y-69770427D01*
X95165127Y-69775411D01*
X95172872Y-69778739D01*
X95173975Y-69779080D01*
X95173979Y-69779080D01*
X95173982Y-69779082D01*
X95248918Y-69790000D01*
X95248923Y-69790000D01*
X95592077Y-69790000D01*
X95592082Y-69790000D01*
X95667018Y-69779082D01*
X95759003Y-69734112D01*
X95827875Y-69722353D01*
X95892172Y-69749696D01*
X95931480Y-69807460D01*
X95936402Y-69829328D01*
X95941000Y-69864256D01*
X95941003Y-69864266D01*
X95965638Y-69917096D01*
X95976130Y-69986173D01*
X95965639Y-70021903D01*
X95951161Y-70052953D01*
X95941000Y-70074743D01*
X95935001Y-70120311D01*
X95935000Y-70120327D01*
X95935000Y-70318680D01*
X95941000Y-70364256D01*
X95941002Y-70364263D01*
X95959601Y-70404148D01*
X95987650Y-70464299D01*
X96065701Y-70542350D01*
X96165740Y-70588999D01*
X96211321Y-70595000D01*
X96786000Y-70594999D01*
X96853039Y-70614683D01*
X96898794Y-70667487D01*
X96910000Y-70718999D01*
X96910000Y-71293680D01*
X96916000Y-71339256D01*
X96916002Y-71339263D01*
X96927688Y-71364323D01*
X96938180Y-71433400D01*
X96909660Y-71497184D01*
X96906537Y-71500710D01*
X96882543Y-71526774D01*
X96341208Y-72068109D01*
X96279885Y-72101594D01*
X96268343Y-72103259D01*
X96268357Y-72103354D01*
X96263923Y-72104000D01*
X96263918Y-72104000D01*
X96188982Y-72114918D01*
X96188980Y-72114918D01*
X96188978Y-72114919D01*
X96073400Y-72171421D01*
X96073397Y-72171423D01*
X95982423Y-72262397D01*
X95982421Y-72262400D01*
X95925919Y-72377978D01*
X95925918Y-72377980D01*
X95925918Y-72377982D01*
X95915000Y-72452918D01*
X95915000Y-72796082D01*
X95925918Y-72871018D01*
X95925918Y-72871019D01*
X95925919Y-72871021D01*
X95982421Y-72986599D01*
X95982423Y-72986602D01*
X96042640Y-73046819D01*
X96076125Y-73108142D01*
X96071141Y-73177834D01*
X96042640Y-73222181D01*
X95982423Y-73282397D01*
X95982421Y-73282400D01*
X95925919Y-73397978D01*
X95925918Y-73397980D01*
X95925918Y-73397982D01*
X95915000Y-73472918D01*
X95915000Y-73816082D01*
X95925918Y-73891018D01*
X95925918Y-73891019D01*
X95925919Y-73891021D01*
X95982421Y-74006599D01*
X95982423Y-74006602D01*
X96073397Y-74097576D01*
X96073400Y-74097578D01*
X96184156Y-74151722D01*
X96188982Y-74154082D01*
X96263918Y-74165000D01*
X96263923Y-74165000D01*
X96707077Y-74165000D01*
X96707082Y-74165000D01*
X96782018Y-74154082D01*
X96859525Y-74116190D01*
X96928397Y-74104431D01*
X96992694Y-74131774D01*
X97032002Y-74189538D01*
X97037444Y-74239164D01*
X97035000Y-74265235D01*
X97035000Y-74773769D01*
X97037853Y-74804199D01*
X97037853Y-74804201D01*
X97081697Y-74929496D01*
X97082707Y-74932382D01*
X97163350Y-75041650D01*
X97209634Y-75075809D01*
X97251884Y-75131454D01*
X97260000Y-75175578D01*
X97260000Y-75243242D01*
X97240315Y-75310281D01*
X97236573Y-75315603D01*
X97235965Y-75316656D01*
X97175456Y-75462737D01*
X97175455Y-75462739D01*
X97154818Y-75619498D01*
X97154818Y-75619501D01*
X97175455Y-75776260D01*
X97175456Y-75776262D01*
X97197280Y-75828951D01*
X97235964Y-75922341D01*
X97332218Y-76047782D01*
X97457659Y-76144036D01*
X97603738Y-76204544D01*
X97645515Y-76210044D01*
X97760499Y-76225182D01*
X97760500Y-76225182D01*
X97760501Y-76225182D01*
X97820499Y-76217283D01*
X97917262Y-76204544D01*
X98063341Y-76144036D01*
X98188782Y-76047782D01*
X98285036Y-75922341D01*
X98345544Y-75776262D01*
X98365831Y-75622165D01*
X98366182Y-75619501D01*
X98366182Y-75619498D01*
X98345544Y-75462739D01*
X98345544Y-75462738D01*
X98285036Y-75316659D01*
X98285034Y-75316656D01*
X98280972Y-75309619D01*
X98282713Y-75308613D01*
X98261430Y-75253557D01*
X98261000Y-75243242D01*
X98261000Y-75194667D01*
X98280685Y-75127628D01*
X98333489Y-75081873D01*
X98402647Y-75071929D01*
X98466203Y-75100954D01*
X98472681Y-75106986D01*
X98582767Y-75217072D01*
X98582771Y-75217075D01*
X98727007Y-75306042D01*
X98727018Y-75306047D01*
X98887893Y-75359355D01*
X98987183Y-75369499D01*
X99035499Y-75369498D01*
X99035500Y-75369498D01*
X99035500Y-74669500D01*
X99535500Y-74669500D01*
X99535500Y-75369499D01*
X99583808Y-75369499D01*
X99583822Y-75369498D01*
X99683107Y-75359355D01*
X99843981Y-75306047D01*
X99843988Y-75306044D01*
X99938732Y-75247604D01*
X100006124Y-75229163D01*
X100072788Y-75250085D01*
X100091511Y-75265461D01*
X100100622Y-75274572D01*
X100246104Y-75362519D01*
X100246103Y-75362519D01*
X100408394Y-75413090D01*
X100408392Y-75413090D01*
X100478918Y-75419499D01*
X100560499Y-75419498D01*
X100560500Y-75419498D01*
X100560500Y-74769500D01*
X99919500Y-74769500D01*
X99852461Y-74749815D01*
X99806706Y-74697011D01*
X99802172Y-74676172D01*
X99795500Y-74669500D01*
X99535500Y-74669500D01*
X99035500Y-74669500D01*
X99035500Y-74293500D01*
X99055185Y-74226461D01*
X99107989Y-74180706D01*
X99159500Y-74169500D01*
X100176500Y-74169500D01*
X100243539Y-74189185D01*
X100289294Y-74241989D01*
X100293827Y-74262827D01*
X100300500Y-74269500D01*
X100936500Y-74269500D01*
X101003539Y-74289185D01*
X101049294Y-74341989D01*
X101060500Y-74393500D01*
X101060500Y-75419499D01*
X101142081Y-75419499D01*
X101212601Y-75413091D01*
X101224104Y-75409507D01*
X101293964Y-75408353D01*
X101353358Y-75445151D01*
X101383429Y-75508218D01*
X101385000Y-75527891D01*
X101385000Y-81385823D01*
X101365315Y-81452862D01*
X101348681Y-81473504D01*
X100747646Y-82074538D01*
X100686323Y-82108023D01*
X100679915Y-82109140D01*
X100678741Y-82109454D01*
X100532660Y-82169963D01*
X100407218Y-82266218D01*
X100310963Y-82391660D01*
X100250456Y-82537737D01*
X100250455Y-82537739D01*
X100229818Y-82694498D01*
X100229818Y-82694501D01*
X100250455Y-82851260D01*
X100250456Y-82851262D01*
X100310964Y-82997341D01*
X100407218Y-83122782D01*
X100532659Y-83219036D01*
X100678738Y-83279544D01*
X100757119Y-83289863D01*
X100835499Y-83300182D01*
X100835500Y-83300182D01*
X100835501Y-83300182D01*
X100887754Y-83293302D01*
X100992262Y-83279544D01*
X101138341Y-83219036D01*
X101263782Y-83122782D01*
X101360036Y-82997341D01*
X101420544Y-82851262D01*
X101420544Y-82851254D01*
X101422649Y-82843406D01*
X101424594Y-82843927D01*
X101448463Y-82789958D01*
X101455450Y-82782362D01*
X101613820Y-82623992D01*
X101675142Y-82590508D01*
X101744834Y-82595492D01*
X101800767Y-82637364D01*
X101825184Y-82702828D01*
X101825500Y-82711674D01*
X101825500Y-82817000D01*
X102625500Y-82817000D01*
X102625500Y-83317000D01*
X101825500Y-83317000D01*
X101825500Y-83469398D01*
X101840465Y-83626122D01*
X101840466Y-83626126D01*
X101899649Y-83827686D01*
X101995913Y-84014414D01*
X102125768Y-84179537D01*
X102125771Y-84179540D01*
X102284530Y-84317105D01*
X102284541Y-84317114D01*
X102466460Y-84422144D01*
X102466467Y-84422147D01*
X102664987Y-84490856D01*
X102675500Y-84492367D01*
X102675500Y-83583110D01*
X102699957Y-83622610D01*
X102789462Y-83690201D01*
X102897340Y-83720895D01*
X103009021Y-83710546D01*
X103109422Y-83660552D01*
X103175500Y-83588069D01*
X103175500Y-84517000D01*
X103275500Y-84517000D01*
X103275500Y-83317000D01*
X103775500Y-83317000D01*
X103775500Y-84517000D01*
X104173328Y-84517000D01*
X104173344Y-84516999D01*
X104232872Y-84510598D01*
X104232883Y-84510595D01*
X104357166Y-84464240D01*
X104426857Y-84459255D01*
X104443834Y-84464240D01*
X104568116Y-84510595D01*
X104568127Y-84510598D01*
X104627655Y-84516999D01*
X104627672Y-84517000D01*
X105175500Y-84517000D01*
X105175500Y-83317000D01*
X105675500Y-83317000D01*
X105675500Y-84517000D01*
X106223328Y-84517000D01*
X106223344Y-84516999D01*
X106282872Y-84510598D01*
X106282876Y-84510597D01*
X106382166Y-84473564D01*
X106451858Y-84468580D01*
X106468834Y-84473564D01*
X106568123Y-84510597D01*
X106568127Y-84510598D01*
X106627655Y-84516999D01*
X106627672Y-84517000D01*
X107175500Y-84517000D01*
X107175500Y-83317000D01*
X107675500Y-83317000D01*
X107675500Y-84517000D01*
X108223328Y-84517000D01*
X108223344Y-84516999D01*
X108282872Y-84510598D01*
X108282883Y-84510595D01*
X108407166Y-84464240D01*
X108476857Y-84459255D01*
X108493834Y-84464240D01*
X108618116Y-84510595D01*
X108618127Y-84510598D01*
X108677655Y-84516999D01*
X108677672Y-84517000D01*
X109075500Y-84517000D01*
X109075500Y-83317000D01*
X107675500Y-83317000D01*
X107175500Y-83317000D01*
X105675500Y-83317000D01*
X105175500Y-83317000D01*
X103775500Y-83317000D01*
X103275500Y-83317000D01*
X103275500Y-82941000D01*
X103295185Y-82873961D01*
X103347989Y-82828206D01*
X103399500Y-82817000D01*
X107175500Y-82817000D01*
X107175500Y-81617000D01*
X106627655Y-81617000D01*
X106568127Y-81623401D01*
X106568116Y-81623403D01*
X106468832Y-81660434D01*
X106399140Y-81665418D01*
X106382168Y-81660434D01*
X106282883Y-81623403D01*
X106282872Y-81623401D01*
X106223344Y-81617000D01*
X105764240Y-81617000D01*
X105697201Y-81597315D01*
X105651446Y-81544511D01*
X105641502Y-81475353D01*
X105670527Y-81411797D01*
X105676562Y-81405315D01*
X105682690Y-81399186D01*
X105725359Y-81342189D01*
X105781293Y-81300318D01*
X105824626Y-81292500D01*
X106000176Y-81292500D01*
X106076308Y-81277356D01*
X106124692Y-81277356D01*
X106200823Y-81292500D01*
X106200826Y-81292500D01*
X106650176Y-81292500D01*
X106726308Y-81277356D01*
X106774692Y-81277356D01*
X106850823Y-81292500D01*
X106850826Y-81292500D01*
X107300176Y-81292500D01*
X107376308Y-81277356D01*
X107424692Y-81277356D01*
X107500823Y-81292500D01*
X107500826Y-81292500D01*
X107950176Y-81292500D01*
X107950177Y-81292499D01*
X107965587Y-81289434D01*
X108025642Y-81277489D01*
X108095233Y-81283716D01*
X108130067Y-81306545D01*
X108130935Y-81305512D01*
X108135078Y-81308988D01*
X108252809Y-81391425D01*
X108296433Y-81446002D01*
X108303626Y-81515501D01*
X108272104Y-81577855D01*
X108211874Y-81613269D01*
X108181685Y-81617000D01*
X107675500Y-81617000D01*
X107675500Y-82817000D01*
X109451500Y-82817000D01*
X109518539Y-82836685D01*
X109564294Y-82889489D01*
X109575500Y-82941000D01*
X109575500Y-84517000D01*
X109675500Y-84517000D01*
X109675500Y-83583110D01*
X109699957Y-83622610D01*
X109789462Y-83690201D01*
X109897340Y-83720895D01*
X110009021Y-83710546D01*
X110109422Y-83660552D01*
X110175500Y-83588069D01*
X110175500Y-84488257D01*
X110286909Y-84461229D01*
X110478007Y-84373959D01*
X110649119Y-84252110D01*
X110649125Y-84252104D01*
X110794092Y-84100067D01*
X110907666Y-83923342D01*
X110985744Y-83728314D01*
X111025500Y-83522037D01*
X111025500Y-83317000D01*
X110225500Y-83317000D01*
X110225500Y-83219501D01*
X112113204Y-83219501D01*
X112113399Y-83221986D01*
X112159218Y-83379698D01*
X112242814Y-83521052D01*
X112242821Y-83521061D01*
X112358938Y-83637178D01*
X112358947Y-83637185D01*
X112500303Y-83720782D01*
X112500306Y-83720783D01*
X112658004Y-83766599D01*
X112658010Y-83766600D01*
X112694856Y-83769500D01*
X113210500Y-83769500D01*
X113210500Y-83219500D01*
X112113205Y-83219500D01*
X112113204Y-83219501D01*
X110225500Y-83219501D01*
X110225500Y-82817000D01*
X111025500Y-82817000D01*
X111025500Y-82664601D01*
X111010534Y-82507877D01*
X111010533Y-82507873D01*
X110951350Y-82306313D01*
X110855086Y-82119585D01*
X110725231Y-81954462D01*
X110725228Y-81954459D01*
X110566469Y-81816894D01*
X110566458Y-81816885D01*
X110384539Y-81711855D01*
X110384532Y-81711852D01*
X110186016Y-81643144D01*
X110175500Y-81641632D01*
X110175500Y-82550889D01*
X110151043Y-82511390D01*
X110061538Y-82443799D01*
X109953660Y-82413105D01*
X109841979Y-82423454D01*
X109741578Y-82473448D01*
X109675500Y-82545930D01*
X109675500Y-81617000D01*
X109669313Y-81617000D01*
X109602274Y-81597315D01*
X109556519Y-81544511D01*
X109546575Y-81475353D01*
X109575600Y-81411797D01*
X109597099Y-81392407D01*
X109597120Y-81392174D01*
X108991751Y-80786805D01*
X109058469Y-80776238D01*
X109178423Y-80715118D01*
X109273618Y-80619923D01*
X109334738Y-80499969D01*
X109345304Y-80433251D01*
X109950673Y-81038619D01*
X109990435Y-80981835D01*
X110081017Y-80787581D01*
X110081022Y-80787567D01*
X110136495Y-80580537D01*
X110136497Y-80580527D01*
X110155179Y-80367000D01*
X110155179Y-80366999D01*
X110136497Y-80153472D01*
X110136495Y-80153462D01*
X110081022Y-79946432D01*
X110081018Y-79946423D01*
X109990433Y-79752162D01*
X109950673Y-79695378D01*
X109345304Y-80300747D01*
X109334738Y-80234031D01*
X109273618Y-80114077D01*
X109178423Y-80018882D01*
X109058469Y-79957762D01*
X108991751Y-79947195D01*
X109617627Y-79321319D01*
X109678950Y-79287834D01*
X109705308Y-79285000D01*
X110067357Y-79285000D01*
X110093715Y-79287834D01*
X110098427Y-79288859D01*
X110150171Y-79285157D01*
X110154594Y-79285000D01*
X110170299Y-79285000D01*
X110185842Y-79282764D01*
X110190240Y-79282291D01*
X110241983Y-79278591D01*
X110246492Y-79276908D01*
X110272185Y-79270350D01*
X110276957Y-79269665D01*
X110324146Y-79248113D01*
X110328228Y-79246422D01*
X110357138Y-79235640D01*
X110376829Y-79228297D01*
X110376829Y-79228296D01*
X110376831Y-79228296D01*
X110380689Y-79225407D01*
X110403495Y-79211875D01*
X110407873Y-79209877D01*
X110447064Y-79175916D01*
X110450514Y-79173137D01*
X110453430Y-79170953D01*
X110463093Y-79163721D01*
X110474220Y-79152592D01*
X110477425Y-79149609D01*
X110516643Y-79115628D01*
X110519251Y-79111568D01*
X110535881Y-79090931D01*
X111031431Y-78595381D01*
X111052068Y-78578751D01*
X111056128Y-78576143D01*
X111090109Y-78536925D01*
X111093092Y-78533720D01*
X111104221Y-78522593D01*
X111113637Y-78510014D01*
X111116417Y-78506564D01*
X111122771Y-78499231D01*
X111150377Y-78467373D01*
X111152375Y-78462995D01*
X111165907Y-78440189D01*
X111168796Y-78436331D01*
X111186922Y-78387728D01*
X111188614Y-78383645D01*
X111200398Y-78357842D01*
X111210165Y-78336457D01*
X111210850Y-78331685D01*
X111217409Y-78305992D01*
X111219091Y-78301483D01*
X111219092Y-78301467D01*
X111219813Y-78298156D01*
X111221452Y-78295151D01*
X111222193Y-78293168D01*
X111222477Y-78293274D01*
X111253290Y-78236829D01*
X111314609Y-78203336D01*
X111340974Y-78200499D01*
X111903520Y-78200499D01*
X111962391Y-78194171D01*
X112095554Y-78144503D01*
X112166433Y-78091443D01*
X112231894Y-78067028D01*
X112300167Y-78081879D01*
X112349573Y-78131284D01*
X112363214Y-78171314D01*
X112374852Y-78244800D01*
X112374853Y-78244803D01*
X112374854Y-78244804D01*
X112432450Y-78357842D01*
X112432452Y-78357844D01*
X112432454Y-78357847D01*
X112522152Y-78447545D01*
X112522154Y-78447546D01*
X112522158Y-78447550D01*
X112593725Y-78484015D01*
X112644521Y-78531990D01*
X112661316Y-78599811D01*
X112638778Y-78665946D01*
X112593726Y-78704984D01*
X112522158Y-78741450D01*
X112522157Y-78741451D01*
X112522152Y-78741454D01*
X112432454Y-78831152D01*
X112432451Y-78831157D01*
X112432450Y-78831158D01*
X112413251Y-78868837D01*
X112374852Y-78944198D01*
X112360000Y-79037975D01*
X112360000Y-79401017D01*
X112367945Y-79451180D01*
X112374854Y-79494804D01*
X112432450Y-79607842D01*
X112432452Y-79607844D01*
X112432454Y-79607847D01*
X112522152Y-79697545D01*
X112522154Y-79697546D01*
X112522158Y-79697550D01*
X112593725Y-79734015D01*
X112644521Y-79781990D01*
X112661316Y-79849811D01*
X112638778Y-79915946D01*
X112593726Y-79954984D01*
X112522158Y-79991450D01*
X112522157Y-79991451D01*
X112522152Y-79991454D01*
X112432454Y-80081152D01*
X112432451Y-80081157D01*
X112374852Y-80194198D01*
X112360000Y-80287975D01*
X112360000Y-80651017D01*
X112370153Y-80715118D01*
X112374854Y-80744804D01*
X112432450Y-80857842D01*
X112432452Y-80857844D01*
X112432454Y-80857847D01*
X112522152Y-80947545D01*
X112522154Y-80947546D01*
X112522158Y-80947550D01*
X112593725Y-80984015D01*
X112644521Y-81031990D01*
X112661316Y-81099811D01*
X112638778Y-81165946D01*
X112593726Y-81204984D01*
X112522158Y-81241450D01*
X112522157Y-81241451D01*
X112522152Y-81241454D01*
X112432454Y-81331152D01*
X112432451Y-81331157D01*
X112432450Y-81331158D01*
X112413251Y-81368837D01*
X112374852Y-81444198D01*
X112360000Y-81537975D01*
X112360000Y-81901017D01*
X112368465Y-81954462D01*
X112374854Y-81994804D01*
X112432450Y-82107842D01*
X112432451Y-82107843D01*
X112436881Y-82116537D01*
X112434202Y-82117901D01*
X112452314Y-82168700D01*
X112436473Y-82236750D01*
X112391638Y-82282481D01*
X112358946Y-82301815D01*
X112358938Y-82301821D01*
X112242821Y-82417938D01*
X112242814Y-82417947D01*
X112159218Y-82559301D01*
X112113399Y-82717013D01*
X112113204Y-82719498D01*
X112113205Y-82719500D01*
X113586500Y-82719500D01*
X113653539Y-82739185D01*
X113699294Y-82791989D01*
X113710500Y-82843500D01*
X113710500Y-83769500D01*
X113837917Y-83769500D01*
X113899916Y-83786112D01*
X113917423Y-83796219D01*
X113917427Y-83796221D01*
X114097345Y-83854680D01*
X114238341Y-83869500D01*
X114285500Y-83869500D01*
X114285500Y-82994123D01*
X114300005Y-83067045D01*
X114355260Y-83149740D01*
X114437955Y-83204995D01*
X114510876Y-83219500D01*
X114560124Y-83219500D01*
X114785500Y-83219500D01*
X114785500Y-83869500D01*
X114832659Y-83869500D01*
X114973654Y-83854680D01*
X115153572Y-83796221D01*
X115153584Y-83796216D01*
X115317415Y-83701629D01*
X115317418Y-83701627D01*
X115458009Y-83575039D01*
X115458011Y-83575036D01*
X115569217Y-83421977D01*
X115646164Y-83249148D01*
X115652467Y-83219500D01*
X114785500Y-83219500D01*
X114560124Y-83219500D01*
X114633045Y-83204995D01*
X114715740Y-83149740D01*
X114770995Y-83067045D01*
X114790398Y-82969500D01*
X114770995Y-82871955D01*
X114715740Y-82789260D01*
X114633045Y-82734005D01*
X114560124Y-82719500D01*
X115652467Y-82719500D01*
X115646165Y-82689854D01*
X115569213Y-82517018D01*
X115458012Y-82363964D01*
X115339250Y-82257030D01*
X115302601Y-82197543D01*
X115303932Y-82127686D01*
X115326680Y-82085838D01*
X115339100Y-82070826D01*
X115409079Y-81922113D01*
X115439876Y-81760670D01*
X115429556Y-81596640D01*
X115378768Y-81440329D01*
X115376773Y-81437186D01*
X115316486Y-81342189D01*
X115290702Y-81301560D01*
X115267737Y-81279994D01*
X115165206Y-81183711D01*
X115166921Y-81181884D01*
X115131763Y-81136284D01*
X115125788Y-81066670D01*
X115158399Y-81004877D01*
X115174428Y-80990988D01*
X115234337Y-80947463D01*
X115339100Y-80820826D01*
X115409079Y-80672113D01*
X115439876Y-80510670D01*
X115429556Y-80346640D01*
X115378768Y-80190329D01*
X115290702Y-80051560D01*
X115290701Y-80051559D01*
X115165206Y-79933711D01*
X115166921Y-79931884D01*
X115131763Y-79886284D01*
X115125788Y-79816670D01*
X115158399Y-79754877D01*
X115174428Y-79740988D01*
X115234337Y-79697463D01*
X115339100Y-79570826D01*
X115409079Y-79422113D01*
X115439876Y-79260670D01*
X115429556Y-79096640D01*
X115378768Y-78940329D01*
X115290702Y-78801560D01*
X115226696Y-78741454D01*
X115165206Y-78683711D01*
X115166921Y-78681884D01*
X115131763Y-78636284D01*
X115125788Y-78566670D01*
X115158399Y-78504877D01*
X115174428Y-78490988D01*
X115234337Y-78447463D01*
X115339100Y-78320826D01*
X115409079Y-78172113D01*
X115439876Y-78010670D01*
X115429556Y-77846640D01*
X115378768Y-77690329D01*
X115357300Y-77656501D01*
X115290702Y-77551559D01*
X115221807Y-77486863D01*
X115186413Y-77426622D01*
X115189205Y-77356808D01*
X115229299Y-77299587D01*
X115233021Y-77296727D01*
X115307650Y-77241650D01*
X115388293Y-77132382D01*
X115426800Y-77022335D01*
X115433146Y-77004201D01*
X115433146Y-77004199D01*
X115436000Y-76973769D01*
X115436000Y-76465230D01*
X115433146Y-76434802D01*
X115431007Y-76428690D01*
X115418930Y-76394173D01*
X115412288Y-76344372D01*
X115413233Y-76331158D01*
X115414859Y-76308427D01*
X115413832Y-76303706D01*
X115411000Y-76277358D01*
X115411000Y-75743999D01*
X115430685Y-75676960D01*
X115483489Y-75631205D01*
X115534995Y-75619999D01*
X117808372Y-75619999D01*
X117867983Y-75613591D01*
X118002831Y-75563296D01*
X118118046Y-75477046D01*
X118204296Y-75361831D01*
X118254591Y-75226983D01*
X118261000Y-75167373D01*
X118260999Y-74571628D01*
X118254591Y-74512017D01*
X118244132Y-74483976D01*
X118204297Y-74377171D01*
X118204293Y-74377164D01*
X118118047Y-74261955D01*
X118118044Y-74261952D01*
X118002835Y-74175706D01*
X118002828Y-74175702D01*
X117867982Y-74125408D01*
X117867983Y-74125408D01*
X117808383Y-74119001D01*
X117808381Y-74119000D01*
X117808373Y-74119000D01*
X117808365Y-74119000D01*
X116184319Y-74119000D01*
X116117280Y-74099315D01*
X116071525Y-74046511D01*
X116061581Y-73977353D01*
X116085053Y-73920688D01*
X116096628Y-73905226D01*
X116144412Y-73777114D01*
X116147613Y-73747341D01*
X116150499Y-73720501D01*
X116150499Y-73720494D01*
X116150500Y-73720485D01*
X116150499Y-73129516D01*
X116144412Y-73072886D01*
X116140028Y-73061133D01*
X116124569Y-73019685D01*
X116096628Y-72944774D01*
X116096626Y-72944771D01*
X116096626Y-72944770D01*
X116014692Y-72835318D01*
X116014686Y-72835312D01*
X116000188Y-72824459D01*
X115958317Y-72768524D01*
X115950500Y-72725193D01*
X115950500Y-72599807D01*
X115970185Y-72532768D01*
X116000190Y-72500539D01*
X116014687Y-72489687D01*
X116096628Y-72380226D01*
X116144412Y-72252114D01*
X116147339Y-72224889D01*
X116150499Y-72195501D01*
X116150499Y-72195494D01*
X116150500Y-72195485D01*
X116150499Y-71604516D01*
X116144412Y-71547886D01*
X116133022Y-71517350D01*
X116130168Y-71509697D01*
X116096628Y-71419774D01*
X116096626Y-71419771D01*
X116096626Y-71419770D01*
X116014692Y-71310318D01*
X116014686Y-71310312D01*
X116000188Y-71299459D01*
X115958317Y-71243524D01*
X115950500Y-71200193D01*
X115950500Y-71158675D01*
X115970185Y-71091636D01*
X115986815Y-71070998D01*
X116441931Y-70615881D01*
X116462568Y-70599251D01*
X116466628Y-70596643D01*
X116500596Y-70557439D01*
X116503607Y-70554206D01*
X116514720Y-70543094D01*
X116524147Y-70530498D01*
X116526911Y-70527070D01*
X116560875Y-70487876D01*
X116560875Y-70487874D01*
X116560877Y-70487873D01*
X116562877Y-70483492D01*
X116576411Y-70460683D01*
X116579295Y-70456831D01*
X116597420Y-70408234D01*
X116599113Y-70404148D01*
X116603308Y-70394963D01*
X116620665Y-70356957D01*
X116621351Y-70352183D01*
X116627907Y-70326496D01*
X116629591Y-70321983D01*
X116629591Y-70321978D01*
X116629592Y-70321977D01*
X116632976Y-70274638D01*
X116633291Y-70270227D01*
X116633758Y-70265885D01*
X116636000Y-70250299D01*
X116636000Y-70234583D01*
X116636158Y-70230158D01*
X116636640Y-70223426D01*
X116639858Y-70178427D01*
X116638833Y-70173714D01*
X116636000Y-70147358D01*
X116636000Y-62309323D01*
X116645439Y-62261870D01*
X116661288Y-62223607D01*
X116670544Y-62201262D01*
X116691182Y-62044500D01*
X116688130Y-62021321D01*
X116670544Y-61887739D01*
X116670544Y-61887738D01*
X116610036Y-61741659D01*
X116513782Y-61616218D01*
X116513779Y-61616216D01*
X116513778Y-61616214D01*
X116480950Y-61591024D01*
X116473479Y-61583986D01*
X116473327Y-61584162D01*
X116466625Y-61578354D01*
X116462566Y-61575746D01*
X116441928Y-61559114D01*
X113451385Y-58568571D01*
X113434750Y-58547928D01*
X113432145Y-58543874D01*
X113432142Y-58543871D01*
X113425147Y-58537810D01*
X113392932Y-58509896D01*
X113389700Y-58506886D01*
X113378596Y-58495782D01*
X113378588Y-58495775D01*
X113366013Y-58486362D01*
X113362583Y-58483598D01*
X113323373Y-58449623D01*
X113323371Y-58449622D01*
X113323367Y-58449619D01*
X113318983Y-58447617D01*
X113296194Y-58434096D01*
X113292331Y-58431204D01*
X113292329Y-58431203D01*
X113243716Y-58413071D01*
X113239642Y-58411383D01*
X113213112Y-58399267D01*
X113192456Y-58389834D01*
X113192346Y-58389819D01*
X113192242Y-58389771D01*
X113183948Y-58387336D01*
X113184298Y-58386143D01*
X113128792Y-58360790D01*
X113091021Y-58302010D01*
X113086000Y-58267082D01*
X113086000Y-56944823D01*
X113085999Y-56944821D01*
X113071467Y-56871764D01*
X113071466Y-56871760D01*
X113016101Y-56788899D01*
X112933240Y-56733534D01*
X112933239Y-56733533D01*
X112933235Y-56733532D01*
X112860177Y-56719000D01*
X112860174Y-56719000D01*
X110810826Y-56719000D01*
X110810823Y-56719000D01*
X110737764Y-56733532D01*
X110737760Y-56733533D01*
X110654899Y-56788899D01*
X110599533Y-56871760D01*
X110599532Y-56871764D01*
X110585000Y-56944821D01*
X110585000Y-57977298D01*
X110565315Y-58044337D01*
X110512511Y-58090092D01*
X110461000Y-58101298D01*
X108801235Y-58101298D01*
X108778744Y-58094694D01*
X108767871Y-58099817D01*
X108748765Y-58101298D01*
X108026235Y-58101298D01*
X108003744Y-58094694D01*
X107992871Y-58099817D01*
X107973765Y-58101298D01*
X107174351Y-58101298D01*
X107151940Y-58094717D01*
X107144781Y-58098584D01*
X107118982Y-58101298D01*
X106887266Y-58101298D01*
X106820227Y-58081613D01*
X106774472Y-58028809D01*
X106772705Y-58024750D01*
X106771466Y-58021760D01*
X106767418Y-58015701D01*
X106746542Y-57949024D01*
X106765028Y-57881644D01*
X106817008Y-57834955D01*
X106885978Y-57823780D01*
X106904631Y-57827597D01*
X106947582Y-57839887D01*
X106981839Y-57842495D01*
X106989614Y-57843586D01*
X107023255Y-57850500D01*
X107023259Y-57850500D01*
X107084599Y-57850500D01*
X107089305Y-57850678D01*
X107099811Y-57851478D01*
X107128398Y-57853656D01*
X107140262Y-57858143D01*
X107158684Y-57854292D01*
X107164697Y-57853525D01*
X107184560Y-57850996D01*
X107192390Y-57850500D01*
X107956573Y-57850500D01*
X107964670Y-57851030D01*
X107989442Y-57854292D01*
X107989951Y-57854359D01*
X107996447Y-57857233D01*
X108010049Y-57854359D01*
X108010558Y-57854292D01*
X108035329Y-57851030D01*
X108043427Y-57850500D01*
X108450742Y-57850500D01*
X108597097Y-57835617D01*
X108625818Y-57836041D01*
X108713018Y-57847522D01*
X108764950Y-57854359D01*
X108771447Y-57857233D01*
X108785050Y-57854359D01*
X108825614Y-57849018D01*
X108931762Y-57835044D01*
X109077841Y-57774536D01*
X109203282Y-57678282D01*
X109299536Y-57552841D01*
X109360044Y-57406762D01*
X109380682Y-57250000D01*
X109366721Y-57143957D01*
X109369619Y-57096693D01*
X109394061Y-57002291D01*
X109394062Y-57002287D01*
X109394063Y-57002285D01*
X109404369Y-56799064D01*
X109373556Y-56597929D01*
X109373128Y-56595135D01*
X109372759Y-56560176D01*
X109380682Y-56500000D01*
X109360044Y-56343238D01*
X109299536Y-56197159D01*
X109203282Y-56071718D01*
X109077841Y-55975464D01*
X108931762Y-55914956D01*
X108931760Y-55914955D01*
X108775002Y-55894318D01*
X108775000Y-55894318D01*
X108763628Y-55895814D01*
X108758735Y-55896459D01*
X108705438Y-55891834D01*
X108701061Y-55890460D01*
X108501741Y-55849500D01*
X107593697Y-55849500D01*
X107526658Y-55829815D01*
X107503823Y-55810932D01*
X107499562Y-55806449D01*
X107499560Y-55806448D01*
X107449209Y-55771402D01*
X107445444Y-55768564D01*
X107441193Y-55765098D01*
X107430738Y-55756572D01*
X107397908Y-55729802D01*
X107397906Y-55729800D01*
X107367459Y-55713897D01*
X107360751Y-55709834D01*
X107332549Y-55690205D01*
X107332546Y-55690203D01*
X107332545Y-55690203D01*
X107332541Y-55690201D01*
X107276180Y-55666014D01*
X107271924Y-55663993D01*
X107217557Y-55635594D01*
X107217550Y-55635591D01*
X107217549Y-55635591D01*
X107211508Y-55633862D01*
X107184530Y-55626142D01*
X107177130Y-55623508D01*
X107145557Y-55609959D01*
X107145558Y-55609959D01*
X107085466Y-55597609D01*
X107080891Y-55596486D01*
X107021920Y-55579613D01*
X107021925Y-55579613D01*
X106987658Y-55577003D01*
X106979880Y-55575912D01*
X106946242Y-55569000D01*
X106946241Y-55569000D01*
X106884902Y-55569000D01*
X106880195Y-55568821D01*
X106874621Y-55568396D01*
X106819024Y-55564162D01*
X106799089Y-55566701D01*
X106784940Y-55568503D01*
X106777111Y-55569000D01*
X105755588Y-55569000D01*
X105721480Y-55564216D01*
X105687918Y-55554613D01*
X105684259Y-55554334D01*
X105653658Y-55552003D01*
X105645880Y-55550912D01*
X105612242Y-55544000D01*
X105612241Y-55544000D01*
X105550902Y-55544000D01*
X105546195Y-55543821D01*
X105540621Y-55543396D01*
X105485024Y-55539162D01*
X105465089Y-55541701D01*
X105450940Y-55543503D01*
X105443111Y-55544000D01*
X101601090Y-55544000D01*
X101534051Y-55524315D01*
X101488296Y-55471511D01*
X101478352Y-55402353D01*
X101507377Y-55338797D01*
X101557757Y-55303818D01*
X101667586Y-55262854D01*
X101667593Y-55262850D01*
X101782687Y-55176690D01*
X101782690Y-55176687D01*
X101868850Y-55061593D01*
X101868854Y-55061586D01*
X101919096Y-54926879D01*
X101919098Y-54926872D01*
X101925499Y-54867344D01*
X101925500Y-54867327D01*
X101925500Y-54847337D01*
X101945185Y-54780298D01*
X101997989Y-54734543D01*
X102067147Y-54724599D01*
X102130703Y-54753624D01*
X102137181Y-54759656D01*
X102158623Y-54781098D01*
X102337861Y-54906602D01*
X102536170Y-54999075D01*
X102747523Y-55055707D01*
X102930426Y-55071708D01*
X102965498Y-55074777D01*
X102965500Y-55074777D01*
X102965502Y-55074777D01*
X102993754Y-55072305D01*
X103183477Y-55055707D01*
X103394830Y-54999075D01*
X103593139Y-54906602D01*
X103772377Y-54781098D01*
X103927098Y-54626377D01*
X104052602Y-54447139D01*
X104123118Y-54295914D01*
X104169290Y-54243477D01*
X104236484Y-54224325D01*
X104303365Y-54244541D01*
X104347881Y-54295914D01*
X104418398Y-54447139D01*
X104543902Y-54626377D01*
X104698623Y-54781098D01*
X104877861Y-54906602D01*
X105076170Y-54999075D01*
X105287523Y-55055707D01*
X105470426Y-55071708D01*
X105505498Y-55074777D01*
X105505500Y-55074777D01*
X105505502Y-55074777D01*
X105533754Y-55072305D01*
X105723477Y-55055707D01*
X105934830Y-54999075D01*
X106133139Y-54906602D01*
X106312377Y-54781098D01*
X106467098Y-54626377D01*
X106592602Y-54447139D01*
X106663118Y-54295914D01*
X106709290Y-54243477D01*
X106776484Y-54224325D01*
X106843365Y-54244541D01*
X106887881Y-54295914D01*
X106958398Y-54447139D01*
X107083902Y-54626377D01*
X107238623Y-54781098D01*
X107417861Y-54906602D01*
X107616170Y-54999075D01*
X107827523Y-55055707D01*
X108010426Y-55071708D01*
X108045498Y-55074777D01*
X108045500Y-55074777D01*
X108045502Y-55074777D01*
X108073754Y-55072305D01*
X108263477Y-55055707D01*
X108474830Y-54999075D01*
X108673139Y-54906602D01*
X108852377Y-54781098D01*
X109007098Y-54626377D01*
X109132602Y-54447139D01*
X109225075Y-54248830D01*
X109281707Y-54037477D01*
X109300777Y-53819500D01*
X109281707Y-53601523D01*
X109225075Y-53390170D01*
X109132602Y-53191862D01*
X109132600Y-53191859D01*
X109132599Y-53191857D01*
X109007097Y-53012621D01*
X109001157Y-53006681D01*
X108967672Y-52945358D01*
X108972656Y-52875666D01*
X109014528Y-52819733D01*
X109079992Y-52795316D01*
X109088838Y-52795000D01*
X119161000Y-52795000D01*
X119228039Y-52814685D01*
G37*
%TD.AperFunction*%
%TA.AperFunction,Conductor*%
G36*
X114437955Y-82734005D02*
G01*
X114355260Y-82789260D01*
X114300005Y-82871955D01*
X114285500Y-82944876D01*
X114285500Y-82843500D01*
X114305185Y-82776461D01*
X114357989Y-82730706D01*
X114409500Y-82719500D01*
X114510876Y-82719500D01*
X114437955Y-82734005D01*
G37*
%TD.AperFunction*%
%TA.AperFunction,Conductor*%
G36*
X105324273Y-71135622D02*
G01*
X105371884Y-71186759D01*
X105385000Y-71242264D01*
X105385000Y-71879178D01*
X105399532Y-71952235D01*
X105399533Y-71952239D01*
X105399534Y-71952240D01*
X105454899Y-72035101D01*
X105490217Y-72058699D01*
X105537760Y-72090466D01*
X105537764Y-72090467D01*
X105610821Y-72104999D01*
X105610824Y-72105000D01*
X106217915Y-72105000D01*
X106284954Y-72124685D01*
X106330709Y-72177489D01*
X106340653Y-72246647D01*
X106311628Y-72310203D01*
X106293405Y-72327372D01*
X106224523Y-72380228D01*
X106194993Y-72402887D01*
X106098738Y-72528329D01*
X106038231Y-72674406D01*
X106038231Y-72674407D01*
X106028671Y-72747019D01*
X106000404Y-72810915D01*
X105942079Y-72849385D01*
X105921918Y-72853771D01*
X105894258Y-72857412D01*
X105878738Y-72859456D01*
X105878737Y-72859456D01*
X105732660Y-72919963D01*
X105673357Y-72965468D01*
X105607218Y-73016218D01*
X105558787Y-73079334D01*
X105502361Y-73120535D01*
X105432615Y-73124690D01*
X105421408Y-73121552D01*
X105408105Y-73117143D01*
X105308822Y-73107000D01*
X105285500Y-73107000D01*
X105285500Y-75306999D01*
X105308808Y-75306999D01*
X105308822Y-75306998D01*
X105408107Y-75296855D01*
X105568981Y-75243547D01*
X105568992Y-75243542D01*
X105713228Y-75154575D01*
X105713232Y-75154572D01*
X105833072Y-75034732D01*
X105833075Y-75034728D01*
X105922042Y-74890492D01*
X105922047Y-74890481D01*
X105955794Y-74788641D01*
X105995567Y-74731196D01*
X106060082Y-74704373D01*
X106128858Y-74716688D01*
X106180058Y-74764231D01*
X106197500Y-74827645D01*
X106197500Y-75632500D01*
X106177815Y-75699539D01*
X106125011Y-75745294D01*
X106073500Y-75756500D01*
X105091482Y-75756500D01*
X105010519Y-75769323D01*
X104997696Y-75771354D01*
X104884658Y-75828950D01*
X104884657Y-75828951D01*
X104884652Y-75828954D01*
X104794954Y-75918652D01*
X104794951Y-75918657D01*
X104794950Y-75918658D01*
X104781528Y-75945000D01*
X104737352Y-76031698D01*
X104722500Y-76125475D01*
X104722500Y-76488522D01*
X104726254Y-76512224D01*
X104717296Y-76581517D01*
X104691462Y-76619298D01*
X104605318Y-76705442D01*
X104605314Y-76705447D01*
X104521718Y-76846801D01*
X104475899Y-77004513D01*
X104475704Y-77006998D01*
X104475705Y-77007000D01*
X105761500Y-77007000D01*
X105828539Y-77026685D01*
X105874294Y-77079489D01*
X105885500Y-77131000D01*
X105885500Y-77383000D01*
X105865815Y-77450039D01*
X105813011Y-77495794D01*
X105761500Y-77507000D01*
X104475705Y-77507000D01*
X104475704Y-77507001D01*
X104475899Y-77509486D01*
X104521718Y-77667198D01*
X104605314Y-77808552D01*
X104605321Y-77808561D01*
X104691460Y-77894700D01*
X104724945Y-77956023D01*
X104726253Y-78001773D01*
X104722500Y-78025475D01*
X104722500Y-78388517D01*
X104731836Y-78447462D01*
X104737354Y-78482304D01*
X104794950Y-78595342D01*
X104794952Y-78595344D01*
X104794954Y-78595347D01*
X104884652Y-78685045D01*
X104884654Y-78685046D01*
X104884658Y-78685050D01*
X104995349Y-78741450D01*
X104997698Y-78742647D01*
X105091475Y-78757499D01*
X105091481Y-78757500D01*
X105638955Y-78757499D01*
X105705994Y-78777183D01*
X105726636Y-78793818D01*
X106137956Y-79205137D01*
X106171441Y-79266460D01*
X106174169Y-79287688D01*
X106175000Y-79307760D01*
X106175000Y-79325180D01*
X106155315Y-79392219D01*
X106102511Y-79437974D01*
X106033353Y-79447918D01*
X106026810Y-79446798D01*
X106000174Y-79441500D01*
X105824626Y-79441500D01*
X105757587Y-79421815D01*
X105725359Y-79391811D01*
X105682690Y-79334813D01*
X105682685Y-79334808D01*
X105567593Y-79248649D01*
X105567586Y-79248645D01*
X105432879Y-79198403D01*
X105432872Y-79198401D01*
X105373344Y-79192000D01*
X105325500Y-79192000D01*
X105325500Y-79659202D01*
X105325201Y-79665282D01*
X105325000Y-79667323D01*
X105325000Y-80443000D01*
X105305315Y-80510039D01*
X105252511Y-80555794D01*
X105201000Y-80567000D01*
X105049500Y-80567000D01*
X104982461Y-80547315D01*
X104936706Y-80494511D01*
X104925500Y-80443000D01*
X104925500Y-79192000D01*
X104877655Y-79192000D01*
X104818127Y-79198401D01*
X104818120Y-79198403D01*
X104683413Y-79248645D01*
X104683407Y-79248648D01*
X104643955Y-79278182D01*
X104578491Y-79302598D01*
X104517241Y-79291296D01*
X104346076Y-79211481D01*
X104346067Y-79211477D01*
X104139037Y-79156004D01*
X104139027Y-79156002D01*
X103925501Y-79137321D01*
X103925499Y-79137321D01*
X103711972Y-79156002D01*
X103711962Y-79156004D01*
X103504932Y-79211477D01*
X103504923Y-79211481D01*
X103310658Y-79302068D01*
X103253878Y-79341824D01*
X103253878Y-79341825D01*
X103859248Y-79947195D01*
X103792531Y-79957762D01*
X103672577Y-80018882D01*
X103577382Y-80114077D01*
X103516262Y-80234031D01*
X103505695Y-80300749D01*
X102900324Y-79695378D01*
X102860568Y-79752158D01*
X102769981Y-79946423D01*
X102769977Y-79946432D01*
X102714504Y-80153462D01*
X102714502Y-80153472D01*
X102695821Y-80366999D01*
X102695821Y-80367000D01*
X102714502Y-80580527D01*
X102714504Y-80580537D01*
X102769977Y-80787567D01*
X102769981Y-80787576D01*
X102860567Y-80981839D01*
X102900325Y-81038620D01*
X103505695Y-80433250D01*
X103516262Y-80499969D01*
X103577382Y-80619923D01*
X103672577Y-80715118D01*
X103792531Y-80776238D01*
X103859246Y-80786804D01*
X103253878Y-81392173D01*
X103253936Y-81392833D01*
X103296435Y-81446002D01*
X103303627Y-81515501D01*
X103272105Y-81577855D01*
X103211875Y-81613269D01*
X103181686Y-81617000D01*
X103175500Y-81617000D01*
X103175500Y-82550889D01*
X103151043Y-82511390D01*
X103061538Y-82443799D01*
X102953660Y-82413105D01*
X102841979Y-82423454D01*
X102741578Y-82473448D01*
X102675500Y-82545930D01*
X102675500Y-81645740D01*
X102675499Y-81645740D01*
X102564099Y-81672766D01*
X102564086Y-81672771D01*
X102561510Y-81673948D01*
X102560102Y-81674150D01*
X102558512Y-81674701D01*
X102558405Y-81674394D01*
X102492352Y-81683891D01*
X102428796Y-81654865D01*
X102391023Y-81596087D01*
X102386000Y-81561153D01*
X102386000Y-78319051D01*
X102405685Y-78252012D01*
X102458489Y-78206257D01*
X102527647Y-78196313D01*
X102582883Y-78218732D01*
X102647407Y-78265612D01*
X102810733Y-78338329D01*
X102985609Y-78375500D01*
X102985610Y-78375500D01*
X103164389Y-78375500D01*
X103164391Y-78375500D01*
X103339267Y-78338329D01*
X103502593Y-78265612D01*
X103647230Y-78160526D01*
X103766859Y-78027665D01*
X103856250Y-77872835D01*
X103911497Y-77702803D01*
X103930185Y-77525000D01*
X103911497Y-77347197D01*
X103856250Y-77177165D01*
X103766859Y-77022335D01*
X103720003Y-76970296D01*
X103647235Y-76889478D01*
X103647232Y-76889476D01*
X103647231Y-76889475D01*
X103647230Y-76889474D01*
X103502593Y-76784388D01*
X103339267Y-76711671D01*
X103339265Y-76711670D01*
X103211594Y-76684533D01*
X103164391Y-76674500D01*
X102985609Y-76674500D01*
X102954954Y-76681015D01*
X102810733Y-76711670D01*
X102810728Y-76711672D01*
X102647408Y-76784388D01*
X102647403Y-76784390D01*
X102582885Y-76831266D01*
X102517079Y-76854746D01*
X102449025Y-76838920D01*
X102400330Y-76788815D01*
X102386000Y-76730948D01*
X102386000Y-75931715D01*
X102405685Y-75864676D01*
X102458489Y-75818921D01*
X102527647Y-75808977D01*
X102582884Y-75831397D01*
X102622407Y-75860112D01*
X102785733Y-75932829D01*
X102960609Y-75970000D01*
X102960610Y-75970000D01*
X103139389Y-75970000D01*
X103139391Y-75970000D01*
X103314267Y-75932829D01*
X103477593Y-75860112D01*
X103622230Y-75755026D01*
X103741859Y-75622165D01*
X103831250Y-75467335D01*
X103886497Y-75297303D01*
X103905185Y-75119500D01*
X103886497Y-74941697D01*
X103831250Y-74771665D01*
X103741859Y-74616835D01*
X103664148Y-74530528D01*
X103622235Y-74483978D01*
X103622232Y-74483976D01*
X103622231Y-74483975D01*
X103622230Y-74483974D01*
X103585104Y-74457000D01*
X104085501Y-74457000D01*
X104085501Y-74630322D01*
X104095644Y-74729607D01*
X104148952Y-74890481D01*
X104148957Y-74890492D01*
X104237924Y-75034728D01*
X104237927Y-75034732D01*
X104357767Y-75154572D01*
X104357771Y-75154575D01*
X104502007Y-75243542D01*
X104502018Y-75243547D01*
X104662893Y-75296855D01*
X104762183Y-75306999D01*
X104785500Y-75306998D01*
X104785500Y-74457000D01*
X104085501Y-74457000D01*
X103585104Y-74457000D01*
X103477593Y-74378888D01*
X103314267Y-74306171D01*
X103314265Y-74306170D01*
X103186594Y-74279033D01*
X103139391Y-74269000D01*
X102960609Y-74269000D01*
X102929954Y-74275515D01*
X102785733Y-74306170D01*
X102785728Y-74306172D01*
X102622408Y-74378887D01*
X102582885Y-74407603D01*
X102517078Y-74431082D01*
X102449024Y-74415256D01*
X102400330Y-74365150D01*
X102386000Y-74307284D01*
X102386000Y-73957000D01*
X104085500Y-73957000D01*
X104785500Y-73957000D01*
X104785500Y-73106999D01*
X104762193Y-73107000D01*
X104762174Y-73107001D01*
X104662892Y-73117144D01*
X104502018Y-73170452D01*
X104502007Y-73170457D01*
X104357771Y-73259424D01*
X104357767Y-73259427D01*
X104237927Y-73379267D01*
X104237924Y-73379271D01*
X104148957Y-73523507D01*
X104148952Y-73523518D01*
X104095644Y-73684393D01*
X104085500Y-73783677D01*
X104085500Y-73957000D01*
X102386000Y-73957000D01*
X102386000Y-73903176D01*
X102405685Y-73836137D01*
X102422319Y-73815495D01*
X102577221Y-73660593D01*
X103103732Y-73134082D01*
X104698352Y-71539460D01*
X104759673Y-71505977D01*
X104766080Y-71504860D01*
X104767254Y-71504544D01*
X104767262Y-71504544D01*
X104913341Y-71444036D01*
X105038782Y-71347782D01*
X105135036Y-71222341D01*
X105146439Y-71194812D01*
X105190279Y-71140408D01*
X105256574Y-71118343D01*
X105324273Y-71135622D01*
G37*
%TD.AperFunction*%
%TA.AperFunction,Conductor*%
G36*
X108415991Y-70757914D02*
G01*
X108471925Y-70799786D01*
X108496342Y-70865250D01*
X108495598Y-70890279D01*
X108494318Y-70900002D01*
X108514955Y-71056760D01*
X108514956Y-71056762D01*
X108574391Y-71200252D01*
X108575464Y-71202841D01*
X108671718Y-71328282D01*
X108797159Y-71424536D01*
X108943238Y-71485044D01*
X108973910Y-71489082D01*
X109099999Y-71505682D01*
X109100000Y-71505682D01*
X109100001Y-71505682D01*
X109164549Y-71497184D01*
X109256762Y-71485044D01*
X109402841Y-71424536D01*
X109402845Y-71424532D01*
X109409876Y-71420474D01*
X109410882Y-71422216D01*
X109465932Y-71400931D01*
X109476257Y-71400500D01*
X112833240Y-71400500D01*
X112900279Y-71420185D01*
X112946034Y-71472989D01*
X112956598Y-71537103D01*
X112950000Y-71601677D01*
X112950000Y-71650000D01*
X114026000Y-71650000D01*
X114093039Y-71669685D01*
X114138794Y-71722489D01*
X114150000Y-71774000D01*
X114150000Y-74399999D01*
X114173308Y-74399999D01*
X114173322Y-74399998D01*
X114273398Y-74389775D01*
X114342091Y-74402545D01*
X114392975Y-74450425D01*
X114410000Y-74513133D01*
X114410000Y-75945000D01*
X114390315Y-76012039D01*
X114337511Y-76057794D01*
X114286000Y-76069000D01*
X114031230Y-76069000D01*
X114000803Y-76071853D01*
X113872618Y-76116707D01*
X113834590Y-76144772D01*
X113768960Y-76168742D01*
X113760958Y-76169000D01*
X112728982Y-76169000D01*
X112648019Y-76181823D01*
X112635196Y-76183854D01*
X112522158Y-76241450D01*
X112522157Y-76241451D01*
X112522152Y-76241454D01*
X112432454Y-76331152D01*
X112432449Y-76331159D01*
X112397325Y-76400093D01*
X112349350Y-76450888D01*
X112281529Y-76467683D01*
X112215394Y-76445145D01*
X112212530Y-76443064D01*
X112201493Y-76434802D01*
X112150188Y-76396395D01*
X112108318Y-76340462D01*
X112100500Y-76297129D01*
X112100500Y-75824499D01*
X112120185Y-75757460D01*
X112172989Y-75711705D01*
X112224500Y-75700499D01*
X112581517Y-75700499D01*
X112581518Y-75700499D01*
X112675304Y-75685646D01*
X112788342Y-75628050D01*
X112878050Y-75538342D01*
X112935646Y-75425304D01*
X112935646Y-75425302D01*
X112935647Y-75425301D01*
X112950499Y-75331524D01*
X112950500Y-75331519D01*
X112950499Y-74968482D01*
X112935646Y-74874696D01*
X112878050Y-74761658D01*
X112878046Y-74761654D01*
X112878045Y-74761652D01*
X112788347Y-74671954D01*
X112788344Y-74671952D01*
X112788342Y-74671950D01*
X112701067Y-74627481D01*
X112675301Y-74614352D01*
X112581524Y-74599500D01*
X111343476Y-74599500D01*
X111343476Y-74599501D01*
X111320816Y-74603089D01*
X111251523Y-74594131D01*
X111198073Y-74549132D01*
X111185245Y-74523954D01*
X111168796Y-74479851D01*
X111165905Y-74475989D01*
X111152379Y-74453192D01*
X111150377Y-74448809D01*
X111142856Y-74440129D01*
X111116411Y-74409609D01*
X111113633Y-74406161D01*
X111101567Y-74390043D01*
X111102888Y-74389053D01*
X111076760Y-74331832D01*
X111075499Y-74314192D01*
X111075499Y-74155015D01*
X111095184Y-74087976D01*
X111147988Y-74042221D01*
X111217146Y-74032277D01*
X111234096Y-74035939D01*
X111272510Y-74047100D01*
X111309356Y-74050000D01*
X111712500Y-74050000D01*
X111712500Y-73500000D01*
X112212500Y-73500000D01*
X112212500Y-74050000D01*
X112615644Y-74050000D01*
X112652489Y-74047100D01*
X112652495Y-74047099D01*
X112810193Y-74001284D01*
X112862406Y-73970405D01*
X112930130Y-73953222D01*
X112996393Y-73975382D01*
X113031066Y-74012040D01*
X113102424Y-74127728D01*
X113102427Y-74127732D01*
X113222267Y-74247572D01*
X113222271Y-74247575D01*
X113366507Y-74336542D01*
X113366518Y-74336547D01*
X113527393Y-74389855D01*
X113626683Y-74399999D01*
X113650000Y-74399998D01*
X113650000Y-73675000D01*
X113034000Y-73675000D01*
X112966961Y-73655315D01*
X112921206Y-73602511D01*
X112910000Y-73551000D01*
X112910000Y-73500000D01*
X112212500Y-73500000D01*
X111712500Y-73500000D01*
X110727704Y-73500000D01*
X110727900Y-73502493D01*
X110728034Y-73503226D01*
X110727990Y-73503639D01*
X110728397Y-73508808D01*
X110727437Y-73508883D01*
X110720712Y-73572711D01*
X110676986Y-73627207D01*
X110610739Y-73649411D01*
X110606051Y-73649500D01*
X109468482Y-73649500D01*
X109374694Y-73664354D01*
X109332243Y-73685985D01*
X109275948Y-73699500D01*
X109104672Y-73699500D01*
X109037633Y-73679815D01*
X108991878Y-73627011D01*
X108988496Y-73618849D01*
X108982128Y-73601774D01*
X108900187Y-73492313D01*
X108834411Y-73443074D01*
X108790728Y-73410373D01*
X108790726Y-73410372D01*
X108662614Y-73362588D01*
X108662612Y-73362587D01*
X108662610Y-73362587D01*
X108605993Y-73356500D01*
X108065018Y-73356500D01*
X108065009Y-73356501D01*
X108008385Y-73362587D01*
X107880273Y-73410372D01*
X107770813Y-73492313D01*
X107688873Y-73601771D01*
X107668902Y-73655315D01*
X107644589Y-73720501D01*
X107641087Y-73729889D01*
X107635000Y-73786498D01*
X107635000Y-74627481D01*
X107635001Y-74627490D01*
X107641087Y-74684114D01*
X107673743Y-74771664D01*
X107688872Y-74812226D01*
X107770813Y-74921687D01*
X107880274Y-75003628D01*
X108008386Y-75051412D01*
X108065015Y-75057500D01*
X108527097Y-75057499D01*
X108594136Y-75077183D01*
X108639891Y-75129987D01*
X108649835Y-75199146D01*
X108625473Y-75256985D01*
X108575464Y-75322157D01*
X108514956Y-75468237D01*
X108514955Y-75468239D01*
X108494318Y-75624998D01*
X108494318Y-75632500D01*
X108474633Y-75699539D01*
X108421829Y-75745294D01*
X108370318Y-75756500D01*
X107472500Y-75756500D01*
X107405461Y-75736815D01*
X107359706Y-75684011D01*
X107348500Y-75632500D01*
X107348500Y-73313007D01*
X107351139Y-73287561D01*
X107352221Y-73282400D01*
X107353042Y-73278486D01*
X107349808Y-73252542D01*
X107348977Y-73245869D01*
X107348500Y-73238192D01*
X107348500Y-73234764D01*
X107348498Y-73234751D01*
X107346400Y-73222181D01*
X107344910Y-73213250D01*
X107338573Y-73162408D01*
X107338572Y-73162405D01*
X107336518Y-73155505D01*
X107336475Y-73155380D01*
X107336437Y-73155254D01*
X107334092Y-73148419D01*
X107309704Y-73103356D01*
X107287199Y-73057319D01*
X107282919Y-73051325D01*
X107278419Y-73045545D01*
X107278418Y-73045543D01*
X107256487Y-73025354D01*
X107241249Y-72999998D01*
X110727704Y-72999998D01*
X110727705Y-73000000D01*
X111712500Y-73000000D01*
X112212500Y-73000000D01*
X113116000Y-73000000D01*
X113183039Y-73019685D01*
X113228794Y-73072489D01*
X113240000Y-73124000D01*
X113240000Y-73175000D01*
X113650000Y-73175000D01*
X113650000Y-72150000D01*
X112950001Y-72150000D01*
X112950001Y-72198322D01*
X112960144Y-72297608D01*
X112975983Y-72345408D01*
X112978384Y-72415236D01*
X112942652Y-72475278D01*
X112880132Y-72506470D01*
X112818033Y-72499710D01*
X112817690Y-72500894D01*
X112810968Y-72498941D01*
X112810672Y-72498909D01*
X112810269Y-72498738D01*
X112652495Y-72452900D01*
X112652489Y-72452899D01*
X112615644Y-72450000D01*
X112212500Y-72450000D01*
X112212500Y-73000000D01*
X111712500Y-73000000D01*
X111712500Y-72450000D01*
X111309356Y-72450000D01*
X111272510Y-72452899D01*
X111272504Y-72452900D01*
X111114806Y-72498716D01*
X111114803Y-72498717D01*
X110973447Y-72582314D01*
X110973438Y-72582321D01*
X110857321Y-72698438D01*
X110857314Y-72698447D01*
X110773718Y-72839801D01*
X110727899Y-72997513D01*
X110727704Y-72999998D01*
X107241249Y-72999998D01*
X107220498Y-72965468D01*
X107217533Y-72917940D01*
X107228957Y-72831169D01*
X107228957Y-72831167D01*
X107208319Y-72674408D01*
X107208319Y-72674407D01*
X107147811Y-72528328D01*
X107051557Y-72402887D01*
X106926116Y-72306633D01*
X106921722Y-72304813D01*
X106780037Y-72246125D01*
X106780035Y-72246124D01*
X106623276Y-72225487D01*
X106623274Y-72225487D01*
X106527605Y-72238082D01*
X106458570Y-72227316D01*
X106406314Y-72180936D01*
X106387429Y-72113667D01*
X106407910Y-72046867D01*
X106409722Y-72044646D01*
X106416098Y-72035102D01*
X106416101Y-72035101D01*
X106471466Y-71952240D01*
X106471466Y-71952238D01*
X106476140Y-71940956D01*
X106477834Y-71941657D01*
X106503343Y-71892896D01*
X106564059Y-71858323D01*
X106592573Y-71855000D01*
X107113931Y-71855000D01*
X107113933Y-71855000D01*
X107135001Y-71848154D01*
X107153917Y-71843612D01*
X107175804Y-71840146D01*
X107195544Y-71830086D01*
X107213511Y-71822644D01*
X107234590Y-71815796D01*
X107252526Y-71802763D01*
X107269088Y-71792614D01*
X107288842Y-71782550D01*
X107304334Y-71767057D01*
X107304341Y-71767052D01*
X107785172Y-71286221D01*
X108284977Y-70786414D01*
X108346300Y-70752930D01*
X108415991Y-70757914D01*
G37*
%TD.AperFunction*%
%TA.AperFunction,Conductor*%
G36*
X100893747Y-70939685D02*
G01*
X100939502Y-70992489D01*
X100949446Y-71061647D01*
X100945785Y-71078594D01*
X100930996Y-71129500D01*
X102836500Y-71129500D01*
X102903539Y-71149185D01*
X102949294Y-71201989D01*
X102960500Y-71253500D01*
X102960500Y-71505500D01*
X102940815Y-71572539D01*
X102888011Y-71618294D01*
X102836500Y-71629500D01*
X101985500Y-71629500D01*
X101985500Y-72158289D01*
X102006410Y-72156645D01*
X102161695Y-72111531D01*
X102168851Y-72108435D01*
X102169590Y-72110143D01*
X102227589Y-72095422D01*
X102276558Y-72109800D01*
X102277149Y-72108435D01*
X102284304Y-72111531D01*
X102413325Y-72149015D01*
X102472211Y-72186622D01*
X102501418Y-72250094D01*
X102491672Y-72319281D01*
X102466412Y-72355773D01*
X101869407Y-72952779D01*
X101747681Y-73074505D01*
X101686358Y-73107989D01*
X101616666Y-73103005D01*
X101560733Y-73061133D01*
X101536316Y-72995669D01*
X101536000Y-72986823D01*
X101536000Y-72615230D01*
X101533146Y-72584800D01*
X101533146Y-72584798D01*
X101496993Y-72481481D01*
X101488293Y-72456618D01*
X101416017Y-72358687D01*
X101392047Y-72293060D01*
X101407362Y-72224889D01*
X101457103Y-72175821D01*
X101469316Y-72173250D01*
X101485500Y-72158290D01*
X101485500Y-71629500D01*
X100930996Y-71629500D01*
X100973468Y-71775695D01*
X101055778Y-71914874D01*
X101055785Y-71914883D01*
X101148221Y-72007319D01*
X101181706Y-72068642D01*
X101176722Y-72138334D01*
X101134850Y-72194267D01*
X101069386Y-72218684D01*
X101060540Y-72219000D01*
X100481230Y-72219000D01*
X100450800Y-72221853D01*
X100450798Y-72221853D01*
X100322619Y-72266706D01*
X100322613Y-72266709D01*
X100216845Y-72344770D01*
X100151216Y-72368741D01*
X100143212Y-72369000D01*
X99985307Y-72369000D01*
X99918268Y-72349315D01*
X99886041Y-72319312D01*
X99875187Y-72304813D01*
X99875181Y-72304807D01*
X99765730Y-72222874D01*
X99765723Y-72222870D01*
X99741665Y-72213897D01*
X99685732Y-72172025D01*
X99661316Y-72106560D01*
X99661000Y-72097716D01*
X99661000Y-71693999D01*
X99680685Y-71626960D01*
X99733489Y-71581205D01*
X99784997Y-71569999D01*
X99884678Y-71569999D01*
X99884680Y-71569999D01*
X99899872Y-71567999D01*
X99930260Y-71563999D01*
X100030299Y-71517350D01*
X100108350Y-71439299D01*
X100108353Y-71439292D01*
X100110656Y-71436004D01*
X100160726Y-71394324D01*
X100165451Y-71392165D01*
X100165457Y-71392165D01*
X100212660Y-71370607D01*
X100216728Y-71368922D01*
X100245638Y-71358140D01*
X100265329Y-71350797D01*
X100265329Y-71350796D01*
X100265331Y-71350796D01*
X100269189Y-71347907D01*
X100291995Y-71334375D01*
X100296373Y-71332377D01*
X100335564Y-71298416D01*
X100339014Y-71295637D01*
X100341930Y-71293453D01*
X100351593Y-71286221D01*
X100362720Y-71275092D01*
X100365925Y-71272109D01*
X100405143Y-71238128D01*
X100407751Y-71234068D01*
X100424381Y-71213431D01*
X100681494Y-70956319D01*
X100742817Y-70922834D01*
X100769175Y-70920000D01*
X100826708Y-70920000D01*
X100893747Y-70939685D01*
G37*
%TD.AperFunction*%
%TA.AperFunction,Conductor*%
G36*
X109626261Y-64670185D02*
G01*
X109672016Y-64722989D01*
X109681960Y-64792147D01*
X109673783Y-64821952D01*
X109654368Y-64868823D01*
X109654366Y-64868828D01*
X109633729Y-65025587D01*
X109633729Y-65025590D01*
X109654366Y-65182349D01*
X109654367Y-65182351D01*
X109683948Y-65253767D01*
X109714875Y-65328430D01*
X109811129Y-65453871D01*
X109936570Y-65550125D01*
X109936571Y-65550125D01*
X109936572Y-65550126D01*
X109972952Y-65565195D01*
X110027356Y-65609036D01*
X110049421Y-65675330D01*
X110049500Y-65679756D01*
X110049500Y-68225883D01*
X110029815Y-68292922D01*
X110000987Y-68324258D01*
X109971719Y-68346716D01*
X109881844Y-68463843D01*
X109825416Y-68505045D01*
X109755670Y-68509200D01*
X109733037Y-68501637D01*
X109574767Y-68431171D01*
X109574765Y-68431170D01*
X109412358Y-68396650D01*
X109399891Y-68394000D01*
X109221109Y-68394000D01*
X109208642Y-68396650D01*
X109046233Y-68431170D01*
X109046228Y-68431172D01*
X108882908Y-68503887D01*
X108738268Y-68608975D01*
X108618640Y-68741836D01*
X108529250Y-68896664D01*
X108529247Y-68896670D01*
X108474004Y-69066692D01*
X108474003Y-69066694D01*
X108471844Y-69087236D01*
X108455315Y-69244500D01*
X108470845Y-69392260D01*
X108471844Y-69401758D01*
X108459275Y-69470488D01*
X108436204Y-69502401D01*
X106920926Y-71017681D01*
X106859603Y-71051166D01*
X106833245Y-71054000D01*
X106592573Y-71054000D01*
X106525534Y-71034315D01*
X106479779Y-70981511D01*
X106472913Y-70960255D01*
X106471466Y-70956760D01*
X106466949Y-70950000D01*
X106416101Y-70873899D01*
X106360735Y-70836905D01*
X106333239Y-70818533D01*
X106333235Y-70818532D01*
X106260177Y-70804000D01*
X106260174Y-70804000D01*
X105610826Y-70804000D01*
X105610823Y-70804000D01*
X105537764Y-70818532D01*
X105537760Y-70818533D01*
X105483302Y-70854921D01*
X105454899Y-70873899D01*
X105450517Y-70880458D01*
X105433497Y-70905930D01*
X105379884Y-70950734D01*
X105310559Y-70959441D01*
X105247532Y-70929286D01*
X105210813Y-70869843D01*
X105207457Y-70853230D01*
X105195544Y-70762738D01*
X105135036Y-70616659D01*
X105038782Y-70491218D01*
X104913341Y-70394964D01*
X104913339Y-70394963D01*
X104767258Y-70334454D01*
X104759411Y-70332352D01*
X104759930Y-70330411D01*
X104705943Y-70306523D01*
X104698352Y-70299538D01*
X104695495Y-70296681D01*
X104662010Y-70235358D01*
X104666994Y-70165666D01*
X104708866Y-70109733D01*
X104774330Y-70085316D01*
X104783176Y-70085000D01*
X105310176Y-70085000D01*
X105310177Y-70084999D01*
X105383240Y-70070466D01*
X105466101Y-70015101D01*
X105521466Y-69932240D01*
X105536000Y-69859174D01*
X105536000Y-69009826D01*
X105536000Y-69009823D01*
X105535999Y-69009821D01*
X105521467Y-68936764D01*
X105521466Y-68936760D01*
X105483611Y-68880105D01*
X105462734Y-68813427D01*
X105481219Y-68746047D01*
X105513081Y-68711445D01*
X105568471Y-68670565D01*
X105607650Y-68641650D01*
X105688293Y-68532382D01*
X105718137Y-68447093D01*
X105733146Y-68404201D01*
X105733146Y-68404199D01*
X105736000Y-68373769D01*
X105736000Y-67865238D01*
X105735999Y-67865230D01*
X105735094Y-67855574D01*
X105748435Y-67786991D01*
X105796737Y-67736507D01*
X105858553Y-67720000D01*
X105868245Y-67720000D01*
X105935284Y-67739685D01*
X105955926Y-67756319D01*
X106123681Y-67924074D01*
X106157166Y-67985397D01*
X106160000Y-68011755D01*
X106160000Y-68373769D01*
X106162853Y-68404199D01*
X106162853Y-68404201D01*
X106207613Y-68532114D01*
X106207707Y-68532382D01*
X106288350Y-68641650D01*
X106357750Y-68692869D01*
X106366176Y-68699088D01*
X106408427Y-68754736D01*
X106413885Y-68824392D01*
X106395645Y-68867747D01*
X106349535Y-68936757D01*
X106349532Y-68936764D01*
X106335000Y-69009821D01*
X106335000Y-69859178D01*
X106349532Y-69932235D01*
X106349533Y-69932239D01*
X106367905Y-69959735D01*
X106404899Y-70015101D01*
X106468847Y-70057829D01*
X106487760Y-70070466D01*
X106487764Y-70070467D01*
X106560821Y-70084999D01*
X106560824Y-70085000D01*
X106560826Y-70085000D01*
X107210176Y-70085000D01*
X107210177Y-70084999D01*
X107283240Y-70070466D01*
X107366101Y-70015101D01*
X107421466Y-69932240D01*
X107436000Y-69859174D01*
X107436000Y-69009826D01*
X107436000Y-69009823D01*
X107435999Y-69009821D01*
X107421467Y-68936764D01*
X107421466Y-68936760D01*
X107419870Y-68934371D01*
X107375353Y-68867746D01*
X107354477Y-68801071D01*
X107372962Y-68733691D01*
X107404824Y-68699088D01*
X107443471Y-68670565D01*
X107482650Y-68641650D01*
X107563293Y-68532382D01*
X107593137Y-68447093D01*
X107608146Y-68404201D01*
X107608146Y-68404199D01*
X107611000Y-68373769D01*
X107611000Y-67865230D01*
X107608146Y-67834800D01*
X107608146Y-67834798D01*
X107571140Y-67729043D01*
X107563293Y-67706618D01*
X107482650Y-67597350D01*
X107373382Y-67516707D01*
X107373380Y-67516706D01*
X107245200Y-67471853D01*
X107214770Y-67469000D01*
X107214766Y-67469000D01*
X106852755Y-67469000D01*
X106785716Y-67449315D01*
X106765074Y-67432681D01*
X106664074Y-67331681D01*
X106630589Y-67270358D01*
X106635573Y-67200666D01*
X106677445Y-67144733D01*
X106742909Y-67120316D01*
X106751755Y-67120000D01*
X107214770Y-67120000D01*
X107245199Y-67117146D01*
X107245201Y-67117146D01*
X107309290Y-67094719D01*
X107373382Y-67072293D01*
X107482650Y-66991650D01*
X107563293Y-66882382D01*
X107587697Y-66812640D01*
X107608146Y-66754201D01*
X107608146Y-66754199D01*
X107611000Y-66723769D01*
X107611000Y-66215230D01*
X107608146Y-66184800D01*
X107608146Y-66184798D01*
X107574506Y-66088663D01*
X107563293Y-66056618D01*
X107482650Y-65947350D01*
X107438172Y-65914524D01*
X107395923Y-65858877D01*
X107390466Y-65789220D01*
X107412825Y-65747601D01*
X107409315Y-65745256D01*
X107416099Y-65735101D01*
X107416101Y-65735101D01*
X107471466Y-65652240D01*
X107486000Y-65579174D01*
X107486000Y-64774500D01*
X107505685Y-64707461D01*
X107558489Y-64661706D01*
X107610000Y-64650500D01*
X109559222Y-64650500D01*
X109626261Y-64670185D01*
G37*
%TD.AperFunction*%
%TA.AperFunction,Conductor*%
G36*
X99587901Y-67664359D02*
G01*
X99640740Y-67688999D01*
X99677092Y-67693785D01*
X99677100Y-67693786D01*
X99740997Y-67722052D01*
X99748597Y-67729044D01*
X99775956Y-67756403D01*
X99809441Y-67817726D01*
X99811214Y-67827899D01*
X99816000Y-67864256D01*
X99816002Y-67864263D01*
X99857593Y-67953455D01*
X99862650Y-67964299D01*
X99940701Y-68042350D01*
X100040740Y-68088999D01*
X100072193Y-68093140D01*
X100077100Y-68093786D01*
X100140997Y-68122052D01*
X100148597Y-68129044D01*
X100153502Y-68133949D01*
X100186987Y-68195272D01*
X100182003Y-68264964D01*
X100140131Y-68320897D01*
X100082004Y-68344569D01*
X100040744Y-68350000D01*
X100040736Y-68350002D01*
X99940700Y-68396650D01*
X99912580Y-68424771D01*
X99851257Y-68458256D01*
X99781565Y-68453272D01*
X99737218Y-68424771D01*
X99585500Y-68273053D01*
X99414053Y-68444500D01*
X99585499Y-68615946D01*
X99598318Y-68603128D01*
X99659641Y-68569642D01*
X99729332Y-68574626D01*
X99785266Y-68616497D01*
X99809684Y-68681961D01*
X99810000Y-68690807D01*
X99810000Y-68818680D01*
X99816000Y-68864256D01*
X99816003Y-68864266D01*
X99840638Y-68917096D01*
X99851130Y-68986173D01*
X99840639Y-69021903D01*
X99818445Y-69069500D01*
X99816000Y-69074743D01*
X99810001Y-69120311D01*
X99810000Y-69120327D01*
X99810000Y-69248191D01*
X99790315Y-69315230D01*
X99737511Y-69360985D01*
X99668353Y-69370929D01*
X99604797Y-69341904D01*
X99598319Y-69335872D01*
X99585500Y-69323053D01*
X99414053Y-69494500D01*
X99585499Y-69665946D01*
X99598318Y-69653128D01*
X99659641Y-69619642D01*
X99729332Y-69624626D01*
X99785266Y-69666497D01*
X99809684Y-69731961D01*
X99810000Y-69740806D01*
X99810000Y-69818679D01*
X99816000Y-69864256D01*
X99816003Y-69864266D01*
X99840638Y-69917096D01*
X99851130Y-69986173D01*
X99840639Y-70021903D01*
X99828580Y-70047764D01*
X99816000Y-70074742D01*
X99811213Y-70111102D01*
X99782945Y-70174998D01*
X99775957Y-70182594D01*
X99748596Y-70209956D01*
X99687273Y-70243442D01*
X99677096Y-70245215D01*
X99640744Y-70250000D01*
X99640738Y-70250001D01*
X99587903Y-70274639D01*
X99518825Y-70285130D01*
X99483095Y-70274638D01*
X99430259Y-70250000D01*
X99384688Y-70244001D01*
X99384685Y-70244000D01*
X99384679Y-70244000D01*
X99384672Y-70244000D01*
X99306808Y-70244000D01*
X99239769Y-70224315D01*
X99194014Y-70171511D01*
X99184070Y-70102353D01*
X99207069Y-70051992D01*
X99485500Y-70051992D01*
X99523697Y-70104565D01*
X99569662Y-70119500D01*
X99601338Y-70119500D01*
X99647303Y-70104565D01*
X99685500Y-70051992D01*
X99685500Y-69987008D01*
X99647303Y-69934435D01*
X99601338Y-69919500D01*
X99569662Y-69919500D01*
X99523697Y-69934435D01*
X99485500Y-69987008D01*
X99485500Y-70051992D01*
X99207069Y-70051992D01*
X99213095Y-70038797D01*
X99219128Y-70032318D01*
X99231946Y-70019499D01*
X99060500Y-69848053D01*
X98889053Y-70019500D01*
X98901872Y-70032319D01*
X98935357Y-70093642D01*
X98930373Y-70163334D01*
X98888501Y-70219267D01*
X98823037Y-70243684D01*
X98814192Y-70244000D01*
X98686319Y-70244000D01*
X98640743Y-70250000D01*
X98640738Y-70250001D01*
X98587903Y-70274639D01*
X98518825Y-70285130D01*
X98483095Y-70274638D01*
X98430259Y-70250000D01*
X98384688Y-70244001D01*
X98384685Y-70244000D01*
X98384679Y-70244000D01*
X98384672Y-70244000D01*
X98256808Y-70244000D01*
X98189769Y-70224315D01*
X98144014Y-70171511D01*
X98134070Y-70102353D01*
X98157069Y-70051992D01*
X98435500Y-70051992D01*
X98473697Y-70104565D01*
X98519662Y-70119500D01*
X98551338Y-70119500D01*
X98597303Y-70104565D01*
X98635500Y-70051992D01*
X98635500Y-69987008D01*
X98597303Y-69934435D01*
X98551338Y-69919500D01*
X98519662Y-69919500D01*
X98473697Y-69934435D01*
X98435500Y-69987008D01*
X98435500Y-70051992D01*
X98157069Y-70051992D01*
X98163095Y-70038797D01*
X98169128Y-70032318D01*
X98181946Y-70019499D01*
X98010500Y-69848053D01*
X97839053Y-70019500D01*
X97851872Y-70032319D01*
X97885357Y-70093642D01*
X97880373Y-70163334D01*
X97838501Y-70219267D01*
X97773037Y-70243684D01*
X97764193Y-70244000D01*
X97686320Y-70244000D01*
X97640743Y-70250000D01*
X97640738Y-70250001D01*
X97587903Y-70274639D01*
X97518825Y-70285130D01*
X97483095Y-70274638D01*
X97430260Y-70250000D01*
X97393896Y-70245213D01*
X97330000Y-70216946D01*
X97322402Y-70209955D01*
X97295043Y-70182596D01*
X97261558Y-70121273D01*
X97259785Y-70111098D01*
X97256391Y-70085316D01*
X97254999Y-70074740D01*
X97244391Y-70051992D01*
X97385500Y-70051992D01*
X97423697Y-70104565D01*
X97469662Y-70119500D01*
X97501338Y-70119500D01*
X97547303Y-70104565D01*
X97585500Y-70051992D01*
X97585500Y-69987008D01*
X97547303Y-69934435D01*
X97501338Y-69919500D01*
X97469662Y-69919500D01*
X97423697Y-69934435D01*
X97385500Y-69987008D01*
X97385500Y-70051992D01*
X97244391Y-70051992D01*
X97230360Y-70021903D01*
X97219869Y-69952827D01*
X97230358Y-69917101D01*
X97254999Y-69864260D01*
X97261000Y-69818679D01*
X97261000Y-69740806D01*
X97280683Y-69673770D01*
X97333486Y-69628014D01*
X97402645Y-69618070D01*
X97466201Y-69647094D01*
X97472680Y-69653127D01*
X97485500Y-69665947D01*
X97656947Y-69494500D01*
X98364053Y-69494500D01*
X98535500Y-69665947D01*
X98706947Y-69494500D01*
X98535500Y-69323053D01*
X98364053Y-69494500D01*
X97656947Y-69494500D01*
X97485500Y-69323053D01*
X97485499Y-69323053D01*
X97472679Y-69335873D01*
X97411356Y-69369357D01*
X97341664Y-69364372D01*
X97285731Y-69322500D01*
X97261315Y-69257036D01*
X97260999Y-69248209D01*
X97260999Y-69120322D01*
X97254999Y-69074740D01*
X97230360Y-69021903D01*
X97227336Y-69001992D01*
X97385500Y-69001992D01*
X97423697Y-69054565D01*
X97469662Y-69069500D01*
X97501338Y-69069500D01*
X97547303Y-69054565D01*
X97585500Y-69001992D01*
X97585500Y-68969500D01*
X97839053Y-68969500D01*
X98010500Y-69140947D01*
X98149455Y-69001992D01*
X98435500Y-69001992D01*
X98473697Y-69054565D01*
X98519662Y-69069500D01*
X98551338Y-69069500D01*
X98597303Y-69054565D01*
X98635500Y-69001992D01*
X98635500Y-68969500D01*
X98889053Y-68969500D01*
X99060500Y-69140947D01*
X99199455Y-69001992D01*
X99485500Y-69001992D01*
X99523697Y-69054565D01*
X99569662Y-69069500D01*
X99601338Y-69069500D01*
X99647303Y-69054565D01*
X99685500Y-69001992D01*
X99685500Y-68937008D01*
X99647303Y-68884435D01*
X99601338Y-68869500D01*
X99569662Y-68869500D01*
X99523697Y-68884435D01*
X99485500Y-68937008D01*
X99485500Y-69001992D01*
X99199455Y-69001992D01*
X99231947Y-68969500D01*
X99060500Y-68798053D01*
X98889053Y-68969500D01*
X98635500Y-68969500D01*
X98635500Y-68937008D01*
X98597303Y-68884435D01*
X98551338Y-68869500D01*
X98519662Y-68869500D01*
X98473697Y-68884435D01*
X98435500Y-68937008D01*
X98435500Y-69001992D01*
X98149455Y-69001992D01*
X98181947Y-68969500D01*
X98010500Y-68798053D01*
X97839053Y-68969500D01*
X97585500Y-68969500D01*
X97585500Y-68937008D01*
X97547303Y-68884435D01*
X97501338Y-68869500D01*
X97469662Y-68869500D01*
X97423697Y-68884435D01*
X97385500Y-68937008D01*
X97385500Y-69001992D01*
X97227336Y-69001992D01*
X97219869Y-68952827D01*
X97230358Y-68917101D01*
X97254999Y-68864260D01*
X97261000Y-68818679D01*
X97260999Y-68690807D01*
X97280683Y-68623769D01*
X97333487Y-68578014D01*
X97402645Y-68568070D01*
X97466201Y-68597094D01*
X97472680Y-68603127D01*
X97485500Y-68615947D01*
X97656947Y-68444500D01*
X98364053Y-68444500D01*
X98535500Y-68615947D01*
X98706947Y-68444500D01*
X98535500Y-68273053D01*
X98364053Y-68444500D01*
X97656947Y-68444500D01*
X97485500Y-68273053D01*
X97485499Y-68273053D01*
X97472679Y-68285873D01*
X97411356Y-68319357D01*
X97341664Y-68314372D01*
X97285731Y-68272500D01*
X97261315Y-68207036D01*
X97260999Y-68198191D01*
X97260999Y-68120319D01*
X97257666Y-68094999D01*
X97254999Y-68074740D01*
X97230360Y-68021903D01*
X97219869Y-67952827D01*
X97220114Y-67951992D01*
X97385500Y-67951992D01*
X97423697Y-68004565D01*
X97469662Y-68019500D01*
X97501338Y-68019500D01*
X97547303Y-68004565D01*
X97585500Y-67951992D01*
X97585500Y-67887008D01*
X97547303Y-67834435D01*
X97501338Y-67819500D01*
X97469662Y-67819500D01*
X97423697Y-67834435D01*
X97385500Y-67887008D01*
X97385500Y-67951992D01*
X97220114Y-67951992D01*
X97230358Y-67917101D01*
X97254999Y-67864260D01*
X97259786Y-67827899D01*
X97288052Y-67764003D01*
X97295044Y-67756403D01*
X97322404Y-67729043D01*
X97383727Y-67695558D01*
X97393902Y-67693785D01*
X97402515Y-67692651D01*
X97430260Y-67688999D01*
X97483097Y-67664360D01*
X97552171Y-67653869D01*
X97587901Y-67664359D01*
X97640740Y-67688999D01*
X97686321Y-67695000D01*
X97764191Y-67694999D01*
X97831229Y-67714683D01*
X97876985Y-67767486D01*
X97886929Y-67836645D01*
X97857905Y-67900201D01*
X97851873Y-67906679D01*
X97839053Y-67919499D01*
X97839053Y-67919500D01*
X98010500Y-68090947D01*
X98149455Y-67951992D01*
X98435500Y-67951992D01*
X98473697Y-68004565D01*
X98519662Y-68019500D01*
X98551338Y-68019500D01*
X98597303Y-68004565D01*
X98635500Y-67951992D01*
X98635500Y-67887008D01*
X98597303Y-67834435D01*
X98551338Y-67819500D01*
X98519662Y-67819500D01*
X98473697Y-67834435D01*
X98435500Y-67887008D01*
X98435500Y-67951992D01*
X98149455Y-67951992D01*
X98181947Y-67919500D01*
X98169127Y-67906680D01*
X98135642Y-67845357D01*
X98140626Y-67775665D01*
X98182498Y-67719732D01*
X98247962Y-67695315D01*
X98256789Y-67694999D01*
X98384678Y-67694999D01*
X98384680Y-67694999D01*
X98399872Y-67692999D01*
X98430260Y-67688999D01*
X98483097Y-67664360D01*
X98552171Y-67653869D01*
X98587901Y-67664359D01*
X98640740Y-67688999D01*
X98686321Y-67695000D01*
X98814191Y-67694999D01*
X98881230Y-67714683D01*
X98926985Y-67767487D01*
X98936929Y-67836645D01*
X98907905Y-67900201D01*
X98901873Y-67906679D01*
X98889053Y-67919499D01*
X98889053Y-67919500D01*
X99060500Y-68090947D01*
X99199455Y-67951992D01*
X99485500Y-67951992D01*
X99523697Y-68004565D01*
X99569662Y-68019500D01*
X99601338Y-68019500D01*
X99647303Y-68004565D01*
X99685500Y-67951992D01*
X99685500Y-67887008D01*
X99647303Y-67834435D01*
X99601338Y-67819500D01*
X99569662Y-67819500D01*
X99523697Y-67834435D01*
X99485500Y-67887008D01*
X99485500Y-67951992D01*
X99199455Y-67951992D01*
X99231947Y-67919500D01*
X99219127Y-67906680D01*
X99185642Y-67845357D01*
X99190626Y-67775665D01*
X99232498Y-67719732D01*
X99297962Y-67695315D01*
X99306797Y-67694999D01*
X99384678Y-67694999D01*
X99384680Y-67694999D01*
X99399872Y-67692999D01*
X99430260Y-67688999D01*
X99483097Y-67664360D01*
X99552171Y-67653869D01*
X99587901Y-67664359D01*
G37*
%TD.AperFunction*%
%TA.AperFunction,Conductor*%
G36*
X113335000Y-61055682D02*
G01*
X113371577Y-61050866D01*
X113440609Y-61061631D01*
X113475442Y-61086124D01*
X114988181Y-62598863D01*
X115021666Y-62660186D01*
X115024500Y-62686544D01*
X115024500Y-67576380D01*
X115004815Y-67643419D01*
X114975987Y-67674755D01*
X114946721Y-67697211D01*
X114850463Y-67822657D01*
X114789956Y-67968734D01*
X114789955Y-67968736D01*
X114769318Y-68125495D01*
X114769318Y-68125498D01*
X114789955Y-68282257D01*
X114789956Y-68282259D01*
X114846595Y-68418999D01*
X114850464Y-68428338D01*
X114946718Y-68553779D01*
X115072159Y-68650033D01*
X115218238Y-68710541D01*
X115296619Y-68720860D01*
X115374999Y-68731179D01*
X115375000Y-68731179D01*
X115375001Y-68731179D01*
X115446560Y-68721758D01*
X115494815Y-68715405D01*
X115563850Y-68726171D01*
X115616106Y-68772550D01*
X115635000Y-68838344D01*
X115635000Y-69207831D01*
X115615315Y-69274870D01*
X115562511Y-69320625D01*
X115494815Y-69330770D01*
X115370025Y-69314341D01*
X115370021Y-69314341D01*
X115333445Y-69319156D01*
X115264410Y-69308390D01*
X115229580Y-69283898D01*
X114536819Y-68591137D01*
X114503334Y-68529814D01*
X114500500Y-68503456D01*
X114500500Y-66116483D01*
X114520185Y-66049444D01*
X114549010Y-66018110D01*
X114574852Y-65998282D01*
X114671106Y-65872841D01*
X114731614Y-65726762D01*
X114748403Y-65599234D01*
X114752252Y-65570001D01*
X114752252Y-65569998D01*
X114732578Y-65420563D01*
X114731614Y-65413238D01*
X114671106Y-65267159D01*
X114574852Y-65141718D01*
X114449411Y-65045464D01*
X114442313Y-65042524D01*
X114303332Y-64984956D01*
X114303330Y-64984955D01*
X114146571Y-64964318D01*
X114146569Y-64964318D01*
X113989809Y-64984955D01*
X113981957Y-64987060D01*
X113981067Y-64983738D01*
X113927262Y-64989425D01*
X113864840Y-64958036D01*
X113829296Y-64897883D01*
X113825500Y-64867435D01*
X113825500Y-62374206D01*
X113828139Y-62348760D01*
X113830042Y-62339685D01*
X113827773Y-62321480D01*
X113825977Y-62307068D01*
X113825500Y-62299391D01*
X113825500Y-62295963D01*
X113825498Y-62295950D01*
X113824758Y-62291518D01*
X113821910Y-62274449D01*
X113815573Y-62223607D01*
X113815572Y-62223604D01*
X113813518Y-62216704D01*
X113813475Y-62216579D01*
X113813437Y-62216453D01*
X113811092Y-62209618D01*
X113786704Y-62164555D01*
X113764199Y-62118518D01*
X113759919Y-62112524D01*
X113755419Y-62106743D01*
X113717724Y-62072041D01*
X113254039Y-61608357D01*
X113220554Y-61547034D01*
X113218782Y-61504485D01*
X113220031Y-61495001D01*
X113220031Y-61494998D01*
X113203575Y-61370001D01*
X113199393Y-61338238D01*
X113149971Y-61218924D01*
X113142503Y-61149458D01*
X113173778Y-61086978D01*
X113233867Y-61051326D01*
X113280715Y-61048535D01*
X113335000Y-61055682D01*
G37*
%TD.AperFunction*%
%TA.AperFunction,Conductor*%
G36*
X101710715Y-67727219D02*
G01*
X101713906Y-67730298D01*
X101946950Y-67963342D01*
X102036658Y-68053050D01*
X102056395Y-68063106D01*
X102072981Y-68073269D01*
X102090910Y-68086296D01*
X102090912Y-68086296D01*
X102090913Y-68086297D01*
X102111974Y-68093140D01*
X102129950Y-68100585D01*
X102139471Y-68105436D01*
X102190268Y-68153410D01*
X102190566Y-68153923D01*
X102201454Y-68172782D01*
X102217925Y-68240682D01*
X102195073Y-68306709D01*
X102140151Y-68349899D01*
X102094066Y-68358781D01*
X101450835Y-68358781D01*
X101402200Y-68344500D01*
X100869337Y-68344500D01*
X100865280Y-68344367D01*
X100859683Y-68344000D01*
X100472000Y-68344000D01*
X100404961Y-68324315D01*
X100359206Y-68271511D01*
X100348000Y-68220000D01*
X100348000Y-68218999D01*
X100367685Y-68151960D01*
X100420489Y-68106205D01*
X100471997Y-68094999D01*
X100859678Y-68094999D01*
X100859681Y-68094999D01*
X100865261Y-68094633D01*
X100869318Y-68094500D01*
X101382126Y-68094500D01*
X101371021Y-68010159D01*
X101371021Y-68010157D01*
X101323288Y-67894920D01*
X101315819Y-67825451D01*
X101347094Y-67762972D01*
X101407183Y-67727319D01*
X101421651Y-67724530D01*
X101577262Y-67704044D01*
X101578766Y-67703420D01*
X101580140Y-67703273D01*
X101585116Y-67701940D01*
X101585323Y-67702715D01*
X101648234Y-67695948D01*
X101710715Y-67727219D01*
G37*
%TD.AperFunction*%
%TA.AperFunction,Conductor*%
G36*
X98259996Y-61618316D02*
G01*
X98295648Y-61678405D01*
X98299500Y-61709071D01*
X98299500Y-62367742D01*
X98279815Y-62434781D01*
X98276073Y-62440103D01*
X98275465Y-62441156D01*
X98214956Y-62587237D01*
X98214955Y-62587239D01*
X98197439Y-62720292D01*
X98188312Y-62740921D01*
X98193477Y-62748957D01*
X98197439Y-62767707D01*
X98214955Y-62900760D01*
X98214956Y-62900762D01*
X98266238Y-63024569D01*
X98275464Y-63046841D01*
X98371718Y-63172282D01*
X98497159Y-63268536D01*
X98643238Y-63329044D01*
X98721619Y-63339363D01*
X98799999Y-63349682D01*
X98800000Y-63349682D01*
X98800001Y-63349682D01*
X98852254Y-63342802D01*
X98956762Y-63329044D01*
X99102841Y-63268536D01*
X99228282Y-63172282D01*
X99324536Y-63046841D01*
X99385044Y-62900762D01*
X99402561Y-62767707D01*
X99405682Y-62744001D01*
X99405682Y-62743998D01*
X99385044Y-62587239D01*
X99385044Y-62587238D01*
X99324536Y-62441159D01*
X99324534Y-62441156D01*
X99320472Y-62434119D01*
X99322213Y-62433113D01*
X99300930Y-62378057D01*
X99300500Y-62367742D01*
X99300500Y-62199500D01*
X99320185Y-62132461D01*
X99372989Y-62086706D01*
X99424500Y-62075500D01*
X100249519Y-62075500D01*
X100316558Y-62095185D01*
X100362313Y-62147989D01*
X100372257Y-62217147D01*
X100355057Y-62264598D01*
X100338455Y-62291512D01*
X100338452Y-62291518D01*
X100285144Y-62452393D01*
X100275000Y-62551677D01*
X100275000Y-62600000D01*
X101351000Y-62600000D01*
X101418039Y-62619685D01*
X101463794Y-62672489D01*
X101475000Y-62724000D01*
X101475000Y-64476000D01*
X101455315Y-64543039D01*
X101402511Y-64588794D01*
X101351000Y-64600000D01*
X100275000Y-64600000D01*
X100270363Y-64604637D01*
X100209040Y-64638122D01*
X100139348Y-64633136D01*
X100083415Y-64591264D01*
X100064752Y-64555273D01*
X100031252Y-64452170D01*
X100031249Y-64452164D01*
X100028084Y-64446682D01*
X99941859Y-64297335D01*
X99895003Y-64245296D01*
X99822235Y-64164478D01*
X99822232Y-64164476D01*
X99822231Y-64164475D01*
X99822230Y-64164474D01*
X99733490Y-64100000D01*
X100275000Y-64100000D01*
X100975000Y-64100000D01*
X100975000Y-63100000D01*
X100275001Y-63100000D01*
X100275001Y-63148322D01*
X100285144Y-63247607D01*
X100338452Y-63408481D01*
X100338457Y-63408492D01*
X100416429Y-63534903D01*
X100434870Y-63602295D01*
X100416429Y-63665097D01*
X100338457Y-63791507D01*
X100338452Y-63791518D01*
X100285144Y-63952393D01*
X100275000Y-64051677D01*
X100275000Y-64100000D01*
X99733490Y-64100000D01*
X99677593Y-64059388D01*
X99514267Y-63986671D01*
X99514265Y-63986670D01*
X99386594Y-63959533D01*
X99339391Y-63949500D01*
X99160609Y-63949500D01*
X99129954Y-63956015D01*
X98985733Y-63986670D01*
X98985728Y-63986672D01*
X98822408Y-64059387D01*
X98677768Y-64164475D01*
X98558139Y-64297336D01*
X98507387Y-64385243D01*
X98456820Y-64433459D01*
X98388213Y-64446682D01*
X98323348Y-64420714D01*
X98292613Y-64385243D01*
X98244745Y-64302334D01*
X98241859Y-64297335D01*
X98195003Y-64245296D01*
X98122235Y-64164478D01*
X98122226Y-64164471D01*
X98001614Y-64076839D01*
X97958948Y-64021509D01*
X97950500Y-63976522D01*
X97950500Y-62783892D01*
X97962045Y-62744574D01*
X97951981Y-62723213D01*
X97950500Y-62704107D01*
X97950500Y-61749779D01*
X97970185Y-61682740D01*
X98022989Y-61636985D01*
X98042016Y-61630145D01*
X98042258Y-61630044D01*
X98042262Y-61630044D01*
X98128049Y-61594509D01*
X98197516Y-61587041D01*
X98259996Y-61618316D01*
G37*
%TD.AperFunction*%
%TA.AperFunction,Conductor*%
G36*
X108587500Y-59621983D02*
G01*
X108633255Y-59674787D01*
X108643199Y-59743945D01*
X108614174Y-59807501D01*
X108595949Y-59824671D01*
X108587938Y-59830818D01*
X108567219Y-59846716D01*
X108470963Y-59972160D01*
X108410456Y-60118237D01*
X108410455Y-60118239D01*
X108389818Y-60274998D01*
X108389818Y-60275001D01*
X108410455Y-60431760D01*
X108410456Y-60431762D01*
X108462545Y-60557517D01*
X108470964Y-60577841D01*
X108567218Y-60703282D01*
X108692659Y-60799536D01*
X108838738Y-60860044D01*
X108995500Y-60880682D01*
X108995501Y-60880681D01*
X108999013Y-60881144D01*
X109062910Y-60909410D01*
X109070509Y-60916402D01*
X111888181Y-63734074D01*
X111921666Y-63795397D01*
X111924500Y-63821755D01*
X111924500Y-64008744D01*
X111904815Y-64075783D01*
X111852011Y-64121538D01*
X111782853Y-64131482D01*
X111719297Y-64102457D01*
X111712819Y-64096425D01*
X111559287Y-63942893D01*
X111559256Y-63942864D01*
X111538342Y-63921950D01*
X111538341Y-63921949D01*
X111518600Y-63911890D01*
X111502014Y-63901726D01*
X111484090Y-63888704D01*
X111484091Y-63888704D01*
X111463018Y-63881857D01*
X111445045Y-63874412D01*
X111425307Y-63864355D01*
X111425304Y-63864354D01*
X111403418Y-63860887D01*
X111384507Y-63856346D01*
X111363439Y-63849501D01*
X111363434Y-63849500D01*
X111363433Y-63849500D01*
X111363429Y-63849500D01*
X107367254Y-63849500D01*
X107300215Y-63829815D01*
X107279573Y-63813181D01*
X106572319Y-63105926D01*
X106538834Y-63044603D01*
X106536000Y-63018245D01*
X106536000Y-62709823D01*
X106535999Y-62709821D01*
X106521467Y-62636764D01*
X106521466Y-62636760D01*
X106503955Y-62610553D01*
X106483078Y-62543876D01*
X106501563Y-62476496D01*
X106553542Y-62429806D01*
X106593803Y-62418373D01*
X106642880Y-62413096D01*
X106777586Y-62362854D01*
X106777593Y-62362850D01*
X106892687Y-62276690D01*
X106892690Y-62276687D01*
X106978850Y-62161593D01*
X106978854Y-62161586D01*
X107029096Y-62026879D01*
X107029098Y-62026872D01*
X107035499Y-61967344D01*
X107035500Y-61967327D01*
X107035500Y-61419500D01*
X105409500Y-61419500D01*
X105342461Y-61399815D01*
X105296706Y-61347011D01*
X105285500Y-61295500D01*
X105285500Y-61043500D01*
X105305185Y-60976461D01*
X105357989Y-60930706D01*
X105409500Y-60919500D01*
X107035500Y-60919500D01*
X107035500Y-60371672D01*
X107035499Y-60371655D01*
X107029098Y-60312127D01*
X107029096Y-60312120D01*
X106978854Y-60177413D01*
X106978850Y-60177406D01*
X106892690Y-60062312D01*
X106892687Y-60062309D01*
X106777593Y-59976149D01*
X106769804Y-59971896D01*
X106770917Y-59969856D01*
X106725106Y-59935561D01*
X106700690Y-59870097D01*
X106715542Y-59801824D01*
X106721272Y-59792362D01*
X106771464Y-59717243D01*
X106771464Y-59717242D01*
X106771466Y-59717240D01*
X106771572Y-59716707D01*
X106774477Y-59702106D01*
X106806862Y-59640195D01*
X106867578Y-59605621D01*
X106896094Y-59602298D01*
X108520461Y-59602298D01*
X108587500Y-59621983D01*
G37*
%TD.AperFunction*%
%TA.AperFunction,Conductor*%
G36*
X104435278Y-57554438D02*
G01*
X104437758Y-57555464D01*
X104437760Y-57555466D01*
X104456026Y-57559099D01*
X104510823Y-57570000D01*
X104510826Y-57570000D01*
X105433759Y-57570000D01*
X105495101Y-57570000D01*
X105499808Y-57570178D01*
X105536151Y-57572946D01*
X105560975Y-57574837D01*
X105560975Y-57574836D01*
X105560976Y-57574837D01*
X105595059Y-57570496D01*
X105602889Y-57570000D01*
X106375803Y-57570000D01*
X106442842Y-57589685D01*
X106465677Y-57608568D01*
X106469937Y-57613050D01*
X106469941Y-57613053D01*
X106513291Y-57643226D01*
X106557069Y-57697680D01*
X106564457Y-57767158D01*
X106533110Y-57829601D01*
X106472980Y-57865184D01*
X106442453Y-57869000D01*
X104510823Y-57869000D01*
X104437764Y-57883532D01*
X104437760Y-57883533D01*
X104354898Y-57938899D01*
X104304791Y-58013891D01*
X104251179Y-58058696D01*
X104201689Y-58069000D01*
X103434141Y-58069000D01*
X103430540Y-58068895D01*
X103366565Y-58065169D01*
X103366562Y-58065169D01*
X103303443Y-58076298D01*
X103299875Y-58076821D01*
X103236250Y-58084258D01*
X103236242Y-58084259D01*
X103230021Y-58086524D01*
X103187618Y-58094000D01*
X103052519Y-58094000D01*
X103052509Y-58094001D01*
X102995885Y-58100087D01*
X102867771Y-58147873D01*
X102786195Y-58208939D01*
X102720730Y-58233355D01*
X102652458Y-58218502D01*
X102606347Y-58174768D01*
X102570571Y-58116766D01*
X102450732Y-57996927D01*
X102450728Y-57996924D01*
X102306492Y-57907957D01*
X102306481Y-57907952D01*
X102145606Y-57854644D01*
X102046322Y-57844500D01*
X102023000Y-57844500D01*
X102023000Y-58945500D01*
X102003315Y-59012539D01*
X101950511Y-59058294D01*
X101899000Y-59069500D01*
X101055698Y-59069500D01*
X101037996Y-59079166D01*
X101011638Y-59082000D01*
X99300791Y-59082000D01*
X99233752Y-59062315D01*
X99225305Y-59056376D01*
X99113342Y-58970464D01*
X98967262Y-58909956D01*
X98967260Y-58909955D01*
X98810501Y-58889318D01*
X98810499Y-58889318D01*
X98653739Y-58909955D01*
X98653737Y-58909956D01*
X98507660Y-58970463D01*
X98382218Y-59066718D01*
X98285963Y-59192160D01*
X98225456Y-59338237D01*
X98225455Y-59338239D01*
X98204818Y-59494998D01*
X98204818Y-59495001D01*
X98225455Y-59651760D01*
X98225457Y-59651765D01*
X98289074Y-59805351D01*
X98286598Y-59806376D01*
X98299500Y-59854512D01*
X98299500Y-60380928D01*
X98279815Y-60447967D01*
X98227011Y-60493722D01*
X98157853Y-60503666D01*
X98128048Y-60495489D01*
X98042265Y-60459957D01*
X98042260Y-60459955D01*
X97885501Y-60439318D01*
X97885499Y-60439318D01*
X97728739Y-60459955D01*
X97728734Y-60459957D01*
X97582452Y-60520549D01*
X97512983Y-60528018D01*
X97450504Y-60496743D01*
X97414852Y-60436654D01*
X97411000Y-60405988D01*
X97411000Y-60365230D01*
X97408146Y-60334800D01*
X97408146Y-60334798D01*
X97363293Y-60206619D01*
X97363292Y-60206617D01*
X97282650Y-60097350D01*
X97173382Y-60016707D01*
X97173380Y-60016706D01*
X97045200Y-59971853D01*
X97014770Y-59969000D01*
X97014766Y-59969000D01*
X96356234Y-59969000D01*
X96356230Y-59969000D01*
X96325800Y-59971853D01*
X96325798Y-59971854D01*
X96192938Y-60018344D01*
X96123159Y-60021906D01*
X96062532Y-59987178D01*
X96030304Y-59925184D01*
X96036709Y-59855609D01*
X96053605Y-59825819D01*
X96132624Y-59722841D01*
X96193132Y-59576762D01*
X96208733Y-59458260D01*
X96213770Y-59420001D01*
X96213770Y-59419998D01*
X96199919Y-59314794D01*
X96193132Y-59263238D01*
X96132624Y-59117159D01*
X96036370Y-58991718D01*
X95910929Y-58895464D01*
X95896091Y-58889318D01*
X95764850Y-58834956D01*
X95764848Y-58834955D01*
X95634271Y-58817765D01*
X95570374Y-58789499D01*
X95531903Y-58731174D01*
X95531072Y-58661309D01*
X95562773Y-58607147D01*
X95587920Y-58582000D01*
X99085500Y-58582000D01*
X99810500Y-58582000D01*
X100310500Y-58582000D01*
X100802802Y-58582000D01*
X100820504Y-58572334D01*
X100846862Y-58569500D01*
X101523000Y-58569500D01*
X101523000Y-57844499D01*
X101499693Y-57844500D01*
X101499674Y-57844501D01*
X101400392Y-57854644D01*
X101239518Y-57907952D01*
X101239507Y-57907957D01*
X101095271Y-57996924D01*
X100993761Y-58098434D01*
X100932438Y-58131918D01*
X100862746Y-58126934D01*
X100818399Y-58098433D01*
X100765580Y-58045614D01*
X100622577Y-57957408D01*
X100622572Y-57957406D01*
X100463083Y-57904557D01*
X100364650Y-57894500D01*
X100310500Y-57894500D01*
X100310500Y-58582000D01*
X99810500Y-58582000D01*
X99810500Y-57894500D01*
X99810499Y-57894499D01*
X99756364Y-57894500D01*
X99756347Y-57894501D01*
X99657915Y-57904557D01*
X99498427Y-57957406D01*
X99498422Y-57957408D01*
X99355419Y-58045614D01*
X99236614Y-58164419D01*
X99148408Y-58307422D01*
X99148406Y-58307427D01*
X99095557Y-58466916D01*
X99085500Y-58565349D01*
X99085500Y-58582000D01*
X95587920Y-58582000D01*
X96588602Y-57581319D01*
X96649925Y-57547834D01*
X96676283Y-57545000D01*
X104387827Y-57545000D01*
X104435278Y-57554438D01*
G37*
%TD.AperFunction*%
%TA.AperFunction,Conductor*%
G36*
X98868539Y-52814685D02*
G01*
X98914294Y-52867489D01*
X98925500Y-52919000D01*
X98925500Y-53569500D01*
X99991814Y-53569500D01*
X99966007Y-53609656D01*
X99925500Y-53747611D01*
X99925500Y-53891389D01*
X99966007Y-54029344D01*
X99991814Y-54069500D01*
X98925500Y-54069500D01*
X98925500Y-54867344D01*
X98931901Y-54926872D01*
X98931903Y-54926879D01*
X98982145Y-55061586D01*
X98982149Y-55061593D01*
X99068309Y-55176687D01*
X99068312Y-55176690D01*
X99183406Y-55262850D01*
X99183413Y-55262854D01*
X99293243Y-55303818D01*
X99349177Y-55345689D01*
X99373594Y-55411153D01*
X99358742Y-55479426D01*
X99309337Y-55528832D01*
X99249910Y-55544000D01*
X96223217Y-55544000D01*
X96134137Y-55541743D01*
X96134128Y-55541743D01*
X96082976Y-55550912D01*
X96073754Y-55552564D01*
X96069095Y-55553218D01*
X96008064Y-55559425D01*
X96008062Y-55559426D01*
X95975280Y-55569710D01*
X95967656Y-55571581D01*
X95959808Y-55572988D01*
X95933849Y-55577641D01*
X95933841Y-55577643D01*
X95876882Y-55600395D01*
X95872446Y-55601974D01*
X95813915Y-55620340D01*
X95813912Y-55620341D01*
X95813910Y-55620342D01*
X95813903Y-55620345D01*
X95783884Y-55637007D01*
X95776790Y-55640376D01*
X95744890Y-55653119D01*
X95744888Y-55653119D01*
X95744883Y-55653122D01*
X95744877Y-55653126D01*
X95693654Y-55686883D01*
X95689626Y-55689324D01*
X95636002Y-55719088D01*
X95635999Y-55719090D01*
X95609927Y-55741470D01*
X95603660Y-55746195D01*
X95574982Y-55765098D01*
X95574975Y-55765103D01*
X95531616Y-55808462D01*
X95528161Y-55811664D01*
X95481606Y-55851632D01*
X95481605Y-55851633D01*
X95460576Y-55878800D01*
X95455384Y-55884694D01*
X92137032Y-59203046D01*
X92075486Y-59261551D01*
X92073712Y-59263239D01*
X92072446Y-59264442D01*
X92037399Y-59314794D01*
X92034562Y-59318556D01*
X91995802Y-59366092D01*
X91995799Y-59366097D01*
X91979892Y-59396547D01*
X91975824Y-59403261D01*
X91961778Y-59423443D01*
X91907326Y-59467224D01*
X91837849Y-59474616D01*
X91775404Y-59443273D01*
X91739818Y-59383144D01*
X91736000Y-59352611D01*
X91736000Y-58094115D01*
X91755685Y-58027076D01*
X91784511Y-57995742D01*
X91813782Y-57973282D01*
X91910036Y-57847841D01*
X91970544Y-57701762D01*
X91991182Y-57545000D01*
X91970544Y-57388238D01*
X91910036Y-57242159D01*
X91813782Y-57116718D01*
X91688341Y-57020464D01*
X91542262Y-56959956D01*
X91542260Y-56959955D01*
X91385501Y-56939318D01*
X91385499Y-56939318D01*
X91228739Y-56959955D01*
X91228737Y-56959956D01*
X91082660Y-57020463D01*
X90957218Y-57116718D01*
X90860963Y-57242160D01*
X90800456Y-57388237D01*
X90800455Y-57388239D01*
X90779818Y-57544998D01*
X90779818Y-57545000D01*
X90800455Y-57701760D01*
X90800456Y-57701761D01*
X90806177Y-57715574D01*
X90813643Y-57785043D01*
X90782366Y-57847522D01*
X90722276Y-57883172D01*
X90652451Y-57880676D01*
X90646820Y-57878650D01*
X90537956Y-57836476D01*
X90337476Y-57799000D01*
X90133524Y-57799000D01*
X89933044Y-57836476D01*
X89933041Y-57836476D01*
X89933041Y-57836477D01*
X89742864Y-57910151D01*
X89742857Y-57910155D01*
X89569460Y-58017517D01*
X89569458Y-58017519D01*
X89418736Y-58154919D01*
X89418736Y-58154920D01*
X89408953Y-58167875D01*
X89352843Y-58209510D01*
X89283131Y-58214201D01*
X89221950Y-58180458D01*
X89188724Y-58118994D01*
X89186000Y-58093147D01*
X89186000Y-52919000D01*
X89205685Y-52851961D01*
X89258489Y-52806206D01*
X89310000Y-52795000D01*
X98801500Y-52795000D01*
X98868539Y-52814685D01*
G37*
%TD.AperFunction*%
%TD*%
M02*
