%TF.GenerationSoftware,KiCad,Pcbnew,7.0.8*%
%TF.CreationDate,2024-07-27T19:07:12+04:00*%
%TF.ProjectId,neopixel_eliot_hat,6e656f70-6978-4656-9c5f-656c696f745f,rev?*%
%TF.SameCoordinates,Original*%
%TF.FileFunction,Legend,Top*%
%TF.FilePolarity,Positive*%
%FSLAX46Y46*%
G04 Gerber Fmt 4.6, Leading zero omitted, Abs format (unit mm)*
G04 Created by KiCad (PCBNEW 7.0.8) date 2024-07-27 19:07:12*
%MOMM*%
%LPD*%
G01*
G04 APERTURE LIST*
%ADD10C,0.100000*%
%ADD11C,0.080000*%
%ADD12C,0.075000*%
%ADD13C,0.125000*%
%ADD14C,0.120000*%
%ADD15C,0.160000*%
%ADD16C,0.200000*%
G04 APERTURE END LIST*
D10*
X107993431Y-55440609D02*
X107755336Y-55440609D01*
X107755336Y-55440609D02*
X107731527Y-55678704D01*
X107731527Y-55678704D02*
X107755336Y-55654895D01*
X107755336Y-55654895D02*
X107802955Y-55631085D01*
X107802955Y-55631085D02*
X107922003Y-55631085D01*
X107922003Y-55631085D02*
X107969622Y-55654895D01*
X107969622Y-55654895D02*
X107993431Y-55678704D01*
X107993431Y-55678704D02*
X108017241Y-55726323D01*
X108017241Y-55726323D02*
X108017241Y-55845371D01*
X108017241Y-55845371D02*
X107993431Y-55892990D01*
X107993431Y-55892990D02*
X107969622Y-55916800D01*
X107969622Y-55916800D02*
X107922003Y-55940609D01*
X107922003Y-55940609D02*
X107802955Y-55940609D01*
X107802955Y-55940609D02*
X107755336Y-55916800D01*
X107755336Y-55916800D02*
X107731527Y-55892990D01*
X108183907Y-55607276D02*
X108302955Y-55940609D01*
X108302955Y-55940609D02*
X108422002Y-55607276D01*
X100267241Y-55464419D02*
X100219622Y-55440609D01*
X100219622Y-55440609D02*
X100148193Y-55440609D01*
X100148193Y-55440609D02*
X100076765Y-55464419D01*
X100076765Y-55464419D02*
X100029146Y-55512038D01*
X100029146Y-55512038D02*
X100005336Y-55559657D01*
X100005336Y-55559657D02*
X99981527Y-55654895D01*
X99981527Y-55654895D02*
X99981527Y-55726323D01*
X99981527Y-55726323D02*
X100005336Y-55821561D01*
X100005336Y-55821561D02*
X100029146Y-55869180D01*
X100029146Y-55869180D02*
X100076765Y-55916800D01*
X100076765Y-55916800D02*
X100148193Y-55940609D01*
X100148193Y-55940609D02*
X100195812Y-55940609D01*
X100195812Y-55940609D02*
X100267241Y-55916800D01*
X100267241Y-55916800D02*
X100291050Y-55892990D01*
X100291050Y-55892990D02*
X100291050Y-55726323D01*
X100291050Y-55726323D02*
X100195812Y-55726323D01*
X100505336Y-55940609D02*
X100505336Y-55440609D01*
X100505336Y-55440609D02*
X100791050Y-55940609D01*
X100791050Y-55940609D02*
X100791050Y-55440609D01*
X101029146Y-55940609D02*
X101029146Y-55440609D01*
X101029146Y-55440609D02*
X101148194Y-55440609D01*
X101148194Y-55440609D02*
X101219622Y-55464419D01*
X101219622Y-55464419D02*
X101267241Y-55512038D01*
X101267241Y-55512038D02*
X101291051Y-55559657D01*
X101291051Y-55559657D02*
X101314860Y-55654895D01*
X101314860Y-55654895D02*
X101314860Y-55726323D01*
X101314860Y-55726323D02*
X101291051Y-55821561D01*
X101291051Y-55821561D02*
X101267241Y-55869180D01*
X101267241Y-55869180D02*
X101219622Y-55916800D01*
X101219622Y-55916800D02*
X101148194Y-55940609D01*
X101148194Y-55940609D02*
X101029146Y-55940609D01*
X116394109Y-59557282D02*
X116894109Y-59223949D01*
X116394109Y-59223949D02*
X116894109Y-59557282D01*
D11*
X105032178Y-77549149D02*
X105032178Y-77049149D01*
X105198845Y-77215816D02*
X105389321Y-77215816D01*
X105270273Y-77549149D02*
X105270273Y-77120578D01*
X105270273Y-77120578D02*
X105294083Y-77072959D01*
X105294083Y-77072959D02*
X105341702Y-77049149D01*
X105341702Y-77049149D02*
X105389321Y-77049149D01*
X105889320Y-77215816D02*
X106008368Y-77549149D01*
X106127415Y-77215816D02*
X106008368Y-77549149D01*
X106008368Y-77549149D02*
X105960749Y-77668197D01*
X105960749Y-77668197D02*
X105936939Y-77692006D01*
X105936939Y-77692006D02*
X105889320Y-77715816D01*
X106389320Y-77549149D02*
X106341701Y-77525340D01*
X106341701Y-77525340D02*
X106317891Y-77501530D01*
X106317891Y-77501530D02*
X106294082Y-77453911D01*
X106294082Y-77453911D02*
X106294082Y-77311054D01*
X106294082Y-77311054D02*
X106317891Y-77263435D01*
X106317891Y-77263435D02*
X106341701Y-77239625D01*
X106341701Y-77239625D02*
X106389320Y-77215816D01*
X106389320Y-77215816D02*
X106460748Y-77215816D01*
X106460748Y-77215816D02*
X106508367Y-77239625D01*
X106508367Y-77239625D02*
X106532177Y-77263435D01*
X106532177Y-77263435D02*
X106555986Y-77311054D01*
X106555986Y-77311054D02*
X106555986Y-77453911D01*
X106555986Y-77453911D02*
X106532177Y-77501530D01*
X106532177Y-77501530D02*
X106508367Y-77525340D01*
X106508367Y-77525340D02*
X106460748Y-77549149D01*
X106460748Y-77549149D02*
X106389320Y-77549149D01*
X106984558Y-77215816D02*
X106984558Y-77549149D01*
X106770272Y-77215816D02*
X106770272Y-77477720D01*
X106770272Y-77477720D02*
X106794082Y-77525340D01*
X106794082Y-77525340D02*
X106841701Y-77549149D01*
X106841701Y-77549149D02*
X106913129Y-77549149D01*
X106913129Y-77549149D02*
X106960748Y-77525340D01*
X106960748Y-77525340D02*
X106984558Y-77501530D01*
X107246463Y-77049149D02*
X107198844Y-77144387D01*
X107460748Y-77549149D02*
X107460748Y-77215816D01*
X107460748Y-77311054D02*
X107484558Y-77263435D01*
X107484558Y-77263435D02*
X107508367Y-77239625D01*
X107508367Y-77239625D02*
X107555986Y-77215816D01*
X107555986Y-77215816D02*
X107603605Y-77215816D01*
X107960748Y-77525340D02*
X107913129Y-77549149D01*
X107913129Y-77549149D02*
X107817891Y-77549149D01*
X107817891Y-77549149D02*
X107770272Y-77525340D01*
X107770272Y-77525340D02*
X107746463Y-77477720D01*
X107746463Y-77477720D02*
X107746463Y-77287244D01*
X107746463Y-77287244D02*
X107770272Y-77239625D01*
X107770272Y-77239625D02*
X107817891Y-77215816D01*
X107817891Y-77215816D02*
X107913129Y-77215816D01*
X107913129Y-77215816D02*
X107960748Y-77239625D01*
X107960748Y-77239625D02*
X107984558Y-77287244D01*
X107984558Y-77287244D02*
X107984558Y-77334863D01*
X107984558Y-77334863D02*
X107746463Y-77382482D01*
X108579795Y-77549149D02*
X108579795Y-77215816D01*
X108579795Y-77311054D02*
X108603605Y-77263435D01*
X108603605Y-77263435D02*
X108627414Y-77239625D01*
X108627414Y-77239625D02*
X108675033Y-77215816D01*
X108675033Y-77215816D02*
X108722652Y-77215816D01*
X109079795Y-77525340D02*
X109032176Y-77549149D01*
X109032176Y-77549149D02*
X108936938Y-77549149D01*
X108936938Y-77549149D02*
X108889319Y-77525340D01*
X108889319Y-77525340D02*
X108865510Y-77477720D01*
X108865510Y-77477720D02*
X108865510Y-77287244D01*
X108865510Y-77287244D02*
X108889319Y-77239625D01*
X108889319Y-77239625D02*
X108936938Y-77215816D01*
X108936938Y-77215816D02*
X109032176Y-77215816D01*
X109032176Y-77215816D02*
X109079795Y-77239625D01*
X109079795Y-77239625D02*
X109103605Y-77287244D01*
X109103605Y-77287244D02*
X109103605Y-77334863D01*
X109103605Y-77334863D02*
X108865510Y-77382482D01*
X109532176Y-77549149D02*
X109532176Y-77287244D01*
X109532176Y-77287244D02*
X109508366Y-77239625D01*
X109508366Y-77239625D02*
X109460747Y-77215816D01*
X109460747Y-77215816D02*
X109365509Y-77215816D01*
X109365509Y-77215816D02*
X109317890Y-77239625D01*
X109532176Y-77525340D02*
X109484557Y-77549149D01*
X109484557Y-77549149D02*
X109365509Y-77549149D01*
X109365509Y-77549149D02*
X109317890Y-77525340D01*
X109317890Y-77525340D02*
X109294081Y-77477720D01*
X109294081Y-77477720D02*
X109294081Y-77430101D01*
X109294081Y-77430101D02*
X109317890Y-77382482D01*
X109317890Y-77382482D02*
X109365509Y-77358673D01*
X109365509Y-77358673D02*
X109484557Y-77358673D01*
X109484557Y-77358673D02*
X109532176Y-77334863D01*
X109984557Y-77549149D02*
X109984557Y-77049149D01*
X109984557Y-77525340D02*
X109936938Y-77549149D01*
X109936938Y-77549149D02*
X109841700Y-77549149D01*
X109841700Y-77549149D02*
X109794081Y-77525340D01*
X109794081Y-77525340D02*
X109770271Y-77501530D01*
X109770271Y-77501530D02*
X109746462Y-77453911D01*
X109746462Y-77453911D02*
X109746462Y-77311054D01*
X109746462Y-77311054D02*
X109770271Y-77263435D01*
X109770271Y-77263435D02*
X109794081Y-77239625D01*
X109794081Y-77239625D02*
X109841700Y-77215816D01*
X109841700Y-77215816D02*
X109936938Y-77215816D01*
X109936938Y-77215816D02*
X109984557Y-77239625D01*
X110222652Y-77549149D02*
X110222652Y-77215816D01*
X110222652Y-77049149D02*
X110198843Y-77072959D01*
X110198843Y-77072959D02*
X110222652Y-77096768D01*
X110222652Y-77096768D02*
X110246462Y-77072959D01*
X110246462Y-77072959D02*
X110222652Y-77049149D01*
X110222652Y-77049149D02*
X110222652Y-77096768D01*
X110460747Y-77215816D02*
X110460747Y-77549149D01*
X110460747Y-77263435D02*
X110484557Y-77239625D01*
X110484557Y-77239625D02*
X110532176Y-77215816D01*
X110532176Y-77215816D02*
X110603604Y-77215816D01*
X110603604Y-77215816D02*
X110651223Y-77239625D01*
X110651223Y-77239625D02*
X110675033Y-77287244D01*
X110675033Y-77287244D02*
X110675033Y-77549149D01*
X111127414Y-77215816D02*
X111127414Y-77620578D01*
X111127414Y-77620578D02*
X111103604Y-77668197D01*
X111103604Y-77668197D02*
X111079795Y-77692006D01*
X111079795Y-77692006D02*
X111032176Y-77715816D01*
X111032176Y-77715816D02*
X110960747Y-77715816D01*
X110960747Y-77715816D02*
X110913128Y-77692006D01*
X111127414Y-77525340D02*
X111079795Y-77549149D01*
X111079795Y-77549149D02*
X110984557Y-77549149D01*
X110984557Y-77549149D02*
X110936938Y-77525340D01*
X110936938Y-77525340D02*
X110913128Y-77501530D01*
X110913128Y-77501530D02*
X110889319Y-77453911D01*
X110889319Y-77453911D02*
X110889319Y-77311054D01*
X110889319Y-77311054D02*
X110913128Y-77263435D01*
X110913128Y-77263435D02*
X110936938Y-77239625D01*
X110936938Y-77239625D02*
X110984557Y-77215816D01*
X110984557Y-77215816D02*
X111079795Y-77215816D01*
X111079795Y-77215816D02*
X111127414Y-77239625D01*
X104960750Y-78020816D02*
X105151226Y-78020816D01*
X105032178Y-77854149D02*
X105032178Y-78282720D01*
X105032178Y-78282720D02*
X105055988Y-78330340D01*
X105055988Y-78330340D02*
X105103607Y-78354149D01*
X105103607Y-78354149D02*
X105151226Y-78354149D01*
X105317892Y-78354149D02*
X105317892Y-77854149D01*
X105532178Y-78354149D02*
X105532178Y-78092244D01*
X105532178Y-78092244D02*
X105508368Y-78044625D01*
X105508368Y-78044625D02*
X105460749Y-78020816D01*
X105460749Y-78020816D02*
X105389321Y-78020816D01*
X105389321Y-78020816D02*
X105341702Y-78044625D01*
X105341702Y-78044625D02*
X105317892Y-78068435D01*
X105770273Y-78354149D02*
X105770273Y-78020816D01*
X105770273Y-77854149D02*
X105746464Y-77877959D01*
X105746464Y-77877959D02*
X105770273Y-77901768D01*
X105770273Y-77901768D02*
X105794083Y-77877959D01*
X105794083Y-77877959D02*
X105770273Y-77854149D01*
X105770273Y-77854149D02*
X105770273Y-77901768D01*
X105984559Y-78330340D02*
X106032178Y-78354149D01*
X106032178Y-78354149D02*
X106127416Y-78354149D01*
X106127416Y-78354149D02*
X106175035Y-78330340D01*
X106175035Y-78330340D02*
X106198844Y-78282720D01*
X106198844Y-78282720D02*
X106198844Y-78258911D01*
X106198844Y-78258911D02*
X106175035Y-78211292D01*
X106175035Y-78211292D02*
X106127416Y-78187482D01*
X106127416Y-78187482D02*
X106055987Y-78187482D01*
X106055987Y-78187482D02*
X106008368Y-78163673D01*
X106008368Y-78163673D02*
X105984559Y-78116054D01*
X105984559Y-78116054D02*
X105984559Y-78092244D01*
X105984559Y-78092244D02*
X106008368Y-78044625D01*
X106008368Y-78044625D02*
X106055987Y-78020816D01*
X106055987Y-78020816D02*
X106127416Y-78020816D01*
X106127416Y-78020816D02*
X106175035Y-78044625D01*
X106436940Y-78330340D02*
X106436940Y-78354149D01*
X106436940Y-78354149D02*
X106413130Y-78401768D01*
X106413130Y-78401768D02*
X106389321Y-78425578D01*
X106984558Y-78020816D02*
X107079796Y-78354149D01*
X107079796Y-78354149D02*
X107175034Y-78116054D01*
X107175034Y-78116054D02*
X107270272Y-78354149D01*
X107270272Y-78354149D02*
X107365510Y-78020816D01*
X107555987Y-78354149D02*
X107555987Y-78020816D01*
X107555987Y-78116054D02*
X107579797Y-78068435D01*
X107579797Y-78068435D02*
X107603606Y-78044625D01*
X107603606Y-78044625D02*
X107651225Y-78020816D01*
X107651225Y-78020816D02*
X107698844Y-78020816D01*
X107936940Y-78354149D02*
X107889321Y-78330340D01*
X107889321Y-78330340D02*
X107865511Y-78306530D01*
X107865511Y-78306530D02*
X107841702Y-78258911D01*
X107841702Y-78258911D02*
X107841702Y-78116054D01*
X107841702Y-78116054D02*
X107865511Y-78068435D01*
X107865511Y-78068435D02*
X107889321Y-78044625D01*
X107889321Y-78044625D02*
X107936940Y-78020816D01*
X107936940Y-78020816D02*
X108008368Y-78020816D01*
X108008368Y-78020816D02*
X108055987Y-78044625D01*
X108055987Y-78044625D02*
X108079797Y-78068435D01*
X108079797Y-78068435D02*
X108103606Y-78116054D01*
X108103606Y-78116054D02*
X108103606Y-78258911D01*
X108103606Y-78258911D02*
X108079797Y-78306530D01*
X108079797Y-78306530D02*
X108055987Y-78330340D01*
X108055987Y-78330340D02*
X108008368Y-78354149D01*
X108008368Y-78354149D02*
X107936940Y-78354149D01*
X108317892Y-78020816D02*
X108317892Y-78354149D01*
X108317892Y-78068435D02*
X108341702Y-78044625D01*
X108341702Y-78044625D02*
X108389321Y-78020816D01*
X108389321Y-78020816D02*
X108460749Y-78020816D01*
X108460749Y-78020816D02*
X108508368Y-78044625D01*
X108508368Y-78044625D02*
X108532178Y-78092244D01*
X108532178Y-78092244D02*
X108532178Y-78354149D01*
X108984559Y-78020816D02*
X108984559Y-78425578D01*
X108984559Y-78425578D02*
X108960749Y-78473197D01*
X108960749Y-78473197D02*
X108936940Y-78497006D01*
X108936940Y-78497006D02*
X108889321Y-78520816D01*
X108889321Y-78520816D02*
X108817892Y-78520816D01*
X108817892Y-78520816D02*
X108770273Y-78497006D01*
X108984559Y-78330340D02*
X108936940Y-78354149D01*
X108936940Y-78354149D02*
X108841702Y-78354149D01*
X108841702Y-78354149D02*
X108794083Y-78330340D01*
X108794083Y-78330340D02*
X108770273Y-78306530D01*
X108770273Y-78306530D02*
X108746464Y-78258911D01*
X108746464Y-78258911D02*
X108746464Y-78116054D01*
X108746464Y-78116054D02*
X108770273Y-78068435D01*
X108770273Y-78068435D02*
X108794083Y-78044625D01*
X108794083Y-78044625D02*
X108841702Y-78020816D01*
X108841702Y-78020816D02*
X108936940Y-78020816D01*
X108936940Y-78020816D02*
X108984559Y-78044625D01*
X109579797Y-78330340D02*
X109627416Y-78354149D01*
X109627416Y-78354149D02*
X109722654Y-78354149D01*
X109722654Y-78354149D02*
X109770273Y-78330340D01*
X109770273Y-78330340D02*
X109794082Y-78282720D01*
X109794082Y-78282720D02*
X109794082Y-78258911D01*
X109794082Y-78258911D02*
X109770273Y-78211292D01*
X109770273Y-78211292D02*
X109722654Y-78187482D01*
X109722654Y-78187482D02*
X109651225Y-78187482D01*
X109651225Y-78187482D02*
X109603606Y-78163673D01*
X109603606Y-78163673D02*
X109579797Y-78116054D01*
X109579797Y-78116054D02*
X109579797Y-78092244D01*
X109579797Y-78092244D02*
X109603606Y-78044625D01*
X109603606Y-78044625D02*
X109651225Y-78020816D01*
X109651225Y-78020816D02*
X109722654Y-78020816D01*
X109722654Y-78020816D02*
X109770273Y-78044625D01*
X110008368Y-78354149D02*
X110008368Y-78020816D01*
X110008368Y-77854149D02*
X109984559Y-77877959D01*
X109984559Y-77877959D02*
X110008368Y-77901768D01*
X110008368Y-77901768D02*
X110032178Y-77877959D01*
X110032178Y-77877959D02*
X110008368Y-77854149D01*
X110008368Y-77854149D02*
X110008368Y-77901768D01*
X110460749Y-78354149D02*
X110460749Y-77854149D01*
X110460749Y-78330340D02*
X110413130Y-78354149D01*
X110413130Y-78354149D02*
X110317892Y-78354149D01*
X110317892Y-78354149D02*
X110270273Y-78330340D01*
X110270273Y-78330340D02*
X110246463Y-78306530D01*
X110246463Y-78306530D02*
X110222654Y-78258911D01*
X110222654Y-78258911D02*
X110222654Y-78116054D01*
X110222654Y-78116054D02*
X110246463Y-78068435D01*
X110246463Y-78068435D02*
X110270273Y-78044625D01*
X110270273Y-78044625D02*
X110317892Y-78020816D01*
X110317892Y-78020816D02*
X110413130Y-78020816D01*
X110413130Y-78020816D02*
X110460749Y-78044625D01*
X110889320Y-78330340D02*
X110841701Y-78354149D01*
X110841701Y-78354149D02*
X110746463Y-78354149D01*
X110746463Y-78354149D02*
X110698844Y-78330340D01*
X110698844Y-78330340D02*
X110675035Y-78282720D01*
X110675035Y-78282720D02*
X110675035Y-78092244D01*
X110675035Y-78092244D02*
X110698844Y-78044625D01*
X110698844Y-78044625D02*
X110746463Y-78020816D01*
X110746463Y-78020816D02*
X110841701Y-78020816D01*
X110841701Y-78020816D02*
X110889320Y-78044625D01*
X110889320Y-78044625D02*
X110913130Y-78092244D01*
X110913130Y-78092244D02*
X110913130Y-78139863D01*
X110913130Y-78139863D02*
X110675035Y-78187482D01*
X111508367Y-78306530D02*
X111532177Y-78330340D01*
X111532177Y-78330340D02*
X111508367Y-78354149D01*
X111508367Y-78354149D02*
X111484558Y-78330340D01*
X111484558Y-78330340D02*
X111508367Y-78306530D01*
X111508367Y-78306530D02*
X111508367Y-78354149D01*
X111508367Y-78044625D02*
X111532177Y-78068435D01*
X111532177Y-78068435D02*
X111508367Y-78092244D01*
X111508367Y-78092244D02*
X111484558Y-78068435D01*
X111484558Y-78068435D02*
X111508367Y-78044625D01*
X111508367Y-78044625D02*
X111508367Y-78092244D01*
X111841700Y-77854149D02*
X111889319Y-77854149D01*
X111889319Y-77854149D02*
X111936938Y-77877959D01*
X111936938Y-77877959D02*
X111960748Y-77901768D01*
X111960748Y-77901768D02*
X111984557Y-77949387D01*
X111984557Y-77949387D02*
X112008367Y-78044625D01*
X112008367Y-78044625D02*
X112008367Y-78163673D01*
X112008367Y-78163673D02*
X111984557Y-78258911D01*
X111984557Y-78258911D02*
X111960748Y-78306530D01*
X111960748Y-78306530D02*
X111936938Y-78330340D01*
X111936938Y-78330340D02*
X111889319Y-78354149D01*
X111889319Y-78354149D02*
X111841700Y-78354149D01*
X111841700Y-78354149D02*
X111794081Y-78330340D01*
X111794081Y-78330340D02*
X111770272Y-78306530D01*
X111770272Y-78306530D02*
X111746462Y-78258911D01*
X111746462Y-78258911D02*
X111722653Y-78163673D01*
X111722653Y-78163673D02*
X111722653Y-78044625D01*
X111722653Y-78044625D02*
X111746462Y-77949387D01*
X111746462Y-77949387D02*
X111770272Y-77901768D01*
X111770272Y-77901768D02*
X111794081Y-77877959D01*
X111794081Y-77877959D02*
X111841700Y-77854149D01*
D10*
X105353431Y-55440609D02*
X105115336Y-55440609D01*
X105115336Y-55440609D02*
X105091527Y-55678704D01*
X105091527Y-55678704D02*
X105115336Y-55654895D01*
X105115336Y-55654895D02*
X105162955Y-55631085D01*
X105162955Y-55631085D02*
X105282003Y-55631085D01*
X105282003Y-55631085D02*
X105329622Y-55654895D01*
X105329622Y-55654895D02*
X105353431Y-55678704D01*
X105353431Y-55678704D02*
X105377241Y-55726323D01*
X105377241Y-55726323D02*
X105377241Y-55845371D01*
X105377241Y-55845371D02*
X105353431Y-55892990D01*
X105353431Y-55892990D02*
X105329622Y-55916800D01*
X105329622Y-55916800D02*
X105282003Y-55940609D01*
X105282003Y-55940609D02*
X105162955Y-55940609D01*
X105162955Y-55940609D02*
X105115336Y-55916800D01*
X105115336Y-55916800D02*
X105091527Y-55892990D01*
X105543907Y-55607276D02*
X105662955Y-55940609D01*
X105662955Y-55940609D02*
X105782002Y-55607276D01*
X102727717Y-55440609D02*
X103061050Y-55940609D01*
X103061050Y-55440609D02*
X102727717Y-55940609D01*
D12*
X113757143Y-53681314D02*
X113742857Y-53695600D01*
X113742857Y-53695600D02*
X113700000Y-53709885D01*
X113700000Y-53709885D02*
X113671428Y-53709885D01*
X113671428Y-53709885D02*
X113628571Y-53695600D01*
X113628571Y-53695600D02*
X113600000Y-53667028D01*
X113600000Y-53667028D02*
X113585714Y-53638457D01*
X113585714Y-53638457D02*
X113571428Y-53581314D01*
X113571428Y-53581314D02*
X113571428Y-53538457D01*
X113571428Y-53538457D02*
X113585714Y-53481314D01*
X113585714Y-53481314D02*
X113600000Y-53452742D01*
X113600000Y-53452742D02*
X113628571Y-53424171D01*
X113628571Y-53424171D02*
X113671428Y-53409885D01*
X113671428Y-53409885D02*
X113700000Y-53409885D01*
X113700000Y-53409885D02*
X113742857Y-53424171D01*
X113742857Y-53424171D02*
X113757143Y-53438457D01*
X114042857Y-53709885D02*
X113871428Y-53709885D01*
X113957143Y-53709885D02*
X113957143Y-53409885D01*
X113957143Y-53409885D02*
X113928571Y-53452742D01*
X113928571Y-53452742D02*
X113900000Y-53481314D01*
X113900000Y-53481314D02*
X113871428Y-53495600D01*
X114314285Y-53409885D02*
X114171428Y-53409885D01*
X114171428Y-53409885D02*
X114157142Y-53552742D01*
X114157142Y-53552742D02*
X114171428Y-53538457D01*
X114171428Y-53538457D02*
X114200000Y-53524171D01*
X114200000Y-53524171D02*
X114271428Y-53524171D01*
X114271428Y-53524171D02*
X114300000Y-53538457D01*
X114300000Y-53538457D02*
X114314285Y-53552742D01*
X114314285Y-53552742D02*
X114328571Y-53581314D01*
X114328571Y-53581314D02*
X114328571Y-53652742D01*
X114328571Y-53652742D02*
X114314285Y-53681314D01*
X114314285Y-53681314D02*
X114300000Y-53695600D01*
X114300000Y-53695600D02*
X114271428Y-53709885D01*
X114271428Y-53709885D02*
X114200000Y-53709885D01*
X114200000Y-53709885D02*
X114171428Y-53695600D01*
X114171428Y-53695600D02*
X114157142Y-53681314D01*
X99300000Y-78609885D02*
X99200000Y-78467028D01*
X99128571Y-78609885D02*
X99128571Y-78309885D01*
X99128571Y-78309885D02*
X99242857Y-78309885D01*
X99242857Y-78309885D02*
X99271428Y-78324171D01*
X99271428Y-78324171D02*
X99285714Y-78338457D01*
X99285714Y-78338457D02*
X99300000Y-78367028D01*
X99300000Y-78367028D02*
X99300000Y-78409885D01*
X99300000Y-78409885D02*
X99285714Y-78438457D01*
X99285714Y-78438457D02*
X99271428Y-78452742D01*
X99271428Y-78452742D02*
X99242857Y-78467028D01*
X99242857Y-78467028D02*
X99128571Y-78467028D01*
X99400000Y-78309885D02*
X99585714Y-78309885D01*
X99585714Y-78309885D02*
X99485714Y-78424171D01*
X99485714Y-78424171D02*
X99528571Y-78424171D01*
X99528571Y-78424171D02*
X99557143Y-78438457D01*
X99557143Y-78438457D02*
X99571428Y-78452742D01*
X99571428Y-78452742D02*
X99585714Y-78481314D01*
X99585714Y-78481314D02*
X99585714Y-78552742D01*
X99585714Y-78552742D02*
X99571428Y-78581314D01*
X99571428Y-78581314D02*
X99557143Y-78595600D01*
X99557143Y-78595600D02*
X99528571Y-78609885D01*
X99528571Y-78609885D02*
X99442857Y-78609885D01*
X99442857Y-78609885D02*
X99414285Y-78595600D01*
X99414285Y-78595600D02*
X99400000Y-78581314D01*
X100800000Y-78609885D02*
X100700000Y-78467028D01*
X100628571Y-78609885D02*
X100628571Y-78309885D01*
X100628571Y-78309885D02*
X100742857Y-78309885D01*
X100742857Y-78309885D02*
X100771428Y-78324171D01*
X100771428Y-78324171D02*
X100785714Y-78338457D01*
X100785714Y-78338457D02*
X100800000Y-78367028D01*
X100800000Y-78367028D02*
X100800000Y-78409885D01*
X100800000Y-78409885D02*
X100785714Y-78438457D01*
X100785714Y-78438457D02*
X100771428Y-78452742D01*
X100771428Y-78452742D02*
X100742857Y-78467028D01*
X100742857Y-78467028D02*
X100628571Y-78467028D01*
X100914285Y-78338457D02*
X100928571Y-78324171D01*
X100928571Y-78324171D02*
X100957143Y-78309885D01*
X100957143Y-78309885D02*
X101028571Y-78309885D01*
X101028571Y-78309885D02*
X101057143Y-78324171D01*
X101057143Y-78324171D02*
X101071428Y-78338457D01*
X101071428Y-78338457D02*
X101085714Y-78367028D01*
X101085714Y-78367028D02*
X101085714Y-78395600D01*
X101085714Y-78395600D02*
X101071428Y-78438457D01*
X101071428Y-78438457D02*
X100900000Y-78609885D01*
X100900000Y-78609885D02*
X101085714Y-78609885D01*
X104925000Y-67456314D02*
X104910714Y-67470600D01*
X104910714Y-67470600D02*
X104867857Y-67484885D01*
X104867857Y-67484885D02*
X104839285Y-67484885D01*
X104839285Y-67484885D02*
X104796428Y-67470600D01*
X104796428Y-67470600D02*
X104767857Y-67442028D01*
X104767857Y-67442028D02*
X104753571Y-67413457D01*
X104753571Y-67413457D02*
X104739285Y-67356314D01*
X104739285Y-67356314D02*
X104739285Y-67313457D01*
X104739285Y-67313457D02*
X104753571Y-67256314D01*
X104753571Y-67256314D02*
X104767857Y-67227742D01*
X104767857Y-67227742D02*
X104796428Y-67199171D01*
X104796428Y-67199171D02*
X104839285Y-67184885D01*
X104839285Y-67184885D02*
X104867857Y-67184885D01*
X104867857Y-67184885D02*
X104910714Y-67199171D01*
X104910714Y-67199171D02*
X104925000Y-67213457D01*
X105025000Y-67184885D02*
X105225000Y-67184885D01*
X105225000Y-67184885D02*
X105096428Y-67484885D01*
X113525000Y-61356314D02*
X113510714Y-61370600D01*
X113510714Y-61370600D02*
X113467857Y-61384885D01*
X113467857Y-61384885D02*
X113439285Y-61384885D01*
X113439285Y-61384885D02*
X113396428Y-61370600D01*
X113396428Y-61370600D02*
X113367857Y-61342028D01*
X113367857Y-61342028D02*
X113353571Y-61313457D01*
X113353571Y-61313457D02*
X113339285Y-61256314D01*
X113339285Y-61256314D02*
X113339285Y-61213457D01*
X113339285Y-61213457D02*
X113353571Y-61156314D01*
X113353571Y-61156314D02*
X113367857Y-61127742D01*
X113367857Y-61127742D02*
X113396428Y-61099171D01*
X113396428Y-61099171D02*
X113439285Y-61084885D01*
X113439285Y-61084885D02*
X113467857Y-61084885D01*
X113467857Y-61084885D02*
X113510714Y-61099171D01*
X113510714Y-61099171D02*
X113525000Y-61113457D01*
X113782143Y-61084885D02*
X113725000Y-61084885D01*
X113725000Y-61084885D02*
X113696428Y-61099171D01*
X113696428Y-61099171D02*
X113682143Y-61113457D01*
X113682143Y-61113457D02*
X113653571Y-61156314D01*
X113653571Y-61156314D02*
X113639285Y-61213457D01*
X113639285Y-61213457D02*
X113639285Y-61327742D01*
X113639285Y-61327742D02*
X113653571Y-61356314D01*
X113653571Y-61356314D02*
X113667857Y-61370600D01*
X113667857Y-61370600D02*
X113696428Y-61384885D01*
X113696428Y-61384885D02*
X113753571Y-61384885D01*
X113753571Y-61384885D02*
X113782143Y-61370600D01*
X113782143Y-61370600D02*
X113796428Y-61356314D01*
X113796428Y-61356314D02*
X113810714Y-61327742D01*
X113810714Y-61327742D02*
X113810714Y-61256314D01*
X113810714Y-61256314D02*
X113796428Y-61227742D01*
X113796428Y-61227742D02*
X113782143Y-61213457D01*
X113782143Y-61213457D02*
X113753571Y-61199171D01*
X113753571Y-61199171D02*
X113696428Y-61199171D01*
X113696428Y-61199171D02*
X113667857Y-61213457D01*
X113667857Y-61213457D02*
X113653571Y-61227742D01*
X113653571Y-61227742D02*
X113639285Y-61256314D01*
X115050000Y-61356314D02*
X115035714Y-61370600D01*
X115035714Y-61370600D02*
X114992857Y-61384885D01*
X114992857Y-61384885D02*
X114964285Y-61384885D01*
X114964285Y-61384885D02*
X114921428Y-61370600D01*
X114921428Y-61370600D02*
X114892857Y-61342028D01*
X114892857Y-61342028D02*
X114878571Y-61313457D01*
X114878571Y-61313457D02*
X114864285Y-61256314D01*
X114864285Y-61256314D02*
X114864285Y-61213457D01*
X114864285Y-61213457D02*
X114878571Y-61156314D01*
X114878571Y-61156314D02*
X114892857Y-61127742D01*
X114892857Y-61127742D02*
X114921428Y-61099171D01*
X114921428Y-61099171D02*
X114964285Y-61084885D01*
X114964285Y-61084885D02*
X114992857Y-61084885D01*
X114992857Y-61084885D02*
X115035714Y-61099171D01*
X115035714Y-61099171D02*
X115050000Y-61113457D01*
X115321428Y-61084885D02*
X115178571Y-61084885D01*
X115178571Y-61084885D02*
X115164285Y-61227742D01*
X115164285Y-61227742D02*
X115178571Y-61213457D01*
X115178571Y-61213457D02*
X115207143Y-61199171D01*
X115207143Y-61199171D02*
X115278571Y-61199171D01*
X115278571Y-61199171D02*
X115307143Y-61213457D01*
X115307143Y-61213457D02*
X115321428Y-61227742D01*
X115321428Y-61227742D02*
X115335714Y-61256314D01*
X115335714Y-61256314D02*
X115335714Y-61327742D01*
X115335714Y-61327742D02*
X115321428Y-61356314D01*
X115321428Y-61356314D02*
X115307143Y-61370600D01*
X115307143Y-61370600D02*
X115278571Y-61384885D01*
X115278571Y-61384885D02*
X115207143Y-61384885D01*
X115207143Y-61384885D02*
X115178571Y-61370600D01*
X115178571Y-61370600D02*
X115164285Y-61356314D01*
X113239071Y-67604385D02*
X113239071Y-67304385D01*
X113239071Y-67304385D02*
X113310500Y-67304385D01*
X113310500Y-67304385D02*
X113353357Y-67318671D01*
X113353357Y-67318671D02*
X113381928Y-67347242D01*
X113381928Y-67347242D02*
X113396214Y-67375814D01*
X113396214Y-67375814D02*
X113410500Y-67432957D01*
X113410500Y-67432957D02*
X113410500Y-67475814D01*
X113410500Y-67475814D02*
X113396214Y-67532957D01*
X113396214Y-67532957D02*
X113381928Y-67561528D01*
X113381928Y-67561528D02*
X113353357Y-67590100D01*
X113353357Y-67590100D02*
X113310500Y-67604385D01*
X113310500Y-67604385D02*
X113239071Y-67604385D01*
X113696214Y-67604385D02*
X113524785Y-67604385D01*
X113610500Y-67604385D02*
X113610500Y-67304385D01*
X113610500Y-67304385D02*
X113581928Y-67347242D01*
X113581928Y-67347242D02*
X113553357Y-67375814D01*
X113553357Y-67375814D02*
X113524785Y-67390100D01*
X113457143Y-56931314D02*
X113442857Y-56945600D01*
X113442857Y-56945600D02*
X113400000Y-56959885D01*
X113400000Y-56959885D02*
X113371428Y-56959885D01*
X113371428Y-56959885D02*
X113328571Y-56945600D01*
X113328571Y-56945600D02*
X113300000Y-56917028D01*
X113300000Y-56917028D02*
X113285714Y-56888457D01*
X113285714Y-56888457D02*
X113271428Y-56831314D01*
X113271428Y-56831314D02*
X113271428Y-56788457D01*
X113271428Y-56788457D02*
X113285714Y-56731314D01*
X113285714Y-56731314D02*
X113300000Y-56702742D01*
X113300000Y-56702742D02*
X113328571Y-56674171D01*
X113328571Y-56674171D02*
X113371428Y-56659885D01*
X113371428Y-56659885D02*
X113400000Y-56659885D01*
X113400000Y-56659885D02*
X113442857Y-56674171D01*
X113442857Y-56674171D02*
X113457143Y-56688457D01*
X113742857Y-56959885D02*
X113571428Y-56959885D01*
X113657143Y-56959885D02*
X113657143Y-56659885D01*
X113657143Y-56659885D02*
X113628571Y-56702742D01*
X113628571Y-56702742D02*
X113600000Y-56731314D01*
X113600000Y-56731314D02*
X113571428Y-56745600D01*
X113857142Y-56688457D02*
X113871428Y-56674171D01*
X113871428Y-56674171D02*
X113900000Y-56659885D01*
X113900000Y-56659885D02*
X113971428Y-56659885D01*
X113971428Y-56659885D02*
X114000000Y-56674171D01*
X114000000Y-56674171D02*
X114014285Y-56688457D01*
X114014285Y-56688457D02*
X114028571Y-56717028D01*
X114028571Y-56717028D02*
X114028571Y-56745600D01*
X114028571Y-56745600D02*
X114014285Y-56788457D01*
X114014285Y-56788457D02*
X113842857Y-56959885D01*
X113842857Y-56959885D02*
X114028571Y-56959885D01*
X96560500Y-82550814D02*
X96546214Y-82565100D01*
X96546214Y-82565100D02*
X96503357Y-82579385D01*
X96503357Y-82579385D02*
X96474785Y-82579385D01*
X96474785Y-82579385D02*
X96431928Y-82565100D01*
X96431928Y-82565100D02*
X96403357Y-82536528D01*
X96403357Y-82536528D02*
X96389071Y-82507957D01*
X96389071Y-82507957D02*
X96374785Y-82450814D01*
X96374785Y-82450814D02*
X96374785Y-82407957D01*
X96374785Y-82407957D02*
X96389071Y-82350814D01*
X96389071Y-82350814D02*
X96403357Y-82322242D01*
X96403357Y-82322242D02*
X96431928Y-82293671D01*
X96431928Y-82293671D02*
X96474785Y-82279385D01*
X96474785Y-82279385D02*
X96503357Y-82279385D01*
X96503357Y-82279385D02*
X96546214Y-82293671D01*
X96546214Y-82293671D02*
X96560500Y-82307957D01*
X96846214Y-82579385D02*
X96674785Y-82579385D01*
X96760500Y-82579385D02*
X96760500Y-82279385D01*
X96760500Y-82279385D02*
X96731928Y-82322242D01*
X96731928Y-82322242D02*
X96703357Y-82350814D01*
X96703357Y-82350814D02*
X96674785Y-82365100D01*
X111515000Y-61359885D02*
X111415000Y-61217028D01*
X111343571Y-61359885D02*
X111343571Y-61059885D01*
X111343571Y-61059885D02*
X111457857Y-61059885D01*
X111457857Y-61059885D02*
X111486428Y-61074171D01*
X111486428Y-61074171D02*
X111500714Y-61088457D01*
X111500714Y-61088457D02*
X111515000Y-61117028D01*
X111515000Y-61117028D02*
X111515000Y-61159885D01*
X111515000Y-61159885D02*
X111500714Y-61188457D01*
X111500714Y-61188457D02*
X111486428Y-61202742D01*
X111486428Y-61202742D02*
X111457857Y-61217028D01*
X111457857Y-61217028D02*
X111343571Y-61217028D01*
X111686428Y-61188457D02*
X111657857Y-61174171D01*
X111657857Y-61174171D02*
X111643571Y-61159885D01*
X111643571Y-61159885D02*
X111629285Y-61131314D01*
X111629285Y-61131314D02*
X111629285Y-61117028D01*
X111629285Y-61117028D02*
X111643571Y-61088457D01*
X111643571Y-61088457D02*
X111657857Y-61074171D01*
X111657857Y-61074171D02*
X111686428Y-61059885D01*
X111686428Y-61059885D02*
X111743571Y-61059885D01*
X111743571Y-61059885D02*
X111772143Y-61074171D01*
X111772143Y-61074171D02*
X111786428Y-61088457D01*
X111786428Y-61088457D02*
X111800714Y-61117028D01*
X111800714Y-61117028D02*
X111800714Y-61131314D01*
X111800714Y-61131314D02*
X111786428Y-61159885D01*
X111786428Y-61159885D02*
X111772143Y-61174171D01*
X111772143Y-61174171D02*
X111743571Y-61188457D01*
X111743571Y-61188457D02*
X111686428Y-61188457D01*
X111686428Y-61188457D02*
X111657857Y-61202742D01*
X111657857Y-61202742D02*
X111643571Y-61217028D01*
X111643571Y-61217028D02*
X111629285Y-61245600D01*
X111629285Y-61245600D02*
X111629285Y-61302742D01*
X111629285Y-61302742D02*
X111643571Y-61331314D01*
X111643571Y-61331314D02*
X111657857Y-61345600D01*
X111657857Y-61345600D02*
X111686428Y-61359885D01*
X111686428Y-61359885D02*
X111743571Y-61359885D01*
X111743571Y-61359885D02*
X111772143Y-61345600D01*
X111772143Y-61345600D02*
X111786428Y-61331314D01*
X111786428Y-61331314D02*
X111800714Y-61302742D01*
X111800714Y-61302742D02*
X111800714Y-61245600D01*
X111800714Y-61245600D02*
X111786428Y-61217028D01*
X111786428Y-61217028D02*
X111772143Y-61202742D01*
X111772143Y-61202742D02*
X111743571Y-61188457D01*
X96410500Y-75225814D02*
X96396214Y-75240100D01*
X96396214Y-75240100D02*
X96353357Y-75254385D01*
X96353357Y-75254385D02*
X96324785Y-75254385D01*
X96324785Y-75254385D02*
X96281928Y-75240100D01*
X96281928Y-75240100D02*
X96253357Y-75211528D01*
X96253357Y-75211528D02*
X96239071Y-75182957D01*
X96239071Y-75182957D02*
X96224785Y-75125814D01*
X96224785Y-75125814D02*
X96224785Y-75082957D01*
X96224785Y-75082957D02*
X96239071Y-75025814D01*
X96239071Y-75025814D02*
X96253357Y-74997242D01*
X96253357Y-74997242D02*
X96281928Y-74968671D01*
X96281928Y-74968671D02*
X96324785Y-74954385D01*
X96324785Y-74954385D02*
X96353357Y-74954385D01*
X96353357Y-74954385D02*
X96396214Y-74968671D01*
X96396214Y-74968671D02*
X96410500Y-74982957D01*
X96667643Y-75054385D02*
X96667643Y-75254385D01*
X96596214Y-74940100D02*
X96524785Y-75154385D01*
X96524785Y-75154385D02*
X96710500Y-75154385D01*
X111610500Y-64104385D02*
X111510500Y-63961528D01*
X111439071Y-64104385D02*
X111439071Y-63804385D01*
X111439071Y-63804385D02*
X111553357Y-63804385D01*
X111553357Y-63804385D02*
X111581928Y-63818671D01*
X111581928Y-63818671D02*
X111596214Y-63832957D01*
X111596214Y-63832957D02*
X111610500Y-63861528D01*
X111610500Y-63861528D02*
X111610500Y-63904385D01*
X111610500Y-63904385D02*
X111596214Y-63932957D01*
X111596214Y-63932957D02*
X111581928Y-63947242D01*
X111581928Y-63947242D02*
X111553357Y-63961528D01*
X111553357Y-63961528D02*
X111439071Y-63961528D01*
X111753357Y-64104385D02*
X111810500Y-64104385D01*
X111810500Y-64104385D02*
X111839071Y-64090100D01*
X111839071Y-64090100D02*
X111853357Y-64075814D01*
X111853357Y-64075814D02*
X111881928Y-64032957D01*
X111881928Y-64032957D02*
X111896214Y-63975814D01*
X111896214Y-63975814D02*
X111896214Y-63861528D01*
X111896214Y-63861528D02*
X111881928Y-63832957D01*
X111881928Y-63832957D02*
X111867643Y-63818671D01*
X111867643Y-63818671D02*
X111839071Y-63804385D01*
X111839071Y-63804385D02*
X111781928Y-63804385D01*
X111781928Y-63804385D02*
X111753357Y-63818671D01*
X111753357Y-63818671D02*
X111739071Y-63832957D01*
X111739071Y-63832957D02*
X111724785Y-63861528D01*
X111724785Y-63861528D02*
X111724785Y-63932957D01*
X111724785Y-63932957D02*
X111739071Y-63961528D01*
X111739071Y-63961528D02*
X111753357Y-63975814D01*
X111753357Y-63975814D02*
X111781928Y-63990100D01*
X111781928Y-63990100D02*
X111839071Y-63990100D01*
X111839071Y-63990100D02*
X111867643Y-63975814D01*
X111867643Y-63975814D02*
X111881928Y-63961528D01*
X111881928Y-63961528D02*
X111896214Y-63932957D01*
X94860500Y-75225814D02*
X94846214Y-75240100D01*
X94846214Y-75240100D02*
X94803357Y-75254385D01*
X94803357Y-75254385D02*
X94774785Y-75254385D01*
X94774785Y-75254385D02*
X94731928Y-75240100D01*
X94731928Y-75240100D02*
X94703357Y-75211528D01*
X94703357Y-75211528D02*
X94689071Y-75182957D01*
X94689071Y-75182957D02*
X94674785Y-75125814D01*
X94674785Y-75125814D02*
X94674785Y-75082957D01*
X94674785Y-75082957D02*
X94689071Y-75025814D01*
X94689071Y-75025814D02*
X94703357Y-74997242D01*
X94703357Y-74997242D02*
X94731928Y-74968671D01*
X94731928Y-74968671D02*
X94774785Y-74954385D01*
X94774785Y-74954385D02*
X94803357Y-74954385D01*
X94803357Y-74954385D02*
X94846214Y-74968671D01*
X94846214Y-74968671D02*
X94860500Y-74982957D01*
X94974785Y-74982957D02*
X94989071Y-74968671D01*
X94989071Y-74968671D02*
X95017643Y-74954385D01*
X95017643Y-74954385D02*
X95089071Y-74954385D01*
X95089071Y-74954385D02*
X95117643Y-74968671D01*
X95117643Y-74968671D02*
X95131928Y-74982957D01*
X95131928Y-74982957D02*
X95146214Y-75011528D01*
X95146214Y-75011528D02*
X95146214Y-75040100D01*
X95146214Y-75040100D02*
X95131928Y-75082957D01*
X95131928Y-75082957D02*
X94960500Y-75254385D01*
X94960500Y-75254385D02*
X95146214Y-75254385D01*
X95122405Y-80475647D02*
X94931929Y-80475647D01*
X94931929Y-80475647D02*
X94931929Y-80075647D01*
X95198596Y-80075647D02*
X95331929Y-80475647D01*
X95331929Y-80475647D02*
X95465262Y-80075647D01*
X95808119Y-80475647D02*
X95579548Y-80475647D01*
X95693834Y-80475647D02*
X95693834Y-80075647D01*
X95693834Y-80075647D02*
X95655738Y-80132790D01*
X95655738Y-80132790D02*
X95617643Y-80170885D01*
X95617643Y-80170885D02*
X95579548Y-80189933D01*
X98060500Y-82550814D02*
X98046214Y-82565100D01*
X98046214Y-82565100D02*
X98003357Y-82579385D01*
X98003357Y-82579385D02*
X97974785Y-82579385D01*
X97974785Y-82579385D02*
X97931928Y-82565100D01*
X97931928Y-82565100D02*
X97903357Y-82536528D01*
X97903357Y-82536528D02*
X97889071Y-82507957D01*
X97889071Y-82507957D02*
X97874785Y-82450814D01*
X97874785Y-82450814D02*
X97874785Y-82407957D01*
X97874785Y-82407957D02*
X97889071Y-82350814D01*
X97889071Y-82350814D02*
X97903357Y-82322242D01*
X97903357Y-82322242D02*
X97931928Y-82293671D01*
X97931928Y-82293671D02*
X97974785Y-82279385D01*
X97974785Y-82279385D02*
X98003357Y-82279385D01*
X98003357Y-82279385D02*
X98046214Y-82293671D01*
X98046214Y-82293671D02*
X98060500Y-82307957D01*
X98160500Y-82279385D02*
X98346214Y-82279385D01*
X98346214Y-82279385D02*
X98246214Y-82393671D01*
X98246214Y-82393671D02*
X98289071Y-82393671D01*
X98289071Y-82393671D02*
X98317643Y-82407957D01*
X98317643Y-82407957D02*
X98331928Y-82422242D01*
X98331928Y-82422242D02*
X98346214Y-82450814D01*
X98346214Y-82450814D02*
X98346214Y-82522242D01*
X98346214Y-82522242D02*
X98331928Y-82550814D01*
X98331928Y-82550814D02*
X98317643Y-82565100D01*
X98317643Y-82565100D02*
X98289071Y-82579385D01*
X98289071Y-82579385D02*
X98203357Y-82579385D01*
X98203357Y-82579385D02*
X98174785Y-82565100D01*
X98174785Y-82565100D02*
X98160500Y-82550814D01*
D10*
X116366609Y-61555050D02*
X116866609Y-61221717D01*
X116366609Y-61221717D02*
X116866609Y-61555050D01*
X92387800Y-69583472D02*
X92411609Y-69512044D01*
X92411609Y-69512044D02*
X92411609Y-69392996D01*
X92411609Y-69392996D02*
X92387800Y-69345377D01*
X92387800Y-69345377D02*
X92363990Y-69321568D01*
X92363990Y-69321568D02*
X92316371Y-69297758D01*
X92316371Y-69297758D02*
X92268752Y-69297758D01*
X92268752Y-69297758D02*
X92221133Y-69321568D01*
X92221133Y-69321568D02*
X92197323Y-69345377D01*
X92197323Y-69345377D02*
X92173514Y-69392996D01*
X92173514Y-69392996D02*
X92149704Y-69488234D01*
X92149704Y-69488234D02*
X92125895Y-69535853D01*
X92125895Y-69535853D02*
X92102085Y-69559663D01*
X92102085Y-69559663D02*
X92054466Y-69583472D01*
X92054466Y-69583472D02*
X92006847Y-69583472D01*
X92006847Y-69583472D02*
X91959228Y-69559663D01*
X91959228Y-69559663D02*
X91935419Y-69535853D01*
X91935419Y-69535853D02*
X91911609Y-69488234D01*
X91911609Y-69488234D02*
X91911609Y-69369187D01*
X91911609Y-69369187D02*
X91935419Y-69297758D01*
X92363990Y-68797759D02*
X92387800Y-68821568D01*
X92387800Y-68821568D02*
X92411609Y-68892997D01*
X92411609Y-68892997D02*
X92411609Y-68940616D01*
X92411609Y-68940616D02*
X92387800Y-69012044D01*
X92387800Y-69012044D02*
X92340180Y-69059663D01*
X92340180Y-69059663D02*
X92292561Y-69083473D01*
X92292561Y-69083473D02*
X92197323Y-69107282D01*
X92197323Y-69107282D02*
X92125895Y-69107282D01*
X92125895Y-69107282D02*
X92030657Y-69083473D01*
X92030657Y-69083473D02*
X91983038Y-69059663D01*
X91983038Y-69059663D02*
X91935419Y-69012044D01*
X91935419Y-69012044D02*
X91911609Y-68940616D01*
X91911609Y-68940616D02*
X91911609Y-68892997D01*
X91911609Y-68892997D02*
X91935419Y-68821568D01*
X91935419Y-68821568D02*
X91959228Y-68797759D01*
X92411609Y-68345378D02*
X92411609Y-68583473D01*
X92411609Y-68583473D02*
X91911609Y-68583473D01*
X116854609Y-69604336D02*
X116354609Y-69604336D01*
X116354609Y-69271003D02*
X116354609Y-69175765D01*
X116354609Y-69175765D02*
X116378419Y-69128146D01*
X116378419Y-69128146D02*
X116426038Y-69080527D01*
X116426038Y-69080527D02*
X116521276Y-69056717D01*
X116521276Y-69056717D02*
X116687942Y-69056717D01*
X116687942Y-69056717D02*
X116783180Y-69080527D01*
X116783180Y-69080527D02*
X116830800Y-69128146D01*
X116830800Y-69128146D02*
X116854609Y-69175765D01*
X116854609Y-69175765D02*
X116854609Y-69271003D01*
X116854609Y-69271003D02*
X116830800Y-69318622D01*
X116830800Y-69318622D02*
X116783180Y-69366241D01*
X116783180Y-69366241D02*
X116687942Y-69390050D01*
X116687942Y-69390050D02*
X116521276Y-69390050D01*
X116521276Y-69390050D02*
X116426038Y-69366241D01*
X116426038Y-69366241D02*
X116378419Y-69318622D01*
X116378419Y-69318622D02*
X116354609Y-69271003D01*
X116402228Y-68866240D02*
X116378419Y-68842431D01*
X116378419Y-68842431D02*
X116354609Y-68794812D01*
X116354609Y-68794812D02*
X116354609Y-68675764D01*
X116354609Y-68675764D02*
X116378419Y-68628145D01*
X116378419Y-68628145D02*
X116402228Y-68604336D01*
X116402228Y-68604336D02*
X116449847Y-68580526D01*
X116449847Y-68580526D02*
X116497466Y-68580526D01*
X116497466Y-68580526D02*
X116568895Y-68604336D01*
X116568895Y-68604336D02*
X116854609Y-68890050D01*
X116854609Y-68890050D02*
X116854609Y-68580526D01*
X92387800Y-72033472D02*
X92411609Y-71962044D01*
X92411609Y-71962044D02*
X92411609Y-71842996D01*
X92411609Y-71842996D02*
X92387800Y-71795377D01*
X92387800Y-71795377D02*
X92363990Y-71771568D01*
X92363990Y-71771568D02*
X92316371Y-71747758D01*
X92316371Y-71747758D02*
X92268752Y-71747758D01*
X92268752Y-71747758D02*
X92221133Y-71771568D01*
X92221133Y-71771568D02*
X92197323Y-71795377D01*
X92197323Y-71795377D02*
X92173514Y-71842996D01*
X92173514Y-71842996D02*
X92149704Y-71938234D01*
X92149704Y-71938234D02*
X92125895Y-71985853D01*
X92125895Y-71985853D02*
X92102085Y-72009663D01*
X92102085Y-72009663D02*
X92054466Y-72033472D01*
X92054466Y-72033472D02*
X92006847Y-72033472D01*
X92006847Y-72033472D02*
X91959228Y-72009663D01*
X91959228Y-72009663D02*
X91935419Y-71985853D01*
X91935419Y-71985853D02*
X91911609Y-71938234D01*
X91911609Y-71938234D02*
X91911609Y-71819187D01*
X91911609Y-71819187D02*
X91935419Y-71747758D01*
X92411609Y-71533473D02*
X91911609Y-71533473D01*
X91911609Y-71533473D02*
X91911609Y-71414425D01*
X91911609Y-71414425D02*
X91935419Y-71342997D01*
X91935419Y-71342997D02*
X91983038Y-71295378D01*
X91983038Y-71295378D02*
X92030657Y-71271568D01*
X92030657Y-71271568D02*
X92125895Y-71247759D01*
X92125895Y-71247759D02*
X92197323Y-71247759D01*
X92197323Y-71247759D02*
X92292561Y-71271568D01*
X92292561Y-71271568D02*
X92340180Y-71295378D01*
X92340180Y-71295378D02*
X92387800Y-71342997D01*
X92387800Y-71342997D02*
X92411609Y-71414425D01*
X92411609Y-71414425D02*
X92411609Y-71533473D01*
X92268752Y-71057282D02*
X92268752Y-70819187D01*
X92411609Y-71104901D02*
X91911609Y-70938235D01*
X91911609Y-70938235D02*
X92411609Y-70771568D01*
X116854609Y-72154336D02*
X116354609Y-72154336D01*
X116354609Y-71821003D02*
X116354609Y-71725765D01*
X116354609Y-71725765D02*
X116378419Y-71678146D01*
X116378419Y-71678146D02*
X116426038Y-71630527D01*
X116426038Y-71630527D02*
X116521276Y-71606717D01*
X116521276Y-71606717D02*
X116687942Y-71606717D01*
X116687942Y-71606717D02*
X116783180Y-71630527D01*
X116783180Y-71630527D02*
X116830800Y-71678146D01*
X116830800Y-71678146D02*
X116854609Y-71725765D01*
X116854609Y-71725765D02*
X116854609Y-71821003D01*
X116854609Y-71821003D02*
X116830800Y-71868622D01*
X116830800Y-71868622D02*
X116783180Y-71916241D01*
X116783180Y-71916241D02*
X116687942Y-71940050D01*
X116687942Y-71940050D02*
X116521276Y-71940050D01*
X116521276Y-71940050D02*
X116426038Y-71916241D01*
X116426038Y-71916241D02*
X116378419Y-71868622D01*
X116378419Y-71868622D02*
X116354609Y-71821003D01*
X116854609Y-71130526D02*
X116854609Y-71416240D01*
X116854609Y-71273383D02*
X116354609Y-71273383D01*
X116354609Y-71273383D02*
X116426038Y-71321002D01*
X116426038Y-71321002D02*
X116473657Y-71368621D01*
X116473657Y-71368621D02*
X116497466Y-71416240D01*
X116854609Y-64554336D02*
X116354609Y-64554336D01*
X116354609Y-64221003D02*
X116354609Y-64125765D01*
X116354609Y-64125765D02*
X116378419Y-64078146D01*
X116378419Y-64078146D02*
X116426038Y-64030527D01*
X116426038Y-64030527D02*
X116521276Y-64006717D01*
X116521276Y-64006717D02*
X116687942Y-64006717D01*
X116687942Y-64006717D02*
X116783180Y-64030527D01*
X116783180Y-64030527D02*
X116830800Y-64078146D01*
X116830800Y-64078146D02*
X116854609Y-64125765D01*
X116854609Y-64125765D02*
X116854609Y-64221003D01*
X116854609Y-64221003D02*
X116830800Y-64268622D01*
X116830800Y-64268622D02*
X116783180Y-64316241D01*
X116783180Y-64316241D02*
X116687942Y-64340050D01*
X116687942Y-64340050D02*
X116521276Y-64340050D01*
X116521276Y-64340050D02*
X116426038Y-64316241D01*
X116426038Y-64316241D02*
X116378419Y-64268622D01*
X116378419Y-64268622D02*
X116354609Y-64221003D01*
X116521276Y-63578145D02*
X116854609Y-63578145D01*
X116330800Y-63697193D02*
X116687942Y-63816240D01*
X116687942Y-63816240D02*
X116687942Y-63506717D01*
X116854609Y-67104336D02*
X116354609Y-67104336D01*
X116354609Y-66771003D02*
X116354609Y-66675765D01*
X116354609Y-66675765D02*
X116378419Y-66628146D01*
X116378419Y-66628146D02*
X116426038Y-66580527D01*
X116426038Y-66580527D02*
X116521276Y-66556717D01*
X116521276Y-66556717D02*
X116687942Y-66556717D01*
X116687942Y-66556717D02*
X116783180Y-66580527D01*
X116783180Y-66580527D02*
X116830800Y-66628146D01*
X116830800Y-66628146D02*
X116854609Y-66675765D01*
X116854609Y-66675765D02*
X116854609Y-66771003D01*
X116854609Y-66771003D02*
X116830800Y-66818622D01*
X116830800Y-66818622D02*
X116783180Y-66866241D01*
X116783180Y-66866241D02*
X116687942Y-66890050D01*
X116687942Y-66890050D02*
X116521276Y-66890050D01*
X116521276Y-66890050D02*
X116426038Y-66866241D01*
X116426038Y-66866241D02*
X116378419Y-66818622D01*
X116378419Y-66818622D02*
X116354609Y-66771003D01*
X116354609Y-66390050D02*
X116354609Y-66080526D01*
X116354609Y-66080526D02*
X116545085Y-66247193D01*
X116545085Y-66247193D02*
X116545085Y-66175764D01*
X116545085Y-66175764D02*
X116568895Y-66128145D01*
X116568895Y-66128145D02*
X116592704Y-66104336D01*
X116592704Y-66104336D02*
X116640323Y-66080526D01*
X116640323Y-66080526D02*
X116759371Y-66080526D01*
X116759371Y-66080526D02*
X116806990Y-66104336D01*
X116806990Y-66104336D02*
X116830800Y-66128145D01*
X116830800Y-66128145D02*
X116854609Y-66175764D01*
X116854609Y-66175764D02*
X116854609Y-66318621D01*
X116854609Y-66318621D02*
X116830800Y-66366240D01*
X116830800Y-66366240D02*
X116806990Y-66390050D01*
X92387800Y-59433472D02*
X92411609Y-59362044D01*
X92411609Y-59362044D02*
X92411609Y-59242996D01*
X92411609Y-59242996D02*
X92387800Y-59195377D01*
X92387800Y-59195377D02*
X92363990Y-59171568D01*
X92363990Y-59171568D02*
X92316371Y-59147758D01*
X92316371Y-59147758D02*
X92268752Y-59147758D01*
X92268752Y-59147758D02*
X92221133Y-59171568D01*
X92221133Y-59171568D02*
X92197323Y-59195377D01*
X92197323Y-59195377D02*
X92173514Y-59242996D01*
X92173514Y-59242996D02*
X92149704Y-59338234D01*
X92149704Y-59338234D02*
X92125895Y-59385853D01*
X92125895Y-59385853D02*
X92102085Y-59409663D01*
X92102085Y-59409663D02*
X92054466Y-59433472D01*
X92054466Y-59433472D02*
X92006847Y-59433472D01*
X92006847Y-59433472D02*
X91959228Y-59409663D01*
X91959228Y-59409663D02*
X91935419Y-59385853D01*
X91935419Y-59385853D02*
X91911609Y-59338234D01*
X91911609Y-59338234D02*
X91911609Y-59219187D01*
X91911609Y-59219187D02*
X91935419Y-59147758D01*
X92363990Y-58647759D02*
X92387800Y-58671568D01*
X92387800Y-58671568D02*
X92411609Y-58742997D01*
X92411609Y-58742997D02*
X92411609Y-58790616D01*
X92411609Y-58790616D02*
X92387800Y-58862044D01*
X92387800Y-58862044D02*
X92340180Y-58909663D01*
X92340180Y-58909663D02*
X92292561Y-58933473D01*
X92292561Y-58933473D02*
X92197323Y-58957282D01*
X92197323Y-58957282D02*
X92125895Y-58957282D01*
X92125895Y-58957282D02*
X92030657Y-58933473D01*
X92030657Y-58933473D02*
X91983038Y-58909663D01*
X91983038Y-58909663D02*
X91935419Y-58862044D01*
X91935419Y-58862044D02*
X91911609Y-58790616D01*
X91911609Y-58790616D02*
X91911609Y-58742997D01*
X91911609Y-58742997D02*
X91935419Y-58671568D01*
X91935419Y-58671568D02*
X91959228Y-58647759D01*
X92411609Y-58433473D02*
X91911609Y-58433473D01*
X92411609Y-58147759D02*
X92125895Y-58362044D01*
X91911609Y-58147759D02*
X92197323Y-58433473D01*
X92363990Y-66623949D02*
X92387800Y-66647758D01*
X92387800Y-66647758D02*
X92411609Y-66719187D01*
X92411609Y-66719187D02*
X92411609Y-66766806D01*
X92411609Y-66766806D02*
X92387800Y-66838234D01*
X92387800Y-66838234D02*
X92340180Y-66885853D01*
X92340180Y-66885853D02*
X92292561Y-66909663D01*
X92292561Y-66909663D02*
X92197323Y-66933472D01*
X92197323Y-66933472D02*
X92125895Y-66933472D01*
X92125895Y-66933472D02*
X92030657Y-66909663D01*
X92030657Y-66909663D02*
X91983038Y-66885853D01*
X91983038Y-66885853D02*
X91935419Y-66838234D01*
X91935419Y-66838234D02*
X91911609Y-66766806D01*
X91911609Y-66766806D02*
X91911609Y-66719187D01*
X91911609Y-66719187D02*
X91935419Y-66647758D01*
X91935419Y-66647758D02*
X91959228Y-66623949D01*
X92387800Y-66433472D02*
X92411609Y-66362044D01*
X92411609Y-66362044D02*
X92411609Y-66242996D01*
X92411609Y-66242996D02*
X92387800Y-66195377D01*
X92387800Y-66195377D02*
X92363990Y-66171568D01*
X92363990Y-66171568D02*
X92316371Y-66147758D01*
X92316371Y-66147758D02*
X92268752Y-66147758D01*
X92268752Y-66147758D02*
X92221133Y-66171568D01*
X92221133Y-66171568D02*
X92197323Y-66195377D01*
X92197323Y-66195377D02*
X92173514Y-66242996D01*
X92173514Y-66242996D02*
X92149704Y-66338234D01*
X92149704Y-66338234D02*
X92125895Y-66385853D01*
X92125895Y-66385853D02*
X92102085Y-66409663D01*
X92102085Y-66409663D02*
X92054466Y-66433472D01*
X92054466Y-66433472D02*
X92006847Y-66433472D01*
X92006847Y-66433472D02*
X91959228Y-66409663D01*
X91959228Y-66409663D02*
X91935419Y-66385853D01*
X91935419Y-66385853D02*
X91911609Y-66338234D01*
X91911609Y-66338234D02*
X91911609Y-66219187D01*
X91911609Y-66219187D02*
X91935419Y-66147758D01*
X92411609Y-62234663D02*
X91911609Y-62234663D01*
X91911609Y-62234663D02*
X92268752Y-62067996D01*
X92268752Y-62067996D02*
X91911609Y-61901330D01*
X91911609Y-61901330D02*
X92411609Y-61901330D01*
X91911609Y-61567996D02*
X91911609Y-61472758D01*
X91911609Y-61472758D02*
X91935419Y-61425139D01*
X91935419Y-61425139D02*
X91983038Y-61377520D01*
X91983038Y-61377520D02*
X92078276Y-61353710D01*
X92078276Y-61353710D02*
X92244942Y-61353710D01*
X92244942Y-61353710D02*
X92340180Y-61377520D01*
X92340180Y-61377520D02*
X92387800Y-61425139D01*
X92387800Y-61425139D02*
X92411609Y-61472758D01*
X92411609Y-61472758D02*
X92411609Y-61567996D01*
X92411609Y-61567996D02*
X92387800Y-61615615D01*
X92387800Y-61615615D02*
X92340180Y-61663234D01*
X92340180Y-61663234D02*
X92244942Y-61687043D01*
X92244942Y-61687043D02*
X92078276Y-61687043D01*
X92078276Y-61687043D02*
X91983038Y-61663234D01*
X91983038Y-61663234D02*
X91935419Y-61615615D01*
X91935419Y-61615615D02*
X91911609Y-61567996D01*
X92387800Y-61163233D02*
X92411609Y-61091805D01*
X92411609Y-61091805D02*
X92411609Y-60972757D01*
X92411609Y-60972757D02*
X92387800Y-60925138D01*
X92387800Y-60925138D02*
X92363990Y-60901329D01*
X92363990Y-60901329D02*
X92316371Y-60877519D01*
X92316371Y-60877519D02*
X92268752Y-60877519D01*
X92268752Y-60877519D02*
X92221133Y-60901329D01*
X92221133Y-60901329D02*
X92197323Y-60925138D01*
X92197323Y-60925138D02*
X92173514Y-60972757D01*
X92173514Y-60972757D02*
X92149704Y-61067995D01*
X92149704Y-61067995D02*
X92125895Y-61115614D01*
X92125895Y-61115614D02*
X92102085Y-61139424D01*
X92102085Y-61139424D02*
X92054466Y-61163233D01*
X92054466Y-61163233D02*
X92006847Y-61163233D01*
X92006847Y-61163233D02*
X91959228Y-61139424D01*
X91959228Y-61139424D02*
X91935419Y-61115614D01*
X91935419Y-61115614D02*
X91911609Y-61067995D01*
X91911609Y-61067995D02*
X91911609Y-60948948D01*
X91911609Y-60948948D02*
X91935419Y-60877519D01*
X92411609Y-60663234D02*
X91911609Y-60663234D01*
X92411609Y-64784663D02*
X91911609Y-64784663D01*
X91911609Y-64784663D02*
X92268752Y-64617996D01*
X92268752Y-64617996D02*
X91911609Y-64451330D01*
X91911609Y-64451330D02*
X92411609Y-64451330D01*
X92411609Y-64213234D02*
X91911609Y-64213234D01*
X92387800Y-63998948D02*
X92411609Y-63927520D01*
X92411609Y-63927520D02*
X92411609Y-63808472D01*
X92411609Y-63808472D02*
X92387800Y-63760853D01*
X92387800Y-63760853D02*
X92363990Y-63737044D01*
X92363990Y-63737044D02*
X92316371Y-63713234D01*
X92316371Y-63713234D02*
X92268752Y-63713234D01*
X92268752Y-63713234D02*
X92221133Y-63737044D01*
X92221133Y-63737044D02*
X92197323Y-63760853D01*
X92197323Y-63760853D02*
X92173514Y-63808472D01*
X92173514Y-63808472D02*
X92149704Y-63903710D01*
X92149704Y-63903710D02*
X92125895Y-63951329D01*
X92125895Y-63951329D02*
X92102085Y-63975139D01*
X92102085Y-63975139D02*
X92054466Y-63998948D01*
X92054466Y-63998948D02*
X92006847Y-63998948D01*
X92006847Y-63998948D02*
X91959228Y-63975139D01*
X91959228Y-63975139D02*
X91935419Y-63951329D01*
X91935419Y-63951329D02*
X91911609Y-63903710D01*
X91911609Y-63903710D02*
X91911609Y-63784663D01*
X91911609Y-63784663D02*
X91935419Y-63713234D01*
X91911609Y-63403711D02*
X91911609Y-63308473D01*
X91911609Y-63308473D02*
X91935419Y-63260854D01*
X91935419Y-63260854D02*
X91983038Y-63213235D01*
X91983038Y-63213235D02*
X92078276Y-63189425D01*
X92078276Y-63189425D02*
X92244942Y-63189425D01*
X92244942Y-63189425D02*
X92340180Y-63213235D01*
X92340180Y-63213235D02*
X92387800Y-63260854D01*
X92387800Y-63260854D02*
X92411609Y-63308473D01*
X92411609Y-63308473D02*
X92411609Y-63403711D01*
X92411609Y-63403711D02*
X92387800Y-63451330D01*
X92387800Y-63451330D02*
X92340180Y-63498949D01*
X92340180Y-63498949D02*
X92244942Y-63522758D01*
X92244942Y-63522758D02*
X92078276Y-63522758D01*
X92078276Y-63522758D02*
X91983038Y-63498949D01*
X91983038Y-63498949D02*
X91935419Y-63451330D01*
X91935419Y-63451330D02*
X91911609Y-63403711D01*
D12*
X113407143Y-55481314D02*
X113392857Y-55495600D01*
X113392857Y-55495600D02*
X113350000Y-55509885D01*
X113350000Y-55509885D02*
X113321428Y-55509885D01*
X113321428Y-55509885D02*
X113278571Y-55495600D01*
X113278571Y-55495600D02*
X113250000Y-55467028D01*
X113250000Y-55467028D02*
X113235714Y-55438457D01*
X113235714Y-55438457D02*
X113221428Y-55381314D01*
X113221428Y-55381314D02*
X113221428Y-55338457D01*
X113221428Y-55338457D02*
X113235714Y-55281314D01*
X113235714Y-55281314D02*
X113250000Y-55252742D01*
X113250000Y-55252742D02*
X113278571Y-55224171D01*
X113278571Y-55224171D02*
X113321428Y-55209885D01*
X113321428Y-55209885D02*
X113350000Y-55209885D01*
X113350000Y-55209885D02*
X113392857Y-55224171D01*
X113392857Y-55224171D02*
X113407143Y-55238457D01*
X113692857Y-55509885D02*
X113521428Y-55509885D01*
X113607143Y-55509885D02*
X113607143Y-55209885D01*
X113607143Y-55209885D02*
X113578571Y-55252742D01*
X113578571Y-55252742D02*
X113550000Y-55281314D01*
X113550000Y-55281314D02*
X113521428Y-55295600D01*
X113792857Y-55209885D02*
X113978571Y-55209885D01*
X113978571Y-55209885D02*
X113878571Y-55324171D01*
X113878571Y-55324171D02*
X113921428Y-55324171D01*
X113921428Y-55324171D02*
X113950000Y-55338457D01*
X113950000Y-55338457D02*
X113964285Y-55352742D01*
X113964285Y-55352742D02*
X113978571Y-55381314D01*
X113978571Y-55381314D02*
X113978571Y-55452742D01*
X113978571Y-55452742D02*
X113964285Y-55481314D01*
X113964285Y-55481314D02*
X113950000Y-55495600D01*
X113950000Y-55495600D02*
X113921428Y-55509885D01*
X113921428Y-55509885D02*
X113835714Y-55509885D01*
X113835714Y-55509885D02*
X113807142Y-55495600D01*
X113807142Y-55495600D02*
X113792857Y-55481314D01*
D13*
X104209547Y-57559309D02*
X104209547Y-57964071D01*
X104209547Y-57964071D02*
X104233357Y-58011690D01*
X104233357Y-58011690D02*
X104257166Y-58035500D01*
X104257166Y-58035500D02*
X104304785Y-58059309D01*
X104304785Y-58059309D02*
X104400023Y-58059309D01*
X104400023Y-58059309D02*
X104447642Y-58035500D01*
X104447642Y-58035500D02*
X104471452Y-58011690D01*
X104471452Y-58011690D02*
X104495261Y-57964071D01*
X104495261Y-57964071D02*
X104495261Y-57559309D01*
X104995262Y-58059309D02*
X104709548Y-58059309D01*
X104852405Y-58059309D02*
X104852405Y-57559309D01*
X104852405Y-57559309D02*
X104804786Y-57630738D01*
X104804786Y-57630738D02*
X104757167Y-57678357D01*
X104757167Y-57678357D02*
X104709548Y-57702166D01*
D12*
X104970385Y-70119499D02*
X104827528Y-70219499D01*
X104970385Y-70290928D02*
X104670385Y-70290928D01*
X104670385Y-70290928D02*
X104670385Y-70176642D01*
X104670385Y-70176642D02*
X104684671Y-70148071D01*
X104684671Y-70148071D02*
X104698957Y-70133785D01*
X104698957Y-70133785D02*
X104727528Y-70119499D01*
X104727528Y-70119499D02*
X104770385Y-70119499D01*
X104770385Y-70119499D02*
X104798957Y-70133785D01*
X104798957Y-70133785D02*
X104813242Y-70148071D01*
X104813242Y-70148071D02*
X104827528Y-70176642D01*
X104827528Y-70176642D02*
X104827528Y-70290928D01*
X104970385Y-69833785D02*
X104970385Y-70005214D01*
X104970385Y-69919499D02*
X104670385Y-69919499D01*
X104670385Y-69919499D02*
X104713242Y-69948071D01*
X104713242Y-69948071D02*
X104741814Y-69976642D01*
X104741814Y-69976642D02*
X104756100Y-70005214D01*
X111472143Y-60609885D02*
X111372143Y-60467028D01*
X111300714Y-60609885D02*
X111300714Y-60309885D01*
X111300714Y-60309885D02*
X111415000Y-60309885D01*
X111415000Y-60309885D02*
X111443571Y-60324171D01*
X111443571Y-60324171D02*
X111457857Y-60338457D01*
X111457857Y-60338457D02*
X111472143Y-60367028D01*
X111472143Y-60367028D02*
X111472143Y-60409885D01*
X111472143Y-60409885D02*
X111457857Y-60438457D01*
X111457857Y-60438457D02*
X111443571Y-60452742D01*
X111443571Y-60452742D02*
X111415000Y-60467028D01*
X111415000Y-60467028D02*
X111300714Y-60467028D01*
X111757857Y-60609885D02*
X111586428Y-60609885D01*
X111672143Y-60609885D02*
X111672143Y-60309885D01*
X111672143Y-60309885D02*
X111643571Y-60352742D01*
X111643571Y-60352742D02*
X111615000Y-60381314D01*
X111615000Y-60381314D02*
X111586428Y-60395600D01*
X111943571Y-60309885D02*
X111972142Y-60309885D01*
X111972142Y-60309885D02*
X112000714Y-60324171D01*
X112000714Y-60324171D02*
X112015000Y-60338457D01*
X112015000Y-60338457D02*
X112029285Y-60367028D01*
X112029285Y-60367028D02*
X112043571Y-60424171D01*
X112043571Y-60424171D02*
X112043571Y-60495600D01*
X112043571Y-60495600D02*
X112029285Y-60552742D01*
X112029285Y-60552742D02*
X112015000Y-60581314D01*
X112015000Y-60581314D02*
X112000714Y-60595600D01*
X112000714Y-60595600D02*
X111972142Y-60609885D01*
X111972142Y-60609885D02*
X111943571Y-60609885D01*
X111943571Y-60609885D02*
X111915000Y-60595600D01*
X111915000Y-60595600D02*
X111900714Y-60581314D01*
X111900714Y-60581314D02*
X111886428Y-60552742D01*
X111886428Y-60552742D02*
X111872142Y-60495600D01*
X111872142Y-60495600D02*
X111872142Y-60424171D01*
X111872142Y-60424171D02*
X111886428Y-60367028D01*
X111886428Y-60367028D02*
X111900714Y-60338457D01*
X111900714Y-60338457D02*
X111915000Y-60324171D01*
X111915000Y-60324171D02*
X111943571Y-60309885D01*
X111617643Y-63154385D02*
X111517643Y-63011528D01*
X111446214Y-63154385D02*
X111446214Y-62854385D01*
X111446214Y-62854385D02*
X111560500Y-62854385D01*
X111560500Y-62854385D02*
X111589071Y-62868671D01*
X111589071Y-62868671D02*
X111603357Y-62882957D01*
X111603357Y-62882957D02*
X111617643Y-62911528D01*
X111617643Y-62911528D02*
X111617643Y-62954385D01*
X111617643Y-62954385D02*
X111603357Y-62982957D01*
X111603357Y-62982957D02*
X111589071Y-62997242D01*
X111589071Y-62997242D02*
X111560500Y-63011528D01*
X111560500Y-63011528D02*
X111446214Y-63011528D01*
X111903357Y-63154385D02*
X111731928Y-63154385D01*
X111817643Y-63154385D02*
X111817643Y-62854385D01*
X111817643Y-62854385D02*
X111789071Y-62897242D01*
X111789071Y-62897242D02*
X111760500Y-62925814D01*
X111760500Y-62925814D02*
X111731928Y-62940100D01*
X112189071Y-63154385D02*
X112017642Y-63154385D01*
X112103357Y-63154385D02*
X112103357Y-62854385D01*
X112103357Y-62854385D02*
X112074785Y-62897242D01*
X112074785Y-62897242D02*
X112046214Y-62925814D01*
X112046214Y-62925814D02*
X112017642Y-62940100D01*
D14*
%TO.C,C15*%
X111513748Y-52840000D02*
X112036252Y-52840000D01*
X111513748Y-54310000D02*
X112036252Y-54310000D01*
%TO.C,R3*%
X99833000Y-80351758D02*
X99833000Y-79877242D01*
X98788000Y-80351758D02*
X98788000Y-79877242D01*
%TO.C,R2*%
X101358000Y-80351758D02*
X101358000Y-79877242D01*
X100313000Y-80351758D02*
X100313000Y-79877242D01*
%TO.C,C7*%
X106557420Y-66834500D02*
X106838580Y-66834500D01*
X106557420Y-67854500D02*
X106838580Y-67854500D01*
%TO.C,C6*%
X114070500Y-62753920D02*
X114070500Y-63035080D01*
X113050500Y-62753920D02*
X113050500Y-63035080D01*
%TO.C,C5*%
X115595500Y-62753920D02*
X115595500Y-63035080D01*
X114575500Y-62753920D02*
X114575500Y-63035080D01*
D15*
%TO.C,TP3*%
X98250000Y-64800000D02*
G75*
G03*
X98250000Y-64800000I-700000J0D01*
G01*
%TO.C,TP2*%
X103750000Y-75119500D02*
G75*
G03*
X103750000Y-75119500I-700000J0D01*
G01*
%TO.C,TP8*%
X103625000Y-67725000D02*
G75*
G03*
X103625000Y-67725000I-700000J0D01*
G01*
%TO.C,TP9*%
X113025000Y-65250000D02*
G75*
G03*
X113025000Y-65250000I-700000J0D01*
G01*
%TO.C,TP7*%
X99950000Y-64800000D02*
G75*
G03*
X99950000Y-64800000I-700000J0D01*
G01*
%TO.C,TP1*%
X103775000Y-77525000D02*
G75*
G03*
X103775000Y-77525000I-700000J0D01*
G01*
%TO.C,TP6*%
X110010500Y-69244500D02*
G75*
G03*
X110010500Y-69244500I-700000J0D01*
G01*
%TO.C,TP4*%
X96475000Y-64800000D02*
G75*
G03*
X96475000Y-64800000I-700000J0D01*
G01*
D14*
%TO.C,D1*%
X114160500Y-67809500D02*
X112760500Y-67809500D01*
X112760500Y-70129500D02*
X114860500Y-70129500D01*
%TO.C,C12*%
X111546920Y-57360000D02*
X111828080Y-57360000D01*
X111546920Y-56340000D02*
X111828080Y-56340000D01*
%TO.C,C1*%
X97120500Y-83928920D02*
X97120500Y-84210080D01*
X96100500Y-83928920D02*
X96100500Y-84210080D01*
%TO.C,G701*%
G36*
X101143937Y-70318749D02*
G01*
X101155091Y-70323837D01*
X101172259Y-70332892D01*
X101177476Y-70335709D01*
X101194894Y-70345317D01*
X101208647Y-70353266D01*
X101216938Y-70358495D01*
X101218547Y-70359919D01*
X101215616Y-70363767D01*
X101207275Y-70374081D01*
X101194198Y-70390049D01*
X101177061Y-70410859D01*
X101156539Y-70435699D01*
X101133307Y-70463759D01*
X101108041Y-70494226D01*
X101081416Y-70526288D01*
X101054107Y-70559133D01*
X101026790Y-70591951D01*
X101000139Y-70623929D01*
X100974831Y-70654255D01*
X100951539Y-70682118D01*
X100930941Y-70706706D01*
X100913711Y-70727207D01*
X100900523Y-70742810D01*
X100892055Y-70752703D01*
X100888982Y-70756075D01*
X100885662Y-70752714D01*
X100877328Y-70743839D01*
X100865383Y-70730950D01*
X100856126Y-70720892D01*
X100824039Y-70685939D01*
X100971776Y-70508425D01*
X101001437Y-70472814D01*
X101029455Y-70439232D01*
X101055201Y-70408429D01*
X101078047Y-70381153D01*
X101097364Y-70358154D01*
X101112524Y-70340181D01*
X101122900Y-70327983D01*
X101127861Y-70322309D01*
X101127959Y-70322207D01*
X101132232Y-70318441D01*
X101136938Y-70317119D01*
X101143937Y-70318749D01*
G37*
G36*
X101683703Y-69254222D02*
G01*
X101728460Y-69259496D01*
X101756200Y-69265343D01*
X101815818Y-69284442D01*
X101869236Y-69309441D01*
X101918469Y-69341459D01*
X101965335Y-69381423D01*
X101998930Y-69416021D01*
X102026186Y-69450274D01*
X102049524Y-69487523D01*
X102066866Y-69521438D01*
X102090560Y-69581784D01*
X102105266Y-69642772D01*
X102111403Y-69703719D01*
X102109386Y-69763941D01*
X102099633Y-69822755D01*
X102082561Y-69879477D01*
X102058587Y-69933425D01*
X102028128Y-69983915D01*
X101991602Y-70030263D01*
X101949424Y-70071786D01*
X101902013Y-70107800D01*
X101849785Y-70137623D01*
X101793157Y-70160571D01*
X101732547Y-70175961D01*
X101668370Y-70183108D01*
X101662951Y-70183308D01*
X101638868Y-70183839D01*
X101616699Y-70183930D01*
X101599066Y-70183595D01*
X101589280Y-70182945D01*
X101548377Y-70175120D01*
X101504164Y-70162287D01*
X101459807Y-70145640D01*
X101418470Y-70126374D01*
X101383320Y-70105683D01*
X101381826Y-70104663D01*
X101335622Y-70067690D01*
X101293294Y-70023617D01*
X101256109Y-69974216D01*
X101225332Y-69921260D01*
X101202230Y-69866520D01*
X101195068Y-69843230D01*
X101181925Y-69777564D01*
X101178079Y-69712217D01*
X101183337Y-69647919D01*
X101197507Y-69585400D01*
X101220398Y-69525390D01*
X101251817Y-69468621D01*
X101291573Y-69415821D01*
X101313606Y-69392056D01*
X101364410Y-69346884D01*
X101418774Y-69310472D01*
X101477008Y-69282650D01*
X101539420Y-69263244D01*
X101548880Y-69261109D01*
X101590231Y-69254954D01*
X101636400Y-69252683D01*
X101683703Y-69254222D01*
G37*
G36*
X95722897Y-68131194D02*
G01*
X95917720Y-68157056D01*
X96108149Y-68185542D01*
X96293330Y-68216494D01*
X96472411Y-68249756D01*
X96644540Y-68285172D01*
X96808865Y-68322583D01*
X96936099Y-68354357D01*
X97174364Y-68421049D01*
X97409105Y-68496130D01*
X97640517Y-68579694D01*
X97868794Y-68671840D01*
X98094128Y-68772664D01*
X98316713Y-68882261D01*
X98536744Y-69000730D01*
X98754413Y-69128166D01*
X98969915Y-69264667D01*
X99183442Y-69410328D01*
X99395189Y-69565247D01*
X99456010Y-69611702D01*
X99521000Y-69661813D01*
X99498787Y-69682692D01*
X99482353Y-69698084D01*
X99464546Y-69714677D01*
X99455186Y-69723359D01*
X99433797Y-69743146D01*
X99402903Y-69716970D01*
X99332606Y-69659516D01*
X99255271Y-69600120D01*
X99172789Y-69540095D01*
X99087051Y-69480754D01*
X98999950Y-69423411D01*
X98913378Y-69369379D01*
X98839201Y-69325651D01*
X98803581Y-69305768D01*
X98761761Y-69283233D01*
X98715704Y-69259041D01*
X98667373Y-69234188D01*
X98618733Y-69209671D01*
X98571747Y-69186485D01*
X98528379Y-69165626D01*
X98490593Y-69148092D01*
X98478445Y-69142657D01*
X98405578Y-69111413D01*
X98327309Y-69079694D01*
X98242865Y-69047212D01*
X98151474Y-69013677D01*
X98052362Y-68978799D01*
X97944758Y-68942288D01*
X97938836Y-68940313D01*
X97717675Y-68870185D01*
X97500543Y-68808570D01*
X97287298Y-68755435D01*
X97077800Y-68710748D01*
X96871908Y-68674479D01*
X96669481Y-68646597D01*
X96579624Y-68636791D01*
X96447030Y-68625545D01*
X96315289Y-68618348D01*
X96185754Y-68615197D01*
X96059782Y-68616088D01*
X95938728Y-68621018D01*
X95823946Y-68629982D01*
X95745474Y-68638996D01*
X95723163Y-68641821D01*
X95703470Y-68644094D01*
X95688838Y-68645546D01*
X95682497Y-68645936D01*
X95671802Y-68645975D01*
X95671802Y-68124832D01*
X95722897Y-68131194D01*
G37*
G36*
X100302174Y-70363761D02*
G01*
X100309172Y-70368813D01*
X100319301Y-70377920D01*
X100333521Y-70391842D01*
X100352788Y-70411339D01*
X100368239Y-70427124D01*
X100529683Y-70597926D01*
X100688324Y-70777026D01*
X100843424Y-70963443D01*
X100994246Y-71156194D01*
X101140053Y-71354298D01*
X101280106Y-71556774D01*
X101413668Y-71762641D01*
X101540003Y-71970918D01*
X101579027Y-72038342D01*
X101714523Y-72284774D01*
X101841744Y-72535770D01*
X101960560Y-72790998D01*
X102070844Y-73050127D01*
X102172467Y-73312822D01*
X102265301Y-73578752D01*
X102349217Y-73847583D01*
X102424087Y-74118984D01*
X102489782Y-74392622D01*
X102492354Y-74404227D01*
X102500595Y-74442320D01*
X102509433Y-74484566D01*
X102518677Y-74529933D01*
X102528134Y-74577388D01*
X102537612Y-74625900D01*
X102546919Y-74674437D01*
X102555862Y-74721967D01*
X102564250Y-74767458D01*
X102571890Y-74809878D01*
X102578590Y-74848196D01*
X102584158Y-74881378D01*
X102588402Y-74908393D01*
X102591129Y-74928210D01*
X102592148Y-74939796D01*
X102592150Y-74940127D01*
X102591800Y-74941265D01*
X102590443Y-74942295D01*
X102587629Y-74943221D01*
X102582904Y-74944050D01*
X102575818Y-74944786D01*
X102565918Y-74945436D01*
X102552752Y-74946004D01*
X102535868Y-74946496D01*
X102514814Y-74946918D01*
X102489139Y-74947274D01*
X102458390Y-74947571D01*
X102422115Y-74947813D01*
X102379863Y-74948006D01*
X102331181Y-74948156D01*
X102275617Y-74948268D01*
X102212719Y-74948347D01*
X102142036Y-74948399D01*
X102063116Y-74948429D01*
X101975506Y-74948442D01*
X101898225Y-74948445D01*
X101799979Y-74948430D01*
X101710854Y-74948384D01*
X101630461Y-74948303D01*
X101558416Y-74948184D01*
X101494331Y-74948024D01*
X101437820Y-74947818D01*
X101388498Y-74947565D01*
X101345977Y-74947261D01*
X101309872Y-74946902D01*
X101279796Y-74946485D01*
X101255362Y-74946006D01*
X101236185Y-74945464D01*
X101221878Y-74944853D01*
X101212055Y-74944171D01*
X101206329Y-74943415D01*
X101204314Y-74942580D01*
X101204302Y-74942503D01*
X101205172Y-74935545D01*
X101207506Y-74921557D01*
X101210907Y-74902834D01*
X101213537Y-74889032D01*
X101234332Y-74771133D01*
X101252629Y-74645327D01*
X101268362Y-74512898D01*
X101281468Y-74375128D01*
X101291881Y-74233299D01*
X101299536Y-74088695D01*
X101304368Y-73942598D01*
X101306313Y-73796292D01*
X101305305Y-73651058D01*
X101301279Y-73508180D01*
X101294172Y-73368941D01*
X101292067Y-73337180D01*
X101272464Y-73110711D01*
X101245394Y-72889417D01*
X101210892Y-72673392D01*
X101168989Y-72462734D01*
X101119718Y-72257536D01*
X101063112Y-72057893D01*
X100999204Y-71863903D01*
X100928025Y-71675659D01*
X100849609Y-71493257D01*
X100763988Y-71316792D01*
X100671194Y-71146360D01*
X100571261Y-70982056D01*
X100464220Y-70823975D01*
X100405880Y-70744422D01*
X100367400Y-70694504D01*
X100323073Y-70639074D01*
X100273834Y-70579279D01*
X100220619Y-70516266D01*
X100202019Y-70494582D01*
X100185997Y-70475975D01*
X100233562Y-70424832D01*
X100251210Y-70405963D01*
X100267240Y-70389023D01*
X100280215Y-70375515D01*
X100288701Y-70366940D01*
X100290398Y-70365335D01*
X100293745Y-70362782D01*
X100297351Y-70362004D01*
X100302174Y-70363761D01*
G37*
G36*
X102501239Y-67977318D02*
G01*
X102532779Y-67981834D01*
X102543014Y-67984491D01*
X102575778Y-67996615D01*
X102600859Y-68011281D01*
X102620000Y-68029811D01*
X102634945Y-68053531D01*
X102635555Y-68054758D01*
X102643000Y-68071115D01*
X102647797Y-68085784D01*
X102650698Y-68102124D01*
X102652455Y-68123492D01*
X102652916Y-68132296D01*
X102651812Y-68185806D01*
X102643740Y-68245333D01*
X102628838Y-68310581D01*
X102607243Y-68381253D01*
X102579095Y-68457053D01*
X102544531Y-68537685D01*
X102503691Y-68622853D01*
X102456711Y-68712261D01*
X102403732Y-68805612D01*
X102344890Y-68902610D01*
X102280325Y-69002960D01*
X102210175Y-69106365D01*
X102173720Y-69158176D01*
X102154160Y-69185510D01*
X102139236Y-69205900D01*
X102128181Y-69220223D01*
X102120227Y-69229354D01*
X102114607Y-69234170D01*
X102110554Y-69235547D01*
X102107298Y-69234361D01*
X102107106Y-69234224D01*
X102098440Y-69227558D01*
X102084820Y-69216700D01*
X102067564Y-69202738D01*
X102047991Y-69186760D01*
X102027419Y-69169854D01*
X102007167Y-69153108D01*
X101988553Y-69137609D01*
X101972895Y-69124447D01*
X101961512Y-69114708D01*
X101955722Y-69109482D01*
X101955261Y-69108915D01*
X101957267Y-69104115D01*
X101962731Y-69092558D01*
X101970821Y-69075971D01*
X101980705Y-69056081D01*
X101980825Y-69055841D01*
X101998644Y-69019563D01*
X102018423Y-68978062D01*
X102039170Y-68933520D01*
X102059891Y-68888119D01*
X102079595Y-68844043D01*
X102097286Y-68803472D01*
X102111973Y-68768589D01*
X102115448Y-68760047D01*
X102138797Y-68698088D01*
X102156016Y-68643197D01*
X102167102Y-68595174D01*
X102172051Y-68553818D01*
X102170859Y-68518927D01*
X102163523Y-68490302D01*
X102150037Y-68467741D01*
X102130400Y-68451044D01*
X102109358Y-68441472D01*
X102082316Y-68436943D01*
X102048723Y-68438894D01*
X102008859Y-68447191D01*
X101963000Y-68461701D01*
X101911426Y-68482290D01*
X101854414Y-68508824D01*
X101792243Y-68541170D01*
X101725190Y-68579194D01*
X101653535Y-68622764D01*
X101577555Y-68671744D01*
X101497528Y-68726002D01*
X101455609Y-68755404D01*
X101342444Y-68837425D01*
X101224050Y-68926677D01*
X101100884Y-69022776D01*
X100973404Y-69125334D01*
X100842066Y-69233966D01*
X100707327Y-69348285D01*
X100569645Y-69467905D01*
X100429476Y-69592441D01*
X100287277Y-69721506D01*
X100143505Y-69854713D01*
X100046358Y-69946247D01*
X99985184Y-70004282D01*
X99919345Y-70066762D01*
X99849067Y-70133472D01*
X99774579Y-70204196D01*
X99696108Y-70278715D01*
X99613880Y-70356815D01*
X99528124Y-70438279D01*
X99439067Y-70522891D01*
X99346937Y-70610433D01*
X99251960Y-70700690D01*
X99154365Y-70793445D01*
X99054378Y-70888483D01*
X98952228Y-70985585D01*
X98848141Y-71084537D01*
X98742345Y-71185121D01*
X98635067Y-71287122D01*
X98526536Y-71390323D01*
X98416978Y-71494507D01*
X98306620Y-71599458D01*
X98195691Y-71704960D01*
X98084418Y-71810796D01*
X97973027Y-71916750D01*
X97861747Y-72022606D01*
X97750805Y-72128146D01*
X97640429Y-72233156D01*
X97530845Y-72337417D01*
X97422282Y-72440715D01*
X97314966Y-72542832D01*
X97209126Y-72643552D01*
X97104988Y-72742659D01*
X97002780Y-72839936D01*
X96902730Y-72935168D01*
X96805064Y-73028136D01*
X96710011Y-73118626D01*
X96617797Y-73206421D01*
X96528651Y-73291304D01*
X96442800Y-73373058D01*
X96360470Y-73451469D01*
X96281890Y-73526318D01*
X96207288Y-73597391D01*
X96136889Y-73664469D01*
X96070922Y-73727338D01*
X96009615Y-73785780D01*
X95953194Y-73839579D01*
X95901888Y-73888519D01*
X95855923Y-73932384D01*
X95815527Y-73970956D01*
X95780927Y-74004020D01*
X95752352Y-74031359D01*
X95730028Y-74052757D01*
X95714182Y-74067997D01*
X95706262Y-74075671D01*
X95671802Y-74109303D01*
X95672003Y-73681653D01*
X95672204Y-73254002D01*
X95858269Y-73101907D01*
X96047882Y-72946758D01*
X96240427Y-72788907D01*
X96436201Y-72628107D01*
X96635502Y-72464111D01*
X96838627Y-72296673D01*
X97045874Y-72125545D01*
X97257542Y-71950482D01*
X97473927Y-71771236D01*
X97695328Y-71587561D01*
X97922042Y-71399210D01*
X98154367Y-71205936D01*
X98392601Y-71007493D01*
X98637040Y-70803635D01*
X98887984Y-70594114D01*
X99145730Y-70378683D01*
X99219913Y-70316639D01*
X99331067Y-70223661D01*
X99435224Y-70136540D01*
X99532676Y-70055032D01*
X99623716Y-69978895D01*
X99708638Y-69907884D01*
X99787732Y-69841757D01*
X99861294Y-69780269D01*
X99929615Y-69723178D01*
X99992988Y-69670240D01*
X100051706Y-69621212D01*
X100106062Y-69575850D01*
X100156349Y-69533910D01*
X100202859Y-69495150D01*
X100245885Y-69459326D01*
X100285721Y-69426194D01*
X100322658Y-69395512D01*
X100356990Y-69367035D01*
X100389010Y-69340521D01*
X100419011Y-69315726D01*
X100447284Y-69292406D01*
X100474124Y-69270318D01*
X100499822Y-69249218D01*
X100524672Y-69228864D01*
X100548967Y-69209012D01*
X100572999Y-69189418D01*
X100597061Y-69169839D01*
X100621447Y-69150032D01*
X100646448Y-69129753D01*
X100672357Y-69108759D01*
X100695717Y-69089843D01*
X100833531Y-68978899D01*
X100964799Y-68874535D01*
X101089715Y-68776621D01*
X101208471Y-68685029D01*
X101321258Y-68599632D01*
X101428268Y-68520303D01*
X101529694Y-68446912D01*
X101625728Y-68379332D01*
X101716562Y-68317435D01*
X101802388Y-68261093D01*
X101883398Y-68210178D01*
X101959784Y-68164562D01*
X102031738Y-68124118D01*
X102099453Y-68088717D01*
X102163120Y-68058231D01*
X102222932Y-68032532D01*
X102279080Y-68011493D01*
X102331758Y-67994986D01*
X102345006Y-67991395D01*
X102383665Y-67983226D01*
X102424227Y-67978100D01*
X102464237Y-67976102D01*
X102501239Y-67977318D01*
G37*
%TO.C,R8*%
X110428641Y-61780000D02*
X110121359Y-61780000D01*
X110428641Y-61020000D02*
X110121359Y-61020000D01*
%TO.C,G1*%
G36*
X15689887Y-6716319D02*
G01*
X15739082Y-6741820D01*
X15784775Y-6766616D01*
X15810903Y-6781670D01*
X15852152Y-6806755D01*
X15389410Y-7362163D01*
X15301211Y-7467859D01*
X15218124Y-7567106D01*
X15141791Y-7657969D01*
X15073850Y-7738510D01*
X15015942Y-7806793D01*
X14969705Y-7860881D01*
X14936780Y-7898838D01*
X14918807Y-7918728D01*
X14916003Y-7921280D01*
X14902523Y-7913770D01*
X14875361Y-7890544D01*
X14839283Y-7855828D01*
X14820024Y-7836146D01*
X14778274Y-7789707D01*
X14751327Y-7753358D01*
X14741725Y-7730631D01*
X14742164Y-7727881D01*
X14752110Y-7713880D01*
X14777795Y-7681131D01*
X14817519Y-7631715D01*
X14869580Y-7567713D01*
X14932279Y-7491207D01*
X15003915Y-7404276D01*
X15082787Y-7309002D01*
X15167195Y-7207467D01*
X15179869Y-7192257D01*
X15610121Y-6676053D01*
X15689887Y-6716319D01*
G37*
G36*
X17162021Y-3644923D02*
G01*
X17336772Y-3668804D01*
X17506355Y-3715458D01*
X17668461Y-3784157D01*
X17820781Y-3874177D01*
X17961008Y-3984788D01*
X18086833Y-4115265D01*
X18195948Y-4264881D01*
X18248258Y-4355550D01*
X18324826Y-4528902D01*
X18375224Y-4707596D01*
X18399426Y-4889600D01*
X18397408Y-5072882D01*
X18369146Y-5255411D01*
X18314613Y-5435156D01*
X18262812Y-5554148D01*
X18165943Y-5722610D01*
X18050907Y-5870907D01*
X17918008Y-5998794D01*
X17767549Y-6106028D01*
X17599835Y-6192364D01*
X17415168Y-6257557D01*
X17375950Y-6268108D01*
X17298512Y-6283200D01*
X17205100Y-6294232D01*
X17105205Y-6300698D01*
X17008317Y-6302094D01*
X16923928Y-6297913D01*
X16891472Y-6293908D01*
X16700990Y-6250924D01*
X16523100Y-6184777D01*
X16359305Y-6096894D01*
X16211107Y-5988703D01*
X16080009Y-5861634D01*
X15967514Y-5717112D01*
X15875123Y-5556568D01*
X15804340Y-5381428D01*
X15761905Y-5220285D01*
X15747752Y-5116220D01*
X15742802Y-4996818D01*
X15746643Y-4871562D01*
X15758864Y-4749938D01*
X15779053Y-4641428D01*
X15788545Y-4606221D01*
X15856355Y-4424557D01*
X15946150Y-4258012D01*
X16056875Y-4107869D01*
X16187478Y-3975412D01*
X16336903Y-3861924D01*
X16457500Y-3791670D01*
X16629841Y-3717189D01*
X16806247Y-3668389D01*
X16984410Y-3644543D01*
X17162021Y-3644923D01*
G37*
G36*
X13307966Y-6881353D02*
G01*
X13426856Y-7001016D01*
X13559482Y-7139291D01*
X13703169Y-7293138D01*
X13855245Y-7459521D01*
X14013034Y-7635401D01*
X14173863Y-7817740D01*
X14335057Y-8003500D01*
X14493942Y-8189643D01*
X14647844Y-8373132D01*
X14794088Y-8550928D01*
X14930002Y-8719994D01*
X14961398Y-8759709D01*
X15442205Y-9392016D01*
X15900852Y-10039807D01*
X16337078Y-10702493D01*
X16750623Y-11379484D01*
X17141227Y-12070193D01*
X17508629Y-12774030D01*
X17852571Y-13490406D01*
X18172791Y-14218731D01*
X18469030Y-14958418D01*
X18741028Y-15708877D01*
X18988524Y-16469520D01*
X19211258Y-17239756D01*
X19408970Y-18018997D01*
X19581401Y-18806655D01*
X19715255Y-19525160D01*
X19731559Y-19621131D01*
X19746237Y-19708689D01*
X19758686Y-19784151D01*
X19768306Y-19843834D01*
X19774495Y-19884058D01*
X19776653Y-19901073D01*
X19771771Y-19903476D01*
X19756382Y-19905656D01*
X19729381Y-19907622D01*
X19689664Y-19909384D01*
X19636129Y-19910952D01*
X19567672Y-19912334D01*
X19483189Y-19913541D01*
X19381577Y-19914582D01*
X19261731Y-19915465D01*
X19122550Y-19916201D01*
X18962928Y-19916800D01*
X18781762Y-19917269D01*
X18577950Y-19917620D01*
X18350387Y-19917861D01*
X18097970Y-19918001D01*
X17819595Y-19918051D01*
X17791885Y-19918052D01*
X15807086Y-19918052D01*
X15816220Y-19873907D01*
X15828881Y-19808473D01*
X15844375Y-19721718D01*
X15861805Y-19619234D01*
X15880277Y-19506609D01*
X15898897Y-19389432D01*
X15916769Y-19273293D01*
X15933000Y-19163782D01*
X15946694Y-19066487D01*
X15952644Y-19021581D01*
X16022210Y-18395567D01*
X16070807Y-17763771D01*
X16098530Y-17128941D01*
X16105470Y-16493823D01*
X16091720Y-15861167D01*
X16057374Y-15233718D01*
X16002524Y-14614225D01*
X15927262Y-14005435D01*
X15831681Y-13410095D01*
X15748800Y-12983987D01*
X15611179Y-12385417D01*
X15452832Y-11804385D01*
X15273735Y-11240845D01*
X15073866Y-10694747D01*
X14853201Y-10166042D01*
X14611717Y-9654681D01*
X14349390Y-9160616D01*
X14066198Y-8683797D01*
X13762118Y-8224177D01*
X13437126Y-7781706D01*
X13091199Y-7356335D01*
X13063270Y-7323797D01*
X12901639Y-7136225D01*
X13061398Y-6966082D01*
X13221157Y-6795938D01*
X13307966Y-6881353D01*
G37*
G36*
X63581Y-428635D02*
G01*
X118393Y-434437D01*
X194203Y-443597D01*
X288089Y-455699D01*
X397132Y-470324D01*
X518410Y-487055D01*
X649002Y-505476D01*
X785987Y-525169D01*
X926444Y-545717D01*
X1067451Y-566702D01*
X1206088Y-587707D01*
X1339434Y-608316D01*
X1464567Y-628111D01*
X1578567Y-646674D01*
X1609572Y-651842D01*
X2330484Y-783833D01*
X3033128Y-935156D01*
X3718837Y-1106333D01*
X4388942Y-1297885D01*
X5044774Y-1510334D01*
X5687665Y-1744200D01*
X6318946Y-2000004D01*
X6939948Y-2278268D01*
X7552003Y-2579512D01*
X8156443Y-2904257D01*
X8754597Y-3253025D01*
X9347799Y-3626337D01*
X9548770Y-3759063D01*
X9650296Y-3827723D01*
X9763434Y-3905649D01*
X9885330Y-3990771D01*
X10013132Y-4081020D01*
X10143986Y-4174324D01*
X10275039Y-4268614D01*
X10403437Y-4361818D01*
X10526328Y-4451868D01*
X10640857Y-4536691D01*
X10744173Y-4614218D01*
X10833420Y-4682378D01*
X10905747Y-4739101D01*
X10954599Y-4779158D01*
X10995348Y-4813793D01*
X10879893Y-4922022D01*
X10833322Y-4964611D01*
X10793286Y-4999240D01*
X10764216Y-5022204D01*
X10750856Y-5029846D01*
X10736120Y-5021449D01*
X10704630Y-4998600D01*
X10660397Y-4964365D01*
X10607432Y-4921807D01*
X10581070Y-4900138D01*
X10196176Y-4597452D01*
X9789695Y-4308268D01*
X9364486Y-4034238D01*
X8923408Y-3777017D01*
X8469322Y-3538259D01*
X8005086Y-3319617D01*
X7533560Y-3122745D01*
X7457006Y-3093137D01*
X6901698Y-2888765D01*
X6349750Y-2701552D01*
X5802296Y-2531685D01*
X5260471Y-2379354D01*
X4725409Y-2244746D01*
X4198246Y-2128050D01*
X3680116Y-2029453D01*
X3172154Y-1949145D01*
X2675494Y-1887314D01*
X2191271Y-1844147D01*
X1720620Y-1819834D01*
X1264675Y-1814562D01*
X824572Y-1828519D01*
X401444Y-1861895D01*
X188359Y-1887006D01*
X125623Y-1895082D01*
X72014Y-1901613D01*
X33751Y-1905867D01*
X17842Y-1907143D01*
X13862Y-1902791D01*
X10490Y-1888480D01*
X7683Y-1862324D01*
X5394Y-1822437D01*
X3578Y-1766935D01*
X2189Y-1693933D01*
X1183Y-1601544D01*
X513Y-1487885D01*
X135Y-1351069D01*
X2Y-1189212D01*
X0Y-1166875D01*
X0Y-426608D01*
X32689Y-426608D01*
X63581Y-428635D01*
G37*
G36*
X19505502Y-1809D02*
G01*
X19593196Y-9709D01*
X19664724Y-24913D01*
X19725368Y-48636D01*
X19780407Y-82091D01*
X19792606Y-91121D01*
X19848038Y-139474D01*
X19889067Y-191295D01*
X19917493Y-251421D01*
X19935118Y-324692D01*
X19943745Y-415943D01*
X19945390Y-501314D01*
X19936722Y-651069D01*
X19911110Y-813356D01*
X19868177Y-989433D01*
X19807548Y-1180561D01*
X19728845Y-1387999D01*
X19631693Y-1613008D01*
X19580223Y-1723774D01*
X19497000Y-1891211D01*
X19398722Y-2075140D01*
X19287973Y-2271388D01*
X19167332Y-2475784D01*
X19039383Y-2684156D01*
X18906707Y-2892334D01*
X18771887Y-3096145D01*
X18637503Y-3291418D01*
X18506140Y-3473981D01*
X18452094Y-3546387D01*
X18409155Y-3603224D01*
X18307716Y-3519221D01*
X18252307Y-3473479D01*
X18185992Y-3418947D01*
X18118937Y-3363978D01*
X18082901Y-3334525D01*
X17959525Y-3233833D01*
X18021193Y-3103616D01*
X18104079Y-2927741D01*
X18180025Y-2764864D01*
X18248159Y-2616909D01*
X18307607Y-2485802D01*
X18357495Y-2373466D01*
X18396949Y-2281826D01*
X18422542Y-2219330D01*
X18485601Y-2047985D01*
X18532794Y-1894593D01*
X18563963Y-1759926D01*
X18578950Y-1644759D01*
X18577598Y-1549863D01*
X18568850Y-1502873D01*
X18542096Y-1442166D01*
X18499434Y-1385420D01*
X18448560Y-1341833D01*
X18422440Y-1327847D01*
X18344463Y-1308955D01*
X18248489Y-1309493D01*
X18135080Y-1329056D01*
X18004797Y-1367234D01*
X17858204Y-1423622D01*
X17695862Y-1497813D01*
X17518334Y-1589399D01*
X17326182Y-1697974D01*
X17119968Y-1823131D01*
X16900254Y-1964462D01*
X16667602Y-2121562D01*
X16422575Y-2294022D01*
X16165735Y-2481436D01*
X15897645Y-2683398D01*
X15618865Y-2899499D01*
X15329960Y-3129334D01*
X15031490Y-3372495D01*
X14724018Y-3628576D01*
X14408106Y-3897169D01*
X14084317Y-4177867D01*
X13753212Y-4470263D01*
X13415355Y-4773952D01*
X13071306Y-5088525D01*
X12721629Y-5413575D01*
X12534898Y-5589311D01*
X12447231Y-5672229D01*
X12342753Y-5771161D01*
X12222127Y-5885477D01*
X12086017Y-6014544D01*
X11935086Y-6157732D01*
X11769997Y-6314409D01*
X11591412Y-6483946D01*
X11399996Y-6665711D01*
X11196412Y-6859072D01*
X10981321Y-7063399D01*
X10755389Y-7278062D01*
X10519277Y-7502428D01*
X10273649Y-7735867D01*
X10019168Y-7977748D01*
X9756498Y-8227439D01*
X9486301Y-8484311D01*
X9209240Y-8747731D01*
X8925979Y-9017069D01*
X8637181Y-9291695D01*
X8343509Y-9570976D01*
X8045627Y-9854281D01*
X7744196Y-10140981D01*
X7439881Y-10430444D01*
X7133344Y-10722038D01*
X6825249Y-11015133D01*
X6516259Y-11309099D01*
X6207037Y-11603303D01*
X5898247Y-11897114D01*
X5590550Y-12189903D01*
X5284611Y-12481038D01*
X4981093Y-12769887D01*
X4680658Y-13055820D01*
X4383971Y-13338207D01*
X4091693Y-13616414D01*
X3804489Y-13889813D01*
X3523021Y-14157772D01*
X3247953Y-14419659D01*
X2979947Y-14674845D01*
X2719667Y-14922697D01*
X2467776Y-15162585D01*
X2224937Y-15393878D01*
X1991814Y-15615944D01*
X1769069Y-15828154D01*
X1557365Y-16029875D01*
X1357366Y-16220478D01*
X1169735Y-16399330D01*
X995135Y-16565800D01*
X834230Y-16719259D01*
X687681Y-16859075D01*
X556153Y-16984616D01*
X440309Y-17095252D01*
X340811Y-17190352D01*
X258323Y-17269285D01*
X193509Y-17331420D01*
X147030Y-17376125D01*
X119551Y-17402770D01*
X118851Y-17403457D01*
X0Y-17520106D01*
X1882Y-15075752D01*
X791465Y-14430565D01*
X1382834Y-13946714D01*
X1994514Y-13445006D01*
X2626514Y-12925435D01*
X3278841Y-12387995D01*
X3951502Y-11832680D01*
X4644505Y-11259482D01*
X5357859Y-10668397D01*
X6091569Y-10059417D01*
X6845645Y-9432537D01*
X7620094Y-8787749D01*
X8414923Y-8125048D01*
X9230139Y-7444428D01*
X10065752Y-6745881D01*
X10248289Y-6593171D01*
X10577833Y-6317451D01*
X10887408Y-6058468D01*
X11177869Y-5815516D01*
X11450069Y-5587884D01*
X11704865Y-5374867D01*
X11943111Y-5175755D01*
X12165661Y-4989841D01*
X12373371Y-4816418D01*
X12567095Y-4654777D01*
X12747688Y-4504210D01*
X12916006Y-4364010D01*
X13072901Y-4233468D01*
X13219231Y-4111877D01*
X13355848Y-3998529D01*
X13483609Y-3892716D01*
X13603367Y-3793730D01*
X13715979Y-3700864D01*
X13822297Y-3613409D01*
X13923178Y-3530657D01*
X14019476Y-3451902D01*
X14112046Y-3376434D01*
X14201742Y-3303546D01*
X14289420Y-3232530D01*
X14375934Y-3162678D01*
X14462140Y-3093282D01*
X14548891Y-3023635D01*
X14637042Y-2953029D01*
X14727449Y-2880755D01*
X14820967Y-2806106D01*
X14832514Y-2796894D01*
X14986549Y-2674099D01*
X15122319Y-2566055D01*
X15242734Y-2470496D01*
X15350704Y-2385157D01*
X15449139Y-2307771D01*
X15540949Y-2236073D01*
X15629044Y-2167795D01*
X15716334Y-2100673D01*
X15805729Y-2032440D01*
X15900138Y-1960830D01*
X16002473Y-1883577D01*
X16088931Y-1818498D01*
X16426223Y-1567871D01*
X16745527Y-1336879D01*
X17047324Y-1125232D01*
X17332094Y-932643D01*
X17600319Y-758824D01*
X17852479Y-603487D01*
X18089055Y-466344D01*
X18310529Y-347107D01*
X18517380Y-245487D01*
X18710090Y-161197D01*
X18889139Y-93950D01*
X19050472Y-44662D01*
X19124228Y-25858D01*
X19184821Y-13263D01*
X19242041Y-5611D01*
X19305682Y-1640D01*
X19385535Y-83D01*
X19396364Y0D01*
X19505502Y-1809D01*
G37*
%TO.C,C4*%
X95950500Y-76985080D02*
X95950500Y-76703920D01*
X96970500Y-76985080D02*
X96970500Y-76703920D01*
%TO.C,R9*%
X110589141Y-64374500D02*
X110281859Y-64374500D01*
X110589141Y-63614500D02*
X110281859Y-63614500D01*
%TO.C,C2*%
X95420500Y-76985080D02*
X95420500Y-76703920D01*
X94400500Y-76985080D02*
X94400500Y-76703920D01*
D16*
%TO.C,LV1*%
X95985500Y-81869500D02*
X95985500Y-80919500D01*
X96210500Y-80569500D02*
X96210500Y-80019500D01*
X98210500Y-80569500D02*
X96210500Y-80569500D01*
X96210500Y-80019500D02*
X98210500Y-80019500D01*
X98210500Y-80019500D02*
X98210500Y-80569500D01*
D14*
%TO.C,C3*%
X98620500Y-83928920D02*
X98620500Y-84210080D01*
X97600500Y-83928920D02*
X97600500Y-84210080D01*
%TO.C,J2*%
X88905500Y-57109500D02*
X88905500Y-73409500D01*
X99095500Y-55149500D02*
X99095500Y-53819500D01*
X100425500Y-55149500D02*
X99095500Y-55149500D01*
X101695500Y-52489500D02*
X109375500Y-52489500D01*
X101695500Y-55149500D02*
X101695500Y-52489500D01*
X101695500Y-55149500D02*
X109375500Y-55149500D01*
X109375500Y-55149500D02*
X109375500Y-52489500D01*
X119565500Y-57109500D02*
X119565500Y-73409500D01*
%TO.C,C13*%
X111546920Y-54840000D02*
X111828080Y-54840000D01*
X111546920Y-55860000D02*
X111828080Y-55860000D01*
%TO.C,U1*%
X108195500Y-66004500D02*
X107720500Y-66004500D01*
X100975500Y-65529500D02*
X100975500Y-66004500D01*
X108195500Y-65529500D02*
X108195500Y-66004500D01*
X100975500Y-59259500D02*
X100975500Y-58784500D01*
X108195500Y-59259500D02*
X108195500Y-58784500D01*
X100975500Y-58784500D02*
X101450500Y-58784500D01*
X108195500Y-58784500D02*
X107720500Y-58784500D01*
%TO.C,R1*%
X105313000Y-70306758D02*
X105313000Y-69832242D01*
X106358000Y-70306758D02*
X106358000Y-69832242D01*
%TO.C,R10*%
X110428641Y-60830000D02*
X110121359Y-60830000D01*
X110428641Y-60070000D02*
X110121359Y-60070000D01*
%TO.C,R11*%
X110589141Y-63399500D02*
X110281859Y-63399500D01*
X110589141Y-62639500D02*
X110281859Y-62639500D01*
%TD*%
M02*
