%TF.GenerationSoftware,KiCad,Pcbnew,8.0.7*%
%TF.CreationDate,2024-12-18T23:50:21+01:00*%
%TF.ProjectId,neopixel_eliot_hat,6e656f70-6978-4656-9c5f-656c696f745f,rev?*%
%TF.SameCoordinates,Original*%
%TF.FileFunction,Copper,L4,Bot*%
%TF.FilePolarity,Positive*%
%FSLAX46Y46*%
G04 Gerber Fmt 4.6, Leading zero omitted, Abs format (unit mm)*
G04 Created by KiCad (PCBNEW 8.0.7) date 2024-12-18 23:50:21*
%MOMM*%
%LPD*%
G01*
G04 APERTURE LIST*
G04 Aperture macros list*
%AMRoundRect*
0 Rectangle with rounded corners*
0 $1 Rounding radius*
0 $2 $3 $4 $5 $6 $7 $8 $9 X,Y pos of 4 corners*
0 Add a 4 corners polygon primitive as box body*
4,1,4,$2,$3,$4,$5,$6,$7,$8,$9,$2,$3,0*
0 Add four circle primitives for the rounded corners*
1,1,$1+$1,$2,$3*
1,1,$1+$1,$4,$5*
1,1,$1+$1,$6,$7*
1,1,$1+$1,$8,$9*
0 Add four rect primitives between the rounded corners*
20,1,$1+$1,$2,$3,$4,$5,0*
20,1,$1+$1,$4,$5,$6,$7,0*
20,1,$1+$1,$6,$7,$8,$9,0*
20,1,$1+$1,$8,$9,$2,$3,0*%
G04 Aperture macros list end*
%TA.AperFunction,SMDPad,CuDef*%
%ADD10RoundRect,0.135000X-0.135000X-0.185000X0.135000X-0.185000X0.135000X0.185000X-0.135000X0.185000X0*%
%TD*%
%TA.AperFunction,SMDPad,CuDef*%
%ADD11RoundRect,0.225000X-0.250000X0.225000X-0.250000X-0.225000X0.250000X-0.225000X0.250000X0.225000X0*%
%TD*%
%TA.AperFunction,SMDPad,CuDef*%
%ADD12RoundRect,0.375000X0.625000X0.375000X-0.625000X0.375000X-0.625000X-0.375000X0.625000X-0.375000X0*%
%TD*%
%TA.AperFunction,SMDPad,CuDef*%
%ADD13RoundRect,0.500000X0.500000X1.400000X-0.500000X1.400000X-0.500000X-1.400000X0.500000X-1.400000X0*%
%TD*%
%TA.AperFunction,SMDPad,CuDef*%
%ADD14RoundRect,0.225000X0.225000X0.250000X-0.225000X0.250000X-0.225000X-0.250000X0.225000X-0.250000X0*%
%TD*%
%TA.AperFunction,SMDPad,CuDef*%
%ADD15RoundRect,0.250000X0.475000X-0.250000X0.475000X0.250000X-0.475000X0.250000X-0.475000X-0.250000X0*%
%TD*%
%TA.AperFunction,SMDPad,CuDef*%
%ADD16RoundRect,0.135000X0.135000X0.185000X-0.135000X0.185000X-0.135000X-0.185000X0.135000X-0.185000X0*%
%TD*%
%TA.AperFunction,SMDPad,CuDef*%
%ADD17RoundRect,0.130000X-0.130000X0.130000X-0.130000X-0.130000X0.130000X-0.130000X0.130000X0.130000X0*%
%TD*%
%TA.AperFunction,SMDPad,CuDef*%
%ADD18RoundRect,0.225000X0.250000X-0.225000X0.250000X0.225000X-0.250000X0.225000X-0.250000X-0.225000X0*%
%TD*%
%TA.AperFunction,SMDPad,CuDef*%
%ADD19R,0.650000X1.525000*%
%TD*%
%TA.AperFunction,SMDPad,CuDef*%
%ADD20R,3.100000X2.400000*%
%TD*%
%TA.AperFunction,SMDPad,CuDef*%
%ADD21R,0.600000X0.250000*%
%TD*%
%TA.AperFunction,SMDPad,CuDef*%
%ADD22R,0.300000X0.475000*%
%TD*%
%TA.AperFunction,SMDPad,CuDef*%
%ADD23RoundRect,0.200000X-0.275000X0.200000X-0.275000X-0.200000X0.275000X-0.200000X0.275000X0.200000X0*%
%TD*%
%TA.AperFunction,ComponentPad*%
%ADD24C,1.200000*%
%TD*%
%TA.AperFunction,ComponentPad*%
%ADD25R,1.000000X1.000000*%
%TD*%
%TA.AperFunction,ComponentPad*%
%ADD26O,1.000000X1.000000*%
%TD*%
%TA.AperFunction,ComponentPad*%
%ADD27RoundRect,0.250000X0.600000X0.725000X-0.600000X0.725000X-0.600000X-0.725000X0.600000X-0.725000X0*%
%TD*%
%TA.AperFunction,ComponentPad*%
%ADD28O,1.700000X1.950000*%
%TD*%
%TA.AperFunction,ComponentPad*%
%ADD29O,1.000000X2.100000*%
%TD*%
%TA.AperFunction,ComponentPad*%
%ADD30O,1.000000X1.800000*%
%TD*%
%TA.AperFunction,ComponentPad*%
%ADD31R,2.000000X2.000000*%
%TD*%
%TA.AperFunction,ComponentPad*%
%ADD32O,2.000000X2.000000*%
%TD*%
%TA.AperFunction,ComponentPad*%
%ADD33O,1.700000X1.700000*%
%TD*%
%TA.AperFunction,ViaPad*%
%ADD34C,0.700000*%
%TD*%
%TA.AperFunction,Conductor*%
%ADD35C,0.500000*%
%TD*%
%TA.AperFunction,Conductor*%
%ADD36C,0.200000*%
%TD*%
%TA.AperFunction,Conductor*%
%ADD37C,2.000000*%
%TD*%
%TA.AperFunction,Conductor*%
%ADD38C,0.300000*%
%TD*%
G04 APERTURE END LIST*
D10*
%TO.P,R11,1*%
%TO.N,+3V3*%
X110900000Y-48100000D03*
%TO.P,R11,2*%
%TO.N,Net-(IC2-~{FLT})*%
X111920000Y-48100000D03*
%TD*%
D11*
%TO.P,C12,1*%
%TO.N,+5V_MCU*%
X113590000Y-40855000D03*
%TO.P,C12,2*%
%TO.N,GND*%
X113590000Y-42405000D03*
%TD*%
D12*
%TO.P,U2,1,ADJ*%
%TO.N,GND*%
X114580000Y-57420000D03*
%TO.P,U2,2,VO*%
%TO.N,Net-(IC2-IN)*%
X114580000Y-59720000D03*
D13*
X108280000Y-59720000D03*
D12*
%TO.P,U2,3,VI*%
%TO.N,+5V_MUX*%
X114580000Y-62020000D03*
%TD*%
D14*
%TO.P,C5,1*%
%TO.N,+3V3*%
X108995000Y-49800000D03*
%TO.P,C5,2*%
%TO.N,GND*%
X107445000Y-49800000D03*
%TD*%
D15*
%TO.P,C15,1*%
%TO.N,+5V_MUX*%
X116810000Y-61910000D03*
%TO.P,C15,2*%
%TO.N,GND*%
X116810000Y-60010000D03*
%TD*%
D16*
%TO.P,R15,1*%
%TO.N,GND*%
X114240000Y-48130000D03*
%TO.P,R15,2*%
%TO.N,Net-(IC2-ILM)*%
X113220000Y-48130000D03*
%TD*%
D17*
%TO.P,C10,1*%
%TO.N,+3V3*%
X95260000Y-44060000D03*
%TO.P,C10,2*%
%TO.N,GND*%
X95260000Y-44860000D03*
%TD*%
D18*
%TO.P,C11,1*%
%TO.N,Net-(IC2-IN)*%
X116770000Y-57715000D03*
%TO.P,C11,2*%
%TO.N,GND*%
X116770000Y-56165000D03*
%TD*%
D11*
%TO.P,C13,1*%
%TO.N,+5V_MCU*%
X115090000Y-40865000D03*
%TO.P,C13,2*%
%TO.N,GND*%
X115090000Y-42415000D03*
%TD*%
D19*
%TO.P,IC2,1,GND_1*%
%TO.N,GND*%
X114480000Y-55060000D03*
%TO.P,IC2,2,DVDT*%
%TO.N,unconnected-(IC2-DVDT-Pad2)*%
X113210000Y-55060000D03*
%TO.P,IC2,3,EN/UVLO*%
%TO.N,Net-(IC2-EN{slash}UVLO)*%
X111940000Y-55060000D03*
%TO.P,IC2,4,IN*%
%TO.N,Net-(IC2-IN)*%
X110670000Y-55060000D03*
%TO.P,IC2,5,OUT*%
%TO.N,+3V3*%
X110670000Y-49636000D03*
%TO.P,IC2,6,~{FLT}*%
%TO.N,Net-(IC2-~{FLT})*%
X111940000Y-49636000D03*
%TO.P,IC2,7,ILM*%
%TO.N,Net-(IC2-ILM)*%
X113210000Y-49636000D03*
%TO.P,IC2,8,OVLO/OVCSEL*%
%TO.N,Net-(IC2-OVLO{slash}OVCSEL)*%
X114480000Y-49636000D03*
D20*
%TO.P,IC2,9,GND_2*%
%TO.N,GND*%
X112575000Y-52348000D03*
%TD*%
D21*
%TO.P,D4,1,K*%
%TO.N,/NRST*%
X100085000Y-41340000D03*
%TO.P,D4,2,K*%
%TO.N,unconnected-(D4-K-Pad2)*%
X100085000Y-40840000D03*
%TO.P,D4,3,A*%
%TO.N,GND*%
X100085000Y-40340000D03*
%TO.P,D4,4,K*%
%TO.N,/SWCLK*%
X100085000Y-39840000D03*
%TO.P,D4,5,K*%
%TO.N,/SWDIO*%
X100085000Y-39340000D03*
%TO.P,D4,6,K*%
X100935000Y-39340000D03*
%TO.P,D4,7,K*%
%TO.N,/SWCLK*%
X100935000Y-39840000D03*
%TO.P,D4,8,A*%
%TO.N,GND*%
X100935000Y-40340000D03*
%TO.P,D4,9,K*%
%TO.N,unconnected-(D4-K-Pad2)_1*%
X100935000Y-40840000D03*
%TO.P,D4,10,K*%
%TO.N,/NRST*%
X100935000Y-41340000D03*
%TD*%
D22*
%TO.P,IC1,1,GND*%
%TO.N,GND*%
X118290000Y-61412000D03*
%TO.P,IC1,2,VOUT_1*%
%TO.N,+5V_MUX*%
X118790000Y-61412000D03*
%TO.P,IC1,3,VIN1*%
%TO.N,+5V_MCU*%
X119290000Y-61412000D03*
%TO.P,IC1,4,PR1*%
X119790000Y-61412000D03*
%TO.P,IC1,5,MODE*%
X119790000Y-63088000D03*
%TO.P,IC1,6,VIN2*%
%TO.N,VBUS_REV*%
X119290000Y-63088000D03*
%TO.P,IC1,7,VOUT_2*%
%TO.N,+5V_MUX*%
X118790000Y-63088000D03*
%TO.P,IC1,8,ST*%
%TO.N,unconnected-(IC1-ST-Pad8)*%
X118290000Y-63088000D03*
%TD*%
D23*
%TO.P,R1,1*%
%TO.N,Net-(IC4-BOOT0)*%
X106110000Y-58035000D03*
%TO.P,R1,2*%
%TO.N,GND*%
X106110000Y-59685000D03*
%TD*%
D24*
%TO.P,TP2,1,1*%
%TO.N,VBUS_REV*%
X105160000Y-61870000D03*
%TD*%
%TO.P,TP5,1,1*%
%TO.N,Net-(IC2-~{FLT})*%
X111860000Y-46590000D03*
%TD*%
D25*
%TO.P,J4,1,VTref*%
%TO.N,+3V3*%
X94120000Y-42620000D03*
D26*
%TO.P,J4,2,SWDIO/TMS*%
%TO.N,/SWDIO*%
X94120000Y-41350000D03*
%TO.P,J4,3,GND*%
%TO.N,GND*%
X95390000Y-42620000D03*
%TO.P,J4,4,SWCLK/TCK*%
%TO.N,/SWCLK*%
X95390000Y-41350000D03*
%TO.P,J4,5,GND*%
%TO.N,GND*%
X96660000Y-42620000D03*
%TO.P,J4,6,SWO/TDO*%
%TO.N,unconnected-(J4-SWO{slash}TDO-Pad6)*%
X96660000Y-41350000D03*
%TO.P,J4,7,NC*%
%TO.N,unconnected-(J4-NC-Pad7)*%
X97930000Y-42620000D03*
%TO.P,J4,8,TDI*%
%TO.N,unconnected-(J4-TDI-Pad8)*%
X97930000Y-41350000D03*
%TO.P,J4,9,NC*%
%TO.N,unconnected-(J4-NC-Pad9)*%
X99200000Y-42620000D03*
%TO.P,J4,10,nRESET*%
%TO.N,/NRST*%
X99200000Y-41350000D03*
%TD*%
D27*
%TO.P,J1,1,Pin_1*%
%TO.N,GND*%
X118260000Y-66500000D03*
D28*
%TO.P,J1,2,Pin_2*%
%TO.N,/DATA_5V*%
X115760000Y-66500000D03*
%TO.P,J1,3,Pin_3*%
%TO.N,+5V_MUX*%
X113260000Y-66500000D03*
%TD*%
D24*
%TO.P,TP1,1,1*%
%TO.N,/SIGNAL_LED*%
X104420000Y-68510000D03*
%TD*%
D29*
%TO.P,J5,S1,SHIELD*%
%TO.N,GND*%
X93950000Y-62730000D03*
D30*
X93950000Y-66910000D03*
D29*
X102590000Y-62730000D03*
D30*
X102590000Y-66910000D03*
%TD*%
D31*
%TO.P,J2,1,GND*%
%TO.N,GND*%
X103660000Y-40860000D03*
D32*
%TO.P,J2,2,3.3V*%
%TO.N,unconnected-(J2-3.3V-Pad2)*%
X106200000Y-40860000D03*
D33*
%TO.P,J2,3,SPI_SCK*%
%TO.N,/SPI_SCK*%
X93470000Y-45940000D03*
%TO.P,J2,4,SPI_MOSI*%
%TO.N,/SPI_MOSI*%
X93470000Y-48480000D03*
%TO.P,J2,5,SPI_MISO*%
%TO.N,/SPI_MISO*%
X93470000Y-51020000D03*
%TO.P,J2,6,SPI_CS*%
%TO.N,/SPI_CS*%
X93470000Y-53560000D03*
%TO.P,J2,7,I2C_SCL*%
%TO.N,/I2C1_SCL*%
X93470000Y-56100000D03*
%TO.P,J2,8,I2C_SDA*%
%TO.N,/I2C1_SDA*%
X93470000Y-58640000D03*
%TO.P,J2,9,TIM4_CH1*%
%TO.N,unconnected-(J2-TIM4_CH1-Pad9)*%
X121470000Y-58640000D03*
%TO.P,J2,10,TIM4_CH2*%
%TO.N,unconnected-(J2-TIM4_CH2-Pad10)*%
X121470000Y-56100000D03*
%TO.P,J2,11,TIM4_CH3*%
%TO.N,unconnected-(J2-TIM4_CH3-Pad11)*%
X121470000Y-53560000D03*
%TO.P,J2,12,USART2_RX*%
%TO.N,unconnected-(J2-USART2_RX-Pad12)*%
X121470000Y-51020000D03*
%TO.P,J2,13,USART2_RTS*%
%TO.N,unconnected-(J2-USART2_RTS-Pad13)*%
X121470000Y-48480000D03*
%TO.P,J2,14,USART2_TX*%
%TO.N,unconnected-(J2-USART2_TX-Pad14)*%
X121470000Y-45940000D03*
D32*
%TO.P,J2,15,5V*%
%TO.N,+5V_MCU*%
X108740000Y-40860000D03*
%TO.P,J2,16,5V*%
X111280000Y-40860000D03*
%TD*%
D34*
%TO.N,+3V3*%
X102225000Y-51175000D03*
%TO.N,GND*%
X100050000Y-53275000D03*
%TO.N,+3V3*%
X102675000Y-54050000D03*
%TO.N,/SWCLK*%
X98950000Y-53350000D03*
%TO.N,/SWDIO*%
X101600000Y-53025000D03*
%TO.N,+3V3*%
X102680000Y-47330000D03*
X109730000Y-46380000D03*
X104841734Y-65935000D03*
X110510000Y-64950000D03*
X109580000Y-56350000D03*
%TO.N,GND*%
X93940000Y-61210000D03*
X92770000Y-49730000D03*
X117841760Y-40478240D03*
X104160000Y-66600000D03*
X112931971Y-47277019D03*
X110080000Y-44640000D03*
X117140000Y-47980000D03*
X116020000Y-53980000D03*
X103256016Y-57553984D03*
X111680000Y-64730000D03*
X103860000Y-58130000D03*
X112210000Y-53747498D03*
X95670000Y-58620000D03*
X120480000Y-60810000D03*
X113600000Y-43250000D03*
X102580000Y-68360000D03*
X93950000Y-68400000D03*
X100010000Y-59280000D03*
X104140000Y-39510000D03*
X109315000Y-43855000D03*
X106050000Y-50390000D03*
X119780000Y-66510000D03*
X104250000Y-42210000D03*
X96670000Y-44860000D03*
X110860000Y-45390000D03*
X113916149Y-53900982D03*
X95400000Y-45760000D03*
X114120000Y-44150000D03*
X108195000Y-51990000D03*
X106730001Y-58904260D03*
X115990000Y-43030000D03*
X102600000Y-65400000D03*
X114850000Y-44190000D03*
X117140000Y-52585000D03*
X117140000Y-54120000D03*
X114880000Y-64690000D03*
X117140000Y-49515000D03*
X97314620Y-40480000D03*
X117160000Y-55030000D03*
X93950000Y-65470000D03*
X103870000Y-64740000D03*
X102600000Y-64410000D03*
X116250000Y-54960000D03*
X103940000Y-63790000D03*
X106150000Y-51990000D03*
X93950000Y-64340000D03*
X112570000Y-42410000D03*
X118270000Y-68160000D03*
X103190000Y-39510000D03*
X101975000Y-48750000D03*
X119381760Y-42018240D03*
X115130000Y-43240000D03*
X116800000Y-58840000D03*
X117500000Y-64690000D03*
X117140000Y-51050000D03*
X102598984Y-61281016D03*
X103117416Y-42196023D03*
X115830000Y-48100000D03*
X117140000Y-46445000D03*
X117140000Y-44910000D03*
%TO.N,Net-(IC2-IN)*%
X110910000Y-56320000D03*
X111970000Y-60880000D03*
%TO.N,VBUS_REV*%
X120350000Y-64170000D03*
X120360000Y-65330000D03*
X119870000Y-64760000D03*
X120800000Y-64750000D03*
X100890000Y-55160000D03*
X99540000Y-55070000D03*
X110650000Y-63540000D03*
X111390000Y-62820000D03*
X99440000Y-55960000D03*
X100930000Y-56180000D03*
X111390000Y-63540000D03*
X110650000Y-62820000D03*
%TO.N,Net-(IC2-OVLO{slash}OVCSEL)*%
X114675002Y-52810000D03*
%TO.N,Net-(IC2-EN{slash}UVLO)*%
X111810000Y-56250000D03*
%TO.N,/SPI_CS*%
X102370000Y-46435381D03*
X109030000Y-45460000D03*
%TO.N,/SPI_SCK*%
X108374587Y-44407118D03*
X101929827Y-43669412D03*
%TO.N,/I2C1_SDA*%
X105280000Y-56825000D03*
%TO.N,/SWDIO*%
X98431812Y-46002171D03*
X102241419Y-39503223D03*
%TO.N,/I2C1_SCL*%
X105310063Y-55870824D03*
%TO.N,/NRST*%
X103430000Y-43040000D03*
%TO.N,/SWCLK*%
X97640000Y-46430000D03*
X101705380Y-41755380D03*
%TO.N,/SPI_MISO*%
X102131529Y-45396716D03*
X107700000Y-45002883D03*
%TO.N,/SPI_MOSI*%
X101800000Y-44560000D03*
X106846824Y-44510000D03*
%TO.N,Net-(IC4-BOOT0)*%
X106150000Y-57210000D03*
%TD*%
D35*
%TO.N,+3V3*%
X108775000Y-51190000D02*
X108995000Y-50970000D01*
X102240000Y-51190000D02*
X108775000Y-51190000D01*
X102225000Y-51175000D02*
X102240000Y-51190000D01*
X102900000Y-53825000D02*
X108995000Y-53825000D01*
X102675000Y-54050000D02*
X102900000Y-53825000D01*
D36*
%TO.N,/SWDIO*%
X101574788Y-53050212D02*
X101280548Y-53050212D01*
X101600000Y-53025000D02*
X101574788Y-53050212D01*
X100910000Y-48480359D02*
X98431812Y-46002171D01*
X100910000Y-52679664D02*
X100910000Y-48480359D01*
X101255336Y-53025000D02*
X100910000Y-52679664D01*
X101600000Y-53025000D02*
X101255336Y-53025000D01*
%TO.N,/SWCLK*%
X98975000Y-53325000D02*
X98975000Y-47765000D01*
X98975000Y-47765000D02*
X97640000Y-46430000D01*
X98950000Y-53350000D02*
X98975000Y-53325000D01*
X99087500Y-53212500D02*
X99087500Y-53140000D01*
X98950000Y-53350000D02*
X99087500Y-53212500D01*
%TO.N,GND*%
X103025000Y-49800000D02*
X107445000Y-49800000D01*
X101975000Y-48750000D02*
X103025000Y-49800000D01*
D35*
%TO.N,+3V3*%
X108995000Y-53825000D02*
X108995000Y-50970000D01*
X108995000Y-55765000D02*
X108995000Y-53825000D01*
D36*
%TO.N,/I2C1_SCL*%
X99974925Y-54020000D02*
X95550000Y-54020000D01*
X99979925Y-54025000D02*
X99974925Y-54020000D01*
X95550000Y-54020000D02*
X93470000Y-56100000D01*
X103111510Y-55870824D02*
X101265686Y-54025000D01*
X101265686Y-54025000D02*
X99979925Y-54025000D01*
X105310063Y-55870824D02*
X103111510Y-55870824D01*
%TO.N,/I2C1_SDA*%
X97690000Y-54420000D02*
X93470000Y-58640000D01*
X99809239Y-54420000D02*
X97690000Y-54420000D01*
X101100000Y-54425000D02*
X99814239Y-54425000D01*
X99814239Y-54425000D02*
X99809239Y-54420000D01*
X103500000Y-56825000D02*
X101100000Y-54425000D01*
X105280000Y-56825000D02*
X103500000Y-56825000D01*
D35*
%TO.N,+3V3*%
X110660000Y-48340000D02*
X110660000Y-49626000D01*
X108820000Y-47290000D02*
X108995000Y-47115000D01*
X110900000Y-48100000D02*
X110660000Y-48340000D01*
X109580000Y-56350000D02*
X108995000Y-55765000D01*
X110506000Y-49800000D02*
X110670000Y-49636000D01*
X102680000Y-47330000D02*
X102133248Y-47330000D01*
X104841734Y-65935000D02*
X104906734Y-66000000D01*
X110660000Y-49626000D02*
X110670000Y-49636000D01*
X104906734Y-66000000D02*
X109460000Y-66000000D01*
X94120000Y-43010000D02*
X94120000Y-42620000D01*
X102680000Y-47330000D02*
X102720000Y-47290000D01*
X95170000Y-44060000D02*
X94120000Y-43010000D01*
X108995000Y-49800000D02*
X110506000Y-49800000D01*
X108995000Y-50970000D02*
X108995000Y-49800000D01*
X98863248Y-44060000D02*
X95170000Y-44060000D01*
X110670000Y-49636000D02*
X110670000Y-50073500D01*
X102133248Y-47330000D02*
X98863248Y-44060000D01*
X108995000Y-49800000D02*
X108995000Y-47115000D01*
X108995000Y-47115000D02*
X109730000Y-46380000D01*
X109460000Y-66000000D02*
X110510000Y-64950000D01*
X102720000Y-47290000D02*
X108820000Y-47290000D01*
D36*
%TO.N,GND*%
X113916149Y-53900982D02*
X114480000Y-54464833D01*
X115445000Y-42415000D02*
X115840000Y-42810000D01*
X116810000Y-60010000D02*
X118212000Y-61412000D01*
X115990000Y-42960000D02*
X115990000Y-43030000D01*
D35*
X114580000Y-57420000D02*
X114580000Y-55420000D01*
D36*
X113590000Y-43240000D02*
X113600000Y-43250000D01*
X113916149Y-53900982D02*
X112575000Y-52559833D01*
X97454620Y-40340000D02*
X97314620Y-40480000D01*
X95260000Y-44860000D02*
X96670000Y-44860000D01*
X100085000Y-40340000D02*
X97454620Y-40340000D01*
X115800000Y-48130000D02*
X115830000Y-48100000D01*
D35*
X116810000Y-60010000D02*
X116810000Y-58850000D01*
D36*
X113590000Y-42405000D02*
X113590000Y-43240000D01*
X115090000Y-42415000D02*
X115090000Y-43200000D01*
D35*
X114580000Y-55420000D02*
X116020000Y-53980000D01*
D36*
X115840000Y-42810000D02*
X115990000Y-42960000D01*
X118212000Y-61412000D02*
X118290000Y-61412000D01*
X115090000Y-42415000D02*
X115445000Y-42415000D01*
D35*
X116810000Y-58850000D02*
X116800000Y-58840000D01*
D36*
X105415000Y-59685000D02*
X103860000Y-58130000D01*
X116770000Y-55420000D02*
X117160000Y-55030000D01*
X109315000Y-43855000D02*
X109315000Y-43875000D01*
X114480000Y-54464833D02*
X114480000Y-55060000D01*
X106110000Y-59685000D02*
X105415000Y-59685000D01*
X112575000Y-42405000D02*
X112570000Y-42410000D01*
X114240000Y-48130000D02*
X115800000Y-48130000D01*
X115090000Y-43200000D02*
X115130000Y-43240000D01*
X112575000Y-52559833D02*
X112575000Y-52348000D01*
X113590000Y-42405000D02*
X112575000Y-42405000D01*
X116770000Y-56165000D02*
X116770000Y-55420000D01*
X100935000Y-40340000D02*
X100085000Y-40340000D01*
%TO.N,+5V_MCU*%
X119790000Y-61412000D02*
X119790000Y-60605000D01*
X119290000Y-61412000D02*
X119790000Y-61412000D01*
D37*
X115080000Y-40755000D02*
X115090000Y-40765000D01*
X111280000Y-40860000D02*
X111385000Y-40755000D01*
X118735000Y-43563512D02*
X118735000Y-59550000D01*
X111385000Y-40755000D02*
X115080000Y-40755000D01*
X115936488Y-40765000D02*
X118735000Y-43563512D01*
D36*
X119790000Y-61412000D02*
X119790000Y-63088000D01*
D37*
X115090000Y-40765000D02*
X115936488Y-40765000D01*
X108740000Y-40860000D02*
X111280000Y-40860000D01*
D36*
X119790000Y-60605000D02*
X118735000Y-59550000D01*
%TO.N,Net-(IC2-IN)*%
X110910000Y-56320000D02*
X110910000Y-55300000D01*
D35*
X110680000Y-56550000D02*
X110910000Y-56320000D01*
D36*
X110910000Y-55300000D02*
X110670000Y-55060000D01*
D35*
X113080000Y-59720000D02*
X110680000Y-57320000D01*
X114765000Y-59720000D02*
X116770000Y-57715000D01*
D38*
X113130000Y-59720000D02*
X114580000Y-59720000D01*
D35*
X114580000Y-59720000D02*
X113080000Y-59720000D01*
X111970000Y-60880000D02*
X113130000Y-59720000D01*
X110680000Y-57320000D02*
X110680000Y-56550000D01*
X114580000Y-59720000D02*
X114765000Y-59720000D01*
X114580000Y-59586726D02*
X114580000Y-59720000D01*
X108280000Y-59720000D02*
X110680000Y-57320000D01*
X108140000Y-59720000D02*
X108280000Y-59720000D01*
D37*
%TO.N,+5V_MUX*%
X114580000Y-62020000D02*
X113260000Y-63340000D01*
X113260000Y-63340000D02*
X113260000Y-66500000D01*
%TO.N,VBUS_REV*%
X100190000Y-56680000D02*
X100190000Y-55870000D01*
X110820000Y-63120000D02*
X106630000Y-63120000D01*
X106630000Y-63120000D02*
X100190000Y-56680000D01*
D36*
%TO.N,Net-(IC2-OVLO{slash}OVCSEL)*%
X114675002Y-49831002D02*
X114480000Y-49636000D01*
X114675002Y-52810000D02*
X114675002Y-49831002D01*
%TO.N,Net-(IC2-~{FLT})*%
X111940000Y-48120000D02*
X111940000Y-49636000D01*
X111860000Y-48040000D02*
X111920000Y-48100000D01*
X111860000Y-46590000D02*
X111860000Y-48040000D01*
X111920000Y-48100000D02*
X111940000Y-48120000D01*
%TO.N,Net-(IC2-ILM)*%
X113210000Y-48140000D02*
X113220000Y-48130000D01*
X113210000Y-49636000D02*
X113210000Y-48140000D01*
%TO.N,Net-(IC2-EN{slash}UVLO)*%
X111940000Y-56120000D02*
X111940000Y-55060000D01*
X111810000Y-56250000D02*
X111940000Y-56120000D01*
%TO.N,/SPI_CS*%
X102385381Y-46435381D02*
X102370000Y-46435381D01*
X103155382Y-45665380D02*
X102385381Y-46435381D01*
X109030000Y-45460000D02*
X108824620Y-45665380D01*
X108824620Y-45665380D02*
X103155382Y-45665380D01*
%TO.N,/SPI_SCK*%
X102120415Y-43860000D02*
X101929827Y-43669412D01*
X107827469Y-43860000D02*
X102120415Y-43860000D01*
X108374587Y-44407118D02*
X107827469Y-43860000D01*
%TO.N,/SWDIO*%
X100085000Y-39340000D02*
X100935000Y-39340000D01*
X102241419Y-39503223D02*
X102078196Y-39340000D01*
X102078196Y-39340000D02*
X100935000Y-39340000D01*
X100075000Y-39330000D02*
X100085000Y-39340000D01*
X96140000Y-39330000D02*
X100075000Y-39330000D01*
X94120000Y-41350000D02*
X96140000Y-39330000D01*
%TO.N,/NRST*%
X100075000Y-41350000D02*
X100085000Y-41340000D01*
X100950000Y-41919239D02*
X101436141Y-42405380D01*
X102059412Y-43019412D02*
X103409412Y-43019412D01*
X100950000Y-41355000D02*
X100950000Y-41919239D01*
X103409412Y-43019412D02*
X103430000Y-43040000D01*
X101436141Y-42405380D02*
X101445380Y-42405380D01*
X101445380Y-42405380D02*
X102059412Y-43019412D01*
X100085000Y-41340000D02*
X100935000Y-41340000D01*
X100935000Y-41340000D02*
X100950000Y-41355000D01*
X99200000Y-41350000D02*
X100075000Y-41350000D01*
%TO.N,/SWCLK*%
X95390000Y-41350000D02*
X96910000Y-39830000D01*
X101700000Y-40080000D02*
X101460000Y-39840000D01*
X101700000Y-41750000D02*
X101700000Y-40080000D01*
X100075000Y-39830000D02*
X100085000Y-39840000D01*
X101460000Y-39840000D02*
X100935000Y-39840000D01*
X101705380Y-41755380D02*
X101700000Y-41750000D01*
X100085000Y-39840000D02*
X100935000Y-39840000D01*
X96910000Y-39830000D02*
X100075000Y-39830000D01*
%TO.N,/SPI_MISO*%
X107700000Y-45002883D02*
X107542883Y-45160000D01*
X102368245Y-45160000D02*
X102131529Y-45396716D01*
X107542883Y-45160000D02*
X102368245Y-45160000D01*
%TO.N,/SPI_MOSI*%
X101850000Y-44510000D02*
X101800000Y-44560000D01*
X106846824Y-44510000D02*
X101850000Y-44510000D01*
D35*
%TO.N,Net-(IC4-BOOT0)*%
X106100000Y-57260000D02*
X106100000Y-58025000D01*
X106150000Y-57210000D02*
X106100000Y-57260000D01*
X106100000Y-58025000D02*
X106110000Y-58035000D01*
%TD*%
%TA.AperFunction,Conductor*%
%TO.N,VBUS_REV*%
G36*
X99765197Y-54774723D02*
G01*
X99768095Y-54775500D01*
X100903456Y-54775500D01*
X100970495Y-54795185D01*
X100991137Y-54811819D01*
X101357485Y-55178167D01*
X101388644Y-55230449D01*
X101454543Y-55451682D01*
X101459686Y-55489113D01*
X101450068Y-56075849D01*
X101449657Y-56084115D01*
X101438477Y-56218271D01*
X101413293Y-56283444D01*
X101356871Y-56324656D01*
X101328536Y-56331221D01*
X99350602Y-56549979D01*
X99281805Y-56537784D01*
X99230523Y-56490330D01*
X99223403Y-56476514D01*
X99156835Y-56324656D01*
X98950432Y-55853798D01*
X98940000Y-55804015D01*
X98940000Y-55267062D01*
X98951276Y-55215397D01*
X99122034Y-54842835D01*
X99167861Y-54790093D01*
X99234758Y-54770500D01*
X99733110Y-54770500D01*
X99765197Y-54774723D01*
G37*
%TD.AperFunction*%
%TD*%
%TA.AperFunction,Conductor*%
%TO.N,+5V_MUX*%
G36*
X117223019Y-60888496D02*
G01*
X117281110Y-60907697D01*
X117292519Y-60917490D01*
X117726061Y-61351032D01*
X117745945Y-61379549D01*
X117939999Y-61799999D01*
X117940000Y-61800000D01*
X117976785Y-61800593D01*
X118030187Y-61817264D01*
X118061769Y-61838367D01*
X118120252Y-61850000D01*
X118120253Y-61850000D01*
X118459747Y-61850000D01*
X118459748Y-61850000D01*
X118518231Y-61838367D01*
X118584552Y-61794052D01*
X118628867Y-61727731D01*
X118640500Y-61669248D01*
X118640500Y-61154752D01*
X118640499Y-61154750D01*
X118640499Y-61154744D01*
X118635910Y-61131678D01*
X118629970Y-61101815D01*
X118637160Y-61041057D01*
X118678691Y-60996126D01*
X118729127Y-60983523D01*
X118854476Y-60986134D01*
X118912258Y-61006250D01*
X118947183Y-61056488D01*
X118949510Y-61104427D01*
X118939500Y-61154749D01*
X118939500Y-61669246D01*
X118939501Y-61669258D01*
X118948103Y-61712500D01*
X118951133Y-61727731D01*
X118995448Y-61794052D01*
X118996001Y-61794422D01*
X118996682Y-61795285D01*
X119002343Y-61800946D01*
X119001673Y-61801615D01*
X119033881Y-61842471D01*
X119040000Y-61876737D01*
X119040000Y-62059994D01*
X119055285Y-62610274D01*
X119038001Y-62668967D01*
X119011328Y-62695336D01*
X118995452Y-62705944D01*
X118995445Y-62705951D01*
X118951134Y-62772266D01*
X118951132Y-62772272D01*
X118939501Y-62830741D01*
X118939500Y-62830753D01*
X118939500Y-63345250D01*
X118946748Y-63381686D01*
X118939556Y-63442447D01*
X118898024Y-63487377D01*
X118849650Y-63500000D01*
X118730350Y-63500000D01*
X118672159Y-63481093D01*
X118636195Y-63431593D01*
X118633252Y-63381686D01*
X118636625Y-63364727D01*
X118640500Y-63345248D01*
X118640500Y-62830752D01*
X118628867Y-62772269D01*
X118596801Y-62724279D01*
X118580124Y-62670454D01*
X118580000Y-62660000D01*
X118579999Y-62659999D01*
X118511819Y-62658759D01*
X118494308Y-62656873D01*
X118459755Y-62650000D01*
X118459748Y-62650000D01*
X118120252Y-62650000D01*
X118120251Y-62650000D01*
X118115418Y-62650476D01*
X118115382Y-62650119D01*
X118102042Y-62651309D01*
X118031499Y-62650027D01*
X118030000Y-62650000D01*
X118029999Y-62650000D01*
X117539826Y-63265519D01*
X117488786Y-63299260D01*
X117466575Y-63302757D01*
X113625198Y-63465542D01*
X113566258Y-63449116D01*
X113528231Y-63401183D01*
X113522024Y-63364727D01*
X113523253Y-63300846D01*
X113568123Y-60967588D01*
X113588146Y-60909773D01*
X113638328Y-60874768D01*
X113667604Y-60870494D01*
X117223019Y-60888496D01*
G37*
%TD.AperFunction*%
%TD*%
%TA.AperFunction,Conductor*%
%TO.N,GND*%
G36*
X120812181Y-39153724D02*
G01*
X120855350Y-39153723D01*
X120864192Y-39154038D01*
X121087128Y-39169981D01*
X121104639Y-39172498D01*
X121188321Y-39190700D01*
X121318713Y-39219064D01*
X121335679Y-39224046D01*
X121503313Y-39286569D01*
X121540940Y-39300603D01*
X121557034Y-39307953D01*
X121749308Y-39412942D01*
X121764182Y-39422500D01*
X121939561Y-39553788D01*
X121952932Y-39565374D01*
X122107840Y-39720283D01*
X122119426Y-39733655D01*
X122250702Y-39909024D01*
X122260267Y-39923907D01*
X122365255Y-40116183D01*
X122372605Y-40132278D01*
X122449157Y-40337535D01*
X122454141Y-40354510D01*
X122500704Y-40568578D01*
X122503221Y-40586091D01*
X122519183Y-40809349D01*
X122519499Y-40818192D01*
X122519499Y-40871023D01*
X122519500Y-40871039D01*
X122519500Y-45133647D01*
X122499815Y-45200686D01*
X122447011Y-45246441D01*
X122377853Y-45256385D01*
X122314297Y-45227360D01*
X122296547Y-45208375D01*
X122286763Y-45195420D01*
X122286763Y-45195419D01*
X122136041Y-45058019D01*
X122136039Y-45058017D01*
X121962642Y-44950655D01*
X121962635Y-44950651D01*
X121867546Y-44913814D01*
X121772456Y-44876976D01*
X121571976Y-44839500D01*
X121368024Y-44839500D01*
X121167544Y-44876976D01*
X121167541Y-44876976D01*
X121167541Y-44876977D01*
X120977364Y-44950651D01*
X120977357Y-44950655D01*
X120803960Y-45058017D01*
X120803958Y-45058019D01*
X120653237Y-45195418D01*
X120530327Y-45358178D01*
X120439422Y-45540739D01*
X120439417Y-45540752D01*
X120383602Y-45736917D01*
X120364785Y-45939999D01*
X120364785Y-45940000D01*
X120383602Y-46143082D01*
X120439417Y-46339247D01*
X120439422Y-46339260D01*
X120530327Y-46521821D01*
X120653237Y-46684581D01*
X120803958Y-46821980D01*
X120803960Y-46821982D01*
X120862587Y-46858282D01*
X120977363Y-46929348D01*
X121167544Y-47003024D01*
X121368024Y-47040500D01*
X121368026Y-47040500D01*
X121571974Y-47040500D01*
X121571976Y-47040500D01*
X121772456Y-47003024D01*
X121962637Y-46929348D01*
X122136041Y-46821981D01*
X122286764Y-46684579D01*
X122296546Y-46671624D01*
X122352654Y-46629990D01*
X122422365Y-46625297D01*
X122483548Y-46659039D01*
X122516776Y-46720502D01*
X122519500Y-46746352D01*
X122519500Y-47673647D01*
X122499815Y-47740686D01*
X122447011Y-47786441D01*
X122377853Y-47796385D01*
X122314297Y-47767360D01*
X122296547Y-47748375D01*
X122286763Y-47735420D01*
X122286763Y-47735419D01*
X122136041Y-47598019D01*
X122136039Y-47598017D01*
X121962642Y-47490655D01*
X121962635Y-47490651D01*
X121842921Y-47444274D01*
X121772456Y-47416976D01*
X121571976Y-47379500D01*
X121368024Y-47379500D01*
X121167544Y-47416976D01*
X121167541Y-47416976D01*
X121167541Y-47416977D01*
X120977364Y-47490651D01*
X120977357Y-47490655D01*
X120803960Y-47598017D01*
X120803958Y-47598019D01*
X120653237Y-47735418D01*
X120530327Y-47898178D01*
X120439422Y-48080739D01*
X120439417Y-48080752D01*
X120383602Y-48276917D01*
X120364785Y-48479999D01*
X120364785Y-48480000D01*
X120383602Y-48683082D01*
X120439417Y-48879247D01*
X120439422Y-48879260D01*
X120530327Y-49061821D01*
X120653237Y-49224581D01*
X120803958Y-49361980D01*
X120803960Y-49361982D01*
X120869227Y-49402393D01*
X120977363Y-49469348D01*
X121167544Y-49543024D01*
X121368024Y-49580500D01*
X121368026Y-49580500D01*
X121571974Y-49580500D01*
X121571976Y-49580500D01*
X121772456Y-49543024D01*
X121962637Y-49469348D01*
X122136041Y-49361981D01*
X122286764Y-49224579D01*
X122296546Y-49211624D01*
X122352654Y-49169990D01*
X122422365Y-49165297D01*
X122483548Y-49199039D01*
X122516776Y-49260502D01*
X122519500Y-49286352D01*
X122519500Y-50213647D01*
X122499815Y-50280686D01*
X122447011Y-50326441D01*
X122377853Y-50336385D01*
X122314297Y-50307360D01*
X122296547Y-50288375D01*
X122286763Y-50275420D01*
X122286763Y-50275419D01*
X122136041Y-50138019D01*
X122136039Y-50138017D01*
X121962642Y-50030655D01*
X121962635Y-50030651D01*
X121865546Y-49993039D01*
X121772456Y-49956976D01*
X121571976Y-49919500D01*
X121368024Y-49919500D01*
X121167544Y-49956976D01*
X121167541Y-49956976D01*
X121167541Y-49956977D01*
X120977364Y-50030651D01*
X120977357Y-50030655D01*
X120803960Y-50138017D01*
X120803958Y-50138019D01*
X120653237Y-50275418D01*
X120530327Y-50438178D01*
X120439422Y-50620739D01*
X120439417Y-50620752D01*
X120383602Y-50816917D01*
X120364785Y-51019999D01*
X120364785Y-51020000D01*
X120383602Y-51223082D01*
X120439417Y-51419247D01*
X120439422Y-51419260D01*
X120530327Y-51601821D01*
X120653237Y-51764581D01*
X120803958Y-51901980D01*
X120803960Y-51901982D01*
X120903141Y-51963392D01*
X120977363Y-52009348D01*
X121167544Y-52083024D01*
X121368024Y-52120500D01*
X121368026Y-52120500D01*
X121571974Y-52120500D01*
X121571976Y-52120500D01*
X121772456Y-52083024D01*
X121962637Y-52009348D01*
X122136041Y-51901981D01*
X122286764Y-51764579D01*
X122296546Y-51751624D01*
X122352654Y-51709990D01*
X122422365Y-51705297D01*
X122483548Y-51739039D01*
X122516776Y-51800502D01*
X122519500Y-51826352D01*
X122519500Y-52753647D01*
X122499815Y-52820686D01*
X122447011Y-52866441D01*
X122377853Y-52876385D01*
X122314297Y-52847360D01*
X122296547Y-52828375D01*
X122286763Y-52815420D01*
X122286763Y-52815419D01*
X122136041Y-52678019D01*
X122136039Y-52678017D01*
X121962642Y-52570655D01*
X121962635Y-52570651D01*
X121798744Y-52507160D01*
X121772456Y-52496976D01*
X121571976Y-52459500D01*
X121368024Y-52459500D01*
X121167544Y-52496976D01*
X121167541Y-52496976D01*
X121167541Y-52496977D01*
X120977364Y-52570651D01*
X120977357Y-52570655D01*
X120803960Y-52678017D01*
X120803958Y-52678019D01*
X120653237Y-52815418D01*
X120530327Y-52978178D01*
X120439422Y-53160739D01*
X120439417Y-53160752D01*
X120383602Y-53356917D01*
X120364785Y-53559999D01*
X120364785Y-53560000D01*
X120383602Y-53763082D01*
X120439417Y-53959247D01*
X120439422Y-53959260D01*
X120530327Y-54141821D01*
X120653237Y-54304581D01*
X120803958Y-54441980D01*
X120803960Y-54441982D01*
X120862587Y-54478282D01*
X120977363Y-54549348D01*
X121167544Y-54623024D01*
X121368024Y-54660500D01*
X121368026Y-54660500D01*
X121571974Y-54660500D01*
X121571976Y-54660500D01*
X121772456Y-54623024D01*
X121962637Y-54549348D01*
X122136041Y-54441981D01*
X122286764Y-54304579D01*
X122296546Y-54291624D01*
X122352654Y-54249990D01*
X122422365Y-54245297D01*
X122483548Y-54279039D01*
X122516776Y-54340502D01*
X122519500Y-54366352D01*
X122519500Y-55293647D01*
X122499815Y-55360686D01*
X122447011Y-55406441D01*
X122377853Y-55416385D01*
X122314297Y-55387360D01*
X122296547Y-55368375D01*
X122286763Y-55355420D01*
X122286763Y-55355419D01*
X122136041Y-55218019D01*
X122136039Y-55218017D01*
X121962642Y-55110655D01*
X121962635Y-55110651D01*
X121815897Y-55053805D01*
X121772456Y-55036976D01*
X121571976Y-54999500D01*
X121368024Y-54999500D01*
X121167544Y-55036976D01*
X121167541Y-55036976D01*
X121167541Y-55036977D01*
X120977364Y-55110651D01*
X120977357Y-55110655D01*
X120803960Y-55218017D01*
X120803958Y-55218019D01*
X120653237Y-55355418D01*
X120530327Y-55518178D01*
X120439422Y-55700739D01*
X120439417Y-55700752D01*
X120383602Y-55896917D01*
X120364785Y-56099999D01*
X120364785Y-56100000D01*
X120383602Y-56303082D01*
X120439417Y-56499247D01*
X120439422Y-56499260D01*
X120530327Y-56681821D01*
X120653237Y-56844581D01*
X120803958Y-56981980D01*
X120803960Y-56981982D01*
X120903141Y-57043392D01*
X120977363Y-57089348D01*
X121167544Y-57163024D01*
X121368024Y-57200500D01*
X121368026Y-57200500D01*
X121571974Y-57200500D01*
X121571976Y-57200500D01*
X121772456Y-57163024D01*
X121962637Y-57089348D01*
X122136041Y-56981981D01*
X122286764Y-56844579D01*
X122296546Y-56831624D01*
X122352654Y-56789990D01*
X122422365Y-56785297D01*
X122483548Y-56819039D01*
X122516776Y-56880502D01*
X122519500Y-56906352D01*
X122519500Y-57833647D01*
X122499815Y-57900686D01*
X122447011Y-57946441D01*
X122377853Y-57956385D01*
X122314297Y-57927360D01*
X122296547Y-57908375D01*
X122286763Y-57895420D01*
X122286763Y-57895419D01*
X122136041Y-57758019D01*
X122136039Y-57758017D01*
X121962642Y-57650655D01*
X121962635Y-57650651D01*
X121780264Y-57580001D01*
X121772456Y-57576976D01*
X121571976Y-57539500D01*
X121368024Y-57539500D01*
X121167544Y-57576976D01*
X121167541Y-57576976D01*
X121167541Y-57576977D01*
X120977364Y-57650651D01*
X120977357Y-57650655D01*
X120803960Y-57758017D01*
X120803958Y-57758019D01*
X120653237Y-57895418D01*
X120530327Y-58058178D01*
X120439422Y-58240739D01*
X120439417Y-58240752D01*
X120383602Y-58436917D01*
X120364785Y-58639999D01*
X120364785Y-58640000D01*
X120383602Y-58843082D01*
X120439417Y-59039247D01*
X120439422Y-59039260D01*
X120530327Y-59221821D01*
X120653237Y-59384581D01*
X120803958Y-59521980D01*
X120803960Y-59521982D01*
X120863747Y-59559000D01*
X120977363Y-59629348D01*
X121167544Y-59703024D01*
X121368024Y-59740500D01*
X121368026Y-59740500D01*
X121571974Y-59740500D01*
X121571976Y-59740500D01*
X121772456Y-59703024D01*
X121962637Y-59629348D01*
X122136041Y-59521981D01*
X122286764Y-59384579D01*
X122296546Y-59371624D01*
X122352654Y-59329990D01*
X122422365Y-59325297D01*
X122483548Y-59359039D01*
X122516776Y-59420502D01*
X122519500Y-59446352D01*
X122519500Y-67588543D01*
X122519184Y-67597395D01*
X122503228Y-67820339D01*
X122500709Y-67837849D01*
X122454137Y-68051900D01*
X122449153Y-68068874D01*
X122372588Y-68274137D01*
X122365238Y-68290230D01*
X122260247Y-68482496D01*
X122250682Y-68497379D01*
X122119395Y-68672753D01*
X122107809Y-68686123D01*
X121952908Y-68841021D01*
X121939539Y-68852606D01*
X121764163Y-68983892D01*
X121749280Y-68993457D01*
X121557007Y-69098448D01*
X121540915Y-69105797D01*
X121335664Y-69182356D01*
X121318689Y-69187340D01*
X121104625Y-69233913D01*
X121087114Y-69236432D01*
X120863855Y-69252407D01*
X120855005Y-69252723D01*
X105174218Y-69252723D01*
X105107179Y-69233038D01*
X105061424Y-69180234D01*
X105051480Y-69111076D01*
X105080505Y-69047520D01*
X105082068Y-69045751D01*
X105111859Y-69012665D01*
X105201250Y-68857835D01*
X105256497Y-68687803D01*
X105275185Y-68510000D01*
X105256497Y-68332197D01*
X105201250Y-68162165D01*
X105111859Y-68007335D01*
X105057949Y-67947462D01*
X104992235Y-67874478D01*
X104992232Y-67874476D01*
X104992231Y-67874475D01*
X104992230Y-67874474D01*
X104847593Y-67769388D01*
X104684267Y-67696671D01*
X104684265Y-67696670D01*
X104556594Y-67669533D01*
X104509391Y-67659500D01*
X104330609Y-67659500D01*
X104299954Y-67666015D01*
X104155733Y-67696670D01*
X104155728Y-67696672D01*
X103992408Y-67769387D01*
X103847768Y-67874475D01*
X103728140Y-68007336D01*
X103638750Y-68162164D01*
X103638747Y-68162170D01*
X103583504Y-68332192D01*
X103583503Y-68332194D01*
X103564815Y-68510000D01*
X103583503Y-68687805D01*
X103583504Y-68687807D01*
X103638747Y-68857829D01*
X103638750Y-68857835D01*
X103728141Y-69012665D01*
X103757932Y-69045751D01*
X103788162Y-69108742D01*
X103779537Y-69178077D01*
X103734796Y-69231743D01*
X103668143Y-69252701D01*
X103665782Y-69252723D01*
X94137819Y-69252723D01*
X94137807Y-69252722D01*
X94084648Y-69252722D01*
X94075804Y-69252406D01*
X93852862Y-69236465D01*
X93835358Y-69233949D01*
X93621273Y-69187380D01*
X93604314Y-69182400D01*
X93399053Y-69105844D01*
X93382960Y-69098494D01*
X93190683Y-68993504D01*
X93175800Y-68983940D01*
X93000421Y-68852656D01*
X92987049Y-68841070D01*
X92832141Y-68686164D01*
X92820555Y-68672793D01*
X92689268Y-68497416D01*
X92679703Y-68482532D01*
X92597613Y-68332197D01*
X92574711Y-68290256D01*
X92567367Y-68274173D01*
X92490804Y-68068900D01*
X92485822Y-68051930D01*
X92439254Y-67837862D01*
X92436737Y-67820355D01*
X92434114Y-67783684D01*
X92420816Y-67597733D01*
X92420500Y-67588888D01*
X92420500Y-66411504D01*
X92950000Y-66411504D01*
X92950000Y-66660000D01*
X93650000Y-66660000D01*
X93650000Y-67160000D01*
X92950000Y-67160000D01*
X92950000Y-67408495D01*
X92988427Y-67601681D01*
X92988430Y-67601693D01*
X93063807Y-67783671D01*
X93063814Y-67783684D01*
X93173248Y-67947462D01*
X93173251Y-67947466D01*
X93312533Y-68086748D01*
X93312537Y-68086751D01*
X93476315Y-68196185D01*
X93476328Y-68196192D01*
X93658308Y-68271569D01*
X93700000Y-68279862D01*
X93700000Y-67476988D01*
X93709940Y-67494205D01*
X93765795Y-67550060D01*
X93834204Y-67589556D01*
X93910504Y-67610000D01*
X93989496Y-67610000D01*
X94065796Y-67589556D01*
X94134205Y-67550060D01*
X94190060Y-67494205D01*
X94200000Y-67476988D01*
X94200000Y-68279862D01*
X94241690Y-68271569D01*
X94241692Y-68271569D01*
X94423671Y-68196192D01*
X94423684Y-68196185D01*
X94587462Y-68086751D01*
X94587466Y-68086748D01*
X94726748Y-67947466D01*
X94726751Y-67947462D01*
X94836185Y-67783684D01*
X94836192Y-67783671D01*
X94911569Y-67601693D01*
X94911572Y-67601681D01*
X94949999Y-67408495D01*
X94950000Y-67408492D01*
X94950000Y-67160000D01*
X94250000Y-67160000D01*
X94250000Y-66660000D01*
X94950000Y-66660000D01*
X94950000Y-66411508D01*
X94949999Y-66411504D01*
X101590000Y-66411504D01*
X101590000Y-66660000D01*
X102290000Y-66660000D01*
X102290000Y-67160000D01*
X101590000Y-67160000D01*
X101590000Y-67408495D01*
X101628427Y-67601681D01*
X101628430Y-67601693D01*
X101703807Y-67783671D01*
X101703814Y-67783684D01*
X101813248Y-67947462D01*
X101813251Y-67947466D01*
X101952533Y-68086748D01*
X101952537Y-68086751D01*
X102116315Y-68196185D01*
X102116328Y-68196192D01*
X102298308Y-68271569D01*
X102340000Y-68279862D01*
X102340000Y-67476988D01*
X102349940Y-67494205D01*
X102405795Y-67550060D01*
X102474204Y-67589556D01*
X102550504Y-67610000D01*
X102629496Y-67610000D01*
X102705796Y-67589556D01*
X102774205Y-67550060D01*
X102830060Y-67494205D01*
X102840000Y-67476988D01*
X102840000Y-68279862D01*
X102881690Y-68271569D01*
X102881692Y-68271569D01*
X103063671Y-68196192D01*
X103063684Y-68196185D01*
X103227462Y-68086751D01*
X103227466Y-68086748D01*
X103366748Y-67947466D01*
X103366751Y-67947462D01*
X103476185Y-67783684D01*
X103476192Y-67783671D01*
X103551569Y-67601693D01*
X103551572Y-67601681D01*
X103589999Y-67408495D01*
X103590000Y-67408492D01*
X103590000Y-67160000D01*
X102890000Y-67160000D01*
X102890000Y-66660000D01*
X103590000Y-66660000D01*
X103590000Y-66411508D01*
X103589999Y-66411504D01*
X103551572Y-66218318D01*
X103551569Y-66218306D01*
X103476192Y-66036328D01*
X103476185Y-66036315D01*
X103366751Y-65872537D01*
X103366748Y-65872533D01*
X103227466Y-65733251D01*
X103227462Y-65733248D01*
X103063684Y-65623814D01*
X103063671Y-65623807D01*
X102881691Y-65548429D01*
X102881683Y-65548427D01*
X102840000Y-65540135D01*
X102840000Y-66343011D01*
X102830060Y-66325795D01*
X102774205Y-66269940D01*
X102705796Y-66230444D01*
X102629496Y-66210000D01*
X102550504Y-66210000D01*
X102474204Y-66230444D01*
X102405795Y-66269940D01*
X102349940Y-66325795D01*
X102340000Y-66343011D01*
X102340000Y-65540136D01*
X102339999Y-65540135D01*
X102298316Y-65548427D01*
X102298308Y-65548429D01*
X102116328Y-65623807D01*
X102116315Y-65623814D01*
X101952537Y-65733248D01*
X101952533Y-65733251D01*
X101813251Y-65872533D01*
X101813248Y-65872537D01*
X101703814Y-66036315D01*
X101703807Y-66036328D01*
X101628430Y-66218306D01*
X101628427Y-66218318D01*
X101590000Y-66411504D01*
X94949999Y-66411504D01*
X94911572Y-66218318D01*
X94911569Y-66218306D01*
X94836192Y-66036328D01*
X94836185Y-66036315D01*
X94726751Y-65872537D01*
X94726748Y-65872533D01*
X94587466Y-65733251D01*
X94587462Y-65733248D01*
X94423684Y-65623814D01*
X94423671Y-65623807D01*
X94241691Y-65548429D01*
X94241683Y-65548427D01*
X94200000Y-65540135D01*
X94200000Y-66343011D01*
X94190060Y-66325795D01*
X94134205Y-66269940D01*
X94065796Y-66230444D01*
X93989496Y-66210000D01*
X93910504Y-66210000D01*
X93834204Y-66230444D01*
X93765795Y-66269940D01*
X93709940Y-66325795D01*
X93700000Y-66343011D01*
X93700000Y-65540136D01*
X93699999Y-65540135D01*
X93658316Y-65548427D01*
X93658308Y-65548429D01*
X93476328Y-65623807D01*
X93476315Y-65623814D01*
X93312537Y-65733248D01*
X93312533Y-65733251D01*
X93173251Y-65872533D01*
X93173248Y-65872537D01*
X93063814Y-66036315D01*
X93063807Y-66036328D01*
X92988430Y-66218306D01*
X92988427Y-66218318D01*
X92950000Y-66411504D01*
X92420500Y-66411504D01*
X92420500Y-62081504D01*
X92950000Y-62081504D01*
X92950000Y-62480000D01*
X93650000Y-62480000D01*
X93650000Y-62980000D01*
X92950000Y-62980000D01*
X92950000Y-63378495D01*
X92988427Y-63571681D01*
X92988430Y-63571693D01*
X93063807Y-63753671D01*
X93063814Y-63753684D01*
X93173248Y-63917462D01*
X93173251Y-63917466D01*
X93312533Y-64056748D01*
X93312537Y-64056751D01*
X93476315Y-64166185D01*
X93476328Y-64166192D01*
X93658308Y-64241569D01*
X93700000Y-64249862D01*
X93700000Y-63446988D01*
X93709940Y-63464205D01*
X93765795Y-63520060D01*
X93834204Y-63559556D01*
X93910504Y-63580000D01*
X93989496Y-63580000D01*
X94065796Y-63559556D01*
X94134205Y-63520060D01*
X94190060Y-63464205D01*
X94200000Y-63446988D01*
X94200000Y-64249862D01*
X94241690Y-64241569D01*
X94241692Y-64241569D01*
X94423671Y-64166192D01*
X94423684Y-64166185D01*
X94587462Y-64056751D01*
X94587466Y-64056748D01*
X94726748Y-63917466D01*
X94726751Y-63917462D01*
X94836185Y-63753684D01*
X94836190Y-63753674D01*
X94860160Y-63695804D01*
X94904000Y-63641399D01*
X94970293Y-63619333D01*
X95037993Y-63636611D01*
X95050375Y-63646229D01*
X95050890Y-63645559D01*
X95057333Y-63650503D01*
X95057335Y-63650505D01*
X95177164Y-63719688D01*
X95310817Y-63755500D01*
X95310819Y-63755500D01*
X95449181Y-63755500D01*
X95449183Y-63755500D01*
X95582836Y-63719688D01*
X95702665Y-63650505D01*
X95800505Y-63552665D01*
X95869688Y-63432836D01*
X95905500Y-63299183D01*
X95905500Y-63160817D01*
X95869688Y-63027164D01*
X95800505Y-62907335D01*
X95702665Y-62809495D01*
X95702664Y-62809494D01*
X95702661Y-62809492D01*
X95582838Y-62740313D01*
X95582837Y-62740312D01*
X95582836Y-62740312D01*
X95449183Y-62704500D01*
X95310817Y-62704500D01*
X95177164Y-62740312D01*
X95177161Y-62740313D01*
X95057338Y-62809492D01*
X95057333Y-62809496D01*
X94959494Y-62907335D01*
X94953337Y-62918001D01*
X94902769Y-62966216D01*
X94845950Y-62980000D01*
X94250000Y-62980000D01*
X94250000Y-62480000D01*
X94950000Y-62480000D01*
X94950000Y-62081508D01*
X94949999Y-62081504D01*
X94911572Y-61888318D01*
X94911569Y-61888306D01*
X94836192Y-61706328D01*
X94836185Y-61706315D01*
X94726751Y-61542537D01*
X94726748Y-61542533D01*
X94587466Y-61403251D01*
X94587462Y-61403248D01*
X94423684Y-61293814D01*
X94423671Y-61293807D01*
X94241691Y-61218429D01*
X94241683Y-61218427D01*
X94200000Y-61210135D01*
X94200000Y-62013011D01*
X94190060Y-61995795D01*
X94134205Y-61939940D01*
X94065796Y-61900444D01*
X93989496Y-61880000D01*
X93910504Y-61880000D01*
X93834204Y-61900444D01*
X93765795Y-61939940D01*
X93709940Y-61995795D01*
X93700000Y-62013011D01*
X93700000Y-61210136D01*
X93699999Y-61210135D01*
X93658316Y-61218427D01*
X93658308Y-61218429D01*
X93476328Y-61293807D01*
X93476315Y-61293814D01*
X93312537Y-61403248D01*
X93312533Y-61403251D01*
X93173251Y-61542533D01*
X93173248Y-61542537D01*
X93063814Y-61706315D01*
X93063807Y-61706328D01*
X92988430Y-61888306D01*
X92988427Y-61888318D01*
X92950000Y-62081504D01*
X92420500Y-62081504D01*
X92420500Y-59446352D01*
X92440185Y-59379313D01*
X92492989Y-59333558D01*
X92562147Y-59323614D01*
X92625703Y-59352639D01*
X92643451Y-59371622D01*
X92653236Y-59384579D01*
X92653238Y-59384581D01*
X92803958Y-59521980D01*
X92803960Y-59521982D01*
X92863747Y-59559000D01*
X92977363Y-59629348D01*
X93167544Y-59703024D01*
X93368024Y-59740500D01*
X93368026Y-59740500D01*
X93571974Y-59740500D01*
X93571976Y-59740500D01*
X93772456Y-59703024D01*
X93962637Y-59629348D01*
X94136041Y-59521981D01*
X94286764Y-59384579D01*
X94409673Y-59221821D01*
X94500582Y-59039250D01*
X94556397Y-58843083D01*
X94575215Y-58640000D01*
X94575010Y-58637793D01*
X94556397Y-58436917D01*
X94514386Y-58289266D01*
X94500582Y-58240750D01*
X94495256Y-58230055D01*
X94482996Y-58161272D01*
X94509869Y-58096777D01*
X94518566Y-58087114D01*
X97798862Y-54806819D01*
X97860185Y-54773334D01*
X97886543Y-54770500D01*
X98680892Y-54770500D01*
X98747931Y-54790185D01*
X98793686Y-54842989D01*
X98803630Y-54912147D01*
X98793616Y-54946165D01*
X98719011Y-55108937D01*
X98701648Y-55160928D01*
X98690376Y-55212574D01*
X98690375Y-55212582D01*
X98684500Y-55267059D01*
X98684500Y-55804015D01*
X98689929Y-55856404D01*
X98689932Y-55856424D01*
X98700364Y-55906206D01*
X98716426Y-55956373D01*
X98922830Y-56427233D01*
X98922829Y-56427233D01*
X98929067Y-56441462D01*
X98939500Y-56491246D01*
X98939500Y-56778422D01*
X98970290Y-56972826D01*
X99031117Y-57160030D01*
X99078632Y-57253282D01*
X99120476Y-57335405D01*
X99236172Y-57494646D01*
X99236174Y-57494648D01*
X102804588Y-61063062D01*
X102838073Y-61124385D01*
X102836135Y-61151488D01*
X102840000Y-61151488D01*
X102840000Y-62013011D01*
X102830060Y-61995795D01*
X102774205Y-61939940D01*
X102705796Y-61900444D01*
X102629496Y-61880000D01*
X102550504Y-61880000D01*
X102474204Y-61900444D01*
X102405795Y-61939940D01*
X102349940Y-61995795D01*
X102340000Y-62013011D01*
X102340000Y-61210136D01*
X102339999Y-61210135D01*
X102298316Y-61218427D01*
X102298308Y-61218429D01*
X102116328Y-61293807D01*
X102116315Y-61293814D01*
X101952537Y-61403248D01*
X101952533Y-61403251D01*
X101813251Y-61542533D01*
X101813248Y-61542537D01*
X101703814Y-61706315D01*
X101703807Y-61706328D01*
X101628430Y-61888306D01*
X101628427Y-61888318D01*
X101590000Y-62081504D01*
X101590000Y-62480000D01*
X102290000Y-62480000D01*
X102290000Y-62980000D01*
X101694050Y-62980000D01*
X101627011Y-62960315D01*
X101586663Y-62918001D01*
X101580505Y-62907335D01*
X101482666Y-62809496D01*
X101482661Y-62809492D01*
X101362838Y-62740313D01*
X101362837Y-62740312D01*
X101362836Y-62740312D01*
X101229183Y-62704500D01*
X101090817Y-62704500D01*
X100957164Y-62740312D01*
X100957161Y-62740313D01*
X100837338Y-62809492D01*
X100837333Y-62809496D01*
X100739496Y-62907333D01*
X100739492Y-62907338D01*
X100670313Y-63027161D01*
X100670312Y-63027164D01*
X100634500Y-63160817D01*
X100634500Y-63299183D01*
X100659029Y-63390725D01*
X100670312Y-63432835D01*
X100670313Y-63432838D01*
X100739492Y-63552661D01*
X100739494Y-63552664D01*
X100739495Y-63552665D01*
X100837335Y-63650505D01*
X100957164Y-63719688D01*
X101090817Y-63755500D01*
X101090819Y-63755500D01*
X101229181Y-63755500D01*
X101229183Y-63755500D01*
X101362836Y-63719688D01*
X101482665Y-63650505D01*
X101482669Y-63650500D01*
X101489110Y-63645559D01*
X101491133Y-63648196D01*
X101538830Y-63622107D01*
X101608525Y-63627040D01*
X101664489Y-63668870D01*
X101679838Y-63695802D01*
X101703807Y-63753672D01*
X101703814Y-63753684D01*
X101813248Y-63917462D01*
X101813251Y-63917466D01*
X101952533Y-64056748D01*
X101952537Y-64056751D01*
X102116315Y-64166185D01*
X102116328Y-64166192D01*
X102298308Y-64241569D01*
X102340000Y-64249862D01*
X102340000Y-63446988D01*
X102349940Y-63464205D01*
X102405795Y-63520060D01*
X102474204Y-63559556D01*
X102550504Y-63580000D01*
X102629496Y-63580000D01*
X102705796Y-63559556D01*
X102774205Y-63520060D01*
X102830060Y-63464205D01*
X102840000Y-63446988D01*
X102840000Y-64249862D01*
X102881690Y-64241569D01*
X102881692Y-64241569D01*
X103063671Y-64166192D01*
X103063684Y-64166185D01*
X103227462Y-64056751D01*
X103227466Y-64056748D01*
X103366748Y-63917466D01*
X103366751Y-63917462D01*
X103476185Y-63753684D01*
X103476192Y-63753671D01*
X103551569Y-63571693D01*
X103551572Y-63571681D01*
X103589999Y-63378495D01*
X103590000Y-63378492D01*
X103590000Y-62980000D01*
X102890000Y-62980000D01*
X102890000Y-62480000D01*
X103590000Y-62480000D01*
X103590000Y-62147836D01*
X103609685Y-62080797D01*
X103662489Y-62035042D01*
X103731647Y-62025098D01*
X103795203Y-62054123D01*
X103801681Y-62060155D01*
X105676171Y-63934645D01*
X105676172Y-63934646D01*
X105815354Y-64073828D01*
X105974595Y-64189524D01*
X106076740Y-64241569D01*
X106149979Y-64278886D01*
X106234223Y-64306258D01*
X106276346Y-64319944D01*
X106276347Y-64319945D01*
X106276348Y-64319945D01*
X106337173Y-64339709D01*
X106410076Y-64351255D01*
X106531578Y-64370500D01*
X106531583Y-64370500D01*
X106728416Y-64370500D01*
X109946305Y-64370500D01*
X110013344Y-64390185D01*
X110059099Y-64442989D01*
X110069043Y-64512147D01*
X110044682Y-64569984D01*
X110006732Y-64619442D01*
X109985463Y-64647160D01*
X109924954Y-64793241D01*
X109922852Y-64801089D01*
X109920911Y-64800568D01*
X109897021Y-64854558D01*
X109890038Y-64862147D01*
X109289005Y-65463181D01*
X109227682Y-65496666D01*
X109201324Y-65499500D01*
X105302701Y-65499500D01*
X105235662Y-65479815D01*
X105227227Y-65473885D01*
X105144575Y-65410464D01*
X105144572Y-65410463D01*
X105144570Y-65410461D01*
X104998499Y-65349957D01*
X104998494Y-65349955D01*
X104841735Y-65329318D01*
X104841733Y-65329318D01*
X104684973Y-65349955D01*
X104684971Y-65349956D01*
X104538894Y-65410463D01*
X104413452Y-65506718D01*
X104317197Y-65632160D01*
X104256690Y-65778237D01*
X104256689Y-65778239D01*
X104236052Y-65934998D01*
X104236052Y-65935001D01*
X104256689Y-66091760D01*
X104256690Y-66091762D01*
X104304979Y-66208343D01*
X104317198Y-66237841D01*
X104413452Y-66363282D01*
X104538893Y-66459536D01*
X104684972Y-66520044D01*
X104763353Y-66530363D01*
X104841733Y-66540682D01*
X104841734Y-66540682D01*
X104841735Y-66540682D01*
X104893988Y-66533802D01*
X104998496Y-66520044D01*
X105022891Y-66509938D01*
X105070344Y-66500500D01*
X109525890Y-66500500D01*
X109525892Y-66500500D01*
X109653186Y-66466392D01*
X109767314Y-66400500D01*
X110597851Y-65569960D01*
X110659172Y-65536477D01*
X110665593Y-65535357D01*
X110666758Y-65535045D01*
X110666759Y-65535044D01*
X110666762Y-65535044D01*
X110812841Y-65474536D01*
X110938282Y-65378282D01*
X111034536Y-65252841D01*
X111095044Y-65106762D01*
X111115682Y-64950000D01*
X111095044Y-64793238D01*
X111034536Y-64647159D01*
X111034535Y-64647158D01*
X111034535Y-64647157D01*
X110959550Y-64549435D01*
X110934356Y-64484266D01*
X110948394Y-64415821D01*
X110997208Y-64365832D01*
X111038521Y-64351477D01*
X111112826Y-64339709D01*
X111300025Y-64278884D01*
X111475405Y-64189524D01*
X111507528Y-64166185D01*
X111575346Y-64116912D01*
X111600769Y-64102672D01*
X111692841Y-64064536D01*
X111810015Y-63974624D01*
X111875183Y-63949432D01*
X111943627Y-63963470D01*
X111993617Y-64012284D01*
X112009500Y-64073002D01*
X112009500Y-66598422D01*
X112040290Y-66792826D01*
X112101117Y-66980029D01*
X112190476Y-67155405D01*
X112306172Y-67314646D01*
X112445354Y-67453828D01*
X112604595Y-67569524D01*
X112659959Y-67597733D01*
X112779970Y-67658882D01*
X112779972Y-67658882D01*
X112779975Y-67658884D01*
X112880317Y-67691487D01*
X112967173Y-67719709D01*
X113161578Y-67750500D01*
X113161583Y-67750500D01*
X113358422Y-67750500D01*
X113552826Y-67719709D01*
X113740025Y-67658884D01*
X113915405Y-67569524D01*
X114074646Y-67453828D01*
X114213828Y-67314646D01*
X114329524Y-67155405D01*
X114418884Y-66980025D01*
X114450622Y-66882345D01*
X114490058Y-66824672D01*
X114554417Y-66797473D01*
X114623263Y-66809388D01*
X114674739Y-66856632D01*
X114686483Y-66882346D01*
X114686597Y-66882698D01*
X114686598Y-66882701D01*
X114740127Y-67047445D01*
X114818768Y-67201788D01*
X114920586Y-67341928D01*
X115043072Y-67464414D01*
X115183212Y-67566232D01*
X115337555Y-67644873D01*
X115502299Y-67698402D01*
X115673389Y-67725500D01*
X115673390Y-67725500D01*
X115846610Y-67725500D01*
X115846611Y-67725500D01*
X116017701Y-67698402D01*
X116182445Y-67644873D01*
X116336788Y-67566232D01*
X116476928Y-67464414D01*
X116599414Y-67341928D01*
X116687006Y-67221367D01*
X116742336Y-67178702D01*
X116811949Y-67172723D01*
X116873744Y-67205329D01*
X116908101Y-67266167D01*
X116910682Y-67281651D01*
X116920494Y-67377697D01*
X116975641Y-67544119D01*
X116975643Y-67544124D01*
X117067684Y-67693345D01*
X117191654Y-67817315D01*
X117340875Y-67909356D01*
X117340880Y-67909358D01*
X117507302Y-67964505D01*
X117507309Y-67964506D01*
X117610019Y-67974999D01*
X118009999Y-67974999D01*
X118010000Y-67974998D01*
X118010000Y-66904145D01*
X118076657Y-66942630D01*
X118197465Y-66975000D01*
X118322535Y-66975000D01*
X118443343Y-66942630D01*
X118510000Y-66904145D01*
X118510000Y-67974999D01*
X118909972Y-67974999D01*
X118909986Y-67974998D01*
X119012697Y-67964505D01*
X119179119Y-67909358D01*
X119179124Y-67909356D01*
X119328345Y-67817315D01*
X119452315Y-67693345D01*
X119544356Y-67544124D01*
X119544358Y-67544119D01*
X119599505Y-67377697D01*
X119599506Y-67377690D01*
X119609999Y-67274986D01*
X119610000Y-67274973D01*
X119610000Y-66750000D01*
X118664146Y-66750000D01*
X118702630Y-66683343D01*
X118735000Y-66562535D01*
X118735000Y-66437465D01*
X118702630Y-66316657D01*
X118664146Y-66250000D01*
X119609999Y-66250000D01*
X119609999Y-65975651D01*
X119629684Y-65908612D01*
X119682488Y-65862857D01*
X119751646Y-65852913D01*
X119801857Y-65871866D01*
X120052241Y-66035579D01*
X120053381Y-66036315D01*
X120054700Y-66037167D01*
X120056441Y-66038278D01*
X120056442Y-66038278D01*
X120056445Y-66038280D01*
X120100919Y-66057370D01*
X120132462Y-66070910D01*
X120132464Y-66070911D01*
X120147312Y-66074589D01*
X120191855Y-66085624D01*
X120271492Y-66092471D01*
X120271495Y-66092472D01*
X120271496Y-66092471D01*
X120271497Y-66092472D01*
X120492926Y-66076656D01*
X120555547Y-66064184D01*
X120602122Y-66048653D01*
X120659703Y-66021040D01*
X121072851Y-65754789D01*
X121109952Y-65725706D01*
X121136389Y-65700718D01*
X121167515Y-65665313D01*
X121172783Y-65658070D01*
X121459958Y-65263204D01*
X121459960Y-65263199D01*
X121459967Y-65263191D01*
X121493341Y-65200534D01*
X121512024Y-65149359D01*
X121526869Y-65079942D01*
X121554049Y-64699426D01*
X121554474Y-64670536D01*
X121553539Y-64648199D01*
X121553407Y-64646864D01*
X121550703Y-64619467D01*
X121550701Y-64619457D01*
X121550700Y-64619442D01*
X121506750Y-64338161D01*
X121486548Y-64271081D01*
X121476815Y-64249862D01*
X121464130Y-64222206D01*
X121464129Y-64222204D01*
X121464128Y-64222203D01*
X121464127Y-64222200D01*
X121426465Y-64163128D01*
X121367977Y-64094405D01*
X121350308Y-64073644D01*
X121350305Y-64073642D01*
X121050922Y-63721866D01*
X121033668Y-63703508D01*
X121019635Y-63689981D01*
X121000635Y-63673395D01*
X120657308Y-63402348D01*
X120657109Y-63402197D01*
X120648481Y-63395683D01*
X120641609Y-63390725D01*
X120641605Y-63390722D01*
X120559772Y-63351536D01*
X120559761Y-63351531D01*
X120500764Y-63335327D01*
X120500751Y-63335325D01*
X120421319Y-63326475D01*
X120421305Y-63326474D01*
X120320216Y-63331140D01*
X120252341Y-63314567D01*
X120204200Y-63263928D01*
X120190500Y-63207272D01*
X120190500Y-62825823D01*
X120175966Y-62752761D01*
X120175966Y-62752760D01*
X120161396Y-62730954D01*
X120140520Y-62664278D01*
X120140500Y-62662066D01*
X120140500Y-61837932D01*
X120160185Y-61770893D01*
X120161358Y-61769102D01*
X120175966Y-61747240D01*
X120190500Y-61674174D01*
X120190500Y-61149826D01*
X120190500Y-61149823D01*
X120175966Y-61076761D01*
X120175966Y-61076760D01*
X120161396Y-61054954D01*
X120140520Y-60988278D01*
X120140500Y-60986066D01*
X120140500Y-60558858D01*
X120140500Y-60558856D01*
X120116614Y-60469712D01*
X120106225Y-60451718D01*
X120070473Y-60389794D01*
X120070470Y-60389791D01*
X120070469Y-60389788D01*
X120005212Y-60324531D01*
X119895758Y-60215077D01*
X119862273Y-60153754D01*
X119867257Y-60084062D01*
X119872950Y-60071109D01*
X119893884Y-60030025D01*
X119954709Y-59842826D01*
X119956316Y-59832680D01*
X119985500Y-59648422D01*
X119985500Y-43465089D01*
X119954709Y-43270685D01*
X119932777Y-43203186D01*
X119915138Y-43148899D01*
X119893884Y-43083486D01*
X119804524Y-42908107D01*
X119688829Y-42748867D01*
X116751134Y-39811172D01*
X116591893Y-39695476D01*
X116562348Y-39680422D01*
X116416518Y-39606117D01*
X116229314Y-39545290D01*
X116034910Y-39514500D01*
X116034905Y-39514500D01*
X115251313Y-39514500D01*
X115231914Y-39512973D01*
X115178421Y-39504500D01*
X115178417Y-39504500D01*
X111483416Y-39504500D01*
X111286583Y-39504500D01*
X111286578Y-39504500D01*
X111092176Y-39535290D01*
X111092171Y-39535291D01*
X111048350Y-39549529D01*
X111048351Y-39549530D01*
X110904974Y-39596116D01*
X110900471Y-39597982D01*
X110900149Y-39597205D01*
X110848938Y-39609500D01*
X108800015Y-39609500D01*
X108789208Y-39609028D01*
X108740002Y-39604723D01*
X108739998Y-39604723D01*
X108690792Y-39609028D01*
X108679985Y-39609500D01*
X108641583Y-39609500D01*
X108591797Y-39617385D01*
X108583209Y-39618439D01*
X108522027Y-39623792D01*
X108522014Y-39623795D01*
X108485917Y-39633467D01*
X108473223Y-39636165D01*
X108447180Y-39640289D01*
X108447163Y-39640293D01*
X108387791Y-39659583D01*
X108381574Y-39661425D01*
X108336064Y-39673620D01*
X108310670Y-39680425D01*
X108310669Y-39680425D01*
X108310667Y-39680426D01*
X108287695Y-39691137D01*
X108273623Y-39696680D01*
X108259983Y-39701112D01*
X108259973Y-39701116D01*
X108193680Y-39734893D01*
X108189796Y-39736788D01*
X108112358Y-39772900D01*
X108101459Y-39780530D01*
X108086672Y-39789416D01*
X108084609Y-39790467D01*
X108084588Y-39790480D01*
X108014717Y-39841244D01*
X108012958Y-39842499D01*
X107933125Y-39898400D01*
X107933119Y-39898405D01*
X107778405Y-40053119D01*
X107778400Y-40053125D01*
X107722499Y-40132958D01*
X107721244Y-40134717D01*
X107670480Y-40204588D01*
X107670467Y-40204609D01*
X107669416Y-40206672D01*
X107660530Y-40221459D01*
X107652900Y-40232358D01*
X107616788Y-40309796D01*
X107614893Y-40313681D01*
X107578962Y-40384203D01*
X107530989Y-40435000D01*
X107463168Y-40451796D01*
X107397033Y-40429260D01*
X107356094Y-40380315D01*
X107337528Y-40340500D01*
X107287102Y-40232362D01*
X107287099Y-40232358D01*
X107287099Y-40232357D01*
X107161599Y-40053124D01*
X107136234Y-40027759D01*
X107006877Y-39898402D01*
X106851229Y-39789416D01*
X106827638Y-39772897D01*
X106714703Y-39720235D01*
X106629330Y-39680425D01*
X106629326Y-39680424D01*
X106629322Y-39680422D01*
X106417977Y-39623793D01*
X106200002Y-39604723D01*
X106199998Y-39604723D01*
X106055269Y-39617385D01*
X105982023Y-39623793D01*
X105982020Y-39623793D01*
X105770677Y-39680422D01*
X105770668Y-39680426D01*
X105572361Y-39772898D01*
X105572357Y-39772900D01*
X105393121Y-39898402D01*
X105371681Y-39919843D01*
X105310358Y-39953328D01*
X105240666Y-39948344D01*
X105184733Y-39906472D01*
X105160316Y-39841008D01*
X105160000Y-39832162D01*
X105160000Y-39812172D01*
X105159999Y-39812155D01*
X105153598Y-39752627D01*
X105153596Y-39752620D01*
X105103354Y-39617913D01*
X105103350Y-39617906D01*
X105017190Y-39502812D01*
X105017187Y-39502809D01*
X104902093Y-39416649D01*
X104902086Y-39416645D01*
X104841116Y-39393905D01*
X104785182Y-39352034D01*
X104760765Y-39286569D01*
X104775617Y-39218296D01*
X104825022Y-39168891D01*
X104884449Y-39153723D01*
X120812178Y-39153723D01*
X120812181Y-39153724D01*
G37*
%TD.AperFunction*%
%TA.AperFunction,Conductor*%
G36*
X117867846Y-63405652D02*
G01*
X117921876Y-63449953D01*
X117922525Y-63450915D01*
X117959197Y-63505799D01*
X117959399Y-63506101D01*
X118025237Y-63550092D01*
X118042260Y-63561466D01*
X118042264Y-63561467D01*
X118115321Y-63575999D01*
X118115324Y-63576000D01*
X118115326Y-63576000D01*
X118362115Y-63576000D01*
X118429154Y-63595685D01*
X118462431Y-63627111D01*
X118465451Y-63631267D01*
X118465450Y-63631267D01*
X118465452Y-63631270D01*
X118465455Y-63631273D01*
X118506226Y-63675378D01*
X118506228Y-63675379D01*
X118593201Y-63724085D01*
X118593204Y-63724086D01*
X118593207Y-63724088D01*
X118593209Y-63724088D01*
X118593210Y-63724089D01*
X118647211Y-63741635D01*
X118704886Y-63781072D01*
X118732085Y-63845431D01*
X118724409Y-63904645D01*
X118629690Y-64147360D01*
X118615515Y-64199276D01*
X118608865Y-64240211D01*
X118605877Y-64293950D01*
X118624013Y-64656649D01*
X118624014Y-64656659D01*
X118629385Y-64697521D01*
X118635731Y-64727079D01*
X118636068Y-64728646D01*
X118636073Y-64728665D01*
X118636075Y-64728670D01*
X118647938Y-64768108D01*
X118657772Y-64793238D01*
X118682259Y-64855815D01*
X118688357Y-64925417D01*
X118655857Y-64987268D01*
X118595077Y-65021729D01*
X118566785Y-65025000D01*
X118510000Y-65025000D01*
X118510000Y-66095854D01*
X118443343Y-66057370D01*
X118322535Y-66025000D01*
X118197465Y-66025000D01*
X118076657Y-66057370D01*
X118010000Y-66095854D01*
X118010000Y-65025000D01*
X117610028Y-65025000D01*
X117610012Y-65025001D01*
X117507302Y-65035494D01*
X117340880Y-65090641D01*
X117340875Y-65090643D01*
X117191654Y-65182684D01*
X117067684Y-65306654D01*
X116975643Y-65455875D01*
X116975641Y-65455880D01*
X116920494Y-65622302D01*
X116920493Y-65622309D01*
X116910681Y-65718349D01*
X116884284Y-65783040D01*
X116827103Y-65823191D01*
X116757292Y-65826054D01*
X116697016Y-65790719D01*
X116687009Y-65778636D01*
X116599414Y-65658072D01*
X116476928Y-65535586D01*
X116336788Y-65433768D01*
X116182445Y-65355127D01*
X116017701Y-65301598D01*
X116017699Y-65301597D01*
X116017698Y-65301597D01*
X115886271Y-65280781D01*
X115846611Y-65274500D01*
X115673389Y-65274500D01*
X115633728Y-65280781D01*
X115502302Y-65301597D01*
X115502299Y-65301598D01*
X115353467Y-65349957D01*
X115337552Y-65355128D01*
X115183211Y-65433768D01*
X115128008Y-65473876D01*
X115043072Y-65535586D01*
X115043070Y-65535588D01*
X115043069Y-65535588D01*
X114920588Y-65658069D01*
X114920588Y-65658070D01*
X114920586Y-65658072D01*
X114889602Y-65700718D01*
X114818768Y-65798211D01*
X114744985Y-65943020D01*
X114697011Y-65993816D01*
X114629190Y-66010611D01*
X114563055Y-65988074D01*
X114519603Y-65933359D01*
X114510500Y-65886725D01*
X114510500Y-63909335D01*
X114530185Y-63842296D01*
X114546810Y-63821663D01*
X114658268Y-63710204D01*
X114719587Y-63676722D01*
X114740689Y-63673999D01*
X117477393Y-63558028D01*
X117506313Y-63555148D01*
X117528524Y-63551651D01*
X117537395Y-63550093D01*
X117629685Y-63512398D01*
X117680725Y-63478657D01*
X117735704Y-63428334D01*
X117798443Y-63397594D01*
X117867846Y-63405652D01*
G37*
%TD.AperFunction*%
%TA.AperFunction,Conductor*%
G36*
X101916380Y-55737327D02*
G01*
X101921334Y-55742016D01*
X103284788Y-57105470D01*
X103362457Y-57150312D01*
X103362456Y-57150315D01*
X103362472Y-57150320D01*
X103364712Y-57151614D01*
X103453856Y-57175500D01*
X103453857Y-57175500D01*
X103546144Y-57175500D01*
X104730884Y-57175500D01*
X104797923Y-57195185D01*
X104829257Y-57224010D01*
X104851718Y-57253282D01*
X104977159Y-57349536D01*
X105123238Y-57410044D01*
X105280000Y-57430682D01*
X105315954Y-57425948D01*
X105384987Y-57436713D01*
X105437244Y-57483092D01*
X105456130Y-57550361D01*
X105435650Y-57617161D01*
X105432259Y-57622019D01*
X105432206Y-57622119D01*
X105387353Y-57750298D01*
X105387353Y-57750300D01*
X105384500Y-57780730D01*
X105384500Y-58289269D01*
X105387353Y-58319699D01*
X105387353Y-58319701D01*
X105432206Y-58447880D01*
X105432207Y-58447882D01*
X105512850Y-58557150D01*
X105597004Y-58619258D01*
X105639254Y-58674905D01*
X105644713Y-58744562D01*
X105611645Y-58806111D01*
X105560263Y-58837412D01*
X105545605Y-58841979D01*
X105545604Y-58841980D01*
X105400122Y-58929927D01*
X105279927Y-59050122D01*
X105191980Y-59195604D01*
X105141409Y-59357893D01*
X105135000Y-59428427D01*
X105135000Y-59435000D01*
X105986000Y-59435000D01*
X106053039Y-59454685D01*
X106098794Y-59507489D01*
X106110000Y-59559000D01*
X106110000Y-59685000D01*
X106236000Y-59685000D01*
X106303039Y-59704685D01*
X106348794Y-59757489D01*
X106360000Y-59809000D01*
X106360000Y-60584999D01*
X106441581Y-60584999D01*
X106512102Y-60578591D01*
X106512107Y-60578590D01*
X106674396Y-60528018D01*
X106819877Y-60440072D01*
X106825783Y-60435446D01*
X106827066Y-60437084D01*
X106879123Y-60408649D01*
X106948816Y-60413623D01*
X107004756Y-60455485D01*
X107029183Y-60520946D01*
X107029500Y-60529811D01*
X107029500Y-61170001D01*
X107029501Y-61170019D01*
X107040000Y-61272796D01*
X107040001Y-61272799D01*
X107095185Y-61439331D01*
X107095189Y-61439340D01*
X107145696Y-61521225D01*
X107164136Y-61588617D01*
X107143213Y-61655281D01*
X107089571Y-61700050D01*
X107020240Y-61708711D01*
X106957233Y-61678514D01*
X106952476Y-61674002D01*
X105896319Y-60617845D01*
X105862834Y-60556522D01*
X105860000Y-60530164D01*
X105860000Y-59935000D01*
X105264836Y-59935000D01*
X105197797Y-59915315D01*
X105177155Y-59898681D01*
X101708892Y-56430418D01*
X101675407Y-56369095D01*
X101677724Y-56315119D01*
X101675811Y-56314680D01*
X101690679Y-56249998D01*
X101693094Y-56239490D01*
X101704274Y-56105334D01*
X101704842Y-56096803D01*
X101705253Y-56088537D01*
X101705534Y-56080037D01*
X101709671Y-55827661D01*
X101730450Y-55760957D01*
X101783997Y-55716074D01*
X101853309Y-55707265D01*
X101916380Y-55737327D01*
G37*
%TD.AperFunction*%
%TA.AperFunction,Conductor*%
G36*
X117419926Y-58325140D02*
G01*
X117469332Y-58374545D01*
X117484500Y-58433973D01*
X117484500Y-58887961D01*
X117464815Y-58955000D01*
X117412011Y-59000755D01*
X117347902Y-59011319D01*
X117334998Y-59010001D01*
X117334974Y-59010000D01*
X117060000Y-59010000D01*
X117060000Y-59886000D01*
X117040315Y-59953039D01*
X116987511Y-59998794D01*
X116936000Y-60010000D01*
X116684000Y-60010000D01*
X116616961Y-59990315D01*
X116571206Y-59937511D01*
X116560000Y-59886000D01*
X116560000Y-59010000D01*
X116482173Y-59010000D01*
X116415134Y-58990315D01*
X116369379Y-58937511D01*
X116359435Y-58868353D01*
X116388460Y-58804797D01*
X116394473Y-58798339D01*
X116740994Y-58451817D01*
X116802317Y-58418333D01*
X116828675Y-58415499D01*
X117065481Y-58415499D01*
X117065484Y-58415499D01*
X117122114Y-58409412D01*
X117250226Y-58361628D01*
X117286190Y-58334705D01*
X117351653Y-58310289D01*
X117419926Y-58325140D01*
G37*
%TD.AperFunction*%
%TA.AperFunction,Conductor*%
G36*
X107536339Y-41288308D02*
G01*
X107578960Y-41335795D01*
X107614894Y-41406320D01*
X107616791Y-41410209D01*
X107652898Y-41487639D01*
X107652901Y-41487645D01*
X107660518Y-41498522D01*
X107669427Y-41513347D01*
X107670476Y-41515405D01*
X107670478Y-41515409D01*
X107721235Y-41585268D01*
X107722491Y-41587029D01*
X107730606Y-41598618D01*
X107778402Y-41666877D01*
X107933123Y-41821598D01*
X108013007Y-41877533D01*
X108014608Y-41878675D01*
X108084595Y-41929524D01*
X108086642Y-41930567D01*
X108101474Y-41939479D01*
X108112361Y-41947102D01*
X108151565Y-41965383D01*
X108189790Y-41983208D01*
X108193679Y-41985105D01*
X108259975Y-42018884D01*
X108273617Y-42023316D01*
X108287692Y-42028859D01*
X108310670Y-42039575D01*
X108380258Y-42058221D01*
X108381594Y-42058579D01*
X108387808Y-42060419D01*
X108447174Y-42079709D01*
X108473227Y-42083834D01*
X108485912Y-42086530D01*
X108522023Y-42096207D01*
X108583209Y-42101559D01*
X108591776Y-42102610D01*
X108641583Y-42110500D01*
X108679985Y-42110500D01*
X108690792Y-42110972D01*
X108739998Y-42115277D01*
X108740000Y-42115277D01*
X108740002Y-42115277D01*
X108789208Y-42110972D01*
X108800015Y-42110500D01*
X111181583Y-42110500D01*
X111219985Y-42110500D01*
X111230792Y-42110972D01*
X111279998Y-42115277D01*
X111280000Y-42115277D01*
X111280002Y-42115277D01*
X111329208Y-42110972D01*
X111340015Y-42110500D01*
X111378416Y-42110500D01*
X111378417Y-42110500D01*
X111428209Y-42102613D01*
X111436799Y-42101558D01*
X111497977Y-42096207D01*
X111534087Y-42086530D01*
X111546757Y-42083836D01*
X111572826Y-42079709D01*
X111632193Y-42060418D01*
X111638374Y-42058586D01*
X111709330Y-42039575D01*
X111732296Y-42028865D01*
X111746386Y-42023315D01*
X111760026Y-42018884D01*
X111760037Y-42018878D01*
X111764536Y-42017016D01*
X111764858Y-42017793D01*
X111816064Y-42005500D01*
X112491000Y-42005500D01*
X112558039Y-42025185D01*
X112603794Y-42077989D01*
X112615000Y-42129500D01*
X112615000Y-42155000D01*
X114633638Y-42155000D01*
X114667694Y-42165000D01*
X114966000Y-42165000D01*
X115033039Y-42184685D01*
X115078794Y-42237489D01*
X115090000Y-42289000D01*
X115090000Y-42415000D01*
X115216000Y-42415000D01*
X115283039Y-42434685D01*
X115328794Y-42487489D01*
X115340000Y-42539000D01*
X115340000Y-43364999D01*
X115388308Y-43364999D01*
X115388322Y-43364998D01*
X115487607Y-43354855D01*
X115648481Y-43301547D01*
X115648492Y-43301542D01*
X115792728Y-43212575D01*
X115792732Y-43212572D01*
X115912572Y-43092732D01*
X115912575Y-43092728D01*
X116001542Y-42948492D01*
X116001547Y-42948481D01*
X116025412Y-42876462D01*
X116065184Y-42819017D01*
X116129700Y-42792194D01*
X116198476Y-42804509D01*
X116230799Y-42827785D01*
X117448181Y-44045167D01*
X117481666Y-44106490D01*
X117484500Y-44132848D01*
X117484500Y-55158431D01*
X117464815Y-55225470D01*
X117412011Y-55271225D01*
X117342853Y-55281169D01*
X117321497Y-55276137D01*
X117167608Y-55225144D01*
X117068322Y-55215000D01*
X117020000Y-55215000D01*
X117020000Y-56041000D01*
X117000315Y-56108039D01*
X116947511Y-56153794D01*
X116896000Y-56165000D01*
X116770000Y-56165000D01*
X116770000Y-56291000D01*
X116750315Y-56358039D01*
X116697511Y-56403794D01*
X116646000Y-56415000D01*
X115789000Y-56415000D01*
X115721961Y-56395315D01*
X115676206Y-56342511D01*
X115666821Y-56299372D01*
X115665000Y-56296437D01*
X115508514Y-56218828D01*
X115352587Y-56180049D01*
X115292280Y-56144767D01*
X115260622Y-56082481D01*
X115266333Y-56016380D01*
X115298596Y-55929880D01*
X115298598Y-55929872D01*
X115302705Y-55891677D01*
X115795000Y-55891677D01*
X115795000Y-55915000D01*
X116520000Y-55915000D01*
X116520000Y-55215000D01*
X116519999Y-55214999D01*
X116471693Y-55215000D01*
X116471675Y-55215001D01*
X116372392Y-55225144D01*
X116211518Y-55278452D01*
X116211507Y-55278457D01*
X116067271Y-55367424D01*
X116067267Y-55367427D01*
X115947427Y-55487267D01*
X115947424Y-55487271D01*
X115858457Y-55631507D01*
X115858452Y-55631518D01*
X115805144Y-55792393D01*
X115795000Y-55891677D01*
X115302705Y-55891677D01*
X115304999Y-55870344D01*
X115305000Y-55870327D01*
X115305000Y-55310000D01*
X114730000Y-55310000D01*
X114730000Y-56040000D01*
X114739976Y-56049976D01*
X114773039Y-56059685D01*
X114818794Y-56112489D01*
X114830000Y-56164000D01*
X114830000Y-57296000D01*
X114810315Y-57363039D01*
X114757511Y-57408794D01*
X114706000Y-57420000D01*
X114580000Y-57420000D01*
X114580000Y-57546000D01*
X114560315Y-57613039D01*
X114507511Y-57658794D01*
X114456000Y-57670000D01*
X113080000Y-57670000D01*
X113080000Y-57871096D01*
X113082897Y-57913824D01*
X113128831Y-58098523D01*
X113213390Y-58269022D01*
X113213392Y-58269025D01*
X113332632Y-58417366D01*
X113332633Y-58417367D01*
X113480974Y-58536607D01*
X113480973Y-58536607D01*
X113609236Y-58600219D01*
X113660548Y-58647640D01*
X113678077Y-58715275D01*
X113656258Y-58781650D01*
X113617263Y-58818039D01*
X113568580Y-58846830D01*
X113568574Y-58846834D01*
X113456834Y-58958574D01*
X113456830Y-58958580D01*
X113378245Y-59091459D01*
X113327175Y-59139142D01*
X113258433Y-59151645D01*
X113193844Y-59124999D01*
X113183832Y-59116018D01*
X111216819Y-57149005D01*
X111183334Y-57087682D01*
X111180500Y-57061324D01*
X111180500Y-56930502D01*
X111200185Y-56863463D01*
X111229010Y-56832128D01*
X111330129Y-56754537D01*
X111395296Y-56729345D01*
X111463740Y-56743383D01*
X111481094Y-56754536D01*
X111507159Y-56774536D01*
X111653238Y-56835044D01*
X111725337Y-56844536D01*
X111809999Y-56855682D01*
X111810000Y-56855682D01*
X111810001Y-56855682D01*
X111862254Y-56848802D01*
X111966762Y-56835044D01*
X112112841Y-56774536D01*
X112238282Y-56678282D01*
X112334536Y-56552841D01*
X112395044Y-56406762D01*
X112415682Y-56250000D01*
X112414498Y-56241009D01*
X112398289Y-56117887D01*
X112409055Y-56048852D01*
X112439144Y-56013918D01*
X112436964Y-56011738D01*
X112445597Y-56003103D01*
X112445601Y-56003101D01*
X112471897Y-55963744D01*
X112525509Y-55918939D01*
X112594834Y-55910230D01*
X112657861Y-55940384D01*
X112678101Y-55963743D01*
X112704399Y-56003101D01*
X112773238Y-56049097D01*
X112787260Y-56058466D01*
X112787264Y-56058467D01*
X112860321Y-56072999D01*
X112860324Y-56073000D01*
X113417184Y-56073000D01*
X113484223Y-56092685D01*
X113529978Y-56145489D01*
X113539922Y-56214647D01*
X113510897Y-56278203D01*
X113483971Y-56301477D01*
X113480975Y-56303392D01*
X113332633Y-56422632D01*
X113332632Y-56422633D01*
X113213392Y-56570974D01*
X113213390Y-56570977D01*
X113128831Y-56741476D01*
X113082897Y-56926175D01*
X113080000Y-56968903D01*
X113080000Y-57170000D01*
X114330000Y-57170000D01*
X114330000Y-56452500D01*
X114320023Y-56442523D01*
X114286961Y-56432815D01*
X114241206Y-56380011D01*
X114230000Y-56328500D01*
X114230000Y-55184000D01*
X114249685Y-55116961D01*
X114302489Y-55071206D01*
X114354000Y-55060000D01*
X114480000Y-55060000D01*
X114480000Y-54934000D01*
X114499685Y-54866961D01*
X114552489Y-54821206D01*
X114604000Y-54810000D01*
X115305000Y-54810000D01*
X115305000Y-54249672D01*
X115304999Y-54249655D01*
X115298598Y-54190127D01*
X115298596Y-54190120D01*
X115248354Y-54055413D01*
X115248350Y-54055406D01*
X115162190Y-53940312D01*
X115162187Y-53940309D01*
X115047093Y-53854149D01*
X115047086Y-53854145D01*
X114912379Y-53803903D01*
X114912372Y-53803901D01*
X114852844Y-53797500D01*
X114741364Y-53797500D01*
X114674325Y-53777815D01*
X114628570Y-53725011D01*
X114618075Y-53660244D01*
X114624999Y-53595844D01*
X114625000Y-53595827D01*
X114625000Y-53531009D01*
X114644685Y-53463970D01*
X114697489Y-53418215D01*
X114732811Y-53408071D01*
X114831764Y-53395044D01*
X114977843Y-53334536D01*
X115103284Y-53238282D01*
X115199538Y-53112841D01*
X115260046Y-52966762D01*
X115275584Y-52848738D01*
X115280684Y-52810001D01*
X115280684Y-52809998D01*
X115260046Y-52653239D01*
X115260046Y-52653238D01*
X115199538Y-52507159D01*
X115103284Y-52381718D01*
X115103281Y-52381716D01*
X115103280Y-52381714D01*
X115074015Y-52359258D01*
X115032813Y-52302830D01*
X115025502Y-52260883D01*
X115025502Y-50556998D01*
X115039624Y-50508902D01*
X115036293Y-50507522D01*
X115040967Y-50496238D01*
X115055499Y-50423178D01*
X115055500Y-50423176D01*
X115055500Y-48848823D01*
X115055499Y-48848821D01*
X115040967Y-48775764D01*
X115040966Y-48775763D01*
X115040966Y-48775760D01*
X114985601Y-48692899D01*
X114985600Y-48692898D01*
X114978816Y-48682744D01*
X114981731Y-48680796D01*
X114958148Y-48637607D01*
X114960238Y-48576654D01*
X115007166Y-48415128D01*
X115007167Y-48415122D01*
X115009931Y-48380000D01*
X114364000Y-48380000D01*
X114296961Y-48360315D01*
X114251206Y-48307511D01*
X114240000Y-48256000D01*
X114240000Y-48130000D01*
X114114000Y-48130000D01*
X114046961Y-48110315D01*
X114001206Y-48057511D01*
X113990000Y-48006000D01*
X113990000Y-47317154D01*
X114490000Y-47317154D01*
X114490000Y-47880000D01*
X115009931Y-47880000D01*
X115007167Y-47844877D01*
X115007166Y-47844871D01*
X114962407Y-47690811D01*
X114962406Y-47690808D01*
X114880738Y-47552714D01*
X114880731Y-47552705D01*
X114767294Y-47439268D01*
X114767285Y-47439261D01*
X114629191Y-47357593D01*
X114629188Y-47357591D01*
X114490001Y-47317153D01*
X114490000Y-47317154D01*
X113990000Y-47317154D01*
X113989998Y-47317153D01*
X113850811Y-47357591D01*
X113850808Y-47357593D01*
X113712714Y-47439261D01*
X113712705Y-47439268D01*
X113606387Y-47545587D01*
X113545064Y-47579072D01*
X113475372Y-47574088D01*
X113467631Y-47570761D01*
X113466523Y-47570419D01*
X113466518Y-47570418D01*
X113391582Y-47559500D01*
X113048418Y-47559500D01*
X112973482Y-47570418D01*
X112973480Y-47570418D01*
X112973478Y-47570419D01*
X112857900Y-47626921D01*
X112857897Y-47626923D01*
X112766923Y-47717897D01*
X112766921Y-47717900D01*
X112710419Y-47833478D01*
X112710418Y-47833480D01*
X112710418Y-47833482D01*
X112699500Y-47908418D01*
X112699500Y-48351582D01*
X112708758Y-48415122D01*
X112710418Y-48426519D01*
X112759502Y-48526922D01*
X112771260Y-48595795D01*
X112743917Y-48660092D01*
X112716995Y-48684482D01*
X112704399Y-48692898D01*
X112704398Y-48692899D01*
X112678102Y-48732255D01*
X112624490Y-48777061D01*
X112555165Y-48785768D01*
X112492138Y-48755614D01*
X112471898Y-48732255D01*
X112445601Y-48692899D01*
X112445600Y-48692898D01*
X112414415Y-48672061D01*
X112369609Y-48618449D01*
X112360902Y-48549124D01*
X112371905Y-48514498D01*
X112429581Y-48396520D01*
X112429580Y-48396520D01*
X112429582Y-48396518D01*
X112440500Y-48321582D01*
X112440500Y-47878418D01*
X112429582Y-47803482D01*
X112423446Y-47790930D01*
X112373078Y-47687900D01*
X112330500Y-47645322D01*
X112282102Y-47596924D01*
X112280033Y-47595912D01*
X112277704Y-47593784D01*
X112273739Y-47590953D01*
X112274081Y-47590473D01*
X112228454Y-47548782D01*
X112210500Y-47484515D01*
X112210500Y-47445462D01*
X112230185Y-47378423D01*
X112282989Y-47332668D01*
X112283915Y-47332249D01*
X112287593Y-47330612D01*
X112432230Y-47225526D01*
X112551859Y-47092665D01*
X112641250Y-46937835D01*
X112696497Y-46767803D01*
X112715185Y-46590000D01*
X112696497Y-46412197D01*
X112651347Y-46273239D01*
X112641252Y-46242170D01*
X112641249Y-46242164D01*
X112551859Y-46087335D01*
X112505003Y-46035296D01*
X112432235Y-45954478D01*
X112432232Y-45954476D01*
X112432231Y-45954475D01*
X112432230Y-45954474D01*
X112287593Y-45849388D01*
X112124267Y-45776671D01*
X112124265Y-45776670D01*
X111996594Y-45749533D01*
X111949391Y-45739500D01*
X111770609Y-45739500D01*
X111739954Y-45746015D01*
X111595733Y-45776670D01*
X111595728Y-45776672D01*
X111432408Y-45849387D01*
X111287768Y-45954475D01*
X111168140Y-46087336D01*
X111078750Y-46242164D01*
X111078747Y-46242170D01*
X111023504Y-46412192D01*
X111023503Y-46412194D01*
X111004815Y-46590000D01*
X111023503Y-46767805D01*
X111023504Y-46767807D01*
X111078747Y-46937829D01*
X111078750Y-46937835D01*
X111168141Y-47092665D01*
X111209812Y-47138946D01*
X111287764Y-47225521D01*
X111287767Y-47225523D01*
X111287770Y-47225526D01*
X111432407Y-47330612D01*
X111435931Y-47332181D01*
X111437641Y-47333634D01*
X111438034Y-47333861D01*
X111437992Y-47333932D01*
X111489169Y-47377427D01*
X111509494Y-47444274D01*
X111509500Y-47445462D01*
X111509500Y-47544959D01*
X111489815Y-47611998D01*
X111437011Y-47657753D01*
X111367853Y-47667697D01*
X111304297Y-47638672D01*
X111297819Y-47632640D01*
X111262102Y-47596923D01*
X111262099Y-47596921D01*
X111146521Y-47540419D01*
X111146519Y-47540418D01*
X111146518Y-47540418D01*
X111071582Y-47529500D01*
X110728418Y-47529500D01*
X110653482Y-47540418D01*
X110653480Y-47540418D01*
X110653478Y-47540419D01*
X110537900Y-47596921D01*
X110537897Y-47596923D01*
X110446923Y-47687897D01*
X110446921Y-47687900D01*
X110390418Y-47803479D01*
X110390417Y-47803482D01*
X110379587Y-47877816D01*
X110350443Y-47941317D01*
X110344569Y-47947615D01*
X110335251Y-47956934D01*
X110335245Y-47956941D01*
X110259500Y-48032686D01*
X110193608Y-48146812D01*
X110159500Y-48274108D01*
X110159500Y-48662616D01*
X110139815Y-48729655D01*
X110138603Y-48731505D01*
X110109033Y-48775759D01*
X110094500Y-48848823D01*
X110094500Y-49175500D01*
X110074815Y-49242539D01*
X110022011Y-49288294D01*
X109970500Y-49299500D01*
X109688521Y-49299500D01*
X109621482Y-49279815D01*
X109589253Y-49249809D01*
X109559690Y-49210317D01*
X109559686Y-49210312D01*
X109545188Y-49199459D01*
X109503317Y-49143524D01*
X109495500Y-49100193D01*
X109495500Y-47373675D01*
X109515185Y-47306636D01*
X109531815Y-47285998D01*
X109817852Y-46999960D01*
X109879173Y-46966477D01*
X109885580Y-46965360D01*
X109886754Y-46965044D01*
X109886762Y-46965044D01*
X110032841Y-46904536D01*
X110158282Y-46808282D01*
X110254536Y-46682841D01*
X110315044Y-46536762D01*
X110329100Y-46429998D01*
X110335682Y-46380001D01*
X110335682Y-46379998D01*
X110321564Y-46272760D01*
X110315044Y-46223238D01*
X110254536Y-46077159D01*
X110158282Y-45951718D01*
X110032841Y-45855464D01*
X110018172Y-45849388D01*
X109886762Y-45794956D01*
X109886760Y-45794955D01*
X109721942Y-45773257D01*
X109722272Y-45770748D01*
X109667388Y-45754633D01*
X109621633Y-45701829D01*
X109611689Y-45632671D01*
X109614651Y-45618229D01*
X109615041Y-45616766D01*
X109615044Y-45616762D01*
X109633360Y-45477634D01*
X109635682Y-45460001D01*
X109635682Y-45459998D01*
X109615044Y-45303239D01*
X109615044Y-45303238D01*
X109554536Y-45157159D01*
X109458282Y-45031718D01*
X109332841Y-44935464D01*
X109186762Y-44874956D01*
X109186760Y-44874955D01*
X109030001Y-44854318D01*
X109024907Y-44854318D01*
X108957868Y-44834633D01*
X108912113Y-44781829D01*
X108902169Y-44712671D01*
X108910346Y-44682866D01*
X108952877Y-44580185D01*
X108959631Y-44563880D01*
X108980269Y-44407118D01*
X108980159Y-44406286D01*
X108959631Y-44250357D01*
X108959631Y-44250356D01*
X108899123Y-44104277D01*
X108802869Y-43978836D01*
X108677428Y-43882582D01*
X108531349Y-43822074D01*
X108531347Y-43822073D01*
X108374589Y-43801436D01*
X108374585Y-43801436D01*
X108338009Y-43806251D01*
X108268974Y-43795485D01*
X108234144Y-43770993D01*
X108042682Y-43579531D01*
X108042677Y-43579527D01*
X107962759Y-43533387D01*
X107962758Y-43533386D01*
X107962757Y-43533386D01*
X107873613Y-43509500D01*
X107873612Y-43509500D01*
X104071083Y-43509500D01*
X104004044Y-43489815D01*
X103958289Y-43437011D01*
X103948345Y-43367853D01*
X103956522Y-43338048D01*
X103996667Y-43241128D01*
X104015044Y-43196762D01*
X104035682Y-43040000D01*
X104015044Y-42883238D01*
X103954536Y-42737159D01*
X103909389Y-42678322D01*
X112615001Y-42678322D01*
X112625144Y-42777607D01*
X112678452Y-42938481D01*
X112678457Y-42938492D01*
X112767424Y-43082728D01*
X112767427Y-43082732D01*
X112887267Y-43202572D01*
X112887271Y-43202575D01*
X113031507Y-43291542D01*
X113031518Y-43291547D01*
X113192393Y-43344855D01*
X113291683Y-43354999D01*
X113840000Y-43354999D01*
X113888308Y-43354999D01*
X113888322Y-43354998D01*
X113987607Y-43344855D01*
X114148481Y-43291547D01*
X114148488Y-43291544D01*
X114266795Y-43218570D01*
X114334187Y-43200129D01*
X114396990Y-43218570D01*
X114531507Y-43301542D01*
X114531518Y-43301547D01*
X114692393Y-43354855D01*
X114791683Y-43364999D01*
X114839999Y-43364998D01*
X114840000Y-43364998D01*
X114840000Y-42665000D01*
X114046362Y-42665000D01*
X114012306Y-42655000D01*
X113840000Y-42655000D01*
X113840000Y-43354999D01*
X113291683Y-43354999D01*
X113339999Y-43354998D01*
X113340000Y-43354998D01*
X113340000Y-42655000D01*
X112615001Y-42655000D01*
X112615001Y-42678322D01*
X103909389Y-42678322D01*
X103858282Y-42611718D01*
X103843821Y-42600621D01*
X103820042Y-42582375D01*
X103778840Y-42525947D01*
X103774685Y-42456201D01*
X103808898Y-42395281D01*
X103870615Y-42362529D01*
X103895529Y-42360000D01*
X104707828Y-42360000D01*
X104707844Y-42359999D01*
X104767372Y-42353598D01*
X104767379Y-42353596D01*
X104902086Y-42303354D01*
X104902093Y-42303350D01*
X105017187Y-42217190D01*
X105017190Y-42217187D01*
X105103350Y-42102093D01*
X105103354Y-42102086D01*
X105153596Y-41967379D01*
X105153598Y-41967372D01*
X105159999Y-41907844D01*
X105160000Y-41907827D01*
X105160000Y-41887837D01*
X105179685Y-41820798D01*
X105232489Y-41775043D01*
X105301647Y-41765099D01*
X105365203Y-41794124D01*
X105371681Y-41800156D01*
X105393123Y-41821598D01*
X105572361Y-41947102D01*
X105770670Y-42039575D01*
X105982023Y-42096207D01*
X106164926Y-42112208D01*
X106199998Y-42115277D01*
X106200000Y-42115277D01*
X106200002Y-42115277D01*
X106228254Y-42112805D01*
X106417977Y-42096207D01*
X106629330Y-42039575D01*
X106827639Y-41947102D01*
X107006877Y-41821598D01*
X107161598Y-41666877D01*
X107287102Y-41487639D01*
X107356096Y-41339679D01*
X107402264Y-41287245D01*
X107469458Y-41268093D01*
X107536339Y-41288308D01*
G37*
%TD.AperFunction*%
%TA.AperFunction,Conductor*%
G36*
X106962695Y-58376911D02*
G01*
X107013097Y-58425299D01*
X107029500Y-58486933D01*
X107029500Y-58840188D01*
X107009815Y-58907227D01*
X106957011Y-58952982D01*
X106887853Y-58962926D01*
X106824297Y-58933901D01*
X106820838Y-58930680D01*
X106819877Y-58929927D01*
X106674397Y-58841981D01*
X106659737Y-58837413D01*
X106601590Y-58798674D01*
X106573617Y-58734649D01*
X106584699Y-58665664D01*
X106622993Y-58619259D01*
X106707150Y-58557150D01*
X106787793Y-58447882D01*
X106788460Y-58445974D01*
X106789753Y-58444172D01*
X106792133Y-58439669D01*
X106792749Y-58439994D01*
X106829180Y-58389202D01*
X106894133Y-58363455D01*
X106962695Y-58376911D01*
G37*
%TD.AperFunction*%
%TA.AperFunction,Conductor*%
G36*
X110037539Y-50320185D02*
G01*
X110083294Y-50372989D01*
X110092914Y-50417211D01*
X110093903Y-50417114D01*
X110094500Y-50423178D01*
X110109032Y-50496235D01*
X110109033Y-50496239D01*
X110116572Y-50507522D01*
X110164399Y-50579101D01*
X110247250Y-50634459D01*
X110247260Y-50634466D01*
X110247264Y-50634467D01*
X110320321Y-50648999D01*
X110320324Y-50649000D01*
X110526248Y-50649000D01*
X110593287Y-50668685D01*
X110639042Y-50721489D01*
X110648986Y-50790647D01*
X110625515Y-50847311D01*
X110581647Y-50905911D01*
X110581645Y-50905913D01*
X110531403Y-51040620D01*
X110531401Y-51040627D01*
X110525000Y-51100155D01*
X110525000Y-52098000D01*
X112451000Y-52098000D01*
X112518039Y-52117685D01*
X112563794Y-52170489D01*
X112575000Y-52222000D01*
X112575000Y-52474000D01*
X112555315Y-52541039D01*
X112502511Y-52586794D01*
X112451000Y-52598000D01*
X110525000Y-52598000D01*
X110525000Y-53595844D01*
X110531401Y-53655372D01*
X110531403Y-53655379D01*
X110581645Y-53790086D01*
X110581647Y-53790088D01*
X110625515Y-53848689D01*
X110649932Y-53914153D01*
X110635081Y-53982426D01*
X110585676Y-54031832D01*
X110526248Y-54047000D01*
X110320323Y-54047000D01*
X110247264Y-54061532D01*
X110247260Y-54061533D01*
X110164399Y-54116899D01*
X110109033Y-54199760D01*
X110109032Y-54199764D01*
X110094500Y-54272821D01*
X110094500Y-55736428D01*
X110074815Y-55803467D01*
X110022011Y-55849222D01*
X109952853Y-55859166D01*
X109895015Y-55834805D01*
X109882841Y-55825464D01*
X109736758Y-55764954D01*
X109728911Y-55762852D01*
X109729430Y-55760911D01*
X109675443Y-55737023D01*
X109667852Y-55730038D01*
X109531819Y-55594005D01*
X109498334Y-55532682D01*
X109495500Y-55506324D01*
X109495500Y-50499807D01*
X109515185Y-50432768D01*
X109545190Y-50400539D01*
X109559687Y-50389687D01*
X109589254Y-50350190D01*
X109645187Y-50308318D01*
X109688521Y-50300500D01*
X109970500Y-50300500D01*
X110037539Y-50320185D01*
G37*
%TD.AperFunction*%
%TA.AperFunction,Conductor*%
G36*
X95588273Y-39173408D02*
G01*
X95634028Y-39226212D01*
X95643972Y-39295370D01*
X95614947Y-39358926D01*
X95608918Y-39365399D01*
X95378202Y-39596116D01*
X94395506Y-40578810D01*
X94334183Y-40612295D01*
X94293941Y-40614349D01*
X94120003Y-40594751D01*
X94119997Y-40594751D01*
X93951943Y-40613685D01*
X93792305Y-40669545D01*
X93792302Y-40669547D01*
X93649115Y-40759518D01*
X93649109Y-40759523D01*
X93529523Y-40879109D01*
X93529518Y-40879115D01*
X93439547Y-41022302D01*
X93439545Y-41022305D01*
X93383685Y-41181943D01*
X93364751Y-41349997D01*
X93364751Y-41350002D01*
X93383685Y-41518056D01*
X93439545Y-41677694D01*
X93439547Y-41677697D01*
X93491171Y-41759855D01*
X93510172Y-41827091D01*
X93489805Y-41893926D01*
X93455069Y-41928929D01*
X93439399Y-41939398D01*
X93384033Y-42022260D01*
X93384032Y-42022264D01*
X93369500Y-42095321D01*
X93369500Y-43144678D01*
X93384032Y-43217735D01*
X93384033Y-43217739D01*
X93399661Y-43241128D01*
X93439399Y-43300601D01*
X93502617Y-43342841D01*
X93522260Y-43355966D01*
X93522264Y-43355967D01*
X93595321Y-43370499D01*
X93595324Y-43370500D01*
X93595326Y-43370500D01*
X93721324Y-43370500D01*
X93788363Y-43390185D01*
X93809005Y-43406819D01*
X94228360Y-43826174D01*
X94602873Y-44200686D01*
X94636358Y-44262009D01*
X94631374Y-44331700D01*
X94621924Y-44351488D01*
X94547220Y-44477806D01*
X94508815Y-44610000D01*
X96011214Y-44610000D01*
X96067141Y-44568257D01*
X96110310Y-44560500D01*
X98604572Y-44560500D01*
X98671611Y-44580185D01*
X98692253Y-44596819D01*
X101732748Y-47637314D01*
X101825934Y-47730500D01*
X101922826Y-47786441D01*
X101930601Y-47790930D01*
X101940062Y-47796392D01*
X102067355Y-47830500D01*
X102067356Y-47830500D01*
X102303743Y-47830500D01*
X102370782Y-47850185D01*
X102376099Y-47853924D01*
X102377157Y-47854534D01*
X102377159Y-47854536D01*
X102377160Y-47854536D01*
X102377163Y-47854538D01*
X102397566Y-47862989D01*
X102523238Y-47915044D01*
X102601619Y-47925363D01*
X102679999Y-47935682D01*
X102680000Y-47935682D01*
X102680001Y-47935682D01*
X102732254Y-47928802D01*
X102836762Y-47915044D01*
X102982841Y-47854536D01*
X103032901Y-47816124D01*
X103098070Y-47790930D01*
X103108387Y-47790500D01*
X108370500Y-47790500D01*
X108437539Y-47810185D01*
X108483294Y-47862989D01*
X108494500Y-47914500D01*
X108494500Y-49068468D01*
X108474815Y-49135507D01*
X108422011Y-49181262D01*
X108352853Y-49191206D01*
X108289297Y-49162181D01*
X108264962Y-49133565D01*
X108242575Y-49097271D01*
X108242572Y-49097267D01*
X108122732Y-48977427D01*
X108122728Y-48977424D01*
X107978492Y-48888457D01*
X107978481Y-48888452D01*
X107817606Y-48835144D01*
X107718322Y-48825000D01*
X107695000Y-48825000D01*
X107695000Y-49676000D01*
X107675315Y-49743039D01*
X107622511Y-49788794D01*
X107571000Y-49800000D01*
X107445000Y-49800000D01*
X107445000Y-49926000D01*
X107425315Y-49993039D01*
X107372511Y-50038794D01*
X107321000Y-50050000D01*
X106495001Y-50050000D01*
X106495001Y-50098322D01*
X106505144Y-50197607D01*
X106558452Y-50358481D01*
X106558457Y-50358492D01*
X106645990Y-50500403D01*
X106664431Y-50567795D01*
X106643509Y-50634459D01*
X106589867Y-50679228D01*
X106540452Y-50689500D01*
X102620806Y-50689500D01*
X102553767Y-50669815D01*
X102545319Y-50663875D01*
X102527842Y-50650464D01*
X102381762Y-50589956D01*
X102381760Y-50589955D01*
X102225001Y-50569318D01*
X102224999Y-50569318D01*
X102068239Y-50589955D01*
X102068237Y-50589956D01*
X101922160Y-50650463D01*
X101796718Y-50746718D01*
X101700463Y-50872160D01*
X101639956Y-51018237D01*
X101639955Y-51018239D01*
X101619318Y-51174998D01*
X101619318Y-51175001D01*
X101639955Y-51331760D01*
X101639956Y-51331762D01*
X101676193Y-51419247D01*
X101700464Y-51477841D01*
X101796718Y-51603282D01*
X101922159Y-51699536D01*
X102068238Y-51760044D01*
X102146619Y-51770363D01*
X102224999Y-51780682D01*
X102225000Y-51780682D01*
X102225001Y-51780682D01*
X102277254Y-51773802D01*
X102381762Y-51760044D01*
X102526868Y-51699938D01*
X102574321Y-51690500D01*
X108370500Y-51690500D01*
X108437539Y-51710185D01*
X108483294Y-51762989D01*
X108494500Y-51814500D01*
X108494500Y-53200500D01*
X108474815Y-53267539D01*
X108422011Y-53313294D01*
X108370500Y-53324500D01*
X102965892Y-53324500D01*
X102834108Y-53324500D01*
X102706814Y-53358608D01*
X102706813Y-53358608D01*
X102706811Y-53358609D01*
X102706810Y-53358609D01*
X102592690Y-53424497D01*
X102592682Y-53424503D01*
X102587143Y-53430042D01*
X102525819Y-53463524D01*
X102519416Y-53464639D01*
X102518241Y-53464954D01*
X102372160Y-53525463D01*
X102246718Y-53621718D01*
X102150463Y-53747160D01*
X102089956Y-53893237D01*
X102089956Y-53893239D01*
X102069220Y-54050738D01*
X102040953Y-54114634D01*
X101982628Y-54153105D01*
X101912764Y-54153936D01*
X101858601Y-54122234D01*
X101571950Y-53835582D01*
X101538465Y-53774259D01*
X101543449Y-53704567D01*
X101585321Y-53648634D01*
X101643445Y-53624962D01*
X101756762Y-53610044D01*
X101902841Y-53549536D01*
X102028282Y-53453282D01*
X102124536Y-53327841D01*
X102185044Y-53181762D01*
X102205682Y-53025000D01*
X102185044Y-52868238D01*
X102124536Y-52722159D01*
X102028282Y-52596718D01*
X101902841Y-52500464D01*
X101894420Y-52496976D01*
X101756762Y-52439956D01*
X101756760Y-52439955D01*
X101600001Y-52419318D01*
X101599999Y-52419318D01*
X101443239Y-52439955D01*
X101443238Y-52439956D01*
X101431949Y-52444632D01*
X101362479Y-52452098D01*
X101300001Y-52420821D01*
X101264351Y-52360731D01*
X101260500Y-52330069D01*
X101260500Y-49501677D01*
X106495000Y-49501677D01*
X106495000Y-49550000D01*
X107195000Y-49550000D01*
X107195000Y-48824999D01*
X107171693Y-48825000D01*
X107171674Y-48825001D01*
X107072392Y-48835144D01*
X106911518Y-48888452D01*
X106911507Y-48888457D01*
X106767271Y-48977424D01*
X106767267Y-48977427D01*
X106647427Y-49097267D01*
X106647424Y-49097271D01*
X106558457Y-49241507D01*
X106558452Y-49241518D01*
X106505144Y-49402393D01*
X106495000Y-49501677D01*
X101260500Y-49501677D01*
X101260500Y-48434217D01*
X101260500Y-48434215D01*
X101236614Y-48345071D01*
X101230922Y-48335212D01*
X101190470Y-48265147D01*
X99067936Y-46142613D01*
X99034451Y-46081290D01*
X99032678Y-46038750D01*
X99037494Y-46002171D01*
X99016856Y-45845409D01*
X98956348Y-45699330D01*
X98860094Y-45573889D01*
X98734653Y-45477635D01*
X98692078Y-45460000D01*
X98588574Y-45417127D01*
X98588572Y-45417126D01*
X98431813Y-45396489D01*
X98431811Y-45396489D01*
X98275051Y-45417126D01*
X98275049Y-45417127D01*
X98128972Y-45477634D01*
X98003530Y-45573889D01*
X97907276Y-45699330D01*
X97880771Y-45763318D01*
X97836929Y-45817721D01*
X97770635Y-45839785D01*
X97750025Y-45838803D01*
X97640001Y-45824318D01*
X97639999Y-45824318D01*
X97483239Y-45844955D01*
X97483237Y-45844956D01*
X97337160Y-45905463D01*
X97211718Y-46001718D01*
X97115463Y-46127160D01*
X97054956Y-46273237D01*
X97054955Y-46273239D01*
X97034318Y-46429998D01*
X97034318Y-46430001D01*
X97054955Y-46586760D01*
X97054956Y-46586762D01*
X97115464Y-46732841D01*
X97211718Y-46858282D01*
X97337159Y-46954536D01*
X97483238Y-47015044D01*
X97640000Y-47035682D01*
X97676577Y-47030866D01*
X97745609Y-47041631D01*
X97780442Y-47066124D01*
X98588181Y-47873863D01*
X98621666Y-47935186D01*
X98624500Y-47961544D01*
X98624500Y-52781699D01*
X98604815Y-52848738D01*
X98575988Y-52880074D01*
X98521720Y-52921715D01*
X98425463Y-53047160D01*
X98364956Y-53193237D01*
X98364955Y-53193239D01*
X98344318Y-53349998D01*
X98344318Y-53350001D01*
X98364955Y-53506757D01*
X98366737Y-53513406D01*
X98365074Y-53583256D01*
X98325912Y-53641118D01*
X98261684Y-53668623D01*
X98246962Y-53669500D01*
X95503856Y-53669500D01*
X95414712Y-53693386D01*
X95414709Y-53693387D01*
X95334791Y-53739527D01*
X95334786Y-53739531D01*
X94020511Y-55053805D01*
X93959188Y-55087290D01*
X93889496Y-55082306D01*
X93888037Y-55081751D01*
X93772461Y-55036977D01*
X93772456Y-55036976D01*
X93571976Y-54999500D01*
X93368024Y-54999500D01*
X93167544Y-55036976D01*
X93167541Y-55036976D01*
X93167541Y-55036977D01*
X92977364Y-55110651D01*
X92977357Y-55110655D01*
X92803960Y-55218017D01*
X92803958Y-55218019D01*
X92653236Y-55355419D01*
X92653236Y-55355420D01*
X92643453Y-55368375D01*
X92587343Y-55410010D01*
X92517631Y-55414701D01*
X92456450Y-55380958D01*
X92423224Y-55319494D01*
X92420500Y-55293647D01*
X92420500Y-54366352D01*
X92440185Y-54299313D01*
X92492989Y-54253558D01*
X92562147Y-54243614D01*
X92625703Y-54272639D01*
X92643451Y-54291622D01*
X92653236Y-54304579D01*
X92653238Y-54304581D01*
X92803958Y-54441980D01*
X92803960Y-54441982D01*
X92862587Y-54478282D01*
X92977363Y-54549348D01*
X93167544Y-54623024D01*
X93368024Y-54660500D01*
X93368026Y-54660500D01*
X93571974Y-54660500D01*
X93571976Y-54660500D01*
X93772456Y-54623024D01*
X93962637Y-54549348D01*
X94136041Y-54441981D01*
X94286764Y-54304579D01*
X94409673Y-54141821D01*
X94500582Y-53959250D01*
X94556397Y-53763083D01*
X94575215Y-53560000D01*
X94565930Y-53459802D01*
X94556397Y-53356917D01*
X94550423Y-53335921D01*
X94500582Y-53160750D01*
X94476726Y-53112841D01*
X94432986Y-53024998D01*
X94409673Y-52978179D01*
X94326649Y-52868237D01*
X94286762Y-52815418D01*
X94136041Y-52678019D01*
X94136039Y-52678017D01*
X93962642Y-52570655D01*
X93962635Y-52570651D01*
X93798744Y-52507160D01*
X93772456Y-52496976D01*
X93571976Y-52459500D01*
X93368024Y-52459500D01*
X93167544Y-52496976D01*
X93167541Y-52496976D01*
X93167541Y-52496977D01*
X92977364Y-52570651D01*
X92977357Y-52570655D01*
X92803960Y-52678017D01*
X92803958Y-52678019D01*
X92653236Y-52815419D01*
X92653236Y-52815420D01*
X92643453Y-52828375D01*
X92587343Y-52870010D01*
X92517631Y-52874701D01*
X92456450Y-52840958D01*
X92423224Y-52779494D01*
X92420500Y-52753647D01*
X92420500Y-51826352D01*
X92440185Y-51759313D01*
X92492989Y-51713558D01*
X92562147Y-51703614D01*
X92625703Y-51732639D01*
X92643451Y-51751622D01*
X92653236Y-51764579D01*
X92653238Y-51764581D01*
X92803958Y-51901980D01*
X92803960Y-51901982D01*
X92903141Y-51963392D01*
X92977363Y-52009348D01*
X93167544Y-52083024D01*
X93368024Y-52120500D01*
X93368026Y-52120500D01*
X93571974Y-52120500D01*
X93571976Y-52120500D01*
X93772456Y-52083024D01*
X93962637Y-52009348D01*
X94136041Y-51901981D01*
X94286764Y-51764579D01*
X94409673Y-51601821D01*
X94500582Y-51419250D01*
X94556397Y-51223083D01*
X94575215Y-51020000D01*
X94556397Y-50816917D01*
X94500582Y-50620750D01*
X94479843Y-50579101D01*
X94456272Y-50531764D01*
X94409673Y-50438179D01*
X94327988Y-50330010D01*
X94286762Y-50275418D01*
X94136041Y-50138019D01*
X94136039Y-50138017D01*
X93962642Y-50030655D01*
X93962635Y-50030651D01*
X93865546Y-49993039D01*
X93772456Y-49956976D01*
X93571976Y-49919500D01*
X93368024Y-49919500D01*
X93167544Y-49956976D01*
X93167541Y-49956976D01*
X93167541Y-49956977D01*
X92977364Y-50030651D01*
X92977357Y-50030655D01*
X92803960Y-50138017D01*
X92803958Y-50138019D01*
X92653236Y-50275419D01*
X92653236Y-50275420D01*
X92643453Y-50288375D01*
X92587343Y-50330010D01*
X92517631Y-50334701D01*
X92456450Y-50300958D01*
X92423224Y-50239494D01*
X92420500Y-50213647D01*
X92420500Y-49286352D01*
X92440185Y-49219313D01*
X92492989Y-49173558D01*
X92562147Y-49163614D01*
X92625703Y-49192639D01*
X92643451Y-49211622D01*
X92653236Y-49224579D01*
X92653238Y-49224581D01*
X92803958Y-49361980D01*
X92803960Y-49361982D01*
X92869227Y-49402393D01*
X92977363Y-49469348D01*
X93167544Y-49543024D01*
X93368024Y-49580500D01*
X93368026Y-49580500D01*
X93571974Y-49580500D01*
X93571976Y-49580500D01*
X93772456Y-49543024D01*
X93962637Y-49469348D01*
X94136041Y-49361981D01*
X94286764Y-49224579D01*
X94409673Y-49061821D01*
X94500582Y-48879250D01*
X94556397Y-48683083D01*
X94575215Y-48480000D01*
X94570972Y-48434215D01*
X94556397Y-48276917D01*
X94553047Y-48265144D01*
X94500582Y-48080750D01*
X94489010Y-48057511D01*
X94428100Y-47935186D01*
X94409673Y-47898179D01*
X94327988Y-47790010D01*
X94286762Y-47735418D01*
X94136041Y-47598019D01*
X94136039Y-47598017D01*
X93962642Y-47490655D01*
X93962635Y-47490651D01*
X93842921Y-47444274D01*
X93772456Y-47416976D01*
X93571976Y-47379500D01*
X93368024Y-47379500D01*
X93167544Y-47416976D01*
X93167541Y-47416976D01*
X93167541Y-47416977D01*
X92977364Y-47490651D01*
X92977357Y-47490655D01*
X92803960Y-47598017D01*
X92803958Y-47598019D01*
X92653236Y-47735419D01*
X92653236Y-47735420D01*
X92643453Y-47748375D01*
X92587343Y-47790010D01*
X92517631Y-47794701D01*
X92456450Y-47760958D01*
X92423224Y-47699494D01*
X92420500Y-47673647D01*
X92420500Y-46746352D01*
X92440185Y-46679313D01*
X92492989Y-46633558D01*
X92562147Y-46623614D01*
X92625703Y-46652639D01*
X92643451Y-46671622D01*
X92651924Y-46682841D01*
X92653238Y-46684581D01*
X92803958Y-46821980D01*
X92803960Y-46821982D01*
X92862587Y-46858282D01*
X92977363Y-46929348D01*
X93167544Y-47003024D01*
X93368024Y-47040500D01*
X93368026Y-47040500D01*
X93571974Y-47040500D01*
X93571976Y-47040500D01*
X93772456Y-47003024D01*
X93962637Y-46929348D01*
X94136041Y-46821981D01*
X94286764Y-46684579D01*
X94409673Y-46521821D01*
X94500582Y-46339250D01*
X94556397Y-46143083D01*
X94575215Y-45940000D01*
X94556397Y-45736917D01*
X94516230Y-45595746D01*
X94516816Y-45525881D01*
X94555083Y-45467422D01*
X94618880Y-45438931D01*
X94687953Y-45449455D01*
X94723177Y-45474132D01*
X94740794Y-45491749D01*
X94740803Y-45491756D01*
X94877807Y-45572780D01*
X95010000Y-45611184D01*
X95010000Y-45611183D01*
X95510000Y-45611183D01*
X95642192Y-45572780D01*
X95779196Y-45491756D01*
X95779205Y-45491749D01*
X95891749Y-45379205D01*
X95891756Y-45379196D01*
X95972779Y-45242193D01*
X96011185Y-45110000D01*
X95510000Y-45110000D01*
X95510000Y-45611183D01*
X95010000Y-45611183D01*
X95010000Y-45110000D01*
X94508815Y-45110000D01*
X94500048Y-45121674D01*
X94499967Y-45150109D01*
X94462025Y-45208778D01*
X94398386Y-45237621D01*
X94329256Y-45227479D01*
X94289455Y-45198373D01*
X94286760Y-45195416D01*
X94136041Y-45058019D01*
X94136039Y-45058017D01*
X93962642Y-44950655D01*
X93962635Y-44950651D01*
X93867546Y-44913814D01*
X93772456Y-44876976D01*
X93571976Y-44839500D01*
X93368024Y-44839500D01*
X93167544Y-44876976D01*
X93167541Y-44876976D01*
X93167541Y-44876977D01*
X92977364Y-44950651D01*
X92977357Y-44950655D01*
X92803960Y-45058017D01*
X92803958Y-45058019D01*
X92653236Y-45195419D01*
X92653236Y-45195420D01*
X92643453Y-45208375D01*
X92587343Y-45250010D01*
X92517631Y-45254701D01*
X92456450Y-45220958D01*
X92423224Y-45159494D01*
X92420500Y-45133647D01*
X92420500Y-40871041D01*
X92420504Y-40870980D01*
X92420503Y-40861025D01*
X92420504Y-40861023D01*
X92420500Y-40817852D01*
X92420815Y-40809014D01*
X92436745Y-40586052D01*
X92439258Y-40568566D01*
X92485817Y-40354480D01*
X92490800Y-40337508D01*
X92509267Y-40287989D01*
X92567351Y-40132238D01*
X92574698Y-40116151D01*
X92609111Y-40053124D01*
X92679686Y-39923866D01*
X92689242Y-39908994D01*
X92820536Y-39733601D01*
X92832104Y-39720249D01*
X92987026Y-39565324D01*
X93000390Y-39553745D01*
X93006022Y-39549529D01*
X93175781Y-39422450D01*
X93190661Y-39412890D01*
X93382933Y-39307907D01*
X93399024Y-39300558D01*
X93604297Y-39224003D01*
X93621265Y-39219022D01*
X93835331Y-39172465D01*
X93852837Y-39169948D01*
X94075483Y-39154037D01*
X94084315Y-39153723D01*
X94127804Y-39153726D01*
X94127805Y-39153725D01*
X94137768Y-39153726D01*
X94137819Y-39153723D01*
X95521234Y-39153723D01*
X95588273Y-39173408D01*
G37*
%TD.AperFunction*%
%TA.AperFunction,Conductor*%
G36*
X99499421Y-47575108D02*
G01*
X99532924Y-47598965D01*
X100523181Y-48589222D01*
X100556666Y-48650545D01*
X100559500Y-48676903D01*
X100559500Y-52725808D01*
X100575805Y-52786659D01*
X100575805Y-52786660D01*
X100583384Y-52814948D01*
X100583385Y-52814950D01*
X100629527Y-52894872D01*
X100629531Y-52894877D01*
X101047189Y-53312535D01*
X101047195Y-53312540D01*
X101065336Y-53330681D01*
X101066074Y-53331107D01*
X101067350Y-53332226D01*
X101071787Y-53335631D01*
X101071563Y-53335921D01*
X101102446Y-53363006D01*
X101171717Y-53453281D01*
X101177465Y-53459029D01*
X101176185Y-53460308D01*
X101211413Y-53508555D01*
X101215566Y-53578301D01*
X101181353Y-53639220D01*
X101119635Y-53671972D01*
X101094723Y-53674500D01*
X100056054Y-53674500D01*
X100023966Y-53670276D01*
X100021069Y-53669500D01*
X100021068Y-53669500D01*
X99653038Y-53669500D01*
X99585999Y-53649815D01*
X99540244Y-53597011D01*
X99530300Y-53527853D01*
X99533263Y-53513406D01*
X99535040Y-53506771D01*
X99535044Y-53506762D01*
X99555682Y-53350000D01*
X99553828Y-53335921D01*
X99535044Y-53193239D01*
X99535044Y-53193238D01*
X99474536Y-53047159D01*
X99378282Y-52921718D01*
X99377774Y-52921328D01*
X99374012Y-52918441D01*
X99332810Y-52862013D01*
X99325500Y-52820067D01*
X99325500Y-47718858D01*
X99325500Y-47718856D01*
X99325469Y-47718740D01*
X99325471Y-47718640D01*
X99324439Y-47710800D01*
X99325661Y-47710639D01*
X99327130Y-47648893D01*
X99366291Y-47591029D01*
X99430518Y-47563523D01*
X99499421Y-47575108D01*
G37*
%TD.AperFunction*%
%TA.AperFunction,Conductor*%
G36*
X96399936Y-42420446D02*
G01*
X96357149Y-42494555D01*
X96335000Y-42577213D01*
X96335000Y-42662787D01*
X96357149Y-42745445D01*
X96399936Y-42819554D01*
X96450382Y-42870000D01*
X95599618Y-42870000D01*
X95650064Y-42819554D01*
X95692851Y-42745445D01*
X95715000Y-42662787D01*
X95715000Y-42577213D01*
X95692851Y-42494555D01*
X95650064Y-42420446D01*
X95599618Y-42370000D01*
X96450382Y-42370000D01*
X96399936Y-42420446D01*
G37*
%TD.AperFunction*%
%TA.AperFunction,Conductor*%
G36*
X102259216Y-42178688D02*
G01*
X102300354Y-42213907D01*
X102302810Y-42217188D01*
X102302812Y-42217190D01*
X102417906Y-42303350D01*
X102417913Y-42303354D01*
X102552620Y-42353596D01*
X102552627Y-42353598D01*
X102612155Y-42359999D01*
X102612172Y-42360000D01*
X102964471Y-42360000D01*
X103031510Y-42379685D01*
X103077265Y-42432489D01*
X103087209Y-42501647D01*
X103058184Y-42565203D01*
X103039958Y-42582375D01*
X103001718Y-42611717D01*
X102997028Y-42617829D01*
X102995366Y-42619997D01*
X102995058Y-42620398D01*
X102938631Y-42661601D01*
X102896682Y-42668912D01*
X102255955Y-42668912D01*
X102188916Y-42649227D01*
X102168274Y-42632593D01*
X101999210Y-42463529D01*
X101965725Y-42402206D01*
X101970709Y-42332514D01*
X102011402Y-42277474D01*
X102125606Y-42189843D01*
X102190771Y-42164650D01*
X102259216Y-42178688D01*
G37*
%TD.AperFunction*%
%TA.AperFunction,Conductor*%
G36*
X99266177Y-40200185D02*
G01*
X99284562Y-40215000D01*
X99749158Y-40215000D01*
X99759336Y-40215500D01*
X99961000Y-40215500D01*
X100028039Y-40235185D01*
X100073794Y-40287989D01*
X100085000Y-40339500D01*
X100085000Y-40340500D01*
X100065315Y-40407539D01*
X100012511Y-40453294D01*
X99961000Y-40464500D01*
X99759336Y-40464500D01*
X99749158Y-40465000D01*
X99285000Y-40465000D01*
X99285000Y-40474360D01*
X99265315Y-40541399D01*
X99212511Y-40587154D01*
X99174884Y-40597580D01*
X99031944Y-40613685D01*
X98872305Y-40669545D01*
X98872302Y-40669547D01*
X98729115Y-40759518D01*
X98729109Y-40759523D01*
X98652681Y-40835952D01*
X98591358Y-40869437D01*
X98521666Y-40864453D01*
X98477319Y-40835952D01*
X98400890Y-40759523D01*
X98400884Y-40759518D01*
X98257697Y-40669547D01*
X98257694Y-40669545D01*
X98098056Y-40613685D01*
X97930003Y-40594751D01*
X97929997Y-40594751D01*
X97761943Y-40613685D01*
X97602305Y-40669545D01*
X97602302Y-40669547D01*
X97459115Y-40759518D01*
X97459109Y-40759523D01*
X97382681Y-40835952D01*
X97321358Y-40869437D01*
X97251666Y-40864453D01*
X97207319Y-40835952D01*
X97130890Y-40759523D01*
X97130884Y-40759518D01*
X96987697Y-40669547D01*
X96987686Y-40669542D01*
X96861679Y-40625450D01*
X96804903Y-40584729D01*
X96779156Y-40519776D01*
X96792612Y-40451214D01*
X96814953Y-40420728D01*
X96851479Y-40384203D01*
X97018863Y-40216819D01*
X97080186Y-40183334D01*
X97106544Y-40180500D01*
X99199138Y-40180500D01*
X99266177Y-40200185D01*
G37*
%TD.AperFunction*%
%TD*%
%TA.AperFunction,Conductor*%
%TO.N,VBUS_REV*%
G36*
X119398691Y-62808907D02*
G01*
X119434655Y-62858407D01*
X119439500Y-62889000D01*
X119439500Y-63345250D01*
X119451132Y-63403728D01*
X119452533Y-63407110D01*
X119458856Y-63437566D01*
X119459999Y-63439998D01*
X119460000Y-63440000D01*
X119460001Y-63440001D01*
X119599999Y-63560000D01*
X119649999Y-63571363D01*
X119820000Y-63610000D01*
X120433092Y-63581703D01*
X120492091Y-63597908D01*
X120498989Y-63602886D01*
X120842316Y-63873933D01*
X120856349Y-63887460D01*
X121173404Y-64260000D01*
X121231892Y-64328723D01*
X121254313Y-64377604D01*
X121298263Y-64658885D01*
X121299198Y-64681222D01*
X121272018Y-65061738D01*
X121253335Y-65112913D01*
X120960883Y-65515035D01*
X120934446Y-65540023D01*
X120521298Y-65806274D01*
X120474723Y-65821805D01*
X120253294Y-65837621D01*
X120193904Y-65822908D01*
X120192063Y-65821733D01*
X119704856Y-65503175D01*
X119695553Y-65496283D01*
X118989467Y-64906265D01*
X118960755Y-64866373D01*
X118885877Y-64675020D01*
X118879194Y-64643888D01*
X118861059Y-64281180D01*
X118867709Y-64240245D01*
X119005380Y-63887464D01*
X119020000Y-63850000D01*
X119071149Y-63622151D01*
X119089316Y-63583424D01*
X119090454Y-63581946D01*
X119090461Y-63581939D01*
X119112941Y-63552755D01*
X119143631Y-63466602D01*
X119150823Y-63405841D01*
X119148299Y-63341593D01*
X119146902Y-63334569D01*
X119145000Y-63315255D01*
X119145000Y-62893496D01*
X119163907Y-62835305D01*
X119174402Y-62823089D01*
X119178957Y-62818587D01*
X119233635Y-62791130D01*
X119248549Y-62790000D01*
X119340500Y-62790000D01*
X119398691Y-62808907D01*
G37*
%TD.AperFunction*%
%TD*%
M02*
