%TF.GenerationSoftware,KiCad,Pcbnew,7.0.8*%
%TF.CreationDate,2024-03-19T19:35:36+01:00*%
%TF.ProjectId,neopixel_eliot_hat,6e656f70-6978-4656-9c5f-656c696f745f,rev?*%
%TF.SameCoordinates,Original*%
%TF.FileFunction,Paste,Top*%
%TF.FilePolarity,Positive*%
%FSLAX46Y46*%
G04 Gerber Fmt 4.6, Leading zero omitted, Abs format (unit mm)*
G04 Created by KiCad (PCBNEW 7.0.8) date 2024-03-19 19:35:36*
%MOMM*%
%LPD*%
G01*
G04 APERTURE LIST*
G04 Aperture macros list*
%AMRoundRect*
0 Rectangle with rounded corners*
0 $1 Rounding radius*
0 $2 $3 $4 $5 $6 $7 $8 $9 X,Y pos of 4 corners*
0 Add a 4 corners polygon primitive as box body*
4,1,4,$2,$3,$4,$5,$6,$7,$8,$9,$2,$3,0*
0 Add four circle primitives for the rounded corners*
1,1,$1+$1,$2,$3*
1,1,$1+$1,$4,$5*
1,1,$1+$1,$6,$7*
1,1,$1+$1,$8,$9*
0 Add four rect primitives between the rounded corners*
20,1,$1+$1,$2,$3,$4,$5,0*
20,1,$1+$1,$4,$5,$6,$7,0*
20,1,$1+$1,$6,$7,$8,$9,0*
20,1,$1+$1,$8,$9,$2,$3,0*%
G04 Aperture macros list end*
%ADD10RoundRect,0.225000X-0.225000X-0.250000X0.225000X-0.250000X0.225000X0.250000X-0.225000X0.250000X0*%
%ADD11RoundRect,0.135000X-0.185000X0.135000X-0.185000X-0.135000X0.185000X-0.135000X0.185000X0.135000X0*%
%ADD12RoundRect,0.237500X-0.237500X0.250000X-0.237500X-0.250000X0.237500X-0.250000X0.237500X0.250000X0*%
%ADD13RoundRect,0.237500X0.237500X-0.250000X0.237500X0.250000X-0.237500X0.250000X-0.237500X-0.250000X0*%
%ADD14RoundRect,0.225000X0.225000X0.250000X-0.225000X0.250000X-0.225000X-0.250000X0.225000X-0.250000X0*%
%ADD15RoundRect,0.237500X-0.250000X-0.237500X0.250000X-0.237500X0.250000X0.237500X-0.250000X0.237500X0*%
%ADD16RoundRect,0.200000X0.275000X-0.200000X0.275000X0.200000X-0.275000X0.200000X-0.275000X-0.200000X0*%
%ADD17RoundRect,0.250000X0.285000X-0.285000X0.285000X0.285000X-0.285000X0.285000X-0.285000X-0.285000X0*%
%ADD18RoundRect,0.062500X0.062500X-0.337500X0.062500X0.337500X-0.062500X0.337500X-0.062500X-0.337500X0*%
%ADD19RoundRect,0.062500X0.337500X-0.062500X0.337500X0.062500X-0.337500X0.062500X-0.337500X-0.062500X0*%
%ADD20RoundRect,0.150000X0.512500X0.150000X-0.512500X0.150000X-0.512500X-0.150000X0.512500X-0.150000X0*%
%ADD21RoundRect,0.218750X0.218750X0.256250X-0.218750X0.256250X-0.218750X-0.256250X0.218750X-0.256250X0*%
%ADD22RoundRect,0.237500X0.237500X-0.300000X0.237500X0.300000X-0.237500X0.300000X-0.237500X-0.300000X0*%
%ADD23RoundRect,0.237500X-0.237500X0.300000X-0.237500X-0.300000X0.237500X-0.300000X0.237500X0.300000X0*%
G04 APERTURE END LIST*
D10*
%TO.C,C10*%
X162470000Y-91815000D03*
X164020000Y-91815000D03*
%TD*%
%TO.C,C2*%
X158425000Y-91725000D03*
X159975000Y-91725000D03*
%TD*%
D11*
%TO.C,R6*%
X161275000Y-73820000D03*
X161275000Y-74840000D03*
%TD*%
D12*
%TO.C,R2*%
X155425000Y-91812500D03*
X155425000Y-93637500D03*
%TD*%
D11*
%TO.C,R15*%
X151875000Y-71065000D03*
X151875000Y-72085000D03*
%TD*%
D13*
%TO.C,R14*%
X143225000Y-93087500D03*
X143225000Y-91262500D03*
%TD*%
D11*
%TO.C,R7*%
X162275000Y-73825000D03*
X162275000Y-74845000D03*
%TD*%
D14*
%TO.C,C1*%
X152010000Y-91917500D03*
X150460000Y-91917500D03*
%TD*%
%TO.C,C3*%
X152010000Y-93477750D03*
X150460000Y-93477750D03*
%TD*%
D15*
%TO.C,R11*%
X141642500Y-66150000D03*
X143467500Y-66150000D03*
%TD*%
D11*
%TO.C,R10*%
X159250000Y-73825000D03*
X159250000Y-74845000D03*
%TD*%
%TO.C,R17*%
X153800000Y-74515000D03*
X153800000Y-75535000D03*
%TD*%
D16*
%TO.C,R1*%
X149400000Y-89675000D03*
X149400000Y-88025000D03*
%TD*%
D10*
%TO.C,C11*%
X162470000Y-93415000D03*
X164020000Y-93415000D03*
%TD*%
%TO.C,C4*%
X158435000Y-93960000D03*
X159985000Y-93960000D03*
%TD*%
D11*
%TO.C,R9*%
X158250000Y-73820000D03*
X158250000Y-74840000D03*
%TD*%
%TO.C,R8*%
X160250000Y-73820000D03*
X160250000Y-74840000D03*
%TD*%
D17*
%TO.C,U1*%
X147780000Y-82380000D03*
X149100000Y-82380000D03*
X150420000Y-82380000D03*
X151740000Y-82380000D03*
X147780000Y-81060000D03*
X149100000Y-81060000D03*
X150420000Y-81060000D03*
X151740000Y-81060000D03*
X147780000Y-79740000D03*
X149100000Y-79740000D03*
X150420000Y-79740000D03*
X151740000Y-79740000D03*
X147780000Y-78420000D03*
X149100000Y-78420000D03*
X150420000Y-78420000D03*
X151740000Y-78420000D03*
D18*
X147010000Y-83850000D03*
X147510000Y-83850000D03*
X148010000Y-83850000D03*
X148510000Y-83850000D03*
X149010000Y-83850000D03*
X149510000Y-83850000D03*
X150010000Y-83850000D03*
X150510000Y-83850000D03*
X151010000Y-83850000D03*
X151510000Y-83850000D03*
X152010000Y-83850000D03*
X152510000Y-83850000D03*
D19*
X153210000Y-83150000D03*
X153210000Y-82650000D03*
X153210000Y-82150000D03*
X153210000Y-81650000D03*
X153210000Y-81150000D03*
X153210000Y-80650000D03*
X153210000Y-80150000D03*
X153210000Y-79650000D03*
X153210000Y-79150000D03*
X153210000Y-78650000D03*
X153210000Y-78150000D03*
X153210000Y-77650000D03*
D18*
X152510000Y-76950000D03*
X152010000Y-76950000D03*
X151510000Y-76950000D03*
X151010000Y-76950000D03*
X150510000Y-76950000D03*
X150010000Y-76950000D03*
X149510000Y-76950000D03*
X149010000Y-76950000D03*
X148510000Y-76950000D03*
X148010000Y-76950000D03*
X147510000Y-76950000D03*
X147010000Y-76950000D03*
D19*
X146310000Y-77650000D03*
X146310000Y-78150000D03*
X146310000Y-78650000D03*
X146310000Y-79150000D03*
X146310000Y-79650000D03*
X146310000Y-80150000D03*
X146310000Y-80650000D03*
X146310000Y-81150000D03*
X146310000Y-81650000D03*
X146310000Y-82150000D03*
X146310000Y-82650000D03*
X146310000Y-83150000D03*
%TD*%
D12*
%TO.C,R3*%
X153650000Y-91812500D03*
X153650000Y-93637500D03*
%TD*%
D13*
%TO.C,R13*%
X144825000Y-93062500D03*
X144825000Y-91237500D03*
%TD*%
D20*
%TO.C,D1*%
X161275000Y-72200000D03*
X161275000Y-71250000D03*
X161275000Y-70300000D03*
X159000000Y-70300000D03*
X159000000Y-71250000D03*
X159000000Y-72200000D03*
%TD*%
D21*
%TO.C,D2*%
X143212500Y-67650000D03*
X141637500Y-67650000D03*
%TD*%
D22*
%TO.C,C6*%
X144900000Y-77250000D03*
X144900000Y-75525000D03*
%TD*%
D23*
%TO.C,C7*%
X150950000Y-87800000D03*
X150950000Y-89525000D03*
%TD*%
D22*
%TO.C,C5*%
X143365000Y-77237500D03*
X143365000Y-75512500D03*
%TD*%
M02*
