%TF.GenerationSoftware,KiCad,Pcbnew,7.0.8*%
%TF.CreationDate,2024-07-23T00:19:37+04:00*%
%TF.ProjectId,neopixel_eliot_hat,6e656f70-6978-4656-9c5f-656c696f745f,rev?*%
%TF.SameCoordinates,Original*%
%TF.FileFunction,Legend,Top*%
%TF.FilePolarity,Positive*%
%FSLAX46Y46*%
G04 Gerber Fmt 4.6, Leading zero omitted, Abs format (unit mm)*
G04 Created by KiCad (PCBNEW 7.0.8) date 2024-07-23 00:19:37*
%MOMM*%
%LPD*%
G01*
G04 APERTURE LIST*
%ADD10C,0.100000*%
%ADD11C,0.080000*%
%ADD12C,0.075000*%
%ADD13C,0.125000*%
%ADD14C,0.120000*%
%ADD15C,0.200000*%
G04 APERTURE END LIST*
D10*
X107993431Y-55440609D02*
X107755336Y-55440609D01*
X107755336Y-55440609D02*
X107731527Y-55678704D01*
X107731527Y-55678704D02*
X107755336Y-55654895D01*
X107755336Y-55654895D02*
X107802955Y-55631085D01*
X107802955Y-55631085D02*
X107922003Y-55631085D01*
X107922003Y-55631085D02*
X107969622Y-55654895D01*
X107969622Y-55654895D02*
X107993431Y-55678704D01*
X107993431Y-55678704D02*
X108017241Y-55726323D01*
X108017241Y-55726323D02*
X108017241Y-55845371D01*
X108017241Y-55845371D02*
X107993431Y-55892990D01*
X107993431Y-55892990D02*
X107969622Y-55916800D01*
X107969622Y-55916800D02*
X107922003Y-55940609D01*
X107922003Y-55940609D02*
X107802955Y-55940609D01*
X107802955Y-55940609D02*
X107755336Y-55916800D01*
X107755336Y-55916800D02*
X107731527Y-55892990D01*
X108183907Y-55607276D02*
X108302955Y-55940609D01*
X108302955Y-55940609D02*
X108422002Y-55607276D01*
X100267241Y-55464419D02*
X100219622Y-55440609D01*
X100219622Y-55440609D02*
X100148193Y-55440609D01*
X100148193Y-55440609D02*
X100076765Y-55464419D01*
X100076765Y-55464419D02*
X100029146Y-55512038D01*
X100029146Y-55512038D02*
X100005336Y-55559657D01*
X100005336Y-55559657D02*
X99981527Y-55654895D01*
X99981527Y-55654895D02*
X99981527Y-55726323D01*
X99981527Y-55726323D02*
X100005336Y-55821561D01*
X100005336Y-55821561D02*
X100029146Y-55869180D01*
X100029146Y-55869180D02*
X100076765Y-55916800D01*
X100076765Y-55916800D02*
X100148193Y-55940609D01*
X100148193Y-55940609D02*
X100195812Y-55940609D01*
X100195812Y-55940609D02*
X100267241Y-55916800D01*
X100267241Y-55916800D02*
X100291050Y-55892990D01*
X100291050Y-55892990D02*
X100291050Y-55726323D01*
X100291050Y-55726323D02*
X100195812Y-55726323D01*
X100505336Y-55940609D02*
X100505336Y-55440609D01*
X100505336Y-55440609D02*
X100791050Y-55940609D01*
X100791050Y-55940609D02*
X100791050Y-55440609D01*
X101029146Y-55940609D02*
X101029146Y-55440609D01*
X101029146Y-55440609D02*
X101148194Y-55440609D01*
X101148194Y-55440609D02*
X101219622Y-55464419D01*
X101219622Y-55464419D02*
X101267241Y-55512038D01*
X101267241Y-55512038D02*
X101291051Y-55559657D01*
X101291051Y-55559657D02*
X101314860Y-55654895D01*
X101314860Y-55654895D02*
X101314860Y-55726323D01*
X101314860Y-55726323D02*
X101291051Y-55821561D01*
X101291051Y-55821561D02*
X101267241Y-55869180D01*
X101267241Y-55869180D02*
X101219622Y-55916800D01*
X101219622Y-55916800D02*
X101148194Y-55940609D01*
X101148194Y-55940609D02*
X101029146Y-55940609D01*
X116394109Y-59557282D02*
X116894109Y-59223949D01*
X116394109Y-59223949D02*
X116894109Y-59557282D01*
D11*
X105032178Y-77549149D02*
X105032178Y-77049149D01*
X105198845Y-77215816D02*
X105389321Y-77215816D01*
X105270273Y-77549149D02*
X105270273Y-77120578D01*
X105270273Y-77120578D02*
X105294083Y-77072959D01*
X105294083Y-77072959D02*
X105341702Y-77049149D01*
X105341702Y-77049149D02*
X105389321Y-77049149D01*
X105889320Y-77215816D02*
X106008368Y-77549149D01*
X106127415Y-77215816D02*
X106008368Y-77549149D01*
X106008368Y-77549149D02*
X105960749Y-77668197D01*
X105960749Y-77668197D02*
X105936939Y-77692006D01*
X105936939Y-77692006D02*
X105889320Y-77715816D01*
X106389320Y-77549149D02*
X106341701Y-77525340D01*
X106341701Y-77525340D02*
X106317891Y-77501530D01*
X106317891Y-77501530D02*
X106294082Y-77453911D01*
X106294082Y-77453911D02*
X106294082Y-77311054D01*
X106294082Y-77311054D02*
X106317891Y-77263435D01*
X106317891Y-77263435D02*
X106341701Y-77239625D01*
X106341701Y-77239625D02*
X106389320Y-77215816D01*
X106389320Y-77215816D02*
X106460748Y-77215816D01*
X106460748Y-77215816D02*
X106508367Y-77239625D01*
X106508367Y-77239625D02*
X106532177Y-77263435D01*
X106532177Y-77263435D02*
X106555986Y-77311054D01*
X106555986Y-77311054D02*
X106555986Y-77453911D01*
X106555986Y-77453911D02*
X106532177Y-77501530D01*
X106532177Y-77501530D02*
X106508367Y-77525340D01*
X106508367Y-77525340D02*
X106460748Y-77549149D01*
X106460748Y-77549149D02*
X106389320Y-77549149D01*
X106984558Y-77215816D02*
X106984558Y-77549149D01*
X106770272Y-77215816D02*
X106770272Y-77477720D01*
X106770272Y-77477720D02*
X106794082Y-77525340D01*
X106794082Y-77525340D02*
X106841701Y-77549149D01*
X106841701Y-77549149D02*
X106913129Y-77549149D01*
X106913129Y-77549149D02*
X106960748Y-77525340D01*
X106960748Y-77525340D02*
X106984558Y-77501530D01*
X107246463Y-77049149D02*
X107198844Y-77144387D01*
X107460748Y-77549149D02*
X107460748Y-77215816D01*
X107460748Y-77311054D02*
X107484558Y-77263435D01*
X107484558Y-77263435D02*
X107508367Y-77239625D01*
X107508367Y-77239625D02*
X107555986Y-77215816D01*
X107555986Y-77215816D02*
X107603605Y-77215816D01*
X107960748Y-77525340D02*
X107913129Y-77549149D01*
X107913129Y-77549149D02*
X107817891Y-77549149D01*
X107817891Y-77549149D02*
X107770272Y-77525340D01*
X107770272Y-77525340D02*
X107746463Y-77477720D01*
X107746463Y-77477720D02*
X107746463Y-77287244D01*
X107746463Y-77287244D02*
X107770272Y-77239625D01*
X107770272Y-77239625D02*
X107817891Y-77215816D01*
X107817891Y-77215816D02*
X107913129Y-77215816D01*
X107913129Y-77215816D02*
X107960748Y-77239625D01*
X107960748Y-77239625D02*
X107984558Y-77287244D01*
X107984558Y-77287244D02*
X107984558Y-77334863D01*
X107984558Y-77334863D02*
X107746463Y-77382482D01*
X108579795Y-77549149D02*
X108579795Y-77215816D01*
X108579795Y-77311054D02*
X108603605Y-77263435D01*
X108603605Y-77263435D02*
X108627414Y-77239625D01*
X108627414Y-77239625D02*
X108675033Y-77215816D01*
X108675033Y-77215816D02*
X108722652Y-77215816D01*
X109079795Y-77525340D02*
X109032176Y-77549149D01*
X109032176Y-77549149D02*
X108936938Y-77549149D01*
X108936938Y-77549149D02*
X108889319Y-77525340D01*
X108889319Y-77525340D02*
X108865510Y-77477720D01*
X108865510Y-77477720D02*
X108865510Y-77287244D01*
X108865510Y-77287244D02*
X108889319Y-77239625D01*
X108889319Y-77239625D02*
X108936938Y-77215816D01*
X108936938Y-77215816D02*
X109032176Y-77215816D01*
X109032176Y-77215816D02*
X109079795Y-77239625D01*
X109079795Y-77239625D02*
X109103605Y-77287244D01*
X109103605Y-77287244D02*
X109103605Y-77334863D01*
X109103605Y-77334863D02*
X108865510Y-77382482D01*
X109532176Y-77549149D02*
X109532176Y-77287244D01*
X109532176Y-77287244D02*
X109508366Y-77239625D01*
X109508366Y-77239625D02*
X109460747Y-77215816D01*
X109460747Y-77215816D02*
X109365509Y-77215816D01*
X109365509Y-77215816D02*
X109317890Y-77239625D01*
X109532176Y-77525340D02*
X109484557Y-77549149D01*
X109484557Y-77549149D02*
X109365509Y-77549149D01*
X109365509Y-77549149D02*
X109317890Y-77525340D01*
X109317890Y-77525340D02*
X109294081Y-77477720D01*
X109294081Y-77477720D02*
X109294081Y-77430101D01*
X109294081Y-77430101D02*
X109317890Y-77382482D01*
X109317890Y-77382482D02*
X109365509Y-77358673D01*
X109365509Y-77358673D02*
X109484557Y-77358673D01*
X109484557Y-77358673D02*
X109532176Y-77334863D01*
X109984557Y-77549149D02*
X109984557Y-77049149D01*
X109984557Y-77525340D02*
X109936938Y-77549149D01*
X109936938Y-77549149D02*
X109841700Y-77549149D01*
X109841700Y-77549149D02*
X109794081Y-77525340D01*
X109794081Y-77525340D02*
X109770271Y-77501530D01*
X109770271Y-77501530D02*
X109746462Y-77453911D01*
X109746462Y-77453911D02*
X109746462Y-77311054D01*
X109746462Y-77311054D02*
X109770271Y-77263435D01*
X109770271Y-77263435D02*
X109794081Y-77239625D01*
X109794081Y-77239625D02*
X109841700Y-77215816D01*
X109841700Y-77215816D02*
X109936938Y-77215816D01*
X109936938Y-77215816D02*
X109984557Y-77239625D01*
X110222652Y-77549149D02*
X110222652Y-77215816D01*
X110222652Y-77049149D02*
X110198843Y-77072959D01*
X110198843Y-77072959D02*
X110222652Y-77096768D01*
X110222652Y-77096768D02*
X110246462Y-77072959D01*
X110246462Y-77072959D02*
X110222652Y-77049149D01*
X110222652Y-77049149D02*
X110222652Y-77096768D01*
X110460747Y-77215816D02*
X110460747Y-77549149D01*
X110460747Y-77263435D02*
X110484557Y-77239625D01*
X110484557Y-77239625D02*
X110532176Y-77215816D01*
X110532176Y-77215816D02*
X110603604Y-77215816D01*
X110603604Y-77215816D02*
X110651223Y-77239625D01*
X110651223Y-77239625D02*
X110675033Y-77287244D01*
X110675033Y-77287244D02*
X110675033Y-77549149D01*
X111127414Y-77215816D02*
X111127414Y-77620578D01*
X111127414Y-77620578D02*
X111103604Y-77668197D01*
X111103604Y-77668197D02*
X111079795Y-77692006D01*
X111079795Y-77692006D02*
X111032176Y-77715816D01*
X111032176Y-77715816D02*
X110960747Y-77715816D01*
X110960747Y-77715816D02*
X110913128Y-77692006D01*
X111127414Y-77525340D02*
X111079795Y-77549149D01*
X111079795Y-77549149D02*
X110984557Y-77549149D01*
X110984557Y-77549149D02*
X110936938Y-77525340D01*
X110936938Y-77525340D02*
X110913128Y-77501530D01*
X110913128Y-77501530D02*
X110889319Y-77453911D01*
X110889319Y-77453911D02*
X110889319Y-77311054D01*
X110889319Y-77311054D02*
X110913128Y-77263435D01*
X110913128Y-77263435D02*
X110936938Y-77239625D01*
X110936938Y-77239625D02*
X110984557Y-77215816D01*
X110984557Y-77215816D02*
X111079795Y-77215816D01*
X111079795Y-77215816D02*
X111127414Y-77239625D01*
X104960750Y-78020816D02*
X105151226Y-78020816D01*
X105032178Y-77854149D02*
X105032178Y-78282720D01*
X105032178Y-78282720D02*
X105055988Y-78330340D01*
X105055988Y-78330340D02*
X105103607Y-78354149D01*
X105103607Y-78354149D02*
X105151226Y-78354149D01*
X105317892Y-78354149D02*
X105317892Y-77854149D01*
X105532178Y-78354149D02*
X105532178Y-78092244D01*
X105532178Y-78092244D02*
X105508368Y-78044625D01*
X105508368Y-78044625D02*
X105460749Y-78020816D01*
X105460749Y-78020816D02*
X105389321Y-78020816D01*
X105389321Y-78020816D02*
X105341702Y-78044625D01*
X105341702Y-78044625D02*
X105317892Y-78068435D01*
X105770273Y-78354149D02*
X105770273Y-78020816D01*
X105770273Y-77854149D02*
X105746464Y-77877959D01*
X105746464Y-77877959D02*
X105770273Y-77901768D01*
X105770273Y-77901768D02*
X105794083Y-77877959D01*
X105794083Y-77877959D02*
X105770273Y-77854149D01*
X105770273Y-77854149D02*
X105770273Y-77901768D01*
X105984559Y-78330340D02*
X106032178Y-78354149D01*
X106032178Y-78354149D02*
X106127416Y-78354149D01*
X106127416Y-78354149D02*
X106175035Y-78330340D01*
X106175035Y-78330340D02*
X106198844Y-78282720D01*
X106198844Y-78282720D02*
X106198844Y-78258911D01*
X106198844Y-78258911D02*
X106175035Y-78211292D01*
X106175035Y-78211292D02*
X106127416Y-78187482D01*
X106127416Y-78187482D02*
X106055987Y-78187482D01*
X106055987Y-78187482D02*
X106008368Y-78163673D01*
X106008368Y-78163673D02*
X105984559Y-78116054D01*
X105984559Y-78116054D02*
X105984559Y-78092244D01*
X105984559Y-78092244D02*
X106008368Y-78044625D01*
X106008368Y-78044625D02*
X106055987Y-78020816D01*
X106055987Y-78020816D02*
X106127416Y-78020816D01*
X106127416Y-78020816D02*
X106175035Y-78044625D01*
X106436940Y-78330340D02*
X106436940Y-78354149D01*
X106436940Y-78354149D02*
X106413130Y-78401768D01*
X106413130Y-78401768D02*
X106389321Y-78425578D01*
X106984558Y-78020816D02*
X107079796Y-78354149D01*
X107079796Y-78354149D02*
X107175034Y-78116054D01*
X107175034Y-78116054D02*
X107270272Y-78354149D01*
X107270272Y-78354149D02*
X107365510Y-78020816D01*
X107555987Y-78354149D02*
X107555987Y-78020816D01*
X107555987Y-78116054D02*
X107579797Y-78068435D01*
X107579797Y-78068435D02*
X107603606Y-78044625D01*
X107603606Y-78044625D02*
X107651225Y-78020816D01*
X107651225Y-78020816D02*
X107698844Y-78020816D01*
X107936940Y-78354149D02*
X107889321Y-78330340D01*
X107889321Y-78330340D02*
X107865511Y-78306530D01*
X107865511Y-78306530D02*
X107841702Y-78258911D01*
X107841702Y-78258911D02*
X107841702Y-78116054D01*
X107841702Y-78116054D02*
X107865511Y-78068435D01*
X107865511Y-78068435D02*
X107889321Y-78044625D01*
X107889321Y-78044625D02*
X107936940Y-78020816D01*
X107936940Y-78020816D02*
X108008368Y-78020816D01*
X108008368Y-78020816D02*
X108055987Y-78044625D01*
X108055987Y-78044625D02*
X108079797Y-78068435D01*
X108079797Y-78068435D02*
X108103606Y-78116054D01*
X108103606Y-78116054D02*
X108103606Y-78258911D01*
X108103606Y-78258911D02*
X108079797Y-78306530D01*
X108079797Y-78306530D02*
X108055987Y-78330340D01*
X108055987Y-78330340D02*
X108008368Y-78354149D01*
X108008368Y-78354149D02*
X107936940Y-78354149D01*
X108317892Y-78020816D02*
X108317892Y-78354149D01*
X108317892Y-78068435D02*
X108341702Y-78044625D01*
X108341702Y-78044625D02*
X108389321Y-78020816D01*
X108389321Y-78020816D02*
X108460749Y-78020816D01*
X108460749Y-78020816D02*
X108508368Y-78044625D01*
X108508368Y-78044625D02*
X108532178Y-78092244D01*
X108532178Y-78092244D02*
X108532178Y-78354149D01*
X108984559Y-78020816D02*
X108984559Y-78425578D01*
X108984559Y-78425578D02*
X108960749Y-78473197D01*
X108960749Y-78473197D02*
X108936940Y-78497006D01*
X108936940Y-78497006D02*
X108889321Y-78520816D01*
X108889321Y-78520816D02*
X108817892Y-78520816D01*
X108817892Y-78520816D02*
X108770273Y-78497006D01*
X108984559Y-78330340D02*
X108936940Y-78354149D01*
X108936940Y-78354149D02*
X108841702Y-78354149D01*
X108841702Y-78354149D02*
X108794083Y-78330340D01*
X108794083Y-78330340D02*
X108770273Y-78306530D01*
X108770273Y-78306530D02*
X108746464Y-78258911D01*
X108746464Y-78258911D02*
X108746464Y-78116054D01*
X108746464Y-78116054D02*
X108770273Y-78068435D01*
X108770273Y-78068435D02*
X108794083Y-78044625D01*
X108794083Y-78044625D02*
X108841702Y-78020816D01*
X108841702Y-78020816D02*
X108936940Y-78020816D01*
X108936940Y-78020816D02*
X108984559Y-78044625D01*
X109579797Y-78330340D02*
X109627416Y-78354149D01*
X109627416Y-78354149D02*
X109722654Y-78354149D01*
X109722654Y-78354149D02*
X109770273Y-78330340D01*
X109770273Y-78330340D02*
X109794082Y-78282720D01*
X109794082Y-78282720D02*
X109794082Y-78258911D01*
X109794082Y-78258911D02*
X109770273Y-78211292D01*
X109770273Y-78211292D02*
X109722654Y-78187482D01*
X109722654Y-78187482D02*
X109651225Y-78187482D01*
X109651225Y-78187482D02*
X109603606Y-78163673D01*
X109603606Y-78163673D02*
X109579797Y-78116054D01*
X109579797Y-78116054D02*
X109579797Y-78092244D01*
X109579797Y-78092244D02*
X109603606Y-78044625D01*
X109603606Y-78044625D02*
X109651225Y-78020816D01*
X109651225Y-78020816D02*
X109722654Y-78020816D01*
X109722654Y-78020816D02*
X109770273Y-78044625D01*
X110008368Y-78354149D02*
X110008368Y-78020816D01*
X110008368Y-77854149D02*
X109984559Y-77877959D01*
X109984559Y-77877959D02*
X110008368Y-77901768D01*
X110008368Y-77901768D02*
X110032178Y-77877959D01*
X110032178Y-77877959D02*
X110008368Y-77854149D01*
X110008368Y-77854149D02*
X110008368Y-77901768D01*
X110460749Y-78354149D02*
X110460749Y-77854149D01*
X110460749Y-78330340D02*
X110413130Y-78354149D01*
X110413130Y-78354149D02*
X110317892Y-78354149D01*
X110317892Y-78354149D02*
X110270273Y-78330340D01*
X110270273Y-78330340D02*
X110246463Y-78306530D01*
X110246463Y-78306530D02*
X110222654Y-78258911D01*
X110222654Y-78258911D02*
X110222654Y-78116054D01*
X110222654Y-78116054D02*
X110246463Y-78068435D01*
X110246463Y-78068435D02*
X110270273Y-78044625D01*
X110270273Y-78044625D02*
X110317892Y-78020816D01*
X110317892Y-78020816D02*
X110413130Y-78020816D01*
X110413130Y-78020816D02*
X110460749Y-78044625D01*
X110889320Y-78330340D02*
X110841701Y-78354149D01*
X110841701Y-78354149D02*
X110746463Y-78354149D01*
X110746463Y-78354149D02*
X110698844Y-78330340D01*
X110698844Y-78330340D02*
X110675035Y-78282720D01*
X110675035Y-78282720D02*
X110675035Y-78092244D01*
X110675035Y-78092244D02*
X110698844Y-78044625D01*
X110698844Y-78044625D02*
X110746463Y-78020816D01*
X110746463Y-78020816D02*
X110841701Y-78020816D01*
X110841701Y-78020816D02*
X110889320Y-78044625D01*
X110889320Y-78044625D02*
X110913130Y-78092244D01*
X110913130Y-78092244D02*
X110913130Y-78139863D01*
X110913130Y-78139863D02*
X110675035Y-78187482D01*
X111508367Y-78306530D02*
X111532177Y-78330340D01*
X111532177Y-78330340D02*
X111508367Y-78354149D01*
X111508367Y-78354149D02*
X111484558Y-78330340D01*
X111484558Y-78330340D02*
X111508367Y-78306530D01*
X111508367Y-78306530D02*
X111508367Y-78354149D01*
X111508367Y-78044625D02*
X111532177Y-78068435D01*
X111532177Y-78068435D02*
X111508367Y-78092244D01*
X111508367Y-78092244D02*
X111484558Y-78068435D01*
X111484558Y-78068435D02*
X111508367Y-78044625D01*
X111508367Y-78044625D02*
X111508367Y-78092244D01*
X111841700Y-77854149D02*
X111889319Y-77854149D01*
X111889319Y-77854149D02*
X111936938Y-77877959D01*
X111936938Y-77877959D02*
X111960748Y-77901768D01*
X111960748Y-77901768D02*
X111984557Y-77949387D01*
X111984557Y-77949387D02*
X112008367Y-78044625D01*
X112008367Y-78044625D02*
X112008367Y-78163673D01*
X112008367Y-78163673D02*
X111984557Y-78258911D01*
X111984557Y-78258911D02*
X111960748Y-78306530D01*
X111960748Y-78306530D02*
X111936938Y-78330340D01*
X111936938Y-78330340D02*
X111889319Y-78354149D01*
X111889319Y-78354149D02*
X111841700Y-78354149D01*
X111841700Y-78354149D02*
X111794081Y-78330340D01*
X111794081Y-78330340D02*
X111770272Y-78306530D01*
X111770272Y-78306530D02*
X111746462Y-78258911D01*
X111746462Y-78258911D02*
X111722653Y-78163673D01*
X111722653Y-78163673D02*
X111722653Y-78044625D01*
X111722653Y-78044625D02*
X111746462Y-77949387D01*
X111746462Y-77949387D02*
X111770272Y-77901768D01*
X111770272Y-77901768D02*
X111794081Y-77877959D01*
X111794081Y-77877959D02*
X111841700Y-77854149D01*
D10*
X105353431Y-55440609D02*
X105115336Y-55440609D01*
X105115336Y-55440609D02*
X105091527Y-55678704D01*
X105091527Y-55678704D02*
X105115336Y-55654895D01*
X105115336Y-55654895D02*
X105162955Y-55631085D01*
X105162955Y-55631085D02*
X105282003Y-55631085D01*
X105282003Y-55631085D02*
X105329622Y-55654895D01*
X105329622Y-55654895D02*
X105353431Y-55678704D01*
X105353431Y-55678704D02*
X105377241Y-55726323D01*
X105377241Y-55726323D02*
X105377241Y-55845371D01*
X105377241Y-55845371D02*
X105353431Y-55892990D01*
X105353431Y-55892990D02*
X105329622Y-55916800D01*
X105329622Y-55916800D02*
X105282003Y-55940609D01*
X105282003Y-55940609D02*
X105162955Y-55940609D01*
X105162955Y-55940609D02*
X105115336Y-55916800D01*
X105115336Y-55916800D02*
X105091527Y-55892990D01*
X105543907Y-55607276D02*
X105662955Y-55940609D01*
X105662955Y-55940609D02*
X105782002Y-55607276D01*
X102727717Y-55440609D02*
X103061050Y-55940609D01*
X103061050Y-55440609D02*
X102727717Y-55940609D01*
D12*
X106635500Y-68450814D02*
X106621214Y-68465100D01*
X106621214Y-68465100D02*
X106578357Y-68479385D01*
X106578357Y-68479385D02*
X106549785Y-68479385D01*
X106549785Y-68479385D02*
X106506928Y-68465100D01*
X106506928Y-68465100D02*
X106478357Y-68436528D01*
X106478357Y-68436528D02*
X106464071Y-68407957D01*
X106464071Y-68407957D02*
X106449785Y-68350814D01*
X106449785Y-68350814D02*
X106449785Y-68307957D01*
X106449785Y-68307957D02*
X106464071Y-68250814D01*
X106464071Y-68250814D02*
X106478357Y-68222242D01*
X106478357Y-68222242D02*
X106506928Y-68193671D01*
X106506928Y-68193671D02*
X106549785Y-68179385D01*
X106549785Y-68179385D02*
X106578357Y-68179385D01*
X106578357Y-68179385D02*
X106621214Y-68193671D01*
X106621214Y-68193671D02*
X106635500Y-68207957D01*
X106735500Y-68179385D02*
X106935500Y-68179385D01*
X106935500Y-68179385D02*
X106806928Y-68479385D01*
X111617643Y-63154385D02*
X111517643Y-63011528D01*
X111446214Y-63154385D02*
X111446214Y-62854385D01*
X111446214Y-62854385D02*
X111560500Y-62854385D01*
X111560500Y-62854385D02*
X111589071Y-62868671D01*
X111589071Y-62868671D02*
X111603357Y-62882957D01*
X111603357Y-62882957D02*
X111617643Y-62911528D01*
X111617643Y-62911528D02*
X111617643Y-62954385D01*
X111617643Y-62954385D02*
X111603357Y-62982957D01*
X111603357Y-62982957D02*
X111589071Y-62997242D01*
X111589071Y-62997242D02*
X111560500Y-63011528D01*
X111560500Y-63011528D02*
X111446214Y-63011528D01*
X111903357Y-63154385D02*
X111731928Y-63154385D01*
X111817643Y-63154385D02*
X111817643Y-62854385D01*
X111817643Y-62854385D02*
X111789071Y-62897242D01*
X111789071Y-62897242D02*
X111760500Y-62925814D01*
X111760500Y-62925814D02*
X111731928Y-62940100D01*
X112189071Y-63154385D02*
X112017642Y-63154385D01*
X112103357Y-63154385D02*
X112103357Y-62854385D01*
X112103357Y-62854385D02*
X112074785Y-62897242D01*
X112074785Y-62897242D02*
X112046214Y-62925814D01*
X112046214Y-62925814D02*
X112017642Y-62940100D01*
X111617643Y-60029385D02*
X111517643Y-59886528D01*
X111446214Y-60029385D02*
X111446214Y-59729385D01*
X111446214Y-59729385D02*
X111560500Y-59729385D01*
X111560500Y-59729385D02*
X111589071Y-59743671D01*
X111589071Y-59743671D02*
X111603357Y-59757957D01*
X111603357Y-59757957D02*
X111617643Y-59786528D01*
X111617643Y-59786528D02*
X111617643Y-59829385D01*
X111617643Y-59829385D02*
X111603357Y-59857957D01*
X111603357Y-59857957D02*
X111589071Y-59872242D01*
X111589071Y-59872242D02*
X111560500Y-59886528D01*
X111560500Y-59886528D02*
X111446214Y-59886528D01*
X111903357Y-60029385D02*
X111731928Y-60029385D01*
X111817643Y-60029385D02*
X111817643Y-59729385D01*
X111817643Y-59729385D02*
X111789071Y-59772242D01*
X111789071Y-59772242D02*
X111760500Y-59800814D01*
X111760500Y-59800814D02*
X111731928Y-59815100D01*
X112089071Y-59729385D02*
X112117642Y-59729385D01*
X112117642Y-59729385D02*
X112146214Y-59743671D01*
X112146214Y-59743671D02*
X112160500Y-59757957D01*
X112160500Y-59757957D02*
X112174785Y-59786528D01*
X112174785Y-59786528D02*
X112189071Y-59843671D01*
X112189071Y-59843671D02*
X112189071Y-59915100D01*
X112189071Y-59915100D02*
X112174785Y-59972242D01*
X112174785Y-59972242D02*
X112160500Y-60000814D01*
X112160500Y-60000814D02*
X112146214Y-60015100D01*
X112146214Y-60015100D02*
X112117642Y-60029385D01*
X112117642Y-60029385D02*
X112089071Y-60029385D01*
X112089071Y-60029385D02*
X112060500Y-60015100D01*
X112060500Y-60015100D02*
X112046214Y-60000814D01*
X112046214Y-60000814D02*
X112031928Y-59972242D01*
X112031928Y-59972242D02*
X112017642Y-59915100D01*
X112017642Y-59915100D02*
X112017642Y-59843671D01*
X112017642Y-59843671D02*
X112031928Y-59786528D01*
X112031928Y-59786528D02*
X112046214Y-59757957D01*
X112046214Y-59757957D02*
X112060500Y-59743671D01*
X112060500Y-59743671D02*
X112089071Y-59729385D01*
X104970385Y-70119499D02*
X104827528Y-70219499D01*
X104970385Y-70290928D02*
X104670385Y-70290928D01*
X104670385Y-70290928D02*
X104670385Y-70176642D01*
X104670385Y-70176642D02*
X104684671Y-70148071D01*
X104684671Y-70148071D02*
X104698957Y-70133785D01*
X104698957Y-70133785D02*
X104727528Y-70119499D01*
X104727528Y-70119499D02*
X104770385Y-70119499D01*
X104770385Y-70119499D02*
X104798957Y-70133785D01*
X104798957Y-70133785D02*
X104813242Y-70148071D01*
X104813242Y-70148071D02*
X104827528Y-70176642D01*
X104827528Y-70176642D02*
X104827528Y-70290928D01*
X104970385Y-69833785D02*
X104970385Y-70005214D01*
X104970385Y-69919499D02*
X104670385Y-69919499D01*
X104670385Y-69919499D02*
X104713242Y-69948071D01*
X104713242Y-69948071D02*
X104741814Y-69976642D01*
X104741814Y-69976642D02*
X104756100Y-70005214D01*
X113520500Y-61200814D02*
X113506214Y-61215100D01*
X113506214Y-61215100D02*
X113463357Y-61229385D01*
X113463357Y-61229385D02*
X113434785Y-61229385D01*
X113434785Y-61229385D02*
X113391928Y-61215100D01*
X113391928Y-61215100D02*
X113363357Y-61186528D01*
X113363357Y-61186528D02*
X113349071Y-61157957D01*
X113349071Y-61157957D02*
X113334785Y-61100814D01*
X113334785Y-61100814D02*
X113334785Y-61057957D01*
X113334785Y-61057957D02*
X113349071Y-61000814D01*
X113349071Y-61000814D02*
X113363357Y-60972242D01*
X113363357Y-60972242D02*
X113391928Y-60943671D01*
X113391928Y-60943671D02*
X113434785Y-60929385D01*
X113434785Y-60929385D02*
X113463357Y-60929385D01*
X113463357Y-60929385D02*
X113506214Y-60943671D01*
X113506214Y-60943671D02*
X113520500Y-60957957D01*
X113777643Y-60929385D02*
X113720500Y-60929385D01*
X113720500Y-60929385D02*
X113691928Y-60943671D01*
X113691928Y-60943671D02*
X113677643Y-60957957D01*
X113677643Y-60957957D02*
X113649071Y-61000814D01*
X113649071Y-61000814D02*
X113634785Y-61057957D01*
X113634785Y-61057957D02*
X113634785Y-61172242D01*
X113634785Y-61172242D02*
X113649071Y-61200814D01*
X113649071Y-61200814D02*
X113663357Y-61215100D01*
X113663357Y-61215100D02*
X113691928Y-61229385D01*
X113691928Y-61229385D02*
X113749071Y-61229385D01*
X113749071Y-61229385D02*
X113777643Y-61215100D01*
X113777643Y-61215100D02*
X113791928Y-61200814D01*
X113791928Y-61200814D02*
X113806214Y-61172242D01*
X113806214Y-61172242D02*
X113806214Y-61100814D01*
X113806214Y-61100814D02*
X113791928Y-61072242D01*
X113791928Y-61072242D02*
X113777643Y-61057957D01*
X113777643Y-61057957D02*
X113749071Y-61043671D01*
X113749071Y-61043671D02*
X113691928Y-61043671D01*
X113691928Y-61043671D02*
X113663357Y-61057957D01*
X113663357Y-61057957D02*
X113649071Y-61072242D01*
X113649071Y-61072242D02*
X113634785Y-61100814D01*
D13*
X104209547Y-57559309D02*
X104209547Y-57964071D01*
X104209547Y-57964071D02*
X104233357Y-58011690D01*
X104233357Y-58011690D02*
X104257166Y-58035500D01*
X104257166Y-58035500D02*
X104304785Y-58059309D01*
X104304785Y-58059309D02*
X104400023Y-58059309D01*
X104400023Y-58059309D02*
X104447642Y-58035500D01*
X104447642Y-58035500D02*
X104471452Y-58011690D01*
X104471452Y-58011690D02*
X104495261Y-57964071D01*
X104495261Y-57964071D02*
X104495261Y-57559309D01*
X104995262Y-58059309D02*
X104709548Y-58059309D01*
X104852405Y-58059309D02*
X104852405Y-57559309D01*
X104852405Y-57559309D02*
X104804786Y-57630738D01*
X104804786Y-57630738D02*
X104757167Y-57678357D01*
X104757167Y-57678357D02*
X104709548Y-57702166D01*
D10*
X116366609Y-61555050D02*
X116866609Y-61221717D01*
X116366609Y-61221717D02*
X116866609Y-61555050D01*
X92387800Y-69583472D02*
X92411609Y-69512044D01*
X92411609Y-69512044D02*
X92411609Y-69392996D01*
X92411609Y-69392996D02*
X92387800Y-69345377D01*
X92387800Y-69345377D02*
X92363990Y-69321568D01*
X92363990Y-69321568D02*
X92316371Y-69297758D01*
X92316371Y-69297758D02*
X92268752Y-69297758D01*
X92268752Y-69297758D02*
X92221133Y-69321568D01*
X92221133Y-69321568D02*
X92197323Y-69345377D01*
X92197323Y-69345377D02*
X92173514Y-69392996D01*
X92173514Y-69392996D02*
X92149704Y-69488234D01*
X92149704Y-69488234D02*
X92125895Y-69535853D01*
X92125895Y-69535853D02*
X92102085Y-69559663D01*
X92102085Y-69559663D02*
X92054466Y-69583472D01*
X92054466Y-69583472D02*
X92006847Y-69583472D01*
X92006847Y-69583472D02*
X91959228Y-69559663D01*
X91959228Y-69559663D02*
X91935419Y-69535853D01*
X91935419Y-69535853D02*
X91911609Y-69488234D01*
X91911609Y-69488234D02*
X91911609Y-69369187D01*
X91911609Y-69369187D02*
X91935419Y-69297758D01*
X92363990Y-68797759D02*
X92387800Y-68821568D01*
X92387800Y-68821568D02*
X92411609Y-68892997D01*
X92411609Y-68892997D02*
X92411609Y-68940616D01*
X92411609Y-68940616D02*
X92387800Y-69012044D01*
X92387800Y-69012044D02*
X92340180Y-69059663D01*
X92340180Y-69059663D02*
X92292561Y-69083473D01*
X92292561Y-69083473D02*
X92197323Y-69107282D01*
X92197323Y-69107282D02*
X92125895Y-69107282D01*
X92125895Y-69107282D02*
X92030657Y-69083473D01*
X92030657Y-69083473D02*
X91983038Y-69059663D01*
X91983038Y-69059663D02*
X91935419Y-69012044D01*
X91935419Y-69012044D02*
X91911609Y-68940616D01*
X91911609Y-68940616D02*
X91911609Y-68892997D01*
X91911609Y-68892997D02*
X91935419Y-68821568D01*
X91935419Y-68821568D02*
X91959228Y-68797759D01*
X92411609Y-68345378D02*
X92411609Y-68583473D01*
X92411609Y-68583473D02*
X91911609Y-68583473D01*
X116854609Y-69604336D02*
X116354609Y-69604336D01*
X116354609Y-69271003D02*
X116354609Y-69175765D01*
X116354609Y-69175765D02*
X116378419Y-69128146D01*
X116378419Y-69128146D02*
X116426038Y-69080527D01*
X116426038Y-69080527D02*
X116521276Y-69056717D01*
X116521276Y-69056717D02*
X116687942Y-69056717D01*
X116687942Y-69056717D02*
X116783180Y-69080527D01*
X116783180Y-69080527D02*
X116830800Y-69128146D01*
X116830800Y-69128146D02*
X116854609Y-69175765D01*
X116854609Y-69175765D02*
X116854609Y-69271003D01*
X116854609Y-69271003D02*
X116830800Y-69318622D01*
X116830800Y-69318622D02*
X116783180Y-69366241D01*
X116783180Y-69366241D02*
X116687942Y-69390050D01*
X116687942Y-69390050D02*
X116521276Y-69390050D01*
X116521276Y-69390050D02*
X116426038Y-69366241D01*
X116426038Y-69366241D02*
X116378419Y-69318622D01*
X116378419Y-69318622D02*
X116354609Y-69271003D01*
X116402228Y-68866240D02*
X116378419Y-68842431D01*
X116378419Y-68842431D02*
X116354609Y-68794812D01*
X116354609Y-68794812D02*
X116354609Y-68675764D01*
X116354609Y-68675764D02*
X116378419Y-68628145D01*
X116378419Y-68628145D02*
X116402228Y-68604336D01*
X116402228Y-68604336D02*
X116449847Y-68580526D01*
X116449847Y-68580526D02*
X116497466Y-68580526D01*
X116497466Y-68580526D02*
X116568895Y-68604336D01*
X116568895Y-68604336D02*
X116854609Y-68890050D01*
X116854609Y-68890050D02*
X116854609Y-68580526D01*
X92387800Y-72033472D02*
X92411609Y-71962044D01*
X92411609Y-71962044D02*
X92411609Y-71842996D01*
X92411609Y-71842996D02*
X92387800Y-71795377D01*
X92387800Y-71795377D02*
X92363990Y-71771568D01*
X92363990Y-71771568D02*
X92316371Y-71747758D01*
X92316371Y-71747758D02*
X92268752Y-71747758D01*
X92268752Y-71747758D02*
X92221133Y-71771568D01*
X92221133Y-71771568D02*
X92197323Y-71795377D01*
X92197323Y-71795377D02*
X92173514Y-71842996D01*
X92173514Y-71842996D02*
X92149704Y-71938234D01*
X92149704Y-71938234D02*
X92125895Y-71985853D01*
X92125895Y-71985853D02*
X92102085Y-72009663D01*
X92102085Y-72009663D02*
X92054466Y-72033472D01*
X92054466Y-72033472D02*
X92006847Y-72033472D01*
X92006847Y-72033472D02*
X91959228Y-72009663D01*
X91959228Y-72009663D02*
X91935419Y-71985853D01*
X91935419Y-71985853D02*
X91911609Y-71938234D01*
X91911609Y-71938234D02*
X91911609Y-71819187D01*
X91911609Y-71819187D02*
X91935419Y-71747758D01*
X92411609Y-71533473D02*
X91911609Y-71533473D01*
X91911609Y-71533473D02*
X91911609Y-71414425D01*
X91911609Y-71414425D02*
X91935419Y-71342997D01*
X91935419Y-71342997D02*
X91983038Y-71295378D01*
X91983038Y-71295378D02*
X92030657Y-71271568D01*
X92030657Y-71271568D02*
X92125895Y-71247759D01*
X92125895Y-71247759D02*
X92197323Y-71247759D01*
X92197323Y-71247759D02*
X92292561Y-71271568D01*
X92292561Y-71271568D02*
X92340180Y-71295378D01*
X92340180Y-71295378D02*
X92387800Y-71342997D01*
X92387800Y-71342997D02*
X92411609Y-71414425D01*
X92411609Y-71414425D02*
X92411609Y-71533473D01*
X92268752Y-71057282D02*
X92268752Y-70819187D01*
X92411609Y-71104901D02*
X91911609Y-70938235D01*
X91911609Y-70938235D02*
X92411609Y-70771568D01*
X116854609Y-72154336D02*
X116354609Y-72154336D01*
X116354609Y-71821003D02*
X116354609Y-71725765D01*
X116354609Y-71725765D02*
X116378419Y-71678146D01*
X116378419Y-71678146D02*
X116426038Y-71630527D01*
X116426038Y-71630527D02*
X116521276Y-71606717D01*
X116521276Y-71606717D02*
X116687942Y-71606717D01*
X116687942Y-71606717D02*
X116783180Y-71630527D01*
X116783180Y-71630527D02*
X116830800Y-71678146D01*
X116830800Y-71678146D02*
X116854609Y-71725765D01*
X116854609Y-71725765D02*
X116854609Y-71821003D01*
X116854609Y-71821003D02*
X116830800Y-71868622D01*
X116830800Y-71868622D02*
X116783180Y-71916241D01*
X116783180Y-71916241D02*
X116687942Y-71940050D01*
X116687942Y-71940050D02*
X116521276Y-71940050D01*
X116521276Y-71940050D02*
X116426038Y-71916241D01*
X116426038Y-71916241D02*
X116378419Y-71868622D01*
X116378419Y-71868622D02*
X116354609Y-71821003D01*
X116854609Y-71130526D02*
X116854609Y-71416240D01*
X116854609Y-71273383D02*
X116354609Y-71273383D01*
X116354609Y-71273383D02*
X116426038Y-71321002D01*
X116426038Y-71321002D02*
X116473657Y-71368621D01*
X116473657Y-71368621D02*
X116497466Y-71416240D01*
X116854609Y-64554336D02*
X116354609Y-64554336D01*
X116354609Y-64221003D02*
X116354609Y-64125765D01*
X116354609Y-64125765D02*
X116378419Y-64078146D01*
X116378419Y-64078146D02*
X116426038Y-64030527D01*
X116426038Y-64030527D02*
X116521276Y-64006717D01*
X116521276Y-64006717D02*
X116687942Y-64006717D01*
X116687942Y-64006717D02*
X116783180Y-64030527D01*
X116783180Y-64030527D02*
X116830800Y-64078146D01*
X116830800Y-64078146D02*
X116854609Y-64125765D01*
X116854609Y-64125765D02*
X116854609Y-64221003D01*
X116854609Y-64221003D02*
X116830800Y-64268622D01*
X116830800Y-64268622D02*
X116783180Y-64316241D01*
X116783180Y-64316241D02*
X116687942Y-64340050D01*
X116687942Y-64340050D02*
X116521276Y-64340050D01*
X116521276Y-64340050D02*
X116426038Y-64316241D01*
X116426038Y-64316241D02*
X116378419Y-64268622D01*
X116378419Y-64268622D02*
X116354609Y-64221003D01*
X116521276Y-63578145D02*
X116854609Y-63578145D01*
X116330800Y-63697193D02*
X116687942Y-63816240D01*
X116687942Y-63816240D02*
X116687942Y-63506717D01*
X116854609Y-67104336D02*
X116354609Y-67104336D01*
X116354609Y-66771003D02*
X116354609Y-66675765D01*
X116354609Y-66675765D02*
X116378419Y-66628146D01*
X116378419Y-66628146D02*
X116426038Y-66580527D01*
X116426038Y-66580527D02*
X116521276Y-66556717D01*
X116521276Y-66556717D02*
X116687942Y-66556717D01*
X116687942Y-66556717D02*
X116783180Y-66580527D01*
X116783180Y-66580527D02*
X116830800Y-66628146D01*
X116830800Y-66628146D02*
X116854609Y-66675765D01*
X116854609Y-66675765D02*
X116854609Y-66771003D01*
X116854609Y-66771003D02*
X116830800Y-66818622D01*
X116830800Y-66818622D02*
X116783180Y-66866241D01*
X116783180Y-66866241D02*
X116687942Y-66890050D01*
X116687942Y-66890050D02*
X116521276Y-66890050D01*
X116521276Y-66890050D02*
X116426038Y-66866241D01*
X116426038Y-66866241D02*
X116378419Y-66818622D01*
X116378419Y-66818622D02*
X116354609Y-66771003D01*
X116354609Y-66390050D02*
X116354609Y-66080526D01*
X116354609Y-66080526D02*
X116545085Y-66247193D01*
X116545085Y-66247193D02*
X116545085Y-66175764D01*
X116545085Y-66175764D02*
X116568895Y-66128145D01*
X116568895Y-66128145D02*
X116592704Y-66104336D01*
X116592704Y-66104336D02*
X116640323Y-66080526D01*
X116640323Y-66080526D02*
X116759371Y-66080526D01*
X116759371Y-66080526D02*
X116806990Y-66104336D01*
X116806990Y-66104336D02*
X116830800Y-66128145D01*
X116830800Y-66128145D02*
X116854609Y-66175764D01*
X116854609Y-66175764D02*
X116854609Y-66318621D01*
X116854609Y-66318621D02*
X116830800Y-66366240D01*
X116830800Y-66366240D02*
X116806990Y-66390050D01*
X92387800Y-59433472D02*
X92411609Y-59362044D01*
X92411609Y-59362044D02*
X92411609Y-59242996D01*
X92411609Y-59242996D02*
X92387800Y-59195377D01*
X92387800Y-59195377D02*
X92363990Y-59171568D01*
X92363990Y-59171568D02*
X92316371Y-59147758D01*
X92316371Y-59147758D02*
X92268752Y-59147758D01*
X92268752Y-59147758D02*
X92221133Y-59171568D01*
X92221133Y-59171568D02*
X92197323Y-59195377D01*
X92197323Y-59195377D02*
X92173514Y-59242996D01*
X92173514Y-59242996D02*
X92149704Y-59338234D01*
X92149704Y-59338234D02*
X92125895Y-59385853D01*
X92125895Y-59385853D02*
X92102085Y-59409663D01*
X92102085Y-59409663D02*
X92054466Y-59433472D01*
X92054466Y-59433472D02*
X92006847Y-59433472D01*
X92006847Y-59433472D02*
X91959228Y-59409663D01*
X91959228Y-59409663D02*
X91935419Y-59385853D01*
X91935419Y-59385853D02*
X91911609Y-59338234D01*
X91911609Y-59338234D02*
X91911609Y-59219187D01*
X91911609Y-59219187D02*
X91935419Y-59147758D01*
X92363990Y-58647759D02*
X92387800Y-58671568D01*
X92387800Y-58671568D02*
X92411609Y-58742997D01*
X92411609Y-58742997D02*
X92411609Y-58790616D01*
X92411609Y-58790616D02*
X92387800Y-58862044D01*
X92387800Y-58862044D02*
X92340180Y-58909663D01*
X92340180Y-58909663D02*
X92292561Y-58933473D01*
X92292561Y-58933473D02*
X92197323Y-58957282D01*
X92197323Y-58957282D02*
X92125895Y-58957282D01*
X92125895Y-58957282D02*
X92030657Y-58933473D01*
X92030657Y-58933473D02*
X91983038Y-58909663D01*
X91983038Y-58909663D02*
X91935419Y-58862044D01*
X91935419Y-58862044D02*
X91911609Y-58790616D01*
X91911609Y-58790616D02*
X91911609Y-58742997D01*
X91911609Y-58742997D02*
X91935419Y-58671568D01*
X91935419Y-58671568D02*
X91959228Y-58647759D01*
X92411609Y-58433473D02*
X91911609Y-58433473D01*
X92411609Y-58147759D02*
X92125895Y-58362044D01*
X91911609Y-58147759D02*
X92197323Y-58433473D01*
X92363990Y-66623949D02*
X92387800Y-66647758D01*
X92387800Y-66647758D02*
X92411609Y-66719187D01*
X92411609Y-66719187D02*
X92411609Y-66766806D01*
X92411609Y-66766806D02*
X92387800Y-66838234D01*
X92387800Y-66838234D02*
X92340180Y-66885853D01*
X92340180Y-66885853D02*
X92292561Y-66909663D01*
X92292561Y-66909663D02*
X92197323Y-66933472D01*
X92197323Y-66933472D02*
X92125895Y-66933472D01*
X92125895Y-66933472D02*
X92030657Y-66909663D01*
X92030657Y-66909663D02*
X91983038Y-66885853D01*
X91983038Y-66885853D02*
X91935419Y-66838234D01*
X91935419Y-66838234D02*
X91911609Y-66766806D01*
X91911609Y-66766806D02*
X91911609Y-66719187D01*
X91911609Y-66719187D02*
X91935419Y-66647758D01*
X91935419Y-66647758D02*
X91959228Y-66623949D01*
X92387800Y-66433472D02*
X92411609Y-66362044D01*
X92411609Y-66362044D02*
X92411609Y-66242996D01*
X92411609Y-66242996D02*
X92387800Y-66195377D01*
X92387800Y-66195377D02*
X92363990Y-66171568D01*
X92363990Y-66171568D02*
X92316371Y-66147758D01*
X92316371Y-66147758D02*
X92268752Y-66147758D01*
X92268752Y-66147758D02*
X92221133Y-66171568D01*
X92221133Y-66171568D02*
X92197323Y-66195377D01*
X92197323Y-66195377D02*
X92173514Y-66242996D01*
X92173514Y-66242996D02*
X92149704Y-66338234D01*
X92149704Y-66338234D02*
X92125895Y-66385853D01*
X92125895Y-66385853D02*
X92102085Y-66409663D01*
X92102085Y-66409663D02*
X92054466Y-66433472D01*
X92054466Y-66433472D02*
X92006847Y-66433472D01*
X92006847Y-66433472D02*
X91959228Y-66409663D01*
X91959228Y-66409663D02*
X91935419Y-66385853D01*
X91935419Y-66385853D02*
X91911609Y-66338234D01*
X91911609Y-66338234D02*
X91911609Y-66219187D01*
X91911609Y-66219187D02*
X91935419Y-66147758D01*
X92411609Y-62234663D02*
X91911609Y-62234663D01*
X91911609Y-62234663D02*
X92268752Y-62067996D01*
X92268752Y-62067996D02*
X91911609Y-61901330D01*
X91911609Y-61901330D02*
X92411609Y-61901330D01*
X91911609Y-61567996D02*
X91911609Y-61472758D01*
X91911609Y-61472758D02*
X91935419Y-61425139D01*
X91935419Y-61425139D02*
X91983038Y-61377520D01*
X91983038Y-61377520D02*
X92078276Y-61353710D01*
X92078276Y-61353710D02*
X92244942Y-61353710D01*
X92244942Y-61353710D02*
X92340180Y-61377520D01*
X92340180Y-61377520D02*
X92387800Y-61425139D01*
X92387800Y-61425139D02*
X92411609Y-61472758D01*
X92411609Y-61472758D02*
X92411609Y-61567996D01*
X92411609Y-61567996D02*
X92387800Y-61615615D01*
X92387800Y-61615615D02*
X92340180Y-61663234D01*
X92340180Y-61663234D02*
X92244942Y-61687043D01*
X92244942Y-61687043D02*
X92078276Y-61687043D01*
X92078276Y-61687043D02*
X91983038Y-61663234D01*
X91983038Y-61663234D02*
X91935419Y-61615615D01*
X91935419Y-61615615D02*
X91911609Y-61567996D01*
X92387800Y-61163233D02*
X92411609Y-61091805D01*
X92411609Y-61091805D02*
X92411609Y-60972757D01*
X92411609Y-60972757D02*
X92387800Y-60925138D01*
X92387800Y-60925138D02*
X92363990Y-60901329D01*
X92363990Y-60901329D02*
X92316371Y-60877519D01*
X92316371Y-60877519D02*
X92268752Y-60877519D01*
X92268752Y-60877519D02*
X92221133Y-60901329D01*
X92221133Y-60901329D02*
X92197323Y-60925138D01*
X92197323Y-60925138D02*
X92173514Y-60972757D01*
X92173514Y-60972757D02*
X92149704Y-61067995D01*
X92149704Y-61067995D02*
X92125895Y-61115614D01*
X92125895Y-61115614D02*
X92102085Y-61139424D01*
X92102085Y-61139424D02*
X92054466Y-61163233D01*
X92054466Y-61163233D02*
X92006847Y-61163233D01*
X92006847Y-61163233D02*
X91959228Y-61139424D01*
X91959228Y-61139424D02*
X91935419Y-61115614D01*
X91935419Y-61115614D02*
X91911609Y-61067995D01*
X91911609Y-61067995D02*
X91911609Y-60948948D01*
X91911609Y-60948948D02*
X91935419Y-60877519D01*
X92411609Y-60663234D02*
X91911609Y-60663234D01*
X92411609Y-64784663D02*
X91911609Y-64784663D01*
X91911609Y-64784663D02*
X92268752Y-64617996D01*
X92268752Y-64617996D02*
X91911609Y-64451330D01*
X91911609Y-64451330D02*
X92411609Y-64451330D01*
X92411609Y-64213234D02*
X91911609Y-64213234D01*
X92387800Y-63998948D02*
X92411609Y-63927520D01*
X92411609Y-63927520D02*
X92411609Y-63808472D01*
X92411609Y-63808472D02*
X92387800Y-63760853D01*
X92387800Y-63760853D02*
X92363990Y-63737044D01*
X92363990Y-63737044D02*
X92316371Y-63713234D01*
X92316371Y-63713234D02*
X92268752Y-63713234D01*
X92268752Y-63713234D02*
X92221133Y-63737044D01*
X92221133Y-63737044D02*
X92197323Y-63760853D01*
X92197323Y-63760853D02*
X92173514Y-63808472D01*
X92173514Y-63808472D02*
X92149704Y-63903710D01*
X92149704Y-63903710D02*
X92125895Y-63951329D01*
X92125895Y-63951329D02*
X92102085Y-63975139D01*
X92102085Y-63975139D02*
X92054466Y-63998948D01*
X92054466Y-63998948D02*
X92006847Y-63998948D01*
X92006847Y-63998948D02*
X91959228Y-63975139D01*
X91959228Y-63975139D02*
X91935419Y-63951329D01*
X91935419Y-63951329D02*
X91911609Y-63903710D01*
X91911609Y-63903710D02*
X91911609Y-63784663D01*
X91911609Y-63784663D02*
X91935419Y-63713234D01*
X91911609Y-63403711D02*
X91911609Y-63308473D01*
X91911609Y-63308473D02*
X91935419Y-63260854D01*
X91935419Y-63260854D02*
X91983038Y-63213235D01*
X91983038Y-63213235D02*
X92078276Y-63189425D01*
X92078276Y-63189425D02*
X92244942Y-63189425D01*
X92244942Y-63189425D02*
X92340180Y-63213235D01*
X92340180Y-63213235D02*
X92387800Y-63260854D01*
X92387800Y-63260854D02*
X92411609Y-63308473D01*
X92411609Y-63308473D02*
X92411609Y-63403711D01*
X92411609Y-63403711D02*
X92387800Y-63451330D01*
X92387800Y-63451330D02*
X92340180Y-63498949D01*
X92340180Y-63498949D02*
X92244942Y-63522758D01*
X92244942Y-63522758D02*
X92078276Y-63522758D01*
X92078276Y-63522758D02*
X91983038Y-63498949D01*
X91983038Y-63498949D02*
X91935419Y-63451330D01*
X91935419Y-63451330D02*
X91911609Y-63403711D01*
D12*
X98060500Y-82550814D02*
X98046214Y-82565100D01*
X98046214Y-82565100D02*
X98003357Y-82579385D01*
X98003357Y-82579385D02*
X97974785Y-82579385D01*
X97974785Y-82579385D02*
X97931928Y-82565100D01*
X97931928Y-82565100D02*
X97903357Y-82536528D01*
X97903357Y-82536528D02*
X97889071Y-82507957D01*
X97889071Y-82507957D02*
X97874785Y-82450814D01*
X97874785Y-82450814D02*
X97874785Y-82407957D01*
X97874785Y-82407957D02*
X97889071Y-82350814D01*
X97889071Y-82350814D02*
X97903357Y-82322242D01*
X97903357Y-82322242D02*
X97931928Y-82293671D01*
X97931928Y-82293671D02*
X97974785Y-82279385D01*
X97974785Y-82279385D02*
X98003357Y-82279385D01*
X98003357Y-82279385D02*
X98046214Y-82293671D01*
X98046214Y-82293671D02*
X98060500Y-82307957D01*
X98160500Y-82279385D02*
X98346214Y-82279385D01*
X98346214Y-82279385D02*
X98246214Y-82393671D01*
X98246214Y-82393671D02*
X98289071Y-82393671D01*
X98289071Y-82393671D02*
X98317643Y-82407957D01*
X98317643Y-82407957D02*
X98331928Y-82422242D01*
X98331928Y-82422242D02*
X98346214Y-82450814D01*
X98346214Y-82450814D02*
X98346214Y-82522242D01*
X98346214Y-82522242D02*
X98331928Y-82550814D01*
X98331928Y-82550814D02*
X98317643Y-82565100D01*
X98317643Y-82565100D02*
X98289071Y-82579385D01*
X98289071Y-82579385D02*
X98203357Y-82579385D01*
X98203357Y-82579385D02*
X98174785Y-82565100D01*
X98174785Y-82565100D02*
X98160500Y-82550814D01*
X95122405Y-80475647D02*
X94931929Y-80475647D01*
X94931929Y-80475647D02*
X94931929Y-80075647D01*
X95198596Y-80075647D02*
X95331929Y-80475647D01*
X95331929Y-80475647D02*
X95465262Y-80075647D01*
X95808119Y-80475647D02*
X95579548Y-80475647D01*
X95693834Y-80475647D02*
X95693834Y-80075647D01*
X95693834Y-80075647D02*
X95655738Y-80132790D01*
X95655738Y-80132790D02*
X95617643Y-80170885D01*
X95617643Y-80170885D02*
X95579548Y-80189933D01*
X94860500Y-75225814D02*
X94846214Y-75240100D01*
X94846214Y-75240100D02*
X94803357Y-75254385D01*
X94803357Y-75254385D02*
X94774785Y-75254385D01*
X94774785Y-75254385D02*
X94731928Y-75240100D01*
X94731928Y-75240100D02*
X94703357Y-75211528D01*
X94703357Y-75211528D02*
X94689071Y-75182957D01*
X94689071Y-75182957D02*
X94674785Y-75125814D01*
X94674785Y-75125814D02*
X94674785Y-75082957D01*
X94674785Y-75082957D02*
X94689071Y-75025814D01*
X94689071Y-75025814D02*
X94703357Y-74997242D01*
X94703357Y-74997242D02*
X94731928Y-74968671D01*
X94731928Y-74968671D02*
X94774785Y-74954385D01*
X94774785Y-74954385D02*
X94803357Y-74954385D01*
X94803357Y-74954385D02*
X94846214Y-74968671D01*
X94846214Y-74968671D02*
X94860500Y-74982957D01*
X94974785Y-74982957D02*
X94989071Y-74968671D01*
X94989071Y-74968671D02*
X95017643Y-74954385D01*
X95017643Y-74954385D02*
X95089071Y-74954385D01*
X95089071Y-74954385D02*
X95117643Y-74968671D01*
X95117643Y-74968671D02*
X95131928Y-74982957D01*
X95131928Y-74982957D02*
X95146214Y-75011528D01*
X95146214Y-75011528D02*
X95146214Y-75040100D01*
X95146214Y-75040100D02*
X95131928Y-75082957D01*
X95131928Y-75082957D02*
X94960500Y-75254385D01*
X94960500Y-75254385D02*
X95146214Y-75254385D01*
X111610500Y-64104385D02*
X111510500Y-63961528D01*
X111439071Y-64104385D02*
X111439071Y-63804385D01*
X111439071Y-63804385D02*
X111553357Y-63804385D01*
X111553357Y-63804385D02*
X111581928Y-63818671D01*
X111581928Y-63818671D02*
X111596214Y-63832957D01*
X111596214Y-63832957D02*
X111610500Y-63861528D01*
X111610500Y-63861528D02*
X111610500Y-63904385D01*
X111610500Y-63904385D02*
X111596214Y-63932957D01*
X111596214Y-63932957D02*
X111581928Y-63947242D01*
X111581928Y-63947242D02*
X111553357Y-63961528D01*
X111553357Y-63961528D02*
X111439071Y-63961528D01*
X111753357Y-64104385D02*
X111810500Y-64104385D01*
X111810500Y-64104385D02*
X111839071Y-64090100D01*
X111839071Y-64090100D02*
X111853357Y-64075814D01*
X111853357Y-64075814D02*
X111881928Y-64032957D01*
X111881928Y-64032957D02*
X111896214Y-63975814D01*
X111896214Y-63975814D02*
X111896214Y-63861528D01*
X111896214Y-63861528D02*
X111881928Y-63832957D01*
X111881928Y-63832957D02*
X111867643Y-63818671D01*
X111867643Y-63818671D02*
X111839071Y-63804385D01*
X111839071Y-63804385D02*
X111781928Y-63804385D01*
X111781928Y-63804385D02*
X111753357Y-63818671D01*
X111753357Y-63818671D02*
X111739071Y-63832957D01*
X111739071Y-63832957D02*
X111724785Y-63861528D01*
X111724785Y-63861528D02*
X111724785Y-63932957D01*
X111724785Y-63932957D02*
X111739071Y-63961528D01*
X111739071Y-63961528D02*
X111753357Y-63975814D01*
X111753357Y-63975814D02*
X111781928Y-63990100D01*
X111781928Y-63990100D02*
X111839071Y-63990100D01*
X111839071Y-63990100D02*
X111867643Y-63975814D01*
X111867643Y-63975814D02*
X111881928Y-63961528D01*
X111881928Y-63961528D02*
X111896214Y-63932957D01*
X96410500Y-75225814D02*
X96396214Y-75240100D01*
X96396214Y-75240100D02*
X96353357Y-75254385D01*
X96353357Y-75254385D02*
X96324785Y-75254385D01*
X96324785Y-75254385D02*
X96281928Y-75240100D01*
X96281928Y-75240100D02*
X96253357Y-75211528D01*
X96253357Y-75211528D02*
X96239071Y-75182957D01*
X96239071Y-75182957D02*
X96224785Y-75125814D01*
X96224785Y-75125814D02*
X96224785Y-75082957D01*
X96224785Y-75082957D02*
X96239071Y-75025814D01*
X96239071Y-75025814D02*
X96253357Y-74997242D01*
X96253357Y-74997242D02*
X96281928Y-74968671D01*
X96281928Y-74968671D02*
X96324785Y-74954385D01*
X96324785Y-74954385D02*
X96353357Y-74954385D01*
X96353357Y-74954385D02*
X96396214Y-74968671D01*
X96396214Y-74968671D02*
X96410500Y-74982957D01*
X96667643Y-75054385D02*
X96667643Y-75254385D01*
X96596214Y-74940100D02*
X96524785Y-75154385D01*
X96524785Y-75154385D02*
X96710500Y-75154385D01*
X115050500Y-61210814D02*
X115036214Y-61225100D01*
X115036214Y-61225100D02*
X114993357Y-61239385D01*
X114993357Y-61239385D02*
X114964785Y-61239385D01*
X114964785Y-61239385D02*
X114921928Y-61225100D01*
X114921928Y-61225100D02*
X114893357Y-61196528D01*
X114893357Y-61196528D02*
X114879071Y-61167957D01*
X114879071Y-61167957D02*
X114864785Y-61110814D01*
X114864785Y-61110814D02*
X114864785Y-61067957D01*
X114864785Y-61067957D02*
X114879071Y-61010814D01*
X114879071Y-61010814D02*
X114893357Y-60982242D01*
X114893357Y-60982242D02*
X114921928Y-60953671D01*
X114921928Y-60953671D02*
X114964785Y-60939385D01*
X114964785Y-60939385D02*
X114993357Y-60939385D01*
X114993357Y-60939385D02*
X115036214Y-60953671D01*
X115036214Y-60953671D02*
X115050500Y-60967957D01*
X115321928Y-60939385D02*
X115179071Y-60939385D01*
X115179071Y-60939385D02*
X115164785Y-61082242D01*
X115164785Y-61082242D02*
X115179071Y-61067957D01*
X115179071Y-61067957D02*
X115207643Y-61053671D01*
X115207643Y-61053671D02*
X115279071Y-61053671D01*
X115279071Y-61053671D02*
X115307643Y-61067957D01*
X115307643Y-61067957D02*
X115321928Y-61082242D01*
X115321928Y-61082242D02*
X115336214Y-61110814D01*
X115336214Y-61110814D02*
X115336214Y-61182242D01*
X115336214Y-61182242D02*
X115321928Y-61210814D01*
X115321928Y-61210814D02*
X115307643Y-61225100D01*
X115307643Y-61225100D02*
X115279071Y-61239385D01*
X115279071Y-61239385D02*
X115207643Y-61239385D01*
X115207643Y-61239385D02*
X115179071Y-61225100D01*
X115179071Y-61225100D02*
X115164785Y-61210814D01*
X111660500Y-60829385D02*
X111560500Y-60686528D01*
X111489071Y-60829385D02*
X111489071Y-60529385D01*
X111489071Y-60529385D02*
X111603357Y-60529385D01*
X111603357Y-60529385D02*
X111631928Y-60543671D01*
X111631928Y-60543671D02*
X111646214Y-60557957D01*
X111646214Y-60557957D02*
X111660500Y-60586528D01*
X111660500Y-60586528D02*
X111660500Y-60629385D01*
X111660500Y-60629385D02*
X111646214Y-60657957D01*
X111646214Y-60657957D02*
X111631928Y-60672242D01*
X111631928Y-60672242D02*
X111603357Y-60686528D01*
X111603357Y-60686528D02*
X111489071Y-60686528D01*
X111831928Y-60657957D02*
X111803357Y-60643671D01*
X111803357Y-60643671D02*
X111789071Y-60629385D01*
X111789071Y-60629385D02*
X111774785Y-60600814D01*
X111774785Y-60600814D02*
X111774785Y-60586528D01*
X111774785Y-60586528D02*
X111789071Y-60557957D01*
X111789071Y-60557957D02*
X111803357Y-60543671D01*
X111803357Y-60543671D02*
X111831928Y-60529385D01*
X111831928Y-60529385D02*
X111889071Y-60529385D01*
X111889071Y-60529385D02*
X111917643Y-60543671D01*
X111917643Y-60543671D02*
X111931928Y-60557957D01*
X111931928Y-60557957D02*
X111946214Y-60586528D01*
X111946214Y-60586528D02*
X111946214Y-60600814D01*
X111946214Y-60600814D02*
X111931928Y-60629385D01*
X111931928Y-60629385D02*
X111917643Y-60643671D01*
X111917643Y-60643671D02*
X111889071Y-60657957D01*
X111889071Y-60657957D02*
X111831928Y-60657957D01*
X111831928Y-60657957D02*
X111803357Y-60672242D01*
X111803357Y-60672242D02*
X111789071Y-60686528D01*
X111789071Y-60686528D02*
X111774785Y-60715100D01*
X111774785Y-60715100D02*
X111774785Y-60772242D01*
X111774785Y-60772242D02*
X111789071Y-60800814D01*
X111789071Y-60800814D02*
X111803357Y-60815100D01*
X111803357Y-60815100D02*
X111831928Y-60829385D01*
X111831928Y-60829385D02*
X111889071Y-60829385D01*
X111889071Y-60829385D02*
X111917643Y-60815100D01*
X111917643Y-60815100D02*
X111931928Y-60800814D01*
X111931928Y-60800814D02*
X111946214Y-60772242D01*
X111946214Y-60772242D02*
X111946214Y-60715100D01*
X111946214Y-60715100D02*
X111931928Y-60686528D01*
X111931928Y-60686528D02*
X111917643Y-60672242D01*
X111917643Y-60672242D02*
X111889071Y-60657957D01*
X100785500Y-78404385D02*
X100685500Y-78261528D01*
X100614071Y-78404385D02*
X100614071Y-78104385D01*
X100614071Y-78104385D02*
X100728357Y-78104385D01*
X100728357Y-78104385D02*
X100756928Y-78118671D01*
X100756928Y-78118671D02*
X100771214Y-78132957D01*
X100771214Y-78132957D02*
X100785500Y-78161528D01*
X100785500Y-78161528D02*
X100785500Y-78204385D01*
X100785500Y-78204385D02*
X100771214Y-78232957D01*
X100771214Y-78232957D02*
X100756928Y-78247242D01*
X100756928Y-78247242D02*
X100728357Y-78261528D01*
X100728357Y-78261528D02*
X100614071Y-78261528D01*
X100899785Y-78132957D02*
X100914071Y-78118671D01*
X100914071Y-78118671D02*
X100942643Y-78104385D01*
X100942643Y-78104385D02*
X101014071Y-78104385D01*
X101014071Y-78104385D02*
X101042643Y-78118671D01*
X101042643Y-78118671D02*
X101056928Y-78132957D01*
X101056928Y-78132957D02*
X101071214Y-78161528D01*
X101071214Y-78161528D02*
X101071214Y-78190100D01*
X101071214Y-78190100D02*
X101056928Y-78232957D01*
X101056928Y-78232957D02*
X100885500Y-78404385D01*
X100885500Y-78404385D02*
X101071214Y-78404385D01*
X96560500Y-82550814D02*
X96546214Y-82565100D01*
X96546214Y-82565100D02*
X96503357Y-82579385D01*
X96503357Y-82579385D02*
X96474785Y-82579385D01*
X96474785Y-82579385D02*
X96431928Y-82565100D01*
X96431928Y-82565100D02*
X96403357Y-82536528D01*
X96403357Y-82536528D02*
X96389071Y-82507957D01*
X96389071Y-82507957D02*
X96374785Y-82450814D01*
X96374785Y-82450814D02*
X96374785Y-82407957D01*
X96374785Y-82407957D02*
X96389071Y-82350814D01*
X96389071Y-82350814D02*
X96403357Y-82322242D01*
X96403357Y-82322242D02*
X96431928Y-82293671D01*
X96431928Y-82293671D02*
X96474785Y-82279385D01*
X96474785Y-82279385D02*
X96503357Y-82279385D01*
X96503357Y-82279385D02*
X96546214Y-82293671D01*
X96546214Y-82293671D02*
X96560500Y-82307957D01*
X96846214Y-82579385D02*
X96674785Y-82579385D01*
X96760500Y-82579385D02*
X96760500Y-82279385D01*
X96760500Y-82279385D02*
X96731928Y-82322242D01*
X96731928Y-82322242D02*
X96703357Y-82350814D01*
X96703357Y-82350814D02*
X96674785Y-82365100D01*
X113146814Y-71994499D02*
X113161100Y-72008785D01*
X113161100Y-72008785D02*
X113175385Y-72051642D01*
X113175385Y-72051642D02*
X113175385Y-72080214D01*
X113175385Y-72080214D02*
X113161100Y-72123071D01*
X113161100Y-72123071D02*
X113132528Y-72151642D01*
X113132528Y-72151642D02*
X113103957Y-72165928D01*
X113103957Y-72165928D02*
X113046814Y-72180214D01*
X113046814Y-72180214D02*
X113003957Y-72180214D01*
X113003957Y-72180214D02*
X112946814Y-72165928D01*
X112946814Y-72165928D02*
X112918242Y-72151642D01*
X112918242Y-72151642D02*
X112889671Y-72123071D01*
X112889671Y-72123071D02*
X112875385Y-72080214D01*
X112875385Y-72080214D02*
X112875385Y-72051642D01*
X112875385Y-72051642D02*
X112889671Y-72008785D01*
X112889671Y-72008785D02*
X112903957Y-71994499D01*
X113175385Y-71851642D02*
X113175385Y-71794499D01*
X113175385Y-71794499D02*
X113161100Y-71765928D01*
X113161100Y-71765928D02*
X113146814Y-71751642D01*
X113146814Y-71751642D02*
X113103957Y-71723071D01*
X113103957Y-71723071D02*
X113046814Y-71708785D01*
X113046814Y-71708785D02*
X112932528Y-71708785D01*
X112932528Y-71708785D02*
X112903957Y-71723071D01*
X112903957Y-71723071D02*
X112889671Y-71737357D01*
X112889671Y-71737357D02*
X112875385Y-71765928D01*
X112875385Y-71765928D02*
X112875385Y-71823071D01*
X112875385Y-71823071D02*
X112889671Y-71851642D01*
X112889671Y-71851642D02*
X112903957Y-71865928D01*
X112903957Y-71865928D02*
X112932528Y-71880214D01*
X112932528Y-71880214D02*
X113003957Y-71880214D01*
X113003957Y-71880214D02*
X113032528Y-71865928D01*
X113032528Y-71865928D02*
X113046814Y-71851642D01*
X113046814Y-71851642D02*
X113061100Y-71823071D01*
X113061100Y-71823071D02*
X113061100Y-71765928D01*
X113061100Y-71765928D02*
X113046814Y-71737357D01*
X113046814Y-71737357D02*
X113032528Y-71723071D01*
X113032528Y-71723071D02*
X113003957Y-71708785D01*
X99260500Y-78404385D02*
X99160500Y-78261528D01*
X99089071Y-78404385D02*
X99089071Y-78104385D01*
X99089071Y-78104385D02*
X99203357Y-78104385D01*
X99203357Y-78104385D02*
X99231928Y-78118671D01*
X99231928Y-78118671D02*
X99246214Y-78132957D01*
X99246214Y-78132957D02*
X99260500Y-78161528D01*
X99260500Y-78161528D02*
X99260500Y-78204385D01*
X99260500Y-78204385D02*
X99246214Y-78232957D01*
X99246214Y-78232957D02*
X99231928Y-78247242D01*
X99231928Y-78247242D02*
X99203357Y-78261528D01*
X99203357Y-78261528D02*
X99089071Y-78261528D01*
X99360500Y-78104385D02*
X99546214Y-78104385D01*
X99546214Y-78104385D02*
X99446214Y-78218671D01*
X99446214Y-78218671D02*
X99489071Y-78218671D01*
X99489071Y-78218671D02*
X99517643Y-78232957D01*
X99517643Y-78232957D02*
X99531928Y-78247242D01*
X99531928Y-78247242D02*
X99546214Y-78275814D01*
X99546214Y-78275814D02*
X99546214Y-78347242D01*
X99546214Y-78347242D02*
X99531928Y-78375814D01*
X99531928Y-78375814D02*
X99517643Y-78390100D01*
X99517643Y-78390100D02*
X99489071Y-78404385D01*
X99489071Y-78404385D02*
X99403357Y-78404385D01*
X99403357Y-78404385D02*
X99374785Y-78390100D01*
X99374785Y-78390100D02*
X99360500Y-78375814D01*
X113146814Y-73519499D02*
X113161100Y-73533785D01*
X113161100Y-73533785D02*
X113175385Y-73576642D01*
X113175385Y-73576642D02*
X113175385Y-73605214D01*
X113175385Y-73605214D02*
X113161100Y-73648071D01*
X113161100Y-73648071D02*
X113132528Y-73676642D01*
X113132528Y-73676642D02*
X113103957Y-73690928D01*
X113103957Y-73690928D02*
X113046814Y-73705214D01*
X113046814Y-73705214D02*
X113003957Y-73705214D01*
X113003957Y-73705214D02*
X112946814Y-73690928D01*
X112946814Y-73690928D02*
X112918242Y-73676642D01*
X112918242Y-73676642D02*
X112889671Y-73648071D01*
X112889671Y-73648071D02*
X112875385Y-73605214D01*
X112875385Y-73605214D02*
X112875385Y-73576642D01*
X112875385Y-73576642D02*
X112889671Y-73533785D01*
X112889671Y-73533785D02*
X112903957Y-73519499D01*
X113003957Y-73348071D02*
X112989671Y-73376642D01*
X112989671Y-73376642D02*
X112975385Y-73390928D01*
X112975385Y-73390928D02*
X112946814Y-73405214D01*
X112946814Y-73405214D02*
X112932528Y-73405214D01*
X112932528Y-73405214D02*
X112903957Y-73390928D01*
X112903957Y-73390928D02*
X112889671Y-73376642D01*
X112889671Y-73376642D02*
X112875385Y-73348071D01*
X112875385Y-73348071D02*
X112875385Y-73290928D01*
X112875385Y-73290928D02*
X112889671Y-73262357D01*
X112889671Y-73262357D02*
X112903957Y-73248071D01*
X112903957Y-73248071D02*
X112932528Y-73233785D01*
X112932528Y-73233785D02*
X112946814Y-73233785D01*
X112946814Y-73233785D02*
X112975385Y-73248071D01*
X112975385Y-73248071D02*
X112989671Y-73262357D01*
X112989671Y-73262357D02*
X113003957Y-73290928D01*
X113003957Y-73290928D02*
X113003957Y-73348071D01*
X113003957Y-73348071D02*
X113018242Y-73376642D01*
X113018242Y-73376642D02*
X113032528Y-73390928D01*
X113032528Y-73390928D02*
X113061100Y-73405214D01*
X113061100Y-73405214D02*
X113118242Y-73405214D01*
X113118242Y-73405214D02*
X113146814Y-73390928D01*
X113146814Y-73390928D02*
X113161100Y-73376642D01*
X113161100Y-73376642D02*
X113175385Y-73348071D01*
X113175385Y-73348071D02*
X113175385Y-73290928D01*
X113175385Y-73290928D02*
X113161100Y-73262357D01*
X113161100Y-73262357D02*
X113146814Y-73248071D01*
X113146814Y-73248071D02*
X113118242Y-73233785D01*
X113118242Y-73233785D02*
X113061100Y-73233785D01*
X113061100Y-73233785D02*
X113032528Y-73248071D01*
X113032528Y-73248071D02*
X113018242Y-73262357D01*
X113018242Y-73262357D02*
X113003957Y-73290928D01*
D14*
%TO.C,C7*%
X106551733Y-66834500D02*
X106844267Y-66834500D01*
X106551733Y-67854500D02*
X106844267Y-67854500D01*
%TO.C,R11*%
X110589141Y-63399500D02*
X110281859Y-63399500D01*
X110589141Y-62639500D02*
X110281859Y-62639500D01*
%TO.C,R10*%
X110574141Y-60249500D02*
X110266859Y-60249500D01*
X110574141Y-59489500D02*
X110266859Y-59489500D01*
%TO.C,R1*%
X105313000Y-70306758D02*
X105313000Y-69832242D01*
X106358000Y-70306758D02*
X106358000Y-69832242D01*
%TO.C,C6*%
X114070500Y-62748233D02*
X114070500Y-63040767D01*
X113050500Y-62748233D02*
X113050500Y-63040767D01*
%TO.C,U1*%
X108195500Y-66004500D02*
X107720500Y-66004500D01*
X100975500Y-65529500D02*
X100975500Y-66004500D01*
X108195500Y-65529500D02*
X108195500Y-66004500D01*
X100975500Y-59259500D02*
X100975500Y-58784500D01*
X108195500Y-59259500D02*
X108195500Y-58784500D01*
X100975500Y-58784500D02*
X101450500Y-58784500D01*
X108195500Y-58784500D02*
X107720500Y-58784500D01*
%TO.C,J2*%
X88905500Y-57109500D02*
X88905500Y-73409500D01*
X99095500Y-55149500D02*
X99095500Y-53819500D01*
X100425500Y-55149500D02*
X99095500Y-55149500D01*
X101695500Y-52489500D02*
X109375500Y-52489500D01*
X101695500Y-55149500D02*
X101695500Y-52489500D01*
X101695500Y-55149500D02*
X109375500Y-55149500D01*
X109375500Y-55149500D02*
X109375500Y-52489500D01*
X119565500Y-57109500D02*
X119565500Y-73409500D01*
%TO.C,C3*%
X98620500Y-83928920D02*
X98620500Y-84210080D01*
X97600500Y-83928920D02*
X97600500Y-84210080D01*
D15*
%TO.C,LV1*%
X95985500Y-81869500D02*
X95985500Y-80919500D01*
X96210500Y-80569500D02*
X96210500Y-80019500D01*
X98210500Y-80569500D02*
X96210500Y-80569500D01*
X96210500Y-80019500D02*
X98210500Y-80019500D01*
X98210500Y-80019500D02*
X98210500Y-80569500D01*
D14*
%TO.C,C2*%
X94400500Y-76985080D02*
X94400500Y-76703920D01*
X95420500Y-76985080D02*
X95420500Y-76703920D01*
%TO.C,R9*%
X110589141Y-64374500D02*
X110281859Y-64374500D01*
X110589141Y-63614500D02*
X110281859Y-63614500D01*
%TO.C,C4*%
X95950500Y-76985080D02*
X95950500Y-76703920D01*
X96970500Y-76985080D02*
X96970500Y-76703920D01*
%TO.C,C5*%
X115595500Y-62748233D02*
X115595500Y-63040767D01*
X114575500Y-62748233D02*
X114575500Y-63040767D01*
%TO.C,R8*%
X110574141Y-61249500D02*
X110266859Y-61249500D01*
X110574141Y-60489500D02*
X110266859Y-60489500D01*
%TO.C,G701*%
G36*
X101143937Y-70318749D02*
G01*
X101155091Y-70323837D01*
X101172259Y-70332892D01*
X101177476Y-70335709D01*
X101194894Y-70345317D01*
X101208647Y-70353266D01*
X101216938Y-70358495D01*
X101218547Y-70359919D01*
X101215616Y-70363767D01*
X101207275Y-70374081D01*
X101194198Y-70390049D01*
X101177061Y-70410859D01*
X101156539Y-70435699D01*
X101133307Y-70463759D01*
X101108041Y-70494226D01*
X101081416Y-70526288D01*
X101054107Y-70559133D01*
X101026790Y-70591951D01*
X101000139Y-70623929D01*
X100974831Y-70654255D01*
X100951539Y-70682118D01*
X100930941Y-70706706D01*
X100913711Y-70727207D01*
X100900523Y-70742810D01*
X100892055Y-70752703D01*
X100888982Y-70756075D01*
X100885662Y-70752714D01*
X100877328Y-70743839D01*
X100865383Y-70730950D01*
X100856126Y-70720892D01*
X100824039Y-70685939D01*
X100971776Y-70508425D01*
X101001437Y-70472814D01*
X101029455Y-70439232D01*
X101055201Y-70408429D01*
X101078047Y-70381153D01*
X101097364Y-70358154D01*
X101112524Y-70340181D01*
X101122900Y-70327983D01*
X101127861Y-70322309D01*
X101127959Y-70322207D01*
X101132232Y-70318441D01*
X101136938Y-70317119D01*
X101143937Y-70318749D01*
G37*
G36*
X101683703Y-69254222D02*
G01*
X101728460Y-69259496D01*
X101756200Y-69265343D01*
X101815818Y-69284442D01*
X101869236Y-69309441D01*
X101918469Y-69341459D01*
X101965335Y-69381423D01*
X101998930Y-69416021D01*
X102026186Y-69450274D01*
X102049524Y-69487523D01*
X102066866Y-69521438D01*
X102090560Y-69581784D01*
X102105266Y-69642772D01*
X102111403Y-69703719D01*
X102109386Y-69763941D01*
X102099633Y-69822755D01*
X102082561Y-69879477D01*
X102058587Y-69933425D01*
X102028128Y-69983915D01*
X101991602Y-70030263D01*
X101949424Y-70071786D01*
X101902013Y-70107800D01*
X101849785Y-70137623D01*
X101793157Y-70160571D01*
X101732547Y-70175961D01*
X101668370Y-70183108D01*
X101662951Y-70183308D01*
X101638868Y-70183839D01*
X101616699Y-70183930D01*
X101599066Y-70183595D01*
X101589280Y-70182945D01*
X101548377Y-70175120D01*
X101504164Y-70162287D01*
X101459807Y-70145640D01*
X101418470Y-70126374D01*
X101383320Y-70105683D01*
X101381826Y-70104663D01*
X101335622Y-70067690D01*
X101293294Y-70023617D01*
X101256109Y-69974216D01*
X101225332Y-69921260D01*
X101202230Y-69866520D01*
X101195068Y-69843230D01*
X101181925Y-69777564D01*
X101178079Y-69712217D01*
X101183337Y-69647919D01*
X101197507Y-69585400D01*
X101220398Y-69525390D01*
X101251817Y-69468621D01*
X101291573Y-69415821D01*
X101313606Y-69392056D01*
X101364410Y-69346884D01*
X101418774Y-69310472D01*
X101477008Y-69282650D01*
X101539420Y-69263244D01*
X101548880Y-69261109D01*
X101590231Y-69254954D01*
X101636400Y-69252683D01*
X101683703Y-69254222D01*
G37*
G36*
X95722897Y-68131194D02*
G01*
X95917720Y-68157056D01*
X96108149Y-68185542D01*
X96293330Y-68216494D01*
X96472411Y-68249756D01*
X96644540Y-68285172D01*
X96808865Y-68322583D01*
X96936099Y-68354357D01*
X97174364Y-68421049D01*
X97409105Y-68496130D01*
X97640517Y-68579694D01*
X97868794Y-68671840D01*
X98094128Y-68772664D01*
X98316713Y-68882261D01*
X98536744Y-69000730D01*
X98754413Y-69128166D01*
X98969915Y-69264667D01*
X99183442Y-69410328D01*
X99395189Y-69565247D01*
X99456010Y-69611702D01*
X99521000Y-69661813D01*
X99498787Y-69682692D01*
X99482353Y-69698084D01*
X99464546Y-69714677D01*
X99455186Y-69723359D01*
X99433797Y-69743146D01*
X99402903Y-69716970D01*
X99332606Y-69659516D01*
X99255271Y-69600120D01*
X99172789Y-69540095D01*
X99087051Y-69480754D01*
X98999950Y-69423411D01*
X98913378Y-69369379D01*
X98839201Y-69325651D01*
X98803581Y-69305768D01*
X98761761Y-69283233D01*
X98715704Y-69259041D01*
X98667373Y-69234188D01*
X98618733Y-69209671D01*
X98571747Y-69186485D01*
X98528379Y-69165626D01*
X98490593Y-69148092D01*
X98478445Y-69142657D01*
X98405578Y-69111413D01*
X98327309Y-69079694D01*
X98242865Y-69047212D01*
X98151474Y-69013677D01*
X98052362Y-68978799D01*
X97944758Y-68942288D01*
X97938836Y-68940313D01*
X97717675Y-68870185D01*
X97500543Y-68808570D01*
X97287298Y-68755435D01*
X97077800Y-68710748D01*
X96871908Y-68674479D01*
X96669481Y-68646597D01*
X96579624Y-68636791D01*
X96447030Y-68625545D01*
X96315289Y-68618348D01*
X96185754Y-68615197D01*
X96059782Y-68616088D01*
X95938728Y-68621018D01*
X95823946Y-68629982D01*
X95745474Y-68638996D01*
X95723163Y-68641821D01*
X95703470Y-68644094D01*
X95688838Y-68645546D01*
X95682497Y-68645936D01*
X95671802Y-68645975D01*
X95671802Y-68124832D01*
X95722897Y-68131194D01*
G37*
G36*
X100302174Y-70363761D02*
G01*
X100309172Y-70368813D01*
X100319301Y-70377920D01*
X100333521Y-70391842D01*
X100352788Y-70411339D01*
X100368239Y-70427124D01*
X100529683Y-70597926D01*
X100688324Y-70777026D01*
X100843424Y-70963443D01*
X100994246Y-71156194D01*
X101140053Y-71354298D01*
X101280106Y-71556774D01*
X101413668Y-71762641D01*
X101540003Y-71970918D01*
X101579027Y-72038342D01*
X101714523Y-72284774D01*
X101841744Y-72535770D01*
X101960560Y-72790998D01*
X102070844Y-73050127D01*
X102172467Y-73312822D01*
X102265301Y-73578752D01*
X102349217Y-73847583D01*
X102424087Y-74118984D01*
X102489782Y-74392622D01*
X102492354Y-74404227D01*
X102500595Y-74442320D01*
X102509433Y-74484566D01*
X102518677Y-74529933D01*
X102528134Y-74577388D01*
X102537612Y-74625900D01*
X102546919Y-74674437D01*
X102555862Y-74721967D01*
X102564250Y-74767458D01*
X102571890Y-74809878D01*
X102578590Y-74848196D01*
X102584158Y-74881378D01*
X102588402Y-74908393D01*
X102591129Y-74928210D01*
X102592148Y-74939796D01*
X102592150Y-74940127D01*
X102591800Y-74941265D01*
X102590443Y-74942295D01*
X102587629Y-74943221D01*
X102582904Y-74944050D01*
X102575818Y-74944786D01*
X102565918Y-74945436D01*
X102552752Y-74946004D01*
X102535868Y-74946496D01*
X102514814Y-74946918D01*
X102489139Y-74947274D01*
X102458390Y-74947571D01*
X102422115Y-74947813D01*
X102379863Y-74948006D01*
X102331181Y-74948156D01*
X102275617Y-74948268D01*
X102212719Y-74948347D01*
X102142036Y-74948399D01*
X102063116Y-74948429D01*
X101975506Y-74948442D01*
X101898225Y-74948445D01*
X101799979Y-74948430D01*
X101710854Y-74948384D01*
X101630461Y-74948303D01*
X101558416Y-74948184D01*
X101494331Y-74948024D01*
X101437820Y-74947818D01*
X101388498Y-74947565D01*
X101345977Y-74947261D01*
X101309872Y-74946902D01*
X101279796Y-74946485D01*
X101255362Y-74946006D01*
X101236185Y-74945464D01*
X101221878Y-74944853D01*
X101212055Y-74944171D01*
X101206329Y-74943415D01*
X101204314Y-74942580D01*
X101204302Y-74942503D01*
X101205172Y-74935545D01*
X101207506Y-74921557D01*
X101210907Y-74902834D01*
X101213537Y-74889032D01*
X101234332Y-74771133D01*
X101252629Y-74645327D01*
X101268362Y-74512898D01*
X101281468Y-74375128D01*
X101291881Y-74233299D01*
X101299536Y-74088695D01*
X101304368Y-73942598D01*
X101306313Y-73796292D01*
X101305305Y-73651058D01*
X101301279Y-73508180D01*
X101294172Y-73368941D01*
X101292067Y-73337180D01*
X101272464Y-73110711D01*
X101245394Y-72889417D01*
X101210892Y-72673392D01*
X101168989Y-72462734D01*
X101119718Y-72257536D01*
X101063112Y-72057893D01*
X100999204Y-71863903D01*
X100928025Y-71675659D01*
X100849609Y-71493257D01*
X100763988Y-71316792D01*
X100671194Y-71146360D01*
X100571261Y-70982056D01*
X100464220Y-70823975D01*
X100405880Y-70744422D01*
X100367400Y-70694504D01*
X100323073Y-70639074D01*
X100273834Y-70579279D01*
X100220619Y-70516266D01*
X100202019Y-70494582D01*
X100185997Y-70475975D01*
X100233562Y-70424832D01*
X100251210Y-70405963D01*
X100267240Y-70389023D01*
X100280215Y-70375515D01*
X100288701Y-70366940D01*
X100290398Y-70365335D01*
X100293745Y-70362782D01*
X100297351Y-70362004D01*
X100302174Y-70363761D01*
G37*
G36*
X102501239Y-67977318D02*
G01*
X102532779Y-67981834D01*
X102543014Y-67984491D01*
X102575778Y-67996615D01*
X102600859Y-68011281D01*
X102620000Y-68029811D01*
X102634945Y-68053531D01*
X102635555Y-68054758D01*
X102643000Y-68071115D01*
X102647797Y-68085784D01*
X102650698Y-68102124D01*
X102652455Y-68123492D01*
X102652916Y-68132296D01*
X102651812Y-68185806D01*
X102643740Y-68245333D01*
X102628838Y-68310581D01*
X102607243Y-68381253D01*
X102579095Y-68457053D01*
X102544531Y-68537685D01*
X102503691Y-68622853D01*
X102456711Y-68712261D01*
X102403732Y-68805612D01*
X102344890Y-68902610D01*
X102280325Y-69002960D01*
X102210175Y-69106365D01*
X102173720Y-69158176D01*
X102154160Y-69185510D01*
X102139236Y-69205900D01*
X102128181Y-69220223D01*
X102120227Y-69229354D01*
X102114607Y-69234170D01*
X102110554Y-69235547D01*
X102107298Y-69234361D01*
X102107106Y-69234224D01*
X102098440Y-69227558D01*
X102084820Y-69216700D01*
X102067564Y-69202738D01*
X102047991Y-69186760D01*
X102027419Y-69169854D01*
X102007167Y-69153108D01*
X101988553Y-69137609D01*
X101972895Y-69124447D01*
X101961512Y-69114708D01*
X101955722Y-69109482D01*
X101955261Y-69108915D01*
X101957267Y-69104115D01*
X101962731Y-69092558D01*
X101970821Y-69075971D01*
X101980705Y-69056081D01*
X101980825Y-69055841D01*
X101998644Y-69019563D01*
X102018423Y-68978062D01*
X102039170Y-68933520D01*
X102059891Y-68888119D01*
X102079595Y-68844043D01*
X102097286Y-68803472D01*
X102111973Y-68768589D01*
X102115448Y-68760047D01*
X102138797Y-68698088D01*
X102156016Y-68643197D01*
X102167102Y-68595174D01*
X102172051Y-68553818D01*
X102170859Y-68518927D01*
X102163523Y-68490302D01*
X102150037Y-68467741D01*
X102130400Y-68451044D01*
X102109358Y-68441472D01*
X102082316Y-68436943D01*
X102048723Y-68438894D01*
X102008859Y-68447191D01*
X101963000Y-68461701D01*
X101911426Y-68482290D01*
X101854414Y-68508824D01*
X101792243Y-68541170D01*
X101725190Y-68579194D01*
X101653535Y-68622764D01*
X101577555Y-68671744D01*
X101497528Y-68726002D01*
X101455609Y-68755404D01*
X101342444Y-68837425D01*
X101224050Y-68926677D01*
X101100884Y-69022776D01*
X100973404Y-69125334D01*
X100842066Y-69233966D01*
X100707327Y-69348285D01*
X100569645Y-69467905D01*
X100429476Y-69592441D01*
X100287277Y-69721506D01*
X100143505Y-69854713D01*
X100046358Y-69946247D01*
X99985184Y-70004282D01*
X99919345Y-70066762D01*
X99849067Y-70133472D01*
X99774579Y-70204196D01*
X99696108Y-70278715D01*
X99613880Y-70356815D01*
X99528124Y-70438279D01*
X99439067Y-70522891D01*
X99346937Y-70610433D01*
X99251960Y-70700690D01*
X99154365Y-70793445D01*
X99054378Y-70888483D01*
X98952228Y-70985585D01*
X98848141Y-71084537D01*
X98742345Y-71185121D01*
X98635067Y-71287122D01*
X98526536Y-71390323D01*
X98416978Y-71494507D01*
X98306620Y-71599458D01*
X98195691Y-71704960D01*
X98084418Y-71810796D01*
X97973027Y-71916750D01*
X97861747Y-72022606D01*
X97750805Y-72128146D01*
X97640429Y-72233156D01*
X97530845Y-72337417D01*
X97422282Y-72440715D01*
X97314966Y-72542832D01*
X97209126Y-72643552D01*
X97104988Y-72742659D01*
X97002780Y-72839936D01*
X96902730Y-72935168D01*
X96805064Y-73028136D01*
X96710011Y-73118626D01*
X96617797Y-73206421D01*
X96528651Y-73291304D01*
X96442800Y-73373058D01*
X96360470Y-73451469D01*
X96281890Y-73526318D01*
X96207288Y-73597391D01*
X96136889Y-73664469D01*
X96070922Y-73727338D01*
X96009615Y-73785780D01*
X95953194Y-73839579D01*
X95901888Y-73888519D01*
X95855923Y-73932384D01*
X95815527Y-73970956D01*
X95780927Y-74004020D01*
X95752352Y-74031359D01*
X95730028Y-74052757D01*
X95714182Y-74067997D01*
X95706262Y-74075671D01*
X95671802Y-74109303D01*
X95672003Y-73681653D01*
X95672204Y-73254002D01*
X95858269Y-73101907D01*
X96047882Y-72946758D01*
X96240427Y-72788907D01*
X96436201Y-72628107D01*
X96635502Y-72464111D01*
X96838627Y-72296673D01*
X97045874Y-72125545D01*
X97257542Y-71950482D01*
X97473927Y-71771236D01*
X97695328Y-71587561D01*
X97922042Y-71399210D01*
X98154367Y-71205936D01*
X98392601Y-71007493D01*
X98637040Y-70803635D01*
X98887984Y-70594114D01*
X99145730Y-70378683D01*
X99219913Y-70316639D01*
X99331067Y-70223661D01*
X99435224Y-70136540D01*
X99532676Y-70055032D01*
X99623716Y-69978895D01*
X99708638Y-69907884D01*
X99787732Y-69841757D01*
X99861294Y-69780269D01*
X99929615Y-69723178D01*
X99992988Y-69670240D01*
X100051706Y-69621212D01*
X100106062Y-69575850D01*
X100156349Y-69533910D01*
X100202859Y-69495150D01*
X100245885Y-69459326D01*
X100285721Y-69426194D01*
X100322658Y-69395512D01*
X100356990Y-69367035D01*
X100389010Y-69340521D01*
X100419011Y-69315726D01*
X100447284Y-69292406D01*
X100474124Y-69270318D01*
X100499822Y-69249218D01*
X100524672Y-69228864D01*
X100548967Y-69209012D01*
X100572999Y-69189418D01*
X100597061Y-69169839D01*
X100621447Y-69150032D01*
X100646448Y-69129753D01*
X100672357Y-69108759D01*
X100695717Y-69089843D01*
X100833531Y-68978899D01*
X100964799Y-68874535D01*
X101089715Y-68776621D01*
X101208471Y-68685029D01*
X101321258Y-68599632D01*
X101428268Y-68520303D01*
X101529694Y-68446912D01*
X101625728Y-68379332D01*
X101716562Y-68317435D01*
X101802388Y-68261093D01*
X101883398Y-68210178D01*
X101959784Y-68164562D01*
X102031738Y-68124118D01*
X102099453Y-68088717D01*
X102163120Y-68058231D01*
X102222932Y-68032532D01*
X102279080Y-68011493D01*
X102331758Y-67994986D01*
X102345006Y-67991395D01*
X102383665Y-67983226D01*
X102424227Y-67978100D01*
X102464237Y-67976102D01*
X102501239Y-67977318D01*
G37*
%TO.C,R2*%
X100313000Y-80369224D02*
X100313000Y-79859776D01*
X101358000Y-80369224D02*
X101358000Y-79859776D01*
%TO.C,C1*%
X97120500Y-83928920D02*
X97120500Y-84210080D01*
X96100500Y-83928920D02*
X96100500Y-84210080D01*
%TO.C,C9*%
X114826080Y-72454500D02*
X114544920Y-72454500D01*
X114826080Y-71434500D02*
X114544920Y-71434500D01*
%TO.C,R3*%
X98788000Y-80369224D02*
X98788000Y-79859776D01*
X99833000Y-80369224D02*
X99833000Y-79859776D01*
%TO.C,C8*%
X114826080Y-73979500D02*
X114544920Y-73979500D01*
X114826080Y-72959500D02*
X114544920Y-72959500D01*
%TD*%
M02*
