%TF.GenerationSoftware,KiCad,Pcbnew,7.0.8*%
%TF.CreationDate,2024-07-27T19:07:23+04:00*%
%TF.ProjectId,neopixel_eliot_hat,6e656f70-6978-4656-9c5f-656c696f745f,rev?*%
%TF.SameCoordinates,Original*%
%TF.FileFunction,Drillmap*%
%TF.FilePolarity,Positive*%
%FSLAX45Y45*%
G04 Gerber Fmt 4.5, Leading zero omitted, Abs format (unit mm)*
G04 Created by KiCad (PCBNEW 7.0.8) date 2024-07-27 19:07:23*
%MOMM*%
%LPD*%
G01*
G04 APERTURE LIST*
%ADD10C,0.100000*%
%ADD11C,0.200000*%
G04 APERTURE END LIST*
D10*
X8888550Y-5249450D02*
X11958550Y-5249450D01*
X11958550Y-8564450D02*
X8888550Y-8564450D01*
X11958550Y-5249450D02*
X11958550Y-8564450D01*
X8888550Y-8564450D02*
X8888550Y-5249450D01*
D11*
X9144327Y-8880934D02*
X9144327Y-8680934D01*
X9144327Y-8680934D02*
X9191946Y-8680934D01*
X9191946Y-8680934D02*
X9220517Y-8690458D01*
X9220517Y-8690458D02*
X9239565Y-8709505D01*
X9239565Y-8709505D02*
X9249089Y-8728553D01*
X9249089Y-8728553D02*
X9258613Y-8766648D01*
X9258613Y-8766648D02*
X9258613Y-8795220D01*
X9258613Y-8795220D02*
X9249089Y-8833315D01*
X9249089Y-8833315D02*
X9239565Y-8852362D01*
X9239565Y-8852362D02*
X9220517Y-8871410D01*
X9220517Y-8871410D02*
X9191946Y-8880934D01*
X9191946Y-8880934D02*
X9144327Y-8880934D01*
X9344327Y-8880934D02*
X9344327Y-8747600D01*
X9344327Y-8785696D02*
X9353851Y-8766648D01*
X9353851Y-8766648D02*
X9363374Y-8757124D01*
X9363374Y-8757124D02*
X9382422Y-8747600D01*
X9382422Y-8747600D02*
X9401470Y-8747600D01*
X9468136Y-8880934D02*
X9468136Y-8747600D01*
X9468136Y-8680934D02*
X9458613Y-8690458D01*
X9458613Y-8690458D02*
X9468136Y-8699981D01*
X9468136Y-8699981D02*
X9477660Y-8690458D01*
X9477660Y-8690458D02*
X9468136Y-8680934D01*
X9468136Y-8680934D02*
X9468136Y-8699981D01*
X9591946Y-8880934D02*
X9572898Y-8871410D01*
X9572898Y-8871410D02*
X9563374Y-8852362D01*
X9563374Y-8852362D02*
X9563374Y-8680934D01*
X9696708Y-8880934D02*
X9677660Y-8871410D01*
X9677660Y-8871410D02*
X9668136Y-8852362D01*
X9668136Y-8852362D02*
X9668136Y-8680934D01*
X9925279Y-8880934D02*
X9925279Y-8680934D01*
X9925279Y-8680934D02*
X9991946Y-8823791D01*
X9991946Y-8823791D02*
X10058613Y-8680934D01*
X10058613Y-8680934D02*
X10058613Y-8880934D01*
X10239565Y-8880934D02*
X10239565Y-8776172D01*
X10239565Y-8776172D02*
X10230041Y-8757124D01*
X10230041Y-8757124D02*
X10210994Y-8747600D01*
X10210994Y-8747600D02*
X10172898Y-8747600D01*
X10172898Y-8747600D02*
X10153851Y-8757124D01*
X10239565Y-8871410D02*
X10220517Y-8880934D01*
X10220517Y-8880934D02*
X10172898Y-8880934D01*
X10172898Y-8880934D02*
X10153851Y-8871410D01*
X10153851Y-8871410D02*
X10144327Y-8852362D01*
X10144327Y-8852362D02*
X10144327Y-8833315D01*
X10144327Y-8833315D02*
X10153851Y-8814267D01*
X10153851Y-8814267D02*
X10172898Y-8804743D01*
X10172898Y-8804743D02*
X10220517Y-8804743D01*
X10220517Y-8804743D02*
X10239565Y-8795220D01*
X10334803Y-8747600D02*
X10334803Y-8947600D01*
X10334803Y-8757124D02*
X10353851Y-8747600D01*
X10353851Y-8747600D02*
X10391946Y-8747600D01*
X10391946Y-8747600D02*
X10410994Y-8757124D01*
X10410994Y-8757124D02*
X10420517Y-8766648D01*
X10420517Y-8766648D02*
X10430041Y-8785696D01*
X10430041Y-8785696D02*
X10430041Y-8842839D01*
X10430041Y-8842839D02*
X10420517Y-8861886D01*
X10420517Y-8861886D02*
X10410994Y-8871410D01*
X10410994Y-8871410D02*
X10391946Y-8880934D01*
X10391946Y-8880934D02*
X10353851Y-8880934D01*
X10353851Y-8880934D02*
X10334803Y-8871410D01*
X10515755Y-8861886D02*
X10525279Y-8871410D01*
X10525279Y-8871410D02*
X10515755Y-8880934D01*
X10515755Y-8880934D02*
X10506232Y-8871410D01*
X10506232Y-8871410D02*
X10515755Y-8861886D01*
X10515755Y-8861886D02*
X10515755Y-8880934D01*
X10515755Y-8757124D02*
X10525279Y-8766648D01*
X10525279Y-8766648D02*
X10515755Y-8776172D01*
X10515755Y-8776172D02*
X10506232Y-8766648D01*
X10506232Y-8766648D02*
X10515755Y-8757124D01*
X10515755Y-8757124D02*
X10515755Y-8776172D01*
M02*
