%TF.GenerationSoftware,KiCad,Pcbnew,7.0.8*%
%TF.CreationDate,2024-07-27T19:07:12+04:00*%
%TF.ProjectId,neopixel_eliot_hat,6e656f70-6978-4656-9c5f-656c696f745f,rev?*%
%TF.SameCoordinates,Original*%
%TF.FileFunction,Paste,Bot*%
%TF.FilePolarity,Positive*%
%FSLAX46Y46*%
G04 Gerber Fmt 4.6, Leading zero omitted, Abs format (unit mm)*
G04 Created by KiCad (PCBNEW 7.0.8) date 2024-07-27 19:07:12*
%MOMM*%
%LPD*%
G01*
G04 APERTURE LIST*
G04 Aperture macros list*
%AMRoundRect*
0 Rectangle with rounded corners*
0 $1 Rounding radius*
0 $2 $3 $4 $5 $6 $7 $8 $9 X,Y pos of 4 corners*
0 Add a 4 corners polygon primitive as box body*
4,1,4,$2,$3,$4,$5,$6,$7,$8,$9,$2,$3,0*
0 Add four circle primitives for the rounded corners*
1,1,$1+$1,$2,$3*
1,1,$1+$1,$4,$5*
1,1,$1+$1,$6,$7*
1,1,$1+$1,$8,$9*
0 Add four rect primitives between the rounded corners*
20,1,$1+$1,$2,$3,$4,$5,0*
20,1,$1+$1,$4,$5,$6,$7,0*
20,1,$1+$1,$6,$7,$8,$9,0*
20,1,$1+$1,$8,$9,$2,$3,0*%
G04 Aperture macros list end*
%ADD10RoundRect,0.225000X-0.225000X-0.375000X0.225000X-0.375000X0.225000X0.375000X-0.225000X0.375000X0*%
%ADD11RoundRect,0.225000X0.225000X0.250000X-0.225000X0.250000X-0.225000X-0.250000X0.225000X-0.250000X0*%
%ADD12RoundRect,0.200000X-0.200000X-0.275000X0.200000X-0.275000X0.200000X0.275000X-0.200000X0.275000X0*%
%ADD13RoundRect,0.225000X-0.225000X-0.250000X0.225000X-0.250000X0.225000X0.250000X-0.225000X0.250000X0*%
%ADD14R,0.600000X0.800000*%
%ADD15R,2.000000X1.500000*%
%ADD16R,2.000000X3.800000*%
%ADD17RoundRect,0.200000X-0.275000X0.200000X-0.275000X-0.200000X0.275000X-0.200000X0.275000X0.200000X0*%
%ADD18RoundRect,0.150000X-0.700000X0.150000X-0.700000X-0.150000X0.700000X-0.150000X0.700000X0.150000X0*%
%ADD19RoundRect,0.250000X-1.100000X0.250000X-1.100000X-0.250000X1.100000X-0.250000X1.100000X0.250000X0*%
%ADD20RoundRect,0.135000X0.135000X0.185000X-0.135000X0.185000X-0.135000X-0.185000X0.135000X-0.185000X0*%
%ADD21RoundRect,0.225000X-0.250000X0.225000X-0.250000X-0.225000X0.250000X-0.225000X0.250000X0.225000X0*%
%ADD22RoundRect,0.135000X0.185000X-0.135000X0.185000X0.135000X-0.185000X0.135000X-0.185000X-0.135000X0*%
%ADD23RoundRect,0.243750X0.243750X0.456250X-0.243750X0.456250X-0.243750X-0.456250X0.243750X-0.456250X0*%
%ADD24RoundRect,0.150000X-0.512500X-0.150000X0.512500X-0.150000X0.512500X0.150000X-0.512500X0.150000X0*%
%ADD25RoundRect,0.250000X0.315000X0.315000X-0.315000X0.315000X-0.315000X-0.315000X0.315000X-0.315000X0*%
%ADD26RoundRect,0.062500X0.350000X0.062500X-0.350000X0.062500X-0.350000X-0.062500X0.350000X-0.062500X0*%
%ADD27RoundRect,0.062500X0.062500X0.350000X-0.062500X0.350000X-0.062500X-0.350000X0.062500X-0.350000X0*%
%ADD28RoundRect,0.140000X-0.170000X0.140000X-0.170000X-0.140000X0.170000X-0.140000X0.170000X0.140000X0*%
%ADD29RoundRect,0.200000X0.275000X-0.200000X0.275000X0.200000X-0.275000X0.200000X-0.275000X-0.200000X0*%
%ADD30RoundRect,0.150000X0.587500X0.150000X-0.587500X0.150000X-0.587500X-0.150000X0.587500X-0.150000X0*%
%ADD31RoundRect,0.218750X-0.256250X0.218750X-0.256250X-0.218750X0.256250X-0.218750X0.256250X0.218750X0*%
%ADD32R,0.400000X1.350000*%
%ADD33R,1.500000X1.900000*%
G04 APERTURE END LIST*
D10*
%TO.C,D3*%
X105035500Y-74207000D03*
X108335500Y-74207000D03*
%TD*%
D11*
%TO.C,C14*%
X101773000Y-58819500D03*
X103323000Y-58819500D03*
%TD*%
D12*
%TO.C,R12*%
X103323000Y-60394500D03*
X101673000Y-60394500D03*
%TD*%
D13*
%TO.C,C18*%
X101225000Y-62850000D03*
X102775000Y-62850000D03*
%TD*%
%TO.C,C17*%
X101225000Y-64350000D03*
X102775000Y-64350000D03*
%TD*%
D14*
%TO.C,Q2*%
X106935500Y-65154500D03*
X105035500Y-65154500D03*
X105985500Y-63134500D03*
%TD*%
D15*
%TO.C,U2*%
X105535500Y-61169500D03*
X105535500Y-58869500D03*
D16*
X111835500Y-58869500D03*
D15*
X105535500Y-56569500D03*
%TD*%
D11*
%TO.C,C8*%
X115450000Y-71900000D03*
X113900000Y-71900000D03*
%TD*%
D17*
%TO.C,R21*%
X105010500Y-66469500D03*
X105010500Y-68119500D03*
%TD*%
D11*
%TO.C,C9*%
X113900000Y-73425000D03*
X115450000Y-73425000D03*
%TD*%
D17*
%TO.C,R19*%
X100810500Y-72869500D03*
X100810500Y-74519500D03*
%TD*%
D18*
%TO.C,J7*%
X113460500Y-76719500D03*
X113460500Y-77969500D03*
X113460500Y-79219500D03*
X113460500Y-80469500D03*
X113460500Y-81719500D03*
X113460500Y-82969500D03*
D19*
X116660500Y-74869500D03*
X116660500Y-84819500D03*
%TD*%
D20*
%TO.C,R20*%
X95420500Y-69219500D03*
X94400500Y-69219500D03*
%TD*%
D17*
%TO.C,R6*%
X96685500Y-60619500D03*
X96685500Y-62269500D03*
%TD*%
D21*
%TO.C,C16*%
X99285500Y-74419500D03*
X99285500Y-72869500D03*
%TD*%
D22*
%TO.C,R22*%
X96485500Y-73644500D03*
X96485500Y-72624500D03*
%TD*%
D23*
%TO.C,F1*%
X111612500Y-77250000D03*
X109737500Y-77250000D03*
%TD*%
D24*
%TO.C,U3*%
X105635500Y-78207000D03*
X105635500Y-77257000D03*
X105635500Y-76307000D03*
X107910500Y-76307000D03*
X107910500Y-77257000D03*
X107910500Y-78207000D03*
%TD*%
D25*
%TO.C,U5*%
X99185500Y-69619500D03*
X99185500Y-68319500D03*
X97885500Y-69619500D03*
X97885500Y-68319500D03*
D26*
X100473000Y-67719500D03*
X100473000Y-68219500D03*
X100473000Y-68719500D03*
X100473000Y-69219500D03*
X100473000Y-69719500D03*
X100473000Y-70219500D03*
D27*
X99785500Y-70907000D03*
X99285500Y-70907000D03*
X98785500Y-70907000D03*
X98285500Y-70907000D03*
X97785500Y-70907000D03*
X97285500Y-70907000D03*
D26*
X96598000Y-70219500D03*
X96598000Y-69719500D03*
X96598000Y-69219500D03*
X96598000Y-68719500D03*
X96598000Y-68219500D03*
X96598000Y-67719500D03*
D27*
X97285500Y-67032000D03*
X97785500Y-67032000D03*
X98285500Y-67032000D03*
X98785500Y-67032000D03*
X99285500Y-67032000D03*
X99785500Y-67032000D03*
%TD*%
D28*
%TO.C,C10*%
X101735500Y-71379500D03*
X101735500Y-70419500D03*
%TD*%
D29*
%TO.C,R18*%
X97760500Y-74519500D03*
X97760500Y-72869500D03*
%TD*%
D14*
%TO.C,Q1*%
X104985500Y-69434500D03*
X106885500Y-69434500D03*
X105935500Y-71454500D03*
%TD*%
D30*
%TO.C,Q3*%
X111962500Y-73250000D03*
X111962500Y-75150000D03*
X110087500Y-74200000D03*
%TD*%
D31*
%TO.C,D2*%
X100060500Y-58832000D03*
X100060500Y-60407000D03*
%TD*%
D29*
%TO.C,R23*%
X106885500Y-68119500D03*
X106885500Y-66469500D03*
%TD*%
D28*
%TO.C,C11*%
X102710500Y-71379500D03*
X102710500Y-70419500D03*
%TD*%
D32*
%TO.C,J5*%
X107725500Y-80367000D03*
X107075500Y-80367000D03*
X106425500Y-80367000D03*
X105775500Y-80367000D03*
X105125500Y-80367000D03*
D33*
X107425500Y-83067000D03*
X105425500Y-83067000D03*
%TD*%
M02*
