%TF.GenerationSoftware,KiCad,Pcbnew,7.0.8*%
%TF.CreationDate,2024-02-04T14:44:40+01:00*%
%TF.ProjectId,HatV2,48617456-322e-46b6-9963-61645f706362,V2*%
%TF.SameCoordinates,PX5faea10PY6c663e8*%
%TF.FileFunction,Copper,L4,Bot*%
%TF.FilePolarity,Positive*%
%FSLAX46Y46*%
G04 Gerber Fmt 4.6, Leading zero omitted, Abs format (unit mm)*
G04 Created by KiCad (PCBNEW 7.0.8) date 2024-02-04 14:44:40*
%MOMM*%
%LPD*%
G01*
G04 APERTURE LIST*
G04 Aperture macros list*
%AMRoundRect*
0 Rectangle with rounded corners*
0 $1 Rounding radius*
0 $2 $3 $4 $5 $6 $7 $8 $9 X,Y pos of 4 corners*
0 Add a 4 corners polygon primitive as box body*
4,1,4,$2,$3,$4,$5,$6,$7,$8,$9,$2,$3,0*
0 Add four circle primitives for the rounded corners*
1,1,$1+$1,$2,$3*
1,1,$1+$1,$4,$5*
1,1,$1+$1,$6,$7*
1,1,$1+$1,$8,$9*
0 Add four rect primitives between the rounded corners*
20,1,$1+$1,$2,$3,$4,$5,0*
20,1,$1+$1,$4,$5,$6,$7,0*
20,1,$1+$1,$6,$7,$8,$9,0*
20,1,$1+$1,$8,$9,$2,$3,0*%
G04 Aperture macros list end*
%TA.AperFunction,ComponentPad*%
%ADD10C,0.500000*%
%TD*%
%TA.AperFunction,ComponentPad*%
%ADD11R,1.700000X1.700000*%
%TD*%
%TA.AperFunction,ComponentPad*%
%ADD12O,1.700000X1.700000*%
%TD*%
%TA.AperFunction,ComponentPad*%
%ADD13C,0.800000*%
%TD*%
%TA.AperFunction,ComponentPad*%
%ADD14C,6.400000*%
%TD*%
%TA.AperFunction,SMDPad,CuDef*%
%ADD15RoundRect,0.200000X1.000000X-0.200000X1.000000X0.200000X-1.000000X0.200000X-1.000000X-0.200000X0*%
%TD*%
%TA.AperFunction,SMDPad,CuDef*%
%ADD16RoundRect,0.250000X1.400000X-0.650000X1.400000X0.650000X-1.400000X0.650000X-1.400000X-0.650000X0*%
%TD*%
%TA.AperFunction,SMDPad,CuDef*%
%ADD17RoundRect,0.150000X0.700000X-0.150000X0.700000X0.150000X-0.700000X0.150000X-0.700000X-0.150000X0*%
%TD*%
%TA.AperFunction,SMDPad,CuDef*%
%ADD18RoundRect,0.250000X1.150000X-0.250000X1.150000X0.250000X-1.150000X0.250000X-1.150000X-0.250000X0*%
%TD*%
%TA.AperFunction,ViaPad*%
%ADD19C,0.800000*%
%TD*%
%TA.AperFunction,ViaPad*%
%ADD20C,0.700000*%
%TD*%
%TA.AperFunction,Conductor*%
%ADD21C,0.300000*%
%TD*%
%TA.AperFunction,Conductor*%
%ADD22C,0.400000*%
%TD*%
G04 APERTURE END LIST*
D10*
%TO.P,U7,9,PAD*%
%TO.N,GND*%
X78425000Y3470000D03*
X77925000Y2570000D03*
X77925000Y4370000D03*
X77425000Y3470000D03*
%TD*%
D11*
%TO.P,J5,1,Pin_1*%
%TO.N,+3V3*%
X26411000Y18415000D03*
D12*
%TO.P,J5,2,Pin_2*%
%TO.N,+5V*%
X26411000Y15875000D03*
%TO.P,J5,3,Pin_3*%
%TO.N,/I2C_GP5_DAT*%
X28951000Y18415000D03*
%TO.P,J5,4,Pin_4*%
%TO.N,+5V*%
X28951000Y15875000D03*
%TO.P,J5,5,Pin_5*%
%TO.N,/I2C_GP5_CLK*%
X31491000Y18415000D03*
%TO.P,J5,6,Pin_6*%
%TO.N,GND*%
X31491000Y15875000D03*
%TO.P,J5,7,Pin_7*%
%TO.N,/MCLK05*%
X34031000Y18415000D03*
%TO.P,J5,8,Pin_8*%
%TO.N,/UART1_TX*%
X34031000Y15875000D03*
%TO.P,J5,9,Pin_9*%
%TO.N,GND*%
X36571000Y18415000D03*
%TO.P,J5,10,Pin_10*%
%TO.N,/UART1_RX*%
X36571000Y15875000D03*
%TO.P,J5,11,Pin_11*%
%TO.N,/UART1_RTS*%
X39111000Y18415000D03*
%TO.P,J5,12,Pin_12*%
%TO.N,/I2S2_CLK*%
X39111000Y15875000D03*
%TO.P,J5,13,Pin_13*%
%TO.N,/PWM01*%
X41651000Y18415000D03*
%TO.P,J5,14,Pin_14*%
%TO.N,GND*%
X41651000Y15875000D03*
%TO.P,J5,15,Pin_15*%
%TO.N,/GPIO27_PWM2*%
X44191000Y18415000D03*
%TO.P,J5,16,Pin_16*%
%TO.N,/GPIO8_AO_DMIC_IN_DAT*%
X44191000Y15875000D03*
%TO.P,J5,17,Pin_17*%
%TO.N,+3V3*%
X46731000Y18415000D03*
%TO.P,J5,18,Pin_18*%
%TO.N,/GPIO35_PWM3*%
X46731000Y15875000D03*
%TO.P,J5,19,Pin_19*%
%TO.N,/SPI1_MOSI*%
X49271000Y18415000D03*
%TO.P,J5,20,Pin_20*%
%TO.N,GND*%
X49271000Y15875000D03*
%TO.P,J5,21,Pin_21*%
%TO.N,/SPI1_MISO*%
X51811000Y18415000D03*
%TO.P,J5,22,Pin_22*%
%TO.N,/GPIO17_40HEADER*%
X51811000Y15875000D03*
%TO.P,J5,23,Pin_23*%
%TO.N,/SPI1_SCK*%
X54351000Y18415000D03*
%TO.P,J5,24,Pin_24*%
%TO.N,/SPI1_CS0*%
X54351000Y15875000D03*
%TO.P,J5,25,Pin_25*%
%TO.N,GND*%
X56891000Y18415000D03*
%TO.P,J5,26,Pin_26*%
%TO.N,/SPI1_CS1*%
X56891000Y15875000D03*
%TO.P,J5,27,Pin_27*%
%TO.N,/I2C_GP2_DAT*%
X59431000Y18415000D03*
%TO.P,J5,28,Pin_28*%
%TO.N,/I2C_GP2_CLK*%
X59431000Y15875000D03*
%TO.P,J5,29,Pin_29*%
%TO.N,/CAN0_DIN*%
X61971000Y18415000D03*
%TO.P,J5,30,Pin_30*%
%TO.N,GND*%
X61971000Y15875000D03*
%TO.P,J5,31,Pin_31*%
%TO.N,/CAN0_DOUT*%
X64511000Y18415000D03*
%TO.P,J5,32,Pin_32*%
%TO.N,/GPIO9_CAN1_GPIO0_DMIC_CLK*%
X64511000Y15875000D03*
%TO.P,J5,33,Pin_33*%
%TO.N,/CAN1_DOUT*%
X67051000Y18415000D03*
%TO.P,J5,34,Pin_34*%
%TO.N,GND*%
X67051000Y15875000D03*
%TO.P,J5,35,Pin_35*%
%TO.N,/I2S_FS*%
X69591000Y18415000D03*
%TO.P,J5,36,Pin_36*%
%TO.N,/UART1_CTS*%
X69591000Y15875000D03*
%TO.P,J5,37,Pin_37*%
%TO.N,/CAN1_DIN*%
X72131000Y18415000D03*
%TO.P,J5,38,Pin_38*%
%TO.N,/I2S_SDIN*%
X72131000Y15875000D03*
%TO.P,J5,39,Pin_39*%
%TO.N,GND*%
X74671000Y18415000D03*
%TO.P,J5,40,Pin_40*%
%TO.N,/I2S_SDOUT*%
X74671000Y15875000D03*
%TD*%
D10*
%TO.P,U1,9,PAD*%
%TO.N,GND*%
X29075000Y9155000D03*
X28575000Y8255000D03*
X28575000Y10055000D03*
X28075000Y9155000D03*
%TD*%
D13*
%TO.P,H1,1*%
%TO.N,N/C*%
X4821000Y11897056D03*
X6518056Y7800000D03*
X6518056Y11194112D03*
X7221000Y9497056D03*
D14*
X4821000Y9497056D03*
D13*
X4821000Y7097056D03*
X3123944Y11194112D03*
X3123944Y7800000D03*
X2421000Y9497056D03*
%TD*%
D10*
%TO.P,U3,9,PAD*%
%TO.N,GND*%
X29075000Y3470000D03*
X28575000Y2570000D03*
X28575000Y4370000D03*
X28075000Y3470000D03*
%TD*%
D13*
%TO.P,H2,1*%
%TO.N,N/C*%
X83820000Y11925000D03*
X85517056Y7827944D03*
X85517056Y11222056D03*
X86220000Y9525000D03*
D14*
X83820000Y9525000D03*
D13*
X83820000Y7125000D03*
X82122944Y11222056D03*
X82122944Y7827944D03*
X81420000Y9525000D03*
%TD*%
D15*
%TO.P,J4,1,Pin_1*%
%TO.N,/CAN BUS 1/CH1+*%
X41290063Y4731884D03*
%TO.P,J4,2,Pin_2*%
%TO.N,/CAN BUS 1/CH1-*%
X41290063Y6231884D03*
%TO.P,J4,3,Pin_3*%
%TO.N,GND*%
X41290063Y7731884D03*
%TO.P,J4,4,Pin_4*%
X41290063Y9231884D03*
D16*
%TO.P,J4,MP*%
%TO.N,N/C*%
X46340063Y2131884D03*
X46340063Y11831884D03*
%TD*%
D17*
%TO.P,J7,1,Pin_1*%
%TO.N,GND*%
X51720144Y5428976D03*
%TO.P,J7,2,Pin_2*%
%TO.N,/RS232 to UART/RIN1*%
X51720144Y6678976D03*
%TO.P,J7,3,Pin_3*%
%TO.N,/RS232 to UART/DOUT1*%
X51720144Y7928976D03*
%TO.P,J7,4,Pin_4*%
%TO.N,GND*%
X51720144Y9178976D03*
D18*
%TO.P,J7,MP*%
%TO.N,N/C*%
X55070144Y3578976D03*
X55070144Y11028976D03*
%TD*%
D15*
%TO.P,J9,1,Pin_1*%
%TO.N,/CAN BUS SPI/CHS_P*%
X69670423Y4992728D03*
%TO.P,J9,2,Pin_2*%
%TO.N,/CAN BUS SPI/CHS_N*%
X69670423Y6492728D03*
%TO.P,J9,3,Pin_3*%
%TO.N,GND*%
X69670423Y7992728D03*
%TO.P,J9,4,Pin_4*%
X69670423Y9492728D03*
D16*
%TO.P,J9,MP*%
%TO.N,N/C*%
X74720423Y2392728D03*
X74720423Y12092728D03*
%TD*%
D15*
%TO.P,J8,1,Pin_1*%
%TO.N,/CAN BUS SPI/CHS_P*%
X60355000Y4965000D03*
%TO.P,J8,2,Pin_2*%
%TO.N,/CAN BUS SPI/CHS_N*%
X60355000Y6465000D03*
%TO.P,J8,3,Pin_3*%
%TO.N,GND*%
X60355000Y7965000D03*
%TO.P,J8,4,Pin_4*%
X60355000Y9465000D03*
D16*
%TO.P,J8,MP*%
%TO.N,N/C*%
X65405000Y2365000D03*
X65405000Y12065000D03*
%TD*%
D11*
%TO.P,J6,1,Pin_1*%
%TO.N,GND*%
X12700000Y15875000D03*
D12*
%TO.P,J6,2,Pin_2*%
%TO.N,/I2C_GP5_DAT*%
X12700000Y18415000D03*
%TO.P,J6,3,Pin_3*%
%TO.N,/I2C_GP5_CLK*%
X15240000Y15875000D03*
%TO.P,J6,4,Pin_4*%
%TO.N,/PWM01*%
X15240000Y18415000D03*
%TO.P,J6,5,Pin_5*%
%TO.N,/GPIO27_PWM2*%
X17780000Y15875000D03*
%TO.P,J6,6,Pin_6*%
%TO.N,/GPIO35_PWM3*%
X17780000Y18415000D03*
%TO.P,J6,7,Pin_7*%
%TO.N,/GPIO8_AO_DMIC_IN_DAT*%
X20320000Y15875000D03*
%TO.P,J6,8,Pin_8*%
%TO.N,GND*%
X20320000Y18415000D03*
%TD*%
D15*
%TO.P,J2,1,Pin_1*%
%TO.N,/CAN BUS 0/CH0+*%
X20110000Y4735000D03*
%TO.P,J2,2,Pin_2*%
%TO.N,/CAN BUS 0/CH0-*%
X20110000Y6235000D03*
%TO.P,J2,3,Pin_3*%
%TO.N,GND*%
X20110000Y7735000D03*
%TO.P,J2,4,Pin_4*%
X20110000Y9235000D03*
D16*
%TO.P,J2,MP*%
%TO.N,N/C*%
X25160000Y2135000D03*
X25160000Y11835000D03*
%TD*%
D15*
%TO.P,J3,1,Pin_1*%
%TO.N,/CAN BUS 1/CH1+*%
X32012765Y4746320D03*
%TO.P,J3,2,Pin_2*%
%TO.N,/CAN BUS 1/CH1-*%
X32012765Y6246320D03*
%TO.P,J3,3,Pin_3*%
%TO.N,GND*%
X32012765Y7746320D03*
%TO.P,J3,4,Pin_4*%
X32012765Y9246320D03*
D16*
%TO.P,J3,MP*%
%TO.N,N/C*%
X37062765Y2146320D03*
X37062765Y11846320D03*
%TD*%
D15*
%TO.P,J1,1,Pin_1*%
%TO.N,/CAN BUS 0/CH0+*%
X10929758Y4735000D03*
%TO.P,J1,2,Pin_2*%
%TO.N,/CAN BUS 0/CH0-*%
X10929758Y6235000D03*
%TO.P,J1,3,Pin_3*%
%TO.N,GND*%
X10929758Y7735000D03*
%TO.P,J1,4,Pin_4*%
X10929758Y9235000D03*
D16*
%TO.P,J1,MP*%
%TO.N,N/C*%
X15979758Y2135000D03*
X15979758Y11835000D03*
%TD*%
D19*
%TO.N,GND*%
X7467600Y13385800D03*
X9194800Y14198600D03*
X9093200Y12166600D03*
X84632800Y4546600D03*
X84632800Y3175000D03*
X84734400Y1905000D03*
X17780000Y6985000D03*
X37934857Y8572253D03*
X37934857Y10287198D03*
X38056197Y3802825D03*
X8890000Y635000D03*
X11430000Y635000D03*
X25400000Y635000D03*
X21590000Y635000D03*
X19050000Y635000D03*
X16510000Y635000D03*
X13970000Y6985000D03*
X16510000Y6985000D03*
X11430000Y8255000D03*
X8890000Y8255000D03*
X8890000Y5715000D03*
X86360000Y3175000D03*
X85750400Y736600D03*
X86360000Y1905000D03*
X86360000Y4445000D03*
X84277200Y584200D03*
X67310000Y635000D03*
X63500000Y635000D03*
X60960000Y635000D03*
X57150000Y635000D03*
X54610000Y635000D03*
X52070000Y635000D03*
X49530000Y635000D03*
X47091600Y533400D03*
X44450000Y635000D03*
X41910000Y635000D03*
X39370000Y635000D03*
X36830000Y635000D03*
X34290000Y635000D03*
X46990000Y4445000D03*
X80010000Y12065000D03*
X80010000Y8255000D03*
X78740000Y9525000D03*
X78740000Y10795000D03*
X78740000Y12065000D03*
X78740000Y13335000D03*
X80010000Y13335000D03*
X48260000Y4445000D03*
X45720000Y4445000D03*
X12700000Y12065000D03*
X10972800Y12065000D03*
X7620000Y1905000D03*
X5080000Y1905000D03*
X2540000Y1905000D03*
X7620000Y4445000D03*
X5080000Y4445000D03*
X2540000Y4445000D03*
X79375000Y5829500D03*
X28575000Y7455500D03*
X28575000Y1270000D03*
X69850000Y13335000D03*
X49530000Y13970000D03*
X29210000Y12065000D03*
X29210000Y14134500D03*
X77470000Y8255000D03*
X40005000Y14134500D03*
X28776756Y6219500D03*
X59055000Y3810000D03*
%TO.N,/CAN BUS SPI/CHS_N*%
X57346161Y4257617D03*
%TO.N,/CAN BUS SPI/CHS_P*%
X57785000Y3175000D03*
%TO.N,GND*%
X78105000Y6985000D03*
X71120000Y3339353D03*
X62865000Y6820500D03*
D20*
%TO.N,/CAN1_DIN*%
X34290000Y5496820D03*
D19*
%TO.N,GND*%
X76720500Y17145000D03*
X65405000Y14085419D03*
%TO.N,/I2C_GP5_CLK*%
X23495000Y17145000D03*
%TO.N,GND*%
X62075232Y14240187D03*
X57150000Y20155500D03*
X22860000Y19050000D03*
%TO.N,/RS232 to UART/V+*%
X45874467Y9349649D03*
X43815000Y8890000D03*
%TO.N,GND*%
X41275000Y10160000D03*
X41275000Y3732384D03*
%TO.N,/SPI to CAN/OSC2*%
X77470000Y11430000D03*
X73025000Y10160000D03*
%TO.N,+5V*%
X25400000Y6520820D03*
X76212898Y6127056D03*
X24765000Y13335000D03*
%TO.N,GND*%
X10795000Y10160000D03*
X23495000Y6985000D03*
X33655000Y8890000D03*
X32385000Y1270000D03*
X8890000Y3175000D03*
X23211114Y5363886D03*
X19685000Y11430000D03*
X22910500Y11777144D03*
X71755000Y1270000D03*
X19050000Y3359049D03*
X83185000Y2540000D03*
X58420000Y9525000D03*
X18415000Y9094423D03*
X73025000Y5715000D03*
X22934844Y635000D03*
%TO.N,+3V3*%
X66675000Y6985000D03*
X82143669Y4602226D03*
X50165000Y9525000D03*
X32489192Y10404500D03*
X31678245Y563245D03*
%TO.N,/I2C_GP5_DAT*%
X14287500Y20002500D03*
%TO.N,/GPIO8_AO_DMIC_IN_DAT*%
X45085000Y21590000D03*
%TO.N,/GPIO35_PWM3*%
X23495000Y20790500D03*
X48260000Y21590000D03*
%TO.N,/SPI1_MISO*%
X51435000Y12585500D03*
%TO.N,/GPIO17_40HEADER*%
X72390000Y8890000D03*
%TO.N,/SPI1_CS0*%
X67730304Y13335919D03*
X62869984Y8890000D03*
D20*
%TO.N,/CAN0_DIN*%
X31043245Y11501755D03*
%TO.N,/CAN0_DOUT*%
X30016904Y7110660D03*
%TO.N,/CAN1_DOUT*%
X30480000Y1270000D03*
D19*
%TO.N,/RS232 to UART/RIN1*%
X50165000Y6620497D03*
%TO.N,/RS232 to UART/DOUT1*%
X50165000Y7620000D03*
%TO.N,/CAN BUS SPI/TDX_SPI*%
X71755000Y5715000D03*
X79375000Y1270000D03*
%TO.N,/CAN BUS SPI/RDX_SPI*%
X80645000Y5080000D03*
X72637832Y7232832D03*
%TO.N,/CAN BUS 0/CH0+*%
X22428704Y8619923D03*
%TO.N,/CAN BUS 0/CH0-*%
X22428704Y9669923D03*
%TO.N,/CAN BUS 1/CH1+*%
X22225000Y2540000D03*
%TO.N,/CAN BUS 1/CH1-*%
X22225000Y4174503D03*
%TD*%
D21*
%TO.N,/CAN BUS 1/CH1+*%
X22225000Y2540000D02*
X23495000Y3810000D01*
X23495000Y3810000D02*
X27166470Y3810000D01*
X27166470Y3810000D02*
X28326470Y4970000D01*
X28326470Y4970000D02*
X29320000Y4970000D01*
X29320000Y4970000D02*
X29543680Y4746320D01*
X29543680Y4746320D02*
X32012765Y4746320D01*
%TO.N,/CAN BUS 1/CH1-*%
X31011320Y6246320D02*
X32012765Y6246320D01*
X27094363Y4445000D02*
X28119363Y5470000D01*
X23352182Y4445000D02*
X27094363Y4445000D01*
X23081685Y4174503D02*
X23352182Y4445000D01*
X30235000Y5470000D02*
X31011320Y6246320D01*
X22225000Y4174503D02*
X23081685Y4174503D01*
X28119363Y5470000D02*
X30235000Y5470000D01*
%TO.N,/CAN BUS 0/CH0+*%
X13204759Y5210000D02*
X17834999Y5210000D01*
X18309999Y4735000D02*
X20110000Y4735000D01*
X12729759Y4735000D02*
X13204759Y5210000D01*
X10929758Y4735000D02*
X12729759Y4735000D01*
X17834999Y5210000D02*
X18309999Y4735000D01*
%TO.N,/CAN BUS 0/CH0-*%
X13204759Y5760000D02*
X12729759Y6235000D01*
X17834999Y5760000D02*
X13204759Y5760000D01*
X18309999Y6235000D02*
X17834999Y5760000D01*
X20110000Y6235000D02*
X18309999Y6235000D01*
X12729759Y6235000D02*
X10929758Y6235000D01*
D22*
%TO.N,GND*%
X10929758Y7754758D02*
X10929758Y7735000D01*
X11430000Y8255000D02*
X10929758Y7754758D01*
X10929758Y8755242D02*
X11430000Y8255000D01*
X33298680Y9246320D02*
X32012765Y9246320D01*
X33655000Y8890000D02*
X33298680Y9246320D01*
X52970144Y6301158D02*
X52097962Y5428976D01*
X52970144Y8306794D02*
X52970144Y6301158D01*
X52097962Y5428976D02*
X51720144Y5428976D01*
X51720144Y9178976D02*
X52097962Y9178976D01*
X52097962Y9178976D02*
X52970144Y8306794D01*
X53975000Y9178976D02*
X58073976Y9178976D01*
X51720144Y9178976D02*
X53975000Y9178976D01*
X58073976Y9178976D02*
X58420000Y9525000D01*
D21*
%TO.N,/CAN BUS SPI/CHS_N*%
X62155001Y6465000D02*
X60355000Y6465000D01*
X62630001Y5990000D02*
X62155001Y6465000D01*
X63289526Y6017728D02*
X63261798Y5990000D01*
X67395422Y6017728D02*
X63289526Y6017728D01*
X67870422Y6492728D02*
X67395422Y6017728D01*
X69670423Y6492728D02*
X67870422Y6492728D01*
%TO.N,/CAN BUS SPI/CHS_P*%
X62630001Y5440000D02*
X62155001Y4965000D01*
X63472272Y5440000D02*
X62630001Y5440000D01*
X62155001Y4965000D02*
X60355000Y4965000D01*
X63500000Y5467728D02*
X63472272Y5440000D01*
%TO.N,/CAN BUS SPI/CHS_N*%
X63261798Y5990000D02*
X62630001Y5990000D01*
%TO.N,/CAN BUS SPI/CHS_P*%
X69670423Y4992728D02*
X67870422Y4992728D01*
X67870422Y4992728D02*
X67395422Y5467728D01*
X67395422Y5467728D02*
X63500000Y5467728D01*
D22*
%TO.N,GND*%
X63401148Y6820500D02*
X64573376Y7992728D01*
X64573376Y7992728D02*
X69670423Y7992728D01*
X62865000Y6820500D02*
X63401148Y6820500D01*
D21*
%TO.N,/CAN BUS SPI/CHS_P*%
X58095661Y4755661D02*
X58095661Y3485661D01*
X58420000Y5080000D02*
X58095661Y4755661D01*
X59055000Y5080000D02*
X58420000Y5080000D01*
X60355000Y4965000D02*
X59170000Y4965000D01*
X59170000Y4965000D02*
X59055000Y5080000D01*
X58095661Y3485661D02*
X57785000Y3175000D01*
%TO.N,/CAN BUS SPI/CHS_N*%
X59555000Y6465000D02*
X60355000Y6465000D01*
X59080000Y5990000D02*
X59555000Y6465000D01*
X57346161Y4893979D02*
X58442182Y5990000D01*
X57346161Y4257617D02*
X57346161Y4893979D01*
X58442182Y5990000D02*
X59080000Y5990000D01*
D22*
%TO.N,GND*%
X58420000Y9525000D02*
X60295000Y9525000D01*
X60295000Y9525000D02*
X60355000Y9465000D01*
D21*
%TO.N,/CAN BUS 1/CH1-*%
X34717640Y6246320D02*
X32012765Y6246320D01*
X35456320Y6985000D02*
X34717640Y6246320D01*
X36830000Y6985000D02*
X35456320Y6985000D01*
X37583116Y6231884D02*
X36830000Y6985000D01*
X41290063Y6231884D02*
X37583116Y6231884D01*
%TO.N,/CAN BUS 1/CH1+*%
X35560000Y5080000D02*
X35226320Y4746320D01*
X37116884Y5080000D02*
X35560000Y5080000D01*
X37465000Y4731884D02*
X37116884Y5080000D01*
X35226320Y4746320D02*
X32012765Y4746320D01*
X41290063Y4731884D02*
X37465000Y4731884D01*
%TO.N,/CAN BUS SPI/TDX_SPI*%
X71755000Y5715000D02*
X72505000Y4965000D01*
X76835000Y1905000D02*
X77470000Y1270000D01*
X75081470Y4965000D02*
X76835000Y3211470D01*
X76835000Y3211470D02*
X76835000Y1905000D01*
X72505000Y4965000D02*
X75081470Y4965000D01*
X77470000Y1270000D02*
X79375000Y1270000D01*
%TO.N,/RS232 to UART/V+*%
X45874467Y9349649D02*
X45414818Y8890000D01*
X45414818Y8890000D02*
X43815000Y8890000D01*
D22*
%TO.N,GND*%
X41275000Y10160000D02*
X41275000Y7746947D01*
D21*
%TO.N,/SPI to CAN/OSC2*%
X76200000Y10160000D02*
X77470000Y11430000D01*
X73025000Y10160000D02*
X76200000Y10160000D01*
D22*
%TO.N,GND*%
X73025000Y5715000D02*
X70747272Y7992728D01*
X69670423Y9492728D02*
X69670423Y7992728D01*
X31750000Y9509085D02*
X32012765Y9246320D01*
X20110000Y9235000D02*
X20110000Y7735000D01*
X70747272Y7992728D02*
X69670423Y7992728D01*
X19969423Y9094423D02*
X20110000Y9235000D01*
X69109075Y9492728D02*
X69670423Y9492728D01*
X10929758Y9235000D02*
X10929758Y10025242D01*
X10929758Y9235000D02*
X10929758Y8755242D01*
X32012765Y9246320D02*
X32012765Y7746320D01*
X20110000Y11005000D02*
X19685000Y11430000D01*
X20110000Y9235000D02*
X20110000Y11005000D01*
X18415000Y9094423D02*
X19969423Y9094423D01*
X41275000Y7746947D02*
X41290063Y7731884D01*
X10929758Y10025242D02*
X10795000Y10160000D01*
X60355000Y9465000D02*
X60355000Y7965000D01*
D21*
%TO.N,/SPI1_MISO*%
X50611000Y17215000D02*
X51811000Y18415000D01*
X51435000Y12585500D02*
X50611000Y13409500D01*
X50611000Y13409500D02*
X50611000Y17215000D01*
%TO.N,/GPIO17_40HEADER*%
X57552650Y10795000D02*
X70485000Y10795000D01*
X70485000Y10795000D02*
X72390000Y8890000D01*
X51811000Y15875000D02*
X51811000Y14099500D01*
X54031524Y11878976D02*
X56468674Y11878976D01*
X51811000Y14099500D02*
X54031524Y11878976D01*
X56468674Y11878976D02*
X57552650Y10795000D01*
%TO.N,/SPI1_CS0*%
X56890081Y13335919D02*
X54351000Y15875000D01*
X67730304Y13335919D02*
X56890081Y13335919D01*
%TO.N,/RS232 to UART/RIN1*%
X50165000Y6620497D02*
X51661665Y6620497D01*
X51661665Y6620497D02*
X51720144Y6678976D01*
%TO.N,/RS232 to UART/DOUT1*%
X50165000Y7620000D02*
X51411168Y7620000D01*
X51411168Y7620000D02*
X51720144Y7928976D01*
%TO.N,/CAN BUS SPI/RDX_SPI*%
X72637832Y7232832D02*
X74047168Y7232832D01*
X74047168Y7232832D02*
X76200000Y5080000D01*
X76200000Y5080000D02*
X80645000Y5080000D01*
%TO.N,/CAN BUS 0/CH0+*%
X22428704Y7053704D02*
X21660000Y6285000D01*
X22428704Y8619923D02*
X22428704Y7053704D01*
X20860000Y5485000D02*
X20110000Y4735000D01*
X21660000Y6285000D02*
X21660000Y5807182D01*
X20455000Y5080000D02*
X20955000Y5080000D01*
X21337818Y5485000D02*
X20860000Y5485000D01*
X20110000Y4735000D02*
X20455000Y5080000D01*
X21660000Y5807182D02*
X21337818Y5485000D01*
%TO.N,/CAN BUS 0/CH0-*%
X21678704Y8309262D02*
X21878704Y8109262D01*
X22128704Y9369923D02*
X22118043Y9369923D01*
X21878704Y7281522D02*
X20832182Y6235000D01*
X21878704Y8109262D02*
X21878704Y7281522D01*
X22118043Y9369923D02*
X21678704Y8930584D01*
X20110000Y6235000D02*
X20832182Y6235000D01*
X22428704Y9669923D02*
X22128704Y9369923D01*
X21678704Y8930584D02*
X21678704Y8309262D01*
%TD*%
M02*
