%TF.GenerationSoftware,KiCad,Pcbnew,7.0.8*%
%TF.CreationDate,2024-02-06T22:23:07+01:00*%
%TF.ProjectId,HatV3,48617456-332e-46b6-9963-61645f706362,V2*%
%TF.SameCoordinates,Original*%
%TF.FileFunction,AssemblyDrawing,Top*%
%FSLAX46Y46*%
G04 Gerber Fmt 4.6, Leading zero omitted, Abs format (unit mm)*
G04 Created by KiCad (PCBNEW 7.0.8) date 2024-02-06 22:23:07*
%MOMM*%
%LPD*%
G01*
G04 APERTURE LIST*
%ADD10C,0.100000*%
G04 APERTURE END LIST*
D10*
%TO.C,C11*%
X166484400Y-102981000D02*
X168084400Y-102981000D01*
X166484400Y-103781000D02*
X166484400Y-102981000D01*
X168084400Y-102981000D02*
X168084400Y-103781000D01*
X168084400Y-103781000D02*
X166484400Y-103781000D01*
%TO.C,J5*%
X125700438Y-98855962D02*
X125700438Y-94775962D01*
X176500438Y-98855962D02*
X125700438Y-98855962D01*
X125700438Y-94775962D02*
X126700438Y-93775962D01*
X126700438Y-93775962D02*
X176500438Y-93775962D01*
X176500438Y-93775962D02*
X176500438Y-98855962D01*
%TO.C,U6*%
X180083900Y-111648800D02*
X179083900Y-112648800D01*
X180083900Y-107648800D02*
X180083900Y-111648800D01*
X179083900Y-112648800D02*
X175683900Y-112648800D01*
X175683900Y-112648800D02*
X175683900Y-107648800D01*
X175683900Y-107648800D02*
X180083900Y-107648800D01*
%TO.C,C2*%
X109390822Y-112977822D02*
X109390822Y-113977822D01*
X108890822Y-112977822D02*
X109390822Y-112977822D01*
X109390822Y-113977822D02*
X108890822Y-113977822D01*
X108890822Y-113977822D02*
X108890822Y-112977822D01*
%TO.C,FL3*%
X160231778Y-110326378D02*
X160231778Y-111526378D01*
X158631778Y-110326378D02*
X160231778Y-110326378D01*
X158631778Y-110326378D02*
X158231778Y-110721378D01*
X158231778Y-110721378D02*
X158231778Y-111526378D01*
X158231778Y-111526378D02*
X160231778Y-111526378D01*
%TO.C,C21*%
X152519000Y-111629000D02*
X151519000Y-111629000D01*
X152519000Y-111129000D02*
X152519000Y-111629000D01*
X151519000Y-111629000D02*
X151519000Y-111129000D01*
X151519000Y-111129000D02*
X152519000Y-111129000D01*
%TO.C,C8*%
X128871600Y-105533000D02*
X127871600Y-105533000D01*
X128871600Y-105033000D02*
X128871600Y-105533000D01*
X127871600Y-105533000D02*
X127871600Y-105033000D01*
X127871600Y-105033000D02*
X128871600Y-105033000D01*
%TO.C,C5*%
X117460022Y-110472222D02*
X118460022Y-110472222D01*
X117460022Y-110972222D02*
X117460022Y-110472222D01*
X118460022Y-110472222D02*
X118460022Y-110972222D01*
X118460022Y-110972222D02*
X117460022Y-110972222D01*
%TO.C,C15*%
X183122500Y-112274400D02*
X184722500Y-112274400D01*
X183122500Y-113074400D02*
X183122500Y-112274400D01*
X184722500Y-112274400D02*
X184722500Y-113074400D01*
X184722500Y-113074400D02*
X183122500Y-113074400D01*
%TO.C,C7*%
X133360022Y-108042022D02*
X133360022Y-109042022D01*
X132860022Y-108042022D02*
X133360022Y-108042022D01*
X133360022Y-109042022D02*
X132860022Y-109042022D01*
X132860022Y-109042022D02*
X132860022Y-108042022D01*
%TO.C,FL1*%
X112550022Y-110122222D02*
X112550022Y-111322222D01*
X110950022Y-110122222D02*
X112550022Y-110122222D01*
X110950022Y-110122222D02*
X110550022Y-110517222D01*
X110550022Y-110517222D02*
X110550022Y-111322222D01*
X110550022Y-111322222D02*
X112550022Y-111322222D01*
%TO.C,C20*%
X156823978Y-113186578D02*
X156823978Y-114186578D01*
X156323978Y-113186578D02*
X156823978Y-113186578D01*
X156823978Y-114186578D02*
X156323978Y-114186578D01*
X156323978Y-114186578D02*
X156323978Y-113186578D01*
%TO.C,C16*%
X184618900Y-108997800D02*
X186218900Y-108997800D01*
X184618900Y-109797800D02*
X184618900Y-108997800D01*
X186218900Y-108997800D02*
X186218900Y-109797800D01*
X186218900Y-109797800D02*
X184618900Y-109797800D01*
%TO.C,U5*%
X162689800Y-100549600D02*
X162689800Y-104299600D01*
X162689800Y-100549600D02*
X159689800Y-100549600D01*
X161939800Y-105049600D02*
X162689800Y-104299600D01*
X159689800Y-105049600D02*
X161939800Y-105049600D01*
X159689800Y-100549600D02*
X159689800Y-105049600D01*
%TO.C,R6*%
X141727122Y-107139022D02*
X141727122Y-108739022D01*
X140902122Y-107139022D02*
X141727122Y-107139022D01*
X141727122Y-108739022D02*
X140902122Y-108739022D01*
X140902122Y-108739022D02*
X140902122Y-107139022D01*
%TO.C,C23*%
X164903778Y-110657378D02*
X165903778Y-110657378D01*
X164903778Y-111157378D02*
X164903778Y-110657378D01*
X165903778Y-110657378D02*
X165903778Y-111157378D01*
X165903778Y-111157378D02*
X164903778Y-111157378D01*
%TO.C,R1*%
X110478222Y-108826622D02*
X111528222Y-108826622D01*
X110478222Y-109366622D02*
X110478222Y-108826622D01*
X111528222Y-108826622D02*
X111528222Y-109366622D01*
X111528222Y-109366622D02*
X110478222Y-109366622D01*
%TO.C,R9*%
X165463278Y-112202378D02*
X165463278Y-113802378D01*
X164638278Y-112202378D02*
X165463278Y-112202378D01*
X165463278Y-113802378D02*
X164638278Y-113802378D01*
X164638278Y-113802378D02*
X164638278Y-112202378D01*
%TO.C,C6*%
X132296022Y-108042022D02*
X132296022Y-109042022D01*
X131796022Y-108042022D02*
X132296022Y-108042022D01*
X132296022Y-109042022D02*
X131796022Y-109042022D01*
X131796022Y-109042022D02*
X131796022Y-108042022D01*
%TO.C,U1*%
X106226422Y-109931222D02*
X106976422Y-109181222D01*
X106226422Y-112181222D02*
X106226422Y-109931222D01*
X106976422Y-109181222D02*
X109226422Y-109181222D01*
X109226422Y-109181222D02*
X109226422Y-112181222D01*
X109226422Y-112181222D02*
X106226422Y-112181222D01*
%TO.C,R8*%
X165463278Y-108012378D02*
X165463278Y-109612378D01*
X164638278Y-108012378D02*
X165463278Y-108012378D01*
X165463278Y-109612378D02*
X164638278Y-109612378D01*
X164638278Y-109612378D02*
X164638278Y-108012378D01*
%TO.C,Y1*%
X168648800Y-101857000D02*
X168548800Y-101957000D01*
X168648800Y-100857000D02*
X168148800Y-100357000D01*
X168648800Y-100457000D02*
X168648800Y-101857000D01*
X168548800Y-101957000D02*
X166748800Y-101957000D01*
X168548800Y-100357000D02*
X168648800Y-100457000D01*
X166748800Y-101957000D02*
X166648800Y-101857000D01*
X166748800Y-100357000D02*
X168548800Y-100357000D01*
X166648800Y-101857000D02*
X166648800Y-100457000D01*
X166648800Y-100457000D02*
X166748800Y-100357000D01*
%TO.C,C19*%
X155807978Y-113158578D02*
X155807978Y-114158578D01*
X155307978Y-113158578D02*
X155807978Y-113158578D01*
X155807978Y-114158578D02*
X155307978Y-114158578D01*
X155307978Y-114158578D02*
X155307978Y-113158578D01*
%TO.C,C17*%
X180657400Y-114065000D02*
X179057400Y-114065000D01*
X180657400Y-113265000D02*
X180657400Y-114065000D01*
X179057400Y-114065000D02*
X179057400Y-113265000D01*
X179057400Y-113265000D02*
X180657400Y-113265000D01*
%TO.C,R5*%
X141777922Y-102821022D02*
X141777922Y-104421022D01*
X140952922Y-102821022D02*
X141777922Y-102821022D01*
X141777922Y-104421022D02*
X140952922Y-104421022D01*
X140952922Y-104421022D02*
X140952922Y-102821022D01*
%TO.C,C14*%
X174232300Y-114217400D02*
X172632300Y-114217400D01*
X174232300Y-113417400D02*
X174232300Y-114217400D01*
X172632300Y-114217400D02*
X172632300Y-113417400D01*
X172632300Y-113417400D02*
X174232300Y-113417400D01*
%TO.C,C22*%
X152491000Y-110613000D02*
X151491000Y-110613000D01*
X152491000Y-110113000D02*
X152491000Y-110613000D01*
X151491000Y-110613000D02*
X151491000Y-110113000D01*
X151491000Y-110113000D02*
X152491000Y-110113000D01*
%TO.C,C12*%
X170275200Y-101693100D02*
X170275200Y-103293100D01*
X169475200Y-101693100D02*
X170275200Y-101693100D01*
X170275200Y-103293100D02*
X169475200Y-103293100D01*
X169475200Y-103293100D02*
X169475200Y-101693100D01*
%TO.C,C3*%
X105049000Y-112314800D02*
X104049000Y-112314800D01*
X105049000Y-111814800D02*
X105049000Y-112314800D01*
X104049000Y-112314800D02*
X104049000Y-111814800D01*
X104049000Y-111814800D02*
X105049000Y-111814800D01*
%TO.C,R2*%
X117570322Y-107878022D02*
X117570322Y-109478022D01*
X116745322Y-107878022D02*
X117570322Y-107878022D01*
X117570322Y-109478022D02*
X116745322Y-109478022D01*
X116745322Y-109478022D02*
X116745322Y-107878022D01*
%TO.C,R3*%
X117570322Y-111942022D02*
X117570322Y-113542022D01*
X116745322Y-111942022D02*
X117570322Y-111942022D01*
X117570322Y-113542022D02*
X116745322Y-113542022D01*
X116745322Y-113542022D02*
X116745322Y-111942022D01*
%TO.C,R7*%
X158207978Y-108844578D02*
X159257978Y-108844578D01*
X158207978Y-109384578D02*
X158207978Y-108844578D01*
X159257978Y-108844578D02*
X159257978Y-109384578D01*
X159257978Y-109384578D02*
X158207978Y-109384578D01*
%TO.C,C4*%
X105049000Y-111298800D02*
X104049000Y-111298800D01*
X105049000Y-110798800D02*
X105049000Y-111298800D01*
X104049000Y-111298800D02*
X104049000Y-110798800D01*
X104049000Y-110798800D02*
X105049000Y-110798800D01*
%TO.C,C10*%
X141053422Y-105546022D02*
X142053422Y-105546022D01*
X141053422Y-106046022D02*
X141053422Y-105546022D01*
X142053422Y-105546022D02*
X142053422Y-106046022D01*
X142053422Y-106046022D02*
X141053422Y-106046022D01*
%TO.C,C18*%
X183432400Y-109334400D02*
X183432400Y-110934400D01*
X182632400Y-109334400D02*
X183432400Y-109334400D01*
X183432400Y-110934400D02*
X182632400Y-110934400D01*
X182632400Y-110934400D02*
X182632400Y-109334400D01*
%TO.C,C13*%
X159270600Y-106800600D02*
X157670600Y-106800600D01*
X159270600Y-106000600D02*
X159270600Y-106800600D01*
X157670600Y-106800600D02*
X157670600Y-106000600D01*
X157670600Y-106000600D02*
X159270600Y-106000600D01*
%TO.C,U7*%
X153803978Y-110153578D02*
X154553978Y-109403578D01*
X153803978Y-112403578D02*
X153803978Y-110153578D01*
X154553978Y-109403578D02*
X156803978Y-109403578D01*
X156803978Y-109403578D02*
X156803978Y-112403578D01*
X156803978Y-112403578D02*
X153803978Y-112403578D01*
%TO.C,C9*%
X128871600Y-106676000D02*
X127871600Y-106676000D01*
X128871600Y-106176000D02*
X128871600Y-106676000D01*
X127871600Y-106676000D02*
X127871600Y-106176000D01*
X127871600Y-106176000D02*
X128871600Y-106176000D01*
%TO.C,R4*%
X133290800Y-103622600D02*
X132240800Y-103622600D01*
X133290800Y-103082600D02*
X133290800Y-103622600D01*
X132240800Y-103622600D02*
X132240800Y-103082600D01*
X132240800Y-103082600D02*
X133290800Y-103082600D01*
%TO.C,C1*%
X108374822Y-112977822D02*
X108374822Y-113977822D01*
X107874822Y-112977822D02*
X108374822Y-112977822D01*
X108374822Y-113977822D02*
X107874822Y-113977822D01*
X107874822Y-113977822D02*
X107874822Y-112977822D01*
%TO.C,FL2*%
X136435022Y-105154622D02*
X136435022Y-106354622D01*
X134835022Y-105154622D02*
X136435022Y-105154622D01*
X134835022Y-105154622D02*
X134435022Y-105549622D01*
X134435022Y-105549622D02*
X134435022Y-106354622D01*
X134435022Y-106354622D02*
X136435022Y-106354622D01*
%TO.C,U3*%
X130160022Y-105005022D02*
X130910022Y-104255022D01*
X130160022Y-107255022D02*
X130160022Y-105005022D01*
X130910022Y-104255022D02*
X133160022Y-104255022D01*
X133160022Y-104255022D02*
X133160022Y-107255022D01*
X133160022Y-107255022D02*
X130160022Y-107255022D01*
%TD*%
M02*
