%TF.GenerationSoftware,KiCad,Pcbnew,7.0.8*%
%TF.CreationDate,2024-02-12T21:11:34+01:00*%
%TF.ProjectId,HatV4,48617456-342e-46b6-9963-61645f706362,V2*%
%TF.SameCoordinates,Original*%
%TF.FileFunction,Drillmap*%
%TF.FilePolarity,Positive*%
%FSLAX45Y45*%
G04 Gerber Fmt 4.5, Leading zero omitted, Abs format (unit mm)*
G04 Created by KiCad (PCBNEW 7.0.8) date 2024-02-12 21:11:34*
%MOMM*%
%LPD*%
G01*
G04 APERTURE LIST*
%ADD10C,0.100000*%
%ADD11C,0.200000*%
%ADD12C,0.020000*%
%ADD13C,0.030000*%
%ADD14C,0.040000*%
%ADD15C,0.050000*%
%ADD16C,0.320000*%
G04 APERTURE END LIST*
D10*
X19001740Y-11711940D02*
X10302240Y-11711940D01*
X18239740Y-9552940D02*
X18239740Y-8917940D01*
X19255740Y-10060940D02*
G75*
G03*
X19001740Y-9806940I-254000J0D01*
G01*
X18239740Y-9552940D02*
G75*
G03*
X18493740Y-9806940I254000J0D01*
G01*
X11381740Y-8663940D02*
X11381740Y-8663940D01*
X19255740Y-10060940D02*
X19255740Y-11457940D01*
X10746740Y-9806940D02*
X10873740Y-9806940D01*
X19001740Y-11711940D02*
G75*
G03*
X19255740Y-11457940I0J254000D01*
G01*
X10302240Y-9806940D02*
G75*
G03*
X10048240Y-10060940I0J-254000D01*
G01*
X10048240Y-11457940D02*
X10048240Y-10060940D01*
X17985740Y-8663940D02*
X11381740Y-8663940D01*
X10302240Y-9806940D02*
X10746740Y-9806940D01*
X18493740Y-9806940D02*
X19001740Y-9806940D01*
X11381740Y-8663940D02*
G75*
G03*
X11127740Y-8917940I0J-254000D01*
G01*
X10873740Y-9806940D02*
G75*
G03*
X11127740Y-9552940I0J254000D01*
G01*
X10048240Y-11457940D02*
G75*
G03*
X10302240Y-11711940I254000J0D01*
G01*
X18239740Y-8917940D02*
G75*
G03*
X17985740Y-8663940I-254000J0D01*
G01*
X11127740Y-9552940D02*
X11127740Y-8917940D01*
D11*
D12*
X10712642Y-11058122D02*
X10732642Y-11078122D01*
X10732642Y-11058122D02*
X10712642Y-11078122D01*
X10762642Y-10968122D02*
X10782642Y-10988122D01*
X10782642Y-10968122D02*
X10762642Y-10988122D01*
X10762642Y-11148122D02*
X10782642Y-11168122D01*
X10782642Y-11148122D02*
X10762642Y-11168122D01*
X10812642Y-11058122D02*
X10832642Y-11078122D01*
X10832642Y-11058122D02*
X10812642Y-11078122D01*
X13106002Y-10565502D02*
X13126002Y-10585502D01*
X13126002Y-10565502D02*
X13106002Y-10585502D01*
X13156002Y-10475502D02*
X13176002Y-10495502D01*
X13176002Y-10475502D02*
X13156002Y-10495502D01*
X13156002Y-10655502D02*
X13176002Y-10675502D01*
X13176002Y-10655502D02*
X13156002Y-10675502D01*
X13206002Y-10565502D02*
X13226002Y-10585502D01*
X13226002Y-10565502D02*
X13206002Y-10585502D01*
X15470398Y-11080358D02*
X15490398Y-11100358D01*
X15490398Y-11080358D02*
X15470398Y-11100358D01*
X15520398Y-10990358D02*
X15540398Y-11010358D01*
X15540398Y-10990358D02*
X15520398Y-11010358D01*
X15520398Y-11170358D02*
X15540398Y-11190358D01*
X15540398Y-11170358D02*
X15520398Y-11190358D01*
X15570398Y-11080358D02*
X15590398Y-11100358D01*
X15590398Y-11080358D02*
X15570398Y-11100358D01*
D13*
X10279140Y-10734040D02*
G75*
G03*
X10279140Y-10734040I-15000J0D01*
G01*
X11259580Y-10904220D02*
G75*
G03*
X11259580Y-10904220I-15000J0D01*
G01*
X11282440Y-9705340D02*
G75*
G03*
X11282440Y-9705340I-15000J0D01*
G01*
X11396740Y-10848340D02*
G75*
G03*
X11396740Y-10848340I-15000J0D01*
G01*
X11409440Y-11254740D02*
G75*
G03*
X11409440Y-11254740I-15000J0D01*
G01*
X11485640Y-10695940D02*
G75*
G03*
X11485640Y-10695940I-15000J0D01*
G01*
X11523740Y-11356340D02*
G75*
G03*
X11523740Y-11356340I-15000J0D01*
G01*
X11536623Y-10520427D02*
G75*
G03*
X11536623Y-10520427I-15000J0D01*
G01*
X11615654Y-10102054D02*
G75*
G03*
X11615654Y-10102054I-15000J0D01*
G01*
X11663440Y-9705340D02*
G75*
G03*
X11663440Y-9705340I-15000J0D01*
G01*
X11663440Y-10505440D02*
G75*
G03*
X11663440Y-10505440I-15000J0D01*
G01*
X11688840Y-11381740D02*
G75*
G03*
X11688840Y-11381740I-15000J0D01*
G01*
X11828540Y-10543540D02*
G75*
G03*
X11828540Y-10543540I-15000J0D01*
G01*
X11853940Y-11318240D02*
G75*
G03*
X11853940Y-11318240I-15000J0D01*
G01*
X11866640Y-11072222D02*
G75*
G03*
X11866640Y-11072222I-15000J0D01*
G01*
X11879340Y-10822940D02*
G75*
G03*
X11879340Y-10822940I-15000J0D01*
G01*
X11980940Y-10924540D02*
G75*
G03*
X11980940Y-10924540I-15000J0D01*
G01*
X11993640Y-10607040D02*
G75*
G03*
X11993640Y-10607040I-15000J0D01*
G01*
X12006340Y-11178540D02*
G75*
G03*
X12006340Y-11178540I-15000J0D01*
G01*
X12107940Y-10784840D02*
G75*
G03*
X12107940Y-10784840I-15000J0D01*
G01*
X12133340Y-10607040D02*
G75*
G03*
X12133340Y-10607040I-15000J0D01*
G01*
X12133340Y-10975340D02*
G75*
G03*
X12133340Y-10975340I-15000J0D01*
G01*
X12184140Y-11165840D02*
G75*
G03*
X12184140Y-11165840I-15000J0D01*
G01*
X12260340Y-10797540D02*
G75*
G03*
X12260340Y-10797540I-15000J0D01*
G01*
X12273040Y-10581640D02*
G75*
G03*
X12273040Y-10581640I-15000J0D01*
G01*
X12311140Y-10975340D02*
G75*
G03*
X12311140Y-10975340I-15000J0D01*
G01*
X12349240Y-11254740D02*
G75*
G03*
X12349240Y-11254740I-15000J0D01*
G01*
X12412740Y-10530840D02*
G75*
G03*
X12412740Y-10530840I-15000J0D01*
G01*
X12412740Y-10848340D02*
G75*
G03*
X12412740Y-10848340I-15000J0D01*
G01*
X12450840Y-11038840D02*
G75*
G03*
X12450840Y-11038840I-15000J0D01*
G01*
X12463540Y-11356340D02*
G75*
G03*
X12463540Y-11356340I-15000J0D01*
G01*
X12539740Y-10513060D02*
G75*
G03*
X12539740Y-10513060I-15000J0D01*
G01*
X12552440Y-9806940D02*
G75*
G03*
X12552440Y-9806940I-15000J0D01*
G01*
X12600282Y-11178122D02*
G75*
G03*
X12600282Y-11178122I-15000J0D01*
G01*
X12615940Y-11402060D02*
G75*
G03*
X12615940Y-11402060I-15000J0D01*
G01*
X12679440Y-10515600D02*
G75*
G03*
X12679440Y-10515600I-15000J0D01*
G01*
X12755640Y-11457940D02*
G75*
G03*
X12755640Y-11457940I-15000J0D01*
G01*
X12793740Y-10162540D02*
G75*
G03*
X12793740Y-10162540I-15000J0D01*
G01*
X12915781Y-10729052D02*
G75*
G03*
X12915781Y-10729052I-15000J0D01*
G01*
X12938520Y-11496040D02*
G75*
G03*
X12938520Y-11496040I-15000J0D01*
G01*
X12958840Y-9654540D02*
G75*
G03*
X12958840Y-9654540I-15000J0D01*
G01*
X12958840Y-9832340D02*
G75*
G03*
X12958840Y-9832340I-15000J0D01*
G01*
X12958840Y-11000740D02*
G75*
G03*
X12958840Y-11000740I-15000J0D01*
G01*
X12974182Y-10873740D02*
G75*
G03*
X12974182Y-10873740I-15000J0D01*
G01*
X13073140Y-11089640D02*
G75*
G03*
X13073140Y-11089640I-15000J0D01*
G01*
X13136640Y-11496040D02*
G75*
G03*
X13136640Y-11496040I-15000J0D01*
G01*
X13200140Y-11127740D02*
G75*
G03*
X13200140Y-11127740I-15000J0D01*
G01*
X13212840Y-9654540D02*
G75*
G03*
X13212840Y-9654540I-15000J0D01*
G01*
X13212840Y-10010140D02*
G75*
G03*
X13212840Y-10010140I-15000J0D01*
G01*
X13275993Y-11494381D02*
G75*
G03*
X13275993Y-11494381I-15000J0D01*
G01*
X13306820Y-11295380D02*
G75*
G03*
X13306820Y-11295380I-15000J0D01*
G01*
X13319520Y-11094720D02*
G75*
G03*
X13319520Y-11094720I-15000J0D01*
G01*
X13408420Y-11468100D02*
G75*
G03*
X13408420Y-11468100I-15000J0D01*
G01*
X13428740Y-11165840D02*
G75*
G03*
X13428740Y-11165840I-15000J0D01*
G01*
X13454140Y-10721340D02*
G75*
G03*
X13454140Y-10721340I-15000J0D01*
G01*
X13695440Y-10734040D02*
G75*
G03*
X13695440Y-10734040I-15000J0D01*
G01*
X13720840Y-11153140D02*
G75*
G03*
X13720840Y-11153140I-15000J0D01*
G01*
X13797040Y-10340340D02*
G75*
G03*
X13797040Y-10340340I-15000J0D01*
G01*
X13822440Y-10848340D02*
G75*
G03*
X13822440Y-10848340I-15000J0D01*
G01*
X13885940Y-11026140D02*
G75*
G03*
X13885940Y-11026140I-15000J0D01*
G01*
X13949440Y-10289540D02*
G75*
G03*
X13949440Y-10289540I-15000J0D01*
G01*
X14000240Y-9908540D02*
G75*
G03*
X14000240Y-9908540I-15000J0D01*
G01*
X14101840Y-10289540D02*
G75*
G03*
X14101840Y-10289540I-15000J0D01*
G01*
X14200134Y-9906093D02*
G75*
G03*
X14200134Y-9906093I-15000J0D01*
G01*
X14203440Y-9730740D02*
G75*
G03*
X14203440Y-9730740I-15000J0D01*
G01*
X14203440Y-10162540D02*
G75*
G03*
X14203440Y-10162540I-15000J0D01*
G01*
X14254240Y-10924540D02*
G75*
G03*
X14254240Y-10924540I-15000J0D01*
G01*
X14355840Y-10187940D02*
G75*
G03*
X14355840Y-10187940I-15000J0D01*
G01*
X14355840Y-10797540D02*
G75*
G03*
X14355840Y-10797540I-15000J0D01*
G01*
X14508240Y-10787380D02*
G75*
G03*
X14508240Y-10787380I-15000J0D01*
G01*
X14559040Y-9730740D02*
G75*
G03*
X14559040Y-9730740I-15000J0D01*
G01*
X14559040Y-9908540D02*
G75*
G03*
X14559040Y-9908540I-15000J0D01*
G01*
X14647940Y-10784840D02*
G75*
G03*
X14647940Y-10784840I-15000J0D01*
G01*
X14774940Y-10332720D02*
G75*
G03*
X14774940Y-10332720I-15000J0D01*
G01*
X14787640Y-10861040D02*
G75*
G03*
X14787640Y-10861040I-15000J0D01*
G01*
X14896860Y-10518140D02*
G75*
G03*
X14896860Y-10518140I-15000J0D01*
G01*
X14914640Y-10060940D02*
G75*
G03*
X14914640Y-10060940I-15000J0D01*
G01*
X14940040Y-10264140D02*
G75*
G03*
X14940040Y-10264140I-15000J0D01*
G01*
X15092440Y-9984740D02*
G75*
G03*
X15092440Y-9984740I-15000J0D01*
G01*
X15105140Y-10276840D02*
G75*
G03*
X15105140Y-10276840I-15000J0D01*
G01*
X15199120Y-10825480D02*
G75*
G03*
X15199120Y-10825480I-15000J0D01*
G01*
X15232140Y-10695940D02*
G75*
G03*
X15232140Y-10695940I-15000J0D01*
G01*
X15244840Y-9984740D02*
G75*
G03*
X15244840Y-9984740I-15000J0D01*
G01*
X15244840Y-10162540D02*
G75*
G03*
X15244840Y-10162540I-15000J0D01*
G01*
X15295640Y-9552940D02*
G75*
G03*
X15295640Y-9552940I-15000J0D01*
G01*
X15361680Y-10604500D02*
G75*
G03*
X15361680Y-10604500I-15000J0D01*
G01*
X15397240Y-11457940D02*
G75*
G03*
X15397240Y-11457940I-15000J0D01*
G01*
X15422640Y-10190480D02*
G75*
G03*
X15422640Y-10190480I-15000J0D01*
G01*
X15498840Y-9603740D02*
G75*
G03*
X15498840Y-9603740I-15000J0D01*
G01*
X15511540Y-10607040D02*
G75*
G03*
X15511540Y-10607040I-15000J0D01*
G01*
X15524240Y-9959340D02*
G75*
G03*
X15524240Y-9959340I-15000J0D01*
G01*
X15575040Y-10186850D02*
G75*
G03*
X15575040Y-10186850I-15000J0D01*
G01*
X15625840Y-10530840D02*
G75*
G03*
X15625840Y-10530840I-15000J0D01*
G01*
X15636000Y-10292080D02*
G75*
G03*
X15636000Y-10292080I-15000J0D01*
G01*
X15636000Y-10391140D02*
G75*
G03*
X15636000Y-10391140I-15000J0D01*
G01*
X15841540Y-9832340D02*
G75*
G03*
X15841540Y-9832340I-15000J0D01*
G01*
X16108440Y-10949940D02*
G75*
G03*
X16108440Y-10949940I-15000J0D01*
G01*
X16147748Y-11280759D02*
G75*
G03*
X16147748Y-11280759I-15000J0D01*
G01*
X16184640Y-10848340D02*
G75*
G03*
X16184640Y-10848340I-15000J0D01*
G01*
X16235440Y-10721340D02*
G75*
G03*
X16235440Y-10721340I-15000J0D01*
G01*
X16243060Y-10589260D02*
G75*
G03*
X16243060Y-10589260I-15000J0D01*
G01*
X16286240Y-11381740D02*
G75*
G03*
X16286240Y-11381740I-15000J0D01*
G01*
X16398000Y-10507980D02*
G75*
G03*
X16398000Y-10507980I-15000J0D01*
G01*
X16438640Y-11407140D02*
G75*
G03*
X16438640Y-11407140I-15000J0D01*
G01*
X16494520Y-10505440D02*
G75*
G03*
X16494520Y-10505440I-15000J0D01*
G01*
X16588500Y-10513060D02*
G75*
G03*
X16588500Y-10513060I-15000J0D01*
G01*
X16616440Y-10822940D02*
G75*
G03*
X16616440Y-10822940I-15000J0D01*
G01*
X16616440Y-11305540D02*
G75*
G03*
X16616440Y-11305540I-15000J0D01*
G01*
X16616440Y-11457940D02*
G75*
G03*
X16616440Y-11457940I-15000J0D01*
G01*
X16667240Y-10949940D02*
G75*
G03*
X16667240Y-10949940I-15000J0D01*
G01*
X16705340Y-10586720D02*
G75*
G03*
X16705340Y-10586720I-15000J0D01*
G01*
X16743440Y-11156490D02*
G75*
G03*
X16743440Y-11156490I-15000J0D01*
G01*
X16794240Y-10975340D02*
G75*
G03*
X16794240Y-10975340I-15000J0D01*
G01*
X16852660Y-10586720D02*
G75*
G03*
X16852660Y-10586720I-15000J0D01*
G01*
X16921240Y-10873740D02*
G75*
G03*
X16921240Y-10873740I-15000J0D01*
G01*
X16921240Y-11156490D02*
G75*
G03*
X16921240Y-11156490I-15000J0D01*
G01*
X17048240Y-10556240D02*
G75*
G03*
X17048240Y-10556240I-15000J0D01*
G01*
X17048240Y-10772140D02*
G75*
G03*
X17048240Y-10772140I-15000J0D01*
G01*
X17048240Y-11127740D02*
G75*
G03*
X17048240Y-11127740I-15000J0D01*
G01*
X17111740Y-11407140D02*
G75*
G03*
X17111740Y-11407140I-15000J0D01*
G01*
X17175240Y-11026140D02*
G75*
G03*
X17175240Y-11026140I-15000J0D01*
G01*
X17200640Y-10276840D02*
G75*
G03*
X17200640Y-10276840I-15000J0D01*
G01*
X17220960Y-10838180D02*
G75*
G03*
X17220960Y-10838180I-15000J0D01*
G01*
X17276840Y-10492740D02*
G75*
G03*
X17276840Y-10492740I-15000J0D01*
G01*
X17365740Y-11173460D02*
G75*
G03*
X17365740Y-11173460I-15000J0D01*
G01*
X17378440Y-10264140D02*
G75*
G03*
X17378440Y-10264140I-15000J0D01*
G01*
X17454640Y-10492740D02*
G75*
G03*
X17454640Y-10492740I-15000J0D01*
G01*
X17530840Y-10200640D02*
G75*
G03*
X17530840Y-10200640I-15000J0D01*
G01*
X17670540Y-10695940D02*
G75*
G03*
X17670540Y-10695940I-15000J0D01*
G01*
X17683240Y-10187940D02*
G75*
G03*
X17683240Y-10187940I-15000J0D01*
G01*
X17683240Y-11015980D02*
G75*
G03*
X17683240Y-11015980I-15000J0D01*
G01*
X17688320Y-10835640D02*
G75*
G03*
X17688320Y-10835640I-15000J0D01*
G01*
X17688320Y-11209020D02*
G75*
G03*
X17688320Y-11209020I-15000J0D01*
G01*
X17772140Y-10581640D02*
G75*
G03*
X17772140Y-10581640I-15000J0D01*
G01*
X17800080Y-11115040D02*
G75*
G03*
X17800080Y-11115040I-15000J0D01*
G01*
X17802620Y-10919460D02*
G75*
G03*
X17802620Y-10919460I-15000J0D01*
G01*
X17861040Y-10175240D02*
G75*
G03*
X17861040Y-10175240I-15000J0D01*
G01*
X17914380Y-11206480D02*
G75*
G03*
X17914380Y-11206480I-15000J0D01*
G01*
X17916920Y-10835640D02*
G75*
G03*
X17916920Y-10835640I-15000J0D01*
G01*
X17916920Y-11015980D02*
G75*
G03*
X17916920Y-11015980I-15000J0D01*
G01*
X17937240Y-10584180D02*
G75*
G03*
X17937240Y-10584180I-15000J0D01*
G01*
X18038840Y-10187940D02*
G75*
G03*
X18038840Y-10187940I-15000J0D01*
G01*
X18089640Y-10556240D02*
G75*
G03*
X18089640Y-10556240I-15000J0D01*
G01*
X18767820Y-10942320D02*
G75*
G03*
X18767820Y-10942320I-15000J0D01*
G01*
X18826240Y-11648440D02*
G75*
G03*
X18826240Y-11648440I-15000J0D01*
G01*
D14*
X10165080Y-10790240D02*
X10165080Y-10830240D01*
X10145080Y-10810240D02*
X10185080Y-10810240D01*
X10195560Y-9931720D02*
X10195560Y-9971720D01*
X10175560Y-9951720D02*
X10215560Y-9951720D01*
X10403840Y-11293160D02*
X10403840Y-11333160D01*
X10383840Y-11313160D02*
X10423840Y-11313160D01*
X10530840Y-9868220D02*
X10530840Y-9908220D01*
X10510840Y-9888220D02*
X10550840Y-9888220D01*
X10594340Y-11463340D02*
X10594340Y-11503340D01*
X10574340Y-11483340D02*
X10614340Y-11483340D01*
X10861040Y-9888540D02*
X10861040Y-9928540D01*
X10841040Y-9908540D02*
X10881040Y-9908540D01*
X11262360Y-10046020D02*
X11262360Y-10086020D01*
X11242360Y-10066020D02*
X11282360Y-10066020D01*
X11522945Y-10166905D02*
X11522945Y-10206905D01*
X11502945Y-10186905D02*
X11542945Y-10186905D01*
X12537440Y-9659940D02*
X12537440Y-9699940D01*
X12517440Y-9679940D02*
X12557440Y-9679940D01*
X12687300Y-10226360D02*
X12687300Y-10266360D01*
X12667300Y-10246360D02*
X12707300Y-10246360D01*
X12687300Y-10376220D02*
X12687300Y-10416220D01*
X12667300Y-10396220D02*
X12707300Y-10396220D01*
X12778740Y-10421940D02*
X12778740Y-10461940D01*
X12758740Y-10441940D02*
X12798740Y-10441940D01*
X12890500Y-10368070D02*
X12890500Y-10408070D01*
X12870500Y-10388070D02*
X12910500Y-10388070D01*
X12893040Y-10104440D02*
X12893040Y-10144440D01*
X12873040Y-10124440D02*
X12913040Y-10124440D01*
X13111480Y-10051100D02*
X13111480Y-10091100D01*
X13091480Y-10071100D02*
X13131480Y-10071100D01*
X13285642Y-11175222D02*
X13285642Y-11215222D01*
X13265642Y-11195222D02*
X13305642Y-11195222D01*
X13295802Y-11386042D02*
X13295802Y-11426042D01*
X13275802Y-11406042D02*
X13315802Y-11406042D01*
X13413740Y-9469440D02*
X13413740Y-9509440D01*
X13393740Y-9489440D02*
X13433740Y-9489440D01*
X13477240Y-10828340D02*
X13477240Y-10868340D01*
X13457240Y-10848340D02*
X13497240Y-10848340D01*
X13545820Y-11125520D02*
X13545820Y-11165520D01*
X13525820Y-11145520D02*
X13565820Y-11145520D01*
X13627100Y-11062020D02*
X13627100Y-11102020D01*
X13607100Y-11082020D02*
X13647100Y-11082020D01*
X13655040Y-9837740D02*
X13655040Y-9877740D01*
X13635040Y-9857740D02*
X13675040Y-9857740D01*
X14061440Y-11183940D02*
X14061440Y-11223940D01*
X14041440Y-11203940D02*
X14081440Y-11203940D01*
X14086840Y-11336340D02*
X14086840Y-11376340D01*
X14066840Y-11356340D02*
X14106840Y-11356340D01*
X14175740Y-8897940D02*
X14175740Y-8937940D01*
X14155740Y-8917940D02*
X14195740Y-8917940D01*
X14226540Y-11049320D02*
X14226540Y-11089320D01*
X14206540Y-11069320D02*
X14246540Y-11069320D01*
X14277340Y-10561640D02*
X14277340Y-10601640D01*
X14257340Y-10581640D02*
X14297340Y-10581640D01*
X14429740Y-9405940D02*
X14429740Y-9445940D01*
X14409740Y-9425940D02*
X14449740Y-9425940D01*
X14429740Y-10962960D02*
X14429740Y-11002960D01*
X14409740Y-10982960D02*
X14449740Y-10982960D01*
X14429740Y-11105200D02*
X14429740Y-11145200D01*
X14409740Y-11125200D02*
X14449740Y-11125200D01*
X14569440Y-9532940D02*
X14569440Y-9572940D01*
X14549440Y-9552940D02*
X14589440Y-9552940D01*
X14620240Y-11102660D02*
X14620240Y-11142660D01*
X14600240Y-11122660D02*
X14640240Y-11122660D01*
X14625320Y-10957880D02*
X14625320Y-10997880D01*
X14605320Y-10977880D02*
X14645320Y-10977880D01*
X14798040Y-11018840D02*
X14798040Y-11058840D01*
X14778040Y-11038840D02*
X14818040Y-11038840D01*
X14808200Y-11346500D02*
X14808200Y-11386500D01*
X14788200Y-11366500D02*
X14828200Y-11366500D01*
X14813280Y-11211880D02*
X14813280Y-11251880D01*
X14793280Y-11231880D02*
X14833280Y-11231880D01*
X14965680Y-11216960D02*
X14965680Y-11256960D01*
X14945680Y-11236960D02*
X14985680Y-11236960D01*
X14965680Y-11354120D02*
X14965680Y-11394120D01*
X14945680Y-11374120D02*
X14985680Y-11374120D01*
X15077440Y-9532940D02*
X15077440Y-9572940D01*
X15057440Y-9552940D02*
X15097440Y-9552940D01*
X15242540Y-11439750D02*
X15242540Y-11479750D01*
X15222540Y-11459750D02*
X15262540Y-11459750D01*
X15255240Y-9723440D02*
X15255240Y-9763440D01*
X15235240Y-9743440D02*
X15275240Y-9743440D01*
X15255240Y-9850440D02*
X15255240Y-9890440D01*
X15235240Y-9870440D02*
X15275240Y-9870440D01*
X15257780Y-11224580D02*
X15257780Y-11264580D01*
X15237780Y-11244580D02*
X15277780Y-11244580D01*
X15382240Y-9977440D02*
X15382240Y-10017440D01*
X15362240Y-9997440D02*
X15402240Y-9997440D01*
X15514320Y-10274620D02*
X15514320Y-10314620D01*
X15494320Y-10294620D02*
X15534320Y-10294620D01*
X15516860Y-10459570D02*
X15516860Y-10499570D01*
X15496860Y-10479570D02*
X15536860Y-10479570D01*
X15560040Y-10031950D02*
X15560040Y-10071950D01*
X15540040Y-10051950D02*
X15580040Y-10051950D01*
X15572740Y-9532940D02*
X15572740Y-9572940D01*
X15552740Y-9552940D02*
X15592740Y-9552940D01*
X15610840Y-10625140D02*
X15610840Y-10665140D01*
X15590840Y-10645140D02*
X15630840Y-10645140D01*
X15731590Y-9812340D02*
X15731590Y-9852340D01*
X15711590Y-9832340D02*
X15751590Y-9832340D01*
X15736125Y-11439750D02*
X15736125Y-11479750D01*
X15716125Y-11459750D02*
X15756125Y-11459750D01*
X15770860Y-10493060D02*
X15770860Y-10533060D01*
X15750860Y-10513060D02*
X15790860Y-10513060D01*
X16075660Y-10604820D02*
X16075660Y-10644820D01*
X16055660Y-10624820D02*
X16095660Y-10624820D01*
X16207740Y-8890890D02*
X16207740Y-8930890D01*
X16187740Y-8910890D02*
X16227740Y-8910890D01*
X16410940Y-10388920D02*
X16410940Y-10428920D01*
X16390940Y-10408920D02*
X16430940Y-10408920D01*
X16502380Y-10152700D02*
X16502380Y-10192700D01*
X16482380Y-10172700D02*
X16522380Y-10172700D01*
X16516039Y-10397794D02*
X16516039Y-10437794D01*
X16496039Y-10417794D02*
X16536039Y-10417794D01*
X16591983Y-11072883D02*
X16591983Y-11112883D01*
X16571983Y-11092883D02*
X16611983Y-11092883D01*
X16719305Y-11451348D02*
X16719305Y-11491348D01*
X16699305Y-11471348D02*
X16739305Y-11471348D01*
X16840200Y-10478088D02*
X16840200Y-10518088D01*
X16820200Y-10498088D02*
X16860200Y-10498088D01*
X17026787Y-11451344D02*
X17026787Y-11491344D01*
X17006787Y-11471344D02*
X17046787Y-11471344D01*
X17129760Y-9916480D02*
X17129760Y-9956480D01*
X17109760Y-9936480D02*
X17149760Y-9936480D01*
X17134840Y-9659940D02*
X17134840Y-9699940D01*
X17114840Y-9679940D02*
X17154840Y-9679940D01*
X17249140Y-9482140D02*
X17249140Y-9522140D01*
X17229140Y-9502140D02*
X17269140Y-9502140D01*
X17363440Y-9659940D02*
X17363440Y-9699940D01*
X17343440Y-9679940D02*
X17383440Y-9679940D01*
X17363440Y-9913940D02*
X17363440Y-9953940D01*
X17343440Y-9933940D02*
X17383440Y-9933940D01*
X17559020Y-11364280D02*
X17559020Y-11404280D01*
X17539020Y-11384280D02*
X17579020Y-11384280D01*
X17590097Y-9909650D02*
X17590097Y-9949650D01*
X17570097Y-9929650D02*
X17610097Y-9929650D01*
X17592040Y-9659940D02*
X17592040Y-9699940D01*
X17572040Y-9679940D02*
X17612040Y-9679940D01*
X17668240Y-11412540D02*
X17668240Y-11452540D01*
X17648240Y-11432540D02*
X17688240Y-11432540D01*
X17719040Y-10007920D02*
X17719040Y-10047920D01*
X17699040Y-10027920D02*
X17739040Y-10027920D01*
X17757140Y-10360980D02*
X17757140Y-10400980D01*
X17737140Y-10380980D02*
X17777140Y-10380980D01*
X17767300Y-11359200D02*
X17767300Y-11399200D01*
X17747300Y-11379200D02*
X17787300Y-11379200D01*
X17922240Y-9659940D02*
X17922240Y-9699940D01*
X17902240Y-9679940D02*
X17942240Y-9679940D01*
X17947640Y-9863140D02*
X17947640Y-9903140D01*
X17927640Y-9883140D02*
X17967640Y-9883140D01*
X18044839Y-10307119D02*
X18044839Y-10347119D01*
X18024839Y-10327119D02*
X18064839Y-10327119D01*
X18044839Y-10407119D02*
X18044839Y-10447119D01*
X18024839Y-10427119D02*
X18064839Y-10427119D01*
X18227040Y-11374440D02*
X18227040Y-11414440D01*
X18207040Y-11394440D02*
X18247040Y-11394440D01*
X18592940Y-11537140D02*
X18592940Y-11577140D01*
X18572940Y-11557140D02*
X18612940Y-11557140D01*
X18712180Y-11529380D02*
X18712180Y-11569380D01*
X18692180Y-11549380D02*
X18732180Y-11549380D01*
X18912840Y-11539540D02*
X18912840Y-11579540D01*
X18892840Y-11559540D02*
X18932840Y-11559540D01*
X18958560Y-10536240D02*
X18958560Y-10576240D01*
X18938560Y-10556240D02*
X18978560Y-10556240D01*
X18958560Y-10660700D02*
X18958560Y-10700700D01*
X18938560Y-10680700D02*
X18978560Y-10680700D01*
X18963640Y-9913940D02*
X18963640Y-9953940D01*
X18943640Y-9933940D02*
X18983640Y-9933940D01*
X19116040Y-10066340D02*
X19116040Y-10106340D01*
X19096040Y-10086340D02*
X19136040Y-10086340D01*
X19146520Y-10292400D02*
X19146520Y-10332400D01*
X19126520Y-10312400D02*
X19166520Y-10312400D01*
X19159220Y-10571800D02*
X19159220Y-10611800D01*
X19139220Y-10591800D02*
X19179220Y-10591800D01*
D15*
X10315722Y-10410058D02*
X10315722Y-10374702D01*
X10280366Y-10374702D01*
X10280366Y-10410058D01*
X10315722Y-10410058D01*
X10386016Y-10240352D02*
X10386016Y-10204997D01*
X10350660Y-10204997D01*
X10350660Y-10240352D01*
X10386016Y-10240352D01*
X10386016Y-10579763D02*
X10386016Y-10544408D01*
X10350660Y-10544408D01*
X10350660Y-10579763D01*
X10386016Y-10579763D01*
X10555722Y-10170058D02*
X10555722Y-10134702D01*
X10520366Y-10134702D01*
X10520366Y-10170058D01*
X10555722Y-10170058D01*
X10555722Y-10650058D02*
X10555722Y-10614702D01*
X10520366Y-10614702D01*
X10520366Y-10650058D01*
X10555722Y-10650058D01*
X10725427Y-10240352D02*
X10725427Y-10204997D01*
X10690072Y-10204997D01*
X10690072Y-10240352D01*
X10725427Y-10240352D01*
X10725427Y-10579763D02*
X10725427Y-10544408D01*
X10690072Y-10544408D01*
X10690072Y-10579763D01*
X10725427Y-10579763D01*
X10795722Y-10410058D02*
X10795722Y-10374702D01*
X10760366Y-10374702D01*
X10760366Y-10410058D01*
X10795722Y-10410058D01*
X18215622Y-10411274D02*
X18215622Y-10375918D01*
X18180266Y-10375918D01*
X18180266Y-10411274D01*
X18215622Y-10411274D01*
X18285916Y-10241568D02*
X18285916Y-10206213D01*
X18250560Y-10206213D01*
X18250560Y-10241568D01*
X18285916Y-10241568D01*
X18285916Y-10580980D02*
X18285916Y-10545624D01*
X18250560Y-10545624D01*
X18250560Y-10580980D01*
X18285916Y-10580980D01*
X18455622Y-10171274D02*
X18455622Y-10135918D01*
X18420266Y-10135918D01*
X18420266Y-10171274D01*
X18455622Y-10171274D01*
X18455622Y-10651274D02*
X18455622Y-10615918D01*
X18420266Y-10615918D01*
X18420266Y-10651274D01*
X18455622Y-10651274D01*
X18625327Y-10241568D02*
X18625327Y-10206213D01*
X18589972Y-10206213D01*
X18589972Y-10241568D01*
X18625327Y-10241568D01*
X18625327Y-10580980D02*
X18625327Y-10545624D01*
X18589972Y-10545624D01*
X18589972Y-10580980D01*
X18625327Y-10580980D01*
X18695622Y-10411274D02*
X18695622Y-10375918D01*
X18660266Y-10375918D01*
X18660266Y-10411274D01*
X18695622Y-10411274D01*
D10*
X11508740Y-9089860D02*
X11558740Y-9039860D01*
X11508740Y-8989860D01*
X11458740Y-9039860D01*
X11508740Y-9089860D01*
X11508740Y-9343860D02*
X11558740Y-9293860D01*
X11508740Y-9243860D01*
X11458740Y-9293860D01*
X11508740Y-9343860D01*
X11762740Y-9089860D02*
X11812740Y-9039860D01*
X11762740Y-8989860D01*
X11712740Y-9039860D01*
X11762740Y-9089860D01*
X11762740Y-9343860D02*
X11812740Y-9293860D01*
X11762740Y-9243860D01*
X11712740Y-9293860D01*
X11762740Y-9343860D01*
X12016740Y-9089860D02*
X12066740Y-9039860D01*
X12016740Y-8989860D01*
X11966740Y-9039860D01*
X12016740Y-9089860D01*
X12016740Y-9343860D02*
X12066740Y-9293860D01*
X12016740Y-9243860D01*
X11966740Y-9293860D01*
X12016740Y-9343860D01*
X12270740Y-9089860D02*
X12320740Y-9039860D01*
X12270740Y-8989860D01*
X12220740Y-9039860D01*
X12270740Y-9089860D01*
X12270740Y-9343860D02*
X12320740Y-9293860D01*
X12270740Y-9243860D01*
X12220740Y-9293860D01*
X12270740Y-9343860D01*
X13022580Y-9082240D02*
X13072580Y-9032240D01*
X13022580Y-8982240D01*
X12972580Y-9032240D01*
X13022580Y-9082240D01*
X13022580Y-9336240D02*
X13072580Y-9286240D01*
X13022580Y-9236240D01*
X12972580Y-9286240D01*
X13022580Y-9336240D01*
X13276580Y-9082240D02*
X13326580Y-9032240D01*
X13276580Y-8982240D01*
X13226580Y-9032240D01*
X13276580Y-9082240D01*
X13276580Y-9336240D02*
X13326580Y-9286240D01*
X13276580Y-9236240D01*
X13226580Y-9286240D01*
X13276580Y-9336240D01*
X13530580Y-9082240D02*
X13580580Y-9032240D01*
X13530580Y-8982240D01*
X13480580Y-9032240D01*
X13530580Y-9082240D01*
X13530580Y-9336240D02*
X13580580Y-9286240D01*
X13530580Y-9236240D01*
X13480580Y-9286240D01*
X13530580Y-9336240D01*
X13784580Y-9082240D02*
X13834580Y-9032240D01*
X13784580Y-8982240D01*
X13734580Y-9032240D01*
X13784580Y-9082240D01*
X13784580Y-9336240D02*
X13834580Y-9286240D01*
X13784580Y-9236240D01*
X13734580Y-9286240D01*
X13784580Y-9336240D01*
X14038580Y-9082240D02*
X14088580Y-9032240D01*
X14038580Y-8982240D01*
X13988580Y-9032240D01*
X14038580Y-9082240D01*
X14038580Y-9336240D02*
X14088580Y-9286240D01*
X14038580Y-9236240D01*
X13988580Y-9286240D01*
X14038580Y-9336240D01*
X14292580Y-9082240D02*
X14342580Y-9032240D01*
X14292580Y-8982240D01*
X14242580Y-9032240D01*
X14292580Y-9082240D01*
X14292580Y-9336240D02*
X14342580Y-9286240D01*
X14292580Y-9236240D01*
X14242580Y-9286240D01*
X14292580Y-9336240D01*
X14546580Y-9082240D02*
X14596580Y-9032240D01*
X14546580Y-8982240D01*
X14496580Y-9032240D01*
X14546580Y-9082240D01*
X14546580Y-9336240D02*
X14596580Y-9286240D01*
X14546580Y-9236240D01*
X14496580Y-9286240D01*
X14546580Y-9336240D01*
X14800580Y-9082240D02*
X14850580Y-9032240D01*
X14800580Y-8982240D01*
X14750580Y-9032240D01*
X14800580Y-9082240D01*
X14800580Y-9336240D02*
X14850580Y-9286240D01*
X14800580Y-9236240D01*
X14750580Y-9286240D01*
X14800580Y-9336240D01*
X15054580Y-9082240D02*
X15104580Y-9032240D01*
X15054580Y-8982240D01*
X15004580Y-9032240D01*
X15054580Y-9082240D01*
X15054580Y-9336240D02*
X15104580Y-9286240D01*
X15054580Y-9236240D01*
X15004580Y-9286240D01*
X15054580Y-9336240D01*
X15308580Y-9082240D02*
X15358580Y-9032240D01*
X15308580Y-8982240D01*
X15258580Y-9032240D01*
X15308580Y-9082240D01*
X15308580Y-9336240D02*
X15358580Y-9286240D01*
X15308580Y-9236240D01*
X15258580Y-9286240D01*
X15308580Y-9336240D01*
X15562580Y-9082240D02*
X15612580Y-9032240D01*
X15562580Y-8982240D01*
X15512580Y-9032240D01*
X15562580Y-9082240D01*
X15562580Y-9336240D02*
X15612580Y-9286240D01*
X15562580Y-9236240D01*
X15512580Y-9286240D01*
X15562580Y-9336240D01*
X15816580Y-9082240D02*
X15866580Y-9032240D01*
X15816580Y-8982240D01*
X15766580Y-9032240D01*
X15816580Y-9082240D01*
X15816580Y-9336240D02*
X15866580Y-9286240D01*
X15816580Y-9236240D01*
X15766580Y-9286240D01*
X15816580Y-9336240D01*
X16070580Y-9082240D02*
X16120580Y-9032240D01*
X16070580Y-8982240D01*
X16020580Y-9032240D01*
X16070580Y-9082240D01*
X16070580Y-9336240D02*
X16120580Y-9286240D01*
X16070580Y-9236240D01*
X16020580Y-9286240D01*
X16070580Y-9336240D01*
X16324580Y-9082240D02*
X16374580Y-9032240D01*
X16324580Y-8982240D01*
X16274580Y-9032240D01*
X16324580Y-9082240D01*
X16324580Y-9336240D02*
X16374580Y-9286240D01*
X16324580Y-9236240D01*
X16274580Y-9286240D01*
X16324580Y-9336240D01*
X16578580Y-9082240D02*
X16628580Y-9032240D01*
X16578580Y-8982240D01*
X16528580Y-9032240D01*
X16578580Y-9082240D01*
X16578580Y-9336240D02*
X16628580Y-9286240D01*
X16578580Y-9236240D01*
X16528580Y-9286240D01*
X16578580Y-9336240D01*
X16832580Y-9082240D02*
X16882580Y-9032240D01*
X16832580Y-8982240D01*
X16782580Y-9032240D01*
X16832580Y-9082240D01*
X16832580Y-9336240D02*
X16882580Y-9286240D01*
X16832580Y-9236240D01*
X16782580Y-9286240D01*
X16832580Y-9336240D01*
X17086580Y-9082240D02*
X17136580Y-9032240D01*
X17086580Y-8982240D01*
X17036580Y-9032240D01*
X17086580Y-9082240D01*
X17086580Y-9336240D02*
X17136580Y-9286240D01*
X17086580Y-9236240D01*
X17036580Y-9286240D01*
X17086580Y-9336240D01*
X17340580Y-9082240D02*
X17390580Y-9032240D01*
X17340580Y-8982240D01*
X17290580Y-9032240D01*
X17340580Y-9082240D01*
X17340580Y-9336240D02*
X17390580Y-9286240D01*
X17340580Y-9236240D01*
X17290580Y-9286240D01*
X17340580Y-9336240D01*
X17594580Y-9082240D02*
X17644580Y-9032240D01*
X17594580Y-8982240D01*
X17544580Y-9032240D01*
X17594580Y-9082240D01*
X17594580Y-9336240D02*
X17644580Y-9286240D01*
X17594580Y-9236240D01*
X17544580Y-9286240D01*
X17594580Y-9336240D01*
X17848580Y-9082240D02*
X17898580Y-9032240D01*
X17848580Y-8982240D01*
X17798580Y-9032240D01*
X17848580Y-9082240D01*
X17848580Y-9336240D02*
X17898580Y-9286240D01*
X17848580Y-9236240D01*
X17798580Y-9286240D01*
X17848580Y-9336240D01*
D16*
X10378044Y-10232380D02*
X10698044Y-10552380D01*
X10698044Y-10232380D02*
X10378044Y-10552380D01*
X10698044Y-10392380D02*
G75*
G03*
X10698044Y-10392380I-160000J0D01*
G01*
X18277944Y-10233596D02*
X18597944Y-10553596D01*
X18597944Y-10233596D02*
X18277944Y-10553596D01*
X18597944Y-10393596D02*
G75*
G03*
X18597944Y-10393596I-160000J0D01*
G01*
D11*
X10304017Y-12028424D02*
X10304017Y-11828424D01*
X10304017Y-11828424D02*
X10351636Y-11828424D01*
X10351636Y-11828424D02*
X10380207Y-11837948D01*
X10380207Y-11837948D02*
X10399255Y-11856995D01*
X10399255Y-11856995D02*
X10408779Y-11876043D01*
X10408779Y-11876043D02*
X10418303Y-11914138D01*
X10418303Y-11914138D02*
X10418303Y-11942709D01*
X10418303Y-11942709D02*
X10408779Y-11980805D01*
X10408779Y-11980805D02*
X10399255Y-11999852D01*
X10399255Y-11999852D02*
X10380207Y-12018900D01*
X10380207Y-12018900D02*
X10351636Y-12028424D01*
X10351636Y-12028424D02*
X10304017Y-12028424D01*
X10504017Y-12028424D02*
X10504017Y-11895090D01*
X10504017Y-11933186D02*
X10513541Y-11914138D01*
X10513541Y-11914138D02*
X10523064Y-11904614D01*
X10523064Y-11904614D02*
X10542112Y-11895090D01*
X10542112Y-11895090D02*
X10561160Y-11895090D01*
X10627826Y-12028424D02*
X10627826Y-11895090D01*
X10627826Y-11828424D02*
X10618303Y-11837948D01*
X10618303Y-11837948D02*
X10627826Y-11847471D01*
X10627826Y-11847471D02*
X10637350Y-11837948D01*
X10637350Y-11837948D02*
X10627826Y-11828424D01*
X10627826Y-11828424D02*
X10627826Y-11847471D01*
X10751636Y-12028424D02*
X10732588Y-12018900D01*
X10732588Y-12018900D02*
X10723064Y-11999852D01*
X10723064Y-11999852D02*
X10723064Y-11828424D01*
X10856398Y-12028424D02*
X10837350Y-12018900D01*
X10837350Y-12018900D02*
X10827826Y-11999852D01*
X10827826Y-11999852D02*
X10827826Y-11828424D01*
X11084969Y-12028424D02*
X11084969Y-11828424D01*
X11084969Y-11828424D02*
X11151636Y-11971281D01*
X11151636Y-11971281D02*
X11218302Y-11828424D01*
X11218302Y-11828424D02*
X11218302Y-12028424D01*
X11399255Y-12028424D02*
X11399255Y-11923662D01*
X11399255Y-11923662D02*
X11389731Y-11904614D01*
X11389731Y-11904614D02*
X11370683Y-11895090D01*
X11370683Y-11895090D02*
X11332588Y-11895090D01*
X11332588Y-11895090D02*
X11313541Y-11904614D01*
X11399255Y-12018900D02*
X11380207Y-12028424D01*
X11380207Y-12028424D02*
X11332588Y-12028424D01*
X11332588Y-12028424D02*
X11313541Y-12018900D01*
X11313541Y-12018900D02*
X11304017Y-11999852D01*
X11304017Y-11999852D02*
X11304017Y-11980805D01*
X11304017Y-11980805D02*
X11313541Y-11961757D01*
X11313541Y-11961757D02*
X11332588Y-11952233D01*
X11332588Y-11952233D02*
X11380207Y-11952233D01*
X11380207Y-11952233D02*
X11399255Y-11942709D01*
X11494493Y-11895090D02*
X11494493Y-12095090D01*
X11494493Y-11904614D02*
X11513541Y-11895090D01*
X11513541Y-11895090D02*
X11551636Y-11895090D01*
X11551636Y-11895090D02*
X11570683Y-11904614D01*
X11570683Y-11904614D02*
X11580207Y-11914138D01*
X11580207Y-11914138D02*
X11589731Y-11933186D01*
X11589731Y-11933186D02*
X11589731Y-11990328D01*
X11589731Y-11990328D02*
X11580207Y-12009376D01*
X11580207Y-12009376D02*
X11570683Y-12018900D01*
X11570683Y-12018900D02*
X11551636Y-12028424D01*
X11551636Y-12028424D02*
X11513541Y-12028424D01*
X11513541Y-12028424D02*
X11494493Y-12018900D01*
X11675445Y-12009376D02*
X11684969Y-12018900D01*
X11684969Y-12018900D02*
X11675445Y-12028424D01*
X11675445Y-12028424D02*
X11665922Y-12018900D01*
X11665922Y-12018900D02*
X11675445Y-12009376D01*
X11675445Y-12009376D02*
X11675445Y-12028424D01*
X11675445Y-11904614D02*
X11684969Y-11914138D01*
X11684969Y-11914138D02*
X11675445Y-11923662D01*
X11675445Y-11923662D02*
X11665922Y-11914138D01*
X11665922Y-11914138D02*
X11675445Y-11904614D01*
X11675445Y-11904614D02*
X11675445Y-11923662D01*
D12*
X10023240Y-12346940D02*
X10043240Y-12366940D01*
X10043240Y-12346940D02*
X10023240Y-12366940D01*
D11*
X10342112Y-12248424D02*
X10361160Y-12248424D01*
X10361160Y-12248424D02*
X10380207Y-12257948D01*
X10380207Y-12257948D02*
X10389731Y-12267471D01*
X10389731Y-12267471D02*
X10399255Y-12286519D01*
X10399255Y-12286519D02*
X10408779Y-12324614D01*
X10408779Y-12324614D02*
X10408779Y-12372233D01*
X10408779Y-12372233D02*
X10399255Y-12410328D01*
X10399255Y-12410328D02*
X10389731Y-12429376D01*
X10389731Y-12429376D02*
X10380207Y-12438900D01*
X10380207Y-12438900D02*
X10361160Y-12448424D01*
X10361160Y-12448424D02*
X10342112Y-12448424D01*
X10342112Y-12448424D02*
X10323064Y-12438900D01*
X10323064Y-12438900D02*
X10313541Y-12429376D01*
X10313541Y-12429376D02*
X10304017Y-12410328D01*
X10304017Y-12410328D02*
X10294493Y-12372233D01*
X10294493Y-12372233D02*
X10294493Y-12324614D01*
X10294493Y-12324614D02*
X10304017Y-12286519D01*
X10304017Y-12286519D02*
X10313541Y-12267471D01*
X10313541Y-12267471D02*
X10323064Y-12257948D01*
X10323064Y-12257948D02*
X10342112Y-12248424D01*
X10494493Y-12429376D02*
X10504017Y-12438900D01*
X10504017Y-12438900D02*
X10494493Y-12448424D01*
X10494493Y-12448424D02*
X10484969Y-12438900D01*
X10484969Y-12438900D02*
X10494493Y-12429376D01*
X10494493Y-12429376D02*
X10494493Y-12448424D01*
X10580207Y-12267471D02*
X10589731Y-12257948D01*
X10589731Y-12257948D02*
X10608779Y-12248424D01*
X10608779Y-12248424D02*
X10656398Y-12248424D01*
X10656398Y-12248424D02*
X10675445Y-12257948D01*
X10675445Y-12257948D02*
X10684969Y-12267471D01*
X10684969Y-12267471D02*
X10694493Y-12286519D01*
X10694493Y-12286519D02*
X10694493Y-12305567D01*
X10694493Y-12305567D02*
X10684969Y-12334138D01*
X10684969Y-12334138D02*
X10570684Y-12448424D01*
X10570684Y-12448424D02*
X10694493Y-12448424D01*
X10818303Y-12248424D02*
X10837350Y-12248424D01*
X10837350Y-12248424D02*
X10856398Y-12257948D01*
X10856398Y-12257948D02*
X10865922Y-12267471D01*
X10865922Y-12267471D02*
X10875445Y-12286519D01*
X10875445Y-12286519D02*
X10884969Y-12324614D01*
X10884969Y-12324614D02*
X10884969Y-12372233D01*
X10884969Y-12372233D02*
X10875445Y-12410328D01*
X10875445Y-12410328D02*
X10865922Y-12429376D01*
X10865922Y-12429376D02*
X10856398Y-12438900D01*
X10856398Y-12438900D02*
X10837350Y-12448424D01*
X10837350Y-12448424D02*
X10818303Y-12448424D01*
X10818303Y-12448424D02*
X10799255Y-12438900D01*
X10799255Y-12438900D02*
X10789731Y-12429376D01*
X10789731Y-12429376D02*
X10780207Y-12410328D01*
X10780207Y-12410328D02*
X10770684Y-12372233D01*
X10770684Y-12372233D02*
X10770684Y-12324614D01*
X10770684Y-12324614D02*
X10780207Y-12286519D01*
X10780207Y-12286519D02*
X10789731Y-12267471D01*
X10789731Y-12267471D02*
X10799255Y-12257948D01*
X10799255Y-12257948D02*
X10818303Y-12248424D01*
X11008779Y-12248424D02*
X11027826Y-12248424D01*
X11027826Y-12248424D02*
X11046874Y-12257948D01*
X11046874Y-12257948D02*
X11056398Y-12267471D01*
X11056398Y-12267471D02*
X11065922Y-12286519D01*
X11065922Y-12286519D02*
X11075445Y-12324614D01*
X11075445Y-12324614D02*
X11075445Y-12372233D01*
X11075445Y-12372233D02*
X11065922Y-12410328D01*
X11065922Y-12410328D02*
X11056398Y-12429376D01*
X11056398Y-12429376D02*
X11046874Y-12438900D01*
X11046874Y-12438900D02*
X11027826Y-12448424D01*
X11027826Y-12448424D02*
X11008779Y-12448424D01*
X11008779Y-12448424D02*
X10989731Y-12438900D01*
X10989731Y-12438900D02*
X10980207Y-12429376D01*
X10980207Y-12429376D02*
X10970684Y-12410328D01*
X10970684Y-12410328D02*
X10961160Y-12372233D01*
X10961160Y-12372233D02*
X10961160Y-12324614D01*
X10961160Y-12324614D02*
X10970684Y-12286519D01*
X10970684Y-12286519D02*
X10980207Y-12267471D01*
X10980207Y-12267471D02*
X10989731Y-12257948D01*
X10989731Y-12257948D02*
X11008779Y-12248424D01*
X11161160Y-12448424D02*
X11161160Y-12315090D01*
X11161160Y-12334138D02*
X11170684Y-12324614D01*
X11170684Y-12324614D02*
X11189731Y-12315090D01*
X11189731Y-12315090D02*
X11218303Y-12315090D01*
X11218303Y-12315090D02*
X11237350Y-12324614D01*
X11237350Y-12324614D02*
X11246874Y-12343662D01*
X11246874Y-12343662D02*
X11246874Y-12448424D01*
X11246874Y-12343662D02*
X11256398Y-12324614D01*
X11256398Y-12324614D02*
X11275445Y-12315090D01*
X11275445Y-12315090D02*
X11304017Y-12315090D01*
X11304017Y-12315090D02*
X11323064Y-12324614D01*
X11323064Y-12324614D02*
X11332588Y-12343662D01*
X11332588Y-12343662D02*
X11332588Y-12448424D01*
X11427826Y-12448424D02*
X11427826Y-12315090D01*
X11427826Y-12334138D02*
X11437350Y-12324614D01*
X11437350Y-12324614D02*
X11456398Y-12315090D01*
X11456398Y-12315090D02*
X11484969Y-12315090D01*
X11484969Y-12315090D02*
X11504017Y-12324614D01*
X11504017Y-12324614D02*
X11513541Y-12343662D01*
X11513541Y-12343662D02*
X11513541Y-12448424D01*
X11513541Y-12343662D02*
X11523064Y-12324614D01*
X11523064Y-12324614D02*
X11542112Y-12315090D01*
X11542112Y-12315090D02*
X11570683Y-12315090D01*
X11570683Y-12315090D02*
X11589731Y-12324614D01*
X11589731Y-12324614D02*
X11599255Y-12343662D01*
X11599255Y-12343662D02*
X11599255Y-12448424D01*
X11989731Y-12238900D02*
X11818303Y-12496043D01*
X12246874Y-12248424D02*
X12265922Y-12248424D01*
X12265922Y-12248424D02*
X12284969Y-12257948D01*
X12284969Y-12257948D02*
X12294493Y-12267471D01*
X12294493Y-12267471D02*
X12304017Y-12286519D01*
X12304017Y-12286519D02*
X12313541Y-12324614D01*
X12313541Y-12324614D02*
X12313541Y-12372233D01*
X12313541Y-12372233D02*
X12304017Y-12410328D01*
X12304017Y-12410328D02*
X12294493Y-12429376D01*
X12294493Y-12429376D02*
X12284969Y-12438900D01*
X12284969Y-12438900D02*
X12265922Y-12448424D01*
X12265922Y-12448424D02*
X12246874Y-12448424D01*
X12246874Y-12448424D02*
X12227826Y-12438900D01*
X12227826Y-12438900D02*
X12218303Y-12429376D01*
X12218303Y-12429376D02*
X12208779Y-12410328D01*
X12208779Y-12410328D02*
X12199255Y-12372233D01*
X12199255Y-12372233D02*
X12199255Y-12324614D01*
X12199255Y-12324614D02*
X12208779Y-12286519D01*
X12208779Y-12286519D02*
X12218303Y-12267471D01*
X12218303Y-12267471D02*
X12227826Y-12257948D01*
X12227826Y-12257948D02*
X12246874Y-12248424D01*
X12399255Y-12429376D02*
X12408779Y-12438900D01*
X12408779Y-12438900D02*
X12399255Y-12448424D01*
X12399255Y-12448424D02*
X12389731Y-12438900D01*
X12389731Y-12438900D02*
X12399255Y-12429376D01*
X12399255Y-12429376D02*
X12399255Y-12448424D01*
X12532588Y-12248424D02*
X12551636Y-12248424D01*
X12551636Y-12248424D02*
X12570684Y-12257948D01*
X12570684Y-12257948D02*
X12580207Y-12267471D01*
X12580207Y-12267471D02*
X12589731Y-12286519D01*
X12589731Y-12286519D02*
X12599255Y-12324614D01*
X12599255Y-12324614D02*
X12599255Y-12372233D01*
X12599255Y-12372233D02*
X12589731Y-12410328D01*
X12589731Y-12410328D02*
X12580207Y-12429376D01*
X12580207Y-12429376D02*
X12570684Y-12438900D01*
X12570684Y-12438900D02*
X12551636Y-12448424D01*
X12551636Y-12448424D02*
X12532588Y-12448424D01*
X12532588Y-12448424D02*
X12513541Y-12438900D01*
X12513541Y-12438900D02*
X12504017Y-12429376D01*
X12504017Y-12429376D02*
X12494493Y-12410328D01*
X12494493Y-12410328D02*
X12484969Y-12372233D01*
X12484969Y-12372233D02*
X12484969Y-12324614D01*
X12484969Y-12324614D02*
X12494493Y-12286519D01*
X12494493Y-12286519D02*
X12504017Y-12267471D01*
X12504017Y-12267471D02*
X12513541Y-12257948D01*
X12513541Y-12257948D02*
X12532588Y-12248424D01*
X12723065Y-12248424D02*
X12742112Y-12248424D01*
X12742112Y-12248424D02*
X12761160Y-12257948D01*
X12761160Y-12257948D02*
X12770684Y-12267471D01*
X12770684Y-12267471D02*
X12780207Y-12286519D01*
X12780207Y-12286519D02*
X12789731Y-12324614D01*
X12789731Y-12324614D02*
X12789731Y-12372233D01*
X12789731Y-12372233D02*
X12780207Y-12410328D01*
X12780207Y-12410328D02*
X12770684Y-12429376D01*
X12770684Y-12429376D02*
X12761160Y-12438900D01*
X12761160Y-12438900D02*
X12742112Y-12448424D01*
X12742112Y-12448424D02*
X12723065Y-12448424D01*
X12723065Y-12448424D02*
X12704017Y-12438900D01*
X12704017Y-12438900D02*
X12694493Y-12429376D01*
X12694493Y-12429376D02*
X12684969Y-12410328D01*
X12684969Y-12410328D02*
X12675446Y-12372233D01*
X12675446Y-12372233D02*
X12675446Y-12324614D01*
X12675446Y-12324614D02*
X12684969Y-12286519D01*
X12684969Y-12286519D02*
X12694493Y-12267471D01*
X12694493Y-12267471D02*
X12704017Y-12257948D01*
X12704017Y-12257948D02*
X12723065Y-12248424D01*
X12856398Y-12248424D02*
X12989731Y-12248424D01*
X12989731Y-12248424D02*
X12904017Y-12448424D01*
X13075446Y-12448424D02*
X13113541Y-12448424D01*
X13113541Y-12448424D02*
X13132588Y-12438900D01*
X13132588Y-12438900D02*
X13142112Y-12429376D01*
X13142112Y-12429376D02*
X13161160Y-12400805D01*
X13161160Y-12400805D02*
X13170684Y-12362709D01*
X13170684Y-12362709D02*
X13170684Y-12286519D01*
X13170684Y-12286519D02*
X13161160Y-12267471D01*
X13161160Y-12267471D02*
X13151636Y-12257948D01*
X13151636Y-12257948D02*
X13132588Y-12248424D01*
X13132588Y-12248424D02*
X13094493Y-12248424D01*
X13094493Y-12248424D02*
X13075446Y-12257948D01*
X13075446Y-12257948D02*
X13065922Y-12267471D01*
X13065922Y-12267471D02*
X13056398Y-12286519D01*
X13056398Y-12286519D02*
X13056398Y-12334138D01*
X13056398Y-12334138D02*
X13065922Y-12353186D01*
X13065922Y-12353186D02*
X13075446Y-12362709D01*
X13075446Y-12362709D02*
X13094493Y-12372233D01*
X13094493Y-12372233D02*
X13132588Y-12372233D01*
X13132588Y-12372233D02*
X13151636Y-12362709D01*
X13151636Y-12362709D02*
X13161160Y-12353186D01*
X13161160Y-12353186D02*
X13170684Y-12334138D01*
X13246874Y-12248424D02*
X13246874Y-12286519D01*
X13323065Y-12248424D02*
X13323065Y-12286519D01*
X13618303Y-12524614D02*
X13608779Y-12515090D01*
X13608779Y-12515090D02*
X13589731Y-12486519D01*
X13589731Y-12486519D02*
X13580208Y-12467471D01*
X13580208Y-12467471D02*
X13570684Y-12438900D01*
X13570684Y-12438900D02*
X13561160Y-12391281D01*
X13561160Y-12391281D02*
X13561160Y-12353186D01*
X13561160Y-12353186D02*
X13570684Y-12305567D01*
X13570684Y-12305567D02*
X13580208Y-12276995D01*
X13580208Y-12276995D02*
X13589731Y-12257948D01*
X13589731Y-12257948D02*
X13608779Y-12229376D01*
X13608779Y-12229376D02*
X13618303Y-12219852D01*
X13799255Y-12448424D02*
X13684969Y-12448424D01*
X13742112Y-12448424D02*
X13742112Y-12248424D01*
X13742112Y-12248424D02*
X13723065Y-12276995D01*
X13723065Y-12276995D02*
X13704017Y-12296043D01*
X13704017Y-12296043D02*
X13684969Y-12305567D01*
X13875446Y-12267471D02*
X13884969Y-12257948D01*
X13884969Y-12257948D02*
X13904017Y-12248424D01*
X13904017Y-12248424D02*
X13951636Y-12248424D01*
X13951636Y-12248424D02*
X13970684Y-12257948D01*
X13970684Y-12257948D02*
X13980208Y-12267471D01*
X13980208Y-12267471D02*
X13989731Y-12286519D01*
X13989731Y-12286519D02*
X13989731Y-12305567D01*
X13989731Y-12305567D02*
X13980208Y-12334138D01*
X13980208Y-12334138D02*
X13865922Y-12448424D01*
X13865922Y-12448424D02*
X13989731Y-12448424D01*
X14227827Y-12448424D02*
X14227827Y-12248424D01*
X14313541Y-12448424D02*
X14313541Y-12343662D01*
X14313541Y-12343662D02*
X14304017Y-12324614D01*
X14304017Y-12324614D02*
X14284970Y-12315090D01*
X14284970Y-12315090D02*
X14256398Y-12315090D01*
X14256398Y-12315090D02*
X14237350Y-12324614D01*
X14237350Y-12324614D02*
X14227827Y-12334138D01*
X14437350Y-12448424D02*
X14418303Y-12438900D01*
X14418303Y-12438900D02*
X14408779Y-12429376D01*
X14408779Y-12429376D02*
X14399255Y-12410328D01*
X14399255Y-12410328D02*
X14399255Y-12353186D01*
X14399255Y-12353186D02*
X14408779Y-12334138D01*
X14408779Y-12334138D02*
X14418303Y-12324614D01*
X14418303Y-12324614D02*
X14437350Y-12315090D01*
X14437350Y-12315090D02*
X14465922Y-12315090D01*
X14465922Y-12315090D02*
X14484970Y-12324614D01*
X14484970Y-12324614D02*
X14494493Y-12334138D01*
X14494493Y-12334138D02*
X14504017Y-12353186D01*
X14504017Y-12353186D02*
X14504017Y-12410328D01*
X14504017Y-12410328D02*
X14494493Y-12429376D01*
X14494493Y-12429376D02*
X14484970Y-12438900D01*
X14484970Y-12438900D02*
X14465922Y-12448424D01*
X14465922Y-12448424D02*
X14437350Y-12448424D01*
X14618303Y-12448424D02*
X14599255Y-12438900D01*
X14599255Y-12438900D02*
X14589731Y-12419852D01*
X14589731Y-12419852D02*
X14589731Y-12248424D01*
X14770684Y-12438900D02*
X14751636Y-12448424D01*
X14751636Y-12448424D02*
X14713541Y-12448424D01*
X14713541Y-12448424D02*
X14694493Y-12438900D01*
X14694493Y-12438900D02*
X14684970Y-12419852D01*
X14684970Y-12419852D02*
X14684970Y-12343662D01*
X14684970Y-12343662D02*
X14694493Y-12324614D01*
X14694493Y-12324614D02*
X14713541Y-12315090D01*
X14713541Y-12315090D02*
X14751636Y-12315090D01*
X14751636Y-12315090D02*
X14770684Y-12324614D01*
X14770684Y-12324614D02*
X14780208Y-12343662D01*
X14780208Y-12343662D02*
X14780208Y-12362709D01*
X14780208Y-12362709D02*
X14684970Y-12381757D01*
X14856398Y-12438900D02*
X14875446Y-12448424D01*
X14875446Y-12448424D02*
X14913541Y-12448424D01*
X14913541Y-12448424D02*
X14932589Y-12438900D01*
X14932589Y-12438900D02*
X14942112Y-12419852D01*
X14942112Y-12419852D02*
X14942112Y-12410328D01*
X14942112Y-12410328D02*
X14932589Y-12391281D01*
X14932589Y-12391281D02*
X14913541Y-12381757D01*
X14913541Y-12381757D02*
X14884970Y-12381757D01*
X14884970Y-12381757D02*
X14865922Y-12372233D01*
X14865922Y-12372233D02*
X14856398Y-12353186D01*
X14856398Y-12353186D02*
X14856398Y-12343662D01*
X14856398Y-12343662D02*
X14865922Y-12324614D01*
X14865922Y-12324614D02*
X14884970Y-12315090D01*
X14884970Y-12315090D02*
X14913541Y-12315090D01*
X14913541Y-12315090D02*
X14932589Y-12324614D01*
X15008779Y-12524614D02*
X15018303Y-12515090D01*
X15018303Y-12515090D02*
X15037351Y-12486519D01*
X15037351Y-12486519D02*
X15046874Y-12467471D01*
X15046874Y-12467471D02*
X15056398Y-12438900D01*
X15056398Y-12438900D02*
X15065922Y-12391281D01*
X15065922Y-12391281D02*
X15065922Y-12353186D01*
X15065922Y-12353186D02*
X15056398Y-12305567D01*
X15056398Y-12305567D02*
X15046874Y-12276995D01*
X15046874Y-12276995D02*
X15037351Y-12257948D01*
X15037351Y-12257948D02*
X15018303Y-12229376D01*
X15018303Y-12229376D02*
X15008779Y-12219852D01*
D13*
X10043240Y-12620940D02*
G75*
G03*
X10043240Y-12620940I-15000J0D01*
G01*
D11*
X10342112Y-12512424D02*
X10361160Y-12512424D01*
X10361160Y-12512424D02*
X10380207Y-12521948D01*
X10380207Y-12521948D02*
X10389731Y-12531471D01*
X10389731Y-12531471D02*
X10399255Y-12550519D01*
X10399255Y-12550519D02*
X10408779Y-12588614D01*
X10408779Y-12588614D02*
X10408779Y-12636233D01*
X10408779Y-12636233D02*
X10399255Y-12674328D01*
X10399255Y-12674328D02*
X10389731Y-12693376D01*
X10389731Y-12693376D02*
X10380207Y-12702900D01*
X10380207Y-12702900D02*
X10361160Y-12712424D01*
X10361160Y-12712424D02*
X10342112Y-12712424D01*
X10342112Y-12712424D02*
X10323064Y-12702900D01*
X10323064Y-12702900D02*
X10313541Y-12693376D01*
X10313541Y-12693376D02*
X10304017Y-12674328D01*
X10304017Y-12674328D02*
X10294493Y-12636233D01*
X10294493Y-12636233D02*
X10294493Y-12588614D01*
X10294493Y-12588614D02*
X10304017Y-12550519D01*
X10304017Y-12550519D02*
X10313541Y-12531471D01*
X10313541Y-12531471D02*
X10323064Y-12521948D01*
X10323064Y-12521948D02*
X10342112Y-12512424D01*
X10494493Y-12693376D02*
X10504017Y-12702900D01*
X10504017Y-12702900D02*
X10494493Y-12712424D01*
X10494493Y-12712424D02*
X10484969Y-12702900D01*
X10484969Y-12702900D02*
X10494493Y-12693376D01*
X10494493Y-12693376D02*
X10494493Y-12712424D01*
X10570684Y-12512424D02*
X10694493Y-12512424D01*
X10694493Y-12512424D02*
X10627826Y-12588614D01*
X10627826Y-12588614D02*
X10656398Y-12588614D01*
X10656398Y-12588614D02*
X10675445Y-12598138D01*
X10675445Y-12598138D02*
X10684969Y-12607662D01*
X10684969Y-12607662D02*
X10694493Y-12626709D01*
X10694493Y-12626709D02*
X10694493Y-12674328D01*
X10694493Y-12674328D02*
X10684969Y-12693376D01*
X10684969Y-12693376D02*
X10675445Y-12702900D01*
X10675445Y-12702900D02*
X10656398Y-12712424D01*
X10656398Y-12712424D02*
X10599255Y-12712424D01*
X10599255Y-12712424D02*
X10580207Y-12702900D01*
X10580207Y-12702900D02*
X10570684Y-12693376D01*
X10818303Y-12512424D02*
X10837350Y-12512424D01*
X10837350Y-12512424D02*
X10856398Y-12521948D01*
X10856398Y-12521948D02*
X10865922Y-12531471D01*
X10865922Y-12531471D02*
X10875445Y-12550519D01*
X10875445Y-12550519D02*
X10884969Y-12588614D01*
X10884969Y-12588614D02*
X10884969Y-12636233D01*
X10884969Y-12636233D02*
X10875445Y-12674328D01*
X10875445Y-12674328D02*
X10865922Y-12693376D01*
X10865922Y-12693376D02*
X10856398Y-12702900D01*
X10856398Y-12702900D02*
X10837350Y-12712424D01*
X10837350Y-12712424D02*
X10818303Y-12712424D01*
X10818303Y-12712424D02*
X10799255Y-12702900D01*
X10799255Y-12702900D02*
X10789731Y-12693376D01*
X10789731Y-12693376D02*
X10780207Y-12674328D01*
X10780207Y-12674328D02*
X10770684Y-12636233D01*
X10770684Y-12636233D02*
X10770684Y-12588614D01*
X10770684Y-12588614D02*
X10780207Y-12550519D01*
X10780207Y-12550519D02*
X10789731Y-12531471D01*
X10789731Y-12531471D02*
X10799255Y-12521948D01*
X10799255Y-12521948D02*
X10818303Y-12512424D01*
X11008779Y-12512424D02*
X11027826Y-12512424D01*
X11027826Y-12512424D02*
X11046874Y-12521948D01*
X11046874Y-12521948D02*
X11056398Y-12531471D01*
X11056398Y-12531471D02*
X11065922Y-12550519D01*
X11065922Y-12550519D02*
X11075445Y-12588614D01*
X11075445Y-12588614D02*
X11075445Y-12636233D01*
X11075445Y-12636233D02*
X11065922Y-12674328D01*
X11065922Y-12674328D02*
X11056398Y-12693376D01*
X11056398Y-12693376D02*
X11046874Y-12702900D01*
X11046874Y-12702900D02*
X11027826Y-12712424D01*
X11027826Y-12712424D02*
X11008779Y-12712424D01*
X11008779Y-12712424D02*
X10989731Y-12702900D01*
X10989731Y-12702900D02*
X10980207Y-12693376D01*
X10980207Y-12693376D02*
X10970684Y-12674328D01*
X10970684Y-12674328D02*
X10961160Y-12636233D01*
X10961160Y-12636233D02*
X10961160Y-12588614D01*
X10961160Y-12588614D02*
X10970684Y-12550519D01*
X10970684Y-12550519D02*
X10980207Y-12531471D01*
X10980207Y-12531471D02*
X10989731Y-12521948D01*
X10989731Y-12521948D02*
X11008779Y-12512424D01*
X11161160Y-12712424D02*
X11161160Y-12579090D01*
X11161160Y-12598138D02*
X11170684Y-12588614D01*
X11170684Y-12588614D02*
X11189731Y-12579090D01*
X11189731Y-12579090D02*
X11218303Y-12579090D01*
X11218303Y-12579090D02*
X11237350Y-12588614D01*
X11237350Y-12588614D02*
X11246874Y-12607662D01*
X11246874Y-12607662D02*
X11246874Y-12712424D01*
X11246874Y-12607662D02*
X11256398Y-12588614D01*
X11256398Y-12588614D02*
X11275445Y-12579090D01*
X11275445Y-12579090D02*
X11304017Y-12579090D01*
X11304017Y-12579090D02*
X11323064Y-12588614D01*
X11323064Y-12588614D02*
X11332588Y-12607662D01*
X11332588Y-12607662D02*
X11332588Y-12712424D01*
X11427826Y-12712424D02*
X11427826Y-12579090D01*
X11427826Y-12598138D02*
X11437350Y-12588614D01*
X11437350Y-12588614D02*
X11456398Y-12579090D01*
X11456398Y-12579090D02*
X11484969Y-12579090D01*
X11484969Y-12579090D02*
X11504017Y-12588614D01*
X11504017Y-12588614D02*
X11513541Y-12607662D01*
X11513541Y-12607662D02*
X11513541Y-12712424D01*
X11513541Y-12607662D02*
X11523064Y-12588614D01*
X11523064Y-12588614D02*
X11542112Y-12579090D01*
X11542112Y-12579090D02*
X11570683Y-12579090D01*
X11570683Y-12579090D02*
X11589731Y-12588614D01*
X11589731Y-12588614D02*
X11599255Y-12607662D01*
X11599255Y-12607662D02*
X11599255Y-12712424D01*
X11989731Y-12502900D02*
X11818303Y-12760043D01*
X12246874Y-12512424D02*
X12265922Y-12512424D01*
X12265922Y-12512424D02*
X12284969Y-12521948D01*
X12284969Y-12521948D02*
X12294493Y-12531471D01*
X12294493Y-12531471D02*
X12304017Y-12550519D01*
X12304017Y-12550519D02*
X12313541Y-12588614D01*
X12313541Y-12588614D02*
X12313541Y-12636233D01*
X12313541Y-12636233D02*
X12304017Y-12674328D01*
X12304017Y-12674328D02*
X12294493Y-12693376D01*
X12294493Y-12693376D02*
X12284969Y-12702900D01*
X12284969Y-12702900D02*
X12265922Y-12712424D01*
X12265922Y-12712424D02*
X12246874Y-12712424D01*
X12246874Y-12712424D02*
X12227826Y-12702900D01*
X12227826Y-12702900D02*
X12218303Y-12693376D01*
X12218303Y-12693376D02*
X12208779Y-12674328D01*
X12208779Y-12674328D02*
X12199255Y-12636233D01*
X12199255Y-12636233D02*
X12199255Y-12588614D01*
X12199255Y-12588614D02*
X12208779Y-12550519D01*
X12208779Y-12550519D02*
X12218303Y-12531471D01*
X12218303Y-12531471D02*
X12227826Y-12521948D01*
X12227826Y-12521948D02*
X12246874Y-12512424D01*
X12399255Y-12693376D02*
X12408779Y-12702900D01*
X12408779Y-12702900D02*
X12399255Y-12712424D01*
X12399255Y-12712424D02*
X12389731Y-12702900D01*
X12389731Y-12702900D02*
X12399255Y-12693376D01*
X12399255Y-12693376D02*
X12399255Y-12712424D01*
X12532588Y-12512424D02*
X12551636Y-12512424D01*
X12551636Y-12512424D02*
X12570684Y-12521948D01*
X12570684Y-12521948D02*
X12580207Y-12531471D01*
X12580207Y-12531471D02*
X12589731Y-12550519D01*
X12589731Y-12550519D02*
X12599255Y-12588614D01*
X12599255Y-12588614D02*
X12599255Y-12636233D01*
X12599255Y-12636233D02*
X12589731Y-12674328D01*
X12589731Y-12674328D02*
X12580207Y-12693376D01*
X12580207Y-12693376D02*
X12570684Y-12702900D01*
X12570684Y-12702900D02*
X12551636Y-12712424D01*
X12551636Y-12712424D02*
X12532588Y-12712424D01*
X12532588Y-12712424D02*
X12513541Y-12702900D01*
X12513541Y-12702900D02*
X12504017Y-12693376D01*
X12504017Y-12693376D02*
X12494493Y-12674328D01*
X12494493Y-12674328D02*
X12484969Y-12636233D01*
X12484969Y-12636233D02*
X12484969Y-12588614D01*
X12484969Y-12588614D02*
X12494493Y-12550519D01*
X12494493Y-12550519D02*
X12504017Y-12531471D01*
X12504017Y-12531471D02*
X12513541Y-12521948D01*
X12513541Y-12521948D02*
X12532588Y-12512424D01*
X12789731Y-12712424D02*
X12675446Y-12712424D01*
X12732588Y-12712424D02*
X12732588Y-12512424D01*
X12732588Y-12512424D02*
X12713541Y-12540995D01*
X12713541Y-12540995D02*
X12694493Y-12560043D01*
X12694493Y-12560043D02*
X12675446Y-12569567D01*
X12980207Y-12712424D02*
X12865922Y-12712424D01*
X12923065Y-12712424D02*
X12923065Y-12512424D01*
X12923065Y-12512424D02*
X12904017Y-12540995D01*
X12904017Y-12540995D02*
X12884969Y-12560043D01*
X12884969Y-12560043D02*
X12865922Y-12569567D01*
X13094493Y-12598138D02*
X13075446Y-12588614D01*
X13075446Y-12588614D02*
X13065922Y-12579090D01*
X13065922Y-12579090D02*
X13056398Y-12560043D01*
X13056398Y-12560043D02*
X13056398Y-12550519D01*
X13056398Y-12550519D02*
X13065922Y-12531471D01*
X13065922Y-12531471D02*
X13075446Y-12521948D01*
X13075446Y-12521948D02*
X13094493Y-12512424D01*
X13094493Y-12512424D02*
X13132588Y-12512424D01*
X13132588Y-12512424D02*
X13151636Y-12521948D01*
X13151636Y-12521948D02*
X13161160Y-12531471D01*
X13161160Y-12531471D02*
X13170684Y-12550519D01*
X13170684Y-12550519D02*
X13170684Y-12560043D01*
X13170684Y-12560043D02*
X13161160Y-12579090D01*
X13161160Y-12579090D02*
X13151636Y-12588614D01*
X13151636Y-12588614D02*
X13132588Y-12598138D01*
X13132588Y-12598138D02*
X13094493Y-12598138D01*
X13094493Y-12598138D02*
X13075446Y-12607662D01*
X13075446Y-12607662D02*
X13065922Y-12617186D01*
X13065922Y-12617186D02*
X13056398Y-12636233D01*
X13056398Y-12636233D02*
X13056398Y-12674328D01*
X13056398Y-12674328D02*
X13065922Y-12693376D01*
X13065922Y-12693376D02*
X13075446Y-12702900D01*
X13075446Y-12702900D02*
X13094493Y-12712424D01*
X13094493Y-12712424D02*
X13132588Y-12712424D01*
X13132588Y-12712424D02*
X13151636Y-12702900D01*
X13151636Y-12702900D02*
X13161160Y-12693376D01*
X13161160Y-12693376D02*
X13170684Y-12674328D01*
X13170684Y-12674328D02*
X13170684Y-12636233D01*
X13170684Y-12636233D02*
X13161160Y-12617186D01*
X13161160Y-12617186D02*
X13151636Y-12607662D01*
X13151636Y-12607662D02*
X13132588Y-12598138D01*
X13246874Y-12512424D02*
X13246874Y-12550519D01*
X13323065Y-12512424D02*
X13323065Y-12550519D01*
X13618303Y-12788614D02*
X13608779Y-12779090D01*
X13608779Y-12779090D02*
X13589731Y-12750519D01*
X13589731Y-12750519D02*
X13580208Y-12731471D01*
X13580208Y-12731471D02*
X13570684Y-12702900D01*
X13570684Y-12702900D02*
X13561160Y-12655281D01*
X13561160Y-12655281D02*
X13561160Y-12617186D01*
X13561160Y-12617186D02*
X13570684Y-12569567D01*
X13570684Y-12569567D02*
X13580208Y-12540995D01*
X13580208Y-12540995D02*
X13589731Y-12521948D01*
X13589731Y-12521948D02*
X13608779Y-12493376D01*
X13608779Y-12493376D02*
X13618303Y-12483852D01*
X13799255Y-12712424D02*
X13684969Y-12712424D01*
X13742112Y-12712424D02*
X13742112Y-12512424D01*
X13742112Y-12512424D02*
X13723065Y-12540995D01*
X13723065Y-12540995D02*
X13704017Y-12560043D01*
X13704017Y-12560043D02*
X13684969Y-12569567D01*
X13970684Y-12579090D02*
X13970684Y-12712424D01*
X13923065Y-12502900D02*
X13875446Y-12645757D01*
X13875446Y-12645757D02*
X13999255Y-12645757D01*
X14170684Y-12512424D02*
X14075446Y-12512424D01*
X14075446Y-12512424D02*
X14065922Y-12607662D01*
X14065922Y-12607662D02*
X14075446Y-12598138D01*
X14075446Y-12598138D02*
X14094493Y-12588614D01*
X14094493Y-12588614D02*
X14142112Y-12588614D01*
X14142112Y-12588614D02*
X14161160Y-12598138D01*
X14161160Y-12598138D02*
X14170684Y-12607662D01*
X14170684Y-12607662D02*
X14180208Y-12626709D01*
X14180208Y-12626709D02*
X14180208Y-12674328D01*
X14180208Y-12674328D02*
X14170684Y-12693376D01*
X14170684Y-12693376D02*
X14161160Y-12702900D01*
X14161160Y-12702900D02*
X14142112Y-12712424D01*
X14142112Y-12712424D02*
X14094493Y-12712424D01*
X14094493Y-12712424D02*
X14075446Y-12702900D01*
X14075446Y-12702900D02*
X14065922Y-12693376D01*
X14418303Y-12712424D02*
X14418303Y-12512424D01*
X14504017Y-12712424D02*
X14504017Y-12607662D01*
X14504017Y-12607662D02*
X14494493Y-12588614D01*
X14494493Y-12588614D02*
X14475446Y-12579090D01*
X14475446Y-12579090D02*
X14446874Y-12579090D01*
X14446874Y-12579090D02*
X14427827Y-12588614D01*
X14427827Y-12588614D02*
X14418303Y-12598138D01*
X14627827Y-12712424D02*
X14608779Y-12702900D01*
X14608779Y-12702900D02*
X14599255Y-12693376D01*
X14599255Y-12693376D02*
X14589731Y-12674328D01*
X14589731Y-12674328D02*
X14589731Y-12617186D01*
X14589731Y-12617186D02*
X14599255Y-12598138D01*
X14599255Y-12598138D02*
X14608779Y-12588614D01*
X14608779Y-12588614D02*
X14627827Y-12579090D01*
X14627827Y-12579090D02*
X14656398Y-12579090D01*
X14656398Y-12579090D02*
X14675446Y-12588614D01*
X14675446Y-12588614D02*
X14684970Y-12598138D01*
X14684970Y-12598138D02*
X14694493Y-12617186D01*
X14694493Y-12617186D02*
X14694493Y-12674328D01*
X14694493Y-12674328D02*
X14684970Y-12693376D01*
X14684970Y-12693376D02*
X14675446Y-12702900D01*
X14675446Y-12702900D02*
X14656398Y-12712424D01*
X14656398Y-12712424D02*
X14627827Y-12712424D01*
X14808779Y-12712424D02*
X14789731Y-12702900D01*
X14789731Y-12702900D02*
X14780208Y-12683852D01*
X14780208Y-12683852D02*
X14780208Y-12512424D01*
X14961160Y-12702900D02*
X14942112Y-12712424D01*
X14942112Y-12712424D02*
X14904017Y-12712424D01*
X14904017Y-12712424D02*
X14884970Y-12702900D01*
X14884970Y-12702900D02*
X14875446Y-12683852D01*
X14875446Y-12683852D02*
X14875446Y-12607662D01*
X14875446Y-12607662D02*
X14884970Y-12588614D01*
X14884970Y-12588614D02*
X14904017Y-12579090D01*
X14904017Y-12579090D02*
X14942112Y-12579090D01*
X14942112Y-12579090D02*
X14961160Y-12588614D01*
X14961160Y-12588614D02*
X14970684Y-12607662D01*
X14970684Y-12607662D02*
X14970684Y-12626709D01*
X14970684Y-12626709D02*
X14875446Y-12645757D01*
X15046874Y-12702900D02*
X15065922Y-12712424D01*
X15065922Y-12712424D02*
X15104017Y-12712424D01*
X15104017Y-12712424D02*
X15123065Y-12702900D01*
X15123065Y-12702900D02*
X15132589Y-12683852D01*
X15132589Y-12683852D02*
X15132589Y-12674328D01*
X15132589Y-12674328D02*
X15123065Y-12655281D01*
X15123065Y-12655281D02*
X15104017Y-12645757D01*
X15104017Y-12645757D02*
X15075446Y-12645757D01*
X15075446Y-12645757D02*
X15056398Y-12636233D01*
X15056398Y-12636233D02*
X15046874Y-12617186D01*
X15046874Y-12617186D02*
X15046874Y-12607662D01*
X15046874Y-12607662D02*
X15056398Y-12588614D01*
X15056398Y-12588614D02*
X15075446Y-12579090D01*
X15075446Y-12579090D02*
X15104017Y-12579090D01*
X15104017Y-12579090D02*
X15123065Y-12588614D01*
X15199255Y-12788614D02*
X15208779Y-12779090D01*
X15208779Y-12779090D02*
X15227827Y-12750519D01*
X15227827Y-12750519D02*
X15237351Y-12731471D01*
X15237351Y-12731471D02*
X15246874Y-12702900D01*
X15246874Y-12702900D02*
X15256398Y-12655281D01*
X15256398Y-12655281D02*
X15256398Y-12617186D01*
X15256398Y-12617186D02*
X15246874Y-12569567D01*
X15246874Y-12569567D02*
X15237351Y-12540995D01*
X15237351Y-12540995D02*
X15227827Y-12521948D01*
X15227827Y-12521948D02*
X15208779Y-12493376D01*
X15208779Y-12493376D02*
X15199255Y-12483852D01*
D14*
X10023240Y-12864940D02*
X10023240Y-12904940D01*
X10003240Y-12884940D02*
X10043240Y-12884940D01*
D11*
X10342112Y-12776424D02*
X10361160Y-12776424D01*
X10361160Y-12776424D02*
X10380207Y-12785948D01*
X10380207Y-12785948D02*
X10389731Y-12795471D01*
X10389731Y-12795471D02*
X10399255Y-12814519D01*
X10399255Y-12814519D02*
X10408779Y-12852614D01*
X10408779Y-12852614D02*
X10408779Y-12900233D01*
X10408779Y-12900233D02*
X10399255Y-12938328D01*
X10399255Y-12938328D02*
X10389731Y-12957376D01*
X10389731Y-12957376D02*
X10380207Y-12966900D01*
X10380207Y-12966900D02*
X10361160Y-12976424D01*
X10361160Y-12976424D02*
X10342112Y-12976424D01*
X10342112Y-12976424D02*
X10323064Y-12966900D01*
X10323064Y-12966900D02*
X10313541Y-12957376D01*
X10313541Y-12957376D02*
X10304017Y-12938328D01*
X10304017Y-12938328D02*
X10294493Y-12900233D01*
X10294493Y-12900233D02*
X10294493Y-12852614D01*
X10294493Y-12852614D02*
X10304017Y-12814519D01*
X10304017Y-12814519D02*
X10313541Y-12795471D01*
X10313541Y-12795471D02*
X10323064Y-12785948D01*
X10323064Y-12785948D02*
X10342112Y-12776424D01*
X10494493Y-12957376D02*
X10504017Y-12966900D01*
X10504017Y-12966900D02*
X10494493Y-12976424D01*
X10494493Y-12976424D02*
X10484969Y-12966900D01*
X10484969Y-12966900D02*
X10494493Y-12957376D01*
X10494493Y-12957376D02*
X10494493Y-12976424D01*
X10675445Y-12843090D02*
X10675445Y-12976424D01*
X10627826Y-12766900D02*
X10580207Y-12909757D01*
X10580207Y-12909757D02*
X10704017Y-12909757D01*
X10818303Y-12776424D02*
X10837350Y-12776424D01*
X10837350Y-12776424D02*
X10856398Y-12785948D01*
X10856398Y-12785948D02*
X10865922Y-12795471D01*
X10865922Y-12795471D02*
X10875445Y-12814519D01*
X10875445Y-12814519D02*
X10884969Y-12852614D01*
X10884969Y-12852614D02*
X10884969Y-12900233D01*
X10884969Y-12900233D02*
X10875445Y-12938328D01*
X10875445Y-12938328D02*
X10865922Y-12957376D01*
X10865922Y-12957376D02*
X10856398Y-12966900D01*
X10856398Y-12966900D02*
X10837350Y-12976424D01*
X10837350Y-12976424D02*
X10818303Y-12976424D01*
X10818303Y-12976424D02*
X10799255Y-12966900D01*
X10799255Y-12966900D02*
X10789731Y-12957376D01*
X10789731Y-12957376D02*
X10780207Y-12938328D01*
X10780207Y-12938328D02*
X10770684Y-12900233D01*
X10770684Y-12900233D02*
X10770684Y-12852614D01*
X10770684Y-12852614D02*
X10780207Y-12814519D01*
X10780207Y-12814519D02*
X10789731Y-12795471D01*
X10789731Y-12795471D02*
X10799255Y-12785948D01*
X10799255Y-12785948D02*
X10818303Y-12776424D01*
X11008779Y-12776424D02*
X11027826Y-12776424D01*
X11027826Y-12776424D02*
X11046874Y-12785948D01*
X11046874Y-12785948D02*
X11056398Y-12795471D01*
X11056398Y-12795471D02*
X11065922Y-12814519D01*
X11065922Y-12814519D02*
X11075445Y-12852614D01*
X11075445Y-12852614D02*
X11075445Y-12900233D01*
X11075445Y-12900233D02*
X11065922Y-12938328D01*
X11065922Y-12938328D02*
X11056398Y-12957376D01*
X11056398Y-12957376D02*
X11046874Y-12966900D01*
X11046874Y-12966900D02*
X11027826Y-12976424D01*
X11027826Y-12976424D02*
X11008779Y-12976424D01*
X11008779Y-12976424D02*
X10989731Y-12966900D01*
X10989731Y-12966900D02*
X10980207Y-12957376D01*
X10980207Y-12957376D02*
X10970684Y-12938328D01*
X10970684Y-12938328D02*
X10961160Y-12900233D01*
X10961160Y-12900233D02*
X10961160Y-12852614D01*
X10961160Y-12852614D02*
X10970684Y-12814519D01*
X10970684Y-12814519D02*
X10980207Y-12795471D01*
X10980207Y-12795471D02*
X10989731Y-12785948D01*
X10989731Y-12785948D02*
X11008779Y-12776424D01*
X11161160Y-12976424D02*
X11161160Y-12843090D01*
X11161160Y-12862138D02*
X11170684Y-12852614D01*
X11170684Y-12852614D02*
X11189731Y-12843090D01*
X11189731Y-12843090D02*
X11218303Y-12843090D01*
X11218303Y-12843090D02*
X11237350Y-12852614D01*
X11237350Y-12852614D02*
X11246874Y-12871662D01*
X11246874Y-12871662D02*
X11246874Y-12976424D01*
X11246874Y-12871662D02*
X11256398Y-12852614D01*
X11256398Y-12852614D02*
X11275445Y-12843090D01*
X11275445Y-12843090D02*
X11304017Y-12843090D01*
X11304017Y-12843090D02*
X11323064Y-12852614D01*
X11323064Y-12852614D02*
X11332588Y-12871662D01*
X11332588Y-12871662D02*
X11332588Y-12976424D01*
X11427826Y-12976424D02*
X11427826Y-12843090D01*
X11427826Y-12862138D02*
X11437350Y-12852614D01*
X11437350Y-12852614D02*
X11456398Y-12843090D01*
X11456398Y-12843090D02*
X11484969Y-12843090D01*
X11484969Y-12843090D02*
X11504017Y-12852614D01*
X11504017Y-12852614D02*
X11513541Y-12871662D01*
X11513541Y-12871662D02*
X11513541Y-12976424D01*
X11513541Y-12871662D02*
X11523064Y-12852614D01*
X11523064Y-12852614D02*
X11542112Y-12843090D01*
X11542112Y-12843090D02*
X11570683Y-12843090D01*
X11570683Y-12843090D02*
X11589731Y-12852614D01*
X11589731Y-12852614D02*
X11599255Y-12871662D01*
X11599255Y-12871662D02*
X11599255Y-12976424D01*
X11989731Y-12766900D02*
X11818303Y-13024043D01*
X12246874Y-12776424D02*
X12265922Y-12776424D01*
X12265922Y-12776424D02*
X12284969Y-12785948D01*
X12284969Y-12785948D02*
X12294493Y-12795471D01*
X12294493Y-12795471D02*
X12304017Y-12814519D01*
X12304017Y-12814519D02*
X12313541Y-12852614D01*
X12313541Y-12852614D02*
X12313541Y-12900233D01*
X12313541Y-12900233D02*
X12304017Y-12938328D01*
X12304017Y-12938328D02*
X12294493Y-12957376D01*
X12294493Y-12957376D02*
X12284969Y-12966900D01*
X12284969Y-12966900D02*
X12265922Y-12976424D01*
X12265922Y-12976424D02*
X12246874Y-12976424D01*
X12246874Y-12976424D02*
X12227826Y-12966900D01*
X12227826Y-12966900D02*
X12218303Y-12957376D01*
X12218303Y-12957376D02*
X12208779Y-12938328D01*
X12208779Y-12938328D02*
X12199255Y-12900233D01*
X12199255Y-12900233D02*
X12199255Y-12852614D01*
X12199255Y-12852614D02*
X12208779Y-12814519D01*
X12208779Y-12814519D02*
X12218303Y-12795471D01*
X12218303Y-12795471D02*
X12227826Y-12785948D01*
X12227826Y-12785948D02*
X12246874Y-12776424D01*
X12399255Y-12957376D02*
X12408779Y-12966900D01*
X12408779Y-12966900D02*
X12399255Y-12976424D01*
X12399255Y-12976424D02*
X12389731Y-12966900D01*
X12389731Y-12966900D02*
X12399255Y-12957376D01*
X12399255Y-12957376D02*
X12399255Y-12976424D01*
X12532588Y-12776424D02*
X12551636Y-12776424D01*
X12551636Y-12776424D02*
X12570684Y-12785948D01*
X12570684Y-12785948D02*
X12580207Y-12795471D01*
X12580207Y-12795471D02*
X12589731Y-12814519D01*
X12589731Y-12814519D02*
X12599255Y-12852614D01*
X12599255Y-12852614D02*
X12599255Y-12900233D01*
X12599255Y-12900233D02*
X12589731Y-12938328D01*
X12589731Y-12938328D02*
X12580207Y-12957376D01*
X12580207Y-12957376D02*
X12570684Y-12966900D01*
X12570684Y-12966900D02*
X12551636Y-12976424D01*
X12551636Y-12976424D02*
X12532588Y-12976424D01*
X12532588Y-12976424D02*
X12513541Y-12966900D01*
X12513541Y-12966900D02*
X12504017Y-12957376D01*
X12504017Y-12957376D02*
X12494493Y-12938328D01*
X12494493Y-12938328D02*
X12484969Y-12900233D01*
X12484969Y-12900233D02*
X12484969Y-12852614D01*
X12484969Y-12852614D02*
X12494493Y-12814519D01*
X12494493Y-12814519D02*
X12504017Y-12795471D01*
X12504017Y-12795471D02*
X12513541Y-12785948D01*
X12513541Y-12785948D02*
X12532588Y-12776424D01*
X12789731Y-12976424D02*
X12675446Y-12976424D01*
X12732588Y-12976424D02*
X12732588Y-12776424D01*
X12732588Y-12776424D02*
X12713541Y-12804995D01*
X12713541Y-12804995D02*
X12694493Y-12824043D01*
X12694493Y-12824043D02*
X12675446Y-12833567D01*
X12970684Y-12776424D02*
X12875446Y-12776424D01*
X12875446Y-12776424D02*
X12865922Y-12871662D01*
X12865922Y-12871662D02*
X12875446Y-12862138D01*
X12875446Y-12862138D02*
X12894493Y-12852614D01*
X12894493Y-12852614D02*
X12942112Y-12852614D01*
X12942112Y-12852614D02*
X12961160Y-12862138D01*
X12961160Y-12862138D02*
X12970684Y-12871662D01*
X12970684Y-12871662D02*
X12980207Y-12890709D01*
X12980207Y-12890709D02*
X12980207Y-12938328D01*
X12980207Y-12938328D02*
X12970684Y-12957376D01*
X12970684Y-12957376D02*
X12961160Y-12966900D01*
X12961160Y-12966900D02*
X12942112Y-12976424D01*
X12942112Y-12976424D02*
X12894493Y-12976424D01*
X12894493Y-12976424D02*
X12875446Y-12966900D01*
X12875446Y-12966900D02*
X12865922Y-12957376D01*
X13046874Y-12776424D02*
X13180207Y-12776424D01*
X13180207Y-12776424D02*
X13094493Y-12976424D01*
X13246874Y-12776424D02*
X13246874Y-12814519D01*
X13323065Y-12776424D02*
X13323065Y-12814519D01*
X13618303Y-13052614D02*
X13608779Y-13043090D01*
X13608779Y-13043090D02*
X13589731Y-13014519D01*
X13589731Y-13014519D02*
X13580208Y-12995471D01*
X13580208Y-12995471D02*
X13570684Y-12966900D01*
X13570684Y-12966900D02*
X13561160Y-12919281D01*
X13561160Y-12919281D02*
X13561160Y-12881186D01*
X13561160Y-12881186D02*
X13570684Y-12833567D01*
X13570684Y-12833567D02*
X13580208Y-12804995D01*
X13580208Y-12804995D02*
X13589731Y-12785948D01*
X13589731Y-12785948D02*
X13608779Y-12757376D01*
X13608779Y-12757376D02*
X13618303Y-12747852D01*
X13723065Y-12862138D02*
X13704017Y-12852614D01*
X13704017Y-12852614D02*
X13694493Y-12843090D01*
X13694493Y-12843090D02*
X13684969Y-12824043D01*
X13684969Y-12824043D02*
X13684969Y-12814519D01*
X13684969Y-12814519D02*
X13694493Y-12795471D01*
X13694493Y-12795471D02*
X13704017Y-12785948D01*
X13704017Y-12785948D02*
X13723065Y-12776424D01*
X13723065Y-12776424D02*
X13761160Y-12776424D01*
X13761160Y-12776424D02*
X13780208Y-12785948D01*
X13780208Y-12785948D02*
X13789731Y-12795471D01*
X13789731Y-12795471D02*
X13799255Y-12814519D01*
X13799255Y-12814519D02*
X13799255Y-12824043D01*
X13799255Y-12824043D02*
X13789731Y-12843090D01*
X13789731Y-12843090D02*
X13780208Y-12852614D01*
X13780208Y-12852614D02*
X13761160Y-12862138D01*
X13761160Y-12862138D02*
X13723065Y-12862138D01*
X13723065Y-12862138D02*
X13704017Y-12871662D01*
X13704017Y-12871662D02*
X13694493Y-12881186D01*
X13694493Y-12881186D02*
X13684969Y-12900233D01*
X13684969Y-12900233D02*
X13684969Y-12938328D01*
X13684969Y-12938328D02*
X13694493Y-12957376D01*
X13694493Y-12957376D02*
X13704017Y-12966900D01*
X13704017Y-12966900D02*
X13723065Y-12976424D01*
X13723065Y-12976424D02*
X13761160Y-12976424D01*
X13761160Y-12976424D02*
X13780208Y-12966900D01*
X13780208Y-12966900D02*
X13789731Y-12957376D01*
X13789731Y-12957376D02*
X13799255Y-12938328D01*
X13799255Y-12938328D02*
X13799255Y-12900233D01*
X13799255Y-12900233D02*
X13789731Y-12881186D01*
X13789731Y-12881186D02*
X13780208Y-12871662D01*
X13780208Y-12871662D02*
X13761160Y-12862138D01*
X13865922Y-12776424D02*
X13999255Y-12776424D01*
X13999255Y-12776424D02*
X13913541Y-12976424D01*
X14227827Y-12976424D02*
X14227827Y-12776424D01*
X14313541Y-12976424D02*
X14313541Y-12871662D01*
X14313541Y-12871662D02*
X14304017Y-12852614D01*
X14304017Y-12852614D02*
X14284970Y-12843090D01*
X14284970Y-12843090D02*
X14256398Y-12843090D01*
X14256398Y-12843090D02*
X14237350Y-12852614D01*
X14237350Y-12852614D02*
X14227827Y-12862138D01*
X14437350Y-12976424D02*
X14418303Y-12966900D01*
X14418303Y-12966900D02*
X14408779Y-12957376D01*
X14408779Y-12957376D02*
X14399255Y-12938328D01*
X14399255Y-12938328D02*
X14399255Y-12881186D01*
X14399255Y-12881186D02*
X14408779Y-12862138D01*
X14408779Y-12862138D02*
X14418303Y-12852614D01*
X14418303Y-12852614D02*
X14437350Y-12843090D01*
X14437350Y-12843090D02*
X14465922Y-12843090D01*
X14465922Y-12843090D02*
X14484970Y-12852614D01*
X14484970Y-12852614D02*
X14494493Y-12862138D01*
X14494493Y-12862138D02*
X14504017Y-12881186D01*
X14504017Y-12881186D02*
X14504017Y-12938328D01*
X14504017Y-12938328D02*
X14494493Y-12957376D01*
X14494493Y-12957376D02*
X14484970Y-12966900D01*
X14484970Y-12966900D02*
X14465922Y-12976424D01*
X14465922Y-12976424D02*
X14437350Y-12976424D01*
X14618303Y-12976424D02*
X14599255Y-12966900D01*
X14599255Y-12966900D02*
X14589731Y-12947852D01*
X14589731Y-12947852D02*
X14589731Y-12776424D01*
X14770684Y-12966900D02*
X14751636Y-12976424D01*
X14751636Y-12976424D02*
X14713541Y-12976424D01*
X14713541Y-12976424D02*
X14694493Y-12966900D01*
X14694493Y-12966900D02*
X14684970Y-12947852D01*
X14684970Y-12947852D02*
X14684970Y-12871662D01*
X14684970Y-12871662D02*
X14694493Y-12852614D01*
X14694493Y-12852614D02*
X14713541Y-12843090D01*
X14713541Y-12843090D02*
X14751636Y-12843090D01*
X14751636Y-12843090D02*
X14770684Y-12852614D01*
X14770684Y-12852614D02*
X14780208Y-12871662D01*
X14780208Y-12871662D02*
X14780208Y-12890709D01*
X14780208Y-12890709D02*
X14684970Y-12909757D01*
X14856398Y-12966900D02*
X14875446Y-12976424D01*
X14875446Y-12976424D02*
X14913541Y-12976424D01*
X14913541Y-12976424D02*
X14932589Y-12966900D01*
X14932589Y-12966900D02*
X14942112Y-12947852D01*
X14942112Y-12947852D02*
X14942112Y-12938328D01*
X14942112Y-12938328D02*
X14932589Y-12919281D01*
X14932589Y-12919281D02*
X14913541Y-12909757D01*
X14913541Y-12909757D02*
X14884970Y-12909757D01*
X14884970Y-12909757D02*
X14865922Y-12900233D01*
X14865922Y-12900233D02*
X14856398Y-12881186D01*
X14856398Y-12881186D02*
X14856398Y-12871662D01*
X14856398Y-12871662D02*
X14865922Y-12852614D01*
X14865922Y-12852614D02*
X14884970Y-12843090D01*
X14884970Y-12843090D02*
X14913541Y-12843090D01*
X14913541Y-12843090D02*
X14932589Y-12852614D01*
X15008779Y-13052614D02*
X15018303Y-13043090D01*
X15018303Y-13043090D02*
X15037351Y-13014519D01*
X15037351Y-13014519D02*
X15046874Y-12995471D01*
X15046874Y-12995471D02*
X15056398Y-12966900D01*
X15056398Y-12966900D02*
X15065922Y-12919281D01*
X15065922Y-12919281D02*
X15065922Y-12881186D01*
X15065922Y-12881186D02*
X15056398Y-12833567D01*
X15056398Y-12833567D02*
X15046874Y-12804995D01*
X15046874Y-12804995D02*
X15037351Y-12785948D01*
X15037351Y-12785948D02*
X15018303Y-12757376D01*
X15018303Y-12757376D02*
X15008779Y-12747852D01*
D15*
X10035918Y-13166618D02*
X10035918Y-13131262D01*
X10000562Y-13131262D01*
X10000562Y-13166618D01*
X10035918Y-13166618D01*
D11*
X10342112Y-13040424D02*
X10361160Y-13040424D01*
X10361160Y-13040424D02*
X10380207Y-13049948D01*
X10380207Y-13049948D02*
X10389731Y-13059471D01*
X10389731Y-13059471D02*
X10399255Y-13078519D01*
X10399255Y-13078519D02*
X10408779Y-13116614D01*
X10408779Y-13116614D02*
X10408779Y-13164233D01*
X10408779Y-13164233D02*
X10399255Y-13202328D01*
X10399255Y-13202328D02*
X10389731Y-13221376D01*
X10389731Y-13221376D02*
X10380207Y-13230900D01*
X10380207Y-13230900D02*
X10361160Y-13240424D01*
X10361160Y-13240424D02*
X10342112Y-13240424D01*
X10342112Y-13240424D02*
X10323064Y-13230900D01*
X10323064Y-13230900D02*
X10313541Y-13221376D01*
X10313541Y-13221376D02*
X10304017Y-13202328D01*
X10304017Y-13202328D02*
X10294493Y-13164233D01*
X10294493Y-13164233D02*
X10294493Y-13116614D01*
X10294493Y-13116614D02*
X10304017Y-13078519D01*
X10304017Y-13078519D02*
X10313541Y-13059471D01*
X10313541Y-13059471D02*
X10323064Y-13049948D01*
X10323064Y-13049948D02*
X10342112Y-13040424D01*
X10494493Y-13221376D02*
X10504017Y-13230900D01*
X10504017Y-13230900D02*
X10494493Y-13240424D01*
X10494493Y-13240424D02*
X10484969Y-13230900D01*
X10484969Y-13230900D02*
X10494493Y-13221376D01*
X10494493Y-13221376D02*
X10494493Y-13240424D01*
X10684969Y-13040424D02*
X10589731Y-13040424D01*
X10589731Y-13040424D02*
X10580207Y-13135662D01*
X10580207Y-13135662D02*
X10589731Y-13126138D01*
X10589731Y-13126138D02*
X10608779Y-13116614D01*
X10608779Y-13116614D02*
X10656398Y-13116614D01*
X10656398Y-13116614D02*
X10675445Y-13126138D01*
X10675445Y-13126138D02*
X10684969Y-13135662D01*
X10684969Y-13135662D02*
X10694493Y-13154709D01*
X10694493Y-13154709D02*
X10694493Y-13202328D01*
X10694493Y-13202328D02*
X10684969Y-13221376D01*
X10684969Y-13221376D02*
X10675445Y-13230900D01*
X10675445Y-13230900D02*
X10656398Y-13240424D01*
X10656398Y-13240424D02*
X10608779Y-13240424D01*
X10608779Y-13240424D02*
X10589731Y-13230900D01*
X10589731Y-13230900D02*
X10580207Y-13221376D01*
X10818303Y-13040424D02*
X10837350Y-13040424D01*
X10837350Y-13040424D02*
X10856398Y-13049948D01*
X10856398Y-13049948D02*
X10865922Y-13059471D01*
X10865922Y-13059471D02*
X10875445Y-13078519D01*
X10875445Y-13078519D02*
X10884969Y-13116614D01*
X10884969Y-13116614D02*
X10884969Y-13164233D01*
X10884969Y-13164233D02*
X10875445Y-13202328D01*
X10875445Y-13202328D02*
X10865922Y-13221376D01*
X10865922Y-13221376D02*
X10856398Y-13230900D01*
X10856398Y-13230900D02*
X10837350Y-13240424D01*
X10837350Y-13240424D02*
X10818303Y-13240424D01*
X10818303Y-13240424D02*
X10799255Y-13230900D01*
X10799255Y-13230900D02*
X10789731Y-13221376D01*
X10789731Y-13221376D02*
X10780207Y-13202328D01*
X10780207Y-13202328D02*
X10770684Y-13164233D01*
X10770684Y-13164233D02*
X10770684Y-13116614D01*
X10770684Y-13116614D02*
X10780207Y-13078519D01*
X10780207Y-13078519D02*
X10789731Y-13059471D01*
X10789731Y-13059471D02*
X10799255Y-13049948D01*
X10799255Y-13049948D02*
X10818303Y-13040424D01*
X11008779Y-13040424D02*
X11027826Y-13040424D01*
X11027826Y-13040424D02*
X11046874Y-13049948D01*
X11046874Y-13049948D02*
X11056398Y-13059471D01*
X11056398Y-13059471D02*
X11065922Y-13078519D01*
X11065922Y-13078519D02*
X11075445Y-13116614D01*
X11075445Y-13116614D02*
X11075445Y-13164233D01*
X11075445Y-13164233D02*
X11065922Y-13202328D01*
X11065922Y-13202328D02*
X11056398Y-13221376D01*
X11056398Y-13221376D02*
X11046874Y-13230900D01*
X11046874Y-13230900D02*
X11027826Y-13240424D01*
X11027826Y-13240424D02*
X11008779Y-13240424D01*
X11008779Y-13240424D02*
X10989731Y-13230900D01*
X10989731Y-13230900D02*
X10980207Y-13221376D01*
X10980207Y-13221376D02*
X10970684Y-13202328D01*
X10970684Y-13202328D02*
X10961160Y-13164233D01*
X10961160Y-13164233D02*
X10961160Y-13116614D01*
X10961160Y-13116614D02*
X10970684Y-13078519D01*
X10970684Y-13078519D02*
X10980207Y-13059471D01*
X10980207Y-13059471D02*
X10989731Y-13049948D01*
X10989731Y-13049948D02*
X11008779Y-13040424D01*
X11161160Y-13240424D02*
X11161160Y-13107090D01*
X11161160Y-13126138D02*
X11170684Y-13116614D01*
X11170684Y-13116614D02*
X11189731Y-13107090D01*
X11189731Y-13107090D02*
X11218303Y-13107090D01*
X11218303Y-13107090D02*
X11237350Y-13116614D01*
X11237350Y-13116614D02*
X11246874Y-13135662D01*
X11246874Y-13135662D02*
X11246874Y-13240424D01*
X11246874Y-13135662D02*
X11256398Y-13116614D01*
X11256398Y-13116614D02*
X11275445Y-13107090D01*
X11275445Y-13107090D02*
X11304017Y-13107090D01*
X11304017Y-13107090D02*
X11323064Y-13116614D01*
X11323064Y-13116614D02*
X11332588Y-13135662D01*
X11332588Y-13135662D02*
X11332588Y-13240424D01*
X11427826Y-13240424D02*
X11427826Y-13107090D01*
X11427826Y-13126138D02*
X11437350Y-13116614D01*
X11437350Y-13116614D02*
X11456398Y-13107090D01*
X11456398Y-13107090D02*
X11484969Y-13107090D01*
X11484969Y-13107090D02*
X11504017Y-13116614D01*
X11504017Y-13116614D02*
X11513541Y-13135662D01*
X11513541Y-13135662D02*
X11513541Y-13240424D01*
X11513541Y-13135662D02*
X11523064Y-13116614D01*
X11523064Y-13116614D02*
X11542112Y-13107090D01*
X11542112Y-13107090D02*
X11570683Y-13107090D01*
X11570683Y-13107090D02*
X11589731Y-13116614D01*
X11589731Y-13116614D02*
X11599255Y-13135662D01*
X11599255Y-13135662D02*
X11599255Y-13240424D01*
X11989731Y-13030900D02*
X11818303Y-13288043D01*
X12246874Y-13040424D02*
X12265922Y-13040424D01*
X12265922Y-13040424D02*
X12284969Y-13049948D01*
X12284969Y-13049948D02*
X12294493Y-13059471D01*
X12294493Y-13059471D02*
X12304017Y-13078519D01*
X12304017Y-13078519D02*
X12313541Y-13116614D01*
X12313541Y-13116614D02*
X12313541Y-13164233D01*
X12313541Y-13164233D02*
X12304017Y-13202328D01*
X12304017Y-13202328D02*
X12294493Y-13221376D01*
X12294493Y-13221376D02*
X12284969Y-13230900D01*
X12284969Y-13230900D02*
X12265922Y-13240424D01*
X12265922Y-13240424D02*
X12246874Y-13240424D01*
X12246874Y-13240424D02*
X12227826Y-13230900D01*
X12227826Y-13230900D02*
X12218303Y-13221376D01*
X12218303Y-13221376D02*
X12208779Y-13202328D01*
X12208779Y-13202328D02*
X12199255Y-13164233D01*
X12199255Y-13164233D02*
X12199255Y-13116614D01*
X12199255Y-13116614D02*
X12208779Y-13078519D01*
X12208779Y-13078519D02*
X12218303Y-13059471D01*
X12218303Y-13059471D02*
X12227826Y-13049948D01*
X12227826Y-13049948D02*
X12246874Y-13040424D01*
X12399255Y-13221376D02*
X12408779Y-13230900D01*
X12408779Y-13230900D02*
X12399255Y-13240424D01*
X12399255Y-13240424D02*
X12389731Y-13230900D01*
X12389731Y-13230900D02*
X12399255Y-13221376D01*
X12399255Y-13221376D02*
X12399255Y-13240424D01*
X12532588Y-13040424D02*
X12551636Y-13040424D01*
X12551636Y-13040424D02*
X12570684Y-13049948D01*
X12570684Y-13049948D02*
X12580207Y-13059471D01*
X12580207Y-13059471D02*
X12589731Y-13078519D01*
X12589731Y-13078519D02*
X12599255Y-13116614D01*
X12599255Y-13116614D02*
X12599255Y-13164233D01*
X12599255Y-13164233D02*
X12589731Y-13202328D01*
X12589731Y-13202328D02*
X12580207Y-13221376D01*
X12580207Y-13221376D02*
X12570684Y-13230900D01*
X12570684Y-13230900D02*
X12551636Y-13240424D01*
X12551636Y-13240424D02*
X12532588Y-13240424D01*
X12532588Y-13240424D02*
X12513541Y-13230900D01*
X12513541Y-13230900D02*
X12504017Y-13221376D01*
X12504017Y-13221376D02*
X12494493Y-13202328D01*
X12494493Y-13202328D02*
X12484969Y-13164233D01*
X12484969Y-13164233D02*
X12484969Y-13116614D01*
X12484969Y-13116614D02*
X12494493Y-13078519D01*
X12494493Y-13078519D02*
X12504017Y-13059471D01*
X12504017Y-13059471D02*
X12513541Y-13049948D01*
X12513541Y-13049948D02*
X12532588Y-13040424D01*
X12789731Y-13240424D02*
X12675446Y-13240424D01*
X12732588Y-13240424D02*
X12732588Y-13040424D01*
X12732588Y-13040424D02*
X12713541Y-13068995D01*
X12713541Y-13068995D02*
X12694493Y-13088043D01*
X12694493Y-13088043D02*
X12675446Y-13097567D01*
X12884969Y-13240424D02*
X12923065Y-13240424D01*
X12923065Y-13240424D02*
X12942112Y-13230900D01*
X12942112Y-13230900D02*
X12951636Y-13221376D01*
X12951636Y-13221376D02*
X12970684Y-13192805D01*
X12970684Y-13192805D02*
X12980207Y-13154709D01*
X12980207Y-13154709D02*
X12980207Y-13078519D01*
X12980207Y-13078519D02*
X12970684Y-13059471D01*
X12970684Y-13059471D02*
X12961160Y-13049948D01*
X12961160Y-13049948D02*
X12942112Y-13040424D01*
X12942112Y-13040424D02*
X12904017Y-13040424D01*
X12904017Y-13040424D02*
X12884969Y-13049948D01*
X12884969Y-13049948D02*
X12875446Y-13059471D01*
X12875446Y-13059471D02*
X12865922Y-13078519D01*
X12865922Y-13078519D02*
X12865922Y-13126138D01*
X12865922Y-13126138D02*
X12875446Y-13145186D01*
X12875446Y-13145186D02*
X12884969Y-13154709D01*
X12884969Y-13154709D02*
X12904017Y-13164233D01*
X12904017Y-13164233D02*
X12942112Y-13164233D01*
X12942112Y-13164233D02*
X12961160Y-13154709D01*
X12961160Y-13154709D02*
X12970684Y-13145186D01*
X12970684Y-13145186D02*
X12980207Y-13126138D01*
X13046874Y-13040424D02*
X13180207Y-13040424D01*
X13180207Y-13040424D02*
X13094493Y-13240424D01*
X13246874Y-13040424D02*
X13246874Y-13078519D01*
X13323065Y-13040424D02*
X13323065Y-13078519D01*
X13618303Y-13316614D02*
X13608779Y-13307090D01*
X13608779Y-13307090D02*
X13589731Y-13278519D01*
X13589731Y-13278519D02*
X13580208Y-13259471D01*
X13580208Y-13259471D02*
X13570684Y-13230900D01*
X13570684Y-13230900D02*
X13561160Y-13183281D01*
X13561160Y-13183281D02*
X13561160Y-13145186D01*
X13561160Y-13145186D02*
X13570684Y-13097567D01*
X13570684Y-13097567D02*
X13580208Y-13068995D01*
X13580208Y-13068995D02*
X13589731Y-13049948D01*
X13589731Y-13049948D02*
X13608779Y-13021376D01*
X13608779Y-13021376D02*
X13618303Y-13011852D01*
X13799255Y-13240424D02*
X13684969Y-13240424D01*
X13742112Y-13240424D02*
X13742112Y-13040424D01*
X13742112Y-13040424D02*
X13723065Y-13068995D01*
X13723065Y-13068995D02*
X13704017Y-13088043D01*
X13704017Y-13088043D02*
X13684969Y-13097567D01*
X13970684Y-13040424D02*
X13932588Y-13040424D01*
X13932588Y-13040424D02*
X13913541Y-13049948D01*
X13913541Y-13049948D02*
X13904017Y-13059471D01*
X13904017Y-13059471D02*
X13884969Y-13088043D01*
X13884969Y-13088043D02*
X13875446Y-13126138D01*
X13875446Y-13126138D02*
X13875446Y-13202328D01*
X13875446Y-13202328D02*
X13884969Y-13221376D01*
X13884969Y-13221376D02*
X13894493Y-13230900D01*
X13894493Y-13230900D02*
X13913541Y-13240424D01*
X13913541Y-13240424D02*
X13951636Y-13240424D01*
X13951636Y-13240424D02*
X13970684Y-13230900D01*
X13970684Y-13230900D02*
X13980208Y-13221376D01*
X13980208Y-13221376D02*
X13989731Y-13202328D01*
X13989731Y-13202328D02*
X13989731Y-13154709D01*
X13989731Y-13154709D02*
X13980208Y-13135662D01*
X13980208Y-13135662D02*
X13970684Y-13126138D01*
X13970684Y-13126138D02*
X13951636Y-13116614D01*
X13951636Y-13116614D02*
X13913541Y-13116614D01*
X13913541Y-13116614D02*
X13894493Y-13126138D01*
X13894493Y-13126138D02*
X13884969Y-13135662D01*
X13884969Y-13135662D02*
X13875446Y-13154709D01*
X14227827Y-13240424D02*
X14227827Y-13040424D01*
X14313541Y-13240424D02*
X14313541Y-13135662D01*
X14313541Y-13135662D02*
X14304017Y-13116614D01*
X14304017Y-13116614D02*
X14284970Y-13107090D01*
X14284970Y-13107090D02*
X14256398Y-13107090D01*
X14256398Y-13107090D02*
X14237350Y-13116614D01*
X14237350Y-13116614D02*
X14227827Y-13126138D01*
X14437350Y-13240424D02*
X14418303Y-13230900D01*
X14418303Y-13230900D02*
X14408779Y-13221376D01*
X14408779Y-13221376D02*
X14399255Y-13202328D01*
X14399255Y-13202328D02*
X14399255Y-13145186D01*
X14399255Y-13145186D02*
X14408779Y-13126138D01*
X14408779Y-13126138D02*
X14418303Y-13116614D01*
X14418303Y-13116614D02*
X14437350Y-13107090D01*
X14437350Y-13107090D02*
X14465922Y-13107090D01*
X14465922Y-13107090D02*
X14484970Y-13116614D01*
X14484970Y-13116614D02*
X14494493Y-13126138D01*
X14494493Y-13126138D02*
X14504017Y-13145186D01*
X14504017Y-13145186D02*
X14504017Y-13202328D01*
X14504017Y-13202328D02*
X14494493Y-13221376D01*
X14494493Y-13221376D02*
X14484970Y-13230900D01*
X14484970Y-13230900D02*
X14465922Y-13240424D01*
X14465922Y-13240424D02*
X14437350Y-13240424D01*
X14618303Y-13240424D02*
X14599255Y-13230900D01*
X14599255Y-13230900D02*
X14589731Y-13211852D01*
X14589731Y-13211852D02*
X14589731Y-13040424D01*
X14770684Y-13230900D02*
X14751636Y-13240424D01*
X14751636Y-13240424D02*
X14713541Y-13240424D01*
X14713541Y-13240424D02*
X14694493Y-13230900D01*
X14694493Y-13230900D02*
X14684970Y-13211852D01*
X14684970Y-13211852D02*
X14684970Y-13135662D01*
X14684970Y-13135662D02*
X14694493Y-13116614D01*
X14694493Y-13116614D02*
X14713541Y-13107090D01*
X14713541Y-13107090D02*
X14751636Y-13107090D01*
X14751636Y-13107090D02*
X14770684Y-13116614D01*
X14770684Y-13116614D02*
X14780208Y-13135662D01*
X14780208Y-13135662D02*
X14780208Y-13154709D01*
X14780208Y-13154709D02*
X14684970Y-13173757D01*
X14856398Y-13230900D02*
X14875446Y-13240424D01*
X14875446Y-13240424D02*
X14913541Y-13240424D01*
X14913541Y-13240424D02*
X14932589Y-13230900D01*
X14932589Y-13230900D02*
X14942112Y-13211852D01*
X14942112Y-13211852D02*
X14942112Y-13202328D01*
X14942112Y-13202328D02*
X14932589Y-13183281D01*
X14932589Y-13183281D02*
X14913541Y-13173757D01*
X14913541Y-13173757D02*
X14884970Y-13173757D01*
X14884970Y-13173757D02*
X14865922Y-13164233D01*
X14865922Y-13164233D02*
X14856398Y-13145186D01*
X14856398Y-13145186D02*
X14856398Y-13135662D01*
X14856398Y-13135662D02*
X14865922Y-13116614D01*
X14865922Y-13116614D02*
X14884970Y-13107090D01*
X14884970Y-13107090D02*
X14913541Y-13107090D01*
X14913541Y-13107090D02*
X14932589Y-13116614D01*
X15008779Y-13316614D02*
X15018303Y-13307090D01*
X15018303Y-13307090D02*
X15037351Y-13278519D01*
X15037351Y-13278519D02*
X15046874Y-13259471D01*
X15046874Y-13259471D02*
X15056398Y-13230900D01*
X15056398Y-13230900D02*
X15065922Y-13183281D01*
X15065922Y-13183281D02*
X15065922Y-13145186D01*
X15065922Y-13145186D02*
X15056398Y-13097567D01*
X15056398Y-13097567D02*
X15046874Y-13068995D01*
X15046874Y-13068995D02*
X15037351Y-13049948D01*
X15037351Y-13049948D02*
X15018303Y-13021376D01*
X15018303Y-13021376D02*
X15008779Y-13011852D01*
D10*
X9993240Y-13462940D02*
X10043240Y-13412940D01*
X9993240Y-13362940D01*
X9943240Y-13412940D01*
X9993240Y-13462940D01*
D11*
X10408779Y-13504424D02*
X10294493Y-13504424D01*
X10351636Y-13504424D02*
X10351636Y-13304424D01*
X10351636Y-13304424D02*
X10332588Y-13332995D01*
X10332588Y-13332995D02*
X10313541Y-13352043D01*
X10313541Y-13352043D02*
X10294493Y-13361567D01*
X10494493Y-13485376D02*
X10504017Y-13494900D01*
X10504017Y-13494900D02*
X10494493Y-13504424D01*
X10494493Y-13504424D02*
X10484969Y-13494900D01*
X10484969Y-13494900D02*
X10494493Y-13485376D01*
X10494493Y-13485376D02*
X10494493Y-13504424D01*
X10627826Y-13304424D02*
X10646874Y-13304424D01*
X10646874Y-13304424D02*
X10665922Y-13313948D01*
X10665922Y-13313948D02*
X10675445Y-13323471D01*
X10675445Y-13323471D02*
X10684969Y-13342519D01*
X10684969Y-13342519D02*
X10694493Y-13380614D01*
X10694493Y-13380614D02*
X10694493Y-13428233D01*
X10694493Y-13428233D02*
X10684969Y-13466328D01*
X10684969Y-13466328D02*
X10675445Y-13485376D01*
X10675445Y-13485376D02*
X10665922Y-13494900D01*
X10665922Y-13494900D02*
X10646874Y-13504424D01*
X10646874Y-13504424D02*
X10627826Y-13504424D01*
X10627826Y-13504424D02*
X10608779Y-13494900D01*
X10608779Y-13494900D02*
X10599255Y-13485376D01*
X10599255Y-13485376D02*
X10589731Y-13466328D01*
X10589731Y-13466328D02*
X10580207Y-13428233D01*
X10580207Y-13428233D02*
X10580207Y-13380614D01*
X10580207Y-13380614D02*
X10589731Y-13342519D01*
X10589731Y-13342519D02*
X10599255Y-13323471D01*
X10599255Y-13323471D02*
X10608779Y-13313948D01*
X10608779Y-13313948D02*
X10627826Y-13304424D01*
X10818303Y-13304424D02*
X10837350Y-13304424D01*
X10837350Y-13304424D02*
X10856398Y-13313948D01*
X10856398Y-13313948D02*
X10865922Y-13323471D01*
X10865922Y-13323471D02*
X10875445Y-13342519D01*
X10875445Y-13342519D02*
X10884969Y-13380614D01*
X10884969Y-13380614D02*
X10884969Y-13428233D01*
X10884969Y-13428233D02*
X10875445Y-13466328D01*
X10875445Y-13466328D02*
X10865922Y-13485376D01*
X10865922Y-13485376D02*
X10856398Y-13494900D01*
X10856398Y-13494900D02*
X10837350Y-13504424D01*
X10837350Y-13504424D02*
X10818303Y-13504424D01*
X10818303Y-13504424D02*
X10799255Y-13494900D01*
X10799255Y-13494900D02*
X10789731Y-13485376D01*
X10789731Y-13485376D02*
X10780207Y-13466328D01*
X10780207Y-13466328D02*
X10770684Y-13428233D01*
X10770684Y-13428233D02*
X10770684Y-13380614D01*
X10770684Y-13380614D02*
X10780207Y-13342519D01*
X10780207Y-13342519D02*
X10789731Y-13323471D01*
X10789731Y-13323471D02*
X10799255Y-13313948D01*
X10799255Y-13313948D02*
X10818303Y-13304424D01*
X11008779Y-13304424D02*
X11027826Y-13304424D01*
X11027826Y-13304424D02*
X11046874Y-13313948D01*
X11046874Y-13313948D02*
X11056398Y-13323471D01*
X11056398Y-13323471D02*
X11065922Y-13342519D01*
X11065922Y-13342519D02*
X11075445Y-13380614D01*
X11075445Y-13380614D02*
X11075445Y-13428233D01*
X11075445Y-13428233D02*
X11065922Y-13466328D01*
X11065922Y-13466328D02*
X11056398Y-13485376D01*
X11056398Y-13485376D02*
X11046874Y-13494900D01*
X11046874Y-13494900D02*
X11027826Y-13504424D01*
X11027826Y-13504424D02*
X11008779Y-13504424D01*
X11008779Y-13504424D02*
X10989731Y-13494900D01*
X10989731Y-13494900D02*
X10980207Y-13485376D01*
X10980207Y-13485376D02*
X10970684Y-13466328D01*
X10970684Y-13466328D02*
X10961160Y-13428233D01*
X10961160Y-13428233D02*
X10961160Y-13380614D01*
X10961160Y-13380614D02*
X10970684Y-13342519D01*
X10970684Y-13342519D02*
X10980207Y-13323471D01*
X10980207Y-13323471D02*
X10989731Y-13313948D01*
X10989731Y-13313948D02*
X11008779Y-13304424D01*
X11161160Y-13504424D02*
X11161160Y-13371090D01*
X11161160Y-13390138D02*
X11170684Y-13380614D01*
X11170684Y-13380614D02*
X11189731Y-13371090D01*
X11189731Y-13371090D02*
X11218303Y-13371090D01*
X11218303Y-13371090D02*
X11237350Y-13380614D01*
X11237350Y-13380614D02*
X11246874Y-13399662D01*
X11246874Y-13399662D02*
X11246874Y-13504424D01*
X11246874Y-13399662D02*
X11256398Y-13380614D01*
X11256398Y-13380614D02*
X11275445Y-13371090D01*
X11275445Y-13371090D02*
X11304017Y-13371090D01*
X11304017Y-13371090D02*
X11323064Y-13380614D01*
X11323064Y-13380614D02*
X11332588Y-13399662D01*
X11332588Y-13399662D02*
X11332588Y-13504424D01*
X11427826Y-13504424D02*
X11427826Y-13371090D01*
X11427826Y-13390138D02*
X11437350Y-13380614D01*
X11437350Y-13380614D02*
X11456398Y-13371090D01*
X11456398Y-13371090D02*
X11484969Y-13371090D01*
X11484969Y-13371090D02*
X11504017Y-13380614D01*
X11504017Y-13380614D02*
X11513541Y-13399662D01*
X11513541Y-13399662D02*
X11513541Y-13504424D01*
X11513541Y-13399662D02*
X11523064Y-13380614D01*
X11523064Y-13380614D02*
X11542112Y-13371090D01*
X11542112Y-13371090D02*
X11570683Y-13371090D01*
X11570683Y-13371090D02*
X11589731Y-13380614D01*
X11589731Y-13380614D02*
X11599255Y-13399662D01*
X11599255Y-13399662D02*
X11599255Y-13504424D01*
X11989731Y-13294900D02*
X11818303Y-13552043D01*
X12246874Y-13304424D02*
X12265922Y-13304424D01*
X12265922Y-13304424D02*
X12284969Y-13313948D01*
X12284969Y-13313948D02*
X12294493Y-13323471D01*
X12294493Y-13323471D02*
X12304017Y-13342519D01*
X12304017Y-13342519D02*
X12313541Y-13380614D01*
X12313541Y-13380614D02*
X12313541Y-13428233D01*
X12313541Y-13428233D02*
X12304017Y-13466328D01*
X12304017Y-13466328D02*
X12294493Y-13485376D01*
X12294493Y-13485376D02*
X12284969Y-13494900D01*
X12284969Y-13494900D02*
X12265922Y-13504424D01*
X12265922Y-13504424D02*
X12246874Y-13504424D01*
X12246874Y-13504424D02*
X12227826Y-13494900D01*
X12227826Y-13494900D02*
X12218303Y-13485376D01*
X12218303Y-13485376D02*
X12208779Y-13466328D01*
X12208779Y-13466328D02*
X12199255Y-13428233D01*
X12199255Y-13428233D02*
X12199255Y-13380614D01*
X12199255Y-13380614D02*
X12208779Y-13342519D01*
X12208779Y-13342519D02*
X12218303Y-13323471D01*
X12218303Y-13323471D02*
X12227826Y-13313948D01*
X12227826Y-13313948D02*
X12246874Y-13304424D01*
X12399255Y-13485376D02*
X12408779Y-13494900D01*
X12408779Y-13494900D02*
X12399255Y-13504424D01*
X12399255Y-13504424D02*
X12389731Y-13494900D01*
X12389731Y-13494900D02*
X12399255Y-13485376D01*
X12399255Y-13485376D02*
X12399255Y-13504424D01*
X12532588Y-13304424D02*
X12551636Y-13304424D01*
X12551636Y-13304424D02*
X12570684Y-13313948D01*
X12570684Y-13313948D02*
X12580207Y-13323471D01*
X12580207Y-13323471D02*
X12589731Y-13342519D01*
X12589731Y-13342519D02*
X12599255Y-13380614D01*
X12599255Y-13380614D02*
X12599255Y-13428233D01*
X12599255Y-13428233D02*
X12589731Y-13466328D01*
X12589731Y-13466328D02*
X12580207Y-13485376D01*
X12580207Y-13485376D02*
X12570684Y-13494900D01*
X12570684Y-13494900D02*
X12551636Y-13504424D01*
X12551636Y-13504424D02*
X12532588Y-13504424D01*
X12532588Y-13504424D02*
X12513541Y-13494900D01*
X12513541Y-13494900D02*
X12504017Y-13485376D01*
X12504017Y-13485376D02*
X12494493Y-13466328D01*
X12494493Y-13466328D02*
X12484969Y-13428233D01*
X12484969Y-13428233D02*
X12484969Y-13380614D01*
X12484969Y-13380614D02*
X12494493Y-13342519D01*
X12494493Y-13342519D02*
X12504017Y-13323471D01*
X12504017Y-13323471D02*
X12513541Y-13313948D01*
X12513541Y-13313948D02*
X12532588Y-13304424D01*
X12665922Y-13304424D02*
X12789731Y-13304424D01*
X12789731Y-13304424D02*
X12723065Y-13380614D01*
X12723065Y-13380614D02*
X12751636Y-13380614D01*
X12751636Y-13380614D02*
X12770684Y-13390138D01*
X12770684Y-13390138D02*
X12780207Y-13399662D01*
X12780207Y-13399662D02*
X12789731Y-13418709D01*
X12789731Y-13418709D02*
X12789731Y-13466328D01*
X12789731Y-13466328D02*
X12780207Y-13485376D01*
X12780207Y-13485376D02*
X12770684Y-13494900D01*
X12770684Y-13494900D02*
X12751636Y-13504424D01*
X12751636Y-13504424D02*
X12694493Y-13504424D01*
X12694493Y-13504424D02*
X12675446Y-13494900D01*
X12675446Y-13494900D02*
X12665922Y-13485376D01*
X12884969Y-13504424D02*
X12923065Y-13504424D01*
X12923065Y-13504424D02*
X12942112Y-13494900D01*
X12942112Y-13494900D02*
X12951636Y-13485376D01*
X12951636Y-13485376D02*
X12970684Y-13456805D01*
X12970684Y-13456805D02*
X12980207Y-13418709D01*
X12980207Y-13418709D02*
X12980207Y-13342519D01*
X12980207Y-13342519D02*
X12970684Y-13323471D01*
X12970684Y-13323471D02*
X12961160Y-13313948D01*
X12961160Y-13313948D02*
X12942112Y-13304424D01*
X12942112Y-13304424D02*
X12904017Y-13304424D01*
X12904017Y-13304424D02*
X12884969Y-13313948D01*
X12884969Y-13313948D02*
X12875446Y-13323471D01*
X12875446Y-13323471D02*
X12865922Y-13342519D01*
X12865922Y-13342519D02*
X12865922Y-13390138D01*
X12865922Y-13390138D02*
X12875446Y-13409186D01*
X12875446Y-13409186D02*
X12884969Y-13418709D01*
X12884969Y-13418709D02*
X12904017Y-13428233D01*
X12904017Y-13428233D02*
X12942112Y-13428233D01*
X12942112Y-13428233D02*
X12961160Y-13418709D01*
X12961160Y-13418709D02*
X12970684Y-13409186D01*
X12970684Y-13409186D02*
X12980207Y-13390138D01*
X13151636Y-13371090D02*
X13151636Y-13504424D01*
X13104017Y-13294900D02*
X13056398Y-13437757D01*
X13056398Y-13437757D02*
X13180207Y-13437757D01*
X13246874Y-13304424D02*
X13246874Y-13342519D01*
X13323065Y-13304424D02*
X13323065Y-13342519D01*
X13618303Y-13580614D02*
X13608779Y-13571090D01*
X13608779Y-13571090D02*
X13589731Y-13542519D01*
X13589731Y-13542519D02*
X13580208Y-13523471D01*
X13580208Y-13523471D02*
X13570684Y-13494900D01*
X13570684Y-13494900D02*
X13561160Y-13447281D01*
X13561160Y-13447281D02*
X13561160Y-13409186D01*
X13561160Y-13409186D02*
X13570684Y-13361567D01*
X13570684Y-13361567D02*
X13580208Y-13332995D01*
X13580208Y-13332995D02*
X13589731Y-13313948D01*
X13589731Y-13313948D02*
X13608779Y-13285376D01*
X13608779Y-13285376D02*
X13618303Y-13275852D01*
X13780208Y-13371090D02*
X13780208Y-13504424D01*
X13732588Y-13294900D02*
X13684969Y-13437757D01*
X13684969Y-13437757D02*
X13808779Y-13437757D01*
X13913541Y-13390138D02*
X13894493Y-13380614D01*
X13894493Y-13380614D02*
X13884969Y-13371090D01*
X13884969Y-13371090D02*
X13875446Y-13352043D01*
X13875446Y-13352043D02*
X13875446Y-13342519D01*
X13875446Y-13342519D02*
X13884969Y-13323471D01*
X13884969Y-13323471D02*
X13894493Y-13313948D01*
X13894493Y-13313948D02*
X13913541Y-13304424D01*
X13913541Y-13304424D02*
X13951636Y-13304424D01*
X13951636Y-13304424D02*
X13970684Y-13313948D01*
X13970684Y-13313948D02*
X13980208Y-13323471D01*
X13980208Y-13323471D02*
X13989731Y-13342519D01*
X13989731Y-13342519D02*
X13989731Y-13352043D01*
X13989731Y-13352043D02*
X13980208Y-13371090D01*
X13980208Y-13371090D02*
X13970684Y-13380614D01*
X13970684Y-13380614D02*
X13951636Y-13390138D01*
X13951636Y-13390138D02*
X13913541Y-13390138D01*
X13913541Y-13390138D02*
X13894493Y-13399662D01*
X13894493Y-13399662D02*
X13884969Y-13409186D01*
X13884969Y-13409186D02*
X13875446Y-13428233D01*
X13875446Y-13428233D02*
X13875446Y-13466328D01*
X13875446Y-13466328D02*
X13884969Y-13485376D01*
X13884969Y-13485376D02*
X13894493Y-13494900D01*
X13894493Y-13494900D02*
X13913541Y-13504424D01*
X13913541Y-13504424D02*
X13951636Y-13504424D01*
X13951636Y-13504424D02*
X13970684Y-13494900D01*
X13970684Y-13494900D02*
X13980208Y-13485376D01*
X13980208Y-13485376D02*
X13989731Y-13466328D01*
X13989731Y-13466328D02*
X13989731Y-13428233D01*
X13989731Y-13428233D02*
X13980208Y-13409186D01*
X13980208Y-13409186D02*
X13970684Y-13399662D01*
X13970684Y-13399662D02*
X13951636Y-13390138D01*
X14227827Y-13504424D02*
X14227827Y-13304424D01*
X14313541Y-13504424D02*
X14313541Y-13399662D01*
X14313541Y-13399662D02*
X14304017Y-13380614D01*
X14304017Y-13380614D02*
X14284970Y-13371090D01*
X14284970Y-13371090D02*
X14256398Y-13371090D01*
X14256398Y-13371090D02*
X14237350Y-13380614D01*
X14237350Y-13380614D02*
X14227827Y-13390138D01*
X14437350Y-13504424D02*
X14418303Y-13494900D01*
X14418303Y-13494900D02*
X14408779Y-13485376D01*
X14408779Y-13485376D02*
X14399255Y-13466328D01*
X14399255Y-13466328D02*
X14399255Y-13409186D01*
X14399255Y-13409186D02*
X14408779Y-13390138D01*
X14408779Y-13390138D02*
X14418303Y-13380614D01*
X14418303Y-13380614D02*
X14437350Y-13371090D01*
X14437350Y-13371090D02*
X14465922Y-13371090D01*
X14465922Y-13371090D02*
X14484970Y-13380614D01*
X14484970Y-13380614D02*
X14494493Y-13390138D01*
X14494493Y-13390138D02*
X14504017Y-13409186D01*
X14504017Y-13409186D02*
X14504017Y-13466328D01*
X14504017Y-13466328D02*
X14494493Y-13485376D01*
X14494493Y-13485376D02*
X14484970Y-13494900D01*
X14484970Y-13494900D02*
X14465922Y-13504424D01*
X14465922Y-13504424D02*
X14437350Y-13504424D01*
X14618303Y-13504424D02*
X14599255Y-13494900D01*
X14599255Y-13494900D02*
X14589731Y-13475852D01*
X14589731Y-13475852D02*
X14589731Y-13304424D01*
X14770684Y-13494900D02*
X14751636Y-13504424D01*
X14751636Y-13504424D02*
X14713541Y-13504424D01*
X14713541Y-13504424D02*
X14694493Y-13494900D01*
X14694493Y-13494900D02*
X14684970Y-13475852D01*
X14684970Y-13475852D02*
X14684970Y-13399662D01*
X14684970Y-13399662D02*
X14694493Y-13380614D01*
X14694493Y-13380614D02*
X14713541Y-13371090D01*
X14713541Y-13371090D02*
X14751636Y-13371090D01*
X14751636Y-13371090D02*
X14770684Y-13380614D01*
X14770684Y-13380614D02*
X14780208Y-13399662D01*
X14780208Y-13399662D02*
X14780208Y-13418709D01*
X14780208Y-13418709D02*
X14684970Y-13437757D01*
X14856398Y-13494900D02*
X14875446Y-13504424D01*
X14875446Y-13504424D02*
X14913541Y-13504424D01*
X14913541Y-13504424D02*
X14932589Y-13494900D01*
X14932589Y-13494900D02*
X14942112Y-13475852D01*
X14942112Y-13475852D02*
X14942112Y-13466328D01*
X14942112Y-13466328D02*
X14932589Y-13447281D01*
X14932589Y-13447281D02*
X14913541Y-13437757D01*
X14913541Y-13437757D02*
X14884970Y-13437757D01*
X14884970Y-13437757D02*
X14865922Y-13428233D01*
X14865922Y-13428233D02*
X14856398Y-13409186D01*
X14856398Y-13409186D02*
X14856398Y-13399662D01*
X14856398Y-13399662D02*
X14865922Y-13380614D01*
X14865922Y-13380614D02*
X14884970Y-13371090D01*
X14884970Y-13371090D02*
X14913541Y-13371090D01*
X14913541Y-13371090D02*
X14932589Y-13380614D01*
X15008779Y-13580614D02*
X15018303Y-13571090D01*
X15018303Y-13571090D02*
X15037351Y-13542519D01*
X15037351Y-13542519D02*
X15046874Y-13523471D01*
X15046874Y-13523471D02*
X15056398Y-13494900D01*
X15056398Y-13494900D02*
X15065922Y-13447281D01*
X15065922Y-13447281D02*
X15065922Y-13409186D01*
X15065922Y-13409186D02*
X15056398Y-13361567D01*
X15056398Y-13361567D02*
X15046874Y-13332995D01*
X15046874Y-13332995D02*
X15037351Y-13313948D01*
X15037351Y-13313948D02*
X15018303Y-13285376D01*
X15018303Y-13285376D02*
X15008779Y-13275852D01*
X9843240Y-13576940D02*
X10043240Y-13776940D01*
X10043240Y-13576940D02*
X9843240Y-13776940D01*
X10043240Y-13676940D02*
G75*
G03*
X10043240Y-13676940I-100000J0D01*
G01*
X10284969Y-13568424D02*
X10408779Y-13568424D01*
X10408779Y-13568424D02*
X10342112Y-13644614D01*
X10342112Y-13644614D02*
X10370684Y-13644614D01*
X10370684Y-13644614D02*
X10389731Y-13654138D01*
X10389731Y-13654138D02*
X10399255Y-13663662D01*
X10399255Y-13663662D02*
X10408779Y-13682709D01*
X10408779Y-13682709D02*
X10408779Y-13730328D01*
X10408779Y-13730328D02*
X10399255Y-13749376D01*
X10399255Y-13749376D02*
X10389731Y-13758900D01*
X10389731Y-13758900D02*
X10370684Y-13768424D01*
X10370684Y-13768424D02*
X10313541Y-13768424D01*
X10313541Y-13768424D02*
X10294493Y-13758900D01*
X10294493Y-13758900D02*
X10284969Y-13749376D01*
X10494493Y-13749376D02*
X10504017Y-13758900D01*
X10504017Y-13758900D02*
X10494493Y-13768424D01*
X10494493Y-13768424D02*
X10484969Y-13758900D01*
X10484969Y-13758900D02*
X10494493Y-13749376D01*
X10494493Y-13749376D02*
X10494493Y-13768424D01*
X10580207Y-13587471D02*
X10589731Y-13577948D01*
X10589731Y-13577948D02*
X10608779Y-13568424D01*
X10608779Y-13568424D02*
X10656398Y-13568424D01*
X10656398Y-13568424D02*
X10675445Y-13577948D01*
X10675445Y-13577948D02*
X10684969Y-13587471D01*
X10684969Y-13587471D02*
X10694493Y-13606519D01*
X10694493Y-13606519D02*
X10694493Y-13625567D01*
X10694493Y-13625567D02*
X10684969Y-13654138D01*
X10684969Y-13654138D02*
X10570684Y-13768424D01*
X10570684Y-13768424D02*
X10694493Y-13768424D01*
X10818303Y-13568424D02*
X10837350Y-13568424D01*
X10837350Y-13568424D02*
X10856398Y-13577948D01*
X10856398Y-13577948D02*
X10865922Y-13587471D01*
X10865922Y-13587471D02*
X10875445Y-13606519D01*
X10875445Y-13606519D02*
X10884969Y-13644614D01*
X10884969Y-13644614D02*
X10884969Y-13692233D01*
X10884969Y-13692233D02*
X10875445Y-13730328D01*
X10875445Y-13730328D02*
X10865922Y-13749376D01*
X10865922Y-13749376D02*
X10856398Y-13758900D01*
X10856398Y-13758900D02*
X10837350Y-13768424D01*
X10837350Y-13768424D02*
X10818303Y-13768424D01*
X10818303Y-13768424D02*
X10799255Y-13758900D01*
X10799255Y-13758900D02*
X10789731Y-13749376D01*
X10789731Y-13749376D02*
X10780207Y-13730328D01*
X10780207Y-13730328D02*
X10770684Y-13692233D01*
X10770684Y-13692233D02*
X10770684Y-13644614D01*
X10770684Y-13644614D02*
X10780207Y-13606519D01*
X10780207Y-13606519D02*
X10789731Y-13587471D01*
X10789731Y-13587471D02*
X10799255Y-13577948D01*
X10799255Y-13577948D02*
X10818303Y-13568424D01*
X11008779Y-13568424D02*
X11027826Y-13568424D01*
X11027826Y-13568424D02*
X11046874Y-13577948D01*
X11046874Y-13577948D02*
X11056398Y-13587471D01*
X11056398Y-13587471D02*
X11065922Y-13606519D01*
X11065922Y-13606519D02*
X11075445Y-13644614D01*
X11075445Y-13644614D02*
X11075445Y-13692233D01*
X11075445Y-13692233D02*
X11065922Y-13730328D01*
X11065922Y-13730328D02*
X11056398Y-13749376D01*
X11056398Y-13749376D02*
X11046874Y-13758900D01*
X11046874Y-13758900D02*
X11027826Y-13768424D01*
X11027826Y-13768424D02*
X11008779Y-13768424D01*
X11008779Y-13768424D02*
X10989731Y-13758900D01*
X10989731Y-13758900D02*
X10980207Y-13749376D01*
X10980207Y-13749376D02*
X10970684Y-13730328D01*
X10970684Y-13730328D02*
X10961160Y-13692233D01*
X10961160Y-13692233D02*
X10961160Y-13644614D01*
X10961160Y-13644614D02*
X10970684Y-13606519D01*
X10970684Y-13606519D02*
X10980207Y-13587471D01*
X10980207Y-13587471D02*
X10989731Y-13577948D01*
X10989731Y-13577948D02*
X11008779Y-13568424D01*
X11161160Y-13768424D02*
X11161160Y-13635090D01*
X11161160Y-13654138D02*
X11170684Y-13644614D01*
X11170684Y-13644614D02*
X11189731Y-13635090D01*
X11189731Y-13635090D02*
X11218303Y-13635090D01*
X11218303Y-13635090D02*
X11237350Y-13644614D01*
X11237350Y-13644614D02*
X11246874Y-13663662D01*
X11246874Y-13663662D02*
X11246874Y-13768424D01*
X11246874Y-13663662D02*
X11256398Y-13644614D01*
X11256398Y-13644614D02*
X11275445Y-13635090D01*
X11275445Y-13635090D02*
X11304017Y-13635090D01*
X11304017Y-13635090D02*
X11323064Y-13644614D01*
X11323064Y-13644614D02*
X11332588Y-13663662D01*
X11332588Y-13663662D02*
X11332588Y-13768424D01*
X11427826Y-13768424D02*
X11427826Y-13635090D01*
X11427826Y-13654138D02*
X11437350Y-13644614D01*
X11437350Y-13644614D02*
X11456398Y-13635090D01*
X11456398Y-13635090D02*
X11484969Y-13635090D01*
X11484969Y-13635090D02*
X11504017Y-13644614D01*
X11504017Y-13644614D02*
X11513541Y-13663662D01*
X11513541Y-13663662D02*
X11513541Y-13768424D01*
X11513541Y-13663662D02*
X11523064Y-13644614D01*
X11523064Y-13644614D02*
X11542112Y-13635090D01*
X11542112Y-13635090D02*
X11570683Y-13635090D01*
X11570683Y-13635090D02*
X11589731Y-13644614D01*
X11589731Y-13644614D02*
X11599255Y-13663662D01*
X11599255Y-13663662D02*
X11599255Y-13768424D01*
X11989731Y-13558900D02*
X11818303Y-13816043D01*
X12246874Y-13568424D02*
X12265922Y-13568424D01*
X12265922Y-13568424D02*
X12284969Y-13577948D01*
X12284969Y-13577948D02*
X12294493Y-13587471D01*
X12294493Y-13587471D02*
X12304017Y-13606519D01*
X12304017Y-13606519D02*
X12313541Y-13644614D01*
X12313541Y-13644614D02*
X12313541Y-13692233D01*
X12313541Y-13692233D02*
X12304017Y-13730328D01*
X12304017Y-13730328D02*
X12294493Y-13749376D01*
X12294493Y-13749376D02*
X12284969Y-13758900D01*
X12284969Y-13758900D02*
X12265922Y-13768424D01*
X12265922Y-13768424D02*
X12246874Y-13768424D01*
X12246874Y-13768424D02*
X12227826Y-13758900D01*
X12227826Y-13758900D02*
X12218303Y-13749376D01*
X12218303Y-13749376D02*
X12208779Y-13730328D01*
X12208779Y-13730328D02*
X12199255Y-13692233D01*
X12199255Y-13692233D02*
X12199255Y-13644614D01*
X12199255Y-13644614D02*
X12208779Y-13606519D01*
X12208779Y-13606519D02*
X12218303Y-13587471D01*
X12218303Y-13587471D02*
X12227826Y-13577948D01*
X12227826Y-13577948D02*
X12246874Y-13568424D01*
X12399255Y-13749376D02*
X12408779Y-13758900D01*
X12408779Y-13758900D02*
X12399255Y-13768424D01*
X12399255Y-13768424D02*
X12389731Y-13758900D01*
X12389731Y-13758900D02*
X12399255Y-13749376D01*
X12399255Y-13749376D02*
X12399255Y-13768424D01*
X12599255Y-13768424D02*
X12484969Y-13768424D01*
X12542112Y-13768424D02*
X12542112Y-13568424D01*
X12542112Y-13568424D02*
X12523065Y-13596995D01*
X12523065Y-13596995D02*
X12504017Y-13616043D01*
X12504017Y-13616043D02*
X12484969Y-13625567D01*
X12675446Y-13587471D02*
X12684969Y-13577948D01*
X12684969Y-13577948D02*
X12704017Y-13568424D01*
X12704017Y-13568424D02*
X12751636Y-13568424D01*
X12751636Y-13568424D02*
X12770684Y-13577948D01*
X12770684Y-13577948D02*
X12780207Y-13587471D01*
X12780207Y-13587471D02*
X12789731Y-13606519D01*
X12789731Y-13606519D02*
X12789731Y-13625567D01*
X12789731Y-13625567D02*
X12780207Y-13654138D01*
X12780207Y-13654138D02*
X12665922Y-13768424D01*
X12665922Y-13768424D02*
X12789731Y-13768424D01*
X12961160Y-13568424D02*
X12923065Y-13568424D01*
X12923065Y-13568424D02*
X12904017Y-13577948D01*
X12904017Y-13577948D02*
X12894493Y-13587471D01*
X12894493Y-13587471D02*
X12875446Y-13616043D01*
X12875446Y-13616043D02*
X12865922Y-13654138D01*
X12865922Y-13654138D02*
X12865922Y-13730328D01*
X12865922Y-13730328D02*
X12875446Y-13749376D01*
X12875446Y-13749376D02*
X12884969Y-13758900D01*
X12884969Y-13758900D02*
X12904017Y-13768424D01*
X12904017Y-13768424D02*
X12942112Y-13768424D01*
X12942112Y-13768424D02*
X12961160Y-13758900D01*
X12961160Y-13758900D02*
X12970684Y-13749376D01*
X12970684Y-13749376D02*
X12980207Y-13730328D01*
X12980207Y-13730328D02*
X12980207Y-13682709D01*
X12980207Y-13682709D02*
X12970684Y-13663662D01*
X12970684Y-13663662D02*
X12961160Y-13654138D01*
X12961160Y-13654138D02*
X12942112Y-13644614D01*
X12942112Y-13644614D02*
X12904017Y-13644614D01*
X12904017Y-13644614D02*
X12884969Y-13654138D01*
X12884969Y-13654138D02*
X12875446Y-13663662D01*
X12875446Y-13663662D02*
X12865922Y-13682709D01*
X13104017Y-13568424D02*
X13123065Y-13568424D01*
X13123065Y-13568424D02*
X13142112Y-13577948D01*
X13142112Y-13577948D02*
X13151636Y-13587471D01*
X13151636Y-13587471D02*
X13161160Y-13606519D01*
X13161160Y-13606519D02*
X13170684Y-13644614D01*
X13170684Y-13644614D02*
X13170684Y-13692233D01*
X13170684Y-13692233D02*
X13161160Y-13730328D01*
X13161160Y-13730328D02*
X13151636Y-13749376D01*
X13151636Y-13749376D02*
X13142112Y-13758900D01*
X13142112Y-13758900D02*
X13123065Y-13768424D01*
X13123065Y-13768424D02*
X13104017Y-13768424D01*
X13104017Y-13768424D02*
X13084969Y-13758900D01*
X13084969Y-13758900D02*
X13075446Y-13749376D01*
X13075446Y-13749376D02*
X13065922Y-13730328D01*
X13065922Y-13730328D02*
X13056398Y-13692233D01*
X13056398Y-13692233D02*
X13056398Y-13644614D01*
X13056398Y-13644614D02*
X13065922Y-13606519D01*
X13065922Y-13606519D02*
X13075446Y-13587471D01*
X13075446Y-13587471D02*
X13084969Y-13577948D01*
X13084969Y-13577948D02*
X13104017Y-13568424D01*
X13246874Y-13568424D02*
X13246874Y-13606519D01*
X13323065Y-13568424D02*
X13323065Y-13606519D01*
X13618303Y-13844614D02*
X13608779Y-13835090D01*
X13608779Y-13835090D02*
X13589731Y-13806519D01*
X13589731Y-13806519D02*
X13580208Y-13787471D01*
X13580208Y-13787471D02*
X13570684Y-13758900D01*
X13570684Y-13758900D02*
X13561160Y-13711281D01*
X13561160Y-13711281D02*
X13561160Y-13673186D01*
X13561160Y-13673186D02*
X13570684Y-13625567D01*
X13570684Y-13625567D02*
X13580208Y-13596995D01*
X13580208Y-13596995D02*
X13589731Y-13577948D01*
X13589731Y-13577948D02*
X13608779Y-13549376D01*
X13608779Y-13549376D02*
X13618303Y-13539852D01*
X13684969Y-13587471D02*
X13694493Y-13577948D01*
X13694493Y-13577948D02*
X13713541Y-13568424D01*
X13713541Y-13568424D02*
X13761160Y-13568424D01*
X13761160Y-13568424D02*
X13780208Y-13577948D01*
X13780208Y-13577948D02*
X13789731Y-13587471D01*
X13789731Y-13587471D02*
X13799255Y-13606519D01*
X13799255Y-13606519D02*
X13799255Y-13625567D01*
X13799255Y-13625567D02*
X13789731Y-13654138D01*
X13789731Y-13654138D02*
X13675446Y-13768424D01*
X13675446Y-13768424D02*
X13799255Y-13768424D01*
X14037350Y-13768424D02*
X14037350Y-13568424D01*
X14123065Y-13768424D02*
X14123065Y-13663662D01*
X14123065Y-13663662D02*
X14113541Y-13644614D01*
X14113541Y-13644614D02*
X14094493Y-13635090D01*
X14094493Y-13635090D02*
X14065922Y-13635090D01*
X14065922Y-13635090D02*
X14046874Y-13644614D01*
X14046874Y-13644614D02*
X14037350Y-13654138D01*
X14246874Y-13768424D02*
X14227827Y-13758900D01*
X14227827Y-13758900D02*
X14218303Y-13749376D01*
X14218303Y-13749376D02*
X14208779Y-13730328D01*
X14208779Y-13730328D02*
X14208779Y-13673186D01*
X14208779Y-13673186D02*
X14218303Y-13654138D01*
X14218303Y-13654138D02*
X14227827Y-13644614D01*
X14227827Y-13644614D02*
X14246874Y-13635090D01*
X14246874Y-13635090D02*
X14275446Y-13635090D01*
X14275446Y-13635090D02*
X14294493Y-13644614D01*
X14294493Y-13644614D02*
X14304017Y-13654138D01*
X14304017Y-13654138D02*
X14313541Y-13673186D01*
X14313541Y-13673186D02*
X14313541Y-13730328D01*
X14313541Y-13730328D02*
X14304017Y-13749376D01*
X14304017Y-13749376D02*
X14294493Y-13758900D01*
X14294493Y-13758900D02*
X14275446Y-13768424D01*
X14275446Y-13768424D02*
X14246874Y-13768424D01*
X14427827Y-13768424D02*
X14408779Y-13758900D01*
X14408779Y-13758900D02*
X14399255Y-13739852D01*
X14399255Y-13739852D02*
X14399255Y-13568424D01*
X14580208Y-13758900D02*
X14561160Y-13768424D01*
X14561160Y-13768424D02*
X14523065Y-13768424D01*
X14523065Y-13768424D02*
X14504017Y-13758900D01*
X14504017Y-13758900D02*
X14494493Y-13739852D01*
X14494493Y-13739852D02*
X14494493Y-13663662D01*
X14494493Y-13663662D02*
X14504017Y-13644614D01*
X14504017Y-13644614D02*
X14523065Y-13635090D01*
X14523065Y-13635090D02*
X14561160Y-13635090D01*
X14561160Y-13635090D02*
X14580208Y-13644614D01*
X14580208Y-13644614D02*
X14589731Y-13663662D01*
X14589731Y-13663662D02*
X14589731Y-13682709D01*
X14589731Y-13682709D02*
X14494493Y-13701757D01*
X14665922Y-13758900D02*
X14684970Y-13768424D01*
X14684970Y-13768424D02*
X14723065Y-13768424D01*
X14723065Y-13768424D02*
X14742112Y-13758900D01*
X14742112Y-13758900D02*
X14751636Y-13739852D01*
X14751636Y-13739852D02*
X14751636Y-13730328D01*
X14751636Y-13730328D02*
X14742112Y-13711281D01*
X14742112Y-13711281D02*
X14723065Y-13701757D01*
X14723065Y-13701757D02*
X14694493Y-13701757D01*
X14694493Y-13701757D02*
X14675446Y-13692233D01*
X14675446Y-13692233D02*
X14665922Y-13673186D01*
X14665922Y-13673186D02*
X14665922Y-13663662D01*
X14665922Y-13663662D02*
X14675446Y-13644614D01*
X14675446Y-13644614D02*
X14694493Y-13635090D01*
X14694493Y-13635090D02*
X14723065Y-13635090D01*
X14723065Y-13635090D02*
X14742112Y-13644614D01*
X14818303Y-13844614D02*
X14827827Y-13835090D01*
X14827827Y-13835090D02*
X14846874Y-13806519D01*
X14846874Y-13806519D02*
X14856398Y-13787471D01*
X14856398Y-13787471D02*
X14865922Y-13758900D01*
X14865922Y-13758900D02*
X14875446Y-13711281D01*
X14875446Y-13711281D02*
X14875446Y-13673186D01*
X14875446Y-13673186D02*
X14865922Y-13625567D01*
X14865922Y-13625567D02*
X14856398Y-13596995D01*
X14856398Y-13596995D02*
X14846874Y-13577948D01*
X14846874Y-13577948D02*
X14827827Y-13549376D01*
X14827827Y-13549376D02*
X14818303Y-13539852D01*
M02*
