M48
; DRILL file {KiCad 7.0.8} date Sun Feb  4 14:44:36 2024
; FORMAT={-:-/ absolute / metric / decimal}
; #@! TF.CreationDate,2024-02-04T14:44:36+01:00
; #@! TF.GenerationSoftware,Kicad,Pcbnew,7.0.8
; #@! TF.FileFunction,Plated,1,4,PTH
FMAT,2
METRIC
; #@! TA.AperFunction,Plated,PTH,ComponentDrill
T1C0.200
; #@! TA.AperFunction,Plated,PTH,ViaDrill
T2C0.300
; #@! TA.AperFunction,Plated,PTH,ViaDrill
T3C0.400
; #@! TA.AperFunction,Plated,PTH,ComponentDrill
T4C0.500
; #@! TA.AperFunction,Plated,PTH,ComponentDrill
T5C1.000
; #@! TA.AperFunction,Plated,PTH,ComponentDrill
T6C3.200
%
G90
G05
T1
X28.075Y9.155
X28.075Y3.47
X28.575Y10.055
X28.575Y8.255
X28.575Y4.37
X28.575Y2.57
X29.075Y9.155
X29.075Y3.47
X77.425Y3.47
X77.925Y4.37
X77.925Y2.57
X78.425Y3.47
T2
X30.017Y7.111
X30.48Y1.27
X31.043Y11.502
X34.29Y5.497
T3
X2.54Y4.445
X2.54Y1.905
X5.08Y4.445
X5.08Y1.905
X7.468Y13.386
X7.62Y4.445
X7.62Y1.905
X8.89Y8.255
X8.89Y5.715
X8.89Y3.175
X8.89Y0.635
X9.093Y12.167
X9.195Y14.199
X10.795Y10.16
X10.973Y12.065
X11.43Y8.255
X11.43Y0.635
X12.7Y12.065
X13.97Y6.985
X14.287Y20.002
X16.51Y6.985
X16.51Y0.635
X17.78Y6.985
X18.415Y9.094
X19.05Y3.359
X19.05Y0.635
X19.685Y11.43
X21.59Y0.635
X22.225Y4.175
X22.225Y2.54
X22.429Y9.67
X22.429Y8.62
X22.86Y19.05
X22.91Y11.777
X22.935Y0.635
X23.211Y5.364
X23.495Y20.79
X23.495Y17.145
X23.495Y6.985
X24.765Y13.335
X25.4Y6.521
X25.4Y0.635
X28.575Y7.455
X28.575Y1.27
X28.777Y6.22
X29.21Y14.134
X29.21Y12.065
X31.678Y0.563
X32.385Y1.27
X32.489Y10.404
X33.655Y8.89
X34.29Y0.635
X36.83Y0.635
X37.935Y10.287
X37.935Y8.572
X38.056Y3.803
X39.37Y0.635
X40.005Y14.134
X41.275Y10.16
X41.275Y3.732
X41.91Y0.635
X43.815Y8.89
X44.45Y0.635
X45.085Y21.59
X45.72Y4.445
X45.874Y9.35
X46.99Y4.445
X47.092Y0.533
X48.26Y21.59
X48.26Y4.445
X49.53Y13.97
X49.53Y0.635
X50.165Y9.525
X50.165Y7.62
X50.165Y6.62
X51.435Y12.585
X52.07Y0.635
X54.61Y0.635
X57.15Y20.155
X57.15Y0.635
X57.346Y4.258
X57.785Y3.175
X58.42Y9.525
X59.055Y3.81
X60.96Y0.635
X62.075Y14.24
X62.865Y6.821
X62.87Y8.89
X63.5Y0.635
X65.405Y14.085
X66.675Y6.985
X67.31Y0.635
X67.73Y13.336
X69.85Y13.335
X71.12Y3.339
X71.755Y5.715
X71.755Y1.27
X72.39Y8.89
X72.638Y7.233
X73.025Y10.16
X73.025Y5.715
X76.213Y6.127
X76.721Y17.145
X77.47Y11.43
X77.47Y8.255
X78.105Y6.985
X78.74Y13.335
X78.74Y12.065
X78.74Y10.795
X78.74Y9.525
X79.375Y5.829
X79.375Y1.27
X80.01Y13.335
X80.01Y12.065
X80.01Y8.255
X80.645Y5.08
X82.144Y4.602
X83.185Y2.54
X84.277Y0.584
X84.633Y4.547
X84.633Y3.175
X84.734Y1.905
X85.75Y0.737
X86.36Y4.445
X86.36Y3.175
X86.36Y1.905
T4
X2.421Y9.497
X3.124Y11.194
X3.124Y7.8
X4.821Y11.897
X4.821Y7.097
X6.518Y11.194
X6.518Y7.8
X7.221Y9.497
X81.42Y9.525
X82.123Y11.222
X82.123Y7.828
X83.82Y11.925
X83.82Y7.125
X85.517Y11.222
X85.517Y7.828
X86.22Y9.525
T5
X12.7Y18.415
X12.7Y15.875
X15.24Y18.415
X15.24Y15.875
X17.78Y18.415
X17.78Y15.875
X20.32Y18.415
X20.32Y15.875
X26.411Y18.415
X26.411Y15.875
X28.951Y18.415
X28.951Y15.875
X31.491Y18.415
X31.491Y15.875
X34.031Y18.415
X34.031Y15.875
X36.571Y18.415
X36.571Y15.875
X39.111Y18.415
X39.111Y15.875
X41.651Y18.415
X41.651Y15.875
X44.191Y18.415
X44.191Y15.875
X46.731Y18.415
X46.731Y15.875
X49.271Y18.415
X49.271Y15.875
X51.811Y18.415
X51.811Y15.875
X54.351Y18.415
X54.351Y15.875
X56.891Y18.415
X56.891Y15.875
X59.431Y18.415
X59.431Y15.875
X61.971Y18.415
X61.971Y15.875
X64.511Y18.415
X64.511Y15.875
X67.051Y18.415
X67.051Y15.875
X69.591Y18.415
X69.591Y15.875
X72.131Y18.415
X72.131Y15.875
X74.671Y18.415
X74.671Y15.875
T6
X4.821Y9.497
X83.82Y9.525
T0
M30
