%TF.GenerationSoftware,KiCad,Pcbnew,7.0.8*%
%TF.CreationDate,2024-02-06T22:23:07+01:00*%
%TF.ProjectId,HatV3,48617456-332e-46b6-9963-61645f706362,V2*%
%TF.SameCoordinates,Original*%
%TF.FileFunction,Copper,L2,Inr*%
%TF.FilePolarity,Positive*%
%FSLAX46Y46*%
G04 Gerber Fmt 4.6, Leading zero omitted, Abs format (unit mm)*
G04 Created by KiCad (PCBNEW 7.0.8) date 2024-02-06 22:23:07*
%MOMM*%
%LPD*%
G01*
G04 APERTURE LIST*
%TA.AperFunction,ComponentPad*%
%ADD10R,1.700000X1.700000*%
%TD*%
%TA.AperFunction,ComponentPad*%
%ADD11O,1.700000X1.700000*%
%TD*%
%TA.AperFunction,ComponentPad*%
%ADD12C,0.500000*%
%TD*%
%TA.AperFunction,ComponentPad*%
%ADD13C,0.800000*%
%TD*%
%TA.AperFunction,ComponentPad*%
%ADD14C,6.400000*%
%TD*%
%TA.AperFunction,ViaPad*%
%ADD15C,0.800000*%
%TD*%
%TA.AperFunction,ViaPad*%
%ADD16C,0.700000*%
%TD*%
%TA.AperFunction,Conductor*%
%ADD17C,0.500000*%
%TD*%
G04 APERTURE END LIST*
D10*
%TO.N,+3V3*%
%TO.C,J5*%
X126970438Y-95045962D03*
D11*
%TO.N,+5V*%
X126970438Y-97585962D03*
%TO.N,/I2C_GP5_DAT*%
X129510438Y-95045962D03*
%TO.N,+5V*%
X129510438Y-97585962D03*
%TO.N,/I2C_GP5_CLK*%
X132050438Y-95045962D03*
%TO.N,GND*%
X132050438Y-97585962D03*
%TO.N,/MCLK05*%
X134590438Y-95045962D03*
%TO.N,/UART1_TX*%
X134590438Y-97585962D03*
%TO.N,GND*%
X137130438Y-95045962D03*
%TO.N,/UART1_RX*%
X137130438Y-97585962D03*
%TO.N,/UART1_RTS*%
X139670438Y-95045962D03*
%TO.N,/I2S2_CLK*%
X139670438Y-97585962D03*
%TO.N,/PWM01*%
X142210438Y-95045962D03*
%TO.N,GND*%
X142210438Y-97585962D03*
%TO.N,/GPIO27_PWM2*%
X144750438Y-95045962D03*
%TO.N,/GPIO8_AO_DMIC_IN_DAT*%
X144750438Y-97585962D03*
%TO.N,+3V3*%
X147290438Y-95045962D03*
%TO.N,/GPIO35_PWM3*%
X147290438Y-97585962D03*
%TO.N,/SPI1_MOSI*%
X149830438Y-95045962D03*
%TO.N,GND*%
X149830438Y-97585962D03*
%TO.N,/SPI1_MISO*%
X152370438Y-95045962D03*
%TO.N,/GPIO17_40HEADER*%
X152370438Y-97585962D03*
%TO.N,/SPI1_SCK*%
X154910438Y-95045962D03*
%TO.N,/SPI1_CS0*%
X154910438Y-97585962D03*
%TO.N,GND*%
X157450438Y-95045962D03*
%TO.N,/SPI1_CS1*%
X157450438Y-97585962D03*
%TO.N,/I2C_GP2_DAT*%
X159990438Y-95045962D03*
%TO.N,/I2C_GP2_CLK*%
X159990438Y-97585962D03*
%TO.N,/CAN0_DIN*%
X162530438Y-95045962D03*
%TO.N,GND*%
X162530438Y-97585962D03*
%TO.N,/CAN0_DOUT*%
X165070438Y-95045962D03*
%TO.N,/GPIO9_CAN1_GPIO0_DMIC_CLK*%
X165070438Y-97585962D03*
%TO.N,/CAN1_DOUT*%
X167610438Y-95045962D03*
%TO.N,GND*%
X167610438Y-97585962D03*
%TO.N,/I2S_FS*%
X170150438Y-95045962D03*
%TO.N,/UART1_CTS*%
X170150438Y-97585962D03*
%TO.N,/CAN1_DIN*%
X172690438Y-95045962D03*
%TO.N,/I2S_SDIN*%
X172690438Y-97585962D03*
%TO.N,GND*%
X175230438Y-95045962D03*
%TO.N,/I2S_SDOUT*%
X175230438Y-97585962D03*
%TD*%
D12*
%TO.N,GND*%
%TO.C,U1*%
X107226422Y-110681222D03*
X107726422Y-109781222D03*
X107726422Y-111581222D03*
X108226422Y-110681222D03*
%TD*%
%TO.N,GND*%
%TO.C,U7*%
X154803978Y-110903578D03*
X155303978Y-110003578D03*
X155303978Y-111803578D03*
X155803978Y-110903578D03*
%TD*%
D13*
%TO.N,N/C*%
%TO.C,H1*%
X102980438Y-103923800D03*
X103683382Y-102226744D03*
X103683382Y-105620856D03*
X105380438Y-101523800D03*
D14*
X105380438Y-103923800D03*
D13*
X105380438Y-106323800D03*
X107077494Y-102226744D03*
X107077494Y-105620856D03*
X107780438Y-103923800D03*
%TD*%
D12*
%TO.N,GND*%
%TO.C,U3*%
X131160022Y-105755022D03*
X131660022Y-104855022D03*
X131660022Y-106655022D03*
X132160022Y-105755022D03*
%TD*%
D13*
%TO.N,N/C*%
%TO.C,H2*%
X181979438Y-103935962D03*
X182682382Y-102238906D03*
X182682382Y-105633018D03*
X184379438Y-101535962D03*
D14*
X184379438Y-103935962D03*
D13*
X184379438Y-106335962D03*
X186076494Y-102238906D03*
X186076494Y-105633018D03*
X186779438Y-103935962D03*
%TD*%
D10*
%TO.N,GND*%
%TO.C,J6*%
X113818238Y-97585962D03*
D11*
%TO.N,/I2C_GP5_DAT*%
X113818238Y-95045962D03*
%TO.N,/I2C_GP5_CLK*%
X116358238Y-97585962D03*
%TO.N,/PWM01*%
X116358238Y-95045962D03*
%TO.N,/GPIO27_PWM2*%
X118898238Y-97585962D03*
%TO.N,/GPIO35_PWM3*%
X118898238Y-95045962D03*
%TO.N,/GPIO8_AO_DMIC_IN_DAT*%
X121438238Y-97585962D03*
%TO.N,GND*%
X121438238Y-95045962D03*
%TD*%
D15*
%TO.N,+5V*%
X135280400Y-108229400D03*
X152425400Y-114597500D03*
X107137200Y-112979200D03*
D16*
%TO.N,GND*%
X143459200Y-107731300D03*
X116535200Y-105105200D03*
D15*
X127787400Y-104419400D03*
X109067600Y-99085400D03*
D16*
X132918200Y-112953800D03*
X162128200Y-106959400D03*
X139217400Y-99212400D03*
D15*
X157361254Y-114597500D03*
D16*
X163068000Y-108864400D03*
X114655600Y-105765600D03*
X142265400Y-101574600D03*
X166395400Y-114198400D03*
X134391400Y-107213400D03*
X129743200Y-108966000D03*
X153847800Y-101904800D03*
X115595400Y-105105200D03*
D15*
X147828000Y-101295200D03*
D16*
X180441600Y-105308400D03*
X129768600Y-110007400D03*
X119202200Y-106070400D03*
X175107600Y-102082600D03*
X128346200Y-114757200D03*
X171907200Y-109829600D03*
X122809000Y-111912400D03*
X167563800Y-108458000D03*
D15*
X149453600Y-100076000D03*
D16*
X118338600Y-105968800D03*
X177368200Y-101803200D03*
X124155200Y-108371922D03*
X113614200Y-111683800D03*
X168173400Y-109067600D03*
X177876200Y-109194600D03*
D15*
X111048800Y-97561400D03*
D16*
X102641400Y-107340400D03*
X166928800Y-107899200D03*
D15*
X171297600Y-99364800D03*
D16*
X176301400Y-101828600D03*
X132609926Y-114943815D03*
X152044400Y-100990400D03*
X143154400Y-102158800D03*
D15*
X134086600Y-109000303D03*
D16*
X127787400Y-114020600D03*
X115468400Y-92100400D03*
X127787400Y-101625400D03*
X163093400Y-113233200D03*
X124968000Y-113919000D03*
X116484400Y-114833400D03*
D15*
X191465200Y-103124000D03*
D16*
X124307600Y-105257600D03*
X130962400Y-111556800D03*
X178587400Y-105841800D03*
X163195000Y-110871000D03*
D15*
X189128400Y-115595400D03*
D16*
X151815800Y-107238800D03*
X151587200Y-102362000D03*
D15*
X149656800Y-113741200D03*
D16*
X113334800Y-109575600D03*
D15*
X140995400Y-99085400D03*
D16*
X170357478Y-105079800D03*
X147599400Y-103327200D03*
X176326800Y-107264200D03*
X119024400Y-91973400D03*
X173177200Y-104648000D03*
X131902200Y-114325400D03*
X172059600Y-108381800D03*
X114376200Y-109448600D03*
X142595600Y-108585000D03*
X138506200Y-104622600D03*
X134137400Y-111658400D03*
X176682400Y-106349800D03*
X121031000Y-107950000D03*
X153822400Y-114579400D03*
D15*
X172643800Y-100761800D03*
D16*
X179019200Y-110159800D03*
X114630200Y-106781600D03*
D15*
X142265400Y-110693200D03*
D16*
X137058400Y-111531400D03*
X127787400Y-110185200D03*
X140055600Y-103047800D03*
X125476000Y-105130600D03*
D15*
X158724600Y-93827600D03*
X144297400Y-109829600D03*
D16*
X114858800Y-108534200D03*
X170662600Y-111201200D03*
X121818400Y-111785400D03*
X114528600Y-112090200D03*
X131216400Y-103301800D03*
X177546000Y-105867200D03*
X173964600Y-102793800D03*
X173507400Y-111734600D03*
X142189200Y-109601000D03*
D15*
X191592200Y-105918000D03*
D16*
X119024400Y-107950000D03*
X147574000Y-108026200D03*
D15*
X177190400Y-100279200D03*
D16*
X129007814Y-107290522D03*
X176733200Y-108356400D03*
X126644400Y-105156000D03*
X120904000Y-109626400D03*
X166344600Y-105867200D03*
D15*
X148082000Y-113665000D03*
D16*
X126949200Y-111963200D03*
X166243000Y-112268000D03*
D15*
X112623600Y-100660200D03*
D16*
X130962400Y-114325400D03*
D15*
X160324800Y-109169200D03*
X110896400Y-95046800D03*
X168402000Y-104980878D03*
D16*
X120065800Y-108915200D03*
X152679400Y-102006400D03*
X148818600Y-105181400D03*
X130200400Y-114960400D03*
D15*
X177571400Y-103809800D03*
D16*
X138785600Y-108026200D03*
X139242800Y-103886000D03*
X165735000Y-105130600D03*
X144551400Y-99720400D03*
X117627400Y-114884200D03*
X188112400Y-116484400D03*
X162179000Y-107975400D03*
X174167800Y-104622600D03*
D15*
X113233200Y-92100400D03*
D16*
X137566400Y-104876600D03*
X155702000Y-105867200D03*
D15*
X148132800Y-110744000D03*
D16*
X156210000Y-104775000D03*
X126009400Y-111937800D03*
D15*
X106832400Y-98882200D03*
D16*
X166192200Y-109448600D03*
D15*
X101955600Y-99517200D03*
D16*
X176682400Y-110159800D03*
D15*
X174955200Y-100304600D03*
D16*
X138328400Y-107086400D03*
X161544000Y-109956600D03*
X133934200Y-114681000D03*
X148285200Y-108762800D03*
X137439400Y-106756200D03*
X156210000Y-103911400D03*
X148488400Y-102895400D03*
X114706400Y-107619800D03*
X107137200Y-114020600D03*
X170357478Y-107746800D03*
X131953000Y-111582200D03*
X169849800Y-111683800D03*
X166928800Y-110921800D03*
X169291000Y-105918000D03*
X123291600Y-105740200D03*
X121234200Y-105994200D03*
X177850800Y-111150400D03*
X120167400Y-106019600D03*
X178993800Y-112064800D03*
X163855400Y-111709200D03*
X115773200Y-113766600D03*
X168859200Y-109728000D03*
D15*
X150774400Y-100736400D03*
X190627000Y-114020600D03*
D16*
X122301000Y-105968800D03*
D15*
X141097000Y-114173000D03*
D16*
X123113800Y-107975400D03*
X168376600Y-105867200D03*
X135534400Y-107213400D03*
X118592600Y-114096800D03*
X163830000Y-105079800D03*
X164795200Y-105054400D03*
D15*
X144297400Y-111252000D03*
D16*
X176733200Y-112090200D03*
D15*
X104317800Y-98882200D03*
D16*
X150495000Y-102819200D03*
X171297600Y-110540800D03*
X172262800Y-104876600D03*
X116006543Y-101020543D03*
D15*
X183921400Y-113868200D03*
D16*
X122885200Y-109728000D03*
X151841200Y-108254800D03*
X141173200Y-101549200D03*
X180695600Y-102285800D03*
X179603400Y-105841800D03*
X127889000Y-111937800D03*
X129692400Y-100228400D03*
X178511200Y-101777800D03*
X121869200Y-109702600D03*
X146735800Y-108051600D03*
X153466800Y-106045000D03*
X124129800Y-113284000D03*
X156210000Y-102920800D03*
X122148600Y-107975400D03*
D15*
X149656800Y-112369600D03*
D16*
X152450800Y-106248200D03*
X155879800Y-101930200D03*
D15*
X156286200Y-106883200D03*
D16*
X126009400Y-114020600D03*
X123418600Y-112598200D03*
X170307000Y-105968800D03*
D15*
X148132800Y-112318800D03*
X110667800Y-100634800D03*
D16*
X145643600Y-107924600D03*
X162229800Y-109448600D03*
D15*
X104038400Y-113131600D03*
D16*
X138811000Y-109220000D03*
X116992400Y-91084400D03*
D15*
X141122400Y-112369600D03*
D16*
X169595800Y-109245400D03*
D15*
X111074200Y-92532200D03*
D16*
X167259000Y-105943400D03*
X154838400Y-101904800D03*
X163982400Y-110134400D03*
D15*
X188899800Y-99466400D03*
D16*
X127762000Y-109220000D03*
D15*
X134594600Y-99212400D03*
X138328400Y-93980000D03*
D16*
X123977400Y-110058200D03*
X120065800Y-107924600D03*
X161518600Y-111937800D03*
X170967400Y-114071400D03*
X187528200Y-109423200D03*
X144576800Y-107873800D03*
X162356800Y-112547400D03*
X170205400Y-108585000D03*
X179019200Y-108356400D03*
X151587200Y-112486000D03*
X126847600Y-114020600D03*
X120929400Y-111785400D03*
D15*
X146253200Y-109778800D03*
D16*
X119481600Y-110769400D03*
X129870200Y-111048800D03*
D15*
X165023800Y-101727000D03*
D16*
X117500400Y-105156000D03*
X163728400Y-113919000D03*
X149479000Y-102819200D03*
X154533600Y-106019600D03*
D15*
X149453600Y-101422200D03*
D16*
X115239800Y-112852200D03*
X179781200Y-101803200D03*
X133045200Y-110947200D03*
D15*
X146202400Y-111226600D03*
D16*
X112445800Y-109042200D03*
X162280600Y-105892600D03*
X129235200Y-114960400D03*
X140233400Y-101955600D03*
X129565400Y-108077000D03*
X172821600Y-102819200D03*
X171526200Y-102819200D03*
D15*
X143154400Y-105841800D03*
%TO.N,+3V3*%
X185929396Y-115571396D03*
X189585600Y-105562400D03*
X152577800Y-112445800D03*
X157708600Y-105130600D03*
X175590200Y-113842800D03*
X189585600Y-106807000D03*
X128905000Y-103880700D03*
X128930400Y-102081700D03*
X187121800Y-115493800D03*
%TO.N,/I2C_GP5_CLK*%
X122809000Y-96342200D03*
%TO.N,/UART1_TX*%
X137972800Y-99237800D03*
X136271000Y-110820200D03*
%TO.N,/UART1_RX*%
X135458200Y-111455200D03*
%TO.N,/PWM01*%
X116509800Y-92100400D03*
X116382800Y-93726000D03*
%TO.N,/GPIO27_PWM2*%
X117729000Y-93853000D03*
X117805200Y-91926500D03*
%TO.N,/GPIO8_AO_DMIC_IN_DAT*%
X125171200Y-97282000D03*
%TO.N,/GPIO35_PWM3*%
X120142000Y-93980000D03*
X120272110Y-91926500D03*
%TO.N,/SPI1_MISO*%
X153466800Y-100025200D03*
%TO.N,/GPIO17_40HEADER*%
X165160393Y-104177936D03*
%TO.N,/SPI1_CS0*%
X154787600Y-100419900D03*
%TO.N,/CAN0_DIN*%
X145999200Y-99771200D03*
X101650800Y-108102400D03*
X115229452Y-101869052D03*
%TO.N,/CAN0_DOUT*%
X131114800Y-100711000D03*
X126873000Y-103962200D03*
X126873000Y-102463600D03*
X145999200Y-93299900D03*
%TO.N,/CAN1_DIN*%
X170197927Y-114712516D03*
X167436800Y-114680878D03*
%TO.N,/RS232 to UART/RIN1*%
X177673000Y-113792000D03*
%TO.N,/RS232 to UART/DOUT1*%
X176682400Y-114325400D03*
%TO.N,/CAN BUS SPI/CHS-*%
X180448393Y-104271185D03*
%TO.N,/CAN BUS SPI/CHS+*%
X180448393Y-103271185D03*
%TO.N,/CAN BUS SPI/RDX_SPI*%
X160756600Y-106248200D03*
X164109400Y-104089200D03*
%TO.N,/CAN BUS 0/CH0+*%
X132856422Y-111952222D03*
%TO.N,/CAN BUS 0/CH0-*%
X132958022Y-114060422D03*
%TO.N,/CAN BUS 1/CH1+*%
X155143200Y-102946200D03*
%TO.N,/CAN BUS 1/CH1-*%
X155168600Y-104795700D03*
%TD*%
D17*
%TO.N,GND*%
X137130438Y-95045962D02*
X137262438Y-95045962D01*
X132050438Y-97585962D02*
X133676876Y-99212400D01*
X168173400Y-99364800D02*
X171297600Y-99364800D01*
X149830438Y-97585962D02*
X149830438Y-99699162D01*
X157506238Y-95045962D02*
X158724600Y-93827600D01*
X167610438Y-97585962D02*
X167610438Y-98801838D01*
X167970200Y-99161600D02*
X168173400Y-99364800D01*
X157450438Y-95045962D02*
X157506238Y-95045962D01*
X167610438Y-98801838D02*
X167970200Y-99161600D01*
X149830438Y-99699162D02*
X149453600Y-100076000D01*
X142210438Y-97585962D02*
X142210438Y-97870362D01*
X133676876Y-99212400D02*
X134594600Y-99212400D01*
X142210438Y-97870362D02*
X140995400Y-99085400D01*
X137262438Y-95045962D02*
X138328400Y-93980000D01*
%TD*%
%TA.AperFunction,Conductor*%
%TO.N,GND*%
G36*
X177319137Y-90449998D02*
G01*
X177352441Y-90451867D01*
X177433003Y-90456392D01*
X177605091Y-90466801D01*
X177611697Y-90467560D01*
X177683307Y-90479727D01*
X177747743Y-90490677D01*
X177840862Y-90507740D01*
X177896627Y-90517960D01*
X177902598Y-90519363D01*
X178039432Y-90558784D01*
X178180250Y-90602665D01*
X178185492Y-90604564D01*
X178318820Y-90659791D01*
X178452009Y-90719734D01*
X178456547Y-90722005D01*
X178529621Y-90762391D01*
X178583822Y-90792347D01*
X178583839Y-90792356D01*
X178708335Y-90867617D01*
X178712139Y-90870111D01*
X178830126Y-90953827D01*
X178832472Y-90955576D01*
X178922361Y-91026000D01*
X178945732Y-91044310D01*
X178948809Y-91046886D01*
X179056830Y-91143418D01*
X179059357Y-91145808D01*
X179160990Y-91247441D01*
X179163380Y-91249968D01*
X179259912Y-91357989D01*
X179262488Y-91361066D01*
X179351211Y-91474312D01*
X179352971Y-91476672D01*
X179436687Y-91594659D01*
X179439181Y-91598463D01*
X179514443Y-91722960D01*
X179584793Y-91850251D01*
X179587068Y-91854798D01*
X179647009Y-91987981D01*
X179702231Y-92121299D01*
X179704144Y-92126583D01*
X179727033Y-92200034D01*
X179748031Y-92267421D01*
X179787432Y-92404190D01*
X179788840Y-92410181D01*
X179816122Y-92559056D01*
X179839235Y-92695083D01*
X179839999Y-92701730D01*
X179850412Y-92873875D01*
X179856802Y-92987663D01*
X179856900Y-92991141D01*
X179856900Y-95672077D01*
X179888845Y-95955605D01*
X179888847Y-95955617D01*
X179888848Y-95955620D01*
X179893024Y-95973915D01*
X179952342Y-96233808D01*
X179952346Y-96233820D01*
X180046583Y-96503132D01*
X180046592Y-96503154D01*
X180170387Y-96760218D01*
X180170391Y-96760224D01*
X180322203Y-97001831D01*
X180500111Y-97224921D01*
X180701879Y-97426689D01*
X180924969Y-97604597D01*
X181044425Y-97679656D01*
X181166581Y-97756412D01*
X181423645Y-97880207D01*
X181423654Y-97880210D01*
X181423661Y-97880214D01*
X181423667Y-97880216D01*
X181692979Y-97974453D01*
X181692991Y-97974457D01*
X181971180Y-98037952D01*
X181971189Y-98037953D01*
X181971194Y-98037954D01*
X182149059Y-98057994D01*
X182254723Y-98069899D01*
X182254726Y-98069900D01*
X182254729Y-98069900D01*
X182397301Y-98069900D01*
X190015660Y-98069900D01*
X190019137Y-98069998D01*
X190052441Y-98071867D01*
X190133003Y-98076392D01*
X190305091Y-98086801D01*
X190311697Y-98087560D01*
X190383307Y-98099727D01*
X190447743Y-98110677D01*
X190540862Y-98127740D01*
X190596627Y-98137960D01*
X190602598Y-98139363D01*
X190739432Y-98178784D01*
X190880250Y-98222665D01*
X190885492Y-98224564D01*
X191018820Y-98279791D01*
X191152009Y-98339734D01*
X191156547Y-98342005D01*
X191210152Y-98371631D01*
X191283822Y-98412347D01*
X191283839Y-98412356D01*
X191408335Y-98487617D01*
X191412138Y-98490110D01*
X191429096Y-98502143D01*
X191530126Y-98573827D01*
X191532472Y-98575576D01*
X191594366Y-98624067D01*
X191645732Y-98664310D01*
X191648809Y-98666886D01*
X191756830Y-98763418D01*
X191759357Y-98765808D01*
X191860990Y-98867441D01*
X191863380Y-98869968D01*
X191959912Y-98977989D01*
X191962488Y-98981066D01*
X192051211Y-99094312D01*
X192052971Y-99096672D01*
X192136687Y-99214659D01*
X192139181Y-99218463D01*
X192214443Y-99342960D01*
X192284793Y-99470251D01*
X192287068Y-99474798D01*
X192347009Y-99607981D01*
X192402231Y-99741299D01*
X192404144Y-99746583D01*
X192424062Y-99810500D01*
X192448031Y-99887421D01*
X192487432Y-100024190D01*
X192488840Y-100030181D01*
X192516122Y-100179056D01*
X192539235Y-100315083D01*
X192539999Y-100321730D01*
X192550412Y-100493875D01*
X192556802Y-100607663D01*
X192556900Y-100611141D01*
X192556900Y-114577658D01*
X192556802Y-114581136D01*
X192550412Y-114694924D01*
X192539999Y-114867068D01*
X192539235Y-114873715D01*
X192516122Y-115009743D01*
X192488840Y-115158617D01*
X192487432Y-115164608D01*
X192448025Y-115301401D01*
X192404144Y-115442215D01*
X192402231Y-115447499D01*
X192347009Y-115580818D01*
X192287068Y-115714000D01*
X192284794Y-115718547D01*
X192214443Y-115845839D01*
X192139181Y-115970336D01*
X192136687Y-115974139D01*
X192052971Y-116092126D01*
X192051211Y-116094486D01*
X191962488Y-116207732D01*
X191959912Y-116210809D01*
X191863380Y-116318830D01*
X191860990Y-116321357D01*
X191759357Y-116422990D01*
X191756830Y-116425380D01*
X191648809Y-116521912D01*
X191645732Y-116524488D01*
X191532486Y-116613211D01*
X191530126Y-116614971D01*
X191412139Y-116698687D01*
X191408336Y-116701181D01*
X191283839Y-116776443D01*
X191156547Y-116846794D01*
X191152000Y-116849068D01*
X191018818Y-116909009D01*
X190885499Y-116964231D01*
X190880215Y-116966144D01*
X190762631Y-117002785D01*
X190739390Y-117010027D01*
X190602608Y-117049432D01*
X190596617Y-117050840D01*
X190447743Y-117078122D01*
X190311715Y-117101235D01*
X190305068Y-117101999D01*
X190132924Y-117112412D01*
X190019136Y-117118802D01*
X190015658Y-117118900D01*
X103024142Y-117118900D01*
X103020665Y-117118802D01*
X102906875Y-117112412D01*
X102734730Y-117101999D01*
X102728083Y-117101235D01*
X102592056Y-117078122D01*
X102443181Y-117050840D01*
X102437190Y-117049432D01*
X102300421Y-117010031D01*
X102233034Y-116989033D01*
X102159583Y-116966144D01*
X102154299Y-116964231D01*
X102020981Y-116909009D01*
X101887798Y-116849068D01*
X101883251Y-116846793D01*
X101755960Y-116776443D01*
X101631463Y-116701181D01*
X101627659Y-116698687D01*
X101509672Y-116614971D01*
X101507312Y-116613211D01*
X101394066Y-116524488D01*
X101390989Y-116521912D01*
X101282968Y-116425380D01*
X101280441Y-116422990D01*
X101178808Y-116321357D01*
X101176418Y-116318830D01*
X101079886Y-116210809D01*
X101077310Y-116207732D01*
X101045154Y-116166688D01*
X100988576Y-116094472D01*
X100986827Y-116092126D01*
X100903111Y-115974139D01*
X100900617Y-115970335D01*
X100825356Y-115845839D01*
X100755005Y-115718547D01*
X100752730Y-115714000D01*
X100692790Y-115580818D01*
X100676719Y-115542020D01*
X100637564Y-115447492D01*
X100635665Y-115442250D01*
X100591775Y-115301401D01*
X100552363Y-115164598D01*
X100550960Y-115158627D01*
X100529071Y-115039181D01*
X100523677Y-115009743D01*
X100508694Y-114921566D01*
X100500560Y-114873697D01*
X100499801Y-114867091D01*
X100489392Y-114695003D01*
X100485026Y-114617267D01*
X100482998Y-114581136D01*
X100482900Y-114577659D01*
X100482900Y-114060422D01*
X132052562Y-114060422D01*
X132072348Y-114248678D01*
X132072349Y-114248681D01*
X132130840Y-114428699D01*
X132130843Y-114428706D01*
X132225489Y-114592638D01*
X132331390Y-114710253D01*
X132352151Y-114733310D01*
X132505287Y-114844570D01*
X132505292Y-114844573D01*
X132678214Y-114921564D01*
X132678219Y-114921566D01*
X132863376Y-114960922D01*
X132863377Y-114960922D01*
X133052666Y-114960922D01*
X133052668Y-114960922D01*
X133237825Y-114921566D01*
X133410752Y-114844573D01*
X133563893Y-114733310D01*
X133686177Y-114597500D01*
X151519940Y-114597500D01*
X151539726Y-114785756D01*
X151540210Y-114787245D01*
X151598218Y-114965777D01*
X151598221Y-114965784D01*
X151692867Y-115129716D01*
X151796428Y-115244732D01*
X151819529Y-115270388D01*
X151972665Y-115381648D01*
X151972670Y-115381651D01*
X152145592Y-115458642D01*
X152145597Y-115458644D01*
X152330754Y-115498000D01*
X152330755Y-115498000D01*
X152520044Y-115498000D01*
X152520046Y-115498000D01*
X152705203Y-115458644D01*
X152878130Y-115381651D01*
X153031271Y-115270388D01*
X153157933Y-115129716D01*
X153252579Y-114965784D01*
X153311074Y-114785756D01*
X153322097Y-114680878D01*
X166531340Y-114680878D01*
X166551126Y-114869134D01*
X166551127Y-114869137D01*
X166609618Y-115049155D01*
X166609621Y-115049162D01*
X166704267Y-115213094D01*
X166787506Y-115305540D01*
X166830929Y-115353766D01*
X166984065Y-115465026D01*
X166984070Y-115465029D01*
X167156992Y-115542020D01*
X167156997Y-115542022D01*
X167342154Y-115581378D01*
X167342155Y-115581378D01*
X167531444Y-115581378D01*
X167531446Y-115581378D01*
X167716603Y-115542022D01*
X167889530Y-115465029D01*
X168042671Y-115353766D01*
X168169333Y-115213094D01*
X168263979Y-115049162D01*
X168322474Y-114869134D01*
X168338935Y-114712516D01*
X169292467Y-114712516D01*
X169312253Y-114900772D01*
X169312254Y-114900775D01*
X169370745Y-115080793D01*
X169370748Y-115080800D01*
X169465394Y-115244732D01*
X169520146Y-115305540D01*
X169592056Y-115385404D01*
X169745192Y-115496664D01*
X169745197Y-115496667D01*
X169918119Y-115573658D01*
X169918124Y-115573660D01*
X170103281Y-115613016D01*
X170103282Y-115613016D01*
X170292571Y-115613016D01*
X170292573Y-115613016D01*
X170477730Y-115573660D01*
X170482815Y-115571396D01*
X185023936Y-115571396D01*
X185043722Y-115759652D01*
X185043723Y-115759655D01*
X185102214Y-115939673D01*
X185102217Y-115939680D01*
X185196863Y-116103612D01*
X185293384Y-116210809D01*
X185323525Y-116244284D01*
X185476661Y-116355544D01*
X185476666Y-116355547D01*
X185649588Y-116432538D01*
X185649593Y-116432540D01*
X185834750Y-116471896D01*
X185834751Y-116471896D01*
X186024040Y-116471896D01*
X186024042Y-116471896D01*
X186209199Y-116432540D01*
X186382126Y-116355547D01*
X186506115Y-116265463D01*
X186571919Y-116241985D01*
X186639972Y-116257810D01*
X186651882Y-116265464D01*
X186669066Y-116277948D01*
X186669070Y-116277951D01*
X186841992Y-116354942D01*
X186841997Y-116354944D01*
X187027154Y-116394300D01*
X187027155Y-116394300D01*
X187216444Y-116394300D01*
X187216446Y-116394300D01*
X187401603Y-116354944D01*
X187574530Y-116277951D01*
X187727671Y-116166688D01*
X187854333Y-116026016D01*
X187948979Y-115862084D01*
X188007474Y-115682056D01*
X188027260Y-115493800D01*
X188007474Y-115305544D01*
X187948979Y-115125516D01*
X187854333Y-114961584D01*
X187727671Y-114820912D01*
X187727670Y-114820911D01*
X187574534Y-114709651D01*
X187574529Y-114709648D01*
X187401607Y-114632657D01*
X187401602Y-114632655D01*
X187255801Y-114601665D01*
X187216446Y-114593300D01*
X187027154Y-114593300D01*
X186994697Y-114600198D01*
X186841997Y-114632655D01*
X186841992Y-114632657D01*
X186669070Y-114709648D01*
X186669066Y-114709650D01*
X186545080Y-114799731D01*
X186479274Y-114823210D01*
X186411220Y-114807384D01*
X186399311Y-114799730D01*
X186382130Y-114787247D01*
X186382125Y-114787244D01*
X186209203Y-114710253D01*
X186209198Y-114710251D01*
X186061708Y-114678902D01*
X186024042Y-114670896D01*
X185834750Y-114670896D01*
X185802293Y-114677794D01*
X185649593Y-114710251D01*
X185649588Y-114710253D01*
X185476666Y-114787244D01*
X185476661Y-114787247D01*
X185323525Y-114898507D01*
X185196862Y-115039181D01*
X185102217Y-115203111D01*
X185102214Y-115203118D01*
X185044206Y-115381651D01*
X185043722Y-115383140D01*
X185023936Y-115571396D01*
X170482815Y-115571396D01*
X170650657Y-115496667D01*
X170803798Y-115385404D01*
X170930460Y-115244732D01*
X171025106Y-115080800D01*
X171083601Y-114900772D01*
X171103387Y-114712516D01*
X171083601Y-114524260D01*
X171025106Y-114344232D01*
X170930460Y-114180300D01*
X170803798Y-114039628D01*
X170760252Y-114007990D01*
X170650661Y-113928367D01*
X170650656Y-113928364D01*
X170477734Y-113851373D01*
X170477729Y-113851371D01*
X170437404Y-113842800D01*
X174684740Y-113842800D01*
X174704526Y-114031056D01*
X174704527Y-114031059D01*
X174763018Y-114211077D01*
X174763021Y-114211084D01*
X174857667Y-114375016D01*
X174963557Y-114492618D01*
X174984329Y-114515688D01*
X175137465Y-114626948D01*
X175137470Y-114626951D01*
X175310392Y-114703942D01*
X175310397Y-114703944D01*
X175495554Y-114743300D01*
X175495555Y-114743300D01*
X175684844Y-114743300D01*
X175684846Y-114743300D01*
X175773992Y-114724351D01*
X175843655Y-114729666D01*
X175899389Y-114771803D01*
X175907157Y-114783641D01*
X175949866Y-114857614D01*
X175949865Y-114857614D01*
X176076529Y-114998288D01*
X176229665Y-115109548D01*
X176229670Y-115109551D01*
X176402592Y-115186542D01*
X176402597Y-115186544D01*
X176587754Y-115225900D01*
X176587755Y-115225900D01*
X176777044Y-115225900D01*
X176777046Y-115225900D01*
X176962203Y-115186544D01*
X177135130Y-115109551D01*
X177288271Y-114998288D01*
X177414933Y-114857616D01*
X177474467Y-114754500D01*
X177525034Y-114706285D01*
X177581854Y-114692500D01*
X177767644Y-114692500D01*
X177767646Y-114692500D01*
X177952803Y-114653144D01*
X178125730Y-114576151D01*
X178278871Y-114464888D01*
X178405533Y-114324216D01*
X178500179Y-114160284D01*
X178558674Y-113980256D01*
X178578460Y-113792000D01*
X178558674Y-113603744D01*
X178500179Y-113423716D01*
X178405533Y-113259784D01*
X178278871Y-113119112D01*
X178278870Y-113119111D01*
X178125734Y-113007851D01*
X178125729Y-113007848D01*
X177952807Y-112930857D01*
X177952802Y-112930855D01*
X177807001Y-112899865D01*
X177767646Y-112891500D01*
X177578354Y-112891500D01*
X177545897Y-112898398D01*
X177393197Y-112930855D01*
X177393192Y-112930857D01*
X177220270Y-113007848D01*
X177220265Y-113007851D01*
X177067129Y-113119111D01*
X176940466Y-113259785D01*
X176880933Y-113362900D01*
X176830366Y-113411115D01*
X176773546Y-113424900D01*
X176587749Y-113424900D01*
X176498608Y-113443847D01*
X176428941Y-113438531D01*
X176373208Y-113396394D01*
X176365447Y-113384566D01*
X176322733Y-113310584D01*
X176196071Y-113169912D01*
X176126151Y-113119112D01*
X176042934Y-113058651D01*
X176042929Y-113058648D01*
X175870007Y-112981657D01*
X175870002Y-112981655D01*
X175724201Y-112950665D01*
X175684846Y-112942300D01*
X175495554Y-112942300D01*
X175463097Y-112949198D01*
X175310397Y-112981655D01*
X175310392Y-112981657D01*
X175137470Y-113058648D01*
X175137465Y-113058651D01*
X174984329Y-113169911D01*
X174857666Y-113310585D01*
X174763021Y-113474515D01*
X174763018Y-113474522D01*
X174721033Y-113603740D01*
X174704526Y-113654544D01*
X174684740Y-113842800D01*
X170437404Y-113842800D01*
X170328879Y-113819733D01*
X170292573Y-113812016D01*
X170103281Y-113812016D01*
X170070824Y-113818914D01*
X169918124Y-113851371D01*
X169918119Y-113851373D01*
X169745197Y-113928364D01*
X169745192Y-113928367D01*
X169592056Y-114039627D01*
X169465393Y-114180301D01*
X169370748Y-114344231D01*
X169370745Y-114344238D01*
X169315038Y-114515688D01*
X169312253Y-114524260D01*
X169292467Y-114712516D01*
X168338935Y-114712516D01*
X168342260Y-114680878D01*
X168322474Y-114492622D01*
X168263979Y-114312594D01*
X168169333Y-114148662D01*
X168042671Y-114007990D01*
X168042670Y-114007989D01*
X167889534Y-113896729D01*
X167889529Y-113896726D01*
X167716607Y-113819735D01*
X167716602Y-113819733D01*
X167570801Y-113788743D01*
X167531446Y-113780378D01*
X167342154Y-113780378D01*
X167309697Y-113787276D01*
X167156997Y-113819733D01*
X167156992Y-113819735D01*
X166984070Y-113896726D01*
X166984065Y-113896729D01*
X166830929Y-114007989D01*
X166704266Y-114148663D01*
X166609621Y-114312593D01*
X166609618Y-114312600D01*
X166560137Y-114464888D01*
X166551126Y-114492622D01*
X166531340Y-114680878D01*
X153322097Y-114680878D01*
X153330860Y-114597500D01*
X153311074Y-114409244D01*
X153252579Y-114229216D01*
X153157933Y-114065284D01*
X153031271Y-113924612D01*
X153031270Y-113924611D01*
X152878134Y-113813351D01*
X152878129Y-113813348D01*
X152705207Y-113736357D01*
X152705202Y-113736355D01*
X152559401Y-113705365D01*
X152520046Y-113697000D01*
X152330754Y-113697000D01*
X152298297Y-113703898D01*
X152145597Y-113736355D01*
X152145592Y-113736357D01*
X151972670Y-113813348D01*
X151972665Y-113813351D01*
X151819529Y-113924611D01*
X151692866Y-114065285D01*
X151598221Y-114229215D01*
X151598218Y-114229222D01*
X151550848Y-114375014D01*
X151539726Y-114409244D01*
X151519940Y-114597500D01*
X133686177Y-114597500D01*
X133690555Y-114592638D01*
X133785201Y-114428706D01*
X133843696Y-114248678D01*
X133863482Y-114060422D01*
X133843696Y-113872166D01*
X133785201Y-113692138D01*
X133690555Y-113528206D01*
X133563893Y-113387534D01*
X133563892Y-113387533D01*
X133410756Y-113276273D01*
X133410751Y-113276270D01*
X133237829Y-113199279D01*
X133237824Y-113199277D01*
X133088113Y-113167456D01*
X133052668Y-113159922D01*
X132863376Y-113159922D01*
X132830919Y-113166820D01*
X132678219Y-113199277D01*
X132678214Y-113199279D01*
X132505292Y-113276270D01*
X132505287Y-113276273D01*
X132352151Y-113387533D01*
X132225488Y-113528207D01*
X132130843Y-113692137D01*
X132130840Y-113692144D01*
X132079104Y-113851372D01*
X132072348Y-113872166D01*
X132052562Y-114060422D01*
X100482900Y-114060422D01*
X100482900Y-112979200D01*
X106231740Y-112979200D01*
X106251526Y-113167456D01*
X106251527Y-113167459D01*
X106310018Y-113347477D01*
X106310021Y-113347484D01*
X106404667Y-113511416D01*
X106419786Y-113528207D01*
X106531329Y-113652088D01*
X106684465Y-113763348D01*
X106684470Y-113763351D01*
X106857392Y-113840342D01*
X106857397Y-113840344D01*
X107042554Y-113879700D01*
X107042555Y-113879700D01*
X107231844Y-113879700D01*
X107231846Y-113879700D01*
X107417003Y-113840344D01*
X107589930Y-113763351D01*
X107743071Y-113652088D01*
X107869733Y-113511416D01*
X107964379Y-113347484D01*
X108022874Y-113167456D01*
X108042660Y-112979200D01*
X108022874Y-112790944D01*
X107964379Y-112610916D01*
X107886291Y-112475664D01*
X107869819Y-112407766D01*
X107892672Y-112341739D01*
X107947593Y-112298548D01*
X107952724Y-112296625D01*
X108053135Y-112261488D01*
X108053136Y-112261488D01*
X107743870Y-111952222D01*
X131950962Y-111952222D01*
X131970748Y-112140478D01*
X131970749Y-112140481D01*
X132029240Y-112320499D01*
X132029243Y-112320506D01*
X132123889Y-112484438D01*
X132237770Y-112610915D01*
X132250551Y-112625110D01*
X132403687Y-112736370D01*
X132403692Y-112736373D01*
X132576614Y-112813364D01*
X132576619Y-112813366D01*
X132761776Y-112852722D01*
X132761777Y-112852722D01*
X132951066Y-112852722D01*
X132951068Y-112852722D01*
X133136225Y-112813366D01*
X133309152Y-112736373D01*
X133462293Y-112625110D01*
X133588955Y-112484438D01*
X133611263Y-112445800D01*
X151672340Y-112445800D01*
X151692126Y-112634056D01*
X151692127Y-112634059D01*
X151750618Y-112814077D01*
X151750621Y-112814084D01*
X151845267Y-112978016D01*
X151971929Y-113118688D01*
X152125065Y-113229948D01*
X152125070Y-113229951D01*
X152297992Y-113306942D01*
X152297997Y-113306944D01*
X152483154Y-113346300D01*
X152483155Y-113346300D01*
X152672444Y-113346300D01*
X152672446Y-113346300D01*
X152857603Y-113306944D01*
X153030530Y-113229951D01*
X153183671Y-113118688D01*
X153310333Y-112978016D01*
X153404979Y-112814084D01*
X153463474Y-112634056D01*
X153479262Y-112483844D01*
X154977263Y-112483844D01*
X155136034Y-112539402D01*
X155303974Y-112558324D01*
X155303982Y-112558324D01*
X155471921Y-112539402D01*
X155630691Y-112483845D01*
X155630692Y-112483844D01*
X155303979Y-112157131D01*
X155303978Y-112157131D01*
X154977263Y-112483844D01*
X153479262Y-112483844D01*
X153483260Y-112445800D01*
X153463474Y-112257544D01*
X153404979Y-112077516D01*
X153310333Y-111913584D01*
X153183671Y-111772912D01*
X153171358Y-111763966D01*
X153030534Y-111661651D01*
X153030529Y-111661648D01*
X152857607Y-111584657D01*
X152857602Y-111584655D01*
X152853786Y-111583844D01*
X154477263Y-111583844D01*
X154477291Y-111583968D01*
X154533759Y-111624469D01*
X154559506Y-111689421D01*
X154559248Y-111714670D01*
X154549232Y-111803572D01*
X154549232Y-111803581D01*
X154568153Y-111971516D01*
X154568154Y-111971521D01*
X154623710Y-112130291D01*
X154917932Y-111836070D01*
X155203978Y-111836070D01*
X155242175Y-111888643D01*
X155288140Y-111903578D01*
X155319816Y-111903578D01*
X155365781Y-111888643D01*
X155403978Y-111836070D01*
X155403978Y-111771086D01*
X155365781Y-111718513D01*
X155319816Y-111703578D01*
X155288140Y-111703578D01*
X155242175Y-111718513D01*
X155203978Y-111771086D01*
X155203978Y-111836070D01*
X154917932Y-111836070D01*
X155150425Y-111603578D01*
X155457531Y-111603578D01*
X155984244Y-112130291D01*
X155984245Y-112130291D01*
X156039802Y-111971521D01*
X156058724Y-111803581D01*
X156058724Y-111803575D01*
X156048707Y-111714672D01*
X156060761Y-111645850D01*
X156108110Y-111594470D01*
X156130683Y-111583881D01*
X156130692Y-111583844D01*
X155803978Y-111257131D01*
X155457531Y-111603578D01*
X155150425Y-111603578D01*
X155150425Y-111603577D01*
X154803979Y-111257131D01*
X154803978Y-111257131D01*
X154477263Y-111583844D01*
X152853786Y-111583844D01*
X152711801Y-111553665D01*
X152672446Y-111545300D01*
X152483154Y-111545300D01*
X152467017Y-111548730D01*
X152297997Y-111584655D01*
X152297992Y-111584657D01*
X152125070Y-111661648D01*
X152125065Y-111661651D01*
X151971929Y-111772911D01*
X151845266Y-111913585D01*
X151750621Y-112077515D01*
X151750618Y-112077522D01*
X151712431Y-112195051D01*
X151692126Y-112257544D01*
X151672340Y-112445800D01*
X133611263Y-112445800D01*
X133683601Y-112320506D01*
X133742096Y-112140478D01*
X133761882Y-111952222D01*
X133742096Y-111763966D01*
X133683601Y-111583938D01*
X133609274Y-111455200D01*
X134552740Y-111455200D01*
X134572526Y-111643456D01*
X134572527Y-111643459D01*
X134631018Y-111823477D01*
X134631021Y-111823484D01*
X134725667Y-111987416D01*
X134806793Y-112077515D01*
X134852329Y-112128088D01*
X135005465Y-112239348D01*
X135005470Y-112239351D01*
X135178392Y-112316342D01*
X135178397Y-112316344D01*
X135363554Y-112355700D01*
X135363555Y-112355700D01*
X135552844Y-112355700D01*
X135552846Y-112355700D01*
X135738003Y-112316344D01*
X135910930Y-112239351D01*
X136064071Y-112128088D01*
X136190733Y-111987416D01*
X136285379Y-111823484D01*
X136293175Y-111799490D01*
X136332609Y-111741815D01*
X136385318Y-111716518D01*
X136550803Y-111681344D01*
X136550807Y-111681342D01*
X136550808Y-111681342D01*
X136635900Y-111643456D01*
X136723730Y-111604351D01*
X136876871Y-111493088D01*
X137003533Y-111352416D01*
X137098179Y-111188484D01*
X137156674Y-111008456D01*
X137167697Y-110903581D01*
X154049232Y-110903581D01*
X154068153Y-111071516D01*
X154068154Y-111071521D01*
X154123710Y-111230292D01*
X154417933Y-110936070D01*
X154703978Y-110936070D01*
X154742175Y-110988643D01*
X154788140Y-111003578D01*
X154819816Y-111003578D01*
X154865781Y-110988643D01*
X154903978Y-110936070D01*
X154903978Y-110903578D01*
X155157531Y-110903578D01*
X155303978Y-111050025D01*
X155417933Y-110936070D01*
X155703978Y-110936070D01*
X155742175Y-110988643D01*
X155788140Y-111003578D01*
X155819816Y-111003578D01*
X155865781Y-110988643D01*
X155903978Y-110936070D01*
X155903978Y-110903579D01*
X156157531Y-110903579D01*
X156484244Y-111230292D01*
X156484245Y-111230291D01*
X156539802Y-111071521D01*
X156558724Y-110903581D01*
X156558724Y-110903574D01*
X156539802Y-110735634D01*
X156484244Y-110576863D01*
X156157531Y-110903577D01*
X156157531Y-110903579D01*
X155903978Y-110903579D01*
X155903978Y-110871086D01*
X155865781Y-110818513D01*
X155819816Y-110803578D01*
X155788140Y-110803578D01*
X155742175Y-110818513D01*
X155703978Y-110871086D01*
X155703978Y-110936070D01*
X155417933Y-110936070D01*
X155450425Y-110903578D01*
X155303978Y-110757131D01*
X155157531Y-110903578D01*
X154903978Y-110903578D01*
X154903978Y-110871086D01*
X154865781Y-110818513D01*
X154819816Y-110803578D01*
X154788140Y-110803578D01*
X154742175Y-110818513D01*
X154703978Y-110871086D01*
X154703978Y-110936070D01*
X154417933Y-110936070D01*
X154450425Y-110903578D01*
X154123710Y-110576863D01*
X154068154Y-110735631D01*
X154068153Y-110735636D01*
X154049232Y-110903574D01*
X154049232Y-110903581D01*
X137167697Y-110903581D01*
X137176460Y-110820200D01*
X137156674Y-110631944D01*
X137098179Y-110451916D01*
X137003533Y-110287984D01*
X136945300Y-110223310D01*
X154477262Y-110223310D01*
X154803977Y-110550025D01*
X155150425Y-110203578D01*
X155457531Y-110203578D01*
X155803978Y-110550025D01*
X155803979Y-110550025D01*
X156130692Y-110223310D01*
X156130663Y-110223185D01*
X156074196Y-110182685D01*
X156048449Y-110117733D01*
X156048707Y-110092482D01*
X156058724Y-110003580D01*
X156058724Y-110003574D01*
X156039802Y-109835634D01*
X155984244Y-109676863D01*
X155457531Y-110203577D01*
X155457531Y-110203578D01*
X155150425Y-110203578D01*
X154982917Y-110036070D01*
X155203978Y-110036070D01*
X155242175Y-110088643D01*
X155288140Y-110103578D01*
X155319816Y-110103578D01*
X155365781Y-110088643D01*
X155403978Y-110036070D01*
X155403978Y-109971086D01*
X155365781Y-109918513D01*
X155319816Y-109903578D01*
X155288140Y-109903578D01*
X155242175Y-109918513D01*
X155203978Y-109971086D01*
X155203978Y-110036070D01*
X154982917Y-110036070D01*
X154623710Y-109676863D01*
X154568154Y-109835631D01*
X154568153Y-109835636D01*
X154549232Y-110003574D01*
X154549232Y-110003582D01*
X154559248Y-110092483D01*
X154547193Y-110161305D01*
X154499844Y-110212684D01*
X154477271Y-110223271D01*
X154477262Y-110223310D01*
X136945300Y-110223310D01*
X136876871Y-110147312D01*
X136836159Y-110117733D01*
X136723734Y-110036051D01*
X136723729Y-110036048D01*
X136550807Y-109959057D01*
X136550802Y-109959055D01*
X136405001Y-109928065D01*
X136365646Y-109919700D01*
X136176354Y-109919700D01*
X136143897Y-109926598D01*
X135991197Y-109959055D01*
X135991192Y-109959057D01*
X135818270Y-110036048D01*
X135818265Y-110036051D01*
X135665129Y-110147311D01*
X135538466Y-110287985D01*
X135443821Y-110451915D01*
X135443819Y-110451919D01*
X135436024Y-110475912D01*
X135396586Y-110533587D01*
X135343874Y-110558883D01*
X135178397Y-110594055D01*
X135178392Y-110594057D01*
X135005470Y-110671048D01*
X135005465Y-110671051D01*
X134852329Y-110782311D01*
X134725666Y-110922985D01*
X134631021Y-111086915D01*
X134631018Y-111086922D01*
X134598019Y-111188484D01*
X134572526Y-111266944D01*
X134552740Y-111455200D01*
X133609274Y-111455200D01*
X133588955Y-111420006D01*
X133462293Y-111279334D01*
X133445240Y-111266944D01*
X133309156Y-111168073D01*
X133309151Y-111168070D01*
X133136229Y-111091079D01*
X133136224Y-111091077D01*
X132990423Y-111060087D01*
X132951068Y-111051722D01*
X132761776Y-111051722D01*
X132729319Y-111058620D01*
X132576619Y-111091077D01*
X132576614Y-111091079D01*
X132403692Y-111168070D01*
X132403687Y-111168073D01*
X132250551Y-111279333D01*
X132123888Y-111420007D01*
X132029243Y-111583937D01*
X132029240Y-111583944D01*
X131975557Y-111749165D01*
X131970748Y-111763966D01*
X131950962Y-111952222D01*
X107743870Y-111952222D01*
X107460550Y-111668902D01*
X107430415Y-111613714D01*
X107626422Y-111613714D01*
X107664619Y-111666287D01*
X107710584Y-111681222D01*
X107742260Y-111681222D01*
X107788225Y-111666287D01*
X107826422Y-111613714D01*
X107826422Y-111548730D01*
X107788225Y-111496157D01*
X107742260Y-111481222D01*
X107710584Y-111481222D01*
X107664619Y-111496157D01*
X107626422Y-111548730D01*
X107626422Y-111613714D01*
X107430415Y-111613714D01*
X107427065Y-111607579D01*
X107432049Y-111537887D01*
X107460550Y-111493539D01*
X107572867Y-111381222D01*
X107879975Y-111381222D01*
X108406688Y-111907935D01*
X108406689Y-111907935D01*
X108462246Y-111749165D01*
X108481168Y-111581225D01*
X108481168Y-111581219D01*
X108471151Y-111492316D01*
X108483205Y-111423494D01*
X108530554Y-111372114D01*
X108553127Y-111361525D01*
X108553136Y-111361488D01*
X108226422Y-111034775D01*
X107879975Y-111381222D01*
X107572867Y-111381222D01*
X107572868Y-111381221D01*
X107226423Y-111034775D01*
X107226422Y-111034775D01*
X106899707Y-111361488D01*
X106899735Y-111361612D01*
X106956203Y-111402113D01*
X106981950Y-111467065D01*
X106981692Y-111492314D01*
X106971676Y-111581216D01*
X106971676Y-111581225D01*
X106990597Y-111749163D01*
X106990599Y-111749171D01*
X107046420Y-111908699D01*
X107049439Y-111914967D01*
X107048006Y-111915656D01*
X107064731Y-111974830D01*
X107044367Y-112041666D01*
X106991101Y-112086882D01*
X106966518Y-112094861D01*
X106857397Y-112118055D01*
X106857392Y-112118057D01*
X106684470Y-112195048D01*
X106684465Y-112195051D01*
X106531329Y-112306311D01*
X106404666Y-112446985D01*
X106310021Y-112610915D01*
X106310018Y-112610922D01*
X106269258Y-112736370D01*
X106251526Y-112790944D01*
X106231740Y-112979200D01*
X100482900Y-112979200D01*
X100482900Y-110681225D01*
X106471676Y-110681225D01*
X106490597Y-110849160D01*
X106490598Y-110849165D01*
X106546154Y-111007936D01*
X106840377Y-110713714D01*
X107126422Y-110713714D01*
X107164619Y-110766287D01*
X107210584Y-110781222D01*
X107242260Y-110781222D01*
X107288225Y-110766287D01*
X107326422Y-110713714D01*
X107326422Y-110681222D01*
X107579975Y-110681222D01*
X107726422Y-110827669D01*
X107840377Y-110713714D01*
X108126422Y-110713714D01*
X108164619Y-110766287D01*
X108210584Y-110781222D01*
X108242260Y-110781222D01*
X108288225Y-110766287D01*
X108326422Y-110713714D01*
X108326422Y-110681223D01*
X108579975Y-110681223D01*
X108906688Y-111007936D01*
X108906689Y-111007935D01*
X108962246Y-110849165D01*
X108981168Y-110681225D01*
X108981168Y-110681218D01*
X108962246Y-110513278D01*
X108906688Y-110354507D01*
X108579975Y-110681221D01*
X108579975Y-110681223D01*
X108326422Y-110681223D01*
X108326422Y-110648730D01*
X108288225Y-110596157D01*
X108242260Y-110581222D01*
X108210584Y-110581222D01*
X108164619Y-110596157D01*
X108126422Y-110648730D01*
X108126422Y-110713714D01*
X107840377Y-110713714D01*
X107872869Y-110681222D01*
X107726422Y-110534775D01*
X107579975Y-110681222D01*
X107326422Y-110681222D01*
X107326422Y-110648730D01*
X107288225Y-110596157D01*
X107242260Y-110581222D01*
X107210584Y-110581222D01*
X107164619Y-110596157D01*
X107126422Y-110648730D01*
X107126422Y-110713714D01*
X106840377Y-110713714D01*
X106872869Y-110681222D01*
X106546154Y-110354507D01*
X106490598Y-110513275D01*
X106490597Y-110513280D01*
X106471676Y-110681218D01*
X106471676Y-110681225D01*
X100482900Y-110681225D01*
X100482900Y-110000954D01*
X106899706Y-110000954D01*
X107226421Y-110327669D01*
X107572869Y-109981222D01*
X107879975Y-109981222D01*
X108226422Y-110327669D01*
X108226423Y-110327669D01*
X108553136Y-110000954D01*
X108553107Y-110000829D01*
X108496640Y-109960329D01*
X108470893Y-109895377D01*
X108471151Y-109870126D01*
X108481168Y-109781224D01*
X108481168Y-109781218D01*
X108462246Y-109613278D01*
X108406688Y-109454507D01*
X107879975Y-109981221D01*
X107879975Y-109981222D01*
X107572869Y-109981222D01*
X107405361Y-109813714D01*
X107626422Y-109813714D01*
X107664619Y-109866287D01*
X107710584Y-109881222D01*
X107742260Y-109881222D01*
X107788225Y-109866287D01*
X107826422Y-109813714D01*
X107826422Y-109748730D01*
X107788225Y-109696157D01*
X107742260Y-109681222D01*
X107710584Y-109681222D01*
X107664619Y-109696157D01*
X107626422Y-109748730D01*
X107626422Y-109813714D01*
X107405361Y-109813714D01*
X107046154Y-109454507D01*
X106990598Y-109613275D01*
X106990597Y-109613280D01*
X106971676Y-109781218D01*
X106971676Y-109781226D01*
X106981692Y-109870127D01*
X106969637Y-109938949D01*
X106922288Y-109990328D01*
X106899715Y-110000915D01*
X106899706Y-110000954D01*
X100482900Y-110000954D01*
X100482900Y-109100954D01*
X107399707Y-109100954D01*
X107726422Y-109427669D01*
X107726423Y-109427669D01*
X107830781Y-109323310D01*
X154977263Y-109323310D01*
X155303978Y-109650025D01*
X155303979Y-109650025D01*
X155630692Y-109323310D01*
X155471921Y-109267754D01*
X155471916Y-109267753D01*
X155303982Y-109248832D01*
X155303974Y-109248832D01*
X155136036Y-109267753D01*
X155136031Y-109267754D01*
X154977263Y-109323310D01*
X107830781Y-109323310D01*
X108053136Y-109100954D01*
X107894365Y-109045398D01*
X107894360Y-109045397D01*
X107726426Y-109026476D01*
X107726418Y-109026476D01*
X107558480Y-109045397D01*
X107558475Y-109045398D01*
X107399707Y-109100954D01*
X100482900Y-109100954D01*
X100482900Y-108102400D01*
X100745340Y-108102400D01*
X100765126Y-108290656D01*
X100765127Y-108290659D01*
X100823618Y-108470677D01*
X100823621Y-108470684D01*
X100918267Y-108634616D01*
X101032617Y-108761614D01*
X101044929Y-108775288D01*
X101198065Y-108886548D01*
X101198070Y-108886551D01*
X101370992Y-108963542D01*
X101370997Y-108963544D01*
X101556154Y-109002900D01*
X101556155Y-109002900D01*
X101745444Y-109002900D01*
X101745446Y-109002900D01*
X101930603Y-108963544D01*
X102103530Y-108886551D01*
X102256671Y-108775288D01*
X102383333Y-108634616D01*
X102477979Y-108470684D01*
X102536474Y-108290656D01*
X102542912Y-108229400D01*
X134374940Y-108229400D01*
X134394726Y-108417656D01*
X134394727Y-108417659D01*
X134453218Y-108597677D01*
X134453221Y-108597684D01*
X134547867Y-108761616D01*
X134660357Y-108886548D01*
X134674529Y-108902288D01*
X134827665Y-109013548D01*
X134827670Y-109013551D01*
X135000592Y-109090542D01*
X135000597Y-109090544D01*
X135185754Y-109129900D01*
X135185755Y-109129900D01*
X135375044Y-109129900D01*
X135375046Y-109129900D01*
X135560203Y-109090544D01*
X135733130Y-109013551D01*
X135886271Y-108902288D01*
X136012933Y-108761616D01*
X136107579Y-108597684D01*
X136166074Y-108417656D01*
X136185860Y-108229400D01*
X136166074Y-108041144D01*
X136107579Y-107861116D01*
X136012933Y-107697184D01*
X135886271Y-107556512D01*
X135886270Y-107556511D01*
X135733134Y-107445251D01*
X135733129Y-107445248D01*
X135560207Y-107368257D01*
X135560202Y-107368255D01*
X135405099Y-107335288D01*
X135375046Y-107328900D01*
X135185754Y-107328900D01*
X135155701Y-107335288D01*
X135000597Y-107368255D01*
X135000592Y-107368257D01*
X134827670Y-107445248D01*
X134827665Y-107445251D01*
X134674529Y-107556511D01*
X134547866Y-107697185D01*
X134453221Y-107861115D01*
X134453218Y-107861122D01*
X134394727Y-108041140D01*
X134394726Y-108041144D01*
X134374940Y-108229400D01*
X102542912Y-108229400D01*
X102556260Y-108102400D01*
X102536474Y-107914144D01*
X102477979Y-107734116D01*
X102383333Y-107570184D01*
X102256671Y-107429512D01*
X102203452Y-107390846D01*
X102103534Y-107318251D01*
X102103529Y-107318248D01*
X101930607Y-107241257D01*
X101930602Y-107241255D01*
X101784801Y-107210265D01*
X101745446Y-107201900D01*
X101556154Y-107201900D01*
X101523697Y-107208798D01*
X101370997Y-107241255D01*
X101370992Y-107241257D01*
X101198070Y-107318248D01*
X101198065Y-107318251D01*
X101044929Y-107429511D01*
X100918266Y-107570185D01*
X100823621Y-107734115D01*
X100823618Y-107734122D01*
X100765127Y-107914140D01*
X100765126Y-107914144D01*
X100745340Y-108102400D01*
X100482900Y-108102400D01*
X100482900Y-103923800D01*
X101674860Y-103923800D01*
X101695160Y-104311139D01*
X101713577Y-104427422D01*
X101755836Y-104694233D01*
X101808160Y-104889511D01*
X101856226Y-105068894D01*
X101995225Y-105430997D01*
X102171315Y-105776593D01*
X102382560Y-106101882D01*
X102598839Y-106368964D01*
X102626657Y-106403316D01*
X102900922Y-106677581D01*
X102996554Y-106755022D01*
X103202355Y-106921677D01*
X103491334Y-107109342D01*
X103527649Y-107132925D01*
X103873244Y-107309014D01*
X104235351Y-107448014D01*
X104610005Y-107548402D01*
X104993100Y-107609078D01*
X105359014Y-107628255D01*
X105380437Y-107629378D01*
X105380438Y-107629378D01*
X105380439Y-107629378D01*
X105400739Y-107628314D01*
X105767776Y-107609078D01*
X106150871Y-107548402D01*
X106525525Y-107448014D01*
X106819186Y-107335288D01*
X131333307Y-107335288D01*
X131492078Y-107390846D01*
X131660018Y-107409768D01*
X131660026Y-107409768D01*
X131827965Y-107390846D01*
X131986735Y-107335289D01*
X131986736Y-107335288D01*
X131660023Y-107008575D01*
X131660022Y-107008575D01*
X131333307Y-107335288D01*
X106819186Y-107335288D01*
X106887632Y-107309014D01*
X107233227Y-107132925D01*
X107558522Y-106921676D01*
X107859954Y-106677581D01*
X108102247Y-106435288D01*
X130833307Y-106435288D01*
X130833335Y-106435412D01*
X130889803Y-106475913D01*
X130915550Y-106540865D01*
X130915292Y-106566114D01*
X130905276Y-106655016D01*
X130905276Y-106655025D01*
X130924197Y-106822960D01*
X130924198Y-106822965D01*
X130979754Y-106981735D01*
X131273976Y-106687514D01*
X131560022Y-106687514D01*
X131598219Y-106740087D01*
X131644184Y-106755022D01*
X131675860Y-106755022D01*
X131721825Y-106740087D01*
X131760022Y-106687514D01*
X131760022Y-106622530D01*
X131721825Y-106569957D01*
X131675860Y-106555022D01*
X131644184Y-106555022D01*
X131598219Y-106569957D01*
X131560022Y-106622530D01*
X131560022Y-106687514D01*
X131273976Y-106687514D01*
X131506469Y-106455022D01*
X131813575Y-106455022D01*
X132340288Y-106981735D01*
X132340289Y-106981735D01*
X132395846Y-106822965D01*
X132414768Y-106655025D01*
X132414768Y-106655019D01*
X132404751Y-106566116D01*
X132416805Y-106497294D01*
X132464154Y-106445914D01*
X132486727Y-106435325D01*
X132486736Y-106435288D01*
X132299647Y-106248200D01*
X159851140Y-106248200D01*
X159870926Y-106436456D01*
X159870927Y-106436459D01*
X159929418Y-106616477D01*
X159929421Y-106616484D01*
X160024067Y-106780416D01*
X160150729Y-106921088D01*
X160303865Y-107032348D01*
X160303870Y-107032351D01*
X160476792Y-107109342D01*
X160476797Y-107109344D01*
X160661954Y-107148700D01*
X160661955Y-107148700D01*
X160851244Y-107148700D01*
X160851246Y-107148700D01*
X161036403Y-107109344D01*
X161209330Y-107032351D01*
X161362471Y-106921088D01*
X161489133Y-106780416D01*
X161583779Y-106616484D01*
X161642274Y-106436456D01*
X161662060Y-106248200D01*
X161642274Y-106059944D01*
X161583779Y-105879916D01*
X161489133Y-105715984D01*
X161362471Y-105575312D01*
X161362470Y-105575311D01*
X161209334Y-105464051D01*
X161209329Y-105464048D01*
X161036407Y-105387057D01*
X161036402Y-105387055D01*
X160890601Y-105356065D01*
X160851246Y-105347700D01*
X160661954Y-105347700D01*
X160629497Y-105354598D01*
X160476797Y-105387055D01*
X160476792Y-105387057D01*
X160303870Y-105464048D01*
X160303865Y-105464051D01*
X160150729Y-105575311D01*
X160024066Y-105715985D01*
X159929421Y-105879915D01*
X159929418Y-105879922D01*
X159880298Y-106031100D01*
X159870926Y-106059944D01*
X159851140Y-106248200D01*
X132299647Y-106248200D01*
X132160022Y-106108575D01*
X131813575Y-106455022D01*
X131506469Y-106455022D01*
X131506469Y-106455021D01*
X131160023Y-106108575D01*
X131160022Y-106108575D01*
X130833307Y-106435288D01*
X108102247Y-106435288D01*
X108134219Y-106403316D01*
X108378314Y-106101884D01*
X108589563Y-105776589D01*
X108600550Y-105755025D01*
X130405276Y-105755025D01*
X130424197Y-105922960D01*
X130424198Y-105922965D01*
X130479754Y-106081736D01*
X130773977Y-105787514D01*
X131060022Y-105787514D01*
X131098219Y-105840087D01*
X131144184Y-105855022D01*
X131175860Y-105855022D01*
X131221825Y-105840087D01*
X131260022Y-105787514D01*
X131260022Y-105755022D01*
X131513575Y-105755022D01*
X131660022Y-105901469D01*
X131773977Y-105787514D01*
X132060022Y-105787514D01*
X132098219Y-105840087D01*
X132144184Y-105855022D01*
X132175860Y-105855022D01*
X132221825Y-105840087D01*
X132260022Y-105787514D01*
X132260022Y-105755023D01*
X132513575Y-105755023D01*
X132840288Y-106081736D01*
X132840289Y-106081735D01*
X132895846Y-105922965D01*
X132914768Y-105755025D01*
X132914768Y-105755018D01*
X132895846Y-105587078D01*
X132840288Y-105428307D01*
X132513575Y-105755021D01*
X132513575Y-105755023D01*
X132260022Y-105755023D01*
X132260022Y-105722530D01*
X132221825Y-105669957D01*
X132175860Y-105655022D01*
X132144184Y-105655022D01*
X132098219Y-105669957D01*
X132060022Y-105722530D01*
X132060022Y-105787514D01*
X131773977Y-105787514D01*
X131806469Y-105755022D01*
X131660022Y-105608575D01*
X131513575Y-105755022D01*
X131260022Y-105755022D01*
X131260022Y-105722530D01*
X131221825Y-105669957D01*
X131175860Y-105655022D01*
X131144184Y-105655022D01*
X131098219Y-105669957D01*
X131060022Y-105722530D01*
X131060022Y-105787514D01*
X130773977Y-105787514D01*
X130806469Y-105755022D01*
X130479754Y-105428307D01*
X130424198Y-105587075D01*
X130424197Y-105587080D01*
X130405276Y-105755018D01*
X130405276Y-105755025D01*
X108600550Y-105755025D01*
X108765652Y-105430994D01*
X108902400Y-105074754D01*
X130833306Y-105074754D01*
X131160021Y-105401469D01*
X131506469Y-105055022D01*
X131813575Y-105055022D01*
X132160022Y-105401469D01*
X132160023Y-105401469D01*
X132486736Y-105074754D01*
X132486707Y-105074629D01*
X132430240Y-105034129D01*
X132404493Y-104969177D01*
X132404751Y-104943926D01*
X132414768Y-104855024D01*
X132414768Y-104855018D01*
X132395846Y-104687078D01*
X132340288Y-104528307D01*
X131813575Y-105055021D01*
X131813575Y-105055022D01*
X131506469Y-105055022D01*
X131338961Y-104887514D01*
X131560022Y-104887514D01*
X131598219Y-104940087D01*
X131644184Y-104955022D01*
X131675860Y-104955022D01*
X131721825Y-104940087D01*
X131760022Y-104887514D01*
X131760022Y-104822530D01*
X131721825Y-104769957D01*
X131675860Y-104755022D01*
X131644184Y-104755022D01*
X131598219Y-104769957D01*
X131560022Y-104822530D01*
X131560022Y-104887514D01*
X131338961Y-104887514D01*
X130979754Y-104528307D01*
X130924198Y-104687075D01*
X130924197Y-104687080D01*
X130905276Y-104855018D01*
X130905276Y-104855026D01*
X130915292Y-104943927D01*
X130903237Y-105012749D01*
X130855888Y-105064128D01*
X130833315Y-105074715D01*
X130833306Y-105074754D01*
X108902400Y-105074754D01*
X108904652Y-105068887D01*
X109005040Y-104694233D01*
X109065716Y-104311138D01*
X109084003Y-103962200D01*
X125967540Y-103962200D01*
X125987326Y-104150456D01*
X125987327Y-104150459D01*
X126045818Y-104330477D01*
X126045821Y-104330484D01*
X126140467Y-104494416D01*
X126242235Y-104607440D01*
X126267129Y-104635088D01*
X126420265Y-104746348D01*
X126420270Y-104746351D01*
X126593192Y-104823342D01*
X126593197Y-104823344D01*
X126778354Y-104862700D01*
X126778355Y-104862700D01*
X126967644Y-104862700D01*
X126967646Y-104862700D01*
X127152803Y-104823344D01*
X127325730Y-104746351D01*
X127478871Y-104635088D01*
X127605533Y-104494416D01*
X127700179Y-104330484D01*
X127758674Y-104150456D01*
X127769962Y-104043046D01*
X127796545Y-103978436D01*
X127853842Y-103938450D01*
X127923661Y-103935790D01*
X127983835Y-103971299D01*
X128015259Y-104033703D01*
X128016602Y-104043046D01*
X128019325Y-104068954D01*
X128019326Y-104068957D01*
X128077818Y-104248977D01*
X128077821Y-104248984D01*
X128172467Y-104412916D01*
X128245850Y-104494416D01*
X128299129Y-104553588D01*
X128452265Y-104664848D01*
X128452270Y-104664851D01*
X128625192Y-104741842D01*
X128625197Y-104741844D01*
X128810354Y-104781200D01*
X128810355Y-104781200D01*
X128999644Y-104781200D01*
X128999646Y-104781200D01*
X129184803Y-104741844D01*
X129357730Y-104664851D01*
X129510871Y-104553588D01*
X129637533Y-104412916D01*
X129732179Y-104248984D01*
X129756298Y-104174754D01*
X131333307Y-104174754D01*
X131660022Y-104501469D01*
X131660023Y-104501469D01*
X131986736Y-104174754D01*
X131827965Y-104119198D01*
X131827960Y-104119197D01*
X131660026Y-104100276D01*
X131660018Y-104100276D01*
X131492080Y-104119197D01*
X131492075Y-104119198D01*
X131333307Y-104174754D01*
X129756298Y-104174754D01*
X129790674Y-104068956D01*
X129810460Y-103880700D01*
X129790674Y-103692444D01*
X129732179Y-103512416D01*
X129637533Y-103348484D01*
X129510871Y-103207812D01*
X129510870Y-103207811D01*
X129357738Y-103096554D01*
X129357732Y-103096550D01*
X129357730Y-103096549D01*
X129357727Y-103096547D01*
X129353949Y-103094367D01*
X129305731Y-103043803D01*
X129292504Y-102975196D01*
X129304110Y-102946200D01*
X154237740Y-102946200D01*
X154257526Y-103134456D01*
X154257527Y-103134459D01*
X154316018Y-103314477D01*
X154316021Y-103314484D01*
X154410667Y-103478416D01*
X154537329Y-103619088D01*
X154690465Y-103730348D01*
X154690470Y-103730351D01*
X154764530Y-103763325D01*
X154817767Y-103808575D01*
X154838088Y-103875424D01*
X154819043Y-103942648D01*
X154766676Y-103988903D01*
X154764530Y-103989883D01*
X154715870Y-104011549D01*
X154715868Y-104011549D01*
X154715864Y-104011552D01*
X154562729Y-104122811D01*
X154436066Y-104263485D01*
X154341421Y-104427415D01*
X154341418Y-104427422D01*
X154285869Y-104598385D01*
X154282926Y-104607444D01*
X154263140Y-104795700D01*
X154282926Y-104983956D01*
X154282927Y-104983959D01*
X154341418Y-105163977D01*
X154341421Y-105163984D01*
X154436067Y-105327916D01*
X154489318Y-105387057D01*
X154562729Y-105468588D01*
X154715865Y-105579848D01*
X154715870Y-105579851D01*
X154888792Y-105656842D01*
X154888797Y-105656844D01*
X155073954Y-105696200D01*
X155073955Y-105696200D01*
X155263244Y-105696200D01*
X155263246Y-105696200D01*
X155448403Y-105656844D01*
X155621330Y-105579851D01*
X155774471Y-105468588D01*
X155901133Y-105327916D01*
X155995779Y-105163984D01*
X156006626Y-105130600D01*
X156803140Y-105130600D01*
X156822926Y-105318856D01*
X156822927Y-105318859D01*
X156881418Y-105498877D01*
X156881421Y-105498884D01*
X156976067Y-105662816D01*
X157059089Y-105755021D01*
X157102729Y-105803488D01*
X157255865Y-105914748D01*
X157255870Y-105914751D01*
X157428792Y-105991742D01*
X157428797Y-105991744D01*
X157613954Y-106031100D01*
X157613955Y-106031100D01*
X157803244Y-106031100D01*
X157803246Y-106031100D01*
X157988403Y-105991744D01*
X158161330Y-105914751D01*
X158314471Y-105803488D01*
X158441133Y-105662816D01*
X158535779Y-105498884D01*
X158594274Y-105318856D01*
X158614060Y-105130600D01*
X158594274Y-104942344D01*
X158535779Y-104762316D01*
X158441133Y-104598384D01*
X158314471Y-104457712D01*
X158314470Y-104457711D01*
X158161334Y-104346451D01*
X158161329Y-104346448D01*
X157988407Y-104269457D01*
X157988402Y-104269455D01*
X157842601Y-104238465D01*
X157803246Y-104230100D01*
X157613954Y-104230100D01*
X157581497Y-104236998D01*
X157428797Y-104269455D01*
X157428792Y-104269457D01*
X157255870Y-104346448D01*
X157255865Y-104346451D01*
X157102729Y-104457711D01*
X156976066Y-104598385D01*
X156881421Y-104762315D01*
X156881418Y-104762322D01*
X156833769Y-104908972D01*
X156822926Y-104942344D01*
X156803140Y-105130600D01*
X156006626Y-105130600D01*
X156054274Y-104983956D01*
X156074060Y-104795700D01*
X156054274Y-104607444D01*
X155995779Y-104427416D01*
X155901133Y-104263484D01*
X155774471Y-104122812D01*
X155769497Y-104119198D01*
X155728208Y-104089200D01*
X163203940Y-104089200D01*
X163223726Y-104277456D01*
X163223727Y-104277459D01*
X163282218Y-104457477D01*
X163282221Y-104457484D01*
X163376867Y-104621416D01*
X163485299Y-104741842D01*
X163503529Y-104762088D01*
X163656665Y-104873348D01*
X163656670Y-104873351D01*
X163829592Y-104950342D01*
X163829597Y-104950344D01*
X164014754Y-104989700D01*
X164014755Y-104989700D01*
X164204044Y-104989700D01*
X164204046Y-104989700D01*
X164389203Y-104950344D01*
X164511235Y-104896010D01*
X164580484Y-104886726D01*
X164634554Y-104908970D01*
X164691500Y-104950344D01*
X164707663Y-104962087D01*
X164880585Y-105039078D01*
X164880590Y-105039080D01*
X165065747Y-105078436D01*
X165065748Y-105078436D01*
X165255037Y-105078436D01*
X165255039Y-105078436D01*
X165440196Y-105039080D01*
X165613123Y-104962087D01*
X165766264Y-104850824D01*
X165892926Y-104710152D01*
X165987572Y-104546220D01*
X166046067Y-104366192D01*
X166056052Y-104271185D01*
X179542933Y-104271185D01*
X179562719Y-104459441D01*
X179562720Y-104459444D01*
X179621211Y-104639462D01*
X179621214Y-104639469D01*
X179715860Y-104803401D01*
X179791596Y-104887514D01*
X179842522Y-104944073D01*
X179995658Y-105055333D01*
X179995663Y-105055336D01*
X180168585Y-105132327D01*
X180168590Y-105132329D01*
X180353747Y-105171685D01*
X180353748Y-105171685D01*
X180543037Y-105171685D01*
X180543039Y-105171685D01*
X180728196Y-105132329D01*
X180734116Y-105129692D01*
X180803366Y-105120405D01*
X180866644Y-105150030D01*
X180900321Y-105198532D01*
X180994225Y-105443159D01*
X181170315Y-105788755D01*
X181381560Y-106114044D01*
X181505967Y-106267673D01*
X181625657Y-106415478D01*
X181899922Y-106689743D01*
X181899926Y-106689746D01*
X182201355Y-106933839D01*
X182507921Y-107132925D01*
X182526649Y-107145087D01*
X182872244Y-107321176D01*
X183234351Y-107460176D01*
X183609005Y-107560564D01*
X183992100Y-107621240D01*
X184358014Y-107640417D01*
X184379437Y-107641540D01*
X184379438Y-107641540D01*
X184379439Y-107641540D01*
X184399739Y-107640476D01*
X184766776Y-107621240D01*
X185149871Y-107560564D01*
X185524525Y-107460176D01*
X185886632Y-107321176D01*
X186232227Y-107145087D01*
X186557522Y-106933838D01*
X186714154Y-106807000D01*
X188680140Y-106807000D01*
X188699926Y-106995256D01*
X188699927Y-106995259D01*
X188758418Y-107175277D01*
X188758421Y-107175284D01*
X188853067Y-107339216D01*
X188961980Y-107460176D01*
X188979729Y-107479888D01*
X189132865Y-107591148D01*
X189132870Y-107591151D01*
X189305792Y-107668142D01*
X189305797Y-107668144D01*
X189490954Y-107707500D01*
X189490955Y-107707500D01*
X189680244Y-107707500D01*
X189680246Y-107707500D01*
X189865403Y-107668144D01*
X190038330Y-107591151D01*
X190191471Y-107479888D01*
X190318133Y-107339216D01*
X190412779Y-107175284D01*
X190471274Y-106995256D01*
X190491060Y-106807000D01*
X190471274Y-106618744D01*
X190412779Y-106438716D01*
X190318133Y-106274784D01*
X190311729Y-106267672D01*
X190281500Y-106204682D01*
X190290124Y-106135347D01*
X190311730Y-106101727D01*
X190318133Y-106094616D01*
X190412779Y-105930684D01*
X190471274Y-105750656D01*
X190491060Y-105562400D01*
X190471274Y-105374144D01*
X190412779Y-105194116D01*
X190318133Y-105030184D01*
X190191471Y-104889512D01*
X190188721Y-104887514D01*
X190038334Y-104778251D01*
X190038329Y-104778248D01*
X189865407Y-104701257D01*
X189865402Y-104701255D01*
X189694115Y-104664848D01*
X189680246Y-104661900D01*
X189490954Y-104661900D01*
X189477085Y-104664848D01*
X189305797Y-104701255D01*
X189305792Y-104701257D01*
X189132870Y-104778248D01*
X189132865Y-104778251D01*
X188979729Y-104889511D01*
X188853066Y-105030185D01*
X188758421Y-105194115D01*
X188758418Y-105194122D01*
X188717890Y-105318856D01*
X188699926Y-105374144D01*
X188680140Y-105562400D01*
X188699926Y-105750656D01*
X188699927Y-105750659D01*
X188758418Y-105930677D01*
X188758421Y-105930684D01*
X188853067Y-106094616D01*
X188857429Y-106099461D01*
X188859473Y-106101731D01*
X188889700Y-106164723D01*
X188881073Y-106234058D01*
X188859473Y-106267669D01*
X188853066Y-106274785D01*
X188758421Y-106438715D01*
X188758418Y-106438722D01*
X188700660Y-106616484D01*
X188699926Y-106618744D01*
X188680140Y-106807000D01*
X186714154Y-106807000D01*
X186858954Y-106689743D01*
X187133219Y-106415478D01*
X187377314Y-106114046D01*
X187588563Y-105788751D01*
X187764652Y-105443156D01*
X187903652Y-105081049D01*
X188004040Y-104706395D01*
X188064716Y-104323300D01*
X188085016Y-103935962D01*
X188064716Y-103548624D01*
X188004040Y-103165529D01*
X187903652Y-102790875D01*
X187764652Y-102428768D01*
X187588563Y-102083173D01*
X187588560Y-102083168D01*
X187377315Y-101757879D01*
X187219586Y-101563100D01*
X187133219Y-101456446D01*
X186858954Y-101182181D01*
X186643744Y-101007907D01*
X186557520Y-100938084D01*
X186232231Y-100726839D01*
X185886635Y-100550749D01*
X185524532Y-100411750D01*
X185479143Y-100399588D01*
X185149871Y-100311360D01*
X185149867Y-100311359D01*
X185149866Y-100311359D01*
X184766777Y-100250684D01*
X184379439Y-100230384D01*
X184379437Y-100230384D01*
X183992098Y-100250684D01*
X183609010Y-100311359D01*
X183609008Y-100311359D01*
X183234343Y-100411750D01*
X182872240Y-100550749D01*
X182526644Y-100726839D01*
X182201355Y-100938084D01*
X181899926Y-101182177D01*
X181899918Y-101182184D01*
X181625660Y-101456442D01*
X181625653Y-101456450D01*
X181381560Y-101757879D01*
X181170315Y-102083168D01*
X181006232Y-102405200D01*
X180958257Y-102455996D01*
X180890436Y-102472791D01*
X180845311Y-102462184D01*
X180728200Y-102410042D01*
X180728195Y-102410040D01*
X180582394Y-102379050D01*
X180543039Y-102370685D01*
X180353747Y-102370685D01*
X180321290Y-102377583D01*
X180168590Y-102410040D01*
X180168585Y-102410042D01*
X179995663Y-102487033D01*
X179995658Y-102487036D01*
X179842522Y-102598296D01*
X179715859Y-102738970D01*
X179621214Y-102902900D01*
X179621211Y-102902907D01*
X179572747Y-103052066D01*
X179562719Y-103082929D01*
X179542933Y-103271185D01*
X179562719Y-103459441D01*
X179562720Y-103459444D01*
X179621211Y-103639462D01*
X179621213Y-103639466D01*
X179621214Y-103639469D01*
X179624824Y-103645721D01*
X179661465Y-103709186D01*
X179677936Y-103777086D01*
X179661465Y-103833184D01*
X179621213Y-103902903D01*
X179621211Y-103902907D01*
X179567258Y-104068959D01*
X179562719Y-104082929D01*
X179542933Y-104271185D01*
X166056052Y-104271185D01*
X166065853Y-104177936D01*
X166046067Y-103989680D01*
X165987572Y-103809652D01*
X165892926Y-103645720D01*
X165766264Y-103505048D01*
X165766263Y-103505047D01*
X165613127Y-103393787D01*
X165613122Y-103393784D01*
X165440200Y-103316793D01*
X165440195Y-103316791D01*
X165294394Y-103285801D01*
X165255039Y-103277436D01*
X165065747Y-103277436D01*
X165033290Y-103284334D01*
X164880590Y-103316791D01*
X164758556Y-103371125D01*
X164689306Y-103380409D01*
X164635236Y-103358163D01*
X164562134Y-103305051D01*
X164562129Y-103305048D01*
X164389207Y-103228057D01*
X164389202Y-103228055D01*
X164223895Y-103192919D01*
X164204046Y-103188700D01*
X164014754Y-103188700D01*
X163994905Y-103192919D01*
X163829597Y-103228055D01*
X163829592Y-103228057D01*
X163656670Y-103305048D01*
X163656665Y-103305051D01*
X163503529Y-103416311D01*
X163376866Y-103556985D01*
X163282221Y-103720915D01*
X163282218Y-103720922D01*
X163225592Y-103895200D01*
X163223726Y-103900944D01*
X163203940Y-104089200D01*
X155728208Y-104089200D01*
X155621334Y-104011551D01*
X155621332Y-104011550D01*
X155547268Y-103978574D01*
X155494032Y-103933323D01*
X155473711Y-103866474D01*
X155492757Y-103799251D01*
X155545123Y-103752996D01*
X155547176Y-103752057D01*
X155595930Y-103730351D01*
X155749071Y-103619088D01*
X155875733Y-103478416D01*
X155970379Y-103314484D01*
X156028874Y-103134456D01*
X156048660Y-102946200D01*
X156028874Y-102757944D01*
X155970379Y-102577916D01*
X155875733Y-102413984D01*
X155749071Y-102273312D01*
X155744452Y-102269956D01*
X155595934Y-102162051D01*
X155595929Y-102162048D01*
X155423007Y-102085057D01*
X155423002Y-102085055D01*
X155277201Y-102054065D01*
X155237846Y-102045700D01*
X155048554Y-102045700D01*
X155016097Y-102052598D01*
X154863397Y-102085055D01*
X154863392Y-102085057D01*
X154690470Y-102162048D01*
X154690465Y-102162051D01*
X154537329Y-102273311D01*
X154410666Y-102413985D01*
X154316021Y-102577915D01*
X154316018Y-102577922D01*
X154266542Y-102730196D01*
X154257526Y-102757944D01*
X154237740Y-102946200D01*
X129304110Y-102946200D01*
X129318468Y-102910330D01*
X129365505Y-102873698D01*
X129383130Y-102865851D01*
X129536271Y-102754588D01*
X129662933Y-102613916D01*
X129757579Y-102449984D01*
X129816074Y-102269956D01*
X129835860Y-102081700D01*
X129816074Y-101893444D01*
X129757579Y-101713416D01*
X129662933Y-101549484D01*
X129536271Y-101408812D01*
X129437206Y-101336837D01*
X129383134Y-101297551D01*
X129383129Y-101297548D01*
X129210207Y-101220557D01*
X129210202Y-101220555D01*
X129029675Y-101182184D01*
X129025046Y-101181200D01*
X128835754Y-101181200D01*
X128831125Y-101182184D01*
X128650597Y-101220555D01*
X128650592Y-101220557D01*
X128477670Y-101297548D01*
X128477665Y-101297551D01*
X128324529Y-101408811D01*
X128197866Y-101549485D01*
X128103221Y-101713415D01*
X128103218Y-101713422D01*
X128052651Y-101869052D01*
X128044726Y-101893444D01*
X128024940Y-102081700D01*
X128044726Y-102269956D01*
X128044727Y-102269959D01*
X128103218Y-102449977D01*
X128103221Y-102449984D01*
X128197867Y-102613916D01*
X128324529Y-102754588D01*
X128477670Y-102865851D01*
X128477680Y-102865855D01*
X128481446Y-102868030D01*
X128529666Y-102918593D01*
X128542896Y-102987198D01*
X128516934Y-103052066D01*
X128469897Y-103088700D01*
X128452270Y-103096548D01*
X128452265Y-103096551D01*
X128299129Y-103207811D01*
X128172466Y-103348485D01*
X128077821Y-103512415D01*
X128077818Y-103512422D01*
X128034507Y-103645721D01*
X128019326Y-103692444D01*
X128008037Y-103799851D01*
X127981453Y-103864464D01*
X127924156Y-103904449D01*
X127854337Y-103907109D01*
X127794163Y-103871600D01*
X127762740Y-103809195D01*
X127761398Y-103799865D01*
X127758674Y-103773944D01*
X127700179Y-103593916D01*
X127605533Y-103429984D01*
X127484775Y-103295869D01*
X127454547Y-103232881D01*
X127463172Y-103163546D01*
X127484773Y-103129933D01*
X127605533Y-102995816D01*
X127700179Y-102831884D01*
X127758674Y-102651856D01*
X127778460Y-102463600D01*
X127758674Y-102275344D01*
X127700179Y-102095316D01*
X127605533Y-101931384D01*
X127478871Y-101790712D01*
X127478870Y-101790711D01*
X127325734Y-101679451D01*
X127325729Y-101679448D01*
X127152807Y-101602457D01*
X127152802Y-101602455D01*
X127007001Y-101571465D01*
X126967646Y-101563100D01*
X126778354Y-101563100D01*
X126745897Y-101569998D01*
X126593197Y-101602455D01*
X126593192Y-101602457D01*
X126420270Y-101679448D01*
X126420265Y-101679451D01*
X126267129Y-101790711D01*
X126140466Y-101931385D01*
X126045821Y-102095315D01*
X126045818Y-102095322D01*
X125987986Y-102273312D01*
X125987326Y-102275344D01*
X125967540Y-102463600D01*
X125987326Y-102651856D01*
X125987327Y-102651859D01*
X126045818Y-102831877D01*
X126045821Y-102831884D01*
X126140467Y-102995816D01*
X126161843Y-103019556D01*
X126261222Y-103129928D01*
X126291452Y-103192919D01*
X126282827Y-103262255D01*
X126261222Y-103295872D01*
X126140466Y-103429985D01*
X126045821Y-103593915D01*
X126045818Y-103593922D01*
X126001491Y-103730348D01*
X125987326Y-103773944D01*
X125967540Y-103962200D01*
X109084003Y-103962200D01*
X109086016Y-103923800D01*
X109065716Y-103536462D01*
X109005040Y-103153367D01*
X108904652Y-102778713D01*
X108765652Y-102416606D01*
X108762307Y-102410042D01*
X108742254Y-102370685D01*
X108589563Y-102071011D01*
X108474247Y-101893440D01*
X108458409Y-101869052D01*
X114323992Y-101869052D01*
X114343778Y-102057308D01*
X114343779Y-102057311D01*
X114402270Y-102237329D01*
X114402273Y-102237336D01*
X114496919Y-102401268D01*
X114574145Y-102487036D01*
X114623581Y-102541940D01*
X114776717Y-102653200D01*
X114776722Y-102653203D01*
X114949644Y-102730194D01*
X114949649Y-102730196D01*
X115134806Y-102769552D01*
X115134807Y-102769552D01*
X115324096Y-102769552D01*
X115324098Y-102769552D01*
X115509255Y-102730196D01*
X115682182Y-102653203D01*
X115835323Y-102541940D01*
X115961985Y-102401268D01*
X116056631Y-102237336D01*
X116115126Y-102057308D01*
X116134912Y-101869052D01*
X116115126Y-101680796D01*
X116056631Y-101500768D01*
X115961985Y-101336836D01*
X115835323Y-101196164D01*
X115835322Y-101196163D01*
X115682186Y-101084903D01*
X115682181Y-101084900D01*
X115509259Y-101007909D01*
X115509254Y-101007907D01*
X115363453Y-100976917D01*
X115324098Y-100968552D01*
X115134806Y-100968552D01*
X115102349Y-100975450D01*
X114949649Y-101007907D01*
X114949644Y-101007909D01*
X114776722Y-101084900D01*
X114776717Y-101084903D01*
X114623581Y-101196163D01*
X114496918Y-101336837D01*
X114402273Y-101500767D01*
X114402270Y-101500774D01*
X114344215Y-101679451D01*
X114343778Y-101680796D01*
X114323992Y-101869052D01*
X108458409Y-101869052D01*
X108378315Y-101745717D01*
X108144071Y-101456450D01*
X108134219Y-101444284D01*
X107859954Y-101170019D01*
X107659764Y-101007908D01*
X107558520Y-100925922D01*
X107233231Y-100714677D01*
X107226014Y-100711000D01*
X130209340Y-100711000D01*
X130229126Y-100899256D01*
X130229127Y-100899259D01*
X130287618Y-101079277D01*
X130287621Y-101079284D01*
X130382267Y-101243216D01*
X130416326Y-101281042D01*
X130508929Y-101383888D01*
X130662065Y-101495148D01*
X130662070Y-101495151D01*
X130834992Y-101572142D01*
X130834997Y-101572144D01*
X131020154Y-101611500D01*
X131020155Y-101611500D01*
X131209444Y-101611500D01*
X131209446Y-101611500D01*
X131394603Y-101572144D01*
X131567530Y-101495151D01*
X131720671Y-101383888D01*
X131847333Y-101243216D01*
X131941979Y-101079284D01*
X132000474Y-100899256D01*
X132020260Y-100711000D01*
X132000474Y-100522744D01*
X131941979Y-100342716D01*
X131847333Y-100178784D01*
X131720671Y-100038112D01*
X131709755Y-100030181D01*
X131567534Y-99926851D01*
X131567529Y-99926848D01*
X131394607Y-99849857D01*
X131394602Y-99849855D01*
X131248801Y-99818865D01*
X131209446Y-99810500D01*
X131020154Y-99810500D01*
X130987697Y-99817398D01*
X130834997Y-99849855D01*
X130834992Y-99849857D01*
X130662070Y-99926848D01*
X130662065Y-99926851D01*
X130508929Y-100038111D01*
X130382266Y-100178785D01*
X130287621Y-100342715D01*
X130287618Y-100342722D01*
X130247326Y-100466729D01*
X130229126Y-100522744D01*
X130209340Y-100711000D01*
X107226014Y-100711000D01*
X106887635Y-100538587D01*
X106525532Y-100399588D01*
X106525525Y-100399586D01*
X106150871Y-100299198D01*
X106150867Y-100299197D01*
X106150866Y-100299197D01*
X105767777Y-100238522D01*
X105380439Y-100218222D01*
X105380437Y-100218222D01*
X104993098Y-100238522D01*
X104610010Y-100299197D01*
X104610008Y-100299197D01*
X104235343Y-100399588D01*
X103873240Y-100538587D01*
X103527644Y-100714677D01*
X103202355Y-100925922D01*
X102900926Y-101170015D01*
X102900918Y-101170022D01*
X102626660Y-101444280D01*
X102626653Y-101444288D01*
X102382560Y-101745717D01*
X102171315Y-102071006D01*
X101995225Y-102416602D01*
X101856226Y-102778705D01*
X101755835Y-103153370D01*
X101755835Y-103153372D01*
X101695160Y-103536460D01*
X101674860Y-103923799D01*
X101674860Y-103923800D01*
X100482900Y-103923800D01*
X100482900Y-100611140D01*
X100482998Y-100607663D01*
X100485935Y-100555351D01*
X100489395Y-100493733D01*
X100499801Y-100321704D01*
X100500560Y-100315106D01*
X100517831Y-100213459D01*
X100523677Y-100179056D01*
X100538358Y-100098942D01*
X100550962Y-100030163D01*
X100552361Y-100024210D01*
X100591787Y-99887356D01*
X100635670Y-99746535D01*
X100637558Y-99741321D01*
X100692797Y-99607965D01*
X100752743Y-99474770D01*
X100754999Y-99470261D01*
X100825358Y-99342957D01*
X100900628Y-99218444D01*
X100903093Y-99214686D01*
X100986861Y-99096626D01*
X100988545Y-99094367D01*
X101077332Y-98981038D01*
X101079872Y-98978005D01*
X101176452Y-98869931D01*
X101178773Y-98867477D01*
X101280477Y-98765773D01*
X101282931Y-98763452D01*
X101391005Y-98666872D01*
X101394038Y-98664332D01*
X101507367Y-98575545D01*
X101509626Y-98573861D01*
X101627686Y-98490093D01*
X101631444Y-98487628D01*
X101755961Y-98412356D01*
X101883261Y-98341999D01*
X101887770Y-98339743D01*
X102020965Y-98279797D01*
X102154321Y-98224558D01*
X102159535Y-98222670D01*
X102300356Y-98178787D01*
X102437210Y-98139361D01*
X102443163Y-98137962D01*
X102525724Y-98122832D01*
X102592056Y-98110677D01*
X102640341Y-98102472D01*
X102728106Y-98087560D01*
X102734704Y-98086801D01*
X102906733Y-98076395D01*
X102993182Y-98071540D01*
X103020663Y-98069998D01*
X103024140Y-98069900D01*
X107610074Y-98069900D01*
X107610075Y-98069899D01*
X107760668Y-98052932D01*
X107893605Y-98037954D01*
X107893608Y-98037953D01*
X107893620Y-98037952D01*
X108171809Y-97974457D01*
X108441139Y-97880214D01*
X108563331Y-97821370D01*
X108698218Y-97756412D01*
X108698218Y-97756411D01*
X108698224Y-97756409D01*
X108939831Y-97604597D01*
X109162921Y-97426689D01*
X109364689Y-97224921D01*
X109542597Y-97001831D01*
X109694409Y-96760224D01*
X109716242Y-96714888D01*
X109818207Y-96503154D01*
X109818208Y-96503150D01*
X109818214Y-96503139D01*
X109912457Y-96233809D01*
X109975952Y-95955620D01*
X109980263Y-95917364D01*
X110006134Y-95687743D01*
X110007900Y-95672071D01*
X110007900Y-95529400D01*
X110007900Y-95528900D01*
X110007900Y-95045962D01*
X112462579Y-95045962D01*
X112483174Y-95281365D01*
X112483176Y-95281375D01*
X112544332Y-95509617D01*
X112544334Y-95509621D01*
X112544335Y-95509625D01*
X112624039Y-95680550D01*
X112644203Y-95723792D01*
X112644205Y-95723796D01*
X112704555Y-95809984D01*
X112779742Y-95917362D01*
X112779744Y-95917364D01*
X112902056Y-96039676D01*
X112935541Y-96100999D01*
X112930557Y-96170691D01*
X112888685Y-96226624D01*
X112857709Y-96243539D01*
X112726150Y-96292608D01*
X112726144Y-96292611D01*
X112611050Y-96378771D01*
X112611047Y-96378774D01*
X112524887Y-96493868D01*
X112524883Y-96493875D01*
X112474641Y-96628582D01*
X112474639Y-96628589D01*
X112468238Y-96688117D01*
X112468238Y-97335962D01*
X113384552Y-97335962D01*
X113358745Y-97376118D01*
X113318238Y-97514073D01*
X113318238Y-97657851D01*
X113358745Y-97795806D01*
X113384552Y-97835962D01*
X112468238Y-97835962D01*
X112468238Y-98483806D01*
X112474639Y-98543334D01*
X112474641Y-98543341D01*
X112524883Y-98678048D01*
X112524887Y-98678055D01*
X112611047Y-98793149D01*
X112611050Y-98793152D01*
X112726144Y-98879312D01*
X112726151Y-98879316D01*
X112860858Y-98929558D01*
X112860865Y-98929560D01*
X112920393Y-98935961D01*
X112920410Y-98935962D01*
X113568238Y-98935962D01*
X113568238Y-98021463D01*
X113675923Y-98070642D01*
X113782475Y-98085962D01*
X113854001Y-98085962D01*
X113960553Y-98070642D01*
X114068238Y-98021463D01*
X114068238Y-98935962D01*
X114716066Y-98935962D01*
X114716082Y-98935961D01*
X114775610Y-98929560D01*
X114775617Y-98929558D01*
X114910324Y-98879316D01*
X114910331Y-98879312D01*
X115025425Y-98793152D01*
X115025428Y-98793149D01*
X115111588Y-98678055D01*
X115111592Y-98678048D01*
X115160660Y-98546491D01*
X115202531Y-98490557D01*
X115267995Y-98466140D01*
X115336268Y-98480992D01*
X115364523Y-98502143D01*
X115486837Y-98624457D01*
X115547432Y-98666886D01*
X115680403Y-98759994D01*
X115680405Y-98759995D01*
X115680408Y-98759997D01*
X115894575Y-98859865D01*
X115894581Y-98859866D01*
X115894582Y-98859867D01*
X115930593Y-98869516D01*
X116122830Y-98921025D01*
X116293557Y-98935962D01*
X116358237Y-98941621D01*
X116358238Y-98941621D01*
X116358239Y-98941621D01*
X116422919Y-98935962D01*
X116593646Y-98921025D01*
X116821901Y-98859865D01*
X117036068Y-98759997D01*
X117229639Y-98624457D01*
X117396733Y-98457363D01*
X117526663Y-98271804D01*
X117581240Y-98228179D01*
X117650738Y-98220985D01*
X117713093Y-98252508D01*
X117729813Y-98271804D01*
X117859738Y-98457357D01*
X117859743Y-98457363D01*
X118026837Y-98624457D01*
X118087432Y-98666886D01*
X118220403Y-98759994D01*
X118220405Y-98759995D01*
X118220408Y-98759997D01*
X118434575Y-98859865D01*
X118434581Y-98859866D01*
X118434582Y-98859867D01*
X118470593Y-98869516D01*
X118662830Y-98921025D01*
X118833557Y-98935962D01*
X118898237Y-98941621D01*
X118898238Y-98941621D01*
X118898239Y-98941621D01*
X118962919Y-98935962D01*
X119133646Y-98921025D01*
X119361901Y-98859865D01*
X119576068Y-98759997D01*
X119769639Y-98624457D01*
X119936733Y-98457363D01*
X120066663Y-98271804D01*
X120121240Y-98228179D01*
X120190738Y-98220985D01*
X120253093Y-98252508D01*
X120269813Y-98271804D01*
X120399738Y-98457357D01*
X120399743Y-98457363D01*
X120566837Y-98624457D01*
X120627432Y-98666886D01*
X120760403Y-98759994D01*
X120760405Y-98759995D01*
X120760408Y-98759997D01*
X120974575Y-98859865D01*
X120974581Y-98859866D01*
X120974582Y-98859867D01*
X121010593Y-98869516D01*
X121202830Y-98921025D01*
X121373557Y-98935962D01*
X121438237Y-98941621D01*
X121438238Y-98941621D01*
X121438239Y-98941621D01*
X121502919Y-98935962D01*
X121673646Y-98921025D01*
X121901901Y-98859865D01*
X122116068Y-98759997D01*
X122309639Y-98624457D01*
X122476733Y-98457363D01*
X122612273Y-98263792D01*
X122712141Y-98049625D01*
X122773301Y-97821370D01*
X122793897Y-97585962D01*
X122775659Y-97377507D01*
X122789425Y-97309008D01*
X122815590Y-97282000D01*
X124265740Y-97282000D01*
X124285526Y-97470256D01*
X124285527Y-97470259D01*
X124344018Y-97650277D01*
X124344021Y-97650284D01*
X124438667Y-97814216D01*
X124539671Y-97926392D01*
X124565329Y-97954888D01*
X124718465Y-98066148D01*
X124718470Y-98066151D01*
X124891392Y-98143142D01*
X124891397Y-98143144D01*
X125076554Y-98182500D01*
X125076555Y-98182500D01*
X125265844Y-98182500D01*
X125265846Y-98182500D01*
X125451003Y-98143144D01*
X125579116Y-98086103D01*
X125648363Y-98076818D01*
X125711640Y-98106446D01*
X125741930Y-98146976D01*
X125778112Y-98224567D01*
X125796403Y-98263792D01*
X125796405Y-98263796D01*
X125851168Y-98342005D01*
X125931943Y-98457363D01*
X126099037Y-98624457D01*
X126159632Y-98666886D01*
X126292603Y-98759994D01*
X126292605Y-98759995D01*
X126292608Y-98759997D01*
X126506775Y-98859865D01*
X126506781Y-98859866D01*
X126506782Y-98859867D01*
X126542793Y-98869516D01*
X126735030Y-98921025D01*
X126905757Y-98935962D01*
X126970437Y-98941621D01*
X126970438Y-98941621D01*
X126970439Y-98941621D01*
X127035119Y-98935962D01*
X127205846Y-98921025D01*
X127434101Y-98859865D01*
X127648268Y-98759997D01*
X127841839Y-98624457D01*
X128008933Y-98457363D01*
X128138863Y-98271804D01*
X128193440Y-98228179D01*
X128262938Y-98220985D01*
X128325293Y-98252508D01*
X128342013Y-98271804D01*
X128471938Y-98457357D01*
X128471943Y-98457363D01*
X128639037Y-98624457D01*
X128699632Y-98666886D01*
X128832603Y-98759994D01*
X128832605Y-98759995D01*
X128832608Y-98759997D01*
X129046775Y-98859865D01*
X129046781Y-98859866D01*
X129046782Y-98859867D01*
X129082793Y-98869516D01*
X129275030Y-98921025D01*
X129445757Y-98935962D01*
X129510437Y-98941621D01*
X129510438Y-98941621D01*
X129510439Y-98941621D01*
X129575119Y-98935962D01*
X129745846Y-98921025D01*
X129974101Y-98859865D01*
X130188268Y-98759997D01*
X130381839Y-98624457D01*
X130548933Y-98457363D01*
X130679168Y-98271367D01*
X130733745Y-98227743D01*
X130803243Y-98220549D01*
X130865598Y-98252072D01*
X130882317Y-98271367D01*
X131012328Y-98457040D01*
X131179355Y-98624067D01*
X131372859Y-98759562D01*
X131586945Y-98859391D01*
X131586954Y-98859395D01*
X131800438Y-98916596D01*
X131800438Y-98021463D01*
X131908123Y-98070642D01*
X132014675Y-98085962D01*
X132086201Y-98085962D01*
X132192753Y-98070642D01*
X132300438Y-98021463D01*
X132300438Y-98916596D01*
X132513921Y-98859395D01*
X132513930Y-98859391D01*
X132728016Y-98759562D01*
X132921520Y-98624067D01*
X133088543Y-98457044D01*
X133218557Y-98271367D01*
X133273134Y-98227743D01*
X133342633Y-98220550D01*
X133404987Y-98252072D01*
X133421707Y-98271367D01*
X133551943Y-98457363D01*
X133719037Y-98624457D01*
X133779632Y-98666886D01*
X133912603Y-98759994D01*
X133912605Y-98759995D01*
X133912608Y-98759997D01*
X134126775Y-98859865D01*
X134126781Y-98859866D01*
X134126782Y-98859867D01*
X134162793Y-98869516D01*
X134355030Y-98921025D01*
X134525757Y-98935962D01*
X134590437Y-98941621D01*
X134590438Y-98941621D01*
X134590439Y-98941621D01*
X134655119Y-98935962D01*
X134825846Y-98921025D01*
X135054101Y-98859865D01*
X135268268Y-98759997D01*
X135461839Y-98624457D01*
X135628933Y-98457363D01*
X135758863Y-98271804D01*
X135813440Y-98228179D01*
X135882938Y-98220985D01*
X135945293Y-98252508D01*
X135962013Y-98271804D01*
X136091938Y-98457357D01*
X136091943Y-98457363D01*
X136259037Y-98624457D01*
X136319632Y-98666886D01*
X136452603Y-98759994D01*
X136452605Y-98759995D01*
X136452608Y-98759997D01*
X136666775Y-98859865D01*
X136666781Y-98859866D01*
X136666782Y-98859867D01*
X136702793Y-98869516D01*
X136895030Y-98921025D01*
X136973058Y-98927851D01*
X137038126Y-98953303D01*
X137079104Y-99009894D01*
X137085571Y-99064340D01*
X137075091Y-99164057D01*
X137067340Y-99237800D01*
X137087126Y-99426056D01*
X137087127Y-99426059D01*
X137145618Y-99606077D01*
X137145621Y-99606084D01*
X137240267Y-99770016D01*
X137345979Y-99887421D01*
X137366929Y-99910688D01*
X137520065Y-100021948D01*
X137520070Y-100021951D01*
X137692992Y-100098942D01*
X137692997Y-100098944D01*
X137878154Y-100138300D01*
X137878155Y-100138300D01*
X138067444Y-100138300D01*
X138067446Y-100138300D01*
X138252603Y-100098944D01*
X138425530Y-100021951D01*
X138578671Y-99910688D01*
X138704267Y-99771200D01*
X145093740Y-99771200D01*
X145113526Y-99959456D01*
X145113527Y-99959459D01*
X145172018Y-100139477D01*
X145172021Y-100139484D01*
X145266667Y-100303416D01*
X145347759Y-100393477D01*
X145393329Y-100444088D01*
X145546465Y-100555348D01*
X145546470Y-100555351D01*
X145719392Y-100632342D01*
X145719397Y-100632344D01*
X145904554Y-100671700D01*
X145904555Y-100671700D01*
X146093844Y-100671700D01*
X146093846Y-100671700D01*
X146279003Y-100632344D01*
X146451930Y-100555351D01*
X146605071Y-100444088D01*
X146731733Y-100303416D01*
X146826379Y-100139484D01*
X146863512Y-100025200D01*
X152561340Y-100025200D01*
X152581126Y-100213456D01*
X152581127Y-100213459D01*
X152639618Y-100393477D01*
X152639621Y-100393484D01*
X152734267Y-100557416D01*
X152801731Y-100632342D01*
X152860929Y-100698088D01*
X153014065Y-100809348D01*
X153014070Y-100809351D01*
X153186992Y-100886342D01*
X153186997Y-100886344D01*
X153372154Y-100925700D01*
X153372155Y-100925700D01*
X153561444Y-100925700D01*
X153561446Y-100925700D01*
X153746603Y-100886344D01*
X153859784Y-100835951D01*
X153929032Y-100826666D01*
X153992309Y-100856294D01*
X154017604Y-100887228D01*
X154039816Y-100925700D01*
X154055067Y-100952116D01*
X154181729Y-101092788D01*
X154334865Y-101204048D01*
X154334870Y-101204051D01*
X154507792Y-101281042D01*
X154507797Y-101281044D01*
X154692954Y-101320400D01*
X154692955Y-101320400D01*
X154882244Y-101320400D01*
X154882246Y-101320400D01*
X155067403Y-101281044D01*
X155240330Y-101204051D01*
X155393471Y-101092788D01*
X155520133Y-100952116D01*
X155614779Y-100788184D01*
X155673274Y-100608156D01*
X155693060Y-100419900D01*
X155673274Y-100231644D01*
X155614779Y-100051616D01*
X155520133Y-99887684D01*
X155393471Y-99747012D01*
X155392881Y-99746583D01*
X155240334Y-99635751D01*
X155240329Y-99635748D01*
X155067407Y-99558757D01*
X155067402Y-99558755D01*
X154921601Y-99527765D01*
X154882246Y-99519400D01*
X154692954Y-99519400D01*
X154660497Y-99526298D01*
X154507797Y-99558755D01*
X154507792Y-99558757D01*
X154394617Y-99609147D01*
X154325367Y-99618432D01*
X154262090Y-99588804D01*
X154236794Y-99557868D01*
X154214584Y-99519400D01*
X154199333Y-99492984D01*
X154072671Y-99352312D01*
X154059799Y-99342960D01*
X153919534Y-99241051D01*
X153919529Y-99241048D01*
X153746607Y-99164057D01*
X153746602Y-99164055D01*
X153600801Y-99133065D01*
X153561446Y-99124700D01*
X153372154Y-99124700D01*
X153339697Y-99131598D01*
X153186997Y-99164055D01*
X153186992Y-99164057D01*
X153014070Y-99241048D01*
X153014065Y-99241051D01*
X152860929Y-99352311D01*
X152734266Y-99492985D01*
X152639621Y-99656915D01*
X152639618Y-99656922D01*
X152589718Y-99810500D01*
X152581126Y-99836944D01*
X152561340Y-100025200D01*
X146863512Y-100025200D01*
X146884874Y-99959456D01*
X146904660Y-99771200D01*
X146884874Y-99582944D01*
X146826379Y-99402916D01*
X146731733Y-99238984D01*
X146605071Y-99098312D01*
X146602814Y-99096672D01*
X146451934Y-98987051D01*
X146451929Y-98987048D01*
X146279007Y-98910057D01*
X146279002Y-98910055D01*
X146133201Y-98879065D01*
X146093846Y-98870700D01*
X145904554Y-98870700D01*
X145872097Y-98877598D01*
X145719397Y-98910055D01*
X145719392Y-98910057D01*
X145546470Y-98987048D01*
X145546465Y-98987051D01*
X145393329Y-99098311D01*
X145266666Y-99238985D01*
X145172021Y-99402915D01*
X145172018Y-99402922D01*
X145113527Y-99582940D01*
X145113526Y-99582944D01*
X145093740Y-99771200D01*
X138704267Y-99771200D01*
X138705333Y-99770016D01*
X138799979Y-99606084D01*
X138858474Y-99426056D01*
X138878260Y-99237800D01*
X138858474Y-99049544D01*
X138811518Y-98905032D01*
X138809524Y-98835192D01*
X138845604Y-98775359D01*
X138908305Y-98744531D01*
X138977719Y-98752496D01*
X138991453Y-98759330D01*
X138992601Y-98759992D01*
X138992608Y-98759997D01*
X139206775Y-98859865D01*
X139206781Y-98859866D01*
X139206782Y-98859867D01*
X139242793Y-98869516D01*
X139435030Y-98921025D01*
X139605757Y-98935962D01*
X139670437Y-98941621D01*
X139670438Y-98941621D01*
X139670439Y-98941621D01*
X139735119Y-98935962D01*
X139905846Y-98921025D01*
X140134101Y-98859865D01*
X140348268Y-98759997D01*
X140541839Y-98624457D01*
X140708933Y-98457363D01*
X140839168Y-98271367D01*
X140893745Y-98227743D01*
X140963243Y-98220549D01*
X141025598Y-98252072D01*
X141042317Y-98271367D01*
X141172328Y-98457040D01*
X141339355Y-98624067D01*
X141532859Y-98759562D01*
X141746945Y-98859391D01*
X141746954Y-98859395D01*
X141960438Y-98916596D01*
X141960438Y-98021463D01*
X142068123Y-98070642D01*
X142174675Y-98085962D01*
X142246201Y-98085962D01*
X142352753Y-98070642D01*
X142460438Y-98021463D01*
X142460438Y-98916595D01*
X142673921Y-98859395D01*
X142673930Y-98859391D01*
X142888016Y-98759562D01*
X143081520Y-98624067D01*
X143248543Y-98457044D01*
X143378557Y-98271367D01*
X143433134Y-98227743D01*
X143502633Y-98220550D01*
X143564987Y-98252072D01*
X143581707Y-98271367D01*
X143711943Y-98457363D01*
X143879037Y-98624457D01*
X143939632Y-98666886D01*
X144072603Y-98759994D01*
X144072605Y-98759995D01*
X144072608Y-98759997D01*
X144286775Y-98859865D01*
X144286781Y-98859866D01*
X144286782Y-98859867D01*
X144322793Y-98869516D01*
X144515030Y-98921025D01*
X144685757Y-98935962D01*
X144750437Y-98941621D01*
X144750438Y-98941621D01*
X144750439Y-98941621D01*
X144815119Y-98935962D01*
X144985846Y-98921025D01*
X145214101Y-98859865D01*
X145428268Y-98759997D01*
X145621839Y-98624457D01*
X145788933Y-98457363D01*
X145918863Y-98271804D01*
X145973440Y-98228179D01*
X146042938Y-98220985D01*
X146105293Y-98252508D01*
X146122013Y-98271804D01*
X146251938Y-98457357D01*
X146251943Y-98457363D01*
X146419037Y-98624457D01*
X146479632Y-98666886D01*
X146612603Y-98759994D01*
X146612605Y-98759995D01*
X146612608Y-98759997D01*
X146826775Y-98859865D01*
X146826781Y-98859866D01*
X146826782Y-98859867D01*
X146862793Y-98869516D01*
X147055030Y-98921025D01*
X147225757Y-98935962D01*
X147290437Y-98941621D01*
X147290438Y-98941621D01*
X147290439Y-98941621D01*
X147355119Y-98935962D01*
X147525846Y-98921025D01*
X147754101Y-98859865D01*
X147968268Y-98759997D01*
X148161839Y-98624457D01*
X148328933Y-98457363D01*
X148459168Y-98271367D01*
X148513745Y-98227743D01*
X148583243Y-98220549D01*
X148645598Y-98252072D01*
X148662317Y-98271367D01*
X148792328Y-98457040D01*
X148959355Y-98624067D01*
X149152859Y-98759562D01*
X149366945Y-98859391D01*
X149366954Y-98859395D01*
X149580438Y-98916596D01*
X149580438Y-98021463D01*
X149688123Y-98070642D01*
X149794675Y-98085962D01*
X149866201Y-98085962D01*
X149972753Y-98070642D01*
X150080438Y-98021463D01*
X150080438Y-98916596D01*
X150293921Y-98859395D01*
X150293930Y-98859391D01*
X150508016Y-98759562D01*
X150701520Y-98624067D01*
X150868543Y-98457044D01*
X150998557Y-98271367D01*
X151053134Y-98227743D01*
X151122633Y-98220550D01*
X151184987Y-98252072D01*
X151201707Y-98271367D01*
X151331943Y-98457363D01*
X151499037Y-98624457D01*
X151559632Y-98666886D01*
X151692603Y-98759994D01*
X151692605Y-98759995D01*
X151692608Y-98759997D01*
X151906775Y-98859865D01*
X151906781Y-98859866D01*
X151906782Y-98859867D01*
X151942793Y-98869516D01*
X152135030Y-98921025D01*
X152305757Y-98935962D01*
X152370437Y-98941621D01*
X152370438Y-98941621D01*
X152370439Y-98941621D01*
X152435119Y-98935962D01*
X152605846Y-98921025D01*
X152834101Y-98859865D01*
X153048268Y-98759997D01*
X153241839Y-98624457D01*
X153408933Y-98457363D01*
X153538863Y-98271804D01*
X153593440Y-98228179D01*
X153662938Y-98220985D01*
X153725293Y-98252508D01*
X153742013Y-98271804D01*
X153871938Y-98457357D01*
X153871943Y-98457363D01*
X154039037Y-98624457D01*
X154099632Y-98666886D01*
X154232603Y-98759994D01*
X154232605Y-98759995D01*
X154232608Y-98759997D01*
X154446775Y-98859865D01*
X154446781Y-98859866D01*
X154446782Y-98859867D01*
X154482793Y-98869516D01*
X154675030Y-98921025D01*
X154845757Y-98935962D01*
X154910437Y-98941621D01*
X154910438Y-98941621D01*
X154910439Y-98941621D01*
X154975119Y-98935962D01*
X155145846Y-98921025D01*
X155374101Y-98859865D01*
X155588268Y-98759997D01*
X155781839Y-98624457D01*
X155948933Y-98457363D01*
X156078863Y-98271804D01*
X156133440Y-98228179D01*
X156202938Y-98220985D01*
X156265293Y-98252508D01*
X156282013Y-98271804D01*
X156411938Y-98457357D01*
X156411943Y-98457363D01*
X156579037Y-98624457D01*
X156639632Y-98666886D01*
X156772603Y-98759994D01*
X156772605Y-98759995D01*
X156772608Y-98759997D01*
X156986775Y-98859865D01*
X156986781Y-98859866D01*
X156986782Y-98859867D01*
X157022793Y-98869516D01*
X157215030Y-98921025D01*
X157385757Y-98935962D01*
X157450437Y-98941621D01*
X157450438Y-98941621D01*
X157450439Y-98941621D01*
X157515119Y-98935962D01*
X157685846Y-98921025D01*
X157914101Y-98859865D01*
X158128268Y-98759997D01*
X158321839Y-98624457D01*
X158488933Y-98457363D01*
X158618863Y-98271804D01*
X158673440Y-98228179D01*
X158742938Y-98220985D01*
X158805293Y-98252508D01*
X158822013Y-98271804D01*
X158951938Y-98457357D01*
X158951943Y-98457363D01*
X159119037Y-98624457D01*
X159179632Y-98666886D01*
X159312603Y-98759994D01*
X159312605Y-98759995D01*
X159312608Y-98759997D01*
X159526775Y-98859865D01*
X159526781Y-98859866D01*
X159526782Y-98859867D01*
X159562793Y-98869516D01*
X159755030Y-98921025D01*
X159925757Y-98935962D01*
X159990437Y-98941621D01*
X159990438Y-98941621D01*
X159990439Y-98941621D01*
X160055119Y-98935962D01*
X160225846Y-98921025D01*
X160454101Y-98859865D01*
X160668268Y-98759997D01*
X160861839Y-98624457D01*
X161028933Y-98457363D01*
X161159168Y-98271367D01*
X161213745Y-98227743D01*
X161283243Y-98220549D01*
X161345598Y-98252072D01*
X161362317Y-98271367D01*
X161492328Y-98457040D01*
X161659355Y-98624067D01*
X161852859Y-98759562D01*
X162066945Y-98859391D01*
X162066954Y-98859395D01*
X162280438Y-98916596D01*
X162280438Y-98021463D01*
X162388123Y-98070642D01*
X162494675Y-98085962D01*
X162566201Y-98085962D01*
X162672753Y-98070642D01*
X162780438Y-98021463D01*
X162780438Y-98916595D01*
X162993921Y-98859395D01*
X162993930Y-98859391D01*
X163208016Y-98759562D01*
X163401520Y-98624067D01*
X163568543Y-98457044D01*
X163698557Y-98271367D01*
X163753134Y-98227743D01*
X163822633Y-98220550D01*
X163884987Y-98252072D01*
X163901707Y-98271367D01*
X164031943Y-98457363D01*
X164199037Y-98624457D01*
X164259632Y-98666886D01*
X164392603Y-98759994D01*
X164392605Y-98759995D01*
X164392608Y-98759997D01*
X164606775Y-98859865D01*
X164606781Y-98859866D01*
X164606782Y-98859867D01*
X164642793Y-98869516D01*
X164835030Y-98921025D01*
X165005757Y-98935962D01*
X165070437Y-98941621D01*
X165070438Y-98941621D01*
X165070439Y-98941621D01*
X165135119Y-98935962D01*
X165305846Y-98921025D01*
X165534101Y-98859865D01*
X165748268Y-98759997D01*
X165941839Y-98624457D01*
X166108933Y-98457363D01*
X166239168Y-98271367D01*
X166293745Y-98227743D01*
X166363243Y-98220549D01*
X166425598Y-98252072D01*
X166442317Y-98271367D01*
X166572328Y-98457040D01*
X166739355Y-98624067D01*
X166932859Y-98759562D01*
X167146945Y-98859391D01*
X167146954Y-98859395D01*
X167360438Y-98916596D01*
X167360438Y-98021463D01*
X167468123Y-98070642D01*
X167574675Y-98085962D01*
X167646201Y-98085962D01*
X167752753Y-98070642D01*
X167860438Y-98021463D01*
X167860438Y-98916595D01*
X168073921Y-98859395D01*
X168073930Y-98859391D01*
X168288016Y-98759562D01*
X168481520Y-98624067D01*
X168648543Y-98457044D01*
X168778557Y-98271367D01*
X168833134Y-98227743D01*
X168902633Y-98220550D01*
X168964987Y-98252072D01*
X168981707Y-98271367D01*
X169111943Y-98457363D01*
X169279037Y-98624457D01*
X169339632Y-98666886D01*
X169472603Y-98759994D01*
X169472605Y-98759995D01*
X169472608Y-98759997D01*
X169686775Y-98859865D01*
X169686781Y-98859866D01*
X169686782Y-98859867D01*
X169722793Y-98869516D01*
X169915030Y-98921025D01*
X170085757Y-98935962D01*
X170150437Y-98941621D01*
X170150438Y-98941621D01*
X170150439Y-98941621D01*
X170215119Y-98935962D01*
X170385846Y-98921025D01*
X170614101Y-98859865D01*
X170828268Y-98759997D01*
X171021839Y-98624457D01*
X171188933Y-98457363D01*
X171318863Y-98271804D01*
X171373440Y-98228179D01*
X171442938Y-98220985D01*
X171505293Y-98252508D01*
X171522013Y-98271804D01*
X171651938Y-98457357D01*
X171651943Y-98457363D01*
X171819037Y-98624457D01*
X171879632Y-98666886D01*
X172012603Y-98759994D01*
X172012605Y-98759995D01*
X172012608Y-98759997D01*
X172226775Y-98859865D01*
X172226781Y-98859866D01*
X172226782Y-98859867D01*
X172262793Y-98869516D01*
X172455030Y-98921025D01*
X172625757Y-98935962D01*
X172690437Y-98941621D01*
X172690438Y-98941621D01*
X172690439Y-98941621D01*
X172755119Y-98935962D01*
X172925846Y-98921025D01*
X173154101Y-98859865D01*
X173368268Y-98759997D01*
X173561839Y-98624457D01*
X173728933Y-98457363D01*
X173858863Y-98271804D01*
X173913440Y-98228179D01*
X173982938Y-98220985D01*
X174045293Y-98252508D01*
X174062013Y-98271804D01*
X174191938Y-98457357D01*
X174191943Y-98457363D01*
X174359037Y-98624457D01*
X174419632Y-98666886D01*
X174552603Y-98759994D01*
X174552605Y-98759995D01*
X174552608Y-98759997D01*
X174766775Y-98859865D01*
X174766781Y-98859866D01*
X174766782Y-98859867D01*
X174802793Y-98869516D01*
X174995030Y-98921025D01*
X175165757Y-98935962D01*
X175230437Y-98941621D01*
X175230438Y-98941621D01*
X175230439Y-98941621D01*
X175295119Y-98935962D01*
X175465846Y-98921025D01*
X175694101Y-98859865D01*
X175908268Y-98759997D01*
X176101839Y-98624457D01*
X176268933Y-98457363D01*
X176404473Y-98263792D01*
X176504341Y-98049625D01*
X176565501Y-97821370D01*
X176586097Y-97585962D01*
X176565501Y-97350554D01*
X176504341Y-97122299D01*
X176404473Y-96908133D01*
X176399169Y-96900557D01*
X176268932Y-96714559D01*
X176101840Y-96547468D01*
X176101839Y-96547467D01*
X175921020Y-96420856D01*
X175915843Y-96417231D01*
X175872219Y-96362654D01*
X175865026Y-96293155D01*
X175896548Y-96230801D01*
X175915843Y-96214081D01*
X176101520Y-96084067D01*
X176268543Y-95917044D01*
X176404038Y-95723540D01*
X176503867Y-95509454D01*
X176503870Y-95509448D01*
X176561074Y-95295962D01*
X175664124Y-95295962D01*
X175689931Y-95255806D01*
X175730438Y-95117851D01*
X175730438Y-94974073D01*
X175689931Y-94836118D01*
X175664124Y-94795962D01*
X176561074Y-94795962D01*
X176561073Y-94795961D01*
X176503870Y-94582475D01*
X176503867Y-94582469D01*
X176404038Y-94368384D01*
X176404037Y-94368382D01*
X176268551Y-94174888D01*
X176268546Y-94174882D01*
X176101520Y-94007856D01*
X175908016Y-93872361D01*
X175693930Y-93772532D01*
X175693924Y-93772529D01*
X175480438Y-93715326D01*
X175480438Y-94610460D01*
X175372753Y-94561282D01*
X175266201Y-94545962D01*
X175194675Y-94545962D01*
X175088123Y-94561282D01*
X174980438Y-94610460D01*
X174980438Y-93715326D01*
X174980437Y-93715326D01*
X174766951Y-93772529D01*
X174766945Y-93772532D01*
X174552860Y-93872361D01*
X174552858Y-93872362D01*
X174359364Y-94007848D01*
X174359358Y-94007853D01*
X174192329Y-94174882D01*
X174192328Y-94174884D01*
X174062318Y-94360557D01*
X174007741Y-94404181D01*
X173938242Y-94411374D01*
X173875888Y-94379852D01*
X173859168Y-94360556D01*
X173728932Y-94174559D01*
X173561840Y-94007468D01*
X173561833Y-94007463D01*
X173368272Y-93871929D01*
X173368268Y-93871927D01*
X173368266Y-93871926D01*
X173154101Y-93772059D01*
X173154097Y-93772058D01*
X173154093Y-93772056D01*
X172925851Y-93710900D01*
X172925841Y-93710898D01*
X172690439Y-93690303D01*
X172690437Y-93690303D01*
X172455034Y-93710898D01*
X172455024Y-93710900D01*
X172226782Y-93772056D01*
X172226773Y-93772060D01*
X172012609Y-93871926D01*
X172012607Y-93871927D01*
X171819035Y-94007467D01*
X171651943Y-94174559D01*
X171522013Y-94360120D01*
X171467436Y-94403745D01*
X171397938Y-94410939D01*
X171335583Y-94379416D01*
X171318863Y-94360120D01*
X171188932Y-94174559D01*
X171021840Y-94007468D01*
X171021833Y-94007463D01*
X170828272Y-93871929D01*
X170828268Y-93871927D01*
X170828266Y-93871926D01*
X170614101Y-93772059D01*
X170614097Y-93772058D01*
X170614093Y-93772056D01*
X170385851Y-93710900D01*
X170385841Y-93710898D01*
X170150439Y-93690303D01*
X170150437Y-93690303D01*
X169915034Y-93710898D01*
X169915024Y-93710900D01*
X169686782Y-93772056D01*
X169686773Y-93772060D01*
X169472609Y-93871926D01*
X169472607Y-93871927D01*
X169279035Y-94007467D01*
X169111943Y-94174559D01*
X168982013Y-94360120D01*
X168927436Y-94403745D01*
X168857938Y-94410939D01*
X168795583Y-94379416D01*
X168778863Y-94360120D01*
X168648932Y-94174559D01*
X168481840Y-94007468D01*
X168481833Y-94007463D01*
X168288272Y-93871929D01*
X168288268Y-93871927D01*
X168288266Y-93871926D01*
X168074101Y-93772059D01*
X168074097Y-93772058D01*
X168074093Y-93772056D01*
X167845851Y-93710900D01*
X167845841Y-93710898D01*
X167610439Y-93690303D01*
X167610437Y-93690303D01*
X167375034Y-93710898D01*
X167375024Y-93710900D01*
X167146782Y-93772056D01*
X167146773Y-93772060D01*
X166932609Y-93871926D01*
X166932607Y-93871927D01*
X166739035Y-94007467D01*
X166571943Y-94174559D01*
X166442013Y-94360120D01*
X166387436Y-94403745D01*
X166317938Y-94410939D01*
X166255583Y-94379416D01*
X166238863Y-94360120D01*
X166108932Y-94174559D01*
X165941840Y-94007468D01*
X165941833Y-94007463D01*
X165748272Y-93871929D01*
X165748268Y-93871927D01*
X165748266Y-93871926D01*
X165534101Y-93772059D01*
X165534097Y-93772058D01*
X165534093Y-93772056D01*
X165305851Y-93710900D01*
X165305841Y-93710898D01*
X165070439Y-93690303D01*
X165070437Y-93690303D01*
X164835034Y-93710898D01*
X164835024Y-93710900D01*
X164606782Y-93772056D01*
X164606773Y-93772060D01*
X164392609Y-93871926D01*
X164392607Y-93871927D01*
X164199035Y-94007467D01*
X164031943Y-94174559D01*
X163902013Y-94360120D01*
X163847436Y-94403745D01*
X163777938Y-94410939D01*
X163715583Y-94379416D01*
X163698863Y-94360120D01*
X163568932Y-94174559D01*
X163401840Y-94007468D01*
X163401833Y-94007463D01*
X163208272Y-93871929D01*
X163208268Y-93871927D01*
X163208266Y-93871926D01*
X162994101Y-93772059D01*
X162994097Y-93772058D01*
X162994093Y-93772056D01*
X162765851Y-93710900D01*
X162765841Y-93710898D01*
X162530439Y-93690303D01*
X162530437Y-93690303D01*
X162295034Y-93710898D01*
X162295024Y-93710900D01*
X162066782Y-93772056D01*
X162066773Y-93772060D01*
X161852609Y-93871926D01*
X161852607Y-93871927D01*
X161659035Y-94007467D01*
X161491943Y-94174559D01*
X161362013Y-94360120D01*
X161307436Y-94403745D01*
X161237938Y-94410939D01*
X161175583Y-94379416D01*
X161158863Y-94360120D01*
X161028932Y-94174559D01*
X160861840Y-94007468D01*
X160861833Y-94007463D01*
X160668272Y-93871929D01*
X160668268Y-93871927D01*
X160668266Y-93871926D01*
X160454101Y-93772059D01*
X160454097Y-93772058D01*
X160454093Y-93772056D01*
X160225851Y-93710900D01*
X160225841Y-93710898D01*
X159990439Y-93690303D01*
X159990437Y-93690303D01*
X159755034Y-93710898D01*
X159755024Y-93710900D01*
X159526782Y-93772056D01*
X159526773Y-93772060D01*
X159312609Y-93871926D01*
X159312607Y-93871927D01*
X159119035Y-94007467D01*
X158951946Y-94174556D01*
X158821707Y-94360557D01*
X158767130Y-94404181D01*
X158697631Y-94411374D01*
X158635277Y-94379852D01*
X158618557Y-94360556D01*
X158488551Y-94174888D01*
X158488546Y-94174882D01*
X158321520Y-94007856D01*
X158128016Y-93872361D01*
X157913930Y-93772532D01*
X157913924Y-93772529D01*
X157700438Y-93715326D01*
X157700438Y-94610460D01*
X157592753Y-94561282D01*
X157486201Y-94545962D01*
X157414675Y-94545962D01*
X157308123Y-94561282D01*
X157200438Y-94610460D01*
X157200438Y-93715326D01*
X157200437Y-93715326D01*
X156986951Y-93772529D01*
X156986945Y-93772532D01*
X156772860Y-93872361D01*
X156772858Y-93872362D01*
X156579364Y-94007848D01*
X156579358Y-94007853D01*
X156412329Y-94174882D01*
X156412328Y-94174884D01*
X156282318Y-94360557D01*
X156227741Y-94404181D01*
X156158242Y-94411374D01*
X156095888Y-94379852D01*
X156079168Y-94360556D01*
X155948932Y-94174559D01*
X155781840Y-94007468D01*
X155781833Y-94007463D01*
X155588272Y-93871929D01*
X155588268Y-93871927D01*
X155588266Y-93871926D01*
X155374101Y-93772059D01*
X155374097Y-93772058D01*
X155374093Y-93772056D01*
X155145851Y-93710900D01*
X155145841Y-93710898D01*
X154910439Y-93690303D01*
X154910437Y-93690303D01*
X154675034Y-93710898D01*
X154675024Y-93710900D01*
X154446782Y-93772056D01*
X154446773Y-93772060D01*
X154232609Y-93871926D01*
X154232607Y-93871927D01*
X154039035Y-94007467D01*
X153871943Y-94174559D01*
X153742013Y-94360120D01*
X153687436Y-94403745D01*
X153617938Y-94410939D01*
X153555583Y-94379416D01*
X153538863Y-94360120D01*
X153408932Y-94174559D01*
X153241840Y-94007468D01*
X153241833Y-94007463D01*
X153048272Y-93871929D01*
X153048268Y-93871927D01*
X153048266Y-93871926D01*
X152834101Y-93772059D01*
X152834097Y-93772058D01*
X152834093Y-93772056D01*
X152605851Y-93710900D01*
X152605841Y-93710898D01*
X152370439Y-93690303D01*
X152370437Y-93690303D01*
X152135034Y-93710898D01*
X152135024Y-93710900D01*
X151906782Y-93772056D01*
X151906773Y-93772060D01*
X151692609Y-93871926D01*
X151692607Y-93871927D01*
X151499035Y-94007467D01*
X151331943Y-94174559D01*
X151202013Y-94360120D01*
X151147436Y-94403745D01*
X151077938Y-94410939D01*
X151015583Y-94379416D01*
X150998863Y-94360120D01*
X150868932Y-94174559D01*
X150701840Y-94007468D01*
X150701833Y-94007463D01*
X150508272Y-93871929D01*
X150508268Y-93871927D01*
X150508266Y-93871926D01*
X150294101Y-93772059D01*
X150294097Y-93772058D01*
X150294093Y-93772056D01*
X150065851Y-93710900D01*
X150065841Y-93710898D01*
X149830439Y-93690303D01*
X149830437Y-93690303D01*
X149595034Y-93710898D01*
X149595024Y-93710900D01*
X149366782Y-93772056D01*
X149366773Y-93772060D01*
X149152609Y-93871926D01*
X149152607Y-93871927D01*
X148959035Y-94007467D01*
X148791943Y-94174559D01*
X148662013Y-94360120D01*
X148607436Y-94403745D01*
X148537938Y-94410939D01*
X148475583Y-94379416D01*
X148458863Y-94360120D01*
X148328932Y-94174559D01*
X148161840Y-94007468D01*
X148161833Y-94007463D01*
X147968272Y-93871929D01*
X147968268Y-93871927D01*
X147968266Y-93871926D01*
X147754101Y-93772059D01*
X147754097Y-93772058D01*
X147754093Y-93772056D01*
X147525851Y-93710900D01*
X147525841Y-93710898D01*
X147290439Y-93690303D01*
X147290437Y-93690303D01*
X147055034Y-93710898D01*
X147055025Y-93710900D01*
X147009965Y-93722973D01*
X146940116Y-93721308D01*
X146882254Y-93682144D01*
X146854752Y-93617915D01*
X146859943Y-93564884D01*
X146884874Y-93488156D01*
X146904660Y-93299900D01*
X146884874Y-93111644D01*
X146826379Y-92931616D01*
X146731733Y-92767684D01*
X146605071Y-92627012D01*
X146567050Y-92599388D01*
X146451934Y-92515751D01*
X146451929Y-92515748D01*
X146279007Y-92438757D01*
X146279002Y-92438755D01*
X146116381Y-92404190D01*
X146093846Y-92399400D01*
X145904554Y-92399400D01*
X145882019Y-92404190D01*
X145719397Y-92438755D01*
X145719392Y-92438757D01*
X145546470Y-92515748D01*
X145546465Y-92515751D01*
X145393329Y-92627011D01*
X145266666Y-92767685D01*
X145172021Y-92931615D01*
X145172018Y-92931622D01*
X145113527Y-93111640D01*
X145113526Y-93111644D01*
X145093740Y-93299900D01*
X145113526Y-93488156D01*
X145113527Y-93488159D01*
X145134404Y-93552413D01*
X145136399Y-93622255D01*
X145100318Y-93682087D01*
X145037617Y-93712915D01*
X144991359Y-93710823D01*
X144991180Y-93711840D01*
X144985841Y-93710898D01*
X144750439Y-93690303D01*
X144750437Y-93690303D01*
X144515034Y-93710898D01*
X144515024Y-93710900D01*
X144286782Y-93772056D01*
X144286773Y-93772060D01*
X144072609Y-93871926D01*
X144072607Y-93871927D01*
X143879035Y-94007467D01*
X143711943Y-94174559D01*
X143582013Y-94360120D01*
X143527436Y-94403745D01*
X143457938Y-94410939D01*
X143395583Y-94379416D01*
X143378863Y-94360120D01*
X143248932Y-94174559D01*
X143081840Y-94007468D01*
X143081833Y-94007463D01*
X142888272Y-93871929D01*
X142888268Y-93871927D01*
X142888266Y-93871926D01*
X142674101Y-93772059D01*
X142674097Y-93772058D01*
X142674093Y-93772056D01*
X142445851Y-93710900D01*
X142445841Y-93710898D01*
X142210439Y-93690303D01*
X142210437Y-93690303D01*
X141975034Y-93710898D01*
X141975024Y-93710900D01*
X141746782Y-93772056D01*
X141746773Y-93772060D01*
X141532609Y-93871926D01*
X141532607Y-93871927D01*
X141339035Y-94007467D01*
X141171943Y-94174559D01*
X141042013Y-94360120D01*
X140987436Y-94403745D01*
X140917938Y-94410939D01*
X140855583Y-94379416D01*
X140838863Y-94360120D01*
X140708932Y-94174559D01*
X140541840Y-94007468D01*
X140541833Y-94007463D01*
X140348272Y-93871929D01*
X140348268Y-93871927D01*
X140348266Y-93871926D01*
X140134101Y-93772059D01*
X140134097Y-93772058D01*
X140134093Y-93772056D01*
X139905851Y-93710900D01*
X139905841Y-93710898D01*
X139670439Y-93690303D01*
X139670437Y-93690303D01*
X139435034Y-93710898D01*
X139435024Y-93710900D01*
X139206782Y-93772056D01*
X139206773Y-93772060D01*
X138992609Y-93871926D01*
X138992607Y-93871927D01*
X138799035Y-94007467D01*
X138631946Y-94174556D01*
X138501707Y-94360557D01*
X138447130Y-94404181D01*
X138377631Y-94411374D01*
X138315277Y-94379852D01*
X138298557Y-94360556D01*
X138168551Y-94174888D01*
X138168546Y-94174882D01*
X138001520Y-94007856D01*
X137808016Y-93872361D01*
X137593930Y-93772532D01*
X137593924Y-93772529D01*
X137380438Y-93715326D01*
X137380438Y-94610460D01*
X137272753Y-94561282D01*
X137166201Y-94545962D01*
X137094675Y-94545962D01*
X136988123Y-94561282D01*
X136880438Y-94610460D01*
X136880438Y-93715326D01*
X136880437Y-93715326D01*
X136666951Y-93772529D01*
X136666945Y-93772532D01*
X136452860Y-93872361D01*
X136452858Y-93872362D01*
X136259364Y-94007848D01*
X136259358Y-94007853D01*
X136092329Y-94174882D01*
X136092328Y-94174884D01*
X135962318Y-94360557D01*
X135907741Y-94404181D01*
X135838242Y-94411374D01*
X135775888Y-94379852D01*
X135759168Y-94360556D01*
X135628932Y-94174559D01*
X135461840Y-94007468D01*
X135461833Y-94007463D01*
X135268272Y-93871929D01*
X135268268Y-93871927D01*
X135268266Y-93871926D01*
X135054101Y-93772059D01*
X135054097Y-93772058D01*
X135054093Y-93772056D01*
X134825851Y-93710900D01*
X134825841Y-93710898D01*
X134590439Y-93690303D01*
X134590437Y-93690303D01*
X134355034Y-93710898D01*
X134355024Y-93710900D01*
X134126782Y-93772056D01*
X134126773Y-93772060D01*
X133912609Y-93871926D01*
X133912607Y-93871927D01*
X133719035Y-94007467D01*
X133551943Y-94174559D01*
X133422013Y-94360120D01*
X133367436Y-94403745D01*
X133297938Y-94410939D01*
X133235583Y-94379416D01*
X133218863Y-94360120D01*
X133088932Y-94174559D01*
X132921840Y-94007468D01*
X132921833Y-94007463D01*
X132728272Y-93871929D01*
X132728268Y-93871927D01*
X132728266Y-93871926D01*
X132514101Y-93772059D01*
X132514097Y-93772058D01*
X132514093Y-93772056D01*
X132285851Y-93710900D01*
X132285841Y-93710898D01*
X132050439Y-93690303D01*
X132050437Y-93690303D01*
X131815034Y-93710898D01*
X131815024Y-93710900D01*
X131586782Y-93772056D01*
X131586773Y-93772060D01*
X131372609Y-93871926D01*
X131372607Y-93871927D01*
X131179035Y-94007467D01*
X131011943Y-94174559D01*
X130882013Y-94360120D01*
X130827436Y-94403745D01*
X130757938Y-94410939D01*
X130695583Y-94379416D01*
X130678863Y-94360120D01*
X130548932Y-94174559D01*
X130381840Y-94007468D01*
X130381833Y-94007463D01*
X130188272Y-93871929D01*
X130188268Y-93871927D01*
X130188266Y-93871926D01*
X129974101Y-93772059D01*
X129974097Y-93772058D01*
X129974093Y-93772056D01*
X129745851Y-93710900D01*
X129745841Y-93710898D01*
X129510439Y-93690303D01*
X129510437Y-93690303D01*
X129275034Y-93710898D01*
X129275024Y-93710900D01*
X129046782Y-93772056D01*
X129046773Y-93772060D01*
X128832609Y-93871926D01*
X128832607Y-93871927D01*
X128639038Y-94007465D01*
X128517111Y-94129392D01*
X128455788Y-94162876D01*
X128386096Y-94157892D01*
X128330163Y-94116020D01*
X128313248Y-94085043D01*
X128264235Y-93953633D01*
X128264231Y-93953626D01*
X128177985Y-93838417D01*
X128177982Y-93838414D01*
X128062773Y-93752168D01*
X128062766Y-93752164D01*
X127927920Y-93701870D01*
X127927921Y-93701870D01*
X127868321Y-93695463D01*
X127868319Y-93695462D01*
X127868311Y-93695462D01*
X127868302Y-93695462D01*
X126072567Y-93695462D01*
X126072561Y-93695463D01*
X126012954Y-93701870D01*
X125878109Y-93752164D01*
X125878102Y-93752168D01*
X125762893Y-93838414D01*
X125762890Y-93838417D01*
X125676644Y-93953626D01*
X125676640Y-93953633D01*
X125626346Y-94088479D01*
X125619939Y-94148078D01*
X125619938Y-94148097D01*
X125619938Y-95943832D01*
X125619939Y-95943838D01*
X125626346Y-96003445D01*
X125676640Y-96138290D01*
X125676644Y-96138297D01*
X125762890Y-96253506D01*
X125762893Y-96253509D01*
X125878102Y-96339755D01*
X125878109Y-96339759D01*
X126009520Y-96388772D01*
X126065454Y-96430643D01*
X126089871Y-96496107D01*
X126075020Y-96564380D01*
X126053868Y-96592635D01*
X125992806Y-96653697D01*
X125931483Y-96687182D01*
X125861791Y-96682198D01*
X125812976Y-96648989D01*
X125777071Y-96609112D01*
X125754394Y-96592636D01*
X125623934Y-96497851D01*
X125623929Y-96497848D01*
X125451007Y-96420857D01*
X125451002Y-96420855D01*
X125300058Y-96388772D01*
X125265846Y-96381500D01*
X125076554Y-96381500D01*
X125044097Y-96388398D01*
X124891397Y-96420855D01*
X124891392Y-96420857D01*
X124718470Y-96497848D01*
X124718465Y-96497851D01*
X124565329Y-96609111D01*
X124438666Y-96749785D01*
X124344021Y-96913715D01*
X124344018Y-96913722D01*
X124285527Y-97093740D01*
X124285526Y-97093744D01*
X124265740Y-97282000D01*
X122815590Y-97282000D01*
X122838041Y-97258825D01*
X122899187Y-97242700D01*
X122903644Y-97242700D01*
X122903646Y-97242700D01*
X123088803Y-97203344D01*
X123261730Y-97126351D01*
X123414871Y-97015088D01*
X123541533Y-96874416D01*
X123636179Y-96710484D01*
X123694674Y-96530456D01*
X123714460Y-96342200D01*
X123694674Y-96153944D01*
X123636179Y-95973916D01*
X123541533Y-95809984D01*
X123414871Y-95669312D01*
X123414870Y-95669311D01*
X123261734Y-95558051D01*
X123261729Y-95558048D01*
X123088807Y-95481057D01*
X123088802Y-95481055D01*
X122943001Y-95450065D01*
X122903646Y-95441700D01*
X122891424Y-95441700D01*
X122824385Y-95422015D01*
X122778630Y-95369211D01*
X122768686Y-95300053D01*
X122769387Y-95296631D01*
X122768874Y-95295962D01*
X121871924Y-95295962D01*
X121897731Y-95255806D01*
X121938238Y-95117851D01*
X121938238Y-94974073D01*
X121897731Y-94836118D01*
X121871924Y-94795962D01*
X122768874Y-94795962D01*
X122768873Y-94795961D01*
X122711670Y-94582475D01*
X122711667Y-94582469D01*
X122611838Y-94368384D01*
X122611837Y-94368382D01*
X122476351Y-94174888D01*
X122476346Y-94174882D01*
X122309320Y-94007856D01*
X122115816Y-93872361D01*
X121901730Y-93772532D01*
X121901724Y-93772529D01*
X121688238Y-93715326D01*
X121688238Y-94610460D01*
X121580553Y-94561282D01*
X121474001Y-94545962D01*
X121402475Y-94545962D01*
X121295923Y-94561282D01*
X121188238Y-94610460D01*
X121188238Y-93715326D01*
X121131353Y-93730568D01*
X121061503Y-93728905D01*
X121003641Y-93689742D01*
X120981329Y-93649112D01*
X120969179Y-93611716D01*
X120874533Y-93447784D01*
X120747871Y-93307112D01*
X120747870Y-93307111D01*
X120594734Y-93195851D01*
X120594729Y-93195848D01*
X120421807Y-93118857D01*
X120421802Y-93118855D01*
X120276001Y-93087865D01*
X120236646Y-93079500D01*
X120047354Y-93079500D01*
X120014897Y-93086398D01*
X119862197Y-93118855D01*
X119862192Y-93118857D01*
X119689270Y-93195848D01*
X119689265Y-93195851D01*
X119536129Y-93307111D01*
X119409466Y-93447785D01*
X119314821Y-93611715D01*
X119314818Y-93611723D01*
X119307026Y-93635703D01*
X119267587Y-93693377D01*
X119203228Y-93720574D01*
X119157006Y-93717158D01*
X119150168Y-93715326D01*
X119133646Y-93710899D01*
X118957216Y-93695463D01*
X118898239Y-93690303D01*
X118898236Y-93690303D01*
X118728845Y-93705123D01*
X118660345Y-93691356D01*
X118610162Y-93642741D01*
X118600107Y-93619913D01*
X118597444Y-93611718D01*
X118557297Y-93488156D01*
X118556181Y-93484721D01*
X118556178Y-93484715D01*
X118461533Y-93320784D01*
X118334871Y-93180112D01*
X118334870Y-93180111D01*
X118181734Y-93068851D01*
X118181732Y-93068850D01*
X118070893Y-93019500D01*
X118017657Y-92974249D01*
X117997336Y-92907400D01*
X118016382Y-92840176D01*
X118068748Y-92793921D01*
X118083028Y-92788285D01*
X118084990Y-92787646D01*
X118085003Y-92787644D01*
X118257930Y-92710651D01*
X118411071Y-92599388D01*
X118537733Y-92458716D01*
X118632379Y-92294784D01*
X118690874Y-92114756D01*
X118710660Y-91926500D01*
X119366650Y-91926500D01*
X119386436Y-92114756D01*
X119386437Y-92114759D01*
X119444928Y-92294777D01*
X119444931Y-92294784D01*
X119539577Y-92458716D01*
X119590929Y-92515748D01*
X119666239Y-92599388D01*
X119819375Y-92710648D01*
X119819380Y-92710651D01*
X119992302Y-92787642D01*
X119992307Y-92787644D01*
X120177464Y-92827000D01*
X120177465Y-92827000D01*
X120366754Y-92827000D01*
X120366756Y-92827000D01*
X120551913Y-92787644D01*
X120724840Y-92710651D01*
X120877981Y-92599388D01*
X121004643Y-92458716D01*
X121099289Y-92294784D01*
X121157784Y-92114756D01*
X121177570Y-91926500D01*
X121157784Y-91738244D01*
X121099289Y-91558216D01*
X121004643Y-91394284D01*
X120877981Y-91253612D01*
X120877980Y-91253611D01*
X120724844Y-91142351D01*
X120724839Y-91142348D01*
X120551917Y-91065357D01*
X120551912Y-91065355D01*
X120406111Y-91034365D01*
X120366756Y-91026000D01*
X120177464Y-91026000D01*
X120145007Y-91032898D01*
X119992307Y-91065355D01*
X119992302Y-91065357D01*
X119819380Y-91142348D01*
X119819375Y-91142351D01*
X119666239Y-91253611D01*
X119539576Y-91394285D01*
X119444931Y-91558215D01*
X119444928Y-91558222D01*
X119418908Y-91638305D01*
X119386436Y-91738244D01*
X119366650Y-91926500D01*
X118710660Y-91926500D01*
X118690874Y-91738244D01*
X118632379Y-91558216D01*
X118537733Y-91394284D01*
X118411071Y-91253612D01*
X118411070Y-91253611D01*
X118257934Y-91142351D01*
X118257929Y-91142348D01*
X118085007Y-91065357D01*
X118085002Y-91065355D01*
X117939201Y-91034365D01*
X117899846Y-91026000D01*
X117710554Y-91026000D01*
X117678097Y-91032898D01*
X117525397Y-91065355D01*
X117525392Y-91065357D01*
X117352470Y-91142348D01*
X117352465Y-91142351D01*
X117199329Y-91253611D01*
X117199328Y-91253612D01*
X117146294Y-91312512D01*
X117086807Y-91349160D01*
X117016950Y-91347829D01*
X116981260Y-91329857D01*
X116962530Y-91316249D01*
X116962529Y-91316248D01*
X116789607Y-91239257D01*
X116789602Y-91239255D01*
X116643801Y-91208265D01*
X116604446Y-91199900D01*
X116415154Y-91199900D01*
X116382697Y-91206798D01*
X116229997Y-91239255D01*
X116229992Y-91239257D01*
X116057070Y-91316248D01*
X116057065Y-91316251D01*
X115903929Y-91427511D01*
X115777266Y-91568185D01*
X115682621Y-91732115D01*
X115682618Y-91732122D01*
X115632116Y-91887552D01*
X115624126Y-91912144D01*
X115604340Y-92100400D01*
X115624126Y-92288656D01*
X115624127Y-92288659D01*
X115682618Y-92468677D01*
X115682621Y-92468684D01*
X115777267Y-92632616D01*
X115847530Y-92710651D01*
X115903926Y-92773285D01*
X115905409Y-92774620D01*
X115906017Y-92775607D01*
X115908278Y-92778118D01*
X115907818Y-92778531D01*
X115942060Y-92834106D01*
X115940732Y-92903963D01*
X115901847Y-92962013D01*
X115895326Y-92967091D01*
X115776927Y-93053113D01*
X115650266Y-93193785D01*
X115555621Y-93357715D01*
X115555618Y-93357722D01*
X115513238Y-93488156D01*
X115497126Y-93537744D01*
X115477340Y-93726000D01*
X115486229Y-93810580D01*
X115497127Y-93914264D01*
X115497666Y-93916799D01*
X115497551Y-93918297D01*
X115497806Y-93920719D01*
X115497362Y-93920765D01*
X115492343Y-93986465D01*
X115464055Y-94030248D01*
X115319741Y-94174562D01*
X115189813Y-94360120D01*
X115135236Y-94403745D01*
X115065738Y-94410939D01*
X115003383Y-94379416D01*
X114986663Y-94360120D01*
X114856732Y-94174559D01*
X114689640Y-94007468D01*
X114689633Y-94007463D01*
X114496072Y-93871929D01*
X114496068Y-93871927D01*
X114496066Y-93871926D01*
X114281901Y-93772059D01*
X114281897Y-93772058D01*
X114281893Y-93772056D01*
X114053651Y-93710900D01*
X114053641Y-93710898D01*
X113818239Y-93690303D01*
X113818237Y-93690303D01*
X113582834Y-93710898D01*
X113582824Y-93710900D01*
X113354582Y-93772056D01*
X113354573Y-93772060D01*
X113140409Y-93871926D01*
X113140407Y-93871927D01*
X112946835Y-94007467D01*
X112779743Y-94174559D01*
X112644203Y-94368131D01*
X112644202Y-94368133D01*
X112544336Y-94582297D01*
X112544332Y-94582306D01*
X112483176Y-94810548D01*
X112483174Y-94810558D01*
X112462579Y-95045961D01*
X112462579Y-95045962D01*
X110007900Y-95045962D01*
X110007900Y-92991140D01*
X110007998Y-92987663D01*
X110010570Y-92941849D01*
X110014395Y-92873733D01*
X110024801Y-92701704D01*
X110025560Y-92695106D01*
X110047976Y-92563180D01*
X110048677Y-92559056D01*
X110060832Y-92492724D01*
X110075962Y-92410163D01*
X110077361Y-92404210D01*
X110116787Y-92267356D01*
X110160670Y-92126535D01*
X110162558Y-92121321D01*
X110217797Y-91987965D01*
X110277743Y-91854770D01*
X110279999Y-91850261D01*
X110350358Y-91722957D01*
X110425628Y-91598444D01*
X110428093Y-91594686D01*
X110511861Y-91476626D01*
X110513545Y-91474367D01*
X110602332Y-91361038D01*
X110604872Y-91358005D01*
X110701452Y-91249931D01*
X110703773Y-91247477D01*
X110805477Y-91145773D01*
X110807931Y-91143452D01*
X110916005Y-91046872D01*
X110919038Y-91044332D01*
X111032367Y-90955545D01*
X111034626Y-90953861D01*
X111152686Y-90870093D01*
X111156444Y-90867628D01*
X111280961Y-90792356D01*
X111408261Y-90721999D01*
X111412770Y-90719743D01*
X111545965Y-90659797D01*
X111679321Y-90604558D01*
X111684535Y-90602670D01*
X111825356Y-90558787D01*
X111962210Y-90519361D01*
X111968163Y-90517962D01*
X112050724Y-90502832D01*
X112117056Y-90490677D01*
X112165341Y-90482472D01*
X112253106Y-90467560D01*
X112259704Y-90466801D01*
X112431733Y-90456395D01*
X112518182Y-90451540D01*
X112545663Y-90449998D01*
X112549140Y-90449900D01*
X177315660Y-90449900D01*
X177319137Y-90449998D01*
G37*
%TD.AperFunction*%
%TD*%
M02*
