%TF.GenerationSoftware,KiCad,Pcbnew,7.0.8*%
%TF.CreationDate,2024-02-04T14:44:40+01:00*%
%TF.ProjectId,HatV2,48617456-322e-46b6-9963-61645f706362,V2*%
%TF.SameCoordinates,PX5faea10PY6c663e8*%
%TF.FileFunction,Paste,Bot*%
%TF.FilePolarity,Positive*%
%FSLAX46Y46*%
G04 Gerber Fmt 4.6, Leading zero omitted, Abs format (unit mm)*
G04 Created by KiCad (PCBNEW 7.0.8) date 2024-02-04 14:44:40*
%MOMM*%
%LPD*%
G01*
G04 APERTURE LIST*
G04 Aperture macros list*
%AMRoundRect*
0 Rectangle with rounded corners*
0 $1 Rounding radius*
0 $2 $3 $4 $5 $6 $7 $8 $9 X,Y pos of 4 corners*
0 Add a 4 corners polygon primitive as box body*
4,1,4,$2,$3,$4,$5,$6,$7,$8,$9,$2,$3,0*
0 Add four circle primitives for the rounded corners*
1,1,$1+$1,$2,$3*
1,1,$1+$1,$4,$5*
1,1,$1+$1,$6,$7*
1,1,$1+$1,$8,$9*
0 Add four rect primitives between the rounded corners*
20,1,$1+$1,$2,$3,$4,$5,0*
20,1,$1+$1,$4,$5,$6,$7,0*
20,1,$1+$1,$6,$7,$8,$9,0*
20,1,$1+$1,$8,$9,$2,$3,0*%
G04 Aperture macros list end*
%ADD10RoundRect,0.200000X1.000000X-0.200000X1.000000X0.200000X-1.000000X0.200000X-1.000000X-0.200000X0*%
%ADD11RoundRect,0.250000X1.400000X-0.650000X1.400000X0.650000X-1.400000X0.650000X-1.400000X-0.650000X0*%
%ADD12RoundRect,0.150000X0.700000X-0.150000X0.700000X0.150000X-0.700000X0.150000X-0.700000X-0.150000X0*%
%ADD13RoundRect,0.250000X1.150000X-0.250000X1.150000X0.250000X-1.150000X0.250000X-1.150000X-0.250000X0*%
G04 APERTURE END LIST*
D10*
%TO.C,J4*%
X41290063Y4731884D03*
X41290063Y6231884D03*
X41290063Y7731884D03*
X41290063Y9231884D03*
D11*
X46340063Y2131884D03*
X46340063Y11831884D03*
%TD*%
D12*
%TO.C,J7*%
X51720144Y5428976D03*
X51720144Y6678976D03*
X51720144Y7928976D03*
X51720144Y9178976D03*
D13*
X55070144Y3578976D03*
X55070144Y11028976D03*
%TD*%
D10*
%TO.C,J9*%
X69670423Y4992728D03*
X69670423Y6492728D03*
X69670423Y7992728D03*
X69670423Y9492728D03*
D11*
X74720423Y2392728D03*
X74720423Y12092728D03*
%TD*%
D10*
%TO.C,J8*%
X60355000Y4965000D03*
X60355000Y6465000D03*
X60355000Y7965000D03*
X60355000Y9465000D03*
D11*
X65405000Y2365000D03*
X65405000Y12065000D03*
%TD*%
D10*
%TO.C,J2*%
X20110000Y4735000D03*
X20110000Y6235000D03*
X20110000Y7735000D03*
X20110000Y9235000D03*
D11*
X25160000Y2135000D03*
X25160000Y11835000D03*
%TD*%
D10*
%TO.C,J3*%
X32012765Y4746320D03*
X32012765Y6246320D03*
X32012765Y7746320D03*
X32012765Y9246320D03*
D11*
X37062765Y2146320D03*
X37062765Y11846320D03*
%TD*%
D10*
%TO.C,J1*%
X10929758Y4735000D03*
X10929758Y6235000D03*
X10929758Y7735000D03*
X10929758Y9235000D03*
D11*
X15979758Y2135000D03*
X15979758Y11835000D03*
%TD*%
M02*
