%TF.GenerationSoftware,KiCad,Pcbnew,7.0.8*%
%TF.CreationDate,2024-02-06T22:23:07+01:00*%
%TF.ProjectId,HatV3,48617456-332e-46b6-9963-61645f706362,V2*%
%TF.SameCoordinates,Original*%
%TF.FileFunction,Other,User*%
%FSLAX46Y46*%
G04 Gerber Fmt 4.6, Leading zero omitted, Abs format (unit mm)*
G04 Created by KiCad (PCBNEW 7.0.8) date 2024-02-06 22:23:07*
%MOMM*%
%LPD*%
G01*
G04 APERTURE LIST*
%ADD10C,0.050000*%
G04 APERTURE END LIST*
D10*
%TO.C,U8*%
X176151678Y-102085178D02*
X179991678Y-102085178D01*
X176151678Y-105485178D02*
X176151678Y-102085178D01*
X179991678Y-102085178D02*
X179991678Y-105485178D01*
X179991678Y-105485178D02*
X176151678Y-105485178D01*
%TO.C,J8*%
X165877978Y-102041578D02*
X165877978Y-114541578D01*
X156707978Y-102041578D02*
X165877978Y-102041578D01*
X165877978Y-114541578D02*
X156707978Y-114541578D01*
X156707978Y-114541578D02*
X156707978Y-102041578D01*
%TO.C,J4*%
X151676400Y-102131800D02*
X151676400Y-114631800D01*
X142506400Y-102131800D02*
X151676400Y-102131800D01*
X151676400Y-114631800D02*
X142506400Y-114631800D01*
X142506400Y-114631800D02*
X142506400Y-102131800D01*
%TO.C,J3*%
X142267422Y-102146222D02*
X142267422Y-114646222D01*
X133097422Y-102146222D02*
X142267422Y-102146222D01*
X142267422Y-114646222D02*
X133097422Y-114646222D01*
X133097422Y-114646222D02*
X133097422Y-102146222D01*
%TO.C,J6*%
X123218238Y-93245962D02*
X112018238Y-93245962D01*
X112018238Y-93245962D02*
X112018238Y-99345962D01*
X123218238Y-99345962D02*
X123218238Y-93245962D01*
X112018238Y-99345962D02*
X123218238Y-99345962D01*
%TO.C,J7*%
X191592400Y-114622400D02*
X182152400Y-114622400D01*
X191592400Y-108022400D02*
X191592400Y-114622400D01*
X182152400Y-114622400D02*
X182152400Y-108022400D01*
X182152400Y-108022400D02*
X191592400Y-108022400D01*
%TO.C,U4*%
X152331900Y-102196200D02*
X156171900Y-102196200D01*
X152331900Y-105596200D02*
X152331900Y-102196200D01*
X156171900Y-102196200D02*
X156171900Y-105596200D01*
X156171900Y-105596200D02*
X152331900Y-105596200D01*
%TO.C,J9*%
X175294578Y-102081378D02*
X175294578Y-114581378D01*
X166124578Y-102081378D02*
X175294578Y-102081378D01*
X175294578Y-114581378D02*
X166124578Y-114581378D01*
X166124578Y-114581378D02*
X166124578Y-102081378D01*
%TO.C,U2*%
X128597322Y-111253022D02*
X132437322Y-111253022D01*
X128597322Y-114653022D02*
X128597322Y-111253022D01*
X132437322Y-111253022D02*
X132437322Y-114653022D01*
X132437322Y-114653022D02*
X128597322Y-114653022D01*
%TO.C,J2*%
X127552822Y-102222422D02*
X127552822Y-114722422D01*
X118382822Y-102222422D02*
X127552822Y-102222422D01*
X127552822Y-114722422D02*
X118382822Y-114722422D01*
X118382822Y-114722422D02*
X118382822Y-102222422D01*
%TO.C,J1*%
X118247022Y-102246822D02*
X118247022Y-114746822D01*
X109077022Y-102246822D02*
X118247022Y-102246822D01*
X118247022Y-114746822D02*
X109077022Y-114746822D01*
X109077022Y-114746822D02*
X109077022Y-102246822D01*
%TD*%
M02*
