%TF.GenerationSoftware,KiCad,Pcbnew,7.0.8*%
%TF.CreationDate,2024-02-10T17:45:33+01:00*%
%TF.ProjectId,HatV4,48617456-342e-46b6-9963-61645f706362,V2*%
%TF.SameCoordinates,Original*%
%TF.FileFunction,Legend,Top*%
%TF.FilePolarity,Positive*%
%FSLAX46Y46*%
G04 Gerber Fmt 4.6, Leading zero omitted, Abs format (unit mm)*
G04 Created by KiCad (PCBNEW 7.0.8) date 2024-02-10 17:45:33*
%MOMM*%
%LPD*%
G01*
G04 APERTURE LIST*
%ADD10C,0.120000*%
%ADD11C,0.100000*%
G04 APERTURE END LIST*
D10*
%TO.C,C11*%
X167138133Y-102871000D02*
X167430667Y-102871000D01*
X167138133Y-103891000D02*
X167430667Y-103891000D01*
%TO.C,J5*%
X125640438Y-98915962D02*
X176560438Y-98915962D01*
X125640438Y-98915962D02*
X125640438Y-96315962D01*
X176560438Y-98915962D02*
X176560438Y-93715962D01*
X125640438Y-96315962D02*
X128240438Y-96315962D01*
X128240438Y-96315962D02*
X128240438Y-93715962D01*
X125640438Y-95045962D02*
X125640438Y-93715962D01*
X125640438Y-93715962D02*
X126970438Y-93715962D01*
X128240438Y-93715962D02*
X176560438Y-93715962D01*
%TO.C,U6*%
X177883900Y-112883800D02*
X181483900Y-112883800D01*
X177883900Y-112883800D02*
X175683900Y-112883800D01*
X177883900Y-107413800D02*
X180083900Y-107413800D01*
X177883900Y-107413800D02*
X175683900Y-107413800D01*
%TO.C,C2*%
X108083236Y-113415400D02*
X107867564Y-113415400D01*
X108083236Y-112695400D02*
X107867564Y-112695400D01*
D11*
%TO.C,FL3*%
X160246778Y-110036378D02*
X157861778Y-110036378D01*
X160246778Y-111816378D02*
X158216778Y-111816378D01*
D10*
%TO.C,C21*%
X152192400Y-110877236D02*
X152192400Y-110661564D01*
X152912400Y-110877236D02*
X152912400Y-110661564D01*
%TO.C,C8*%
X128479436Y-105643000D02*
X128263764Y-105643000D01*
X128479436Y-104923000D02*
X128263764Y-104923000D01*
%TO.C,C5*%
X117265564Y-110362222D02*
X117481236Y-110362222D01*
X117265564Y-111082222D02*
X117481236Y-111082222D01*
%TO.C,C15*%
X183776233Y-112164400D02*
X184068767Y-112164400D01*
X183776233Y-113184400D02*
X184068767Y-113184400D01*
%TO.C,C7*%
X132820236Y-108335400D02*
X132604564Y-108335400D01*
X132820236Y-107615400D02*
X132604564Y-107615400D01*
D11*
%TO.C,FL1*%
X112565022Y-109832222D02*
X110180022Y-109832222D01*
X112565022Y-111612222D02*
X110535022Y-111612222D01*
D10*
%TO.C,C20*%
X156933978Y-113578742D02*
X156933978Y-113794414D01*
X156213978Y-113578742D02*
X156213978Y-113794414D01*
%TO.C,C16*%
X185272633Y-108887800D02*
X185565167Y-108887800D01*
X185272633Y-109907800D02*
X185565167Y-109907800D01*
%TO.C,U5*%
X162689800Y-100449600D02*
X159689800Y-100449600D01*
X159689800Y-105149600D02*
X161189800Y-105149600D01*
%TO.C,R6*%
X140051933Y-107567965D02*
X139577417Y-107567965D01*
X140051933Y-106522965D02*
X139577417Y-106522965D01*
%TO.C,C23*%
X164636564Y-110547378D02*
X164852236Y-110547378D01*
X164636564Y-111267378D02*
X164852236Y-111267378D01*
%TO.C,R1*%
X110849581Y-108716622D02*
X111156863Y-108716622D01*
X110849581Y-109476622D02*
X111156863Y-109476622D01*
%TO.C,R9*%
X163774658Y-112815900D02*
X163300142Y-112815900D01*
X163774658Y-111770900D02*
X163300142Y-111770900D01*
%TO.C,C6*%
X132792236Y-109351400D02*
X132576564Y-109351400D01*
X132792236Y-108631400D02*
X132576564Y-108631400D01*
%TO.C,U1*%
X106226422Y-112291222D02*
X109226422Y-112291222D01*
X107726422Y-109071222D02*
X109226422Y-109071222D01*
%TO.C,R8*%
X163300142Y-108976900D02*
X163774658Y-108976900D01*
X163300142Y-110021900D02*
X163774658Y-110021900D01*
%TO.C,Y1*%
X168998800Y-102307000D02*
X168998800Y-100007000D01*
X168998800Y-100007000D02*
X166298800Y-100007000D01*
%TO.C,C19*%
X155917978Y-113550742D02*
X155917978Y-113766414D01*
X155197978Y-113550742D02*
X155197978Y-113766414D01*
%TO.C,C17*%
X180003667Y-114175000D02*
X179711133Y-114175000D01*
X180003667Y-113155000D02*
X179711133Y-113155000D01*
%TO.C,R5*%
X139615142Y-104023900D02*
X140089658Y-104023900D01*
X139615142Y-105068900D02*
X140089658Y-105068900D01*
%TO.C,C14*%
X173578567Y-114327400D02*
X173286033Y-114327400D01*
X173578567Y-113307400D02*
X173286033Y-113307400D01*
%TO.C,G\u002A\u002A\u002A*%
G36*
X190407404Y-100961602D02*
G01*
X190419225Y-100966882D01*
X190420288Y-100967426D01*
X190430235Y-100973400D01*
X190432193Y-100978311D01*
X190428465Y-100983952D01*
X190423017Y-100990437D01*
X190412226Y-101003361D01*
X190397245Y-101021342D01*
X190379228Y-101042993D01*
X190359328Y-101066931D01*
X190358864Y-101067489D01*
X190339309Y-101090803D01*
X190321879Y-101111164D01*
X190307635Y-101127366D01*
X190297639Y-101138204D01*
X190292950Y-101142473D01*
X190292842Y-101142494D01*
X190287116Y-101139146D01*
X190278396Y-101131057D01*
X190278083Y-101130725D01*
X190270370Y-101121448D01*
X190267030Y-101115317D01*
X190267026Y-101115216D01*
X190270178Y-101109891D01*
X190278810Y-101098466D01*
X190291691Y-101082389D01*
X190307589Y-101063105D01*
X190325272Y-101042063D01*
X190343507Y-101020709D01*
X190361062Y-101000488D01*
X190376706Y-100982849D01*
X190389206Y-100969238D01*
X190397331Y-100961100D01*
X190399704Y-100959431D01*
X190407404Y-100961602D01*
G37*
G36*
X190639798Y-100504599D02*
G01*
X190657469Y-100505876D01*
X190671761Y-100508792D01*
X190686066Y-100513992D01*
X190700279Y-100520458D01*
X190737987Y-100543510D01*
X190768740Y-100572871D01*
X190792166Y-100607205D01*
X190807894Y-100645177D01*
X190815551Y-100685452D01*
X190814766Y-100726694D01*
X190805166Y-100767569D01*
X190786382Y-100806741D01*
X190781904Y-100813645D01*
X190753178Y-100847756D01*
X190718836Y-100874171D01*
X190689088Y-100888700D01*
X190663206Y-100895901D01*
X190633049Y-100900320D01*
X190602771Y-100901627D01*
X190576525Y-100899491D01*
X190570188Y-100898163D01*
X190542024Y-100887980D01*
X190512519Y-100872194D01*
X190485778Y-100853262D01*
X190469358Y-100837760D01*
X190443679Y-100801834D01*
X190426918Y-100762890D01*
X190418799Y-100722257D01*
X190419047Y-100681268D01*
X190427387Y-100641256D01*
X190443542Y-100603551D01*
X190467240Y-100569487D01*
X190498203Y-100540393D01*
X190535427Y-100517945D01*
X190550589Y-100511435D01*
X190564447Y-100507377D01*
X190580259Y-100505216D01*
X190601278Y-100504397D01*
X190615355Y-100504316D01*
X190639798Y-100504599D01*
G37*
G36*
X188076626Y-100020955D02*
G01*
X188089450Y-100022870D01*
X188108723Y-100025516D01*
X188130796Y-100028398D01*
X188136376Y-100029103D01*
X188310172Y-100054751D01*
X188477042Y-100087365D01*
X188637747Y-100127246D01*
X188793043Y-100174697D01*
X188943692Y-100230021D01*
X189090450Y-100293521D01*
X189234078Y-100365499D01*
X189375334Y-100446258D01*
X189514977Y-100536100D01*
X189650749Y-100633068D01*
X189708246Y-100676128D01*
X189691704Y-100693195D01*
X189681371Y-100703255D01*
X189674043Y-100709291D01*
X189672345Y-100710084D01*
X189667493Y-100707083D01*
X189656195Y-100698993D01*
X189640028Y-100686973D01*
X189620570Y-100672183D01*
X189616136Y-100668774D01*
X189551724Y-100620929D01*
X189488562Y-100577862D01*
X189425082Y-100538777D01*
X189359718Y-100502875D01*
X189290904Y-100469359D01*
X189217073Y-100437430D01*
X189136660Y-100406291D01*
X189048097Y-100375145D01*
X189023723Y-100367006D01*
X188904079Y-100329999D01*
X188785910Y-100298484D01*
X188670152Y-100272611D01*
X188557742Y-100252532D01*
X188449617Y-100238397D01*
X188346713Y-100230355D01*
X188249967Y-100228559D01*
X188180538Y-100231505D01*
X188151066Y-100233741D01*
X188123741Y-100236015D01*
X188100813Y-100238124D01*
X188084529Y-100239867D01*
X188079169Y-100240605D01*
X188060100Y-100243765D01*
X188060100Y-100130997D01*
X188060100Y-100018230D01*
X188076626Y-100020955D01*
G37*
G36*
X190067734Y-101001368D02*
G01*
X190102645Y-101036894D01*
X190141881Y-101079318D01*
X190184114Y-101127085D01*
X190228016Y-101178638D01*
X190272259Y-101232419D01*
X190315517Y-101286875D01*
X190352433Y-101335075D01*
X190457994Y-101483837D01*
X190556091Y-101638964D01*
X190646395Y-101799683D01*
X190728574Y-101965226D01*
X190802299Y-102134820D01*
X190867237Y-102307696D01*
X190923059Y-102483083D01*
X190969434Y-102660209D01*
X191006031Y-102838305D01*
X191011725Y-102871423D01*
X191015508Y-102893734D01*
X191018946Y-102913295D01*
X191021522Y-102927201D01*
X191022336Y-102931173D01*
X191024898Y-102942615D01*
X190725890Y-102942615D01*
X190426883Y-102942615D01*
X190438097Y-102875531D01*
X190445653Y-102828458D01*
X190451868Y-102784981D01*
X190456863Y-102743359D01*
X190460756Y-102701853D01*
X190463667Y-102658723D01*
X190465716Y-102612229D01*
X190467022Y-102560631D01*
X190467704Y-102502191D01*
X190467883Y-102441734D01*
X190467781Y-102385028D01*
X190467439Y-102337054D01*
X190466811Y-102296378D01*
X190465850Y-102261562D01*
X190464509Y-102231172D01*
X190462740Y-102203772D01*
X190460497Y-102177926D01*
X190458649Y-102160263D01*
X190440045Y-102021647D01*
X190415773Y-101890663D01*
X190385562Y-101766326D01*
X190349143Y-101647649D01*
X190306245Y-101533646D01*
X190257275Y-101424717D01*
X190219488Y-101350355D01*
X190181873Y-101283304D01*
X190142722Y-101220882D01*
X190100328Y-101160404D01*
X190052982Y-101099189D01*
X190039548Y-101082697D01*
X189991508Y-101024282D01*
X190015948Y-100999469D01*
X190040389Y-100974655D01*
X190067734Y-101001368D01*
G37*
G36*
X190995430Y-99959942D02*
G01*
X191019025Y-99967137D01*
X191035263Y-99979825D01*
X191045062Y-99998571D01*
X191047737Y-100009829D01*
X191048894Y-100040310D01*
X191043241Y-100077481D01*
X191031038Y-100120721D01*
X191012547Y-100169410D01*
X190988030Y-100222931D01*
X190957749Y-100280662D01*
X190921964Y-100341985D01*
X190880937Y-100406281D01*
X190879200Y-100408893D01*
X190861588Y-100435153D01*
X190845862Y-100458278D01*
X190832890Y-100477018D01*
X190823539Y-100490125D01*
X190818676Y-100496349D01*
X190818234Y-100496689D01*
X190813303Y-100493647D01*
X190803020Y-100485788D01*
X190789671Y-100475013D01*
X190775541Y-100463222D01*
X190762914Y-100452315D01*
X190754076Y-100444192D01*
X190751282Y-100441012D01*
X190752875Y-100435466D01*
X190758175Y-100422462D01*
X190766449Y-100403691D01*
X190776963Y-100380844D01*
X190782428Y-100369266D01*
X190805972Y-100317477D01*
X190823537Y-100273498D01*
X190835176Y-100236953D01*
X190840945Y-100207469D01*
X190840898Y-100184668D01*
X190835092Y-100168175D01*
X190823580Y-100157615D01*
X190813950Y-100153969D01*
X190793021Y-100153196D01*
X190765438Y-100159449D01*
X190731611Y-100172438D01*
X190691949Y-100191872D01*
X190646863Y-100217460D01*
X190596762Y-100248912D01*
X190542055Y-100285936D01*
X190483152Y-100328242D01*
X190420463Y-100375539D01*
X190354397Y-100427537D01*
X190285363Y-100483944D01*
X190213772Y-100544470D01*
X190140034Y-100608824D01*
X190064556Y-100676715D01*
X190020493Y-100717274D01*
X190008118Y-100728847D01*
X189988794Y-100747033D01*
X189962942Y-100771437D01*
X189930980Y-100801659D01*
X189893326Y-100837303D01*
X189850398Y-100877970D01*
X189802617Y-100923262D01*
X189750399Y-100972783D01*
X189694164Y-101026135D01*
X189634331Y-101082918D01*
X189571318Y-101142737D01*
X189505544Y-101205193D01*
X189437427Y-101269889D01*
X189367386Y-101336426D01*
X189295840Y-101404407D01*
X189223208Y-101473434D01*
X189149907Y-101543110D01*
X189076357Y-101613037D01*
X189002977Y-101682817D01*
X188930184Y-101752053D01*
X188858398Y-101820346D01*
X188788037Y-101887300D01*
X188719521Y-101952515D01*
X188653266Y-102015595D01*
X188589694Y-102076142D01*
X188529220Y-102133758D01*
X188472266Y-102188046D01*
X188456390Y-102203183D01*
X188403745Y-102253365D01*
X188353117Y-102301586D01*
X188304999Y-102347382D01*
X188259883Y-102390285D01*
X188218259Y-102429829D01*
X188180620Y-102465548D01*
X188147457Y-102496976D01*
X188119261Y-102523646D01*
X188096525Y-102545092D01*
X188079739Y-102560848D01*
X188069397Y-102570448D01*
X188066031Y-102573423D01*
X188064387Y-102571902D01*
X188063055Y-102564646D01*
X188062012Y-102550968D01*
X188061236Y-102530177D01*
X188060704Y-102501585D01*
X188060396Y-102464503D01*
X188060287Y-102418242D01*
X188060297Y-102394997D01*
X188060494Y-102212905D01*
X188290155Y-102024757D01*
X188400333Y-101934339D01*
X188517989Y-101837485D01*
X188642890Y-101734390D01*
X188774800Y-101625249D01*
X188913486Y-101510254D01*
X189058713Y-101389601D01*
X189210248Y-101263483D01*
X189367856Y-101132096D01*
X189531303Y-100995632D01*
X189565495Y-100967059D01*
X189654432Y-100892753D01*
X189736042Y-100824620D01*
X189810783Y-100762286D01*
X189879108Y-100705376D01*
X189941473Y-100653515D01*
X189998334Y-100606330D01*
X190050147Y-100563444D01*
X190097367Y-100524483D01*
X190140449Y-100489073D01*
X190179849Y-100456839D01*
X190216023Y-100427406D01*
X190249425Y-100400399D01*
X190280511Y-100375444D01*
X190309738Y-100352166D01*
X190337560Y-100330190D01*
X190364432Y-100309141D01*
X190378898Y-100297882D01*
X190461985Y-100234250D01*
X190538296Y-100177719D01*
X190608150Y-100128105D01*
X190671864Y-100085222D01*
X190729757Y-100048885D01*
X190782147Y-100018908D01*
X190829354Y-99995106D01*
X190871695Y-99977294D01*
X190909489Y-99965287D01*
X190943055Y-99958898D01*
X190963561Y-99957670D01*
X190995430Y-99959942D01*
G37*
%TO.C,C22*%
X151176400Y-110877236D02*
X151176400Y-110661564D01*
X151896400Y-110877236D02*
X151896400Y-110661564D01*
%TO.C,C12*%
X170385200Y-102346833D02*
X170385200Y-102639367D01*
X169365200Y-102346833D02*
X169365200Y-102639367D01*
%TO.C,C3*%
X104656836Y-112424800D02*
X104441164Y-112424800D01*
X104656836Y-111704800D02*
X104441164Y-111704800D01*
%TO.C,R2*%
X115787520Y-108976900D02*
X116262036Y-108976900D01*
X115787520Y-110021900D02*
X116262036Y-110021900D01*
%TO.C,R3*%
X116262036Y-112434900D02*
X115787520Y-112434900D01*
X116262036Y-111389900D02*
X115787520Y-111389900D01*
%TO.C,R7*%
X156897041Y-108990400D02*
X156589759Y-108990400D01*
X156897041Y-108230400D02*
X156589759Y-108230400D01*
%TO.C,C4*%
X104656836Y-111408800D02*
X104441164Y-111408800D01*
X104656836Y-110688800D02*
X104441164Y-110688800D01*
%TO.C,C10*%
X141141564Y-105436022D02*
X141357236Y-105436022D01*
X141141564Y-106156022D02*
X141357236Y-106156022D01*
%TO.C,C18*%
X183542400Y-109988133D02*
X183542400Y-110280667D01*
X182522400Y-109988133D02*
X182522400Y-110280667D01*
%TO.C,C13*%
X158616867Y-106910600D02*
X158324333Y-106910600D01*
X158616867Y-105890600D02*
X158324333Y-105890600D01*
%TO.C,U7*%
X153803978Y-112513578D02*
X156803978Y-112513578D01*
X155303978Y-109293578D02*
X156803978Y-109293578D01*
%TO.C,C9*%
X128479436Y-106786000D02*
X128263764Y-106786000D01*
X128479436Y-106066000D02*
X128263764Y-106066000D01*
%TO.C,R4*%
X132919441Y-103732600D02*
X132612159Y-103732600D01*
X132919441Y-102972600D02*
X132612159Y-102972600D01*
%TO.C,C1*%
X108083236Y-114431400D02*
X107867564Y-114431400D01*
X108083236Y-113711400D02*
X107867564Y-113711400D01*
D11*
%TO.C,FL2*%
X136450022Y-104864622D02*
X134065022Y-104864622D01*
X136450022Y-106644622D02*
X134420022Y-106644622D01*
D10*
%TO.C,U3*%
X130160022Y-107365022D02*
X133160022Y-107365022D01*
X131660022Y-104145022D02*
X133160022Y-104145022D01*
%TD*%
M02*
