M48
; DRILL file {KiCad 7.0.8} date Sat Feb 10 17:45:30 2024
; FORMAT={-:-/ absolute / metric / decimal}
; #@! TF.CreationDate,2024-02-10T17:45:30+01:00
; #@! TF.GenerationSoftware,Kicad,Pcbnew,7.0.8
; #@! TF.FileFunction,Plated,1,4,PTH
FMAT,2
METRIC
; #@! TA.AperFunction,Plated,PTH,ComponentDrill
T1C0.200
; #@! TA.AperFunction,Plated,PTH,ViaDrill
T2C0.300
; #@! TA.AperFunction,Plated,PTH,ViaDrill
T3C0.400
; #@! TA.AperFunction,Plated,PTH,ComponentDrill
T4C0.500
; #@! TA.AperFunction,Plated,PTH,ComponentDrill
T5C1.000
; #@! TA.AperFunction,Plated,PTH,ComponentDrill
T6C3.200
%
G90
G05
T1
X107.226Y-110.681
X107.726Y-109.781
X107.726Y-111.581
X108.226Y-110.681
X131.16Y-105.755
X131.66Y-104.855
X131.66Y-106.655
X132.16Y-105.755
X154.804Y-110.904
X155.304Y-110.004
X155.304Y-111.804
X155.804Y-110.904
T2
X102.641Y-107.34
X112.446Y-109.042
X113.817Y-108.483
X113.944Y-112.547
X114.706Y-106.959
X115.087Y-113.563
X115.216Y-105.204
X115.468Y-92.1
X116.007Y-101.021
X116.484Y-105.054
X116.738Y-113.817
X116.992Y-91.084
X118.135Y-105.435
X118.389Y-113.182
X118.516Y-110.722
X118.643Y-108.229
X119.024Y-91.973
X119.659Y-109.245
X119.786Y-106.07
X119.913Y-111.785
X120.929Y-107.848
X121.183Y-106.07
X121.183Y-109.753
X121.691Y-111.658
X122.453Y-107.975
X122.58Y-105.816
X122.961Y-109.753
X123.342Y-112.547
X123.977Y-105.308
X123.977Y-108.483
X124.358Y-110.388
X124.485Y-113.563
X125.247Y-105.131
X125.853Y-111.781
X126.009Y-114.021
X126.644Y-105.156
X127.406Y-114.579
X127.787Y-101.625
X129.008Y-107.291
X129.235Y-114.96
X129.438Y-110.007
X129.592Y-108.737
X129.692Y-100.228
X130.581Y-110.896
X131.216Y-114.96
X131.851Y-111.277
X132.61Y-114.944
X132.918Y-112.954
X133.045Y-110.947
X133.934Y-114.681
X134.137Y-111.658
X134.391Y-107.213
X136.804Y-107.34
X137.058Y-111.531
X137.82Y-103.403
X138.074Y-108.483
X138.709Y-110.261
X139.217Y-99.212
X139.344Y-102.895
X140.868Y-102.895
X141.884Y-101.625
X142.392Y-109.245
X143.408Y-101.879
X143.408Y-107.975
X144.551Y-99.72
X144.932Y-107.874
X146.329Y-107.848
X147.599Y-103.327
X147.726Y-108.61
X148.819Y-105.181
X149.123Y-102.819
X150.901Y-102.768
X151.282Y-100.355
X151.841Y-108.255
X152.171Y-106.959
X152.425Y-102.006
X153.467Y-106.045
X153.822Y-114.579
X154.076Y-101.905
X154.965Y-106.07
X155.6Y-101.868
X156.108Y-105.308
X156.21Y-102.921
X156.21Y-103.911
X160.934Y-109.499
X161.327Y-112.808
X161.696Y-108.483
X162.204Y-107.213
X162.281Y-105.893
X162.712Y-113.817
X163.83Y-105.08
X164.236Y-114.071
X164.795Y-105.054
X165.735Y-105.131
X166.014Y-108.229
X166.014Y-113.055
X166.014Y-114.579
X166.522Y-109.499
X166.903Y-105.867
X167.284Y-111.565
X167.792Y-109.753
X168.377Y-105.867
X169.062Y-108.737
X169.062Y-111.565
X170.332Y-105.562
X170.332Y-107.721
X170.332Y-111.277
X170.967Y-114.071
X171.602Y-110.261
X171.856Y-102.768
X172.06Y-108.382
X172.618Y-104.927
X173.507Y-111.735
X173.634Y-102.641
X174.396Y-104.927
X175.158Y-102.006
X176.555Y-106.959
X176.682Y-101.879
X176.682Y-110.16
X176.733Y-108.356
X176.733Y-112.09
X177.571Y-105.816
X177.851Y-111.15
X177.876Y-109.195
X178.46Y-101.752
X178.994Y-112.065
X179.019Y-108.356
X179.019Y-110.16
X179.222Y-105.842
X180.238Y-101.879
X180.746Y-105.562
X187.528Y-109.423
X188.112Y-116.484
T3
X101.651Y-108.102
X101.956Y-99.517
X104.038Y-113.132
X104.318Y-98.882
X105.943Y-114.833
X106.832Y-98.882
X109.068Y-99.085
X110.668Y-100.635
X110.896Y-95.047
X111.049Y-97.561
X111.074Y-92.532
X112.624Y-100.66
X113.233Y-92.1
X115.229Y-101.869
X116.51Y-92.1
X117.805Y-91.926
X120.272Y-91.926
X125.171Y-97.282
X126.873Y-102.464
X126.873Y-103.962
X127.787Y-104.419
X128.905Y-103.881
X128.93Y-101.244
X131.115Y-100.711
X132.856Y-111.952
X132.958Y-114.06
X134.595Y-99.212
X134.772Y-108.483
X135.458Y-111.455
X136.271Y-110.82
X137.973Y-99.238
X138.328Y-93.98
X140.614Y-112.039
X140.868Y-113.563
X140.995Y-99.085
X142.265Y-110.693
X142.773Y-105.816
X144.297Y-109.83
X144.297Y-111.252
X145.999Y-93.3
X145.999Y-99.771
X146.202Y-111.227
X146.253Y-109.779
X147.828Y-101.295
X147.98Y-110.388
X148.082Y-113.665
X148.133Y-112.319
X149.454Y-100.076
X149.657Y-112.37
X149.657Y-113.741
X149.885Y-101.371
X152.425Y-114.597
X152.578Y-112.446
X153.467Y-100.025
X154.711Y-100.519
X155.143Y-102.946
X155.169Y-104.796
X156.108Y-106.451
X157.361Y-114.597
X157.709Y-105.131
X158.725Y-93.828
X160.757Y-106.248
X164.109Y-104.089
X165.024Y-101.727
X165.16Y-104.178
X165.92Y-110.929
X167.193Y-114.713
X168.402Y-104.981
X170.268Y-114.713
X171.298Y-99.365
X172.644Y-100.762
X174.955Y-100.305
X175.59Y-113.843
X176.682Y-114.325
X177.19Y-100.279
X177.571Y-103.81
X177.673Y-113.792
X180.448Y-103.271
X180.448Y-104.271
X183.921Y-113.868
X185.929Y-115.571
X187.122Y-115.494
X188.9Y-99.466
X189.128Y-115.595
X189.586Y-105.562
X189.586Y-106.807
X190.627Y-114.021
X191.465Y-103.124
X191.592Y-105.918
T4
X102.98Y-103.924
X103.683Y-102.227
X103.683Y-105.621
X105.38Y-101.524
X105.38Y-106.324
X107.077Y-102.227
X107.077Y-105.621
X107.78Y-103.924
X181.979Y-103.936
X182.682Y-102.239
X182.682Y-105.633
X184.379Y-101.536
X184.379Y-106.336
X186.076Y-102.239
X186.076Y-105.633
X186.779Y-103.936
T5
X113.818Y-95.046
X113.818Y-97.586
X116.358Y-95.046
X116.358Y-97.586
X118.898Y-95.046
X118.898Y-97.586
X121.438Y-95.046
X121.438Y-97.586
X126.97Y-95.046
X126.97Y-97.586
X129.51Y-95.046
X129.51Y-97.586
X132.05Y-95.046
X132.05Y-97.586
X134.59Y-95.046
X134.59Y-97.586
X137.13Y-95.046
X137.13Y-97.586
X139.67Y-95.046
X139.67Y-97.586
X142.21Y-95.046
X142.21Y-97.586
X144.75Y-95.046
X144.75Y-97.586
X147.29Y-95.046
X147.29Y-97.586
X149.83Y-95.046
X149.83Y-97.586
X152.37Y-95.046
X152.37Y-97.586
X154.91Y-95.046
X154.91Y-97.586
X157.45Y-95.046
X157.45Y-97.586
X159.99Y-95.046
X159.99Y-97.586
X162.53Y-95.046
X162.53Y-97.586
X165.07Y-95.046
X165.07Y-97.586
X167.61Y-95.046
X167.61Y-97.586
X170.15Y-95.046
X170.15Y-97.586
X172.69Y-95.046
X172.69Y-97.586
X175.23Y-95.046
X175.23Y-97.586
T6
X105.38Y-103.924
X184.379Y-103.936
T0
M30
