M48
; DRILL file {KiCad 8.0.4} date 2024-10-15T19:46:03+0200
; FORMAT={-:-/ absolute / inch / decimal}
; #@! TF.CreationDate,2024-10-15T19:46:03+02:00
; #@! TF.GenerationSoftware,Kicad,Pcbnew,8.0.4
; #@! TF.FileFunction,Plated,1,2,PTH
FMAT,2
INCH
; #@! TA.AperFunction,Plated,PTH,ComponentDrill
T1C0.0157
; #@! TA.AperFunction,Plated,PTH,ComponentDrill
T2C0.0236
; #@! TA.AperFunction,Plated,PTH,ComponentDrill
T3C0.0394
; #@! TA.AperFunction,Plated,PTH,ComponentDrill
T4C0.0748
; #@! TA.AperFunction,Plated,PTH,ComponentDrill
T5C0.0866
; #@! TA.AperFunction,Plated,PTH,ComponentDrill
T6C0.1063
; #@! TA.AperFunction,Plated,PTH,ViaDrill
T7C0.1969
%
G90
G05
T1
X4.4508Y-2.5246
X4.4508Y-4.7677
X4.4698Y-2.4787
X4.4698Y-2.5705
X4.4698Y-4.7218
X4.4698Y-4.8137
X4.5157Y-2.4596
X4.5157Y-2.5896
X4.5157Y-4.7028
X4.5157Y-4.8327
X4.5617Y-2.4787
X4.5617Y-2.5705
X4.5617Y-4.7218
X4.5617Y-4.8137
X4.5807Y-2.5246
X4.5807Y-4.7677
X6.2559Y-4.7677
X6.2707Y-2.5246
X6.2749Y-4.7218
X6.2749Y-4.8137
X6.2897Y-2.4787
X6.2897Y-2.5705
X6.3209Y-4.7028
X6.3209Y-4.8327
X6.3356Y-2.4596
X6.3356Y-2.5896
X6.3668Y-4.7218
X6.3668Y-4.8137
X6.3816Y-2.4787
X6.3816Y-2.5705
X6.3858Y-4.7677
X6.4006Y-2.5246
T3
X4.9242Y-2.8671
X4.9242Y-3.3002
X4.9242Y-3.997
X4.9242Y-4.4301
X4.9299Y-3.4341
X4.9299Y-3.8671
X5.8907Y-2.8671
X5.8907Y-3.3002
X5.8907Y-3.997
X5.8907Y-4.4301
X5.8949Y-3.4341
X5.8949Y-3.8671
T4
X5.3179Y-2.9852
X5.3179Y-3.1821
X5.3179Y-4.1152
X5.3179Y-4.312
X5.3236Y-3.5522
X5.3236Y-3.749
X5.497Y-2.9852
X5.497Y-3.1821
X5.497Y-4.1152
X5.497Y-4.312
X5.5012Y-3.5522
X5.5012Y-3.749
T5
X4.5157Y-2.5246
X4.5157Y-4.7677
X6.3209Y-4.7677
X6.3356Y-2.5246
T6
X5.2323Y-2.6978
X5.2323Y-4.5955
X5.5157Y-2.6978
X5.5157Y-4.5955
T7
X4.5148Y-2.9567
X4.5148Y-3.2106
X4.5148Y-3.5236
X4.5148Y-3.7776
X4.5148Y-4.0866
X4.5148Y-4.3406
X6.3327Y-2.9567
X6.3327Y-3.2106
X6.3327Y-3.5236
X6.3327Y-3.7776
X6.3327Y-4.0866
X6.3327Y-4.3406
T2
G00X5.1083Y-2.44
M15
G01X5.1083Y-2.4833
M16
G05
G00X5.1083Y-4.8533
M15
G01X5.1083Y-4.81
M16
G05
G00X5.6398Y-2.44
M15
G01X5.6398Y-2.4833
M16
G05
G00X5.6398Y-4.8533
M15
G01X5.6398Y-4.81
M16
G05
M30
