%TF.GenerationSoftware,KiCad,Pcbnew,8.0.4*%
%TF.CreationDate,2024-10-15T19:46:00+02:00*%
%TF.ProjectId,power_hat,706f7765-725f-4686-9174-2e6b69636164,rev?*%
%TF.SameCoordinates,Original*%
%TF.FileFunction,Copper,L1,Top*%
%TF.FilePolarity,Positive*%
%FSLAX46Y46*%
G04 Gerber Fmt 4.6, Leading zero omitted, Abs format (unit mm)*
G04 Created by KiCad (PCBNEW 8.0.4) date 2024-10-15 19:46:00*
%MOMM*%
%LPD*%
G01*
G04 APERTURE LIST*
G04 Aperture macros list*
%AMRoundRect*
0 Rectangle with rounded corners*
0 $1 Rounding radius*
0 $2 $3 $4 $5 $6 $7 $8 $9 X,Y pos of 4 corners*
0 Add a 4 corners polygon primitive as box body*
4,1,4,$2,$3,$4,$5,$6,$7,$8,$9,$2,$3,0*
0 Add four circle primitives for the rounded corners*
1,1,$1+$1,$2,$3*
1,1,$1+$1,$4,$5*
1,1,$1+$1,$6,$7*
1,1,$1+$1,$8,$9*
0 Add four rect primitives between the rounded corners*
20,1,$1+$1,$2,$3,$4,$5,0*
20,1,$1+$1,$4,$5,$6,$7,0*
20,1,$1+$1,$6,$7,$8,$9,0*
20,1,$1+$1,$8,$9,$2,$3,0*%
G04 Aperture macros list end*
%TA.AperFunction,ComponentPad*%
%ADD10C,1.400000*%
%TD*%
%TA.AperFunction,ComponentPad*%
%ADD11R,3.500000X3.500000*%
%TD*%
%TA.AperFunction,ComponentPad*%
%ADD12C,3.500000*%
%TD*%
%TA.AperFunction,ComponentPad*%
%ADD13C,0.700000*%
%TD*%
%TA.AperFunction,ComponentPad*%
%ADD14C,4.400000*%
%TD*%
%TA.AperFunction,ComponentPad*%
%ADD15R,0.900000X2.000000*%
%TD*%
%TA.AperFunction,ComponentPad*%
%ADD16RoundRect,1.025000X1.025000X1.025000X-1.025000X1.025000X-1.025000X-1.025000X1.025000X-1.025000X0*%
%TD*%
%TA.AperFunction,ComponentPad*%
%ADD17C,4.100000*%
%TD*%
%TA.AperFunction,ComponentPad*%
%ADD18RoundRect,1.025000X-1.025000X-1.025000X1.025000X-1.025000X1.025000X1.025000X-1.025000X1.025000X0*%
%TD*%
%TA.AperFunction,ViaPad*%
%ADD19C,5.500000*%
%TD*%
G04 APERTURE END LIST*
D10*
%TO.P,J3,*%
%TO.N,*%
X125218750Y-98225002D03*
X125218750Y-87225002D03*
D11*
%TO.P,J3,1,Pin_1*%
%TO.N,VCC*%
X135218750Y-90225002D03*
D12*
%TO.P,J3,2,Pin_2*%
%TO.N,GND*%
X135218750Y-95225002D03*
%TD*%
D13*
%TO.P,H2,1,1*%
%TO.N,GND*%
X159275000Y-64125000D03*
X159758274Y-62958274D03*
X159758274Y-65291726D03*
X160925000Y-62475000D03*
D14*
X160925000Y-64125000D03*
D13*
X160925000Y-65775000D03*
X162091726Y-62958274D03*
X162091726Y-65291726D03*
X162575000Y-64125000D03*
%TD*%
D15*
%TO.P,J7,*%
%TO.N,*%
X143250000Y-122725000D03*
X129750000Y-122725000D03*
D16*
%TO.P,J7,1,Pin_1*%
%TO.N,VCC*%
X132900000Y-116725000D03*
D17*
%TO.P,J7,2,Pin_2*%
%TO.N,GND*%
X140100000Y-116725000D03*
%TD*%
D10*
%TO.P,J2,*%
%TO.N,*%
X149625000Y-72825001D03*
X149625000Y-83825001D03*
D11*
%TO.P,J2,1,Pin_1*%
%TO.N,VCC*%
X139625000Y-80825001D03*
D12*
%TO.P,J2,2,Pin_2*%
%TO.N,GND*%
X139625000Y-75825001D03*
%TD*%
D13*
%TO.P,H4,1,1*%
%TO.N,GND*%
X113050000Y-121100000D03*
X113533274Y-119933274D03*
X113533274Y-122266726D03*
X114700000Y-119450000D03*
D14*
X114700000Y-121100000D03*
D13*
X114700000Y-122750000D03*
X115866726Y-119933274D03*
X115866726Y-122266726D03*
X116350000Y-121100000D03*
%TD*%
D10*
%TO.P,J6,*%
%TO.N,*%
X125075000Y-112525001D03*
X125075000Y-101525001D03*
D11*
%TO.P,J6,1,Pin_1*%
%TO.N,VCC*%
X135075000Y-104525001D03*
D12*
%TO.P,J6,2,Pin_2*%
%TO.N,GND*%
X135075000Y-109525001D03*
%TD*%
D10*
%TO.P,J8,*%
%TO.N,*%
X149625000Y-101525001D03*
X149625000Y-112525001D03*
D11*
%TO.P,J8,1,Pin_1*%
%TO.N,VCC*%
X139625000Y-109525001D03*
D12*
%TO.P,J8,2,Pin_2*%
%TO.N,GND*%
X139625000Y-104525001D03*
%TD*%
D10*
%TO.P,J4,*%
%TO.N,*%
X149731250Y-87225001D03*
X149731250Y-98225001D03*
D11*
%TO.P,J4,1,Pin_1*%
%TO.N,VCC*%
X139731250Y-95225001D03*
D12*
%TO.P,J4,2,Pin_2*%
%TO.N,GND*%
X139731250Y-90225001D03*
%TD*%
D13*
%TO.P,H1,1,1*%
%TO.N,GND*%
X113050000Y-64125000D03*
X113533274Y-62958274D03*
X113533274Y-65291726D03*
X114700000Y-62475000D03*
D14*
X114700000Y-64125000D03*
D13*
X114700000Y-65775000D03*
X115866726Y-62958274D03*
X115866726Y-65291726D03*
X116350000Y-64125000D03*
%TD*%
D10*
%TO.P,J1,*%
%TO.N,*%
X125075000Y-83825001D03*
X125075000Y-72825001D03*
D11*
%TO.P,J1,1,Pin_1*%
%TO.N,VCC*%
X135075000Y-75825001D03*
D12*
%TO.P,J1,2,Pin_2*%
%TO.N,GND*%
X135075000Y-80825001D03*
%TD*%
D15*
%TO.P,J5,*%
%TO.N,*%
X129750000Y-62525000D03*
X143250000Y-62525000D03*
D18*
%TO.P,J5,1,Pin_1*%
%TO.N,VCC*%
X140100000Y-68525000D03*
D17*
%TO.P,J5,2,Pin_2*%
%TO.N,GND*%
X132900000Y-68525000D03*
%TD*%
D13*
%TO.P,H3,1,1*%
%TO.N,GND*%
X158900000Y-121100000D03*
X159383274Y-119933274D03*
X159383274Y-122266726D03*
X160550000Y-119450000D03*
D14*
X160550000Y-121100000D03*
D13*
X160550000Y-122750000D03*
X161716726Y-119933274D03*
X161716726Y-122266726D03*
X162200000Y-121100000D03*
%TD*%
D19*
%TO.N,GND*%
X114675000Y-110250000D03*
X160850000Y-110250000D03*
X114675000Y-81550000D03*
X160850000Y-89500001D03*
X160850000Y-103800000D03*
X160850000Y-95950001D03*
X114675000Y-89500001D03*
X114675000Y-95950001D03*
X114675000Y-75100000D03*
X160850000Y-81550000D03*
X160850000Y-75100000D03*
X114675000Y-103800000D03*
%TD*%
%TA.AperFunction,Conductor*%
%TO.N,VCC*%
G36*
X129102180Y-61345185D02*
G01*
X129147935Y-61397989D01*
X129157879Y-61467147D01*
X129156758Y-61473693D01*
X129155705Y-61478989D01*
X129149500Y-61510180D01*
X129149500Y-63539820D01*
X129149500Y-63539822D01*
X129149499Y-63539822D01*
X129158231Y-63583717D01*
X129158232Y-63583721D01*
X129158233Y-63583722D01*
X129191496Y-63633504D01*
X129241278Y-63666767D01*
X129241281Y-63666767D01*
X129241282Y-63666768D01*
X129285177Y-63675500D01*
X129285180Y-63675500D01*
X130214822Y-63675500D01*
X130258717Y-63666768D01*
X130258717Y-63666767D01*
X130258722Y-63666767D01*
X130308504Y-63633504D01*
X130341767Y-63583722D01*
X130350500Y-63539820D01*
X130350500Y-61510180D01*
X130344295Y-61478989D01*
X130343242Y-61473693D01*
X130349469Y-61404101D01*
X130392331Y-61348923D01*
X130458220Y-61325678D01*
X130464859Y-61325500D01*
X142535141Y-61325500D01*
X142602180Y-61345185D01*
X142647935Y-61397989D01*
X142657879Y-61467147D01*
X142656758Y-61473693D01*
X142655705Y-61478989D01*
X142649500Y-61510180D01*
X142649500Y-63539820D01*
X142649500Y-63539822D01*
X142649499Y-63539822D01*
X142658231Y-63583717D01*
X142658232Y-63583721D01*
X142658233Y-63583722D01*
X142691496Y-63633504D01*
X142741278Y-63666767D01*
X142741281Y-63666767D01*
X142741282Y-63666768D01*
X142785177Y-63675500D01*
X142785180Y-63675500D01*
X143714822Y-63675500D01*
X143758717Y-63666768D01*
X143758717Y-63666767D01*
X143758722Y-63666767D01*
X143808504Y-63633504D01*
X143841767Y-63583722D01*
X143850500Y-63539820D01*
X143850500Y-61510180D01*
X143844295Y-61478989D01*
X143843242Y-61473693D01*
X143849469Y-61404101D01*
X143892331Y-61348923D01*
X143958220Y-61325678D01*
X143964859Y-61325500D01*
X162644272Y-61325500D01*
X162658630Y-61327384D01*
X162658713Y-61326590D01*
X162668416Y-61327601D01*
X162668423Y-61327603D01*
X162703964Y-61325713D01*
X162704685Y-61325675D01*
X162711268Y-61325500D01*
X162725032Y-61325500D01*
X162729632Y-61325585D01*
X162738160Y-61325901D01*
X162898622Y-61331859D01*
X162920763Y-61334694D01*
X163088293Y-61371725D01*
X163109585Y-61378493D01*
X163267749Y-61444988D01*
X163287479Y-61455467D01*
X163323505Y-61478989D01*
X163431132Y-61549260D01*
X163448664Y-61563110D01*
X163573161Y-61681167D01*
X163587923Y-61697940D01*
X163689207Y-61836415D01*
X163700720Y-61855565D01*
X163775510Y-62009971D01*
X163783399Y-62030876D01*
X163829267Y-62196202D01*
X163833276Y-62218183D01*
X163849222Y-62394493D01*
X163849726Y-62405662D01*
X163849726Y-62457803D01*
X163849727Y-62457816D01*
X163849727Y-74160038D01*
X163830042Y-74227077D01*
X163777238Y-74272832D01*
X163708080Y-74282776D01*
X163644524Y-74253751D01*
X163606936Y-74195601D01*
X163580198Y-74106289D01*
X163446378Y-73796060D01*
X163446375Y-73796052D01*
X163277440Y-73503448D01*
X163277439Y-73503446D01*
X163075681Y-73232438D01*
X163075676Y-73232432D01*
X162963564Y-73113601D01*
X162843817Y-72986677D01*
X162843810Y-72986671D01*
X162843808Y-72986669D01*
X162584998Y-72769500D01*
X162399038Y-72647193D01*
X162302708Y-72583836D01*
X162090309Y-72477165D01*
X162000783Y-72432203D01*
X162000777Y-72432200D01*
X161683284Y-72316642D01*
X161683281Y-72316641D01*
X161456639Y-72262926D01*
X161354520Y-72238724D01*
X161018935Y-72199500D01*
X160681065Y-72199500D01*
X160345480Y-72238724D01*
X160016718Y-72316641D01*
X160016715Y-72316642D01*
X159699222Y-72432200D01*
X159699216Y-72432203D01*
X159397295Y-72583834D01*
X159115001Y-72769500D01*
X158856191Y-72986669D01*
X158856181Y-72986679D01*
X158624323Y-73232432D01*
X158624318Y-73232438D01*
X158422560Y-73503446D01*
X158253627Y-73796047D01*
X158253621Y-73796060D01*
X158119801Y-74106289D01*
X158022899Y-74429968D01*
X158022896Y-74429982D01*
X157964230Y-74762690D01*
X157964229Y-74762701D01*
X157944584Y-75099996D01*
X157944584Y-75100003D01*
X157964229Y-75437298D01*
X157964230Y-75437309D01*
X158022896Y-75770017D01*
X158022899Y-75770031D01*
X158119801Y-76093710D01*
X158253621Y-76403939D01*
X158253627Y-76403952D01*
X158422560Y-76696553D01*
X158624318Y-76967561D01*
X158624323Y-76967567D01*
X158723552Y-77072743D01*
X158856183Y-77213323D01*
X158856189Y-77213328D01*
X158856191Y-77213330D01*
X159115001Y-77430499D01*
X159115006Y-77430502D01*
X159397292Y-77616164D01*
X159699224Y-77767800D01*
X160016717Y-77883358D01*
X160345480Y-77961276D01*
X160681065Y-78000500D01*
X160681072Y-78000500D01*
X161018928Y-78000500D01*
X161018935Y-78000500D01*
X161354520Y-77961276D01*
X161683283Y-77883358D01*
X162000776Y-77767800D01*
X162302708Y-77616164D01*
X162584994Y-77430502D01*
X162588110Y-77427888D01*
X162782276Y-77264962D01*
X162843817Y-77213323D01*
X163075678Y-76967565D01*
X163277440Y-76696552D01*
X163446375Y-76403948D01*
X163580198Y-76093711D01*
X163606936Y-76004396D01*
X163645021Y-75945820D01*
X163708729Y-75917132D01*
X163777834Y-75927440D01*
X163830395Y-75973474D01*
X163849727Y-76039961D01*
X163849727Y-80610038D01*
X163830042Y-80677077D01*
X163777238Y-80722832D01*
X163708080Y-80732776D01*
X163644524Y-80703751D01*
X163606936Y-80645601D01*
X163580198Y-80556289D01*
X163579139Y-80553833D01*
X163446375Y-80246052D01*
X163277440Y-79953448D01*
X163277439Y-79953446D01*
X163075681Y-79682438D01*
X163075676Y-79682432D01*
X162963564Y-79563601D01*
X162843817Y-79436677D01*
X162843810Y-79436671D01*
X162843808Y-79436669D01*
X162584998Y-79219500D01*
X162390882Y-79091829D01*
X162302708Y-79033836D01*
X162113954Y-78939040D01*
X162000783Y-78882203D01*
X162000777Y-78882200D01*
X161683284Y-78766642D01*
X161683281Y-78766641D01*
X161456639Y-78712926D01*
X161354520Y-78688724D01*
X161018935Y-78649500D01*
X160681065Y-78649500D01*
X160345480Y-78688724D01*
X160016718Y-78766641D01*
X160016715Y-78766642D01*
X159699222Y-78882200D01*
X159699216Y-78882203D01*
X159397295Y-79033834D01*
X159115001Y-79219500D01*
X158856191Y-79436669D01*
X158856181Y-79436679D01*
X158624323Y-79682432D01*
X158624318Y-79682438D01*
X158422560Y-79953446D01*
X158253627Y-80246047D01*
X158253621Y-80246060D01*
X158119801Y-80556289D01*
X158022899Y-80879968D01*
X158022896Y-80879982D01*
X157964230Y-81212690D01*
X157964229Y-81212701D01*
X157944584Y-81549996D01*
X157944584Y-81550003D01*
X157964229Y-81887298D01*
X157964230Y-81887309D01*
X158022896Y-82220017D01*
X158022899Y-82220031D01*
X158119801Y-82543710D01*
X158253621Y-82853939D01*
X158253627Y-82853952D01*
X158422560Y-83146553D01*
X158624318Y-83417561D01*
X158624323Y-83417567D01*
X158680557Y-83477171D01*
X158856183Y-83663323D01*
X158856189Y-83663328D01*
X158856191Y-83663330D01*
X159115001Y-83880499D01*
X159115006Y-83880502D01*
X159397292Y-84066164D01*
X159699224Y-84217800D01*
X160016717Y-84333358D01*
X160345480Y-84411276D01*
X160681065Y-84450500D01*
X160681072Y-84450500D01*
X161018928Y-84450500D01*
X161018935Y-84450500D01*
X161354520Y-84411276D01*
X161683283Y-84333358D01*
X162000776Y-84217800D01*
X162302708Y-84066164D01*
X162584994Y-83880502D01*
X162843817Y-83663323D01*
X163075678Y-83417565D01*
X163277440Y-83146552D01*
X163446375Y-82853948D01*
X163580198Y-82543711D01*
X163606936Y-82454396D01*
X163645021Y-82395820D01*
X163708729Y-82367132D01*
X163777834Y-82377440D01*
X163830395Y-82423474D01*
X163849727Y-82489961D01*
X163849727Y-88560039D01*
X163830042Y-88627078D01*
X163777238Y-88672833D01*
X163708080Y-88682777D01*
X163644524Y-88653752D01*
X163606936Y-88595602D01*
X163580198Y-88506290D01*
X163508053Y-88339040D01*
X163446375Y-88196053D01*
X163313331Y-87965614D01*
X163277439Y-87903447D01*
X163075681Y-87632439D01*
X163075676Y-87632433D01*
X162963564Y-87513602D01*
X162843817Y-87386678D01*
X162843810Y-87386672D01*
X162843808Y-87386670D01*
X162584998Y-87169501D01*
X162399036Y-87047193D01*
X162302708Y-86983837D01*
X162090307Y-86877165D01*
X162000783Y-86832204D01*
X162000777Y-86832201D01*
X161683284Y-86716643D01*
X161683281Y-86716642D01*
X161456639Y-86662927D01*
X161354520Y-86638725D01*
X161018935Y-86599501D01*
X160681065Y-86599501D01*
X160345480Y-86638725D01*
X160016718Y-86716642D01*
X160016715Y-86716643D01*
X159699222Y-86832201D01*
X159699216Y-86832204D01*
X159397295Y-86983835D01*
X159115001Y-87169501D01*
X158856191Y-87386670D01*
X158856181Y-87386680D01*
X158624323Y-87632433D01*
X158624318Y-87632439D01*
X158422560Y-87903447D01*
X158253627Y-88196048D01*
X158253621Y-88196061D01*
X158119801Y-88506290D01*
X158022899Y-88829969D01*
X158022896Y-88829983D01*
X157964230Y-89162691D01*
X157964229Y-89162702D01*
X157944584Y-89499997D01*
X157944584Y-89500004D01*
X157964229Y-89837299D01*
X157964230Y-89837310D01*
X158022896Y-90170018D01*
X158022899Y-90170032D01*
X158119801Y-90493711D01*
X158253621Y-90803940D01*
X158253627Y-90803953D01*
X158422560Y-91096554D01*
X158624318Y-91367562D01*
X158624323Y-91367568D01*
X158723561Y-91472753D01*
X158856183Y-91613324D01*
X158856189Y-91613329D01*
X158856191Y-91613331D01*
X159115001Y-91830500D01*
X159115006Y-91830503D01*
X159397292Y-92016165D01*
X159699224Y-92167801D01*
X160016717Y-92283359D01*
X160345480Y-92361277D01*
X160681065Y-92400501D01*
X160681072Y-92400501D01*
X161018928Y-92400501D01*
X161018935Y-92400501D01*
X161354520Y-92361277D01*
X161683283Y-92283359D01*
X162000776Y-92167801D01*
X162302708Y-92016165D01*
X162584994Y-91830503D01*
X162588111Y-91827888D01*
X162686549Y-91745287D01*
X162843817Y-91613324D01*
X163075678Y-91367566D01*
X163277440Y-91096553D01*
X163446375Y-90803949D01*
X163580198Y-90493712D01*
X163606936Y-90404397D01*
X163645021Y-90345821D01*
X163708729Y-90317133D01*
X163777834Y-90327441D01*
X163830395Y-90373475D01*
X163849727Y-90439962D01*
X163849727Y-95010039D01*
X163830042Y-95077078D01*
X163777238Y-95122833D01*
X163708080Y-95132777D01*
X163644524Y-95103752D01*
X163606936Y-95045602D01*
X163580198Y-94956290D01*
X163579139Y-94953834D01*
X163446375Y-94646053D01*
X163277440Y-94353449D01*
X163277439Y-94353447D01*
X163075681Y-94082439D01*
X163075676Y-94082433D01*
X162963564Y-93963602D01*
X162843817Y-93836678D01*
X162843810Y-93836672D01*
X162843808Y-93836670D01*
X162584998Y-93619501D01*
X162390882Y-93491830D01*
X162302708Y-93433837D01*
X162113954Y-93339041D01*
X162000783Y-93282204D01*
X162000777Y-93282201D01*
X161683284Y-93166643D01*
X161683281Y-93166642D01*
X161456639Y-93112927D01*
X161354520Y-93088725D01*
X161018935Y-93049501D01*
X160681065Y-93049501D01*
X160345480Y-93088725D01*
X160016718Y-93166642D01*
X160016715Y-93166643D01*
X159699222Y-93282201D01*
X159699216Y-93282204D01*
X159397295Y-93433835D01*
X159115001Y-93619501D01*
X158856191Y-93836670D01*
X158856181Y-93836680D01*
X158624323Y-94082433D01*
X158624318Y-94082439D01*
X158422560Y-94353447D01*
X158253627Y-94646048D01*
X158253621Y-94646061D01*
X158119801Y-94956290D01*
X158022899Y-95279969D01*
X158022896Y-95279983D01*
X157964230Y-95612691D01*
X157964229Y-95612702D01*
X157944584Y-95949997D01*
X157944584Y-95950004D01*
X157964229Y-96287299D01*
X157964230Y-96287310D01*
X158022896Y-96620018D01*
X158022899Y-96620032D01*
X158119801Y-96943711D01*
X158253621Y-97253940D01*
X158253627Y-97253953D01*
X158422560Y-97546554D01*
X158624318Y-97817562D01*
X158624323Y-97817568D01*
X158680556Y-97877171D01*
X158856183Y-98063324D01*
X158856189Y-98063329D01*
X158856191Y-98063331D01*
X159115001Y-98280500D01*
X159115006Y-98280503D01*
X159397292Y-98466165D01*
X159699224Y-98617801D01*
X160016717Y-98733359D01*
X160345480Y-98811277D01*
X160681065Y-98850501D01*
X160681072Y-98850501D01*
X161018928Y-98850501D01*
X161018935Y-98850501D01*
X161354520Y-98811277D01*
X161683283Y-98733359D01*
X162000776Y-98617801D01*
X162302708Y-98466165D01*
X162584994Y-98280503D01*
X162651139Y-98225001D01*
X162686549Y-98195287D01*
X162843817Y-98063324D01*
X163075678Y-97817566D01*
X163277440Y-97546553D01*
X163446375Y-97253949D01*
X163580198Y-96943712D01*
X163606936Y-96854397D01*
X163645021Y-96795821D01*
X163708729Y-96767133D01*
X163777834Y-96777441D01*
X163830395Y-96823475D01*
X163849727Y-96889962D01*
X163849727Y-102860038D01*
X163830042Y-102927077D01*
X163777238Y-102972832D01*
X163708080Y-102982776D01*
X163644524Y-102953751D01*
X163606936Y-102895601D01*
X163580198Y-102806289D01*
X163446378Y-102496060D01*
X163446375Y-102496052D01*
X163277440Y-102203448D01*
X163277439Y-102203446D01*
X163075681Y-101932438D01*
X163075676Y-101932432D01*
X162963564Y-101813601D01*
X162843817Y-101686677D01*
X162843810Y-101686671D01*
X162843808Y-101686669D01*
X162584998Y-101469500D01*
X162399038Y-101347193D01*
X162302708Y-101283836D01*
X162090309Y-101177165D01*
X162000783Y-101132203D01*
X162000777Y-101132200D01*
X161683284Y-101016642D01*
X161683281Y-101016641D01*
X161456639Y-100962926D01*
X161354520Y-100938724D01*
X161018935Y-100899500D01*
X160681065Y-100899500D01*
X160345480Y-100938724D01*
X160016718Y-101016641D01*
X160016715Y-101016642D01*
X159699222Y-101132200D01*
X159699216Y-101132203D01*
X159397295Y-101283834D01*
X159115001Y-101469500D01*
X158856191Y-101686669D01*
X158856181Y-101686679D01*
X158624323Y-101932432D01*
X158624318Y-101932438D01*
X158422560Y-102203446D01*
X158253627Y-102496047D01*
X158253621Y-102496060D01*
X158119801Y-102806289D01*
X158022899Y-103129968D01*
X158022896Y-103129982D01*
X157964230Y-103462690D01*
X157964229Y-103462701D01*
X157944584Y-103799996D01*
X157944584Y-103800003D01*
X157964229Y-104137298D01*
X157964230Y-104137309D01*
X158022896Y-104470017D01*
X158022899Y-104470031D01*
X158119801Y-104793710D01*
X158253621Y-105103939D01*
X158253627Y-105103952D01*
X158422560Y-105396553D01*
X158624318Y-105667561D01*
X158624323Y-105667567D01*
X158723552Y-105772743D01*
X158856183Y-105913323D01*
X158856189Y-105913328D01*
X158856191Y-105913330D01*
X159115001Y-106130499D01*
X159115006Y-106130502D01*
X159397292Y-106316164D01*
X159699224Y-106467800D01*
X160016717Y-106583358D01*
X160345480Y-106661276D01*
X160681065Y-106700500D01*
X160681072Y-106700500D01*
X161018928Y-106700500D01*
X161018935Y-106700500D01*
X161354520Y-106661276D01*
X161683283Y-106583358D01*
X162000776Y-106467800D01*
X162302708Y-106316164D01*
X162584994Y-106130502D01*
X162588110Y-106127888D01*
X162782276Y-105964962D01*
X162843817Y-105913323D01*
X163075678Y-105667565D01*
X163277440Y-105396552D01*
X163446375Y-105103948D01*
X163580198Y-104793711D01*
X163606936Y-104704396D01*
X163645021Y-104645820D01*
X163708729Y-104617132D01*
X163777834Y-104627440D01*
X163830395Y-104673474D01*
X163849727Y-104739961D01*
X163849727Y-109310038D01*
X163830042Y-109377077D01*
X163777238Y-109422832D01*
X163708080Y-109432776D01*
X163644524Y-109403751D01*
X163606936Y-109345601D01*
X163580198Y-109256289D01*
X163579139Y-109253833D01*
X163446375Y-108946052D01*
X163277440Y-108653448D01*
X163277439Y-108653446D01*
X163075681Y-108382438D01*
X163075676Y-108382432D01*
X162963564Y-108263601D01*
X162843817Y-108136677D01*
X162843810Y-108136671D01*
X162843808Y-108136669D01*
X162584998Y-107919500D01*
X162390882Y-107791829D01*
X162302708Y-107733836D01*
X162113954Y-107639040D01*
X162000783Y-107582203D01*
X162000777Y-107582200D01*
X161683284Y-107466642D01*
X161683281Y-107466641D01*
X161456639Y-107412926D01*
X161354520Y-107388724D01*
X161018935Y-107349500D01*
X160681065Y-107349500D01*
X160345480Y-107388724D01*
X160016718Y-107466641D01*
X160016715Y-107466642D01*
X159699222Y-107582200D01*
X159699216Y-107582203D01*
X159397295Y-107733834D01*
X159115001Y-107919500D01*
X158856191Y-108136669D01*
X158856181Y-108136679D01*
X158624323Y-108382432D01*
X158624318Y-108382438D01*
X158422560Y-108653446D01*
X158253627Y-108946047D01*
X158253621Y-108946060D01*
X158119801Y-109256289D01*
X158022899Y-109579968D01*
X158022896Y-109579982D01*
X157964230Y-109912690D01*
X157964229Y-109912701D01*
X157944584Y-110249996D01*
X157944584Y-110250003D01*
X157964229Y-110587298D01*
X157964230Y-110587309D01*
X158022896Y-110920017D01*
X158022899Y-110920031D01*
X158119801Y-111243710D01*
X158253621Y-111553939D01*
X158253627Y-111553952D01*
X158422560Y-111846553D01*
X158624318Y-112117561D01*
X158624323Y-112117567D01*
X158680557Y-112177171D01*
X158856183Y-112363323D01*
X158856189Y-112363328D01*
X158856191Y-112363330D01*
X159115001Y-112580499D01*
X159115006Y-112580502D01*
X159397292Y-112766164D01*
X159699224Y-112917800D01*
X160016717Y-113033358D01*
X160345480Y-113111276D01*
X160681065Y-113150500D01*
X160681072Y-113150500D01*
X161018928Y-113150500D01*
X161018935Y-113150500D01*
X161354520Y-113111276D01*
X161683283Y-113033358D01*
X162000776Y-112917800D01*
X162302708Y-112766164D01*
X162584994Y-112580502D01*
X162843817Y-112363323D01*
X163075678Y-112117565D01*
X163277440Y-111846552D01*
X163446375Y-111553948D01*
X163580198Y-111243711D01*
X163606936Y-111154396D01*
X163645021Y-111095820D01*
X163708729Y-111067132D01*
X163777834Y-111077440D01*
X163830395Y-111123474D01*
X163849727Y-111189961D01*
X163849727Y-122924979D01*
X163849255Y-122935787D01*
X163834572Y-123103606D01*
X163830819Y-123124892D01*
X163787947Y-123284888D01*
X163780553Y-123305200D01*
X163710553Y-123455310D01*
X163699746Y-123474029D01*
X163604744Y-123609701D01*
X163590849Y-123626260D01*
X163473719Y-123743383D01*
X163457160Y-123757276D01*
X163321481Y-123852273D01*
X163302762Y-123863080D01*
X163152645Y-123933074D01*
X163132332Y-123940466D01*
X162972344Y-123983327D01*
X162951058Y-123987080D01*
X162779838Y-124002052D01*
X162769029Y-124002523D01*
X162717683Y-124002520D01*
X162717633Y-124002524D01*
X143927556Y-124002524D01*
X143860517Y-123982839D01*
X143814762Y-123930035D01*
X143804818Y-123860877D01*
X143824453Y-123809634D01*
X143841767Y-123783722D01*
X143841768Y-123783717D01*
X143850500Y-123739822D01*
X143850500Y-121710177D01*
X143841768Y-121666282D01*
X143841767Y-121666281D01*
X143841767Y-121666278D01*
X143808504Y-121616496D01*
X143808503Y-121616495D01*
X143758724Y-121583234D01*
X143758717Y-121583231D01*
X143714822Y-121574500D01*
X143714820Y-121574500D01*
X142785180Y-121574500D01*
X142785178Y-121574500D01*
X142741282Y-121583231D01*
X142741275Y-121583234D01*
X142691496Y-121616495D01*
X142691495Y-121616496D01*
X142658234Y-121666275D01*
X142658231Y-121666282D01*
X142649500Y-121710177D01*
X142649500Y-121710180D01*
X142649500Y-123739820D01*
X142649500Y-123739822D01*
X142649499Y-123739822D01*
X142658231Y-123783717D01*
X142658232Y-123783720D01*
X142675547Y-123809634D01*
X142696424Y-123876312D01*
X142677939Y-123943692D01*
X142625959Y-123990382D01*
X142572444Y-124002524D01*
X130427556Y-124002524D01*
X130360517Y-123982839D01*
X130314762Y-123930035D01*
X130304818Y-123860877D01*
X130324453Y-123809634D01*
X130341767Y-123783722D01*
X130341768Y-123783717D01*
X130350500Y-123739822D01*
X130350500Y-121710177D01*
X130341768Y-121666282D01*
X130341767Y-121666281D01*
X130341767Y-121666278D01*
X130308504Y-121616496D01*
X130308503Y-121616495D01*
X130258724Y-121583234D01*
X130258717Y-121583231D01*
X130214822Y-121574500D01*
X130214820Y-121574500D01*
X129285180Y-121574500D01*
X129285178Y-121574500D01*
X129241282Y-121583231D01*
X129241275Y-121583234D01*
X129191496Y-121616495D01*
X129191495Y-121616496D01*
X129158234Y-121666275D01*
X129158231Y-121666282D01*
X129149500Y-121710177D01*
X129149500Y-121710180D01*
X129149500Y-123739820D01*
X129149500Y-123739822D01*
X129149499Y-123739822D01*
X129158231Y-123783717D01*
X129158232Y-123783720D01*
X129175547Y-123809634D01*
X129196424Y-123876312D01*
X129177939Y-123943692D01*
X129125959Y-123990382D01*
X129072444Y-124002524D01*
X112455413Y-124002524D01*
X112444605Y-124002052D01*
X112274183Y-123987141D01*
X112252897Y-123983388D01*
X112092900Y-123940517D01*
X112072589Y-123933124D01*
X111922471Y-123863123D01*
X111903753Y-123852316D01*
X111768067Y-123757308D01*
X111751508Y-123743414D01*
X111634383Y-123626288D01*
X111620490Y-123609730D01*
X111525482Y-123474044D01*
X111514675Y-123455326D01*
X111444674Y-123305208D01*
X111437281Y-123284897D01*
X111398446Y-123139962D01*
X111394408Y-123124894D01*
X111390657Y-123103613D01*
X111390656Y-123103606D01*
X111375972Y-122935753D01*
X111375500Y-122924946D01*
X111375500Y-121100000D01*
X112344457Y-121100000D01*
X112364609Y-121407458D01*
X112364611Y-121407470D01*
X112424718Y-121709651D01*
X112424723Y-121709671D01*
X112523758Y-122001419D01*
X112523762Y-122001429D01*
X112660037Y-122277767D01*
X112660041Y-122277774D01*
X112831212Y-122533951D01*
X112831218Y-122533958D01*
X112831222Y-122533964D01*
X112926142Y-122642200D01*
X113034379Y-122765620D01*
X113142616Y-122860540D01*
X113266036Y-122968778D01*
X113266042Y-122968782D01*
X113266048Y-122968787D01*
X113522225Y-123139958D01*
X113522232Y-123139962D01*
X113798570Y-123276237D01*
X113798580Y-123276241D01*
X114090328Y-123375276D01*
X114090332Y-123375277D01*
X114090341Y-123375280D01*
X114392540Y-123435391D01*
X114700000Y-123455543D01*
X115007460Y-123435391D01*
X115309659Y-123375280D01*
X115309671Y-123375276D01*
X115601419Y-123276241D01*
X115601429Y-123276237D01*
X115877772Y-123139960D01*
X116133964Y-122968778D01*
X116365620Y-122765620D01*
X116568778Y-122533964D01*
X116739960Y-122277772D01*
X116876238Y-122001427D01*
X116975280Y-121709659D01*
X117035391Y-121407460D01*
X117055543Y-121100000D01*
X158194457Y-121100000D01*
X158214609Y-121407458D01*
X158214611Y-121407470D01*
X158274718Y-121709651D01*
X158274723Y-121709671D01*
X158373758Y-122001419D01*
X158373762Y-122001429D01*
X158510037Y-122277767D01*
X158510041Y-122277774D01*
X158681212Y-122533951D01*
X158681218Y-122533958D01*
X158681222Y-122533964D01*
X158776142Y-122642200D01*
X158884379Y-122765620D01*
X158992616Y-122860540D01*
X159116036Y-122968778D01*
X159116042Y-122968782D01*
X159116048Y-122968787D01*
X159372225Y-123139958D01*
X159372232Y-123139962D01*
X159648570Y-123276237D01*
X159648580Y-123276241D01*
X159940328Y-123375276D01*
X159940332Y-123375277D01*
X159940341Y-123375280D01*
X160242540Y-123435391D01*
X160550000Y-123455543D01*
X160857460Y-123435391D01*
X161159659Y-123375280D01*
X161159671Y-123375276D01*
X161451419Y-123276241D01*
X161451429Y-123276237D01*
X161727772Y-123139960D01*
X161983964Y-122968778D01*
X162215620Y-122765620D01*
X162418778Y-122533964D01*
X162589960Y-122277772D01*
X162726238Y-122001427D01*
X162825280Y-121709659D01*
X162885391Y-121407460D01*
X162905543Y-121100000D01*
X162885391Y-120792540D01*
X162825280Y-120490341D01*
X162726238Y-120198573D01*
X162726230Y-120198556D01*
X162589965Y-119922238D01*
X162589956Y-119922223D01*
X162587651Y-119918774D01*
X162418778Y-119666036D01*
X162374267Y-119615281D01*
X162215620Y-119434379D01*
X162092200Y-119326142D01*
X161983964Y-119231222D01*
X161983958Y-119231218D01*
X161983951Y-119231212D01*
X161727774Y-119060041D01*
X161727767Y-119060037D01*
X161451429Y-118923762D01*
X161451419Y-118923758D01*
X161159671Y-118824723D01*
X161159651Y-118824718D01*
X160857470Y-118764611D01*
X160857460Y-118764609D01*
X160550000Y-118744457D01*
X160242540Y-118764609D01*
X160242534Y-118764610D01*
X160242529Y-118764611D01*
X159940348Y-118824718D01*
X159940333Y-118824722D01*
X159648577Y-118923760D01*
X159648556Y-118923769D01*
X159372238Y-119060034D01*
X159372223Y-119060043D01*
X159116034Y-119231223D01*
X158884379Y-119434379D01*
X158681223Y-119666034D01*
X158510043Y-119922223D01*
X158510034Y-119922238D01*
X158373769Y-120198556D01*
X158373760Y-120198577D01*
X158274722Y-120490333D01*
X158274718Y-120490348D01*
X158214611Y-120792529D01*
X158214609Y-120792541D01*
X158194457Y-121100000D01*
X117055543Y-121100000D01*
X117035391Y-120792540D01*
X116975280Y-120490341D01*
X116876238Y-120198573D01*
X116876230Y-120198556D01*
X116739965Y-119922238D01*
X116739956Y-119922223D01*
X116737651Y-119918774D01*
X116568778Y-119666036D01*
X116524267Y-119615281D01*
X116365620Y-119434379D01*
X116242200Y-119326142D01*
X116133964Y-119231222D01*
X116133958Y-119231218D01*
X116133951Y-119231212D01*
X115877774Y-119060041D01*
X115877767Y-119060037D01*
X115601429Y-118923762D01*
X115601419Y-118923758D01*
X115309671Y-118824723D01*
X115309651Y-118824718D01*
X115007470Y-118764611D01*
X115007460Y-118764609D01*
X114700000Y-118744457D01*
X114392540Y-118764609D01*
X114392534Y-118764610D01*
X114392529Y-118764611D01*
X114090348Y-118824718D01*
X114090333Y-118824722D01*
X113798577Y-118923760D01*
X113798556Y-118923769D01*
X113522238Y-119060034D01*
X113522223Y-119060043D01*
X113266034Y-119231223D01*
X113034379Y-119434379D01*
X112831223Y-119666034D01*
X112660043Y-119922223D01*
X112660034Y-119922238D01*
X112523769Y-120198556D01*
X112523760Y-120198577D01*
X112424722Y-120490333D01*
X112424718Y-120490348D01*
X112364611Y-120792529D01*
X112364609Y-120792541D01*
X112344457Y-121100000D01*
X111375500Y-121100000D01*
X111375500Y-116725000D01*
X137894778Y-116725000D01*
X137913644Y-117012837D01*
X137913646Y-117012849D01*
X137969917Y-117295745D01*
X137969921Y-117295760D01*
X138062642Y-117568905D01*
X138190219Y-117827606D01*
X138190223Y-117827613D01*
X138350478Y-118067452D01*
X138540672Y-118284327D01*
X138757546Y-118474520D01*
X138997389Y-118634778D01*
X139256098Y-118762359D01*
X139529247Y-118855081D01*
X139812161Y-118911356D01*
X140100000Y-118930222D01*
X140387839Y-118911356D01*
X140670753Y-118855081D01*
X140943902Y-118762359D01*
X141202611Y-118634778D01*
X141442454Y-118474520D01*
X141659327Y-118284327D01*
X141849520Y-118067454D01*
X142009778Y-117827611D01*
X142137359Y-117568902D01*
X142230081Y-117295753D01*
X142286356Y-117012839D01*
X142305222Y-116725000D01*
X142286356Y-116437161D01*
X142230081Y-116154247D01*
X142137359Y-115881098D01*
X142009778Y-115622389D01*
X141849520Y-115382546D01*
X141659327Y-115165672D01*
X141442452Y-114975478D01*
X141202613Y-114815223D01*
X141202606Y-114815219D01*
X140943905Y-114687642D01*
X140670760Y-114594921D01*
X140670754Y-114594919D01*
X140670753Y-114594919D01*
X140670751Y-114594918D01*
X140670745Y-114594917D01*
X140387849Y-114538646D01*
X140387839Y-114538644D01*
X140100000Y-114519778D01*
X139812161Y-114538644D01*
X139812155Y-114538645D01*
X139812150Y-114538646D01*
X139529254Y-114594917D01*
X139529239Y-114594921D01*
X139256094Y-114687642D01*
X138997393Y-114815219D01*
X138997386Y-114815223D01*
X138757547Y-114975478D01*
X138540672Y-115165672D01*
X138350478Y-115382547D01*
X138190223Y-115622386D01*
X138190219Y-115622393D01*
X138062642Y-115881094D01*
X137969921Y-116154239D01*
X137969917Y-116154254D01*
X137913646Y-116437150D01*
X137913644Y-116437162D01*
X137894778Y-116725000D01*
X111375500Y-116725000D01*
X111375500Y-110249996D01*
X111769584Y-110249996D01*
X111769584Y-110250003D01*
X111789229Y-110587298D01*
X111789230Y-110587309D01*
X111847896Y-110920017D01*
X111847899Y-110920031D01*
X111944801Y-111243710D01*
X112078621Y-111553939D01*
X112078627Y-111553952D01*
X112247560Y-111846553D01*
X112449318Y-112117561D01*
X112449323Y-112117567D01*
X112505557Y-112177171D01*
X112681183Y-112363323D01*
X112681189Y-112363328D01*
X112681191Y-112363330D01*
X112940001Y-112580499D01*
X112940006Y-112580502D01*
X113222292Y-112766164D01*
X113524224Y-112917800D01*
X113841717Y-113033358D01*
X114170480Y-113111276D01*
X114506065Y-113150500D01*
X114506072Y-113150500D01*
X114843928Y-113150500D01*
X114843935Y-113150500D01*
X115179520Y-113111276D01*
X115508283Y-113033358D01*
X115825776Y-112917800D01*
X116127708Y-112766164D01*
X116409994Y-112580502D01*
X116476137Y-112525001D01*
X124219815Y-112525001D01*
X124238503Y-112702806D01*
X124238504Y-112702808D01*
X124293747Y-112872830D01*
X124293750Y-112872836D01*
X124383141Y-113027666D01*
X124424812Y-113073947D01*
X124502764Y-113160522D01*
X124502767Y-113160524D01*
X124502770Y-113160527D01*
X124647407Y-113265613D01*
X124810733Y-113338330D01*
X124985609Y-113375501D01*
X124985610Y-113375501D01*
X125164389Y-113375501D01*
X125164391Y-113375501D01*
X125339267Y-113338330D01*
X125502593Y-113265613D01*
X125647230Y-113160527D01*
X125656259Y-113150500D01*
X125691577Y-113111275D01*
X125766859Y-113027666D01*
X125856250Y-112872836D01*
X125911497Y-112702804D01*
X125930185Y-112525001D01*
X148769815Y-112525001D01*
X148788503Y-112702806D01*
X148788504Y-112702808D01*
X148843747Y-112872830D01*
X148843750Y-112872836D01*
X148933141Y-113027666D01*
X148974812Y-113073947D01*
X149052764Y-113160522D01*
X149052767Y-113160524D01*
X149052770Y-113160527D01*
X149197407Y-113265613D01*
X149360733Y-113338330D01*
X149535609Y-113375501D01*
X149535610Y-113375501D01*
X149714389Y-113375501D01*
X149714391Y-113375501D01*
X149889267Y-113338330D01*
X150052593Y-113265613D01*
X150197230Y-113160527D01*
X150206259Y-113150500D01*
X150241577Y-113111275D01*
X150316859Y-113027666D01*
X150406250Y-112872836D01*
X150461497Y-112702804D01*
X150480185Y-112525001D01*
X150461497Y-112347198D01*
X150406250Y-112177166D01*
X150316859Y-112022336D01*
X150270003Y-111970297D01*
X150197235Y-111889479D01*
X150197232Y-111889477D01*
X150197231Y-111889476D01*
X150197230Y-111889475D01*
X150052593Y-111784389D01*
X149889267Y-111711672D01*
X149889265Y-111711671D01*
X149761594Y-111684534D01*
X149714391Y-111674501D01*
X149535609Y-111674501D01*
X149504954Y-111681016D01*
X149360733Y-111711671D01*
X149360728Y-111711673D01*
X149197408Y-111784388D01*
X149052768Y-111889476D01*
X148933140Y-112022337D01*
X148843750Y-112177165D01*
X148843747Y-112177171D01*
X148788504Y-112347193D01*
X148788503Y-112347195D01*
X148769815Y-112525001D01*
X125930185Y-112525001D01*
X125911497Y-112347198D01*
X125856250Y-112177166D01*
X125766859Y-112022336D01*
X125720003Y-111970297D01*
X125647235Y-111889479D01*
X125647232Y-111889477D01*
X125647231Y-111889476D01*
X125647230Y-111889475D01*
X125502593Y-111784389D01*
X125339267Y-111711672D01*
X125339265Y-111711671D01*
X125211594Y-111684534D01*
X125164391Y-111674501D01*
X124985609Y-111674501D01*
X124954954Y-111681016D01*
X124810733Y-111711671D01*
X124810728Y-111711673D01*
X124647408Y-111784388D01*
X124502768Y-111889476D01*
X124383140Y-112022337D01*
X124293750Y-112177165D01*
X124293747Y-112177171D01*
X124238504Y-112347193D01*
X124238503Y-112347195D01*
X124219815Y-112525001D01*
X116476137Y-112525001D01*
X116668817Y-112363323D01*
X116900678Y-112117565D01*
X117102440Y-111846552D01*
X117271375Y-111553948D01*
X117405198Y-111243711D01*
X117502100Y-110920035D01*
X117560771Y-110587298D01*
X117580416Y-110250000D01*
X117560771Y-109912702D01*
X117502100Y-109579965D01*
X117485644Y-109524999D01*
X133169645Y-109524999D01*
X133169645Y-109525002D01*
X133189039Y-109796161D01*
X133189040Y-109796168D01*
X133246823Y-110061794D01*
X133246825Y-110061802D01*
X133317021Y-110250003D01*
X133341830Y-110316520D01*
X133472109Y-110555108D01*
X133472110Y-110555109D01*
X133472113Y-110555114D01*
X133635029Y-110772743D01*
X133635033Y-110772747D01*
X133635038Y-110772753D01*
X133827247Y-110964962D01*
X133827253Y-110964967D01*
X133827258Y-110964972D01*
X134044887Y-111127888D01*
X134044891Y-111127890D01*
X134044892Y-111127891D01*
X134283481Y-111258170D01*
X134283480Y-111258170D01*
X134283484Y-111258171D01*
X134283487Y-111258173D01*
X134538199Y-111353176D01*
X134803840Y-111410962D01*
X135055605Y-111428968D01*
X135074999Y-111430356D01*
X135075000Y-111430356D01*
X135075001Y-111430356D01*
X135093100Y-111429061D01*
X135346160Y-111410962D01*
X135611801Y-111353176D01*
X135866513Y-111258173D01*
X135866517Y-111258170D01*
X135866519Y-111258170D01*
X136056563Y-111154398D01*
X136105113Y-111127888D01*
X136322742Y-110964972D01*
X136514971Y-110772743D01*
X136677887Y-110555114D01*
X136808172Y-110316514D01*
X136903175Y-110061802D01*
X136960961Y-109796161D01*
X136980355Y-109525001D01*
X136960961Y-109253841D01*
X136903175Y-108988200D01*
X136808172Y-108733488D01*
X136808170Y-108733485D01*
X136808169Y-108733481D01*
X136677890Y-108494893D01*
X136677889Y-108494892D01*
X136677887Y-108494888D01*
X136514971Y-108277259D01*
X136514966Y-108277254D01*
X136514961Y-108277248D01*
X136322752Y-108085039D01*
X136322746Y-108085034D01*
X136322742Y-108085030D01*
X136105113Y-107922114D01*
X136105108Y-107922111D01*
X136105107Y-107922110D01*
X135866518Y-107791831D01*
X135866519Y-107791831D01*
X135816920Y-107773331D01*
X135611801Y-107696826D01*
X135611794Y-107696824D01*
X135611793Y-107696824D01*
X135346167Y-107639041D01*
X135346160Y-107639040D01*
X135075001Y-107619646D01*
X135074999Y-107619646D01*
X134803839Y-107639040D01*
X134803832Y-107639041D01*
X134538206Y-107696824D01*
X134538202Y-107696825D01*
X134538199Y-107696826D01*
X134438977Y-107733834D01*
X134283480Y-107791831D01*
X134044892Y-107922110D01*
X134044891Y-107922111D01*
X133827259Y-108085029D01*
X133827247Y-108085039D01*
X133635038Y-108277248D01*
X133635028Y-108277260D01*
X133472110Y-108494892D01*
X133472109Y-108494893D01*
X133341830Y-108733481D01*
X133294326Y-108860844D01*
X133246825Y-108988200D01*
X133246824Y-108988203D01*
X133246823Y-108988207D01*
X133189040Y-109253833D01*
X133189039Y-109253840D01*
X133169645Y-109524999D01*
X117485644Y-109524999D01*
X117405198Y-109256289D01*
X117271375Y-108946052D01*
X117102440Y-108653448D01*
X117102439Y-108653446D01*
X116900681Y-108382438D01*
X116900676Y-108382432D01*
X116788564Y-108263601D01*
X116668817Y-108136677D01*
X116668810Y-108136671D01*
X116668808Y-108136669D01*
X116409998Y-107919500D01*
X116215882Y-107791829D01*
X116127708Y-107733836D01*
X115938954Y-107639040D01*
X115825783Y-107582203D01*
X115825777Y-107582200D01*
X115508284Y-107466642D01*
X115508281Y-107466641D01*
X115281639Y-107412926D01*
X115179520Y-107388724D01*
X114843935Y-107349500D01*
X114506065Y-107349500D01*
X114170480Y-107388724D01*
X113841718Y-107466641D01*
X113841715Y-107466642D01*
X113524222Y-107582200D01*
X113524216Y-107582203D01*
X113222295Y-107733834D01*
X112940001Y-107919500D01*
X112681191Y-108136669D01*
X112681181Y-108136679D01*
X112449323Y-108382432D01*
X112449318Y-108382438D01*
X112247560Y-108653446D01*
X112078627Y-108946047D01*
X112078621Y-108946060D01*
X111944801Y-109256289D01*
X111847899Y-109579968D01*
X111847896Y-109579982D01*
X111789230Y-109912690D01*
X111789229Y-109912701D01*
X111769584Y-110249996D01*
X111375500Y-110249996D01*
X111375500Y-103799996D01*
X111769584Y-103799996D01*
X111769584Y-103800003D01*
X111789229Y-104137298D01*
X111789230Y-104137309D01*
X111847896Y-104470017D01*
X111847899Y-104470031D01*
X111944801Y-104793710D01*
X112078621Y-105103939D01*
X112078627Y-105103952D01*
X112247560Y-105396553D01*
X112449318Y-105667561D01*
X112449323Y-105667567D01*
X112548552Y-105772743D01*
X112681183Y-105913323D01*
X112681189Y-105913328D01*
X112681191Y-105913330D01*
X112940001Y-106130499D01*
X112940006Y-106130502D01*
X113222292Y-106316164D01*
X113524224Y-106467800D01*
X113841717Y-106583358D01*
X114170480Y-106661276D01*
X114506065Y-106700500D01*
X114506072Y-106700500D01*
X114843928Y-106700500D01*
X114843935Y-106700500D01*
X115179520Y-106661276D01*
X115508283Y-106583358D01*
X115825776Y-106467800D01*
X116127708Y-106316164D01*
X116409994Y-106130502D01*
X116413110Y-106127888D01*
X116607276Y-105964962D01*
X116668817Y-105913323D01*
X116900678Y-105667565D01*
X117102440Y-105396552D01*
X117271375Y-105103948D01*
X117405198Y-104793711D01*
X117485645Y-104524999D01*
X137719645Y-104524999D01*
X137719645Y-104525002D01*
X137739039Y-104796161D01*
X137739040Y-104796168D01*
X137796823Y-105061794D01*
X137796825Y-105061802D01*
X137873330Y-105266921D01*
X137891830Y-105316520D01*
X138022109Y-105555108D01*
X138022110Y-105555109D01*
X138022113Y-105555114D01*
X138185029Y-105772743D01*
X138185033Y-105772747D01*
X138185038Y-105772753D01*
X138377247Y-105964962D01*
X138377253Y-105964967D01*
X138377258Y-105964972D01*
X138594887Y-106127888D01*
X138594891Y-106127890D01*
X138594892Y-106127891D01*
X138833481Y-106258170D01*
X138833480Y-106258170D01*
X138833484Y-106258171D01*
X138833487Y-106258173D01*
X139088199Y-106353176D01*
X139353840Y-106410962D01*
X139605605Y-106428968D01*
X139624999Y-106430356D01*
X139625000Y-106430356D01*
X139625001Y-106430356D01*
X139643100Y-106429061D01*
X139896160Y-106410962D01*
X140161801Y-106353176D01*
X140416513Y-106258173D01*
X140416517Y-106258170D01*
X140416519Y-106258170D01*
X140535813Y-106193030D01*
X140655113Y-106127888D01*
X140872742Y-105964972D01*
X141064971Y-105772743D01*
X141227887Y-105555114D01*
X141358172Y-105316514D01*
X141453175Y-105061802D01*
X141510961Y-104796161D01*
X141530355Y-104525001D01*
X141510961Y-104253841D01*
X141453175Y-103988200D01*
X141358172Y-103733488D01*
X141358170Y-103733485D01*
X141358169Y-103733481D01*
X141227890Y-103494893D01*
X141227889Y-103494892D01*
X141227887Y-103494888D01*
X141064971Y-103277259D01*
X141064966Y-103277254D01*
X141064961Y-103277248D01*
X140872752Y-103085039D01*
X140872746Y-103085034D01*
X140872742Y-103085030D01*
X140655113Y-102922114D01*
X140655108Y-102922111D01*
X140655107Y-102922110D01*
X140416518Y-102791831D01*
X140416519Y-102791831D01*
X140366920Y-102773331D01*
X140161801Y-102696826D01*
X140161794Y-102696824D01*
X140161793Y-102696824D01*
X139896167Y-102639041D01*
X139896160Y-102639040D01*
X139625001Y-102619646D01*
X139624999Y-102619646D01*
X139353839Y-102639040D01*
X139353832Y-102639041D01*
X139088206Y-102696824D01*
X139088202Y-102696825D01*
X139088199Y-102696826D01*
X138960843Y-102744327D01*
X138833480Y-102791831D01*
X138594892Y-102922110D01*
X138594891Y-102922111D01*
X138377259Y-103085029D01*
X138377247Y-103085039D01*
X138185038Y-103277248D01*
X138185028Y-103277260D01*
X138022110Y-103494892D01*
X138022109Y-103494893D01*
X137891830Y-103733481D01*
X137867020Y-103800000D01*
X137796825Y-103988200D01*
X137796824Y-103988203D01*
X137796823Y-103988207D01*
X137739040Y-104253833D01*
X137739039Y-104253840D01*
X137719645Y-104524999D01*
X117485645Y-104524999D01*
X117502100Y-104470035D01*
X117560771Y-104137298D01*
X117580416Y-103800000D01*
X117560771Y-103462702D01*
X117502100Y-103129965D01*
X117405198Y-102806289D01*
X117271375Y-102496052D01*
X117102440Y-102203448D01*
X117102439Y-102203446D01*
X116900681Y-101932438D01*
X116900676Y-101932432D01*
X116788564Y-101813601D01*
X116668817Y-101686677D01*
X116668810Y-101686671D01*
X116668808Y-101686669D01*
X116476141Y-101525001D01*
X124219815Y-101525001D01*
X124238503Y-101702806D01*
X124238504Y-101702808D01*
X124293747Y-101872830D01*
X124293750Y-101872836D01*
X124383141Y-102027666D01*
X124424812Y-102073947D01*
X124502764Y-102160522D01*
X124502767Y-102160524D01*
X124502770Y-102160527D01*
X124647407Y-102265613D01*
X124810733Y-102338330D01*
X124985609Y-102375501D01*
X124985610Y-102375501D01*
X125164389Y-102375501D01*
X125164391Y-102375501D01*
X125339267Y-102338330D01*
X125502593Y-102265613D01*
X125647230Y-102160527D01*
X125766859Y-102027666D01*
X125856250Y-101872836D01*
X125911497Y-101702804D01*
X125930185Y-101525001D01*
X148769815Y-101525001D01*
X148788503Y-101702806D01*
X148788504Y-101702808D01*
X148843747Y-101872830D01*
X148843750Y-101872836D01*
X148933141Y-102027666D01*
X148974812Y-102073947D01*
X149052764Y-102160522D01*
X149052767Y-102160524D01*
X149052770Y-102160527D01*
X149197407Y-102265613D01*
X149360733Y-102338330D01*
X149535609Y-102375501D01*
X149535610Y-102375501D01*
X149714389Y-102375501D01*
X149714391Y-102375501D01*
X149889267Y-102338330D01*
X150052593Y-102265613D01*
X150197230Y-102160527D01*
X150316859Y-102027666D01*
X150406250Y-101872836D01*
X150461497Y-101702804D01*
X150480185Y-101525001D01*
X150461497Y-101347198D01*
X150406250Y-101177166D01*
X150316859Y-101022336D01*
X150270003Y-100970297D01*
X150197235Y-100889479D01*
X150197232Y-100889477D01*
X150197231Y-100889476D01*
X150197230Y-100889475D01*
X150052593Y-100784389D01*
X149889267Y-100711672D01*
X149889265Y-100711671D01*
X149761594Y-100684534D01*
X149714391Y-100674501D01*
X149535609Y-100674501D01*
X149504954Y-100681016D01*
X149360733Y-100711671D01*
X149360728Y-100711673D01*
X149197408Y-100784388D01*
X149052768Y-100889476D01*
X148933140Y-101022337D01*
X148843750Y-101177165D01*
X148843747Y-101177171D01*
X148788504Y-101347193D01*
X148788503Y-101347195D01*
X148769815Y-101525001D01*
X125930185Y-101525001D01*
X125911497Y-101347198D01*
X125856250Y-101177166D01*
X125766859Y-101022336D01*
X125720003Y-100970297D01*
X125647235Y-100889479D01*
X125647232Y-100889477D01*
X125647231Y-100889476D01*
X125647230Y-100889475D01*
X125502593Y-100784389D01*
X125339267Y-100711672D01*
X125339265Y-100711671D01*
X125211594Y-100684534D01*
X125164391Y-100674501D01*
X124985609Y-100674501D01*
X124954954Y-100681016D01*
X124810733Y-100711671D01*
X124810728Y-100711673D01*
X124647408Y-100784388D01*
X124502768Y-100889476D01*
X124383140Y-101022337D01*
X124293750Y-101177165D01*
X124293747Y-101177171D01*
X124238504Y-101347193D01*
X124238503Y-101347195D01*
X124219815Y-101525001D01*
X116476141Y-101525001D01*
X116409998Y-101469500D01*
X116224038Y-101347193D01*
X116127708Y-101283836D01*
X115915309Y-101177165D01*
X115825783Y-101132203D01*
X115825777Y-101132200D01*
X115508284Y-101016642D01*
X115508281Y-101016641D01*
X115281639Y-100962926D01*
X115179520Y-100938724D01*
X114843935Y-100899500D01*
X114506065Y-100899500D01*
X114170480Y-100938724D01*
X113841718Y-101016641D01*
X113841715Y-101016642D01*
X113524222Y-101132200D01*
X113524216Y-101132203D01*
X113222295Y-101283834D01*
X112940001Y-101469500D01*
X112681191Y-101686669D01*
X112681181Y-101686679D01*
X112449323Y-101932432D01*
X112449318Y-101932438D01*
X112247560Y-102203446D01*
X112078627Y-102496047D01*
X112078621Y-102496060D01*
X111944801Y-102806289D01*
X111847899Y-103129968D01*
X111847896Y-103129982D01*
X111789230Y-103462690D01*
X111789229Y-103462701D01*
X111769584Y-103799996D01*
X111375500Y-103799996D01*
X111375500Y-95949997D01*
X111769584Y-95949997D01*
X111769584Y-95950004D01*
X111789229Y-96287299D01*
X111789230Y-96287310D01*
X111847896Y-96620018D01*
X111847899Y-96620032D01*
X111944801Y-96943711D01*
X112078621Y-97253940D01*
X112078627Y-97253953D01*
X112247560Y-97546554D01*
X112449318Y-97817562D01*
X112449323Y-97817568D01*
X112505556Y-97877171D01*
X112681183Y-98063324D01*
X112681189Y-98063329D01*
X112681191Y-98063331D01*
X112940001Y-98280500D01*
X112940006Y-98280503D01*
X113222292Y-98466165D01*
X113524224Y-98617801D01*
X113841717Y-98733359D01*
X114170480Y-98811277D01*
X114506065Y-98850501D01*
X114506072Y-98850501D01*
X114843928Y-98850501D01*
X114843935Y-98850501D01*
X115179520Y-98811277D01*
X115508283Y-98733359D01*
X115825776Y-98617801D01*
X116127708Y-98466165D01*
X116409994Y-98280503D01*
X116476138Y-98225002D01*
X124363565Y-98225002D01*
X124382253Y-98402807D01*
X124382254Y-98402809D01*
X124437497Y-98572831D01*
X124437500Y-98572836D01*
X124437500Y-98572837D01*
X124526891Y-98727667D01*
X124568562Y-98773948D01*
X124646514Y-98860523D01*
X124646517Y-98860525D01*
X124646520Y-98860528D01*
X124791157Y-98965614D01*
X124954483Y-99038331D01*
X125129359Y-99075502D01*
X125129360Y-99075502D01*
X125308139Y-99075502D01*
X125308141Y-99075502D01*
X125483017Y-99038331D01*
X125646343Y-98965614D01*
X125790980Y-98860528D01*
X125790986Y-98860522D01*
X125835327Y-98811276D01*
X125910609Y-98727667D01*
X126000000Y-98572837D01*
X126055247Y-98402805D01*
X126073935Y-98225002D01*
X126073935Y-98225001D01*
X148876065Y-98225001D01*
X148894753Y-98402806D01*
X148894754Y-98402808D01*
X148949997Y-98572830D01*
X148949998Y-98572831D01*
X148950000Y-98572836D01*
X149039391Y-98727666D01*
X149081062Y-98773947D01*
X149159014Y-98860522D01*
X149159017Y-98860524D01*
X149159020Y-98860527D01*
X149303657Y-98965613D01*
X149466983Y-99038330D01*
X149641859Y-99075501D01*
X149641860Y-99075501D01*
X149820639Y-99075501D01*
X149820641Y-99075501D01*
X149995517Y-99038330D01*
X150158843Y-98965613D01*
X150303480Y-98860527D01*
X150312508Y-98850501D01*
X150347826Y-98811276D01*
X150423109Y-98727666D01*
X150512500Y-98572836D01*
X150567747Y-98402804D01*
X150586435Y-98225001D01*
X150567747Y-98047198D01*
X150512500Y-97877166D01*
X150423109Y-97722336D01*
X150376253Y-97670297D01*
X150303485Y-97589479D01*
X150303482Y-97589477D01*
X150303481Y-97589476D01*
X150303480Y-97589475D01*
X150158843Y-97484389D01*
X149995517Y-97411672D01*
X149995515Y-97411671D01*
X149867844Y-97384534D01*
X149820641Y-97374501D01*
X149641859Y-97374501D01*
X149611204Y-97381016D01*
X149466983Y-97411671D01*
X149466978Y-97411673D01*
X149303658Y-97484388D01*
X149159018Y-97589476D01*
X149039390Y-97722337D01*
X148950000Y-97877165D01*
X148949997Y-97877171D01*
X148894754Y-98047193D01*
X148894753Y-98047195D01*
X148876065Y-98225001D01*
X126073935Y-98225001D01*
X126055247Y-98047199D01*
X126000001Y-97877171D01*
X125999999Y-97877166D01*
X125910609Y-97722337D01*
X125863753Y-97670298D01*
X125790985Y-97589480D01*
X125790982Y-97589478D01*
X125790981Y-97589477D01*
X125790980Y-97589476D01*
X125646343Y-97484390D01*
X125483017Y-97411673D01*
X125483015Y-97411672D01*
X125355344Y-97384535D01*
X125308141Y-97374502D01*
X125129359Y-97374502D01*
X125098704Y-97381017D01*
X124954483Y-97411672D01*
X124954478Y-97411674D01*
X124791158Y-97484389D01*
X124646518Y-97589477D01*
X124526890Y-97722338D01*
X124437500Y-97877166D01*
X124437497Y-97877172D01*
X124382254Y-98047194D01*
X124382253Y-98047196D01*
X124363565Y-98225002D01*
X116476138Y-98225002D01*
X116476139Y-98225001D01*
X116511549Y-98195287D01*
X116668817Y-98063324D01*
X116900678Y-97817566D01*
X117102440Y-97546553D01*
X117271375Y-97253949D01*
X117405198Y-96943712D01*
X117502100Y-96620036D01*
X117560771Y-96287299D01*
X117580416Y-95950001D01*
X117560771Y-95612703D01*
X117502100Y-95279966D01*
X117485644Y-95225000D01*
X133313395Y-95225000D01*
X133313395Y-95225003D01*
X133332789Y-95496162D01*
X133332790Y-95496169D01*
X133390573Y-95761795D01*
X133390575Y-95761803D01*
X133460771Y-95950004D01*
X133485580Y-96016521D01*
X133615859Y-96255109D01*
X133615860Y-96255110D01*
X133615863Y-96255115D01*
X133778779Y-96472744D01*
X133778783Y-96472748D01*
X133778788Y-96472754D01*
X133970997Y-96664963D01*
X133971003Y-96664968D01*
X133971008Y-96664973D01*
X134188637Y-96827889D01*
X134188641Y-96827891D01*
X134188642Y-96827892D01*
X134427231Y-96958171D01*
X134427230Y-96958171D01*
X134427234Y-96958172D01*
X134427237Y-96958174D01*
X134681949Y-97053177D01*
X134947590Y-97110963D01*
X135199355Y-97128969D01*
X135218749Y-97130357D01*
X135218750Y-97130357D01*
X135218751Y-97130357D01*
X135236850Y-97129062D01*
X135489910Y-97110963D01*
X135755551Y-97053177D01*
X136010263Y-96958174D01*
X136010267Y-96958171D01*
X136010269Y-96958171D01*
X136200313Y-96854399D01*
X136248863Y-96827889D01*
X136466492Y-96664973D01*
X136658721Y-96472744D01*
X136821637Y-96255115D01*
X136951922Y-96016515D01*
X137046925Y-95761803D01*
X137104711Y-95496162D01*
X137124105Y-95225002D01*
X137104711Y-94953842D01*
X137046925Y-94688201D01*
X136951922Y-94433489D01*
X136951920Y-94433486D01*
X136951919Y-94433482D01*
X136821640Y-94194894D01*
X136821639Y-94194893D01*
X136821637Y-94194889D01*
X136658721Y-93977260D01*
X136658716Y-93977255D01*
X136658711Y-93977249D01*
X136466502Y-93785040D01*
X136466496Y-93785035D01*
X136466492Y-93785031D01*
X136248863Y-93622115D01*
X136248858Y-93622112D01*
X136248857Y-93622111D01*
X136010268Y-93491832D01*
X136010269Y-93491832D01*
X135960670Y-93473332D01*
X135755551Y-93396827D01*
X135755544Y-93396825D01*
X135755543Y-93396825D01*
X135489917Y-93339042D01*
X135489910Y-93339041D01*
X135218751Y-93319647D01*
X135218749Y-93319647D01*
X134947589Y-93339041D01*
X134947582Y-93339042D01*
X134681956Y-93396825D01*
X134681952Y-93396826D01*
X134681949Y-93396827D01*
X134582727Y-93433835D01*
X134427230Y-93491832D01*
X134188642Y-93622111D01*
X134188641Y-93622112D01*
X133971009Y-93785030D01*
X133970997Y-93785040D01*
X133778788Y-93977249D01*
X133778778Y-93977261D01*
X133615860Y-94194893D01*
X133615859Y-94194894D01*
X133485580Y-94433482D01*
X133438076Y-94560845D01*
X133390575Y-94688201D01*
X133390574Y-94688204D01*
X133390573Y-94688208D01*
X133332790Y-94953834D01*
X133332789Y-94953841D01*
X133313395Y-95225000D01*
X117485644Y-95225000D01*
X117405198Y-94956290D01*
X117271375Y-94646053D01*
X117102440Y-94353449D01*
X117102439Y-94353447D01*
X116900681Y-94082439D01*
X116900676Y-94082433D01*
X116788564Y-93963602D01*
X116668817Y-93836678D01*
X116668810Y-93836672D01*
X116668808Y-93836670D01*
X116409998Y-93619501D01*
X116215882Y-93491830D01*
X116127708Y-93433837D01*
X115938954Y-93339041D01*
X115825783Y-93282204D01*
X115825777Y-93282201D01*
X115508284Y-93166643D01*
X115508281Y-93166642D01*
X115281639Y-93112927D01*
X115179520Y-93088725D01*
X114843935Y-93049501D01*
X114506065Y-93049501D01*
X114170480Y-93088725D01*
X113841718Y-93166642D01*
X113841715Y-93166643D01*
X113524222Y-93282201D01*
X113524216Y-93282204D01*
X113222295Y-93433835D01*
X112940001Y-93619501D01*
X112681191Y-93836670D01*
X112681181Y-93836680D01*
X112449323Y-94082433D01*
X112449318Y-94082439D01*
X112247560Y-94353447D01*
X112078627Y-94646048D01*
X112078621Y-94646061D01*
X111944801Y-94956290D01*
X111847899Y-95279969D01*
X111847896Y-95279983D01*
X111789230Y-95612691D01*
X111789229Y-95612702D01*
X111769584Y-95949997D01*
X111375500Y-95949997D01*
X111375500Y-89499997D01*
X111769584Y-89499997D01*
X111769584Y-89500004D01*
X111789229Y-89837299D01*
X111789230Y-89837310D01*
X111847896Y-90170018D01*
X111847899Y-90170032D01*
X111944801Y-90493711D01*
X112078621Y-90803940D01*
X112078627Y-90803953D01*
X112247560Y-91096554D01*
X112449318Y-91367562D01*
X112449323Y-91367568D01*
X112548561Y-91472753D01*
X112681183Y-91613324D01*
X112681189Y-91613329D01*
X112681191Y-91613331D01*
X112940001Y-91830500D01*
X112940006Y-91830503D01*
X113222292Y-92016165D01*
X113524224Y-92167801D01*
X113841717Y-92283359D01*
X114170480Y-92361277D01*
X114506065Y-92400501D01*
X114506072Y-92400501D01*
X114843928Y-92400501D01*
X114843935Y-92400501D01*
X115179520Y-92361277D01*
X115508283Y-92283359D01*
X115825776Y-92167801D01*
X116127708Y-92016165D01*
X116409994Y-91830503D01*
X116413111Y-91827888D01*
X116511549Y-91745287D01*
X116668817Y-91613324D01*
X116900678Y-91367566D01*
X117102440Y-91096553D01*
X117271375Y-90803949D01*
X117405198Y-90493712D01*
X117485645Y-90224999D01*
X137825895Y-90224999D01*
X137825895Y-90225002D01*
X137845289Y-90496161D01*
X137845290Y-90496168D01*
X137903073Y-90761794D01*
X137903075Y-90761802D01*
X137918797Y-90803953D01*
X137998080Y-91016520D01*
X138128359Y-91255108D01*
X138128360Y-91255109D01*
X138128363Y-91255114D01*
X138291279Y-91472743D01*
X138291283Y-91472747D01*
X138291288Y-91472753D01*
X138483497Y-91664962D01*
X138483503Y-91664967D01*
X138483508Y-91664972D01*
X138701137Y-91827888D01*
X138701141Y-91827890D01*
X138701142Y-91827891D01*
X138939731Y-91958170D01*
X138939730Y-91958170D01*
X138939734Y-91958171D01*
X138939737Y-91958173D01*
X139194449Y-92053176D01*
X139460090Y-92110962D01*
X139711855Y-92128968D01*
X139731249Y-92130356D01*
X139731250Y-92130356D01*
X139731251Y-92130356D01*
X139749350Y-92129061D01*
X140002410Y-92110962D01*
X140268051Y-92053176D01*
X140522763Y-91958173D01*
X140522767Y-91958170D01*
X140522769Y-91958170D01*
X140642063Y-91893030D01*
X140761363Y-91827888D01*
X140978992Y-91664972D01*
X141171221Y-91472743D01*
X141334137Y-91255114D01*
X141464422Y-91016514D01*
X141559425Y-90761802D01*
X141617211Y-90496161D01*
X141636605Y-90225001D01*
X141617211Y-89953841D01*
X141559425Y-89688200D01*
X141464422Y-89433488D01*
X141464420Y-89433485D01*
X141464419Y-89433481D01*
X141334140Y-89194893D01*
X141334139Y-89194892D01*
X141334137Y-89194888D01*
X141171221Y-88977259D01*
X141171216Y-88977254D01*
X141171211Y-88977248D01*
X140979002Y-88785039D01*
X140978996Y-88785034D01*
X140978992Y-88785030D01*
X140761363Y-88622114D01*
X140761358Y-88622111D01*
X140761357Y-88622110D01*
X140522768Y-88491831D01*
X140522769Y-88491831D01*
X140473170Y-88473331D01*
X140268051Y-88396826D01*
X140268044Y-88396824D01*
X140268043Y-88396824D01*
X140002417Y-88339041D01*
X140002410Y-88339040D01*
X139731251Y-88319646D01*
X139731249Y-88319646D01*
X139460089Y-88339040D01*
X139460082Y-88339041D01*
X139194456Y-88396824D01*
X139194452Y-88396825D01*
X139194449Y-88396826D01*
X139067093Y-88444327D01*
X138939730Y-88491831D01*
X138701142Y-88622110D01*
X138701141Y-88622111D01*
X138483509Y-88785029D01*
X138483497Y-88785039D01*
X138291288Y-88977248D01*
X138291278Y-88977260D01*
X138128360Y-89194892D01*
X138128359Y-89194893D01*
X137998080Y-89433481D01*
X137950576Y-89560844D01*
X137903075Y-89688200D01*
X137903074Y-89688203D01*
X137903073Y-89688207D01*
X137845290Y-89953833D01*
X137845289Y-89953840D01*
X137825895Y-90224999D01*
X117485645Y-90224999D01*
X117502100Y-90170036D01*
X117560771Y-89837299D01*
X117580416Y-89500001D01*
X117560771Y-89162703D01*
X117502100Y-88829966D01*
X117405198Y-88506290D01*
X117271375Y-88196053D01*
X117138331Y-87965614D01*
X117102439Y-87903447D01*
X116900681Y-87632439D01*
X116900676Y-87632433D01*
X116788564Y-87513602D01*
X116668817Y-87386678D01*
X116668810Y-87386672D01*
X116668808Y-87386670D01*
X116476141Y-87225002D01*
X124363565Y-87225002D01*
X124382253Y-87402807D01*
X124382254Y-87402809D01*
X124437497Y-87572831D01*
X124437500Y-87572836D01*
X124437500Y-87572837D01*
X124526891Y-87727667D01*
X124568562Y-87773948D01*
X124646514Y-87860523D01*
X124646517Y-87860525D01*
X124646520Y-87860528D01*
X124791157Y-87965614D01*
X124954483Y-88038331D01*
X125129359Y-88075502D01*
X125129360Y-88075502D01*
X125308139Y-88075502D01*
X125308141Y-88075502D01*
X125483017Y-88038331D01*
X125646343Y-87965614D01*
X125790980Y-87860528D01*
X125790986Y-87860522D01*
X125816898Y-87831743D01*
X125910609Y-87727667D01*
X126000000Y-87572837D01*
X126055247Y-87402805D01*
X126073935Y-87225002D01*
X126073935Y-87225001D01*
X148876065Y-87225001D01*
X148894753Y-87402806D01*
X148894754Y-87402808D01*
X148949997Y-87572830D01*
X148949998Y-87572831D01*
X148950000Y-87572836D01*
X149039391Y-87727666D01*
X149081062Y-87773947D01*
X149159014Y-87860522D01*
X149159017Y-87860524D01*
X149159020Y-87860527D01*
X149303657Y-87965613D01*
X149466983Y-88038330D01*
X149641859Y-88075501D01*
X149641860Y-88075501D01*
X149820639Y-88075501D01*
X149820641Y-88075501D01*
X149995517Y-88038330D01*
X150158843Y-87965613D01*
X150303480Y-87860527D01*
X150423109Y-87727666D01*
X150512500Y-87572836D01*
X150567747Y-87402804D01*
X150586435Y-87225001D01*
X150567747Y-87047198D01*
X150512500Y-86877166D01*
X150423109Y-86722336D01*
X150376253Y-86670297D01*
X150303485Y-86589479D01*
X150303482Y-86589477D01*
X150303481Y-86589476D01*
X150303480Y-86589475D01*
X150158843Y-86484389D01*
X149995517Y-86411672D01*
X149995515Y-86411671D01*
X149867844Y-86384534D01*
X149820641Y-86374501D01*
X149641859Y-86374501D01*
X149611204Y-86381016D01*
X149466983Y-86411671D01*
X149466978Y-86411673D01*
X149303658Y-86484388D01*
X149159018Y-86589476D01*
X149039390Y-86722337D01*
X148950000Y-86877165D01*
X148949997Y-86877171D01*
X148894754Y-87047193D01*
X148894753Y-87047195D01*
X148876065Y-87225001D01*
X126073935Y-87225001D01*
X126055247Y-87047199D01*
X126000001Y-86877171D01*
X125999999Y-86877166D01*
X125910609Y-86722337D01*
X125863753Y-86670298D01*
X125790985Y-86589480D01*
X125790982Y-86589478D01*
X125790981Y-86589477D01*
X125790980Y-86589476D01*
X125646343Y-86484390D01*
X125483017Y-86411673D01*
X125483015Y-86411672D01*
X125355344Y-86384535D01*
X125308141Y-86374502D01*
X125129359Y-86374502D01*
X125098704Y-86381017D01*
X124954483Y-86411672D01*
X124954478Y-86411674D01*
X124791158Y-86484389D01*
X124646518Y-86589477D01*
X124526890Y-86722338D01*
X124437500Y-86877166D01*
X124437497Y-86877172D01*
X124382254Y-87047194D01*
X124382253Y-87047196D01*
X124363565Y-87225002D01*
X116476141Y-87225002D01*
X116409998Y-87169501D01*
X116224036Y-87047193D01*
X116127708Y-86983837D01*
X115915307Y-86877165D01*
X115825783Y-86832204D01*
X115825777Y-86832201D01*
X115508284Y-86716643D01*
X115508281Y-86716642D01*
X115281639Y-86662927D01*
X115179520Y-86638725D01*
X114843935Y-86599501D01*
X114506065Y-86599501D01*
X114170480Y-86638725D01*
X113841718Y-86716642D01*
X113841715Y-86716643D01*
X113524222Y-86832201D01*
X113524216Y-86832204D01*
X113222295Y-86983835D01*
X112940001Y-87169501D01*
X112681191Y-87386670D01*
X112681181Y-87386680D01*
X112449323Y-87632433D01*
X112449318Y-87632439D01*
X112247560Y-87903447D01*
X112078627Y-88196048D01*
X112078621Y-88196061D01*
X111944801Y-88506290D01*
X111847899Y-88829969D01*
X111847896Y-88829983D01*
X111789230Y-89162691D01*
X111789229Y-89162702D01*
X111769584Y-89499997D01*
X111375500Y-89499997D01*
X111375500Y-81549996D01*
X111769584Y-81549996D01*
X111769584Y-81550003D01*
X111789229Y-81887298D01*
X111789230Y-81887309D01*
X111847896Y-82220017D01*
X111847899Y-82220031D01*
X111944801Y-82543710D01*
X112078621Y-82853939D01*
X112078627Y-82853952D01*
X112247560Y-83146553D01*
X112449318Y-83417561D01*
X112449323Y-83417567D01*
X112505557Y-83477171D01*
X112681183Y-83663323D01*
X112681189Y-83663328D01*
X112681191Y-83663330D01*
X112940001Y-83880499D01*
X112940006Y-83880502D01*
X113222292Y-84066164D01*
X113524224Y-84217800D01*
X113841717Y-84333358D01*
X114170480Y-84411276D01*
X114506065Y-84450500D01*
X114506072Y-84450500D01*
X114843928Y-84450500D01*
X114843935Y-84450500D01*
X115179520Y-84411276D01*
X115508283Y-84333358D01*
X115825776Y-84217800D01*
X116127708Y-84066164D01*
X116409994Y-83880502D01*
X116476137Y-83825001D01*
X124219815Y-83825001D01*
X124238503Y-84002806D01*
X124238504Y-84002808D01*
X124293747Y-84172830D01*
X124293750Y-84172836D01*
X124383141Y-84327666D01*
X124424812Y-84373947D01*
X124502764Y-84460522D01*
X124502767Y-84460524D01*
X124502770Y-84460527D01*
X124647407Y-84565613D01*
X124810733Y-84638330D01*
X124985609Y-84675501D01*
X124985610Y-84675501D01*
X125164389Y-84675501D01*
X125164391Y-84675501D01*
X125339267Y-84638330D01*
X125502593Y-84565613D01*
X125647230Y-84460527D01*
X125656259Y-84450500D01*
X125691577Y-84411275D01*
X125766859Y-84327666D01*
X125856250Y-84172836D01*
X125911497Y-84002804D01*
X125930185Y-83825001D01*
X148769815Y-83825001D01*
X148788503Y-84002806D01*
X148788504Y-84002808D01*
X148843747Y-84172830D01*
X148843750Y-84172836D01*
X148933141Y-84327666D01*
X148974812Y-84373947D01*
X149052764Y-84460522D01*
X149052767Y-84460524D01*
X149052770Y-84460527D01*
X149197407Y-84565613D01*
X149360733Y-84638330D01*
X149535609Y-84675501D01*
X149535610Y-84675501D01*
X149714389Y-84675501D01*
X149714391Y-84675501D01*
X149889267Y-84638330D01*
X150052593Y-84565613D01*
X150197230Y-84460527D01*
X150206259Y-84450500D01*
X150241577Y-84411275D01*
X150316859Y-84327666D01*
X150406250Y-84172836D01*
X150461497Y-84002804D01*
X150480185Y-83825001D01*
X150461497Y-83647198D01*
X150406250Y-83477166D01*
X150316859Y-83322336D01*
X150270003Y-83270297D01*
X150197235Y-83189479D01*
X150197232Y-83189477D01*
X150197231Y-83189476D01*
X150197230Y-83189475D01*
X150052593Y-83084389D01*
X149889267Y-83011672D01*
X149889265Y-83011671D01*
X149761594Y-82984534D01*
X149714391Y-82974501D01*
X149535609Y-82974501D01*
X149504954Y-82981016D01*
X149360733Y-83011671D01*
X149360728Y-83011673D01*
X149197408Y-83084388D01*
X149052768Y-83189476D01*
X148933140Y-83322337D01*
X148843750Y-83477165D01*
X148843747Y-83477171D01*
X148788504Y-83647193D01*
X148788503Y-83647195D01*
X148769815Y-83825001D01*
X125930185Y-83825001D01*
X125911497Y-83647198D01*
X125856250Y-83477166D01*
X125766859Y-83322336D01*
X125720003Y-83270297D01*
X125647235Y-83189479D01*
X125647232Y-83189477D01*
X125647231Y-83189476D01*
X125647230Y-83189475D01*
X125502593Y-83084389D01*
X125339267Y-83011672D01*
X125339265Y-83011671D01*
X125211594Y-82984534D01*
X125164391Y-82974501D01*
X124985609Y-82974501D01*
X124954954Y-82981016D01*
X124810733Y-83011671D01*
X124810728Y-83011673D01*
X124647408Y-83084388D01*
X124502768Y-83189476D01*
X124383140Y-83322337D01*
X124293750Y-83477165D01*
X124293747Y-83477171D01*
X124238504Y-83647193D01*
X124238503Y-83647195D01*
X124219815Y-83825001D01*
X116476137Y-83825001D01*
X116668817Y-83663323D01*
X116900678Y-83417565D01*
X117102440Y-83146552D01*
X117271375Y-82853948D01*
X117405198Y-82543711D01*
X117502100Y-82220035D01*
X117560771Y-81887298D01*
X117580416Y-81550000D01*
X117560771Y-81212702D01*
X117502100Y-80879965D01*
X117485644Y-80824999D01*
X133169645Y-80824999D01*
X133169645Y-80825002D01*
X133189039Y-81096161D01*
X133189040Y-81096168D01*
X133246823Y-81361794D01*
X133246825Y-81361802D01*
X133317021Y-81550003D01*
X133341830Y-81616520D01*
X133472109Y-81855108D01*
X133472110Y-81855109D01*
X133472113Y-81855114D01*
X133635029Y-82072743D01*
X133635033Y-82072747D01*
X133635038Y-82072753D01*
X133827247Y-82264962D01*
X133827253Y-82264967D01*
X133827258Y-82264972D01*
X134044887Y-82427888D01*
X134044891Y-82427890D01*
X134044892Y-82427891D01*
X134283481Y-82558170D01*
X134283480Y-82558170D01*
X134283484Y-82558171D01*
X134283487Y-82558173D01*
X134538199Y-82653176D01*
X134803840Y-82710962D01*
X135055605Y-82728968D01*
X135074999Y-82730356D01*
X135075000Y-82730356D01*
X135075001Y-82730356D01*
X135093100Y-82729061D01*
X135346160Y-82710962D01*
X135611801Y-82653176D01*
X135866513Y-82558173D01*
X135866517Y-82558170D01*
X135866519Y-82558170D01*
X136056563Y-82454398D01*
X136105113Y-82427888D01*
X136322742Y-82264972D01*
X136514971Y-82072743D01*
X136677887Y-81855114D01*
X136808172Y-81616514D01*
X136903175Y-81361802D01*
X136960961Y-81096161D01*
X136980355Y-80825001D01*
X136960961Y-80553841D01*
X136903175Y-80288200D01*
X136808172Y-80033488D01*
X136808170Y-80033485D01*
X136808169Y-80033481D01*
X136677890Y-79794893D01*
X136677889Y-79794892D01*
X136677887Y-79794888D01*
X136514971Y-79577259D01*
X136514966Y-79577254D01*
X136514961Y-79577248D01*
X136322752Y-79385039D01*
X136322746Y-79385034D01*
X136322742Y-79385030D01*
X136105113Y-79222114D01*
X136105108Y-79222111D01*
X136105107Y-79222110D01*
X135866518Y-79091831D01*
X135866519Y-79091831D01*
X135816920Y-79073331D01*
X135611801Y-78996826D01*
X135611794Y-78996824D01*
X135611793Y-78996824D01*
X135346167Y-78939041D01*
X135346160Y-78939040D01*
X135075001Y-78919646D01*
X135074999Y-78919646D01*
X134803839Y-78939040D01*
X134803832Y-78939041D01*
X134538206Y-78996824D01*
X134538202Y-78996825D01*
X134538199Y-78996826D01*
X134438977Y-79033834D01*
X134283480Y-79091831D01*
X134044892Y-79222110D01*
X134044891Y-79222111D01*
X133827259Y-79385029D01*
X133827247Y-79385039D01*
X133635038Y-79577248D01*
X133635028Y-79577260D01*
X133472110Y-79794892D01*
X133472109Y-79794893D01*
X133341830Y-80033481D01*
X133294326Y-80160844D01*
X133246825Y-80288200D01*
X133246824Y-80288203D01*
X133246823Y-80288207D01*
X133189040Y-80553833D01*
X133189039Y-80553840D01*
X133169645Y-80824999D01*
X117485644Y-80824999D01*
X117405198Y-80556289D01*
X117271375Y-80246052D01*
X117102440Y-79953448D01*
X117102439Y-79953446D01*
X116900681Y-79682438D01*
X116900676Y-79682432D01*
X116788564Y-79563601D01*
X116668817Y-79436677D01*
X116668810Y-79436671D01*
X116668808Y-79436669D01*
X116409998Y-79219500D01*
X116215882Y-79091829D01*
X116127708Y-79033836D01*
X115938954Y-78939040D01*
X115825783Y-78882203D01*
X115825777Y-78882200D01*
X115508284Y-78766642D01*
X115508281Y-78766641D01*
X115281639Y-78712926D01*
X115179520Y-78688724D01*
X114843935Y-78649500D01*
X114506065Y-78649500D01*
X114170480Y-78688724D01*
X113841718Y-78766641D01*
X113841715Y-78766642D01*
X113524222Y-78882200D01*
X113524216Y-78882203D01*
X113222295Y-79033834D01*
X112940001Y-79219500D01*
X112681191Y-79436669D01*
X112681181Y-79436679D01*
X112449323Y-79682432D01*
X112449318Y-79682438D01*
X112247560Y-79953446D01*
X112078627Y-80246047D01*
X112078621Y-80246060D01*
X111944801Y-80556289D01*
X111847899Y-80879968D01*
X111847896Y-80879982D01*
X111789230Y-81212690D01*
X111789229Y-81212701D01*
X111769584Y-81549996D01*
X111375500Y-81549996D01*
X111375500Y-75099996D01*
X111769584Y-75099996D01*
X111769584Y-75100003D01*
X111789229Y-75437298D01*
X111789230Y-75437309D01*
X111847896Y-75770017D01*
X111847899Y-75770031D01*
X111944801Y-76093710D01*
X112078621Y-76403939D01*
X112078627Y-76403952D01*
X112247560Y-76696553D01*
X112449318Y-76967561D01*
X112449323Y-76967567D01*
X112548552Y-77072743D01*
X112681183Y-77213323D01*
X112681189Y-77213328D01*
X112681191Y-77213330D01*
X112940001Y-77430499D01*
X112940006Y-77430502D01*
X113222292Y-77616164D01*
X113524224Y-77767800D01*
X113841717Y-77883358D01*
X114170480Y-77961276D01*
X114506065Y-78000500D01*
X114506072Y-78000500D01*
X114843928Y-78000500D01*
X114843935Y-78000500D01*
X115179520Y-77961276D01*
X115508283Y-77883358D01*
X115825776Y-77767800D01*
X116127708Y-77616164D01*
X116409994Y-77430502D01*
X116413110Y-77427888D01*
X116607276Y-77264962D01*
X116668817Y-77213323D01*
X116900678Y-76967565D01*
X117102440Y-76696552D01*
X117271375Y-76403948D01*
X117405198Y-76093711D01*
X117485645Y-75824999D01*
X137719645Y-75824999D01*
X137719645Y-75825002D01*
X137739039Y-76096161D01*
X137739040Y-76096168D01*
X137796823Y-76361794D01*
X137796825Y-76361802D01*
X137873330Y-76566921D01*
X137891830Y-76616520D01*
X138022109Y-76855108D01*
X138022110Y-76855109D01*
X138022113Y-76855114D01*
X138185029Y-77072743D01*
X138185033Y-77072747D01*
X138185038Y-77072753D01*
X138377247Y-77264962D01*
X138377253Y-77264967D01*
X138377258Y-77264972D01*
X138594887Y-77427888D01*
X138594891Y-77427890D01*
X138594892Y-77427891D01*
X138833481Y-77558170D01*
X138833480Y-77558170D01*
X138833484Y-77558171D01*
X138833487Y-77558173D01*
X139088199Y-77653176D01*
X139353840Y-77710962D01*
X139605605Y-77728968D01*
X139624999Y-77730356D01*
X139625000Y-77730356D01*
X139625001Y-77730356D01*
X139643100Y-77729061D01*
X139896160Y-77710962D01*
X140161801Y-77653176D01*
X140416513Y-77558173D01*
X140416517Y-77558170D01*
X140416519Y-77558170D01*
X140535813Y-77493030D01*
X140655113Y-77427888D01*
X140872742Y-77264972D01*
X141064971Y-77072743D01*
X141227887Y-76855114D01*
X141358172Y-76616514D01*
X141453175Y-76361802D01*
X141510961Y-76096161D01*
X141530355Y-75825001D01*
X141510961Y-75553841D01*
X141453175Y-75288200D01*
X141358172Y-75033488D01*
X141358170Y-75033485D01*
X141358169Y-75033481D01*
X141227890Y-74794893D01*
X141227889Y-74794892D01*
X141227887Y-74794888D01*
X141064971Y-74577259D01*
X141064966Y-74577254D01*
X141064961Y-74577248D01*
X140872752Y-74385039D01*
X140872746Y-74385034D01*
X140872742Y-74385030D01*
X140655113Y-74222114D01*
X140655108Y-74222111D01*
X140655107Y-74222110D01*
X140416518Y-74091831D01*
X140416519Y-74091831D01*
X140366920Y-74073331D01*
X140161801Y-73996826D01*
X140161794Y-73996824D01*
X140161793Y-73996824D01*
X139896167Y-73939041D01*
X139896160Y-73939040D01*
X139625001Y-73919646D01*
X139624999Y-73919646D01*
X139353839Y-73939040D01*
X139353832Y-73939041D01*
X139088206Y-73996824D01*
X139088202Y-73996825D01*
X139088199Y-73996826D01*
X138960843Y-74044327D01*
X138833480Y-74091831D01*
X138594892Y-74222110D01*
X138594891Y-74222111D01*
X138377259Y-74385029D01*
X138377247Y-74385039D01*
X138185038Y-74577248D01*
X138185028Y-74577260D01*
X138022110Y-74794892D01*
X138022109Y-74794893D01*
X137891830Y-75033481D01*
X137867020Y-75100000D01*
X137796825Y-75288200D01*
X137796824Y-75288203D01*
X137796823Y-75288207D01*
X137739040Y-75553833D01*
X137739039Y-75553840D01*
X137719645Y-75824999D01*
X117485645Y-75824999D01*
X117502100Y-75770035D01*
X117560771Y-75437298D01*
X117580416Y-75100000D01*
X117560771Y-74762702D01*
X117502100Y-74429965D01*
X117405198Y-74106289D01*
X117271375Y-73796052D01*
X117102440Y-73503448D01*
X117102439Y-73503446D01*
X116900681Y-73232438D01*
X116900676Y-73232432D01*
X116788564Y-73113601D01*
X116668817Y-72986677D01*
X116668810Y-72986671D01*
X116668808Y-72986669D01*
X116476141Y-72825001D01*
X124219815Y-72825001D01*
X124238503Y-73002806D01*
X124238504Y-73002808D01*
X124293747Y-73172830D01*
X124293750Y-73172836D01*
X124383141Y-73327666D01*
X124424812Y-73373947D01*
X124502764Y-73460522D01*
X124502767Y-73460524D01*
X124502770Y-73460527D01*
X124647407Y-73565613D01*
X124810733Y-73638330D01*
X124985609Y-73675501D01*
X124985610Y-73675501D01*
X125164389Y-73675501D01*
X125164391Y-73675501D01*
X125339267Y-73638330D01*
X125502593Y-73565613D01*
X125647230Y-73460527D01*
X125766859Y-73327666D01*
X125856250Y-73172836D01*
X125911497Y-73002804D01*
X125930185Y-72825001D01*
X148769815Y-72825001D01*
X148788503Y-73002806D01*
X148788504Y-73002808D01*
X148843747Y-73172830D01*
X148843750Y-73172836D01*
X148933141Y-73327666D01*
X148974812Y-73373947D01*
X149052764Y-73460522D01*
X149052767Y-73460524D01*
X149052770Y-73460527D01*
X149197407Y-73565613D01*
X149360733Y-73638330D01*
X149535609Y-73675501D01*
X149535610Y-73675501D01*
X149714389Y-73675501D01*
X149714391Y-73675501D01*
X149889267Y-73638330D01*
X150052593Y-73565613D01*
X150197230Y-73460527D01*
X150316859Y-73327666D01*
X150406250Y-73172836D01*
X150461497Y-73002804D01*
X150480185Y-72825001D01*
X150461497Y-72647198D01*
X150406250Y-72477166D01*
X150316859Y-72322336D01*
X150270003Y-72270297D01*
X150197235Y-72189479D01*
X150197232Y-72189477D01*
X150197231Y-72189476D01*
X150197230Y-72189475D01*
X150052593Y-72084389D01*
X149889267Y-72011672D01*
X149889265Y-72011671D01*
X149761594Y-71984534D01*
X149714391Y-71974501D01*
X149535609Y-71974501D01*
X149504954Y-71981016D01*
X149360733Y-72011671D01*
X149360728Y-72011673D01*
X149197408Y-72084388D01*
X149052768Y-72189476D01*
X148933140Y-72322337D01*
X148843750Y-72477165D01*
X148843747Y-72477171D01*
X148788504Y-72647193D01*
X148788503Y-72647195D01*
X148769815Y-72825001D01*
X125930185Y-72825001D01*
X125911497Y-72647198D01*
X125856250Y-72477166D01*
X125766859Y-72322336D01*
X125720003Y-72270297D01*
X125647235Y-72189479D01*
X125647232Y-72189477D01*
X125647231Y-72189476D01*
X125647230Y-72189475D01*
X125502593Y-72084389D01*
X125339267Y-72011672D01*
X125339265Y-72011671D01*
X125211594Y-71984534D01*
X125164391Y-71974501D01*
X124985609Y-71974501D01*
X124954954Y-71981016D01*
X124810733Y-72011671D01*
X124810728Y-72011673D01*
X124647408Y-72084388D01*
X124502768Y-72189476D01*
X124383140Y-72322337D01*
X124293750Y-72477165D01*
X124293747Y-72477171D01*
X124238504Y-72647193D01*
X124238503Y-72647195D01*
X124219815Y-72825001D01*
X116476141Y-72825001D01*
X116409998Y-72769500D01*
X116224038Y-72647193D01*
X116127708Y-72583836D01*
X115915309Y-72477165D01*
X115825783Y-72432203D01*
X115825777Y-72432200D01*
X115508284Y-72316642D01*
X115508281Y-72316641D01*
X115281639Y-72262926D01*
X115179520Y-72238724D01*
X114843935Y-72199500D01*
X114506065Y-72199500D01*
X114170480Y-72238724D01*
X113841718Y-72316641D01*
X113841715Y-72316642D01*
X113524222Y-72432200D01*
X113524216Y-72432203D01*
X113222295Y-72583834D01*
X112940001Y-72769500D01*
X112681191Y-72986669D01*
X112681181Y-72986679D01*
X112449323Y-73232432D01*
X112449318Y-73232438D01*
X112247560Y-73503446D01*
X112078627Y-73796047D01*
X112078621Y-73796060D01*
X111944801Y-74106289D01*
X111847899Y-74429968D01*
X111847896Y-74429982D01*
X111789230Y-74762690D01*
X111789229Y-74762701D01*
X111769584Y-75099996D01*
X111375500Y-75099996D01*
X111375500Y-68525000D01*
X130694778Y-68525000D01*
X130713644Y-68812837D01*
X130713646Y-68812849D01*
X130769917Y-69095745D01*
X130769921Y-69095760D01*
X130862642Y-69368905D01*
X130990219Y-69627606D01*
X130990223Y-69627613D01*
X131150478Y-69867452D01*
X131340672Y-70084327D01*
X131557546Y-70274520D01*
X131797389Y-70434778D01*
X132056098Y-70562359D01*
X132329247Y-70655081D01*
X132612161Y-70711356D01*
X132900000Y-70730222D01*
X133187839Y-70711356D01*
X133470753Y-70655081D01*
X133743902Y-70562359D01*
X134002611Y-70434778D01*
X134242454Y-70274520D01*
X134459327Y-70084327D01*
X134649520Y-69867454D01*
X134809778Y-69627611D01*
X134937359Y-69368902D01*
X135030081Y-69095753D01*
X135086356Y-68812839D01*
X135105222Y-68525000D01*
X135086356Y-68237161D01*
X135030081Y-67954247D01*
X134937359Y-67681098D01*
X134809778Y-67422389D01*
X134649520Y-67182546D01*
X134459327Y-66965672D01*
X134242452Y-66775478D01*
X134002613Y-66615223D01*
X134002606Y-66615219D01*
X133743905Y-66487642D01*
X133470760Y-66394921D01*
X133470754Y-66394919D01*
X133470753Y-66394919D01*
X133470751Y-66394918D01*
X133470745Y-66394917D01*
X133187849Y-66338646D01*
X133187839Y-66338644D01*
X132900000Y-66319778D01*
X132612161Y-66338644D01*
X132612155Y-66338645D01*
X132612150Y-66338646D01*
X132329254Y-66394917D01*
X132329239Y-66394921D01*
X132056094Y-66487642D01*
X131797393Y-66615219D01*
X131797386Y-66615223D01*
X131557547Y-66775478D01*
X131340672Y-66965672D01*
X131150478Y-67182547D01*
X130990223Y-67422386D01*
X130990219Y-67422393D01*
X130862642Y-67681094D01*
X130769921Y-67954239D01*
X130769917Y-67954254D01*
X130713646Y-68237150D01*
X130713644Y-68237162D01*
X130694778Y-68525000D01*
X111375500Y-68525000D01*
X111375500Y-64125000D01*
X112344457Y-64125000D01*
X112364609Y-64432458D01*
X112364611Y-64432470D01*
X112424718Y-64734651D01*
X112424723Y-64734671D01*
X112523758Y-65026419D01*
X112523762Y-65026429D01*
X112660037Y-65302767D01*
X112660041Y-65302774D01*
X112831212Y-65558951D01*
X112831218Y-65558958D01*
X112831222Y-65558964D01*
X112926142Y-65667200D01*
X113034379Y-65790620D01*
X113142616Y-65885540D01*
X113266036Y-65993778D01*
X113266042Y-65993782D01*
X113266048Y-65993787D01*
X113522225Y-66164958D01*
X113522232Y-66164962D01*
X113798570Y-66301237D01*
X113798580Y-66301241D01*
X114090328Y-66400276D01*
X114090332Y-66400277D01*
X114090341Y-66400280D01*
X114392540Y-66460391D01*
X114700000Y-66480543D01*
X115007460Y-66460391D01*
X115309659Y-66400280D01*
X115491233Y-66338644D01*
X115601419Y-66301241D01*
X115601429Y-66301237D01*
X115877772Y-66164960D01*
X116133964Y-65993778D01*
X116365620Y-65790620D01*
X116568778Y-65558964D01*
X116739960Y-65302772D01*
X116876238Y-65026427D01*
X116975280Y-64734659D01*
X117035391Y-64432460D01*
X117055543Y-64125000D01*
X158569457Y-64125000D01*
X158589609Y-64432458D01*
X158589611Y-64432470D01*
X158649718Y-64734651D01*
X158649723Y-64734671D01*
X158748758Y-65026419D01*
X158748762Y-65026429D01*
X158885037Y-65302767D01*
X158885041Y-65302774D01*
X159056212Y-65558951D01*
X159056218Y-65558958D01*
X159056222Y-65558964D01*
X159151142Y-65667200D01*
X159259379Y-65790620D01*
X159367616Y-65885540D01*
X159491036Y-65993778D01*
X159491042Y-65993782D01*
X159491048Y-65993787D01*
X159747225Y-66164958D01*
X159747232Y-66164962D01*
X160023570Y-66301237D01*
X160023580Y-66301241D01*
X160315328Y-66400276D01*
X160315332Y-66400277D01*
X160315341Y-66400280D01*
X160617540Y-66460391D01*
X160925000Y-66480543D01*
X161232460Y-66460391D01*
X161534659Y-66400280D01*
X161716233Y-66338644D01*
X161826419Y-66301241D01*
X161826429Y-66301237D01*
X162102772Y-66164960D01*
X162358964Y-65993778D01*
X162590620Y-65790620D01*
X162793778Y-65558964D01*
X162964960Y-65302772D01*
X163101238Y-65026427D01*
X163200280Y-64734659D01*
X163260391Y-64432460D01*
X163280543Y-64125000D01*
X163260391Y-63817540D01*
X163200280Y-63515341D01*
X163101238Y-63223573D01*
X163101230Y-63223556D01*
X162964965Y-62947238D01*
X162964956Y-62947223D01*
X162962651Y-62943774D01*
X162793778Y-62691036D01*
X162749267Y-62640281D01*
X162590620Y-62459379D01*
X162407990Y-62299217D01*
X162358964Y-62256222D01*
X162358958Y-62256218D01*
X162358951Y-62256212D01*
X162102774Y-62085041D01*
X162102767Y-62085037D01*
X161826429Y-61948762D01*
X161826419Y-61948758D01*
X161534671Y-61849723D01*
X161534651Y-61849718D01*
X161232470Y-61789611D01*
X161232460Y-61789609D01*
X160925000Y-61769457D01*
X160617540Y-61789609D01*
X160617534Y-61789610D01*
X160617529Y-61789611D01*
X160315348Y-61849718D01*
X160315333Y-61849722D01*
X160023577Y-61948760D01*
X160023556Y-61948769D01*
X159747238Y-62085034D01*
X159747223Y-62085043D01*
X159491034Y-62256223D01*
X159259379Y-62459379D01*
X159056223Y-62691034D01*
X158885043Y-62947223D01*
X158885034Y-62947238D01*
X158748769Y-63223556D01*
X158748760Y-63223577D01*
X158649722Y-63515333D01*
X158649718Y-63515348D01*
X158589611Y-63817529D01*
X158589609Y-63817541D01*
X158569457Y-64125000D01*
X117055543Y-64125000D01*
X117035391Y-63817540D01*
X116975280Y-63515341D01*
X116876238Y-63223573D01*
X116876230Y-63223556D01*
X116739965Y-62947238D01*
X116739956Y-62947223D01*
X116737651Y-62943774D01*
X116568778Y-62691036D01*
X116524267Y-62640281D01*
X116365620Y-62459379D01*
X116182990Y-62299217D01*
X116133964Y-62256222D01*
X116133958Y-62256218D01*
X116133951Y-62256212D01*
X115877774Y-62085041D01*
X115877767Y-62085037D01*
X115601429Y-61948762D01*
X115601419Y-61948758D01*
X115309671Y-61849723D01*
X115309651Y-61849718D01*
X115007470Y-61789611D01*
X115007460Y-61789609D01*
X114700000Y-61769457D01*
X114392540Y-61789609D01*
X114392534Y-61789610D01*
X114392529Y-61789611D01*
X114090348Y-61849718D01*
X114090333Y-61849722D01*
X113798577Y-61948760D01*
X113798556Y-61948769D01*
X113522238Y-62085034D01*
X113522223Y-62085043D01*
X113266034Y-62256223D01*
X113034379Y-62459379D01*
X112831223Y-62691034D01*
X112660043Y-62947223D01*
X112660034Y-62947238D01*
X112523769Y-63223556D01*
X112523760Y-63223577D01*
X112424722Y-63515333D01*
X112424718Y-63515348D01*
X112364611Y-63817529D01*
X112364609Y-63817541D01*
X112344457Y-64125000D01*
X111375500Y-64125000D01*
X111375500Y-62436039D01*
X111376149Y-62423368D01*
X111388902Y-62299217D01*
X111393961Y-62249967D01*
X111397908Y-62229194D01*
X111443893Y-62065034D01*
X111451312Y-62045236D01*
X111463280Y-62020069D01*
X111524523Y-61891277D01*
X111535199Y-61873028D01*
X111633502Y-61733756D01*
X111647121Y-61717586D01*
X111767671Y-61597033D01*
X111783832Y-61583420D01*
X111923118Y-61485104D01*
X111941358Y-61474435D01*
X112095320Y-61401217D01*
X112115112Y-61393800D01*
X112279275Y-61347811D01*
X112300038Y-61343866D01*
X112472484Y-61326148D01*
X112485157Y-61325500D01*
X129035141Y-61325500D01*
X129102180Y-61345185D01*
G37*
%TD.AperFunction*%
%TD*%
M02*
