%TF.GenerationSoftware,KiCad,Pcbnew,7.0.1*%
%TF.CreationDate,2023-07-20T02:47:48+02:00*%
%TF.ProjectId,imu_9_axis,696d755f-395f-4617-9869-732e6b696361,rev?*%
%TF.SameCoordinates,Original*%
%TF.FileFunction,Drillmap*%
%TF.FilePolarity,Positive*%
%FSLAX45Y45*%
G04 Gerber Fmt 4.5, Leading zero omitted, Abs format (unit mm)*
G04 Created by KiCad (PCBNEW 7.0.1) date 2023-07-20 02:47:48*
%MOMM*%
%LPD*%
G01*
G04 APERTURE LIST*
%ADD10C,0.100000*%
%ADD11C,0.200000*%
%ADD12C,0.030000*%
%ADD13C,0.050000*%
G04 APERTURE END LIST*
D10*
X12256023Y-4402500D02*
X14933977Y-4402500D01*
X14933977Y-7472500D02*
X12256023Y-7472500D01*
X12060000Y-7276477D02*
X12060000Y-4598523D01*
X15130000Y-4598523D02*
X15130000Y-7276477D01*
X12060000Y-7276477D02*
G75*
G03*
X12256023Y-7472500I196020J-3D01*
G01*
X14933977Y-7472500D02*
G75*
G03*
X15130000Y-7276477I3J196020D01*
G01*
X12256023Y-4402500D02*
G75*
G03*
X12060000Y-4598523I-3J-196020D01*
G01*
X15130000Y-4598523D02*
G75*
G03*
X14933977Y-4402500I-196020J3D01*
G01*
D11*
D12*
X12148016Y-6537000D02*
X12178016Y-6567000D01*
X12178016Y-6537000D02*
X12148016Y-6567000D01*
X12148016Y-6737000D02*
X12178016Y-6767000D01*
X12178016Y-6737000D02*
X12148016Y-6767000D01*
X12148016Y-6937000D02*
X12178016Y-6967000D01*
X12178016Y-6937000D02*
X12148016Y-6967000D01*
X12348016Y-6737000D02*
X12378016Y-6767000D01*
X12378016Y-6737000D02*
X12348016Y-6767000D01*
X12348016Y-6937000D02*
X12378016Y-6967000D01*
X12378016Y-6937000D02*
X12348016Y-6967000D01*
X12548016Y-5137000D02*
X12578016Y-5167000D01*
X12578016Y-5137000D02*
X12548016Y-5167000D01*
X12548016Y-5337000D02*
X12578016Y-5367000D01*
X12578016Y-5337000D02*
X12548016Y-5367000D01*
X12548016Y-5537000D02*
X12578016Y-5567000D01*
X12578016Y-5537000D02*
X12548016Y-5567000D01*
X12548016Y-5737000D02*
X12578016Y-5767000D01*
X12578016Y-5737000D02*
X12548016Y-5767000D01*
X12548016Y-6737000D02*
X12578016Y-6767000D01*
X12578016Y-6737000D02*
X12548016Y-6767000D01*
X12692500Y-6045000D02*
X12722500Y-6075000D01*
X12722500Y-6045000D02*
X12692500Y-6075000D01*
X12692500Y-6295000D02*
X12722500Y-6325000D01*
X12722500Y-6295000D02*
X12692500Y-6325000D01*
X12748016Y-4537000D02*
X12778016Y-4567000D01*
X12778016Y-4537000D02*
X12748016Y-4567000D01*
X12748016Y-5137000D02*
X12778016Y-5167000D01*
X12778016Y-5137000D02*
X12748016Y-5167000D01*
X12815000Y-6385000D02*
X12845000Y-6415000D01*
X12845000Y-6385000D02*
X12815000Y-6415000D01*
X12948016Y-4537000D02*
X12978016Y-4567000D01*
X12978016Y-4537000D02*
X12948016Y-4567000D01*
X12950000Y-5722500D02*
X12980000Y-5752500D01*
X12980000Y-5722500D02*
X12950000Y-5752500D01*
X13015000Y-6385000D02*
X13045000Y-6415000D01*
X13045000Y-6385000D02*
X13015000Y-6415000D01*
X13105000Y-5535000D02*
X13135000Y-5565000D01*
X13135000Y-5535000D02*
X13105000Y-5565000D01*
X13187500Y-5725000D02*
X13217500Y-5755000D01*
X13217500Y-5725000D02*
X13187500Y-5755000D01*
X13215000Y-6385000D02*
X13245000Y-6415000D01*
X13245000Y-6385000D02*
X13215000Y-6415000D01*
X13268750Y-5000000D02*
X13298750Y-5030000D01*
X13298750Y-5000000D02*
X13268750Y-5030000D01*
X13268750Y-5157500D02*
X13298750Y-5187500D01*
X13298750Y-5157500D02*
X13268750Y-5187500D01*
X13297500Y-5555000D02*
X13327500Y-5585000D01*
X13327500Y-5555000D02*
X13297500Y-5585000D01*
X13348016Y-6737000D02*
X13378016Y-6767000D01*
X13378016Y-6737000D02*
X13348016Y-6767000D01*
X13445000Y-6267500D02*
X13475000Y-6297500D01*
X13475000Y-6267500D02*
X13445000Y-6297500D01*
X13545000Y-5647500D02*
X13575000Y-5677500D01*
X13575000Y-5647500D02*
X13545000Y-5677500D01*
X13547500Y-5789950D02*
X13577500Y-5819950D01*
X13577500Y-5789950D02*
X13547500Y-5819950D01*
X13548016Y-6737000D02*
X13578016Y-6767000D01*
X13578016Y-6737000D02*
X13548016Y-6767000D01*
X13715000Y-6267500D02*
X13745000Y-6297500D01*
X13745000Y-6267500D02*
X13715000Y-6297500D01*
X13817500Y-5530000D02*
X13847500Y-5560000D01*
X13847500Y-5530000D02*
X13817500Y-5560000D01*
X13875000Y-5075000D02*
X13905000Y-5105000D01*
X13905000Y-5075000D02*
X13875000Y-5105000D01*
X13948016Y-6137000D02*
X13978016Y-6167000D01*
X13978016Y-6137000D02*
X13948016Y-6167000D01*
X13948016Y-7337000D02*
X13978016Y-7367000D01*
X13978016Y-7337000D02*
X13948016Y-7367000D01*
X14100000Y-5155000D02*
X14130000Y-5185000D01*
X14130000Y-5155000D02*
X14100000Y-5185000D01*
X14148016Y-5737000D02*
X14178016Y-5767000D01*
X14178016Y-5737000D02*
X14148016Y-5767000D01*
X14148016Y-7337000D02*
X14178016Y-7367000D01*
X14178016Y-7337000D02*
X14148016Y-7367000D01*
X14287500Y-5355000D02*
X14317500Y-5385000D01*
X14317500Y-5355000D02*
X14287500Y-5385000D01*
X14335000Y-4565000D02*
X14365000Y-4595000D01*
X14365000Y-4565000D02*
X14335000Y-4595000D01*
X14340000Y-4815000D02*
X14370000Y-4845000D01*
X14370000Y-4815000D02*
X14340000Y-4845000D01*
X14342500Y-5042500D02*
X14372500Y-5072500D01*
X14372500Y-5042500D02*
X14342500Y-5072500D01*
X14348016Y-5737000D02*
X14378016Y-5767000D01*
X14378016Y-5737000D02*
X14348016Y-5767000D01*
X14348016Y-7337000D02*
X14378016Y-7367000D01*
X14378016Y-7337000D02*
X14348016Y-7367000D01*
X14442500Y-5282500D02*
X14472500Y-5312500D01*
X14472500Y-5282500D02*
X14442500Y-5312500D01*
X14475000Y-5542500D02*
X14505000Y-5572500D01*
X14505000Y-5542500D02*
X14475000Y-5572500D01*
X14535000Y-4565000D02*
X14565000Y-4595000D01*
X14565000Y-4565000D02*
X14535000Y-4595000D01*
X14548016Y-6737000D02*
X14578016Y-6767000D01*
X14578016Y-6737000D02*
X14548016Y-6767000D01*
X14748016Y-6737000D02*
X14778016Y-6767000D01*
X14778016Y-6737000D02*
X14748016Y-6767000D01*
X14748016Y-6937000D02*
X14778016Y-6967000D01*
X14778016Y-6937000D02*
X14748016Y-6967000D01*
X14775000Y-5877500D02*
X14805000Y-5907500D01*
X14805000Y-5877500D02*
X14775000Y-5907500D01*
X14948016Y-6537000D02*
X14978016Y-6567000D01*
X14978016Y-6537000D02*
X14948016Y-6567000D01*
X14948016Y-6737000D02*
X14978016Y-6767000D01*
X14978016Y-6737000D02*
X14948016Y-6767000D01*
X14948016Y-6937000D02*
X14978016Y-6967000D01*
X14978016Y-6937000D02*
X14948016Y-6967000D01*
D13*
X12815000Y-7032500D02*
G75*
G03*
X12815000Y-7032500I-25000J0D01*
G01*
X12940000Y-7032500D02*
G75*
G03*
X12940000Y-7032500I-25000J0D01*
G01*
X13065000Y-7032500D02*
G75*
G03*
X13065000Y-7032500I-25000J0D01*
G01*
X13190000Y-7032500D02*
G75*
G03*
X13190000Y-7032500I-25000J0D01*
G01*
X13799500Y-7032500D02*
G75*
G03*
X13799500Y-7032500I-25000J0D01*
G01*
X13924500Y-7032500D02*
G75*
G03*
X13924500Y-7032500I-25000J0D01*
G01*
X14049500Y-7032500D02*
G75*
G03*
X14049500Y-7032500I-25000J0D01*
G01*
X14174500Y-7032500D02*
G75*
G03*
X14174500Y-7032500I-25000J0D01*
G01*
X14299500Y-7032500D02*
G75*
G03*
X14299500Y-7032500I-25000J0D01*
G01*
X14424500Y-7032500D02*
G75*
G03*
X14424500Y-7032500I-25000J0D01*
G01*
D10*
X12195000Y-4992500D02*
X12195000Y-5092500D01*
X12145000Y-5042500D02*
X12245000Y-5042500D01*
X12195000Y-5246500D02*
X12195000Y-5346500D01*
X12145000Y-5296500D02*
X12245000Y-5296500D01*
X12195000Y-5500500D02*
X12195000Y-5600500D01*
X12145000Y-5550500D02*
X12245000Y-5550500D01*
X12195000Y-5754500D02*
X12195000Y-5854500D01*
X12145000Y-5804500D02*
X12245000Y-5804500D01*
X12195000Y-6008500D02*
X12195000Y-6108500D01*
X12145000Y-6058500D02*
X12245000Y-6058500D01*
X12195000Y-6262500D02*
X12195000Y-6362500D01*
X12145000Y-6312500D02*
X12245000Y-6312500D01*
X13214000Y-4484500D02*
X13214000Y-4584500D01*
X13164000Y-4534500D02*
X13264000Y-4534500D01*
X13468000Y-4484500D02*
X13468000Y-4584500D01*
X13418000Y-4534500D02*
X13518000Y-4534500D01*
X13722000Y-4484500D02*
X13722000Y-4584500D01*
X13672000Y-4534500D02*
X13772000Y-4534500D01*
X13976000Y-4484500D02*
X13976000Y-4584500D01*
X13926000Y-4534500D02*
X14026000Y-4534500D01*
X14995000Y-4992500D02*
X14995000Y-5092500D01*
X14945000Y-5042500D02*
X15045000Y-5042500D01*
X14995000Y-5246500D02*
X14995000Y-5346500D01*
X14945000Y-5296500D02*
X15045000Y-5296500D01*
X14995000Y-5500500D02*
X14995000Y-5600500D01*
X14945000Y-5550500D02*
X15045000Y-5550500D01*
X14995000Y-5754500D02*
X14995000Y-5854500D01*
X14945000Y-5804500D02*
X15045000Y-5804500D01*
X14995000Y-6008500D02*
X14995000Y-6108500D01*
X14945000Y-6058500D02*
X15045000Y-6058500D01*
X14995000Y-6262500D02*
X14995000Y-6362500D01*
X14945000Y-6312500D02*
X15045000Y-6312500D01*
D11*
X12302619Y-7790024D02*
X12302619Y-7590024D01*
X12302619Y-7590024D02*
X12350238Y-7590024D01*
X12350238Y-7590024D02*
X12378809Y-7599548D01*
X12378809Y-7599548D02*
X12397857Y-7618595D01*
X12397857Y-7618595D02*
X12407381Y-7637643D01*
X12407381Y-7637643D02*
X12416905Y-7675738D01*
X12416905Y-7675738D02*
X12416905Y-7704309D01*
X12416905Y-7704309D02*
X12407381Y-7742405D01*
X12407381Y-7742405D02*
X12397857Y-7761452D01*
X12397857Y-7761452D02*
X12378809Y-7780500D01*
X12378809Y-7780500D02*
X12350238Y-7790024D01*
X12350238Y-7790024D02*
X12302619Y-7790024D01*
X12502619Y-7790024D02*
X12502619Y-7656690D01*
X12502619Y-7694786D02*
X12512143Y-7675738D01*
X12512143Y-7675738D02*
X12521667Y-7666214D01*
X12521667Y-7666214D02*
X12540714Y-7656690D01*
X12540714Y-7656690D02*
X12559762Y-7656690D01*
X12626428Y-7790024D02*
X12626428Y-7656690D01*
X12626428Y-7590024D02*
X12616905Y-7599548D01*
X12616905Y-7599548D02*
X12626428Y-7609071D01*
X12626428Y-7609071D02*
X12635952Y-7599548D01*
X12635952Y-7599548D02*
X12626428Y-7590024D01*
X12626428Y-7590024D02*
X12626428Y-7609071D01*
X12750238Y-7790024D02*
X12731190Y-7780500D01*
X12731190Y-7780500D02*
X12721667Y-7761452D01*
X12721667Y-7761452D02*
X12721667Y-7590024D01*
X12855000Y-7790024D02*
X12835952Y-7780500D01*
X12835952Y-7780500D02*
X12826428Y-7761452D01*
X12826428Y-7761452D02*
X12826428Y-7590024D01*
X13083571Y-7790024D02*
X13083571Y-7590024D01*
X13083571Y-7590024D02*
X13150238Y-7732881D01*
X13150238Y-7732881D02*
X13216905Y-7590024D01*
X13216905Y-7590024D02*
X13216905Y-7790024D01*
X13397857Y-7790024D02*
X13397857Y-7685262D01*
X13397857Y-7685262D02*
X13388333Y-7666214D01*
X13388333Y-7666214D02*
X13369286Y-7656690D01*
X13369286Y-7656690D02*
X13331190Y-7656690D01*
X13331190Y-7656690D02*
X13312143Y-7666214D01*
X13397857Y-7780500D02*
X13378809Y-7790024D01*
X13378809Y-7790024D02*
X13331190Y-7790024D01*
X13331190Y-7790024D02*
X13312143Y-7780500D01*
X13312143Y-7780500D02*
X13302619Y-7761452D01*
X13302619Y-7761452D02*
X13302619Y-7742405D01*
X13302619Y-7742405D02*
X13312143Y-7723357D01*
X13312143Y-7723357D02*
X13331190Y-7713833D01*
X13331190Y-7713833D02*
X13378809Y-7713833D01*
X13378809Y-7713833D02*
X13397857Y-7704309D01*
X13493095Y-7656690D02*
X13493095Y-7856690D01*
X13493095Y-7666214D02*
X13512143Y-7656690D01*
X13512143Y-7656690D02*
X13550238Y-7656690D01*
X13550238Y-7656690D02*
X13569286Y-7666214D01*
X13569286Y-7666214D02*
X13578809Y-7675738D01*
X13578809Y-7675738D02*
X13588333Y-7694786D01*
X13588333Y-7694786D02*
X13588333Y-7751928D01*
X13588333Y-7751928D02*
X13578809Y-7770976D01*
X13578809Y-7770976D02*
X13569286Y-7780500D01*
X13569286Y-7780500D02*
X13550238Y-7790024D01*
X13550238Y-7790024D02*
X13512143Y-7790024D01*
X13512143Y-7790024D02*
X13493095Y-7780500D01*
X13674048Y-7770976D02*
X13683571Y-7780500D01*
X13683571Y-7780500D02*
X13674048Y-7790024D01*
X13674048Y-7790024D02*
X13664524Y-7780500D01*
X13664524Y-7780500D02*
X13674048Y-7770976D01*
X13674048Y-7770976D02*
X13674048Y-7790024D01*
X13674048Y-7666214D02*
X13683571Y-7675738D01*
X13683571Y-7675738D02*
X13674048Y-7685262D01*
X13674048Y-7685262D02*
X13664524Y-7675738D01*
X13664524Y-7675738D02*
X13674048Y-7666214D01*
X13674048Y-7666214D02*
X13674048Y-7685262D01*
D12*
X12025000Y-8102500D02*
X12055000Y-8132500D01*
X12055000Y-8102500D02*
X12025000Y-8132500D01*
D11*
X12340714Y-8010024D02*
X12359762Y-8010024D01*
X12359762Y-8010024D02*
X12378809Y-8019548D01*
X12378809Y-8019548D02*
X12388333Y-8029071D01*
X12388333Y-8029071D02*
X12397857Y-8048119D01*
X12397857Y-8048119D02*
X12407381Y-8086214D01*
X12407381Y-8086214D02*
X12407381Y-8133833D01*
X12407381Y-8133833D02*
X12397857Y-8171928D01*
X12397857Y-8171928D02*
X12388333Y-8190976D01*
X12388333Y-8190976D02*
X12378809Y-8200500D01*
X12378809Y-8200500D02*
X12359762Y-8210024D01*
X12359762Y-8210024D02*
X12340714Y-8210024D01*
X12340714Y-8210024D02*
X12321667Y-8200500D01*
X12321667Y-8200500D02*
X12312143Y-8190976D01*
X12312143Y-8190976D02*
X12302619Y-8171928D01*
X12302619Y-8171928D02*
X12293095Y-8133833D01*
X12293095Y-8133833D02*
X12293095Y-8086214D01*
X12293095Y-8086214D02*
X12302619Y-8048119D01*
X12302619Y-8048119D02*
X12312143Y-8029071D01*
X12312143Y-8029071D02*
X12321667Y-8019548D01*
X12321667Y-8019548D02*
X12340714Y-8010024D01*
X12493095Y-8190976D02*
X12502619Y-8200500D01*
X12502619Y-8200500D02*
X12493095Y-8210024D01*
X12493095Y-8210024D02*
X12483571Y-8200500D01*
X12483571Y-8200500D02*
X12493095Y-8190976D01*
X12493095Y-8190976D02*
X12493095Y-8210024D01*
X12569286Y-8010024D02*
X12693095Y-8010024D01*
X12693095Y-8010024D02*
X12626428Y-8086214D01*
X12626428Y-8086214D02*
X12655000Y-8086214D01*
X12655000Y-8086214D02*
X12674048Y-8095738D01*
X12674048Y-8095738D02*
X12683571Y-8105262D01*
X12683571Y-8105262D02*
X12693095Y-8124309D01*
X12693095Y-8124309D02*
X12693095Y-8171928D01*
X12693095Y-8171928D02*
X12683571Y-8190976D01*
X12683571Y-8190976D02*
X12674048Y-8200500D01*
X12674048Y-8200500D02*
X12655000Y-8210024D01*
X12655000Y-8210024D02*
X12597857Y-8210024D01*
X12597857Y-8210024D02*
X12578809Y-8200500D01*
X12578809Y-8200500D02*
X12569286Y-8190976D01*
X12816905Y-8010024D02*
X12835952Y-8010024D01*
X12835952Y-8010024D02*
X12855000Y-8019548D01*
X12855000Y-8019548D02*
X12864524Y-8029071D01*
X12864524Y-8029071D02*
X12874048Y-8048119D01*
X12874048Y-8048119D02*
X12883571Y-8086214D01*
X12883571Y-8086214D02*
X12883571Y-8133833D01*
X12883571Y-8133833D02*
X12874048Y-8171928D01*
X12874048Y-8171928D02*
X12864524Y-8190976D01*
X12864524Y-8190976D02*
X12855000Y-8200500D01*
X12855000Y-8200500D02*
X12835952Y-8210024D01*
X12835952Y-8210024D02*
X12816905Y-8210024D01*
X12816905Y-8210024D02*
X12797857Y-8200500D01*
X12797857Y-8200500D02*
X12788333Y-8190976D01*
X12788333Y-8190976D02*
X12778809Y-8171928D01*
X12778809Y-8171928D02*
X12769286Y-8133833D01*
X12769286Y-8133833D02*
X12769286Y-8086214D01*
X12769286Y-8086214D02*
X12778809Y-8048119D01*
X12778809Y-8048119D02*
X12788333Y-8029071D01*
X12788333Y-8029071D02*
X12797857Y-8019548D01*
X12797857Y-8019548D02*
X12816905Y-8010024D01*
X13007381Y-8010024D02*
X13026429Y-8010024D01*
X13026429Y-8010024D02*
X13045476Y-8019548D01*
X13045476Y-8019548D02*
X13055000Y-8029071D01*
X13055000Y-8029071D02*
X13064524Y-8048119D01*
X13064524Y-8048119D02*
X13074048Y-8086214D01*
X13074048Y-8086214D02*
X13074048Y-8133833D01*
X13074048Y-8133833D02*
X13064524Y-8171928D01*
X13064524Y-8171928D02*
X13055000Y-8190976D01*
X13055000Y-8190976D02*
X13045476Y-8200500D01*
X13045476Y-8200500D02*
X13026429Y-8210024D01*
X13026429Y-8210024D02*
X13007381Y-8210024D01*
X13007381Y-8210024D02*
X12988333Y-8200500D01*
X12988333Y-8200500D02*
X12978809Y-8190976D01*
X12978809Y-8190976D02*
X12969286Y-8171928D01*
X12969286Y-8171928D02*
X12959762Y-8133833D01*
X12959762Y-8133833D02*
X12959762Y-8086214D01*
X12959762Y-8086214D02*
X12969286Y-8048119D01*
X12969286Y-8048119D02*
X12978809Y-8029071D01*
X12978809Y-8029071D02*
X12988333Y-8019548D01*
X12988333Y-8019548D02*
X13007381Y-8010024D01*
X13159762Y-8210024D02*
X13159762Y-8076690D01*
X13159762Y-8095738D02*
X13169286Y-8086214D01*
X13169286Y-8086214D02*
X13188333Y-8076690D01*
X13188333Y-8076690D02*
X13216905Y-8076690D01*
X13216905Y-8076690D02*
X13235952Y-8086214D01*
X13235952Y-8086214D02*
X13245476Y-8105262D01*
X13245476Y-8105262D02*
X13245476Y-8210024D01*
X13245476Y-8105262D02*
X13255000Y-8086214D01*
X13255000Y-8086214D02*
X13274048Y-8076690D01*
X13274048Y-8076690D02*
X13302619Y-8076690D01*
X13302619Y-8076690D02*
X13321667Y-8086214D01*
X13321667Y-8086214D02*
X13331190Y-8105262D01*
X13331190Y-8105262D02*
X13331190Y-8210024D01*
X13426429Y-8210024D02*
X13426429Y-8076690D01*
X13426429Y-8095738D02*
X13435952Y-8086214D01*
X13435952Y-8086214D02*
X13455000Y-8076690D01*
X13455000Y-8076690D02*
X13483571Y-8076690D01*
X13483571Y-8076690D02*
X13502619Y-8086214D01*
X13502619Y-8086214D02*
X13512143Y-8105262D01*
X13512143Y-8105262D02*
X13512143Y-8210024D01*
X13512143Y-8105262D02*
X13521667Y-8086214D01*
X13521667Y-8086214D02*
X13540714Y-8076690D01*
X13540714Y-8076690D02*
X13569286Y-8076690D01*
X13569286Y-8076690D02*
X13588333Y-8086214D01*
X13588333Y-8086214D02*
X13597857Y-8105262D01*
X13597857Y-8105262D02*
X13597857Y-8210024D01*
X13988333Y-8000500D02*
X13816905Y-8257643D01*
X14245476Y-8010024D02*
X14264524Y-8010024D01*
X14264524Y-8010024D02*
X14283572Y-8019548D01*
X14283572Y-8019548D02*
X14293095Y-8029071D01*
X14293095Y-8029071D02*
X14302619Y-8048119D01*
X14302619Y-8048119D02*
X14312143Y-8086214D01*
X14312143Y-8086214D02*
X14312143Y-8133833D01*
X14312143Y-8133833D02*
X14302619Y-8171928D01*
X14302619Y-8171928D02*
X14293095Y-8190976D01*
X14293095Y-8190976D02*
X14283572Y-8200500D01*
X14283572Y-8200500D02*
X14264524Y-8210024D01*
X14264524Y-8210024D02*
X14245476Y-8210024D01*
X14245476Y-8210024D02*
X14226429Y-8200500D01*
X14226429Y-8200500D02*
X14216905Y-8190976D01*
X14216905Y-8190976D02*
X14207381Y-8171928D01*
X14207381Y-8171928D02*
X14197857Y-8133833D01*
X14197857Y-8133833D02*
X14197857Y-8086214D01*
X14197857Y-8086214D02*
X14207381Y-8048119D01*
X14207381Y-8048119D02*
X14216905Y-8029071D01*
X14216905Y-8029071D02*
X14226429Y-8019548D01*
X14226429Y-8019548D02*
X14245476Y-8010024D01*
X14397857Y-8190976D02*
X14407381Y-8200500D01*
X14407381Y-8200500D02*
X14397857Y-8210024D01*
X14397857Y-8210024D02*
X14388333Y-8200500D01*
X14388333Y-8200500D02*
X14397857Y-8190976D01*
X14397857Y-8190976D02*
X14397857Y-8210024D01*
X14531191Y-8010024D02*
X14550238Y-8010024D01*
X14550238Y-8010024D02*
X14569286Y-8019548D01*
X14569286Y-8019548D02*
X14578810Y-8029071D01*
X14578810Y-8029071D02*
X14588333Y-8048119D01*
X14588333Y-8048119D02*
X14597857Y-8086214D01*
X14597857Y-8086214D02*
X14597857Y-8133833D01*
X14597857Y-8133833D02*
X14588333Y-8171928D01*
X14588333Y-8171928D02*
X14578810Y-8190976D01*
X14578810Y-8190976D02*
X14569286Y-8200500D01*
X14569286Y-8200500D02*
X14550238Y-8210024D01*
X14550238Y-8210024D02*
X14531191Y-8210024D01*
X14531191Y-8210024D02*
X14512143Y-8200500D01*
X14512143Y-8200500D02*
X14502619Y-8190976D01*
X14502619Y-8190976D02*
X14493095Y-8171928D01*
X14493095Y-8171928D02*
X14483572Y-8133833D01*
X14483572Y-8133833D02*
X14483572Y-8086214D01*
X14483572Y-8086214D02*
X14493095Y-8048119D01*
X14493095Y-8048119D02*
X14502619Y-8029071D01*
X14502619Y-8029071D02*
X14512143Y-8019548D01*
X14512143Y-8019548D02*
X14531191Y-8010024D01*
X14788333Y-8210024D02*
X14674048Y-8210024D01*
X14731191Y-8210024D02*
X14731191Y-8010024D01*
X14731191Y-8010024D02*
X14712143Y-8038595D01*
X14712143Y-8038595D02*
X14693095Y-8057643D01*
X14693095Y-8057643D02*
X14674048Y-8067167D01*
X14978810Y-8210024D02*
X14864524Y-8210024D01*
X14921667Y-8210024D02*
X14921667Y-8010024D01*
X14921667Y-8010024D02*
X14902619Y-8038595D01*
X14902619Y-8038595D02*
X14883572Y-8057643D01*
X14883572Y-8057643D02*
X14864524Y-8067167D01*
X15093095Y-8095738D02*
X15074048Y-8086214D01*
X15074048Y-8086214D02*
X15064524Y-8076690D01*
X15064524Y-8076690D02*
X15055000Y-8057643D01*
X15055000Y-8057643D02*
X15055000Y-8048119D01*
X15055000Y-8048119D02*
X15064524Y-8029071D01*
X15064524Y-8029071D02*
X15074048Y-8019548D01*
X15074048Y-8019548D02*
X15093095Y-8010024D01*
X15093095Y-8010024D02*
X15131191Y-8010024D01*
X15131191Y-8010024D02*
X15150238Y-8019548D01*
X15150238Y-8019548D02*
X15159762Y-8029071D01*
X15159762Y-8029071D02*
X15169286Y-8048119D01*
X15169286Y-8048119D02*
X15169286Y-8057643D01*
X15169286Y-8057643D02*
X15159762Y-8076690D01*
X15159762Y-8076690D02*
X15150238Y-8086214D01*
X15150238Y-8086214D02*
X15131191Y-8095738D01*
X15131191Y-8095738D02*
X15093095Y-8095738D01*
X15093095Y-8095738D02*
X15074048Y-8105262D01*
X15074048Y-8105262D02*
X15064524Y-8114786D01*
X15064524Y-8114786D02*
X15055000Y-8133833D01*
X15055000Y-8133833D02*
X15055000Y-8171928D01*
X15055000Y-8171928D02*
X15064524Y-8190976D01*
X15064524Y-8190976D02*
X15074048Y-8200500D01*
X15074048Y-8200500D02*
X15093095Y-8210024D01*
X15093095Y-8210024D02*
X15131191Y-8210024D01*
X15131191Y-8210024D02*
X15150238Y-8200500D01*
X15150238Y-8200500D02*
X15159762Y-8190976D01*
X15159762Y-8190976D02*
X15169286Y-8171928D01*
X15169286Y-8171928D02*
X15169286Y-8133833D01*
X15169286Y-8133833D02*
X15159762Y-8114786D01*
X15159762Y-8114786D02*
X15150238Y-8105262D01*
X15150238Y-8105262D02*
X15131191Y-8095738D01*
X15245476Y-8010024D02*
X15245476Y-8048119D01*
X15321667Y-8010024D02*
X15321667Y-8048119D01*
X15616905Y-8286214D02*
X15607381Y-8276690D01*
X15607381Y-8276690D02*
X15588334Y-8248119D01*
X15588334Y-8248119D02*
X15578810Y-8229071D01*
X15578810Y-8229071D02*
X15569286Y-8200500D01*
X15569286Y-8200500D02*
X15559762Y-8152881D01*
X15559762Y-8152881D02*
X15559762Y-8114786D01*
X15559762Y-8114786D02*
X15569286Y-8067167D01*
X15569286Y-8067167D02*
X15578810Y-8038595D01*
X15578810Y-8038595D02*
X15588334Y-8019548D01*
X15588334Y-8019548D02*
X15607381Y-7990976D01*
X15607381Y-7990976D02*
X15616905Y-7981452D01*
X15788334Y-8010024D02*
X15693095Y-8010024D01*
X15693095Y-8010024D02*
X15683572Y-8105262D01*
X15683572Y-8105262D02*
X15693095Y-8095738D01*
X15693095Y-8095738D02*
X15712143Y-8086214D01*
X15712143Y-8086214D02*
X15759762Y-8086214D01*
X15759762Y-8086214D02*
X15778810Y-8095738D01*
X15778810Y-8095738D02*
X15788334Y-8105262D01*
X15788334Y-8105262D02*
X15797857Y-8124309D01*
X15797857Y-8124309D02*
X15797857Y-8171928D01*
X15797857Y-8171928D02*
X15788334Y-8190976D01*
X15788334Y-8190976D02*
X15778810Y-8200500D01*
X15778810Y-8200500D02*
X15759762Y-8210024D01*
X15759762Y-8210024D02*
X15712143Y-8210024D01*
X15712143Y-8210024D02*
X15693095Y-8200500D01*
X15693095Y-8200500D02*
X15683572Y-8190976D01*
X15864524Y-8010024D02*
X15988334Y-8010024D01*
X15988334Y-8010024D02*
X15921667Y-8086214D01*
X15921667Y-8086214D02*
X15950238Y-8086214D01*
X15950238Y-8086214D02*
X15969286Y-8095738D01*
X15969286Y-8095738D02*
X15978810Y-8105262D01*
X15978810Y-8105262D02*
X15988334Y-8124309D01*
X15988334Y-8124309D02*
X15988334Y-8171928D01*
X15988334Y-8171928D02*
X15978810Y-8190976D01*
X15978810Y-8190976D02*
X15969286Y-8200500D01*
X15969286Y-8200500D02*
X15950238Y-8210024D01*
X15950238Y-8210024D02*
X15893095Y-8210024D01*
X15893095Y-8210024D02*
X15874048Y-8200500D01*
X15874048Y-8200500D02*
X15864524Y-8190976D01*
X16226429Y-8210024D02*
X16226429Y-8010024D01*
X16312143Y-8210024D02*
X16312143Y-8105262D01*
X16312143Y-8105262D02*
X16302619Y-8086214D01*
X16302619Y-8086214D02*
X16283572Y-8076690D01*
X16283572Y-8076690D02*
X16255000Y-8076690D01*
X16255000Y-8076690D02*
X16235953Y-8086214D01*
X16235953Y-8086214D02*
X16226429Y-8095738D01*
X16435953Y-8210024D02*
X16416905Y-8200500D01*
X16416905Y-8200500D02*
X16407381Y-8190976D01*
X16407381Y-8190976D02*
X16397857Y-8171928D01*
X16397857Y-8171928D02*
X16397857Y-8114786D01*
X16397857Y-8114786D02*
X16407381Y-8095738D01*
X16407381Y-8095738D02*
X16416905Y-8086214D01*
X16416905Y-8086214D02*
X16435953Y-8076690D01*
X16435953Y-8076690D02*
X16464524Y-8076690D01*
X16464524Y-8076690D02*
X16483572Y-8086214D01*
X16483572Y-8086214D02*
X16493096Y-8095738D01*
X16493096Y-8095738D02*
X16502619Y-8114786D01*
X16502619Y-8114786D02*
X16502619Y-8171928D01*
X16502619Y-8171928D02*
X16493096Y-8190976D01*
X16493096Y-8190976D02*
X16483572Y-8200500D01*
X16483572Y-8200500D02*
X16464524Y-8210024D01*
X16464524Y-8210024D02*
X16435953Y-8210024D01*
X16616905Y-8210024D02*
X16597857Y-8200500D01*
X16597857Y-8200500D02*
X16588334Y-8181452D01*
X16588334Y-8181452D02*
X16588334Y-8010024D01*
X16769286Y-8200500D02*
X16750238Y-8210024D01*
X16750238Y-8210024D02*
X16712143Y-8210024D01*
X16712143Y-8210024D02*
X16693096Y-8200500D01*
X16693096Y-8200500D02*
X16683572Y-8181452D01*
X16683572Y-8181452D02*
X16683572Y-8105262D01*
X16683572Y-8105262D02*
X16693096Y-8086214D01*
X16693096Y-8086214D02*
X16712143Y-8076690D01*
X16712143Y-8076690D02*
X16750238Y-8076690D01*
X16750238Y-8076690D02*
X16769286Y-8086214D01*
X16769286Y-8086214D02*
X16778810Y-8105262D01*
X16778810Y-8105262D02*
X16778810Y-8124309D01*
X16778810Y-8124309D02*
X16683572Y-8143357D01*
X16855000Y-8200500D02*
X16874048Y-8210024D01*
X16874048Y-8210024D02*
X16912143Y-8210024D01*
X16912143Y-8210024D02*
X16931191Y-8200500D01*
X16931191Y-8200500D02*
X16940715Y-8181452D01*
X16940715Y-8181452D02*
X16940715Y-8171928D01*
X16940715Y-8171928D02*
X16931191Y-8152881D01*
X16931191Y-8152881D02*
X16912143Y-8143357D01*
X16912143Y-8143357D02*
X16883572Y-8143357D01*
X16883572Y-8143357D02*
X16864524Y-8133833D01*
X16864524Y-8133833D02*
X16855000Y-8114786D01*
X16855000Y-8114786D02*
X16855000Y-8105262D01*
X16855000Y-8105262D02*
X16864524Y-8086214D01*
X16864524Y-8086214D02*
X16883572Y-8076690D01*
X16883572Y-8076690D02*
X16912143Y-8076690D01*
X16912143Y-8076690D02*
X16931191Y-8086214D01*
X17007381Y-8286214D02*
X17016905Y-8276690D01*
X17016905Y-8276690D02*
X17035953Y-8248119D01*
X17035953Y-8248119D02*
X17045477Y-8229071D01*
X17045477Y-8229071D02*
X17055000Y-8200500D01*
X17055000Y-8200500D02*
X17064524Y-8152881D01*
X17064524Y-8152881D02*
X17064524Y-8114786D01*
X17064524Y-8114786D02*
X17055000Y-8067167D01*
X17055000Y-8067167D02*
X17045477Y-8038595D01*
X17045477Y-8038595D02*
X17035953Y-8019548D01*
X17035953Y-8019548D02*
X17016905Y-7990976D01*
X17016905Y-7990976D02*
X17007381Y-7981452D01*
D13*
X12055000Y-8381500D02*
G75*
G03*
X12055000Y-8381500I-25000J0D01*
G01*
D11*
X12340714Y-8274024D02*
X12359762Y-8274024D01*
X12359762Y-8274024D02*
X12378809Y-8283548D01*
X12378809Y-8283548D02*
X12388333Y-8293071D01*
X12388333Y-8293071D02*
X12397857Y-8312119D01*
X12397857Y-8312119D02*
X12407381Y-8350214D01*
X12407381Y-8350214D02*
X12407381Y-8397833D01*
X12407381Y-8397833D02*
X12397857Y-8435929D01*
X12397857Y-8435929D02*
X12388333Y-8454976D01*
X12388333Y-8454976D02*
X12378809Y-8464500D01*
X12378809Y-8464500D02*
X12359762Y-8474024D01*
X12359762Y-8474024D02*
X12340714Y-8474024D01*
X12340714Y-8474024D02*
X12321667Y-8464500D01*
X12321667Y-8464500D02*
X12312143Y-8454976D01*
X12312143Y-8454976D02*
X12302619Y-8435929D01*
X12302619Y-8435929D02*
X12293095Y-8397833D01*
X12293095Y-8397833D02*
X12293095Y-8350214D01*
X12293095Y-8350214D02*
X12302619Y-8312119D01*
X12302619Y-8312119D02*
X12312143Y-8293071D01*
X12312143Y-8293071D02*
X12321667Y-8283548D01*
X12321667Y-8283548D02*
X12340714Y-8274024D01*
X12493095Y-8454976D02*
X12502619Y-8464500D01*
X12502619Y-8464500D02*
X12493095Y-8474024D01*
X12493095Y-8474024D02*
X12483571Y-8464500D01*
X12483571Y-8464500D02*
X12493095Y-8454976D01*
X12493095Y-8454976D02*
X12493095Y-8474024D01*
X12683571Y-8274024D02*
X12588333Y-8274024D01*
X12588333Y-8274024D02*
X12578809Y-8369262D01*
X12578809Y-8369262D02*
X12588333Y-8359738D01*
X12588333Y-8359738D02*
X12607381Y-8350214D01*
X12607381Y-8350214D02*
X12655000Y-8350214D01*
X12655000Y-8350214D02*
X12674048Y-8359738D01*
X12674048Y-8359738D02*
X12683571Y-8369262D01*
X12683571Y-8369262D02*
X12693095Y-8388309D01*
X12693095Y-8388309D02*
X12693095Y-8435929D01*
X12693095Y-8435929D02*
X12683571Y-8454976D01*
X12683571Y-8454976D02*
X12674048Y-8464500D01*
X12674048Y-8464500D02*
X12655000Y-8474024D01*
X12655000Y-8474024D02*
X12607381Y-8474024D01*
X12607381Y-8474024D02*
X12588333Y-8464500D01*
X12588333Y-8464500D02*
X12578809Y-8454976D01*
X12816905Y-8274024D02*
X12835952Y-8274024D01*
X12835952Y-8274024D02*
X12855000Y-8283548D01*
X12855000Y-8283548D02*
X12864524Y-8293071D01*
X12864524Y-8293071D02*
X12874048Y-8312119D01*
X12874048Y-8312119D02*
X12883571Y-8350214D01*
X12883571Y-8350214D02*
X12883571Y-8397833D01*
X12883571Y-8397833D02*
X12874048Y-8435929D01*
X12874048Y-8435929D02*
X12864524Y-8454976D01*
X12864524Y-8454976D02*
X12855000Y-8464500D01*
X12855000Y-8464500D02*
X12835952Y-8474024D01*
X12835952Y-8474024D02*
X12816905Y-8474024D01*
X12816905Y-8474024D02*
X12797857Y-8464500D01*
X12797857Y-8464500D02*
X12788333Y-8454976D01*
X12788333Y-8454976D02*
X12778809Y-8435929D01*
X12778809Y-8435929D02*
X12769286Y-8397833D01*
X12769286Y-8397833D02*
X12769286Y-8350214D01*
X12769286Y-8350214D02*
X12778809Y-8312119D01*
X12778809Y-8312119D02*
X12788333Y-8293071D01*
X12788333Y-8293071D02*
X12797857Y-8283548D01*
X12797857Y-8283548D02*
X12816905Y-8274024D01*
X13007381Y-8274024D02*
X13026429Y-8274024D01*
X13026429Y-8274024D02*
X13045476Y-8283548D01*
X13045476Y-8283548D02*
X13055000Y-8293071D01*
X13055000Y-8293071D02*
X13064524Y-8312119D01*
X13064524Y-8312119D02*
X13074048Y-8350214D01*
X13074048Y-8350214D02*
X13074048Y-8397833D01*
X13074048Y-8397833D02*
X13064524Y-8435929D01*
X13064524Y-8435929D02*
X13055000Y-8454976D01*
X13055000Y-8454976D02*
X13045476Y-8464500D01*
X13045476Y-8464500D02*
X13026429Y-8474024D01*
X13026429Y-8474024D02*
X13007381Y-8474024D01*
X13007381Y-8474024D02*
X12988333Y-8464500D01*
X12988333Y-8464500D02*
X12978809Y-8454976D01*
X12978809Y-8454976D02*
X12969286Y-8435929D01*
X12969286Y-8435929D02*
X12959762Y-8397833D01*
X12959762Y-8397833D02*
X12959762Y-8350214D01*
X12959762Y-8350214D02*
X12969286Y-8312119D01*
X12969286Y-8312119D02*
X12978809Y-8293071D01*
X12978809Y-8293071D02*
X12988333Y-8283548D01*
X12988333Y-8283548D02*
X13007381Y-8274024D01*
X13159762Y-8474024D02*
X13159762Y-8340690D01*
X13159762Y-8359738D02*
X13169286Y-8350214D01*
X13169286Y-8350214D02*
X13188333Y-8340690D01*
X13188333Y-8340690D02*
X13216905Y-8340690D01*
X13216905Y-8340690D02*
X13235952Y-8350214D01*
X13235952Y-8350214D02*
X13245476Y-8369262D01*
X13245476Y-8369262D02*
X13245476Y-8474024D01*
X13245476Y-8369262D02*
X13255000Y-8350214D01*
X13255000Y-8350214D02*
X13274048Y-8340690D01*
X13274048Y-8340690D02*
X13302619Y-8340690D01*
X13302619Y-8340690D02*
X13321667Y-8350214D01*
X13321667Y-8350214D02*
X13331190Y-8369262D01*
X13331190Y-8369262D02*
X13331190Y-8474024D01*
X13426429Y-8474024D02*
X13426429Y-8340690D01*
X13426429Y-8359738D02*
X13435952Y-8350214D01*
X13435952Y-8350214D02*
X13455000Y-8340690D01*
X13455000Y-8340690D02*
X13483571Y-8340690D01*
X13483571Y-8340690D02*
X13502619Y-8350214D01*
X13502619Y-8350214D02*
X13512143Y-8369262D01*
X13512143Y-8369262D02*
X13512143Y-8474024D01*
X13512143Y-8369262D02*
X13521667Y-8350214D01*
X13521667Y-8350214D02*
X13540714Y-8340690D01*
X13540714Y-8340690D02*
X13569286Y-8340690D01*
X13569286Y-8340690D02*
X13588333Y-8350214D01*
X13588333Y-8350214D02*
X13597857Y-8369262D01*
X13597857Y-8369262D02*
X13597857Y-8474024D01*
X13988333Y-8264500D02*
X13816905Y-8521643D01*
X14245476Y-8274024D02*
X14264524Y-8274024D01*
X14264524Y-8274024D02*
X14283572Y-8283548D01*
X14283572Y-8283548D02*
X14293095Y-8293071D01*
X14293095Y-8293071D02*
X14302619Y-8312119D01*
X14302619Y-8312119D02*
X14312143Y-8350214D01*
X14312143Y-8350214D02*
X14312143Y-8397833D01*
X14312143Y-8397833D02*
X14302619Y-8435929D01*
X14302619Y-8435929D02*
X14293095Y-8454976D01*
X14293095Y-8454976D02*
X14283572Y-8464500D01*
X14283572Y-8464500D02*
X14264524Y-8474024D01*
X14264524Y-8474024D02*
X14245476Y-8474024D01*
X14245476Y-8474024D02*
X14226429Y-8464500D01*
X14226429Y-8464500D02*
X14216905Y-8454976D01*
X14216905Y-8454976D02*
X14207381Y-8435929D01*
X14207381Y-8435929D02*
X14197857Y-8397833D01*
X14197857Y-8397833D02*
X14197857Y-8350214D01*
X14197857Y-8350214D02*
X14207381Y-8312119D01*
X14207381Y-8312119D02*
X14216905Y-8293071D01*
X14216905Y-8293071D02*
X14226429Y-8283548D01*
X14226429Y-8283548D02*
X14245476Y-8274024D01*
X14397857Y-8454976D02*
X14407381Y-8464500D01*
X14407381Y-8464500D02*
X14397857Y-8474024D01*
X14397857Y-8474024D02*
X14388333Y-8464500D01*
X14388333Y-8464500D02*
X14397857Y-8454976D01*
X14397857Y-8454976D02*
X14397857Y-8474024D01*
X14531191Y-8274024D02*
X14550238Y-8274024D01*
X14550238Y-8274024D02*
X14569286Y-8283548D01*
X14569286Y-8283548D02*
X14578810Y-8293071D01*
X14578810Y-8293071D02*
X14588333Y-8312119D01*
X14588333Y-8312119D02*
X14597857Y-8350214D01*
X14597857Y-8350214D02*
X14597857Y-8397833D01*
X14597857Y-8397833D02*
X14588333Y-8435929D01*
X14588333Y-8435929D02*
X14578810Y-8454976D01*
X14578810Y-8454976D02*
X14569286Y-8464500D01*
X14569286Y-8464500D02*
X14550238Y-8474024D01*
X14550238Y-8474024D02*
X14531191Y-8474024D01*
X14531191Y-8474024D02*
X14512143Y-8464500D01*
X14512143Y-8464500D02*
X14502619Y-8454976D01*
X14502619Y-8454976D02*
X14493095Y-8435929D01*
X14493095Y-8435929D02*
X14483572Y-8397833D01*
X14483572Y-8397833D02*
X14483572Y-8350214D01*
X14483572Y-8350214D02*
X14493095Y-8312119D01*
X14493095Y-8312119D02*
X14502619Y-8293071D01*
X14502619Y-8293071D02*
X14512143Y-8283548D01*
X14512143Y-8283548D02*
X14531191Y-8274024D01*
X14788333Y-8474024D02*
X14674048Y-8474024D01*
X14731191Y-8474024D02*
X14731191Y-8274024D01*
X14731191Y-8274024D02*
X14712143Y-8302595D01*
X14712143Y-8302595D02*
X14693095Y-8321643D01*
X14693095Y-8321643D02*
X14674048Y-8331167D01*
X14883572Y-8474024D02*
X14921667Y-8474024D01*
X14921667Y-8474024D02*
X14940714Y-8464500D01*
X14940714Y-8464500D02*
X14950238Y-8454976D01*
X14950238Y-8454976D02*
X14969286Y-8426405D01*
X14969286Y-8426405D02*
X14978810Y-8388309D01*
X14978810Y-8388309D02*
X14978810Y-8312119D01*
X14978810Y-8312119D02*
X14969286Y-8293071D01*
X14969286Y-8293071D02*
X14959762Y-8283548D01*
X14959762Y-8283548D02*
X14940714Y-8274024D01*
X14940714Y-8274024D02*
X14902619Y-8274024D01*
X14902619Y-8274024D02*
X14883572Y-8283548D01*
X14883572Y-8283548D02*
X14874048Y-8293071D01*
X14874048Y-8293071D02*
X14864524Y-8312119D01*
X14864524Y-8312119D02*
X14864524Y-8359738D01*
X14864524Y-8359738D02*
X14874048Y-8378786D01*
X14874048Y-8378786D02*
X14883572Y-8388309D01*
X14883572Y-8388309D02*
X14902619Y-8397833D01*
X14902619Y-8397833D02*
X14940714Y-8397833D01*
X14940714Y-8397833D02*
X14959762Y-8388309D01*
X14959762Y-8388309D02*
X14969286Y-8378786D01*
X14969286Y-8378786D02*
X14978810Y-8359738D01*
X15045476Y-8274024D02*
X15178810Y-8274024D01*
X15178810Y-8274024D02*
X15093095Y-8474024D01*
X15245476Y-8274024D02*
X15245476Y-8312119D01*
X15321667Y-8274024D02*
X15321667Y-8312119D01*
X15616905Y-8550214D02*
X15607381Y-8540690D01*
X15607381Y-8540690D02*
X15588334Y-8512119D01*
X15588334Y-8512119D02*
X15578810Y-8493071D01*
X15578810Y-8493071D02*
X15569286Y-8464500D01*
X15569286Y-8464500D02*
X15559762Y-8416881D01*
X15559762Y-8416881D02*
X15559762Y-8378786D01*
X15559762Y-8378786D02*
X15569286Y-8331167D01*
X15569286Y-8331167D02*
X15578810Y-8302595D01*
X15578810Y-8302595D02*
X15588334Y-8283548D01*
X15588334Y-8283548D02*
X15607381Y-8254976D01*
X15607381Y-8254976D02*
X15616905Y-8245452D01*
X15797857Y-8474024D02*
X15683572Y-8474024D01*
X15740714Y-8474024D02*
X15740714Y-8274024D01*
X15740714Y-8274024D02*
X15721667Y-8302595D01*
X15721667Y-8302595D02*
X15702619Y-8321643D01*
X15702619Y-8321643D02*
X15683572Y-8331167D01*
X15921667Y-8274024D02*
X15940715Y-8274024D01*
X15940715Y-8274024D02*
X15959762Y-8283548D01*
X15959762Y-8283548D02*
X15969286Y-8293071D01*
X15969286Y-8293071D02*
X15978810Y-8312119D01*
X15978810Y-8312119D02*
X15988334Y-8350214D01*
X15988334Y-8350214D02*
X15988334Y-8397833D01*
X15988334Y-8397833D02*
X15978810Y-8435929D01*
X15978810Y-8435929D02*
X15969286Y-8454976D01*
X15969286Y-8454976D02*
X15959762Y-8464500D01*
X15959762Y-8464500D02*
X15940715Y-8474024D01*
X15940715Y-8474024D02*
X15921667Y-8474024D01*
X15921667Y-8474024D02*
X15902619Y-8464500D01*
X15902619Y-8464500D02*
X15893095Y-8454976D01*
X15893095Y-8454976D02*
X15883572Y-8435929D01*
X15883572Y-8435929D02*
X15874048Y-8397833D01*
X15874048Y-8397833D02*
X15874048Y-8350214D01*
X15874048Y-8350214D02*
X15883572Y-8312119D01*
X15883572Y-8312119D02*
X15893095Y-8293071D01*
X15893095Y-8293071D02*
X15902619Y-8283548D01*
X15902619Y-8283548D02*
X15921667Y-8274024D01*
X16226429Y-8474024D02*
X16226429Y-8274024D01*
X16312143Y-8474024D02*
X16312143Y-8369262D01*
X16312143Y-8369262D02*
X16302619Y-8350214D01*
X16302619Y-8350214D02*
X16283572Y-8340690D01*
X16283572Y-8340690D02*
X16255000Y-8340690D01*
X16255000Y-8340690D02*
X16235953Y-8350214D01*
X16235953Y-8350214D02*
X16226429Y-8359738D01*
X16435953Y-8474024D02*
X16416905Y-8464500D01*
X16416905Y-8464500D02*
X16407381Y-8454976D01*
X16407381Y-8454976D02*
X16397857Y-8435929D01*
X16397857Y-8435929D02*
X16397857Y-8378786D01*
X16397857Y-8378786D02*
X16407381Y-8359738D01*
X16407381Y-8359738D02*
X16416905Y-8350214D01*
X16416905Y-8350214D02*
X16435953Y-8340690D01*
X16435953Y-8340690D02*
X16464524Y-8340690D01*
X16464524Y-8340690D02*
X16483572Y-8350214D01*
X16483572Y-8350214D02*
X16493096Y-8359738D01*
X16493096Y-8359738D02*
X16502619Y-8378786D01*
X16502619Y-8378786D02*
X16502619Y-8435929D01*
X16502619Y-8435929D02*
X16493096Y-8454976D01*
X16493096Y-8454976D02*
X16483572Y-8464500D01*
X16483572Y-8464500D02*
X16464524Y-8474024D01*
X16464524Y-8474024D02*
X16435953Y-8474024D01*
X16616905Y-8474024D02*
X16597857Y-8464500D01*
X16597857Y-8464500D02*
X16588334Y-8445452D01*
X16588334Y-8445452D02*
X16588334Y-8274024D01*
X16769286Y-8464500D02*
X16750238Y-8474024D01*
X16750238Y-8474024D02*
X16712143Y-8474024D01*
X16712143Y-8474024D02*
X16693096Y-8464500D01*
X16693096Y-8464500D02*
X16683572Y-8445452D01*
X16683572Y-8445452D02*
X16683572Y-8369262D01*
X16683572Y-8369262D02*
X16693096Y-8350214D01*
X16693096Y-8350214D02*
X16712143Y-8340690D01*
X16712143Y-8340690D02*
X16750238Y-8340690D01*
X16750238Y-8340690D02*
X16769286Y-8350214D01*
X16769286Y-8350214D02*
X16778810Y-8369262D01*
X16778810Y-8369262D02*
X16778810Y-8388309D01*
X16778810Y-8388309D02*
X16683572Y-8407357D01*
X16855000Y-8464500D02*
X16874048Y-8474024D01*
X16874048Y-8474024D02*
X16912143Y-8474024D01*
X16912143Y-8474024D02*
X16931191Y-8464500D01*
X16931191Y-8464500D02*
X16940715Y-8445452D01*
X16940715Y-8445452D02*
X16940715Y-8435929D01*
X16940715Y-8435929D02*
X16931191Y-8416881D01*
X16931191Y-8416881D02*
X16912143Y-8407357D01*
X16912143Y-8407357D02*
X16883572Y-8407357D01*
X16883572Y-8407357D02*
X16864524Y-8397833D01*
X16864524Y-8397833D02*
X16855000Y-8378786D01*
X16855000Y-8378786D02*
X16855000Y-8369262D01*
X16855000Y-8369262D02*
X16864524Y-8350214D01*
X16864524Y-8350214D02*
X16883572Y-8340690D01*
X16883572Y-8340690D02*
X16912143Y-8340690D01*
X16912143Y-8340690D02*
X16931191Y-8350214D01*
X17007381Y-8550214D02*
X17016905Y-8540690D01*
X17016905Y-8540690D02*
X17035953Y-8512119D01*
X17035953Y-8512119D02*
X17045477Y-8493071D01*
X17045477Y-8493071D02*
X17055000Y-8464500D01*
X17055000Y-8464500D02*
X17064524Y-8416881D01*
X17064524Y-8416881D02*
X17064524Y-8378786D01*
X17064524Y-8378786D02*
X17055000Y-8331167D01*
X17055000Y-8331167D02*
X17045477Y-8302595D01*
X17045477Y-8302595D02*
X17035953Y-8283548D01*
X17035953Y-8283548D02*
X17016905Y-8254976D01*
X17016905Y-8254976D02*
X17007381Y-8245452D01*
D10*
X12005000Y-8595500D02*
X12005000Y-8695500D01*
X11955000Y-8645500D02*
X12055000Y-8645500D01*
D11*
X12407381Y-8738024D02*
X12293095Y-8738024D01*
X12350238Y-8738024D02*
X12350238Y-8538024D01*
X12350238Y-8538024D02*
X12331190Y-8566595D01*
X12331190Y-8566595D02*
X12312143Y-8585643D01*
X12312143Y-8585643D02*
X12293095Y-8595167D01*
X12493095Y-8718976D02*
X12502619Y-8728500D01*
X12502619Y-8728500D02*
X12493095Y-8738024D01*
X12493095Y-8738024D02*
X12483571Y-8728500D01*
X12483571Y-8728500D02*
X12493095Y-8718976D01*
X12493095Y-8718976D02*
X12493095Y-8738024D01*
X12626428Y-8538024D02*
X12645476Y-8538024D01*
X12645476Y-8538024D02*
X12664524Y-8547548D01*
X12664524Y-8547548D02*
X12674048Y-8557071D01*
X12674048Y-8557071D02*
X12683571Y-8576119D01*
X12683571Y-8576119D02*
X12693095Y-8614214D01*
X12693095Y-8614214D02*
X12693095Y-8661833D01*
X12693095Y-8661833D02*
X12683571Y-8699929D01*
X12683571Y-8699929D02*
X12674048Y-8718976D01*
X12674048Y-8718976D02*
X12664524Y-8728500D01*
X12664524Y-8728500D02*
X12645476Y-8738024D01*
X12645476Y-8738024D02*
X12626428Y-8738024D01*
X12626428Y-8738024D02*
X12607381Y-8728500D01*
X12607381Y-8728500D02*
X12597857Y-8718976D01*
X12597857Y-8718976D02*
X12588333Y-8699929D01*
X12588333Y-8699929D02*
X12578809Y-8661833D01*
X12578809Y-8661833D02*
X12578809Y-8614214D01*
X12578809Y-8614214D02*
X12588333Y-8576119D01*
X12588333Y-8576119D02*
X12597857Y-8557071D01*
X12597857Y-8557071D02*
X12607381Y-8547548D01*
X12607381Y-8547548D02*
X12626428Y-8538024D01*
X12816905Y-8538024D02*
X12835952Y-8538024D01*
X12835952Y-8538024D02*
X12855000Y-8547548D01*
X12855000Y-8547548D02*
X12864524Y-8557071D01*
X12864524Y-8557071D02*
X12874048Y-8576119D01*
X12874048Y-8576119D02*
X12883571Y-8614214D01*
X12883571Y-8614214D02*
X12883571Y-8661833D01*
X12883571Y-8661833D02*
X12874048Y-8699929D01*
X12874048Y-8699929D02*
X12864524Y-8718976D01*
X12864524Y-8718976D02*
X12855000Y-8728500D01*
X12855000Y-8728500D02*
X12835952Y-8738024D01*
X12835952Y-8738024D02*
X12816905Y-8738024D01*
X12816905Y-8738024D02*
X12797857Y-8728500D01*
X12797857Y-8728500D02*
X12788333Y-8718976D01*
X12788333Y-8718976D02*
X12778809Y-8699929D01*
X12778809Y-8699929D02*
X12769286Y-8661833D01*
X12769286Y-8661833D02*
X12769286Y-8614214D01*
X12769286Y-8614214D02*
X12778809Y-8576119D01*
X12778809Y-8576119D02*
X12788333Y-8557071D01*
X12788333Y-8557071D02*
X12797857Y-8547548D01*
X12797857Y-8547548D02*
X12816905Y-8538024D01*
X13007381Y-8538024D02*
X13026429Y-8538024D01*
X13026429Y-8538024D02*
X13045476Y-8547548D01*
X13045476Y-8547548D02*
X13055000Y-8557071D01*
X13055000Y-8557071D02*
X13064524Y-8576119D01*
X13064524Y-8576119D02*
X13074048Y-8614214D01*
X13074048Y-8614214D02*
X13074048Y-8661833D01*
X13074048Y-8661833D02*
X13064524Y-8699929D01*
X13064524Y-8699929D02*
X13055000Y-8718976D01*
X13055000Y-8718976D02*
X13045476Y-8728500D01*
X13045476Y-8728500D02*
X13026429Y-8738024D01*
X13026429Y-8738024D02*
X13007381Y-8738024D01*
X13007381Y-8738024D02*
X12988333Y-8728500D01*
X12988333Y-8728500D02*
X12978809Y-8718976D01*
X12978809Y-8718976D02*
X12969286Y-8699929D01*
X12969286Y-8699929D02*
X12959762Y-8661833D01*
X12959762Y-8661833D02*
X12959762Y-8614214D01*
X12959762Y-8614214D02*
X12969286Y-8576119D01*
X12969286Y-8576119D02*
X12978809Y-8557071D01*
X12978809Y-8557071D02*
X12988333Y-8547548D01*
X12988333Y-8547548D02*
X13007381Y-8538024D01*
X13159762Y-8738024D02*
X13159762Y-8604690D01*
X13159762Y-8623738D02*
X13169286Y-8614214D01*
X13169286Y-8614214D02*
X13188333Y-8604690D01*
X13188333Y-8604690D02*
X13216905Y-8604690D01*
X13216905Y-8604690D02*
X13235952Y-8614214D01*
X13235952Y-8614214D02*
X13245476Y-8633262D01*
X13245476Y-8633262D02*
X13245476Y-8738024D01*
X13245476Y-8633262D02*
X13255000Y-8614214D01*
X13255000Y-8614214D02*
X13274048Y-8604690D01*
X13274048Y-8604690D02*
X13302619Y-8604690D01*
X13302619Y-8604690D02*
X13321667Y-8614214D01*
X13321667Y-8614214D02*
X13331190Y-8633262D01*
X13331190Y-8633262D02*
X13331190Y-8738024D01*
X13426429Y-8738024D02*
X13426429Y-8604690D01*
X13426429Y-8623738D02*
X13435952Y-8614214D01*
X13435952Y-8614214D02*
X13455000Y-8604690D01*
X13455000Y-8604690D02*
X13483571Y-8604690D01*
X13483571Y-8604690D02*
X13502619Y-8614214D01*
X13502619Y-8614214D02*
X13512143Y-8633262D01*
X13512143Y-8633262D02*
X13512143Y-8738024D01*
X13512143Y-8633262D02*
X13521667Y-8614214D01*
X13521667Y-8614214D02*
X13540714Y-8604690D01*
X13540714Y-8604690D02*
X13569286Y-8604690D01*
X13569286Y-8604690D02*
X13588333Y-8614214D01*
X13588333Y-8614214D02*
X13597857Y-8633262D01*
X13597857Y-8633262D02*
X13597857Y-8738024D01*
X13988333Y-8528500D02*
X13816905Y-8785643D01*
X14245476Y-8538024D02*
X14264524Y-8538024D01*
X14264524Y-8538024D02*
X14283572Y-8547548D01*
X14283572Y-8547548D02*
X14293095Y-8557071D01*
X14293095Y-8557071D02*
X14302619Y-8576119D01*
X14302619Y-8576119D02*
X14312143Y-8614214D01*
X14312143Y-8614214D02*
X14312143Y-8661833D01*
X14312143Y-8661833D02*
X14302619Y-8699929D01*
X14302619Y-8699929D02*
X14293095Y-8718976D01*
X14293095Y-8718976D02*
X14283572Y-8728500D01*
X14283572Y-8728500D02*
X14264524Y-8738024D01*
X14264524Y-8738024D02*
X14245476Y-8738024D01*
X14245476Y-8738024D02*
X14226429Y-8728500D01*
X14226429Y-8728500D02*
X14216905Y-8718976D01*
X14216905Y-8718976D02*
X14207381Y-8699929D01*
X14207381Y-8699929D02*
X14197857Y-8661833D01*
X14197857Y-8661833D02*
X14197857Y-8614214D01*
X14197857Y-8614214D02*
X14207381Y-8576119D01*
X14207381Y-8576119D02*
X14216905Y-8557071D01*
X14216905Y-8557071D02*
X14226429Y-8547548D01*
X14226429Y-8547548D02*
X14245476Y-8538024D01*
X14397857Y-8718976D02*
X14407381Y-8728500D01*
X14407381Y-8728500D02*
X14397857Y-8738024D01*
X14397857Y-8738024D02*
X14388333Y-8728500D01*
X14388333Y-8728500D02*
X14397857Y-8718976D01*
X14397857Y-8718976D02*
X14397857Y-8738024D01*
X14531191Y-8538024D02*
X14550238Y-8538024D01*
X14550238Y-8538024D02*
X14569286Y-8547548D01*
X14569286Y-8547548D02*
X14578810Y-8557071D01*
X14578810Y-8557071D02*
X14588333Y-8576119D01*
X14588333Y-8576119D02*
X14597857Y-8614214D01*
X14597857Y-8614214D02*
X14597857Y-8661833D01*
X14597857Y-8661833D02*
X14588333Y-8699929D01*
X14588333Y-8699929D02*
X14578810Y-8718976D01*
X14578810Y-8718976D02*
X14569286Y-8728500D01*
X14569286Y-8728500D02*
X14550238Y-8738024D01*
X14550238Y-8738024D02*
X14531191Y-8738024D01*
X14531191Y-8738024D02*
X14512143Y-8728500D01*
X14512143Y-8728500D02*
X14502619Y-8718976D01*
X14502619Y-8718976D02*
X14493095Y-8699929D01*
X14493095Y-8699929D02*
X14483572Y-8661833D01*
X14483572Y-8661833D02*
X14483572Y-8614214D01*
X14483572Y-8614214D02*
X14493095Y-8576119D01*
X14493095Y-8576119D02*
X14502619Y-8557071D01*
X14502619Y-8557071D02*
X14512143Y-8547548D01*
X14512143Y-8547548D02*
X14531191Y-8538024D01*
X14664524Y-8538024D02*
X14788333Y-8538024D01*
X14788333Y-8538024D02*
X14721667Y-8614214D01*
X14721667Y-8614214D02*
X14750238Y-8614214D01*
X14750238Y-8614214D02*
X14769286Y-8623738D01*
X14769286Y-8623738D02*
X14778810Y-8633262D01*
X14778810Y-8633262D02*
X14788333Y-8652310D01*
X14788333Y-8652310D02*
X14788333Y-8699929D01*
X14788333Y-8699929D02*
X14778810Y-8718976D01*
X14778810Y-8718976D02*
X14769286Y-8728500D01*
X14769286Y-8728500D02*
X14750238Y-8738024D01*
X14750238Y-8738024D02*
X14693095Y-8738024D01*
X14693095Y-8738024D02*
X14674048Y-8728500D01*
X14674048Y-8728500D02*
X14664524Y-8718976D01*
X14883572Y-8738024D02*
X14921667Y-8738024D01*
X14921667Y-8738024D02*
X14940714Y-8728500D01*
X14940714Y-8728500D02*
X14950238Y-8718976D01*
X14950238Y-8718976D02*
X14969286Y-8690405D01*
X14969286Y-8690405D02*
X14978810Y-8652310D01*
X14978810Y-8652310D02*
X14978810Y-8576119D01*
X14978810Y-8576119D02*
X14969286Y-8557071D01*
X14969286Y-8557071D02*
X14959762Y-8547548D01*
X14959762Y-8547548D02*
X14940714Y-8538024D01*
X14940714Y-8538024D02*
X14902619Y-8538024D01*
X14902619Y-8538024D02*
X14883572Y-8547548D01*
X14883572Y-8547548D02*
X14874048Y-8557071D01*
X14874048Y-8557071D02*
X14864524Y-8576119D01*
X14864524Y-8576119D02*
X14864524Y-8623738D01*
X14864524Y-8623738D02*
X14874048Y-8642786D01*
X14874048Y-8642786D02*
X14883572Y-8652310D01*
X14883572Y-8652310D02*
X14902619Y-8661833D01*
X14902619Y-8661833D02*
X14940714Y-8661833D01*
X14940714Y-8661833D02*
X14959762Y-8652310D01*
X14959762Y-8652310D02*
X14969286Y-8642786D01*
X14969286Y-8642786D02*
X14978810Y-8623738D01*
X15150238Y-8604690D02*
X15150238Y-8738024D01*
X15102619Y-8528500D02*
X15055000Y-8671357D01*
X15055000Y-8671357D02*
X15178810Y-8671357D01*
X15245476Y-8538024D02*
X15245476Y-8576119D01*
X15321667Y-8538024D02*
X15321667Y-8576119D01*
X15616905Y-8814214D02*
X15607381Y-8804690D01*
X15607381Y-8804690D02*
X15588334Y-8776119D01*
X15588334Y-8776119D02*
X15578810Y-8757071D01*
X15578810Y-8757071D02*
X15569286Y-8728500D01*
X15569286Y-8728500D02*
X15559762Y-8680881D01*
X15559762Y-8680881D02*
X15559762Y-8642786D01*
X15559762Y-8642786D02*
X15569286Y-8595167D01*
X15569286Y-8595167D02*
X15578810Y-8566595D01*
X15578810Y-8566595D02*
X15588334Y-8547548D01*
X15588334Y-8547548D02*
X15607381Y-8518976D01*
X15607381Y-8518976D02*
X15616905Y-8509452D01*
X15797857Y-8738024D02*
X15683572Y-8738024D01*
X15740714Y-8738024D02*
X15740714Y-8538024D01*
X15740714Y-8538024D02*
X15721667Y-8566595D01*
X15721667Y-8566595D02*
X15702619Y-8585643D01*
X15702619Y-8585643D02*
X15683572Y-8595167D01*
X15969286Y-8538024D02*
X15931191Y-8538024D01*
X15931191Y-8538024D02*
X15912143Y-8547548D01*
X15912143Y-8547548D02*
X15902619Y-8557071D01*
X15902619Y-8557071D02*
X15883572Y-8585643D01*
X15883572Y-8585643D02*
X15874048Y-8623738D01*
X15874048Y-8623738D02*
X15874048Y-8699929D01*
X15874048Y-8699929D02*
X15883572Y-8718976D01*
X15883572Y-8718976D02*
X15893095Y-8728500D01*
X15893095Y-8728500D02*
X15912143Y-8738024D01*
X15912143Y-8738024D02*
X15950238Y-8738024D01*
X15950238Y-8738024D02*
X15969286Y-8728500D01*
X15969286Y-8728500D02*
X15978810Y-8718976D01*
X15978810Y-8718976D02*
X15988334Y-8699929D01*
X15988334Y-8699929D02*
X15988334Y-8652310D01*
X15988334Y-8652310D02*
X15978810Y-8633262D01*
X15978810Y-8633262D02*
X15969286Y-8623738D01*
X15969286Y-8623738D02*
X15950238Y-8614214D01*
X15950238Y-8614214D02*
X15912143Y-8614214D01*
X15912143Y-8614214D02*
X15893095Y-8623738D01*
X15893095Y-8623738D02*
X15883572Y-8633262D01*
X15883572Y-8633262D02*
X15874048Y-8652310D01*
X16226429Y-8738024D02*
X16226429Y-8538024D01*
X16312143Y-8738024D02*
X16312143Y-8633262D01*
X16312143Y-8633262D02*
X16302619Y-8614214D01*
X16302619Y-8614214D02*
X16283572Y-8604690D01*
X16283572Y-8604690D02*
X16255000Y-8604690D01*
X16255000Y-8604690D02*
X16235953Y-8614214D01*
X16235953Y-8614214D02*
X16226429Y-8623738D01*
X16435953Y-8738024D02*
X16416905Y-8728500D01*
X16416905Y-8728500D02*
X16407381Y-8718976D01*
X16407381Y-8718976D02*
X16397857Y-8699929D01*
X16397857Y-8699929D02*
X16397857Y-8642786D01*
X16397857Y-8642786D02*
X16407381Y-8623738D01*
X16407381Y-8623738D02*
X16416905Y-8614214D01*
X16416905Y-8614214D02*
X16435953Y-8604690D01*
X16435953Y-8604690D02*
X16464524Y-8604690D01*
X16464524Y-8604690D02*
X16483572Y-8614214D01*
X16483572Y-8614214D02*
X16493096Y-8623738D01*
X16493096Y-8623738D02*
X16502619Y-8642786D01*
X16502619Y-8642786D02*
X16502619Y-8699929D01*
X16502619Y-8699929D02*
X16493096Y-8718976D01*
X16493096Y-8718976D02*
X16483572Y-8728500D01*
X16483572Y-8728500D02*
X16464524Y-8738024D01*
X16464524Y-8738024D02*
X16435953Y-8738024D01*
X16616905Y-8738024D02*
X16597857Y-8728500D01*
X16597857Y-8728500D02*
X16588334Y-8709452D01*
X16588334Y-8709452D02*
X16588334Y-8538024D01*
X16769286Y-8728500D02*
X16750238Y-8738024D01*
X16750238Y-8738024D02*
X16712143Y-8738024D01*
X16712143Y-8738024D02*
X16693096Y-8728500D01*
X16693096Y-8728500D02*
X16683572Y-8709452D01*
X16683572Y-8709452D02*
X16683572Y-8633262D01*
X16683572Y-8633262D02*
X16693096Y-8614214D01*
X16693096Y-8614214D02*
X16712143Y-8604690D01*
X16712143Y-8604690D02*
X16750238Y-8604690D01*
X16750238Y-8604690D02*
X16769286Y-8614214D01*
X16769286Y-8614214D02*
X16778810Y-8633262D01*
X16778810Y-8633262D02*
X16778810Y-8652310D01*
X16778810Y-8652310D02*
X16683572Y-8671357D01*
X16855000Y-8728500D02*
X16874048Y-8738024D01*
X16874048Y-8738024D02*
X16912143Y-8738024D01*
X16912143Y-8738024D02*
X16931191Y-8728500D01*
X16931191Y-8728500D02*
X16940715Y-8709452D01*
X16940715Y-8709452D02*
X16940715Y-8699929D01*
X16940715Y-8699929D02*
X16931191Y-8680881D01*
X16931191Y-8680881D02*
X16912143Y-8671357D01*
X16912143Y-8671357D02*
X16883572Y-8671357D01*
X16883572Y-8671357D02*
X16864524Y-8661833D01*
X16864524Y-8661833D02*
X16855000Y-8642786D01*
X16855000Y-8642786D02*
X16855000Y-8633262D01*
X16855000Y-8633262D02*
X16864524Y-8614214D01*
X16864524Y-8614214D02*
X16883572Y-8604690D01*
X16883572Y-8604690D02*
X16912143Y-8604690D01*
X16912143Y-8604690D02*
X16931191Y-8614214D01*
X17007381Y-8814214D02*
X17016905Y-8804690D01*
X17016905Y-8804690D02*
X17035953Y-8776119D01*
X17035953Y-8776119D02*
X17045477Y-8757071D01*
X17045477Y-8757071D02*
X17055000Y-8728500D01*
X17055000Y-8728500D02*
X17064524Y-8680881D01*
X17064524Y-8680881D02*
X17064524Y-8642786D01*
X17064524Y-8642786D02*
X17055000Y-8595167D01*
X17055000Y-8595167D02*
X17045477Y-8566595D01*
X17045477Y-8566595D02*
X17035953Y-8547548D01*
X17035953Y-8547548D02*
X17016905Y-8518976D01*
X17016905Y-8518976D02*
X17007381Y-8509452D01*
M02*
