G04 #@! TF.GenerationSoftware,KiCad,Pcbnew,7.0.1*
G04 #@! TF.CreationDate,2023-07-20T02:47:45+02:00*
G04 #@! TF.ProjectId,imu_9_axis,696d755f-395f-4617-9869-732e6b696361,rev?*
G04 #@! TF.SameCoordinates,Original*
G04 #@! TF.FileFunction,Copper,L1,Top*
G04 #@! TF.FilePolarity,Positive*
%FSLAX46Y46*%
G04 Gerber Fmt 4.6, Leading zero omitted, Abs format (unit mm)*
G04 Created by KiCad (PCBNEW 7.0.1) date 2023-07-20 02:47:45*
%MOMM*%
%LPD*%
G01*
G04 APERTURE LIST*
G04 Aperture macros list*
%AMRoundRect*
0 Rectangle with rounded corners*
0 $1 Rounding radius*
0 $2 $3 $4 $5 $6 $7 $8 $9 X,Y pos of 4 corners*
0 Add a 4 corners polygon primitive as box body*
4,1,4,$2,$3,$4,$5,$6,$7,$8,$9,$2,$3,0*
0 Add four circle primitives for the rounded corners*
1,1,$1+$1,$2,$3*
1,1,$1+$1,$4,$5*
1,1,$1+$1,$6,$7*
1,1,$1+$1,$8,$9*
0 Add four rect primitives between the rounded corners*
20,1,$1+$1,$2,$3,$4,$5,0*
20,1,$1+$1,$4,$5,$6,$7,0*
20,1,$1+$1,$6,$7,$8,$9,0*
20,1,$1+$1,$8,$9,$2,$3,0*%
%AMFreePoly0*
4,1,19,0.000000,0.744911,0.071157,0.744911,0.207708,0.704816,0.327430,0.627875,0.420627,0.520320,0.479746,0.390866,0.500000,0.250000,0.500000,-0.250000,0.479746,-0.390866,0.420627,-0.520320,0.327430,-0.627875,0.207708,-0.704816,0.071157,-0.744911,0.000000,-0.744911,0.000000,-0.750000,-0.550000,-0.750000,-0.550000,0.750000,0.000000,0.750000,0.000000,0.744911,0.000000,0.744911,
$1*%
%AMFreePoly1*
4,1,19,0.550000,-0.750000,0.000000,-0.750000,0.000000,-0.744911,-0.071157,-0.744911,-0.207708,-0.704816,-0.327430,-0.627875,-0.420627,-0.520320,-0.479746,-0.390866,-0.500000,-0.250000,-0.500000,0.250000,-0.479746,0.390866,-0.420627,0.520320,-0.327430,0.627875,-0.207708,0.704816,-0.071157,0.744911,0.000000,0.744911,0.000000,0.750000,0.550000,0.750000,0.550000,-0.750000,0.550000,-0.750000,
$1*%
G04 Aperture macros list end*
G04 #@! TA.AperFunction,SMDPad,CuDef*
%ADD10R,0.350000X0.375000*%
G04 #@! TD*
G04 #@! TA.AperFunction,SMDPad,CuDef*
%ADD11R,0.375000X0.350000*%
G04 #@! TD*
G04 #@! TA.AperFunction,SMDPad,CuDef*
%ADD12R,0.350000X0.590000*%
G04 #@! TD*
G04 #@! TA.AperFunction,SMDPad,CuDef*
%ADD13R,0.590000X0.350000*%
G04 #@! TD*
G04 #@! TA.AperFunction,SMDPad,CuDef*
%ADD14RoundRect,0.135000X-0.135000X-0.185000X0.135000X-0.185000X0.135000X0.185000X-0.135000X0.185000X0*%
G04 #@! TD*
G04 #@! TA.AperFunction,ComponentPad*
%ADD15O,2.000000X2.000000*%
G04 #@! TD*
G04 #@! TA.AperFunction,ComponentPad*
%ADD16O,1.700000X1.700000*%
G04 #@! TD*
G04 #@! TA.AperFunction,ComponentPad*
%ADD17R,2.000000X2.000000*%
G04 #@! TD*
G04 #@! TA.AperFunction,SMDPad,CuDef*
%ADD18RoundRect,0.200000X-0.275000X0.200000X-0.275000X-0.200000X0.275000X-0.200000X0.275000X0.200000X0*%
G04 #@! TD*
G04 #@! TA.AperFunction,SMDPad,CuDef*
%ADD19FreePoly0,270.000000*%
G04 #@! TD*
G04 #@! TA.AperFunction,SMDPad,CuDef*
%ADD20R,1.500000X1.000000*%
G04 #@! TD*
G04 #@! TA.AperFunction,SMDPad,CuDef*
%ADD21FreePoly1,270.000000*%
G04 #@! TD*
G04 #@! TA.AperFunction,SMDPad,CuDef*
%ADD22RoundRect,0.135000X0.185000X-0.135000X0.185000X0.135000X-0.185000X0.135000X-0.185000X-0.135000X0*%
G04 #@! TD*
G04 #@! TA.AperFunction,SMDPad,CuDef*
%ADD23RoundRect,0.200000X-0.200000X-0.275000X0.200000X-0.275000X0.200000X0.275000X-0.200000X0.275000X0*%
G04 #@! TD*
G04 #@! TA.AperFunction,SMDPad,CuDef*
%ADD24RoundRect,0.200000X0.200000X0.275000X-0.200000X0.275000X-0.200000X-0.275000X0.200000X-0.275000X0*%
G04 #@! TD*
G04 #@! TA.AperFunction,SMDPad,CuDef*
%ADD25RoundRect,0.250000X0.250000X1.150000X-0.250000X1.150000X-0.250000X-1.150000X0.250000X-1.150000X0*%
G04 #@! TD*
G04 #@! TA.AperFunction,SMDPad,CuDef*
%ADD26RoundRect,0.150000X0.150000X0.700000X-0.150000X0.700000X-0.150000X-0.700000X0.150000X-0.700000X0*%
G04 #@! TD*
G04 #@! TA.AperFunction,ComponentPad*
%ADD27O,0.800000X1.300000*%
G04 #@! TD*
G04 #@! TA.AperFunction,ComponentPad*
%ADD28RoundRect,0.200000X0.200000X0.450000X-0.200000X0.450000X-0.200000X-0.450000X0.200000X-0.450000X0*%
G04 #@! TD*
G04 #@! TA.AperFunction,ViaPad*
%ADD29C,0.700000*%
G04 #@! TD*
G04 #@! TA.AperFunction,Conductor*
%ADD30C,0.500000*%
G04 #@! TD*
G04 #@! TA.AperFunction,Conductor*
%ADD31C,0.200000*%
G04 #@! TD*
G04 #@! TA.AperFunction,Conductor*
%ADD32C,0.300000*%
G04 #@! TD*
G04 APERTURE END LIST*
D10*
X131200000Y-54637500D03*
X130700000Y-54637500D03*
D11*
X130187500Y-54625000D03*
X130187500Y-54125000D03*
X130187500Y-53625000D03*
X130187500Y-53125000D03*
D10*
X130700000Y-53112500D03*
X131200000Y-53112500D03*
D11*
X131712500Y-53125000D03*
X131712500Y-53625000D03*
X131712500Y-54125000D03*
X131712500Y-54625000D03*
D12*
X140950000Y-50810000D03*
D13*
X139785000Y-51225000D03*
X139785000Y-51725000D03*
X139785000Y-52225000D03*
X139785000Y-52725000D03*
X139785000Y-53225000D03*
X139785000Y-53725000D03*
X139785000Y-54225000D03*
D12*
X140950000Y-54640000D03*
D13*
X142115000Y-54225000D03*
X142115000Y-53725000D03*
X142115000Y-53225000D03*
X142115000Y-52725000D03*
X142115000Y-52225000D03*
X142115000Y-51725000D03*
X142115000Y-51225000D03*
D14*
X144910000Y-54750000D03*
X143890000Y-54750000D03*
D15*
X139760000Y-45345000D03*
X137220000Y-45345000D03*
D16*
X149950000Y-50425000D03*
X149950000Y-52965000D03*
X149950000Y-55505000D03*
X149950000Y-58045000D03*
X149950000Y-60585000D03*
X149950000Y-63125000D03*
X121950000Y-63125000D03*
X121950000Y-60585000D03*
X121950000Y-58045000D03*
X121950000Y-55505000D03*
X121950000Y-52965000D03*
X121950000Y-50425000D03*
D15*
X134680000Y-45345000D03*
D17*
X132140000Y-45345000D03*
D18*
X138350000Y-54600000D03*
X138350000Y-52950000D03*
D19*
X134582500Y-61740000D03*
D20*
X134582500Y-60440000D03*
D21*
X134582500Y-59140000D03*
D22*
X138075000Y-50640000D03*
X138075000Y-51660000D03*
D23*
X131925000Y-50150000D03*
X130275000Y-50150000D03*
X131925000Y-51725000D03*
X130275000Y-51725000D03*
D24*
X124575000Y-60575000D03*
X126225000Y-60575000D03*
X124575000Y-63125000D03*
X126225000Y-63125000D03*
D18*
X133125000Y-53200000D03*
X133125000Y-54850000D03*
D25*
X126050000Y-71275000D03*
X133500000Y-71275000D03*
D26*
X127900000Y-67925000D03*
X127900000Y-69200000D03*
D27*
X127900000Y-70325000D03*
D26*
X129150000Y-67925000D03*
X129150000Y-69200000D03*
D27*
X129150000Y-70325000D03*
D26*
X130400000Y-67925000D03*
X130400000Y-69200000D03*
D27*
X130400000Y-70325000D03*
D26*
X131650000Y-67925000D03*
X131650000Y-69200000D03*
D28*
X131650000Y-70325000D03*
D25*
X135900000Y-71275000D03*
X145850000Y-71275000D03*
D27*
X137745000Y-70325000D03*
D26*
X137750000Y-67925000D03*
X137750000Y-69150000D03*
D27*
X138995000Y-70325000D03*
D26*
X139000000Y-67925000D03*
X139000000Y-69150000D03*
D27*
X140245000Y-70325000D03*
D26*
X140250000Y-67925000D03*
X140250000Y-69150000D03*
D27*
X141495000Y-70325000D03*
D26*
X141500000Y-67925000D03*
X141500000Y-69150000D03*
D27*
X142745000Y-70325000D03*
D26*
X142750000Y-67925000D03*
X142750000Y-69150000D03*
D28*
X143995000Y-70325000D03*
D26*
X144000000Y-67925000D03*
X144000000Y-69150000D03*
D18*
X143550000Y-52975000D03*
X143550000Y-51325000D03*
D19*
X137275000Y-61750000D03*
D20*
X137275000Y-60450000D03*
D21*
X137275000Y-59150000D03*
D29*
X141150000Y-51700000D03*
X130299999Y-64000000D03*
X143500000Y-45800000D03*
X141630160Y-73520000D03*
X135630160Y-67520000D03*
X125630160Y-51520000D03*
X123630160Y-69520000D03*
X145500000Y-45800000D03*
X128300000Y-64000000D03*
X125630160Y-67520000D03*
X145630160Y-67520000D03*
X125630160Y-55520000D03*
X143630160Y-73520000D03*
X133630160Y-67520000D03*
X129630160Y-45520000D03*
X149630160Y-67520000D03*
X123630160Y-67520000D03*
X147630160Y-69520000D03*
X125630160Y-53520000D03*
X132300000Y-64000000D03*
X121630160Y-69520000D03*
X141630160Y-57520000D03*
X139630160Y-73520000D03*
X127630160Y-45520000D03*
X149630160Y-65520000D03*
X121630160Y-65520000D03*
X139630160Y-61520000D03*
X125630160Y-57520000D03*
X127630160Y-51520000D03*
X121630160Y-67520000D03*
X149630160Y-69520000D03*
X143630160Y-57520000D03*
X147630160Y-67520000D03*
X129650000Y-57375000D03*
X132025000Y-57400000D03*
X132837500Y-51725000D03*
X143025000Y-53700000D03*
X138900000Y-50900000D03*
X144900000Y-55575000D03*
X131200000Y-55500000D03*
X132837500Y-50150000D03*
X144575000Y-52975000D03*
X133125000Y-55700000D03*
X138325000Y-55450000D03*
X143550000Y-48300000D03*
X127075000Y-60600000D03*
X143575000Y-50575000D03*
X127075000Y-63100000D03*
X135600000Y-56625000D03*
X135625000Y-58049500D03*
X147900000Y-58925000D03*
X137300000Y-62825000D03*
X134600000Y-62825000D03*
D30*
X134680000Y-47850000D02*
X135130000Y-48300000D01*
X135450000Y-48300000D02*
X135130000Y-48300000D01*
X136550000Y-48300000D02*
X135450000Y-48300000D01*
X143550000Y-48300000D02*
X136550000Y-48300000D01*
D31*
X141528545Y-54628545D02*
X141547646Y-54647653D01*
X141547657Y-54647642D02*
G75*
G03*
X141794668Y-54750000I247043J246942D01*
G01*
X141483558Y-53286400D02*
G75*
G03*
X141425000Y-53427843I141442J-141400D01*
G01*
X141425018Y-54378564D02*
G75*
G03*
X141528545Y-54628545I353482J-36D01*
G01*
X141627886Y-53224989D02*
G75*
G03*
X141486422Y-53283578I14J-200111D01*
G01*
X147607114Y-60692900D02*
G75*
G03*
X147900000Y-59985786I-707114J707100D01*
G01*
X148207114Y-61192900D02*
G75*
G03*
X148500000Y-60485786I-707114J707100D01*
G01*
X148792886Y-59202100D02*
G75*
G03*
X148500000Y-59909214I707114J-707100D01*
G01*
X149139214Y-63125010D02*
G75*
G03*
X148432107Y-63417893I-14J-999990D01*
G01*
X143271573Y-64199980D02*
G75*
G03*
X144685785Y-63614213I27J1999980D01*
G01*
X144596573Y-66424980D02*
G75*
G03*
X146010785Y-65839213I27J1999980D01*
G01*
X143571573Y-64999980D02*
G75*
G03*
X144985786Y-64414212I27J1999980D01*
G01*
X144171573Y-65724980D02*
G75*
G03*
X145585785Y-65139213I27J1999980D01*
G01*
X143742899Y-66424984D02*
G75*
G03*
X142986777Y-66738223I1J-1069216D01*
G01*
X142986752Y-66738198D02*
G75*
G03*
X142750000Y-67309852I571648J-571602D01*
G01*
X143168607Y-65725001D02*
G75*
G03*
X141984545Y-66215455I-7J-1674499D01*
G01*
X141907085Y-66292859D02*
G75*
G03*
X141500000Y-67275745I982915J-982841D01*
G01*
X142510008Y-65000017D02*
G75*
G03*
X140871172Y-65678830I-8J-2317683D01*
G01*
X140769380Y-65780596D02*
G75*
G03*
X140250000Y-67034533I1253920J-1253904D01*
G01*
X139656198Y-65068798D02*
G75*
G03*
X139000000Y-66653008I1584202J-1584202D01*
G01*
X141737905Y-64200001D02*
G75*
G03*
X139667346Y-65057656I-5J-2928199D01*
G01*
X148432107Y-63417893D02*
X146010786Y-65839214D01*
X144596573Y-66425000D02*
X143742899Y-66425000D01*
X142750000Y-67309852D02*
X142750000Y-67925000D01*
X149950000Y-63125000D02*
X149139214Y-63125000D01*
X141500000Y-67275745D02*
X141500000Y-67925000D01*
X144171573Y-65725000D02*
X143168607Y-65725000D01*
X149950000Y-60775000D02*
X145585786Y-65139214D01*
X149950000Y-60585000D02*
X149950000Y-60775000D01*
X141984545Y-66215455D02*
X141907113Y-66292887D01*
X148792893Y-59202107D02*
X149950000Y-58045000D01*
X148500000Y-60485786D02*
X148500000Y-59909214D01*
X144985787Y-64414213D02*
X148207107Y-61192893D01*
X142510008Y-65000000D02*
X143571573Y-65000000D01*
X140250000Y-67925000D02*
X140250000Y-67034533D01*
X140769392Y-65780608D02*
X140871171Y-65678829D01*
X139000000Y-66653008D02*
X139000000Y-67925000D01*
X139667345Y-65057655D02*
X139656200Y-65068800D01*
X147607107Y-60692893D02*
X144685786Y-63614214D01*
X143271573Y-64200000D02*
X141737905Y-64200000D01*
X147900000Y-58925000D02*
X147900000Y-59985786D01*
D30*
X138358745Y-64291295D02*
G75*
G03*
X137750000Y-65760867I1469555J-1469605D01*
G01*
X144748512Y-62201544D02*
G75*
G03*
X145700000Y-59904353I-2297212J2297144D01*
G01*
X142563078Y-63299973D02*
G75*
G03*
X144418569Y-62531431I22J2624073D01*
G01*
X140552440Y-63300015D02*
G75*
G03*
X138499745Y-64150255I-40J-2902885D01*
G01*
X145700000Y-59904353D02*
X145700000Y-54300000D01*
X144418569Y-62531431D02*
X144748484Y-62201516D01*
X140552440Y-63300000D02*
X142563078Y-63300000D01*
X138358725Y-64291275D02*
X138499745Y-64150255D01*
X137750000Y-67925000D02*
X137750000Y-65760867D01*
D31*
X143147710Y-54350007D02*
G75*
G03*
X143501264Y-54203553I-10J500007D01*
G01*
X144061924Y-53850017D02*
G75*
G03*
X143708371Y-53996446I-24J-499983D01*
G01*
D30*
X145292900Y-51617886D02*
G75*
G03*
X144585786Y-51325000I-707100J-707114D01*
G01*
X145699990Y-52439214D02*
G75*
G03*
X145407107Y-51732107I-999990J14D01*
G01*
D31*
X147707801Y-57482843D02*
G75*
G03*
X149065041Y-58045000I1357199J1357243D01*
G01*
X147000022Y-55773982D02*
G75*
G03*
X147707823Y-57482821I2416678J-18D01*
G01*
X149065041Y-58045000D02*
X149950000Y-58045000D01*
X146542893Y-50017893D02*
X146707107Y-50182107D01*
X141989214Y-49725000D02*
X145835786Y-49725000D01*
X140950000Y-50810000D02*
X140950000Y-50557107D01*
X141989214Y-49725010D02*
G75*
G03*
X141282107Y-50017893I-14J-999990D01*
G01*
X146542900Y-50017886D02*
G75*
G03*
X145835786Y-49725000I-707100J-707114D01*
G01*
X141096444Y-50203550D02*
G75*
G03*
X140950000Y-50557107I353556J-353550D01*
G01*
X146999990Y-50889214D02*
G75*
G03*
X146707107Y-50182107I-999990J14D01*
G01*
X147000000Y-50889214D02*
X147000000Y-55773982D01*
X141096447Y-50203553D02*
X141282107Y-50017893D01*
X147749968Y-50627738D02*
G75*
G03*
X147341478Y-49641478I-1394768J38D01*
G01*
X147280749Y-49580759D02*
G75*
G03*
X146120111Y-49100000I-1160649J-1160641D01*
G01*
X148231551Y-55181567D02*
G75*
G03*
X149012416Y-55505000I780849J780867D01*
G01*
X147749975Y-54161930D02*
G75*
G03*
X148130474Y-55080472I1299025J30D01*
G01*
X149012416Y-55505000D02*
X149950000Y-55505000D01*
X148130473Y-55080473D02*
X148231559Y-55181559D01*
X147750000Y-50627738D02*
X147750000Y-54161930D01*
X147280754Y-49580754D02*
X147341478Y-49641478D01*
X138007997Y-49100000D02*
X146120111Y-49100000D01*
X137429250Y-49370750D02*
X137482213Y-49317787D01*
X137200000Y-51643136D02*
X137200000Y-49924209D01*
X137428915Y-52078915D02*
X137346276Y-51996276D01*
X138638212Y-52230000D02*
X137793667Y-52230000D01*
X139252451Y-52637132D02*
X138991765Y-52376446D01*
X137199971Y-51643136D02*
G75*
G03*
X137346276Y-51996276I499429J36D01*
G01*
X137428939Y-52078891D02*
G75*
G03*
X137793667Y-52230000I364761J364691D01*
G01*
X138007997Y-49100007D02*
G75*
G03*
X137482213Y-49317787I3J-743593D01*
G01*
X137429248Y-49370748D02*
G75*
G03*
X137200000Y-49924209I553452J-553452D01*
G01*
X138991759Y-52376452D02*
G75*
G03*
X138638212Y-52230000I-353559J-353548D01*
G01*
X139785000Y-52725000D02*
X139464583Y-52725000D01*
X139252459Y-52637124D02*
G75*
G03*
X139464583Y-52725000I212141J212124D01*
G01*
D30*
X131564214Y-48300010D02*
G75*
G03*
X130857107Y-48592893I-14J-999990D01*
G01*
X130567886Y-48882100D02*
G75*
G03*
X130275000Y-49589214I707114J-707100D01*
G01*
X130567893Y-48882107D02*
X130857107Y-48592893D01*
X131564214Y-48300000D02*
X133475000Y-48300000D01*
X130275000Y-50150000D02*
X130275000Y-49589214D01*
X135204540Y-52604504D02*
G75*
G03*
X136038579Y-52950000I834060J834004D01*
G01*
X134680024Y-51514277D02*
G75*
G03*
X135080028Y-52480026I1365776J-23D01*
G01*
D31*
X139492114Y-55257900D02*
G75*
G03*
X139785000Y-54550786I-707114J707100D01*
G01*
X137132909Y-56625012D02*
G75*
G03*
X138826514Y-55923486I-9J2395112D01*
G01*
X139867886Y-55722100D02*
G75*
G03*
X139575000Y-56429214I707114J-707100D01*
G01*
X139131434Y-60068510D02*
G75*
G03*
X139575000Y-58997743I-1070734J1070810D01*
G01*
X138260545Y-60450016D02*
G75*
G03*
X139096096Y-60103902I-45J1181716D01*
G01*
X135449060Y-60025958D02*
G75*
G03*
X135625000Y-59601171I-424760J424758D01*
G01*
X135625000Y-59601171D02*
X135625000Y-58049500D01*
X135035000Y-60440000D02*
X135449051Y-60025949D01*
X134582500Y-60440000D02*
X135035000Y-60440000D01*
X132025025Y-55449264D02*
G75*
G03*
X131937132Y-55237132I-300025J-36D01*
G01*
X131712475Y-54888236D02*
G75*
G03*
X131800368Y-55100368I300025J36D01*
G01*
X130612114Y-55137850D02*
G75*
G03*
X130700000Y-54925736I-212114J212150D01*
G01*
X130462886Y-55287150D02*
G75*
G03*
X130375000Y-55499264I212114J-212150D01*
G01*
X129117886Y-52207100D02*
G75*
G03*
X128825000Y-52914214I707114J-707100D01*
G01*
X130014214Y-51725010D02*
G75*
G03*
X129307107Y-52017893I-14J-999990D01*
G01*
X128825000Y-52914214D02*
X128825000Y-53925000D01*
X129307107Y-52017893D02*
X129117893Y-52207107D01*
X130275000Y-51725000D02*
X130014214Y-51725000D01*
X127585786Y-60599990D02*
G75*
G03*
X128292893Y-60307107I14J999990D01*
G01*
X128532114Y-60067900D02*
G75*
G03*
X128825000Y-59360786I-707114J707100D01*
G01*
X128235287Y-61499985D02*
G75*
G03*
X129156636Y-61118364I13J1302985D01*
G01*
X129240024Y-61034950D02*
G75*
G03*
X129650000Y-60045224I-989724J989750D01*
G01*
X125207107Y-61207107D02*
X124575000Y-60575000D01*
X128235287Y-61500000D02*
X125914214Y-61500000D01*
X129240037Y-61034963D02*
X129156636Y-61118364D01*
X129650000Y-57375000D02*
X129650000Y-60045224D01*
X125207100Y-61207114D02*
G75*
G03*
X125914214Y-61500000I707100J707114D01*
G01*
X136867900Y-57692886D02*
G75*
G03*
X136160786Y-57400000I-707100J-707114D01*
G01*
X137274990Y-58514214D02*
G75*
G03*
X136982107Y-57807107I-999990J14D01*
G01*
X136467886Y-59407100D02*
G75*
G03*
X136175000Y-60114214I707114J-707100D01*
G01*
X133974214Y-59140010D02*
G75*
G03*
X133267107Y-59432893I-14J-999990D01*
G01*
X133192886Y-59507100D02*
G75*
G03*
X132900000Y-60214214I707114J-707100D01*
G01*
X132607114Y-61692900D02*
G75*
G03*
X132900000Y-60985786I-707114J707100D01*
G01*
X131785786Y-62099990D02*
G75*
G03*
X132492893Y-61807107I14J999990D01*
G01*
X133974214Y-59140000D02*
X134582500Y-59140000D01*
X133192893Y-59507107D02*
X133267107Y-59432893D01*
X132492893Y-61807107D02*
X132607107Y-61692893D01*
X130575000Y-62100000D02*
X131785786Y-62100000D01*
X132900000Y-60985786D02*
X132900000Y-60214214D01*
X126014214Y-62100010D02*
G75*
G03*
X125307107Y-62392893I-14J-999990D01*
G01*
D30*
X136660786Y-73274990D02*
G75*
G03*
X137367893Y-72982107I14J999990D01*
G01*
X128407100Y-72982114D02*
G75*
G03*
X129114214Y-73275000I707100J707114D01*
G01*
X137452114Y-72897900D02*
G75*
G03*
X137745000Y-72190786I-707114J707100D01*
G01*
X127900010Y-72060786D02*
G75*
G03*
X128192893Y-72767893I999990J-14D01*
G01*
X137367893Y-72982107D02*
X137452107Y-72897893D01*
X129114214Y-73275000D02*
X136660786Y-73275000D01*
X128192893Y-72767893D02*
X128407107Y-72982107D01*
X137745000Y-72190786D02*
X137745000Y-70325000D01*
X127900000Y-70325000D02*
X127900000Y-72060786D01*
D31*
X131489214Y-65450010D02*
G75*
G03*
X130782107Y-65742893I-14J-999990D01*
G01*
X130692886Y-65832100D02*
G75*
G03*
X130400000Y-66539214I707114J-707100D01*
G01*
X135882114Y-64942900D02*
G75*
G03*
X136175000Y-64235786I-707114J707100D01*
G01*
X134960786Y-65449990D02*
G75*
G03*
X135667893Y-65157107I14J999990D01*
G01*
X125032100Y-65207114D02*
G75*
G03*
X125739214Y-65500000I707100J707114D01*
G01*
X124575010Y-64335786D02*
G75*
G03*
X124867893Y-65042893I999990J-14D01*
G01*
X129149990Y-66564214D02*
G75*
G03*
X128857107Y-65857107I-999990J14D01*
G01*
X128792900Y-65792886D02*
G75*
G03*
X128085786Y-65500000I-707100J-707114D01*
G01*
X136725000Y-59150000D02*
X137275000Y-59150000D01*
X136467893Y-59407107D02*
X136725000Y-59150000D01*
X130692893Y-65832107D02*
X130782107Y-65742893D01*
X131489214Y-65450000D02*
X134960786Y-65450000D01*
X136175000Y-64235786D02*
X136175000Y-60114214D01*
X130400000Y-67925000D02*
X130400000Y-66539214D01*
X135667893Y-65157107D02*
X135882107Y-64942893D01*
X129150000Y-66564214D02*
X129150000Y-67925000D01*
X128792893Y-65792893D02*
X128857107Y-65857107D01*
X125739214Y-65500000D02*
X128085786Y-65500000D01*
X124867893Y-65042893D02*
X125032107Y-65207107D01*
X124575000Y-63125000D02*
X124575000Y-64335786D01*
X137275000Y-58514214D02*
X137275000Y-59150000D01*
X132025000Y-57400000D02*
X136160786Y-57400000D01*
X131712500Y-54625000D02*
X131712500Y-54888236D01*
X124575000Y-60575000D02*
X124565000Y-60585000D01*
X124565000Y-60585000D02*
X121950000Y-60585000D01*
X136867893Y-57692893D02*
X136982107Y-57807107D01*
X132025000Y-55449264D02*
X132025000Y-57400000D01*
X131800368Y-55100368D02*
X131937132Y-55237132D01*
D30*
X143550000Y-52975000D02*
X143300000Y-52725000D01*
X138337501Y-54450000D02*
X138762501Y-54025000D01*
D31*
X141625000Y-51725000D02*
X142115000Y-51725000D01*
X139225000Y-51225000D02*
X138900000Y-50900000D01*
X131712500Y-54125000D02*
X132250000Y-54125000D01*
D32*
X132637500Y-54362500D02*
X132400000Y-54125000D01*
D31*
X139785000Y-51225000D02*
X139225000Y-51225000D01*
X142115000Y-53725000D02*
X143000000Y-53725000D01*
X142115000Y-52725000D02*
X142625000Y-52725000D01*
X131712500Y-54125000D02*
X131712500Y-53625000D01*
D30*
X143550000Y-52975000D02*
X143550000Y-53175000D01*
D32*
X132400000Y-54125000D02*
X132250000Y-54125000D01*
D30*
X143300000Y-52725000D02*
X142975000Y-52725000D01*
D31*
X138075000Y-50640000D02*
X138640000Y-50640000D01*
X131200000Y-54637500D02*
X131200000Y-55500000D01*
D30*
X143550000Y-53175000D02*
X143025000Y-53700000D01*
D31*
X133125000Y-54850000D02*
X133125000Y-55700000D01*
D32*
X139062501Y-53725000D02*
X139175000Y-53725000D01*
D31*
X138640000Y-50640000D02*
X138900000Y-50900000D01*
D30*
X133125000Y-54850000D02*
X132637500Y-54362500D01*
D32*
X138337501Y-54587501D02*
X138337501Y-54450000D01*
X138350000Y-54600000D02*
X138337501Y-54587501D01*
D31*
X142115000Y-52725000D02*
X141650000Y-52725000D01*
X139785000Y-53725000D02*
X139175000Y-53725000D01*
D32*
X138762501Y-54025000D02*
X139062501Y-53725000D01*
D31*
X143000000Y-53725000D02*
X143025000Y-53700000D01*
D32*
X142975000Y-52725000D02*
X142625000Y-52725000D01*
D30*
X145700000Y-53500000D02*
X145700000Y-52439214D01*
D31*
X128825000Y-54550000D02*
X128825000Y-59360786D01*
X128825000Y-54125000D02*
X128825000Y-54550000D01*
X145350000Y-53850000D02*
X145700000Y-53500000D01*
D30*
X134680000Y-45345000D02*
X134680000Y-47475000D01*
D31*
X128825000Y-54325000D02*
X129025000Y-54125000D01*
D30*
X143575000Y-50575000D02*
X143575000Y-51300000D01*
X134230000Y-48300000D02*
X134680000Y-47850000D01*
D31*
X144061924Y-53850000D02*
X145350000Y-53850000D01*
X128825000Y-54550000D02*
X128825000Y-54325000D01*
D30*
X144585786Y-51325000D02*
X143550000Y-51325000D01*
D31*
X129100000Y-54125000D02*
X129025000Y-54125000D01*
X142650000Y-52225000D02*
X142787500Y-52087500D01*
X142240000Y-54350000D02*
X143147710Y-54350000D01*
X139785000Y-53225000D02*
X139200000Y-53225000D01*
D30*
X135130000Y-48300000D02*
X134680000Y-48750000D01*
X130700000Y-52150000D02*
X130700000Y-52425000D01*
D31*
X126250000Y-60600000D02*
X126225000Y-60575000D01*
D30*
X133475000Y-48300000D02*
X134230000Y-48300000D01*
X130275000Y-51725000D02*
X130275000Y-50150000D01*
D31*
X142115000Y-52225000D02*
X142650000Y-52225000D01*
X127585786Y-60600000D02*
X127075000Y-60600000D01*
D32*
X143025000Y-51850000D02*
X142787500Y-52087500D01*
X138350000Y-52950000D02*
X138400000Y-52900000D01*
X138737501Y-52900000D02*
X139062501Y-53225000D01*
D30*
X134680000Y-48300000D02*
X134680000Y-48750000D01*
D31*
X130700000Y-53112500D02*
X130700000Y-52725000D01*
D32*
X139062501Y-53225000D02*
X139200000Y-53225000D01*
D31*
X139062501Y-53225000D02*
X138837501Y-53000000D01*
D30*
X143550000Y-51325000D02*
X143025000Y-51850000D01*
D32*
X138400000Y-52900000D02*
X138737501Y-52900000D01*
D30*
X133475000Y-48300000D02*
X134680000Y-48300000D01*
D31*
X127075000Y-60600000D02*
X126250000Y-60600000D01*
D30*
X135080027Y-52480027D02*
X135204522Y-52604522D01*
D31*
X128825000Y-53925000D02*
X128825000Y-54125000D01*
D30*
X134680000Y-47475000D02*
X134680000Y-48300000D01*
X145407107Y-51732107D02*
X145292893Y-51617893D01*
D31*
X145350000Y-53850000D02*
X145700000Y-54200000D01*
D30*
X134680000Y-47475000D02*
X134680000Y-47850000D01*
D31*
X129025000Y-54125000D02*
X128825000Y-53925000D01*
D30*
X134680000Y-48750000D02*
X134680000Y-51514277D01*
X130275000Y-51725000D02*
X130700000Y-52150000D01*
D31*
X127050000Y-63125000D02*
X127075000Y-63100000D01*
X130187500Y-54625000D02*
X130187500Y-54125000D01*
X130700000Y-53112500D02*
X131200000Y-53112500D01*
X145700000Y-54200000D02*
X145700000Y-54300000D01*
D30*
X143575000Y-51300000D02*
X143550000Y-51325000D01*
X134230000Y-48300000D02*
X134680000Y-48750000D01*
D31*
X142115000Y-54225000D02*
X142240000Y-54350000D01*
X128532107Y-60067893D02*
X128292893Y-60307107D01*
X126225000Y-63125000D02*
X127050000Y-63125000D01*
X143501264Y-54203553D02*
X143708371Y-53996446D01*
D30*
X135450000Y-48300000D02*
X134680000Y-48300000D01*
X145700000Y-54300000D02*
X145700000Y-53500000D01*
D31*
X130187500Y-54125000D02*
X129100000Y-54125000D01*
D30*
X136038579Y-52950000D02*
X138350000Y-52950000D01*
D32*
X130700000Y-52425000D02*
X130700000Y-52725000D01*
D31*
X129100000Y-54125000D02*
X128825000Y-54125000D01*
X130375000Y-61775000D02*
X130375000Y-61900000D01*
X125307107Y-62392893D02*
X124575000Y-63125000D01*
X124575000Y-63125000D02*
X121950000Y-63125000D01*
X130375000Y-55499264D02*
X130375000Y-61775000D01*
X130375000Y-61900000D02*
X130575000Y-62100000D01*
X130175000Y-62100000D02*
X130375000Y-61900000D01*
X130612132Y-55137868D02*
X130462868Y-55287132D01*
X130700000Y-54637500D02*
X130700000Y-54925736D01*
X130375000Y-61775000D02*
X130375000Y-62100000D01*
X130575000Y-62100000D02*
X130375000Y-62100000D01*
X130375000Y-62100000D02*
X129975000Y-62100000D01*
X129975000Y-62100000D02*
X130175000Y-62100000D01*
X129975000Y-62100000D02*
X126014214Y-62100000D01*
X139096097Y-60103903D02*
X139131462Y-60068538D01*
X139575000Y-58997743D02*
X139575000Y-56429214D01*
X137275000Y-60450000D02*
X138260545Y-60450000D01*
X139867893Y-55722107D02*
X140950000Y-54640000D01*
X138826514Y-55923486D02*
X139492107Y-55257893D01*
X139785000Y-54550786D02*
X139785000Y-54225000D01*
X135600000Y-56625000D02*
X137132909Y-56625000D01*
X140495000Y-67180000D02*
X140495000Y-70325000D01*
X149950000Y-58825000D02*
X149950000Y-58045000D01*
X137275000Y-62800000D02*
X137300000Y-62825000D01*
X137275000Y-61750000D02*
X137275000Y-62800000D01*
X134582500Y-61740000D02*
X134582500Y-62807500D01*
X134582500Y-62807500D02*
X134600000Y-62825000D01*
X132100000Y-53125000D02*
X131712500Y-53125000D01*
D32*
X132400000Y-53125000D02*
X132100000Y-53125000D01*
D30*
X133125000Y-53200000D02*
X133050000Y-53125000D01*
X133050000Y-53125000D02*
X132400000Y-53125000D01*
D31*
X141483579Y-53286421D02*
X141486422Y-53283578D01*
X143890000Y-54750000D02*
X141794668Y-54750000D01*
X141627886Y-53225000D02*
X142115000Y-53225000D01*
X141425000Y-54378564D02*
X141425000Y-53427843D01*
X138140000Y-51725000D02*
X138075000Y-51660000D01*
X139785000Y-51725000D02*
X138140000Y-51725000D01*
G04 #@! TA.AperFunction,Conductor*
G36*
X132649025Y-52877857D02*
G01*
X132652944Y-52885031D01*
X132662790Y-52953400D01*
X132687259Y-53123332D01*
X132687259Y-53126668D01*
X132680836Y-53171277D01*
X132654611Y-53353400D01*
X132652945Y-53364968D01*
X132649025Y-53372143D01*
X132641364Y-53375000D01*
X132401766Y-53375000D01*
X132401221Y-53374987D01*
X132342046Y-53372229D01*
X132340793Y-53372103D01*
X132293202Y-53364703D01*
X132291880Y-53364418D01*
X132262688Y-53356340D01*
X132252633Y-53353558D01*
X132251515Y-53353186D01*
X132217522Y-53339928D01*
X132216875Y-53339653D01*
X132185125Y-53325000D01*
X132153057Y-53310199D01*
X132118185Y-53296598D01*
X132077954Y-53285466D01*
X132077503Y-53285332D01*
X132041866Y-53273911D01*
X132011565Y-53264200D01*
X132000000Y-53200000D01*
X131925000Y-53150000D01*
X131893751Y-53125000D01*
X131946251Y-53075000D01*
X131975000Y-53050000D01*
X132011565Y-52985799D01*
X132077517Y-52964663D01*
X132077926Y-52964541D01*
X132118188Y-52953400D01*
X132153057Y-52939800D01*
X132185125Y-52925000D01*
X132216871Y-52910348D01*
X132217521Y-52910072D01*
X132251508Y-52896815D01*
X132252640Y-52896439D01*
X132291888Y-52885579D01*
X132293194Y-52885297D01*
X132340803Y-52877894D01*
X132342035Y-52877771D01*
X132401221Y-52875012D01*
X132401766Y-52875000D01*
X132641364Y-52875000D01*
X132649025Y-52877857D01*
G37*
G04 #@! TD.AperFunction*
G04 #@! TA.AperFunction,Conductor*
G36*
X132523029Y-54021190D02*
G01*
X132559568Y-54041889D01*
X132593841Y-54056929D01*
X132626981Y-54069139D01*
X132660122Y-54081349D01*
X132694395Y-54096389D01*
X132730934Y-54117088D01*
X132770870Y-54146277D01*
X132815337Y-54186784D01*
X132992113Y-54363560D01*
X132840793Y-54565793D01*
X132638560Y-54717113D01*
X132461784Y-54540337D01*
X132421277Y-54495870D01*
X132392088Y-54455934D01*
X132371389Y-54419395D01*
X132356349Y-54385122D01*
X132344139Y-54351981D01*
X132331929Y-54318841D01*
X132316889Y-54284568D01*
X132296190Y-54248029D01*
X132267001Y-54208093D01*
X132226495Y-54163627D01*
X132210586Y-54147718D01*
X132279528Y-54004528D01*
X132350000Y-54025000D01*
X132400000Y-54025000D01*
X132450000Y-53992001D01*
X132523029Y-54021190D01*
G37*
G04 #@! TD.AperFunction*
G04 #@! TA.AperFunction,Conductor*
G36*
X139200230Y-53075008D02*
G01*
X139235388Y-53076379D01*
X139236418Y-53076466D01*
X139259094Y-53079405D01*
X139264663Y-53080127D01*
X139265778Y-53080327D01*
X139289116Y-53085688D01*
X139290088Y-53085956D01*
X139310399Y-53092507D01*
X139310971Y-53092708D01*
X139330123Y-53099999D01*
X139330124Y-53100000D01*
X139349560Y-53107400D01*
X139370644Y-53114199D01*
X139395021Y-53119800D01*
X139424341Y-53123600D01*
X139433317Y-53123949D01*
X139460246Y-53125000D01*
X139460249Y-53125000D01*
X139550022Y-53125000D01*
X139557722Y-53127891D01*
X139561617Y-53135135D01*
X139573536Y-53223435D01*
X139573536Y-53226565D01*
X139561617Y-53314865D01*
X139557722Y-53322109D01*
X139550022Y-53325000D01*
X139460246Y-53325000D01*
X139424342Y-53326399D01*
X139395021Y-53330200D01*
X139370639Y-53335801D01*
X139349559Y-53342600D01*
X139330124Y-53349999D01*
X139330124Y-53350000D01*
X139320645Y-53353608D01*
X139310970Y-53357292D01*
X139310399Y-53357492D01*
X139290088Y-53364042D01*
X139289117Y-53364310D01*
X139265779Y-53369673D01*
X139264663Y-53369873D01*
X139236427Y-53373532D01*
X139235379Y-53373620D01*
X139200231Y-53374991D01*
X139199775Y-53375000D01*
X139185801Y-53375000D01*
X139179031Y-53372842D01*
X139174758Y-53367165D01*
X139156453Y-53314865D01*
X139126352Y-53228863D01*
X139126352Y-53221137D01*
X139171373Y-53092507D01*
X139174758Y-53082835D01*
X139179031Y-53077158D01*
X139185801Y-53075000D01*
X139199775Y-53075000D01*
X139200230Y-53075008D01*
G37*
G04 #@! TD.AperFunction*
G04 #@! TA.AperFunction,Conductor*
G36*
X130947368Y-52181531D02*
G01*
X130954543Y-52185451D01*
X130957400Y-52193112D01*
X130957400Y-52432710D01*
X130957387Y-52433255D01*
X130954629Y-52492428D01*
X130954503Y-52493681D01*
X130947103Y-52541272D01*
X130946818Y-52542594D01*
X130935959Y-52581838D01*
X130935583Y-52582970D01*
X130922330Y-52616948D01*
X130922053Y-52617599D01*
X130907400Y-52649350D01*
X130892599Y-52681417D01*
X130878998Y-52716289D01*
X130868046Y-52755871D01*
X130867417Y-52757601D01*
X130832397Y-52834477D01*
X130782400Y-52865725D01*
X130757400Y-52888225D01*
X130707400Y-52940725D01*
X130650000Y-52925000D01*
X130625000Y-52875000D01*
X130560821Y-52813455D01*
X130560697Y-52813016D01*
X130547000Y-52756761D01*
X130535800Y-52716287D01*
X130522200Y-52681418D01*
X130507400Y-52649350D01*
X130492749Y-52617604D01*
X130492472Y-52616953D01*
X130479215Y-52582966D01*
X130478839Y-52581834D01*
X130467981Y-52542594D01*
X130467696Y-52541272D01*
X130460296Y-52493681D01*
X130460170Y-52492437D01*
X130457412Y-52433254D01*
X130457400Y-52432710D01*
X130457400Y-52193112D01*
X130460257Y-52185451D01*
X130467431Y-52181531D01*
X130705733Y-52147216D01*
X130709067Y-52147216D01*
X130947368Y-52181531D01*
G37*
G04 #@! TD.AperFunction*
G04 #@! TA.AperFunction,Conductor*
G36*
X132422500Y-54125000D02*
G01*
X132401000Y-54275000D01*
X132251000Y-54275000D01*
X132215159Y-54273600D01*
X132185895Y-54269800D01*
X132161565Y-54264200D01*
X132140523Y-54257400D01*
X132121125Y-54250000D01*
X132101727Y-54242600D01*
X132080685Y-54235799D01*
X132056355Y-54230200D01*
X132027091Y-54226400D01*
X131991251Y-54225000D01*
X131976251Y-54225000D01*
X131941251Y-54125000D01*
X131976251Y-54025000D01*
X131991251Y-54025000D01*
X132027091Y-54023600D01*
X132056355Y-54019800D01*
X132080685Y-54014200D01*
X132101727Y-54007400D01*
X132121125Y-54000000D01*
X132140523Y-53992600D01*
X132161565Y-53985799D01*
X132185895Y-53980200D01*
X132215159Y-53976400D01*
X132251000Y-53975000D01*
X132401000Y-53975000D01*
X132422500Y-54125000D01*
G37*
G04 #@! TD.AperFunction*
G04 #@! TA.AperFunction,Conductor*
G36*
X139281339Y-53718293D02*
G01*
X139175273Y-53824359D01*
X139134671Y-53868919D01*
X139105405Y-53908934D01*
X139084638Y-53945539D01*
X139069540Y-53979872D01*
X139057274Y-54013067D01*
X139045009Y-54046263D01*
X139029910Y-54080595D01*
X139009144Y-54117200D01*
X138979877Y-54157215D01*
X138939277Y-54201776D01*
X138912761Y-54228292D01*
X138674113Y-54113388D01*
X138559209Y-53874740D01*
X138585725Y-53848224D01*
X138630285Y-53807623D01*
X138670300Y-53778356D01*
X138706905Y-53757590D01*
X138741237Y-53742491D01*
X138774433Y-53730226D01*
X138807628Y-53717960D01*
X138841961Y-53702862D01*
X138878566Y-53682095D01*
X138918581Y-53652829D01*
X138963142Y-53612228D01*
X139075000Y-53600000D01*
X139189415Y-53598086D01*
X139281339Y-53718293D01*
G37*
G04 #@! TD.AperFunction*
G04 #@! TA.AperFunction,Conductor*
G36*
X139209840Y-53576400D02*
G01*
X139239104Y-53580200D01*
X139263434Y-53585800D01*
X139284476Y-53592600D01*
X139303874Y-53600000D01*
X139323272Y-53607400D01*
X139344314Y-53614199D01*
X139368644Y-53619800D01*
X139397908Y-53623600D01*
X139433749Y-53625000D01*
X139448749Y-53625000D01*
X139483749Y-53725000D01*
X139448749Y-53825000D01*
X139433749Y-53825000D01*
X139397908Y-53826400D01*
X139368644Y-53830200D01*
X139344314Y-53835800D01*
X139323272Y-53842600D01*
X139303874Y-53850000D01*
X139284476Y-53857400D01*
X139263434Y-53864199D01*
X139239104Y-53869800D01*
X139209840Y-53873600D01*
X139174000Y-53875000D01*
X139024000Y-53875000D01*
X139002500Y-53725000D01*
X139025000Y-53600000D01*
X139174000Y-53575000D01*
X139209840Y-53576400D01*
G37*
G04 #@! TD.AperFunction*
G04 #@! TA.AperFunction,Conductor*
G36*
X130850000Y-52574000D02*
G01*
X130850000Y-52724000D01*
X130848600Y-52759840D01*
X130844800Y-52789104D01*
X130839200Y-52813434D01*
X130832401Y-52834468D01*
X130830457Y-52838738D01*
X130830291Y-52840002D01*
X130825000Y-52853874D01*
X130817597Y-52873278D01*
X130810798Y-52894312D01*
X130805201Y-52918639D01*
X130801399Y-52947913D01*
X130800000Y-52983748D01*
X130800000Y-52990448D01*
X130797842Y-52997218D01*
X130792165Y-53001491D01*
X130703865Y-53032396D01*
X130696135Y-53032396D01*
X130607835Y-53001491D01*
X130602158Y-52997218D01*
X130600000Y-52990448D01*
X130600000Y-52983748D01*
X130598600Y-52947913D01*
X130598600Y-52947908D01*
X130594800Y-52918644D01*
X130589200Y-52894314D01*
X130589200Y-52894312D01*
X130582402Y-52873278D01*
X130575000Y-52853874D01*
X130567705Y-52834752D01*
X130567504Y-52834180D01*
X130560932Y-52813846D01*
X130560728Y-52813125D01*
X130555200Y-52789104D01*
X130551400Y-52759840D01*
X130550000Y-52724000D01*
X130550000Y-52574000D01*
X130700000Y-52552500D01*
X130850000Y-52574000D01*
G37*
G04 #@! TD.AperFunction*
G04 #@! TA.AperFunction,Conductor*
G36*
X143262500Y-52725000D02*
G01*
X143226500Y-52975000D01*
X142976500Y-52975000D01*
X142916414Y-52972200D01*
X142867536Y-52964600D01*
X142827062Y-52953400D01*
X142792193Y-52939800D01*
X142760125Y-52925000D01*
X142728057Y-52910200D01*
X142693188Y-52896599D01*
X142652714Y-52885400D01*
X142603836Y-52877800D01*
X142536565Y-52864200D01*
X142515523Y-52857400D01*
X142468751Y-52725000D01*
X142515523Y-52592600D01*
X142560895Y-52580200D01*
X142603836Y-52572200D01*
X142652714Y-52564600D01*
X142693188Y-52553400D01*
X142728057Y-52539800D01*
X142760125Y-52525000D01*
X142792193Y-52510200D01*
X142827062Y-52496599D01*
X142867536Y-52485400D01*
X142916414Y-52477800D01*
X142976500Y-52475000D01*
X143226500Y-52475000D01*
X143262500Y-52725000D01*
G37*
G04 #@! TD.AperFunction*
G04 #@! TA.AperFunction,Conductor*
G36*
X143034174Y-51501459D02*
G01*
X143226943Y-51645697D01*
X143229302Y-51648056D01*
X143373540Y-51840825D01*
X143375842Y-51848670D01*
X143372445Y-51856107D01*
X143203028Y-52025524D01*
X143202634Y-52025900D01*
X143158838Y-52065795D01*
X143157863Y-52066592D01*
X143118980Y-52095011D01*
X143117843Y-52095745D01*
X143082417Y-52115814D01*
X143081351Y-52116348D01*
X143047946Y-52131006D01*
X143047290Y-52131270D01*
X143014481Y-52143359D01*
X142981348Y-52155567D01*
X142947068Y-52170609D01*
X142910529Y-52191308D01*
X142871048Y-52220164D01*
X142870108Y-52220784D01*
X142823693Y-52248283D01*
X142823195Y-52248556D01*
X142784789Y-52267000D01*
X142784759Y-52267014D01*
X142784759Y-52267015D01*
X142667028Y-52207972D01*
X142607984Y-52090240D01*
X142626457Y-52051772D01*
X142626703Y-52051324D01*
X142654216Y-52004886D01*
X142654834Y-52003950D01*
X142683690Y-51964470D01*
X142704389Y-51927931D01*
X142719429Y-51893658D01*
X142725370Y-51877530D01*
X142731640Y-51860518D01*
X142731639Y-51860518D01*
X142743727Y-51827708D01*
X142743992Y-51827052D01*
X142749079Y-51815457D01*
X142758655Y-51793635D01*
X142759174Y-51792600D01*
X142779259Y-51757145D01*
X142779980Y-51756027D01*
X142808417Y-51717121D01*
X142809192Y-51716173D01*
X142849120Y-51672342D01*
X142849454Y-51671992D01*
X143018893Y-51502553D01*
X143026329Y-51499157D01*
X143034174Y-51501459D01*
G37*
G04 #@! TD.AperFunction*
G04 #@! TA.AperFunction,Conductor*
G36*
X132272500Y-53125000D02*
G01*
X132251000Y-53275000D01*
X132101000Y-53275000D01*
X132065159Y-53273600D01*
X132035895Y-53269800D01*
X132011565Y-53264200D01*
X132008900Y-53263338D01*
X131990818Y-53257495D01*
X131990246Y-53257294D01*
X131971125Y-53250000D01*
X131951720Y-53242597D01*
X131930686Y-53235798D01*
X131906359Y-53230201D01*
X131906355Y-53230200D01*
X131877091Y-53226400D01*
X131846370Y-53225199D01*
X131841252Y-53225000D01*
X131841251Y-53225000D01*
X131834552Y-53225000D01*
X131827782Y-53222842D01*
X131823509Y-53217165D01*
X131815782Y-53195089D01*
X131792603Y-53128863D01*
X131792603Y-53121137D01*
X131823508Y-53032835D01*
X131827782Y-53027158D01*
X131834552Y-53025000D01*
X131841252Y-53025000D01*
X131842351Y-53024957D01*
X131877091Y-53023600D01*
X131906355Y-53019800D01*
X131926410Y-53015183D01*
X131930686Y-53014200D01*
X131942299Y-53010446D01*
X131951727Y-53007400D01*
X131971125Y-53000000D01*
X131971124Y-53000001D01*
X131990245Y-52992706D01*
X131990795Y-52992511D01*
X132011565Y-52985799D01*
X132035895Y-52980200D01*
X132065159Y-52976400D01*
X132101000Y-52975000D01*
X132251000Y-52975000D01*
X132272500Y-53125000D01*
G37*
G04 #@! TD.AperFunction*
G04 #@! TA.AperFunction,Conductor*
G36*
X142797500Y-52725000D02*
G01*
X142776000Y-52875000D01*
X142626000Y-52875000D01*
X142590159Y-52873600D01*
X142560895Y-52869800D01*
X142536565Y-52864200D01*
X142515523Y-52857400D01*
X142496125Y-52850000D01*
X142476727Y-52842600D01*
X142455685Y-52835799D01*
X142431355Y-52830200D01*
X142402091Y-52826400D01*
X142366251Y-52825000D01*
X142351251Y-52825000D01*
X142316251Y-52725000D01*
X142351251Y-52625000D01*
X142366251Y-52625000D01*
X142402091Y-52623600D01*
X142431355Y-52619800D01*
X142455685Y-52614200D01*
X142476727Y-52607400D01*
X142496125Y-52600000D01*
X142515523Y-52592600D01*
X142536565Y-52585799D01*
X142560895Y-52580200D01*
X142590159Y-52576400D01*
X142626000Y-52575000D01*
X142776000Y-52575000D01*
X142797500Y-52725000D01*
G37*
G04 #@! TD.AperFunction*
G04 #@! TA.AperFunction,Conductor*
G36*
X142909475Y-51965525D02*
G01*
X143000339Y-52086792D01*
X142894273Y-52192858D01*
X142867939Y-52217211D01*
X142844560Y-52235216D01*
X142823569Y-52248351D01*
X142823057Y-52248633D01*
X142803991Y-52258386D01*
X142803444Y-52258648D01*
X142784759Y-52267014D01*
X142784760Y-52267014D01*
X142765805Y-52275501D01*
X142746122Y-52285569D01*
X142726019Y-52298149D01*
X142723780Y-52299238D01*
X142701848Y-52307143D01*
X142690666Y-52311173D01*
X142683321Y-52311367D01*
X142677308Y-52307143D01*
X142675000Y-52300166D01*
X142675000Y-52300000D01*
X142650000Y-52300000D01*
X142640697Y-52300669D01*
X142577114Y-52305246D01*
X142570409Y-52303700D01*
X142565732Y-52298652D01*
X142526822Y-52217838D01*
X142525829Y-52210801D01*
X142529092Y-52204488D01*
X142533819Y-52199761D01*
X142533827Y-52199753D01*
X142558180Y-52173419D01*
X142576185Y-52150040D01*
X142589429Y-52128876D01*
X142599500Y-52109189D01*
X142607984Y-52090240D01*
X142608431Y-52089243D01*
X142616349Y-52071555D01*
X142616612Y-52071007D01*
X142626377Y-52051918D01*
X142626635Y-52051447D01*
X142639783Y-52030439D01*
X142657788Y-52007060D01*
X142682142Y-51980727D01*
X142788208Y-51874661D01*
X142909475Y-51965525D01*
G37*
G04 #@! TD.AperFunction*
G04 #@! TA.AperFunction,Conductor*
G36*
X123738586Y-63481170D02*
G01*
X123750004Y-63484699D01*
X123760805Y-63488037D01*
X123778722Y-63495143D01*
X123818614Y-63514677D01*
X123833118Y-63523037D01*
X123883248Y-63556635D01*
X123894565Y-63565198D01*
X123953654Y-63615472D01*
X123962326Y-63623597D01*
X124031015Y-63694441D01*
X124041760Y-63707124D01*
X124062290Y-63734942D01*
X124074060Y-63747380D01*
X124081923Y-63759365D01*
X124087170Y-63768128D01*
X124130914Y-63848538D01*
X124134441Y-63855540D01*
X124172754Y-63937988D01*
X124182352Y-63958644D01*
X124182353Y-63958645D01*
X124184811Y-63964299D01*
X124202120Y-64006981D01*
X124215411Y-64039754D01*
X124224500Y-64086354D01*
X124224500Y-64374849D01*
X124224508Y-64374958D01*
X124224508Y-64424299D01*
X124247613Y-64599815D01*
X124293428Y-64770810D01*
X124293431Y-64770817D01*
X124361176Y-64934374D01*
X124433964Y-65060449D01*
X124449692Y-65087691D01*
X124557461Y-65228142D01*
X124564463Y-65235144D01*
X124564466Y-65235148D01*
X124578694Y-65249376D01*
X124578695Y-65249377D01*
X124630232Y-65300914D01*
X124630234Y-65300917D01*
X124673526Y-65344210D01*
X124673534Y-65344216D01*
X124736327Y-65407009D01*
X124736340Y-65407025D01*
X124749895Y-65420579D01*
X124749922Y-65420618D01*
X124846850Y-65517546D01*
X124846853Y-65517548D01*
X124987305Y-65625318D01*
X125140621Y-65713833D01*
X125304180Y-65781579D01*
X125475182Y-65827396D01*
X125650702Y-65850501D01*
X125739219Y-65850500D01*
X128030274Y-65850500D01*
X128030277Y-65850501D01*
X128079702Y-65850500D01*
X128091852Y-65851096D01*
X128116266Y-65853501D01*
X128200347Y-65861781D01*
X128224188Y-65866523D01*
X128279585Y-65883326D01*
X128322657Y-65896391D01*
X128345114Y-65905693D01*
X128435868Y-65954202D01*
X128456079Y-65967706D01*
X128540281Y-66036807D01*
X128549298Y-66044980D01*
X128604948Y-66100630D01*
X128613121Y-66109647D01*
X128682286Y-66193927D01*
X128695791Y-66214139D01*
X128744296Y-66304887D01*
X128753597Y-66327342D01*
X128783097Y-66424594D01*
X128783467Y-66425811D01*
X128788209Y-66449654D01*
X128798902Y-66558245D01*
X128799499Y-66570397D01*
X128799499Y-66639841D01*
X128799500Y-66639847D01*
X128799500Y-66693814D01*
X128791874Y-66736625D01*
X128777573Y-66775500D01*
X128775268Y-66781765D01*
X128773355Y-66786644D01*
X128742591Y-66860477D01*
X128739903Y-66866476D01*
X128712124Y-66924305D01*
X128708218Y-66931775D01*
X128692137Y-66960136D01*
X128671961Y-66986646D01*
X128671950Y-66986656D01*
X128664649Y-67000984D01*
X128656158Y-67015208D01*
X128654800Y-67017171D01*
X128633624Y-67057439D01*
X128587638Y-67106073D01*
X128523074Y-67123720D01*
X128458744Y-67105240D01*
X128413390Y-67056017D01*
X128378050Y-66986657D01*
X128288343Y-66896950D01*
X128175302Y-66839353D01*
X128081521Y-66824500D01*
X127718485Y-66824500D01*
X127675046Y-66831380D01*
X127624696Y-66839354D01*
X127624694Y-66839354D01*
X127624693Y-66839355D01*
X127511657Y-66896949D01*
X127421950Y-66986656D01*
X127364353Y-67099697D01*
X127349500Y-67193479D01*
X127349500Y-69694242D01*
X127334162Y-69753979D01*
X127290372Y-69833632D01*
X127249500Y-69992821D01*
X127249500Y-70530438D01*
X127248923Y-70542384D01*
X127247375Y-70558367D01*
X127249307Y-70592910D01*
X127249500Y-70599831D01*
X127249500Y-70615926D01*
X127250919Y-70627159D01*
X127251703Y-70635772D01*
X127251734Y-70636331D01*
X127253106Y-70644477D01*
X127264928Y-70738055D01*
X127264928Y-70738057D01*
X127264929Y-70738058D01*
X127278371Y-70772010D01*
X127284701Y-70793490D01*
X127309009Y-70915841D01*
X127309262Y-70917152D01*
X127338546Y-71073329D01*
X127338761Y-71074507D01*
X127359138Y-71189294D01*
X127362791Y-71209875D01*
X127368134Y-71239970D01*
X127368319Y-71241036D01*
X127397776Y-71415817D01*
X127399500Y-71436425D01*
X127399500Y-72105198D01*
X127399508Y-72105324D01*
X127399508Y-72159129D01*
X127425179Y-72354139D01*
X127476084Y-72544131D01*
X127551355Y-72725857D01*
X127584083Y-72782545D01*
X127649702Y-72896203D01*
X127749456Y-73026208D01*
X127769443Y-73052255D01*
X127809684Y-73092497D01*
X127809707Y-73092522D01*
X127857409Y-73140223D01*
X127857410Y-73140225D01*
X127895776Y-73178592D01*
X127895789Y-73178602D01*
X127995811Y-73278624D01*
X127995822Y-73278638D01*
X128016876Y-73299691D01*
X128016898Y-73299724D01*
X128053197Y-73336023D01*
X128053197Y-73336024D01*
X128122740Y-73405567D01*
X128278792Y-73525307D01*
X128449137Y-73623653D01*
X128523152Y-73654310D01*
X128630862Y-73698924D01*
X128820859Y-73749831D01*
X128947062Y-73766443D01*
X129015873Y-73775502D01*
X129114220Y-73775500D01*
X129114222Y-73775500D01*
X136706155Y-73775500D01*
X136706276Y-73775490D01*
X136759127Y-73775492D01*
X136954140Y-73749820D01*
X137116094Y-73706427D01*
X137144131Y-73698915D01*
X137144132Y-73698914D01*
X137144134Y-73698914D01*
X137325858Y-73623644D01*
X137496203Y-73525298D01*
X137652253Y-73405559D01*
X137687800Y-73370011D01*
X137687806Y-73370007D01*
X137696482Y-73361330D01*
X137696486Y-73361328D01*
X137745092Y-73312721D01*
X137768390Y-73289425D01*
X137768390Y-73289424D01*
X137769695Y-73288118D01*
X137769732Y-73288093D01*
X137806023Y-73251802D01*
X137806024Y-73251803D01*
X137875567Y-73182260D01*
X137995307Y-73026208D01*
X138093653Y-72855863D01*
X138168924Y-72674137D01*
X138170925Y-72666670D01*
X138219831Y-72484140D01*
X138234822Y-72370256D01*
X138245502Y-72289127D01*
X138245500Y-72190779D01*
X138245500Y-72158239D01*
X138245500Y-71436425D01*
X138247224Y-71415818D01*
X138261674Y-71330074D01*
X138276697Y-71240931D01*
X138276833Y-71240146D01*
X138303885Y-71087760D01*
X138330915Y-71029814D01*
X138383225Y-70993038D01*
X138446903Y-70987215D01*
X138505016Y-71013892D01*
X138517036Y-71023835D01*
X138517037Y-71023837D01*
X138643674Y-71128600D01*
X138792387Y-71198579D01*
X138953830Y-71229376D01*
X138953832Y-71229375D01*
X138953833Y-71229376D01*
X139052248Y-71223183D01*
X139117860Y-71219056D01*
X139274171Y-71168268D01*
X139412940Y-71080202D01*
X139525448Y-70960393D01*
X139525449Y-70960390D01*
X139533059Y-70952287D01*
X139577804Y-70921878D01*
X139631238Y-70913415D01*
X139683190Y-70928508D01*
X139723770Y-70964285D01*
X139767034Y-71023834D01*
X139767036Y-71023835D01*
X139767037Y-71023837D01*
X139893674Y-71128600D01*
X140042387Y-71198579D01*
X140203830Y-71229376D01*
X140203832Y-71229375D01*
X140203833Y-71229376D01*
X140302248Y-71223183D01*
X140367860Y-71219056D01*
X140524171Y-71168268D01*
X140662940Y-71080202D01*
X140775448Y-70960393D01*
X140775449Y-70960390D01*
X140783059Y-70952287D01*
X140827804Y-70921878D01*
X140881238Y-70913415D01*
X140933190Y-70928508D01*
X140973770Y-70964285D01*
X141017034Y-71023834D01*
X141017036Y-71023835D01*
X141017037Y-71023837D01*
X141143674Y-71128600D01*
X141292387Y-71198579D01*
X141453830Y-71229376D01*
X141453832Y-71229375D01*
X141453833Y-71229376D01*
X141552248Y-71223183D01*
X141617860Y-71219056D01*
X141774171Y-71168268D01*
X141912940Y-71080202D01*
X142025448Y-70960393D01*
X142025449Y-70960390D01*
X142033059Y-70952287D01*
X142077804Y-70921878D01*
X142131238Y-70913415D01*
X142183190Y-70928508D01*
X142223770Y-70964285D01*
X142267034Y-71023834D01*
X142267036Y-71023835D01*
X142267037Y-71023837D01*
X142393674Y-71128600D01*
X142542387Y-71198579D01*
X142703830Y-71229376D01*
X142703832Y-71229375D01*
X142703833Y-71229376D01*
X142802248Y-71223183D01*
X142867860Y-71219056D01*
X143024171Y-71168268D01*
X143054928Y-71148748D01*
X143117072Y-71129520D01*
X143180402Y-71144400D01*
X143227484Y-71189294D01*
X143239925Y-71209873D01*
X143360126Y-71330075D01*
X143505603Y-71418019D01*
X143667893Y-71468590D01*
X143738424Y-71475000D01*
X143745000Y-71475000D01*
X143745000Y-71474999D01*
X144245000Y-71474999D01*
X144251579Y-71474999D01*
X144322104Y-71468591D01*
X144484397Y-71418018D01*
X144629875Y-71330074D01*
X144750074Y-71209875D01*
X144838016Y-71064400D01*
X144857114Y-71003114D01*
X144895539Y-70945229D01*
X144959067Y-70917098D01*
X145027753Y-70927551D01*
X145080036Y-70973308D01*
X145099500Y-71040004D01*
X145099500Y-72472869D01*
X145105909Y-72532484D01*
X145111783Y-72548232D01*
X145156204Y-72667331D01*
X145242454Y-72782546D01*
X145357669Y-72868796D01*
X145492517Y-72919091D01*
X145552127Y-72925500D01*
X146147872Y-72925499D01*
X146207483Y-72919091D01*
X146342331Y-72868796D01*
X146457546Y-72782546D01*
X146543796Y-72667331D01*
X146543804Y-72667309D01*
X147941828Y-72667309D01*
X147951613Y-72897665D01*
X148000190Y-73123064D01*
X148085764Y-73336024D01*
X148086159Y-73337006D01*
X148207049Y-73533343D01*
X148286061Y-73623118D01*
X148359381Y-73706427D01*
X148538768Y-73851272D01*
X148740063Y-73963721D01*
X148957464Y-74040534D01*
X149184713Y-74079500D01*
X149184715Y-74079500D01*
X149357535Y-74079500D01*
X149357539Y-74079500D01*
X149472337Y-74069728D01*
X149529739Y-74064843D01*
X149752869Y-74006745D01*
X149962971Y-73911773D01*
X150154000Y-73782659D01*
X150320462Y-73623119D01*
X150457566Y-73437742D01*
X150561370Y-73231860D01*
X150628886Y-73011397D01*
X150658172Y-72782694D01*
X150648386Y-72552332D01*
X150599810Y-72326938D01*
X150584616Y-72289127D01*
X150542656Y-72184704D01*
X150513841Y-72112994D01*
X150392951Y-71916657D01*
X150296032Y-71806535D01*
X150240618Y-71743572D01*
X150061231Y-71598727D01*
X149859936Y-71486278D01*
X149642535Y-71409465D01*
X149415287Y-71370500D01*
X149415285Y-71370500D01*
X149242465Y-71370500D01*
X149242461Y-71370500D01*
X149070262Y-71385156D01*
X148847129Y-71443255D01*
X148637029Y-71538226D01*
X148446000Y-71667340D01*
X148279537Y-71826881D01*
X148142434Y-72012257D01*
X148038630Y-72218139D01*
X147985166Y-72392716D01*
X147971114Y-72438603D01*
X147941910Y-72666670D01*
X147941828Y-72667309D01*
X146543804Y-72667309D01*
X146594091Y-72532483D01*
X146600500Y-72472873D01*
X146600499Y-70077128D01*
X146594091Y-70017517D01*
X146543796Y-69882669D01*
X146457546Y-69767454D01*
X146342331Y-69681204D01*
X146207483Y-69630909D01*
X146147873Y-69624500D01*
X146147869Y-69624500D01*
X145552130Y-69624500D01*
X145492515Y-69630909D01*
X145357669Y-69681204D01*
X145242454Y-69767454D01*
X145156204Y-69882669D01*
X145135181Y-69939035D01*
X145094719Y-69993897D01*
X145031373Y-70019082D01*
X144964287Y-70006978D01*
X144913737Y-69961244D01*
X144894999Y-69895701D01*
X144894999Y-69818421D01*
X144888591Y-69747895D01*
X144838018Y-69585602D01*
X144817883Y-69552294D01*
X144800000Y-69488144D01*
X144800000Y-69400000D01*
X144250000Y-69400000D01*
X144250000Y-70483638D01*
X144245000Y-70508775D01*
X144245000Y-71474999D01*
X143745000Y-71474999D01*
X143745000Y-69191362D01*
X143750000Y-69166225D01*
X143750000Y-68175000D01*
X144250000Y-68175000D01*
X144250000Y-68900000D01*
X144800000Y-68900000D01*
X144800000Y-68175000D01*
X144250000Y-68175000D01*
X143750000Y-68175000D01*
X143750000Y-67799000D01*
X143766613Y-67737000D01*
X143812000Y-67691613D01*
X143874000Y-67675000D01*
X144800000Y-67675000D01*
X144800000Y-67159361D01*
X144797099Y-67122506D01*
X144751282Y-66964802D01*
X144742412Y-66949803D01*
X144725224Y-66891132D01*
X144738159Y-66831380D01*
X144778073Y-66785071D01*
X144835259Y-66763462D01*
X144990911Y-66745927D01*
X145248294Y-66687184D01*
X145497482Y-66599993D01*
X145735340Y-66485450D01*
X145958878Y-66344995D01*
X146114991Y-66220502D01*
X146165284Y-66180396D01*
X146183428Y-66162252D01*
X146207058Y-66138621D01*
X146207062Y-66138619D01*
X146217268Y-66128412D01*
X146217270Y-66128412D01*
X146285311Y-66060371D01*
X146297879Y-66047804D01*
X146297879Y-66047803D01*
X146308079Y-66037604D01*
X146308086Y-66037594D01*
X148675633Y-63670047D01*
X148684630Y-63661892D01*
X148768931Y-63592709D01*
X148789136Y-63579210D01*
X148801082Y-63572824D01*
X148864784Y-63558293D01*
X148927031Y-63578161D01*
X148970536Y-63626911D01*
X149010324Y-63706818D01*
X149133236Y-63869580D01*
X149283958Y-64006981D01*
X149410760Y-64085493D01*
X149457363Y-64114348D01*
X149647544Y-64188024D01*
X149848024Y-64225500D01*
X150051974Y-64225500D01*
X150051976Y-64225500D01*
X150252456Y-64188024D01*
X150442637Y-64114348D01*
X150616041Y-64006981D01*
X150766764Y-63869579D01*
X150776545Y-63856626D01*
X150824368Y-63818386D01*
X150884658Y-63807692D01*
X150942715Y-63827151D01*
X150984382Y-63872018D01*
X150999500Y-63931353D01*
X150999500Y-72697057D01*
X150999499Y-72697063D01*
X150999499Y-72760351D01*
X150999183Y-72769195D01*
X150983242Y-72992135D01*
X150980724Y-73009648D01*
X150934160Y-73223707D01*
X150929176Y-73240683D01*
X150852618Y-73445948D01*
X150845268Y-73462041D01*
X150740280Y-73654315D01*
X150730718Y-73669194D01*
X150599433Y-73844571D01*
X150587847Y-73857942D01*
X150432942Y-74012847D01*
X150419571Y-74024433D01*
X150244194Y-74155718D01*
X150229315Y-74165280D01*
X150045311Y-74265753D01*
X150037041Y-74270269D01*
X150020948Y-74277618D01*
X149815683Y-74354176D01*
X149798707Y-74359160D01*
X149584648Y-74405724D01*
X149567135Y-74408242D01*
X149344195Y-74424183D01*
X149335351Y-74424499D01*
X149272063Y-74424499D01*
X149272057Y-74424500D01*
X122627943Y-74424500D01*
X122627937Y-74424499D01*
X122564648Y-74424499D01*
X122555804Y-74424183D01*
X122332864Y-74408242D01*
X122315351Y-74405724D01*
X122101292Y-74359160D01*
X122084316Y-74354176D01*
X121879051Y-74277618D01*
X121862963Y-74270271D01*
X121670677Y-74165276D01*
X121655805Y-74155718D01*
X121480428Y-74024433D01*
X121467057Y-74012847D01*
X121312152Y-73857942D01*
X121300566Y-73844571D01*
X121169278Y-73669189D01*
X121159725Y-73654326D01*
X121054725Y-73462030D01*
X121047381Y-73445948D01*
X120970823Y-73240683D01*
X120965839Y-73223707D01*
X120956823Y-73182258D01*
X120919273Y-73009640D01*
X120916758Y-72992142D01*
X120900815Y-72769193D01*
X120900500Y-72760349D01*
X120900501Y-72717181D01*
X120900500Y-72717178D01*
X120900500Y-72667309D01*
X121241828Y-72667309D01*
X121251613Y-72897665D01*
X121300190Y-73123064D01*
X121385764Y-73336024D01*
X121386159Y-73337006D01*
X121507049Y-73533343D01*
X121586061Y-73623118D01*
X121659381Y-73706427D01*
X121838768Y-73851272D01*
X122040063Y-73963721D01*
X122257464Y-74040534D01*
X122484713Y-74079500D01*
X122484715Y-74079500D01*
X122657535Y-74079500D01*
X122657539Y-74079500D01*
X122772337Y-74069728D01*
X122829739Y-74064843D01*
X123052869Y-74006745D01*
X123262971Y-73911773D01*
X123454000Y-73782659D01*
X123620462Y-73623119D01*
X123757566Y-73437742D01*
X123861370Y-73231860D01*
X123928886Y-73011397D01*
X123958172Y-72782694D01*
X123948386Y-72552332D01*
X123931260Y-72472869D01*
X125299500Y-72472869D01*
X125305909Y-72532484D01*
X125311783Y-72548232D01*
X125356204Y-72667331D01*
X125442454Y-72782546D01*
X125557669Y-72868796D01*
X125692517Y-72919091D01*
X125752127Y-72925500D01*
X126347872Y-72925499D01*
X126407483Y-72919091D01*
X126542331Y-72868796D01*
X126657546Y-72782546D01*
X126743796Y-72667331D01*
X126794091Y-72532483D01*
X126800500Y-72472873D01*
X126800499Y-70077128D01*
X126794091Y-70017517D01*
X126743796Y-69882669D01*
X126657546Y-69767454D01*
X126542331Y-69681204D01*
X126407483Y-69630909D01*
X126347873Y-69624500D01*
X126347869Y-69624500D01*
X125752130Y-69624500D01*
X125692515Y-69630909D01*
X125557669Y-69681204D01*
X125442454Y-69767454D01*
X125356204Y-69882668D01*
X125305909Y-70017516D01*
X125299500Y-70077130D01*
X125299500Y-72472869D01*
X123931260Y-72472869D01*
X123899810Y-72326938D01*
X123884616Y-72289127D01*
X123842656Y-72184704D01*
X123813841Y-72112994D01*
X123692951Y-71916657D01*
X123596032Y-71806535D01*
X123540618Y-71743572D01*
X123361231Y-71598727D01*
X123159936Y-71486278D01*
X122942535Y-71409465D01*
X122715287Y-71370500D01*
X122715285Y-71370500D01*
X122542465Y-71370500D01*
X122542461Y-71370500D01*
X122370262Y-71385156D01*
X122147129Y-71443255D01*
X121937029Y-71538226D01*
X121746000Y-71667340D01*
X121579537Y-71826881D01*
X121442434Y-72012257D01*
X121338630Y-72218139D01*
X121285166Y-72392716D01*
X121271114Y-72438603D01*
X121241910Y-72666670D01*
X121241828Y-72667309D01*
X120900500Y-72667309D01*
X120900500Y-63931353D01*
X120915618Y-63872018D01*
X120957285Y-63827151D01*
X121015342Y-63807692D01*
X121075632Y-63818386D01*
X121123454Y-63856626D01*
X121133236Y-63869579D01*
X121283958Y-64006981D01*
X121410760Y-64085493D01*
X121457363Y-64114348D01*
X121647544Y-64188024D01*
X121848024Y-64225500D01*
X122051974Y-64225500D01*
X122051976Y-64225500D01*
X122252456Y-64188024D01*
X122331474Y-64157411D01*
X122333237Y-64156904D01*
X122333186Y-64156767D01*
X122344383Y-64152616D01*
X122407872Y-64129083D01*
X122409436Y-64128239D01*
X122423453Y-64121779D01*
X122442637Y-64114348D01*
X122489244Y-64085489D01*
X122495695Y-64081758D01*
X122532052Y-64062167D01*
X122737234Y-63951604D01*
X122757596Y-63939378D01*
X122759405Y-63938174D01*
X122778535Y-63924117D01*
X123005147Y-63740796D01*
X123007265Y-63739065D01*
X123164496Y-63609059D01*
X123190763Y-63592403D01*
X123332870Y-63525619D01*
X123371260Y-63514680D01*
X123600089Y-63488037D01*
X123680430Y-63478683D01*
X123680452Y-63478876D01*
X123702093Y-63475641D01*
X123738586Y-63481170D01*
G37*
G04 #@! TD.AperFunction*
G04 #@! TA.AperFunction,Conductor*
G36*
X145098000Y-54516613D02*
G01*
X145143387Y-54562000D01*
X145160000Y-54624000D01*
X145160000Y-55567350D01*
X145186424Y-55599037D01*
X145199500Y-55654462D01*
X145199500Y-59823200D01*
X145199499Y-59823208D01*
X145199499Y-59901312D01*
X145199350Y-59907394D01*
X145186569Y-60167649D01*
X145185376Y-60179760D01*
X145147595Y-60434483D01*
X145145221Y-60446418D01*
X145082655Y-60696209D01*
X145079123Y-60707853D01*
X144992374Y-60950313D01*
X144987717Y-60961556D01*
X144877615Y-61194356D01*
X144871879Y-61205088D01*
X144739500Y-61425955D01*
X144732740Y-61436073D01*
X144579341Y-61642915D01*
X144571621Y-61652322D01*
X144397172Y-61844803D01*
X144392996Y-61849190D01*
X144382856Y-61859331D01*
X144382851Y-61859335D01*
X144382852Y-61859335D01*
X144087727Y-62154459D01*
X144087725Y-62154461D01*
X144067127Y-62175058D01*
X144062073Y-62179836D01*
X143892297Y-62331552D01*
X143881426Y-62340222D01*
X143698563Y-62469966D01*
X143686789Y-62477364D01*
X143490553Y-62585816D01*
X143478025Y-62591849D01*
X143270875Y-62677651D01*
X143257749Y-62682243D01*
X143042308Y-62744308D01*
X143028751Y-62747402D01*
X142807710Y-62784956D01*
X142793892Y-62786513D01*
X142566076Y-62799304D01*
X142559125Y-62799499D01*
X142481930Y-62799499D01*
X142481922Y-62799500D01*
X140508274Y-62799500D01*
X140508069Y-62799513D01*
X140385246Y-62799513D01*
X140052458Y-62832286D01*
X139724472Y-62897523D01*
X139404469Y-62994591D01*
X139095525Y-63122559D01*
X138800605Y-63280195D01*
X138522566Y-63465974D01*
X138264065Y-63678121D01*
X138171156Y-63771028D01*
X138171154Y-63771032D01*
X138171151Y-63771035D01*
X137973411Y-63968773D01*
X137973151Y-63969073D01*
X137902439Y-64039782D01*
X137721842Y-64266236D01*
X137567739Y-64511482D01*
X137442062Y-64772440D01*
X137346394Y-65045831D01*
X137281936Y-65328216D01*
X137249502Y-65616036D01*
X137249500Y-65708052D01*
X137249500Y-65725062D01*
X137249500Y-65725068D01*
X137249500Y-65740669D01*
X137249500Y-65760859D01*
X137249500Y-65801097D01*
X137249499Y-65842010D01*
X137249500Y-65842019D01*
X137249500Y-66725112D01*
X137245255Y-66754474D01*
X137244781Y-66759015D01*
X137244782Y-66759015D01*
X137235926Y-66844019D01*
X137235923Y-66844048D01*
X137234440Y-66857838D01*
X137226491Y-66931775D01*
X137226057Y-66935807D01*
X137226010Y-66936243D01*
X137216149Y-67025000D01*
X137216096Y-67025469D01*
X137206241Y-67111199D01*
X137206183Y-67111694D01*
X137196661Y-67191687D01*
X137197477Y-67258306D01*
X137198235Y-67263568D01*
X137199500Y-67281237D01*
X137199500Y-69685147D01*
X137184162Y-69744884D01*
X137135372Y-69833632D01*
X137094500Y-69992821D01*
X137094500Y-70530438D01*
X137093923Y-70542384D01*
X137092375Y-70558367D01*
X137094307Y-70592910D01*
X137094500Y-70599831D01*
X137094500Y-70615926D01*
X137095919Y-70627159D01*
X137096703Y-70635772D01*
X137096734Y-70636331D01*
X137098106Y-70644477D01*
X137109928Y-70738055D01*
X137109928Y-70738057D01*
X137109929Y-70738058D01*
X137123371Y-70772010D01*
X137129701Y-70793490D01*
X137154009Y-70915841D01*
X137154262Y-70917152D01*
X137183546Y-71073329D01*
X137183761Y-71074507D01*
X137204138Y-71189294D01*
X137207791Y-71209875D01*
X137213134Y-71239970D01*
X137213319Y-71241036D01*
X137242776Y-71415817D01*
X137244500Y-71436425D01*
X137244500Y-72109633D01*
X137244499Y-72109641D01*
X137244499Y-72184704D01*
X137243902Y-72196856D01*
X137236100Y-72276085D01*
X137231358Y-72299926D01*
X137210025Y-72370256D01*
X137200723Y-72392716D01*
X137166078Y-72457533D01*
X137152572Y-72477745D01*
X137102124Y-72539216D01*
X137093952Y-72548232D01*
X137018299Y-72623885D01*
X137009283Y-72632057D01*
X136947739Y-72682565D01*
X136927525Y-72696071D01*
X136862710Y-72730714D01*
X136840253Y-72740016D01*
X136771503Y-72760870D01*
X136703503Y-72762007D01*
X136645131Y-72727108D01*
X136613946Y-72666670D01*
X136619327Y-72598876D01*
X136644091Y-72532483D01*
X136650500Y-72472873D01*
X136650499Y-70077128D01*
X136644091Y-70017517D01*
X136593796Y-69882669D01*
X136507546Y-69767454D01*
X136392331Y-69681204D01*
X136257483Y-69630909D01*
X136197873Y-69624500D01*
X136197869Y-69624500D01*
X135602130Y-69624500D01*
X135542515Y-69630909D01*
X135407669Y-69681204D01*
X135292454Y-69767454D01*
X135206204Y-69882668D01*
X135155909Y-70017516D01*
X135149500Y-70077130D01*
X135149500Y-72472869D01*
X135155909Y-72532484D01*
X135183764Y-72607167D01*
X135190615Y-72665954D01*
X135169438Y-72721220D01*
X135125057Y-72760376D01*
X135067582Y-72774500D01*
X134332418Y-72774500D01*
X134274943Y-72760376D01*
X134230562Y-72721220D01*
X134209385Y-72665954D01*
X134216236Y-72607167D01*
X134239745Y-72544134D01*
X134244091Y-72532483D01*
X134250500Y-72472873D01*
X134250499Y-70077128D01*
X134244091Y-70017517D01*
X134193796Y-69882669D01*
X134107546Y-69767454D01*
X133992331Y-69681204D01*
X133857483Y-69630909D01*
X133797873Y-69624500D01*
X133797869Y-69624500D01*
X133202130Y-69624500D01*
X133142515Y-69630909D01*
X133007669Y-69681204D01*
X132892454Y-69767454D01*
X132806202Y-69882671D01*
X132790180Y-69925629D01*
X132749719Y-69980491D01*
X132686373Y-70005676D01*
X132619287Y-69993572D01*
X132568737Y-69947838D01*
X132549999Y-69882295D01*
X132549999Y-69818421D01*
X132543591Y-69747895D01*
X132493018Y-69585602D01*
X132467883Y-69544023D01*
X132450000Y-69479873D01*
X132450000Y-69450000D01*
X131900000Y-69450000D01*
X131900000Y-71474999D01*
X131906579Y-71474999D01*
X131977104Y-71468591D01*
X132139397Y-71418018D01*
X132284875Y-71330074D01*
X132405074Y-71209875D01*
X132493016Y-71064400D01*
X132507114Y-71019160D01*
X132545539Y-70961275D01*
X132609067Y-70933144D01*
X132677753Y-70943597D01*
X132730036Y-70989354D01*
X132749500Y-71056050D01*
X132749500Y-72472869D01*
X132755909Y-72532484D01*
X132783764Y-72607167D01*
X132790615Y-72665954D01*
X132769438Y-72721220D01*
X132725057Y-72760376D01*
X132667582Y-72774500D01*
X129195367Y-72774500D01*
X129195359Y-72774499D01*
X129120295Y-72774499D01*
X129108143Y-72773902D01*
X129028914Y-72766100D01*
X129005073Y-72761358D01*
X128934743Y-72740025D01*
X128912284Y-72730723D01*
X128847468Y-72696079D01*
X128827256Y-72682574D01*
X128765777Y-72632120D01*
X128756760Y-72623947D01*
X128551119Y-72418305D01*
X128542947Y-72409289D01*
X128529346Y-72392716D01*
X128492430Y-72347734D01*
X128478928Y-72327525D01*
X128478614Y-72326938D01*
X128444285Y-72262710D01*
X128434985Y-72240258D01*
X128413648Y-72169917D01*
X128408909Y-72146090D01*
X128401096Y-72066752D01*
X128400500Y-72054602D01*
X128400501Y-71994901D01*
X128400500Y-71994897D01*
X128400500Y-71436425D01*
X128402224Y-71415818D01*
X128416674Y-71330074D01*
X128431697Y-71240931D01*
X128431833Y-71240146D01*
X128458885Y-71087760D01*
X128485915Y-71029814D01*
X128538225Y-70993038D01*
X128601903Y-70987215D01*
X128660016Y-71013892D01*
X128672036Y-71023835D01*
X128672037Y-71023837D01*
X128798674Y-71128600D01*
X128947387Y-71198579D01*
X129108830Y-71229376D01*
X129108832Y-71229375D01*
X129108833Y-71229376D01*
X129207248Y-71223183D01*
X129272860Y-71219056D01*
X129429171Y-71168268D01*
X129567940Y-71080202D01*
X129680448Y-70960393D01*
X129680449Y-70960390D01*
X129688059Y-70952287D01*
X129732804Y-70921878D01*
X129786238Y-70913415D01*
X129838190Y-70928508D01*
X129878770Y-70964285D01*
X129922034Y-71023834D01*
X129922036Y-71023835D01*
X129922037Y-71023837D01*
X130048674Y-71128600D01*
X130197387Y-71198579D01*
X130358830Y-71229376D01*
X130358832Y-71229375D01*
X130358833Y-71229376D01*
X130457248Y-71223183D01*
X130522860Y-71219056D01*
X130679171Y-71168268D01*
X130709928Y-71148748D01*
X130772072Y-71129520D01*
X130835402Y-71144400D01*
X130882484Y-71189294D01*
X130894925Y-71209873D01*
X131015126Y-71330075D01*
X131160603Y-71418019D01*
X131322893Y-71468590D01*
X131393424Y-71475000D01*
X131400000Y-71475000D01*
X131400000Y-68175000D01*
X131900000Y-68175000D01*
X131900000Y-68950000D01*
X132450000Y-68950000D01*
X132450000Y-68175000D01*
X131900000Y-68175000D01*
X131400000Y-68175000D01*
X131400000Y-66577705D01*
X131399999Y-66577704D01*
X131900000Y-66577704D01*
X131900000Y-67675000D01*
X132450000Y-67675000D01*
X132450000Y-67159361D01*
X132447099Y-67122506D01*
X132401282Y-66964802D01*
X132317682Y-66823442D01*
X132201557Y-66707317D01*
X132060200Y-66623719D01*
X131902488Y-66577900D01*
X131900000Y-66577704D01*
X131399999Y-66577704D01*
X131397511Y-66577900D01*
X131239799Y-66623719D01*
X131098444Y-66707316D01*
X130978885Y-66826875D01*
X130927251Y-66857838D01*
X130867120Y-66860832D01*
X130812667Y-66835151D01*
X130776727Y-66786849D01*
X130776635Y-66786628D01*
X130774737Y-66781784D01*
X130758125Y-66736628D01*
X130750500Y-66693816D01*
X130750500Y-66594726D01*
X130750501Y-66594723D01*
X130750500Y-66545296D01*
X130751097Y-66533145D01*
X130753938Y-66504301D01*
X130761781Y-66424651D01*
X130766523Y-66400811D01*
X130774128Y-66375736D01*
X130796392Y-66302338D01*
X130805690Y-66279889D01*
X130838593Y-66218332D01*
X130854204Y-66189127D01*
X130867702Y-66168925D01*
X130936822Y-66084699D01*
X130944966Y-66075714D01*
X131025633Y-65995047D01*
X131034630Y-65986892D01*
X131118931Y-65917709D01*
X131139135Y-65904210D01*
X131229895Y-65855699D01*
X131252333Y-65846405D01*
X131350824Y-65816529D01*
X131374643Y-65811792D01*
X131483251Y-65801096D01*
X131495396Y-65800500D01*
X131544723Y-65800501D01*
X131544726Y-65800500D01*
X134960781Y-65800500D01*
X134989826Y-65800500D01*
X135000957Y-65800500D01*
X135001059Y-65800490D01*
X135049297Y-65800492D01*
X135224816Y-65777386D01*
X135344233Y-65745390D01*
X135395810Y-65731571D01*
X135395810Y-65731570D01*
X135395817Y-65731569D01*
X135559374Y-65663824D01*
X135712690Y-65575309D01*
X135853140Y-65467540D01*
X135862449Y-65458230D01*
X135862458Y-65458224D01*
X135941960Y-65378722D01*
X135965186Y-65355497D01*
X135965193Y-65355487D01*
X136080487Y-65240194D01*
X136080492Y-65240190D01*
X136090695Y-65229986D01*
X136090697Y-65229986D01*
X136093624Y-65227058D01*
X136093658Y-65227035D01*
X136129956Y-65190737D01*
X136129957Y-65190738D01*
X136192548Y-65128147D01*
X136300318Y-64987695D01*
X136388833Y-64834379D01*
X136456579Y-64670820D01*
X136502396Y-64499818D01*
X136525501Y-64324298D01*
X136525500Y-64235781D01*
X136525500Y-64209914D01*
X136525500Y-63147765D01*
X136543773Y-63082975D01*
X136593205Y-63037280D01*
X136659229Y-63024147D01*
X136722385Y-63047447D01*
X136764061Y-63100312D01*
X136775464Y-63127841D01*
X136871717Y-63253282D01*
X136969739Y-63328496D01*
X136997159Y-63349536D01*
X137143238Y-63410044D01*
X137300000Y-63430682D01*
X137456762Y-63410044D01*
X137602841Y-63349536D01*
X137728282Y-63253282D01*
X137824536Y-63127841D01*
X137885044Y-62981762D01*
X137905682Y-62825000D01*
X137885044Y-62668238D01*
X137867107Y-62624934D01*
X137864641Y-62618980D01*
X137862214Y-62612634D01*
X137847326Y-62570262D01*
X137844718Y-62562839D01*
X137844716Y-62562837D01*
X137843386Y-62559049D01*
X137837872Y-62498724D01*
X137861594Y-62442986D01*
X137897923Y-62413912D01*
X137896741Y-62412073D01*
X137904201Y-62407279D01*
X137965355Y-62367978D01*
X138074016Y-62273824D01*
X138121624Y-62218881D01*
X138199356Y-62097927D01*
X138229555Y-62031800D01*
X138270062Y-61893845D01*
X138280408Y-61821889D01*
X138280408Y-61200000D01*
X138280219Y-61199052D01*
X138271018Y-61152794D01*
X138261152Y-61103199D01*
X138259489Y-61065679D01*
X138269134Y-61029383D01*
X138302240Y-60953588D01*
X138304995Y-60947712D01*
X138341880Y-60874171D01*
X138345838Y-60866902D01*
X138356254Y-60849211D01*
X138394654Y-60808739D01*
X138446913Y-60789196D01*
X138560104Y-60774291D01*
X138754102Y-60722305D01*
X138939655Y-60645442D01*
X139113589Y-60545019D01*
X139272928Y-60422753D01*
X139292371Y-60403308D01*
X139292374Y-60403307D01*
X139302579Y-60393101D01*
X139302581Y-60393101D01*
X139399838Y-60295844D01*
X139399840Y-60295840D01*
X139407104Y-60288577D01*
X139407400Y-60288225D01*
X139465696Y-60229935D01*
X139614516Y-60036003D01*
X139736750Y-59824304D01*
X139767610Y-59749809D01*
X141091828Y-59749809D01*
X141101613Y-59980165D01*
X141150190Y-60205564D01*
X141232596Y-60410640D01*
X141236159Y-60419506D01*
X141357049Y-60615843D01*
X141427780Y-60696209D01*
X141509381Y-60788927D01*
X141688768Y-60933772D01*
X141890063Y-61046221D01*
X142107464Y-61123034D01*
X142334713Y-61162000D01*
X142334715Y-61162000D01*
X142507535Y-61162000D01*
X142507539Y-61162000D01*
X142622337Y-61152228D01*
X142679739Y-61147343D01*
X142902869Y-61089245D01*
X143112971Y-60994273D01*
X143304000Y-60865159D01*
X143470462Y-60705619D01*
X143607566Y-60520242D01*
X143711370Y-60314360D01*
X143778886Y-60093897D01*
X143808172Y-59865194D01*
X143798386Y-59634832D01*
X143749810Y-59409438D01*
X143732698Y-59366854D01*
X143680196Y-59236195D01*
X143663841Y-59195494D01*
X143542951Y-58999157D01*
X143419096Y-58858430D01*
X143390618Y-58826072D01*
X143211231Y-58681227D01*
X143009936Y-58568778D01*
X142792535Y-58491965D01*
X142565287Y-58453000D01*
X142565285Y-58453000D01*
X142392465Y-58453000D01*
X142392461Y-58453000D01*
X142220262Y-58467656D01*
X141997129Y-58525755D01*
X141787029Y-58620726D01*
X141596000Y-58749840D01*
X141429537Y-58909381D01*
X141292434Y-59094757D01*
X141188630Y-59300639D01*
X141121114Y-59521102D01*
X141116996Y-59553265D01*
X141097820Y-59703018D01*
X141091828Y-59749809D01*
X139767610Y-59749809D01*
X139830305Y-59598462D01*
X139893582Y-59362340D01*
X139925496Y-59119979D01*
X139925497Y-59080112D01*
X139925500Y-59080101D01*
X139925500Y-58984383D01*
X139925501Y-58966239D01*
X139925502Y-58942239D01*
X139925501Y-58942237D01*
X139925502Y-58922128D01*
X139925500Y-58922110D01*
X139925500Y-56484726D01*
X139925501Y-56484723D01*
X139925500Y-56435296D01*
X139926097Y-56423145D01*
X139936781Y-56314652D01*
X139941523Y-56290811D01*
X139958832Y-56233748D01*
X139971392Y-56192338D01*
X139980690Y-56169889D01*
X140017799Y-56100464D01*
X140029204Y-56079127D01*
X140042702Y-56058925D01*
X140111822Y-55974699D01*
X140119966Y-55965714D01*
X140854700Y-55230980D01*
X140873931Y-55215267D01*
X140884562Y-55208232D01*
X140894319Y-55202402D01*
X140895334Y-55201857D01*
X140934016Y-55188734D01*
X140943940Y-55187116D01*
X140963893Y-55185500D01*
X141149675Y-55185500D01*
X141174029Y-55180655D01*
X141222740Y-55170966D01*
X141305601Y-55115601D01*
X141332820Y-55074864D01*
X141373925Y-55036365D01*
X141427823Y-55020020D01*
X141483390Y-55029200D01*
X141590486Y-55073580D01*
X141655365Y-55086493D01*
X141725735Y-55100500D01*
X141794636Y-55100500D01*
X141850150Y-55100505D01*
X141850151Y-55100504D01*
X141870244Y-55100506D01*
X141870288Y-55100500D01*
X143285632Y-55100500D01*
X143312818Y-55103517D01*
X143325977Y-55106474D01*
X143344177Y-55112062D01*
X143353236Y-55115625D01*
X143368593Y-55122917D01*
X143386680Y-55133080D01*
X143399078Y-55141051D01*
X143425777Y-55160553D01*
X143435538Y-55168472D01*
X143472954Y-55202110D01*
X143476114Y-55204275D01*
X143493709Y-55218887D01*
X143527898Y-55253077D01*
X143643481Y-55309582D01*
X143718415Y-55320500D01*
X143718418Y-55320500D01*
X144061579Y-55320500D01*
X144061582Y-55320500D01*
X144136518Y-55309582D01*
X144136520Y-55309580D01*
X144141508Y-55308854D01*
X144183574Y-55298199D01*
X144233777Y-55306575D01*
X144276386Y-55334412D01*
X144382709Y-55440735D01*
X144520804Y-55522404D01*
X144660000Y-55562844D01*
X144660000Y-54624000D01*
X144676613Y-54562000D01*
X144722000Y-54516613D01*
X144784000Y-54500000D01*
X145036000Y-54500000D01*
X145098000Y-54516613D01*
G37*
G04 #@! TD.AperFunction*
G04 #@! TA.AperFunction,Conductor*
G36*
X133518589Y-59824798D02*
G01*
X133564979Y-59870286D01*
X133582000Y-59932987D01*
X133582000Y-60964675D01*
X133597144Y-61040805D01*
X133597144Y-61089188D01*
X133577092Y-61189998D01*
X133577092Y-61811888D01*
X133587438Y-61883847D01*
X133627944Y-62021799D01*
X133645908Y-62061133D01*
X133658144Y-62087927D01*
X133735876Y-62208881D01*
X133783484Y-62263824D01*
X133837490Y-62310620D01*
X133892141Y-62357975D01*
X133892143Y-62357976D01*
X133892145Y-62357978D01*
X133933265Y-62384404D01*
X133953302Y-62397281D01*
X133987061Y-62412698D01*
X134033716Y-62449733D01*
X134057717Y-62504252D01*
X134053526Y-62563672D01*
X134038112Y-62611301D01*
X134034699Y-62620570D01*
X134014956Y-62668238D01*
X133994317Y-62825000D01*
X134014956Y-62981762D01*
X134075463Y-63127840D01*
X134171717Y-63253282D01*
X134269739Y-63328496D01*
X134297159Y-63349536D01*
X134443238Y-63410044D01*
X134600000Y-63430682D01*
X134756762Y-63410044D01*
X134902841Y-63349536D01*
X135028282Y-63253282D01*
X135124536Y-63127841D01*
X135185044Y-62981762D01*
X135205682Y-62825000D01*
X135199125Y-62775198D01*
X135185044Y-62668238D01*
X135185044Y-62668237D01*
X135164681Y-62619078D01*
X135162074Y-62612216D01*
X135145386Y-62564007D01*
X135145382Y-62564000D01*
X135142599Y-62555959D01*
X135144956Y-62555142D01*
X135134508Y-62504026D01*
X135156223Y-62441844D01*
X135206716Y-62399555D01*
X135211701Y-62397279D01*
X135272855Y-62357978D01*
X135381516Y-62263824D01*
X135429124Y-62208881D01*
X135506856Y-62087927D01*
X135537055Y-62021800D01*
X135577562Y-61883845D01*
X135577761Y-61882455D01*
X135578478Y-61880724D01*
X135580061Y-61875336D01*
X135580640Y-61875506D01*
X135601233Y-61825792D01*
X135648989Y-61787308D01*
X135709346Y-61776419D01*
X135767540Y-61795788D01*
X135809332Y-61840676D01*
X135824500Y-61900103D01*
X135824500Y-64160153D01*
X135824499Y-64160159D01*
X135824499Y-64229702D01*
X135823902Y-64241854D01*
X135813218Y-64350347D01*
X135808476Y-64374188D01*
X135778609Y-64472654D01*
X135769306Y-64495114D01*
X135720797Y-64585868D01*
X135707293Y-64606079D01*
X135638191Y-64690281D01*
X135630018Y-64699298D01*
X135424364Y-64904952D01*
X135415347Y-64913125D01*
X135331072Y-64982286D01*
X135310860Y-64995791D01*
X135220112Y-65044296D01*
X135197655Y-65053598D01*
X135099188Y-65083467D01*
X135075345Y-65088209D01*
X134966754Y-65098902D01*
X134954602Y-65099499D01*
X134885159Y-65099499D01*
X134885153Y-65099500D01*
X131450330Y-65099500D01*
X131450217Y-65099508D01*
X131400701Y-65099508D01*
X131225184Y-65122613D01*
X131054189Y-65168428D01*
X131000344Y-65190731D01*
X130890626Y-65236176D01*
X130867768Y-65249373D01*
X130737307Y-65324692D01*
X130596862Y-65432457D01*
X130586243Y-65443076D01*
X130575627Y-65453692D01*
X130534269Y-65495050D01*
X130495014Y-65534303D01*
X130484303Y-65545014D01*
X130484293Y-65545022D01*
X130481373Y-65547943D01*
X130481342Y-65547963D01*
X130382450Y-65646854D01*
X130310466Y-65740669D01*
X130274682Y-65787305D01*
X130238197Y-65850500D01*
X130189628Y-65934627D01*
X130186167Y-65940621D01*
X130119892Y-66100630D01*
X130118419Y-66104186D01*
X130072603Y-66275183D01*
X130049499Y-66450698D01*
X130049500Y-66501463D01*
X130049500Y-66693814D01*
X130041874Y-66736625D01*
X130027573Y-66775500D01*
X130025268Y-66781765D01*
X130023355Y-66786644D01*
X129992591Y-66860477D01*
X129989903Y-66866476D01*
X129962124Y-66924305D01*
X129958218Y-66931775D01*
X129942137Y-66960136D01*
X129921961Y-66986646D01*
X129921950Y-66986656D01*
X129914649Y-67000984D01*
X129906158Y-67015208D01*
X129904800Y-67017170D01*
X129884748Y-67055302D01*
X129839105Y-67103729D01*
X129774998Y-67121586D01*
X129710892Y-67103729D01*
X129665249Y-67055300D01*
X129645197Y-67017169D01*
X129643859Y-67015235D01*
X129635348Y-67000980D01*
X129628050Y-66986657D01*
X129628042Y-66986649D01*
X129607857Y-66960132D01*
X129591761Y-66931744D01*
X129587869Y-66924299D01*
X129560093Y-66866473D01*
X129557408Y-66860484D01*
X129526642Y-66786644D01*
X129524737Y-66781784D01*
X129508125Y-66736628D01*
X129500500Y-66693816D01*
X129500500Y-66524241D01*
X129500490Y-66524130D01*
X129500492Y-66475703D01*
X129477386Y-66300184D01*
X129470687Y-66275182D01*
X129431571Y-66129189D01*
X129431250Y-66128413D01*
X129363824Y-65965626D01*
X129275309Y-65812310D01*
X129167540Y-65671860D01*
X129156515Y-65660835D01*
X129156510Y-65660828D01*
X129094216Y-65598534D01*
X129094212Y-65598528D01*
X129079047Y-65583364D01*
X129079024Y-65583328D01*
X128978149Y-65482453D01*
X128925998Y-65442438D01*
X128837695Y-65374682D01*
X128684379Y-65286167D01*
X128520820Y-65218421D01*
X128520813Y-65218419D01*
X128349816Y-65172603D01*
X128174301Y-65149499D01*
X128174298Y-65149499D01*
X128085781Y-65149500D01*
X125814847Y-65149500D01*
X125814841Y-65149499D01*
X125745297Y-65149499D01*
X125733145Y-65148902D01*
X125624652Y-65138218D01*
X125600811Y-65133476D01*
X125502345Y-65103609D01*
X125479885Y-65094306D01*
X125389131Y-65045797D01*
X125368920Y-65032293D01*
X125284717Y-64963191D01*
X125275699Y-64955018D01*
X125120045Y-64799363D01*
X125111873Y-64790345D01*
X125042713Y-64706071D01*
X125029208Y-64685860D01*
X125008935Y-64647931D01*
X124980701Y-64595107D01*
X124971404Y-64572663D01*
X124941529Y-64474177D01*
X124936791Y-64450354D01*
X124926096Y-64341749D01*
X124925500Y-64329600D01*
X124925500Y-64308630D01*
X124925501Y-64280277D01*
X124925500Y-64280274D01*
X124925500Y-64086351D01*
X124934588Y-64039754D01*
X124965185Y-63964300D01*
X124967644Y-63958645D01*
X125015569Y-63855509D01*
X125019055Y-63848588D01*
X125062850Y-63768085D01*
X125068055Y-63759390D01*
X125075934Y-63747379D01*
X125087719Y-63734929D01*
X125124536Y-63685043D01*
X125177793Y-63612882D01*
X125190409Y-63576823D01*
X125194662Y-63567266D01*
X125195967Y-63563197D01*
X125195970Y-63563194D01*
X125198622Y-63554932D01*
X125198622Y-63554927D01*
X125202234Y-63543677D01*
X125202444Y-63543744D01*
X125203355Y-63539826D01*
X125222646Y-63484699D01*
X125225500Y-63454266D01*
X125225500Y-63369432D01*
X125232452Y-63328496D01*
X125279115Y-63195073D01*
X125280511Y-63191282D01*
X125334868Y-63050916D01*
X125375763Y-62996750D01*
X125439049Y-62972227D01*
X125505766Y-62984694D01*
X125555925Y-63030417D01*
X125574500Y-63095697D01*
X125574500Y-63454269D01*
X125577353Y-63484696D01*
X125622207Y-63612884D01*
X125702849Y-63722150D01*
X125812115Y-63802792D01*
X125812118Y-63802793D01*
X125940301Y-63847646D01*
X125952474Y-63848787D01*
X125970731Y-63850500D01*
X125970734Y-63850500D01*
X126479266Y-63850500D01*
X126479269Y-63850500D01*
X126494482Y-63849073D01*
X126509699Y-63847646D01*
X126637882Y-63802793D01*
X126747150Y-63722150D01*
X126750575Y-63717508D01*
X126791721Y-63681873D01*
X126844165Y-63667293D01*
X126897799Y-63676577D01*
X126901525Y-63678121D01*
X126918238Y-63685044D01*
X127074999Y-63705682D01*
X127074999Y-63705681D01*
X127075000Y-63705682D01*
X127231762Y-63685044D01*
X127377841Y-63624536D01*
X127503282Y-63528282D01*
X127599536Y-63402841D01*
X127660044Y-63256762D01*
X127680682Y-63100000D01*
X127660044Y-62943238D01*
X127599536Y-62797159D01*
X127572526Y-62761959D01*
X127493344Y-62658766D01*
X127493545Y-62658611D01*
X127466998Y-62624934D01*
X127456660Y-62564770D01*
X127476283Y-62506964D01*
X127521111Y-62465527D01*
X127580278Y-62450500D01*
X129916512Y-62450500D01*
X130004040Y-62450500D01*
X130125788Y-62450500D01*
X130151234Y-62453139D01*
X130152556Y-62453416D01*
X130160315Y-62455043D01*
X130186364Y-62451795D01*
X130189123Y-62451452D01*
X130204460Y-62450500D01*
X130316512Y-62450500D01*
X130355376Y-62450500D01*
X130365614Y-62450923D01*
X130404344Y-62454132D01*
X130404347Y-62454131D01*
X130404744Y-62454164D01*
X130434142Y-62450500D01*
X130505869Y-62450500D01*
X130522753Y-62452960D01*
X130579679Y-62450606D01*
X130584802Y-62450500D01*
X131825957Y-62450500D01*
X131826059Y-62450490D01*
X131874297Y-62450492D01*
X132049816Y-62427386D01*
X132213334Y-62383574D01*
X132220810Y-62381571D01*
X132220810Y-62381570D01*
X132220817Y-62381569D01*
X132384374Y-62313824D01*
X132537690Y-62225309D01*
X132678140Y-62117540D01*
X132687449Y-62108230D01*
X132687458Y-62108224D01*
X132769919Y-62025763D01*
X132779986Y-62015697D01*
X132779986Y-62015695D01*
X132790187Y-62005496D01*
X132790195Y-62005485D01*
X132805487Y-61990194D01*
X132805492Y-61990190D01*
X132815695Y-61979986D01*
X132815697Y-61979986D01*
X132818624Y-61977058D01*
X132818658Y-61977035D01*
X132854956Y-61940737D01*
X132854957Y-61940738D01*
X132917548Y-61878147D01*
X133025318Y-61737695D01*
X133113833Y-61584379D01*
X133181579Y-61420820D01*
X133227396Y-61249818D01*
X133250501Y-61074298D01*
X133250500Y-60985781D01*
X133250500Y-60958910D01*
X133250500Y-60269726D01*
X133250501Y-60269723D01*
X133250500Y-60220296D01*
X133251097Y-60208145D01*
X133251352Y-60205562D01*
X133261781Y-60099651D01*
X133266523Y-60075811D01*
X133278385Y-60036704D01*
X133296392Y-59977338D01*
X133305690Y-59954889D01*
X133331077Y-59907394D01*
X133348642Y-59874533D01*
X133393211Y-59827259D01*
X133455566Y-59809011D01*
X133518589Y-59824798D01*
G37*
G04 #@! TD.AperFunction*
G04 #@! TA.AperFunction,Conductor*
G36*
X131266807Y-54890828D02*
G01*
X131311455Y-54931296D01*
X131354103Y-54995125D01*
X131369661Y-55028019D01*
X131375000Y-55064014D01*
X131375000Y-55325000D01*
X131422829Y-55325000D01*
X131459992Y-55321004D01*
X131514501Y-55327356D01*
X131560930Y-55356612D01*
X131637177Y-55432859D01*
X131637204Y-55432895D01*
X131638181Y-55433872D01*
X131640143Y-55436809D01*
X131658147Y-55460782D01*
X131658158Y-55460802D01*
X131656708Y-55461599D01*
X131665061Y-55474100D01*
X131674500Y-55521553D01*
X131674500Y-56655052D01*
X131670101Y-56687786D01*
X131669463Y-56690114D01*
X131661904Y-56783390D01*
X131656166Y-56811917D01*
X131650033Y-56830670D01*
X131638848Y-56855348D01*
X131613991Y-56897288D01*
X131611816Y-56900822D01*
X131554614Y-56990362D01*
X131547361Y-57002434D01*
X131546762Y-57003496D01*
X131540192Y-57015931D01*
X131478062Y-57141769D01*
X131478061Y-57141773D01*
X131463230Y-57186167D01*
X131463084Y-57186603D01*
X131460035Y-57194762D01*
X131439956Y-57243237D01*
X131419317Y-57399999D01*
X131439956Y-57556762D01*
X131500463Y-57702840D01*
X131596717Y-57828282D01*
X131670353Y-57884784D01*
X131722159Y-57924536D01*
X131868238Y-57985044D01*
X132025000Y-58005682D01*
X132181762Y-57985044D01*
X132230255Y-57964956D01*
X132238350Y-57961930D01*
X132283232Y-57946935D01*
X132409082Y-57884797D01*
X132421464Y-57878256D01*
X132422583Y-57877625D01*
X132434636Y-57870383D01*
X132524232Y-57813144D01*
X132527731Y-57810991D01*
X132536670Y-57805693D01*
X132569648Y-57786146D01*
X132594317Y-57774964D01*
X132613077Y-57768829D01*
X132641595Y-57763094D01*
X132734882Y-57755536D01*
X132737220Y-57754896D01*
X132769946Y-57750500D01*
X134917287Y-57750500D01*
X134983912Y-57769919D01*
X135029669Y-57822095D01*
X135040226Y-57890685D01*
X135019317Y-58049499D01*
X135039956Y-58206264D01*
X135044885Y-58218164D01*
X135053213Y-58282166D01*
X135028247Y-58341684D01*
X134976751Y-58380593D01*
X134912677Y-58388351D01*
X134868850Y-58382050D01*
X134868849Y-58382050D01*
X134796151Y-58382050D01*
X134787247Y-58383330D01*
X134769602Y-58384592D01*
X134395398Y-58384592D01*
X134377752Y-58383330D01*
X134368849Y-58382050D01*
X134296151Y-58382050D01*
X134278471Y-58384592D01*
X134153837Y-58402511D01*
X134084079Y-58422994D01*
X133953302Y-58482718D01*
X133892141Y-58522024D01*
X133783487Y-58616173D01*
X133783484Y-58616176D01*
X133779541Y-58620727D01*
X133735872Y-58671123D01*
X133657290Y-58793400D01*
X133626099Y-58826505D01*
X133585069Y-58846136D01*
X133539186Y-58858430D01*
X133539184Y-58858430D01*
X133539183Y-58858431D01*
X133375626Y-58926176D01*
X133334535Y-58949898D01*
X133222307Y-59014692D01*
X133081856Y-59122462D01*
X133008824Y-59195494D01*
X133008821Y-59195495D01*
X132981369Y-59222946D01*
X132981341Y-59222964D01*
X132882450Y-59321854D01*
X132815247Y-59409438D01*
X132774682Y-59462305D01*
X132709882Y-59574544D01*
X132696074Y-59598462D01*
X132686167Y-59615621D01*
X132621469Y-59771823D01*
X132618419Y-59779186D01*
X132572603Y-59950183D01*
X132549499Y-60125698D01*
X132549500Y-60171719D01*
X132549500Y-60910153D01*
X132549499Y-60910159D01*
X132549499Y-60979702D01*
X132548902Y-60991854D01*
X132538218Y-61100347D01*
X132533476Y-61124188D01*
X132503609Y-61222654D01*
X132494306Y-61245114D01*
X132445797Y-61335868D01*
X132432293Y-61356079D01*
X132363191Y-61440281D01*
X132355018Y-61449298D01*
X132249364Y-61554952D01*
X132240347Y-61563125D01*
X132156072Y-61632286D01*
X132135860Y-61645791D01*
X132045112Y-61694296D01*
X132022654Y-61703598D01*
X131940088Y-61728644D01*
X131924188Y-61733467D01*
X131900345Y-61738209D01*
X131791754Y-61748902D01*
X131779602Y-61749499D01*
X131710159Y-61749499D01*
X131710153Y-61749500D01*
X130849500Y-61749500D01*
X130787500Y-61732887D01*
X130742113Y-61687500D01*
X130725500Y-61625500D01*
X130725500Y-55571552D01*
X130734942Y-55524092D01*
X130761830Y-55483859D01*
X130765568Y-55480121D01*
X130765585Y-55480095D01*
X130880507Y-55365175D01*
X130880507Y-55365174D01*
X130884364Y-55361318D01*
X130924593Y-55334439D01*
X130972045Y-55325000D01*
X131025000Y-55325000D01*
X131025000Y-55130146D01*
X131027385Y-55105943D01*
X131039044Y-55047358D01*
X131057550Y-55002683D01*
X131064056Y-54992945D01*
X131075305Y-54978537D01*
X131076237Y-54977511D01*
X131079769Y-54972366D01*
X131082361Y-54967218D01*
X131089988Y-54954135D01*
X131105252Y-54931290D01*
X131149901Y-54890825D01*
X131208354Y-54876185D01*
X131266807Y-54890828D01*
G37*
G04 #@! TD.AperFunction*
G04 #@! TA.AperFunction,Conductor*
G36*
X130578000Y-44342113D02*
G01*
X130623387Y-44387500D01*
X130640000Y-44449500D01*
X130640000Y-45095000D01*
X132266000Y-45095000D01*
X132328000Y-45111613D01*
X132373387Y-45157000D01*
X132390000Y-45219000D01*
X132390000Y-46845000D01*
X133187824Y-46845000D01*
X133247375Y-46838597D01*
X133382089Y-46788352D01*
X133497188Y-46702188D01*
X133583352Y-46587089D01*
X133633253Y-46453300D01*
X133672827Y-46399129D01*
X133734824Y-46373498D01*
X133801097Y-46383909D01*
X133852249Y-46427315D01*
X133923818Y-46533466D01*
X133925418Y-46535900D01*
X134050892Y-46731777D01*
X134063256Y-46756961D01*
X134135156Y-46958306D01*
X134141892Y-46989041D01*
X134174554Y-47356930D01*
X134174880Y-47358090D01*
X134179500Y-47391621D01*
X134179500Y-47591324D01*
X134170061Y-47638777D01*
X134143181Y-47679005D01*
X134059005Y-47763181D01*
X134018777Y-47790061D01*
X133971324Y-47799500D01*
X131519936Y-47799500D01*
X131519806Y-47799508D01*
X131465871Y-47799508D01*
X131270860Y-47825179D01*
X131080868Y-47876084D01*
X130899142Y-47951355D01*
X130728796Y-48049702D01*
X130572748Y-48169439D01*
X130503205Y-48238981D01*
X130503204Y-48238982D01*
X130503204Y-48238983D01*
X130456610Y-48285575D01*
X130450377Y-48291808D01*
X130260575Y-48481610D01*
X130260571Y-48481612D01*
X130250306Y-48491878D01*
X130250275Y-48491898D01*
X130144431Y-48597741D01*
X130070272Y-48694391D01*
X130024693Y-48753792D01*
X129928161Y-48920995D01*
X129926345Y-48924141D01*
X129851075Y-49105862D01*
X129800169Y-49295858D01*
X129773442Y-49498891D01*
X129750273Y-49556340D01*
X129672207Y-49662115D01*
X129627353Y-49790303D01*
X129624500Y-49820731D01*
X129624500Y-50479269D01*
X129627353Y-50509697D01*
X129640477Y-50547205D01*
X129645848Y-50568386D01*
X129648448Y-50584485D01*
X129671680Y-50659202D01*
X129672627Y-50662398D01*
X129697046Y-50749087D01*
X129697775Y-50751790D01*
X129722763Y-50848841D01*
X129723321Y-50851100D01*
X129737023Y-50908891D01*
X129737023Y-50908892D01*
X129737022Y-50966101D01*
X129723318Y-51023904D01*
X129722747Y-51026217D01*
X129697775Y-51123206D01*
X129697046Y-51125908D01*
X129672624Y-51212609D01*
X129671677Y-51215806D01*
X129648447Y-51290514D01*
X129645848Y-51306613D01*
X129640477Y-51327794D01*
X129629387Y-51359488D01*
X129627857Y-51363865D01*
X129622353Y-51379595D01*
X129618437Y-51378225D01*
X129604936Y-51413533D01*
X129552647Y-51454421D01*
X129415630Y-51511174D01*
X129415627Y-51511175D01*
X129415626Y-51511176D01*
X129391117Y-51525326D01*
X129262307Y-51599692D01*
X129121856Y-51707462D01*
X129109303Y-51720015D01*
X129048799Y-51780518D01*
X129048799Y-51780519D01*
X129020014Y-51809303D01*
X128906374Y-51922943D01*
X128906340Y-51922965D01*
X128807450Y-52021854D01*
X128727441Y-52126128D01*
X128699682Y-52162305D01*
X128648268Y-52251358D01*
X128620585Y-52299309D01*
X128611167Y-52315621D01*
X128545153Y-52475000D01*
X128543419Y-52479186D01*
X128497603Y-52650183D01*
X128474499Y-52825698D01*
X128474500Y-52870223D01*
X128474500Y-53875788D01*
X128471861Y-53901234D01*
X128469957Y-53910314D01*
X128473548Y-53939123D01*
X128474500Y-53954460D01*
X128474500Y-54105376D01*
X128474077Y-54115614D01*
X128470835Y-54154744D01*
X128474500Y-54184142D01*
X128474500Y-54255869D01*
X128472040Y-54272752D01*
X128474394Y-54329668D01*
X128474500Y-54334792D01*
X128474500Y-59285153D01*
X128474499Y-59285159D01*
X128474499Y-59354702D01*
X128473902Y-59366854D01*
X128463218Y-59475347D01*
X128458476Y-59499188D01*
X128428609Y-59597654D01*
X128419306Y-59620114D01*
X128370797Y-59710868D01*
X128357293Y-59731079D01*
X128288187Y-59815286D01*
X128280014Y-59824303D01*
X128049364Y-60054952D01*
X128040347Y-60063125D01*
X127956072Y-60132286D01*
X127935860Y-60145791D01*
X127845112Y-60194296D01*
X127822655Y-60203598D01*
X127785390Y-60214902D01*
X127735832Y-60229935D01*
X127724188Y-60233467D01*
X127700344Y-60238209D01*
X127643646Y-60243792D01*
X127589919Y-60237211D01*
X127544367Y-60208529D01*
X127544327Y-60208571D01*
X127544129Y-60208379D01*
X127544115Y-60208370D01*
X127543871Y-60208128D01*
X127543839Y-60208096D01*
X127483950Y-60149874D01*
X127460015Y-60129321D01*
X127457714Y-60127580D01*
X127457713Y-60127579D01*
X127457706Y-60127574D01*
X127431415Y-60110127D01*
X127431412Y-60110125D01*
X127404367Y-60094492D01*
X127390945Y-60085519D01*
X127377839Y-60075462D01*
X127362814Y-60069239D01*
X127348424Y-60062138D01*
X127273459Y-60031986D01*
X127270675Y-60031074D01*
X127231762Y-60014956D01*
X127075000Y-59994317D01*
X126918237Y-60014956D01*
X126897798Y-60023422D01*
X126844165Y-60032706D01*
X126791724Y-60018127D01*
X126750578Y-59982494D01*
X126747149Y-59977848D01*
X126637884Y-59897207D01*
X126512614Y-59853374D01*
X126509699Y-59852354D01*
X126509698Y-59852353D01*
X126509696Y-59852353D01*
X126479269Y-59849500D01*
X126479266Y-59849500D01*
X125970734Y-59849500D01*
X125970731Y-59849500D01*
X125940303Y-59852353D01*
X125812115Y-59897207D01*
X125702849Y-59977849D01*
X125622207Y-60087115D01*
X125577353Y-60215303D01*
X125574500Y-60245731D01*
X125574500Y-60617950D01*
X125556251Y-60682702D01*
X125506875Y-60728394D01*
X125440905Y-60741578D01*
X125377760Y-60718374D01*
X125336025Y-60665610D01*
X125334873Y-60662843D01*
X125333076Y-60658274D01*
X125328321Y-60645443D01*
X125277282Y-60507724D01*
X125275956Y-60503956D01*
X125231881Y-60371930D01*
X125225500Y-60332665D01*
X125225500Y-60245731D01*
X125223787Y-60227474D01*
X125222646Y-60215301D01*
X125177793Y-60087118D01*
X125177792Y-60087115D01*
X125097150Y-59977849D01*
X124987884Y-59897207D01*
X124862614Y-59853374D01*
X124859699Y-59852354D01*
X124859698Y-59852353D01*
X124859696Y-59852353D01*
X124829269Y-59849500D01*
X124829266Y-59849500D01*
X124320734Y-59849500D01*
X124320731Y-59849500D01*
X124290303Y-59852353D01*
X124162117Y-59897207D01*
X124052849Y-59977850D01*
X124036986Y-59999344D01*
X124027060Y-60011174D01*
X123958005Y-60083766D01*
X123949511Y-60091887D01*
X123890438Y-60143236D01*
X123879321Y-60151843D01*
X123829188Y-60186297D01*
X123814874Y-60194780D01*
X123775047Y-60214902D01*
X123757261Y-60222217D01*
X123739172Y-60228063D01*
X123701968Y-60234069D01*
X123680477Y-60230928D01*
X123680432Y-60231318D01*
X123669205Y-60230010D01*
X123669203Y-60230010D01*
X123515474Y-60212110D01*
X123371265Y-60195318D01*
X123332865Y-60184374D01*
X123190767Y-60117593D01*
X123164494Y-60100933D01*
X123007378Y-59971024D01*
X123005315Y-59969335D01*
X122778529Y-59785875D01*
X122767867Y-59778041D01*
X122759405Y-59771824D01*
X122757596Y-59770620D01*
X122737234Y-59758393D01*
X122737233Y-59758392D01*
X122737224Y-59758387D01*
X122495670Y-59628224D01*
X122489216Y-59624492D01*
X122442635Y-59595651D01*
X122423460Y-59588222D01*
X122409445Y-59581762D01*
X122407875Y-59580916D01*
X122349086Y-59559128D01*
X122341329Y-59556253D01*
X122341327Y-59556252D01*
X122333266Y-59553265D01*
X122333306Y-59553156D01*
X122331553Y-59552617D01*
X122252459Y-59521977D01*
X122252458Y-59521976D01*
X122252456Y-59521976D01*
X122051976Y-59484500D01*
X121848024Y-59484500D01*
X121769450Y-59499188D01*
X121647542Y-59521976D01*
X121457361Y-59595652D01*
X121283958Y-59703018D01*
X121133236Y-59840420D01*
X121123454Y-59853374D01*
X121075632Y-59891614D01*
X121015342Y-59902308D01*
X120957285Y-59882849D01*
X120915618Y-59837982D01*
X120900500Y-59778647D01*
X120900500Y-58851353D01*
X120915618Y-58792018D01*
X120957285Y-58747151D01*
X121015342Y-58727692D01*
X121075632Y-58738386D01*
X121123454Y-58776626D01*
X121133236Y-58789579D01*
X121283958Y-58926981D01*
X121425617Y-59014692D01*
X121457363Y-59034348D01*
X121647544Y-59108024D01*
X121848024Y-59145500D01*
X122051974Y-59145500D01*
X122051976Y-59145500D01*
X122252456Y-59108024D01*
X122442637Y-59034348D01*
X122616041Y-58926981D01*
X122766764Y-58789579D01*
X122889673Y-58626821D01*
X122889673Y-58626819D01*
X122889675Y-58626818D01*
X122954456Y-58496718D01*
X122980582Y-58444250D01*
X123036397Y-58248083D01*
X123055215Y-58045000D01*
X123036397Y-57841917D01*
X123032517Y-57828282D01*
X122996826Y-57702841D01*
X122980582Y-57645750D01*
X122968686Y-57621860D01*
X122889675Y-57463181D01*
X122766763Y-57300419D01*
X122616041Y-57163018D01*
X122442638Y-57055652D01*
X122252457Y-56981976D01*
X122177701Y-56968002D01*
X122051976Y-56944500D01*
X121848024Y-56944500D01*
X121773018Y-56958521D01*
X121647542Y-56981976D01*
X121457361Y-57055652D01*
X121283958Y-57163018D01*
X121133236Y-57300420D01*
X121123454Y-57313374D01*
X121075632Y-57351614D01*
X121015342Y-57362308D01*
X120957285Y-57342849D01*
X120915618Y-57297982D01*
X120900500Y-57238647D01*
X120900500Y-56311353D01*
X120915618Y-56252018D01*
X120957285Y-56207151D01*
X121015342Y-56187692D01*
X121075632Y-56198386D01*
X121123454Y-56236626D01*
X121133236Y-56249579D01*
X121283958Y-56386981D01*
X121457361Y-56494347D01*
X121457363Y-56494348D01*
X121647544Y-56568024D01*
X121848024Y-56605500D01*
X122051974Y-56605500D01*
X122051976Y-56605500D01*
X122252456Y-56568024D01*
X122442637Y-56494348D01*
X122616041Y-56386981D01*
X122747988Y-56266696D01*
X122766763Y-56249580D01*
X122773666Y-56240439D01*
X122889673Y-56086821D01*
X122889673Y-56086819D01*
X122889675Y-56086818D01*
X122971434Y-55922621D01*
X122980582Y-55904250D01*
X123036397Y-55708083D01*
X123055215Y-55505000D01*
X123036397Y-55301917D01*
X123033354Y-55291223D01*
X122996688Y-55162356D01*
X122980582Y-55105750D01*
X122967923Y-55080327D01*
X122889675Y-54923181D01*
X122766763Y-54760419D01*
X122616041Y-54623018D01*
X122442638Y-54515652D01*
X122252457Y-54441976D01*
X122159898Y-54424674D01*
X122051976Y-54404500D01*
X121848024Y-54404500D01*
X121747784Y-54423237D01*
X121647542Y-54441976D01*
X121457361Y-54515652D01*
X121283958Y-54623018D01*
X121133236Y-54760420D01*
X121123454Y-54773374D01*
X121075632Y-54811614D01*
X121015342Y-54822308D01*
X120957285Y-54802849D01*
X120915618Y-54757982D01*
X120900500Y-54698647D01*
X120900500Y-53771353D01*
X120915618Y-53712018D01*
X120957285Y-53667151D01*
X121015342Y-53647692D01*
X121075632Y-53658386D01*
X121123454Y-53696626D01*
X121133236Y-53709579D01*
X121283958Y-53846981D01*
X121457361Y-53954347D01*
X121457363Y-53954348D01*
X121647544Y-54028024D01*
X121848024Y-54065500D01*
X122051974Y-54065500D01*
X122051976Y-54065500D01*
X122252456Y-54028024D01*
X122442637Y-53954348D01*
X122616041Y-53846981D01*
X122713773Y-53757887D01*
X122766763Y-53709580D01*
X122773041Y-53701267D01*
X122889673Y-53546821D01*
X122889673Y-53546819D01*
X122889675Y-53546818D01*
X122950172Y-53425322D01*
X122980582Y-53364250D01*
X123036397Y-53168083D01*
X123055215Y-52965000D01*
X123036397Y-52761917D01*
X123024309Y-52719434D01*
X123004608Y-52650192D01*
X122980582Y-52565750D01*
X122973911Y-52552353D01*
X122889675Y-52383181D01*
X122766763Y-52220419D01*
X122616041Y-52083018D01*
X122442638Y-51975652D01*
X122252457Y-51901976D01*
X122185629Y-51889483D01*
X122051976Y-51864500D01*
X121848024Y-51864500D01*
X121769910Y-51879102D01*
X121647542Y-51901976D01*
X121457361Y-51975652D01*
X121283958Y-52083018D01*
X121133236Y-52220420D01*
X121123454Y-52233374D01*
X121075632Y-52271614D01*
X121015342Y-52282308D01*
X120957285Y-52262849D01*
X120915618Y-52217982D01*
X120900500Y-52158647D01*
X120900500Y-51231353D01*
X120915618Y-51172018D01*
X120957285Y-51127151D01*
X121015342Y-51107692D01*
X121075632Y-51118386D01*
X121123454Y-51156626D01*
X121133236Y-51169579D01*
X121283958Y-51306981D01*
X121457361Y-51414347D01*
X121457363Y-51414348D01*
X121647544Y-51488024D01*
X121848024Y-51525500D01*
X122051974Y-51525500D01*
X122051976Y-51525500D01*
X122252456Y-51488024D01*
X122442637Y-51414348D01*
X122616041Y-51306981D01*
X122720031Y-51212182D01*
X122766763Y-51169580D01*
X122773543Y-51160602D01*
X122889673Y-51006821D01*
X122889673Y-51006819D01*
X122889675Y-51006818D01*
X122945155Y-50895397D01*
X122980582Y-50824250D01*
X123036397Y-50628083D01*
X123055215Y-50425000D01*
X123036397Y-50221917D01*
X123033476Y-50211652D01*
X123004937Y-50111348D01*
X122980582Y-50025750D01*
X122957663Y-49979722D01*
X122889675Y-49843181D01*
X122766763Y-49680419D01*
X122616041Y-49543018D01*
X122442638Y-49435652D01*
X122252457Y-49361976D01*
X122154120Y-49343594D01*
X122051976Y-49324500D01*
X121848024Y-49324500D01*
X121747784Y-49343237D01*
X121647542Y-49361976D01*
X121457361Y-49435652D01*
X121283958Y-49543018D01*
X121133236Y-49680420D01*
X121123454Y-49693374D01*
X121075632Y-49731614D01*
X121015342Y-49742308D01*
X120957285Y-49722849D01*
X120915618Y-49677982D01*
X120900500Y-49618647D01*
X120900500Y-46032822D01*
X120900501Y-46032819D01*
X120900500Y-45989647D01*
X120900816Y-45980804D01*
X120901781Y-45967309D01*
X121241828Y-45967309D01*
X121251613Y-46197665D01*
X121300190Y-46423064D01*
X121371400Y-46600277D01*
X121386159Y-46637006D01*
X121507049Y-46833343D01*
X121586061Y-46923118D01*
X121659381Y-47006427D01*
X121838768Y-47151272D01*
X122040063Y-47263721D01*
X122257464Y-47340534D01*
X122484713Y-47379500D01*
X122484715Y-47379500D01*
X122657535Y-47379500D01*
X122657539Y-47379500D01*
X122772337Y-47369728D01*
X122829739Y-47364843D01*
X123052869Y-47306745D01*
X123262971Y-47211773D01*
X123454000Y-47082659D01*
X123620462Y-46923119D01*
X123757566Y-46737742D01*
X123861370Y-46531860D01*
X123928886Y-46311397D01*
X123958172Y-46082694D01*
X123948386Y-45852332D01*
X123899810Y-45626938D01*
X123886976Y-45595000D01*
X130640000Y-45595000D01*
X130640000Y-46392824D01*
X130646402Y-46452375D01*
X130696647Y-46587089D01*
X130782811Y-46702188D01*
X130897910Y-46788352D01*
X131032624Y-46838597D01*
X131092176Y-46845000D01*
X131890000Y-46845000D01*
X131890000Y-45595000D01*
X130640000Y-45595000D01*
X123886976Y-45595000D01*
X123813842Y-45412997D01*
X123813841Y-45412994D01*
X123692951Y-45216657D01*
X123585880Y-45095000D01*
X123540618Y-45043572D01*
X123361231Y-44898727D01*
X123159936Y-44786278D01*
X122942535Y-44709465D01*
X122715287Y-44670500D01*
X122715285Y-44670500D01*
X122542465Y-44670500D01*
X122542461Y-44670500D01*
X122370262Y-44685156D01*
X122147129Y-44743255D01*
X121937029Y-44838226D01*
X121746000Y-44967340D01*
X121579537Y-45126881D01*
X121442434Y-45312257D01*
X121338630Y-45518139D01*
X121271114Y-45738602D01*
X121267191Y-45769241D01*
X121243067Y-45957636D01*
X121241828Y-45967309D01*
X120901781Y-45967309D01*
X120902350Y-45959350D01*
X120916758Y-45757855D01*
X120919273Y-45740361D01*
X120965840Y-45526288D01*
X120970823Y-45509316D01*
X121047383Y-45304045D01*
X121054722Y-45287975D01*
X121159729Y-45095667D01*
X121169273Y-45080816D01*
X121300571Y-44905421D01*
X121312145Y-44892064D01*
X121467064Y-44737145D01*
X121480421Y-44725571D01*
X121655816Y-44594273D01*
X121670667Y-44584729D01*
X121862975Y-44479722D01*
X121879045Y-44472383D01*
X122084319Y-44395821D01*
X122101288Y-44390840D01*
X122315361Y-44344273D01*
X122332855Y-44341758D01*
X122555807Y-44325815D01*
X122564647Y-44325500D01*
X122607819Y-44325501D01*
X122607822Y-44325500D01*
X130516000Y-44325500D01*
X130578000Y-44342113D01*
G37*
G04 #@! TD.AperFunction*
G04 #@! TA.AperFunction,Conductor*
G36*
X134018777Y-48809939D02*
G01*
X134059005Y-48836819D01*
X134143181Y-48920995D01*
X134170061Y-48961223D01*
X134179500Y-49008676D01*
X134179500Y-51558673D01*
X134179522Y-51558996D01*
X134179522Y-51636593D01*
X134211449Y-51879137D01*
X134274763Y-52115447D01*
X134368377Y-52341463D01*
X134368378Y-52341466D01*
X134368380Y-52341469D01*
X134490696Y-52553338D01*
X134639620Y-52747429D01*
X134695350Y-52803162D01*
X134695364Y-52803178D01*
X134726112Y-52833926D01*
X134784432Y-52892250D01*
X134784448Y-52892262D01*
X134837917Y-52945731D01*
X134882048Y-52989862D01*
X134882290Y-52990071D01*
X134891410Y-52999192D01*
X134928486Y-53036270D01*
X135103189Y-53170333D01*
X135103193Y-53170335D01*
X135103198Y-53170339D01*
X135293920Y-53280459D01*
X135497384Y-53364743D01*
X135710109Y-53421748D01*
X135928455Y-53450498D01*
X135990501Y-53450498D01*
X135990508Y-53450500D01*
X136038570Y-53450500D01*
X136104462Y-53450501D01*
X136104466Y-53450500D01*
X137429078Y-53450500D01*
X137462269Y-53455024D01*
X137463929Y-53455486D01*
X137541940Y-53462158D01*
X137552298Y-53463486D01*
X137625823Y-53476095D01*
X137635763Y-53478224D01*
X137710885Y-53497565D01*
X137720219Y-53500365D01*
X137784923Y-53522586D01*
X137836362Y-53556412D01*
X137865194Y-53610808D01*
X137864310Y-53672367D01*
X137833929Y-53725913D01*
X137797867Y-53748169D01*
X137798486Y-53749193D01*
X137640124Y-53844925D01*
X137519925Y-53965124D01*
X137431980Y-54110603D01*
X137381409Y-54272893D01*
X137375000Y-54343424D01*
X137375000Y-54350000D01*
X138476000Y-54350000D01*
X138538000Y-54366613D01*
X138583387Y-54412000D01*
X138600000Y-54474000D01*
X138600000Y-55507701D01*
X138621572Y-55545064D01*
X138621572Y-55609252D01*
X138589478Y-55664839D01*
X138581137Y-55673180D01*
X138576084Y-55677958D01*
X138412898Y-55823792D01*
X138402026Y-55832462D01*
X138226388Y-55957086D01*
X138214614Y-55964484D01*
X138026132Y-56068656D01*
X138013603Y-56074690D01*
X137814639Y-56157105D01*
X137801514Y-56161698D01*
X137594567Y-56221320D01*
X137581010Y-56224414D01*
X137368698Y-56260488D01*
X137354880Y-56262045D01*
X137136594Y-56274305D01*
X137129641Y-56274500D01*
X136344948Y-56274500D01*
X136312218Y-56270102D01*
X136309885Y-56269463D01*
X136216607Y-56261904D01*
X136188076Y-56256165D01*
X136169325Y-56250032D01*
X136144650Y-56238848D01*
X136102724Y-56213999D01*
X136099192Y-56211824D01*
X136009644Y-56154619D01*
X135997659Y-56147415D01*
X135996569Y-56146800D01*
X135984085Y-56140202D01*
X135858224Y-56078059D01*
X135813406Y-56063087D01*
X135805245Y-56060038D01*
X135756762Y-56039956D01*
X135600000Y-56019317D01*
X135443237Y-56039956D01*
X135297159Y-56100463D01*
X135171717Y-56196717D01*
X135075463Y-56322159D01*
X135014956Y-56468237D01*
X134994317Y-56625000D01*
X135014955Y-56781760D01*
X135014956Y-56781762D01*
X135052851Y-56873249D01*
X135054839Y-56878047D01*
X135063681Y-56937654D01*
X135043380Y-56994391D01*
X134998731Y-57034858D01*
X134940278Y-57049500D01*
X132769948Y-57049500D01*
X132737218Y-57045102D01*
X132734885Y-57044463D01*
X132641607Y-57036904D01*
X132613076Y-57031165D01*
X132594325Y-57025032D01*
X132569652Y-57013849D01*
X132532977Y-56992113D01*
X132527716Y-56988995D01*
X132524219Y-56986842D01*
X132494726Y-56968001D01*
X132456989Y-56930263D01*
X132438166Y-56900799D01*
X132436004Y-56897288D01*
X132411146Y-56855347D01*
X132399963Y-56830674D01*
X132395860Y-56818128D01*
X132393830Y-56811921D01*
X132388094Y-56783399D01*
X132380536Y-56690117D01*
X132380536Y-56690114D01*
X132379898Y-56687783D01*
X132375500Y-56655053D01*
X132375500Y-55800978D01*
X132392426Y-55738438D01*
X132438584Y-55692972D01*
X132501372Y-55676992D01*
X132545847Y-55689753D01*
X132546226Y-55688539D01*
X132722893Y-55743590D01*
X132793424Y-55750000D01*
X132875000Y-55750000D01*
X132875000Y-55100000D01*
X133375000Y-55100000D01*
X133375000Y-55749999D01*
X133456579Y-55749999D01*
X133527104Y-55743591D01*
X133689397Y-55693018D01*
X133834875Y-55605074D01*
X133955074Y-55484875D01*
X134043019Y-55339396D01*
X134093590Y-55177106D01*
X134100000Y-55106576D01*
X134100000Y-55100000D01*
X133375000Y-55100000D01*
X132875000Y-55100000D01*
X132875000Y-54850000D01*
X137375001Y-54850000D01*
X137375001Y-54856579D01*
X137381408Y-54927104D01*
X137431981Y-55089397D01*
X137519925Y-55234875D01*
X137640124Y-55355074D01*
X137785603Y-55443019D01*
X137947893Y-55493590D01*
X138018424Y-55500000D01*
X138100000Y-55500000D01*
X138100000Y-54850000D01*
X137375001Y-54850000D01*
X132875000Y-54850000D01*
X132875000Y-54724000D01*
X132891613Y-54662000D01*
X132937000Y-54616613D01*
X132999000Y-54600000D01*
X134099999Y-54600000D01*
X134099999Y-54593421D01*
X134093591Y-54522895D01*
X134043018Y-54360602D01*
X133955074Y-54215124D01*
X133834875Y-54094925D01*
X133689398Y-54006981D01*
X133674737Y-54002413D01*
X133618224Y-53965585D01*
X133589351Y-53904622D01*
X133596663Y-53837564D01*
X133637993Y-53784259D01*
X133722150Y-53722150D01*
X133722150Y-53722148D01*
X133722152Y-53722148D01*
X133802792Y-53612884D01*
X133802793Y-53612882D01*
X133847646Y-53484699D01*
X133850500Y-53454266D01*
X133850500Y-52945734D01*
X133847646Y-52915301D01*
X133802793Y-52787118D01*
X133802792Y-52787115D01*
X133722150Y-52677849D01*
X133612884Y-52597207D01*
X133493161Y-52555315D01*
X133484699Y-52552354D01*
X133484698Y-52552353D01*
X133484696Y-52552353D01*
X133454269Y-52549500D01*
X133454266Y-52549500D01*
X132830639Y-52549500D01*
X132768099Y-52532574D01*
X132722633Y-52486416D01*
X132706653Y-52423627D01*
X132724522Y-52361350D01*
X132768019Y-52289396D01*
X132818590Y-52127106D01*
X132825000Y-52056576D01*
X132825000Y-51975000D01*
X131799000Y-51975000D01*
X131737000Y-51958387D01*
X131691613Y-51913000D01*
X131675000Y-51851000D01*
X131675000Y-50400000D01*
X132175000Y-50400000D01*
X132175000Y-51475000D01*
X132824999Y-51475000D01*
X132824999Y-51393421D01*
X132818591Y-51322895D01*
X132768018Y-51160602D01*
X132672286Y-51002241D01*
X132675702Y-51000175D01*
X132658018Y-50969525D01*
X132658072Y-50905270D01*
X132675706Y-50874826D01*
X132672286Y-50872759D01*
X132768019Y-50714396D01*
X132818590Y-50552106D01*
X132825000Y-50481576D01*
X132825000Y-50400000D01*
X132175000Y-50400000D01*
X131675000Y-50400000D01*
X131675000Y-49175001D01*
X131668421Y-49175001D01*
X131597895Y-49181408D01*
X131435602Y-49231981D01*
X131290124Y-49319925D01*
X131169925Y-49440124D01*
X131081982Y-49585601D01*
X131077413Y-49600263D01*
X131040584Y-49656776D01*
X130979621Y-49685648D01*
X130912564Y-49678336D01*
X130859257Y-49637003D01*
X130850351Y-49624936D01*
X130812429Y-49573552D01*
X130790001Y-49520976D01*
X130793539Y-49463926D01*
X130802314Y-49434998D01*
X130809976Y-49409737D01*
X130819270Y-49387296D01*
X130853926Y-49322458D01*
X130867421Y-49302261D01*
X130917885Y-49240769D01*
X130926037Y-49231775D01*
X130982812Y-49175000D01*
X132175000Y-49175000D01*
X132175000Y-49900000D01*
X132824999Y-49900000D01*
X132824999Y-49818421D01*
X132818591Y-49747895D01*
X132768018Y-49585602D01*
X132680074Y-49440124D01*
X132559875Y-49319925D01*
X132414396Y-49231980D01*
X132252106Y-49181409D01*
X132181576Y-49175000D01*
X132175000Y-49175000D01*
X130982812Y-49175000D01*
X131206699Y-48951113D01*
X131215695Y-48942959D01*
X131277270Y-48892427D01*
X131297466Y-48878932D01*
X131362293Y-48844283D01*
X131384737Y-48834986D01*
X131455084Y-48813647D01*
X131478907Y-48808909D01*
X131558248Y-48801096D01*
X131570395Y-48800500D01*
X131630099Y-48800501D01*
X131630103Y-48800500D01*
X133439201Y-48800500D01*
X133510799Y-48800500D01*
X133971324Y-48800500D01*
X134018777Y-48809939D01*
G37*
G04 #@! TD.AperFunction*
G04 #@! TA.AperFunction,Conductor*
G36*
X149292181Y-44325501D02*
G01*
X149335351Y-44325500D01*
X149344193Y-44325815D01*
X149567142Y-44341758D01*
X149584640Y-44344273D01*
X149764518Y-44383402D01*
X149798707Y-44390839D01*
X149815683Y-44395823D01*
X150020948Y-44472381D01*
X150037030Y-44479725D01*
X150229326Y-44584725D01*
X150244189Y-44594278D01*
X150398062Y-44709465D01*
X150419571Y-44725566D01*
X150432942Y-44737152D01*
X150587847Y-44892057D01*
X150599433Y-44905428D01*
X150730718Y-45080805D01*
X150740276Y-45095677D01*
X150845271Y-45287963D01*
X150852618Y-45304051D01*
X150929176Y-45509316D01*
X150934160Y-45526292D01*
X150980724Y-45740351D01*
X150983242Y-45757864D01*
X150999183Y-45980804D01*
X150999499Y-45989648D01*
X150999499Y-46052937D01*
X150999500Y-46052943D01*
X150999500Y-49618647D01*
X150984382Y-49677982D01*
X150942715Y-49722849D01*
X150884658Y-49742308D01*
X150824368Y-49731614D01*
X150776546Y-49693374D01*
X150766763Y-49680420D01*
X150616041Y-49543018D01*
X150442638Y-49435652D01*
X150252457Y-49361976D01*
X150154120Y-49343594D01*
X150051976Y-49324500D01*
X149848024Y-49324500D01*
X149747784Y-49343237D01*
X149647542Y-49361976D01*
X149457361Y-49435652D01*
X149283958Y-49543018D01*
X149133236Y-49680419D01*
X149010324Y-49843181D01*
X148919418Y-50025748D01*
X148863602Y-50221916D01*
X148844785Y-50424999D01*
X148863602Y-50628083D01*
X148919418Y-50824251D01*
X149010324Y-51006818D01*
X149133236Y-51169580D01*
X149283958Y-51306981D01*
X149457361Y-51414347D01*
X149457363Y-51414348D01*
X149647544Y-51488024D01*
X149848024Y-51525500D01*
X150051974Y-51525500D01*
X150051976Y-51525500D01*
X150252456Y-51488024D01*
X150442637Y-51414348D01*
X150616041Y-51306981D01*
X150766764Y-51169579D01*
X150776545Y-51156626D01*
X150824368Y-51118386D01*
X150884658Y-51107692D01*
X150942715Y-51127151D01*
X150984382Y-51172018D01*
X150999500Y-51231353D01*
X150999500Y-52158647D01*
X150984382Y-52217982D01*
X150942715Y-52262849D01*
X150884658Y-52282308D01*
X150824368Y-52271614D01*
X150776546Y-52233374D01*
X150766763Y-52220420D01*
X150616041Y-52083018D01*
X150442638Y-51975652D01*
X150252457Y-51901976D01*
X150185629Y-51889483D01*
X150051976Y-51864500D01*
X149848024Y-51864500D01*
X149769910Y-51879102D01*
X149647542Y-51901976D01*
X149457361Y-51975652D01*
X149283958Y-52083018D01*
X149133236Y-52220419D01*
X149010324Y-52383181D01*
X148919418Y-52565748D01*
X148863602Y-52761916D01*
X148844785Y-52964999D01*
X148863602Y-53168083D01*
X148919418Y-53364251D01*
X149010324Y-53546818D01*
X149133236Y-53709580D01*
X149283958Y-53846981D01*
X149457361Y-53954347D01*
X149457363Y-53954348D01*
X149647544Y-54028024D01*
X149848024Y-54065500D01*
X150051974Y-54065500D01*
X150051976Y-54065500D01*
X150252456Y-54028024D01*
X150442637Y-53954348D01*
X150616041Y-53846981D01*
X150766764Y-53709579D01*
X150776545Y-53696626D01*
X150824368Y-53658386D01*
X150884658Y-53647692D01*
X150942715Y-53667151D01*
X150984382Y-53712018D01*
X150999500Y-53771353D01*
X150999500Y-54698647D01*
X150984382Y-54757982D01*
X150942715Y-54802849D01*
X150884658Y-54822308D01*
X150824368Y-54811614D01*
X150776546Y-54773374D01*
X150766763Y-54760420D01*
X150616041Y-54623018D01*
X150442638Y-54515652D01*
X150252457Y-54441976D01*
X150159898Y-54424674D01*
X150051976Y-54404500D01*
X149848024Y-54404500D01*
X149747784Y-54423237D01*
X149647542Y-54441976D01*
X149457361Y-54515652D01*
X149283958Y-54623019D01*
X149184255Y-54713910D01*
X149180061Y-54717564D01*
X149176060Y-54720894D01*
X149171157Y-54725849D01*
X149133238Y-54760418D01*
X149010326Y-54923179D01*
X148944209Y-55055961D01*
X148907363Y-55100073D01*
X148854586Y-55122833D01*
X148797215Y-55119350D01*
X148735629Y-55100669D01*
X148713171Y-55091367D01*
X148604389Y-55033223D01*
X148584177Y-55019718D01*
X148484184Y-54937658D01*
X148475167Y-54929485D01*
X148431794Y-54886112D01*
X148431788Y-54886104D01*
X148417563Y-54871880D01*
X148417563Y-54871879D01*
X148381741Y-54836059D01*
X148375157Y-54828936D01*
X148287980Y-54726869D01*
X148276544Y-54711131D01*
X148208965Y-54600859D01*
X148200131Y-54583521D01*
X148150638Y-54464042D01*
X148144627Y-54445542D01*
X148139616Y-54424674D01*
X148114434Y-54319793D01*
X148111390Y-54300578D01*
X148109852Y-54281046D01*
X148102224Y-54184142D01*
X148100882Y-54167091D01*
X148100500Y-54157360D01*
X148100500Y-50588406D01*
X148100468Y-50588029D01*
X148100468Y-50584484D01*
X148100471Y-50513357D01*
X148070616Y-50286532D01*
X148011409Y-50065544D01*
X147994926Y-50025748D01*
X147923866Y-49854178D01*
X147809478Y-49656041D01*
X147670207Y-49474529D01*
X147640887Y-49445209D01*
X147640879Y-49445198D01*
X147601676Y-49405995D01*
X147589328Y-49393646D01*
X147589327Y-49393645D01*
X147589326Y-49393644D01*
X147550073Y-49354389D01*
X147550071Y-49354388D01*
X147539278Y-49343594D01*
X147539277Y-49343594D01*
X147500842Y-49305159D01*
X147500772Y-49305100D01*
X147449493Y-49253820D01*
X147449492Y-49253819D01*
X147449490Y-49253817D01*
X147274580Y-49114329D01*
X147187802Y-49059803D01*
X147085146Y-48995300D01*
X146883578Y-48898228D01*
X146883571Y-48898225D01*
X146883570Y-48898225D01*
X146672411Y-48824337D01*
X146672410Y-48824336D01*
X146672408Y-48824336D01*
X146454293Y-48774551D01*
X146270057Y-48753791D01*
X146231977Y-48749500D01*
X146231976Y-48749500D01*
X146178599Y-48749500D01*
X144199367Y-48749500D01*
X144140914Y-48734858D01*
X144096265Y-48694391D01*
X144075964Y-48637654D01*
X144084806Y-48578048D01*
X144105452Y-48528203D01*
X144135044Y-48456762D01*
X144155682Y-48300000D01*
X144135044Y-48143238D01*
X144074536Y-47997159D01*
X144039390Y-47951356D01*
X143978282Y-47871717D01*
X143852840Y-47775463D01*
X143706762Y-47714956D01*
X143549998Y-47694317D01*
X143546067Y-47694835D01*
X143528844Y-47695307D01*
X143360985Y-47705304D01*
X143343232Y-47706986D01*
X143341591Y-47707199D01*
X143323975Y-47710121D01*
X143252049Y-47724660D01*
X143202474Y-47734682D01*
X143202446Y-47734688D01*
X143202437Y-47734690D01*
X143193380Y-47736693D01*
X143192524Y-47736899D01*
X143183204Y-47739328D01*
X143091811Y-47765000D01*
X143082846Y-47767162D01*
X143000073Y-47783893D01*
X142982880Y-47786132D01*
X142845811Y-47794297D01*
X142840306Y-47795694D01*
X142809820Y-47799500D01*
X136585799Y-47799500D01*
X135485799Y-47799500D01*
X135388676Y-47799500D01*
X135341223Y-47790061D01*
X135300995Y-47763181D01*
X135216819Y-47679005D01*
X135189939Y-47638777D01*
X135180500Y-47591324D01*
X135180500Y-47391621D01*
X135185121Y-47358086D01*
X135185445Y-47356930D01*
X135185446Y-47356928D01*
X135218105Y-46989041D01*
X135224839Y-46958312D01*
X135296742Y-46756954D01*
X135309104Y-46731777D01*
X135434602Y-46535862D01*
X135436148Y-46533509D01*
X135616495Y-46266022D01*
X135625168Y-46252229D01*
X135625917Y-46250949D01*
X135633605Y-46236807D01*
X135761307Y-45983163D01*
X135765341Y-45976414D01*
X135767099Y-45972642D01*
X135767102Y-45972639D01*
X135772550Y-45960953D01*
X135774124Y-45957704D01*
X135826429Y-45853819D01*
X135833035Y-45834495D01*
X135864384Y-45785264D01*
X135914785Y-45755826D01*
X135973069Y-45752707D01*
X136026324Y-45776598D01*
X136062749Y-45822206D01*
X136112061Y-45927954D01*
X136132898Y-45972639D01*
X136258402Y-46151877D01*
X136413123Y-46306598D01*
X136592361Y-46432102D01*
X136790670Y-46524575D01*
X137002023Y-46581207D01*
X137147341Y-46593920D01*
X137219999Y-46600277D01*
X137219999Y-46600276D01*
X137220000Y-46600277D01*
X137437977Y-46581207D01*
X137649330Y-46524575D01*
X137847639Y-46432102D01*
X138026877Y-46306598D01*
X138181598Y-46151877D01*
X138307102Y-45972639D01*
X138377617Y-45821417D01*
X138423375Y-45769241D01*
X138490000Y-45749822D01*
X138556625Y-45769241D01*
X138602382Y-45821417D01*
X138672898Y-45972639D01*
X138798402Y-46151877D01*
X138953123Y-46306598D01*
X139132361Y-46432102D01*
X139330670Y-46524575D01*
X139542023Y-46581207D01*
X139687341Y-46593920D01*
X139759999Y-46600277D01*
X139759999Y-46600276D01*
X139760000Y-46600277D01*
X139977977Y-46581207D01*
X140189330Y-46524575D01*
X140387639Y-46432102D01*
X140566877Y-46306598D01*
X140721598Y-46151877D01*
X140847102Y-45972639D01*
X140849587Y-45967309D01*
X147941828Y-45967309D01*
X147951613Y-46197665D01*
X148000190Y-46423064D01*
X148071400Y-46600277D01*
X148086159Y-46637006D01*
X148207049Y-46833343D01*
X148286061Y-46923118D01*
X148359381Y-47006427D01*
X148538768Y-47151272D01*
X148740063Y-47263721D01*
X148957464Y-47340534D01*
X149184713Y-47379500D01*
X149184715Y-47379500D01*
X149357535Y-47379500D01*
X149357539Y-47379500D01*
X149472337Y-47369728D01*
X149529739Y-47364843D01*
X149752869Y-47306745D01*
X149962971Y-47211773D01*
X150154000Y-47082659D01*
X150320462Y-46923119D01*
X150457566Y-46737742D01*
X150561370Y-46531860D01*
X150628886Y-46311397D01*
X150658172Y-46082694D01*
X150648386Y-45852332D01*
X150599810Y-45626938D01*
X150586976Y-45595000D01*
X150513842Y-45412997D01*
X150513841Y-45412994D01*
X150392951Y-45216657D01*
X150285880Y-45095000D01*
X150240618Y-45043572D01*
X150061231Y-44898727D01*
X149859936Y-44786278D01*
X149642535Y-44709465D01*
X149415287Y-44670500D01*
X149415285Y-44670500D01*
X149242465Y-44670500D01*
X149242461Y-44670500D01*
X149070262Y-44685156D01*
X148847129Y-44743255D01*
X148637029Y-44838226D01*
X148446000Y-44967340D01*
X148279537Y-45126881D01*
X148142434Y-45312257D01*
X148038630Y-45518139D01*
X147971114Y-45738602D01*
X147967191Y-45769241D01*
X147943067Y-45957636D01*
X147941828Y-45967309D01*
X140849587Y-45967309D01*
X140939575Y-45774330D01*
X140996207Y-45562977D01*
X141015277Y-45345000D01*
X140996207Y-45127023D01*
X140939575Y-44915670D01*
X140847102Y-44717362D01*
X140721598Y-44538123D01*
X140720656Y-44537180D01*
X140718677Y-44533952D01*
X140715375Y-44529236D01*
X140715663Y-44529034D01*
X140690406Y-44487818D01*
X140685864Y-44430102D01*
X140708019Y-44376615D01*
X140752042Y-44339015D01*
X140808337Y-44325500D01*
X149292178Y-44325500D01*
X149292181Y-44325501D01*
G37*
G04 #@! TD.AperFunction*
G04 #@! TA.AperFunction,Conductor*
G36*
X141231840Y-51352780D02*
G01*
X141282184Y-51380706D01*
X141314490Y-51428358D01*
X141321795Y-51485464D01*
X141320000Y-51502168D01*
X141320000Y-51550000D01*
X141555987Y-51550000D01*
X141591982Y-51555339D01*
X141624878Y-51570898D01*
X141639398Y-51580600D01*
X141639399Y-51580601D01*
X141649928Y-51587636D01*
X141701205Y-51621898D01*
X141741672Y-51666547D01*
X141756314Y-51725000D01*
X141741672Y-51783453D01*
X141701205Y-51828102D01*
X141687656Y-51837155D01*
X141639399Y-51869399D01*
X141639398Y-51869399D01*
X141624878Y-51879102D01*
X141591982Y-51894661D01*
X141555987Y-51900000D01*
X141320000Y-51900000D01*
X141320000Y-51947824D01*
X141326402Y-52007375D01*
X141376648Y-52142091D01*
X141383086Y-52150691D01*
X141404984Y-52198642D01*
X141404984Y-52251358D01*
X141383086Y-52299309D01*
X141376648Y-52307908D01*
X141326402Y-52442624D01*
X141320000Y-52502176D01*
X141320000Y-52550000D01*
X141555987Y-52550000D01*
X141591982Y-52555339D01*
X141624877Y-52570897D01*
X141639398Y-52580599D01*
X141639399Y-52580601D01*
X141699901Y-52621027D01*
X141742209Y-52669256D01*
X141754750Y-52732175D01*
X141734167Y-52792940D01*
X141685970Y-52835284D01*
X141669354Y-52843499D01*
X141656565Y-52852269D01*
X141607397Y-52872218D01*
X141604551Y-52872706D01*
X141583606Y-52874490D01*
X141573646Y-52874490D01*
X141457389Y-52897617D01*
X141433197Y-52900000D01*
X141320000Y-52900000D01*
X141320000Y-52902942D01*
X141310563Y-52950390D01*
X141283689Y-52990616D01*
X141272034Y-53002273D01*
X141271907Y-53002358D01*
X141197341Y-53076946D01*
X141137107Y-53167124D01*
X141095626Y-53267323D01*
X141078144Y-53355292D01*
X141074486Y-53368853D01*
X141074500Y-53426491D01*
X141074500Y-53970500D01*
X141057887Y-54032500D01*
X141012500Y-54077887D01*
X140950500Y-54094500D01*
X140750324Y-54094500D01*
X140725685Y-54099401D01*
X140668155Y-54097218D01*
X140617812Y-54069290D01*
X140585507Y-54021636D01*
X140578204Y-53964529D01*
X140580000Y-53947823D01*
X140580000Y-53900000D01*
X140344013Y-53900000D01*
X140308018Y-53894661D01*
X140275123Y-53879103D01*
X140260602Y-53869400D01*
X140260601Y-53869399D01*
X140198793Y-53828101D01*
X140158327Y-53783454D01*
X140143685Y-53725000D01*
X140158327Y-53666546D01*
X140198793Y-53621898D01*
X140260601Y-53580601D01*
X140260602Y-53580599D01*
X140275123Y-53570897D01*
X140308018Y-53555339D01*
X140344013Y-53550000D01*
X140580000Y-53550000D01*
X140580000Y-53502176D01*
X140573597Y-53442624D01*
X140523352Y-53307910D01*
X140437188Y-53192810D01*
X140380189Y-53150141D01*
X140343616Y-53106378D01*
X140330500Y-53050874D01*
X140330500Y-53025327D01*
X140325334Y-52999357D01*
X140325301Y-52999190D01*
X140325301Y-52950809D01*
X140330500Y-52924674D01*
X140330500Y-52525326D01*
X140325301Y-52499190D01*
X140325301Y-52450810D01*
X140330500Y-52424674D01*
X140330500Y-52025326D01*
X140325301Y-51999190D01*
X140325301Y-51950809D01*
X140330500Y-51924674D01*
X140330500Y-51899126D01*
X140343616Y-51843622D01*
X140380189Y-51799859D01*
X140437188Y-51757189D01*
X140523352Y-51642089D01*
X140573597Y-51507375D01*
X140578790Y-51459078D01*
X140604155Y-51396262D01*
X140658747Y-51356150D01*
X140726271Y-51350715D01*
X140750326Y-51355500D01*
X141149670Y-51355500D01*
X141149674Y-51355500D01*
X141174316Y-51350598D01*
X141231840Y-51352780D01*
G37*
G04 #@! TD.AperFunction*
G04 #@! TA.AperFunction,Conductor*
G36*
X144519901Y-51825501D02*
G01*
X144579703Y-51825500D01*
X144591855Y-51826096D01*
X144631745Y-51830025D01*
X144671085Y-51833899D01*
X144694926Y-51838641D01*
X144735671Y-51851000D01*
X144765258Y-51859975D01*
X144787714Y-51869276D01*
X144852534Y-51903922D01*
X144872740Y-51917422D01*
X144915190Y-51952260D01*
X144934217Y-51967875D01*
X144943233Y-51976047D01*
X145048882Y-52081696D01*
X145057055Y-52090713D01*
X145107565Y-52152261D01*
X145121069Y-52172472D01*
X145155713Y-52237287D01*
X145165016Y-52259746D01*
X145186349Y-52330074D01*
X145191091Y-52353917D01*
X145198902Y-52433244D01*
X145199499Y-52445395D01*
X145199499Y-52520359D01*
X145199500Y-52520367D01*
X145199500Y-53375500D01*
X145182887Y-53437500D01*
X145137500Y-53482887D01*
X145075500Y-53499500D01*
X144625601Y-53499500D01*
X144569640Y-53486154D01*
X144525725Y-53448990D01*
X144503309Y-53396007D01*
X144507215Y-53338610D01*
X144518591Y-53302102D01*
X144525000Y-53231576D01*
X144525000Y-53225000D01*
X143424000Y-53225000D01*
X143362000Y-53208387D01*
X143316613Y-53163000D01*
X143300000Y-53101000D01*
X143300000Y-52849000D01*
X143316613Y-52787000D01*
X143362000Y-52741613D01*
X143424000Y-52725000D01*
X144524999Y-52725000D01*
X144524999Y-52718421D01*
X144518591Y-52647895D01*
X144468018Y-52485602D01*
X144380074Y-52340124D01*
X144259875Y-52219925D01*
X144101514Y-52124193D01*
X144102132Y-52123170D01*
X144066068Y-52100911D01*
X144035687Y-52047365D01*
X144034803Y-51985806D01*
X144063635Y-51931410D01*
X144115072Y-51897586D01*
X144179795Y-51875358D01*
X144189125Y-51872560D01*
X144264219Y-51853226D01*
X144274134Y-51851102D01*
X144347701Y-51838485D01*
X144358060Y-51837157D01*
X144436070Y-51830486D01*
X144437729Y-51830024D01*
X144470921Y-51825500D01*
X144519897Y-51825500D01*
X144519901Y-51825501D01*
G37*
G04 #@! TD.AperFunction*
G04 #@! TA.AperFunction,Conductor*
G36*
X141125614Y-49465527D02*
G01*
X141170441Y-49506965D01*
X141190064Y-49564772D01*
X141179725Y-49624936D01*
X141141932Y-49672875D01*
X141124476Y-49686269D01*
X141096855Y-49707463D01*
X141023799Y-49780519D01*
X140995014Y-49809303D01*
X140995012Y-49809304D01*
X140995012Y-49809305D01*
X140931485Y-49872833D01*
X140884926Y-49919392D01*
X140884907Y-49919404D01*
X140801271Y-50003040D01*
X140722582Y-50111348D01*
X140661807Y-50230627D01*
X140650720Y-50264750D01*
X140631658Y-50301271D01*
X140601683Y-50329531D01*
X140594400Y-50334397D01*
X140539033Y-50417261D01*
X140524500Y-50490325D01*
X140524500Y-50510450D01*
X140505995Y-50575617D01*
X140456004Y-50621334D01*
X140389447Y-50633956D01*
X140326189Y-50609717D01*
X140322088Y-50606647D01*
X140187375Y-50556402D01*
X140127824Y-50550000D01*
X139960000Y-50550000D01*
X139960000Y-51175500D01*
X139943387Y-51237500D01*
X139898000Y-51282887D01*
X139836000Y-51299500D01*
X139512900Y-51299500D01*
X139499502Y-51298774D01*
X139488673Y-51297597D01*
X139485700Y-51297273D01*
X139483535Y-51296456D01*
X139481498Y-51296817D01*
X139477095Y-51297597D01*
X139473149Y-51297944D01*
X139458152Y-51300925D01*
X139455626Y-51301400D01*
X139410357Y-51309425D01*
X139409686Y-51309646D01*
X139395226Y-51313443D01*
X139392261Y-51314032D01*
X139379925Y-51322276D01*
X139365993Y-51330329D01*
X139339356Y-51343498D01*
X139326565Y-51352270D01*
X139277414Y-51372216D01*
X139274518Y-51372713D01*
X139253544Y-51374500D01*
X138857888Y-51374500D01*
X138801593Y-51360985D01*
X138757570Y-51323385D01*
X138735415Y-51269898D01*
X138739957Y-51212182D01*
X138758820Y-51181400D01*
X138757761Y-51180774D01*
X138811288Y-51090263D01*
X138849941Y-51049743D01*
X138902479Y-51030361D01*
X138958187Y-51036068D01*
X138980525Y-51050000D01*
X139463921Y-51050000D01*
X139481715Y-51054490D01*
X139499099Y-51050000D01*
X139610000Y-51050000D01*
X139610000Y-50550000D01*
X139442176Y-50550000D01*
X139382624Y-50556402D01*
X139247910Y-50606647D01*
X139132811Y-50692811D01*
X139046647Y-50807911D01*
X139046117Y-50809333D01*
X139019678Y-50851570D01*
X138978748Y-50879988D01*
X138929935Y-50890000D01*
X137949000Y-50890000D01*
X137887000Y-50873387D01*
X137841613Y-50828000D01*
X137825000Y-50766000D01*
X137825000Y-49870069D01*
X138325000Y-49870069D01*
X138325000Y-50390000D01*
X138887844Y-50390000D01*
X138847404Y-50250804D01*
X138765735Y-50112709D01*
X138652290Y-49999264D01*
X138514192Y-49917593D01*
X138360127Y-49872833D01*
X138325000Y-49870069D01*
X137825000Y-49870069D01*
X137789873Y-49872833D01*
X137756037Y-49882663D01*
X137698493Y-49885444D01*
X137645904Y-49861921D01*
X137609620Y-49817172D01*
X137597474Y-49760857D01*
X137612085Y-49705136D01*
X137617588Y-49694841D01*
X137631078Y-49674652D01*
X137673207Y-49623316D01*
X137681362Y-49614318D01*
X137724302Y-49571378D01*
X137736483Y-49560695D01*
X137798514Y-49513101D01*
X137826538Y-49496922D01*
X137891182Y-49470147D01*
X137922443Y-49461770D01*
X137999993Y-49451560D01*
X138016176Y-49450500D01*
X138063512Y-49450500D01*
X141066446Y-49450500D01*
X141125614Y-49465527D01*
G37*
G04 #@! TD.AperFunction*
G04 #@! TA.AperFunction,Conductor*
G36*
X143543769Y-47952053D02*
G01*
X143548338Y-47956346D01*
X143550035Y-47962382D01*
X143551000Y-48300000D01*
X143551000Y-48300066D01*
X143550035Y-48637617D01*
X143548338Y-48643653D01*
X143543769Y-48647946D01*
X143537639Y-48649263D01*
X143376195Y-48639648D01*
X143374573Y-48639437D01*
X143253115Y-48614886D01*
X143252269Y-48614682D01*
X143147310Y-48585199D01*
X143024621Y-48560399D01*
X142861004Y-48550655D01*
X142853184Y-48546999D01*
X142850000Y-48538976D01*
X142850000Y-48061024D01*
X142853184Y-48053001D01*
X142861004Y-48049345D01*
X142984267Y-48042003D01*
X143024623Y-48039600D01*
X143147311Y-48014800D01*
X143252286Y-47985312D01*
X143253097Y-47985117D01*
X143374577Y-47960561D01*
X143376191Y-47960351D01*
X143537639Y-47950736D01*
X143543769Y-47952053D01*
G37*
G04 #@! TD.AperFunction*
G04 #@! TA.AperFunction,Conductor*
G36*
X149177083Y-60264831D02*
G01*
X149946216Y-60582438D01*
X149950021Y-60584978D01*
X149952561Y-60588784D01*
X150011955Y-60732616D01*
X150270491Y-61358699D01*
X150271236Y-61364974D01*
X150268609Y-61370722D01*
X150263377Y-61374265D01*
X149927409Y-61486261D01*
X149926045Y-61486625D01*
X149660316Y-61540773D01*
X149433859Y-61593335D01*
X149205299Y-61704324D01*
X148940740Y-61926981D01*
X148932704Y-61929718D01*
X148924933Y-61926302D01*
X148798224Y-61799593D01*
X148794830Y-61792195D01*
X148797083Y-61784373D01*
X148938055Y-61593337D01*
X149015165Y-61488843D01*
X149076632Y-61221870D01*
X149063441Y-60953721D01*
X149063428Y-60953145D01*
X149063476Y-60646929D01*
X149063858Y-60643973D01*
X149161301Y-60272674D01*
X149164681Y-60267050D01*
X149170558Y-60264129D01*
X149177083Y-60264831D01*
G37*
G04 #@! TD.AperFunction*
G04 #@! TA.AperFunction,Conductor*
G36*
X149176754Y-57724695D02*
G01*
X149946216Y-58042438D01*
X149950021Y-58044978D01*
X149952561Y-58048784D01*
X149964934Y-58078745D01*
X150270302Y-58818242D01*
X150271023Y-58824666D01*
X150268224Y-58830491D01*
X150262758Y-58833942D01*
X149917394Y-58934473D01*
X149915070Y-58934901D01*
X149633868Y-58957705D01*
X149633635Y-58957721D01*
X149389653Y-58972616D01*
X149145662Y-59053118D01*
X148871758Y-59266465D01*
X148863845Y-59268913D01*
X148856295Y-59265508D01*
X148729491Y-59138704D01*
X148726086Y-59131154D01*
X148728533Y-59123243D01*
X148941881Y-58849336D01*
X149022382Y-58605346D01*
X149037278Y-58361334D01*
X149037293Y-58361129D01*
X149060096Y-58079928D01*
X149060524Y-58077604D01*
X149070021Y-58044978D01*
X149161058Y-57732236D01*
X149164507Y-57726774D01*
X149170332Y-57723975D01*
X149176754Y-57724695D01*
G37*
G04 #@! TD.AperFunction*
G04 #@! TA.AperFunction,Conductor*
G36*
X140353228Y-67037168D02*
G01*
X140371480Y-67052066D01*
X140382220Y-67059043D01*
X140392960Y-67066021D01*
X140414436Y-67076396D01*
X140414438Y-67076396D01*
X140414441Y-67076398D01*
X140435922Y-67083197D01*
X140444699Y-67084513D01*
X140450531Y-67087161D01*
X140454096Y-67092485D01*
X140454322Y-67098889D01*
X140261359Y-67880017D01*
X140257213Y-67886423D01*
X140250000Y-67888911D01*
X140242787Y-67886423D01*
X140238641Y-67880017D01*
X140190972Y-67687052D01*
X140045677Y-67098886D01*
X140045903Y-67092485D01*
X140049468Y-67087161D01*
X140055299Y-67084513D01*
X140064077Y-67083197D01*
X140085558Y-67076398D01*
X140107038Y-67066021D01*
X140128519Y-67052066D01*
X140139094Y-67043434D01*
X140146771Y-67037169D01*
X140154169Y-67034533D01*
X140345832Y-67034533D01*
X140353228Y-67037168D01*
G37*
G04 #@! TD.AperFunction*
G04 #@! TA.AperFunction,Conductor*
G36*
X139098532Y-66777104D02*
G01*
X139102817Y-66782657D01*
X139137716Y-66877519D01*
X139175432Y-66968038D01*
X139213149Y-67046558D01*
X139238293Y-67090904D01*
X139250867Y-67113081D01*
X139285079Y-67162534D01*
X139287072Y-67167780D01*
X139286392Y-67173351D01*
X139010935Y-67897262D01*
X139006641Y-67902734D01*
X139000000Y-67904801D01*
X138993359Y-67902734D01*
X138989065Y-67897262D01*
X138713607Y-67173351D01*
X138712927Y-67167780D01*
X138714920Y-67162534D01*
X138749131Y-67113081D01*
X138749134Y-67113077D01*
X138786850Y-67046558D01*
X138824567Y-66968038D01*
X138862283Y-66877519D01*
X138897181Y-66782660D01*
X138901468Y-66777104D01*
X138908162Y-66775000D01*
X139091838Y-66775000D01*
X139098532Y-66777104D01*
G37*
G04 #@! TD.AperFunction*
G04 #@! TA.AperFunction,Conductor*
G36*
X147904505Y-58925880D02*
G01*
X148211854Y-59054138D01*
X148216797Y-59058036D01*
X148219005Y-59063930D01*
X148217839Y-59070116D01*
X148155701Y-59195966D01*
X148155070Y-59197085D01*
X148094426Y-59292013D01*
X148045086Y-59375261D01*
X148012051Y-59476274D01*
X148012050Y-59476277D01*
X148012051Y-59476277D01*
X148000871Y-59614246D01*
X147997142Y-59621901D01*
X147989210Y-59625000D01*
X147810790Y-59625000D01*
X147802858Y-59621901D01*
X147799128Y-59614245D01*
X147787948Y-59476277D01*
X147754911Y-59375261D01*
X147705564Y-59292001D01*
X147644923Y-59197076D01*
X147644301Y-59195974D01*
X147582159Y-59070114D01*
X147580994Y-59063930D01*
X147583202Y-59058036D01*
X147588143Y-59054139D01*
X147895496Y-58925879D01*
X147899999Y-58924978D01*
X147904505Y-58925880D01*
G37*
G04 #@! TD.AperFunction*
G04 #@! TA.AperFunction,Conductor*
G36*
X137997288Y-66778009D02*
G01*
X138001092Y-66785488D01*
X138009998Y-66870981D01*
X138020002Y-66964020D01*
X138029996Y-67053978D01*
X138039996Y-67140977D01*
X138049630Y-67221892D01*
X138048768Y-67227878D01*
X137760756Y-67900866D01*
X137754435Y-67907090D01*
X137745565Y-67907090D01*
X137739244Y-67900866D01*
X137640681Y-67670558D01*
X137451230Y-67227875D01*
X137450369Y-67221895D01*
X137460000Y-67141000D01*
X137470000Y-67054000D01*
X137470003Y-67053978D01*
X137479997Y-66964020D01*
X137490001Y-66870981D01*
X137498907Y-66785488D01*
X137502711Y-66778009D01*
X137510544Y-66775000D01*
X137989455Y-66775000D01*
X137997288Y-66778009D01*
G37*
G04 #@! TD.AperFunction*
G04 #@! TA.AperFunction,Conductor*
G36*
X149177259Y-57724913D02*
G01*
X149324359Y-57785767D01*
X149924866Y-58034189D01*
X149930120Y-58038498D01*
X149932093Y-58045000D01*
X149930120Y-58051502D01*
X149924866Y-58055811D01*
X149177260Y-58365085D01*
X149170680Y-58365783D01*
X149164774Y-58362799D01*
X149161432Y-58357090D01*
X149148328Y-58304231D01*
X149148001Y-58302050D01*
X149144731Y-58241822D01*
X149139755Y-58191525D01*
X149118177Y-58157504D01*
X149074059Y-58147122D01*
X149067569Y-58142998D01*
X149065041Y-58135734D01*
X149065041Y-57954266D01*
X149067569Y-57947002D01*
X149074060Y-57942877D01*
X149118177Y-57932495D01*
X149139755Y-57898473D01*
X149144731Y-57848176D01*
X149148001Y-57787946D01*
X149148328Y-57785767D01*
X149161432Y-57732907D01*
X149164774Y-57727200D01*
X149170680Y-57724216D01*
X149177259Y-57724913D01*
G37*
G04 #@! TD.AperFunction*
G04 #@! TA.AperFunction,Conductor*
G36*
X149359125Y-54914108D02*
G01*
X149942706Y-55496720D01*
X149945740Y-55501969D01*
X149945740Y-55508031D01*
X149942706Y-55513280D01*
X149359125Y-56095891D01*
X149353103Y-56099094D01*
X149346319Y-56098394D01*
X149341077Y-56094030D01*
X149262023Y-55973569D01*
X149260498Y-55970156D01*
X149225296Y-55837763D01*
X149225167Y-55837230D01*
X149199792Y-55719908D01*
X149142816Y-55636622D01*
X149142814Y-55636621D01*
X149068128Y-55618510D01*
X149021358Y-55607168D01*
X149014920Y-55603032D01*
X149012416Y-55595799D01*
X149012416Y-55414201D01*
X149014919Y-55406968D01*
X149021358Y-55402831D01*
X149142816Y-55373377D01*
X149199792Y-55290091D01*
X149225172Y-55172743D01*
X149225289Y-55172262D01*
X149260498Y-55039841D01*
X149262023Y-55036429D01*
X149341077Y-54915969D01*
X149346319Y-54911605D01*
X149353104Y-54910905D01*
X149359125Y-54914108D01*
G37*
G04 #@! TD.AperFunction*
G04 #@! TA.AperFunction,Conductor*
G36*
X139503403Y-52557924D02*
G01*
X139768965Y-52714929D01*
X139774019Y-52721036D01*
X139774019Y-52728964D01*
X139768965Y-52735071D01*
X139503403Y-52892075D01*
X139496471Y-52893663D01*
X139489900Y-52890943D01*
X139486118Y-52884921D01*
X139484916Y-52880248D01*
X139479833Y-52862873D01*
X139474749Y-52847873D01*
X139474748Y-52847869D01*
X139469670Y-52835257D01*
X139465801Y-52827456D01*
X139464583Y-52822257D01*
X139464583Y-52627742D01*
X139465800Y-52622545D01*
X139469666Y-52614751D01*
X139474749Y-52602126D01*
X139479833Y-52587126D01*
X139484916Y-52569751D01*
X139486119Y-52565077D01*
X139489900Y-52559056D01*
X139496471Y-52556336D01*
X139503403Y-52557924D01*
G37*
G04 #@! TD.AperFunction*
G04 #@! TA.AperFunction,Conductor*
G36*
X130523854Y-49591025D02*
G01*
X130528172Y-49595897D01*
X130551957Y-49646003D01*
X130578911Y-49695317D01*
X130605859Y-49737155D01*
X130605863Y-49737161D01*
X130605865Y-49737163D01*
X130632820Y-49771546D01*
X130651120Y-49789820D01*
X130654196Y-49795229D01*
X130654062Y-49801451D01*
X130650757Y-49806725D01*
X130282904Y-50143758D01*
X130275000Y-50146831D01*
X130267096Y-50143758D01*
X129899242Y-49806725D01*
X129895937Y-49801451D01*
X129895803Y-49795229D01*
X129898877Y-49789821D01*
X129917179Y-49771546D01*
X129944134Y-49737163D01*
X129971089Y-49695314D01*
X129998044Y-49645997D01*
X130017298Y-49605437D01*
X130021828Y-49595896D01*
X130026145Y-49591025D01*
X130032397Y-49589214D01*
X130517602Y-49589214D01*
X130523854Y-49591025D01*
G37*
G04 #@! TD.AperFunction*
G04 #@! TA.AperFunction,Conductor*
G36*
X135629504Y-58050379D02*
G01*
X135936854Y-58178638D01*
X135941797Y-58182536D01*
X135944005Y-58188430D01*
X135942839Y-58194616D01*
X135880701Y-58320466D01*
X135880070Y-58321585D01*
X135819426Y-58416513D01*
X135770086Y-58499761D01*
X135737051Y-58600774D01*
X135737050Y-58600777D01*
X135737051Y-58600777D01*
X135725871Y-58738746D01*
X135722142Y-58746401D01*
X135714210Y-58749500D01*
X135535790Y-58749500D01*
X135527858Y-58746401D01*
X135524128Y-58738745D01*
X135512948Y-58600777D01*
X135479911Y-58499761D01*
X135430564Y-58416501D01*
X135369923Y-58321576D01*
X135369301Y-58320474D01*
X135307159Y-58194614D01*
X135305994Y-58188430D01*
X135308202Y-58182536D01*
X135313143Y-58178639D01*
X135620495Y-58050379D01*
X135625000Y-58049478D01*
X135629504Y-58050379D01*
G37*
G04 #@! TD.AperFunction*
G04 #@! TA.AperFunction,Conductor*
G36*
X135338954Y-59944186D02*
G01*
X135341668Y-59945946D01*
X135350835Y-59950443D01*
X135360004Y-59953490D01*
X135369172Y-59955089D01*
X135373605Y-59955161D01*
X135381687Y-59958586D01*
X135513753Y-60090652D01*
X135517035Y-60097092D01*
X135515908Y-60104231D01*
X135482306Y-60170264D01*
X135444857Y-60260984D01*
X135407405Y-60368840D01*
X135369951Y-60493826D01*
X135335471Y-60624649D01*
X135330065Y-60631766D01*
X135321212Y-60632990D01*
X134607059Y-60447277D01*
X134600030Y-60442070D01*
X134598577Y-60433443D01*
X134603510Y-60426221D01*
X135326100Y-59944268D01*
X135332515Y-59942303D01*
X135338954Y-59944186D01*
G37*
G04 #@! TD.AperFunction*
G04 #@! TA.AperFunction,Conductor*
G36*
X124975426Y-60415971D02*
G01*
X124978966Y-60421197D01*
X125032155Y-60580523D01*
X125035562Y-60590727D01*
X125096126Y-60754148D01*
X125156690Y-60899563D01*
X125217256Y-61026987D01*
X125273549Y-61128686D01*
X125274899Y-61135984D01*
X125271586Y-61142625D01*
X125142978Y-61271233D01*
X125136027Y-61274585D01*
X125128501Y-61272880D01*
X125005974Y-61196250D01*
X124875562Y-61132689D01*
X124745147Y-61087126D01*
X124614735Y-61059563D01*
X124497391Y-61050958D01*
X124491310Y-61048710D01*
X124487358Y-61043570D01*
X124486751Y-61037119D01*
X124573115Y-60580520D01*
X124575539Y-60575308D01*
X124580152Y-60571880D01*
X124963417Y-60414083D01*
X124969685Y-60413345D01*
X124975426Y-60415971D01*
G37*
G04 #@! TD.AperFunction*
G04 #@! TA.AperFunction,Conductor*
G36*
X129654504Y-57375879D02*
G01*
X129961854Y-57504138D01*
X129966797Y-57508036D01*
X129969005Y-57513930D01*
X129967839Y-57520116D01*
X129905701Y-57645966D01*
X129905070Y-57647085D01*
X129844426Y-57742013D01*
X129795086Y-57825261D01*
X129762051Y-57926274D01*
X129762050Y-57926277D01*
X129762051Y-57926277D01*
X129750871Y-58064246D01*
X129747142Y-58071901D01*
X129739210Y-58075000D01*
X129560790Y-58075000D01*
X129552858Y-58071901D01*
X129549128Y-58064245D01*
X129537948Y-57926277D01*
X129504911Y-57825261D01*
X129455564Y-57742001D01*
X129394923Y-57647076D01*
X129394301Y-57645974D01*
X129332159Y-57520114D01*
X129330994Y-57513930D01*
X129333202Y-57508036D01*
X129338143Y-57504139D01*
X129645495Y-57375879D01*
X129650000Y-57374978D01*
X129654504Y-57375879D01*
G37*
G04 #@! TD.AperFunction*
G04 #@! TA.AperFunction,Conductor*
G36*
X137751217Y-70327901D02*
G01*
X138138084Y-70570660D01*
X138142636Y-70576002D01*
X138143312Y-70582988D01*
X138115014Y-70716931D01*
X138085001Y-70867994D01*
X138054990Y-71028054D01*
X138024991Y-71197049D01*
X137996644Y-71365244D01*
X137992661Y-71372234D01*
X137985107Y-71375000D01*
X137504893Y-71375000D01*
X137497339Y-71372234D01*
X137493356Y-71365244D01*
X137465009Y-71197049D01*
X137435010Y-71028054D01*
X137435000Y-71027999D01*
X137405000Y-70868000D01*
X137375000Y-70717000D01*
X137374995Y-70716976D01*
X137374986Y-70716931D01*
X137374985Y-70716931D01*
X137346687Y-70582986D01*
X137347363Y-70576002D01*
X137351913Y-70570661D01*
X137738782Y-70327901D01*
X137745000Y-70326112D01*
X137751217Y-70327901D01*
G37*
G04 #@! TD.AperFunction*
G04 #@! TA.AperFunction,Conductor*
G36*
X127906217Y-70327901D02*
G01*
X128293084Y-70570660D01*
X128297636Y-70576002D01*
X128298312Y-70582988D01*
X128270014Y-70716931D01*
X128240001Y-70867994D01*
X128209990Y-71028054D01*
X128179991Y-71197049D01*
X128151644Y-71365244D01*
X128147661Y-71372234D01*
X128140107Y-71375000D01*
X127659893Y-71375000D01*
X127652339Y-71372234D01*
X127648356Y-71365244D01*
X127620009Y-71197049D01*
X127590010Y-71028054D01*
X127590000Y-71027999D01*
X127560000Y-70868000D01*
X127530000Y-70717000D01*
X127529995Y-70716976D01*
X127529986Y-70716931D01*
X127529985Y-70716931D01*
X127501687Y-70582986D01*
X127502363Y-70576002D01*
X127506913Y-70570661D01*
X127893782Y-70327901D01*
X127900000Y-70326112D01*
X127906217Y-70327901D01*
G37*
G04 #@! TD.AperFunction*
G04 #@! TA.AperFunction,Conductor*
G36*
X130498532Y-66777104D02*
G01*
X130502817Y-66782657D01*
X130537716Y-66877519D01*
X130575432Y-66968038D01*
X130613149Y-67046558D01*
X130638293Y-67090904D01*
X130650867Y-67113081D01*
X130685079Y-67162534D01*
X130687072Y-67167780D01*
X130686392Y-67173351D01*
X130410935Y-67897262D01*
X130406641Y-67902734D01*
X130400000Y-67904801D01*
X130393359Y-67902734D01*
X130389065Y-67897262D01*
X130113607Y-67173351D01*
X130112927Y-67167780D01*
X130114920Y-67162534D01*
X130149131Y-67113081D01*
X130149134Y-67113077D01*
X130186850Y-67046558D01*
X130224567Y-66968038D01*
X130262283Y-66877519D01*
X130297181Y-66782660D01*
X130301468Y-66777104D01*
X130308162Y-66775000D01*
X130491838Y-66775000D01*
X130498532Y-66777104D01*
G37*
G04 #@! TD.AperFunction*
G04 #@! TA.AperFunction,Conductor*
G36*
X129248532Y-66777104D02*
G01*
X129252817Y-66782657D01*
X129287716Y-66877519D01*
X129325432Y-66968038D01*
X129363149Y-67046558D01*
X129388293Y-67090904D01*
X129400867Y-67113081D01*
X129435079Y-67162534D01*
X129437072Y-67167780D01*
X129436392Y-67173351D01*
X129160935Y-67897262D01*
X129156641Y-67902734D01*
X129150000Y-67904801D01*
X129143359Y-67902734D01*
X129139065Y-67897262D01*
X128863607Y-67173351D01*
X128862927Y-67167780D01*
X128864920Y-67162534D01*
X128899131Y-67113081D01*
X128899134Y-67113077D01*
X128936850Y-67046558D01*
X128974567Y-66968038D01*
X129012283Y-66877519D01*
X129047181Y-66782660D01*
X129051468Y-66777104D01*
X129058162Y-66775000D01*
X129241838Y-66775000D01*
X129248532Y-66777104D01*
G37*
G04 #@! TD.AperFunction*
G04 #@! TA.AperFunction,Conductor*
G36*
X124582903Y-63131241D02*
G01*
X124951579Y-63469027D01*
X124955347Y-63476844D01*
X124952695Y-63485106D01*
X124902821Y-63545473D01*
X124845865Y-63632290D01*
X124788904Y-63736994D01*
X124731956Y-63859547D01*
X124677962Y-63992697D01*
X124673656Y-63998004D01*
X124667120Y-64000000D01*
X124482880Y-64000000D01*
X124476344Y-63998004D01*
X124472038Y-63992697D01*
X124418042Y-63859547D01*
X124361094Y-63736994D01*
X124361089Y-63736983D01*
X124304134Y-63632290D01*
X124247179Y-63545475D01*
X124197304Y-63485106D01*
X124194652Y-63476844D01*
X124198419Y-63469028D01*
X124567098Y-63131239D01*
X124574999Y-63128168D01*
X124582903Y-63131241D01*
G37*
G04 #@! TD.AperFunction*
G04 #@! TA.AperFunction,Conductor*
G36*
X132170114Y-57082159D02*
G01*
X132295974Y-57144301D01*
X132297076Y-57144923D01*
X132392001Y-57205564D01*
X132475261Y-57254911D01*
X132576277Y-57287948D01*
X132714246Y-57299128D01*
X132721901Y-57302858D01*
X132725000Y-57310790D01*
X132725000Y-57489210D01*
X132721901Y-57497142D01*
X132714246Y-57500871D01*
X132619989Y-57508509D01*
X132576274Y-57512051D01*
X132475261Y-57545086D01*
X132392013Y-57594426D01*
X132297085Y-57655070D01*
X132295966Y-57655701D01*
X132170116Y-57717839D01*
X132163930Y-57719005D01*
X132158036Y-57716797D01*
X132154138Y-57711854D01*
X132084545Y-57545087D01*
X132025880Y-57404505D01*
X132024978Y-57399999D01*
X132025879Y-57395496D01*
X132154139Y-57088143D01*
X132158036Y-57083202D01*
X132163930Y-57080994D01*
X132170114Y-57082159D01*
G37*
G04 #@! TD.AperFunction*
G04 #@! TA.AperFunction,Conductor*
G36*
X131720797Y-54632344D02*
G01*
X131877783Y-54790227D01*
X131880942Y-54796099D01*
X131880381Y-54802743D01*
X131876281Y-54808001D01*
X131872500Y-54810698D01*
X131857506Y-54824865D01*
X131842497Y-54842522D01*
X131827499Y-54863640D01*
X131815920Y-54882628D01*
X131811659Y-54886738D01*
X131805931Y-54888236D01*
X131619069Y-54888236D01*
X131613341Y-54886738D01*
X131609080Y-54882628D01*
X131597500Y-54863640D01*
X131582502Y-54842522D01*
X131582500Y-54842519D01*
X131567500Y-54824872D01*
X131552500Y-54810699D01*
X131548719Y-54808002D01*
X131544619Y-54802744D01*
X131544057Y-54796099D01*
X131547214Y-54790230D01*
X131704203Y-54632343D01*
X131709461Y-54629296D01*
X131715539Y-54629296D01*
X131720797Y-54632344D01*
G37*
G04 #@! TD.AperFunction*
G04 #@! TA.AperFunction,Conductor*
G36*
X122286669Y-59805838D02*
G01*
X122616033Y-59983317D01*
X122617842Y-59984521D01*
X122844454Y-60167841D01*
X122844551Y-60167920D01*
X123038666Y-60328422D01*
X123166701Y-60388593D01*
X123280223Y-60441944D01*
X123639653Y-60483795D01*
X123647038Y-60487636D01*
X123650000Y-60495416D01*
X123650000Y-60674584D01*
X123647038Y-60682364D01*
X123639653Y-60686204D01*
X123561217Y-60695337D01*
X123280224Y-60728054D01*
X123038666Y-60841575D01*
X122844551Y-61002077D01*
X122844454Y-61002156D01*
X122617842Y-61185477D01*
X122616033Y-61186681D01*
X122286671Y-61364160D01*
X122280386Y-61365537D01*
X122274324Y-61363383D01*
X122270316Y-61358349D01*
X122198990Y-61186681D01*
X122055604Y-60841575D01*
X121950865Y-60589488D01*
X121949970Y-60584999D01*
X121950864Y-60580512D01*
X122270317Y-59811647D01*
X122274324Y-59806616D01*
X122280386Y-59804462D01*
X122286669Y-59805838D01*
G37*
G04 #@! TD.AperFunction*
G04 #@! TA.AperFunction,Conductor*
G36*
X124222745Y-60185421D02*
G01*
X124228112Y-60188807D01*
X124569081Y-60567319D01*
X124572087Y-60575038D01*
X124569230Y-60582812D01*
X124233828Y-60969853D01*
X124228526Y-60973342D01*
X124222183Y-60973550D01*
X124216664Y-60970415D01*
X124135436Y-60888228D01*
X124045331Y-60813204D01*
X123955219Y-60754323D01*
X123865111Y-60711589D01*
X123865109Y-60711588D01*
X123817869Y-60697649D01*
X123783389Y-60687475D01*
X123777329Y-60683258D01*
X123775000Y-60676253D01*
X123775000Y-60493514D01*
X123777240Y-60486630D01*
X123783101Y-60482381D01*
X123863930Y-60456255D01*
X123952861Y-60411324D01*
X124041792Y-60350207D01*
X124130723Y-60272905D01*
X124210945Y-60188572D01*
X124216399Y-60185334D01*
X124222745Y-60185421D01*
G37*
G04 #@! TD.AperFunction*
G04 #@! TA.AperFunction,Conductor*
G36*
X132122142Y-56703099D02*
G01*
X132125871Y-56710753D01*
X132134388Y-56815858D01*
X132137051Y-56848724D01*
X132170086Y-56949737D01*
X132219426Y-57032985D01*
X132280070Y-57127913D01*
X132280701Y-57129032D01*
X132342839Y-57254883D01*
X132344005Y-57261069D01*
X132341797Y-57266963D01*
X132336854Y-57270861D01*
X132029506Y-57399119D01*
X132025000Y-57400021D01*
X132020494Y-57399119D01*
X131713145Y-57270861D01*
X131708202Y-57266963D01*
X131705994Y-57261069D01*
X131707159Y-57254886D01*
X131769305Y-57129016D01*
X131769918Y-57127929D01*
X131830564Y-57032998D01*
X131879911Y-56949738D01*
X131912948Y-56848722D01*
X131924128Y-56710753D01*
X131927858Y-56703099D01*
X131935790Y-56700000D01*
X132114210Y-56700000D01*
X132122142Y-56703099D01*
G37*
G04 #@! TD.AperFunction*
G04 #@! TA.AperFunction,Conductor*
G36*
X134684485Y-45345862D02*
G01*
X135592259Y-45722856D01*
X135597230Y-45726775D01*
X135599432Y-45732709D01*
X135598221Y-45738922D01*
X135405397Y-46121910D01*
X135404648Y-46123190D01*
X135221843Y-46394325D01*
X135070654Y-46630346D01*
X134967898Y-46918098D01*
X134930947Y-47334335D01*
X134927192Y-47341931D01*
X134919293Y-47345000D01*
X134440707Y-47345000D01*
X134432808Y-47341931D01*
X134429053Y-47334335D01*
X134392100Y-46918098D01*
X134392100Y-46918096D01*
X134289345Y-46630348D01*
X134138152Y-46394321D01*
X133955345Y-46123183D01*
X133954605Y-46121918D01*
X133761777Y-45738920D01*
X133760567Y-45732709D01*
X133762769Y-45726775D01*
X133767738Y-45722857D01*
X134675514Y-45345862D01*
X134680000Y-45344968D01*
X134684485Y-45345862D01*
G37*
G04 #@! TD.AperFunction*
G04 #@! TA.AperFunction,Conductor*
G36*
X143912619Y-50574964D02*
G01*
X143918653Y-50576661D01*
X143922946Y-50581230D01*
X143924263Y-50587360D01*
X143914648Y-50748803D01*
X143914437Y-50750425D01*
X143889886Y-50871883D01*
X143889682Y-50872729D01*
X143860199Y-50977688D01*
X143835399Y-51100377D01*
X143825655Y-51263996D01*
X143821999Y-51271816D01*
X143813976Y-51275000D01*
X143336024Y-51275000D01*
X143328001Y-51271816D01*
X143324345Y-51263996D01*
X143314600Y-51100377D01*
X143289800Y-50977688D01*
X143260317Y-50872729D01*
X143260113Y-50871883D01*
X143235562Y-50750425D01*
X143235351Y-50748803D01*
X143225736Y-50587360D01*
X143227053Y-50581230D01*
X143231346Y-50576661D01*
X143237379Y-50574964D01*
X143575000Y-50574000D01*
X143912619Y-50574964D01*
G37*
G04 #@! TD.AperFunction*
G04 #@! TA.AperFunction,Conductor*
G36*
X143823180Y-50577391D02*
G01*
X143827370Y-50583588D01*
X143852335Y-50674057D01*
X143879686Y-50764169D01*
X143907041Y-50845283D01*
X143934377Y-50917346D01*
X143958254Y-50972435D01*
X143958906Y-50979776D01*
X143955041Y-50986050D01*
X143557922Y-51319351D01*
X143550100Y-51322085D01*
X143542429Y-51318954D01*
X143168450Y-50970903D01*
X143164873Y-50964218D01*
X143166144Y-50956746D01*
X143194443Y-50904774D01*
X143227082Y-50835830D01*
X143253746Y-50772155D01*
X143259717Y-50757897D01*
X143291179Y-50674088D01*
X143292360Y-50670943D01*
X143309882Y-50619435D01*
X143322302Y-50582932D01*
X143326567Y-50577187D01*
X143333379Y-50575000D01*
X143816092Y-50575000D01*
X143823180Y-50577391D01*
G37*
G04 #@! TD.AperFunction*
G04 #@! TA.AperFunction,Conductor*
G36*
X143909168Y-50943501D02*
G01*
X143932870Y-50953678D01*
X144006229Y-50985179D01*
X144110922Y-51021134D01*
X144215614Y-51048089D01*
X144320307Y-51066044D01*
X144320315Y-51066044D01*
X144320317Y-51066045D01*
X144344899Y-51068147D01*
X144414298Y-51074084D01*
X144421918Y-51077828D01*
X144425000Y-51085741D01*
X144425000Y-51564258D01*
X144421918Y-51572171D01*
X144414297Y-51575915D01*
X144320317Y-51583953D01*
X144215602Y-51601912D01*
X144110931Y-51628862D01*
X144006226Y-51664821D01*
X143909168Y-51706498D01*
X143902093Y-51707186D01*
X143895925Y-51703651D01*
X143556240Y-51332902D01*
X143553168Y-51325000D01*
X143556240Y-51317097D01*
X143895927Y-50946346D01*
X143902093Y-50942813D01*
X143909168Y-50943501D01*
G37*
G04 #@! TD.AperFunction*
G04 #@! TA.AperFunction,Conductor*
G36*
X142415174Y-54127599D02*
G01*
X142428681Y-54140913D01*
X142444999Y-54156998D01*
X142479999Y-54186998D01*
X142502412Y-54203328D01*
X142514998Y-54212498D01*
X142515000Y-54212499D01*
X142550000Y-54233499D01*
X142578291Y-54246837D01*
X142583181Y-54251154D01*
X142585000Y-54257419D01*
X142585000Y-54435835D01*
X142583042Y-54442315D01*
X142577823Y-54446626D01*
X142571090Y-54447324D01*
X142486246Y-54431001D01*
X142486239Y-54431000D01*
X142486234Y-54430999D01*
X142459777Y-54427114D01*
X142387453Y-54416496D01*
X142288717Y-54406501D01*
X142288707Y-54406500D01*
X142288703Y-54406500D01*
X142249285Y-54404304D01*
X142189926Y-54400999D01*
X142104362Y-54400133D01*
X142098131Y-54398262D01*
X142093863Y-54393351D01*
X142092878Y-54386924D01*
X142113064Y-54232174D01*
X142115595Y-54226299D01*
X142120835Y-54222632D01*
X142403133Y-54124875D01*
X142409542Y-54124520D01*
X142415174Y-54127599D01*
G37*
G04 #@! TD.AperFunction*
G04 #@! TA.AperFunction,Conductor*
G36*
X139496418Y-53053794D02*
G01*
X139611935Y-53122090D01*
X139768965Y-53214929D01*
X139774019Y-53221036D01*
X139774019Y-53228964D01*
X139768965Y-53235071D01*
X139496420Y-53396204D01*
X139490073Y-53397826D01*
X139483849Y-53395782D01*
X139455001Y-53376001D01*
X139455000Y-53376000D01*
X139420000Y-53356500D01*
X139394862Y-53345727D01*
X139384995Y-53341498D01*
X139368406Y-53336520D01*
X139368403Y-53336521D01*
X139349999Y-53331000D01*
X139315000Y-53325000D01*
X139315000Y-53125000D01*
X139349999Y-53119000D01*
X139384999Y-53108500D01*
X139420000Y-53093500D01*
X139455000Y-53074000D01*
X139483851Y-53054216D01*
X139490073Y-53052173D01*
X139496418Y-53053794D01*
G37*
G04 #@! TD.AperFunction*
G04 #@! TA.AperFunction,Conductor*
G36*
X130282902Y-50156240D02*
G01*
X130654304Y-50496524D01*
X130657695Y-50502099D01*
X130657572Y-50508624D01*
X130632825Y-50588210D01*
X130605867Y-50683910D01*
X130578899Y-50788658D01*
X130551952Y-50902316D01*
X130527019Y-51015810D01*
X130522924Y-51022418D01*
X130515592Y-51025000D01*
X130034408Y-51025000D01*
X130027076Y-51022418D01*
X130022981Y-51015811D01*
X129998043Y-50902303D01*
X129971099Y-50788658D01*
X129971089Y-50788614D01*
X129944134Y-50683922D01*
X129917179Y-50588229D01*
X129892426Y-50508622D01*
X129892304Y-50502099D01*
X129895693Y-50496526D01*
X130267097Y-50156240D01*
X130275000Y-50153168D01*
X130282902Y-50156240D01*
G37*
G04 #@! TD.AperFunction*
G04 #@! TA.AperFunction,Conductor*
G36*
X130522924Y-50852582D02*
G01*
X130527019Y-50859190D01*
X130551952Y-50972682D01*
X130578899Y-51086340D01*
X130578910Y-51086385D01*
X130590043Y-51129628D01*
X130605867Y-51191088D01*
X130632825Y-51286788D01*
X130657572Y-51366375D01*
X130657695Y-51372900D01*
X130654304Y-51378476D01*
X130282904Y-51718758D01*
X130275000Y-51721831D01*
X130267096Y-51718758D01*
X129895695Y-51378476D01*
X129892304Y-51372900D01*
X129892426Y-51366377D01*
X129917179Y-51286770D01*
X129944134Y-51191077D01*
X129971089Y-51086385D01*
X129998044Y-50972692D01*
X130022981Y-50859188D01*
X130027076Y-50852582D01*
X130034408Y-50850000D01*
X130515592Y-50850000D01*
X130522924Y-50852582D01*
G37*
G04 #@! TD.AperFunction*
G04 #@! TA.AperFunction,Conductor*
G36*
X142416149Y-52054216D02*
G01*
X142444999Y-52074000D01*
X142479999Y-52093500D01*
X142515000Y-52108500D01*
X142550000Y-52119000D01*
X142575277Y-52123333D01*
X142582245Y-52127323D01*
X142585000Y-52134865D01*
X142585000Y-52135954D01*
X142585000Y-52304679D01*
X142584999Y-52304679D01*
X142585000Y-52304680D01*
X142585000Y-52315135D01*
X142582245Y-52322677D01*
X142575277Y-52326666D01*
X142550000Y-52331000D01*
X142515000Y-52341500D01*
X142514997Y-52341501D01*
X142479999Y-52356500D01*
X142444997Y-52376001D01*
X142416150Y-52395782D01*
X142409926Y-52397826D01*
X142403579Y-52396204D01*
X142131033Y-52235070D01*
X142125980Y-52228964D01*
X142125980Y-52221036D01*
X142131034Y-52214929D01*
X142403582Y-52053794D01*
X142409926Y-52052173D01*
X142416149Y-52054216D01*
G37*
G04 #@! TD.AperFunction*
G04 #@! TA.AperFunction,Conductor*
G36*
X127220464Y-60283304D02*
G01*
X127303551Y-60331330D01*
X127305852Y-60333071D01*
X127365741Y-60391293D01*
X127366105Y-60391663D01*
X127416794Y-60445519D01*
X127481910Y-60484817D01*
X127525302Y-60491159D01*
X127575778Y-60498537D01*
X127582937Y-60502462D01*
X127585786Y-60510114D01*
X127585786Y-60689886D01*
X127582937Y-60697538D01*
X127575778Y-60701462D01*
X127515167Y-60710321D01*
X127481910Y-60715182D01*
X127416794Y-60754479D01*
X127366105Y-60808335D01*
X127365741Y-60808705D01*
X127305850Y-60866929D01*
X127303549Y-60868669D01*
X127220465Y-60916695D01*
X127214114Y-60918255D01*
X127207918Y-60916163D01*
X127203812Y-60911072D01*
X127161094Y-60808705D01*
X127075879Y-60604504D01*
X127074978Y-60600000D01*
X127075880Y-60595494D01*
X127203813Y-60288925D01*
X127207917Y-60283837D01*
X127214113Y-60281745D01*
X127220464Y-60283304D01*
G37*
G04 #@! TD.AperFunction*
G04 #@! TA.AperFunction,Conductor*
G36*
X138818661Y-52692573D02*
G01*
X138866943Y-52740106D01*
X138867885Y-52741154D01*
X138922207Y-52809553D01*
X138922846Y-52810439D01*
X138977423Y-52894147D01*
X138977861Y-52894875D01*
X139032600Y-52993864D01*
X139032909Y-52994463D01*
X139084281Y-53101474D01*
X139085266Y-53108504D01*
X139082006Y-53114810D01*
X138947281Y-53249535D01*
X138945466Y-53251018D01*
X138898046Y-53282407D01*
X138896848Y-53283102D01*
X138849183Y-53307093D01*
X138847746Y-53307699D01*
X138800776Y-53323887D01*
X138800325Y-53324043D01*
X138798653Y-53324484D01*
X138764568Y-53330824D01*
X138751421Y-53333269D01*
X138749603Y-53333462D01*
X138706886Y-53334629D01*
X138701992Y-53333702D01*
X138697927Y-53330824D01*
X138360558Y-52961491D01*
X138357617Y-52955270D01*
X138358681Y-52948471D01*
X138363381Y-52943449D01*
X138804640Y-52690757D01*
X138811955Y-52689308D01*
X138818661Y-52692573D01*
G37*
G04 #@! TD.AperFunction*
G04 #@! TA.AperFunction,Conductor*
G36*
X130815000Y-52793999D02*
G01*
X130830000Y-52833499D01*
X130831466Y-52836920D01*
X130845001Y-52868503D01*
X130859999Y-52899000D01*
X130870685Y-52917521D01*
X130872177Y-52924681D01*
X130869125Y-52931328D01*
X130708574Y-53104264D01*
X130703168Y-53107567D01*
X130696832Y-53107567D01*
X130691426Y-53104264D01*
X130627077Y-53034952D01*
X130530873Y-52931326D01*
X130527822Y-52924681D01*
X130529313Y-52917523D01*
X130540000Y-52899000D01*
X130555000Y-52868500D01*
X130568533Y-52836921D01*
X130570000Y-52833499D01*
X130585000Y-52793999D01*
X130600000Y-52750000D01*
X130800000Y-52750000D01*
X130815000Y-52793999D01*
G37*
G04 #@! TD.AperFunction*
G04 #@! TA.AperFunction,Conductor*
G36*
X143544477Y-51323114D02*
G01*
X143549691Y-51325539D01*
X143553121Y-51330156D01*
X143710741Y-51712993D01*
X143711458Y-51719400D01*
X143708672Y-51725214D01*
X143703229Y-51728670D01*
X143572898Y-51767074D01*
X143430116Y-51824147D01*
X143378197Y-51850353D01*
X143378194Y-51850355D01*
X143287330Y-51896222D01*
X143144545Y-51983296D01*
X143001761Y-52085371D01*
X142789629Y-51873239D01*
X142846703Y-51775454D01*
X142903777Y-51662669D01*
X142960851Y-51534884D01*
X143017925Y-51392099D01*
X143071612Y-51243680D01*
X143076816Y-51237499D01*
X143084786Y-51236166D01*
X143544477Y-51323114D01*
G37*
G04 #@! TD.AperFunction*
G04 #@! TA.AperFunction,Conductor*
G36*
X126941963Y-60283202D02*
G01*
X126945861Y-60288145D01*
X127074119Y-60595493D01*
X127075021Y-60599999D01*
X127074119Y-60604505D01*
X126945861Y-60911854D01*
X126941963Y-60916797D01*
X126936069Y-60919005D01*
X126929883Y-60917839D01*
X126804032Y-60855701D01*
X126802913Y-60855070D01*
X126707985Y-60794426D01*
X126624737Y-60745086D01*
X126523724Y-60712051D01*
X126490858Y-60709388D01*
X126385753Y-60700871D01*
X126378099Y-60697142D01*
X126375000Y-60689210D01*
X126375000Y-60510790D01*
X126378099Y-60502858D01*
X126385753Y-60499128D01*
X126523722Y-60487948D01*
X126624737Y-60454911D01*
X126707998Y-60405564D01*
X126802929Y-60344918D01*
X126804016Y-60344305D01*
X126929886Y-60282159D01*
X126936069Y-60280994D01*
X126941963Y-60283202D01*
G37*
G04 #@! TD.AperFunction*
G04 #@! TA.AperFunction,Conductor*
G36*
X126587954Y-60192026D02*
G01*
X126593363Y-60195342D01*
X126672829Y-60281293D01*
X126760872Y-60360300D01*
X126848914Y-60423087D01*
X126936957Y-60469653D01*
X127017114Y-60497281D01*
X127022826Y-60501549D01*
X127025000Y-60508342D01*
X127025000Y-60691077D01*
X127022603Y-60698172D01*
X127016395Y-60702360D01*
X126934011Y-60724954D01*
X126843015Y-60766034D01*
X126752026Y-60823231D01*
X126661040Y-60896548D01*
X126579058Y-60977134D01*
X126573495Y-60980188D01*
X126567156Y-60979890D01*
X126561906Y-60976326D01*
X126230661Y-60582911D01*
X126227914Y-60575094D01*
X126231033Y-60567418D01*
X126293572Y-60500000D01*
X126576196Y-60195326D01*
X126581609Y-60192021D01*
X126587954Y-60192026D01*
G37*
G04 #@! TD.AperFunction*
G04 #@! TA.AperFunction,Conductor*
G36*
X130672762Y-51616298D02*
G01*
X130678330Y-51623148D01*
X130709369Y-51725044D01*
X130730001Y-51792774D01*
X130784987Y-51964291D01*
X130840000Y-52126890D01*
X130854796Y-52168200D01*
X130854797Y-52168200D01*
X130894999Y-52280442D01*
X130950000Y-52425000D01*
X130454450Y-52425000D01*
X130446675Y-52422043D01*
X130379163Y-52362000D01*
X130308327Y-52308001D01*
X130237484Y-52262997D01*
X130166654Y-52227001D01*
X130166653Y-52227000D01*
X130166652Y-52227000D01*
X130106703Y-52204150D01*
X130100203Y-52198023D01*
X130099920Y-52189095D01*
X130184531Y-51964328D01*
X130272912Y-51729545D01*
X130275957Y-51725044D01*
X130280707Y-51722404D01*
X130663992Y-51615290D01*
X130672762Y-51616298D01*
G37*
G04 #@! TD.AperFunction*
G04 #@! TA.AperFunction,Conductor*
G36*
X130285937Y-54277185D02*
G01*
X130290202Y-54282925D01*
X130302495Y-54318986D01*
X130317501Y-54358502D01*
X130332501Y-54393503D01*
X130347499Y-54424000D01*
X130358027Y-54442248D01*
X130359495Y-54449608D01*
X130356190Y-54456345D01*
X130195797Y-54617655D01*
X130190539Y-54620703D01*
X130184461Y-54620703D01*
X130179203Y-54617655D01*
X130018809Y-54456345D01*
X130015504Y-54449607D01*
X130016972Y-54442248D01*
X130027500Y-54424000D01*
X130042500Y-54393500D01*
X130057500Y-54358499D01*
X130072500Y-54318999D01*
X130084798Y-54282924D01*
X130089063Y-54277185D01*
X130095872Y-54275000D01*
X130279128Y-54275000D01*
X130285937Y-54277185D01*
G37*
G04 #@! TD.AperFunction*
G04 #@! TA.AperFunction,Conductor*
G36*
X130195797Y-54132344D02*
G01*
X130356190Y-54293654D01*
X130359495Y-54300391D01*
X130358027Y-54307751D01*
X130347499Y-54325998D01*
X130332501Y-54356495D01*
X130317501Y-54391496D01*
X130302495Y-54431012D01*
X130290202Y-54467075D01*
X130285937Y-54472815D01*
X130279128Y-54475000D01*
X130095872Y-54475000D01*
X130089063Y-54472815D01*
X130084798Y-54467075D01*
X130072504Y-54431012D01*
X130072500Y-54431000D01*
X130057500Y-54391500D01*
X130042500Y-54356499D01*
X130027500Y-54325999D01*
X130016972Y-54307751D01*
X130015504Y-54300392D01*
X130018808Y-54293655D01*
X130179203Y-54132343D01*
X130184461Y-54129296D01*
X130190539Y-54129296D01*
X130195797Y-54132344D01*
G37*
G04 #@! TD.AperFunction*
G04 #@! TA.AperFunction,Conductor*
G36*
X130882992Y-52942980D02*
G01*
X130884965Y-52944333D01*
X130909997Y-52961499D01*
X130909999Y-52961500D01*
X130944999Y-52981000D01*
X130980000Y-52996000D01*
X131015000Y-53006500D01*
X131040277Y-53010833D01*
X131047245Y-53014823D01*
X131050000Y-53022365D01*
X131050000Y-53202635D01*
X131047245Y-53210177D01*
X131040277Y-53214166D01*
X131015000Y-53218500D01*
X130980000Y-53229000D01*
X130979997Y-53229001D01*
X130944999Y-53244000D01*
X130909997Y-53263501D01*
X130882994Y-53282018D01*
X130875317Y-53284021D01*
X130868127Y-53280666D01*
X130707344Y-53120797D01*
X130704296Y-53115539D01*
X130704296Y-53109461D01*
X130707344Y-53104203D01*
X130868128Y-52944332D01*
X130875317Y-52940978D01*
X130882992Y-52942980D01*
G37*
G04 #@! TD.AperFunction*
G04 #@! TA.AperFunction,Conductor*
G36*
X131031872Y-52944333D02*
G01*
X131192655Y-53104203D01*
X131195703Y-53109461D01*
X131195703Y-53115539D01*
X131192655Y-53120797D01*
X131031872Y-53280666D01*
X131024682Y-53284021D01*
X131017005Y-53282018D01*
X130990000Y-53263500D01*
X130955000Y-53244000D01*
X130919999Y-53229000D01*
X130884999Y-53218500D01*
X130859722Y-53214166D01*
X130852755Y-53210177D01*
X130850000Y-53202635D01*
X130850000Y-53022365D01*
X130852755Y-53014823D01*
X130859722Y-53010833D01*
X130884999Y-53006500D01*
X130919999Y-52996000D01*
X130955000Y-52981000D01*
X130990000Y-52961500D01*
X131017008Y-52942980D01*
X131024682Y-52940978D01*
X131031872Y-52944333D01*
G37*
G04 #@! TD.AperFunction*
G04 #@! TA.AperFunction,Conductor*
G36*
X126941991Y-62783359D02*
G01*
X126945942Y-62788340D01*
X127074119Y-63095494D01*
X127075021Y-63100000D01*
X127074119Y-63104506D01*
X126945790Y-63412023D01*
X126941939Y-63416932D01*
X126936113Y-63419163D01*
X126929968Y-63418083D01*
X126806122Y-63359198D01*
X126805321Y-63358779D01*
X126710494Y-63304343D01*
X126626845Y-63262026D01*
X126526195Y-63234696D01*
X126435790Y-63228701D01*
X126390897Y-63225724D01*
X126383131Y-63222046D01*
X126379973Y-63214051D01*
X126379973Y-63035613D01*
X126383007Y-63027753D01*
X126390535Y-63023968D01*
X126427203Y-63020383D01*
X126528925Y-63010441D01*
X126628380Y-62971390D01*
X126709467Y-62914783D01*
X126709526Y-62914742D01*
X126802620Y-62848054D01*
X126804078Y-62847163D01*
X126929792Y-62782443D01*
X126936019Y-62781179D01*
X126941991Y-62783359D01*
G37*
G04 #@! TD.AperFunction*
G04 #@! TA.AperFunction,Conductor*
G36*
X126586191Y-62734074D02*
G01*
X126666914Y-62817330D01*
X126756435Y-62893495D01*
X126845957Y-62953495D01*
X126935478Y-62997330D01*
X126970203Y-63008063D01*
X127016755Y-63022452D01*
X127022716Y-63026685D01*
X127025000Y-63033630D01*
X127025000Y-63216370D01*
X127022716Y-63223315D01*
X127016755Y-63227548D01*
X126935479Y-63252668D01*
X126845957Y-63296503D01*
X126756435Y-63356503D01*
X126666911Y-63432671D01*
X126586192Y-63515924D01*
X126580704Y-63519112D01*
X126574359Y-63518965D01*
X126569024Y-63515527D01*
X126312348Y-63225000D01*
X126230843Y-63132746D01*
X126227912Y-63125000D01*
X126230844Y-63117253D01*
X126569025Y-62734471D01*
X126574359Y-62731034D01*
X126580704Y-62730887D01*
X126586191Y-62734074D01*
G37*
G04 #@! TD.AperFunction*
G04 #@! TA.AperFunction,Conductor*
G36*
X130006857Y-53956366D02*
G01*
X130091412Y-54034865D01*
X130179264Y-54116425D01*
X130182567Y-54121831D01*
X130182567Y-54128167D01*
X130179264Y-54133573D01*
X130006858Y-54293632D01*
X129999758Y-54296726D01*
X129992281Y-54294707D01*
X129965001Y-54276001D01*
X129965000Y-54276000D01*
X129930000Y-54256500D01*
X129894999Y-54241500D01*
X129859999Y-54231000D01*
X129834722Y-54226666D01*
X129827755Y-54222677D01*
X129825000Y-54215135D01*
X129825000Y-54034865D01*
X129827755Y-54027323D01*
X129834722Y-54023333D01*
X129859999Y-54019000D01*
X129894999Y-54008500D01*
X129930000Y-53993500D01*
X129965000Y-53974000D01*
X129992282Y-53955291D01*
X129999759Y-53953273D01*
X130006857Y-53956366D01*
G37*
G04 #@! TD.AperFunction*
G04 #@! TA.AperFunction,Conductor*
G36*
X138004073Y-52571347D02*
G01*
X138343758Y-52942096D01*
X138346831Y-52949999D01*
X138343758Y-52957903D01*
X138004074Y-53328651D01*
X137997906Y-53332186D01*
X137990831Y-53331498D01*
X137893772Y-53289821D01*
X137893773Y-53289821D01*
X137893770Y-53289820D01*
X137789077Y-53253865D01*
X137789071Y-53253863D01*
X137789067Y-53253862D01*
X137684396Y-53226912D01*
X137684386Y-53226910D01*
X137684385Y-53226910D01*
X137632038Y-53217932D01*
X137579681Y-53208953D01*
X137485703Y-53200915D01*
X137478082Y-53197171D01*
X137475000Y-53189258D01*
X137475000Y-52710741D01*
X137478082Y-52702828D01*
X137485702Y-52699084D01*
X137567584Y-52692079D01*
X137579681Y-52691045D01*
X137579681Y-52691044D01*
X137579692Y-52691044D01*
X137684385Y-52673089D01*
X137789077Y-52646134D01*
X137893770Y-52610179D01*
X137990831Y-52568500D01*
X137997906Y-52567813D01*
X138004073Y-52571347D01*
G37*
G04 #@! TD.AperFunction*
G04 #@! TA.AperFunction,Conductor*
G36*
X125165237Y-62406628D02*
G01*
X125293698Y-62535089D01*
X125297021Y-62541807D01*
X125295586Y-62549163D01*
X125235007Y-62655270D01*
X125170014Y-62787106D01*
X125104997Y-62936992D01*
X125040008Y-63104812D01*
X124979077Y-63279027D01*
X124975505Y-63284167D01*
X124969794Y-63286731D01*
X124963579Y-63285983D01*
X124580156Y-63128121D01*
X124575539Y-63124691D01*
X124573114Y-63119476D01*
X124570344Y-63104830D01*
X124486678Y-62662494D01*
X124487243Y-62656152D01*
X124491048Y-62651044D01*
X124496964Y-62648686D01*
X124619170Y-62635997D01*
X124754026Y-62603994D01*
X124888882Y-62553990D01*
X125023738Y-62485987D01*
X125150674Y-62405035D01*
X125158235Y-62403270D01*
X125165237Y-62406628D01*
G37*
G04 #@! TD.AperFunction*
G04 #@! TA.AperFunction,Conductor*
G36*
X122286669Y-62345838D02*
G01*
X122616033Y-62523317D01*
X122617842Y-62524521D01*
X122844454Y-62707841D01*
X122844551Y-62707920D01*
X123038666Y-62868422D01*
X123166700Y-62928593D01*
X123280223Y-62981944D01*
X123639653Y-63023795D01*
X123647038Y-63027636D01*
X123650000Y-63035416D01*
X123650000Y-63214584D01*
X123647038Y-63222364D01*
X123639653Y-63226204D01*
X123561217Y-63235337D01*
X123280224Y-63268054D01*
X123038666Y-63381575D01*
X122844551Y-63542077D01*
X122844454Y-63542156D01*
X122617842Y-63725477D01*
X122616033Y-63726681D01*
X122286671Y-63904160D01*
X122280386Y-63905537D01*
X122274324Y-63903383D01*
X122270316Y-63898349D01*
X122198990Y-63726681D01*
X121950864Y-63129488D01*
X121949970Y-63125000D01*
X121950865Y-63120511D01*
X121989453Y-63027636D01*
X122270317Y-62351647D01*
X122274324Y-62346616D01*
X122280386Y-62344462D01*
X122286669Y-62345838D01*
G37*
G04 #@! TD.AperFunction*
G04 #@! TA.AperFunction,Conductor*
G36*
X124225640Y-62731034D02*
G01*
X124230975Y-62734472D01*
X124569155Y-63117253D01*
X124572087Y-63125000D01*
X124569155Y-63132747D01*
X124230975Y-63515527D01*
X124225640Y-63518965D01*
X124219295Y-63519112D01*
X124213807Y-63515924D01*
X124133087Y-63432671D01*
X124043563Y-63356503D01*
X123954041Y-63296503D01*
X123864519Y-63252668D01*
X123783245Y-63227548D01*
X123777284Y-63223315D01*
X123775000Y-63216370D01*
X123775000Y-63033630D01*
X123777284Y-63026685D01*
X123783245Y-63022452D01*
X123817165Y-63011966D01*
X123864521Y-62997330D01*
X123954042Y-62953495D01*
X124043564Y-62893495D01*
X124133085Y-62817330D01*
X124213809Y-62734073D01*
X124219295Y-62730887D01*
X124225640Y-62731034D01*
G37*
G04 #@! TD.AperFunction*
G04 #@! TA.AperFunction,Conductor*
G36*
X130708571Y-54645733D02*
G01*
X130866640Y-54815995D01*
X130869511Y-54821533D01*
X130869127Y-54827762D01*
X130865595Y-54832907D01*
X130859999Y-54837613D01*
X130845002Y-54853986D01*
X130830000Y-54874137D01*
X130814997Y-54898057D01*
X130803319Y-54919610D01*
X130799018Y-54924089D01*
X130793032Y-54925736D01*
X130606968Y-54925736D01*
X130600982Y-54924089D01*
X130596681Y-54919610D01*
X130585002Y-54898057D01*
X130585000Y-54898053D01*
X130570000Y-54874138D01*
X130566080Y-54868873D01*
X130554997Y-54853986D01*
X130545174Y-54843261D01*
X130540000Y-54837612D01*
X130534404Y-54832907D01*
X130530873Y-54827763D01*
X130530488Y-54821533D01*
X130533359Y-54815995D01*
X130691426Y-54645734D01*
X130696832Y-54642432D01*
X130703168Y-54642432D01*
X130708571Y-54645733D01*
G37*
G04 #@! TD.AperFunction*
G04 #@! TA.AperFunction,Conductor*
G36*
X138026246Y-59957667D02*
G01*
X138030587Y-59962791D01*
X138072112Y-60057860D01*
X138119212Y-60151768D01*
X138166326Y-60231777D01*
X138213436Y-60297852D01*
X138257527Y-60346659D01*
X138260545Y-60354502D01*
X138260545Y-60545498D01*
X138257527Y-60553341D01*
X138213436Y-60602146D01*
X138166326Y-60668221D01*
X138119213Y-60748230D01*
X138072112Y-60842139D01*
X138030587Y-60937208D01*
X138026246Y-60942332D01*
X138019803Y-60944225D01*
X138013381Y-60942264D01*
X137502523Y-60602146D01*
X137288625Y-60459737D01*
X137284034Y-60453767D01*
X137284034Y-60446233D01*
X137288625Y-60440262D01*
X138013382Y-59957734D01*
X138019803Y-59955774D01*
X138026246Y-59957667D01*
G37*
G04 #@! TD.AperFunction*
G04 #@! TA.AperFunction,Conductor*
G36*
X140784556Y-54571415D02*
G01*
X140942086Y-54635771D01*
X140947868Y-54640884D01*
X140949208Y-54648485D01*
X140903842Y-54926691D01*
X140900568Y-54933081D01*
X140894179Y-54936355D01*
X140866388Y-54940888D01*
X140830274Y-54951282D01*
X140794173Y-54966172D01*
X140758069Y-54985563D01*
X140729937Y-55004179D01*
X140722308Y-55006063D01*
X140715208Y-55002695D01*
X140587772Y-54875259D01*
X140584372Y-54867775D01*
X140586734Y-54859901D01*
X140619436Y-54816928D01*
X140658327Y-54761324D01*
X140697218Y-54701220D01*
X140736109Y-54636616D01*
X140769937Y-54576508D01*
X140776283Y-54571198D01*
X140784556Y-54571415D01*
G37*
G04 #@! TD.AperFunction*
G04 #@! TA.AperFunction,Conductor*
G36*
X139793297Y-54232344D02*
G01*
X139953056Y-54393016D01*
X139956419Y-54400297D01*
X139954304Y-54408032D01*
X139944998Y-54421159D01*
X139930003Y-54446807D01*
X139914995Y-54476980D01*
X139900004Y-54511615D01*
X139887879Y-54543271D01*
X139883583Y-54548726D01*
X139876953Y-54550786D01*
X139693047Y-54550786D01*
X139686417Y-54548726D01*
X139682121Y-54543271D01*
X139669995Y-54511615D01*
X139655004Y-54476980D01*
X139655000Y-54476971D01*
X139640000Y-54446814D01*
X139625000Y-54421157D01*
X139615694Y-54408032D01*
X139613580Y-54400297D01*
X139616941Y-54393018D01*
X139776703Y-54232343D01*
X139781961Y-54229296D01*
X139788039Y-54229296D01*
X139793297Y-54232344D01*
G37*
G04 #@! TD.AperFunction*
G04 #@! TA.AperFunction,Conductor*
G36*
X135745114Y-56307159D02*
G01*
X135870974Y-56369301D01*
X135872076Y-56369923D01*
X135967001Y-56430564D01*
X136050261Y-56479911D01*
X136151277Y-56512948D01*
X136289246Y-56524128D01*
X136296901Y-56527858D01*
X136300000Y-56535790D01*
X136300000Y-56714210D01*
X136296901Y-56722142D01*
X136289246Y-56725871D01*
X136194989Y-56733509D01*
X136151274Y-56737051D01*
X136050261Y-56770086D01*
X135967013Y-56819426D01*
X135872085Y-56880070D01*
X135870966Y-56880701D01*
X135745116Y-56942839D01*
X135738930Y-56944005D01*
X135733036Y-56941797D01*
X135729138Y-56936854D01*
X135659545Y-56770087D01*
X135600880Y-56629505D01*
X135599978Y-56624999D01*
X135600879Y-56620496D01*
X135729139Y-56313143D01*
X135733036Y-56308202D01*
X135738930Y-56305994D01*
X135745114Y-56307159D01*
G37*
G04 #@! TD.AperFunction*
G04 #@! TA.AperFunction,Conductor*
G36*
X140591979Y-69373409D02*
G01*
X140595623Y-69381251D01*
X140605000Y-69547169D01*
X140615000Y-69706127D01*
X140624999Y-69847084D01*
X140634999Y-69970042D01*
X140635003Y-69970091D01*
X140644315Y-70067815D01*
X140643164Y-70074095D01*
X140638887Y-70078835D01*
X140255897Y-70319162D01*
X140249739Y-70320952D01*
X140243563Y-70319227D01*
X140239224Y-70314505D01*
X140115268Y-70067815D01*
X139978100Y-69794831D01*
X139977366Y-69786160D01*
X139982821Y-69779380D01*
X140057469Y-69737417D01*
X140141852Y-69672236D01*
X140226234Y-69589308D01*
X140310617Y-69488633D01*
X140391501Y-69375121D01*
X140395669Y-69371512D01*
X140401029Y-69370212D01*
X140583943Y-69370212D01*
X140591979Y-69373409D01*
G37*
G04 #@! TD.AperFunction*
G04 #@! TA.AperFunction,Conductor*
G36*
X140543733Y-67893818D02*
G01*
X140548518Y-67897961D01*
X140550446Y-67903990D01*
X140551477Y-67933014D01*
X140559000Y-68144823D01*
X140568000Y-68386232D01*
X140577000Y-68615642D01*
X140586000Y-68833051D01*
X140588909Y-68899439D01*
X140594465Y-69026248D01*
X140593075Y-69032312D01*
X140588773Y-69036806D01*
X140582776Y-69038460D01*
X140401063Y-69038460D01*
X140395680Y-69037148D01*
X140391504Y-69033507D01*
X140341981Y-68963340D01*
X140288970Y-68899442D01*
X140288967Y-68899439D01*
X140235950Y-68846747D01*
X140182934Y-68805267D01*
X140182935Y-68805267D01*
X140182933Y-68805266D01*
X140136811Y-68778935D01*
X140132107Y-68773925D01*
X140131027Y-68767139D01*
X140152405Y-68615642D01*
X140248728Y-67933013D01*
X140252173Y-67926245D01*
X140259050Y-67923017D01*
X140537492Y-67892773D01*
X140543733Y-67893818D01*
G37*
G04 #@! TD.AperFunction*
G04 #@! TA.AperFunction,Conductor*
G36*
X137372247Y-62133007D02*
G01*
X137376032Y-62140535D01*
X137389558Y-62278925D01*
X137428608Y-62378380D01*
X137485253Y-62459520D01*
X137551944Y-62552620D01*
X137552835Y-62554078D01*
X137617555Y-62679789D01*
X137618820Y-62686019D01*
X137616640Y-62691991D01*
X137611659Y-62695942D01*
X137304506Y-62824119D01*
X137300000Y-62825021D01*
X137295494Y-62824119D01*
X136987975Y-62695790D01*
X136983067Y-62691939D01*
X136980835Y-62686113D01*
X136981914Y-62679972D01*
X137040801Y-62556118D01*
X137041219Y-62555321D01*
X137041933Y-62554078D01*
X137095655Y-62460494D01*
X137137972Y-62376847D01*
X137165302Y-62276197D01*
X137174275Y-62140898D01*
X137177954Y-62133131D01*
X137185949Y-62129973D01*
X137364387Y-62129973D01*
X137372247Y-62133007D01*
G37*
G04 #@! TD.AperFunction*
G04 #@! TA.AperFunction,Conductor*
G36*
X134679717Y-62131534D02*
G01*
X134683485Y-62139100D01*
X134696308Y-62277347D01*
X134733557Y-62377277D01*
X134787992Y-62459036D01*
X134852893Y-62552724D01*
X134853704Y-62554083D01*
X134917640Y-62679817D01*
X134918875Y-62686034D01*
X134916687Y-62691983D01*
X134911717Y-62695918D01*
X134604506Y-62824119D01*
X134600000Y-62825021D01*
X134595494Y-62824119D01*
X134288027Y-62695812D01*
X134283108Y-62691947D01*
X134280883Y-62686100D01*
X134281988Y-62679945D01*
X134341853Y-62555485D01*
X134342323Y-62554609D01*
X134398621Y-62459750D01*
X134443049Y-62376207D01*
X134472094Y-62275442D01*
X134481730Y-62139354D01*
X134485425Y-62131621D01*
X134493401Y-62128481D01*
X134671835Y-62128481D01*
X134679717Y-62131534D01*
G37*
G04 #@! TD.AperFunction*
G04 #@! TA.AperFunction,Conductor*
G36*
X131907716Y-52955291D02*
G01*
X131934999Y-52974000D01*
X131969999Y-52993500D01*
X132005000Y-53008500D01*
X132040000Y-53019000D01*
X132075000Y-53025000D01*
X132075000Y-53225000D01*
X132040000Y-53231000D01*
X132005000Y-53241500D01*
X131978554Y-53252833D01*
X131969999Y-53256500D01*
X131969996Y-53256501D01*
X131969995Y-53256502D01*
X131934992Y-53276004D01*
X131907716Y-53294707D01*
X131900240Y-53296726D01*
X131893141Y-53293632D01*
X131720734Y-53133573D01*
X131717432Y-53128168D01*
X131717432Y-53121832D01*
X131720735Y-53116426D01*
X131819214Y-53025000D01*
X131893142Y-52956366D01*
X131900241Y-52953273D01*
X131907716Y-52955291D01*
G37*
G04 #@! TD.AperFunction*
G04 #@! TA.AperFunction,Conductor*
G36*
X132779876Y-52822223D02*
G01*
X132918060Y-52973044D01*
X133118368Y-53191670D01*
X133121437Y-53199880D01*
X133117943Y-53207918D01*
X132758093Y-53561633D01*
X132750187Y-53564985D01*
X132742122Y-53562037D01*
X132650235Y-53480435D01*
X132550183Y-53406582D01*
X132550178Y-53406578D01*
X132496496Y-53375000D01*
X132450118Y-53347718D01*
X132350059Y-53303859D01*
X132250000Y-53275000D01*
X132250000Y-52975000D01*
X132354692Y-52973044D01*
X132459385Y-52956089D01*
X132564077Y-52924134D01*
X132668770Y-52877179D01*
X132765293Y-52820058D01*
X132772968Y-52818555D01*
X132779876Y-52822223D01*
G37*
G04 #@! TD.AperFunction*
G04 #@! TA.AperFunction,Conductor*
G36*
X143655285Y-54485489D02*
G01*
X143660365Y-54488847D01*
X143884160Y-54742255D01*
X143887090Y-54750000D01*
X143884160Y-54757745D01*
X143660365Y-55011152D01*
X143655285Y-55014510D01*
X143649205Y-55014860D01*
X143643774Y-55012108D01*
X143626440Y-54996524D01*
X143592040Y-54965597D01*
X143531530Y-54921397D01*
X143471021Y-54887400D01*
X143410508Y-54863599D01*
X143359134Y-54852053D01*
X143352565Y-54847948D01*
X143350000Y-54840638D01*
X143350000Y-54659362D01*
X143352565Y-54652052D01*
X143359134Y-54647947D01*
X143364241Y-54646799D01*
X143410510Y-54636399D01*
X143471020Y-54612599D01*
X143501275Y-54595599D01*
X143531530Y-54578601D01*
X143592040Y-54534401D01*
X143595498Y-54531291D01*
X143643776Y-54487889D01*
X143649205Y-54485139D01*
X143655285Y-54485489D01*
G37*
G04 #@! TD.AperFunction*
G04 #@! TA.AperFunction,Conductor*
G36*
X141826418Y-53053794D02*
G01*
X141963543Y-53134865D01*
X142098965Y-53214929D01*
X142104019Y-53221036D01*
X142104019Y-53228964D01*
X142098965Y-53235071D01*
X141826420Y-53396204D01*
X141820073Y-53397826D01*
X141813849Y-53395782D01*
X141785001Y-53376001D01*
X141785000Y-53376000D01*
X141750000Y-53356500D01*
X141714999Y-53341500D01*
X141679999Y-53331000D01*
X141654722Y-53326666D01*
X141647755Y-53322677D01*
X141645000Y-53315135D01*
X141645000Y-53134865D01*
X141647755Y-53127323D01*
X141654722Y-53123333D01*
X141679999Y-53119000D01*
X141714999Y-53108500D01*
X141750000Y-53093500D01*
X141785000Y-53074000D01*
X141813851Y-53054216D01*
X141820073Y-53052173D01*
X141826418Y-53053794D01*
G37*
G04 #@! TD.AperFunction*
G04 #@! TA.AperFunction,Conductor*
G36*
X139496418Y-51553794D02*
G01*
X139633543Y-51634865D01*
X139768965Y-51714929D01*
X139774019Y-51721036D01*
X139774019Y-51728964D01*
X139768965Y-51735071D01*
X139496420Y-51896204D01*
X139490073Y-51897826D01*
X139483849Y-51895782D01*
X139455001Y-51876001D01*
X139455000Y-51876000D01*
X139420000Y-51856500D01*
X139384999Y-51841500D01*
X139349999Y-51831000D01*
X139324722Y-51826666D01*
X139317755Y-51822677D01*
X139315000Y-51815135D01*
X139315000Y-51634865D01*
X139317755Y-51627323D01*
X139324722Y-51623333D01*
X139349999Y-51619000D01*
X139384999Y-51608500D01*
X139420000Y-51593500D01*
X139455000Y-51574000D01*
X139483851Y-51554216D01*
X139490073Y-51552173D01*
X139496418Y-51553794D01*
G37*
G04 #@! TD.AperFunction*
G04 #@! TA.AperFunction,Conductor*
G36*
X138345099Y-51424813D02*
G01*
X138402726Y-51479250D01*
X138468292Y-51530985D01*
X138468296Y-51530988D01*
X138533864Y-51572525D01*
X138533867Y-51572526D01*
X138533868Y-51572527D01*
X138599426Y-51603860D01*
X138599431Y-51603861D01*
X138599432Y-51603862D01*
X138656891Y-51622385D01*
X138662758Y-51626633D01*
X138665000Y-51633521D01*
X138665000Y-51813056D01*
X138663392Y-51818975D01*
X138659010Y-51823268D01*
X138653059Y-51824753D01*
X138594331Y-51823544D01*
X138594325Y-51823544D01*
X138523668Y-51832287D01*
X138452994Y-51851234D01*
X138382325Y-51880380D01*
X138319741Y-51915225D01*
X138312176Y-51916552D01*
X138305419Y-51912901D01*
X138081867Y-51668597D01*
X138078810Y-51660203D01*
X138082565Y-51652100D01*
X138329133Y-51424716D01*
X138337135Y-51421618D01*
X138345099Y-51424813D01*
G37*
G04 #@! TD.AperFunction*
M02*
