%TF.GenerationSoftware,KiCad,Pcbnew,7.0.1*%
%TF.CreationDate,2023-07-20T02:47:48+02:00*%
%TF.ProjectId,imu_9_axis,696d755f-395f-4617-9869-732e6b696361,rev?*%
%TF.SameCoordinates,Original*%
%TF.FileFunction,Drillmap*%
%TF.FilePolarity,Positive*%
%FSLAX45Y45*%
G04 Gerber Fmt 4.5, Leading zero omitted, Abs format (unit mm)*
G04 Created by KiCad (PCBNEW 7.0.1) date 2023-07-20 02:47:48*
%MOMM*%
%LPD*%
G01*
G04 APERTURE LIST*
%ADD10C,0.100000*%
%ADD11C,0.200000*%
%ADD12C,0.220000*%
G04 APERTURE END LIST*
D10*
X12256023Y-4402500D02*
X14933977Y-4402500D01*
X14933977Y-7472500D02*
X12256023Y-7472500D01*
X12060000Y-7276477D02*
X12060000Y-4598523D01*
X15130000Y-4598523D02*
X15130000Y-7276477D01*
X12060000Y-7276477D02*
G75*
G03*
X12256023Y-7472500I196020J-3D01*
G01*
X14933977Y-7472500D02*
G75*
G03*
X15130000Y-7276477I3J196020D01*
G01*
X12256023Y-4402500D02*
G75*
G03*
X12060000Y-4598523I-3J-196020D01*
G01*
X15130000Y-4598523D02*
G75*
G03*
X14933977Y-4402500I-196020J3D01*
G01*
D11*
D12*
X12150000Y-4492500D02*
X12370000Y-4712500D01*
X12370000Y-4492500D02*
X12150000Y-4712500D01*
X12150000Y-7162500D02*
X12370000Y-7382500D01*
X12370000Y-7162500D02*
X12150000Y-7382500D01*
X14135000Y-5870750D02*
X14355000Y-6090750D01*
X14355000Y-5870750D02*
X14135000Y-6090750D01*
X14820000Y-4492500D02*
X15040000Y-4712500D01*
X15040000Y-4492500D02*
X14820000Y-4712500D01*
X14820000Y-7162500D02*
X15040000Y-7382500D01*
X15040000Y-7162500D02*
X14820000Y-7382500D01*
D11*
X12302619Y-7790024D02*
X12302619Y-7590024D01*
X12302619Y-7590024D02*
X12350238Y-7590024D01*
X12350238Y-7590024D02*
X12378809Y-7599548D01*
X12378809Y-7599548D02*
X12397857Y-7618595D01*
X12397857Y-7618595D02*
X12407381Y-7637643D01*
X12407381Y-7637643D02*
X12416905Y-7675738D01*
X12416905Y-7675738D02*
X12416905Y-7704309D01*
X12416905Y-7704309D02*
X12407381Y-7742405D01*
X12407381Y-7742405D02*
X12397857Y-7761452D01*
X12397857Y-7761452D02*
X12378809Y-7780500D01*
X12378809Y-7780500D02*
X12350238Y-7790024D01*
X12350238Y-7790024D02*
X12302619Y-7790024D01*
X12502619Y-7790024D02*
X12502619Y-7656690D01*
X12502619Y-7694786D02*
X12512143Y-7675738D01*
X12512143Y-7675738D02*
X12521667Y-7666214D01*
X12521667Y-7666214D02*
X12540714Y-7656690D01*
X12540714Y-7656690D02*
X12559762Y-7656690D01*
X12626428Y-7790024D02*
X12626428Y-7656690D01*
X12626428Y-7590024D02*
X12616905Y-7599548D01*
X12616905Y-7599548D02*
X12626428Y-7609071D01*
X12626428Y-7609071D02*
X12635952Y-7599548D01*
X12635952Y-7599548D02*
X12626428Y-7590024D01*
X12626428Y-7590024D02*
X12626428Y-7609071D01*
X12750238Y-7790024D02*
X12731190Y-7780500D01*
X12731190Y-7780500D02*
X12721667Y-7761452D01*
X12721667Y-7761452D02*
X12721667Y-7590024D01*
X12855000Y-7790024D02*
X12835952Y-7780500D01*
X12835952Y-7780500D02*
X12826428Y-7761452D01*
X12826428Y-7761452D02*
X12826428Y-7590024D01*
X13083571Y-7790024D02*
X13083571Y-7590024D01*
X13083571Y-7590024D02*
X13150238Y-7732881D01*
X13150238Y-7732881D02*
X13216905Y-7590024D01*
X13216905Y-7590024D02*
X13216905Y-7790024D01*
X13397857Y-7790024D02*
X13397857Y-7685262D01*
X13397857Y-7685262D02*
X13388333Y-7666214D01*
X13388333Y-7666214D02*
X13369286Y-7656690D01*
X13369286Y-7656690D02*
X13331190Y-7656690D01*
X13331190Y-7656690D02*
X13312143Y-7666214D01*
X13397857Y-7780500D02*
X13378809Y-7790024D01*
X13378809Y-7790024D02*
X13331190Y-7790024D01*
X13331190Y-7790024D02*
X13312143Y-7780500D01*
X13312143Y-7780500D02*
X13302619Y-7761452D01*
X13302619Y-7761452D02*
X13302619Y-7742405D01*
X13302619Y-7742405D02*
X13312143Y-7723357D01*
X13312143Y-7723357D02*
X13331190Y-7713833D01*
X13331190Y-7713833D02*
X13378809Y-7713833D01*
X13378809Y-7713833D02*
X13397857Y-7704309D01*
X13493095Y-7656690D02*
X13493095Y-7856690D01*
X13493095Y-7666214D02*
X13512143Y-7656690D01*
X13512143Y-7656690D02*
X13550238Y-7656690D01*
X13550238Y-7656690D02*
X13569286Y-7666214D01*
X13569286Y-7666214D02*
X13578809Y-7675738D01*
X13578809Y-7675738D02*
X13588333Y-7694786D01*
X13588333Y-7694786D02*
X13588333Y-7751928D01*
X13588333Y-7751928D02*
X13578809Y-7770976D01*
X13578809Y-7770976D02*
X13569286Y-7780500D01*
X13569286Y-7780500D02*
X13550238Y-7790024D01*
X13550238Y-7790024D02*
X13512143Y-7790024D01*
X13512143Y-7790024D02*
X13493095Y-7780500D01*
X13674048Y-7770976D02*
X13683571Y-7780500D01*
X13683571Y-7780500D02*
X13674048Y-7790024D01*
X13674048Y-7790024D02*
X13664524Y-7780500D01*
X13664524Y-7780500D02*
X13674048Y-7770976D01*
X13674048Y-7770976D02*
X13674048Y-7790024D01*
X13674048Y-7666214D02*
X13683571Y-7675738D01*
X13683571Y-7675738D02*
X13674048Y-7685262D01*
X13674048Y-7685262D02*
X13664524Y-7675738D01*
X13664524Y-7675738D02*
X13674048Y-7666214D01*
X13674048Y-7666214D02*
X13674048Y-7685262D01*
X11855000Y-8017500D02*
X12055000Y-8217500D01*
X12055000Y-8017500D02*
X11855000Y-8217500D01*
X12293095Y-8029071D02*
X12302619Y-8019548D01*
X12302619Y-8019548D02*
X12321667Y-8010024D01*
X12321667Y-8010024D02*
X12369286Y-8010024D01*
X12369286Y-8010024D02*
X12388333Y-8019548D01*
X12388333Y-8019548D02*
X12397857Y-8029071D01*
X12397857Y-8029071D02*
X12407381Y-8048119D01*
X12407381Y-8048119D02*
X12407381Y-8067167D01*
X12407381Y-8067167D02*
X12397857Y-8095738D01*
X12397857Y-8095738D02*
X12283571Y-8210024D01*
X12283571Y-8210024D02*
X12407381Y-8210024D01*
X12493095Y-8190976D02*
X12502619Y-8200500D01*
X12502619Y-8200500D02*
X12493095Y-8210024D01*
X12493095Y-8210024D02*
X12483571Y-8200500D01*
X12483571Y-8200500D02*
X12493095Y-8190976D01*
X12493095Y-8190976D02*
X12493095Y-8210024D01*
X12578809Y-8029071D02*
X12588333Y-8019548D01*
X12588333Y-8019548D02*
X12607381Y-8010024D01*
X12607381Y-8010024D02*
X12655000Y-8010024D01*
X12655000Y-8010024D02*
X12674048Y-8019548D01*
X12674048Y-8019548D02*
X12683571Y-8029071D01*
X12683571Y-8029071D02*
X12693095Y-8048119D01*
X12693095Y-8048119D02*
X12693095Y-8067167D01*
X12693095Y-8067167D02*
X12683571Y-8095738D01*
X12683571Y-8095738D02*
X12569286Y-8210024D01*
X12569286Y-8210024D02*
X12693095Y-8210024D01*
X12816905Y-8010024D02*
X12835952Y-8010024D01*
X12835952Y-8010024D02*
X12855000Y-8019548D01*
X12855000Y-8019548D02*
X12864524Y-8029071D01*
X12864524Y-8029071D02*
X12874048Y-8048119D01*
X12874048Y-8048119D02*
X12883571Y-8086214D01*
X12883571Y-8086214D02*
X12883571Y-8133833D01*
X12883571Y-8133833D02*
X12874048Y-8171928D01*
X12874048Y-8171928D02*
X12864524Y-8190976D01*
X12864524Y-8190976D02*
X12855000Y-8200500D01*
X12855000Y-8200500D02*
X12835952Y-8210024D01*
X12835952Y-8210024D02*
X12816905Y-8210024D01*
X12816905Y-8210024D02*
X12797857Y-8200500D01*
X12797857Y-8200500D02*
X12788333Y-8190976D01*
X12788333Y-8190976D02*
X12778809Y-8171928D01*
X12778809Y-8171928D02*
X12769286Y-8133833D01*
X12769286Y-8133833D02*
X12769286Y-8086214D01*
X12769286Y-8086214D02*
X12778809Y-8048119D01*
X12778809Y-8048119D02*
X12788333Y-8029071D01*
X12788333Y-8029071D02*
X12797857Y-8019548D01*
X12797857Y-8019548D02*
X12816905Y-8010024D01*
X13007381Y-8010024D02*
X13026429Y-8010024D01*
X13026429Y-8010024D02*
X13045476Y-8019548D01*
X13045476Y-8019548D02*
X13055000Y-8029071D01*
X13055000Y-8029071D02*
X13064524Y-8048119D01*
X13064524Y-8048119D02*
X13074048Y-8086214D01*
X13074048Y-8086214D02*
X13074048Y-8133833D01*
X13074048Y-8133833D02*
X13064524Y-8171928D01*
X13064524Y-8171928D02*
X13055000Y-8190976D01*
X13055000Y-8190976D02*
X13045476Y-8200500D01*
X13045476Y-8200500D02*
X13026429Y-8210024D01*
X13026429Y-8210024D02*
X13007381Y-8210024D01*
X13007381Y-8210024D02*
X12988333Y-8200500D01*
X12988333Y-8200500D02*
X12978809Y-8190976D01*
X12978809Y-8190976D02*
X12969286Y-8171928D01*
X12969286Y-8171928D02*
X12959762Y-8133833D01*
X12959762Y-8133833D02*
X12959762Y-8086214D01*
X12959762Y-8086214D02*
X12969286Y-8048119D01*
X12969286Y-8048119D02*
X12978809Y-8029071D01*
X12978809Y-8029071D02*
X12988333Y-8019548D01*
X12988333Y-8019548D02*
X13007381Y-8010024D01*
X13159762Y-8210024D02*
X13159762Y-8076690D01*
X13159762Y-8095738D02*
X13169286Y-8086214D01*
X13169286Y-8086214D02*
X13188333Y-8076690D01*
X13188333Y-8076690D02*
X13216905Y-8076690D01*
X13216905Y-8076690D02*
X13235952Y-8086214D01*
X13235952Y-8086214D02*
X13245476Y-8105262D01*
X13245476Y-8105262D02*
X13245476Y-8210024D01*
X13245476Y-8105262D02*
X13255000Y-8086214D01*
X13255000Y-8086214D02*
X13274048Y-8076690D01*
X13274048Y-8076690D02*
X13302619Y-8076690D01*
X13302619Y-8076690D02*
X13321667Y-8086214D01*
X13321667Y-8086214D02*
X13331190Y-8105262D01*
X13331190Y-8105262D02*
X13331190Y-8210024D01*
X13426429Y-8210024D02*
X13426429Y-8076690D01*
X13426429Y-8095738D02*
X13435952Y-8086214D01*
X13435952Y-8086214D02*
X13455000Y-8076690D01*
X13455000Y-8076690D02*
X13483571Y-8076690D01*
X13483571Y-8076690D02*
X13502619Y-8086214D01*
X13502619Y-8086214D02*
X13512143Y-8105262D01*
X13512143Y-8105262D02*
X13512143Y-8210024D01*
X13512143Y-8105262D02*
X13521667Y-8086214D01*
X13521667Y-8086214D02*
X13540714Y-8076690D01*
X13540714Y-8076690D02*
X13569286Y-8076690D01*
X13569286Y-8076690D02*
X13588333Y-8086214D01*
X13588333Y-8086214D02*
X13597857Y-8105262D01*
X13597857Y-8105262D02*
X13597857Y-8210024D01*
X13988333Y-8000500D02*
X13816905Y-8257643D01*
X14245476Y-8010024D02*
X14264524Y-8010024D01*
X14264524Y-8010024D02*
X14283572Y-8019548D01*
X14283572Y-8019548D02*
X14293095Y-8029071D01*
X14293095Y-8029071D02*
X14302619Y-8048119D01*
X14302619Y-8048119D02*
X14312143Y-8086214D01*
X14312143Y-8086214D02*
X14312143Y-8133833D01*
X14312143Y-8133833D02*
X14302619Y-8171928D01*
X14302619Y-8171928D02*
X14293095Y-8190976D01*
X14293095Y-8190976D02*
X14283572Y-8200500D01*
X14283572Y-8200500D02*
X14264524Y-8210024D01*
X14264524Y-8210024D02*
X14245476Y-8210024D01*
X14245476Y-8210024D02*
X14226429Y-8200500D01*
X14226429Y-8200500D02*
X14216905Y-8190976D01*
X14216905Y-8190976D02*
X14207381Y-8171928D01*
X14207381Y-8171928D02*
X14197857Y-8133833D01*
X14197857Y-8133833D02*
X14197857Y-8086214D01*
X14197857Y-8086214D02*
X14207381Y-8048119D01*
X14207381Y-8048119D02*
X14216905Y-8029071D01*
X14216905Y-8029071D02*
X14226429Y-8019548D01*
X14226429Y-8019548D02*
X14245476Y-8010024D01*
X14397857Y-8190976D02*
X14407381Y-8200500D01*
X14407381Y-8200500D02*
X14397857Y-8210024D01*
X14397857Y-8210024D02*
X14388333Y-8200500D01*
X14388333Y-8200500D02*
X14397857Y-8190976D01*
X14397857Y-8190976D02*
X14397857Y-8210024D01*
X14531191Y-8010024D02*
X14550238Y-8010024D01*
X14550238Y-8010024D02*
X14569286Y-8019548D01*
X14569286Y-8019548D02*
X14578810Y-8029071D01*
X14578810Y-8029071D02*
X14588333Y-8048119D01*
X14588333Y-8048119D02*
X14597857Y-8086214D01*
X14597857Y-8086214D02*
X14597857Y-8133833D01*
X14597857Y-8133833D02*
X14588333Y-8171928D01*
X14588333Y-8171928D02*
X14578810Y-8190976D01*
X14578810Y-8190976D02*
X14569286Y-8200500D01*
X14569286Y-8200500D02*
X14550238Y-8210024D01*
X14550238Y-8210024D02*
X14531191Y-8210024D01*
X14531191Y-8210024D02*
X14512143Y-8200500D01*
X14512143Y-8200500D02*
X14502619Y-8190976D01*
X14502619Y-8190976D02*
X14493095Y-8171928D01*
X14493095Y-8171928D02*
X14483572Y-8133833D01*
X14483572Y-8133833D02*
X14483572Y-8086214D01*
X14483572Y-8086214D02*
X14493095Y-8048119D01*
X14493095Y-8048119D02*
X14502619Y-8029071D01*
X14502619Y-8029071D02*
X14512143Y-8019548D01*
X14512143Y-8019548D02*
X14531191Y-8010024D01*
X14712143Y-8095738D02*
X14693095Y-8086214D01*
X14693095Y-8086214D02*
X14683572Y-8076690D01*
X14683572Y-8076690D02*
X14674048Y-8057643D01*
X14674048Y-8057643D02*
X14674048Y-8048119D01*
X14674048Y-8048119D02*
X14683572Y-8029071D01*
X14683572Y-8029071D02*
X14693095Y-8019548D01*
X14693095Y-8019548D02*
X14712143Y-8010024D01*
X14712143Y-8010024D02*
X14750238Y-8010024D01*
X14750238Y-8010024D02*
X14769286Y-8019548D01*
X14769286Y-8019548D02*
X14778810Y-8029071D01*
X14778810Y-8029071D02*
X14788333Y-8048119D01*
X14788333Y-8048119D02*
X14788333Y-8057643D01*
X14788333Y-8057643D02*
X14778810Y-8076690D01*
X14778810Y-8076690D02*
X14769286Y-8086214D01*
X14769286Y-8086214D02*
X14750238Y-8095738D01*
X14750238Y-8095738D02*
X14712143Y-8095738D01*
X14712143Y-8095738D02*
X14693095Y-8105262D01*
X14693095Y-8105262D02*
X14683572Y-8114786D01*
X14683572Y-8114786D02*
X14674048Y-8133833D01*
X14674048Y-8133833D02*
X14674048Y-8171928D01*
X14674048Y-8171928D02*
X14683572Y-8190976D01*
X14683572Y-8190976D02*
X14693095Y-8200500D01*
X14693095Y-8200500D02*
X14712143Y-8210024D01*
X14712143Y-8210024D02*
X14750238Y-8210024D01*
X14750238Y-8210024D02*
X14769286Y-8200500D01*
X14769286Y-8200500D02*
X14778810Y-8190976D01*
X14778810Y-8190976D02*
X14788333Y-8171928D01*
X14788333Y-8171928D02*
X14788333Y-8133833D01*
X14788333Y-8133833D02*
X14778810Y-8114786D01*
X14778810Y-8114786D02*
X14769286Y-8105262D01*
X14769286Y-8105262D02*
X14750238Y-8095738D01*
X14959762Y-8010024D02*
X14921667Y-8010024D01*
X14921667Y-8010024D02*
X14902619Y-8019548D01*
X14902619Y-8019548D02*
X14893095Y-8029071D01*
X14893095Y-8029071D02*
X14874048Y-8057643D01*
X14874048Y-8057643D02*
X14864524Y-8095738D01*
X14864524Y-8095738D02*
X14864524Y-8171928D01*
X14864524Y-8171928D02*
X14874048Y-8190976D01*
X14874048Y-8190976D02*
X14883572Y-8200500D01*
X14883572Y-8200500D02*
X14902619Y-8210024D01*
X14902619Y-8210024D02*
X14940714Y-8210024D01*
X14940714Y-8210024D02*
X14959762Y-8200500D01*
X14959762Y-8200500D02*
X14969286Y-8190976D01*
X14969286Y-8190976D02*
X14978810Y-8171928D01*
X14978810Y-8171928D02*
X14978810Y-8124309D01*
X14978810Y-8124309D02*
X14969286Y-8105262D01*
X14969286Y-8105262D02*
X14959762Y-8095738D01*
X14959762Y-8095738D02*
X14940714Y-8086214D01*
X14940714Y-8086214D02*
X14902619Y-8086214D01*
X14902619Y-8086214D02*
X14883572Y-8095738D01*
X14883572Y-8095738D02*
X14874048Y-8105262D01*
X14874048Y-8105262D02*
X14864524Y-8124309D01*
X15150238Y-8010024D02*
X15112143Y-8010024D01*
X15112143Y-8010024D02*
X15093095Y-8019548D01*
X15093095Y-8019548D02*
X15083572Y-8029071D01*
X15083572Y-8029071D02*
X15064524Y-8057643D01*
X15064524Y-8057643D02*
X15055000Y-8095738D01*
X15055000Y-8095738D02*
X15055000Y-8171928D01*
X15055000Y-8171928D02*
X15064524Y-8190976D01*
X15064524Y-8190976D02*
X15074048Y-8200500D01*
X15074048Y-8200500D02*
X15093095Y-8210024D01*
X15093095Y-8210024D02*
X15131191Y-8210024D01*
X15131191Y-8210024D02*
X15150238Y-8200500D01*
X15150238Y-8200500D02*
X15159762Y-8190976D01*
X15159762Y-8190976D02*
X15169286Y-8171928D01*
X15169286Y-8171928D02*
X15169286Y-8124309D01*
X15169286Y-8124309D02*
X15159762Y-8105262D01*
X15159762Y-8105262D02*
X15150238Y-8095738D01*
X15150238Y-8095738D02*
X15131191Y-8086214D01*
X15131191Y-8086214D02*
X15093095Y-8086214D01*
X15093095Y-8086214D02*
X15074048Y-8095738D01*
X15074048Y-8095738D02*
X15064524Y-8105262D01*
X15064524Y-8105262D02*
X15055000Y-8124309D01*
X15245476Y-8010024D02*
X15245476Y-8048119D01*
X15321667Y-8010024D02*
X15321667Y-8048119D01*
X15616905Y-8286214D02*
X15607381Y-8276690D01*
X15607381Y-8276690D02*
X15588334Y-8248119D01*
X15588334Y-8248119D02*
X15578810Y-8229071D01*
X15578810Y-8229071D02*
X15569286Y-8200500D01*
X15569286Y-8200500D02*
X15559762Y-8152881D01*
X15559762Y-8152881D02*
X15559762Y-8114786D01*
X15559762Y-8114786D02*
X15569286Y-8067167D01*
X15569286Y-8067167D02*
X15578810Y-8038595D01*
X15578810Y-8038595D02*
X15588334Y-8019548D01*
X15588334Y-8019548D02*
X15607381Y-7990976D01*
X15607381Y-7990976D02*
X15616905Y-7981452D01*
X15788334Y-8010024D02*
X15693095Y-8010024D01*
X15693095Y-8010024D02*
X15683572Y-8105262D01*
X15683572Y-8105262D02*
X15693095Y-8095738D01*
X15693095Y-8095738D02*
X15712143Y-8086214D01*
X15712143Y-8086214D02*
X15759762Y-8086214D01*
X15759762Y-8086214D02*
X15778810Y-8095738D01*
X15778810Y-8095738D02*
X15788334Y-8105262D01*
X15788334Y-8105262D02*
X15797857Y-8124309D01*
X15797857Y-8124309D02*
X15797857Y-8171928D01*
X15797857Y-8171928D02*
X15788334Y-8190976D01*
X15788334Y-8190976D02*
X15778810Y-8200500D01*
X15778810Y-8200500D02*
X15759762Y-8210024D01*
X15759762Y-8210024D02*
X15712143Y-8210024D01*
X15712143Y-8210024D02*
X15693095Y-8200500D01*
X15693095Y-8200500D02*
X15683572Y-8190976D01*
X16035953Y-8210024D02*
X16035953Y-8010024D01*
X16121667Y-8210024D02*
X16121667Y-8105262D01*
X16121667Y-8105262D02*
X16112143Y-8086214D01*
X16112143Y-8086214D02*
X16093096Y-8076690D01*
X16093096Y-8076690D02*
X16064524Y-8076690D01*
X16064524Y-8076690D02*
X16045476Y-8086214D01*
X16045476Y-8086214D02*
X16035953Y-8095738D01*
X16245476Y-8210024D02*
X16226429Y-8200500D01*
X16226429Y-8200500D02*
X16216905Y-8190976D01*
X16216905Y-8190976D02*
X16207381Y-8171928D01*
X16207381Y-8171928D02*
X16207381Y-8114786D01*
X16207381Y-8114786D02*
X16216905Y-8095738D01*
X16216905Y-8095738D02*
X16226429Y-8086214D01*
X16226429Y-8086214D02*
X16245476Y-8076690D01*
X16245476Y-8076690D02*
X16274048Y-8076690D01*
X16274048Y-8076690D02*
X16293096Y-8086214D01*
X16293096Y-8086214D02*
X16302619Y-8095738D01*
X16302619Y-8095738D02*
X16312143Y-8114786D01*
X16312143Y-8114786D02*
X16312143Y-8171928D01*
X16312143Y-8171928D02*
X16302619Y-8190976D01*
X16302619Y-8190976D02*
X16293096Y-8200500D01*
X16293096Y-8200500D02*
X16274048Y-8210024D01*
X16274048Y-8210024D02*
X16245476Y-8210024D01*
X16426429Y-8210024D02*
X16407381Y-8200500D01*
X16407381Y-8200500D02*
X16397857Y-8181452D01*
X16397857Y-8181452D02*
X16397857Y-8010024D01*
X16578810Y-8200500D02*
X16559762Y-8210024D01*
X16559762Y-8210024D02*
X16521667Y-8210024D01*
X16521667Y-8210024D02*
X16502619Y-8200500D01*
X16502619Y-8200500D02*
X16493096Y-8181452D01*
X16493096Y-8181452D02*
X16493096Y-8105262D01*
X16493096Y-8105262D02*
X16502619Y-8086214D01*
X16502619Y-8086214D02*
X16521667Y-8076690D01*
X16521667Y-8076690D02*
X16559762Y-8076690D01*
X16559762Y-8076690D02*
X16578810Y-8086214D01*
X16578810Y-8086214D02*
X16588334Y-8105262D01*
X16588334Y-8105262D02*
X16588334Y-8124309D01*
X16588334Y-8124309D02*
X16493096Y-8143357D01*
X16664524Y-8200500D02*
X16683572Y-8210024D01*
X16683572Y-8210024D02*
X16721667Y-8210024D01*
X16721667Y-8210024D02*
X16740715Y-8200500D01*
X16740715Y-8200500D02*
X16750238Y-8181452D01*
X16750238Y-8181452D02*
X16750238Y-8171928D01*
X16750238Y-8171928D02*
X16740715Y-8152881D01*
X16740715Y-8152881D02*
X16721667Y-8143357D01*
X16721667Y-8143357D02*
X16693096Y-8143357D01*
X16693096Y-8143357D02*
X16674048Y-8133833D01*
X16674048Y-8133833D02*
X16664524Y-8114786D01*
X16664524Y-8114786D02*
X16664524Y-8105262D01*
X16664524Y-8105262D02*
X16674048Y-8086214D01*
X16674048Y-8086214D02*
X16693096Y-8076690D01*
X16693096Y-8076690D02*
X16721667Y-8076690D01*
X16721667Y-8076690D02*
X16740715Y-8086214D01*
X16816905Y-8286214D02*
X16826429Y-8276690D01*
X16826429Y-8276690D02*
X16845477Y-8248119D01*
X16845477Y-8248119D02*
X16855000Y-8229071D01*
X16855000Y-8229071D02*
X16864524Y-8200500D01*
X16864524Y-8200500D02*
X16874048Y-8152881D01*
X16874048Y-8152881D02*
X16874048Y-8114786D01*
X16874048Y-8114786D02*
X16864524Y-8067167D01*
X16864524Y-8067167D02*
X16855000Y-8038595D01*
X16855000Y-8038595D02*
X16845477Y-8019548D01*
X16845477Y-8019548D02*
X16826429Y-7990976D01*
X16826429Y-7990976D02*
X16816905Y-7981452D01*
X17178810Y-8286214D02*
X17169286Y-8276690D01*
X17169286Y-8276690D02*
X17150239Y-8248119D01*
X17150239Y-8248119D02*
X17140715Y-8229071D01*
X17140715Y-8229071D02*
X17131191Y-8200500D01*
X17131191Y-8200500D02*
X17121667Y-8152881D01*
X17121667Y-8152881D02*
X17121667Y-8114786D01*
X17121667Y-8114786D02*
X17131191Y-8067167D01*
X17131191Y-8067167D02*
X17140715Y-8038595D01*
X17140715Y-8038595D02*
X17150239Y-8019548D01*
X17150239Y-8019548D02*
X17169286Y-7990976D01*
X17169286Y-7990976D02*
X17178810Y-7981452D01*
X17255000Y-8076690D02*
X17255000Y-8210024D01*
X17255000Y-8095738D02*
X17264524Y-8086214D01*
X17264524Y-8086214D02*
X17283572Y-8076690D01*
X17283572Y-8076690D02*
X17312143Y-8076690D01*
X17312143Y-8076690D02*
X17331191Y-8086214D01*
X17331191Y-8086214D02*
X17340715Y-8105262D01*
X17340715Y-8105262D02*
X17340715Y-8210024D01*
X17464524Y-8210024D02*
X17445477Y-8200500D01*
X17445477Y-8200500D02*
X17435953Y-8190976D01*
X17435953Y-8190976D02*
X17426429Y-8171928D01*
X17426429Y-8171928D02*
X17426429Y-8114786D01*
X17426429Y-8114786D02*
X17435953Y-8095738D01*
X17435953Y-8095738D02*
X17445477Y-8086214D01*
X17445477Y-8086214D02*
X17464524Y-8076690D01*
X17464524Y-8076690D02*
X17493096Y-8076690D01*
X17493096Y-8076690D02*
X17512143Y-8086214D01*
X17512143Y-8086214D02*
X17521667Y-8095738D01*
X17521667Y-8095738D02*
X17531191Y-8114786D01*
X17531191Y-8114786D02*
X17531191Y-8171928D01*
X17531191Y-8171928D02*
X17521667Y-8190976D01*
X17521667Y-8190976D02*
X17512143Y-8200500D01*
X17512143Y-8200500D02*
X17493096Y-8210024D01*
X17493096Y-8210024D02*
X17464524Y-8210024D01*
X17588334Y-8076690D02*
X17664524Y-8076690D01*
X17616905Y-8010024D02*
X17616905Y-8181452D01*
X17616905Y-8181452D02*
X17626429Y-8200500D01*
X17626429Y-8200500D02*
X17645477Y-8210024D01*
X17645477Y-8210024D02*
X17664524Y-8210024D01*
X17883572Y-8076690D02*
X17883572Y-8276690D01*
X17883572Y-8086214D02*
X17902620Y-8076690D01*
X17902620Y-8076690D02*
X17940715Y-8076690D01*
X17940715Y-8076690D02*
X17959762Y-8086214D01*
X17959762Y-8086214D02*
X17969286Y-8095738D01*
X17969286Y-8095738D02*
X17978810Y-8114786D01*
X17978810Y-8114786D02*
X17978810Y-8171928D01*
X17978810Y-8171928D02*
X17969286Y-8190976D01*
X17969286Y-8190976D02*
X17959762Y-8200500D01*
X17959762Y-8200500D02*
X17940715Y-8210024D01*
X17940715Y-8210024D02*
X17902620Y-8210024D01*
X17902620Y-8210024D02*
X17883572Y-8200500D01*
X18093096Y-8210024D02*
X18074048Y-8200500D01*
X18074048Y-8200500D02*
X18064524Y-8181452D01*
X18064524Y-8181452D02*
X18064524Y-8010024D01*
X18255001Y-8210024D02*
X18255001Y-8105262D01*
X18255001Y-8105262D02*
X18245477Y-8086214D01*
X18245477Y-8086214D02*
X18226429Y-8076690D01*
X18226429Y-8076690D02*
X18188334Y-8076690D01*
X18188334Y-8076690D02*
X18169286Y-8086214D01*
X18255001Y-8200500D02*
X18235953Y-8210024D01*
X18235953Y-8210024D02*
X18188334Y-8210024D01*
X18188334Y-8210024D02*
X18169286Y-8200500D01*
X18169286Y-8200500D02*
X18159762Y-8181452D01*
X18159762Y-8181452D02*
X18159762Y-8162405D01*
X18159762Y-8162405D02*
X18169286Y-8143357D01*
X18169286Y-8143357D02*
X18188334Y-8133833D01*
X18188334Y-8133833D02*
X18235953Y-8133833D01*
X18235953Y-8133833D02*
X18255001Y-8124309D01*
X18321667Y-8076690D02*
X18397858Y-8076690D01*
X18350239Y-8010024D02*
X18350239Y-8181452D01*
X18350239Y-8181452D02*
X18359762Y-8200500D01*
X18359762Y-8200500D02*
X18378810Y-8210024D01*
X18378810Y-8210024D02*
X18397858Y-8210024D01*
X18540715Y-8200500D02*
X18521667Y-8210024D01*
X18521667Y-8210024D02*
X18483572Y-8210024D01*
X18483572Y-8210024D02*
X18464524Y-8200500D01*
X18464524Y-8200500D02*
X18455001Y-8181452D01*
X18455001Y-8181452D02*
X18455001Y-8105262D01*
X18455001Y-8105262D02*
X18464524Y-8086214D01*
X18464524Y-8086214D02*
X18483572Y-8076690D01*
X18483572Y-8076690D02*
X18521667Y-8076690D01*
X18521667Y-8076690D02*
X18540715Y-8086214D01*
X18540715Y-8086214D02*
X18550239Y-8105262D01*
X18550239Y-8105262D02*
X18550239Y-8124309D01*
X18550239Y-8124309D02*
X18455001Y-8143357D01*
X18721667Y-8210024D02*
X18721667Y-8010024D01*
X18721667Y-8200500D02*
X18702620Y-8210024D01*
X18702620Y-8210024D02*
X18664524Y-8210024D01*
X18664524Y-8210024D02*
X18645477Y-8200500D01*
X18645477Y-8200500D02*
X18635953Y-8190976D01*
X18635953Y-8190976D02*
X18626429Y-8171928D01*
X18626429Y-8171928D02*
X18626429Y-8114786D01*
X18626429Y-8114786D02*
X18635953Y-8095738D01*
X18635953Y-8095738D02*
X18645477Y-8086214D01*
X18645477Y-8086214D02*
X18664524Y-8076690D01*
X18664524Y-8076690D02*
X18702620Y-8076690D01*
X18702620Y-8076690D02*
X18721667Y-8086214D01*
X18797858Y-8286214D02*
X18807382Y-8276690D01*
X18807382Y-8276690D02*
X18826429Y-8248119D01*
X18826429Y-8248119D02*
X18835953Y-8229071D01*
X18835953Y-8229071D02*
X18845477Y-8200500D01*
X18845477Y-8200500D02*
X18855001Y-8152881D01*
X18855001Y-8152881D02*
X18855001Y-8114786D01*
X18855001Y-8114786D02*
X18845477Y-8067167D01*
X18845477Y-8067167D02*
X18835953Y-8038595D01*
X18835953Y-8038595D02*
X18826429Y-8019548D01*
X18826429Y-8019548D02*
X18807382Y-7990976D01*
X18807382Y-7990976D02*
X18797858Y-7981452D01*
M02*
