%TF.GenerationSoftware,KiCad,Pcbnew,8.0.4*%
%TF.CreationDate,2024-08-03T01:45:34+02:00*%
%TF.ProjectId,terminal_block,7465726d-696e-4616-9c5f-626c6f636b2e,1*%
%TF.SameCoordinates,Original*%
%TF.FileFunction,Legend,Bot*%
%TF.FilePolarity,Positive*%
%FSLAX46Y46*%
G04 Gerber Fmt 4.6, Leading zero omitted, Abs format (unit mm)*
G04 Created by KiCad (PCBNEW 8.0.4) date 2024-08-03 01:45:34*
%MOMM*%
%LPD*%
G01*
G04 APERTURE LIST*
%ADD10C,0.150000*%
%ADD11C,0.400000*%
G04 APERTURE END LIST*
D10*
X199377081Y-118525472D02*
X121277081Y-118525472D01*
X121277081Y-52225472D02*
X199177081Y-52225472D01*
X199127081Y-69725472D02*
X121227081Y-69725472D01*
X199277081Y-101525472D02*
X121277081Y-101525472D01*
X121277081Y-136425472D02*
X121277081Y-118525472D01*
X121277081Y-101525472D02*
X121227081Y-69725472D01*
X199177081Y-52225472D02*
X199127081Y-69725472D01*
X199127081Y-69725472D02*
X199277081Y-101525472D01*
X121227081Y-69725472D02*
X121277081Y-52225472D01*
X199277081Y-136525472D02*
X121277081Y-136425472D01*
X199377081Y-118525472D02*
X199277081Y-136525472D01*
X121277081Y-118525472D02*
X121277081Y-101525472D01*
X199277081Y-101525472D02*
X199377081Y-118525472D01*
D11*
X162032971Y-96750386D02*
X161937733Y-96655148D01*
X161937733Y-96655148D02*
X161747257Y-96559910D01*
X161747257Y-96559910D02*
X161271066Y-96559910D01*
X161271066Y-96559910D02*
X161080590Y-96655148D01*
X161080590Y-96655148D02*
X160985352Y-96750386D01*
X160985352Y-96750386D02*
X160890114Y-96940862D01*
X160890114Y-96940862D02*
X160890114Y-97131338D01*
X160890114Y-97131338D02*
X160985352Y-97417052D01*
X160985352Y-97417052D02*
X162128209Y-98559910D01*
X162128209Y-98559910D02*
X160890114Y-98559910D01*
X159175828Y-97226576D02*
X159175828Y-98559910D01*
X159652019Y-96464672D02*
X160128209Y-97893243D01*
X160128209Y-97893243D02*
X158890114Y-97893243D01*
X158413923Y-96559910D02*
X157747257Y-98559910D01*
X157747257Y-98559910D02*
X157080590Y-96559910D01*
X161585352Y-126559910D02*
X162537733Y-126559910D01*
X162537733Y-126559910D02*
X162632971Y-127512291D01*
X162632971Y-127512291D02*
X162537733Y-127417052D01*
X162537733Y-127417052D02*
X162347257Y-127321814D01*
X162347257Y-127321814D02*
X161871066Y-127321814D01*
X161871066Y-127321814D02*
X161680590Y-127417052D01*
X161680590Y-127417052D02*
X161585352Y-127512291D01*
X161585352Y-127512291D02*
X161490114Y-127702767D01*
X161490114Y-127702767D02*
X161490114Y-128178957D01*
X161490114Y-128178957D02*
X161585352Y-128369433D01*
X161585352Y-128369433D02*
X161680590Y-128464672D01*
X161680590Y-128464672D02*
X161871066Y-128559910D01*
X161871066Y-128559910D02*
X162347257Y-128559910D01*
X162347257Y-128559910D02*
X162537733Y-128464672D01*
X162537733Y-128464672D02*
X162632971Y-128369433D01*
X160918685Y-126559910D02*
X160252019Y-128559910D01*
X160252019Y-128559910D02*
X159585352Y-126559910D01*
X162190114Y-110359910D02*
X163332971Y-110359910D01*
X162761543Y-110359910D02*
X162761543Y-108359910D01*
X162761543Y-108359910D02*
X162952019Y-108645624D01*
X162952019Y-108645624D02*
X163142495Y-108836100D01*
X163142495Y-108836100D02*
X163332971Y-108931338D01*
X160380590Y-108359910D02*
X161332971Y-108359910D01*
X161332971Y-108359910D02*
X161428209Y-109312291D01*
X161428209Y-109312291D02*
X161332971Y-109217052D01*
X161332971Y-109217052D02*
X161142495Y-109121814D01*
X161142495Y-109121814D02*
X160666304Y-109121814D01*
X160666304Y-109121814D02*
X160475828Y-109217052D01*
X160475828Y-109217052D02*
X160380590Y-109312291D01*
X160380590Y-109312291D02*
X160285352Y-109502767D01*
X160285352Y-109502767D02*
X160285352Y-109978957D01*
X160285352Y-109978957D02*
X160380590Y-110169433D01*
X160380590Y-110169433D02*
X160475828Y-110264672D01*
X160475828Y-110264672D02*
X160666304Y-110359910D01*
X160666304Y-110359910D02*
X161142495Y-110359910D01*
X161142495Y-110359910D02*
X161332971Y-110264672D01*
X161332971Y-110264672D02*
X161428209Y-110169433D01*
X159713923Y-108359910D02*
X159047257Y-110359910D01*
X159047257Y-110359910D02*
X158380590Y-108359910D01*
X161832971Y-72550386D02*
X161737733Y-72455148D01*
X161737733Y-72455148D02*
X161547257Y-72359910D01*
X161547257Y-72359910D02*
X161071066Y-72359910D01*
X161071066Y-72359910D02*
X160880590Y-72455148D01*
X160880590Y-72455148D02*
X160785352Y-72550386D01*
X160785352Y-72550386D02*
X160690114Y-72740862D01*
X160690114Y-72740862D02*
X160690114Y-72931338D01*
X160690114Y-72931338D02*
X160785352Y-73217052D01*
X160785352Y-73217052D02*
X161928209Y-74359910D01*
X161928209Y-74359910D02*
X160690114Y-74359910D01*
X158975828Y-73026576D02*
X158975828Y-74359910D01*
X159452019Y-72264672D02*
X159928209Y-73693243D01*
X159928209Y-73693243D02*
X158690114Y-73693243D01*
X158213923Y-72359910D02*
X157547257Y-74359910D01*
X157547257Y-74359910D02*
X156880590Y-72359910D01*
X166532971Y-54550386D02*
X166437733Y-54455148D01*
X166437733Y-54455148D02*
X166247257Y-54359910D01*
X166247257Y-54359910D02*
X165771066Y-54359910D01*
X165771066Y-54359910D02*
X165580590Y-54455148D01*
X165580590Y-54455148D02*
X165485352Y-54550386D01*
X165485352Y-54550386D02*
X165390114Y-54740862D01*
X165390114Y-54740862D02*
X165390114Y-54931338D01*
X165390114Y-54931338D02*
X165485352Y-55217052D01*
X165485352Y-55217052D02*
X166628209Y-56359910D01*
X166628209Y-56359910D02*
X165390114Y-56359910D01*
X163675828Y-55026576D02*
X163675828Y-56359910D01*
X164152019Y-54264672D02*
X164628209Y-55693243D01*
X164628209Y-55693243D02*
X163390114Y-55693243D01*
X162913923Y-54359910D02*
X162247257Y-56359910D01*
X162247257Y-56359910D02*
X161580590Y-54359910D01*
X158247256Y-56359910D02*
X158913923Y-55407529D01*
X159390113Y-56359910D02*
X159390113Y-54359910D01*
X159390113Y-54359910D02*
X158628208Y-54359910D01*
X158628208Y-54359910D02*
X158437732Y-54455148D01*
X158437732Y-54455148D02*
X158342494Y-54550386D01*
X158342494Y-54550386D02*
X158247256Y-54740862D01*
X158247256Y-54740862D02*
X158247256Y-55026576D01*
X158247256Y-55026576D02*
X158342494Y-55217052D01*
X158342494Y-55217052D02*
X158437732Y-55312291D01*
X158437732Y-55312291D02*
X158628208Y-55407529D01*
X158628208Y-55407529D02*
X159390113Y-55407529D01*
X157485351Y-55788481D02*
X156532970Y-55788481D01*
X157675827Y-56359910D02*
X157009161Y-54359910D01*
X157009161Y-54359910D02*
X156342494Y-56359910D01*
X155866303Y-54359910D02*
X155390113Y-56359910D01*
X155390113Y-56359910D02*
X155009160Y-54931338D01*
X155009160Y-54931338D02*
X154628208Y-56359910D01*
X154628208Y-56359910D02*
X154152018Y-54359910D01*
M02*
