%TF.GenerationSoftware,KiCad,Pcbnew,8.0.3*%
%TF.CreationDate,2024-08-18T15:06:00+02:00*%
%TF.ProjectId,terminal_block,7465726d-696e-4616-9c5f-626c6f636b2e,1*%
%TF.SameCoordinates,Original*%
%TF.FileFunction,Legend,Top*%
%TF.FilePolarity,Positive*%
%FSLAX46Y46*%
G04 Gerber Fmt 4.6, Leading zero omitted, Abs format (unit mm)*
G04 Created by KiCad (PCBNEW 8.0.3) date 2024-08-18 15:06:00*
%MOMM*%
%LPD*%
G01*
G04 APERTURE LIST*
%ADD10C,0.500000*%
%ADD11C,0.150000*%
%ADD12C,0.300000*%
%ADD13C,0.600000*%
%ADD14C,0.120000*%
G04 APERTURE END LIST*
D10*
X189700000Y-47500000D02*
X189700000Y-134500000D01*
X99700000Y-47500000D02*
X129700000Y-47500000D01*
X189700000Y-134500000D02*
X159700000Y-134500000D01*
X129700000Y-47500000D02*
X129700000Y-134500000D01*
D11*
X189645545Y-91276276D02*
X159645545Y-91276276D01*
D10*
X99700000Y-134500000D02*
X99700000Y-47500000D01*
X159700000Y-47500000D02*
X129700000Y-47500000D01*
X189700000Y-47500000D02*
X159700000Y-47500000D01*
X159700000Y-47500000D02*
X159700000Y-134500000D01*
X129700000Y-134500000D02*
X99700000Y-134500000D01*
X159700000Y-134500000D02*
X129700000Y-134500000D01*
D12*
X132840225Y-53372257D02*
X132697368Y-53300828D01*
X132697368Y-53300828D02*
X132483082Y-53300828D01*
X132483082Y-53300828D02*
X132268796Y-53372257D01*
X132268796Y-53372257D02*
X132125939Y-53515114D01*
X132125939Y-53515114D02*
X132054510Y-53657971D01*
X132054510Y-53657971D02*
X131983082Y-53943685D01*
X131983082Y-53943685D02*
X131983082Y-54157971D01*
X131983082Y-54157971D02*
X132054510Y-54443685D01*
X132054510Y-54443685D02*
X132125939Y-54586542D01*
X132125939Y-54586542D02*
X132268796Y-54729400D01*
X132268796Y-54729400D02*
X132483082Y-54800828D01*
X132483082Y-54800828D02*
X132625939Y-54800828D01*
X132625939Y-54800828D02*
X132840225Y-54729400D01*
X132840225Y-54729400D02*
X132911653Y-54657971D01*
X132911653Y-54657971D02*
X132911653Y-54157971D01*
X132911653Y-54157971D02*
X132625939Y-54157971D01*
X133554510Y-54800828D02*
X133554510Y-53300828D01*
X133554510Y-53300828D02*
X134411653Y-54800828D01*
X134411653Y-54800828D02*
X134411653Y-53300828D01*
X135125939Y-54800828D02*
X135125939Y-53300828D01*
X135125939Y-53300828D02*
X135483082Y-53300828D01*
X135483082Y-53300828D02*
X135697368Y-53372257D01*
X135697368Y-53372257D02*
X135840225Y-53515114D01*
X135840225Y-53515114D02*
X135911654Y-53657971D01*
X135911654Y-53657971D02*
X135983082Y-53943685D01*
X135983082Y-53943685D02*
X135983082Y-54157971D01*
X135983082Y-54157971D02*
X135911654Y-54443685D01*
X135911654Y-54443685D02*
X135840225Y-54586542D01*
X135840225Y-54586542D02*
X135697368Y-54729400D01*
X135697368Y-54729400D02*
X135483082Y-54800828D01*
X135483082Y-54800828D02*
X135125939Y-54800828D01*
D13*
X103458800Y-70390978D02*
X103458800Y-68105264D01*
X104601657Y-69248121D02*
X102315942Y-69248121D01*
X101887371Y-66819549D02*
X101744514Y-66676692D01*
X101744514Y-66676692D02*
X101601657Y-66390978D01*
X101601657Y-66390978D02*
X101601657Y-65676692D01*
X101601657Y-65676692D02*
X101744514Y-65390978D01*
X101744514Y-65390978D02*
X101887371Y-65248120D01*
X101887371Y-65248120D02*
X102173085Y-65105263D01*
X102173085Y-65105263D02*
X102458800Y-65105263D01*
X102458800Y-65105263D02*
X102887371Y-65248120D01*
X102887371Y-65248120D02*
X104601657Y-66962406D01*
X104601657Y-66962406D02*
X104601657Y-65105263D01*
X102601657Y-62533835D02*
X104601657Y-62533835D01*
X101458800Y-63248120D02*
X103601657Y-63962406D01*
X103601657Y-63962406D02*
X103601657Y-62105263D01*
X101601657Y-61390977D02*
X104601657Y-60390977D01*
X104601657Y-60390977D02*
X101601657Y-59390977D01*
X133458800Y-98890978D02*
X133458800Y-96605264D01*
X134601657Y-97748121D02*
X132315942Y-97748121D01*
X133030228Y-94176692D02*
X133173085Y-93748120D01*
X133173085Y-93748120D02*
X133315942Y-93605263D01*
X133315942Y-93605263D02*
X133601657Y-93462406D01*
X133601657Y-93462406D02*
X134030228Y-93462406D01*
X134030228Y-93462406D02*
X134315942Y-93605263D01*
X134315942Y-93605263D02*
X134458800Y-93748120D01*
X134458800Y-93748120D02*
X134601657Y-94033835D01*
X134601657Y-94033835D02*
X134601657Y-95176692D01*
X134601657Y-95176692D02*
X131601657Y-95176692D01*
X131601657Y-95176692D02*
X131601657Y-94176692D01*
X131601657Y-94176692D02*
X131744514Y-93890978D01*
X131744514Y-93890978D02*
X131887371Y-93748120D01*
X131887371Y-93748120D02*
X132173085Y-93605263D01*
X132173085Y-93605263D02*
X132458800Y-93605263D01*
X132458800Y-93605263D02*
X132744514Y-93748120D01*
X132744514Y-93748120D02*
X132887371Y-93890978D01*
X132887371Y-93890978D02*
X133030228Y-94176692D01*
X133030228Y-94176692D02*
X133030228Y-95176692D01*
X133744514Y-92319549D02*
X133744514Y-90890978D01*
X134601657Y-92605263D02*
X131601657Y-91605263D01*
X131601657Y-91605263D02*
X134601657Y-90605263D01*
X131601657Y-90033834D02*
X131601657Y-88319549D01*
X134601657Y-89176691D02*
X131601657Y-89176691D01*
X131601657Y-87748120D02*
X131601657Y-86033835D01*
X134601657Y-86890977D02*
X131601657Y-86890977D01*
X133458800Y-71390978D02*
X133458800Y-69105264D01*
X134601657Y-70248121D02*
X132315942Y-70248121D01*
X133030228Y-66676692D02*
X133173085Y-66248120D01*
X133173085Y-66248120D02*
X133315942Y-66105263D01*
X133315942Y-66105263D02*
X133601657Y-65962406D01*
X133601657Y-65962406D02*
X134030228Y-65962406D01*
X134030228Y-65962406D02*
X134315942Y-66105263D01*
X134315942Y-66105263D02*
X134458800Y-66248120D01*
X134458800Y-66248120D02*
X134601657Y-66533835D01*
X134601657Y-66533835D02*
X134601657Y-67676692D01*
X134601657Y-67676692D02*
X131601657Y-67676692D01*
X131601657Y-67676692D02*
X131601657Y-66676692D01*
X131601657Y-66676692D02*
X131744514Y-66390978D01*
X131744514Y-66390978D02*
X131887371Y-66248120D01*
X131887371Y-66248120D02*
X132173085Y-66105263D01*
X132173085Y-66105263D02*
X132458800Y-66105263D01*
X132458800Y-66105263D02*
X132744514Y-66248120D01*
X132744514Y-66248120D02*
X132887371Y-66390978D01*
X132887371Y-66390978D02*
X133030228Y-66676692D01*
X133030228Y-66676692D02*
X133030228Y-67676692D01*
X133744514Y-64819549D02*
X133744514Y-63390978D01*
X134601657Y-65105263D02*
X131601657Y-64105263D01*
X131601657Y-64105263D02*
X134601657Y-63105263D01*
X131601657Y-62533834D02*
X131601657Y-60819549D01*
X134601657Y-61676691D02*
X131601657Y-61676691D01*
X131601657Y-60248120D02*
X131601657Y-58533835D01*
X134601657Y-59390977D02*
X131601657Y-59390977D01*
X103458800Y-123890978D02*
X103458800Y-121605264D01*
X104601657Y-122748121D02*
X102315942Y-122748121D01*
X101887371Y-120319549D02*
X101744514Y-120176692D01*
X101744514Y-120176692D02*
X101601657Y-119890978D01*
X101601657Y-119890978D02*
X101601657Y-119176692D01*
X101601657Y-119176692D02*
X101744514Y-118890978D01*
X101744514Y-118890978D02*
X101887371Y-118748120D01*
X101887371Y-118748120D02*
X102173085Y-118605263D01*
X102173085Y-118605263D02*
X102458800Y-118605263D01*
X102458800Y-118605263D02*
X102887371Y-118748120D01*
X102887371Y-118748120D02*
X104601657Y-120462406D01*
X104601657Y-120462406D02*
X104601657Y-118605263D01*
X102601657Y-116033835D02*
X104601657Y-116033835D01*
X101458800Y-116748120D02*
X103601657Y-117462406D01*
X103601657Y-117462406D02*
X103601657Y-115605263D01*
X101601657Y-114890977D02*
X104601657Y-113890977D01*
X104601657Y-113890977D02*
X101601657Y-112890977D01*
X133705920Y-125193775D02*
X133705920Y-122908061D01*
X134848777Y-124050918D02*
X132563062Y-124050918D01*
X133277348Y-120479489D02*
X133420205Y-120050917D01*
X133420205Y-120050917D02*
X133563062Y-119908060D01*
X133563062Y-119908060D02*
X133848777Y-119765203D01*
X133848777Y-119765203D02*
X134277348Y-119765203D01*
X134277348Y-119765203D02*
X134563062Y-119908060D01*
X134563062Y-119908060D02*
X134705920Y-120050917D01*
X134705920Y-120050917D02*
X134848777Y-120336632D01*
X134848777Y-120336632D02*
X134848777Y-121479489D01*
X134848777Y-121479489D02*
X131848777Y-121479489D01*
X131848777Y-121479489D02*
X131848777Y-120479489D01*
X131848777Y-120479489D02*
X131991634Y-120193775D01*
X131991634Y-120193775D02*
X132134491Y-120050917D01*
X132134491Y-120050917D02*
X132420205Y-119908060D01*
X132420205Y-119908060D02*
X132705920Y-119908060D01*
X132705920Y-119908060D02*
X132991634Y-120050917D01*
X132991634Y-120050917D02*
X133134491Y-120193775D01*
X133134491Y-120193775D02*
X133277348Y-120479489D01*
X133277348Y-120479489D02*
X133277348Y-121479489D01*
X133991634Y-118622346D02*
X133991634Y-117193775D01*
X134848777Y-118908060D02*
X131848777Y-117908060D01*
X131848777Y-117908060D02*
X134848777Y-116908060D01*
X131848777Y-116336631D02*
X131848777Y-114622346D01*
X134848777Y-115479488D02*
X131848777Y-115479488D01*
X131848777Y-114050917D02*
X131848777Y-112336632D01*
X134848777Y-113193774D02*
X131848777Y-113193774D01*
X103458800Y-97890978D02*
X103458800Y-95605264D01*
X104601657Y-96748121D02*
X102315942Y-96748121D01*
X101887371Y-94319549D02*
X101744514Y-94176692D01*
X101744514Y-94176692D02*
X101601657Y-93890978D01*
X101601657Y-93890978D02*
X101601657Y-93176692D01*
X101601657Y-93176692D02*
X101744514Y-92890978D01*
X101744514Y-92890978D02*
X101887371Y-92748120D01*
X101887371Y-92748120D02*
X102173085Y-92605263D01*
X102173085Y-92605263D02*
X102458800Y-92605263D01*
X102458800Y-92605263D02*
X102887371Y-92748120D01*
X102887371Y-92748120D02*
X104601657Y-94462406D01*
X104601657Y-94462406D02*
X104601657Y-92605263D01*
X102601657Y-90033835D02*
X104601657Y-90033835D01*
X101458800Y-90748120D02*
X103601657Y-91462406D01*
X103601657Y-91462406D02*
X103601657Y-89605263D01*
X101601657Y-88890977D02*
X104601657Y-87890977D01*
X104601657Y-87890977D02*
X101601657Y-86890977D01*
X88609021Y-56958800D02*
X90894736Y-56958800D01*
X89751878Y-58101657D02*
X89751878Y-55815942D01*
X93751879Y-55101657D02*
X92323307Y-55101657D01*
X92323307Y-55101657D02*
X92180450Y-56530228D01*
X92180450Y-56530228D02*
X92323307Y-56387371D01*
X92323307Y-56387371D02*
X92609022Y-56244514D01*
X92609022Y-56244514D02*
X93323307Y-56244514D01*
X93323307Y-56244514D02*
X93609022Y-56387371D01*
X93609022Y-56387371D02*
X93751879Y-56530228D01*
X93751879Y-56530228D02*
X93894736Y-56815942D01*
X93894736Y-56815942D02*
X93894736Y-57530228D01*
X93894736Y-57530228D02*
X93751879Y-57815942D01*
X93751879Y-57815942D02*
X93609022Y-57958800D01*
X93609022Y-57958800D02*
X93323307Y-58101657D01*
X93323307Y-58101657D02*
X92609022Y-58101657D01*
X92609022Y-58101657D02*
X92323307Y-57958800D01*
X92323307Y-57958800D02*
X92180450Y-57815942D01*
X94751879Y-55101657D02*
X95751879Y-58101657D01*
X95751879Y-58101657D02*
X96751879Y-55101657D01*
X88109021Y-126958800D02*
X90394736Y-126958800D01*
X89251878Y-128101657D02*
X89251878Y-125815942D01*
X93251879Y-125101657D02*
X91823307Y-125101657D01*
X91823307Y-125101657D02*
X91680450Y-126530228D01*
X91680450Y-126530228D02*
X91823307Y-126387371D01*
X91823307Y-126387371D02*
X92109022Y-126244514D01*
X92109022Y-126244514D02*
X92823307Y-126244514D01*
X92823307Y-126244514D02*
X93109022Y-126387371D01*
X93109022Y-126387371D02*
X93251879Y-126530228D01*
X93251879Y-126530228D02*
X93394736Y-126815942D01*
X93394736Y-126815942D02*
X93394736Y-127530228D01*
X93394736Y-127530228D02*
X93251879Y-127815942D01*
X93251879Y-127815942D02*
X93109022Y-127958800D01*
X93109022Y-127958800D02*
X92823307Y-128101657D01*
X92823307Y-128101657D02*
X92109022Y-128101657D01*
X92109022Y-128101657D02*
X91823307Y-127958800D01*
X91823307Y-127958800D02*
X91680450Y-127815942D01*
X94251879Y-125101657D02*
X95251879Y-128101657D01*
X95251879Y-128101657D02*
X96251879Y-125101657D01*
X163947850Y-115630519D02*
X163947850Y-117344805D01*
X163947850Y-116487662D02*
X160947850Y-116487662D01*
X160947850Y-116487662D02*
X161376421Y-116773376D01*
X161376421Y-116773376D02*
X161662135Y-117059091D01*
X161662135Y-117059091D02*
X161804993Y-117344805D01*
X160947850Y-112916233D02*
X160947850Y-114344805D01*
X160947850Y-114344805D02*
X162376421Y-114487662D01*
X162376421Y-114487662D02*
X162233564Y-114344805D01*
X162233564Y-114344805D02*
X162090707Y-114059091D01*
X162090707Y-114059091D02*
X162090707Y-113344805D01*
X162090707Y-113344805D02*
X162233564Y-113059091D01*
X162233564Y-113059091D02*
X162376421Y-112916233D01*
X162376421Y-112916233D02*
X162662135Y-112773376D01*
X162662135Y-112773376D02*
X163376421Y-112773376D01*
X163376421Y-112773376D02*
X163662135Y-112916233D01*
X163662135Y-112916233D02*
X163804993Y-113059091D01*
X163804993Y-113059091D02*
X163947850Y-113344805D01*
X163947850Y-113344805D02*
X163947850Y-114059091D01*
X163947850Y-114059091D02*
X163804993Y-114344805D01*
X163804993Y-114344805D02*
X163662135Y-114487662D01*
X160947850Y-111916233D02*
X163947850Y-110916233D01*
X163947850Y-110916233D02*
X160947850Y-109916233D01*
X162804993Y-108916233D02*
X162804993Y-106630519D01*
X163947850Y-107773376D02*
X161662135Y-107773376D01*
X185958800Y-76390978D02*
X185958800Y-74105264D01*
X187101657Y-75248121D02*
X184815942Y-75248121D01*
X187101657Y-71105263D02*
X187101657Y-72819549D01*
X187101657Y-71962406D02*
X184101657Y-71962406D01*
X184101657Y-71962406D02*
X184530228Y-72248120D01*
X184530228Y-72248120D02*
X184815942Y-72533835D01*
X184815942Y-72533835D02*
X184958800Y-72819549D01*
X184387371Y-69962406D02*
X184244514Y-69819549D01*
X184244514Y-69819549D02*
X184101657Y-69533835D01*
X184101657Y-69533835D02*
X184101657Y-68819549D01*
X184101657Y-68819549D02*
X184244514Y-68533835D01*
X184244514Y-68533835D02*
X184387371Y-68390977D01*
X184387371Y-68390977D02*
X184673085Y-68248120D01*
X184673085Y-68248120D02*
X184958800Y-68248120D01*
X184958800Y-68248120D02*
X185387371Y-68390977D01*
X185387371Y-68390977D02*
X187101657Y-70105263D01*
X187101657Y-70105263D02*
X187101657Y-68248120D01*
X184101657Y-67390977D02*
X187101657Y-66390977D01*
X187101657Y-66390977D02*
X184101657Y-65390977D01*
X162958800Y-76390978D02*
X162958800Y-74105264D01*
X164101657Y-75248121D02*
X161815942Y-75248121D01*
X164101657Y-71105263D02*
X164101657Y-72819549D01*
X164101657Y-71962406D02*
X161101657Y-71962406D01*
X161101657Y-71962406D02*
X161530228Y-72248120D01*
X161530228Y-72248120D02*
X161815942Y-72533835D01*
X161815942Y-72533835D02*
X161958800Y-72819549D01*
X161387371Y-69962406D02*
X161244514Y-69819549D01*
X161244514Y-69819549D02*
X161101657Y-69533835D01*
X161101657Y-69533835D02*
X161101657Y-68819549D01*
X161101657Y-68819549D02*
X161244514Y-68533835D01*
X161244514Y-68533835D02*
X161387371Y-68390977D01*
X161387371Y-68390977D02*
X161673085Y-68248120D01*
X161673085Y-68248120D02*
X161958800Y-68248120D01*
X161958800Y-68248120D02*
X162387371Y-68390977D01*
X162387371Y-68390977D02*
X164101657Y-70105263D01*
X164101657Y-70105263D02*
X164101657Y-68248120D01*
X161101657Y-67390977D02*
X164101657Y-66390977D01*
X164101657Y-66390977D02*
X161101657Y-65390977D01*
X187101657Y-115819549D02*
X187101657Y-117533835D01*
X187101657Y-116676692D02*
X184101657Y-116676692D01*
X184101657Y-116676692D02*
X184530228Y-116962406D01*
X184530228Y-116962406D02*
X184815942Y-117248121D01*
X184815942Y-117248121D02*
X184958800Y-117533835D01*
X184101657Y-113105263D02*
X184101657Y-114533835D01*
X184101657Y-114533835D02*
X185530228Y-114676692D01*
X185530228Y-114676692D02*
X185387371Y-114533835D01*
X185387371Y-114533835D02*
X185244514Y-114248121D01*
X185244514Y-114248121D02*
X185244514Y-113533835D01*
X185244514Y-113533835D02*
X185387371Y-113248121D01*
X185387371Y-113248121D02*
X185530228Y-113105263D01*
X185530228Y-113105263D02*
X185815942Y-112962406D01*
X185815942Y-112962406D02*
X186530228Y-112962406D01*
X186530228Y-112962406D02*
X186815942Y-113105263D01*
X186815942Y-113105263D02*
X186958800Y-113248121D01*
X186958800Y-113248121D02*
X187101657Y-113533835D01*
X187101657Y-113533835D02*
X187101657Y-114248121D01*
X187101657Y-114248121D02*
X186958800Y-114533835D01*
X186958800Y-114533835D02*
X186815942Y-114676692D01*
X184101657Y-112105263D02*
X187101657Y-111105263D01*
X187101657Y-111105263D02*
X184101657Y-110105263D01*
X185958800Y-109105263D02*
X185958800Y-106819549D01*
X187101657Y-107962406D02*
X184815942Y-107962406D01*
D12*
X163340225Y-50872257D02*
X163197368Y-50800828D01*
X163197368Y-50800828D02*
X162983082Y-50800828D01*
X162983082Y-50800828D02*
X162768796Y-50872257D01*
X162768796Y-50872257D02*
X162625939Y-51015114D01*
X162625939Y-51015114D02*
X162554510Y-51157971D01*
X162554510Y-51157971D02*
X162483082Y-51443685D01*
X162483082Y-51443685D02*
X162483082Y-51657971D01*
X162483082Y-51657971D02*
X162554510Y-51943685D01*
X162554510Y-51943685D02*
X162625939Y-52086542D01*
X162625939Y-52086542D02*
X162768796Y-52229400D01*
X162768796Y-52229400D02*
X162983082Y-52300828D01*
X162983082Y-52300828D02*
X163125939Y-52300828D01*
X163125939Y-52300828D02*
X163340225Y-52229400D01*
X163340225Y-52229400D02*
X163411653Y-52157971D01*
X163411653Y-52157971D02*
X163411653Y-51657971D01*
X163411653Y-51657971D02*
X163125939Y-51657971D01*
X164054510Y-52300828D02*
X164054510Y-50800828D01*
X164054510Y-50800828D02*
X164911653Y-52300828D01*
X164911653Y-52300828D02*
X164911653Y-50800828D01*
X165625939Y-52300828D02*
X165625939Y-50800828D01*
X165625939Y-50800828D02*
X165983082Y-50800828D01*
X165983082Y-50800828D02*
X166197368Y-50872257D01*
X166197368Y-50872257D02*
X166340225Y-51015114D01*
X166340225Y-51015114D02*
X166411654Y-51157971D01*
X166411654Y-51157971D02*
X166483082Y-51443685D01*
X166483082Y-51443685D02*
X166483082Y-51657971D01*
X166483082Y-51657971D02*
X166411654Y-51943685D01*
X166411654Y-51943685D02*
X166340225Y-52086542D01*
X166340225Y-52086542D02*
X166197368Y-52229400D01*
X166197368Y-52229400D02*
X165983082Y-52300828D01*
X165983082Y-52300828D02*
X165625939Y-52300828D01*
X102840225Y-53872257D02*
X102697368Y-53800828D01*
X102697368Y-53800828D02*
X102483082Y-53800828D01*
X102483082Y-53800828D02*
X102268796Y-53872257D01*
X102268796Y-53872257D02*
X102125939Y-54015114D01*
X102125939Y-54015114D02*
X102054510Y-54157971D01*
X102054510Y-54157971D02*
X101983082Y-54443685D01*
X101983082Y-54443685D02*
X101983082Y-54657971D01*
X101983082Y-54657971D02*
X102054510Y-54943685D01*
X102054510Y-54943685D02*
X102125939Y-55086542D01*
X102125939Y-55086542D02*
X102268796Y-55229400D01*
X102268796Y-55229400D02*
X102483082Y-55300828D01*
X102483082Y-55300828D02*
X102625939Y-55300828D01*
X102625939Y-55300828D02*
X102840225Y-55229400D01*
X102840225Y-55229400D02*
X102911653Y-55157971D01*
X102911653Y-55157971D02*
X102911653Y-54657971D01*
X102911653Y-54657971D02*
X102625939Y-54657971D01*
X103554510Y-55300828D02*
X103554510Y-53800828D01*
X103554510Y-53800828D02*
X104411653Y-55300828D01*
X104411653Y-55300828D02*
X104411653Y-53800828D01*
X105125939Y-55300828D02*
X105125939Y-53800828D01*
X105125939Y-53800828D02*
X105483082Y-53800828D01*
X105483082Y-53800828D02*
X105697368Y-53872257D01*
X105697368Y-53872257D02*
X105840225Y-54015114D01*
X105840225Y-54015114D02*
X105911654Y-54157971D01*
X105911654Y-54157971D02*
X105983082Y-54443685D01*
X105983082Y-54443685D02*
X105983082Y-54657971D01*
X105983082Y-54657971D02*
X105911654Y-54943685D01*
X105911654Y-54943685D02*
X105840225Y-55086542D01*
X105840225Y-55086542D02*
X105697368Y-55229400D01*
X105697368Y-55229400D02*
X105483082Y-55300828D01*
X105483082Y-55300828D02*
X105125939Y-55300828D01*
D11*
X104333355Y-155797667D02*
X104333355Y-156511952D01*
X104333355Y-156511952D02*
X104285736Y-156654809D01*
X104285736Y-156654809D02*
X104190498Y-156750048D01*
X104190498Y-156750048D02*
X104047641Y-156797667D01*
X104047641Y-156797667D02*
X103952403Y-156797667D01*
X104761927Y-155892905D02*
X104809546Y-155845286D01*
X104809546Y-155845286D02*
X104904784Y-155797667D01*
X104904784Y-155797667D02*
X105142879Y-155797667D01*
X105142879Y-155797667D02*
X105238117Y-155845286D01*
X105238117Y-155845286D02*
X105285736Y-155892905D01*
X105285736Y-155892905D02*
X105333355Y-155988143D01*
X105333355Y-155988143D02*
X105333355Y-156083381D01*
X105333355Y-156083381D02*
X105285736Y-156226238D01*
X105285736Y-156226238D02*
X104714308Y-156797667D01*
X104714308Y-156797667D02*
X105333355Y-156797667D01*
X105666689Y-155797667D02*
X106285736Y-155797667D01*
X106285736Y-155797667D02*
X105952403Y-156178619D01*
X105952403Y-156178619D02*
X106095260Y-156178619D01*
X106095260Y-156178619D02*
X106190498Y-156226238D01*
X106190498Y-156226238D02*
X106238117Y-156273857D01*
X106238117Y-156273857D02*
X106285736Y-156369095D01*
X106285736Y-156369095D02*
X106285736Y-156607190D01*
X106285736Y-156607190D02*
X106238117Y-156702428D01*
X106238117Y-156702428D02*
X106190498Y-156750048D01*
X106190498Y-156750048D02*
X106095260Y-156797667D01*
X106095260Y-156797667D02*
X105809546Y-156797667D01*
X105809546Y-156797667D02*
X105714308Y-156750048D01*
X105714308Y-156750048D02*
X105666689Y-156702428D01*
X98361927Y-137416714D02*
X99123832Y-137416714D01*
X110471450Y-137457548D02*
X111614308Y-137457548D01*
X111042879Y-138028976D02*
X111042879Y-136886119D01*
X103947445Y-22035547D02*
X103947445Y-22749832D01*
X103947445Y-22749832D02*
X103899826Y-22892689D01*
X103899826Y-22892689D02*
X103804588Y-22987928D01*
X103804588Y-22987928D02*
X103661731Y-23035547D01*
X103661731Y-23035547D02*
X103566493Y-23035547D01*
X104328398Y-22035547D02*
X104947445Y-22035547D01*
X104947445Y-22035547D02*
X104614112Y-22416499D01*
X104614112Y-22416499D02*
X104756969Y-22416499D01*
X104756969Y-22416499D02*
X104852207Y-22464118D01*
X104852207Y-22464118D02*
X104899826Y-22511737D01*
X104899826Y-22511737D02*
X104947445Y-22606975D01*
X104947445Y-22606975D02*
X104947445Y-22845070D01*
X104947445Y-22845070D02*
X104899826Y-22940308D01*
X104899826Y-22940308D02*
X104852207Y-22987928D01*
X104852207Y-22987928D02*
X104756969Y-23035547D01*
X104756969Y-23035547D02*
X104471255Y-23035547D01*
X104471255Y-23035547D02*
X104376017Y-22987928D01*
X104376017Y-22987928D02*
X104328398Y-22940308D01*
X105518874Y-22464118D02*
X105423636Y-22416499D01*
X105423636Y-22416499D02*
X105376017Y-22368880D01*
X105376017Y-22368880D02*
X105328398Y-22273642D01*
X105328398Y-22273642D02*
X105328398Y-22226023D01*
X105328398Y-22226023D02*
X105376017Y-22130785D01*
X105376017Y-22130785D02*
X105423636Y-22083166D01*
X105423636Y-22083166D02*
X105518874Y-22035547D01*
X105518874Y-22035547D02*
X105709350Y-22035547D01*
X105709350Y-22035547D02*
X105804588Y-22083166D01*
X105804588Y-22083166D02*
X105852207Y-22130785D01*
X105852207Y-22130785D02*
X105899826Y-22226023D01*
X105899826Y-22226023D02*
X105899826Y-22273642D01*
X105899826Y-22273642D02*
X105852207Y-22368880D01*
X105852207Y-22368880D02*
X105804588Y-22416499D01*
X105804588Y-22416499D02*
X105709350Y-22464118D01*
X105709350Y-22464118D02*
X105518874Y-22464118D01*
X105518874Y-22464118D02*
X105423636Y-22511737D01*
X105423636Y-22511737D02*
X105376017Y-22559356D01*
X105376017Y-22559356D02*
X105328398Y-22654594D01*
X105328398Y-22654594D02*
X105328398Y-22845070D01*
X105328398Y-22845070D02*
X105376017Y-22940308D01*
X105376017Y-22940308D02*
X105423636Y-22987928D01*
X105423636Y-22987928D02*
X105518874Y-23035547D01*
X105518874Y-23035547D02*
X105709350Y-23035547D01*
X105709350Y-23035547D02*
X105804588Y-22987928D01*
X105804588Y-22987928D02*
X105852207Y-22940308D01*
X105852207Y-22940308D02*
X105899826Y-22845070D01*
X105899826Y-22845070D02*
X105899826Y-22654594D01*
X105899826Y-22654594D02*
X105852207Y-22559356D01*
X105852207Y-22559356D02*
X105804588Y-22511737D01*
X105804588Y-22511737D02*
X105709350Y-22464118D01*
X110085540Y-42695428D02*
X111228398Y-42695428D01*
X110656969Y-43266856D02*
X110656969Y-42123999D01*
X97785540Y-42695428D02*
X98928398Y-42695428D01*
X156642143Y-22073697D02*
X156642143Y-22787982D01*
X156642143Y-22787982D02*
X156594524Y-22930839D01*
X156594524Y-22930839D02*
X156499286Y-23026078D01*
X156499286Y-23026078D02*
X156356429Y-23073697D01*
X156356429Y-23073697D02*
X156261191Y-23073697D01*
X157023096Y-22073697D02*
X157642143Y-22073697D01*
X157642143Y-22073697D02*
X157308810Y-22454649D01*
X157308810Y-22454649D02*
X157451667Y-22454649D01*
X157451667Y-22454649D02*
X157546905Y-22502268D01*
X157546905Y-22502268D02*
X157594524Y-22549887D01*
X157594524Y-22549887D02*
X157642143Y-22645125D01*
X157642143Y-22645125D02*
X157642143Y-22883220D01*
X157642143Y-22883220D02*
X157594524Y-22978458D01*
X157594524Y-22978458D02*
X157546905Y-23026078D01*
X157546905Y-23026078D02*
X157451667Y-23073697D01*
X157451667Y-23073697D02*
X157165953Y-23073697D01*
X157165953Y-23073697D02*
X157070715Y-23026078D01*
X157070715Y-23026078D02*
X157023096Y-22978458D01*
X157975477Y-22073697D02*
X158594524Y-22073697D01*
X158594524Y-22073697D02*
X158261191Y-22454649D01*
X158261191Y-22454649D02*
X158404048Y-22454649D01*
X158404048Y-22454649D02*
X158499286Y-22502268D01*
X158499286Y-22502268D02*
X158546905Y-22549887D01*
X158546905Y-22549887D02*
X158594524Y-22645125D01*
X158594524Y-22645125D02*
X158594524Y-22883220D01*
X158594524Y-22883220D02*
X158546905Y-22978458D01*
X158546905Y-22978458D02*
X158499286Y-23026078D01*
X158499286Y-23026078D02*
X158404048Y-23073697D01*
X158404048Y-23073697D02*
X158118334Y-23073697D01*
X158118334Y-23073697D02*
X158023096Y-23026078D01*
X158023096Y-23026078D02*
X157975477Y-22978458D01*
X150480238Y-42733578D02*
X151623096Y-42733578D01*
X162780238Y-42733578D02*
X163923096Y-42733578D01*
X163351667Y-43305006D02*
X163351667Y-42162149D01*
X143690476Y-48154819D02*
X143690476Y-48869104D01*
X143690476Y-48869104D02*
X143642857Y-49011961D01*
X143642857Y-49011961D02*
X143547619Y-49107200D01*
X143547619Y-49107200D02*
X143404762Y-49154819D01*
X143404762Y-49154819D02*
X143309524Y-49154819D01*
X144119048Y-48250057D02*
X144166667Y-48202438D01*
X144166667Y-48202438D02*
X144261905Y-48154819D01*
X144261905Y-48154819D02*
X144500000Y-48154819D01*
X144500000Y-48154819D02*
X144595238Y-48202438D01*
X144595238Y-48202438D02*
X144642857Y-48250057D01*
X144642857Y-48250057D02*
X144690476Y-48345295D01*
X144690476Y-48345295D02*
X144690476Y-48440533D01*
X144690476Y-48440533D02*
X144642857Y-48583390D01*
X144642857Y-48583390D02*
X144071429Y-49154819D01*
X144071429Y-49154819D02*
X144690476Y-49154819D01*
X145642857Y-49154819D02*
X145071429Y-49154819D01*
X145357143Y-49154819D02*
X145357143Y-48154819D01*
X145357143Y-48154819D02*
X145261905Y-48297676D01*
X145261905Y-48297676D02*
X145166667Y-48392914D01*
X145166667Y-48392914D02*
X145071429Y-48440533D01*
X174154207Y-155795865D02*
X174154207Y-156510150D01*
X174154207Y-156510150D02*
X174106588Y-156653007D01*
X174106588Y-156653007D02*
X174011350Y-156748246D01*
X174011350Y-156748246D02*
X173868493Y-156795865D01*
X173868493Y-156795865D02*
X173773255Y-156795865D01*
X175154207Y-156795865D02*
X174582779Y-156795865D01*
X174868493Y-156795865D02*
X174868493Y-155795865D01*
X174868493Y-155795865D02*
X174773255Y-155938722D01*
X174773255Y-155938722D02*
X174678017Y-156033960D01*
X174678017Y-156033960D02*
X174582779Y-156081579D01*
X175725636Y-156224436D02*
X175630398Y-156176817D01*
X175630398Y-156176817D02*
X175582779Y-156129198D01*
X175582779Y-156129198D02*
X175535160Y-156033960D01*
X175535160Y-156033960D02*
X175535160Y-155986341D01*
X175535160Y-155986341D02*
X175582779Y-155891103D01*
X175582779Y-155891103D02*
X175630398Y-155843484D01*
X175630398Y-155843484D02*
X175725636Y-155795865D01*
X175725636Y-155795865D02*
X175916112Y-155795865D01*
X175916112Y-155795865D02*
X176011350Y-155843484D01*
X176011350Y-155843484D02*
X176058969Y-155891103D01*
X176058969Y-155891103D02*
X176106588Y-155986341D01*
X176106588Y-155986341D02*
X176106588Y-156033960D01*
X176106588Y-156033960D02*
X176058969Y-156129198D01*
X176058969Y-156129198D02*
X176011350Y-156176817D01*
X176011350Y-156176817D02*
X175916112Y-156224436D01*
X175916112Y-156224436D02*
X175725636Y-156224436D01*
X175725636Y-156224436D02*
X175630398Y-156272055D01*
X175630398Y-156272055D02*
X175582779Y-156319674D01*
X175582779Y-156319674D02*
X175535160Y-156414912D01*
X175535160Y-156414912D02*
X175535160Y-156605388D01*
X175535160Y-156605388D02*
X175582779Y-156700626D01*
X175582779Y-156700626D02*
X175630398Y-156748246D01*
X175630398Y-156748246D02*
X175725636Y-156795865D01*
X175725636Y-156795865D02*
X175916112Y-156795865D01*
X175916112Y-156795865D02*
X176011350Y-156748246D01*
X176011350Y-156748246D02*
X176058969Y-156700626D01*
X176058969Y-156700626D02*
X176106588Y-156605388D01*
X176106588Y-156605388D02*
X176106588Y-156414912D01*
X176106588Y-156414912D02*
X176058969Y-156319674D01*
X176058969Y-156319674D02*
X176011350Y-156272055D01*
X176011350Y-156272055D02*
X175916112Y-156224436D01*
X168182779Y-137414912D02*
X168944684Y-137414912D01*
X180292302Y-137455746D02*
X181435160Y-137455746D01*
X180863731Y-138027174D02*
X180863731Y-136884317D01*
X174190476Y-45654819D02*
X174190476Y-46369104D01*
X174190476Y-46369104D02*
X174142857Y-46511961D01*
X174142857Y-46511961D02*
X174047619Y-46607200D01*
X174047619Y-46607200D02*
X173904762Y-46654819D01*
X173904762Y-46654819D02*
X173809524Y-46654819D01*
X174571429Y-45654819D02*
X175190476Y-45654819D01*
X175190476Y-45654819D02*
X174857143Y-46035771D01*
X174857143Y-46035771D02*
X175000000Y-46035771D01*
X175000000Y-46035771D02*
X175095238Y-46083390D01*
X175095238Y-46083390D02*
X175142857Y-46131009D01*
X175142857Y-46131009D02*
X175190476Y-46226247D01*
X175190476Y-46226247D02*
X175190476Y-46464342D01*
X175190476Y-46464342D02*
X175142857Y-46559580D01*
X175142857Y-46559580D02*
X175095238Y-46607200D01*
X175095238Y-46607200D02*
X175000000Y-46654819D01*
X175000000Y-46654819D02*
X174714286Y-46654819D01*
X174714286Y-46654819D02*
X174619048Y-46607200D01*
X174619048Y-46607200D02*
X174571429Y-46559580D01*
X175809524Y-45654819D02*
X175904762Y-45654819D01*
X175904762Y-45654819D02*
X176000000Y-45702438D01*
X176000000Y-45702438D02*
X176047619Y-45750057D01*
X176047619Y-45750057D02*
X176095238Y-45845295D01*
X176095238Y-45845295D02*
X176142857Y-46035771D01*
X176142857Y-46035771D02*
X176142857Y-46273866D01*
X176142857Y-46273866D02*
X176095238Y-46464342D01*
X176095238Y-46464342D02*
X176047619Y-46559580D01*
X176047619Y-46559580D02*
X176000000Y-46607200D01*
X176000000Y-46607200D02*
X175904762Y-46654819D01*
X175904762Y-46654819D02*
X175809524Y-46654819D01*
X175809524Y-46654819D02*
X175714286Y-46607200D01*
X175714286Y-46607200D02*
X175666667Y-46559580D01*
X175666667Y-46559580D02*
X175619048Y-46464342D01*
X175619048Y-46464342D02*
X175571429Y-46273866D01*
X175571429Y-46273866D02*
X175571429Y-46035771D01*
X175571429Y-46035771D02*
X175619048Y-45845295D01*
X175619048Y-45845295D02*
X175666667Y-45750057D01*
X175666667Y-45750057D02*
X175714286Y-45702438D01*
X175714286Y-45702438D02*
X175809524Y-45654819D01*
X143390476Y-111654819D02*
X143390476Y-112369104D01*
X143390476Y-112369104D02*
X143342857Y-112511961D01*
X143342857Y-112511961D02*
X143247619Y-112607200D01*
X143247619Y-112607200D02*
X143104762Y-112654819D01*
X143104762Y-112654819D02*
X143009524Y-112654819D01*
X143819048Y-111750057D02*
X143866667Y-111702438D01*
X143866667Y-111702438D02*
X143961905Y-111654819D01*
X143961905Y-111654819D02*
X144200000Y-111654819D01*
X144200000Y-111654819D02*
X144295238Y-111702438D01*
X144295238Y-111702438D02*
X144342857Y-111750057D01*
X144342857Y-111750057D02*
X144390476Y-111845295D01*
X144390476Y-111845295D02*
X144390476Y-111940533D01*
X144390476Y-111940533D02*
X144342857Y-112083390D01*
X144342857Y-112083390D02*
X143771429Y-112654819D01*
X143771429Y-112654819D02*
X144390476Y-112654819D01*
X145295238Y-111654819D02*
X144819048Y-111654819D01*
X144819048Y-111654819D02*
X144771429Y-112131009D01*
X144771429Y-112131009D02*
X144819048Y-112083390D01*
X144819048Y-112083390D02*
X144914286Y-112035771D01*
X144914286Y-112035771D02*
X145152381Y-112035771D01*
X145152381Y-112035771D02*
X145247619Y-112083390D01*
X145247619Y-112083390D02*
X145295238Y-112131009D01*
X145295238Y-112131009D02*
X145342857Y-112226247D01*
X145342857Y-112226247D02*
X145342857Y-112464342D01*
X145342857Y-112464342D02*
X145295238Y-112559580D01*
X145295238Y-112559580D02*
X145247619Y-112607200D01*
X145247619Y-112607200D02*
X145152381Y-112654819D01*
X145152381Y-112654819D02*
X144914286Y-112654819D01*
X144914286Y-112654819D02*
X144819048Y-112607200D01*
X144819048Y-112607200D02*
X144771429Y-112559580D01*
X98928571Y-95614700D02*
X100071429Y-95614700D01*
X85928571Y-95614700D02*
X87071429Y-95614700D01*
X86500000Y-96186128D02*
X86500000Y-95043271D01*
X156731267Y-155775214D02*
X156731267Y-156489499D01*
X156731267Y-156489499D02*
X156683648Y-156632356D01*
X156683648Y-156632356D02*
X156588410Y-156727595D01*
X156588410Y-156727595D02*
X156445553Y-156775214D01*
X156445553Y-156775214D02*
X156350315Y-156775214D01*
X157731267Y-156775214D02*
X157159839Y-156775214D01*
X157445553Y-156775214D02*
X157445553Y-155775214D01*
X157445553Y-155775214D02*
X157350315Y-155918071D01*
X157350315Y-155918071D02*
X157255077Y-156013309D01*
X157255077Y-156013309D02*
X157159839Y-156060928D01*
X158636029Y-155775214D02*
X158159839Y-155775214D01*
X158159839Y-155775214D02*
X158112220Y-156251404D01*
X158112220Y-156251404D02*
X158159839Y-156203785D01*
X158159839Y-156203785D02*
X158255077Y-156156166D01*
X158255077Y-156156166D02*
X158493172Y-156156166D01*
X158493172Y-156156166D02*
X158588410Y-156203785D01*
X158588410Y-156203785D02*
X158636029Y-156251404D01*
X158636029Y-156251404D02*
X158683648Y-156346642D01*
X158683648Y-156346642D02*
X158683648Y-156584737D01*
X158683648Y-156584737D02*
X158636029Y-156679975D01*
X158636029Y-156679975D02*
X158588410Y-156727595D01*
X158588410Y-156727595D02*
X158493172Y-156775214D01*
X158493172Y-156775214D02*
X158255077Y-156775214D01*
X158255077Y-156775214D02*
X158159839Y-156727595D01*
X158159839Y-156727595D02*
X158112220Y-156679975D01*
X150759839Y-137394261D02*
X151521744Y-137394261D01*
X162869362Y-137435095D02*
X164012220Y-137435095D01*
X163440791Y-138006523D02*
X163440791Y-136863666D01*
X174090476Y-113904819D02*
X174090476Y-114619104D01*
X174090476Y-114619104D02*
X174042857Y-114761961D01*
X174042857Y-114761961D02*
X173947619Y-114857200D01*
X173947619Y-114857200D02*
X173804762Y-114904819D01*
X173804762Y-114904819D02*
X173709524Y-114904819D01*
X175090476Y-114904819D02*
X174519048Y-114904819D01*
X174804762Y-114904819D02*
X174804762Y-113904819D01*
X174804762Y-113904819D02*
X174709524Y-114047676D01*
X174709524Y-114047676D02*
X174614286Y-114142914D01*
X174614286Y-114142914D02*
X174519048Y-114190533D01*
X175423810Y-113904819D02*
X176090476Y-113904819D01*
X176090476Y-113904819D02*
X175661905Y-114904819D01*
X114266666Y-79904819D02*
X114266666Y-80619104D01*
X114266666Y-80619104D02*
X114219047Y-80761961D01*
X114219047Y-80761961D02*
X114123809Y-80857200D01*
X114123809Y-80857200D02*
X113980952Y-80904819D01*
X113980952Y-80904819D02*
X113885714Y-80904819D01*
X114885714Y-80333390D02*
X114790476Y-80285771D01*
X114790476Y-80285771D02*
X114742857Y-80238152D01*
X114742857Y-80238152D02*
X114695238Y-80142914D01*
X114695238Y-80142914D02*
X114695238Y-80095295D01*
X114695238Y-80095295D02*
X114742857Y-80000057D01*
X114742857Y-80000057D02*
X114790476Y-79952438D01*
X114790476Y-79952438D02*
X114885714Y-79904819D01*
X114885714Y-79904819D02*
X115076190Y-79904819D01*
X115076190Y-79904819D02*
X115171428Y-79952438D01*
X115171428Y-79952438D02*
X115219047Y-80000057D01*
X115219047Y-80000057D02*
X115266666Y-80095295D01*
X115266666Y-80095295D02*
X115266666Y-80142914D01*
X115266666Y-80142914D02*
X115219047Y-80238152D01*
X115219047Y-80238152D02*
X115171428Y-80285771D01*
X115171428Y-80285771D02*
X115076190Y-80333390D01*
X115076190Y-80333390D02*
X114885714Y-80333390D01*
X114885714Y-80333390D02*
X114790476Y-80381009D01*
X114790476Y-80381009D02*
X114742857Y-80428628D01*
X114742857Y-80428628D02*
X114695238Y-80523866D01*
X114695238Y-80523866D02*
X114695238Y-80714342D01*
X114695238Y-80714342D02*
X114742857Y-80809580D01*
X114742857Y-80809580D02*
X114790476Y-80857200D01*
X114790476Y-80857200D02*
X114885714Y-80904819D01*
X114885714Y-80904819D02*
X115076190Y-80904819D01*
X115076190Y-80904819D02*
X115171428Y-80857200D01*
X115171428Y-80857200D02*
X115219047Y-80809580D01*
X115219047Y-80809580D02*
X115266666Y-80714342D01*
X115266666Y-80714342D02*
X115266666Y-80523866D01*
X115266666Y-80523866D02*
X115219047Y-80428628D01*
X115219047Y-80428628D02*
X115171428Y-80381009D01*
X115171428Y-80381009D02*
X115076190Y-80333390D01*
X174190476Y-77654819D02*
X174190476Y-78369104D01*
X174190476Y-78369104D02*
X174142857Y-78511961D01*
X174142857Y-78511961D02*
X174047619Y-78607200D01*
X174047619Y-78607200D02*
X173904762Y-78654819D01*
X173904762Y-78654819D02*
X173809524Y-78654819D01*
X175190476Y-78654819D02*
X174619048Y-78654819D01*
X174904762Y-78654819D02*
X174904762Y-77654819D01*
X174904762Y-77654819D02*
X174809524Y-77797676D01*
X174809524Y-77797676D02*
X174714286Y-77892914D01*
X174714286Y-77892914D02*
X174619048Y-77940533D01*
X175666667Y-78654819D02*
X175857143Y-78654819D01*
X175857143Y-78654819D02*
X175952381Y-78607200D01*
X175952381Y-78607200D02*
X176000000Y-78559580D01*
X176000000Y-78559580D02*
X176095238Y-78416723D01*
X176095238Y-78416723D02*
X176142857Y-78226247D01*
X176142857Y-78226247D02*
X176142857Y-77845295D01*
X176142857Y-77845295D02*
X176095238Y-77750057D01*
X176095238Y-77750057D02*
X176047619Y-77702438D01*
X176047619Y-77702438D02*
X175952381Y-77654819D01*
X175952381Y-77654819D02*
X175761905Y-77654819D01*
X175761905Y-77654819D02*
X175666667Y-77702438D01*
X175666667Y-77702438D02*
X175619048Y-77750057D01*
X175619048Y-77750057D02*
X175571429Y-77845295D01*
X175571429Y-77845295D02*
X175571429Y-78083390D01*
X175571429Y-78083390D02*
X175619048Y-78178628D01*
X175619048Y-78178628D02*
X175666667Y-78226247D01*
X175666667Y-78226247D02*
X175761905Y-78273866D01*
X175761905Y-78273866D02*
X175952381Y-78273866D01*
X175952381Y-78273866D02*
X176047619Y-78226247D01*
X176047619Y-78226247D02*
X176095238Y-78178628D01*
X176095238Y-78178628D02*
X176142857Y-78083390D01*
X143490476Y-69654819D02*
X143490476Y-70369104D01*
X143490476Y-70369104D02*
X143442857Y-70511961D01*
X143442857Y-70511961D02*
X143347619Y-70607200D01*
X143347619Y-70607200D02*
X143204762Y-70654819D01*
X143204762Y-70654819D02*
X143109524Y-70654819D01*
X143919048Y-69750057D02*
X143966667Y-69702438D01*
X143966667Y-69702438D02*
X144061905Y-69654819D01*
X144061905Y-69654819D02*
X144300000Y-69654819D01*
X144300000Y-69654819D02*
X144395238Y-69702438D01*
X144395238Y-69702438D02*
X144442857Y-69750057D01*
X144442857Y-69750057D02*
X144490476Y-69845295D01*
X144490476Y-69845295D02*
X144490476Y-69940533D01*
X144490476Y-69940533D02*
X144442857Y-70083390D01*
X144442857Y-70083390D02*
X143871429Y-70654819D01*
X143871429Y-70654819D02*
X144490476Y-70654819D01*
X145347619Y-69988152D02*
X145347619Y-70654819D01*
X145109524Y-69607200D02*
X144871429Y-70321485D01*
X144871429Y-70321485D02*
X145490476Y-70321485D01*
X114366666Y-48154819D02*
X114366666Y-48869104D01*
X114366666Y-48869104D02*
X114319047Y-49011961D01*
X114319047Y-49011961D02*
X114223809Y-49107200D01*
X114223809Y-49107200D02*
X114080952Y-49154819D01*
X114080952Y-49154819D02*
X113985714Y-49154819D01*
X115319047Y-48154819D02*
X114842857Y-48154819D01*
X114842857Y-48154819D02*
X114795238Y-48631009D01*
X114795238Y-48631009D02*
X114842857Y-48583390D01*
X114842857Y-48583390D02*
X114938095Y-48535771D01*
X114938095Y-48535771D02*
X115176190Y-48535771D01*
X115176190Y-48535771D02*
X115271428Y-48583390D01*
X115271428Y-48583390D02*
X115319047Y-48631009D01*
X115319047Y-48631009D02*
X115366666Y-48726247D01*
X115366666Y-48726247D02*
X115366666Y-48964342D01*
X115366666Y-48964342D02*
X115319047Y-49059580D01*
X115319047Y-49059580D02*
X115271428Y-49107200D01*
X115271428Y-49107200D02*
X115176190Y-49154819D01*
X115176190Y-49154819D02*
X114938095Y-49154819D01*
X114938095Y-49154819D02*
X114842857Y-49107200D01*
X114842857Y-49107200D02*
X114795238Y-49059580D01*
X139916665Y-155775214D02*
X139916665Y-156489499D01*
X139916665Y-156489499D02*
X139869046Y-156632356D01*
X139869046Y-156632356D02*
X139773808Y-156727595D01*
X139773808Y-156727595D02*
X139630951Y-156775214D01*
X139630951Y-156775214D02*
X139535713Y-156775214D01*
X140440475Y-156775214D02*
X140630951Y-156775214D01*
X140630951Y-156775214D02*
X140726189Y-156727595D01*
X140726189Y-156727595D02*
X140773808Y-156679975D01*
X140773808Y-156679975D02*
X140869046Y-156537118D01*
X140869046Y-156537118D02*
X140916665Y-156346642D01*
X140916665Y-156346642D02*
X140916665Y-155965690D01*
X140916665Y-155965690D02*
X140869046Y-155870452D01*
X140869046Y-155870452D02*
X140821427Y-155822833D01*
X140821427Y-155822833D02*
X140726189Y-155775214D01*
X140726189Y-155775214D02*
X140535713Y-155775214D01*
X140535713Y-155775214D02*
X140440475Y-155822833D01*
X140440475Y-155822833D02*
X140392856Y-155870452D01*
X140392856Y-155870452D02*
X140345237Y-155965690D01*
X140345237Y-155965690D02*
X140345237Y-156203785D01*
X140345237Y-156203785D02*
X140392856Y-156299023D01*
X140392856Y-156299023D02*
X140440475Y-156346642D01*
X140440475Y-156346642D02*
X140535713Y-156394261D01*
X140535713Y-156394261D02*
X140726189Y-156394261D01*
X140726189Y-156394261D02*
X140821427Y-156346642D01*
X140821427Y-156346642D02*
X140869046Y-156299023D01*
X140869046Y-156299023D02*
X140916665Y-156203785D01*
X133469047Y-137394261D02*
X134230952Y-137394261D01*
X145578570Y-137435095D02*
X146721428Y-137435095D01*
X146149999Y-138006523D02*
X146149999Y-136863666D01*
X121500136Y-22111779D02*
X121500136Y-22826064D01*
X121500136Y-22826064D02*
X121452517Y-22968921D01*
X121452517Y-22968921D02*
X121357279Y-23064160D01*
X121357279Y-23064160D02*
X121214422Y-23111779D01*
X121214422Y-23111779D02*
X121119184Y-23111779D01*
X121928708Y-22207017D02*
X121976327Y-22159398D01*
X121976327Y-22159398D02*
X122071565Y-22111779D01*
X122071565Y-22111779D02*
X122309660Y-22111779D01*
X122309660Y-22111779D02*
X122404898Y-22159398D01*
X122404898Y-22159398D02*
X122452517Y-22207017D01*
X122452517Y-22207017D02*
X122500136Y-22302255D01*
X122500136Y-22302255D02*
X122500136Y-22397493D01*
X122500136Y-22397493D02*
X122452517Y-22540350D01*
X122452517Y-22540350D02*
X121881089Y-23111779D01*
X121881089Y-23111779D02*
X122500136Y-23111779D01*
X122976327Y-23111779D02*
X123166803Y-23111779D01*
X123166803Y-23111779D02*
X123262041Y-23064160D01*
X123262041Y-23064160D02*
X123309660Y-23016540D01*
X123309660Y-23016540D02*
X123404898Y-22873683D01*
X123404898Y-22873683D02*
X123452517Y-22683207D01*
X123452517Y-22683207D02*
X123452517Y-22302255D01*
X123452517Y-22302255D02*
X123404898Y-22207017D01*
X123404898Y-22207017D02*
X123357279Y-22159398D01*
X123357279Y-22159398D02*
X123262041Y-22111779D01*
X123262041Y-22111779D02*
X123071565Y-22111779D01*
X123071565Y-22111779D02*
X122976327Y-22159398D01*
X122976327Y-22159398D02*
X122928708Y-22207017D01*
X122928708Y-22207017D02*
X122881089Y-22302255D01*
X122881089Y-22302255D02*
X122881089Y-22540350D01*
X122881089Y-22540350D02*
X122928708Y-22635588D01*
X122928708Y-22635588D02*
X122976327Y-22683207D01*
X122976327Y-22683207D02*
X123071565Y-22730826D01*
X123071565Y-22730826D02*
X123262041Y-22730826D01*
X123262041Y-22730826D02*
X123357279Y-22683207D01*
X123357279Y-22683207D02*
X123404898Y-22635588D01*
X123404898Y-22635588D02*
X123452517Y-22540350D01*
X127638231Y-42771660D02*
X128781089Y-42771660D01*
X128209660Y-43343088D02*
X128209660Y-42200231D01*
X115338231Y-42771660D02*
X116481089Y-42771660D01*
X174190476Y-124404819D02*
X174190476Y-125119104D01*
X174190476Y-125119104D02*
X174142857Y-125261961D01*
X174142857Y-125261961D02*
X174047619Y-125357200D01*
X174047619Y-125357200D02*
X173904762Y-125404819D01*
X173904762Y-125404819D02*
X173809524Y-125404819D01*
X175190476Y-125404819D02*
X174619048Y-125404819D01*
X174904762Y-125404819D02*
X174904762Y-124404819D01*
X174904762Y-124404819D02*
X174809524Y-124547676D01*
X174809524Y-124547676D02*
X174714286Y-124642914D01*
X174714286Y-124642914D02*
X174619048Y-124690533D01*
X176047619Y-124404819D02*
X175857143Y-124404819D01*
X175857143Y-124404819D02*
X175761905Y-124452438D01*
X175761905Y-124452438D02*
X175714286Y-124500057D01*
X175714286Y-124500057D02*
X175619048Y-124642914D01*
X175619048Y-124642914D02*
X175571429Y-124833390D01*
X175571429Y-124833390D02*
X175571429Y-125214342D01*
X175571429Y-125214342D02*
X175619048Y-125309580D01*
X175619048Y-125309580D02*
X175666667Y-125357200D01*
X175666667Y-125357200D02*
X175761905Y-125404819D01*
X175761905Y-125404819D02*
X175952381Y-125404819D01*
X175952381Y-125404819D02*
X176047619Y-125357200D01*
X176047619Y-125357200D02*
X176095238Y-125309580D01*
X176095238Y-125309580D02*
X176142857Y-125214342D01*
X176142857Y-125214342D02*
X176142857Y-124976247D01*
X176142857Y-124976247D02*
X176095238Y-124881009D01*
X176095238Y-124881009D02*
X176047619Y-124833390D01*
X176047619Y-124833390D02*
X175952381Y-124785771D01*
X175952381Y-124785771D02*
X175761905Y-124785771D01*
X175761905Y-124785771D02*
X175666667Y-124833390D01*
X175666667Y-124833390D02*
X175619048Y-124881009D01*
X175619048Y-124881009D02*
X175571429Y-124976247D01*
X85928571Y-63614700D02*
X87071429Y-63614700D01*
X86500000Y-64186128D02*
X86500000Y-63043271D01*
X98928571Y-63614700D02*
X100071429Y-63614700D01*
X174190476Y-22104819D02*
X174190476Y-22819104D01*
X174190476Y-22819104D02*
X174142857Y-22961961D01*
X174142857Y-22961961D02*
X174047619Y-23057200D01*
X174047619Y-23057200D02*
X173904762Y-23104819D01*
X173904762Y-23104819D02*
X173809524Y-23104819D01*
X174571429Y-22104819D02*
X175190476Y-22104819D01*
X175190476Y-22104819D02*
X174857143Y-22485771D01*
X174857143Y-22485771D02*
X175000000Y-22485771D01*
X175000000Y-22485771D02*
X175095238Y-22533390D01*
X175095238Y-22533390D02*
X175142857Y-22581009D01*
X175142857Y-22581009D02*
X175190476Y-22676247D01*
X175190476Y-22676247D02*
X175190476Y-22914342D01*
X175190476Y-22914342D02*
X175142857Y-23009580D01*
X175142857Y-23009580D02*
X175095238Y-23057200D01*
X175095238Y-23057200D02*
X175000000Y-23104819D01*
X175000000Y-23104819D02*
X174714286Y-23104819D01*
X174714286Y-23104819D02*
X174619048Y-23057200D01*
X174619048Y-23057200D02*
X174571429Y-23009580D01*
X175571429Y-22200057D02*
X175619048Y-22152438D01*
X175619048Y-22152438D02*
X175714286Y-22104819D01*
X175714286Y-22104819D02*
X175952381Y-22104819D01*
X175952381Y-22104819D02*
X176047619Y-22152438D01*
X176047619Y-22152438D02*
X176095238Y-22200057D01*
X176095238Y-22200057D02*
X176142857Y-22295295D01*
X176142857Y-22295295D02*
X176142857Y-22390533D01*
X176142857Y-22390533D02*
X176095238Y-22533390D01*
X176095238Y-22533390D02*
X175523810Y-23104819D01*
X175523810Y-23104819D02*
X176142857Y-23104819D01*
X168028571Y-42764700D02*
X169171429Y-42764700D01*
X180328571Y-42764700D02*
X181471429Y-42764700D01*
X180900000Y-43336128D02*
X180900000Y-42193271D01*
X174190476Y-56654819D02*
X174190476Y-57369104D01*
X174190476Y-57369104D02*
X174142857Y-57511961D01*
X174142857Y-57511961D02*
X174047619Y-57607200D01*
X174047619Y-57607200D02*
X173904762Y-57654819D01*
X173904762Y-57654819D02*
X173809524Y-57654819D01*
X174571429Y-56654819D02*
X175190476Y-56654819D01*
X175190476Y-56654819D02*
X174857143Y-57035771D01*
X174857143Y-57035771D02*
X175000000Y-57035771D01*
X175000000Y-57035771D02*
X175095238Y-57083390D01*
X175095238Y-57083390D02*
X175142857Y-57131009D01*
X175142857Y-57131009D02*
X175190476Y-57226247D01*
X175190476Y-57226247D02*
X175190476Y-57464342D01*
X175190476Y-57464342D02*
X175142857Y-57559580D01*
X175142857Y-57559580D02*
X175095238Y-57607200D01*
X175095238Y-57607200D02*
X175000000Y-57654819D01*
X175000000Y-57654819D02*
X174714286Y-57654819D01*
X174714286Y-57654819D02*
X174619048Y-57607200D01*
X174619048Y-57607200D02*
X174571429Y-57559580D01*
X176142857Y-57654819D02*
X175571429Y-57654819D01*
X175857143Y-57654819D02*
X175857143Y-56654819D01*
X175857143Y-56654819D02*
X175761905Y-56797676D01*
X175761905Y-56797676D02*
X175666667Y-56892914D01*
X175666667Y-56892914D02*
X175571429Y-56940533D01*
X114366666Y-69154819D02*
X114366666Y-69869104D01*
X114366666Y-69869104D02*
X114319047Y-70011961D01*
X114319047Y-70011961D02*
X114223809Y-70107200D01*
X114223809Y-70107200D02*
X114080952Y-70154819D01*
X114080952Y-70154819D02*
X113985714Y-70154819D01*
X114747619Y-69154819D02*
X115414285Y-69154819D01*
X115414285Y-69154819D02*
X114985714Y-70154819D01*
X174090476Y-103404819D02*
X174090476Y-104119104D01*
X174090476Y-104119104D02*
X174042857Y-104261961D01*
X174042857Y-104261961D02*
X173947619Y-104357200D01*
X173947619Y-104357200D02*
X173804762Y-104404819D01*
X173804762Y-104404819D02*
X173709524Y-104404819D01*
X175090476Y-104404819D02*
X174519048Y-104404819D01*
X174804762Y-104404819D02*
X174804762Y-103404819D01*
X174804762Y-103404819D02*
X174709524Y-103547676D01*
X174709524Y-103547676D02*
X174614286Y-103642914D01*
X174614286Y-103642914D02*
X174519048Y-103690533D01*
X175947619Y-103738152D02*
X175947619Y-104404819D01*
X175709524Y-103357200D02*
X175471429Y-104071485D01*
X175471429Y-104071485D02*
X176090476Y-104071485D01*
X121871640Y-155805738D02*
X121871640Y-156520023D01*
X121871640Y-156520023D02*
X121824021Y-156662880D01*
X121824021Y-156662880D02*
X121728783Y-156758119D01*
X121728783Y-156758119D02*
X121585926Y-156805738D01*
X121585926Y-156805738D02*
X121490688Y-156805738D01*
X122871640Y-156805738D02*
X122300212Y-156805738D01*
X122585926Y-156805738D02*
X122585926Y-155805738D01*
X122585926Y-155805738D02*
X122490688Y-155948595D01*
X122490688Y-155948595D02*
X122395450Y-156043833D01*
X122395450Y-156043833D02*
X122300212Y-156091452D01*
X123490688Y-155805738D02*
X123585926Y-155805738D01*
X123585926Y-155805738D02*
X123681164Y-155853357D01*
X123681164Y-155853357D02*
X123728783Y-155900976D01*
X123728783Y-155900976D02*
X123776402Y-155996214D01*
X123776402Y-155996214D02*
X123824021Y-156186690D01*
X123824021Y-156186690D02*
X123824021Y-156424785D01*
X123824021Y-156424785D02*
X123776402Y-156615261D01*
X123776402Y-156615261D02*
X123728783Y-156710499D01*
X123728783Y-156710499D02*
X123681164Y-156758119D01*
X123681164Y-156758119D02*
X123585926Y-156805738D01*
X123585926Y-156805738D02*
X123490688Y-156805738D01*
X123490688Y-156805738D02*
X123395450Y-156758119D01*
X123395450Y-156758119D02*
X123347831Y-156710499D01*
X123347831Y-156710499D02*
X123300212Y-156615261D01*
X123300212Y-156615261D02*
X123252593Y-156424785D01*
X123252593Y-156424785D02*
X123252593Y-156186690D01*
X123252593Y-156186690D02*
X123300212Y-155996214D01*
X123300212Y-155996214D02*
X123347831Y-155900976D01*
X123347831Y-155900976D02*
X123395450Y-155853357D01*
X123395450Y-155853357D02*
X123490688Y-155805738D01*
X128009735Y-137465619D02*
X129152593Y-137465619D01*
X128581164Y-138037047D02*
X128581164Y-136894190D01*
X115900212Y-137424785D02*
X116662117Y-137424785D01*
X114166666Y-111654819D02*
X114166666Y-112369104D01*
X114166666Y-112369104D02*
X114119047Y-112511961D01*
X114119047Y-112511961D02*
X114023809Y-112607200D01*
X114023809Y-112607200D02*
X113880952Y-112654819D01*
X113880952Y-112654819D02*
X113785714Y-112654819D01*
X114595238Y-111750057D02*
X114642857Y-111702438D01*
X114642857Y-111702438D02*
X114738095Y-111654819D01*
X114738095Y-111654819D02*
X114976190Y-111654819D01*
X114976190Y-111654819D02*
X115071428Y-111702438D01*
X115071428Y-111702438D02*
X115119047Y-111750057D01*
X115119047Y-111750057D02*
X115166666Y-111845295D01*
X115166666Y-111845295D02*
X115166666Y-111940533D01*
X115166666Y-111940533D02*
X115119047Y-112083390D01*
X115119047Y-112083390D02*
X114547619Y-112654819D01*
X114547619Y-112654819D02*
X115166666Y-112654819D01*
X174090476Y-67154819D02*
X174090476Y-67869104D01*
X174090476Y-67869104D02*
X174042857Y-68011961D01*
X174042857Y-68011961D02*
X173947619Y-68107200D01*
X173947619Y-68107200D02*
X173804762Y-68154819D01*
X173804762Y-68154819D02*
X173709524Y-68154819D01*
X174519048Y-67250057D02*
X174566667Y-67202438D01*
X174566667Y-67202438D02*
X174661905Y-67154819D01*
X174661905Y-67154819D02*
X174900000Y-67154819D01*
X174900000Y-67154819D02*
X174995238Y-67202438D01*
X174995238Y-67202438D02*
X175042857Y-67250057D01*
X175042857Y-67250057D02*
X175090476Y-67345295D01*
X175090476Y-67345295D02*
X175090476Y-67440533D01*
X175090476Y-67440533D02*
X175042857Y-67583390D01*
X175042857Y-67583390D02*
X174471429Y-68154819D01*
X174471429Y-68154819D02*
X175090476Y-68154819D01*
X175709524Y-67154819D02*
X175804762Y-67154819D01*
X175804762Y-67154819D02*
X175900000Y-67202438D01*
X175900000Y-67202438D02*
X175947619Y-67250057D01*
X175947619Y-67250057D02*
X175995238Y-67345295D01*
X175995238Y-67345295D02*
X176042857Y-67535771D01*
X176042857Y-67535771D02*
X176042857Y-67773866D01*
X176042857Y-67773866D02*
X175995238Y-67964342D01*
X175995238Y-67964342D02*
X175947619Y-68059580D01*
X175947619Y-68059580D02*
X175900000Y-68107200D01*
X175900000Y-68107200D02*
X175804762Y-68154819D01*
X175804762Y-68154819D02*
X175709524Y-68154819D01*
X175709524Y-68154819D02*
X175614286Y-68107200D01*
X175614286Y-68107200D02*
X175566667Y-68059580D01*
X175566667Y-68059580D02*
X175519048Y-67964342D01*
X175519048Y-67964342D02*
X175471429Y-67773866D01*
X175471429Y-67773866D02*
X175471429Y-67535771D01*
X175471429Y-67535771D02*
X175519048Y-67345295D01*
X175519048Y-67345295D02*
X175566667Y-67250057D01*
X175566667Y-67250057D02*
X175614286Y-67202438D01*
X175614286Y-67202438D02*
X175709524Y-67154819D01*
X143390476Y-90654819D02*
X143390476Y-91369104D01*
X143390476Y-91369104D02*
X143342857Y-91511961D01*
X143342857Y-91511961D02*
X143247619Y-91607200D01*
X143247619Y-91607200D02*
X143104762Y-91654819D01*
X143104762Y-91654819D02*
X143009524Y-91654819D01*
X143819048Y-90750057D02*
X143866667Y-90702438D01*
X143866667Y-90702438D02*
X143961905Y-90654819D01*
X143961905Y-90654819D02*
X144200000Y-90654819D01*
X144200000Y-90654819D02*
X144295238Y-90702438D01*
X144295238Y-90702438D02*
X144342857Y-90750057D01*
X144342857Y-90750057D02*
X144390476Y-90845295D01*
X144390476Y-90845295D02*
X144390476Y-90940533D01*
X144390476Y-90940533D02*
X144342857Y-91083390D01*
X144342857Y-91083390D02*
X143771429Y-91654819D01*
X143771429Y-91654819D02*
X144390476Y-91654819D01*
X144961905Y-91083390D02*
X144866667Y-91035771D01*
X144866667Y-91035771D02*
X144819048Y-90988152D01*
X144819048Y-90988152D02*
X144771429Y-90892914D01*
X144771429Y-90892914D02*
X144771429Y-90845295D01*
X144771429Y-90845295D02*
X144819048Y-90750057D01*
X144819048Y-90750057D02*
X144866667Y-90702438D01*
X144866667Y-90702438D02*
X144961905Y-90654819D01*
X144961905Y-90654819D02*
X145152381Y-90654819D01*
X145152381Y-90654819D02*
X145247619Y-90702438D01*
X145247619Y-90702438D02*
X145295238Y-90750057D01*
X145295238Y-90750057D02*
X145342857Y-90845295D01*
X145342857Y-90845295D02*
X145342857Y-90892914D01*
X145342857Y-90892914D02*
X145295238Y-90988152D01*
X145295238Y-90988152D02*
X145247619Y-91035771D01*
X145247619Y-91035771D02*
X145152381Y-91083390D01*
X145152381Y-91083390D02*
X144961905Y-91083390D01*
X144961905Y-91083390D02*
X144866667Y-91131009D01*
X144866667Y-91131009D02*
X144819048Y-91178628D01*
X144819048Y-91178628D02*
X144771429Y-91273866D01*
X144771429Y-91273866D02*
X144771429Y-91464342D01*
X144771429Y-91464342D02*
X144819048Y-91559580D01*
X144819048Y-91559580D02*
X144866667Y-91607200D01*
X144866667Y-91607200D02*
X144961905Y-91654819D01*
X144961905Y-91654819D02*
X145152381Y-91654819D01*
X145152381Y-91654819D02*
X145247619Y-91607200D01*
X145247619Y-91607200D02*
X145295238Y-91559580D01*
X145295238Y-91559580D02*
X145342857Y-91464342D01*
X145342857Y-91464342D02*
X145342857Y-91273866D01*
X145342857Y-91273866D02*
X145295238Y-91178628D01*
X145295238Y-91178628D02*
X145247619Y-91131009D01*
X145247619Y-91131009D02*
X145152381Y-91083390D01*
X114166666Y-101154819D02*
X114166666Y-101869104D01*
X114166666Y-101869104D02*
X114119047Y-102011961D01*
X114119047Y-102011961D02*
X114023809Y-102107200D01*
X114023809Y-102107200D02*
X113880952Y-102154819D01*
X113880952Y-102154819D02*
X113785714Y-102154819D01*
X115166666Y-102154819D02*
X114595238Y-102154819D01*
X114880952Y-102154819D02*
X114880952Y-101154819D01*
X114880952Y-101154819D02*
X114785714Y-101297676D01*
X114785714Y-101297676D02*
X114690476Y-101392914D01*
X114690476Y-101392914D02*
X114595238Y-101440533D01*
X98928571Y-80114700D02*
X100071429Y-80114700D01*
X85928571Y-79614700D02*
X87071429Y-79614700D01*
X86500000Y-80186128D02*
X86500000Y-79043271D01*
X143290476Y-122154819D02*
X143290476Y-122869104D01*
X143290476Y-122869104D02*
X143242857Y-123011961D01*
X143242857Y-123011961D02*
X143147619Y-123107200D01*
X143147619Y-123107200D02*
X143004762Y-123154819D01*
X143004762Y-123154819D02*
X142909524Y-123154819D01*
X143719048Y-122250057D02*
X143766667Y-122202438D01*
X143766667Y-122202438D02*
X143861905Y-122154819D01*
X143861905Y-122154819D02*
X144100000Y-122154819D01*
X144100000Y-122154819D02*
X144195238Y-122202438D01*
X144195238Y-122202438D02*
X144242857Y-122250057D01*
X144242857Y-122250057D02*
X144290476Y-122345295D01*
X144290476Y-122345295D02*
X144290476Y-122440533D01*
X144290476Y-122440533D02*
X144242857Y-122583390D01*
X144242857Y-122583390D02*
X143671429Y-123154819D01*
X143671429Y-123154819D02*
X144290476Y-123154819D01*
X145147619Y-122154819D02*
X144957143Y-122154819D01*
X144957143Y-122154819D02*
X144861905Y-122202438D01*
X144861905Y-122202438D02*
X144814286Y-122250057D01*
X144814286Y-122250057D02*
X144719048Y-122392914D01*
X144719048Y-122392914D02*
X144671429Y-122583390D01*
X144671429Y-122583390D02*
X144671429Y-122964342D01*
X144671429Y-122964342D02*
X144719048Y-123059580D01*
X144719048Y-123059580D02*
X144766667Y-123107200D01*
X144766667Y-123107200D02*
X144861905Y-123154819D01*
X144861905Y-123154819D02*
X145052381Y-123154819D01*
X145052381Y-123154819D02*
X145147619Y-123107200D01*
X145147619Y-123107200D02*
X145195238Y-123059580D01*
X145195238Y-123059580D02*
X145242857Y-122964342D01*
X145242857Y-122964342D02*
X145242857Y-122726247D01*
X145242857Y-122726247D02*
X145195238Y-122631009D01*
X145195238Y-122631009D02*
X145147619Y-122583390D01*
X145147619Y-122583390D02*
X145052381Y-122535771D01*
X145052381Y-122535771D02*
X144861905Y-122535771D01*
X144861905Y-122535771D02*
X144766667Y-122583390D01*
X144766667Y-122583390D02*
X144719048Y-122631009D01*
X144719048Y-122631009D02*
X144671429Y-122726247D01*
X98928571Y-87614700D02*
X100071429Y-87614700D01*
X85928571Y-87614700D02*
X87071429Y-87614700D01*
X86500000Y-88186128D02*
X86500000Y-87043271D01*
X98736153Y-119632156D02*
X99879011Y-119632156D01*
X85928571Y-119614700D02*
X87071429Y-119614700D01*
X86500000Y-120186128D02*
X86500000Y-119043271D01*
X98644863Y-111730644D02*
X99787721Y-111730644D01*
X85928571Y-111614700D02*
X87071429Y-111614700D01*
X86500000Y-112186128D02*
X86500000Y-111043271D01*
X98928571Y-103614700D02*
X100071429Y-103614700D01*
X85928571Y-103614700D02*
X87071429Y-103614700D01*
X86500000Y-104186128D02*
X86500000Y-103043271D01*
X139197445Y-22035547D02*
X139197445Y-22749832D01*
X139197445Y-22749832D02*
X139149826Y-22892689D01*
X139149826Y-22892689D02*
X139054588Y-22987928D01*
X139054588Y-22987928D02*
X138911731Y-23035547D01*
X138911731Y-23035547D02*
X138816493Y-23035547D01*
X139626017Y-22130785D02*
X139673636Y-22083166D01*
X139673636Y-22083166D02*
X139768874Y-22035547D01*
X139768874Y-22035547D02*
X140006969Y-22035547D01*
X140006969Y-22035547D02*
X140102207Y-22083166D01*
X140102207Y-22083166D02*
X140149826Y-22130785D01*
X140149826Y-22130785D02*
X140197445Y-22226023D01*
X140197445Y-22226023D02*
X140197445Y-22321261D01*
X140197445Y-22321261D02*
X140149826Y-22464118D01*
X140149826Y-22464118D02*
X139578398Y-23035547D01*
X139578398Y-23035547D02*
X140197445Y-23035547D01*
X140530779Y-22035547D02*
X141197445Y-22035547D01*
X141197445Y-22035547D02*
X140768874Y-23035547D01*
X133035540Y-42695428D02*
X134178398Y-42695428D01*
X145335540Y-42695428D02*
X146478398Y-42695428D01*
X145906969Y-43266856D02*
X145906969Y-42123999D01*
X98928571Y-72114700D02*
X100071429Y-72114700D01*
X85928571Y-71614700D02*
X87071429Y-71614700D01*
X86500000Y-72186128D02*
X86500000Y-71043271D01*
X143690476Y-58904819D02*
X143690476Y-59619104D01*
X143690476Y-59619104D02*
X143642857Y-59761961D01*
X143642857Y-59761961D02*
X143547619Y-59857200D01*
X143547619Y-59857200D02*
X143404762Y-59904819D01*
X143404762Y-59904819D02*
X143309524Y-59904819D01*
X144119048Y-59000057D02*
X144166667Y-58952438D01*
X144166667Y-58952438D02*
X144261905Y-58904819D01*
X144261905Y-58904819D02*
X144500000Y-58904819D01*
X144500000Y-58904819D02*
X144595238Y-58952438D01*
X144595238Y-58952438D02*
X144642857Y-59000057D01*
X144642857Y-59000057D02*
X144690476Y-59095295D01*
X144690476Y-59095295D02*
X144690476Y-59190533D01*
X144690476Y-59190533D02*
X144642857Y-59333390D01*
X144642857Y-59333390D02*
X144071429Y-59904819D01*
X144071429Y-59904819D02*
X144690476Y-59904819D01*
X145071429Y-59000057D02*
X145119048Y-58952438D01*
X145119048Y-58952438D02*
X145214286Y-58904819D01*
X145214286Y-58904819D02*
X145452381Y-58904819D01*
X145452381Y-58904819D02*
X145547619Y-58952438D01*
X145547619Y-58952438D02*
X145595238Y-59000057D01*
X145595238Y-59000057D02*
X145642857Y-59095295D01*
X145642857Y-59095295D02*
X145642857Y-59190533D01*
X145642857Y-59190533D02*
X145595238Y-59333390D01*
X145595238Y-59333390D02*
X145023810Y-59904819D01*
X145023810Y-59904819D02*
X145642857Y-59904819D01*
X114266666Y-122154819D02*
X114266666Y-122869104D01*
X114266666Y-122869104D02*
X114219047Y-123011961D01*
X114219047Y-123011961D02*
X114123809Y-123107200D01*
X114123809Y-123107200D02*
X113980952Y-123154819D01*
X113980952Y-123154819D02*
X113885714Y-123154819D01*
X114647619Y-122154819D02*
X115266666Y-122154819D01*
X115266666Y-122154819D02*
X114933333Y-122535771D01*
X114933333Y-122535771D02*
X115076190Y-122535771D01*
X115076190Y-122535771D02*
X115171428Y-122583390D01*
X115171428Y-122583390D02*
X115219047Y-122631009D01*
X115219047Y-122631009D02*
X115266666Y-122726247D01*
X115266666Y-122726247D02*
X115266666Y-122964342D01*
X115266666Y-122964342D02*
X115219047Y-123059580D01*
X115219047Y-123059580D02*
X115171428Y-123107200D01*
X115171428Y-123107200D02*
X115076190Y-123154819D01*
X115076190Y-123154819D02*
X114790476Y-123154819D01*
X114790476Y-123154819D02*
X114695238Y-123107200D01*
X114695238Y-123107200D02*
X114647619Y-123059580D01*
X174090476Y-93154819D02*
X174090476Y-93869104D01*
X174090476Y-93869104D02*
X174042857Y-94011961D01*
X174042857Y-94011961D02*
X173947619Y-94107200D01*
X173947619Y-94107200D02*
X173804762Y-94154819D01*
X173804762Y-94154819D02*
X173709524Y-94154819D01*
X175090476Y-94154819D02*
X174519048Y-94154819D01*
X174804762Y-94154819D02*
X174804762Y-93154819D01*
X174804762Y-93154819D02*
X174709524Y-93297676D01*
X174709524Y-93297676D02*
X174614286Y-93392914D01*
X174614286Y-93392914D02*
X174519048Y-93440533D01*
X175423810Y-93154819D02*
X176042857Y-93154819D01*
X176042857Y-93154819D02*
X175709524Y-93535771D01*
X175709524Y-93535771D02*
X175852381Y-93535771D01*
X175852381Y-93535771D02*
X175947619Y-93583390D01*
X175947619Y-93583390D02*
X175995238Y-93631009D01*
X175995238Y-93631009D02*
X176042857Y-93726247D01*
X176042857Y-93726247D02*
X176042857Y-93964342D01*
X176042857Y-93964342D02*
X175995238Y-94059580D01*
X175995238Y-94059580D02*
X175947619Y-94107200D01*
X175947619Y-94107200D02*
X175852381Y-94154819D01*
X175852381Y-94154819D02*
X175566667Y-94154819D01*
X175566667Y-94154819D02*
X175471429Y-94107200D01*
X175471429Y-94107200D02*
X175423810Y-94059580D01*
X114166666Y-90654819D02*
X114166666Y-91369104D01*
X114166666Y-91369104D02*
X114119047Y-91511961D01*
X114119047Y-91511961D02*
X114023809Y-91607200D01*
X114023809Y-91607200D02*
X113880952Y-91654819D01*
X113880952Y-91654819D02*
X113785714Y-91654819D01*
X115071428Y-90988152D02*
X115071428Y-91654819D01*
X114833333Y-90607200D02*
X114595238Y-91321485D01*
X114595238Y-91321485D02*
X115214285Y-91321485D01*
X143390476Y-101154819D02*
X143390476Y-101869104D01*
X143390476Y-101869104D02*
X143342857Y-102011961D01*
X143342857Y-102011961D02*
X143247619Y-102107200D01*
X143247619Y-102107200D02*
X143104762Y-102154819D01*
X143104762Y-102154819D02*
X143009524Y-102154819D01*
X144390476Y-102154819D02*
X143819048Y-102154819D01*
X144104762Y-102154819D02*
X144104762Y-101154819D01*
X144104762Y-101154819D02*
X144009524Y-101297676D01*
X144009524Y-101297676D02*
X143914286Y-101392914D01*
X143914286Y-101392914D02*
X143819048Y-101440533D01*
X144771429Y-101250057D02*
X144819048Y-101202438D01*
X144819048Y-101202438D02*
X144914286Y-101154819D01*
X144914286Y-101154819D02*
X145152381Y-101154819D01*
X145152381Y-101154819D02*
X145247619Y-101202438D01*
X145247619Y-101202438D02*
X145295238Y-101250057D01*
X145295238Y-101250057D02*
X145342857Y-101345295D01*
X145342857Y-101345295D02*
X145342857Y-101440533D01*
X145342857Y-101440533D02*
X145295238Y-101583390D01*
X145295238Y-101583390D02*
X144723810Y-102154819D01*
X144723810Y-102154819D02*
X145342857Y-102154819D01*
X143390476Y-80154819D02*
X143390476Y-80869104D01*
X143390476Y-80869104D02*
X143342857Y-81011961D01*
X143342857Y-81011961D02*
X143247619Y-81107200D01*
X143247619Y-81107200D02*
X143104762Y-81154819D01*
X143104762Y-81154819D02*
X143009524Y-81154819D01*
X144390476Y-81154819D02*
X143819048Y-81154819D01*
X144104762Y-81154819D02*
X144104762Y-80154819D01*
X144104762Y-80154819D02*
X144009524Y-80297676D01*
X144009524Y-80297676D02*
X143914286Y-80392914D01*
X143914286Y-80392914D02*
X143819048Y-80440533D01*
X145342857Y-81154819D02*
X144771429Y-81154819D01*
X145057143Y-81154819D02*
X145057143Y-80154819D01*
X145057143Y-80154819D02*
X144961905Y-80297676D01*
X144961905Y-80297676D02*
X144866667Y-80392914D01*
X144866667Y-80392914D02*
X144771429Y-80440533D01*
X114366666Y-58654819D02*
X114366666Y-59369104D01*
X114366666Y-59369104D02*
X114319047Y-59511961D01*
X114319047Y-59511961D02*
X114223809Y-59607200D01*
X114223809Y-59607200D02*
X114080952Y-59654819D01*
X114080952Y-59654819D02*
X113985714Y-59654819D01*
X115271428Y-58654819D02*
X115080952Y-58654819D01*
X115080952Y-58654819D02*
X114985714Y-58702438D01*
X114985714Y-58702438D02*
X114938095Y-58750057D01*
X114938095Y-58750057D02*
X114842857Y-58892914D01*
X114842857Y-58892914D02*
X114795238Y-59083390D01*
X114795238Y-59083390D02*
X114795238Y-59464342D01*
X114795238Y-59464342D02*
X114842857Y-59559580D01*
X114842857Y-59559580D02*
X114890476Y-59607200D01*
X114890476Y-59607200D02*
X114985714Y-59654819D01*
X114985714Y-59654819D02*
X115176190Y-59654819D01*
X115176190Y-59654819D02*
X115271428Y-59607200D01*
X115271428Y-59607200D02*
X115319047Y-59559580D01*
X115319047Y-59559580D02*
X115366666Y-59464342D01*
X115366666Y-59464342D02*
X115366666Y-59226247D01*
X115366666Y-59226247D02*
X115319047Y-59131009D01*
X115319047Y-59131009D02*
X115271428Y-59083390D01*
X115271428Y-59083390D02*
X115176190Y-59035771D01*
X115176190Y-59035771D02*
X114985714Y-59035771D01*
X114985714Y-59035771D02*
X114890476Y-59083390D01*
X114890476Y-59083390D02*
X114842857Y-59131009D01*
X114842857Y-59131009D02*
X114795238Y-59226247D01*
D14*
%TO.C,J23*%
X97282879Y-147602848D02*
X97282879Y-141992848D01*
X98132879Y-147602848D02*
X97282879Y-147602848D01*
X98132879Y-155302848D02*
X98132879Y-147602848D01*
X107592879Y-137882848D02*
X103852879Y-137882848D01*
X112152879Y-155302848D02*
X98132879Y-155302848D01*
X112152879Y-155302848D02*
X112152879Y-147602848D01*
X113002879Y-147602848D02*
X112152879Y-147602848D01*
X113002879Y-147602848D02*
X113002879Y-141992848D01*
X97282879Y-141992848D02*
G75*
G02*
X99276073Y-138469890I4110000J0D01*
G01*
X110132779Y-138034130D02*
G75*
G02*
X113002879Y-141992848I-1239898J-3918716D01*
G01*
%TO.C,J38*%
X96896969Y-23620728D02*
X96896969Y-37930728D01*
X96896969Y-23620728D02*
X112616969Y-23620728D01*
X103466969Y-42040728D02*
X107206969Y-42040728D01*
X112616969Y-23620728D02*
X112616969Y-37930728D01*
X98890163Y-41453686D02*
G75*
G02*
X96896969Y-37930728I2116805J3522957D01*
G01*
X112616969Y-37930728D02*
G75*
G02*
X109708617Y-41861141I-4110000J0D01*
G01*
%TO.C,J33*%
X149591667Y-23658878D02*
X149591667Y-37968878D01*
X149591667Y-23658878D02*
X165311667Y-23658878D01*
X156161667Y-42078878D02*
X159901667Y-42078878D01*
X165311667Y-23658878D02*
X165311667Y-37968878D01*
X151584861Y-41491836D02*
G75*
G02*
X149591667Y-37968878I2116805J3522957D01*
G01*
X165311667Y-37968878D02*
G75*
G02*
X162403315Y-41899291I-4110000J0D01*
G01*
%TO.C,J21*%
X136650000Y-52400000D02*
X136650000Y-55550000D01*
X136650000Y-55550000D02*
X139500000Y-58150000D01*
X139500000Y-49850000D02*
X136650000Y-52400000D01*
X139500000Y-58150000D02*
X152350000Y-58150000D01*
X152350000Y-49850000D02*
X139500000Y-49850000D01*
X152350000Y-58150000D02*
X152350000Y-49850000D01*
%TO.C,J18*%
X167103731Y-147601046D02*
X167103731Y-141991046D01*
X167953731Y-147601046D02*
X167103731Y-147601046D01*
X167953731Y-155301046D02*
X167953731Y-147601046D01*
X177413731Y-137881046D02*
X173673731Y-137881046D01*
X181973731Y-155301046D02*
X167953731Y-155301046D01*
X181973731Y-155301046D02*
X181973731Y-147601046D01*
X182823731Y-147601046D02*
X181973731Y-147601046D01*
X182823731Y-147601046D02*
X182823731Y-141991046D01*
X167103731Y-141991046D02*
G75*
G02*
X169096925Y-138468088I4110000J0D01*
G01*
X179953631Y-138032328D02*
G75*
G02*
X182823731Y-141991046I-1239898J-3918716D01*
G01*
%TO.C,J30*%
X167150000Y-49900000D02*
X167150000Y-53050000D01*
X167150000Y-53050000D02*
X170000000Y-55650000D01*
X170000000Y-47350000D02*
X167150000Y-49900000D01*
X170000000Y-55650000D02*
X182850000Y-55650000D01*
X182850000Y-47350000D02*
X170000000Y-47350000D01*
X182850000Y-55650000D02*
X182850000Y-47350000D01*
%TO.C,J25*%
X136350000Y-115900000D02*
X136350000Y-119050000D01*
X136350000Y-119050000D02*
X139200000Y-121650000D01*
X139200000Y-113350000D02*
X136350000Y-115900000D01*
X139200000Y-121650000D02*
X152050000Y-121650000D01*
X152050000Y-113350000D02*
X139200000Y-113350000D01*
X152050000Y-121650000D02*
X152050000Y-113350000D01*
%TO.C,J41*%
X87790000Y-98210000D02*
X87790000Y-92790000D01*
X96510000Y-92790000D02*
X87790000Y-92790000D01*
X96510000Y-98210000D02*
X87790000Y-98210000D01*
X98210000Y-94090000D02*
X96510000Y-92790000D01*
X98210000Y-96910000D02*
X96510000Y-98210000D01*
X98210000Y-96910000D02*
X98210000Y-94090000D01*
%TO.C,J15*%
X149680791Y-147580395D02*
X149680791Y-141970395D01*
X150530791Y-147580395D02*
X149680791Y-147580395D01*
X150530791Y-155280395D02*
X150530791Y-147580395D01*
X159990791Y-137860395D02*
X156250791Y-137860395D01*
X164550791Y-155280395D02*
X150530791Y-155280395D01*
X164550791Y-155280395D02*
X164550791Y-147580395D01*
X165400791Y-147580395D02*
X164550791Y-147580395D01*
X165400791Y-147580395D02*
X165400791Y-141970395D01*
X149680791Y-141970395D02*
G75*
G02*
X151673985Y-138447437I4110000J0D01*
G01*
X162530691Y-138011677D02*
G75*
G02*
X165400791Y-141970395I-1239898J-3918716D01*
G01*
%TO.C,J17*%
X167050000Y-118150000D02*
X167050000Y-121300000D01*
X167050000Y-121300000D02*
X169900000Y-123900000D01*
X169900000Y-115600000D02*
X167050000Y-118150000D01*
X169900000Y-123900000D02*
X182750000Y-123900000D01*
X182750000Y-115600000D02*
X169900000Y-115600000D01*
X182750000Y-123900000D02*
X182750000Y-115600000D01*
%TO.C,J8*%
X106750000Y-84150000D02*
X106750000Y-87300000D01*
X106750000Y-87300000D02*
X109600000Y-89900000D01*
X109600000Y-81600000D02*
X106750000Y-84150000D01*
X109600000Y-89900000D02*
X122450000Y-89900000D01*
X122450000Y-81600000D02*
X109600000Y-81600000D01*
X122450000Y-89900000D02*
X122450000Y-81600000D01*
%TO.C,J19*%
X167150000Y-81900000D02*
X167150000Y-85050000D01*
X167150000Y-85050000D02*
X170000000Y-87650000D01*
X170000000Y-79350000D02*
X167150000Y-81900000D01*
X170000000Y-87650000D02*
X182850000Y-87650000D01*
X182850000Y-79350000D02*
X170000000Y-79350000D01*
X182850000Y-87650000D02*
X182850000Y-79350000D01*
%TO.C,J24*%
X136450000Y-73900000D02*
X136450000Y-77050000D01*
X136450000Y-77050000D02*
X139300000Y-79650000D01*
X139300000Y-71350000D02*
X136450000Y-73900000D01*
X139300000Y-79650000D02*
X152150000Y-79650000D01*
X152150000Y-71350000D02*
X139300000Y-71350000D01*
X152150000Y-79650000D02*
X152150000Y-71350000D01*
%TO.C,J5*%
X106850000Y-52400000D02*
X106850000Y-55550000D01*
X106850000Y-55550000D02*
X109700000Y-58150000D01*
X109700000Y-49850000D02*
X106850000Y-52400000D01*
X109700000Y-58150000D02*
X122550000Y-58150000D01*
X122550000Y-49850000D02*
X109700000Y-49850000D01*
X122550000Y-58150000D02*
X122550000Y-49850000D01*
%TO.C,J9*%
X132389999Y-147580395D02*
X132389999Y-141970395D01*
X133239999Y-147580395D02*
X132389999Y-147580395D01*
X133239999Y-155280395D02*
X133239999Y-147580395D01*
X142699999Y-137860395D02*
X138959999Y-137860395D01*
X147259999Y-155280395D02*
X133239999Y-155280395D01*
X147259999Y-155280395D02*
X147259999Y-147580395D01*
X148109999Y-147580395D02*
X147259999Y-147580395D01*
X148109999Y-147580395D02*
X148109999Y-141970395D01*
X132389999Y-141970395D02*
G75*
G02*
X134383193Y-138447437I4110000J0D01*
G01*
X145239899Y-138011677D02*
G75*
G02*
X148109999Y-141970395I-1239898J-3918716D01*
G01*
%TO.C,J29*%
X114449660Y-23696960D02*
X114449660Y-38006960D01*
X114449660Y-23696960D02*
X130169660Y-23696960D01*
X121019660Y-42116960D02*
X124759660Y-42116960D01*
X130169660Y-23696960D02*
X130169660Y-38006960D01*
X116442854Y-41529918D02*
G75*
G02*
X114449660Y-38006960I2116805J3522957D01*
G01*
X130169660Y-38006960D02*
G75*
G02*
X127261308Y-41937373I-4110000J0D01*
G01*
%TO.C,J16*%
X167150000Y-128650000D02*
X167150000Y-131800000D01*
X167150000Y-131800000D02*
X170000000Y-134400000D01*
X170000000Y-126100000D02*
X167150000Y-128650000D01*
X170000000Y-134400000D02*
X182850000Y-134400000D01*
X182850000Y-126100000D02*
X170000000Y-126100000D01*
X182850000Y-134400000D02*
X182850000Y-126100000D01*
%TO.C,J34*%
X87790000Y-66210000D02*
X87790000Y-60790000D01*
X96510000Y-60790000D02*
X87790000Y-60790000D01*
X96510000Y-66210000D02*
X87790000Y-66210000D01*
X98210000Y-62090000D02*
X96510000Y-60790000D01*
X98210000Y-64910000D02*
X96510000Y-66210000D01*
X98210000Y-64910000D02*
X98210000Y-62090000D01*
%TO.C,J32*%
X167140000Y-23690000D02*
X167140000Y-38000000D01*
X167140000Y-23690000D02*
X182860000Y-23690000D01*
X173710000Y-42110000D02*
X177450000Y-42110000D01*
X182860000Y-23690000D02*
X182860000Y-38000000D01*
X169133194Y-41522958D02*
G75*
G02*
X167140000Y-38000000I2116805J3522957D01*
G01*
X182860000Y-38000000D02*
G75*
G02*
X179951648Y-41930413I-4110000J0D01*
G01*
%TO.C,J31*%
X167150000Y-60900000D02*
X167150000Y-64050000D01*
X167150000Y-64050000D02*
X170000000Y-66650000D01*
X170000000Y-58350000D02*
X167150000Y-60900000D01*
X170000000Y-66650000D02*
X182850000Y-66650000D01*
X182850000Y-58350000D02*
X170000000Y-58350000D01*
X182850000Y-66650000D02*
X182850000Y-58350000D01*
%TO.C,J7*%
X106850000Y-73400000D02*
X106850000Y-76550000D01*
X106850000Y-76550000D02*
X109700000Y-79150000D01*
X109700000Y-70850000D02*
X106850000Y-73400000D01*
X109700000Y-79150000D02*
X122550000Y-79150000D01*
X122550000Y-70850000D02*
X109700000Y-70850000D01*
X122550000Y-79150000D02*
X122550000Y-70850000D01*
%TO.C,J14*%
X167050000Y-107650000D02*
X167050000Y-110800000D01*
X167050000Y-110800000D02*
X169900000Y-113400000D01*
X169900000Y-105100000D02*
X167050000Y-107650000D01*
X169900000Y-113400000D02*
X182750000Y-113400000D01*
X182750000Y-105100000D02*
X169900000Y-105100000D01*
X182750000Y-113400000D02*
X182750000Y-105100000D01*
%TO.C,J10*%
X114821164Y-147610919D02*
X114821164Y-142000919D01*
X115671164Y-147610919D02*
X114821164Y-147610919D01*
X115671164Y-155310919D02*
X115671164Y-147610919D01*
X125131164Y-137890919D02*
X121391164Y-137890919D01*
X129691164Y-155310919D02*
X115671164Y-155310919D01*
X129691164Y-155310919D02*
X129691164Y-147610919D01*
X130541164Y-147610919D02*
X129691164Y-147610919D01*
X130541164Y-147610919D02*
X130541164Y-142000919D01*
X114821164Y-142000919D02*
G75*
G02*
X116814358Y-138477961I4110000J0D01*
G01*
X127671064Y-138042201D02*
G75*
G02*
X130541164Y-142000919I-1239898J-3918716D01*
G01*
%TO.C,J2*%
X106650000Y-115900000D02*
X106650000Y-119050000D01*
X106650000Y-119050000D02*
X109500000Y-121650000D01*
X109500000Y-113350000D02*
X106650000Y-115900000D01*
X109500000Y-121650000D02*
X122350000Y-121650000D01*
X122350000Y-113350000D02*
X109500000Y-113350000D01*
X122350000Y-121650000D02*
X122350000Y-113350000D01*
%TO.C,J20*%
X167050000Y-71400000D02*
X167050000Y-74550000D01*
X167050000Y-74550000D02*
X169900000Y-77150000D01*
X169900000Y-68850000D02*
X167050000Y-71400000D01*
X169900000Y-77150000D02*
X182750000Y-77150000D01*
X182750000Y-68850000D02*
X169900000Y-68850000D01*
X182750000Y-77150000D02*
X182750000Y-68850000D01*
%TO.C,J28*%
X136350000Y-94900000D02*
X136350000Y-98050000D01*
X136350000Y-98050000D02*
X139200000Y-100650000D01*
X139200000Y-92350000D02*
X136350000Y-94900000D01*
X139200000Y-100650000D02*
X152050000Y-100650000D01*
X152050000Y-92350000D02*
X139200000Y-92350000D01*
X152050000Y-100650000D02*
X152050000Y-92350000D01*
%TO.C,J1*%
X106650000Y-105400000D02*
X106650000Y-108550000D01*
X106650000Y-108550000D02*
X109500000Y-111150000D01*
X109500000Y-102850000D02*
X106650000Y-105400000D01*
X109500000Y-111150000D02*
X122350000Y-111150000D01*
X122350000Y-102850000D02*
X109500000Y-102850000D01*
X122350000Y-111150000D02*
X122350000Y-102850000D01*
%TO.C,J36*%
X87790000Y-82210000D02*
X87790000Y-76790000D01*
X96510000Y-76790000D02*
X87790000Y-76790000D01*
X96510000Y-82210000D02*
X87790000Y-82210000D01*
X98210000Y-78090000D02*
X96510000Y-76790000D01*
X98210000Y-80910000D02*
X96510000Y-82210000D01*
X98210000Y-80910000D02*
X98210000Y-78090000D01*
%TO.C,J26*%
X136250000Y-126400000D02*
X136250000Y-129550000D01*
X136250000Y-129550000D02*
X139100000Y-132150000D01*
X139100000Y-123850000D02*
X136250000Y-126400000D01*
X139100000Y-132150000D02*
X151950000Y-132150000D01*
X151950000Y-123850000D02*
X139100000Y-123850000D01*
X151950000Y-132150000D02*
X151950000Y-123850000D01*
%TO.C,J37*%
X87790000Y-90210000D02*
X87790000Y-84790000D01*
X96510000Y-84790000D02*
X87790000Y-84790000D01*
X96510000Y-90210000D02*
X87790000Y-90210000D01*
X98210000Y-86090000D02*
X96510000Y-84790000D01*
X98210000Y-88910000D02*
X96510000Y-90210000D01*
X98210000Y-88910000D02*
X98210000Y-86090000D01*
%TO.C,J45*%
X87790000Y-122210000D02*
X87790000Y-116790000D01*
X96510000Y-116790000D02*
X87790000Y-116790000D01*
X96510000Y-122210000D02*
X87790000Y-122210000D01*
X98210000Y-118090000D02*
X96510000Y-116790000D01*
X98210000Y-120910000D02*
X96510000Y-122210000D01*
X98210000Y-120910000D02*
X98210000Y-118090000D01*
%TO.C,J43*%
X87790000Y-114210000D02*
X87790000Y-108790000D01*
X96510000Y-108790000D02*
X87790000Y-108790000D01*
X96510000Y-114210000D02*
X87790000Y-114210000D01*
X98210000Y-110090000D02*
X96510000Y-108790000D01*
X98210000Y-112910000D02*
X96510000Y-114210000D01*
X98210000Y-112910000D02*
X98210000Y-110090000D01*
%TO.C,J42*%
X87790000Y-106210000D02*
X87790000Y-100790000D01*
X96510000Y-100790000D02*
X87790000Y-100790000D01*
X96510000Y-106210000D02*
X87790000Y-106210000D01*
X98210000Y-102090000D02*
X96510000Y-100790000D01*
X98210000Y-104910000D02*
X96510000Y-106210000D01*
X98210000Y-104910000D02*
X98210000Y-102090000D01*
%TO.C,J27*%
X132146969Y-23620728D02*
X132146969Y-37930728D01*
X132146969Y-23620728D02*
X147866969Y-23620728D01*
X138716969Y-42040728D02*
X142456969Y-42040728D01*
X147866969Y-23620728D02*
X147866969Y-37930728D01*
X134140163Y-41453686D02*
G75*
G02*
X132146969Y-37930728I2116805J3522957D01*
G01*
X147866969Y-37930728D02*
G75*
G02*
X144958617Y-41861141I-4110000J0D01*
G01*
%TO.C,J35*%
X87790000Y-74210000D02*
X87790000Y-68790000D01*
X96510000Y-68790000D02*
X87790000Y-68790000D01*
X96510000Y-74210000D02*
X87790000Y-74210000D01*
X98210000Y-70090000D02*
X96510000Y-68790000D01*
X98210000Y-72910000D02*
X96510000Y-74210000D01*
X98210000Y-72910000D02*
X98210000Y-70090000D01*
%TO.C,J22*%
X136650000Y-63150000D02*
X136650000Y-66300000D01*
X136650000Y-66300000D02*
X139500000Y-68900000D01*
X139500000Y-60600000D02*
X136650000Y-63150000D01*
X139500000Y-68900000D02*
X152350000Y-68900000D01*
X152350000Y-60600000D02*
X139500000Y-60600000D01*
X152350000Y-68900000D02*
X152350000Y-60600000D01*
%TO.C,J3*%
X106750000Y-126400000D02*
X106750000Y-129550000D01*
X106750000Y-129550000D02*
X109600000Y-132150000D01*
X109600000Y-123850000D02*
X106750000Y-126400000D01*
X109600000Y-132150000D02*
X122450000Y-132150000D01*
X122450000Y-123850000D02*
X109600000Y-123850000D01*
X122450000Y-132150000D02*
X122450000Y-123850000D01*
%TO.C,J13*%
X167050000Y-97400000D02*
X167050000Y-100550000D01*
X167050000Y-100550000D02*
X169900000Y-103150000D01*
X169900000Y-94850000D02*
X167050000Y-97400000D01*
X169900000Y-103150000D02*
X182750000Y-103150000D01*
X182750000Y-94850000D02*
X169900000Y-94850000D01*
X182750000Y-103150000D02*
X182750000Y-94850000D01*
%TO.C,J4*%
X106650000Y-94900000D02*
X106650000Y-98050000D01*
X106650000Y-98050000D02*
X109500000Y-100650000D01*
X109500000Y-92350000D02*
X106650000Y-94900000D01*
X109500000Y-100650000D02*
X122350000Y-100650000D01*
X122350000Y-92350000D02*
X109500000Y-92350000D01*
X122350000Y-100650000D02*
X122350000Y-92350000D01*
%TO.C,J12*%
X136350000Y-105400000D02*
X136350000Y-108550000D01*
X136350000Y-108550000D02*
X139200000Y-111150000D01*
X139200000Y-102850000D02*
X136350000Y-105400000D01*
X139200000Y-111150000D02*
X152050000Y-111150000D01*
X152050000Y-102850000D02*
X139200000Y-102850000D01*
X152050000Y-111150000D02*
X152050000Y-102850000D01*
%TO.C,J11*%
X136350000Y-84400000D02*
X136350000Y-87550000D01*
X136350000Y-87550000D02*
X139200000Y-90150000D01*
X139200000Y-81850000D02*
X136350000Y-84400000D01*
X139200000Y-90150000D02*
X152050000Y-90150000D01*
X152050000Y-81850000D02*
X139200000Y-81850000D01*
X152050000Y-90150000D02*
X152050000Y-81850000D01*
%TO.C,J6*%
X106850000Y-62900000D02*
X106850000Y-66050000D01*
X106850000Y-66050000D02*
X109700000Y-68650000D01*
X109700000Y-60350000D02*
X106850000Y-62900000D01*
X109700000Y-68650000D02*
X122550000Y-68650000D01*
X122550000Y-60350000D02*
X109700000Y-60350000D01*
X122550000Y-68650000D02*
X122550000Y-60350000D01*
%TD*%
M02*
