%TF.GenerationSoftware,KiCad,Pcbnew,8.0.4*%
%TF.CreationDate,2024-08-03T01:14:57+02:00*%
%TF.ProjectId,terminal_block,7465726d-696e-4616-9c5f-626c6f636b2e,1*%
%TF.SameCoordinates,Original*%
%TF.FileFunction,Drillmap*%
%TF.FilePolarity,Positive*%
%FSLAX45Y45*%
G04 Gerber Fmt 4.5, Leading zero omitted, Abs format (unit mm)*
G04 Created by KiCad (PCBNEW 8.0.4) date 2024-08-03 01:14:57*
%MOMM*%
%LPD*%
G01*
G04 APERTURE LIST*
%ADD10C,0.100000*%
%ADD11C,0.200000*%
G04 APERTURE END LIST*
D10*
X10319850Y-13890049D02*
G75*
G02*
X10019851Y-13590049I0J299999D01*
G01*
X10020000Y-5390000D02*
X10019850Y-13590049D01*
X18221358Y-13590512D02*
G75*
G02*
X17931192Y-13890511I-300168J2D01*
G01*
X17917868Y-5092132D02*
X10320000Y-5090000D01*
X18221358Y-13590512D02*
X18217868Y-5392132D01*
X10020000Y-5390000D02*
G75*
G02*
X10320000Y-5090000I300000J0D01*
G01*
X10319850Y-13890049D02*
X17931192Y-13890512D01*
X17917868Y-5092132D02*
G75*
G02*
X18217868Y-5392132I2J-299998D01*
G01*
D11*
X10275627Y-14206996D02*
X10275627Y-14006996D01*
X10275627Y-14006996D02*
X10323246Y-14006996D01*
X10323246Y-14006996D02*
X10351817Y-14016520D01*
X10351817Y-14016520D02*
X10370865Y-14035567D01*
X10370865Y-14035567D02*
X10380388Y-14054615D01*
X10380388Y-14054615D02*
X10389912Y-14092710D01*
X10389912Y-14092710D02*
X10389912Y-14121282D01*
X10389912Y-14121282D02*
X10380388Y-14159377D01*
X10380388Y-14159377D02*
X10370865Y-14178424D01*
X10370865Y-14178424D02*
X10351817Y-14197472D01*
X10351817Y-14197472D02*
X10323246Y-14206996D01*
X10323246Y-14206996D02*
X10275627Y-14206996D01*
X10475627Y-14206996D02*
X10475627Y-14073662D01*
X10475627Y-14111758D02*
X10485150Y-14092710D01*
X10485150Y-14092710D02*
X10494674Y-14083186D01*
X10494674Y-14083186D02*
X10513722Y-14073662D01*
X10513722Y-14073662D02*
X10532769Y-14073662D01*
X10599436Y-14206996D02*
X10599436Y-14073662D01*
X10599436Y-14006996D02*
X10589912Y-14016520D01*
X10589912Y-14016520D02*
X10599436Y-14026043D01*
X10599436Y-14026043D02*
X10608960Y-14016520D01*
X10608960Y-14016520D02*
X10599436Y-14006996D01*
X10599436Y-14006996D02*
X10599436Y-14026043D01*
X10723246Y-14206996D02*
X10704198Y-14197472D01*
X10704198Y-14197472D02*
X10694674Y-14178424D01*
X10694674Y-14178424D02*
X10694674Y-14006996D01*
X10828007Y-14206996D02*
X10808960Y-14197472D01*
X10808960Y-14197472D02*
X10799436Y-14178424D01*
X10799436Y-14178424D02*
X10799436Y-14006996D01*
X11056579Y-14206996D02*
X11056579Y-14006996D01*
X11056579Y-14006996D02*
X11123246Y-14149853D01*
X11123246Y-14149853D02*
X11189912Y-14006996D01*
X11189912Y-14006996D02*
X11189912Y-14206996D01*
X11370865Y-14206996D02*
X11370865Y-14102234D01*
X11370865Y-14102234D02*
X11361341Y-14083186D01*
X11361341Y-14083186D02*
X11342293Y-14073662D01*
X11342293Y-14073662D02*
X11304198Y-14073662D01*
X11304198Y-14073662D02*
X11285150Y-14083186D01*
X11370865Y-14197472D02*
X11351817Y-14206996D01*
X11351817Y-14206996D02*
X11304198Y-14206996D01*
X11304198Y-14206996D02*
X11285150Y-14197472D01*
X11285150Y-14197472D02*
X11275626Y-14178424D01*
X11275626Y-14178424D02*
X11275626Y-14159377D01*
X11275626Y-14159377D02*
X11285150Y-14140329D01*
X11285150Y-14140329D02*
X11304198Y-14130805D01*
X11304198Y-14130805D02*
X11351817Y-14130805D01*
X11351817Y-14130805D02*
X11370865Y-14121282D01*
X11466103Y-14073662D02*
X11466103Y-14273662D01*
X11466103Y-14083186D02*
X11485150Y-14073662D01*
X11485150Y-14073662D02*
X11523246Y-14073662D01*
X11523246Y-14073662D02*
X11542293Y-14083186D01*
X11542293Y-14083186D02*
X11551817Y-14092710D01*
X11551817Y-14092710D02*
X11561341Y-14111758D01*
X11561341Y-14111758D02*
X11561341Y-14168901D01*
X11561341Y-14168901D02*
X11551817Y-14187948D01*
X11551817Y-14187948D02*
X11542293Y-14197472D01*
X11542293Y-14197472D02*
X11523246Y-14206996D01*
X11523246Y-14206996D02*
X11485150Y-14206996D01*
X11485150Y-14206996D02*
X11466103Y-14197472D01*
X11647055Y-14187948D02*
X11656579Y-14197472D01*
X11656579Y-14197472D02*
X11647055Y-14206996D01*
X11647055Y-14206996D02*
X11637531Y-14197472D01*
X11637531Y-14197472D02*
X11647055Y-14187948D01*
X11647055Y-14187948D02*
X11647055Y-14206996D01*
X11647055Y-14083186D02*
X11656579Y-14092710D01*
X11656579Y-14092710D02*
X11647055Y-14102234D01*
X11647055Y-14102234D02*
X11637531Y-14092710D01*
X11637531Y-14092710D02*
X11647055Y-14083186D01*
X11647055Y-14083186D02*
X11647055Y-14102234D01*
M02*
