%TF.GenerationSoftware,KiCad,Pcbnew,8.0.4*%
%TF.CreationDate,2024-08-03T01:45:31+02:00*%
%TF.ProjectId,terminal_block,7465726d-696e-4616-9c5f-626c6f636b2e,1*%
%TF.SameCoordinates,Original*%
%TF.FileFunction,Drillmap*%
%TF.FilePolarity,Positive*%
%FSLAX45Y45*%
G04 Gerber Fmt 4.5, Leading zero omitted, Abs format (unit mm)*
G04 Created by KiCad (PCBNEW 8.0.4) date 2024-08-03 01:45:31*
%MOMM*%
%LPD*%
G01*
G04 APERTURE LIST*
%ADD10C,0.100000*%
%ADD11C,0.200000*%
G04 APERTURE END LIST*
D10*
X12249850Y-13740049D02*
G75*
G02*
X11949851Y-13440049I0J299999D01*
G01*
X11950000Y-5240000D02*
X11949850Y-13440049D01*
X20151358Y-13440512D02*
G75*
G02*
X19861192Y-13740511I-300168J2D01*
G01*
X19847868Y-4942132D02*
X12250000Y-4940000D01*
X20151358Y-13440512D02*
X20147868Y-5242132D01*
X11950000Y-5240000D02*
G75*
G02*
X12250000Y-4940000I300000J0D01*
G01*
X12249850Y-13740049D02*
X19861192Y-13740512D01*
X19847868Y-4942132D02*
G75*
G02*
X20147868Y-5242132I2J-299998D01*
G01*
D11*
X12205626Y-14056996D02*
X12205626Y-13856996D01*
X12205626Y-13856996D02*
X12253245Y-13856996D01*
X12253245Y-13856996D02*
X12281817Y-13866520D01*
X12281817Y-13866520D02*
X12300865Y-13885567D01*
X12300865Y-13885567D02*
X12310388Y-13904615D01*
X12310388Y-13904615D02*
X12319912Y-13942710D01*
X12319912Y-13942710D02*
X12319912Y-13971282D01*
X12319912Y-13971282D02*
X12310388Y-14009377D01*
X12310388Y-14009377D02*
X12300865Y-14028424D01*
X12300865Y-14028424D02*
X12281817Y-14047472D01*
X12281817Y-14047472D02*
X12253245Y-14056996D01*
X12253245Y-14056996D02*
X12205626Y-14056996D01*
X12405626Y-14056996D02*
X12405626Y-13923662D01*
X12405626Y-13961758D02*
X12415150Y-13942710D01*
X12415150Y-13942710D02*
X12424674Y-13933186D01*
X12424674Y-13933186D02*
X12443722Y-13923662D01*
X12443722Y-13923662D02*
X12462769Y-13923662D01*
X12529436Y-14056996D02*
X12529436Y-13923662D01*
X12529436Y-13856996D02*
X12519912Y-13866520D01*
X12519912Y-13866520D02*
X12529436Y-13876043D01*
X12529436Y-13876043D02*
X12538960Y-13866520D01*
X12538960Y-13866520D02*
X12529436Y-13856996D01*
X12529436Y-13856996D02*
X12529436Y-13876043D01*
X12653245Y-14056996D02*
X12634198Y-14047472D01*
X12634198Y-14047472D02*
X12624674Y-14028424D01*
X12624674Y-14028424D02*
X12624674Y-13856996D01*
X12758007Y-14056996D02*
X12738960Y-14047472D01*
X12738960Y-14047472D02*
X12729436Y-14028424D01*
X12729436Y-14028424D02*
X12729436Y-13856996D01*
X12986579Y-14056996D02*
X12986579Y-13856996D01*
X12986579Y-13856996D02*
X13053246Y-13999853D01*
X13053246Y-13999853D02*
X13119912Y-13856996D01*
X13119912Y-13856996D02*
X13119912Y-14056996D01*
X13300865Y-14056996D02*
X13300865Y-13952234D01*
X13300865Y-13952234D02*
X13291341Y-13933186D01*
X13291341Y-13933186D02*
X13272293Y-13923662D01*
X13272293Y-13923662D02*
X13234198Y-13923662D01*
X13234198Y-13923662D02*
X13215150Y-13933186D01*
X13300865Y-14047472D02*
X13281817Y-14056996D01*
X13281817Y-14056996D02*
X13234198Y-14056996D01*
X13234198Y-14056996D02*
X13215150Y-14047472D01*
X13215150Y-14047472D02*
X13205626Y-14028424D01*
X13205626Y-14028424D02*
X13205626Y-14009377D01*
X13205626Y-14009377D02*
X13215150Y-13990329D01*
X13215150Y-13990329D02*
X13234198Y-13980805D01*
X13234198Y-13980805D02*
X13281817Y-13980805D01*
X13281817Y-13980805D02*
X13300865Y-13971282D01*
X13396103Y-13923662D02*
X13396103Y-14123662D01*
X13396103Y-13933186D02*
X13415150Y-13923662D01*
X13415150Y-13923662D02*
X13453246Y-13923662D01*
X13453246Y-13923662D02*
X13472293Y-13933186D01*
X13472293Y-13933186D02*
X13481817Y-13942710D01*
X13481817Y-13942710D02*
X13491341Y-13961758D01*
X13491341Y-13961758D02*
X13491341Y-14018901D01*
X13491341Y-14018901D02*
X13481817Y-14037948D01*
X13481817Y-14037948D02*
X13472293Y-14047472D01*
X13472293Y-14047472D02*
X13453246Y-14056996D01*
X13453246Y-14056996D02*
X13415150Y-14056996D01*
X13415150Y-14056996D02*
X13396103Y-14047472D01*
X13577055Y-14037948D02*
X13586579Y-14047472D01*
X13586579Y-14047472D02*
X13577055Y-14056996D01*
X13577055Y-14056996D02*
X13567531Y-14047472D01*
X13567531Y-14047472D02*
X13577055Y-14037948D01*
X13577055Y-14037948D02*
X13577055Y-14056996D01*
X13577055Y-13933186D02*
X13586579Y-13942710D01*
X13586579Y-13942710D02*
X13577055Y-13952234D01*
X13577055Y-13952234D02*
X13567531Y-13942710D01*
X13567531Y-13942710D02*
X13577055Y-13933186D01*
X13577055Y-13933186D02*
X13577055Y-13952234D01*
M02*
