M48
; DRILL file {KiCad 8.0.3} date 2024-08-18T15:05:50+0200
; FORMAT={-:-/ absolute / inch / decimal}
; #@! TF.CreationDate,2024-08-18T15:05:50+02:00
; #@! TF.GenerationSoftware,Kicad,Pcbnew,8.0.3
; #@! TF.FileFunction,Plated,1,2,PTH
FMAT,2
INCH
; #@! TA.AperFunction,Plated,PTH,ViaDrill
T1C0.0157
; #@! TA.AperFunction,Plated,PTH,ComponentDrill
T2C0.0197
; #@! TA.AperFunction,Plated,PTH,ComponentDrill
T3C0.0236
; #@! TA.AperFunction,Plated,PTH,ComponentDrill
T4C0.0709
; #@! TA.AperFunction,Plated,PTH,ComponentDrill
T5C0.1063
; #@! TA.AperFunction,Plated,PTH,ComponentDrill
T6C0.1260
; #@! TA.AperFunction,Plated,PTH,ComponentDrill
T7C0.1772
%
G90
G05
T1
X3.4646Y-1.5945
X3.4646Y-5.6299
X3.466Y-1.4269
X3.6811Y-1.5945
X3.6811Y-5.6299
X3.6825Y-1.4269
X4.0354Y-2.1457
X4.0354Y-2.4016
X4.0354Y-2.6772
X4.0354Y-2.9724
X4.0354Y-3.248
X4.0354Y-3.5433
X4.0354Y-3.7992
X4.0354Y-4.0748
X4.0354Y-4.3307
X4.0354Y-4.6063
X4.0354Y-4.9016
X4.2717Y-1.9094
X4.4094Y-5.3346
X4.5276Y-1.8307
X4.685Y-5.3346
X4.9803Y-2.1654
X4.9803Y-2.3819
X4.9803Y-2.5984
X4.9803Y-2.8543
X4.9803Y-3.0906
X4.9803Y-3.3071
X4.9803Y-3.5236
X4.9803Y-3.7402
X4.9803Y-3.937
X4.9803Y-4.1535
X4.9803Y-4.3504
X4.9803Y-4.5669
X4.9803Y-4.7835
X5.2165Y-1.9291
X5.2165Y-3.0906
X5.2165Y-5.0591
X5.2362Y-2.1654
X5.2362Y-2.3819
X5.2362Y-2.5984
X5.2362Y-2.8346
X5.2362Y-4.3504
X5.2559Y-3.3268
X5.2559Y-3.5236
X5.2559Y-3.7402
X5.2559Y-3.937
X5.2559Y-4.1535
X5.2559Y-4.5669
X5.2559Y-4.7835
X5.2756Y-5.3346
X5.4331Y-1.811
X5.5315Y-5.3346
X6.0433Y-1.811
X6.0433Y-5.3346
X6.1417Y-2.1063
X6.1417Y-2.4115
X6.1417Y-2.6969
X6.1417Y-2.9724
X6.1417Y-3.2677
X6.1417Y-3.4843
X6.1417Y-3.6811
X6.1417Y-3.9311
X6.1417Y-4.1732
X6.1417Y-4.407
X6.1417Y-4.6832
X6.1417Y-4.9495
X6.2598Y-3.5827
X6.5097Y-4.0954
X6.5097Y-4.5048
X6.5111Y-2.2407
X6.5111Y-2.6692
X6.5111Y-3.0791
X6.5157Y-4.9213
X6.5748Y-1.811
X6.5768Y-1.7327
X6.5945Y-5.3346
X6.6932Y-1.8163
X6.6952Y-1.738
X6.8078Y-1.8163
X6.8098Y-1.738
X6.8504Y-5.3346
X6.9135Y-1.8141
X6.9155Y-1.7358
X7.0193Y-1.8141
X7.0213Y-1.7358
X7.1228Y-1.8119
X7.1249Y-1.7336
X7.2189Y-3.5972
X7.2242Y-1.8185
X7.2903Y-1.8912
X7.3057Y-2.0631
X7.3228Y-5.3346
X7.356Y-2.2473
X7.356Y-2.4187
X7.3603Y-2.5815
X7.3603Y-2.7572
X7.3622Y-5.6102
X7.3646Y-2.9501
X7.3646Y-3.1301
X7.3658Y-4.4302
X7.3689Y-3.4686
X7.3699Y-4.1113
X7.3699Y-4.7491
X7.3732Y-3.31
X7.374Y-5.0475
X7.5591Y-1.4173
X7.5591Y-1.6142
X7.5787Y-5.6102
X7.6378Y-3.8189
X7.6378Y-4.1142
X7.6378Y-4.4291
X7.6378Y-4.7441
X7.6378Y-5.0394
X7.8337Y-2.4224
X7.8337Y-3.69
X7.8346Y-1.4173
X7.8346Y-1.6142
X7.8406Y-2.9459
X7.8474Y-2.7599
X7.8474Y-3.318
X7.8474Y-3.4902
X7.8543Y-2.2432
X7.8543Y-2.5808
X7.8543Y-3.1251
T2
X3.4685Y-1.8898
X3.4685Y-5.2953
X3.4962Y-1.823
X3.4962Y-1.9566
X3.4962Y-5.2285
X3.4962Y-5.3621
X3.563Y-1.7953
X3.563Y-1.9843
X3.563Y-5.2008
X3.563Y-5.3898
X3.6298Y-1.823
X3.6298Y-1.9566
X3.6298Y-5.2285
X3.6298Y-5.3621
X3.6575Y-1.8898
X3.6575Y-5.2953
X7.6537Y-1.8898
X7.6537Y-5.2913
X7.6813Y-1.823
X7.6813Y-1.9566
X7.6813Y-5.2245
X7.6813Y-5.3582
X7.7481Y-1.7953
X7.7481Y-1.9843
X7.7481Y-5.1969
X7.7481Y-5.3858
X7.815Y-1.823
X7.815Y-1.9566
X7.815Y-5.2245
X7.815Y-5.3582
X7.8426Y-1.8898
X7.8426Y-5.2913
T4
X3.563Y-2.5
X3.563Y-2.815
X3.563Y-3.1299
X3.563Y-3.4449
X3.563Y-3.7598
X3.563Y-4.0748
X3.563Y-4.3898
X3.563Y-4.7047
X3.7598Y-2.5
X3.7598Y-2.815
X3.7598Y-3.1299
X3.7598Y-3.4449
X3.7598Y-3.7598
X3.7598Y-4.0748
X3.7598Y-4.3898
X3.7598Y-4.7047
T5
X3.9826Y-1.578
X3.9978Y-5.5056
X4.266Y-1.578
X4.2812Y-5.5056
X4.6736Y-1.581
X4.6882Y-5.5059
X4.9571Y-1.581
X4.9717Y-5.5059
X5.3704Y-1.578
X5.3799Y-5.5047
X5.6538Y-1.578
X5.6634Y-5.5047
X6.0572Y-1.5795
X6.0607Y-5.5047
X6.3406Y-1.5795
X6.3441Y-5.5047
X6.7466Y-5.5056
X6.748Y-1.5807
X7.0301Y-5.5056
X7.0315Y-1.5807
T6
X3.563Y-1.8898
X3.563Y-1.8898
X3.563Y-5.2953
X3.563Y-5.2953
X7.7481Y-1.8898
X7.7481Y-5.2913
T7
X4.3661Y-3.7992
X4.3661Y-4.2126
X4.3661Y-4.626
X4.3701Y-3.376
X4.3701Y-5.0394
X4.374Y-2.126
X4.374Y-2.5394
X4.374Y-2.9528
X4.6496Y-3.7992
X4.6496Y-4.2126
X4.6496Y-4.626
X4.6535Y-3.376
X4.6535Y-5.0394
X4.6575Y-2.126
X4.6575Y-2.5394
X4.6575Y-2.9528
X5.5315Y-5.0394
X5.5354Y-3.3858
X5.5354Y-3.7992
X5.5354Y-4.2126
X5.5354Y-4.626
X5.5394Y-2.9724
X5.5472Y-2.126
X5.5472Y-2.5492
X5.815Y-5.0394
X5.8189Y-3.3858
X5.8189Y-3.7992
X5.8189Y-4.2126
X5.8189Y-4.626
X5.8228Y-2.9724
X5.8307Y-2.126
X5.8307Y-2.5492
X6.7441Y-2.874
X6.7441Y-3.8976
X6.7441Y-4.3012
X6.7441Y-4.7146
X6.748Y-2.0276
X6.748Y-2.4606
X6.748Y-3.2874
X6.748Y-5.128
X7.0276Y-2.874
X7.0276Y-3.8976
X7.0276Y-4.3012
X7.0276Y-4.7146
X7.0315Y-2.0276
X7.0315Y-2.4606
X7.0315Y-3.2874
X7.0315Y-5.128
T3
G00X3.8585Y-1.3201
M15
G01X3.8585Y-1.3634
M16
G05
G00X3.8737Y-5.7635
M15
G01X3.8737Y-5.7202
M16
G05
G00X4.39Y-1.3201
M15
G01X4.39Y-1.3634
M16
G05
G00X4.4052Y-5.7635
M15
G01X4.4052Y-5.7202
M16
G05
G00X4.5496Y-1.3231
M15
G01X4.5496Y-1.3664
M16
G05
G00X4.5642Y-5.7638
M15
G01X4.5642Y-5.7205
M16
G05
G00X5.0811Y-1.3231
M15
G01X5.0811Y-1.3664
M16
G05
G00X5.0957Y-5.7638
M15
G01X5.0957Y-5.7205
M16
G05
G00X5.2463Y-1.3201
M15
G01X5.2463Y-1.3634
M16
G05
G00X5.2559Y-5.7626
M15
G01X5.2559Y-5.7193
M16
G05
G00X5.7778Y-1.3201
M15
G01X5.7778Y-1.3634
M16
G05
G00X5.7874Y-5.7626
M15
G01X5.7874Y-5.7193
M16
G05
G00X5.9331Y-1.3216
M15
G01X5.9331Y-1.3649
M16
G05
G00X5.9366Y-5.7626
M15
G01X5.9366Y-5.7193
M16
G05
G00X6.4646Y-1.3216
M15
G01X6.4646Y-1.3649
M16
G05
G00X6.4681Y-5.7626
M15
G01X6.4681Y-5.7193
M16
G05
G00X6.6226Y-5.7634
M15
G01X6.6226Y-5.7201
M16
G05
G00X6.624Y-1.3228
M15
G01X6.624Y-1.3661
M16
G05
G00X7.1541Y-5.7634
M15
G01X7.1541Y-5.7201
M16
G05
G00X7.1555Y-1.3228
M15
G01X7.1555Y-1.3661
M16
G05
M30
