%TF.GenerationSoftware,KiCad,Pcbnew,8.0.4*%
%TF.CreationDate,2024-08-03T01:14:57+02:00*%
%TF.ProjectId,terminal_block,7465726d-696e-4616-9c5f-626c6f636b2e,1*%
%TF.SameCoordinates,Original*%
%TF.FileFunction,Drillmap*%
%TF.FilePolarity,Positive*%
%FSLAX45Y45*%
G04 Gerber Fmt 4.5, Leading zero omitted, Abs format (unit mm)*
G04 Created by KiCad (PCBNEW 8.0.4) date 2024-08-03 01:14:57*
%MOMM*%
%LPD*%
G01*
G04 APERTURE LIST*
%ADD10C,0.100000*%
%ADD11C,0.200000*%
%ADD12C,0.180000*%
%ADD13C,0.450000*%
G04 APERTURE END LIST*
D10*
X10319850Y-13890049D02*
G75*
G02*
X10019851Y-13590049I0J299999D01*
G01*
X10020000Y-5390000D02*
X10019850Y-13590049D01*
X18221358Y-13590512D02*
G75*
G02*
X17931192Y-13890511I-300168J2D01*
G01*
X17917868Y-5092132D02*
X10320000Y-5090000D01*
X18221358Y-13590512D02*
X18217868Y-5392132D01*
X10020000Y-5390000D02*
G75*
G02*
X10320000Y-5090000I300000J0D01*
G01*
X10319850Y-13890049D02*
X17931192Y-13890512D01*
X17917868Y-5092132D02*
G75*
G02*
X18217868Y-5392132I2J-299998D01*
G01*
D11*
D12*
X10880000Y-11040000D02*
X11060000Y-11220000D01*
X11060000Y-11040000D02*
X10880000Y-11220000D01*
X10880000Y-12370000D02*
X11060000Y-12550000D01*
X11060000Y-12370000D02*
X10880000Y-12550000D01*
X10880000Y-13280000D02*
X11060000Y-13460000D01*
X11060000Y-13280000D02*
X10880000Y-13460000D01*
X11380000Y-11040000D02*
X11560000Y-11220000D01*
X11560000Y-11040000D02*
X11380000Y-11220000D01*
X11380000Y-12370000D02*
X11560000Y-12550000D01*
X11560000Y-12370000D02*
X11380000Y-12550000D01*
X11380000Y-13280000D02*
X11560000Y-13460000D01*
X11560000Y-13280000D02*
X11380000Y-13460000D01*
X12480000Y-11480000D02*
X12660000Y-11660000D01*
X12660000Y-11480000D02*
X12480000Y-11660000D01*
X12490000Y-10570000D02*
X12670000Y-10750000D01*
X12670000Y-10570000D02*
X12490000Y-10750000D01*
X12490000Y-12810000D02*
X12670000Y-12990000D01*
X12670000Y-12810000D02*
X12490000Y-12990000D01*
X12980000Y-11480000D02*
X13160000Y-11660000D01*
X13160000Y-11480000D02*
X12980000Y-11660000D01*
X12990000Y-10570000D02*
X13170000Y-10750000D01*
X13170000Y-10570000D02*
X12990000Y-10750000D01*
X12990000Y-12810000D02*
X13170000Y-12990000D01*
X13170000Y-12810000D02*
X12990000Y-12990000D01*
X14810000Y-10570000D02*
X14990000Y-10750000D01*
X14990000Y-10570000D02*
X14810000Y-10750000D01*
X14810000Y-11480000D02*
X14990000Y-11660000D01*
X14990000Y-11480000D02*
X14810000Y-11660000D01*
X14810000Y-12810000D02*
X14990000Y-12990000D01*
X14990000Y-12810000D02*
X14810000Y-12990000D01*
X15310000Y-10570000D02*
X15490000Y-10750000D01*
X15490000Y-10570000D02*
X15310000Y-10750000D01*
X15310000Y-11480000D02*
X15490000Y-11660000D01*
X15490000Y-11480000D02*
X15310000Y-11660000D01*
X15310000Y-12810000D02*
X15490000Y-12990000D01*
X15490000Y-12810000D02*
X15310000Y-12990000D01*
X16680000Y-11040000D02*
X16860000Y-11220000D01*
X16860000Y-11040000D02*
X16680000Y-11220000D01*
X16680000Y-12370000D02*
X16860000Y-12550000D01*
X16860000Y-12370000D02*
X16680000Y-12550000D01*
X16680000Y-13280000D02*
X16860000Y-13460000D01*
X16860000Y-13280000D02*
X16680000Y-13460000D01*
X17180000Y-11040000D02*
X17360000Y-11220000D01*
X17360000Y-11040000D02*
X17180000Y-11220000D01*
X17180000Y-12370000D02*
X17360000Y-12550000D01*
X17360000Y-12370000D02*
X17180000Y-12550000D01*
X17180000Y-13280000D02*
X17360000Y-13460000D01*
X17360000Y-13280000D02*
X17180000Y-13460000D01*
D13*
X11075000Y-5990000D02*
G75*
G02*
X10625000Y-5990000I-225000J0D01*
G01*
X10625000Y-5990000D02*
G75*
G02*
X11075000Y-5990000I225000J0D01*
G01*
X11075000Y-7610000D02*
G75*
G02*
X10625000Y-7610000I-225000J0D01*
G01*
X10625000Y-7610000D02*
G75*
G02*
X11075000Y-7610000I225000J0D01*
G01*
X11075000Y-8670000D02*
G75*
G02*
X10625000Y-8670000I-225000J0D01*
G01*
X10625000Y-8670000D02*
G75*
G02*
X11075000Y-8670000I225000J0D01*
G01*
X11075000Y-9730000D02*
G75*
G02*
X10625000Y-9730000I-225000J0D01*
G01*
X10625000Y-9730000D02*
G75*
G02*
X11075000Y-9730000I225000J0D01*
G01*
X11795000Y-5990000D02*
G75*
G02*
X11345000Y-5990000I-225000J0D01*
G01*
X11345000Y-5990000D02*
G75*
G02*
X11795000Y-5990000I225000J0D01*
G01*
X11795000Y-7610000D02*
G75*
G02*
X11345000Y-7610000I-225000J0D01*
G01*
X11345000Y-7610000D02*
G75*
G02*
X11795000Y-7610000I225000J0D01*
G01*
X11795000Y-8670000D02*
G75*
G02*
X11345000Y-8670000I-225000J0D01*
G01*
X11345000Y-8670000D02*
G75*
G02*
X11795000Y-8670000I225000J0D01*
G01*
X11795000Y-9730000D02*
G75*
G02*
X11345000Y-9730000I-225000J0D01*
G01*
X11345000Y-9730000D02*
G75*
G02*
X11795000Y-9730000I225000J0D01*
G01*
X12945000Y-6510000D02*
G75*
G02*
X12495000Y-6510000I-225000J0D01*
G01*
X12495000Y-6510000D02*
G75*
G02*
X12945000Y-6510000I225000J0D01*
G01*
X12945000Y-8130000D02*
G75*
G02*
X12495000Y-8130000I-225000J0D01*
G01*
X12495000Y-8130000D02*
G75*
G02*
X12945000Y-8130000I225000J0D01*
G01*
X12945000Y-9190000D02*
G75*
G02*
X12495000Y-9190000I-225000J0D01*
G01*
X12495000Y-9190000D02*
G75*
G02*
X12945000Y-9190000I225000J0D01*
G01*
X13665000Y-6510000D02*
G75*
G02*
X13215000Y-6510000I-225000J0D01*
G01*
X13215000Y-6510000D02*
G75*
G02*
X13665000Y-6510000I225000J0D01*
G01*
X13665000Y-8130000D02*
G75*
G02*
X13215000Y-8130000I-225000J0D01*
G01*
X13215000Y-8130000D02*
G75*
G02*
X13665000Y-8130000I225000J0D01*
G01*
X13665000Y-9190000D02*
G75*
G02*
X13215000Y-9190000I-225000J0D01*
G01*
X13215000Y-9190000D02*
G75*
G02*
X13665000Y-9190000I225000J0D01*
G01*
X15015000Y-8130000D02*
G75*
G02*
X14565000Y-8130000I-225000J0D01*
G01*
X14565000Y-8130000D02*
G75*
G02*
X15015000Y-8130000I225000J0D01*
G01*
X15015000Y-9180000D02*
G75*
G02*
X14565000Y-9180000I-225000J0D01*
G01*
X14565000Y-9180000D02*
G75*
G02*
X15015000Y-9180000I225000J0D01*
G01*
X15025000Y-6510000D02*
G75*
G02*
X14575000Y-6510000I-225000J0D01*
G01*
X14575000Y-6510000D02*
G75*
G02*
X15025000Y-6510000I225000J0D01*
G01*
X15735000Y-8130000D02*
G75*
G02*
X15285000Y-8130000I-225000J0D01*
G01*
X15285000Y-8130000D02*
G75*
G02*
X15735000Y-8130000I225000J0D01*
G01*
X15735000Y-9180000D02*
G75*
G02*
X15285000Y-9180000I-225000J0D01*
G01*
X15285000Y-9180000D02*
G75*
G02*
X15735000Y-9180000I225000J0D01*
G01*
X15745000Y-6510000D02*
G75*
G02*
X15295000Y-6510000I-225000J0D01*
G01*
X15295000Y-6510000D02*
G75*
G02*
X15745000Y-6510000I225000J0D01*
G01*
X16895000Y-5990000D02*
G75*
G02*
X16445000Y-5990000I-225000J0D01*
G01*
X16445000Y-5990000D02*
G75*
G02*
X16895000Y-5990000I225000J0D01*
G01*
X16895000Y-7620000D02*
G75*
G02*
X16445000Y-7620000I-225000J0D01*
G01*
X16445000Y-7620000D02*
G75*
G02*
X16895000Y-7620000I225000J0D01*
G01*
X16895000Y-8660000D02*
G75*
G02*
X16445000Y-8660000I-225000J0D01*
G01*
X16445000Y-8660000D02*
G75*
G02*
X16895000Y-8660000I225000J0D01*
G01*
X16895000Y-9720000D02*
G75*
G02*
X16445000Y-9720000I-225000J0D01*
G01*
X16445000Y-9720000D02*
G75*
G02*
X16895000Y-9720000I225000J0D01*
G01*
X17615000Y-5990000D02*
G75*
G02*
X17165000Y-5990000I-225000J0D01*
G01*
X17165000Y-5990000D02*
G75*
G02*
X17615000Y-5990000I225000J0D01*
G01*
X17615000Y-7620000D02*
G75*
G02*
X17165000Y-7620000I-225000J0D01*
G01*
X17165000Y-7620000D02*
G75*
G02*
X17615000Y-7620000I225000J0D01*
G01*
X17615000Y-8660000D02*
G75*
G02*
X17165000Y-8660000I-225000J0D01*
G01*
X17165000Y-8660000D02*
G75*
G02*
X17615000Y-8660000I225000J0D01*
G01*
X17615000Y-9720000D02*
G75*
G02*
X17165000Y-9720000I-225000J0D01*
G01*
X17165000Y-9720000D02*
G75*
G02*
X17615000Y-9720000I225000J0D01*
G01*
D11*
X10275627Y-14206996D02*
X10275627Y-14006996D01*
X10275627Y-14006996D02*
X10323246Y-14006996D01*
X10323246Y-14006996D02*
X10351817Y-14016520D01*
X10351817Y-14016520D02*
X10370865Y-14035567D01*
X10370865Y-14035567D02*
X10380388Y-14054615D01*
X10380388Y-14054615D02*
X10389912Y-14092710D01*
X10389912Y-14092710D02*
X10389912Y-14121282D01*
X10389912Y-14121282D02*
X10380388Y-14159377D01*
X10380388Y-14159377D02*
X10370865Y-14178424D01*
X10370865Y-14178424D02*
X10351817Y-14197472D01*
X10351817Y-14197472D02*
X10323246Y-14206996D01*
X10323246Y-14206996D02*
X10275627Y-14206996D01*
X10475627Y-14206996D02*
X10475627Y-14073662D01*
X10475627Y-14111758D02*
X10485150Y-14092710D01*
X10485150Y-14092710D02*
X10494674Y-14083186D01*
X10494674Y-14083186D02*
X10513722Y-14073662D01*
X10513722Y-14073662D02*
X10532769Y-14073662D01*
X10599436Y-14206996D02*
X10599436Y-14073662D01*
X10599436Y-14006996D02*
X10589912Y-14016520D01*
X10589912Y-14016520D02*
X10599436Y-14026043D01*
X10599436Y-14026043D02*
X10608960Y-14016520D01*
X10608960Y-14016520D02*
X10599436Y-14006996D01*
X10599436Y-14006996D02*
X10599436Y-14026043D01*
X10723246Y-14206996D02*
X10704198Y-14197472D01*
X10704198Y-14197472D02*
X10694674Y-14178424D01*
X10694674Y-14178424D02*
X10694674Y-14006996D01*
X10828007Y-14206996D02*
X10808960Y-14197472D01*
X10808960Y-14197472D02*
X10799436Y-14178424D01*
X10799436Y-14178424D02*
X10799436Y-14006996D01*
X11056579Y-14206996D02*
X11056579Y-14006996D01*
X11056579Y-14006996D02*
X11123246Y-14149853D01*
X11123246Y-14149853D02*
X11189912Y-14006996D01*
X11189912Y-14006996D02*
X11189912Y-14206996D01*
X11370865Y-14206996D02*
X11370865Y-14102234D01*
X11370865Y-14102234D02*
X11361341Y-14083186D01*
X11361341Y-14083186D02*
X11342293Y-14073662D01*
X11342293Y-14073662D02*
X11304198Y-14073662D01*
X11304198Y-14073662D02*
X11285150Y-14083186D01*
X11370865Y-14197472D02*
X11351817Y-14206996D01*
X11351817Y-14206996D02*
X11304198Y-14206996D01*
X11304198Y-14206996D02*
X11285150Y-14197472D01*
X11285150Y-14197472D02*
X11275626Y-14178424D01*
X11275626Y-14178424D02*
X11275626Y-14159377D01*
X11275626Y-14159377D02*
X11285150Y-14140329D01*
X11285150Y-14140329D02*
X11304198Y-14130805D01*
X11304198Y-14130805D02*
X11351817Y-14130805D01*
X11351817Y-14130805D02*
X11370865Y-14121282D01*
X11466103Y-14073662D02*
X11466103Y-14273662D01*
X11466103Y-14083186D02*
X11485150Y-14073662D01*
X11485150Y-14073662D02*
X11523246Y-14073662D01*
X11523246Y-14073662D02*
X11542293Y-14083186D01*
X11542293Y-14083186D02*
X11551817Y-14092710D01*
X11551817Y-14092710D02*
X11561341Y-14111758D01*
X11561341Y-14111758D02*
X11561341Y-14168901D01*
X11561341Y-14168901D02*
X11551817Y-14187948D01*
X11551817Y-14187948D02*
X11542293Y-14197472D01*
X11542293Y-14197472D02*
X11523246Y-14206996D01*
X11523246Y-14206996D02*
X11485150Y-14206996D01*
X11485150Y-14206996D02*
X11466103Y-14197472D01*
X11647055Y-14187948D02*
X11656579Y-14197472D01*
X11656579Y-14197472D02*
X11647055Y-14206996D01*
X11647055Y-14206996D02*
X11637531Y-14197472D01*
X11637531Y-14197472D02*
X11647055Y-14187948D01*
X11647055Y-14187948D02*
X11647055Y-14206996D01*
X11647055Y-14083186D02*
X11656579Y-14092710D01*
X11656579Y-14092710D02*
X11647055Y-14102234D01*
X11647055Y-14102234D02*
X11637531Y-14092710D01*
X11637531Y-14092710D02*
X11647055Y-14083186D01*
X11647055Y-14083186D02*
X11647055Y-14102234D01*
D12*
X9834850Y-14445512D02*
X10014850Y-14625512D01*
X10014850Y-14445512D02*
X9834850Y-14625512D01*
D11*
X10380388Y-14626996D02*
X10266103Y-14626996D01*
X10323246Y-14626996D02*
X10323246Y-14426996D01*
X10323246Y-14426996D02*
X10304198Y-14455567D01*
X10304198Y-14455567D02*
X10285150Y-14474615D01*
X10285150Y-14474615D02*
X10266103Y-14484139D01*
X10466103Y-14607948D02*
X10475627Y-14617472D01*
X10475627Y-14617472D02*
X10466103Y-14626996D01*
X10466103Y-14626996D02*
X10456579Y-14617472D01*
X10456579Y-14617472D02*
X10466103Y-14607948D01*
X10466103Y-14607948D02*
X10466103Y-14626996D01*
X10589912Y-14512710D02*
X10570865Y-14503186D01*
X10570865Y-14503186D02*
X10561341Y-14493662D01*
X10561341Y-14493662D02*
X10551817Y-14474615D01*
X10551817Y-14474615D02*
X10551817Y-14465091D01*
X10551817Y-14465091D02*
X10561341Y-14446043D01*
X10561341Y-14446043D02*
X10570865Y-14436520D01*
X10570865Y-14436520D02*
X10589912Y-14426996D01*
X10589912Y-14426996D02*
X10628008Y-14426996D01*
X10628008Y-14426996D02*
X10647055Y-14436520D01*
X10647055Y-14436520D02*
X10656579Y-14446043D01*
X10656579Y-14446043D02*
X10666103Y-14465091D01*
X10666103Y-14465091D02*
X10666103Y-14474615D01*
X10666103Y-14474615D02*
X10656579Y-14493662D01*
X10656579Y-14493662D02*
X10647055Y-14503186D01*
X10647055Y-14503186D02*
X10628008Y-14512710D01*
X10628008Y-14512710D02*
X10589912Y-14512710D01*
X10589912Y-14512710D02*
X10570865Y-14522234D01*
X10570865Y-14522234D02*
X10561341Y-14531758D01*
X10561341Y-14531758D02*
X10551817Y-14550805D01*
X10551817Y-14550805D02*
X10551817Y-14588901D01*
X10551817Y-14588901D02*
X10561341Y-14607948D01*
X10561341Y-14607948D02*
X10570865Y-14617472D01*
X10570865Y-14617472D02*
X10589912Y-14626996D01*
X10589912Y-14626996D02*
X10628008Y-14626996D01*
X10628008Y-14626996D02*
X10647055Y-14617472D01*
X10647055Y-14617472D02*
X10656579Y-14607948D01*
X10656579Y-14607948D02*
X10666103Y-14588901D01*
X10666103Y-14588901D02*
X10666103Y-14550805D01*
X10666103Y-14550805D02*
X10656579Y-14531758D01*
X10656579Y-14531758D02*
X10647055Y-14522234D01*
X10647055Y-14522234D02*
X10628008Y-14512710D01*
X10789912Y-14426996D02*
X10808960Y-14426996D01*
X10808960Y-14426996D02*
X10828008Y-14436520D01*
X10828008Y-14436520D02*
X10837531Y-14446043D01*
X10837531Y-14446043D02*
X10847055Y-14465091D01*
X10847055Y-14465091D02*
X10856579Y-14503186D01*
X10856579Y-14503186D02*
X10856579Y-14550805D01*
X10856579Y-14550805D02*
X10847055Y-14588901D01*
X10847055Y-14588901D02*
X10837531Y-14607948D01*
X10837531Y-14607948D02*
X10828008Y-14617472D01*
X10828008Y-14617472D02*
X10808960Y-14626996D01*
X10808960Y-14626996D02*
X10789912Y-14626996D01*
X10789912Y-14626996D02*
X10770865Y-14617472D01*
X10770865Y-14617472D02*
X10761341Y-14607948D01*
X10761341Y-14607948D02*
X10751817Y-14588901D01*
X10751817Y-14588901D02*
X10742293Y-14550805D01*
X10742293Y-14550805D02*
X10742293Y-14503186D01*
X10742293Y-14503186D02*
X10751817Y-14465091D01*
X10751817Y-14465091D02*
X10761341Y-14446043D01*
X10761341Y-14446043D02*
X10770865Y-14436520D01*
X10770865Y-14436520D02*
X10789912Y-14426996D01*
X10980388Y-14426996D02*
X10999436Y-14426996D01*
X10999436Y-14426996D02*
X11018484Y-14436520D01*
X11018484Y-14436520D02*
X11028008Y-14446043D01*
X11028008Y-14446043D02*
X11037531Y-14465091D01*
X11037531Y-14465091D02*
X11047055Y-14503186D01*
X11047055Y-14503186D02*
X11047055Y-14550805D01*
X11047055Y-14550805D02*
X11037531Y-14588901D01*
X11037531Y-14588901D02*
X11028008Y-14607948D01*
X11028008Y-14607948D02*
X11018484Y-14617472D01*
X11018484Y-14617472D02*
X10999436Y-14626996D01*
X10999436Y-14626996D02*
X10980388Y-14626996D01*
X10980388Y-14626996D02*
X10961341Y-14617472D01*
X10961341Y-14617472D02*
X10951817Y-14607948D01*
X10951817Y-14607948D02*
X10942293Y-14588901D01*
X10942293Y-14588901D02*
X10932769Y-14550805D01*
X10932769Y-14550805D02*
X10932769Y-14503186D01*
X10932769Y-14503186D02*
X10942293Y-14465091D01*
X10942293Y-14465091D02*
X10951817Y-14446043D01*
X10951817Y-14446043D02*
X10961341Y-14436520D01*
X10961341Y-14436520D02*
X10980388Y-14426996D01*
X11132769Y-14626996D02*
X11132769Y-14493662D01*
X11132769Y-14512710D02*
X11142293Y-14503186D01*
X11142293Y-14503186D02*
X11161341Y-14493662D01*
X11161341Y-14493662D02*
X11189912Y-14493662D01*
X11189912Y-14493662D02*
X11208960Y-14503186D01*
X11208960Y-14503186D02*
X11218484Y-14522234D01*
X11218484Y-14522234D02*
X11218484Y-14626996D01*
X11218484Y-14522234D02*
X11228007Y-14503186D01*
X11228007Y-14503186D02*
X11247055Y-14493662D01*
X11247055Y-14493662D02*
X11275626Y-14493662D01*
X11275626Y-14493662D02*
X11294674Y-14503186D01*
X11294674Y-14503186D02*
X11304198Y-14522234D01*
X11304198Y-14522234D02*
X11304198Y-14626996D01*
X11399436Y-14626996D02*
X11399436Y-14493662D01*
X11399436Y-14512710D02*
X11408960Y-14503186D01*
X11408960Y-14503186D02*
X11428007Y-14493662D01*
X11428007Y-14493662D02*
X11456579Y-14493662D01*
X11456579Y-14493662D02*
X11475627Y-14503186D01*
X11475627Y-14503186D02*
X11485150Y-14522234D01*
X11485150Y-14522234D02*
X11485150Y-14626996D01*
X11485150Y-14522234D02*
X11494674Y-14503186D01*
X11494674Y-14503186D02*
X11513722Y-14493662D01*
X11513722Y-14493662D02*
X11542293Y-14493662D01*
X11542293Y-14493662D02*
X11561341Y-14503186D01*
X11561341Y-14503186D02*
X11570865Y-14522234D01*
X11570865Y-14522234D02*
X11570865Y-14626996D01*
X11961341Y-14417472D02*
X11789912Y-14674615D01*
X12218484Y-14426996D02*
X12237531Y-14426996D01*
X12237531Y-14426996D02*
X12256579Y-14436520D01*
X12256579Y-14436520D02*
X12266103Y-14446043D01*
X12266103Y-14446043D02*
X12275627Y-14465091D01*
X12275627Y-14465091D02*
X12285150Y-14503186D01*
X12285150Y-14503186D02*
X12285150Y-14550805D01*
X12285150Y-14550805D02*
X12275627Y-14588901D01*
X12275627Y-14588901D02*
X12266103Y-14607948D01*
X12266103Y-14607948D02*
X12256579Y-14617472D01*
X12256579Y-14617472D02*
X12237531Y-14626996D01*
X12237531Y-14626996D02*
X12218484Y-14626996D01*
X12218484Y-14626996D02*
X12199436Y-14617472D01*
X12199436Y-14617472D02*
X12189912Y-14607948D01*
X12189912Y-14607948D02*
X12180389Y-14588901D01*
X12180389Y-14588901D02*
X12170865Y-14550805D01*
X12170865Y-14550805D02*
X12170865Y-14503186D01*
X12170865Y-14503186D02*
X12180389Y-14465091D01*
X12180389Y-14465091D02*
X12189912Y-14446043D01*
X12189912Y-14446043D02*
X12199436Y-14436520D01*
X12199436Y-14436520D02*
X12218484Y-14426996D01*
X12370865Y-14607948D02*
X12380389Y-14617472D01*
X12380389Y-14617472D02*
X12370865Y-14626996D01*
X12370865Y-14626996D02*
X12361341Y-14617472D01*
X12361341Y-14617472D02*
X12370865Y-14607948D01*
X12370865Y-14607948D02*
X12370865Y-14626996D01*
X12504198Y-14426996D02*
X12523246Y-14426996D01*
X12523246Y-14426996D02*
X12542293Y-14436520D01*
X12542293Y-14436520D02*
X12551817Y-14446043D01*
X12551817Y-14446043D02*
X12561341Y-14465091D01*
X12561341Y-14465091D02*
X12570865Y-14503186D01*
X12570865Y-14503186D02*
X12570865Y-14550805D01*
X12570865Y-14550805D02*
X12561341Y-14588901D01*
X12561341Y-14588901D02*
X12551817Y-14607948D01*
X12551817Y-14607948D02*
X12542293Y-14617472D01*
X12542293Y-14617472D02*
X12523246Y-14626996D01*
X12523246Y-14626996D02*
X12504198Y-14626996D01*
X12504198Y-14626996D02*
X12485150Y-14617472D01*
X12485150Y-14617472D02*
X12475627Y-14607948D01*
X12475627Y-14607948D02*
X12466103Y-14588901D01*
X12466103Y-14588901D02*
X12456579Y-14550805D01*
X12456579Y-14550805D02*
X12456579Y-14503186D01*
X12456579Y-14503186D02*
X12466103Y-14465091D01*
X12466103Y-14465091D02*
X12475627Y-14446043D01*
X12475627Y-14446043D02*
X12485150Y-14436520D01*
X12485150Y-14436520D02*
X12504198Y-14426996D01*
X12637531Y-14426996D02*
X12770865Y-14426996D01*
X12770865Y-14426996D02*
X12685150Y-14626996D01*
X12885150Y-14426996D02*
X12904198Y-14426996D01*
X12904198Y-14426996D02*
X12923246Y-14436520D01*
X12923246Y-14436520D02*
X12932770Y-14446043D01*
X12932770Y-14446043D02*
X12942293Y-14465091D01*
X12942293Y-14465091D02*
X12951817Y-14503186D01*
X12951817Y-14503186D02*
X12951817Y-14550805D01*
X12951817Y-14550805D02*
X12942293Y-14588901D01*
X12942293Y-14588901D02*
X12932770Y-14607948D01*
X12932770Y-14607948D02*
X12923246Y-14617472D01*
X12923246Y-14617472D02*
X12904198Y-14626996D01*
X12904198Y-14626996D02*
X12885150Y-14626996D01*
X12885150Y-14626996D02*
X12866103Y-14617472D01*
X12866103Y-14617472D02*
X12856579Y-14607948D01*
X12856579Y-14607948D02*
X12847055Y-14588901D01*
X12847055Y-14588901D02*
X12837531Y-14550805D01*
X12837531Y-14550805D02*
X12837531Y-14503186D01*
X12837531Y-14503186D02*
X12847055Y-14465091D01*
X12847055Y-14465091D02*
X12856579Y-14446043D01*
X12856579Y-14446043D02*
X12866103Y-14436520D01*
X12866103Y-14436520D02*
X12885150Y-14426996D01*
X13047055Y-14626996D02*
X13085150Y-14626996D01*
X13085150Y-14626996D02*
X13104198Y-14617472D01*
X13104198Y-14617472D02*
X13113722Y-14607948D01*
X13113722Y-14607948D02*
X13132770Y-14579377D01*
X13132770Y-14579377D02*
X13142293Y-14541282D01*
X13142293Y-14541282D02*
X13142293Y-14465091D01*
X13142293Y-14465091D02*
X13132770Y-14446043D01*
X13132770Y-14446043D02*
X13123246Y-14436520D01*
X13123246Y-14436520D02*
X13104198Y-14426996D01*
X13104198Y-14426996D02*
X13066103Y-14426996D01*
X13066103Y-14426996D02*
X13047055Y-14436520D01*
X13047055Y-14436520D02*
X13037531Y-14446043D01*
X13037531Y-14446043D02*
X13028008Y-14465091D01*
X13028008Y-14465091D02*
X13028008Y-14512710D01*
X13028008Y-14512710D02*
X13037531Y-14531758D01*
X13037531Y-14531758D02*
X13047055Y-14541282D01*
X13047055Y-14541282D02*
X13066103Y-14550805D01*
X13066103Y-14550805D02*
X13104198Y-14550805D01*
X13104198Y-14550805D02*
X13123246Y-14541282D01*
X13123246Y-14541282D02*
X13132770Y-14531758D01*
X13132770Y-14531758D02*
X13142293Y-14512710D01*
X13218484Y-14426996D02*
X13218484Y-14465091D01*
X13294674Y-14426996D02*
X13294674Y-14465091D01*
X13589913Y-14703186D02*
X13580389Y-14693662D01*
X13580389Y-14693662D02*
X13561341Y-14665091D01*
X13561341Y-14665091D02*
X13551817Y-14646043D01*
X13551817Y-14646043D02*
X13542293Y-14617472D01*
X13542293Y-14617472D02*
X13532770Y-14569853D01*
X13532770Y-14569853D02*
X13532770Y-14531758D01*
X13532770Y-14531758D02*
X13542293Y-14484139D01*
X13542293Y-14484139D02*
X13551817Y-14455567D01*
X13551817Y-14455567D02*
X13561341Y-14436520D01*
X13561341Y-14436520D02*
X13580389Y-14407948D01*
X13580389Y-14407948D02*
X13589913Y-14398424D01*
X13656579Y-14446043D02*
X13666103Y-14436520D01*
X13666103Y-14436520D02*
X13685151Y-14426996D01*
X13685151Y-14426996D02*
X13732770Y-14426996D01*
X13732770Y-14426996D02*
X13751817Y-14436520D01*
X13751817Y-14436520D02*
X13761341Y-14446043D01*
X13761341Y-14446043D02*
X13770865Y-14465091D01*
X13770865Y-14465091D02*
X13770865Y-14484139D01*
X13770865Y-14484139D02*
X13761341Y-14512710D01*
X13761341Y-14512710D02*
X13647055Y-14626996D01*
X13647055Y-14626996D02*
X13770865Y-14626996D01*
X13942293Y-14493662D02*
X13942293Y-14626996D01*
X13894674Y-14417472D02*
X13847055Y-14560329D01*
X13847055Y-14560329D02*
X13970865Y-14560329D01*
X14199436Y-14626996D02*
X14199436Y-14426996D01*
X14285151Y-14626996D02*
X14285151Y-14522234D01*
X14285151Y-14522234D02*
X14275627Y-14503186D01*
X14275627Y-14503186D02*
X14256579Y-14493662D01*
X14256579Y-14493662D02*
X14228008Y-14493662D01*
X14228008Y-14493662D02*
X14208960Y-14503186D01*
X14208960Y-14503186D02*
X14199436Y-14512710D01*
X14408960Y-14626996D02*
X14389913Y-14617472D01*
X14389913Y-14617472D02*
X14380389Y-14607948D01*
X14380389Y-14607948D02*
X14370865Y-14588901D01*
X14370865Y-14588901D02*
X14370865Y-14531758D01*
X14370865Y-14531758D02*
X14380389Y-14512710D01*
X14380389Y-14512710D02*
X14389913Y-14503186D01*
X14389913Y-14503186D02*
X14408960Y-14493662D01*
X14408960Y-14493662D02*
X14437532Y-14493662D01*
X14437532Y-14493662D02*
X14456579Y-14503186D01*
X14456579Y-14503186D02*
X14466103Y-14512710D01*
X14466103Y-14512710D02*
X14475627Y-14531758D01*
X14475627Y-14531758D02*
X14475627Y-14588901D01*
X14475627Y-14588901D02*
X14466103Y-14607948D01*
X14466103Y-14607948D02*
X14456579Y-14617472D01*
X14456579Y-14617472D02*
X14437532Y-14626996D01*
X14437532Y-14626996D02*
X14408960Y-14626996D01*
X14589913Y-14626996D02*
X14570865Y-14617472D01*
X14570865Y-14617472D02*
X14561341Y-14598424D01*
X14561341Y-14598424D02*
X14561341Y-14426996D01*
X14742294Y-14617472D02*
X14723246Y-14626996D01*
X14723246Y-14626996D02*
X14685151Y-14626996D01*
X14685151Y-14626996D02*
X14666103Y-14617472D01*
X14666103Y-14617472D02*
X14656579Y-14598424D01*
X14656579Y-14598424D02*
X14656579Y-14522234D01*
X14656579Y-14522234D02*
X14666103Y-14503186D01*
X14666103Y-14503186D02*
X14685151Y-14493662D01*
X14685151Y-14493662D02*
X14723246Y-14493662D01*
X14723246Y-14493662D02*
X14742294Y-14503186D01*
X14742294Y-14503186D02*
X14751817Y-14522234D01*
X14751817Y-14522234D02*
X14751817Y-14541282D01*
X14751817Y-14541282D02*
X14656579Y-14560329D01*
X14828008Y-14617472D02*
X14847055Y-14626996D01*
X14847055Y-14626996D02*
X14885151Y-14626996D01*
X14885151Y-14626996D02*
X14904198Y-14617472D01*
X14904198Y-14617472D02*
X14913722Y-14598424D01*
X14913722Y-14598424D02*
X14913722Y-14588901D01*
X14913722Y-14588901D02*
X14904198Y-14569853D01*
X14904198Y-14569853D02*
X14885151Y-14560329D01*
X14885151Y-14560329D02*
X14856579Y-14560329D01*
X14856579Y-14560329D02*
X14837532Y-14550805D01*
X14837532Y-14550805D02*
X14828008Y-14531758D01*
X14828008Y-14531758D02*
X14828008Y-14522234D01*
X14828008Y-14522234D02*
X14837532Y-14503186D01*
X14837532Y-14503186D02*
X14856579Y-14493662D01*
X14856579Y-14493662D02*
X14885151Y-14493662D01*
X14885151Y-14493662D02*
X14904198Y-14503186D01*
X14980389Y-14703186D02*
X14989913Y-14693662D01*
X14989913Y-14693662D02*
X15008960Y-14665091D01*
X15008960Y-14665091D02*
X15018484Y-14646043D01*
X15018484Y-14646043D02*
X15028008Y-14617472D01*
X15028008Y-14617472D02*
X15037532Y-14569853D01*
X15037532Y-14569853D02*
X15037532Y-14531758D01*
X15037532Y-14531758D02*
X15028008Y-14484139D01*
X15028008Y-14484139D02*
X15018484Y-14455567D01*
X15018484Y-14455567D02*
X15008960Y-14436520D01*
X15008960Y-14436520D02*
X14989913Y-14407948D01*
X14989913Y-14407948D02*
X14980389Y-14398424D01*
X10014850Y-14835512D02*
G75*
G02*
X9814850Y-14835512I-100000J0D01*
G01*
X9814850Y-14835512D02*
G75*
G02*
X10014850Y-14835512I100000J0D01*
G01*
X10361341Y-14793662D02*
X10361341Y-14926996D01*
X10313722Y-14717472D02*
X10266103Y-14860329D01*
X10266103Y-14860329D02*
X10389912Y-14860329D01*
X10466103Y-14907948D02*
X10475627Y-14917472D01*
X10475627Y-14917472D02*
X10466103Y-14926996D01*
X10466103Y-14926996D02*
X10456579Y-14917472D01*
X10456579Y-14917472D02*
X10466103Y-14907948D01*
X10466103Y-14907948D02*
X10466103Y-14926996D01*
X10656579Y-14726996D02*
X10561341Y-14726996D01*
X10561341Y-14726996D02*
X10551817Y-14822234D01*
X10551817Y-14822234D02*
X10561341Y-14812710D01*
X10561341Y-14812710D02*
X10580388Y-14803186D01*
X10580388Y-14803186D02*
X10628008Y-14803186D01*
X10628008Y-14803186D02*
X10647055Y-14812710D01*
X10647055Y-14812710D02*
X10656579Y-14822234D01*
X10656579Y-14822234D02*
X10666103Y-14841282D01*
X10666103Y-14841282D02*
X10666103Y-14888901D01*
X10666103Y-14888901D02*
X10656579Y-14907948D01*
X10656579Y-14907948D02*
X10647055Y-14917472D01*
X10647055Y-14917472D02*
X10628008Y-14926996D01*
X10628008Y-14926996D02*
X10580388Y-14926996D01*
X10580388Y-14926996D02*
X10561341Y-14917472D01*
X10561341Y-14917472D02*
X10551817Y-14907948D01*
X10789912Y-14726996D02*
X10808960Y-14726996D01*
X10808960Y-14726996D02*
X10828008Y-14736520D01*
X10828008Y-14736520D02*
X10837531Y-14746043D01*
X10837531Y-14746043D02*
X10847055Y-14765091D01*
X10847055Y-14765091D02*
X10856579Y-14803186D01*
X10856579Y-14803186D02*
X10856579Y-14850805D01*
X10856579Y-14850805D02*
X10847055Y-14888901D01*
X10847055Y-14888901D02*
X10837531Y-14907948D01*
X10837531Y-14907948D02*
X10828008Y-14917472D01*
X10828008Y-14917472D02*
X10808960Y-14926996D01*
X10808960Y-14926996D02*
X10789912Y-14926996D01*
X10789912Y-14926996D02*
X10770865Y-14917472D01*
X10770865Y-14917472D02*
X10761341Y-14907948D01*
X10761341Y-14907948D02*
X10751817Y-14888901D01*
X10751817Y-14888901D02*
X10742293Y-14850805D01*
X10742293Y-14850805D02*
X10742293Y-14803186D01*
X10742293Y-14803186D02*
X10751817Y-14765091D01*
X10751817Y-14765091D02*
X10761341Y-14746043D01*
X10761341Y-14746043D02*
X10770865Y-14736520D01*
X10770865Y-14736520D02*
X10789912Y-14726996D01*
X10980388Y-14726996D02*
X10999436Y-14726996D01*
X10999436Y-14726996D02*
X11018484Y-14736520D01*
X11018484Y-14736520D02*
X11028008Y-14746043D01*
X11028008Y-14746043D02*
X11037531Y-14765091D01*
X11037531Y-14765091D02*
X11047055Y-14803186D01*
X11047055Y-14803186D02*
X11047055Y-14850805D01*
X11047055Y-14850805D02*
X11037531Y-14888901D01*
X11037531Y-14888901D02*
X11028008Y-14907948D01*
X11028008Y-14907948D02*
X11018484Y-14917472D01*
X11018484Y-14917472D02*
X10999436Y-14926996D01*
X10999436Y-14926996D02*
X10980388Y-14926996D01*
X10980388Y-14926996D02*
X10961341Y-14917472D01*
X10961341Y-14917472D02*
X10951817Y-14907948D01*
X10951817Y-14907948D02*
X10942293Y-14888901D01*
X10942293Y-14888901D02*
X10932769Y-14850805D01*
X10932769Y-14850805D02*
X10932769Y-14803186D01*
X10932769Y-14803186D02*
X10942293Y-14765091D01*
X10942293Y-14765091D02*
X10951817Y-14746043D01*
X10951817Y-14746043D02*
X10961341Y-14736520D01*
X10961341Y-14736520D02*
X10980388Y-14726996D01*
X11132769Y-14926996D02*
X11132769Y-14793662D01*
X11132769Y-14812710D02*
X11142293Y-14803186D01*
X11142293Y-14803186D02*
X11161341Y-14793662D01*
X11161341Y-14793662D02*
X11189912Y-14793662D01*
X11189912Y-14793662D02*
X11208960Y-14803186D01*
X11208960Y-14803186D02*
X11218484Y-14822234D01*
X11218484Y-14822234D02*
X11218484Y-14926996D01*
X11218484Y-14822234D02*
X11228007Y-14803186D01*
X11228007Y-14803186D02*
X11247055Y-14793662D01*
X11247055Y-14793662D02*
X11275626Y-14793662D01*
X11275626Y-14793662D02*
X11294674Y-14803186D01*
X11294674Y-14803186D02*
X11304198Y-14822234D01*
X11304198Y-14822234D02*
X11304198Y-14926996D01*
X11399436Y-14926996D02*
X11399436Y-14793662D01*
X11399436Y-14812710D02*
X11408960Y-14803186D01*
X11408960Y-14803186D02*
X11428007Y-14793662D01*
X11428007Y-14793662D02*
X11456579Y-14793662D01*
X11456579Y-14793662D02*
X11475627Y-14803186D01*
X11475627Y-14803186D02*
X11485150Y-14822234D01*
X11485150Y-14822234D02*
X11485150Y-14926996D01*
X11485150Y-14822234D02*
X11494674Y-14803186D01*
X11494674Y-14803186D02*
X11513722Y-14793662D01*
X11513722Y-14793662D02*
X11542293Y-14793662D01*
X11542293Y-14793662D02*
X11561341Y-14803186D01*
X11561341Y-14803186D02*
X11570865Y-14822234D01*
X11570865Y-14822234D02*
X11570865Y-14926996D01*
X11961341Y-14717472D02*
X11789912Y-14974615D01*
X12218484Y-14726996D02*
X12237531Y-14726996D01*
X12237531Y-14726996D02*
X12256579Y-14736520D01*
X12256579Y-14736520D02*
X12266103Y-14746043D01*
X12266103Y-14746043D02*
X12275627Y-14765091D01*
X12275627Y-14765091D02*
X12285150Y-14803186D01*
X12285150Y-14803186D02*
X12285150Y-14850805D01*
X12285150Y-14850805D02*
X12275627Y-14888901D01*
X12275627Y-14888901D02*
X12266103Y-14907948D01*
X12266103Y-14907948D02*
X12256579Y-14917472D01*
X12256579Y-14917472D02*
X12237531Y-14926996D01*
X12237531Y-14926996D02*
X12218484Y-14926996D01*
X12218484Y-14926996D02*
X12199436Y-14917472D01*
X12199436Y-14917472D02*
X12189912Y-14907948D01*
X12189912Y-14907948D02*
X12180389Y-14888901D01*
X12180389Y-14888901D02*
X12170865Y-14850805D01*
X12170865Y-14850805D02*
X12170865Y-14803186D01*
X12170865Y-14803186D02*
X12180389Y-14765091D01*
X12180389Y-14765091D02*
X12189912Y-14746043D01*
X12189912Y-14746043D02*
X12199436Y-14736520D01*
X12199436Y-14736520D02*
X12218484Y-14726996D01*
X12370865Y-14907948D02*
X12380389Y-14917472D01*
X12380389Y-14917472D02*
X12370865Y-14926996D01*
X12370865Y-14926996D02*
X12361341Y-14917472D01*
X12361341Y-14917472D02*
X12370865Y-14907948D01*
X12370865Y-14907948D02*
X12370865Y-14926996D01*
X12570865Y-14926996D02*
X12456579Y-14926996D01*
X12513722Y-14926996D02*
X12513722Y-14726996D01*
X12513722Y-14726996D02*
X12494674Y-14755567D01*
X12494674Y-14755567D02*
X12475627Y-14774615D01*
X12475627Y-14774615D02*
X12456579Y-14784139D01*
X12637531Y-14726996D02*
X12770865Y-14726996D01*
X12770865Y-14726996D02*
X12685150Y-14926996D01*
X12828008Y-14726996D02*
X12961341Y-14726996D01*
X12961341Y-14726996D02*
X12875627Y-14926996D01*
X13028008Y-14746043D02*
X13037531Y-14736520D01*
X13037531Y-14736520D02*
X13056579Y-14726996D01*
X13056579Y-14726996D02*
X13104198Y-14726996D01*
X13104198Y-14726996D02*
X13123246Y-14736520D01*
X13123246Y-14736520D02*
X13132770Y-14746043D01*
X13132770Y-14746043D02*
X13142293Y-14765091D01*
X13142293Y-14765091D02*
X13142293Y-14784139D01*
X13142293Y-14784139D02*
X13132770Y-14812710D01*
X13132770Y-14812710D02*
X13018484Y-14926996D01*
X13018484Y-14926996D02*
X13142293Y-14926996D01*
X13218484Y-14726996D02*
X13218484Y-14765091D01*
X13294674Y-14726996D02*
X13294674Y-14765091D01*
X13589913Y-15003186D02*
X13580389Y-14993662D01*
X13580389Y-14993662D02*
X13561341Y-14965091D01*
X13561341Y-14965091D02*
X13551817Y-14946043D01*
X13551817Y-14946043D02*
X13542293Y-14917472D01*
X13542293Y-14917472D02*
X13532770Y-14869853D01*
X13532770Y-14869853D02*
X13532770Y-14831758D01*
X13532770Y-14831758D02*
X13542293Y-14784139D01*
X13542293Y-14784139D02*
X13551817Y-14755567D01*
X13551817Y-14755567D02*
X13561341Y-14736520D01*
X13561341Y-14736520D02*
X13580389Y-14707948D01*
X13580389Y-14707948D02*
X13589913Y-14698424D01*
X13656579Y-14746043D02*
X13666103Y-14736520D01*
X13666103Y-14736520D02*
X13685151Y-14726996D01*
X13685151Y-14726996D02*
X13732770Y-14726996D01*
X13732770Y-14726996D02*
X13751817Y-14736520D01*
X13751817Y-14736520D02*
X13761341Y-14746043D01*
X13761341Y-14746043D02*
X13770865Y-14765091D01*
X13770865Y-14765091D02*
X13770865Y-14784139D01*
X13770865Y-14784139D02*
X13761341Y-14812710D01*
X13761341Y-14812710D02*
X13647055Y-14926996D01*
X13647055Y-14926996D02*
X13770865Y-14926996D01*
X13885151Y-14812710D02*
X13866103Y-14803186D01*
X13866103Y-14803186D02*
X13856579Y-14793662D01*
X13856579Y-14793662D02*
X13847055Y-14774615D01*
X13847055Y-14774615D02*
X13847055Y-14765091D01*
X13847055Y-14765091D02*
X13856579Y-14746043D01*
X13856579Y-14746043D02*
X13866103Y-14736520D01*
X13866103Y-14736520D02*
X13885151Y-14726996D01*
X13885151Y-14726996D02*
X13923246Y-14726996D01*
X13923246Y-14726996D02*
X13942293Y-14736520D01*
X13942293Y-14736520D02*
X13951817Y-14746043D01*
X13951817Y-14746043D02*
X13961341Y-14765091D01*
X13961341Y-14765091D02*
X13961341Y-14774615D01*
X13961341Y-14774615D02*
X13951817Y-14793662D01*
X13951817Y-14793662D02*
X13942293Y-14803186D01*
X13942293Y-14803186D02*
X13923246Y-14812710D01*
X13923246Y-14812710D02*
X13885151Y-14812710D01*
X13885151Y-14812710D02*
X13866103Y-14822234D01*
X13866103Y-14822234D02*
X13856579Y-14831758D01*
X13856579Y-14831758D02*
X13847055Y-14850805D01*
X13847055Y-14850805D02*
X13847055Y-14888901D01*
X13847055Y-14888901D02*
X13856579Y-14907948D01*
X13856579Y-14907948D02*
X13866103Y-14917472D01*
X13866103Y-14917472D02*
X13885151Y-14926996D01*
X13885151Y-14926996D02*
X13923246Y-14926996D01*
X13923246Y-14926996D02*
X13942293Y-14917472D01*
X13942293Y-14917472D02*
X13951817Y-14907948D01*
X13951817Y-14907948D02*
X13961341Y-14888901D01*
X13961341Y-14888901D02*
X13961341Y-14850805D01*
X13961341Y-14850805D02*
X13951817Y-14831758D01*
X13951817Y-14831758D02*
X13942293Y-14822234D01*
X13942293Y-14822234D02*
X13923246Y-14812710D01*
X14199436Y-14926996D02*
X14199436Y-14726996D01*
X14285151Y-14926996D02*
X14285151Y-14822234D01*
X14285151Y-14822234D02*
X14275627Y-14803186D01*
X14275627Y-14803186D02*
X14256579Y-14793662D01*
X14256579Y-14793662D02*
X14228008Y-14793662D01*
X14228008Y-14793662D02*
X14208960Y-14803186D01*
X14208960Y-14803186D02*
X14199436Y-14812710D01*
X14408960Y-14926996D02*
X14389913Y-14917472D01*
X14389913Y-14917472D02*
X14380389Y-14907948D01*
X14380389Y-14907948D02*
X14370865Y-14888901D01*
X14370865Y-14888901D02*
X14370865Y-14831758D01*
X14370865Y-14831758D02*
X14380389Y-14812710D01*
X14380389Y-14812710D02*
X14389913Y-14803186D01*
X14389913Y-14803186D02*
X14408960Y-14793662D01*
X14408960Y-14793662D02*
X14437532Y-14793662D01*
X14437532Y-14793662D02*
X14456579Y-14803186D01*
X14456579Y-14803186D02*
X14466103Y-14812710D01*
X14466103Y-14812710D02*
X14475627Y-14831758D01*
X14475627Y-14831758D02*
X14475627Y-14888901D01*
X14475627Y-14888901D02*
X14466103Y-14907948D01*
X14466103Y-14907948D02*
X14456579Y-14917472D01*
X14456579Y-14917472D02*
X14437532Y-14926996D01*
X14437532Y-14926996D02*
X14408960Y-14926996D01*
X14589913Y-14926996D02*
X14570865Y-14917472D01*
X14570865Y-14917472D02*
X14561341Y-14898424D01*
X14561341Y-14898424D02*
X14561341Y-14726996D01*
X14742294Y-14917472D02*
X14723246Y-14926996D01*
X14723246Y-14926996D02*
X14685151Y-14926996D01*
X14685151Y-14926996D02*
X14666103Y-14917472D01*
X14666103Y-14917472D02*
X14656579Y-14898424D01*
X14656579Y-14898424D02*
X14656579Y-14822234D01*
X14656579Y-14822234D02*
X14666103Y-14803186D01*
X14666103Y-14803186D02*
X14685151Y-14793662D01*
X14685151Y-14793662D02*
X14723246Y-14793662D01*
X14723246Y-14793662D02*
X14742294Y-14803186D01*
X14742294Y-14803186D02*
X14751817Y-14822234D01*
X14751817Y-14822234D02*
X14751817Y-14841282D01*
X14751817Y-14841282D02*
X14656579Y-14860329D01*
X14828008Y-14917472D02*
X14847055Y-14926996D01*
X14847055Y-14926996D02*
X14885151Y-14926996D01*
X14885151Y-14926996D02*
X14904198Y-14917472D01*
X14904198Y-14917472D02*
X14913722Y-14898424D01*
X14913722Y-14898424D02*
X14913722Y-14888901D01*
X14913722Y-14888901D02*
X14904198Y-14869853D01*
X14904198Y-14869853D02*
X14885151Y-14860329D01*
X14885151Y-14860329D02*
X14856579Y-14860329D01*
X14856579Y-14860329D02*
X14837532Y-14850805D01*
X14837532Y-14850805D02*
X14828008Y-14831758D01*
X14828008Y-14831758D02*
X14828008Y-14822234D01*
X14828008Y-14822234D02*
X14837532Y-14803186D01*
X14837532Y-14803186D02*
X14856579Y-14793662D01*
X14856579Y-14793662D02*
X14885151Y-14793662D01*
X14885151Y-14793662D02*
X14904198Y-14803186D01*
X14980389Y-15003186D02*
X14989913Y-14993662D01*
X14989913Y-14993662D02*
X15008960Y-14965091D01*
X15008960Y-14965091D02*
X15018484Y-14946043D01*
X15018484Y-14946043D02*
X15028008Y-14917472D01*
X15028008Y-14917472D02*
X15037532Y-14869853D01*
X15037532Y-14869853D02*
X15037532Y-14831758D01*
X15037532Y-14831758D02*
X15028008Y-14784139D01*
X15028008Y-14784139D02*
X15018484Y-14755567D01*
X15018484Y-14755567D02*
X15008960Y-14736520D01*
X15008960Y-14736520D02*
X14989913Y-14707948D01*
X14989913Y-14707948D02*
X14980389Y-14698424D01*
M02*
