%TF.GenerationSoftware,KiCad,Pcbnew,8.0.3*%
%TF.CreationDate,2024-08-18T03:13:21+02:00*%
%TF.ProjectId,terminal_block,7465726d-696e-4616-9c5f-626c6f636b2e,1*%
%TF.SameCoordinates,Original*%
%TF.FileFunction,Drillmap*%
%TF.FilePolarity,Positive*%
%FSLAX45Y45*%
G04 Gerber Fmt 4.5, Leading zero omitted, Abs format (unit mm)*
G04 Created by KiCad (PCBNEW 8.0.3) date 2024-08-18 03:13:21*
%MOMM*%
%LPD*%
G01*
G04 APERTURE LIST*
%ADD10C,0.100000*%
%ADD11C,0.200000*%
%ADD12C,0.180000*%
%ADD13C,0.270000*%
%ADD14C,0.320000*%
%ADD15C,0.450000*%
G04 APERTURE END LIST*
D10*
X19250000Y-14750000D02*
X9050000Y-14750000D01*
X19800000Y-14200000D02*
G75*
G02*
X19250000Y-14750000I-550000J0D01*
G01*
X8500000Y-14200000D02*
X8500000Y-4050000D01*
X19300000Y-3500000D02*
G75*
G02*
X19800000Y-4000000I0J-500000D01*
G01*
X9050000Y-3500000D02*
X19300000Y-3500000D01*
X19800000Y-14200000D02*
X19800000Y-4000000D01*
X9050000Y-14750000D02*
G75*
G02*
X8500000Y-14200000I0J550000D01*
G01*
X8500000Y-4050000D02*
G75*
G02*
X9050000Y-3500000I550000J0D01*
G01*
D11*
D10*
X8780000Y-4030000D02*
X8820000Y-4070000D01*
X8820000Y-4030000D02*
X8780000Y-4070000D01*
X8780000Y-14280000D02*
X8820000Y-14320000D01*
X8820000Y-14280000D02*
X8780000Y-14320000D01*
X9330000Y-4030000D02*
X9370000Y-4070000D01*
X9370000Y-4030000D02*
X9330000Y-4070000D01*
X9330000Y-14280000D02*
X9370000Y-14320000D01*
X9370000Y-14280000D02*
X9330000Y-14320000D01*
X10230000Y-5430000D02*
X10270000Y-5470000D01*
X10270000Y-5430000D02*
X10230000Y-5470000D01*
X10230000Y-6080000D02*
X10270000Y-6120000D01*
X10270000Y-6080000D02*
X10230000Y-6120000D01*
X10230000Y-6780000D02*
X10270000Y-6820000D01*
X10270000Y-6780000D02*
X10230000Y-6820000D01*
X10230000Y-7530000D02*
X10270000Y-7570000D01*
X10270000Y-7530000D02*
X10230000Y-7570000D01*
X10230000Y-8230000D02*
X10270000Y-8270000D01*
X10270000Y-8230000D02*
X10230000Y-8270000D01*
X10230000Y-8980000D02*
X10270000Y-9020000D01*
X10270000Y-8980000D02*
X10230000Y-9020000D01*
X10230000Y-9630000D02*
X10270000Y-9670000D01*
X10270000Y-9630000D02*
X10230000Y-9670000D01*
X10230000Y-10330000D02*
X10270000Y-10370000D01*
X10270000Y-10330000D02*
X10230000Y-10370000D01*
X10230000Y-10980000D02*
X10270000Y-11020000D01*
X10270000Y-10980000D02*
X10230000Y-11020000D01*
X10230000Y-11680000D02*
X10270000Y-11720000D01*
X10270000Y-11680000D02*
X10230000Y-11720000D01*
X10230000Y-12430000D02*
X10270000Y-12470000D01*
X10270000Y-12430000D02*
X10230000Y-12470000D01*
X10830000Y-4830000D02*
X10870000Y-4870000D01*
X10870000Y-4830000D02*
X10830000Y-4870000D01*
X11180000Y-13530000D02*
X11220000Y-13570000D01*
X11220000Y-13530000D02*
X11180000Y-13570000D01*
X11480000Y-4630000D02*
X11520000Y-4670000D01*
X11520000Y-4630000D02*
X11480000Y-4670000D01*
X11880000Y-13530000D02*
X11920000Y-13570000D01*
X11920000Y-13530000D02*
X11880000Y-13570000D01*
X12630000Y-5480000D02*
X12670000Y-5520000D01*
X12670000Y-5480000D02*
X12630000Y-5520000D01*
X12630000Y-6030000D02*
X12670000Y-6070000D01*
X12670000Y-6030000D02*
X12630000Y-6070000D01*
X12630000Y-6580000D02*
X12670000Y-6620000D01*
X12670000Y-6580000D02*
X12630000Y-6620000D01*
X12630000Y-7230000D02*
X12670000Y-7270000D01*
X12670000Y-7230000D02*
X12630000Y-7270000D01*
X12630000Y-7830000D02*
X12670000Y-7870000D01*
X12670000Y-7830000D02*
X12630000Y-7870000D01*
X12630000Y-8380000D02*
X12670000Y-8420000D01*
X12670000Y-8380000D02*
X12630000Y-8420000D01*
X12630000Y-8930000D02*
X12670000Y-8970000D01*
X12670000Y-8930000D02*
X12630000Y-8970000D01*
X12630000Y-9480000D02*
X12670000Y-9520000D01*
X12670000Y-9480000D02*
X12630000Y-9520000D01*
X12630000Y-9980000D02*
X12670000Y-10020000D01*
X12670000Y-9980000D02*
X12630000Y-10020000D01*
X12630000Y-10530000D02*
X12670000Y-10570000D01*
X12670000Y-10530000D02*
X12630000Y-10570000D01*
X12630000Y-11030000D02*
X12670000Y-11070000D01*
X12670000Y-11030000D02*
X12630000Y-11070000D01*
X12630000Y-11580000D02*
X12670000Y-11620000D01*
X12670000Y-11580000D02*
X12630000Y-11620000D01*
X12630000Y-12130000D02*
X12670000Y-12170000D01*
X12670000Y-12130000D02*
X12630000Y-12170000D01*
X13230000Y-4880000D02*
X13270000Y-4920000D01*
X13270000Y-4880000D02*
X13230000Y-4920000D01*
X13230000Y-7830000D02*
X13270000Y-7870000D01*
X13270000Y-7830000D02*
X13230000Y-7870000D01*
X13230000Y-12830000D02*
X13270000Y-12870000D01*
X13270000Y-12830000D02*
X13230000Y-12870000D01*
X13280000Y-5480000D02*
X13320000Y-5520000D01*
X13320000Y-5480000D02*
X13280000Y-5520000D01*
X13280000Y-6030000D02*
X13320000Y-6070000D01*
X13320000Y-6030000D02*
X13280000Y-6070000D01*
X13280000Y-6580000D02*
X13320000Y-6620000D01*
X13320000Y-6580000D02*
X13280000Y-6620000D01*
X13280000Y-7180000D02*
X13320000Y-7220000D01*
X13320000Y-7180000D02*
X13280000Y-7220000D01*
X13280000Y-11030000D02*
X13320000Y-11070000D01*
X13320000Y-11030000D02*
X13280000Y-11070000D01*
X13330000Y-8430000D02*
X13370000Y-8470000D01*
X13370000Y-8430000D02*
X13330000Y-8470000D01*
X13330000Y-8930000D02*
X13370000Y-8970000D01*
X13370000Y-8930000D02*
X13330000Y-8970000D01*
X13330000Y-9480000D02*
X13370000Y-9520000D01*
X13370000Y-9480000D02*
X13330000Y-9520000D01*
X13330000Y-9980000D02*
X13370000Y-10020000D01*
X13370000Y-9980000D02*
X13330000Y-10020000D01*
X13330000Y-10530000D02*
X13370000Y-10570000D01*
X13370000Y-10530000D02*
X13330000Y-10570000D01*
X13330000Y-11580000D02*
X13370000Y-11620000D01*
X13370000Y-11580000D02*
X13330000Y-11620000D01*
X13330000Y-12130000D02*
X13370000Y-12170000D01*
X13370000Y-12130000D02*
X13330000Y-12170000D01*
X13380000Y-13530000D02*
X13420000Y-13570000D01*
X13420000Y-13530000D02*
X13380000Y-13570000D01*
X13780000Y-4580000D02*
X13820000Y-4620000D01*
X13820000Y-4580000D02*
X13780000Y-4620000D01*
X14030000Y-13530000D02*
X14070000Y-13570000D01*
X14070000Y-13530000D02*
X14030000Y-13570000D01*
X15330000Y-4580000D02*
X15370000Y-4620000D01*
X15370000Y-4580000D02*
X15330000Y-4620000D01*
X15330000Y-13530000D02*
X15370000Y-13570000D01*
X15370000Y-13530000D02*
X15330000Y-13570000D01*
X15630000Y-8580000D02*
X15670000Y-8620000D01*
X15670000Y-8580000D02*
X15630000Y-8620000D01*
X15630000Y-9430000D02*
X15670000Y-9470000D01*
X15670000Y-9430000D02*
X15630000Y-9470000D01*
X15980000Y-9030000D02*
X16020000Y-9070000D01*
X16020000Y-9030000D02*
X15980000Y-9070000D01*
X16330000Y-5430000D02*
X16370000Y-5470000D01*
X16370000Y-5430000D02*
X16330000Y-5470000D01*
X16330000Y-5980000D02*
X16370000Y-6020000D01*
X16370000Y-5980000D02*
X16330000Y-6020000D01*
X16330000Y-6580000D02*
X16370000Y-6620000D01*
X16370000Y-6580000D02*
X16330000Y-6620000D01*
X16330000Y-7180000D02*
X16370000Y-7220000D01*
X16370000Y-7180000D02*
X16330000Y-7220000D01*
X16330000Y-7830000D02*
X16370000Y-7870000D01*
X16370000Y-7830000D02*
X16330000Y-7870000D01*
X16330000Y-10380000D02*
X16370000Y-10420000D01*
X16370000Y-10380000D02*
X16330000Y-10420000D01*
X16330000Y-10980000D02*
X16370000Y-11020000D01*
X16370000Y-10980000D02*
X16330000Y-11020000D01*
X16330000Y-11580000D02*
X16370000Y-11620000D01*
X16370000Y-11580000D02*
X16330000Y-11620000D01*
X16330000Y-12180000D02*
X16370000Y-12220000D01*
X16370000Y-12180000D02*
X16330000Y-12220000D01*
X16330000Y-12780000D02*
X16370000Y-12820000D01*
X16370000Y-12780000D02*
X16330000Y-12820000D01*
X16680000Y-4580000D02*
X16720000Y-4620000D01*
X16720000Y-4580000D02*
X16680000Y-4620000D01*
X16730000Y-13530000D02*
X16770000Y-13570000D01*
X16770000Y-13530000D02*
X16730000Y-13570000D01*
X17380000Y-13530000D02*
X17420000Y-13570000D01*
X17420000Y-13530000D02*
X17380000Y-13570000D01*
X18580000Y-13530000D02*
X18620000Y-13570000D01*
X18620000Y-13530000D02*
X18580000Y-13570000D01*
X18680000Y-14230000D02*
X18720000Y-14270000D01*
X18720000Y-14230000D02*
X18680000Y-14270000D01*
X18780000Y-4080000D02*
X18820000Y-4120000D01*
X18820000Y-4080000D02*
X18780000Y-4120000D01*
X19230000Y-14230000D02*
X19270000Y-14270000D01*
X19270000Y-14230000D02*
X19230000Y-14270000D01*
X19380000Y-4080000D02*
X19420000Y-4120000D01*
X19420000Y-4080000D02*
X19380000Y-4120000D01*
X19380000Y-5680000D02*
X19420000Y-5720000D01*
X19420000Y-5680000D02*
X19380000Y-5720000D01*
X19380000Y-6480000D02*
X19420000Y-6520000D01*
X19420000Y-6480000D02*
X19380000Y-6520000D01*
X19380000Y-7280000D02*
X19420000Y-7320000D01*
X19420000Y-7280000D02*
X19380000Y-7320000D01*
X19380000Y-8080000D02*
X19420000Y-8120000D01*
X19420000Y-8080000D02*
X19380000Y-8120000D01*
X19380000Y-8880000D02*
X19420000Y-8920000D01*
X19420000Y-8880000D02*
X19380000Y-8920000D01*
X19380000Y-9680000D02*
X19420000Y-9720000D01*
X19420000Y-9680000D02*
X19380000Y-9720000D01*
X19380000Y-10430000D02*
X19420000Y-10470000D01*
X19420000Y-10430000D02*
X19380000Y-10470000D01*
X19380000Y-11230000D02*
X19420000Y-11270000D01*
X19420000Y-11230000D02*
X19380000Y-11270000D01*
X19380000Y-12030000D02*
X19420000Y-12070000D01*
X19420000Y-12030000D02*
X19380000Y-12070000D01*
X19380000Y-12780000D02*
X19420000Y-12820000D01*
X19420000Y-12780000D02*
X19380000Y-12820000D01*
X8835000Y-4800000D02*
G75*
G02*
X8785000Y-4800000I-25000J0D01*
G01*
X8785000Y-4800000D02*
G75*
G02*
X8835000Y-4800000I25000J0D01*
G01*
X8835000Y-13450000D02*
G75*
G02*
X8785000Y-13450000I-25000J0D01*
G01*
X8785000Y-13450000D02*
G75*
G02*
X8835000Y-13450000I25000J0D01*
G01*
X8905294Y-4630294D02*
G75*
G02*
X8855294Y-4630294I-25000J0D01*
G01*
X8855294Y-4630294D02*
G75*
G02*
X8905294Y-4630294I25000J0D01*
G01*
X8905294Y-4969706D02*
G75*
G02*
X8855294Y-4969706I-25000J0D01*
G01*
X8855294Y-4969706D02*
G75*
G02*
X8905294Y-4969706I25000J0D01*
G01*
X8905294Y-13280294D02*
G75*
G02*
X8855294Y-13280294I-25000J0D01*
G01*
X8855294Y-13280294D02*
G75*
G02*
X8905294Y-13280294I25000J0D01*
G01*
X8905294Y-13619706D02*
G75*
G02*
X8855294Y-13619706I-25000J0D01*
G01*
X8855294Y-13619706D02*
G75*
G02*
X8905294Y-13619706I25000J0D01*
G01*
X9075000Y-4560000D02*
G75*
G02*
X9025000Y-4560000I-25000J0D01*
G01*
X9025000Y-4560000D02*
G75*
G02*
X9075000Y-4560000I25000J0D01*
G01*
X9075000Y-5040000D02*
G75*
G02*
X9025000Y-5040000I-25000J0D01*
G01*
X9025000Y-5040000D02*
G75*
G02*
X9075000Y-5040000I25000J0D01*
G01*
X9075000Y-13210000D02*
G75*
G02*
X9025000Y-13210000I-25000J0D01*
G01*
X9025000Y-13210000D02*
G75*
G02*
X9075000Y-13210000I25000J0D01*
G01*
X9075000Y-13690000D02*
G75*
G02*
X9025000Y-13690000I-25000J0D01*
G01*
X9025000Y-13690000D02*
G75*
G02*
X9075000Y-13690000I25000J0D01*
G01*
X9244706Y-4630294D02*
G75*
G02*
X9194706Y-4630294I-25000J0D01*
G01*
X9194706Y-4630294D02*
G75*
G02*
X9244706Y-4630294I25000J0D01*
G01*
X9244706Y-4969706D02*
G75*
G02*
X9194706Y-4969706I-25000J0D01*
G01*
X9194706Y-4969706D02*
G75*
G02*
X9244706Y-4969706I25000J0D01*
G01*
X9244706Y-13280294D02*
G75*
G02*
X9194706Y-13280294I-25000J0D01*
G01*
X9194706Y-13280294D02*
G75*
G02*
X9244706Y-13280294I25000J0D01*
G01*
X9244706Y-13619706D02*
G75*
G02*
X9194706Y-13619706I-25000J0D01*
G01*
X9194706Y-13619706D02*
G75*
G02*
X9244706Y-13619706I25000J0D01*
G01*
X9315000Y-4800000D02*
G75*
G02*
X9265000Y-4800000I-25000J0D01*
G01*
X9265000Y-4800000D02*
G75*
G02*
X9315000Y-4800000I25000J0D01*
G01*
X9315000Y-13450000D02*
G75*
G02*
X9265000Y-13450000I-25000J0D01*
G01*
X9265000Y-13450000D02*
G75*
G02*
X9315000Y-13450000I25000J0D01*
G01*
X19085000Y-4800000D02*
G75*
G02*
X19035000Y-4800000I-25000J0D01*
G01*
X19035000Y-4800000D02*
G75*
G02*
X19085000Y-4800000I25000J0D01*
G01*
X19085000Y-13440000D02*
G75*
G02*
X19035000Y-13440000I-25000J0D01*
G01*
X19035000Y-13440000D02*
G75*
G02*
X19085000Y-13440000I25000J0D01*
G01*
X19155294Y-4630294D02*
G75*
G02*
X19105294Y-4630294I-25000J0D01*
G01*
X19105294Y-4630294D02*
G75*
G02*
X19155294Y-4630294I25000J0D01*
G01*
X19155294Y-4969706D02*
G75*
G02*
X19105294Y-4969706I-25000J0D01*
G01*
X19105294Y-4969706D02*
G75*
G02*
X19155294Y-4969706I25000J0D01*
G01*
X19155294Y-13270294D02*
G75*
G02*
X19105294Y-13270294I-25000J0D01*
G01*
X19105294Y-13270294D02*
G75*
G02*
X19155294Y-13270294I25000J0D01*
G01*
X19155294Y-13609706D02*
G75*
G02*
X19105294Y-13609706I-25000J0D01*
G01*
X19105294Y-13609706D02*
G75*
G02*
X19155294Y-13609706I25000J0D01*
G01*
X19325000Y-4560000D02*
G75*
G02*
X19275000Y-4560000I-25000J0D01*
G01*
X19275000Y-4560000D02*
G75*
G02*
X19325000Y-4560000I25000J0D01*
G01*
X19325000Y-5040000D02*
G75*
G02*
X19275000Y-5040000I-25000J0D01*
G01*
X19275000Y-5040000D02*
G75*
G02*
X19325000Y-5040000I25000J0D01*
G01*
X19325000Y-13200000D02*
G75*
G02*
X19275000Y-13200000I-25000J0D01*
G01*
X19275000Y-13200000D02*
G75*
G02*
X19325000Y-13200000I25000J0D01*
G01*
X19325000Y-13200000D02*
G75*
G02*
X19275000Y-13200000I-25000J0D01*
G01*
X19275000Y-13200000D02*
G75*
G02*
X19325000Y-13200000I25000J0D01*
G01*
X19325000Y-13680000D02*
G75*
G02*
X19275000Y-13680000I-25000J0D01*
G01*
X19275000Y-13680000D02*
G75*
G02*
X19325000Y-13680000I25000J0D01*
G01*
X19494706Y-4630294D02*
G75*
G02*
X19444706Y-4630294I-25000J0D01*
G01*
X19444706Y-4630294D02*
G75*
G02*
X19494706Y-4630294I25000J0D01*
G01*
X19494706Y-4969706D02*
G75*
G02*
X19444706Y-4969706I-25000J0D01*
G01*
X19444706Y-4969706D02*
G75*
G02*
X19494706Y-4969706I25000J0D01*
G01*
X19494706Y-4969706D02*
G75*
G02*
X19444706Y-4969706I-25000J0D01*
G01*
X19444706Y-4969706D02*
G75*
G02*
X19494706Y-4969706I25000J0D01*
G01*
X19494706Y-13270294D02*
G75*
G02*
X19444706Y-13270294I-25000J0D01*
G01*
X19444706Y-13270294D02*
G75*
G02*
X19494706Y-13270294I25000J0D01*
G01*
X19494706Y-13609706D02*
G75*
G02*
X19444706Y-13609706I-25000J0D01*
G01*
X19444706Y-13609706D02*
G75*
G02*
X19494706Y-13609706I25000J0D01*
G01*
X19565000Y-4800000D02*
G75*
G02*
X19515000Y-4800000I-25000J0D01*
G01*
X19515000Y-4800000D02*
G75*
G02*
X19565000Y-4800000I25000J0D01*
G01*
X19565000Y-13440000D02*
G75*
G02*
X19515000Y-13440000I-25000J0D01*
G01*
X19515000Y-13440000D02*
G75*
G02*
X19565000Y-13440000I25000J0D01*
G01*
X9800000Y-3635000D02*
X9800000Y-3695000D01*
X9770000Y-3665000D02*
X9830000Y-3665000D01*
X9770000Y-3610000D02*
X9770000Y-3720000D01*
X9830000Y-3720000D02*
G75*
G02*
X9770000Y-3720000I-30000J0D01*
G01*
X9830000Y-3720000D02*
X9830000Y-3610000D01*
X9830000Y-3610000D02*
G75*
G03*
X9770000Y-3610000I-30000J0D01*
G01*
X9839288Y-14554285D02*
X9839288Y-14614285D01*
X9809288Y-14584285D02*
X9869288Y-14584285D01*
X9869288Y-14639285D02*
X9869288Y-14529285D01*
X9809288Y-14529285D02*
G75*
G02*
X9869288Y-14529285I30000J0D01*
G01*
X9809288Y-14529285D02*
X9809288Y-14639285D01*
X9809288Y-14639285D02*
G75*
G03*
X9869288Y-14639285I30000J0D01*
G01*
X11150000Y-3635000D02*
X11150000Y-3695000D01*
X11120000Y-3665000D02*
X11180000Y-3665000D01*
X11120000Y-3610000D02*
X11120000Y-3720000D01*
X11180000Y-3720000D02*
G75*
G02*
X11120000Y-3720000I-30000J0D01*
G01*
X11180000Y-3720000D02*
X11180000Y-3610000D01*
X11180000Y-3610000D02*
G75*
G03*
X11120000Y-3610000I-30000J0D01*
G01*
X11189288Y-14554285D02*
X11189288Y-14614285D01*
X11159288Y-14584285D02*
X11219288Y-14584285D01*
X11219288Y-14639285D02*
X11219288Y-14529285D01*
X11159288Y-14529285D02*
G75*
G02*
X11219288Y-14529285I30000J0D01*
G01*
X11159288Y-14529285D02*
X11159288Y-14639285D01*
X11159288Y-14639285D02*
G75*
G03*
X11219288Y-14639285I30000J0D01*
G01*
X11555269Y-3642623D02*
X11555269Y-3702623D01*
X11525269Y-3672623D02*
X11585269Y-3672623D01*
X11525269Y-3617623D02*
X11525269Y-3727623D01*
X11585269Y-3727623D02*
G75*
G02*
X11525269Y-3727623I-30000J0D01*
G01*
X11585269Y-3727623D02*
X11585269Y-3617623D01*
X11585269Y-3617623D02*
G75*
G03*
X11525269Y-3617623I-30000J0D01*
G01*
X11593116Y-14555092D02*
X11593116Y-14615092D01*
X11563116Y-14585092D02*
X11623116Y-14585092D01*
X11623116Y-14640092D02*
X11623116Y-14530092D01*
X11563116Y-14530092D02*
G75*
G02*
X11623116Y-14530092I30000J0D01*
G01*
X11563116Y-14530092D02*
X11563116Y-14640092D01*
X11563116Y-14640092D02*
G75*
G03*
X11623116Y-14640092I30000J0D01*
G01*
X12905269Y-3642623D02*
X12905269Y-3702623D01*
X12875269Y-3672623D02*
X12935269Y-3672623D01*
X12875269Y-3617623D02*
X12875269Y-3727623D01*
X12935269Y-3727623D02*
G75*
G02*
X12875269Y-3727623I-30000J0D01*
G01*
X12935269Y-3727623D02*
X12935269Y-3617623D01*
X12935269Y-3617623D02*
G75*
G03*
X12875269Y-3617623I-30000J0D01*
G01*
X12943116Y-14555092D02*
X12943116Y-14615092D01*
X12913116Y-14585092D02*
X12973116Y-14585092D01*
X12973116Y-14640092D02*
X12973116Y-14530092D01*
X12913116Y-14530092D02*
G75*
G02*
X12973116Y-14530092I30000J0D01*
G01*
X12913116Y-14530092D02*
X12913116Y-14640092D01*
X12913116Y-14640092D02*
G75*
G03*
X12973116Y-14640092I30000J0D01*
G01*
X13325000Y-3635000D02*
X13325000Y-3695000D01*
X13295000Y-3665000D02*
X13355000Y-3665000D01*
X13295000Y-3610000D02*
X13295000Y-3720000D01*
X13355000Y-3720000D02*
G75*
G02*
X13295000Y-3720000I-30000J0D01*
G01*
X13355000Y-3720000D02*
X13355000Y-3610000D01*
X13355000Y-3610000D02*
G75*
G03*
X13295000Y-3610000I-30000J0D01*
G01*
X13350000Y-14552039D02*
X13350000Y-14612039D01*
X13320000Y-14582039D02*
X13380000Y-14582039D01*
X13380000Y-14637039D02*
X13380000Y-14527039D01*
X13320000Y-14527039D02*
G75*
G02*
X13380000Y-14527039I30000J0D01*
G01*
X13320000Y-14527039D02*
X13320000Y-14637039D01*
X13320000Y-14637039D02*
G75*
G03*
X13380000Y-14637039I30000J0D01*
G01*
X14675000Y-3635000D02*
X14675000Y-3695000D01*
X14645000Y-3665000D02*
X14705000Y-3665000D01*
X14645000Y-3610000D02*
X14645000Y-3720000D01*
X14705000Y-3720000D02*
G75*
G02*
X14645000Y-3720000I-30000J0D01*
G01*
X14705000Y-3720000D02*
X14705000Y-3610000D01*
X14705000Y-3610000D02*
G75*
G03*
X14645000Y-3610000I-30000J0D01*
G01*
X14700000Y-14552039D02*
X14700000Y-14612039D01*
X14670000Y-14582039D02*
X14730000Y-14582039D01*
X14730000Y-14637039D02*
X14730000Y-14527039D01*
X14670000Y-14527039D02*
G75*
G02*
X14730000Y-14527039I30000J0D01*
G01*
X14670000Y-14527039D02*
X14670000Y-14637039D01*
X14670000Y-14637039D02*
G75*
G03*
X14730000Y-14637039I30000J0D01*
G01*
X15069470Y-3638815D02*
X15069470Y-3698815D01*
X15039470Y-3668815D02*
X15099470Y-3668815D01*
X15039470Y-3613815D02*
X15039470Y-3723815D01*
X15099470Y-3723815D02*
G75*
G02*
X15039470Y-3723815I-30000J0D01*
G01*
X15099470Y-3723815D02*
X15099470Y-3613815D01*
X15099470Y-3613815D02*
G75*
G03*
X15039470Y-3613815I-30000J0D01*
G01*
X15079079Y-14552039D02*
X15079079Y-14612039D01*
X15049079Y-14582039D02*
X15109079Y-14582039D01*
X15109079Y-14637039D02*
X15109079Y-14527039D01*
X15049079Y-14527039D02*
G75*
G02*
X15109079Y-14527039I30000J0D01*
G01*
X15049079Y-14527039D02*
X15049079Y-14637039D01*
X15049079Y-14637039D02*
G75*
G03*
X15109079Y-14637039I30000J0D01*
G01*
X16419470Y-3638815D02*
X16419470Y-3698815D01*
X16389470Y-3668815D02*
X16449470Y-3668815D01*
X16389470Y-3613815D02*
X16389470Y-3723815D01*
X16449470Y-3723815D02*
G75*
G02*
X16389470Y-3723815I-30000J0D01*
G01*
X16449470Y-3723815D02*
X16449470Y-3613815D01*
X16449470Y-3613815D02*
G75*
G03*
X16389470Y-3613815I-30000J0D01*
G01*
X16429079Y-14552039D02*
X16429079Y-14612039D01*
X16399079Y-14582039D02*
X16459079Y-14582039D01*
X16459079Y-14637039D02*
X16459079Y-14527039D01*
X16399079Y-14527039D02*
G75*
G02*
X16459079Y-14527039I30000J0D01*
G01*
X16399079Y-14527039D02*
X16399079Y-14637039D01*
X16399079Y-14637039D02*
G75*
G03*
X16459079Y-14637039I30000J0D01*
G01*
X16821373Y-14554105D02*
X16821373Y-14614105D01*
X16791373Y-14584105D02*
X16851373Y-14584105D01*
X16851373Y-14639105D02*
X16851373Y-14529105D01*
X16791373Y-14529105D02*
G75*
G02*
X16851373Y-14529105I30000J0D01*
G01*
X16791373Y-14529105D02*
X16791373Y-14639105D01*
X16791373Y-14639105D02*
G75*
G03*
X16851373Y-14639105I30000J0D01*
G01*
X16824303Y-3641927D02*
X16824303Y-3701927D01*
X16794303Y-3671927D02*
X16854303Y-3671927D01*
X16794303Y-3616927D02*
X16794303Y-3726927D01*
X16854303Y-3726927D02*
G75*
G02*
X16794303Y-3726927I-30000J0D01*
G01*
X16854303Y-3726927D02*
X16854303Y-3616927D01*
X16854303Y-3616927D02*
G75*
G03*
X16794303Y-3616927I-30000J0D01*
G01*
X18171373Y-14554105D02*
X18171373Y-14614105D01*
X18141373Y-14584105D02*
X18201373Y-14584105D01*
X18201373Y-14639105D02*
X18201373Y-14529105D01*
X18141373Y-14529105D02*
G75*
G02*
X18201373Y-14529105I30000J0D01*
G01*
X18141373Y-14529105D02*
X18141373Y-14639105D01*
X18141373Y-14639105D02*
G75*
G03*
X18201373Y-14639105I30000J0D01*
G01*
X18174303Y-3641927D02*
X18174303Y-3701927D01*
X18144303Y-3671927D02*
X18204303Y-3671927D01*
X18144303Y-3616927D02*
X18144303Y-3726927D01*
X18204303Y-3726927D02*
G75*
G02*
X18144303Y-3726927I-30000J0D01*
G01*
X18204303Y-3726927D02*
X18204303Y-3616927D01*
X18204303Y-3616927D02*
G75*
G03*
X18144303Y-3616927I-30000J0D01*
G01*
D12*
X9113640Y-6413640D02*
X9113640Y-6286360D01*
X8986360Y-6286360D01*
X8986360Y-6413640D01*
X9113640Y-6413640D01*
X9113640Y-7213640D02*
X9113640Y-7086360D01*
X8986360Y-7086360D01*
X8986360Y-7213640D01*
X9113640Y-7213640D01*
X9113640Y-8013640D02*
X9113640Y-7886360D01*
X8986360Y-7886360D01*
X8986360Y-8013640D01*
X9113640Y-8013640D01*
X9113640Y-8813640D02*
X9113640Y-8686360D01*
X8986360Y-8686360D01*
X8986360Y-8813640D01*
X9113640Y-8813640D01*
X9113640Y-9613640D02*
X9113640Y-9486360D01*
X8986360Y-9486360D01*
X8986360Y-9613640D01*
X9113640Y-9613640D01*
X9113640Y-10413640D02*
X9113640Y-10286360D01*
X8986360Y-10286360D01*
X8986360Y-10413640D01*
X9113640Y-10413640D01*
X9113640Y-11213640D02*
X9113640Y-11086360D01*
X8986360Y-11086360D01*
X8986360Y-11213640D01*
X9113640Y-11213640D01*
X9113640Y-12013640D02*
X9113640Y-11886360D01*
X8986360Y-11886360D01*
X8986360Y-12013640D01*
X9113640Y-12013640D01*
X9613640Y-6413640D02*
X9613640Y-6286360D01*
X9486360Y-6286360D01*
X9486360Y-6413640D01*
X9613640Y-6413640D01*
X9613640Y-7213640D02*
X9613640Y-7086360D01*
X9486360Y-7086360D01*
X9486360Y-7213640D01*
X9613640Y-7213640D01*
X9613640Y-8013640D02*
X9613640Y-7886360D01*
X9486360Y-7886360D01*
X9486360Y-8013640D01*
X9613640Y-8013640D01*
X9613640Y-8813640D02*
X9613640Y-8686360D01*
X9486360Y-8686360D01*
X9486360Y-8813640D01*
X9613640Y-8813640D01*
X9613640Y-9613640D02*
X9613640Y-9486360D01*
X9486360Y-9486360D01*
X9486360Y-9613640D01*
X9613640Y-9613640D01*
X9613640Y-10413640D02*
X9613640Y-10286360D01*
X9486360Y-10286360D01*
X9486360Y-10413640D01*
X9613640Y-10413640D01*
X9613640Y-11213640D02*
X9613640Y-11086360D01*
X9486360Y-11086360D01*
X9486360Y-11213640D01*
X9613640Y-11213640D01*
X9613640Y-12013640D02*
X9613640Y-11886360D01*
X9486360Y-11886360D01*
X9486360Y-12013640D01*
X9613640Y-12013640D01*
D13*
X10115000Y-4400000D02*
X10250000Y-4265000D01*
X10115000Y-4130000D01*
X9980000Y-4265000D01*
X10115000Y-4400000D01*
X10154288Y-14119285D02*
X10289288Y-13984285D01*
X10154288Y-13849285D01*
X10019288Y-13984285D01*
X10154288Y-14119285D01*
X10835000Y-4400000D02*
X10970000Y-4265000D01*
X10835000Y-4130000D01*
X10700000Y-4265000D01*
X10835000Y-4400000D01*
X10874288Y-14119285D02*
X11009288Y-13984285D01*
X10874288Y-13849285D01*
X10739288Y-13984285D01*
X10874288Y-14119285D01*
X11870269Y-4407623D02*
X12005269Y-4272623D01*
X11870269Y-4137623D01*
X11735269Y-4272623D01*
X11870269Y-4407623D01*
X11908116Y-14120092D02*
X12043116Y-13985092D01*
X11908116Y-13850092D01*
X11773116Y-13985092D01*
X11908116Y-14120092D01*
X12590269Y-4407623D02*
X12725269Y-4272623D01*
X12590269Y-4137623D01*
X12455269Y-4272623D01*
X12590269Y-4407623D01*
X12628116Y-14120092D02*
X12763116Y-13985092D01*
X12628116Y-13850092D01*
X12493116Y-13985092D01*
X12628116Y-14120092D01*
X13640000Y-4400000D02*
X13775000Y-4265000D01*
X13640000Y-4130000D01*
X13505000Y-4265000D01*
X13640000Y-4400000D01*
X13665000Y-14117039D02*
X13800000Y-13982039D01*
X13665000Y-13847039D01*
X13530000Y-13982039D01*
X13665000Y-14117039D01*
X14360000Y-4400000D02*
X14495000Y-4265000D01*
X14360000Y-4130000D01*
X14225000Y-4265000D01*
X14360000Y-4400000D01*
X14385000Y-14117039D02*
X14520000Y-13982039D01*
X14385000Y-13847039D01*
X14250000Y-13982039D01*
X14385000Y-14117039D01*
X15384470Y-4403815D02*
X15519470Y-4268815D01*
X15384470Y-4133815D01*
X15249470Y-4268815D01*
X15384470Y-4403815D01*
X15394079Y-14117039D02*
X15529079Y-13982039D01*
X15394079Y-13847039D01*
X15259079Y-13982039D01*
X15394079Y-14117039D01*
X16104470Y-4403815D02*
X16239470Y-4268815D01*
X16104470Y-4133815D01*
X15969470Y-4268815D01*
X16104470Y-4403815D01*
X16114079Y-14117039D02*
X16249079Y-13982039D01*
X16114079Y-13847039D01*
X15979079Y-13982039D01*
X16114079Y-14117039D01*
X17136373Y-14119105D02*
X17271373Y-13984105D01*
X17136373Y-13849105D01*
X17001373Y-13984105D01*
X17136373Y-14119105D01*
X17139303Y-4406927D02*
X17274303Y-4271927D01*
X17139303Y-4136927D01*
X17004303Y-4271927D01*
X17139303Y-4406927D01*
X17856373Y-14119105D02*
X17991373Y-13984105D01*
X17856373Y-13849105D01*
X17721373Y-13984105D01*
X17856373Y-14119105D01*
X17859303Y-4406927D02*
X17994303Y-4271927D01*
X17859303Y-4136927D01*
X17724303Y-4271927D01*
X17859303Y-4406927D01*
D14*
X8890000Y-4640000D02*
X9210000Y-4960000D01*
X9210000Y-4640000D02*
X8890000Y-4960000D01*
X9210000Y-4800000D02*
G75*
G02*
X8890000Y-4800000I-160000J0D01*
G01*
X8890000Y-4800000D02*
G75*
G02*
X9210000Y-4800000I160000J0D01*
G01*
X8890000Y-4640000D02*
X9210000Y-4960000D01*
X9210000Y-4640000D02*
X8890000Y-4960000D01*
X9210000Y-4800000D02*
G75*
G02*
X8890000Y-4800000I-160000J0D01*
G01*
X8890000Y-4800000D02*
G75*
G02*
X9210000Y-4800000I160000J0D01*
G01*
X8890000Y-13290000D02*
X9210000Y-13610000D01*
X9210000Y-13290000D02*
X8890000Y-13610000D01*
X9210000Y-13450000D02*
G75*
G02*
X8890000Y-13450000I-160000J0D01*
G01*
X8890000Y-13450000D02*
G75*
G02*
X9210000Y-13450000I160000J0D01*
G01*
X8890000Y-13290000D02*
X9210000Y-13610000D01*
X9210000Y-13290000D02*
X8890000Y-13610000D01*
X9210000Y-13450000D02*
G75*
G02*
X8890000Y-13450000I-160000J0D01*
G01*
X8890000Y-13450000D02*
G75*
G02*
X9210000Y-13450000I160000J0D01*
G01*
X19140000Y-4640000D02*
X19460000Y-4960000D01*
X19460000Y-4640000D02*
X19140000Y-4960000D01*
X19460000Y-4800000D02*
G75*
G02*
X19140000Y-4800000I-160000J0D01*
G01*
X19140000Y-4800000D02*
G75*
G02*
X19460000Y-4800000I160000J0D01*
G01*
X19140000Y-13280000D02*
X19460000Y-13600000D01*
X19460000Y-13280000D02*
X19140000Y-13600000D01*
X19460000Y-13440000D02*
G75*
G02*
X19140000Y-13440000I-160000J0D01*
G01*
X19140000Y-13440000D02*
G75*
G02*
X19460000Y-13440000I160000J0D01*
G01*
D15*
X10865000Y-9425000D02*
X11315000Y-9875000D01*
X11315000Y-9425000D02*
X10865000Y-9875000D01*
X11090000Y-9425000D02*
X11090000Y-9875000D01*
X10865000Y-9650000D02*
X11315000Y-9650000D01*
X10865000Y-10475000D02*
X11315000Y-10925000D01*
X11315000Y-10475000D02*
X10865000Y-10925000D01*
X11090000Y-10475000D02*
X11090000Y-10925000D01*
X10865000Y-10700000D02*
X11315000Y-10700000D01*
X10865000Y-11525000D02*
X11315000Y-11975000D01*
X11315000Y-11525000D02*
X10865000Y-11975000D01*
X11090000Y-11525000D02*
X11090000Y-11975000D01*
X10865000Y-11750000D02*
X11315000Y-11750000D01*
X10875000Y-8350000D02*
X11325000Y-8800000D01*
X11325000Y-8350000D02*
X10875000Y-8800000D01*
X11100000Y-8350000D02*
X11100000Y-8800000D01*
X10875000Y-8575000D02*
X11325000Y-8575000D01*
X10875000Y-12575000D02*
X11325000Y-13025000D01*
X11325000Y-12575000D02*
X10875000Y-13025000D01*
X11100000Y-12575000D02*
X11100000Y-13025000D01*
X10875000Y-12800000D02*
X11325000Y-12800000D01*
X10885000Y-5175000D02*
X11335000Y-5625000D01*
X11335000Y-5175000D02*
X10885000Y-5625000D01*
X11110000Y-5175000D02*
X11110000Y-5625000D01*
X10885000Y-5400000D02*
X11335000Y-5400000D01*
X10885000Y-6225000D02*
X11335000Y-6675000D01*
X11335000Y-6225000D02*
X10885000Y-6675000D01*
X11110000Y-6225000D02*
X11110000Y-6675000D01*
X10885000Y-6450000D02*
X11335000Y-6450000D01*
X10885000Y-7275000D02*
X11335000Y-7725000D01*
X11335000Y-7275000D02*
X10885000Y-7725000D01*
X11110000Y-7275000D02*
X11110000Y-7725000D01*
X10885000Y-7500000D02*
X11335000Y-7500000D01*
X11585000Y-9425000D02*
X12035000Y-9875000D01*
X12035000Y-9425000D02*
X11585000Y-9875000D01*
X11810000Y-9425000D02*
X11810000Y-9875000D01*
X11585000Y-9650000D02*
X12035000Y-9650000D01*
X11585000Y-10475000D02*
X12035000Y-10925000D01*
X12035000Y-10475000D02*
X11585000Y-10925000D01*
X11810000Y-10475000D02*
X11810000Y-10925000D01*
X11585000Y-10700000D02*
X12035000Y-10700000D01*
X11585000Y-11525000D02*
X12035000Y-11975000D01*
X12035000Y-11525000D02*
X11585000Y-11975000D01*
X11810000Y-11525000D02*
X11810000Y-11975000D01*
X11585000Y-11750000D02*
X12035000Y-11750000D01*
X11595000Y-8350000D02*
X12045000Y-8800000D01*
X12045000Y-8350000D02*
X11595000Y-8800000D01*
X11820000Y-8350000D02*
X11820000Y-8800000D01*
X11595000Y-8575000D02*
X12045000Y-8575000D01*
X11595000Y-12575000D02*
X12045000Y-13025000D01*
X12045000Y-12575000D02*
X11595000Y-13025000D01*
X11820000Y-12575000D02*
X11820000Y-13025000D01*
X11595000Y-12800000D02*
X12045000Y-12800000D01*
X11605000Y-5175000D02*
X12055000Y-5625000D01*
X12055000Y-5175000D02*
X11605000Y-5625000D01*
X11830000Y-5175000D02*
X11830000Y-5625000D01*
X11605000Y-5400000D02*
X12055000Y-5400000D01*
X11605000Y-6225000D02*
X12055000Y-6675000D01*
X12055000Y-6225000D02*
X11605000Y-6675000D01*
X11830000Y-6225000D02*
X11830000Y-6675000D01*
X11605000Y-6450000D02*
X12055000Y-6450000D01*
X11605000Y-7275000D02*
X12055000Y-7725000D01*
X12055000Y-7275000D02*
X11605000Y-7725000D01*
X11830000Y-7275000D02*
X11830000Y-7725000D01*
X11605000Y-7500000D02*
X12055000Y-7500000D01*
X13825000Y-12575000D02*
X14275000Y-13025000D01*
X14275000Y-12575000D02*
X13825000Y-13025000D01*
X14050000Y-12575000D02*
X14050000Y-13025000D01*
X13825000Y-12800000D02*
X14275000Y-12800000D01*
X13835000Y-8375000D02*
X14285000Y-8825000D01*
X14285000Y-8375000D02*
X13835000Y-8825000D01*
X14060000Y-8375000D02*
X14060000Y-8825000D01*
X13835000Y-8600000D02*
X14285000Y-8600000D01*
X13835000Y-9425000D02*
X14285000Y-9875000D01*
X14285000Y-9425000D02*
X13835000Y-9875000D01*
X14060000Y-9425000D02*
X14060000Y-9875000D01*
X13835000Y-9650000D02*
X14285000Y-9650000D01*
X13835000Y-10475000D02*
X14285000Y-10925000D01*
X14285000Y-10475000D02*
X13835000Y-10925000D01*
X14060000Y-10475000D02*
X14060000Y-10925000D01*
X13835000Y-10700000D02*
X14285000Y-10700000D01*
X13835000Y-11525000D02*
X14285000Y-11975000D01*
X14285000Y-11525000D02*
X13835000Y-11975000D01*
X14060000Y-11525000D02*
X14060000Y-11975000D01*
X13835000Y-11750000D02*
X14285000Y-11750000D01*
X13845000Y-7325000D02*
X14295000Y-7775000D01*
X14295000Y-7325000D02*
X13845000Y-7775000D01*
X14070000Y-7325000D02*
X14070000Y-7775000D01*
X13845000Y-7550000D02*
X14295000Y-7550000D01*
X13865000Y-5175000D02*
X14315000Y-5625000D01*
X14315000Y-5175000D02*
X13865000Y-5625000D01*
X14090000Y-5175000D02*
X14090000Y-5625000D01*
X13865000Y-5400000D02*
X14315000Y-5400000D01*
X13865000Y-6250000D02*
X14315000Y-6700000D01*
X14315000Y-6250000D02*
X13865000Y-6700000D01*
X14090000Y-6250000D02*
X14090000Y-6700000D01*
X13865000Y-6475000D02*
X14315000Y-6475000D01*
X14545000Y-12575000D02*
X14995000Y-13025000D01*
X14995000Y-12575000D02*
X14545000Y-13025000D01*
X14770000Y-12575000D02*
X14770000Y-13025000D01*
X14545000Y-12800000D02*
X14995000Y-12800000D01*
X14555000Y-8375000D02*
X15005000Y-8825000D01*
X15005000Y-8375000D02*
X14555000Y-8825000D01*
X14780000Y-8375000D02*
X14780000Y-8825000D01*
X14555000Y-8600000D02*
X15005000Y-8600000D01*
X14555000Y-9425000D02*
X15005000Y-9875000D01*
X15005000Y-9425000D02*
X14555000Y-9875000D01*
X14780000Y-9425000D02*
X14780000Y-9875000D01*
X14555000Y-9650000D02*
X15005000Y-9650000D01*
X14555000Y-10475000D02*
X15005000Y-10925000D01*
X15005000Y-10475000D02*
X14555000Y-10925000D01*
X14780000Y-10475000D02*
X14780000Y-10925000D01*
X14555000Y-10700000D02*
X15005000Y-10700000D01*
X14555000Y-11525000D02*
X15005000Y-11975000D01*
X15005000Y-11525000D02*
X14555000Y-11975000D01*
X14780000Y-11525000D02*
X14780000Y-11975000D01*
X14555000Y-11750000D02*
X15005000Y-11750000D01*
X14565000Y-7325000D02*
X15015000Y-7775000D01*
X15015000Y-7325000D02*
X14565000Y-7775000D01*
X14790000Y-7325000D02*
X14790000Y-7775000D01*
X14565000Y-7550000D02*
X15015000Y-7550000D01*
X14585000Y-5175000D02*
X15035000Y-5625000D01*
X15035000Y-5175000D02*
X14585000Y-5625000D01*
X14810000Y-5175000D02*
X14810000Y-5625000D01*
X14585000Y-5400000D02*
X15035000Y-5400000D01*
X14585000Y-6250000D02*
X15035000Y-6700000D01*
X15035000Y-6250000D02*
X14585000Y-6700000D01*
X14810000Y-6250000D02*
X14810000Y-6700000D01*
X14585000Y-6475000D02*
X15035000Y-6475000D01*
X16905000Y-7075000D02*
X17355000Y-7525000D01*
X17355000Y-7075000D02*
X16905000Y-7525000D01*
X17130000Y-7075000D02*
X17130000Y-7525000D01*
X16905000Y-7300000D02*
X17355000Y-7300000D01*
X16905000Y-9675000D02*
X17355000Y-10125000D01*
X17355000Y-9675000D02*
X16905000Y-10125000D01*
X17130000Y-9675000D02*
X17130000Y-10125000D01*
X16905000Y-9900000D02*
X17355000Y-9900000D01*
X16905000Y-10700000D02*
X17355000Y-11150000D01*
X17355000Y-10700000D02*
X16905000Y-11150000D01*
X17130000Y-10700000D02*
X17130000Y-11150000D01*
X16905000Y-10925000D02*
X17355000Y-10925000D01*
X16905000Y-11750000D02*
X17355000Y-12200000D01*
X17355000Y-11750000D02*
X16905000Y-12200000D01*
X17130000Y-11750000D02*
X17130000Y-12200000D01*
X16905000Y-11975000D02*
X17355000Y-11975000D01*
X16915000Y-4925000D02*
X17365000Y-5375000D01*
X17365000Y-4925000D02*
X16915000Y-5375000D01*
X17140000Y-4925000D02*
X17140000Y-5375000D01*
X16915000Y-5150000D02*
X17365000Y-5150000D01*
X16915000Y-6025000D02*
X17365000Y-6475000D01*
X17365000Y-6025000D02*
X16915000Y-6475000D01*
X17140000Y-6025000D02*
X17140000Y-6475000D01*
X16915000Y-6250000D02*
X17365000Y-6250000D01*
X16915000Y-8125000D02*
X17365000Y-8575000D01*
X17365000Y-8125000D02*
X16915000Y-8575000D01*
X17140000Y-8125000D02*
X17140000Y-8575000D01*
X16915000Y-8350000D02*
X17365000Y-8350000D01*
X16915000Y-12800000D02*
X17365000Y-13250000D01*
X17365000Y-12800000D02*
X16915000Y-13250000D01*
X17140000Y-12800000D02*
X17140000Y-13250000D01*
X16915000Y-13025000D02*
X17365000Y-13025000D01*
X17625000Y-7075000D02*
X18075000Y-7525000D01*
X18075000Y-7075000D02*
X17625000Y-7525000D01*
X17850000Y-7075000D02*
X17850000Y-7525000D01*
X17625000Y-7300000D02*
X18075000Y-7300000D01*
X17625000Y-9675000D02*
X18075000Y-10125000D01*
X18075000Y-9675000D02*
X17625000Y-10125000D01*
X17850000Y-9675000D02*
X17850000Y-10125000D01*
X17625000Y-9900000D02*
X18075000Y-9900000D01*
X17625000Y-10700000D02*
X18075000Y-11150000D01*
X18075000Y-10700000D02*
X17625000Y-11150000D01*
X17850000Y-10700000D02*
X17850000Y-11150000D01*
X17625000Y-10925000D02*
X18075000Y-10925000D01*
X17625000Y-11750000D02*
X18075000Y-12200000D01*
X18075000Y-11750000D02*
X17625000Y-12200000D01*
X17850000Y-11750000D02*
X17850000Y-12200000D01*
X17625000Y-11975000D02*
X18075000Y-11975000D01*
X17635000Y-4925000D02*
X18085000Y-5375000D01*
X18085000Y-4925000D02*
X17635000Y-5375000D01*
X17860000Y-4925000D02*
X17860000Y-5375000D01*
X17635000Y-5150000D02*
X18085000Y-5150000D01*
X17635000Y-6025000D02*
X18085000Y-6475000D01*
X18085000Y-6025000D02*
X17635000Y-6475000D01*
X17860000Y-6025000D02*
X17860000Y-6475000D01*
X17635000Y-6250000D02*
X18085000Y-6250000D01*
X17635000Y-8125000D02*
X18085000Y-8575000D01*
X18085000Y-8125000D02*
X17635000Y-8575000D01*
X17860000Y-8125000D02*
X17860000Y-8575000D01*
X17635000Y-8350000D02*
X18085000Y-8350000D01*
X17635000Y-12800000D02*
X18085000Y-13250000D01*
X18085000Y-12800000D02*
X17635000Y-13250000D01*
X17860000Y-12800000D02*
X17860000Y-13250000D01*
X17635000Y-13025000D02*
X18085000Y-13025000D01*
D11*
X8755777Y-15066484D02*
X8755777Y-14866484D01*
X8755777Y-14866484D02*
X8803396Y-14866484D01*
X8803396Y-14866484D02*
X8831967Y-14876008D01*
X8831967Y-14876008D02*
X8851015Y-14895055D01*
X8851015Y-14895055D02*
X8860539Y-14914103D01*
X8860539Y-14914103D02*
X8870063Y-14952198D01*
X8870063Y-14952198D02*
X8870063Y-14980769D01*
X8870063Y-14980769D02*
X8860539Y-15018865D01*
X8860539Y-15018865D02*
X8851015Y-15037912D01*
X8851015Y-15037912D02*
X8831967Y-15056960D01*
X8831967Y-15056960D02*
X8803396Y-15066484D01*
X8803396Y-15066484D02*
X8755777Y-15066484D01*
X8955777Y-15066484D02*
X8955777Y-14933150D01*
X8955777Y-14971246D02*
X8965301Y-14952198D01*
X8965301Y-14952198D02*
X8974824Y-14942674D01*
X8974824Y-14942674D02*
X8993872Y-14933150D01*
X8993872Y-14933150D02*
X9012920Y-14933150D01*
X9079586Y-15066484D02*
X9079586Y-14933150D01*
X9079586Y-14866484D02*
X9070063Y-14876008D01*
X9070063Y-14876008D02*
X9079586Y-14885531D01*
X9079586Y-14885531D02*
X9089110Y-14876008D01*
X9089110Y-14876008D02*
X9079586Y-14866484D01*
X9079586Y-14866484D02*
X9079586Y-14885531D01*
X9203396Y-15066484D02*
X9184348Y-15056960D01*
X9184348Y-15056960D02*
X9174824Y-15037912D01*
X9174824Y-15037912D02*
X9174824Y-14866484D01*
X9308158Y-15066484D02*
X9289110Y-15056960D01*
X9289110Y-15056960D02*
X9279586Y-15037912D01*
X9279586Y-15037912D02*
X9279586Y-14866484D01*
X9536729Y-15066484D02*
X9536729Y-14866484D01*
X9536729Y-14866484D02*
X9603396Y-15009341D01*
X9603396Y-15009341D02*
X9670063Y-14866484D01*
X9670063Y-14866484D02*
X9670063Y-15066484D01*
X9851015Y-15066484D02*
X9851015Y-14961722D01*
X9851015Y-14961722D02*
X9841491Y-14942674D01*
X9841491Y-14942674D02*
X9822444Y-14933150D01*
X9822444Y-14933150D02*
X9784348Y-14933150D01*
X9784348Y-14933150D02*
X9765301Y-14942674D01*
X9851015Y-15056960D02*
X9831967Y-15066484D01*
X9831967Y-15066484D02*
X9784348Y-15066484D01*
X9784348Y-15066484D02*
X9765301Y-15056960D01*
X9765301Y-15056960D02*
X9755777Y-15037912D01*
X9755777Y-15037912D02*
X9755777Y-15018865D01*
X9755777Y-15018865D02*
X9765301Y-14999817D01*
X9765301Y-14999817D02*
X9784348Y-14990293D01*
X9784348Y-14990293D02*
X9831967Y-14990293D01*
X9831967Y-14990293D02*
X9851015Y-14980769D01*
X9946253Y-14933150D02*
X9946253Y-15133150D01*
X9946253Y-14942674D02*
X9965301Y-14933150D01*
X9965301Y-14933150D02*
X10003396Y-14933150D01*
X10003396Y-14933150D02*
X10022444Y-14942674D01*
X10022444Y-14942674D02*
X10031967Y-14952198D01*
X10031967Y-14952198D02*
X10041491Y-14971246D01*
X10041491Y-14971246D02*
X10041491Y-15028388D01*
X10041491Y-15028388D02*
X10031967Y-15047436D01*
X10031967Y-15047436D02*
X10022444Y-15056960D01*
X10022444Y-15056960D02*
X10003396Y-15066484D01*
X10003396Y-15066484D02*
X9965301Y-15066484D01*
X9965301Y-15066484D02*
X9946253Y-15056960D01*
X10127205Y-15047436D02*
X10136729Y-15056960D01*
X10136729Y-15056960D02*
X10127205Y-15066484D01*
X10127205Y-15066484D02*
X10117682Y-15056960D01*
X10117682Y-15056960D02*
X10127205Y-15047436D01*
X10127205Y-15047436D02*
X10127205Y-15066484D01*
X10127205Y-14942674D02*
X10136729Y-14952198D01*
X10136729Y-14952198D02*
X10127205Y-14961722D01*
X10127205Y-14961722D02*
X10117682Y-14952198D01*
X10117682Y-14952198D02*
X10127205Y-14942674D01*
X10127205Y-14942674D02*
X10127205Y-14961722D01*
D10*
X8455000Y-15375000D02*
X8495000Y-15415000D01*
X8495000Y-15375000D02*
X8455000Y-15415000D01*
D11*
X8793872Y-15286484D02*
X8812920Y-15286484D01*
X8812920Y-15286484D02*
X8831967Y-15296008D01*
X8831967Y-15296008D02*
X8841491Y-15305531D01*
X8841491Y-15305531D02*
X8851015Y-15324579D01*
X8851015Y-15324579D02*
X8860539Y-15362674D01*
X8860539Y-15362674D02*
X8860539Y-15410293D01*
X8860539Y-15410293D02*
X8851015Y-15448388D01*
X8851015Y-15448388D02*
X8841491Y-15467436D01*
X8841491Y-15467436D02*
X8831967Y-15476960D01*
X8831967Y-15476960D02*
X8812920Y-15486484D01*
X8812920Y-15486484D02*
X8793872Y-15486484D01*
X8793872Y-15486484D02*
X8774824Y-15476960D01*
X8774824Y-15476960D02*
X8765301Y-15467436D01*
X8765301Y-15467436D02*
X8755777Y-15448388D01*
X8755777Y-15448388D02*
X8746253Y-15410293D01*
X8746253Y-15410293D02*
X8746253Y-15362674D01*
X8746253Y-15362674D02*
X8755777Y-15324579D01*
X8755777Y-15324579D02*
X8765301Y-15305531D01*
X8765301Y-15305531D02*
X8774824Y-15296008D01*
X8774824Y-15296008D02*
X8793872Y-15286484D01*
X8946253Y-15467436D02*
X8955777Y-15476960D01*
X8955777Y-15476960D02*
X8946253Y-15486484D01*
X8946253Y-15486484D02*
X8936729Y-15476960D01*
X8936729Y-15476960D02*
X8946253Y-15467436D01*
X8946253Y-15467436D02*
X8946253Y-15486484D01*
X9127205Y-15353150D02*
X9127205Y-15486484D01*
X9079586Y-15276960D02*
X9031967Y-15419817D01*
X9031967Y-15419817D02*
X9155777Y-15419817D01*
X9270063Y-15286484D02*
X9289110Y-15286484D01*
X9289110Y-15286484D02*
X9308158Y-15296008D01*
X9308158Y-15296008D02*
X9317682Y-15305531D01*
X9317682Y-15305531D02*
X9327205Y-15324579D01*
X9327205Y-15324579D02*
X9336729Y-15362674D01*
X9336729Y-15362674D02*
X9336729Y-15410293D01*
X9336729Y-15410293D02*
X9327205Y-15448388D01*
X9327205Y-15448388D02*
X9317682Y-15467436D01*
X9317682Y-15467436D02*
X9308158Y-15476960D01*
X9308158Y-15476960D02*
X9289110Y-15486484D01*
X9289110Y-15486484D02*
X9270063Y-15486484D01*
X9270063Y-15486484D02*
X9251015Y-15476960D01*
X9251015Y-15476960D02*
X9241491Y-15467436D01*
X9241491Y-15467436D02*
X9231967Y-15448388D01*
X9231967Y-15448388D02*
X9222444Y-15410293D01*
X9222444Y-15410293D02*
X9222444Y-15362674D01*
X9222444Y-15362674D02*
X9231967Y-15324579D01*
X9231967Y-15324579D02*
X9241491Y-15305531D01*
X9241491Y-15305531D02*
X9251015Y-15296008D01*
X9251015Y-15296008D02*
X9270063Y-15286484D01*
X9460539Y-15286484D02*
X9479586Y-15286484D01*
X9479586Y-15286484D02*
X9498634Y-15296008D01*
X9498634Y-15296008D02*
X9508158Y-15305531D01*
X9508158Y-15305531D02*
X9517682Y-15324579D01*
X9517682Y-15324579D02*
X9527205Y-15362674D01*
X9527205Y-15362674D02*
X9527205Y-15410293D01*
X9527205Y-15410293D02*
X9517682Y-15448388D01*
X9517682Y-15448388D02*
X9508158Y-15467436D01*
X9508158Y-15467436D02*
X9498634Y-15476960D01*
X9498634Y-15476960D02*
X9479586Y-15486484D01*
X9479586Y-15486484D02*
X9460539Y-15486484D01*
X9460539Y-15486484D02*
X9441491Y-15476960D01*
X9441491Y-15476960D02*
X9431967Y-15467436D01*
X9431967Y-15467436D02*
X9422444Y-15448388D01*
X9422444Y-15448388D02*
X9412920Y-15410293D01*
X9412920Y-15410293D02*
X9412920Y-15362674D01*
X9412920Y-15362674D02*
X9422444Y-15324579D01*
X9422444Y-15324579D02*
X9431967Y-15305531D01*
X9431967Y-15305531D02*
X9441491Y-15296008D01*
X9441491Y-15296008D02*
X9460539Y-15286484D01*
X9612920Y-15486484D02*
X9612920Y-15353150D01*
X9612920Y-15372198D02*
X9622444Y-15362674D01*
X9622444Y-15362674D02*
X9641491Y-15353150D01*
X9641491Y-15353150D02*
X9670063Y-15353150D01*
X9670063Y-15353150D02*
X9689110Y-15362674D01*
X9689110Y-15362674D02*
X9698634Y-15381722D01*
X9698634Y-15381722D02*
X9698634Y-15486484D01*
X9698634Y-15381722D02*
X9708158Y-15362674D01*
X9708158Y-15362674D02*
X9727205Y-15353150D01*
X9727205Y-15353150D02*
X9755777Y-15353150D01*
X9755777Y-15353150D02*
X9774825Y-15362674D01*
X9774825Y-15362674D02*
X9784348Y-15381722D01*
X9784348Y-15381722D02*
X9784348Y-15486484D01*
X9879586Y-15486484D02*
X9879586Y-15353150D01*
X9879586Y-15372198D02*
X9889110Y-15362674D01*
X9889110Y-15362674D02*
X9908158Y-15353150D01*
X9908158Y-15353150D02*
X9936729Y-15353150D01*
X9936729Y-15353150D02*
X9955777Y-15362674D01*
X9955777Y-15362674D02*
X9965301Y-15381722D01*
X9965301Y-15381722D02*
X9965301Y-15486484D01*
X9965301Y-15381722D02*
X9974825Y-15362674D01*
X9974825Y-15362674D02*
X9993872Y-15353150D01*
X9993872Y-15353150D02*
X10022444Y-15353150D01*
X10022444Y-15353150D02*
X10041491Y-15362674D01*
X10041491Y-15362674D02*
X10051015Y-15381722D01*
X10051015Y-15381722D02*
X10051015Y-15486484D01*
X10441491Y-15276960D02*
X10270063Y-15534103D01*
X10698634Y-15286484D02*
X10717682Y-15286484D01*
X10717682Y-15286484D02*
X10736729Y-15296008D01*
X10736729Y-15296008D02*
X10746253Y-15305531D01*
X10746253Y-15305531D02*
X10755777Y-15324579D01*
X10755777Y-15324579D02*
X10765301Y-15362674D01*
X10765301Y-15362674D02*
X10765301Y-15410293D01*
X10765301Y-15410293D02*
X10755777Y-15448388D01*
X10755777Y-15448388D02*
X10746253Y-15467436D01*
X10746253Y-15467436D02*
X10736729Y-15476960D01*
X10736729Y-15476960D02*
X10717682Y-15486484D01*
X10717682Y-15486484D02*
X10698634Y-15486484D01*
X10698634Y-15486484D02*
X10679587Y-15476960D01*
X10679587Y-15476960D02*
X10670063Y-15467436D01*
X10670063Y-15467436D02*
X10660539Y-15448388D01*
X10660539Y-15448388D02*
X10651015Y-15410293D01*
X10651015Y-15410293D02*
X10651015Y-15362674D01*
X10651015Y-15362674D02*
X10660539Y-15324579D01*
X10660539Y-15324579D02*
X10670063Y-15305531D01*
X10670063Y-15305531D02*
X10679587Y-15296008D01*
X10679587Y-15296008D02*
X10698634Y-15286484D01*
X10851015Y-15467436D02*
X10860539Y-15476960D01*
X10860539Y-15476960D02*
X10851015Y-15486484D01*
X10851015Y-15486484D02*
X10841491Y-15476960D01*
X10841491Y-15476960D02*
X10851015Y-15467436D01*
X10851015Y-15467436D02*
X10851015Y-15486484D01*
X10984348Y-15286484D02*
X11003396Y-15286484D01*
X11003396Y-15286484D02*
X11022444Y-15296008D01*
X11022444Y-15296008D02*
X11031968Y-15305531D01*
X11031968Y-15305531D02*
X11041491Y-15324579D01*
X11041491Y-15324579D02*
X11051015Y-15362674D01*
X11051015Y-15362674D02*
X11051015Y-15410293D01*
X11051015Y-15410293D02*
X11041491Y-15448388D01*
X11041491Y-15448388D02*
X11031968Y-15467436D01*
X11031968Y-15467436D02*
X11022444Y-15476960D01*
X11022444Y-15476960D02*
X11003396Y-15486484D01*
X11003396Y-15486484D02*
X10984348Y-15486484D01*
X10984348Y-15486484D02*
X10965301Y-15476960D01*
X10965301Y-15476960D02*
X10955777Y-15467436D01*
X10955777Y-15467436D02*
X10946253Y-15448388D01*
X10946253Y-15448388D02*
X10936729Y-15410293D01*
X10936729Y-15410293D02*
X10936729Y-15362674D01*
X10936729Y-15362674D02*
X10946253Y-15324579D01*
X10946253Y-15324579D02*
X10955777Y-15305531D01*
X10955777Y-15305531D02*
X10965301Y-15296008D01*
X10965301Y-15296008D02*
X10984348Y-15286484D01*
X11241491Y-15486484D02*
X11127206Y-15486484D01*
X11184348Y-15486484D02*
X11184348Y-15286484D01*
X11184348Y-15286484D02*
X11165301Y-15315055D01*
X11165301Y-15315055D02*
X11146253Y-15334103D01*
X11146253Y-15334103D02*
X11127206Y-15343627D01*
X11422444Y-15286484D02*
X11327206Y-15286484D01*
X11327206Y-15286484D02*
X11317682Y-15381722D01*
X11317682Y-15381722D02*
X11327206Y-15372198D01*
X11327206Y-15372198D02*
X11346253Y-15362674D01*
X11346253Y-15362674D02*
X11393872Y-15362674D01*
X11393872Y-15362674D02*
X11412920Y-15372198D01*
X11412920Y-15372198D02*
X11422444Y-15381722D01*
X11422444Y-15381722D02*
X11431967Y-15400769D01*
X11431967Y-15400769D02*
X11431967Y-15448388D01*
X11431967Y-15448388D02*
X11422444Y-15467436D01*
X11422444Y-15467436D02*
X11412920Y-15476960D01*
X11412920Y-15476960D02*
X11393872Y-15486484D01*
X11393872Y-15486484D02*
X11346253Y-15486484D01*
X11346253Y-15486484D02*
X11327206Y-15476960D01*
X11327206Y-15476960D02*
X11317682Y-15467436D01*
X11498634Y-15286484D02*
X11631967Y-15286484D01*
X11631967Y-15286484D02*
X11546253Y-15486484D01*
X11698634Y-15286484D02*
X11698634Y-15324579D01*
X11774825Y-15286484D02*
X11774825Y-15324579D01*
X12070063Y-15562674D02*
X12060539Y-15553150D01*
X12060539Y-15553150D02*
X12041491Y-15524579D01*
X12041491Y-15524579D02*
X12031968Y-15505531D01*
X12031968Y-15505531D02*
X12022444Y-15476960D01*
X12022444Y-15476960D02*
X12012920Y-15429341D01*
X12012920Y-15429341D02*
X12012920Y-15391246D01*
X12012920Y-15391246D02*
X12022444Y-15343627D01*
X12022444Y-15343627D02*
X12031968Y-15315055D01*
X12031968Y-15315055D02*
X12041491Y-15296008D01*
X12041491Y-15296008D02*
X12060539Y-15267436D01*
X12060539Y-15267436D02*
X12070063Y-15257912D01*
X12174825Y-15372198D02*
X12155777Y-15362674D01*
X12155777Y-15362674D02*
X12146253Y-15353150D01*
X12146253Y-15353150D02*
X12136729Y-15334103D01*
X12136729Y-15334103D02*
X12136729Y-15324579D01*
X12136729Y-15324579D02*
X12146253Y-15305531D01*
X12146253Y-15305531D02*
X12155777Y-15296008D01*
X12155777Y-15296008D02*
X12174825Y-15286484D01*
X12174825Y-15286484D02*
X12212920Y-15286484D01*
X12212920Y-15286484D02*
X12231968Y-15296008D01*
X12231968Y-15296008D02*
X12241491Y-15305531D01*
X12241491Y-15305531D02*
X12251015Y-15324579D01*
X12251015Y-15324579D02*
X12251015Y-15334103D01*
X12251015Y-15334103D02*
X12241491Y-15353150D01*
X12241491Y-15353150D02*
X12231968Y-15362674D01*
X12231968Y-15362674D02*
X12212920Y-15372198D01*
X12212920Y-15372198D02*
X12174825Y-15372198D01*
X12174825Y-15372198D02*
X12155777Y-15381722D01*
X12155777Y-15381722D02*
X12146253Y-15391246D01*
X12146253Y-15391246D02*
X12136729Y-15410293D01*
X12136729Y-15410293D02*
X12136729Y-15448388D01*
X12136729Y-15448388D02*
X12146253Y-15467436D01*
X12146253Y-15467436D02*
X12155777Y-15476960D01*
X12155777Y-15476960D02*
X12174825Y-15486484D01*
X12174825Y-15486484D02*
X12212920Y-15486484D01*
X12212920Y-15486484D02*
X12231968Y-15476960D01*
X12231968Y-15476960D02*
X12241491Y-15467436D01*
X12241491Y-15467436D02*
X12251015Y-15448388D01*
X12251015Y-15448388D02*
X12251015Y-15410293D01*
X12251015Y-15410293D02*
X12241491Y-15391246D01*
X12241491Y-15391246D02*
X12231968Y-15381722D01*
X12231968Y-15381722D02*
X12212920Y-15372198D01*
X12317682Y-15286484D02*
X12441491Y-15286484D01*
X12441491Y-15286484D02*
X12374825Y-15362674D01*
X12374825Y-15362674D02*
X12403396Y-15362674D01*
X12403396Y-15362674D02*
X12422444Y-15372198D01*
X12422444Y-15372198D02*
X12431968Y-15381722D01*
X12431968Y-15381722D02*
X12441491Y-15400769D01*
X12441491Y-15400769D02*
X12441491Y-15448388D01*
X12441491Y-15448388D02*
X12431968Y-15467436D01*
X12431968Y-15467436D02*
X12422444Y-15476960D01*
X12422444Y-15476960D02*
X12403396Y-15486484D01*
X12403396Y-15486484D02*
X12346253Y-15486484D01*
X12346253Y-15486484D02*
X12327206Y-15476960D01*
X12327206Y-15476960D02*
X12317682Y-15467436D01*
X12679587Y-15486484D02*
X12679587Y-15286484D01*
X12765301Y-15486484D02*
X12765301Y-15381722D01*
X12765301Y-15381722D02*
X12755777Y-15362674D01*
X12755777Y-15362674D02*
X12736730Y-15353150D01*
X12736730Y-15353150D02*
X12708158Y-15353150D01*
X12708158Y-15353150D02*
X12689110Y-15362674D01*
X12689110Y-15362674D02*
X12679587Y-15372198D01*
X12889110Y-15486484D02*
X12870063Y-15476960D01*
X12870063Y-15476960D02*
X12860539Y-15467436D01*
X12860539Y-15467436D02*
X12851015Y-15448388D01*
X12851015Y-15448388D02*
X12851015Y-15391246D01*
X12851015Y-15391246D02*
X12860539Y-15372198D01*
X12860539Y-15372198D02*
X12870063Y-15362674D01*
X12870063Y-15362674D02*
X12889110Y-15353150D01*
X12889110Y-15353150D02*
X12917682Y-15353150D01*
X12917682Y-15353150D02*
X12936730Y-15362674D01*
X12936730Y-15362674D02*
X12946253Y-15372198D01*
X12946253Y-15372198D02*
X12955777Y-15391246D01*
X12955777Y-15391246D02*
X12955777Y-15448388D01*
X12955777Y-15448388D02*
X12946253Y-15467436D01*
X12946253Y-15467436D02*
X12936730Y-15476960D01*
X12936730Y-15476960D02*
X12917682Y-15486484D01*
X12917682Y-15486484D02*
X12889110Y-15486484D01*
X13070063Y-15486484D02*
X13051015Y-15476960D01*
X13051015Y-15476960D02*
X13041491Y-15457912D01*
X13041491Y-15457912D02*
X13041491Y-15286484D01*
X13222444Y-15476960D02*
X13203396Y-15486484D01*
X13203396Y-15486484D02*
X13165301Y-15486484D01*
X13165301Y-15486484D02*
X13146253Y-15476960D01*
X13146253Y-15476960D02*
X13136730Y-15457912D01*
X13136730Y-15457912D02*
X13136730Y-15381722D01*
X13136730Y-15381722D02*
X13146253Y-15362674D01*
X13146253Y-15362674D02*
X13165301Y-15353150D01*
X13165301Y-15353150D02*
X13203396Y-15353150D01*
X13203396Y-15353150D02*
X13222444Y-15362674D01*
X13222444Y-15362674D02*
X13231968Y-15381722D01*
X13231968Y-15381722D02*
X13231968Y-15400769D01*
X13231968Y-15400769D02*
X13136730Y-15419817D01*
X13308158Y-15476960D02*
X13327206Y-15486484D01*
X13327206Y-15486484D02*
X13365301Y-15486484D01*
X13365301Y-15486484D02*
X13384349Y-15476960D01*
X13384349Y-15476960D02*
X13393872Y-15457912D01*
X13393872Y-15457912D02*
X13393872Y-15448388D01*
X13393872Y-15448388D02*
X13384349Y-15429341D01*
X13384349Y-15429341D02*
X13365301Y-15419817D01*
X13365301Y-15419817D02*
X13336730Y-15419817D01*
X13336730Y-15419817D02*
X13317682Y-15410293D01*
X13317682Y-15410293D02*
X13308158Y-15391246D01*
X13308158Y-15391246D02*
X13308158Y-15381722D01*
X13308158Y-15381722D02*
X13317682Y-15362674D01*
X13317682Y-15362674D02*
X13336730Y-15353150D01*
X13336730Y-15353150D02*
X13365301Y-15353150D01*
X13365301Y-15353150D02*
X13384349Y-15362674D01*
X13460539Y-15562674D02*
X13470063Y-15553150D01*
X13470063Y-15553150D02*
X13489111Y-15524579D01*
X13489111Y-15524579D02*
X13498634Y-15505531D01*
X13498634Y-15505531D02*
X13508158Y-15476960D01*
X13508158Y-15476960D02*
X13517682Y-15429341D01*
X13517682Y-15429341D02*
X13517682Y-15391246D01*
X13517682Y-15391246D02*
X13508158Y-15343627D01*
X13508158Y-15343627D02*
X13498634Y-15315055D01*
X13498634Y-15315055D02*
X13489111Y-15296008D01*
X13489111Y-15296008D02*
X13470063Y-15267436D01*
X13470063Y-15267436D02*
X13460539Y-15257912D01*
D10*
X8495000Y-15659000D02*
G75*
G02*
X8445000Y-15659000I-25000J0D01*
G01*
X8445000Y-15659000D02*
G75*
G02*
X8495000Y-15659000I25000J0D01*
G01*
D11*
X8793872Y-15550484D02*
X8812920Y-15550484D01*
X8812920Y-15550484D02*
X8831967Y-15560008D01*
X8831967Y-15560008D02*
X8841491Y-15569531D01*
X8841491Y-15569531D02*
X8851015Y-15588579D01*
X8851015Y-15588579D02*
X8860539Y-15626674D01*
X8860539Y-15626674D02*
X8860539Y-15674293D01*
X8860539Y-15674293D02*
X8851015Y-15712388D01*
X8851015Y-15712388D02*
X8841491Y-15731436D01*
X8841491Y-15731436D02*
X8831967Y-15740960D01*
X8831967Y-15740960D02*
X8812920Y-15750484D01*
X8812920Y-15750484D02*
X8793872Y-15750484D01*
X8793872Y-15750484D02*
X8774824Y-15740960D01*
X8774824Y-15740960D02*
X8765301Y-15731436D01*
X8765301Y-15731436D02*
X8755777Y-15712388D01*
X8755777Y-15712388D02*
X8746253Y-15674293D01*
X8746253Y-15674293D02*
X8746253Y-15626674D01*
X8746253Y-15626674D02*
X8755777Y-15588579D01*
X8755777Y-15588579D02*
X8765301Y-15569531D01*
X8765301Y-15569531D02*
X8774824Y-15560008D01*
X8774824Y-15560008D02*
X8793872Y-15550484D01*
X8946253Y-15731436D02*
X8955777Y-15740960D01*
X8955777Y-15740960D02*
X8946253Y-15750484D01*
X8946253Y-15750484D02*
X8936729Y-15740960D01*
X8936729Y-15740960D02*
X8946253Y-15731436D01*
X8946253Y-15731436D02*
X8946253Y-15750484D01*
X9136729Y-15550484D02*
X9041491Y-15550484D01*
X9041491Y-15550484D02*
X9031967Y-15645722D01*
X9031967Y-15645722D02*
X9041491Y-15636198D01*
X9041491Y-15636198D02*
X9060539Y-15626674D01*
X9060539Y-15626674D02*
X9108158Y-15626674D01*
X9108158Y-15626674D02*
X9127205Y-15636198D01*
X9127205Y-15636198D02*
X9136729Y-15645722D01*
X9136729Y-15645722D02*
X9146253Y-15664769D01*
X9146253Y-15664769D02*
X9146253Y-15712388D01*
X9146253Y-15712388D02*
X9136729Y-15731436D01*
X9136729Y-15731436D02*
X9127205Y-15740960D01*
X9127205Y-15740960D02*
X9108158Y-15750484D01*
X9108158Y-15750484D02*
X9060539Y-15750484D01*
X9060539Y-15750484D02*
X9041491Y-15740960D01*
X9041491Y-15740960D02*
X9031967Y-15731436D01*
X9270063Y-15550484D02*
X9289110Y-15550484D01*
X9289110Y-15550484D02*
X9308158Y-15560008D01*
X9308158Y-15560008D02*
X9317682Y-15569531D01*
X9317682Y-15569531D02*
X9327205Y-15588579D01*
X9327205Y-15588579D02*
X9336729Y-15626674D01*
X9336729Y-15626674D02*
X9336729Y-15674293D01*
X9336729Y-15674293D02*
X9327205Y-15712388D01*
X9327205Y-15712388D02*
X9317682Y-15731436D01*
X9317682Y-15731436D02*
X9308158Y-15740960D01*
X9308158Y-15740960D02*
X9289110Y-15750484D01*
X9289110Y-15750484D02*
X9270063Y-15750484D01*
X9270063Y-15750484D02*
X9251015Y-15740960D01*
X9251015Y-15740960D02*
X9241491Y-15731436D01*
X9241491Y-15731436D02*
X9231967Y-15712388D01*
X9231967Y-15712388D02*
X9222444Y-15674293D01*
X9222444Y-15674293D02*
X9222444Y-15626674D01*
X9222444Y-15626674D02*
X9231967Y-15588579D01*
X9231967Y-15588579D02*
X9241491Y-15569531D01*
X9241491Y-15569531D02*
X9251015Y-15560008D01*
X9251015Y-15560008D02*
X9270063Y-15550484D01*
X9460539Y-15550484D02*
X9479586Y-15550484D01*
X9479586Y-15550484D02*
X9498634Y-15560008D01*
X9498634Y-15560008D02*
X9508158Y-15569531D01*
X9508158Y-15569531D02*
X9517682Y-15588579D01*
X9517682Y-15588579D02*
X9527205Y-15626674D01*
X9527205Y-15626674D02*
X9527205Y-15674293D01*
X9527205Y-15674293D02*
X9517682Y-15712388D01*
X9517682Y-15712388D02*
X9508158Y-15731436D01*
X9508158Y-15731436D02*
X9498634Y-15740960D01*
X9498634Y-15740960D02*
X9479586Y-15750484D01*
X9479586Y-15750484D02*
X9460539Y-15750484D01*
X9460539Y-15750484D02*
X9441491Y-15740960D01*
X9441491Y-15740960D02*
X9431967Y-15731436D01*
X9431967Y-15731436D02*
X9422444Y-15712388D01*
X9422444Y-15712388D02*
X9412920Y-15674293D01*
X9412920Y-15674293D02*
X9412920Y-15626674D01*
X9412920Y-15626674D02*
X9422444Y-15588579D01*
X9422444Y-15588579D02*
X9431967Y-15569531D01*
X9431967Y-15569531D02*
X9441491Y-15560008D01*
X9441491Y-15560008D02*
X9460539Y-15550484D01*
X9612920Y-15750484D02*
X9612920Y-15617150D01*
X9612920Y-15636198D02*
X9622444Y-15626674D01*
X9622444Y-15626674D02*
X9641491Y-15617150D01*
X9641491Y-15617150D02*
X9670063Y-15617150D01*
X9670063Y-15617150D02*
X9689110Y-15626674D01*
X9689110Y-15626674D02*
X9698634Y-15645722D01*
X9698634Y-15645722D02*
X9698634Y-15750484D01*
X9698634Y-15645722D02*
X9708158Y-15626674D01*
X9708158Y-15626674D02*
X9727205Y-15617150D01*
X9727205Y-15617150D02*
X9755777Y-15617150D01*
X9755777Y-15617150D02*
X9774825Y-15626674D01*
X9774825Y-15626674D02*
X9784348Y-15645722D01*
X9784348Y-15645722D02*
X9784348Y-15750484D01*
X9879586Y-15750484D02*
X9879586Y-15617150D01*
X9879586Y-15636198D02*
X9889110Y-15626674D01*
X9889110Y-15626674D02*
X9908158Y-15617150D01*
X9908158Y-15617150D02*
X9936729Y-15617150D01*
X9936729Y-15617150D02*
X9955777Y-15626674D01*
X9955777Y-15626674D02*
X9965301Y-15645722D01*
X9965301Y-15645722D02*
X9965301Y-15750484D01*
X9965301Y-15645722D02*
X9974825Y-15626674D01*
X9974825Y-15626674D02*
X9993872Y-15617150D01*
X9993872Y-15617150D02*
X10022444Y-15617150D01*
X10022444Y-15617150D02*
X10041491Y-15626674D01*
X10041491Y-15626674D02*
X10051015Y-15645722D01*
X10051015Y-15645722D02*
X10051015Y-15750484D01*
X10441491Y-15540960D02*
X10270063Y-15798103D01*
X10698634Y-15550484D02*
X10717682Y-15550484D01*
X10717682Y-15550484D02*
X10736729Y-15560008D01*
X10736729Y-15560008D02*
X10746253Y-15569531D01*
X10746253Y-15569531D02*
X10755777Y-15588579D01*
X10755777Y-15588579D02*
X10765301Y-15626674D01*
X10765301Y-15626674D02*
X10765301Y-15674293D01*
X10765301Y-15674293D02*
X10755777Y-15712388D01*
X10755777Y-15712388D02*
X10746253Y-15731436D01*
X10746253Y-15731436D02*
X10736729Y-15740960D01*
X10736729Y-15740960D02*
X10717682Y-15750484D01*
X10717682Y-15750484D02*
X10698634Y-15750484D01*
X10698634Y-15750484D02*
X10679587Y-15740960D01*
X10679587Y-15740960D02*
X10670063Y-15731436D01*
X10670063Y-15731436D02*
X10660539Y-15712388D01*
X10660539Y-15712388D02*
X10651015Y-15674293D01*
X10651015Y-15674293D02*
X10651015Y-15626674D01*
X10651015Y-15626674D02*
X10660539Y-15588579D01*
X10660539Y-15588579D02*
X10670063Y-15569531D01*
X10670063Y-15569531D02*
X10679587Y-15560008D01*
X10679587Y-15560008D02*
X10698634Y-15550484D01*
X10851015Y-15731436D02*
X10860539Y-15740960D01*
X10860539Y-15740960D02*
X10851015Y-15750484D01*
X10851015Y-15750484D02*
X10841491Y-15740960D01*
X10841491Y-15740960D02*
X10851015Y-15731436D01*
X10851015Y-15731436D02*
X10851015Y-15750484D01*
X10984348Y-15550484D02*
X11003396Y-15550484D01*
X11003396Y-15550484D02*
X11022444Y-15560008D01*
X11022444Y-15560008D02*
X11031968Y-15569531D01*
X11031968Y-15569531D02*
X11041491Y-15588579D01*
X11041491Y-15588579D02*
X11051015Y-15626674D01*
X11051015Y-15626674D02*
X11051015Y-15674293D01*
X11051015Y-15674293D02*
X11041491Y-15712388D01*
X11041491Y-15712388D02*
X11031968Y-15731436D01*
X11031968Y-15731436D02*
X11022444Y-15740960D01*
X11022444Y-15740960D02*
X11003396Y-15750484D01*
X11003396Y-15750484D02*
X10984348Y-15750484D01*
X10984348Y-15750484D02*
X10965301Y-15740960D01*
X10965301Y-15740960D02*
X10955777Y-15731436D01*
X10955777Y-15731436D02*
X10946253Y-15712388D01*
X10946253Y-15712388D02*
X10936729Y-15674293D01*
X10936729Y-15674293D02*
X10936729Y-15626674D01*
X10936729Y-15626674D02*
X10946253Y-15588579D01*
X10946253Y-15588579D02*
X10955777Y-15569531D01*
X10955777Y-15569531D02*
X10965301Y-15560008D01*
X10965301Y-15560008D02*
X10984348Y-15550484D01*
X11241491Y-15750484D02*
X11127206Y-15750484D01*
X11184348Y-15750484D02*
X11184348Y-15550484D01*
X11184348Y-15550484D02*
X11165301Y-15579055D01*
X11165301Y-15579055D02*
X11146253Y-15598103D01*
X11146253Y-15598103D02*
X11127206Y-15607627D01*
X11336729Y-15750484D02*
X11374825Y-15750484D01*
X11374825Y-15750484D02*
X11393872Y-15740960D01*
X11393872Y-15740960D02*
X11403396Y-15731436D01*
X11403396Y-15731436D02*
X11422444Y-15702865D01*
X11422444Y-15702865D02*
X11431967Y-15664769D01*
X11431967Y-15664769D02*
X11431967Y-15588579D01*
X11431967Y-15588579D02*
X11422444Y-15569531D01*
X11422444Y-15569531D02*
X11412920Y-15560008D01*
X11412920Y-15560008D02*
X11393872Y-15550484D01*
X11393872Y-15550484D02*
X11355777Y-15550484D01*
X11355777Y-15550484D02*
X11336729Y-15560008D01*
X11336729Y-15560008D02*
X11327206Y-15569531D01*
X11327206Y-15569531D02*
X11317682Y-15588579D01*
X11317682Y-15588579D02*
X11317682Y-15636198D01*
X11317682Y-15636198D02*
X11327206Y-15655246D01*
X11327206Y-15655246D02*
X11336729Y-15664769D01*
X11336729Y-15664769D02*
X11355777Y-15674293D01*
X11355777Y-15674293D02*
X11393872Y-15674293D01*
X11393872Y-15674293D02*
X11412920Y-15664769D01*
X11412920Y-15664769D02*
X11422444Y-15655246D01*
X11422444Y-15655246D02*
X11431967Y-15636198D01*
X11498634Y-15550484D02*
X11631967Y-15550484D01*
X11631967Y-15550484D02*
X11546253Y-15750484D01*
X11698634Y-15550484D02*
X11698634Y-15588579D01*
X11774825Y-15550484D02*
X11774825Y-15588579D01*
X12070063Y-15826674D02*
X12060539Y-15817150D01*
X12060539Y-15817150D02*
X12041491Y-15788579D01*
X12041491Y-15788579D02*
X12031968Y-15769531D01*
X12031968Y-15769531D02*
X12022444Y-15740960D01*
X12022444Y-15740960D02*
X12012920Y-15693341D01*
X12012920Y-15693341D02*
X12012920Y-15655246D01*
X12012920Y-15655246D02*
X12022444Y-15607627D01*
X12022444Y-15607627D02*
X12031968Y-15579055D01*
X12031968Y-15579055D02*
X12041491Y-15560008D01*
X12041491Y-15560008D02*
X12060539Y-15531436D01*
X12060539Y-15531436D02*
X12070063Y-15521912D01*
X12127206Y-15550484D02*
X12251015Y-15550484D01*
X12251015Y-15550484D02*
X12184348Y-15626674D01*
X12184348Y-15626674D02*
X12212920Y-15626674D01*
X12212920Y-15626674D02*
X12231968Y-15636198D01*
X12231968Y-15636198D02*
X12241491Y-15645722D01*
X12241491Y-15645722D02*
X12251015Y-15664769D01*
X12251015Y-15664769D02*
X12251015Y-15712388D01*
X12251015Y-15712388D02*
X12241491Y-15731436D01*
X12241491Y-15731436D02*
X12231968Y-15740960D01*
X12231968Y-15740960D02*
X12212920Y-15750484D01*
X12212920Y-15750484D02*
X12155777Y-15750484D01*
X12155777Y-15750484D02*
X12136729Y-15740960D01*
X12136729Y-15740960D02*
X12127206Y-15731436D01*
X12422444Y-15617150D02*
X12422444Y-15750484D01*
X12374825Y-15540960D02*
X12327206Y-15683817D01*
X12327206Y-15683817D02*
X12451015Y-15683817D01*
X12679587Y-15750484D02*
X12679587Y-15550484D01*
X12765301Y-15750484D02*
X12765301Y-15645722D01*
X12765301Y-15645722D02*
X12755777Y-15626674D01*
X12755777Y-15626674D02*
X12736730Y-15617150D01*
X12736730Y-15617150D02*
X12708158Y-15617150D01*
X12708158Y-15617150D02*
X12689110Y-15626674D01*
X12689110Y-15626674D02*
X12679587Y-15636198D01*
X12889110Y-15750484D02*
X12870063Y-15740960D01*
X12870063Y-15740960D02*
X12860539Y-15731436D01*
X12860539Y-15731436D02*
X12851015Y-15712388D01*
X12851015Y-15712388D02*
X12851015Y-15655246D01*
X12851015Y-15655246D02*
X12860539Y-15636198D01*
X12860539Y-15636198D02*
X12870063Y-15626674D01*
X12870063Y-15626674D02*
X12889110Y-15617150D01*
X12889110Y-15617150D02*
X12917682Y-15617150D01*
X12917682Y-15617150D02*
X12936730Y-15626674D01*
X12936730Y-15626674D02*
X12946253Y-15636198D01*
X12946253Y-15636198D02*
X12955777Y-15655246D01*
X12955777Y-15655246D02*
X12955777Y-15712388D01*
X12955777Y-15712388D02*
X12946253Y-15731436D01*
X12946253Y-15731436D02*
X12936730Y-15740960D01*
X12936730Y-15740960D02*
X12917682Y-15750484D01*
X12917682Y-15750484D02*
X12889110Y-15750484D01*
X13070063Y-15750484D02*
X13051015Y-15740960D01*
X13051015Y-15740960D02*
X13041491Y-15721912D01*
X13041491Y-15721912D02*
X13041491Y-15550484D01*
X13222444Y-15740960D02*
X13203396Y-15750484D01*
X13203396Y-15750484D02*
X13165301Y-15750484D01*
X13165301Y-15750484D02*
X13146253Y-15740960D01*
X13146253Y-15740960D02*
X13136730Y-15721912D01*
X13136730Y-15721912D02*
X13136730Y-15645722D01*
X13136730Y-15645722D02*
X13146253Y-15626674D01*
X13146253Y-15626674D02*
X13165301Y-15617150D01*
X13165301Y-15617150D02*
X13203396Y-15617150D01*
X13203396Y-15617150D02*
X13222444Y-15626674D01*
X13222444Y-15626674D02*
X13231968Y-15645722D01*
X13231968Y-15645722D02*
X13231968Y-15664769D01*
X13231968Y-15664769D02*
X13136730Y-15683817D01*
X13308158Y-15740960D02*
X13327206Y-15750484D01*
X13327206Y-15750484D02*
X13365301Y-15750484D01*
X13365301Y-15750484D02*
X13384349Y-15740960D01*
X13384349Y-15740960D02*
X13393872Y-15721912D01*
X13393872Y-15721912D02*
X13393872Y-15712388D01*
X13393872Y-15712388D02*
X13384349Y-15693341D01*
X13384349Y-15693341D02*
X13365301Y-15683817D01*
X13365301Y-15683817D02*
X13336730Y-15683817D01*
X13336730Y-15683817D02*
X13317682Y-15674293D01*
X13317682Y-15674293D02*
X13308158Y-15655246D01*
X13308158Y-15655246D02*
X13308158Y-15645722D01*
X13308158Y-15645722D02*
X13317682Y-15626674D01*
X13317682Y-15626674D02*
X13336730Y-15617150D01*
X13336730Y-15617150D02*
X13365301Y-15617150D01*
X13365301Y-15617150D02*
X13384349Y-15626674D01*
X13460539Y-15826674D02*
X13470063Y-15817150D01*
X13470063Y-15817150D02*
X13489111Y-15788579D01*
X13489111Y-15788579D02*
X13498634Y-15769531D01*
X13498634Y-15769531D02*
X13508158Y-15740960D01*
X13508158Y-15740960D02*
X13517682Y-15693341D01*
X13517682Y-15693341D02*
X13517682Y-15655246D01*
X13517682Y-15655246D02*
X13508158Y-15607627D01*
X13508158Y-15607627D02*
X13498634Y-15579055D01*
X13498634Y-15579055D02*
X13489111Y-15560008D01*
X13489111Y-15560008D02*
X13470063Y-15531436D01*
X13470063Y-15531436D02*
X13460539Y-15521912D01*
D10*
X8465000Y-15893000D02*
X8465000Y-15953000D01*
X8435000Y-15923000D02*
X8495000Y-15923000D01*
D11*
X8793872Y-15814484D02*
X8812920Y-15814484D01*
X8812920Y-15814484D02*
X8831967Y-15824008D01*
X8831967Y-15824008D02*
X8841491Y-15833531D01*
X8841491Y-15833531D02*
X8851015Y-15852579D01*
X8851015Y-15852579D02*
X8860539Y-15890674D01*
X8860539Y-15890674D02*
X8860539Y-15938293D01*
X8860539Y-15938293D02*
X8851015Y-15976388D01*
X8851015Y-15976388D02*
X8841491Y-15995436D01*
X8841491Y-15995436D02*
X8831967Y-16004960D01*
X8831967Y-16004960D02*
X8812920Y-16014484D01*
X8812920Y-16014484D02*
X8793872Y-16014484D01*
X8793872Y-16014484D02*
X8774824Y-16004960D01*
X8774824Y-16004960D02*
X8765301Y-15995436D01*
X8765301Y-15995436D02*
X8755777Y-15976388D01*
X8755777Y-15976388D02*
X8746253Y-15938293D01*
X8746253Y-15938293D02*
X8746253Y-15890674D01*
X8746253Y-15890674D02*
X8755777Y-15852579D01*
X8755777Y-15852579D02*
X8765301Y-15833531D01*
X8765301Y-15833531D02*
X8774824Y-15824008D01*
X8774824Y-15824008D02*
X8793872Y-15814484D01*
X8946253Y-15995436D02*
X8955777Y-16004960D01*
X8955777Y-16004960D02*
X8946253Y-16014484D01*
X8946253Y-16014484D02*
X8936729Y-16004960D01*
X8936729Y-16004960D02*
X8946253Y-15995436D01*
X8946253Y-15995436D02*
X8946253Y-16014484D01*
X9127205Y-15814484D02*
X9089110Y-15814484D01*
X9089110Y-15814484D02*
X9070063Y-15824008D01*
X9070063Y-15824008D02*
X9060539Y-15833531D01*
X9060539Y-15833531D02*
X9041491Y-15862103D01*
X9041491Y-15862103D02*
X9031967Y-15900198D01*
X9031967Y-15900198D02*
X9031967Y-15976388D01*
X9031967Y-15976388D02*
X9041491Y-15995436D01*
X9041491Y-15995436D02*
X9051015Y-16004960D01*
X9051015Y-16004960D02*
X9070063Y-16014484D01*
X9070063Y-16014484D02*
X9108158Y-16014484D01*
X9108158Y-16014484D02*
X9127205Y-16004960D01*
X9127205Y-16004960D02*
X9136729Y-15995436D01*
X9136729Y-15995436D02*
X9146253Y-15976388D01*
X9146253Y-15976388D02*
X9146253Y-15928769D01*
X9146253Y-15928769D02*
X9136729Y-15909722D01*
X9136729Y-15909722D02*
X9127205Y-15900198D01*
X9127205Y-15900198D02*
X9108158Y-15890674D01*
X9108158Y-15890674D02*
X9070063Y-15890674D01*
X9070063Y-15890674D02*
X9051015Y-15900198D01*
X9051015Y-15900198D02*
X9041491Y-15909722D01*
X9041491Y-15909722D02*
X9031967Y-15928769D01*
X9270063Y-15814484D02*
X9289110Y-15814484D01*
X9289110Y-15814484D02*
X9308158Y-15824008D01*
X9308158Y-15824008D02*
X9317682Y-15833531D01*
X9317682Y-15833531D02*
X9327205Y-15852579D01*
X9327205Y-15852579D02*
X9336729Y-15890674D01*
X9336729Y-15890674D02*
X9336729Y-15938293D01*
X9336729Y-15938293D02*
X9327205Y-15976388D01*
X9327205Y-15976388D02*
X9317682Y-15995436D01*
X9317682Y-15995436D02*
X9308158Y-16004960D01*
X9308158Y-16004960D02*
X9289110Y-16014484D01*
X9289110Y-16014484D02*
X9270063Y-16014484D01*
X9270063Y-16014484D02*
X9251015Y-16004960D01*
X9251015Y-16004960D02*
X9241491Y-15995436D01*
X9241491Y-15995436D02*
X9231967Y-15976388D01*
X9231967Y-15976388D02*
X9222444Y-15938293D01*
X9222444Y-15938293D02*
X9222444Y-15890674D01*
X9222444Y-15890674D02*
X9231967Y-15852579D01*
X9231967Y-15852579D02*
X9241491Y-15833531D01*
X9241491Y-15833531D02*
X9251015Y-15824008D01*
X9251015Y-15824008D02*
X9270063Y-15814484D01*
X9460539Y-15814484D02*
X9479586Y-15814484D01*
X9479586Y-15814484D02*
X9498634Y-15824008D01*
X9498634Y-15824008D02*
X9508158Y-15833531D01*
X9508158Y-15833531D02*
X9517682Y-15852579D01*
X9517682Y-15852579D02*
X9527205Y-15890674D01*
X9527205Y-15890674D02*
X9527205Y-15938293D01*
X9527205Y-15938293D02*
X9517682Y-15976388D01*
X9517682Y-15976388D02*
X9508158Y-15995436D01*
X9508158Y-15995436D02*
X9498634Y-16004960D01*
X9498634Y-16004960D02*
X9479586Y-16014484D01*
X9479586Y-16014484D02*
X9460539Y-16014484D01*
X9460539Y-16014484D02*
X9441491Y-16004960D01*
X9441491Y-16004960D02*
X9431967Y-15995436D01*
X9431967Y-15995436D02*
X9422444Y-15976388D01*
X9422444Y-15976388D02*
X9412920Y-15938293D01*
X9412920Y-15938293D02*
X9412920Y-15890674D01*
X9412920Y-15890674D02*
X9422444Y-15852579D01*
X9422444Y-15852579D02*
X9431967Y-15833531D01*
X9431967Y-15833531D02*
X9441491Y-15824008D01*
X9441491Y-15824008D02*
X9460539Y-15814484D01*
X9612920Y-16014484D02*
X9612920Y-15881150D01*
X9612920Y-15900198D02*
X9622444Y-15890674D01*
X9622444Y-15890674D02*
X9641491Y-15881150D01*
X9641491Y-15881150D02*
X9670063Y-15881150D01*
X9670063Y-15881150D02*
X9689110Y-15890674D01*
X9689110Y-15890674D02*
X9698634Y-15909722D01*
X9698634Y-15909722D02*
X9698634Y-16014484D01*
X9698634Y-15909722D02*
X9708158Y-15890674D01*
X9708158Y-15890674D02*
X9727205Y-15881150D01*
X9727205Y-15881150D02*
X9755777Y-15881150D01*
X9755777Y-15881150D02*
X9774825Y-15890674D01*
X9774825Y-15890674D02*
X9784348Y-15909722D01*
X9784348Y-15909722D02*
X9784348Y-16014484D01*
X9879586Y-16014484D02*
X9879586Y-15881150D01*
X9879586Y-15900198D02*
X9889110Y-15890674D01*
X9889110Y-15890674D02*
X9908158Y-15881150D01*
X9908158Y-15881150D02*
X9936729Y-15881150D01*
X9936729Y-15881150D02*
X9955777Y-15890674D01*
X9955777Y-15890674D02*
X9965301Y-15909722D01*
X9965301Y-15909722D02*
X9965301Y-16014484D01*
X9965301Y-15909722D02*
X9974825Y-15890674D01*
X9974825Y-15890674D02*
X9993872Y-15881150D01*
X9993872Y-15881150D02*
X10022444Y-15881150D01*
X10022444Y-15881150D02*
X10041491Y-15890674D01*
X10041491Y-15890674D02*
X10051015Y-15909722D01*
X10051015Y-15909722D02*
X10051015Y-16014484D01*
X10441491Y-15804960D02*
X10270063Y-16062103D01*
X10698634Y-15814484D02*
X10717682Y-15814484D01*
X10717682Y-15814484D02*
X10736729Y-15824008D01*
X10736729Y-15824008D02*
X10746253Y-15833531D01*
X10746253Y-15833531D02*
X10755777Y-15852579D01*
X10755777Y-15852579D02*
X10765301Y-15890674D01*
X10765301Y-15890674D02*
X10765301Y-15938293D01*
X10765301Y-15938293D02*
X10755777Y-15976388D01*
X10755777Y-15976388D02*
X10746253Y-15995436D01*
X10746253Y-15995436D02*
X10736729Y-16004960D01*
X10736729Y-16004960D02*
X10717682Y-16014484D01*
X10717682Y-16014484D02*
X10698634Y-16014484D01*
X10698634Y-16014484D02*
X10679587Y-16004960D01*
X10679587Y-16004960D02*
X10670063Y-15995436D01*
X10670063Y-15995436D02*
X10660539Y-15976388D01*
X10660539Y-15976388D02*
X10651015Y-15938293D01*
X10651015Y-15938293D02*
X10651015Y-15890674D01*
X10651015Y-15890674D02*
X10660539Y-15852579D01*
X10660539Y-15852579D02*
X10670063Y-15833531D01*
X10670063Y-15833531D02*
X10679587Y-15824008D01*
X10679587Y-15824008D02*
X10698634Y-15814484D01*
X10851015Y-15995436D02*
X10860539Y-16004960D01*
X10860539Y-16004960D02*
X10851015Y-16014484D01*
X10851015Y-16014484D02*
X10841491Y-16004960D01*
X10841491Y-16004960D02*
X10851015Y-15995436D01*
X10851015Y-15995436D02*
X10851015Y-16014484D01*
X10984348Y-15814484D02*
X11003396Y-15814484D01*
X11003396Y-15814484D02*
X11022444Y-15824008D01*
X11022444Y-15824008D02*
X11031968Y-15833531D01*
X11031968Y-15833531D02*
X11041491Y-15852579D01*
X11041491Y-15852579D02*
X11051015Y-15890674D01*
X11051015Y-15890674D02*
X11051015Y-15938293D01*
X11051015Y-15938293D02*
X11041491Y-15976388D01*
X11041491Y-15976388D02*
X11031968Y-15995436D01*
X11031968Y-15995436D02*
X11022444Y-16004960D01*
X11022444Y-16004960D02*
X11003396Y-16014484D01*
X11003396Y-16014484D02*
X10984348Y-16014484D01*
X10984348Y-16014484D02*
X10965301Y-16004960D01*
X10965301Y-16004960D02*
X10955777Y-15995436D01*
X10955777Y-15995436D02*
X10946253Y-15976388D01*
X10946253Y-15976388D02*
X10936729Y-15938293D01*
X10936729Y-15938293D02*
X10936729Y-15890674D01*
X10936729Y-15890674D02*
X10946253Y-15852579D01*
X10946253Y-15852579D02*
X10955777Y-15833531D01*
X10955777Y-15833531D02*
X10965301Y-15824008D01*
X10965301Y-15824008D02*
X10984348Y-15814484D01*
X11127206Y-15833531D02*
X11136729Y-15824008D01*
X11136729Y-15824008D02*
X11155777Y-15814484D01*
X11155777Y-15814484D02*
X11203396Y-15814484D01*
X11203396Y-15814484D02*
X11222444Y-15824008D01*
X11222444Y-15824008D02*
X11231967Y-15833531D01*
X11231967Y-15833531D02*
X11241491Y-15852579D01*
X11241491Y-15852579D02*
X11241491Y-15871627D01*
X11241491Y-15871627D02*
X11231967Y-15900198D01*
X11231967Y-15900198D02*
X11117682Y-16014484D01*
X11117682Y-16014484D02*
X11241491Y-16014484D01*
X11308158Y-15814484D02*
X11431967Y-15814484D01*
X11431967Y-15814484D02*
X11365301Y-15890674D01*
X11365301Y-15890674D02*
X11393872Y-15890674D01*
X11393872Y-15890674D02*
X11412920Y-15900198D01*
X11412920Y-15900198D02*
X11422444Y-15909722D01*
X11422444Y-15909722D02*
X11431967Y-15928769D01*
X11431967Y-15928769D02*
X11431967Y-15976388D01*
X11431967Y-15976388D02*
X11422444Y-15995436D01*
X11422444Y-15995436D02*
X11412920Y-16004960D01*
X11412920Y-16004960D02*
X11393872Y-16014484D01*
X11393872Y-16014484D02*
X11336729Y-16014484D01*
X11336729Y-16014484D02*
X11317682Y-16004960D01*
X11317682Y-16004960D02*
X11308158Y-15995436D01*
X11603396Y-15814484D02*
X11565301Y-15814484D01*
X11565301Y-15814484D02*
X11546253Y-15824008D01*
X11546253Y-15824008D02*
X11536729Y-15833531D01*
X11536729Y-15833531D02*
X11517682Y-15862103D01*
X11517682Y-15862103D02*
X11508158Y-15900198D01*
X11508158Y-15900198D02*
X11508158Y-15976388D01*
X11508158Y-15976388D02*
X11517682Y-15995436D01*
X11517682Y-15995436D02*
X11527206Y-16004960D01*
X11527206Y-16004960D02*
X11546253Y-16014484D01*
X11546253Y-16014484D02*
X11584348Y-16014484D01*
X11584348Y-16014484D02*
X11603396Y-16004960D01*
X11603396Y-16004960D02*
X11612920Y-15995436D01*
X11612920Y-15995436D02*
X11622444Y-15976388D01*
X11622444Y-15976388D02*
X11622444Y-15928769D01*
X11622444Y-15928769D02*
X11612920Y-15909722D01*
X11612920Y-15909722D02*
X11603396Y-15900198D01*
X11603396Y-15900198D02*
X11584348Y-15890674D01*
X11584348Y-15890674D02*
X11546253Y-15890674D01*
X11546253Y-15890674D02*
X11527206Y-15900198D01*
X11527206Y-15900198D02*
X11517682Y-15909722D01*
X11517682Y-15909722D02*
X11508158Y-15928769D01*
X11698634Y-15814484D02*
X11698634Y-15852579D01*
X11774825Y-15814484D02*
X11774825Y-15852579D01*
X12070063Y-16090674D02*
X12060539Y-16081150D01*
X12060539Y-16081150D02*
X12041491Y-16052579D01*
X12041491Y-16052579D02*
X12031968Y-16033531D01*
X12031968Y-16033531D02*
X12022444Y-16004960D01*
X12022444Y-16004960D02*
X12012920Y-15957341D01*
X12012920Y-15957341D02*
X12012920Y-15919246D01*
X12012920Y-15919246D02*
X12022444Y-15871627D01*
X12022444Y-15871627D02*
X12031968Y-15843055D01*
X12031968Y-15843055D02*
X12041491Y-15824008D01*
X12041491Y-15824008D02*
X12060539Y-15795436D01*
X12060539Y-15795436D02*
X12070063Y-15785912D01*
X12184348Y-15814484D02*
X12203396Y-15814484D01*
X12203396Y-15814484D02*
X12222444Y-15824008D01*
X12222444Y-15824008D02*
X12231968Y-15833531D01*
X12231968Y-15833531D02*
X12241491Y-15852579D01*
X12241491Y-15852579D02*
X12251015Y-15890674D01*
X12251015Y-15890674D02*
X12251015Y-15938293D01*
X12251015Y-15938293D02*
X12241491Y-15976388D01*
X12241491Y-15976388D02*
X12231968Y-15995436D01*
X12231968Y-15995436D02*
X12222444Y-16004960D01*
X12222444Y-16004960D02*
X12203396Y-16014484D01*
X12203396Y-16014484D02*
X12184348Y-16014484D01*
X12184348Y-16014484D02*
X12165301Y-16004960D01*
X12165301Y-16004960D02*
X12155777Y-15995436D01*
X12155777Y-15995436D02*
X12146253Y-15976388D01*
X12146253Y-15976388D02*
X12136729Y-15938293D01*
X12136729Y-15938293D02*
X12136729Y-15890674D01*
X12136729Y-15890674D02*
X12146253Y-15852579D01*
X12146253Y-15852579D02*
X12155777Y-15833531D01*
X12155777Y-15833531D02*
X12165301Y-15824008D01*
X12165301Y-15824008D02*
X12184348Y-15814484D01*
X12489110Y-16014484D02*
X12489110Y-15814484D01*
X12574825Y-16014484D02*
X12574825Y-15909722D01*
X12574825Y-15909722D02*
X12565301Y-15890674D01*
X12565301Y-15890674D02*
X12546253Y-15881150D01*
X12546253Y-15881150D02*
X12517682Y-15881150D01*
X12517682Y-15881150D02*
X12498634Y-15890674D01*
X12498634Y-15890674D02*
X12489110Y-15900198D01*
X12698634Y-16014484D02*
X12679587Y-16004960D01*
X12679587Y-16004960D02*
X12670063Y-15995436D01*
X12670063Y-15995436D02*
X12660539Y-15976388D01*
X12660539Y-15976388D02*
X12660539Y-15919246D01*
X12660539Y-15919246D02*
X12670063Y-15900198D01*
X12670063Y-15900198D02*
X12679587Y-15890674D01*
X12679587Y-15890674D02*
X12698634Y-15881150D01*
X12698634Y-15881150D02*
X12727206Y-15881150D01*
X12727206Y-15881150D02*
X12746253Y-15890674D01*
X12746253Y-15890674D02*
X12755777Y-15900198D01*
X12755777Y-15900198D02*
X12765301Y-15919246D01*
X12765301Y-15919246D02*
X12765301Y-15976388D01*
X12765301Y-15976388D02*
X12755777Y-15995436D01*
X12755777Y-15995436D02*
X12746253Y-16004960D01*
X12746253Y-16004960D02*
X12727206Y-16014484D01*
X12727206Y-16014484D02*
X12698634Y-16014484D01*
X12879587Y-16014484D02*
X12860539Y-16004960D01*
X12860539Y-16004960D02*
X12851015Y-15985912D01*
X12851015Y-15985912D02*
X12851015Y-15814484D01*
X13031968Y-16004960D02*
X13012920Y-16014484D01*
X13012920Y-16014484D02*
X12974825Y-16014484D01*
X12974825Y-16014484D02*
X12955777Y-16004960D01*
X12955777Y-16004960D02*
X12946253Y-15985912D01*
X12946253Y-15985912D02*
X12946253Y-15909722D01*
X12946253Y-15909722D02*
X12955777Y-15890674D01*
X12955777Y-15890674D02*
X12974825Y-15881150D01*
X12974825Y-15881150D02*
X13012920Y-15881150D01*
X13012920Y-15881150D02*
X13031968Y-15890674D01*
X13031968Y-15890674D02*
X13041491Y-15909722D01*
X13041491Y-15909722D02*
X13041491Y-15928769D01*
X13041491Y-15928769D02*
X12946253Y-15947817D01*
X13117682Y-16004960D02*
X13136730Y-16014484D01*
X13136730Y-16014484D02*
X13174825Y-16014484D01*
X13174825Y-16014484D02*
X13193872Y-16004960D01*
X13193872Y-16004960D02*
X13203396Y-15985912D01*
X13203396Y-15985912D02*
X13203396Y-15976388D01*
X13203396Y-15976388D02*
X13193872Y-15957341D01*
X13193872Y-15957341D02*
X13174825Y-15947817D01*
X13174825Y-15947817D02*
X13146253Y-15947817D01*
X13146253Y-15947817D02*
X13127206Y-15938293D01*
X13127206Y-15938293D02*
X13117682Y-15919246D01*
X13117682Y-15919246D02*
X13117682Y-15909722D01*
X13117682Y-15909722D02*
X13127206Y-15890674D01*
X13127206Y-15890674D02*
X13146253Y-15881150D01*
X13146253Y-15881150D02*
X13174825Y-15881150D01*
X13174825Y-15881150D02*
X13193872Y-15890674D01*
X13441492Y-15938293D02*
X13593873Y-15938293D01*
X13517682Y-16014484D02*
X13517682Y-15862103D01*
X13831968Y-15833531D02*
X13841492Y-15824008D01*
X13841492Y-15824008D02*
X13860539Y-15814484D01*
X13860539Y-15814484D02*
X13908158Y-15814484D01*
X13908158Y-15814484D02*
X13927206Y-15824008D01*
X13927206Y-15824008D02*
X13936730Y-15833531D01*
X13936730Y-15833531D02*
X13946253Y-15852579D01*
X13946253Y-15852579D02*
X13946253Y-15871627D01*
X13946253Y-15871627D02*
X13936730Y-15900198D01*
X13936730Y-15900198D02*
X13822444Y-16014484D01*
X13822444Y-16014484D02*
X13946253Y-16014484D01*
X14070063Y-15814484D02*
X14089111Y-15814484D01*
X14089111Y-15814484D02*
X14108158Y-15824008D01*
X14108158Y-15824008D02*
X14117682Y-15833531D01*
X14117682Y-15833531D02*
X14127206Y-15852579D01*
X14127206Y-15852579D02*
X14136730Y-15890674D01*
X14136730Y-15890674D02*
X14136730Y-15938293D01*
X14136730Y-15938293D02*
X14127206Y-15976388D01*
X14127206Y-15976388D02*
X14117682Y-15995436D01*
X14117682Y-15995436D02*
X14108158Y-16004960D01*
X14108158Y-16004960D02*
X14089111Y-16014484D01*
X14089111Y-16014484D02*
X14070063Y-16014484D01*
X14070063Y-16014484D02*
X14051015Y-16004960D01*
X14051015Y-16004960D02*
X14041492Y-15995436D01*
X14041492Y-15995436D02*
X14031968Y-15976388D01*
X14031968Y-15976388D02*
X14022444Y-15938293D01*
X14022444Y-15938293D02*
X14022444Y-15890674D01*
X14022444Y-15890674D02*
X14031968Y-15852579D01*
X14031968Y-15852579D02*
X14041492Y-15833531D01*
X14041492Y-15833531D02*
X14051015Y-15824008D01*
X14051015Y-15824008D02*
X14070063Y-15814484D01*
X14365301Y-16004960D02*
X14384349Y-16014484D01*
X14384349Y-16014484D02*
X14422444Y-16014484D01*
X14422444Y-16014484D02*
X14441492Y-16004960D01*
X14441492Y-16004960D02*
X14451015Y-15985912D01*
X14451015Y-15985912D02*
X14451015Y-15976388D01*
X14451015Y-15976388D02*
X14441492Y-15957341D01*
X14441492Y-15957341D02*
X14422444Y-15947817D01*
X14422444Y-15947817D02*
X14393873Y-15947817D01*
X14393873Y-15947817D02*
X14374825Y-15938293D01*
X14374825Y-15938293D02*
X14365301Y-15919246D01*
X14365301Y-15919246D02*
X14365301Y-15909722D01*
X14365301Y-15909722D02*
X14374825Y-15890674D01*
X14374825Y-15890674D02*
X14393873Y-15881150D01*
X14393873Y-15881150D02*
X14422444Y-15881150D01*
X14422444Y-15881150D02*
X14441492Y-15890674D01*
X14565301Y-16014484D02*
X14546254Y-16004960D01*
X14546254Y-16004960D02*
X14536730Y-15985912D01*
X14536730Y-15985912D02*
X14536730Y-15814484D01*
X14670063Y-16014484D02*
X14651015Y-16004960D01*
X14651015Y-16004960D02*
X14641492Y-15995436D01*
X14641492Y-15995436D02*
X14631968Y-15976388D01*
X14631968Y-15976388D02*
X14631968Y-15919246D01*
X14631968Y-15919246D02*
X14641492Y-15900198D01*
X14641492Y-15900198D02*
X14651015Y-15890674D01*
X14651015Y-15890674D02*
X14670063Y-15881150D01*
X14670063Y-15881150D02*
X14698635Y-15881150D01*
X14698635Y-15881150D02*
X14717682Y-15890674D01*
X14717682Y-15890674D02*
X14727206Y-15900198D01*
X14727206Y-15900198D02*
X14736730Y-15919246D01*
X14736730Y-15919246D02*
X14736730Y-15976388D01*
X14736730Y-15976388D02*
X14727206Y-15995436D01*
X14727206Y-15995436D02*
X14717682Y-16004960D01*
X14717682Y-16004960D02*
X14698635Y-16014484D01*
X14698635Y-16014484D02*
X14670063Y-16014484D01*
X14793873Y-15881150D02*
X14870063Y-15881150D01*
X14822444Y-15814484D02*
X14822444Y-15985912D01*
X14822444Y-15985912D02*
X14831968Y-16004960D01*
X14831968Y-16004960D02*
X14851015Y-16014484D01*
X14851015Y-16014484D02*
X14870063Y-16014484D01*
X14927206Y-16004960D02*
X14946254Y-16014484D01*
X14946254Y-16014484D02*
X14984349Y-16014484D01*
X14984349Y-16014484D02*
X15003396Y-16004960D01*
X15003396Y-16004960D02*
X15012920Y-15985912D01*
X15012920Y-15985912D02*
X15012920Y-15976388D01*
X15012920Y-15976388D02*
X15003396Y-15957341D01*
X15003396Y-15957341D02*
X14984349Y-15947817D01*
X14984349Y-15947817D02*
X14955777Y-15947817D01*
X14955777Y-15947817D02*
X14936730Y-15938293D01*
X14936730Y-15938293D02*
X14927206Y-15919246D01*
X14927206Y-15919246D02*
X14927206Y-15909722D01*
X14927206Y-15909722D02*
X14936730Y-15890674D01*
X14936730Y-15890674D02*
X14955777Y-15881150D01*
X14955777Y-15881150D02*
X14984349Y-15881150D01*
X14984349Y-15881150D02*
X15003396Y-15890674D01*
X15079587Y-16090674D02*
X15089111Y-16081150D01*
X15089111Y-16081150D02*
X15108158Y-16052579D01*
X15108158Y-16052579D02*
X15117682Y-16033531D01*
X15117682Y-16033531D02*
X15127206Y-16004960D01*
X15127206Y-16004960D02*
X15136730Y-15957341D01*
X15136730Y-15957341D02*
X15136730Y-15919246D01*
X15136730Y-15919246D02*
X15127206Y-15871627D01*
X15127206Y-15871627D02*
X15117682Y-15843055D01*
X15117682Y-15843055D02*
X15108158Y-15824008D01*
X15108158Y-15824008D02*
X15089111Y-15795436D01*
X15089111Y-15795436D02*
X15079587Y-15785912D01*
D12*
X8468640Y-16250640D02*
X8468640Y-16123360D01*
X8341360Y-16123360D01*
X8341360Y-16250640D01*
X8468640Y-16250640D01*
D11*
X8860539Y-16278484D02*
X8746253Y-16278484D01*
X8803396Y-16278484D02*
X8803396Y-16078484D01*
X8803396Y-16078484D02*
X8784348Y-16107055D01*
X8784348Y-16107055D02*
X8765301Y-16126103D01*
X8765301Y-16126103D02*
X8746253Y-16135627D01*
X8946253Y-16259436D02*
X8955777Y-16268960D01*
X8955777Y-16268960D02*
X8946253Y-16278484D01*
X8946253Y-16278484D02*
X8936729Y-16268960D01*
X8936729Y-16268960D02*
X8946253Y-16259436D01*
X8946253Y-16259436D02*
X8946253Y-16278484D01*
X9070063Y-16164198D02*
X9051015Y-16154674D01*
X9051015Y-16154674D02*
X9041491Y-16145150D01*
X9041491Y-16145150D02*
X9031967Y-16126103D01*
X9031967Y-16126103D02*
X9031967Y-16116579D01*
X9031967Y-16116579D02*
X9041491Y-16097531D01*
X9041491Y-16097531D02*
X9051015Y-16088008D01*
X9051015Y-16088008D02*
X9070063Y-16078484D01*
X9070063Y-16078484D02*
X9108158Y-16078484D01*
X9108158Y-16078484D02*
X9127205Y-16088008D01*
X9127205Y-16088008D02*
X9136729Y-16097531D01*
X9136729Y-16097531D02*
X9146253Y-16116579D01*
X9146253Y-16116579D02*
X9146253Y-16126103D01*
X9146253Y-16126103D02*
X9136729Y-16145150D01*
X9136729Y-16145150D02*
X9127205Y-16154674D01*
X9127205Y-16154674D02*
X9108158Y-16164198D01*
X9108158Y-16164198D02*
X9070063Y-16164198D01*
X9070063Y-16164198D02*
X9051015Y-16173722D01*
X9051015Y-16173722D02*
X9041491Y-16183246D01*
X9041491Y-16183246D02*
X9031967Y-16202293D01*
X9031967Y-16202293D02*
X9031967Y-16240388D01*
X9031967Y-16240388D02*
X9041491Y-16259436D01*
X9041491Y-16259436D02*
X9051015Y-16268960D01*
X9051015Y-16268960D02*
X9070063Y-16278484D01*
X9070063Y-16278484D02*
X9108158Y-16278484D01*
X9108158Y-16278484D02*
X9127205Y-16268960D01*
X9127205Y-16268960D02*
X9136729Y-16259436D01*
X9136729Y-16259436D02*
X9146253Y-16240388D01*
X9146253Y-16240388D02*
X9146253Y-16202293D01*
X9146253Y-16202293D02*
X9136729Y-16183246D01*
X9136729Y-16183246D02*
X9127205Y-16173722D01*
X9127205Y-16173722D02*
X9108158Y-16164198D01*
X9270063Y-16078484D02*
X9289110Y-16078484D01*
X9289110Y-16078484D02*
X9308158Y-16088008D01*
X9308158Y-16088008D02*
X9317682Y-16097531D01*
X9317682Y-16097531D02*
X9327205Y-16116579D01*
X9327205Y-16116579D02*
X9336729Y-16154674D01*
X9336729Y-16154674D02*
X9336729Y-16202293D01*
X9336729Y-16202293D02*
X9327205Y-16240388D01*
X9327205Y-16240388D02*
X9317682Y-16259436D01*
X9317682Y-16259436D02*
X9308158Y-16268960D01*
X9308158Y-16268960D02*
X9289110Y-16278484D01*
X9289110Y-16278484D02*
X9270063Y-16278484D01*
X9270063Y-16278484D02*
X9251015Y-16268960D01*
X9251015Y-16268960D02*
X9241491Y-16259436D01*
X9241491Y-16259436D02*
X9231967Y-16240388D01*
X9231967Y-16240388D02*
X9222444Y-16202293D01*
X9222444Y-16202293D02*
X9222444Y-16154674D01*
X9222444Y-16154674D02*
X9231967Y-16116579D01*
X9231967Y-16116579D02*
X9241491Y-16097531D01*
X9241491Y-16097531D02*
X9251015Y-16088008D01*
X9251015Y-16088008D02*
X9270063Y-16078484D01*
X9460539Y-16078484D02*
X9479586Y-16078484D01*
X9479586Y-16078484D02*
X9498634Y-16088008D01*
X9498634Y-16088008D02*
X9508158Y-16097531D01*
X9508158Y-16097531D02*
X9517682Y-16116579D01*
X9517682Y-16116579D02*
X9527205Y-16154674D01*
X9527205Y-16154674D02*
X9527205Y-16202293D01*
X9527205Y-16202293D02*
X9517682Y-16240388D01*
X9517682Y-16240388D02*
X9508158Y-16259436D01*
X9508158Y-16259436D02*
X9498634Y-16268960D01*
X9498634Y-16268960D02*
X9479586Y-16278484D01*
X9479586Y-16278484D02*
X9460539Y-16278484D01*
X9460539Y-16278484D02*
X9441491Y-16268960D01*
X9441491Y-16268960D02*
X9431967Y-16259436D01*
X9431967Y-16259436D02*
X9422444Y-16240388D01*
X9422444Y-16240388D02*
X9412920Y-16202293D01*
X9412920Y-16202293D02*
X9412920Y-16154674D01*
X9412920Y-16154674D02*
X9422444Y-16116579D01*
X9422444Y-16116579D02*
X9431967Y-16097531D01*
X9431967Y-16097531D02*
X9441491Y-16088008D01*
X9441491Y-16088008D02*
X9460539Y-16078484D01*
X9612920Y-16278484D02*
X9612920Y-16145150D01*
X9612920Y-16164198D02*
X9622444Y-16154674D01*
X9622444Y-16154674D02*
X9641491Y-16145150D01*
X9641491Y-16145150D02*
X9670063Y-16145150D01*
X9670063Y-16145150D02*
X9689110Y-16154674D01*
X9689110Y-16154674D02*
X9698634Y-16173722D01*
X9698634Y-16173722D02*
X9698634Y-16278484D01*
X9698634Y-16173722D02*
X9708158Y-16154674D01*
X9708158Y-16154674D02*
X9727205Y-16145150D01*
X9727205Y-16145150D02*
X9755777Y-16145150D01*
X9755777Y-16145150D02*
X9774825Y-16154674D01*
X9774825Y-16154674D02*
X9784348Y-16173722D01*
X9784348Y-16173722D02*
X9784348Y-16278484D01*
X9879586Y-16278484D02*
X9879586Y-16145150D01*
X9879586Y-16164198D02*
X9889110Y-16154674D01*
X9889110Y-16154674D02*
X9908158Y-16145150D01*
X9908158Y-16145150D02*
X9936729Y-16145150D01*
X9936729Y-16145150D02*
X9955777Y-16154674D01*
X9955777Y-16154674D02*
X9965301Y-16173722D01*
X9965301Y-16173722D02*
X9965301Y-16278484D01*
X9965301Y-16173722D02*
X9974825Y-16154674D01*
X9974825Y-16154674D02*
X9993872Y-16145150D01*
X9993872Y-16145150D02*
X10022444Y-16145150D01*
X10022444Y-16145150D02*
X10041491Y-16154674D01*
X10041491Y-16154674D02*
X10051015Y-16173722D01*
X10051015Y-16173722D02*
X10051015Y-16278484D01*
X10441491Y-16068960D02*
X10270063Y-16326103D01*
X10698634Y-16078484D02*
X10717682Y-16078484D01*
X10717682Y-16078484D02*
X10736729Y-16088008D01*
X10736729Y-16088008D02*
X10746253Y-16097531D01*
X10746253Y-16097531D02*
X10755777Y-16116579D01*
X10755777Y-16116579D02*
X10765301Y-16154674D01*
X10765301Y-16154674D02*
X10765301Y-16202293D01*
X10765301Y-16202293D02*
X10755777Y-16240388D01*
X10755777Y-16240388D02*
X10746253Y-16259436D01*
X10746253Y-16259436D02*
X10736729Y-16268960D01*
X10736729Y-16268960D02*
X10717682Y-16278484D01*
X10717682Y-16278484D02*
X10698634Y-16278484D01*
X10698634Y-16278484D02*
X10679587Y-16268960D01*
X10679587Y-16268960D02*
X10670063Y-16259436D01*
X10670063Y-16259436D02*
X10660539Y-16240388D01*
X10660539Y-16240388D02*
X10651015Y-16202293D01*
X10651015Y-16202293D02*
X10651015Y-16154674D01*
X10651015Y-16154674D02*
X10660539Y-16116579D01*
X10660539Y-16116579D02*
X10670063Y-16097531D01*
X10670063Y-16097531D02*
X10679587Y-16088008D01*
X10679587Y-16088008D02*
X10698634Y-16078484D01*
X10851015Y-16259436D02*
X10860539Y-16268960D01*
X10860539Y-16268960D02*
X10851015Y-16278484D01*
X10851015Y-16278484D02*
X10841491Y-16268960D01*
X10841491Y-16268960D02*
X10851015Y-16259436D01*
X10851015Y-16259436D02*
X10851015Y-16278484D01*
X10984348Y-16078484D02*
X11003396Y-16078484D01*
X11003396Y-16078484D02*
X11022444Y-16088008D01*
X11022444Y-16088008D02*
X11031968Y-16097531D01*
X11031968Y-16097531D02*
X11041491Y-16116579D01*
X11041491Y-16116579D02*
X11051015Y-16154674D01*
X11051015Y-16154674D02*
X11051015Y-16202293D01*
X11051015Y-16202293D02*
X11041491Y-16240388D01*
X11041491Y-16240388D02*
X11031968Y-16259436D01*
X11031968Y-16259436D02*
X11022444Y-16268960D01*
X11022444Y-16268960D02*
X11003396Y-16278484D01*
X11003396Y-16278484D02*
X10984348Y-16278484D01*
X10984348Y-16278484D02*
X10965301Y-16268960D01*
X10965301Y-16268960D02*
X10955777Y-16259436D01*
X10955777Y-16259436D02*
X10946253Y-16240388D01*
X10946253Y-16240388D02*
X10936729Y-16202293D01*
X10936729Y-16202293D02*
X10936729Y-16154674D01*
X10936729Y-16154674D02*
X10946253Y-16116579D01*
X10946253Y-16116579D02*
X10955777Y-16097531D01*
X10955777Y-16097531D02*
X10965301Y-16088008D01*
X10965301Y-16088008D02*
X10984348Y-16078484D01*
X11117682Y-16078484D02*
X11251015Y-16078484D01*
X11251015Y-16078484D02*
X11165301Y-16278484D01*
X11365301Y-16078484D02*
X11384348Y-16078484D01*
X11384348Y-16078484D02*
X11403396Y-16088008D01*
X11403396Y-16088008D02*
X11412920Y-16097531D01*
X11412920Y-16097531D02*
X11422444Y-16116579D01*
X11422444Y-16116579D02*
X11431967Y-16154674D01*
X11431967Y-16154674D02*
X11431967Y-16202293D01*
X11431967Y-16202293D02*
X11422444Y-16240388D01*
X11422444Y-16240388D02*
X11412920Y-16259436D01*
X11412920Y-16259436D02*
X11403396Y-16268960D01*
X11403396Y-16268960D02*
X11384348Y-16278484D01*
X11384348Y-16278484D02*
X11365301Y-16278484D01*
X11365301Y-16278484D02*
X11346253Y-16268960D01*
X11346253Y-16268960D02*
X11336729Y-16259436D01*
X11336729Y-16259436D02*
X11327206Y-16240388D01*
X11327206Y-16240388D02*
X11317682Y-16202293D01*
X11317682Y-16202293D02*
X11317682Y-16154674D01*
X11317682Y-16154674D02*
X11327206Y-16116579D01*
X11327206Y-16116579D02*
X11336729Y-16097531D01*
X11336729Y-16097531D02*
X11346253Y-16088008D01*
X11346253Y-16088008D02*
X11365301Y-16078484D01*
X11527206Y-16278484D02*
X11565301Y-16278484D01*
X11565301Y-16278484D02*
X11584348Y-16268960D01*
X11584348Y-16268960D02*
X11593872Y-16259436D01*
X11593872Y-16259436D02*
X11612920Y-16230865D01*
X11612920Y-16230865D02*
X11622444Y-16192769D01*
X11622444Y-16192769D02*
X11622444Y-16116579D01*
X11622444Y-16116579D02*
X11612920Y-16097531D01*
X11612920Y-16097531D02*
X11603396Y-16088008D01*
X11603396Y-16088008D02*
X11584348Y-16078484D01*
X11584348Y-16078484D02*
X11546253Y-16078484D01*
X11546253Y-16078484D02*
X11527206Y-16088008D01*
X11527206Y-16088008D02*
X11517682Y-16097531D01*
X11517682Y-16097531D02*
X11508158Y-16116579D01*
X11508158Y-16116579D02*
X11508158Y-16164198D01*
X11508158Y-16164198D02*
X11517682Y-16183246D01*
X11517682Y-16183246D02*
X11527206Y-16192769D01*
X11527206Y-16192769D02*
X11546253Y-16202293D01*
X11546253Y-16202293D02*
X11584348Y-16202293D01*
X11584348Y-16202293D02*
X11603396Y-16192769D01*
X11603396Y-16192769D02*
X11612920Y-16183246D01*
X11612920Y-16183246D02*
X11622444Y-16164198D01*
X11698634Y-16078484D02*
X11698634Y-16116579D01*
X11774825Y-16078484D02*
X11774825Y-16116579D01*
X12070063Y-16354674D02*
X12060539Y-16345150D01*
X12060539Y-16345150D02*
X12041491Y-16316579D01*
X12041491Y-16316579D02*
X12031968Y-16297531D01*
X12031968Y-16297531D02*
X12022444Y-16268960D01*
X12022444Y-16268960D02*
X12012920Y-16221341D01*
X12012920Y-16221341D02*
X12012920Y-16183246D01*
X12012920Y-16183246D02*
X12022444Y-16135627D01*
X12022444Y-16135627D02*
X12031968Y-16107055D01*
X12031968Y-16107055D02*
X12041491Y-16088008D01*
X12041491Y-16088008D02*
X12060539Y-16059436D01*
X12060539Y-16059436D02*
X12070063Y-16049912D01*
X12251015Y-16278484D02*
X12136729Y-16278484D01*
X12193872Y-16278484D02*
X12193872Y-16078484D01*
X12193872Y-16078484D02*
X12174825Y-16107055D01*
X12174825Y-16107055D02*
X12155777Y-16126103D01*
X12155777Y-16126103D02*
X12136729Y-16135627D01*
X12422444Y-16078484D02*
X12384348Y-16078484D01*
X12384348Y-16078484D02*
X12365301Y-16088008D01*
X12365301Y-16088008D02*
X12355777Y-16097531D01*
X12355777Y-16097531D02*
X12336729Y-16126103D01*
X12336729Y-16126103D02*
X12327206Y-16164198D01*
X12327206Y-16164198D02*
X12327206Y-16240388D01*
X12327206Y-16240388D02*
X12336729Y-16259436D01*
X12336729Y-16259436D02*
X12346253Y-16268960D01*
X12346253Y-16268960D02*
X12365301Y-16278484D01*
X12365301Y-16278484D02*
X12403396Y-16278484D01*
X12403396Y-16278484D02*
X12422444Y-16268960D01*
X12422444Y-16268960D02*
X12431968Y-16259436D01*
X12431968Y-16259436D02*
X12441491Y-16240388D01*
X12441491Y-16240388D02*
X12441491Y-16192769D01*
X12441491Y-16192769D02*
X12431968Y-16173722D01*
X12431968Y-16173722D02*
X12422444Y-16164198D01*
X12422444Y-16164198D02*
X12403396Y-16154674D01*
X12403396Y-16154674D02*
X12365301Y-16154674D01*
X12365301Y-16154674D02*
X12346253Y-16164198D01*
X12346253Y-16164198D02*
X12336729Y-16173722D01*
X12336729Y-16173722D02*
X12327206Y-16192769D01*
X12679587Y-16278484D02*
X12679587Y-16078484D01*
X12765301Y-16278484D02*
X12765301Y-16173722D01*
X12765301Y-16173722D02*
X12755777Y-16154674D01*
X12755777Y-16154674D02*
X12736730Y-16145150D01*
X12736730Y-16145150D02*
X12708158Y-16145150D01*
X12708158Y-16145150D02*
X12689110Y-16154674D01*
X12689110Y-16154674D02*
X12679587Y-16164198D01*
X12889110Y-16278484D02*
X12870063Y-16268960D01*
X12870063Y-16268960D02*
X12860539Y-16259436D01*
X12860539Y-16259436D02*
X12851015Y-16240388D01*
X12851015Y-16240388D02*
X12851015Y-16183246D01*
X12851015Y-16183246D02*
X12860539Y-16164198D01*
X12860539Y-16164198D02*
X12870063Y-16154674D01*
X12870063Y-16154674D02*
X12889110Y-16145150D01*
X12889110Y-16145150D02*
X12917682Y-16145150D01*
X12917682Y-16145150D02*
X12936730Y-16154674D01*
X12936730Y-16154674D02*
X12946253Y-16164198D01*
X12946253Y-16164198D02*
X12955777Y-16183246D01*
X12955777Y-16183246D02*
X12955777Y-16240388D01*
X12955777Y-16240388D02*
X12946253Y-16259436D01*
X12946253Y-16259436D02*
X12936730Y-16268960D01*
X12936730Y-16268960D02*
X12917682Y-16278484D01*
X12917682Y-16278484D02*
X12889110Y-16278484D01*
X13070063Y-16278484D02*
X13051015Y-16268960D01*
X13051015Y-16268960D02*
X13041491Y-16249912D01*
X13041491Y-16249912D02*
X13041491Y-16078484D01*
X13222444Y-16268960D02*
X13203396Y-16278484D01*
X13203396Y-16278484D02*
X13165301Y-16278484D01*
X13165301Y-16278484D02*
X13146253Y-16268960D01*
X13146253Y-16268960D02*
X13136730Y-16249912D01*
X13136730Y-16249912D02*
X13136730Y-16173722D01*
X13136730Y-16173722D02*
X13146253Y-16154674D01*
X13146253Y-16154674D02*
X13165301Y-16145150D01*
X13165301Y-16145150D02*
X13203396Y-16145150D01*
X13203396Y-16145150D02*
X13222444Y-16154674D01*
X13222444Y-16154674D02*
X13231968Y-16173722D01*
X13231968Y-16173722D02*
X13231968Y-16192769D01*
X13231968Y-16192769D02*
X13136730Y-16211817D01*
X13308158Y-16268960D02*
X13327206Y-16278484D01*
X13327206Y-16278484D02*
X13365301Y-16278484D01*
X13365301Y-16278484D02*
X13384349Y-16268960D01*
X13384349Y-16268960D02*
X13393872Y-16249912D01*
X13393872Y-16249912D02*
X13393872Y-16240388D01*
X13393872Y-16240388D02*
X13384349Y-16221341D01*
X13384349Y-16221341D02*
X13365301Y-16211817D01*
X13365301Y-16211817D02*
X13336730Y-16211817D01*
X13336730Y-16211817D02*
X13317682Y-16202293D01*
X13317682Y-16202293D02*
X13308158Y-16183246D01*
X13308158Y-16183246D02*
X13308158Y-16173722D01*
X13308158Y-16173722D02*
X13317682Y-16154674D01*
X13317682Y-16154674D02*
X13336730Y-16145150D01*
X13336730Y-16145150D02*
X13365301Y-16145150D01*
X13365301Y-16145150D02*
X13384349Y-16154674D01*
X13460539Y-16354674D02*
X13470063Y-16345150D01*
X13470063Y-16345150D02*
X13489111Y-16316579D01*
X13489111Y-16316579D02*
X13498634Y-16297531D01*
X13498634Y-16297531D02*
X13508158Y-16268960D01*
X13508158Y-16268960D02*
X13517682Y-16221341D01*
X13517682Y-16221341D02*
X13517682Y-16183246D01*
X13517682Y-16183246D02*
X13508158Y-16135627D01*
X13508158Y-16135627D02*
X13498634Y-16107055D01*
X13498634Y-16107055D02*
X13489111Y-16088008D01*
X13489111Y-16088008D02*
X13470063Y-16059436D01*
X13470063Y-16059436D02*
X13460539Y-16049912D01*
X8395000Y-16587000D02*
X8495000Y-16487000D01*
X8395000Y-16387000D01*
X8295000Y-16487000D01*
X8395000Y-16587000D01*
X8746253Y-16397531D02*
X8755777Y-16388008D01*
X8755777Y-16388008D02*
X8774824Y-16378484D01*
X8774824Y-16378484D02*
X8822444Y-16378484D01*
X8822444Y-16378484D02*
X8841491Y-16388008D01*
X8841491Y-16388008D02*
X8851015Y-16397531D01*
X8851015Y-16397531D02*
X8860539Y-16416579D01*
X8860539Y-16416579D02*
X8860539Y-16435627D01*
X8860539Y-16435627D02*
X8851015Y-16464198D01*
X8851015Y-16464198D02*
X8736729Y-16578484D01*
X8736729Y-16578484D02*
X8860539Y-16578484D01*
X8946253Y-16559436D02*
X8955777Y-16568960D01*
X8955777Y-16568960D02*
X8946253Y-16578484D01*
X8946253Y-16578484D02*
X8936729Y-16568960D01*
X8936729Y-16568960D02*
X8946253Y-16559436D01*
X8946253Y-16559436D02*
X8946253Y-16578484D01*
X9022444Y-16378484D02*
X9155777Y-16378484D01*
X9155777Y-16378484D02*
X9070063Y-16578484D01*
X9270063Y-16378484D02*
X9289110Y-16378484D01*
X9289110Y-16378484D02*
X9308158Y-16388008D01*
X9308158Y-16388008D02*
X9317682Y-16397531D01*
X9317682Y-16397531D02*
X9327205Y-16416579D01*
X9327205Y-16416579D02*
X9336729Y-16454674D01*
X9336729Y-16454674D02*
X9336729Y-16502293D01*
X9336729Y-16502293D02*
X9327205Y-16540388D01*
X9327205Y-16540388D02*
X9317682Y-16559436D01*
X9317682Y-16559436D02*
X9308158Y-16568960D01*
X9308158Y-16568960D02*
X9289110Y-16578484D01*
X9289110Y-16578484D02*
X9270063Y-16578484D01*
X9270063Y-16578484D02*
X9251015Y-16568960D01*
X9251015Y-16568960D02*
X9241491Y-16559436D01*
X9241491Y-16559436D02*
X9231967Y-16540388D01*
X9231967Y-16540388D02*
X9222444Y-16502293D01*
X9222444Y-16502293D02*
X9222444Y-16454674D01*
X9222444Y-16454674D02*
X9231967Y-16416579D01*
X9231967Y-16416579D02*
X9241491Y-16397531D01*
X9241491Y-16397531D02*
X9251015Y-16388008D01*
X9251015Y-16388008D02*
X9270063Y-16378484D01*
X9460539Y-16378484D02*
X9479586Y-16378484D01*
X9479586Y-16378484D02*
X9498634Y-16388008D01*
X9498634Y-16388008D02*
X9508158Y-16397531D01*
X9508158Y-16397531D02*
X9517682Y-16416579D01*
X9517682Y-16416579D02*
X9527205Y-16454674D01*
X9527205Y-16454674D02*
X9527205Y-16502293D01*
X9527205Y-16502293D02*
X9517682Y-16540388D01*
X9517682Y-16540388D02*
X9508158Y-16559436D01*
X9508158Y-16559436D02*
X9498634Y-16568960D01*
X9498634Y-16568960D02*
X9479586Y-16578484D01*
X9479586Y-16578484D02*
X9460539Y-16578484D01*
X9460539Y-16578484D02*
X9441491Y-16568960D01*
X9441491Y-16568960D02*
X9431967Y-16559436D01*
X9431967Y-16559436D02*
X9422444Y-16540388D01*
X9422444Y-16540388D02*
X9412920Y-16502293D01*
X9412920Y-16502293D02*
X9412920Y-16454674D01*
X9412920Y-16454674D02*
X9422444Y-16416579D01*
X9422444Y-16416579D02*
X9431967Y-16397531D01*
X9431967Y-16397531D02*
X9441491Y-16388008D01*
X9441491Y-16388008D02*
X9460539Y-16378484D01*
X9612920Y-16578484D02*
X9612920Y-16445150D01*
X9612920Y-16464198D02*
X9622444Y-16454674D01*
X9622444Y-16454674D02*
X9641491Y-16445150D01*
X9641491Y-16445150D02*
X9670063Y-16445150D01*
X9670063Y-16445150D02*
X9689110Y-16454674D01*
X9689110Y-16454674D02*
X9698634Y-16473722D01*
X9698634Y-16473722D02*
X9698634Y-16578484D01*
X9698634Y-16473722D02*
X9708158Y-16454674D01*
X9708158Y-16454674D02*
X9727205Y-16445150D01*
X9727205Y-16445150D02*
X9755777Y-16445150D01*
X9755777Y-16445150D02*
X9774825Y-16454674D01*
X9774825Y-16454674D02*
X9784348Y-16473722D01*
X9784348Y-16473722D02*
X9784348Y-16578484D01*
X9879586Y-16578484D02*
X9879586Y-16445150D01*
X9879586Y-16464198D02*
X9889110Y-16454674D01*
X9889110Y-16454674D02*
X9908158Y-16445150D01*
X9908158Y-16445150D02*
X9936729Y-16445150D01*
X9936729Y-16445150D02*
X9955777Y-16454674D01*
X9955777Y-16454674D02*
X9965301Y-16473722D01*
X9965301Y-16473722D02*
X9965301Y-16578484D01*
X9965301Y-16473722D02*
X9974825Y-16454674D01*
X9974825Y-16454674D02*
X9993872Y-16445150D01*
X9993872Y-16445150D02*
X10022444Y-16445150D01*
X10022444Y-16445150D02*
X10041491Y-16454674D01*
X10041491Y-16454674D02*
X10051015Y-16473722D01*
X10051015Y-16473722D02*
X10051015Y-16578484D01*
X10441491Y-16368960D02*
X10270063Y-16626103D01*
X10698634Y-16378484D02*
X10717682Y-16378484D01*
X10717682Y-16378484D02*
X10736729Y-16388008D01*
X10736729Y-16388008D02*
X10746253Y-16397531D01*
X10746253Y-16397531D02*
X10755777Y-16416579D01*
X10755777Y-16416579D02*
X10765301Y-16454674D01*
X10765301Y-16454674D02*
X10765301Y-16502293D01*
X10765301Y-16502293D02*
X10755777Y-16540388D01*
X10755777Y-16540388D02*
X10746253Y-16559436D01*
X10746253Y-16559436D02*
X10736729Y-16568960D01*
X10736729Y-16568960D02*
X10717682Y-16578484D01*
X10717682Y-16578484D02*
X10698634Y-16578484D01*
X10698634Y-16578484D02*
X10679587Y-16568960D01*
X10679587Y-16568960D02*
X10670063Y-16559436D01*
X10670063Y-16559436D02*
X10660539Y-16540388D01*
X10660539Y-16540388D02*
X10651015Y-16502293D01*
X10651015Y-16502293D02*
X10651015Y-16454674D01*
X10651015Y-16454674D02*
X10660539Y-16416579D01*
X10660539Y-16416579D02*
X10670063Y-16397531D01*
X10670063Y-16397531D02*
X10679587Y-16388008D01*
X10679587Y-16388008D02*
X10698634Y-16378484D01*
X10851015Y-16559436D02*
X10860539Y-16568960D01*
X10860539Y-16568960D02*
X10851015Y-16578484D01*
X10851015Y-16578484D02*
X10841491Y-16568960D01*
X10841491Y-16568960D02*
X10851015Y-16559436D01*
X10851015Y-16559436D02*
X10851015Y-16578484D01*
X11051015Y-16578484D02*
X10936729Y-16578484D01*
X10993872Y-16578484D02*
X10993872Y-16378484D01*
X10993872Y-16378484D02*
X10974825Y-16407055D01*
X10974825Y-16407055D02*
X10955777Y-16426103D01*
X10955777Y-16426103D02*
X10936729Y-16435627D01*
X11174825Y-16378484D02*
X11193872Y-16378484D01*
X11193872Y-16378484D02*
X11212920Y-16388008D01*
X11212920Y-16388008D02*
X11222444Y-16397531D01*
X11222444Y-16397531D02*
X11231967Y-16416579D01*
X11231967Y-16416579D02*
X11241491Y-16454674D01*
X11241491Y-16454674D02*
X11241491Y-16502293D01*
X11241491Y-16502293D02*
X11231967Y-16540388D01*
X11231967Y-16540388D02*
X11222444Y-16559436D01*
X11222444Y-16559436D02*
X11212920Y-16568960D01*
X11212920Y-16568960D02*
X11193872Y-16578484D01*
X11193872Y-16578484D02*
X11174825Y-16578484D01*
X11174825Y-16578484D02*
X11155777Y-16568960D01*
X11155777Y-16568960D02*
X11146253Y-16559436D01*
X11146253Y-16559436D02*
X11136729Y-16540388D01*
X11136729Y-16540388D02*
X11127206Y-16502293D01*
X11127206Y-16502293D02*
X11127206Y-16454674D01*
X11127206Y-16454674D02*
X11136729Y-16416579D01*
X11136729Y-16416579D02*
X11146253Y-16397531D01*
X11146253Y-16397531D02*
X11155777Y-16388008D01*
X11155777Y-16388008D02*
X11174825Y-16378484D01*
X11412920Y-16378484D02*
X11374825Y-16378484D01*
X11374825Y-16378484D02*
X11355777Y-16388008D01*
X11355777Y-16388008D02*
X11346253Y-16397531D01*
X11346253Y-16397531D02*
X11327206Y-16426103D01*
X11327206Y-16426103D02*
X11317682Y-16464198D01*
X11317682Y-16464198D02*
X11317682Y-16540388D01*
X11317682Y-16540388D02*
X11327206Y-16559436D01*
X11327206Y-16559436D02*
X11336729Y-16568960D01*
X11336729Y-16568960D02*
X11355777Y-16578484D01*
X11355777Y-16578484D02*
X11393872Y-16578484D01*
X11393872Y-16578484D02*
X11412920Y-16568960D01*
X11412920Y-16568960D02*
X11422444Y-16559436D01*
X11422444Y-16559436D02*
X11431967Y-16540388D01*
X11431967Y-16540388D02*
X11431967Y-16492769D01*
X11431967Y-16492769D02*
X11422444Y-16473722D01*
X11422444Y-16473722D02*
X11412920Y-16464198D01*
X11412920Y-16464198D02*
X11393872Y-16454674D01*
X11393872Y-16454674D02*
X11355777Y-16454674D01*
X11355777Y-16454674D02*
X11336729Y-16464198D01*
X11336729Y-16464198D02*
X11327206Y-16473722D01*
X11327206Y-16473722D02*
X11317682Y-16492769D01*
X11498634Y-16378484D02*
X11622444Y-16378484D01*
X11622444Y-16378484D02*
X11555777Y-16454674D01*
X11555777Y-16454674D02*
X11584348Y-16454674D01*
X11584348Y-16454674D02*
X11603396Y-16464198D01*
X11603396Y-16464198D02*
X11612920Y-16473722D01*
X11612920Y-16473722D02*
X11622444Y-16492769D01*
X11622444Y-16492769D02*
X11622444Y-16540388D01*
X11622444Y-16540388D02*
X11612920Y-16559436D01*
X11612920Y-16559436D02*
X11603396Y-16568960D01*
X11603396Y-16568960D02*
X11584348Y-16578484D01*
X11584348Y-16578484D02*
X11527206Y-16578484D01*
X11527206Y-16578484D02*
X11508158Y-16568960D01*
X11508158Y-16568960D02*
X11498634Y-16559436D01*
X11698634Y-16378484D02*
X11698634Y-16416579D01*
X11774825Y-16378484D02*
X11774825Y-16416579D01*
X12070063Y-16654674D02*
X12060539Y-16645150D01*
X12060539Y-16645150D02*
X12041491Y-16616579D01*
X12041491Y-16616579D02*
X12031968Y-16597531D01*
X12031968Y-16597531D02*
X12022444Y-16568960D01*
X12022444Y-16568960D02*
X12012920Y-16521341D01*
X12012920Y-16521341D02*
X12012920Y-16483246D01*
X12012920Y-16483246D02*
X12022444Y-16435627D01*
X12022444Y-16435627D02*
X12031968Y-16407055D01*
X12031968Y-16407055D02*
X12041491Y-16388008D01*
X12041491Y-16388008D02*
X12060539Y-16359436D01*
X12060539Y-16359436D02*
X12070063Y-16349912D01*
X12136729Y-16397531D02*
X12146253Y-16388008D01*
X12146253Y-16388008D02*
X12165301Y-16378484D01*
X12165301Y-16378484D02*
X12212920Y-16378484D01*
X12212920Y-16378484D02*
X12231968Y-16388008D01*
X12231968Y-16388008D02*
X12241491Y-16397531D01*
X12241491Y-16397531D02*
X12251015Y-16416579D01*
X12251015Y-16416579D02*
X12251015Y-16435627D01*
X12251015Y-16435627D02*
X12241491Y-16464198D01*
X12241491Y-16464198D02*
X12127206Y-16578484D01*
X12127206Y-16578484D02*
X12251015Y-16578484D01*
X12374825Y-16378484D02*
X12393872Y-16378484D01*
X12393872Y-16378484D02*
X12412920Y-16388008D01*
X12412920Y-16388008D02*
X12422444Y-16397531D01*
X12422444Y-16397531D02*
X12431968Y-16416579D01*
X12431968Y-16416579D02*
X12441491Y-16454674D01*
X12441491Y-16454674D02*
X12441491Y-16502293D01*
X12441491Y-16502293D02*
X12431968Y-16540388D01*
X12431968Y-16540388D02*
X12422444Y-16559436D01*
X12422444Y-16559436D02*
X12412920Y-16568960D01*
X12412920Y-16568960D02*
X12393872Y-16578484D01*
X12393872Y-16578484D02*
X12374825Y-16578484D01*
X12374825Y-16578484D02*
X12355777Y-16568960D01*
X12355777Y-16568960D02*
X12346253Y-16559436D01*
X12346253Y-16559436D02*
X12336729Y-16540388D01*
X12336729Y-16540388D02*
X12327206Y-16502293D01*
X12327206Y-16502293D02*
X12327206Y-16454674D01*
X12327206Y-16454674D02*
X12336729Y-16416579D01*
X12336729Y-16416579D02*
X12346253Y-16397531D01*
X12346253Y-16397531D02*
X12355777Y-16388008D01*
X12355777Y-16388008D02*
X12374825Y-16378484D01*
X12679587Y-16578484D02*
X12679587Y-16378484D01*
X12765301Y-16578484D02*
X12765301Y-16473722D01*
X12765301Y-16473722D02*
X12755777Y-16454674D01*
X12755777Y-16454674D02*
X12736730Y-16445150D01*
X12736730Y-16445150D02*
X12708158Y-16445150D01*
X12708158Y-16445150D02*
X12689110Y-16454674D01*
X12689110Y-16454674D02*
X12679587Y-16464198D01*
X12889110Y-16578484D02*
X12870063Y-16568960D01*
X12870063Y-16568960D02*
X12860539Y-16559436D01*
X12860539Y-16559436D02*
X12851015Y-16540388D01*
X12851015Y-16540388D02*
X12851015Y-16483246D01*
X12851015Y-16483246D02*
X12860539Y-16464198D01*
X12860539Y-16464198D02*
X12870063Y-16454674D01*
X12870063Y-16454674D02*
X12889110Y-16445150D01*
X12889110Y-16445150D02*
X12917682Y-16445150D01*
X12917682Y-16445150D02*
X12936730Y-16454674D01*
X12936730Y-16454674D02*
X12946253Y-16464198D01*
X12946253Y-16464198D02*
X12955777Y-16483246D01*
X12955777Y-16483246D02*
X12955777Y-16540388D01*
X12955777Y-16540388D02*
X12946253Y-16559436D01*
X12946253Y-16559436D02*
X12936730Y-16568960D01*
X12936730Y-16568960D02*
X12917682Y-16578484D01*
X12917682Y-16578484D02*
X12889110Y-16578484D01*
X13070063Y-16578484D02*
X13051015Y-16568960D01*
X13051015Y-16568960D02*
X13041491Y-16549912D01*
X13041491Y-16549912D02*
X13041491Y-16378484D01*
X13222444Y-16568960D02*
X13203396Y-16578484D01*
X13203396Y-16578484D02*
X13165301Y-16578484D01*
X13165301Y-16578484D02*
X13146253Y-16568960D01*
X13146253Y-16568960D02*
X13136730Y-16549912D01*
X13136730Y-16549912D02*
X13136730Y-16473722D01*
X13136730Y-16473722D02*
X13146253Y-16454674D01*
X13146253Y-16454674D02*
X13165301Y-16445150D01*
X13165301Y-16445150D02*
X13203396Y-16445150D01*
X13203396Y-16445150D02*
X13222444Y-16454674D01*
X13222444Y-16454674D02*
X13231968Y-16473722D01*
X13231968Y-16473722D02*
X13231968Y-16492769D01*
X13231968Y-16492769D02*
X13136730Y-16511817D01*
X13308158Y-16568960D02*
X13327206Y-16578484D01*
X13327206Y-16578484D02*
X13365301Y-16578484D01*
X13365301Y-16578484D02*
X13384349Y-16568960D01*
X13384349Y-16568960D02*
X13393872Y-16549912D01*
X13393872Y-16549912D02*
X13393872Y-16540388D01*
X13393872Y-16540388D02*
X13384349Y-16521341D01*
X13384349Y-16521341D02*
X13365301Y-16511817D01*
X13365301Y-16511817D02*
X13336730Y-16511817D01*
X13336730Y-16511817D02*
X13317682Y-16502293D01*
X13317682Y-16502293D02*
X13308158Y-16483246D01*
X13308158Y-16483246D02*
X13308158Y-16473722D01*
X13308158Y-16473722D02*
X13317682Y-16454674D01*
X13317682Y-16454674D02*
X13336730Y-16445150D01*
X13336730Y-16445150D02*
X13365301Y-16445150D01*
X13365301Y-16445150D02*
X13384349Y-16454674D01*
X13460539Y-16654674D02*
X13470063Y-16645150D01*
X13470063Y-16645150D02*
X13489111Y-16616579D01*
X13489111Y-16616579D02*
X13498634Y-16597531D01*
X13498634Y-16597531D02*
X13508158Y-16568960D01*
X13508158Y-16568960D02*
X13517682Y-16521341D01*
X13517682Y-16521341D02*
X13517682Y-16483246D01*
X13517682Y-16483246D02*
X13508158Y-16435627D01*
X13508158Y-16435627D02*
X13498634Y-16407055D01*
X13498634Y-16407055D02*
X13489111Y-16388008D01*
X13489111Y-16388008D02*
X13470063Y-16359436D01*
X13470063Y-16359436D02*
X13460539Y-16349912D01*
X8295000Y-16707000D02*
X8495000Y-16907000D01*
X8495000Y-16707000D02*
X8295000Y-16907000D01*
X8495000Y-16807000D02*
G75*
G02*
X8295000Y-16807000I-100000J0D01*
G01*
X8295000Y-16807000D02*
G75*
G02*
X8495000Y-16807000I100000J0D01*
G01*
X8736729Y-16698484D02*
X8860539Y-16698484D01*
X8860539Y-16698484D02*
X8793872Y-16774674D01*
X8793872Y-16774674D02*
X8822444Y-16774674D01*
X8822444Y-16774674D02*
X8841491Y-16784198D01*
X8841491Y-16784198D02*
X8851015Y-16793722D01*
X8851015Y-16793722D02*
X8860539Y-16812770D01*
X8860539Y-16812770D02*
X8860539Y-16860389D01*
X8860539Y-16860389D02*
X8851015Y-16879436D01*
X8851015Y-16879436D02*
X8841491Y-16888960D01*
X8841491Y-16888960D02*
X8822444Y-16898484D01*
X8822444Y-16898484D02*
X8765301Y-16898484D01*
X8765301Y-16898484D02*
X8746253Y-16888960D01*
X8746253Y-16888960D02*
X8736729Y-16879436D01*
X8946253Y-16879436D02*
X8955777Y-16888960D01*
X8955777Y-16888960D02*
X8946253Y-16898484D01*
X8946253Y-16898484D02*
X8936729Y-16888960D01*
X8936729Y-16888960D02*
X8946253Y-16879436D01*
X8946253Y-16879436D02*
X8946253Y-16898484D01*
X9031967Y-16717531D02*
X9041491Y-16708008D01*
X9041491Y-16708008D02*
X9060539Y-16698484D01*
X9060539Y-16698484D02*
X9108158Y-16698484D01*
X9108158Y-16698484D02*
X9127205Y-16708008D01*
X9127205Y-16708008D02*
X9136729Y-16717531D01*
X9136729Y-16717531D02*
X9146253Y-16736579D01*
X9146253Y-16736579D02*
X9146253Y-16755627D01*
X9146253Y-16755627D02*
X9136729Y-16784198D01*
X9136729Y-16784198D02*
X9022444Y-16898484D01*
X9022444Y-16898484D02*
X9146253Y-16898484D01*
X9270063Y-16698484D02*
X9289110Y-16698484D01*
X9289110Y-16698484D02*
X9308158Y-16708008D01*
X9308158Y-16708008D02*
X9317682Y-16717531D01*
X9317682Y-16717531D02*
X9327205Y-16736579D01*
X9327205Y-16736579D02*
X9336729Y-16774674D01*
X9336729Y-16774674D02*
X9336729Y-16822293D01*
X9336729Y-16822293D02*
X9327205Y-16860389D01*
X9327205Y-16860389D02*
X9317682Y-16879436D01*
X9317682Y-16879436D02*
X9308158Y-16888960D01*
X9308158Y-16888960D02*
X9289110Y-16898484D01*
X9289110Y-16898484D02*
X9270063Y-16898484D01*
X9270063Y-16898484D02*
X9251015Y-16888960D01*
X9251015Y-16888960D02*
X9241491Y-16879436D01*
X9241491Y-16879436D02*
X9231967Y-16860389D01*
X9231967Y-16860389D02*
X9222444Y-16822293D01*
X9222444Y-16822293D02*
X9222444Y-16774674D01*
X9222444Y-16774674D02*
X9231967Y-16736579D01*
X9231967Y-16736579D02*
X9241491Y-16717531D01*
X9241491Y-16717531D02*
X9251015Y-16708008D01*
X9251015Y-16708008D02*
X9270063Y-16698484D01*
X9460539Y-16698484D02*
X9479586Y-16698484D01*
X9479586Y-16698484D02*
X9498634Y-16708008D01*
X9498634Y-16708008D02*
X9508158Y-16717531D01*
X9508158Y-16717531D02*
X9517682Y-16736579D01*
X9517682Y-16736579D02*
X9527205Y-16774674D01*
X9527205Y-16774674D02*
X9527205Y-16822293D01*
X9527205Y-16822293D02*
X9517682Y-16860389D01*
X9517682Y-16860389D02*
X9508158Y-16879436D01*
X9508158Y-16879436D02*
X9498634Y-16888960D01*
X9498634Y-16888960D02*
X9479586Y-16898484D01*
X9479586Y-16898484D02*
X9460539Y-16898484D01*
X9460539Y-16898484D02*
X9441491Y-16888960D01*
X9441491Y-16888960D02*
X9431967Y-16879436D01*
X9431967Y-16879436D02*
X9422444Y-16860389D01*
X9422444Y-16860389D02*
X9412920Y-16822293D01*
X9412920Y-16822293D02*
X9412920Y-16774674D01*
X9412920Y-16774674D02*
X9422444Y-16736579D01*
X9422444Y-16736579D02*
X9431967Y-16717531D01*
X9431967Y-16717531D02*
X9441491Y-16708008D01*
X9441491Y-16708008D02*
X9460539Y-16698484D01*
X9612920Y-16898484D02*
X9612920Y-16765150D01*
X9612920Y-16784198D02*
X9622444Y-16774674D01*
X9622444Y-16774674D02*
X9641491Y-16765150D01*
X9641491Y-16765150D02*
X9670063Y-16765150D01*
X9670063Y-16765150D02*
X9689110Y-16774674D01*
X9689110Y-16774674D02*
X9698634Y-16793722D01*
X9698634Y-16793722D02*
X9698634Y-16898484D01*
X9698634Y-16793722D02*
X9708158Y-16774674D01*
X9708158Y-16774674D02*
X9727205Y-16765150D01*
X9727205Y-16765150D02*
X9755777Y-16765150D01*
X9755777Y-16765150D02*
X9774825Y-16774674D01*
X9774825Y-16774674D02*
X9784348Y-16793722D01*
X9784348Y-16793722D02*
X9784348Y-16898484D01*
X9879586Y-16898484D02*
X9879586Y-16765150D01*
X9879586Y-16784198D02*
X9889110Y-16774674D01*
X9889110Y-16774674D02*
X9908158Y-16765150D01*
X9908158Y-16765150D02*
X9936729Y-16765150D01*
X9936729Y-16765150D02*
X9955777Y-16774674D01*
X9955777Y-16774674D02*
X9965301Y-16793722D01*
X9965301Y-16793722D02*
X9965301Y-16898484D01*
X9965301Y-16793722D02*
X9974825Y-16774674D01*
X9974825Y-16774674D02*
X9993872Y-16765150D01*
X9993872Y-16765150D02*
X10022444Y-16765150D01*
X10022444Y-16765150D02*
X10041491Y-16774674D01*
X10041491Y-16774674D02*
X10051015Y-16793722D01*
X10051015Y-16793722D02*
X10051015Y-16898484D01*
X10441491Y-16688960D02*
X10270063Y-16946103D01*
X10698634Y-16698484D02*
X10717682Y-16698484D01*
X10717682Y-16698484D02*
X10736729Y-16708008D01*
X10736729Y-16708008D02*
X10746253Y-16717531D01*
X10746253Y-16717531D02*
X10755777Y-16736579D01*
X10755777Y-16736579D02*
X10765301Y-16774674D01*
X10765301Y-16774674D02*
X10765301Y-16822293D01*
X10765301Y-16822293D02*
X10755777Y-16860389D01*
X10755777Y-16860389D02*
X10746253Y-16879436D01*
X10746253Y-16879436D02*
X10736729Y-16888960D01*
X10736729Y-16888960D02*
X10717682Y-16898484D01*
X10717682Y-16898484D02*
X10698634Y-16898484D01*
X10698634Y-16898484D02*
X10679587Y-16888960D01*
X10679587Y-16888960D02*
X10670063Y-16879436D01*
X10670063Y-16879436D02*
X10660539Y-16860389D01*
X10660539Y-16860389D02*
X10651015Y-16822293D01*
X10651015Y-16822293D02*
X10651015Y-16774674D01*
X10651015Y-16774674D02*
X10660539Y-16736579D01*
X10660539Y-16736579D02*
X10670063Y-16717531D01*
X10670063Y-16717531D02*
X10679587Y-16708008D01*
X10679587Y-16708008D02*
X10698634Y-16698484D01*
X10851015Y-16879436D02*
X10860539Y-16888960D01*
X10860539Y-16888960D02*
X10851015Y-16898484D01*
X10851015Y-16898484D02*
X10841491Y-16888960D01*
X10841491Y-16888960D02*
X10851015Y-16879436D01*
X10851015Y-16879436D02*
X10851015Y-16898484D01*
X11051015Y-16898484D02*
X10936729Y-16898484D01*
X10993872Y-16898484D02*
X10993872Y-16698484D01*
X10993872Y-16698484D02*
X10974825Y-16727055D01*
X10974825Y-16727055D02*
X10955777Y-16746103D01*
X10955777Y-16746103D02*
X10936729Y-16755627D01*
X11127206Y-16717531D02*
X11136729Y-16708008D01*
X11136729Y-16708008D02*
X11155777Y-16698484D01*
X11155777Y-16698484D02*
X11203396Y-16698484D01*
X11203396Y-16698484D02*
X11222444Y-16708008D01*
X11222444Y-16708008D02*
X11231967Y-16717531D01*
X11231967Y-16717531D02*
X11241491Y-16736579D01*
X11241491Y-16736579D02*
X11241491Y-16755627D01*
X11241491Y-16755627D02*
X11231967Y-16784198D01*
X11231967Y-16784198D02*
X11117682Y-16898484D01*
X11117682Y-16898484D02*
X11241491Y-16898484D01*
X11412920Y-16698484D02*
X11374825Y-16698484D01*
X11374825Y-16698484D02*
X11355777Y-16708008D01*
X11355777Y-16708008D02*
X11346253Y-16717531D01*
X11346253Y-16717531D02*
X11327206Y-16746103D01*
X11327206Y-16746103D02*
X11317682Y-16784198D01*
X11317682Y-16784198D02*
X11317682Y-16860389D01*
X11317682Y-16860389D02*
X11327206Y-16879436D01*
X11327206Y-16879436D02*
X11336729Y-16888960D01*
X11336729Y-16888960D02*
X11355777Y-16898484D01*
X11355777Y-16898484D02*
X11393872Y-16898484D01*
X11393872Y-16898484D02*
X11412920Y-16888960D01*
X11412920Y-16888960D02*
X11422444Y-16879436D01*
X11422444Y-16879436D02*
X11431967Y-16860389D01*
X11431967Y-16860389D02*
X11431967Y-16812770D01*
X11431967Y-16812770D02*
X11422444Y-16793722D01*
X11422444Y-16793722D02*
X11412920Y-16784198D01*
X11412920Y-16784198D02*
X11393872Y-16774674D01*
X11393872Y-16774674D02*
X11355777Y-16774674D01*
X11355777Y-16774674D02*
X11336729Y-16784198D01*
X11336729Y-16784198D02*
X11327206Y-16793722D01*
X11327206Y-16793722D02*
X11317682Y-16812770D01*
X11555777Y-16698484D02*
X11574825Y-16698484D01*
X11574825Y-16698484D02*
X11593872Y-16708008D01*
X11593872Y-16708008D02*
X11603396Y-16717531D01*
X11603396Y-16717531D02*
X11612920Y-16736579D01*
X11612920Y-16736579D02*
X11622444Y-16774674D01*
X11622444Y-16774674D02*
X11622444Y-16822293D01*
X11622444Y-16822293D02*
X11612920Y-16860389D01*
X11612920Y-16860389D02*
X11603396Y-16879436D01*
X11603396Y-16879436D02*
X11593872Y-16888960D01*
X11593872Y-16888960D02*
X11574825Y-16898484D01*
X11574825Y-16898484D02*
X11555777Y-16898484D01*
X11555777Y-16898484D02*
X11536729Y-16888960D01*
X11536729Y-16888960D02*
X11527206Y-16879436D01*
X11527206Y-16879436D02*
X11517682Y-16860389D01*
X11517682Y-16860389D02*
X11508158Y-16822293D01*
X11508158Y-16822293D02*
X11508158Y-16774674D01*
X11508158Y-16774674D02*
X11517682Y-16736579D01*
X11517682Y-16736579D02*
X11527206Y-16717531D01*
X11527206Y-16717531D02*
X11536729Y-16708008D01*
X11536729Y-16708008D02*
X11555777Y-16698484D01*
X11698634Y-16698484D02*
X11698634Y-16736579D01*
X11774825Y-16698484D02*
X11774825Y-16736579D01*
X12070063Y-16974674D02*
X12060539Y-16965150D01*
X12060539Y-16965150D02*
X12041491Y-16936579D01*
X12041491Y-16936579D02*
X12031968Y-16917531D01*
X12031968Y-16917531D02*
X12022444Y-16888960D01*
X12022444Y-16888960D02*
X12012920Y-16841341D01*
X12012920Y-16841341D02*
X12012920Y-16803246D01*
X12012920Y-16803246D02*
X12022444Y-16755627D01*
X12022444Y-16755627D02*
X12031968Y-16727055D01*
X12031968Y-16727055D02*
X12041491Y-16708008D01*
X12041491Y-16708008D02*
X12060539Y-16679436D01*
X12060539Y-16679436D02*
X12070063Y-16669912D01*
X12231968Y-16698484D02*
X12193872Y-16698484D01*
X12193872Y-16698484D02*
X12174825Y-16708008D01*
X12174825Y-16708008D02*
X12165301Y-16717531D01*
X12165301Y-16717531D02*
X12146253Y-16746103D01*
X12146253Y-16746103D02*
X12136729Y-16784198D01*
X12136729Y-16784198D02*
X12136729Y-16860389D01*
X12136729Y-16860389D02*
X12146253Y-16879436D01*
X12146253Y-16879436D02*
X12155777Y-16888960D01*
X12155777Y-16888960D02*
X12174825Y-16898484D01*
X12174825Y-16898484D02*
X12212920Y-16898484D01*
X12212920Y-16898484D02*
X12231968Y-16888960D01*
X12231968Y-16888960D02*
X12241491Y-16879436D01*
X12241491Y-16879436D02*
X12251015Y-16860389D01*
X12251015Y-16860389D02*
X12251015Y-16812770D01*
X12251015Y-16812770D02*
X12241491Y-16793722D01*
X12241491Y-16793722D02*
X12231968Y-16784198D01*
X12231968Y-16784198D02*
X12212920Y-16774674D01*
X12212920Y-16774674D02*
X12174825Y-16774674D01*
X12174825Y-16774674D02*
X12155777Y-16784198D01*
X12155777Y-16784198D02*
X12146253Y-16793722D01*
X12146253Y-16793722D02*
X12136729Y-16812770D01*
X12489110Y-16898484D02*
X12489110Y-16698484D01*
X12574825Y-16898484D02*
X12574825Y-16793722D01*
X12574825Y-16793722D02*
X12565301Y-16774674D01*
X12565301Y-16774674D02*
X12546253Y-16765150D01*
X12546253Y-16765150D02*
X12517682Y-16765150D01*
X12517682Y-16765150D02*
X12498634Y-16774674D01*
X12498634Y-16774674D02*
X12489110Y-16784198D01*
X12698634Y-16898484D02*
X12679587Y-16888960D01*
X12679587Y-16888960D02*
X12670063Y-16879436D01*
X12670063Y-16879436D02*
X12660539Y-16860389D01*
X12660539Y-16860389D02*
X12660539Y-16803246D01*
X12660539Y-16803246D02*
X12670063Y-16784198D01*
X12670063Y-16784198D02*
X12679587Y-16774674D01*
X12679587Y-16774674D02*
X12698634Y-16765150D01*
X12698634Y-16765150D02*
X12727206Y-16765150D01*
X12727206Y-16765150D02*
X12746253Y-16774674D01*
X12746253Y-16774674D02*
X12755777Y-16784198D01*
X12755777Y-16784198D02*
X12765301Y-16803246D01*
X12765301Y-16803246D02*
X12765301Y-16860389D01*
X12765301Y-16860389D02*
X12755777Y-16879436D01*
X12755777Y-16879436D02*
X12746253Y-16888960D01*
X12746253Y-16888960D02*
X12727206Y-16898484D01*
X12727206Y-16898484D02*
X12698634Y-16898484D01*
X12879587Y-16898484D02*
X12860539Y-16888960D01*
X12860539Y-16888960D02*
X12851015Y-16869912D01*
X12851015Y-16869912D02*
X12851015Y-16698484D01*
X13031968Y-16888960D02*
X13012920Y-16898484D01*
X13012920Y-16898484D02*
X12974825Y-16898484D01*
X12974825Y-16898484D02*
X12955777Y-16888960D01*
X12955777Y-16888960D02*
X12946253Y-16869912D01*
X12946253Y-16869912D02*
X12946253Y-16793722D01*
X12946253Y-16793722D02*
X12955777Y-16774674D01*
X12955777Y-16774674D02*
X12974825Y-16765150D01*
X12974825Y-16765150D02*
X13012920Y-16765150D01*
X13012920Y-16765150D02*
X13031968Y-16774674D01*
X13031968Y-16774674D02*
X13041491Y-16793722D01*
X13041491Y-16793722D02*
X13041491Y-16812770D01*
X13041491Y-16812770D02*
X12946253Y-16831817D01*
X13117682Y-16888960D02*
X13136730Y-16898484D01*
X13136730Y-16898484D02*
X13174825Y-16898484D01*
X13174825Y-16898484D02*
X13193872Y-16888960D01*
X13193872Y-16888960D02*
X13203396Y-16869912D01*
X13203396Y-16869912D02*
X13203396Y-16860389D01*
X13203396Y-16860389D02*
X13193872Y-16841341D01*
X13193872Y-16841341D02*
X13174825Y-16831817D01*
X13174825Y-16831817D02*
X13146253Y-16831817D01*
X13146253Y-16831817D02*
X13127206Y-16822293D01*
X13127206Y-16822293D02*
X13117682Y-16803246D01*
X13117682Y-16803246D02*
X13117682Y-16793722D01*
X13117682Y-16793722D02*
X13127206Y-16774674D01*
X13127206Y-16774674D02*
X13146253Y-16765150D01*
X13146253Y-16765150D02*
X13174825Y-16765150D01*
X13174825Y-16765150D02*
X13193872Y-16774674D01*
X13270063Y-16974674D02*
X13279587Y-16965150D01*
X13279587Y-16965150D02*
X13298634Y-16936579D01*
X13298634Y-16936579D02*
X13308158Y-16917531D01*
X13308158Y-16917531D02*
X13317682Y-16888960D01*
X13317682Y-16888960D02*
X13327206Y-16841341D01*
X13327206Y-16841341D02*
X13327206Y-16803246D01*
X13327206Y-16803246D02*
X13317682Y-16755627D01*
X13317682Y-16755627D02*
X13308158Y-16727055D01*
X13308158Y-16727055D02*
X13298634Y-16708008D01*
X13298634Y-16708008D02*
X13279587Y-16679436D01*
X13279587Y-16679436D02*
X13270063Y-16669912D01*
X8295000Y-17027000D02*
X8495000Y-17227000D01*
X8495000Y-17027000D02*
X8295000Y-17227000D01*
X8395000Y-17027000D02*
X8395000Y-17227000D01*
X8295000Y-17127000D02*
X8495000Y-17127000D01*
X8841491Y-17085150D02*
X8841491Y-17218484D01*
X8793872Y-17008960D02*
X8746253Y-17151817D01*
X8746253Y-17151817D02*
X8870063Y-17151817D01*
X8946253Y-17199436D02*
X8955777Y-17208960D01*
X8955777Y-17208960D02*
X8946253Y-17218484D01*
X8946253Y-17218484D02*
X8936729Y-17208960D01*
X8936729Y-17208960D02*
X8946253Y-17199436D01*
X8946253Y-17199436D02*
X8946253Y-17218484D01*
X9136729Y-17018484D02*
X9041491Y-17018484D01*
X9041491Y-17018484D02*
X9031967Y-17113722D01*
X9031967Y-17113722D02*
X9041491Y-17104198D01*
X9041491Y-17104198D02*
X9060539Y-17094674D01*
X9060539Y-17094674D02*
X9108158Y-17094674D01*
X9108158Y-17094674D02*
X9127205Y-17104198D01*
X9127205Y-17104198D02*
X9136729Y-17113722D01*
X9136729Y-17113722D02*
X9146253Y-17132770D01*
X9146253Y-17132770D02*
X9146253Y-17180389D01*
X9146253Y-17180389D02*
X9136729Y-17199436D01*
X9136729Y-17199436D02*
X9127205Y-17208960D01*
X9127205Y-17208960D02*
X9108158Y-17218484D01*
X9108158Y-17218484D02*
X9060539Y-17218484D01*
X9060539Y-17218484D02*
X9041491Y-17208960D01*
X9041491Y-17208960D02*
X9031967Y-17199436D01*
X9270063Y-17018484D02*
X9289110Y-17018484D01*
X9289110Y-17018484D02*
X9308158Y-17028008D01*
X9308158Y-17028008D02*
X9317682Y-17037531D01*
X9317682Y-17037531D02*
X9327205Y-17056579D01*
X9327205Y-17056579D02*
X9336729Y-17094674D01*
X9336729Y-17094674D02*
X9336729Y-17142293D01*
X9336729Y-17142293D02*
X9327205Y-17180389D01*
X9327205Y-17180389D02*
X9317682Y-17199436D01*
X9317682Y-17199436D02*
X9308158Y-17208960D01*
X9308158Y-17208960D02*
X9289110Y-17218484D01*
X9289110Y-17218484D02*
X9270063Y-17218484D01*
X9270063Y-17218484D02*
X9251015Y-17208960D01*
X9251015Y-17208960D02*
X9241491Y-17199436D01*
X9241491Y-17199436D02*
X9231967Y-17180389D01*
X9231967Y-17180389D02*
X9222444Y-17142293D01*
X9222444Y-17142293D02*
X9222444Y-17094674D01*
X9222444Y-17094674D02*
X9231967Y-17056579D01*
X9231967Y-17056579D02*
X9241491Y-17037531D01*
X9241491Y-17037531D02*
X9251015Y-17028008D01*
X9251015Y-17028008D02*
X9270063Y-17018484D01*
X9460539Y-17018484D02*
X9479586Y-17018484D01*
X9479586Y-17018484D02*
X9498634Y-17028008D01*
X9498634Y-17028008D02*
X9508158Y-17037531D01*
X9508158Y-17037531D02*
X9517682Y-17056579D01*
X9517682Y-17056579D02*
X9527205Y-17094674D01*
X9527205Y-17094674D02*
X9527205Y-17142293D01*
X9527205Y-17142293D02*
X9517682Y-17180389D01*
X9517682Y-17180389D02*
X9508158Y-17199436D01*
X9508158Y-17199436D02*
X9498634Y-17208960D01*
X9498634Y-17208960D02*
X9479586Y-17218484D01*
X9479586Y-17218484D02*
X9460539Y-17218484D01*
X9460539Y-17218484D02*
X9441491Y-17208960D01*
X9441491Y-17208960D02*
X9431967Y-17199436D01*
X9431967Y-17199436D02*
X9422444Y-17180389D01*
X9422444Y-17180389D02*
X9412920Y-17142293D01*
X9412920Y-17142293D02*
X9412920Y-17094674D01*
X9412920Y-17094674D02*
X9422444Y-17056579D01*
X9422444Y-17056579D02*
X9431967Y-17037531D01*
X9431967Y-17037531D02*
X9441491Y-17028008D01*
X9441491Y-17028008D02*
X9460539Y-17018484D01*
X9612920Y-17218484D02*
X9612920Y-17085150D01*
X9612920Y-17104198D02*
X9622444Y-17094674D01*
X9622444Y-17094674D02*
X9641491Y-17085150D01*
X9641491Y-17085150D02*
X9670063Y-17085150D01*
X9670063Y-17085150D02*
X9689110Y-17094674D01*
X9689110Y-17094674D02*
X9698634Y-17113722D01*
X9698634Y-17113722D02*
X9698634Y-17218484D01*
X9698634Y-17113722D02*
X9708158Y-17094674D01*
X9708158Y-17094674D02*
X9727205Y-17085150D01*
X9727205Y-17085150D02*
X9755777Y-17085150D01*
X9755777Y-17085150D02*
X9774825Y-17094674D01*
X9774825Y-17094674D02*
X9784348Y-17113722D01*
X9784348Y-17113722D02*
X9784348Y-17218484D01*
X9879586Y-17218484D02*
X9879586Y-17085150D01*
X9879586Y-17104198D02*
X9889110Y-17094674D01*
X9889110Y-17094674D02*
X9908158Y-17085150D01*
X9908158Y-17085150D02*
X9936729Y-17085150D01*
X9936729Y-17085150D02*
X9955777Y-17094674D01*
X9955777Y-17094674D02*
X9965301Y-17113722D01*
X9965301Y-17113722D02*
X9965301Y-17218484D01*
X9965301Y-17113722D02*
X9974825Y-17094674D01*
X9974825Y-17094674D02*
X9993872Y-17085150D01*
X9993872Y-17085150D02*
X10022444Y-17085150D01*
X10022444Y-17085150D02*
X10041491Y-17094674D01*
X10041491Y-17094674D02*
X10051015Y-17113722D01*
X10051015Y-17113722D02*
X10051015Y-17218484D01*
X10441491Y-17008960D02*
X10270063Y-17266103D01*
X10698634Y-17018484D02*
X10717682Y-17018484D01*
X10717682Y-17018484D02*
X10736729Y-17028008D01*
X10736729Y-17028008D02*
X10746253Y-17037531D01*
X10746253Y-17037531D02*
X10755777Y-17056579D01*
X10755777Y-17056579D02*
X10765301Y-17094674D01*
X10765301Y-17094674D02*
X10765301Y-17142293D01*
X10765301Y-17142293D02*
X10755777Y-17180389D01*
X10755777Y-17180389D02*
X10746253Y-17199436D01*
X10746253Y-17199436D02*
X10736729Y-17208960D01*
X10736729Y-17208960D02*
X10717682Y-17218484D01*
X10717682Y-17218484D02*
X10698634Y-17218484D01*
X10698634Y-17218484D02*
X10679587Y-17208960D01*
X10679587Y-17208960D02*
X10670063Y-17199436D01*
X10670063Y-17199436D02*
X10660539Y-17180389D01*
X10660539Y-17180389D02*
X10651015Y-17142293D01*
X10651015Y-17142293D02*
X10651015Y-17094674D01*
X10651015Y-17094674D02*
X10660539Y-17056579D01*
X10660539Y-17056579D02*
X10670063Y-17037531D01*
X10670063Y-17037531D02*
X10679587Y-17028008D01*
X10679587Y-17028008D02*
X10698634Y-17018484D01*
X10851015Y-17199436D02*
X10860539Y-17208960D01*
X10860539Y-17208960D02*
X10851015Y-17218484D01*
X10851015Y-17218484D02*
X10841491Y-17208960D01*
X10841491Y-17208960D02*
X10851015Y-17199436D01*
X10851015Y-17199436D02*
X10851015Y-17218484D01*
X11051015Y-17218484D02*
X10936729Y-17218484D01*
X10993872Y-17218484D02*
X10993872Y-17018484D01*
X10993872Y-17018484D02*
X10974825Y-17047055D01*
X10974825Y-17047055D02*
X10955777Y-17066103D01*
X10955777Y-17066103D02*
X10936729Y-17075627D01*
X11117682Y-17018484D02*
X11251015Y-17018484D01*
X11251015Y-17018484D02*
X11165301Y-17218484D01*
X11308158Y-17018484D02*
X11441491Y-17018484D01*
X11441491Y-17018484D02*
X11355777Y-17218484D01*
X11508158Y-17037531D02*
X11517682Y-17028008D01*
X11517682Y-17028008D02*
X11536729Y-17018484D01*
X11536729Y-17018484D02*
X11584348Y-17018484D01*
X11584348Y-17018484D02*
X11603396Y-17028008D01*
X11603396Y-17028008D02*
X11612920Y-17037531D01*
X11612920Y-17037531D02*
X11622444Y-17056579D01*
X11622444Y-17056579D02*
X11622444Y-17075627D01*
X11622444Y-17075627D02*
X11612920Y-17104198D01*
X11612920Y-17104198D02*
X11498634Y-17218484D01*
X11498634Y-17218484D02*
X11622444Y-17218484D01*
X11698634Y-17018484D02*
X11698634Y-17056579D01*
X11774825Y-17018484D02*
X11774825Y-17056579D01*
X12070063Y-17294674D02*
X12060539Y-17285150D01*
X12060539Y-17285150D02*
X12041491Y-17256579D01*
X12041491Y-17256579D02*
X12031968Y-17237531D01*
X12031968Y-17237531D02*
X12022444Y-17208960D01*
X12022444Y-17208960D02*
X12012920Y-17161341D01*
X12012920Y-17161341D02*
X12012920Y-17123246D01*
X12012920Y-17123246D02*
X12022444Y-17075627D01*
X12022444Y-17075627D02*
X12031968Y-17047055D01*
X12031968Y-17047055D02*
X12041491Y-17028008D01*
X12041491Y-17028008D02*
X12060539Y-16999436D01*
X12060539Y-16999436D02*
X12070063Y-16989912D01*
X12231968Y-17085150D02*
X12231968Y-17218484D01*
X12184348Y-17008960D02*
X12136729Y-17151817D01*
X12136729Y-17151817D02*
X12260539Y-17151817D01*
X12365301Y-17104198D02*
X12346253Y-17094674D01*
X12346253Y-17094674D02*
X12336729Y-17085150D01*
X12336729Y-17085150D02*
X12327206Y-17066103D01*
X12327206Y-17066103D02*
X12327206Y-17056579D01*
X12327206Y-17056579D02*
X12336729Y-17037531D01*
X12336729Y-17037531D02*
X12346253Y-17028008D01*
X12346253Y-17028008D02*
X12365301Y-17018484D01*
X12365301Y-17018484D02*
X12403396Y-17018484D01*
X12403396Y-17018484D02*
X12422444Y-17028008D01*
X12422444Y-17028008D02*
X12431968Y-17037531D01*
X12431968Y-17037531D02*
X12441491Y-17056579D01*
X12441491Y-17056579D02*
X12441491Y-17066103D01*
X12441491Y-17066103D02*
X12431968Y-17085150D01*
X12431968Y-17085150D02*
X12422444Y-17094674D01*
X12422444Y-17094674D02*
X12403396Y-17104198D01*
X12403396Y-17104198D02*
X12365301Y-17104198D01*
X12365301Y-17104198D02*
X12346253Y-17113722D01*
X12346253Y-17113722D02*
X12336729Y-17123246D01*
X12336729Y-17123246D02*
X12327206Y-17142293D01*
X12327206Y-17142293D02*
X12327206Y-17180389D01*
X12327206Y-17180389D02*
X12336729Y-17199436D01*
X12336729Y-17199436D02*
X12346253Y-17208960D01*
X12346253Y-17208960D02*
X12365301Y-17218484D01*
X12365301Y-17218484D02*
X12403396Y-17218484D01*
X12403396Y-17218484D02*
X12422444Y-17208960D01*
X12422444Y-17208960D02*
X12431968Y-17199436D01*
X12431968Y-17199436D02*
X12441491Y-17180389D01*
X12441491Y-17180389D02*
X12441491Y-17142293D01*
X12441491Y-17142293D02*
X12431968Y-17123246D01*
X12431968Y-17123246D02*
X12422444Y-17113722D01*
X12422444Y-17113722D02*
X12403396Y-17104198D01*
X12679587Y-17218484D02*
X12679587Y-17018484D01*
X12765301Y-17218484D02*
X12765301Y-17113722D01*
X12765301Y-17113722D02*
X12755777Y-17094674D01*
X12755777Y-17094674D02*
X12736730Y-17085150D01*
X12736730Y-17085150D02*
X12708158Y-17085150D01*
X12708158Y-17085150D02*
X12689110Y-17094674D01*
X12689110Y-17094674D02*
X12679587Y-17104198D01*
X12889110Y-17218484D02*
X12870063Y-17208960D01*
X12870063Y-17208960D02*
X12860539Y-17199436D01*
X12860539Y-17199436D02*
X12851015Y-17180389D01*
X12851015Y-17180389D02*
X12851015Y-17123246D01*
X12851015Y-17123246D02*
X12860539Y-17104198D01*
X12860539Y-17104198D02*
X12870063Y-17094674D01*
X12870063Y-17094674D02*
X12889110Y-17085150D01*
X12889110Y-17085150D02*
X12917682Y-17085150D01*
X12917682Y-17085150D02*
X12936730Y-17094674D01*
X12936730Y-17094674D02*
X12946253Y-17104198D01*
X12946253Y-17104198D02*
X12955777Y-17123246D01*
X12955777Y-17123246D02*
X12955777Y-17180389D01*
X12955777Y-17180389D02*
X12946253Y-17199436D01*
X12946253Y-17199436D02*
X12936730Y-17208960D01*
X12936730Y-17208960D02*
X12917682Y-17218484D01*
X12917682Y-17218484D02*
X12889110Y-17218484D01*
X13070063Y-17218484D02*
X13051015Y-17208960D01*
X13051015Y-17208960D02*
X13041491Y-17189912D01*
X13041491Y-17189912D02*
X13041491Y-17018484D01*
X13222444Y-17208960D02*
X13203396Y-17218484D01*
X13203396Y-17218484D02*
X13165301Y-17218484D01*
X13165301Y-17218484D02*
X13146253Y-17208960D01*
X13146253Y-17208960D02*
X13136730Y-17189912D01*
X13136730Y-17189912D02*
X13136730Y-17113722D01*
X13136730Y-17113722D02*
X13146253Y-17094674D01*
X13146253Y-17094674D02*
X13165301Y-17085150D01*
X13165301Y-17085150D02*
X13203396Y-17085150D01*
X13203396Y-17085150D02*
X13222444Y-17094674D01*
X13222444Y-17094674D02*
X13231968Y-17113722D01*
X13231968Y-17113722D02*
X13231968Y-17132770D01*
X13231968Y-17132770D02*
X13136730Y-17151817D01*
X13308158Y-17208960D02*
X13327206Y-17218484D01*
X13327206Y-17218484D02*
X13365301Y-17218484D01*
X13365301Y-17218484D02*
X13384349Y-17208960D01*
X13384349Y-17208960D02*
X13393872Y-17189912D01*
X13393872Y-17189912D02*
X13393872Y-17180389D01*
X13393872Y-17180389D02*
X13384349Y-17161341D01*
X13384349Y-17161341D02*
X13365301Y-17151817D01*
X13365301Y-17151817D02*
X13336730Y-17151817D01*
X13336730Y-17151817D02*
X13317682Y-17142293D01*
X13317682Y-17142293D02*
X13308158Y-17123246D01*
X13308158Y-17123246D02*
X13308158Y-17113722D01*
X13308158Y-17113722D02*
X13317682Y-17094674D01*
X13317682Y-17094674D02*
X13336730Y-17085150D01*
X13336730Y-17085150D02*
X13365301Y-17085150D01*
X13365301Y-17085150D02*
X13384349Y-17094674D01*
X13460539Y-17294674D02*
X13470063Y-17285150D01*
X13470063Y-17285150D02*
X13489111Y-17256579D01*
X13489111Y-17256579D02*
X13498634Y-17237531D01*
X13498634Y-17237531D02*
X13508158Y-17208960D01*
X13508158Y-17208960D02*
X13517682Y-17161341D01*
X13517682Y-17161341D02*
X13517682Y-17123246D01*
X13517682Y-17123246D02*
X13508158Y-17075627D01*
X13508158Y-17075627D02*
X13498634Y-17047055D01*
X13498634Y-17047055D02*
X13489111Y-17028008D01*
X13489111Y-17028008D02*
X13470063Y-16999436D01*
X13470063Y-16999436D02*
X13460539Y-16989912D01*
M02*
