M48
; DRILL file {KiCad 7.0.1} date Sun Jul 16 02:59:42 2023
; FORMAT={-:-/ absolute / metric / decimal}
; #@! TF.CreationDate,2023-07-16T02:59:42+02:00
; #@! TF.GenerationSoftware,Kicad,Pcbnew,7.0.1
; #@! TF.FileFunction,Plated,1,2,PTH
FMAT,2
METRIC
; #@! TA.AperFunction,Plated,PTH,ViaDrill
T1C0.300
; #@! TA.AperFunction,Plated,PTH,ComponentDrill
T2C0.750
; #@! TA.AperFunction,Plated,PTH,ComponentDrill
T3C1.000
%
G90
G05
T1
X93.07Y-50.37
X93.07Y-68.945
X94.07Y-68.945
X94.57Y-50.37
X95.07Y-67.945
X95.07Y-68.945
X95.57Y-48.32
X95.745Y-52.27
X95.92Y-77.395
X95.97Y-59.895
X95.97Y-62.969
X96.07Y-67.945
X96.845Y-52.42
X97.07Y-67.945
X97.42Y-77.395
X97.67Y-60.294
X98.07Y-67.945
X98.645Y-63.67
X98.92Y-77.395
X99.07Y-67.945
X99.595Y-60.295
X99.845Y-51.52
X100.07Y-67.945
X100.27Y-53.27
X100.42Y-77.395
X100.63Y-56.82
X100.63Y-58.32
X100.63Y-59.82
X100.63Y-61.32
X101.07Y-67.945
X101.92Y-71.395
X101.92Y-72.895
X101.92Y-74.395
X101.92Y-75.895
X101.92Y-77.395
X102.07Y-62.945
X102.07Y-63.945
X102.07Y-64.945
X102.07Y-65.945
X102.07Y-66.945
X102.07Y-67.945
X102.245Y-56.82
X102.72Y-53.37
X103.17Y-56.795
X104.245Y-53.32
X105.745Y-53.32
X105.92Y-55.045
X105.92Y-57.32
X105.97Y-59.595
X106.92Y-59.595
X107.245Y-53.32
X107.545Y-60.895
X107.545Y-62.395
X107.545Y-63.895
X107.545Y-65.395
X107.545Y-66.895
X107.545Y-68.395
X107.545Y-69.895
X107.545Y-71.395
X107.545Y-72.895
X107.545Y-74.395
X107.545Y-75.895
X107.72Y-54.895
X107.745Y-55.82
X107.895Y-59.595
X108.295Y-50.995
X108.87Y-59.595
X109.795Y-50.995
X111.295Y-50.995
X111.295Y-52.495
X112.645Y-65.945
X112.645Y-66.945
X112.645Y-67.945
X112.795Y-61.82
X113.245Y-54.895
X113.245Y-55.82
X113.27Y-51.32
X113.345Y-57.445
X113.37Y-58.545
X113.37Y-59.395
X113.395Y-71.395
X113.395Y-72.895
X113.395Y-74.395
X113.395Y-75.895
X113.395Y-77.395
X113.645Y-67.945
X113.795Y-61.82
X114.145Y-51.32
X114.52Y-52.17
X114.645Y-67.945
X114.795Y-61.82
X114.895Y-77.395
X115.645Y-64.945
X115.645Y-65.945
X115.645Y-66.945
X115.645Y-67.945
X115.745Y-57.47
X116.395Y-77.395
X116.745Y-57.47
X116.945Y-52.995
X117.645Y-57.945
X117.645Y-58.945
X117.645Y-59.945
X117.645Y-60.945
X117.645Y-61.945
X117.645Y-62.945
X117.645Y-63.945
X117.645Y-64.945
X117.645Y-65.945
X117.645Y-66.945
X117.645Y-67.945
X117.895Y-77.395
X117.945Y-52.995
X118.645Y-67.945
X118.945Y-52.995
X119.07Y-51.345
X119.645Y-67.945
X119.645Y-68.945
X119.945Y-51.345
X119.945Y-52.995
X120.645Y-68.945
X121.645Y-68.945
T2
X94.37Y-71.395
X94.37Y-73.395
X94.37Y-75.395
X94.37Y-77.395
X104.27Y-71.395
X104.27Y-73.395
X104.27Y-75.395
X104.27Y-77.395
X111.67Y-71.395
X111.67Y-73.395
X111.67Y-75.395
X111.67Y-77.395
X119.37Y-71.395
X119.37Y-73.395
X119.37Y-75.395
X119.37Y-77.395
T3
X93.415Y-54.37
X93.415Y-56.91
X93.415Y-59.45
X93.415Y-61.99
X93.415Y-64.53
X93.415Y-67.07
X103.605Y-49.29
X106.145Y-49.29
X108.685Y-49.29
X111.225Y-49.29
X121.415Y-54.37
X121.415Y-56.91
X121.415Y-59.45
X121.415Y-61.99
X121.415Y-64.53
X121.415Y-67.07
T0
M30
