G04 #@! TF.GenerationSoftware,KiCad,Pcbnew,7.0.1*
G04 #@! TF.CreationDate,2023-07-15T20:00:46+02:00*
G04 #@! TF.ProjectId,servo_level_shifter,73657276-6f5f-46c6-9576-656c5f736869,rev?*
G04 #@! TF.SameCoordinates,Original*
G04 #@! TF.FileFunction,Copper,L1,Top*
G04 #@! TF.FilePolarity,Positive*
%FSLAX46Y46*%
G04 Gerber Fmt 4.6, Leading zero omitted, Abs format (unit mm)*
G04 Created by KiCad (PCBNEW 7.0.1) date 2023-07-15 20:00:46*
%MOMM*%
%LPD*%
G01*
G04 APERTURE LIST*
G04 Aperture macros list*
%AMRoundRect*
0 Rectangle with rounded corners*
0 $1 Rounding radius*
0 $2 $3 $4 $5 $6 $7 $8 $9 X,Y pos of 4 corners*
0 Add a 4 corners polygon primitive as box body*
4,1,4,$2,$3,$4,$5,$6,$7,$8,$9,$2,$3,0*
0 Add four circle primitives for the rounded corners*
1,1,$1+$1,$2,$3*
1,1,$1+$1,$4,$5*
1,1,$1+$1,$6,$7*
1,1,$1+$1,$8,$9*
0 Add four rect primitives between the rounded corners*
20,1,$1+$1,$2,$3,$4,$5,0*
20,1,$1+$1,$4,$5,$6,$7,0*
20,1,$1+$1,$6,$7,$8,$9,0*
20,1,$1+$1,$8,$9,$2,$3,0*%
%AMFreePoly0*
4,1,19,0.000000,0.744911,0.071157,0.744911,0.207708,0.704816,0.327430,0.627875,0.420627,0.520320,0.479746,0.390866,0.500000,0.250000,0.500000,-0.250000,0.479746,-0.390866,0.420627,-0.520320,0.327430,-0.627875,0.207708,-0.704816,0.071157,-0.744911,0.000000,-0.744911,0.000000,-0.750000,-0.550000,-0.750000,-0.550000,0.750000,0.000000,0.750000,0.000000,0.744911,0.000000,0.744911,
$1*%
%AMFreePoly1*
4,1,19,0.550000,-0.750000,0.000000,-0.750000,0.000000,-0.744911,-0.071157,-0.744911,-0.207708,-0.704816,-0.327430,-0.627875,-0.420627,-0.520320,-0.479746,-0.390866,-0.500000,-0.250000,-0.500000,0.250000,-0.479746,0.390866,-0.420627,0.520320,-0.327430,0.627875,-0.207708,0.704816,-0.071157,0.744911,0.000000,0.744911,0.000000,0.750000,0.550000,0.750000,0.550000,-0.750000,0.550000,-0.750000,
$1*%
G04 Aperture macros list end*
G04 #@! TA.AperFunction,SMDPad,CuDef*
%ADD10FreePoly0,90.000000*%
G04 #@! TD*
G04 #@! TA.AperFunction,SMDPad,CuDef*
%ADD11R,1.500000X1.000000*%
G04 #@! TD*
G04 #@! TA.AperFunction,SMDPad,CuDef*
%ADD12FreePoly1,90.000000*%
G04 #@! TD*
G04 #@! TA.AperFunction,SMDPad,CuDef*
%ADD13FreePoly0,0.000000*%
G04 #@! TD*
G04 #@! TA.AperFunction,SMDPad,CuDef*
%ADD14R,1.000000X1.500000*%
G04 #@! TD*
G04 #@! TA.AperFunction,SMDPad,CuDef*
%ADD15FreePoly1,0.000000*%
G04 #@! TD*
G04 #@! TA.AperFunction,SMDPad,CuDef*
%ADD16RoundRect,0.225000X0.225000X0.250000X-0.225000X0.250000X-0.225000X-0.250000X0.225000X-0.250000X0*%
G04 #@! TD*
G04 #@! TA.AperFunction,ComponentPad*
%ADD17O,2.000000X2.000000*%
G04 #@! TD*
G04 #@! TA.AperFunction,ComponentPad*
%ADD18O,1.700000X1.700000*%
G04 #@! TD*
G04 #@! TA.AperFunction,ComponentPad*
%ADD19R,2.000000X2.000000*%
G04 #@! TD*
G04 #@! TA.AperFunction,SMDPad,CuDef*
%ADD20RoundRect,0.225000X0.250000X-0.225000X0.250000X0.225000X-0.250000X0.225000X-0.250000X-0.225000X0*%
G04 #@! TD*
G04 #@! TA.AperFunction,SMDPad,CuDef*
%ADD21RoundRect,0.225000X-0.225000X-0.250000X0.225000X-0.250000X0.225000X0.250000X-0.225000X0.250000X0*%
G04 #@! TD*
G04 #@! TA.AperFunction,ComponentPad*
%ADD22C,3.800000*%
G04 #@! TD*
G04 #@! TA.AperFunction,ComponentPad*
%ADD23R,3.800000X3.800000*%
G04 #@! TD*
G04 #@! TA.AperFunction,ComponentPad*
%ADD24O,1.950000X1.700000*%
G04 #@! TD*
G04 #@! TA.AperFunction,ComponentPad*
%ADD25RoundRect,0.250000X-0.725000X0.600000X-0.725000X-0.600000X0.725000X-0.600000X0.725000X0.600000X0*%
G04 #@! TD*
G04 #@! TA.AperFunction,SMDPad,CuDef*
%ADD26FreePoly0,270.000000*%
G04 #@! TD*
G04 #@! TA.AperFunction,SMDPad,CuDef*
%ADD27FreePoly1,270.000000*%
G04 #@! TD*
G04 #@! TA.AperFunction,SMDPad,CuDef*
%ADD28R,0.300000X1.400000*%
G04 #@! TD*
G04 #@! TA.AperFunction,SMDPad,CuDef*
%ADD29RoundRect,0.100000X0.637500X0.100000X-0.637500X0.100000X-0.637500X-0.100000X0.637500X-0.100000X0*%
G04 #@! TD*
G04 #@! TA.AperFunction,SMDPad,CuDef*
%ADD30RoundRect,0.125000X0.125000X-0.537500X0.125000X0.537500X-0.125000X0.537500X-0.125000X-0.537500X0*%
G04 #@! TD*
G04 #@! TA.AperFunction,SMDPad,CuDef*
%ADD31RoundRect,0.200000X-0.275000X0.200000X-0.275000X-0.200000X0.275000X-0.200000X0.275000X0.200000X0*%
G04 #@! TD*
G04 #@! TA.AperFunction,SMDPad,CuDef*
%ADD32RoundRect,0.200000X0.275000X-0.200000X0.275000X0.200000X-0.275000X0.200000X-0.275000X-0.200000X0*%
G04 #@! TD*
G04 #@! TA.AperFunction,SMDPad,CuDef*
%ADD33RoundRect,0.200000X0.200000X0.275000X-0.200000X0.275000X-0.200000X-0.275000X0.200000X-0.275000X0*%
G04 #@! TD*
G04 #@! TA.AperFunction,SMDPad,CuDef*
%ADD34RoundRect,0.249999X-0.450001X-1.425001X0.450001X-1.425001X0.450001X1.425001X-0.450001X1.425001X0*%
G04 #@! TD*
G04 #@! TA.AperFunction,ViaPad*
%ADD35C,0.700000*%
G04 #@! TD*
G04 #@! TA.AperFunction,Conductor*
%ADD36C,0.200000*%
G04 #@! TD*
G04 #@! TA.AperFunction,Conductor*
%ADD37C,0.500000*%
G04 #@! TD*
G04 #@! TA.AperFunction,Conductor*
%ADD38C,1.000000*%
G04 #@! TD*
G04 #@! TA.AperFunction,Conductor*
%ADD39C,0.300000*%
G04 #@! TD*
G04 #@! TA.AperFunction,Conductor*
%ADD40C,0.150000*%
G04 #@! TD*
G04 #@! TA.AperFunction,Conductor*
%ADD41C,2.000000*%
G04 #@! TD*
G04 #@! TA.AperFunction,Conductor*
%ADD42C,1.500000*%
G04 #@! TD*
G04 APERTURE END LIST*
D10*
X113580000Y-66430000D03*
D11*
X113580000Y-67730000D03*
D12*
X113580000Y-69030000D03*
D13*
X107155000Y-56230000D03*
D14*
X105855000Y-56230000D03*
D15*
X104555000Y-56230000D03*
D16*
X94205000Y-59705000D03*
X95755000Y-59705000D03*
D17*
X106565000Y-53195000D03*
X104025000Y-53195000D03*
D18*
X116755000Y-58275000D03*
X116755000Y-60815000D03*
X116755000Y-63355000D03*
X116755000Y-65895000D03*
X116755000Y-68435000D03*
X116755000Y-70975000D03*
X88755000Y-70975000D03*
X88755000Y-68435000D03*
X88755000Y-65895000D03*
X88755000Y-63355000D03*
X88755000Y-60815000D03*
X88755000Y-58275000D03*
D17*
X101485000Y-53195000D03*
D19*
X98945000Y-53195000D03*
D20*
X105980000Y-66405000D03*
X105980000Y-67955000D03*
D21*
X102705000Y-63830000D03*
X101155000Y-63830000D03*
D16*
X105880000Y-63805000D03*
X107430000Y-63805000D03*
D22*
X111855000Y-54505000D03*
D23*
X111855000Y-59505000D03*
D24*
X91305000Y-80705000D03*
X91305000Y-78205000D03*
D25*
X91305000Y-75705000D03*
D24*
X99305000Y-80705000D03*
X99305000Y-78205000D03*
D25*
X99305000Y-75705000D03*
D24*
X107255000Y-80705000D03*
X107255000Y-78205000D03*
D25*
X107255000Y-75705000D03*
X115255000Y-75705000D03*
D24*
X115255000Y-78205000D03*
X115255000Y-80705000D03*
D26*
X91980000Y-61155000D03*
D11*
X91980000Y-59855000D03*
D27*
X91980000Y-58555000D03*
D13*
X94280000Y-71405000D03*
D14*
X92980000Y-71405000D03*
D15*
X91680000Y-71405000D03*
D10*
X91937500Y-66455000D03*
D11*
X91937500Y-67755000D03*
D12*
X91937500Y-69055000D03*
D13*
X113855000Y-71405000D03*
D14*
X112555000Y-71405000D03*
D15*
X111255000Y-71405000D03*
D28*
X97705000Y-65905000D03*
X97205000Y-65905000D03*
X96705000Y-65905000D03*
X96205000Y-65905000D03*
X95705000Y-65905000D03*
X95705000Y-61505000D03*
X96205000Y-61505000D03*
X96705000Y-61505000D03*
X97205000Y-61505000D03*
X97705000Y-61505000D03*
D29*
X101442500Y-62180000D03*
X101442500Y-61530000D03*
X101442500Y-60880000D03*
X101442500Y-60230000D03*
X101442500Y-59580000D03*
X101442500Y-58930000D03*
X101442500Y-58280000D03*
X107167500Y-58280000D03*
X107167500Y-58930000D03*
X107167500Y-59580000D03*
X107167500Y-60230000D03*
X107167500Y-60880000D03*
X107167500Y-61530000D03*
X107167500Y-62180000D03*
D30*
X102430000Y-67792500D03*
X103080000Y-67792500D03*
X103730000Y-67792500D03*
X104380000Y-67792500D03*
X104380000Y-65517500D03*
X103730000Y-65517500D03*
X103080000Y-65517500D03*
X102430000Y-65517500D03*
D31*
X91405000Y-63055000D03*
X91405000Y-64705000D03*
X92955000Y-64705000D03*
X92955000Y-63055000D03*
D32*
X99255000Y-56580000D03*
X99255000Y-58230000D03*
D31*
X97705000Y-58230000D03*
X97705000Y-56580000D03*
D32*
X94555000Y-58230000D03*
X94555000Y-56580000D03*
D31*
X96155000Y-56580000D03*
X96155000Y-58230000D03*
D32*
X99355000Y-68055000D03*
X99355000Y-66405000D03*
X100905000Y-66405000D03*
X100905000Y-68055000D03*
D33*
X101105000Y-56630000D03*
X102755000Y-56630000D03*
D34*
X105805000Y-70705000D03*
X99705000Y-70705000D03*
D35*
X94930000Y-73405000D03*
X94930000Y-77405000D03*
X94930000Y-75405000D03*
X116930000Y-81410357D03*
X116930000Y-79410357D03*
X116930000Y-77410357D03*
X116930000Y-75410357D03*
X116930000Y-73410357D03*
X116930000Y-55410357D03*
X116930000Y-53410357D03*
X114930000Y-73410357D03*
X114930000Y-55410357D03*
X114930000Y-53410357D03*
X110930000Y-77410357D03*
X110930000Y-75410357D03*
X110930000Y-73410357D03*
X108930000Y-69410357D03*
X104930000Y-77410357D03*
X102930000Y-71410357D03*
X100930000Y-77410357D03*
X100930000Y-75410357D03*
X100930000Y-73410357D03*
X98930000Y-73410357D03*
X96930000Y-73410357D03*
X96930000Y-55410357D03*
X96930000Y-53410357D03*
X94930000Y-55410357D03*
X94930000Y-53410357D03*
X92930000Y-53410357D03*
X90930000Y-73410357D03*
X90930000Y-57410357D03*
X90930000Y-55410357D03*
X90930000Y-53410357D03*
X88930000Y-81410357D03*
X88930000Y-79410357D03*
X88930000Y-77410357D03*
X88930000Y-75410357D03*
X88930000Y-73410357D03*
X88930000Y-55410357D03*
X88930000Y-53410357D03*
X97605000Y-70205000D03*
X97605000Y-71205000D03*
X98505000Y-71705000D03*
X98505000Y-69705000D03*
X98505000Y-70705000D03*
X104980000Y-57555000D03*
X106705000Y-57530000D03*
X100130000Y-64280000D03*
X96330000Y-68080000D03*
X97854500Y-60380000D03*
X103729500Y-68855000D03*
X102452590Y-57647471D03*
X103155000Y-60080000D03*
X105830000Y-57530000D03*
X100055000Y-59955000D03*
X100080000Y-61005000D03*
X93055000Y-69055000D03*
X91680000Y-70305000D03*
X111255000Y-70330000D03*
X114704500Y-69030000D03*
X105855000Y-61180000D03*
X94280000Y-70130000D03*
X106055000Y-60230000D03*
X93755500Y-66430000D03*
X103885864Y-61086365D03*
X104555000Y-58905000D03*
X108905000Y-58255000D03*
X90455000Y-64705000D03*
X105130000Y-66380000D03*
X112505000Y-67705000D03*
X109555000Y-72805000D03*
X99255000Y-55655000D03*
X93530000Y-56585000D03*
X94205000Y-60710000D03*
X103655000Y-63830000D03*
X104905000Y-63805000D03*
D36*
X109555000Y-77330000D02*
X108680000Y-78205000D01*
X108680000Y-78205000D02*
X107255000Y-78205000D01*
X109555000Y-72805000D02*
X109555000Y-77330000D01*
X91980000Y-58555000D02*
X93080000Y-58555000D01*
X91980000Y-58555000D02*
X91980000Y-57755000D01*
X113405000Y-78205000D02*
X115255000Y-78205000D01*
X112555000Y-77355000D02*
X113405000Y-78205000D01*
X112555000Y-71405000D02*
X112555000Y-77355000D01*
D37*
X104080000Y-58430000D02*
X104555000Y-58905000D01*
X104080000Y-56705000D02*
X104080000Y-58430000D01*
D38*
X104555000Y-56230000D02*
X104555000Y-54680000D01*
X107155000Y-56230000D02*
X107730000Y-56230000D01*
D37*
X104555000Y-56230000D02*
X104080000Y-56705000D01*
D36*
X102180000Y-60880000D02*
X101442500Y-60880000D01*
X102480000Y-60580000D02*
X102180000Y-60880000D01*
X102480000Y-57674881D02*
X102480000Y-60580000D01*
X102452590Y-57647471D02*
X102480000Y-57674881D01*
D37*
X105723629Y-62180000D02*
X107167500Y-62180000D01*
X104855000Y-61311371D02*
X105723629Y-62180000D01*
X103280000Y-59055000D02*
X104855000Y-60630000D01*
X103280000Y-57155000D02*
X103280000Y-59055000D01*
X104855000Y-60630000D02*
X104855000Y-61311371D01*
X102755000Y-56630000D02*
X103280000Y-57155000D01*
D36*
X102095685Y-61530000D02*
X101442500Y-61530000D01*
X103155000Y-60470685D02*
X102095685Y-61530000D01*
X103155000Y-60080000D02*
X103155000Y-60470685D01*
X100130000Y-63030000D02*
X98930000Y-61830000D01*
X100130000Y-64280000D02*
X100130000Y-63030000D01*
X96355000Y-68055000D02*
X96330000Y-68080000D01*
X99355000Y-68055000D02*
X96355000Y-68055000D01*
D39*
X97705000Y-60529500D02*
X97854500Y-60380000D01*
X97705000Y-61505000D02*
X97705000Y-60529500D01*
D37*
X98930000Y-59949239D02*
X100180000Y-58699239D01*
X98930000Y-61830000D02*
X98930000Y-59949239D01*
X97830000Y-62930000D02*
X98930000Y-61830000D01*
X96530000Y-62930000D02*
X97830000Y-62930000D01*
X100180000Y-58699239D02*
X100180000Y-57355000D01*
D39*
X103080000Y-64205000D02*
X102705000Y-63830000D01*
X103080000Y-65517500D02*
X103080000Y-64205000D01*
X102430000Y-65517500D02*
X103080000Y-65517500D01*
X103730000Y-68854500D02*
X103729500Y-68855000D01*
X103730000Y-67792500D02*
X103730000Y-68854500D01*
D40*
X103645685Y-66830000D02*
X101330000Y-66830000D01*
X104380000Y-65517500D02*
X104380000Y-66095685D01*
X104380000Y-66095685D02*
X103645685Y-66830000D01*
X101330000Y-66830000D02*
X100905000Y-66405000D01*
D36*
X111255000Y-70330000D02*
X111255000Y-71405000D01*
X114704500Y-69030000D02*
X113580000Y-69030000D01*
D39*
X108880000Y-58280000D02*
X108905000Y-58255000D01*
X107167500Y-58280000D02*
X108880000Y-58280000D01*
D36*
X105785761Y-59580000D02*
X107167500Y-59580000D01*
X105405000Y-60730000D02*
X105405000Y-59960761D01*
X105855000Y-61180000D02*
X105405000Y-60730000D01*
X105405000Y-59960761D02*
X105785761Y-59580000D01*
D39*
X102792229Y-62180000D02*
X103249031Y-61723198D01*
X101442500Y-62180000D02*
X102792229Y-62180000D01*
D37*
X103885864Y-61086365D02*
X103249031Y-61723198D01*
D36*
X100430000Y-59580000D02*
X100055000Y-59955000D01*
X101442500Y-59580000D02*
X100430000Y-59580000D01*
X100789315Y-60230000D02*
X101442500Y-60230000D01*
X100080000Y-61005000D02*
X100080000Y-60939315D01*
X100080000Y-60939315D02*
X100789315Y-60230000D01*
X93755500Y-66430000D02*
X93730500Y-66455000D01*
X93730500Y-66455000D02*
X91937500Y-66455000D01*
X94405000Y-65405000D02*
X93705000Y-64705000D01*
X94405000Y-66655000D02*
X94405000Y-65405000D01*
X93705000Y-64705000D02*
X92955000Y-64705000D01*
X95055000Y-67305000D02*
X94405000Y-66655000D01*
X97305000Y-67305000D02*
X95055000Y-67305000D01*
X97705000Y-65905000D02*
X97705000Y-66905000D01*
X97705000Y-66905000D02*
X97305000Y-67305000D01*
X91937500Y-69055000D02*
X93055000Y-69055000D01*
X91680000Y-71405000D02*
X91680000Y-70305000D01*
X114750000Y-66430000D02*
X116755000Y-68435000D01*
X113580000Y-66430000D02*
X114750000Y-66430000D01*
X106055000Y-60230000D02*
X107167500Y-60230000D01*
X94280000Y-71405000D02*
X94280000Y-70130000D01*
D39*
X97705000Y-56580000D02*
X98505000Y-57380000D01*
X100155000Y-57380000D02*
X100180000Y-57355000D01*
D37*
X100180000Y-57355000D02*
X100180000Y-54805000D01*
D39*
X98505000Y-57380000D02*
X100155000Y-57380000D01*
D36*
X92830000Y-59855000D02*
X91980000Y-59855000D01*
X93305000Y-60905000D02*
X93305000Y-60330000D01*
X93305000Y-60330000D02*
X92830000Y-59855000D01*
X93905000Y-61505000D02*
X93305000Y-60905000D01*
X95705000Y-61505000D02*
X93905000Y-61505000D01*
D39*
X96405000Y-63055000D02*
X96530000Y-62930000D01*
X92955000Y-63055000D02*
X96405000Y-63055000D01*
X91980000Y-62480000D02*
X91405000Y-63055000D01*
X91980000Y-61155000D02*
X91980000Y-62480000D01*
X91405000Y-63055000D02*
X92955000Y-63055000D01*
D36*
X91880000Y-63880000D02*
X91405000Y-64355000D01*
X95555000Y-63880000D02*
X91880000Y-63880000D01*
X96205000Y-64530000D02*
X95555000Y-63880000D01*
X91405000Y-64355000D02*
X91405000Y-64705000D01*
X96205000Y-65905000D02*
X96205000Y-64530000D01*
X88755000Y-67630000D02*
X88755000Y-68435000D01*
X92130000Y-65530000D02*
X90855000Y-65530000D01*
X92955000Y-64705000D02*
X92130000Y-65530000D01*
X90855000Y-65530000D02*
X88755000Y-67630000D01*
X91405000Y-64705000D02*
X90455000Y-64705000D01*
X100905000Y-68055000D02*
X99355000Y-68055000D01*
D37*
X100180000Y-54805000D02*
X101485000Y-53500000D01*
X101485000Y-53500000D02*
X101485000Y-53195000D01*
D39*
X96255000Y-62655000D02*
X96530000Y-62930000D01*
X96205000Y-62605000D02*
X96255000Y-62655000D01*
X96205000Y-61505000D02*
X96205000Y-62605000D01*
D36*
X97705000Y-58230000D02*
X99255000Y-58230000D01*
X97205000Y-58730000D02*
X97705000Y-58230000D01*
X96155000Y-56580000D02*
X97705000Y-56580000D01*
X97205000Y-61505000D02*
X97205000Y-58730000D01*
D37*
X107167500Y-63542500D02*
X107167500Y-62730000D01*
X107430000Y-63805000D02*
X107167500Y-63542500D01*
D39*
X107167500Y-62180000D02*
X107167500Y-62730000D01*
D37*
X106980000Y-64255000D02*
X107430000Y-63805000D01*
X106980000Y-67255000D02*
X106980000Y-64255000D01*
X106280000Y-67955000D02*
X106980000Y-67255000D01*
X105980000Y-67955000D02*
X106280000Y-67955000D01*
X105817500Y-67792500D02*
X104430000Y-67792500D01*
X105980000Y-67955000D02*
X105817500Y-67792500D01*
D36*
X97205000Y-65005000D02*
X97205000Y-65905000D01*
X97580000Y-64630000D02*
X97205000Y-65005000D01*
X98155000Y-64630000D02*
X97580000Y-64630000D01*
X98455000Y-64930000D02*
X98155000Y-64630000D01*
X98455000Y-66805000D02*
X98455000Y-64930000D01*
X98880000Y-67230000D02*
X98455000Y-66805000D01*
X100080000Y-67230000D02*
X98880000Y-67230000D01*
X100905000Y-66405000D02*
X100080000Y-67230000D01*
D40*
X100155000Y-65605000D02*
X99355000Y-66405000D01*
X102105000Y-66455000D02*
X101255000Y-65605000D01*
X101255000Y-65605000D02*
X100155000Y-65605000D01*
X103370685Y-66455000D02*
X102105000Y-66455000D01*
X103730000Y-66095685D02*
X103370685Y-66455000D01*
X103730000Y-65517500D02*
X103730000Y-66095685D01*
D36*
X96705000Y-64580000D02*
X96705000Y-65905000D01*
X97205000Y-64080000D02*
X96705000Y-64580000D01*
X99355000Y-64530000D02*
X98905000Y-64080000D01*
X98905000Y-64080000D02*
X97205000Y-64080000D01*
X99355000Y-66405000D02*
X99355000Y-64530000D01*
D40*
X100905000Y-66705000D02*
X100905000Y-66405000D01*
D41*
X102830000Y-75980000D02*
X105142500Y-73667500D01*
X102830000Y-80705000D02*
X102830000Y-75980000D01*
D42*
X105805000Y-73005000D02*
X105142500Y-73667500D01*
X105805000Y-70705000D02*
X105805000Y-73005000D01*
D41*
X102830000Y-80705000D02*
X99305000Y-80705000D01*
X107255000Y-80705000D02*
X102830000Y-80705000D01*
D36*
X112530000Y-67730000D02*
X112505000Y-67705000D01*
X113580000Y-67730000D02*
X112530000Y-67730000D01*
X113855000Y-70605000D02*
X113855000Y-71405000D01*
X113355000Y-70105000D02*
X113855000Y-70605000D01*
X111830000Y-69605000D02*
X112330000Y-70105000D01*
X109580000Y-65130000D02*
X111380000Y-65130000D01*
X111830000Y-65580000D02*
X111830000Y-69605000D01*
X111380000Y-65130000D02*
X111830000Y-65580000D01*
X108205000Y-63755000D02*
X109580000Y-65130000D01*
X108205000Y-61914315D02*
X108205000Y-63755000D01*
X107820685Y-61530000D02*
X108205000Y-61914315D01*
X112330000Y-70105000D02*
X113355000Y-70105000D01*
X107167500Y-61530000D02*
X107820685Y-61530000D01*
X96155000Y-70655000D02*
X93255000Y-67755000D01*
X93255000Y-67755000D02*
X91937500Y-67755000D01*
X96155000Y-75055000D02*
X96155000Y-70655000D01*
X99305000Y-78205000D02*
X96155000Y-75055000D01*
X92980000Y-76530000D02*
X92980000Y-71405000D01*
X91305000Y-78205000D02*
X92980000Y-76530000D01*
D41*
X110655000Y-80705000D02*
X107255000Y-80705000D01*
X115255000Y-80705000D02*
X110655000Y-80705000D01*
X99305000Y-80705000D02*
X91305000Y-80705000D01*
D42*
X111855000Y-54505000D02*
X110130000Y-56230000D01*
X110130000Y-56230000D02*
X107730000Y-56230000D01*
X104025000Y-53195000D02*
X104555000Y-53725000D01*
X104555000Y-53725000D02*
X104555000Y-54680000D01*
D41*
X104025000Y-53195000D02*
X106565000Y-53195000D01*
D36*
X101442500Y-56967500D02*
X101105000Y-56630000D01*
X101442500Y-58280000D02*
X101442500Y-56967500D01*
D37*
X102755000Y-56630000D02*
X102755000Y-54465000D01*
X102755000Y-54465000D02*
X101485000Y-53195000D01*
D36*
X96155000Y-58230000D02*
X94555000Y-58230000D01*
X96705000Y-61505000D02*
X96705000Y-58780000D01*
X96705000Y-58780000D02*
X96155000Y-58230000D01*
D39*
X96205000Y-60155000D02*
X95755000Y-59705000D01*
X96205000Y-61505000D02*
X96205000Y-60155000D01*
D36*
X114865000Y-64005000D02*
X116755000Y-65895000D01*
X109055000Y-63130000D02*
X109930000Y-64005000D01*
X109055000Y-60955000D02*
X109055000Y-63130000D01*
X108330000Y-60230000D02*
X109055000Y-60955000D01*
X109930000Y-64005000D02*
X114865000Y-64005000D01*
X107167500Y-60230000D02*
X108330000Y-60230000D01*
X108605000Y-63480000D02*
X108605000Y-61355000D01*
X109680000Y-64555000D02*
X108605000Y-63480000D01*
X113580000Y-65230000D02*
X112905000Y-64555000D01*
X112905000Y-64555000D02*
X109680000Y-64555000D01*
X113580000Y-66430000D02*
X113580000Y-65230000D01*
X108605000Y-61355000D02*
X108130000Y-60880000D01*
X108130000Y-60880000D02*
X107167500Y-60880000D01*
X110080000Y-63355000D02*
X116755000Y-63355000D01*
X109530000Y-62805000D02*
X110080000Y-63355000D01*
X108480000Y-59580000D02*
X109530000Y-60630000D01*
X109530000Y-60630000D02*
X109530000Y-62805000D01*
X107167500Y-59580000D02*
X108480000Y-59580000D01*
X116755000Y-70975000D02*
X114285000Y-70975000D01*
X114285000Y-70975000D02*
X113855000Y-71405000D01*
D39*
X101442500Y-63542500D02*
X101155000Y-63830000D01*
X101442500Y-62180000D02*
X101442500Y-63542500D01*
D36*
X101755000Y-70705000D02*
X99705000Y-70705000D01*
X102430000Y-70030000D02*
X101755000Y-70705000D01*
X102430000Y-67792500D02*
X102430000Y-70030000D01*
X103780000Y-70705000D02*
X105805000Y-70705000D01*
X103080000Y-67792500D02*
X103080000Y-70005000D01*
X103080000Y-70005000D02*
X103780000Y-70705000D01*
G04 #@! TA.AperFunction,Conductor*
G36*
X90874831Y-66094980D02*
G01*
X90930523Y-66128023D01*
X90961963Y-66184636D01*
X90960576Y-66249378D01*
X90942438Y-66311150D01*
X90932092Y-66383112D01*
X90932092Y-67005002D01*
X90952144Y-67105809D01*
X90952144Y-67154192D01*
X90937409Y-67228271D01*
X90937000Y-67230326D01*
X90937000Y-68279674D01*
X90950529Y-68347689D01*
X90952144Y-68355805D01*
X90952144Y-68404188D01*
X90932092Y-68504998D01*
X90932092Y-69126888D01*
X90942438Y-69198847D01*
X90982944Y-69336799D01*
X90992554Y-69357841D01*
X91013144Y-69402927D01*
X91090876Y-69523881D01*
X91138484Y-69578824D01*
X91169229Y-69605464D01*
X91253847Y-69678786D01*
X91253030Y-69679728D01*
X91286310Y-69714734D01*
X91302632Y-69771250D01*
X91291072Y-69828928D01*
X91254231Y-69874788D01*
X91251719Y-69876715D01*
X91155463Y-70002159D01*
X91094956Y-70148237D01*
X91074317Y-70305000D01*
X91094956Y-70461762D01*
X91115038Y-70510245D01*
X91118087Y-70518405D01*
X91127399Y-70546278D01*
X91131420Y-70609692D01*
X91103503Y-70666771D01*
X91062024Y-70714641D01*
X91022718Y-70775802D01*
X90962994Y-70906579D01*
X90942511Y-70976337D01*
X90929486Y-71066934D01*
X90922216Y-71117500D01*
X90922050Y-71118652D01*
X90922050Y-71191348D01*
X90923330Y-71200251D01*
X90924592Y-71217898D01*
X90924592Y-71592102D01*
X90923330Y-71609749D01*
X90922050Y-71618652D01*
X90922050Y-71691348D01*
X90942511Y-71833662D01*
X90962994Y-71903420D01*
X91022718Y-72034197D01*
X91062024Y-72095358D01*
X91094874Y-72133269D01*
X91156176Y-72204016D01*
X91211119Y-72251624D01*
X91332073Y-72329356D01*
X91398200Y-72359555D01*
X91536155Y-72400062D01*
X91608111Y-72410408D01*
X92229999Y-72410408D01*
X92230000Y-72410408D01*
X92300254Y-72396433D01*
X92360729Y-72399478D01*
X92412554Y-72430800D01*
X92444313Y-72462872D01*
X92453025Y-72472654D01*
X92476630Y-72502159D01*
X92510564Y-72544576D01*
X92516699Y-72552940D01*
X92580750Y-72648383D01*
X92585145Y-72655431D01*
X92612858Y-72703380D01*
X92629500Y-72765430D01*
X92629500Y-74371406D01*
X92612434Y-74434185D01*
X92565932Y-74479683D01*
X92502796Y-74495377D01*
X92440404Y-74476945D01*
X92349122Y-74420642D01*
X92182696Y-74365493D01*
X92079979Y-74355000D01*
X91555000Y-74355000D01*
X91555000Y-75831000D01*
X91538387Y-75893000D01*
X91493000Y-75938387D01*
X91431000Y-75955000D01*
X89830001Y-75955000D01*
X89830001Y-76354979D01*
X89840493Y-76457695D01*
X89895642Y-76624122D01*
X89987683Y-76773345D01*
X90111654Y-76897316D01*
X90260877Y-76989357D01*
X90427303Y-77044506D01*
X90518673Y-77053840D01*
X90573661Y-77073238D01*
X90613704Y-77115623D01*
X90629947Y-77171624D01*
X90618799Y-77228857D01*
X90582725Y-77274668D01*
X90417114Y-77404908D01*
X90279479Y-77563745D01*
X90174396Y-77745754D01*
X90105655Y-77944366D01*
X90090803Y-78047670D01*
X90075746Y-78152398D01*
X90076185Y-78161604D01*
X90085746Y-78362330D01*
X90135297Y-78566580D01*
X90222602Y-78757752D01*
X90315170Y-78887744D01*
X90344514Y-78928952D01*
X90496622Y-79073986D01*
X90568964Y-79120478D01*
X90673425Y-79187612D01*
X90712580Y-79203287D01*
X90868543Y-79265725D01*
X90908147Y-79273358D01*
X90967074Y-79302450D01*
X91002859Y-79357569D01*
X91005450Y-79423235D01*
X90974120Y-79481003D01*
X90917669Y-79514648D01*
X90863829Y-79529507D01*
X90661027Y-79627170D01*
X90478925Y-79759475D01*
X90323365Y-79922178D01*
X90199365Y-80110031D01*
X90110896Y-80317012D01*
X90060809Y-80536462D01*
X90050709Y-80761328D01*
X90080925Y-80984388D01*
X90116211Y-81092988D01*
X90150483Y-81198464D01*
X90257148Y-81396681D01*
X90397492Y-81572666D01*
X90567004Y-81720765D01*
X90567006Y-81720766D01*
X90760237Y-81836216D01*
X90910847Y-81892740D01*
X90970976Y-81915307D01*
X91192453Y-81955500D01*
X99192453Y-81955500D01*
X99361155Y-81955500D01*
X102717453Y-81955500D01*
X102799161Y-81955500D01*
X102804723Y-81955624D01*
X102826361Y-81956596D01*
X102886328Y-81959290D01*
X102886328Y-81959289D01*
X102886330Y-81959290D01*
X102906026Y-81956621D01*
X102922671Y-81955500D01*
X115311153Y-81955500D01*
X115311155Y-81955500D01*
X115479188Y-81940377D01*
X115696170Y-81880493D01*
X115898973Y-81782829D01*
X116081078Y-81650522D01*
X116236632Y-81487825D01*
X116360635Y-81299968D01*
X116449103Y-81092988D01*
X116499191Y-80873537D01*
X116509290Y-80648670D01*
X116479075Y-80425613D01*
X116409517Y-80211536D01*
X116302852Y-80013319D01*
X116162508Y-79837334D01*
X115992996Y-79689235D01*
X115992993Y-79689233D01*
X115799762Y-79573783D01*
X115631519Y-79510641D01*
X115581244Y-79475598D01*
X115553891Y-79420758D01*
X115556140Y-79359516D01*
X115587444Y-79306831D01*
X115640153Y-79275572D01*
X115790875Y-79231316D01*
X115977682Y-79135011D01*
X116142886Y-79005092D01*
X116280519Y-78846256D01*
X116385604Y-78664244D01*
X116454344Y-78465633D01*
X116484254Y-78257602D01*
X116474254Y-78047670D01*
X116424704Y-77843424D01*
X116420072Y-77833281D01*
X116337397Y-77652247D01*
X116215487Y-77481050D01*
X116215486Y-77481048D01*
X116063378Y-77336014D01*
X116022620Y-77309820D01*
X115979713Y-77282245D01*
X115938284Y-77238017D01*
X115922762Y-77179437D01*
X115936855Y-77120497D01*
X115977197Y-77075275D01*
X116034152Y-77054572D01*
X116132695Y-77044506D01*
X116299122Y-76989357D01*
X116448345Y-76897316D01*
X116572316Y-76773345D01*
X116664357Y-76624122D01*
X116719506Y-76457696D01*
X116730000Y-76354979D01*
X116730000Y-75955000D01*
X113780001Y-75955000D01*
X113780001Y-76354979D01*
X113790493Y-76457695D01*
X113845642Y-76624122D01*
X113937683Y-76773345D01*
X114061654Y-76897316D01*
X114210877Y-76989357D01*
X114377303Y-77044506D01*
X114468673Y-77053840D01*
X114523661Y-77073238D01*
X114563704Y-77115623D01*
X114579947Y-77171624D01*
X114568799Y-77228857D01*
X114532725Y-77274668D01*
X114367113Y-77404909D01*
X114290549Y-77493267D01*
X114265298Y-77515451D01*
X114133157Y-77602951D01*
X114120017Y-77610538D01*
X113889604Y-77725399D01*
X113873654Y-77732008D01*
X113651514Y-77806387D01*
X113633060Y-77811026D01*
X113588406Y-77818668D01*
X113529904Y-77814612D01*
X113479808Y-77784126D01*
X112941819Y-77246137D01*
X112914939Y-77205909D01*
X112905500Y-77158456D01*
X112905500Y-75455000D01*
X113780000Y-75455000D01*
X115005000Y-75455000D01*
X115005000Y-74355001D01*
X114480021Y-74355001D01*
X114377304Y-74365493D01*
X114210877Y-74420642D01*
X114061654Y-74512683D01*
X113937683Y-74636654D01*
X113845642Y-74785877D01*
X113790493Y-74952303D01*
X113780000Y-75055021D01*
X113780000Y-75455000D01*
X112905500Y-75455000D01*
X112905500Y-74355000D01*
X115505000Y-74355000D01*
X115505000Y-75455000D01*
X116729999Y-75455000D01*
X116729999Y-75055021D01*
X116719506Y-74952304D01*
X116664357Y-74785877D01*
X116572316Y-74636654D01*
X116448345Y-74512683D01*
X116299122Y-74420642D01*
X116132696Y-74365493D01*
X116029979Y-74355000D01*
X115505000Y-74355000D01*
X112905500Y-74355000D01*
X112905500Y-72765428D01*
X112922139Y-72703382D01*
X112949866Y-72655405D01*
X112954234Y-72648402D01*
X113018304Y-72552930D01*
X113024427Y-72544584D01*
X113081969Y-72472657D01*
X113090682Y-72462875D01*
X113090685Y-72462872D01*
X113122444Y-72430799D01*
X113174266Y-72399478D01*
X113234744Y-72396433D01*
X113252983Y-72400061D01*
X113304999Y-72410408D01*
X113305000Y-72410408D01*
X113926888Y-72410408D01*
X113926889Y-72410408D01*
X113998845Y-72400062D01*
X114136800Y-72359555D01*
X114202927Y-72329356D01*
X114323881Y-72251624D01*
X114378824Y-72204016D01*
X114472978Y-72095355D01*
X114512279Y-72034201D01*
X114572007Y-71903416D01*
X114592488Y-71833664D01*
X114612950Y-71691349D01*
X114612950Y-71618651D01*
X114611669Y-71609747D01*
X114610408Y-71592102D01*
X114610408Y-71449500D01*
X114627021Y-71387500D01*
X114672408Y-71342113D01*
X114734408Y-71325500D01*
X115002569Y-71325500D01*
X115024554Y-71328797D01*
X115024568Y-71328682D01*
X115132530Y-71341252D01*
X115333732Y-71364679D01*
X115372126Y-71375620D01*
X115440652Y-71407824D01*
X115514226Y-71442400D01*
X115540503Y-71459061D01*
X115697634Y-71588985D01*
X115699753Y-71590717D01*
X115926462Y-71774117D01*
X115945592Y-71788174D01*
X115947401Y-71789378D01*
X115967763Y-71801605D01*
X116209335Y-71931776D01*
X116215752Y-71935487D01*
X116262363Y-71964348D01*
X116281539Y-71971777D01*
X116295556Y-71978238D01*
X116297126Y-71979084D01*
X116371764Y-72006749D01*
X116371712Y-72006887D01*
X116373483Y-72007395D01*
X116452544Y-72038024D01*
X116653024Y-72075500D01*
X116856974Y-72075500D01*
X116856976Y-72075500D01*
X117057456Y-72038024D01*
X117247637Y-71964348D01*
X117421041Y-71856981D01*
X117571764Y-71719579D01*
X117694673Y-71556821D01*
X117694673Y-71556819D01*
X117694675Y-71556818D01*
X117744500Y-71456756D01*
X117788285Y-71407824D01*
X117850918Y-71388112D01*
X117914835Y-71403145D01*
X117962115Y-71448709D01*
X117979500Y-71512027D01*
X117979500Y-81850572D01*
X117979184Y-81859418D01*
X117962834Y-82088017D01*
X117960316Y-82105529D01*
X117912543Y-82325137D01*
X117907559Y-82342112D01*
X117829019Y-82552688D01*
X117821669Y-82568782D01*
X117713959Y-82766036D01*
X117704394Y-82780919D01*
X117569710Y-82960836D01*
X117558124Y-82974207D01*
X117399207Y-83133124D01*
X117385836Y-83144710D01*
X117205919Y-83279394D01*
X117191036Y-83288959D01*
X116993782Y-83396669D01*
X116977688Y-83404019D01*
X116767112Y-83482559D01*
X116750137Y-83487543D01*
X116530529Y-83535316D01*
X116513017Y-83537834D01*
X116284418Y-83554184D01*
X116275572Y-83554500D01*
X89284450Y-83554500D01*
X89275600Y-83554184D01*
X89248507Y-83552245D01*
X89046995Y-83537823D01*
X89029484Y-83535304D01*
X88809877Y-83487523D01*
X88792909Y-83482540D01*
X88582316Y-83403986D01*
X88566253Y-83396649D01*
X88368983Y-83288928D01*
X88354114Y-83279372D01*
X88174186Y-83144677D01*
X88160823Y-83133097D01*
X88001902Y-82974176D01*
X87990323Y-82960814D01*
X87855625Y-82780882D01*
X87846073Y-82766020D01*
X87738347Y-82568740D01*
X87731015Y-82552688D01*
X87652455Y-82342081D01*
X87647476Y-82325122D01*
X87635577Y-82270435D01*
X87599695Y-82105515D01*
X87597176Y-82088003D01*
X87580816Y-81859401D01*
X87580500Y-81850550D01*
X87580500Y-75455000D01*
X89830000Y-75455000D01*
X91055000Y-75455000D01*
X91055000Y-74355001D01*
X90530021Y-74355001D01*
X90427304Y-74365493D01*
X90260877Y-74420642D01*
X90111654Y-74512683D01*
X89987683Y-74636654D01*
X89895642Y-74785877D01*
X89840493Y-74952303D01*
X89830000Y-75055021D01*
X89830000Y-75455000D01*
X87580500Y-75455000D01*
X87580500Y-71612441D01*
X87597885Y-71549123D01*
X87645165Y-71503559D01*
X87709082Y-71488526D01*
X87771715Y-71508239D01*
X87807554Y-71548290D01*
X87808402Y-71547651D01*
X87938236Y-71719580D01*
X88088958Y-71856981D01*
X88212601Y-71933537D01*
X88262363Y-71964348D01*
X88452544Y-72038024D01*
X88653024Y-72075500D01*
X88856974Y-72075500D01*
X88856976Y-72075500D01*
X89057456Y-72038024D01*
X89247637Y-71964348D01*
X89421041Y-71856981D01*
X89571764Y-71719579D01*
X89694673Y-71556821D01*
X89694673Y-71556819D01*
X89694675Y-71556818D01*
X89748506Y-71448709D01*
X89785582Y-71374250D01*
X89841397Y-71178083D01*
X89860215Y-70975000D01*
X89841397Y-70771917D01*
X89839105Y-70763863D01*
X89818473Y-70691347D01*
X89785582Y-70575750D01*
X89774555Y-70553605D01*
X89694675Y-70393181D01*
X89571763Y-70230419D01*
X89421041Y-70093018D01*
X89247638Y-69985652D01*
X89057457Y-69911976D01*
X88953546Y-69892552D01*
X88856976Y-69874500D01*
X88653024Y-69874500D01*
X88556454Y-69892552D01*
X88452542Y-69911976D01*
X88262361Y-69985652D01*
X88088958Y-70093018D01*
X87938236Y-70230419D01*
X87808402Y-70402349D01*
X87807554Y-70401709D01*
X87771715Y-70441761D01*
X87709082Y-70461474D01*
X87645165Y-70446441D01*
X87597885Y-70400877D01*
X87580500Y-70337559D01*
X87580500Y-69072441D01*
X87597885Y-69009123D01*
X87645165Y-68963559D01*
X87709082Y-68948526D01*
X87771715Y-68968239D01*
X87807554Y-69008290D01*
X87808402Y-69007651D01*
X87938236Y-69179580D01*
X88088958Y-69316981D01*
X88262361Y-69424347D01*
X88262363Y-69424348D01*
X88452544Y-69498024D01*
X88653024Y-69535500D01*
X88856974Y-69535500D01*
X88856976Y-69535500D01*
X89057456Y-69498024D01*
X89247637Y-69424348D01*
X89421041Y-69316981D01*
X89571764Y-69179579D01*
X89694673Y-69016821D01*
X89694673Y-69016819D01*
X89694675Y-69016818D01*
X89748782Y-68908155D01*
X89785582Y-68834250D01*
X89841397Y-68638083D01*
X89860215Y-68435000D01*
X89841397Y-68231917D01*
X89836697Y-68215400D01*
X89813812Y-68134967D01*
X89810839Y-68121854D01*
X89810784Y-68121534D01*
X89795654Y-68032707D01*
X89787893Y-68000177D01*
X89786991Y-67997258D01*
X89775056Y-67966040D01*
X89772875Y-67961291D01*
X89647158Y-67687608D01*
X89645968Y-67685056D01*
X89645450Y-67683961D01*
X89593105Y-67573228D01*
X89566227Y-67516370D01*
X89554484Y-67469519D01*
X89554156Y-67462898D01*
X89552856Y-67436693D01*
X89557033Y-67398077D01*
X89572953Y-67362645D01*
X89573061Y-67362481D01*
X89669992Y-67214389D01*
X89686057Y-67194623D01*
X90753919Y-66126761D01*
X90810076Y-66094518D01*
X90874831Y-66094980D01*
G37*
G04 #@! TD.AperFunction*
G04 #@! TA.AperFunction,Conductor*
G36*
X108203217Y-64264745D02*
G01*
X108247564Y-64293246D01*
X109297361Y-65343043D01*
X109313489Y-65362903D01*
X109316993Y-65368267D01*
X109318563Y-65370669D01*
X109341473Y-65388500D01*
X109352496Y-65398235D01*
X109368355Y-65409558D01*
X109372464Y-65412622D01*
X109416773Y-65447108D01*
X109423933Y-65449239D01*
X109423934Y-65449240D01*
X109443285Y-65455001D01*
X109470593Y-65463131D01*
X109475437Y-65464682D01*
X109521512Y-65480500D01*
X109521515Y-65480500D01*
X109528579Y-65482925D01*
X109536044Y-65482616D01*
X109536046Y-65482617D01*
X109584678Y-65480606D01*
X109589802Y-65480500D01*
X111183456Y-65480500D01*
X111230909Y-65489939D01*
X111271137Y-65516819D01*
X111443181Y-65688863D01*
X111470061Y-65729091D01*
X111479500Y-65776544D01*
X111479500Y-69555788D01*
X111476861Y-69581234D01*
X111474956Y-69590316D01*
X111475762Y-69596777D01*
X111469925Y-69652578D01*
X111440092Y-69700096D01*
X111392370Y-69729600D01*
X111336529Y-69735051D01*
X111255000Y-69724317D01*
X111098237Y-69744956D01*
X110952159Y-69805463D01*
X110826717Y-69901717D01*
X110730463Y-70027159D01*
X110669956Y-70173237D01*
X110649317Y-70329999D01*
X110669956Y-70486762D01*
X110690038Y-70535245D01*
X110693087Y-70543406D01*
X110696371Y-70553236D01*
X110700392Y-70616648D01*
X110672476Y-70673727D01*
X110637022Y-70714644D01*
X110597719Y-70775801D01*
X110537994Y-70906579D01*
X110517511Y-70976337D01*
X110504486Y-71066934D01*
X110497216Y-71117500D01*
X110497050Y-71118652D01*
X110497050Y-71191348D01*
X110498330Y-71200251D01*
X110499592Y-71217898D01*
X110499592Y-71592102D01*
X110498330Y-71609749D01*
X110497050Y-71618652D01*
X110497050Y-71691348D01*
X110517511Y-71833662D01*
X110537994Y-71903420D01*
X110597718Y-72034197D01*
X110637024Y-72095358D01*
X110669874Y-72133269D01*
X110731176Y-72204016D01*
X110786119Y-72251624D01*
X110907073Y-72329356D01*
X110973200Y-72359555D01*
X111111155Y-72400062D01*
X111183111Y-72410408D01*
X111804999Y-72410408D01*
X111805000Y-72410408D01*
X111875254Y-72396433D01*
X111935729Y-72399478D01*
X111987554Y-72430800D01*
X112019313Y-72462872D01*
X112028025Y-72472654D01*
X112051630Y-72502159D01*
X112085564Y-72544576D01*
X112091699Y-72552940D01*
X112155750Y-72648383D01*
X112160145Y-72655431D01*
X112187858Y-72703380D01*
X112204500Y-72765430D01*
X112204500Y-77305788D01*
X112201861Y-77331234D01*
X112199957Y-77340314D01*
X112203548Y-77369123D01*
X112204458Y-77383795D01*
X112207665Y-77403013D01*
X112208403Y-77408078D01*
X112215351Y-77463809D01*
X112242081Y-77513202D01*
X112244421Y-77517747D01*
X112265802Y-77561484D01*
X112265803Y-77561485D01*
X112269084Y-77568196D01*
X112274581Y-77573256D01*
X112274582Y-77573258D01*
X112306837Y-77602951D01*
X112310399Y-77606230D01*
X112314097Y-77609779D01*
X113122361Y-78418043D01*
X113138489Y-78437903D01*
X113143563Y-78445669D01*
X113166473Y-78463500D01*
X113177496Y-78473235D01*
X113193355Y-78484558D01*
X113197464Y-78487622D01*
X113205913Y-78494198D01*
X113234829Y-78516704D01*
X113241773Y-78522108D01*
X113295593Y-78538131D01*
X113300467Y-78539692D01*
X113346512Y-78555500D01*
X113346513Y-78555500D01*
X113353580Y-78557926D01*
X113361045Y-78557617D01*
X113361047Y-78557618D01*
X113372429Y-78557147D01*
X113398462Y-78558817D01*
X113633058Y-78598970D01*
X113651501Y-78603607D01*
X113873653Y-78677990D01*
X113889594Y-78684595D01*
X114008699Y-78743968D01*
X114120028Y-78799465D01*
X114133167Y-78807053D01*
X114255026Y-78887744D01*
X114287573Y-78919205D01*
X114294514Y-78928952D01*
X114446622Y-79073986D01*
X114623428Y-79187613D01*
X114681428Y-79210832D01*
X114686963Y-79213596D01*
X114693376Y-79216311D01*
X114694998Y-79217608D01*
X114699677Y-79219945D01*
X114702114Y-79221424D01*
X114701347Y-79222686D01*
X114745804Y-79258240D01*
X114768696Y-79321348D01*
X114755343Y-79387138D01*
X114709659Y-79436328D01*
X114645034Y-79454500D01*
X107869093Y-79454500D01*
X107806073Y-79437292D01*
X107760545Y-79390444D01*
X107745144Y-79326959D01*
X107764144Y-79264456D01*
X107812271Y-79220285D01*
X107977682Y-79135011D01*
X108142886Y-79005092D01*
X108161916Y-78983128D01*
X108179357Y-78966565D01*
X108181450Y-78964933D01*
X108373312Y-78743961D01*
X108380955Y-78735916D01*
X108518467Y-78603608D01*
X108532461Y-78590144D01*
X108572089Y-78564487D01*
X108618435Y-78555500D01*
X108630788Y-78555500D01*
X108656234Y-78558139D01*
X108657556Y-78558416D01*
X108665315Y-78560043D01*
X108691364Y-78556795D01*
X108694123Y-78556452D01*
X108708795Y-78555541D01*
X108728013Y-78552334D01*
X108733069Y-78551596D01*
X108781393Y-78545573D01*
X108781394Y-78545572D01*
X108788808Y-78544648D01*
X108795378Y-78541092D01*
X108795381Y-78541092D01*
X108838201Y-78517918D01*
X108842747Y-78515577D01*
X108886484Y-78494198D01*
X108886486Y-78494195D01*
X108893195Y-78490916D01*
X108898254Y-78485419D01*
X108898258Y-78485418D01*
X108931254Y-78449572D01*
X108934756Y-78445924D01*
X109768043Y-77612636D01*
X109787895Y-77596515D01*
X109795669Y-77591437D01*
X109813500Y-77568526D01*
X109823227Y-77557513D01*
X109834550Y-77541653D01*
X109837604Y-77537555D01*
X109867517Y-77499126D01*
X109867517Y-77499123D01*
X109872108Y-77493226D01*
X109878492Y-77471785D01*
X109888129Y-77439412D01*
X109889679Y-77434569D01*
X109905500Y-77388488D01*
X109905500Y-77388485D01*
X109907925Y-77381421D01*
X109907616Y-77373956D01*
X109907617Y-77373954D01*
X109905605Y-77325331D01*
X109905500Y-77320208D01*
X109905500Y-73549947D01*
X109909896Y-73517222D01*
X109910536Y-73514882D01*
X109917387Y-73430324D01*
X109918094Y-73421599D01*
X109923828Y-73393085D01*
X109929968Y-73374311D01*
X109941144Y-73349653D01*
X109966030Y-73307664D01*
X109968123Y-73304265D01*
X110025383Y-73214636D01*
X110032625Y-73202583D01*
X110033256Y-73201464D01*
X110039797Y-73189082D01*
X110101935Y-73063232D01*
X110116930Y-73018350D01*
X110119956Y-73010255D01*
X110140044Y-72961762D01*
X110160682Y-72805000D01*
X110140044Y-72648238D01*
X110079536Y-72502159D01*
X110068324Y-72487547D01*
X109983282Y-72376717D01*
X109857840Y-72280463D01*
X109711762Y-72219956D01*
X109555000Y-72199317D01*
X109398237Y-72219956D01*
X109252159Y-72280463D01*
X109126717Y-72376717D01*
X109030463Y-72502159D01*
X108969956Y-72648237D01*
X108949317Y-72804999D01*
X108969956Y-72961762D01*
X108990038Y-73010245D01*
X108993087Y-73018406D01*
X109008059Y-73063224D01*
X109070202Y-73189085D01*
X109076800Y-73201569D01*
X109077415Y-73202659D01*
X109084619Y-73214644D01*
X109141824Y-73304192D01*
X109143999Y-73307724D01*
X109168848Y-73349650D01*
X109180032Y-73374325D01*
X109186165Y-73393076D01*
X109191904Y-73421607D01*
X109199463Y-73514882D01*
X109200104Y-73517223D01*
X109204500Y-73549948D01*
X109204500Y-77133456D01*
X109195061Y-77180909D01*
X109168183Y-77221134D01*
X108918936Y-77470381D01*
X108836451Y-77552866D01*
X108793661Y-77580773D01*
X108743252Y-77589061D01*
X108695928Y-77586953D01*
X108676643Y-77584570D01*
X108495974Y-77547686D01*
X108478387Y-77542721D01*
X108475451Y-77541653D01*
X108377679Y-77506086D01*
X108291167Y-77474615D01*
X108276056Y-77467948D01*
X108212215Y-77434534D01*
X108126767Y-77389811D01*
X108098698Y-77369692D01*
X108063377Y-77336012D01*
X107979714Y-77282245D01*
X107938285Y-77238017D01*
X107922763Y-77179437D01*
X107936856Y-77120497D01*
X107977198Y-77075275D01*
X108034153Y-77054572D01*
X108132695Y-77044506D01*
X108299122Y-76989357D01*
X108448345Y-76897316D01*
X108572316Y-76773345D01*
X108664357Y-76624122D01*
X108719506Y-76457696D01*
X108730000Y-76354979D01*
X108730000Y-75955000D01*
X105780001Y-75955000D01*
X105780001Y-76354979D01*
X105790493Y-76457695D01*
X105845642Y-76624122D01*
X105937683Y-76773345D01*
X106061654Y-76897316D01*
X106210877Y-76989357D01*
X106377303Y-77044506D01*
X106468673Y-77053840D01*
X106523661Y-77073238D01*
X106563704Y-77115623D01*
X106579947Y-77171624D01*
X106568799Y-77228857D01*
X106532725Y-77274668D01*
X106367114Y-77404908D01*
X106229479Y-77563745D01*
X106124396Y-77745754D01*
X106055655Y-77944366D01*
X106040803Y-78047670D01*
X106025746Y-78152398D01*
X106026185Y-78161604D01*
X106035746Y-78362330D01*
X106085297Y-78566580D01*
X106172602Y-78757752D01*
X106265170Y-78887744D01*
X106294514Y-78928952D01*
X106446622Y-79073986D01*
X106623428Y-79187613D01*
X106692792Y-79215382D01*
X106746326Y-79256663D01*
X106770251Y-79319889D01*
X106757458Y-79386268D01*
X106711747Y-79436073D01*
X106646706Y-79454500D01*
X104204500Y-79454500D01*
X104142500Y-79437887D01*
X104097113Y-79392500D01*
X104080500Y-79330500D01*
X104080500Y-76549336D01*
X104089939Y-76501883D01*
X104116819Y-76461655D01*
X104809308Y-75769166D01*
X105568321Y-75010152D01*
X105617682Y-74979904D01*
X105675398Y-74975362D01*
X105728885Y-74997517D01*
X105766485Y-75041540D01*
X105780000Y-75097835D01*
X105780000Y-75455000D01*
X107005000Y-75455000D01*
X107005000Y-74355001D01*
X106480020Y-74355001D01*
X106411369Y-74362013D01*
X106371011Y-74355000D01*
X107505000Y-74355000D01*
X107505000Y-75455000D01*
X108729999Y-75455000D01*
X108729999Y-75055021D01*
X108719506Y-74952304D01*
X108664357Y-74785877D01*
X108572316Y-74636654D01*
X108448345Y-74512683D01*
X108299122Y-74420642D01*
X108132696Y-74365493D01*
X108029979Y-74355000D01*
X107505000Y-74355000D01*
X106371011Y-74355000D01*
X106345293Y-74350531D01*
X106294860Y-74306322D01*
X106274823Y-74242319D01*
X106285722Y-74198592D01*
X106281968Y-74197279D01*
X106359997Y-73974286D01*
X106359998Y-73974282D01*
X106374276Y-73884129D01*
X106386263Y-73847239D01*
X106409064Y-73815855D01*
X106502409Y-73722510D01*
X106504579Y-73720394D01*
X106568053Y-73660059D01*
X106601763Y-73611624D01*
X106607405Y-73604141D01*
X106644697Y-73558408D01*
X106658786Y-73531433D01*
X106666908Y-73518027D01*
X106684295Y-73493049D01*
X106707568Y-73438815D01*
X106711590Y-73430346D01*
X106738909Y-73378049D01*
X106739975Y-73374325D01*
X106747275Y-73348808D01*
X106752539Y-73334019D01*
X106764540Y-73306058D01*
X106776417Y-73248256D01*
X106778652Y-73239148D01*
X106794886Y-73182418D01*
X106797196Y-73152078D01*
X106799376Y-73136540D01*
X106805500Y-73106742D01*
X106805500Y-73047756D01*
X106805858Y-73038341D01*
X106807690Y-73014284D01*
X106810337Y-72979524D01*
X106806494Y-72949348D01*
X106805500Y-72933683D01*
X106805500Y-70654260D01*
X106802150Y-70621318D01*
X106790074Y-70502562D01*
X106761186Y-70410492D01*
X106755500Y-70373372D01*
X106755500Y-69232130D01*
X106755500Y-69232126D01*
X106749091Y-69172516D01*
X106698796Y-69037669D01*
X106693055Y-69030000D01*
X106612547Y-68922452D01*
X106497333Y-68836205D01*
X106497331Y-68836204D01*
X106475809Y-68828176D01*
X106426596Y-68794523D01*
X106398777Y-68741789D01*
X106398786Y-68682168D01*
X106426620Y-68629442D01*
X106447893Y-68614903D01*
X106445954Y-68612312D01*
X106569687Y-68519687D01*
X106574652Y-68513054D01*
X106651628Y-68410226D01*
X106689408Y-68308930D01*
X106705877Y-68278557D01*
X106707825Y-68275923D01*
X106742117Y-68229536D01*
X106752568Y-68215400D01*
X106755989Y-68210984D01*
X106843972Y-68102589D01*
X106848043Y-68097826D01*
X106873324Y-68069729D01*
X106877783Y-68065029D01*
X107066976Y-67875836D01*
X107073243Y-67869990D01*
X107108208Y-67839574D01*
X107139887Y-67803319D01*
X107145551Y-67797261D01*
X107286430Y-67656382D01*
X107307069Y-67639751D01*
X107311128Y-67637143D01*
X107343476Y-67599809D01*
X107896828Y-67599809D01*
X107906613Y-67830165D01*
X107955190Y-68055564D01*
X108028001Y-68236762D01*
X108041159Y-68269506D01*
X108162049Y-68465843D01*
X108239616Y-68553976D01*
X108314381Y-68638927D01*
X108493768Y-68783772D01*
X108695063Y-68896221D01*
X108912464Y-68973034D01*
X109139713Y-69012000D01*
X109139715Y-69012000D01*
X109312535Y-69012000D01*
X109312539Y-69012000D01*
X109427337Y-69002228D01*
X109484739Y-68997343D01*
X109707869Y-68939245D01*
X109917971Y-68844273D01*
X110109000Y-68715159D01*
X110275462Y-68555619D01*
X110412566Y-68370242D01*
X110516370Y-68164360D01*
X110583886Y-67943897D01*
X110613172Y-67715194D01*
X110603386Y-67484832D01*
X110554810Y-67259438D01*
X110552295Y-67253180D01*
X110497435Y-67116653D01*
X110468841Y-67045494D01*
X110347951Y-66849157D01*
X110222535Y-66706656D01*
X110195618Y-66676072D01*
X110016231Y-66531227D01*
X109814936Y-66418778D01*
X109597535Y-66341965D01*
X109370287Y-66303000D01*
X109370285Y-66303000D01*
X109197465Y-66303000D01*
X109197461Y-66303000D01*
X109025262Y-66317656D01*
X108802129Y-66375755D01*
X108592029Y-66470726D01*
X108401000Y-66599840D01*
X108234537Y-66759381D01*
X108097434Y-66944757D01*
X107993630Y-67150639D01*
X107926114Y-67371102D01*
X107921996Y-67403262D01*
X107896852Y-67599625D01*
X107896828Y-67599809D01*
X107343476Y-67599809D01*
X107343654Y-67599603D01*
X107349658Y-67593155D01*
X107359220Y-67583594D01*
X107367314Y-67572780D01*
X107372844Y-67565916D01*
X107405377Y-67528373D01*
X107407379Y-67523987D01*
X107420905Y-67501190D01*
X107423795Y-67497331D01*
X107441155Y-67450783D01*
X107444527Y-67442645D01*
X107465165Y-67397457D01*
X107465850Y-67392685D01*
X107472407Y-67366996D01*
X107474091Y-67362483D01*
X107477633Y-67312940D01*
X107478576Y-67304175D01*
X107480500Y-67290799D01*
X107480500Y-67277299D01*
X107480816Y-67268453D01*
X107484358Y-67218927D01*
X107483334Y-67214220D01*
X107480500Y-67187861D01*
X107480500Y-64786981D01*
X107491168Y-64736663D01*
X107521337Y-64695003D01*
X107548798Y-64670174D01*
X107572784Y-64648487D01*
X107580121Y-64642352D01*
X107646485Y-64591085D01*
X107655339Y-64584846D01*
X107716677Y-64545538D01*
X107727282Y-64539460D01*
X107749771Y-64528007D01*
X107762678Y-64522336D01*
X107885226Y-64476628D01*
X107994687Y-64394687D01*
X108010240Y-64373911D01*
X108060616Y-64306617D01*
X108100456Y-64272095D01*
X108151037Y-64257243D01*
X108203217Y-64264745D01*
G37*
G04 #@! TD.AperFunction*
G04 #@! TA.AperFunction,Conductor*
G36*
X93141693Y-66816446D02*
G01*
X93151996Y-66817129D01*
X93176284Y-66821190D01*
X93203048Y-66828457D01*
X93226533Y-66837478D01*
X93266736Y-66857817D01*
X93272493Y-66860923D01*
X93336679Y-66897769D01*
X93358619Y-66910364D01*
X93367394Y-66915175D01*
X93368195Y-66915594D01*
X93376910Y-66919943D01*
X93500756Y-66978828D01*
X93541773Y-66991917D01*
X93551489Y-66995472D01*
X93598738Y-67015044D01*
X93686439Y-67026590D01*
X93755499Y-67035682D01*
X93755499Y-67035681D01*
X93755500Y-67035682D01*
X93912262Y-67015044D01*
X94058341Y-66954536D01*
X94058341Y-66954535D01*
X94072391Y-66948716D01*
X94111180Y-66931647D01*
X94170003Y-66935500D01*
X94220399Y-66966081D01*
X94772359Y-67518040D01*
X94788487Y-67537900D01*
X94793563Y-67545670D01*
X94816473Y-67563501D01*
X94827488Y-67573228D01*
X94843349Y-67584553D01*
X94847456Y-67587616D01*
X94891771Y-67622108D01*
X94945593Y-67638131D01*
X94950437Y-67639682D01*
X94996512Y-67655500D01*
X94996515Y-67655500D01*
X95003579Y-67657925D01*
X95011044Y-67657616D01*
X95011046Y-67657617D01*
X95059678Y-67655606D01*
X95064802Y-67655500D01*
X95670278Y-67655500D01*
X95728731Y-67670142D01*
X95773380Y-67710609D01*
X95793681Y-67767346D01*
X95784839Y-67826951D01*
X95773975Y-67853181D01*
X95744955Y-67923239D01*
X95724317Y-68080000D01*
X95744956Y-68236762D01*
X95805463Y-68382840D01*
X95901717Y-68508282D01*
X96024142Y-68602221D01*
X96027159Y-68604536D01*
X96173238Y-68665044D01*
X96330000Y-68685682D01*
X96486762Y-68665044D01*
X96536061Y-68644622D01*
X96542360Y-68642214D01*
X96592163Y-68624717D01*
X96620736Y-68610005D01*
X96629988Y-68605717D01*
X96632841Y-68604536D01*
X96632846Y-68604531D01*
X96636381Y-68603068D01*
X96645750Y-68597127D01*
X96717872Y-68559997D01*
X96734217Y-68550808D01*
X96735674Y-68549917D01*
X96751165Y-68539652D01*
X96842452Y-68474258D01*
X96843567Y-68473470D01*
X96886091Y-68443783D01*
X96911754Y-68430036D01*
X96920269Y-68426693D01*
X96953521Y-68418704D01*
X97039318Y-68410320D01*
X97039321Y-68410319D01*
X97040079Y-68410245D01*
X97073555Y-68405500D01*
X98417271Y-68405500D01*
X98441878Y-68407966D01*
X98451813Y-68409977D01*
X98504646Y-68420675D01*
X98523379Y-68426032D01*
X98574928Y-68445273D01*
X98590815Y-68452516D01*
X98651567Y-68485567D01*
X98664411Y-68493608D01*
X98691631Y-68513065D01*
X98715688Y-68530260D01*
X98743350Y-68557504D01*
X98757639Y-68576864D01*
X98781432Y-68640076D01*
X98768566Y-68706380D01*
X98722859Y-68756106D01*
X98657871Y-68774500D01*
X97656362Y-68774500D01*
X97606511Y-68779409D01*
X97559063Y-68788847D01*
X97511132Y-68803387D01*
X97466960Y-68826998D01*
X97426730Y-68853879D01*
X97388013Y-68885654D01*
X97035654Y-69238013D01*
X97003879Y-69276730D01*
X96976998Y-69316960D01*
X96953387Y-69361132D01*
X96938847Y-69409063D01*
X96929409Y-69456511D01*
X96924500Y-69506362D01*
X96924500Y-71903638D01*
X96929409Y-71953488D01*
X96938847Y-72000936D01*
X96953387Y-72048867D01*
X96976998Y-72093039D01*
X97003879Y-72133269D01*
X97035654Y-72171986D01*
X97388013Y-72524345D01*
X97426730Y-72556120D01*
X97466960Y-72583001D01*
X97511132Y-72606612D01*
X97559063Y-72621152D01*
X97606516Y-72630591D01*
X97656362Y-72635500D01*
X100081000Y-72635500D01*
X100110920Y-72631560D01*
X100127105Y-72630500D01*
X100202870Y-72630500D01*
X100202874Y-72630500D01*
X100262484Y-72624091D01*
X100397331Y-72573796D01*
X100512547Y-72487547D01*
X100598796Y-72372331D01*
X100649091Y-72237484D01*
X100655500Y-72177874D01*
X100655500Y-71179500D01*
X100672113Y-71117500D01*
X100717500Y-71072113D01*
X100779500Y-71055500D01*
X101705788Y-71055500D01*
X101731234Y-71058139D01*
X101732556Y-71058416D01*
X101740315Y-71060043D01*
X101766364Y-71056795D01*
X101769123Y-71056452D01*
X101783795Y-71055541D01*
X101803013Y-71052334D01*
X101808069Y-71051596D01*
X101856393Y-71045573D01*
X101856394Y-71045572D01*
X101863808Y-71044648D01*
X101870378Y-71041092D01*
X101870381Y-71041092D01*
X101913201Y-71017918D01*
X101917747Y-71015577D01*
X101961484Y-70994198D01*
X101961486Y-70994195D01*
X101968195Y-70990916D01*
X101973254Y-70985419D01*
X101973258Y-70985418D01*
X102006254Y-70949572D01*
X102009756Y-70945924D01*
X102643046Y-70312634D01*
X102662903Y-70296510D01*
X102670669Y-70291437D01*
X102671994Y-70289733D01*
X102727969Y-70249179D01*
X102796963Y-70244894D01*
X102857530Y-70278212D01*
X103497361Y-70918043D01*
X103513489Y-70937903D01*
X103518563Y-70945669D01*
X103541473Y-70963500D01*
X103552494Y-70973233D01*
X103568347Y-70984552D01*
X103572450Y-70987611D01*
X103610874Y-71017517D01*
X103610875Y-71017517D01*
X103616772Y-71022107D01*
X103670578Y-71038126D01*
X103675452Y-71039687D01*
X103721512Y-71055500D01*
X103721513Y-71055500D01*
X103728577Y-71057925D01*
X103736043Y-71057616D01*
X103736046Y-71057617D01*
X103784668Y-71055605D01*
X103789792Y-71055500D01*
X104310749Y-71055500D01*
X104362757Y-71066934D01*
X104411898Y-71089638D01*
X104428164Y-71098692D01*
X104524413Y-71162176D01*
X104536837Y-71171540D01*
X104643807Y-71263229D01*
X104653092Y-71272060D01*
X104768500Y-71393780D01*
X104775409Y-71401716D01*
X104777392Y-71404199D01*
X104797527Y-71440584D01*
X104804500Y-71481580D01*
X104804500Y-72367705D01*
X104795586Y-72413870D01*
X104770126Y-72453397D01*
X104731781Y-72480604D01*
X104727819Y-72482403D01*
X104727817Y-72482404D01*
X104684325Y-72502159D01*
X104522878Y-72575490D01*
X104337841Y-72703683D01*
X102000343Y-75041181D01*
X101989980Y-75050443D01*
X101962335Y-75072491D01*
X101918735Y-75122392D01*
X101913050Y-75128473D01*
X101906059Y-75135464D01*
X101879928Y-75166764D01*
X101878124Y-75168876D01*
X101814235Y-75242003D01*
X101811986Y-75245767D01*
X101800739Y-75261617D01*
X101797932Y-75264979D01*
X101749978Y-75349490D01*
X101748604Y-75351849D01*
X101699719Y-75433671D01*
X101698782Y-75435241D01*
X101697246Y-75439335D01*
X101689009Y-75456944D01*
X101686847Y-75460753D01*
X101654762Y-75552444D01*
X101653814Y-75555057D01*
X101619691Y-75645978D01*
X101618910Y-75650282D01*
X101613950Y-75669077D01*
X101612501Y-75673217D01*
X101597304Y-75769166D01*
X101596838Y-75771907D01*
X101579500Y-75867450D01*
X101579500Y-75871830D01*
X101577973Y-75891229D01*
X101577290Y-75895539D01*
X101579469Y-75992640D01*
X101579500Y-75995422D01*
X101579500Y-79330500D01*
X101562887Y-79392500D01*
X101517500Y-79437887D01*
X101455500Y-79454500D01*
X99919093Y-79454500D01*
X99856073Y-79437292D01*
X99810545Y-79390444D01*
X99795144Y-79326959D01*
X99814144Y-79264456D01*
X99862271Y-79220285D01*
X100027682Y-79135011D01*
X100192886Y-79005092D01*
X100330519Y-78846256D01*
X100435604Y-78664244D01*
X100504344Y-78465633D01*
X100534254Y-78257602D01*
X100524254Y-78047670D01*
X100474704Y-77843424D01*
X100470072Y-77833281D01*
X100387397Y-77652247D01*
X100265487Y-77481050D01*
X100265486Y-77481048D01*
X100113378Y-77336014D01*
X100072620Y-77309820D01*
X100029713Y-77282245D01*
X99988284Y-77238017D01*
X99972762Y-77179437D01*
X99986855Y-77120497D01*
X100027197Y-77075275D01*
X100084152Y-77054572D01*
X100182695Y-77044506D01*
X100349122Y-76989357D01*
X100498345Y-76897316D01*
X100622316Y-76773345D01*
X100714357Y-76624122D01*
X100769506Y-76457696D01*
X100780000Y-76354979D01*
X100780000Y-75955000D01*
X97830002Y-75955000D01*
X97823667Y-75961333D01*
X97816483Y-75991255D01*
X97778883Y-76035277D01*
X97725396Y-76057431D01*
X97667681Y-76052888D01*
X97618319Y-76022638D01*
X97367588Y-75771907D01*
X97050681Y-75455000D01*
X97830000Y-75455000D01*
X99055000Y-75455000D01*
X99055000Y-74355001D01*
X98530021Y-74355001D01*
X98427304Y-74365493D01*
X98260877Y-74420642D01*
X98111654Y-74512683D01*
X97987683Y-74636654D01*
X97895642Y-74785877D01*
X97840493Y-74952303D01*
X97830000Y-75055021D01*
X97830000Y-75455000D01*
X97050681Y-75455000D01*
X96541819Y-74946137D01*
X96514939Y-74905909D01*
X96505500Y-74858456D01*
X96505500Y-74355000D01*
X99555000Y-74355000D01*
X99555000Y-75455000D01*
X100779999Y-75455000D01*
X100779999Y-75055021D01*
X100769506Y-74952304D01*
X100714357Y-74785877D01*
X100622316Y-74636654D01*
X100498345Y-74512683D01*
X100349122Y-74420642D01*
X100182696Y-74365493D01*
X100079979Y-74355000D01*
X99555000Y-74355000D01*
X96505500Y-74355000D01*
X96505500Y-70704207D01*
X96508139Y-70678761D01*
X96509194Y-70673727D01*
X96510042Y-70669685D01*
X96506452Y-70640884D01*
X96505540Y-70626205D01*
X96505500Y-70625965D01*
X96505500Y-70625960D01*
X96502331Y-70606972D01*
X96501594Y-70601915D01*
X96498333Y-70575750D01*
X96495573Y-70553607D01*
X96495572Y-70553605D01*
X96494648Y-70546191D01*
X96491092Y-70539620D01*
X96491092Y-70539619D01*
X96467925Y-70496811D01*
X96465581Y-70492256D01*
X96440918Y-70441805D01*
X96416182Y-70419034D01*
X96399587Y-70403757D01*
X96395914Y-70400232D01*
X93537638Y-67541956D01*
X93521509Y-67522094D01*
X93516437Y-67514330D01*
X93493533Y-67496504D01*
X93482508Y-67486768D01*
X93466653Y-67475448D01*
X93462544Y-67472384D01*
X93418229Y-67437892D01*
X93364409Y-67421869D01*
X93359531Y-67420306D01*
X93306420Y-67402073D01*
X93277679Y-67403262D01*
X93224952Y-67393866D01*
X93216484Y-67390345D01*
X93212307Y-67388608D01*
X93195514Y-67380076D01*
X93141085Y-67346988D01*
X93128040Y-67337861D01*
X93062935Y-67285777D01*
X93053064Y-67276977D01*
X92979310Y-67203805D01*
X92971903Y-67195778D01*
X92956249Y-67177240D01*
X92930919Y-67128211D01*
X92929372Y-67073047D01*
X92929630Y-67071753D01*
X92942908Y-67005000D01*
X92942908Y-66935760D01*
X92960915Y-66871406D01*
X93009706Y-66825742D01*
X93075111Y-66812032D01*
X93141693Y-66816446D01*
G37*
G04 #@! TD.AperFunction*
G04 #@! TA.AperFunction,Conductor*
G36*
X95092407Y-70088089D02*
G01*
X95768181Y-70763863D01*
X95795061Y-70804091D01*
X95804500Y-70851544D01*
X95804500Y-75005788D01*
X95801861Y-75031234D01*
X95799957Y-75040314D01*
X95803548Y-75069123D01*
X95804458Y-75083795D01*
X95807665Y-75103013D01*
X95808403Y-75108078D01*
X95815351Y-75163809D01*
X95842081Y-75213202D01*
X95844421Y-75217747D01*
X95865802Y-75261484D01*
X95865803Y-75261485D01*
X95869084Y-75268196D01*
X95874581Y-75273256D01*
X95874582Y-75273258D01*
X95910399Y-75306230D01*
X95914097Y-75309779D01*
X97741507Y-77137189D01*
X97769023Y-77178983D01*
X97821134Y-77309815D01*
X97823824Y-77317249D01*
X97898229Y-77545466D01*
X97899868Y-77550917D01*
X97976646Y-77829145D01*
X97977712Y-77833281D01*
X98054048Y-78152396D01*
X98055869Y-78160006D01*
X98056597Y-78163243D01*
X98079933Y-78273787D01*
X98082466Y-78293498D01*
X98085745Y-78362324D01*
X98085745Y-78362327D01*
X98085746Y-78362330D01*
X98115607Y-78485418D01*
X98135297Y-78566580D01*
X98222602Y-78757752D01*
X98315170Y-78887744D01*
X98344514Y-78928952D01*
X98496622Y-79073986D01*
X98673428Y-79187613D01*
X98742792Y-79215382D01*
X98796326Y-79256663D01*
X98820251Y-79319889D01*
X98807458Y-79386268D01*
X98761747Y-79436073D01*
X98696706Y-79454500D01*
X91919093Y-79454500D01*
X91856073Y-79437292D01*
X91810545Y-79390444D01*
X91795144Y-79326959D01*
X91814144Y-79264456D01*
X91862271Y-79220285D01*
X92027682Y-79135011D01*
X92192886Y-79005092D01*
X92330519Y-78846256D01*
X92435604Y-78664244D01*
X92504344Y-78465633D01*
X92534254Y-78257602D01*
X92534253Y-78257600D01*
X92535330Y-78250116D01*
X92536742Y-78242150D01*
X92553400Y-78163243D01*
X92553416Y-78163164D01*
X92554128Y-78160006D01*
X92632295Y-77833230D01*
X92633332Y-77829206D01*
X92710142Y-77550866D01*
X92711768Y-77545466D01*
X92786175Y-77317242D01*
X92788855Y-77309835D01*
X92840974Y-77178984D01*
X92868487Y-77137193D01*
X93193046Y-76812634D01*
X93212903Y-76796510D01*
X93220669Y-76791437D01*
X93238496Y-76768531D01*
X93248228Y-76757511D01*
X93248370Y-76757311D01*
X93248376Y-76757306D01*
X93259586Y-76741603D01*
X93262600Y-76737561D01*
X93292517Y-76699126D01*
X93292517Y-76699124D01*
X93297107Y-76693228D01*
X93299238Y-76686067D01*
X93299240Y-76686066D01*
X93313129Y-76639412D01*
X93314679Y-76634569D01*
X93330500Y-76588488D01*
X93330500Y-76588484D01*
X93332925Y-76581420D01*
X93332616Y-76573955D01*
X93332617Y-76573954D01*
X93330606Y-76525321D01*
X93330500Y-76520198D01*
X93330500Y-72765428D01*
X93347139Y-72703382D01*
X93374866Y-72655405D01*
X93379234Y-72648402D01*
X93443304Y-72552930D01*
X93449427Y-72544584D01*
X93506969Y-72472657D01*
X93515682Y-72462875D01*
X93515685Y-72462872D01*
X93547444Y-72430799D01*
X93599266Y-72399478D01*
X93659744Y-72396433D01*
X93677983Y-72400061D01*
X93729999Y-72410408D01*
X93730000Y-72410408D01*
X94351888Y-72410408D01*
X94351889Y-72410408D01*
X94423845Y-72400062D01*
X94561800Y-72359555D01*
X94627927Y-72329356D01*
X94748881Y-72251624D01*
X94803824Y-72204016D01*
X94897978Y-72095355D01*
X94937279Y-72034201D01*
X94997007Y-71903416D01*
X95017488Y-71833664D01*
X95037950Y-71691349D01*
X95037950Y-71618651D01*
X95036669Y-71609747D01*
X95035408Y-71592102D01*
X95035408Y-71217898D01*
X95036670Y-71200251D01*
X95037950Y-71191348D01*
X95037950Y-71118652D01*
X95037784Y-71117500D01*
X95017488Y-70976336D01*
X94997007Y-70906584D01*
X94950200Y-70804091D01*
X94937281Y-70775802D01*
X94897975Y-70714641D01*
X94803994Y-70606180D01*
X94780124Y-70564351D01*
X94773992Y-70516582D01*
X94786520Y-70470083D01*
X94826935Y-70388232D01*
X94841930Y-70343350D01*
X94844956Y-70335255D01*
X94865044Y-70286762D01*
X94881787Y-70159584D01*
X94908873Y-70097105D01*
X94964867Y-70058351D01*
X95032883Y-70055009D01*
X95092407Y-70088089D01*
G37*
G04 #@! TD.AperFunction*
G04 #@! TA.AperFunction,Conductor*
G36*
X103817500Y-67559113D02*
G01*
X103862887Y-67604500D01*
X103879500Y-67666500D01*
X103879500Y-68365636D01*
X103890134Y-68438625D01*
X103944979Y-68550813D01*
X103946526Y-68553976D01*
X103970561Y-68589947D01*
X103980000Y-68637400D01*
X103980000Y-68944525D01*
X104105189Y-68908155D01*
X104241109Y-68827772D01*
X104327065Y-68741818D01*
X104367294Y-68714939D01*
X104414746Y-68705500D01*
X104540634Y-68705500D01*
X104540636Y-68705500D01*
X104613625Y-68694866D01*
X104726211Y-68639826D01*
X104814826Y-68551211D01*
X104869866Y-68438625D01*
X104874610Y-68406058D01*
X104893856Y-68355583D01*
X104932741Y-68318078D01*
X104983884Y-68300667D01*
X105037574Y-68306655D01*
X105057619Y-68313538D01*
X105069089Y-68318128D01*
X105139599Y-68350512D01*
X105149655Y-68355699D01*
X105224521Y-68398764D01*
X105233184Y-68404236D01*
X105312160Y-68458819D01*
X105319537Y-68464333D01*
X105331873Y-68474289D01*
X105404133Y-68532608D01*
X105409033Y-68535282D01*
X105423943Y-68544862D01*
X105439133Y-68556233D01*
X105477617Y-68603988D01*
X105488507Y-68664346D01*
X105469139Y-68722539D01*
X105424250Y-68764332D01*
X105364823Y-68779500D01*
X105307126Y-68779500D01*
X105267374Y-68783774D01*
X105247515Y-68785909D01*
X105112666Y-68836205D01*
X104997452Y-68922452D01*
X104911205Y-69037666D01*
X104860909Y-69172515D01*
X104859627Y-69184437D01*
X104856690Y-69211762D01*
X104854500Y-69232130D01*
X104854500Y-69865804D01*
X104847528Y-69906798D01*
X104827395Y-69943182D01*
X104775411Y-70008278D01*
X104768500Y-70016217D01*
X104653093Y-70137937D01*
X104643807Y-70146768D01*
X104536835Y-70238459D01*
X104524411Y-70247823D01*
X104428169Y-70311302D01*
X104411904Y-70320356D01*
X104362752Y-70343066D01*
X104310743Y-70354500D01*
X103976544Y-70354500D01*
X103929091Y-70345061D01*
X103888863Y-70318181D01*
X103466819Y-69896137D01*
X103439939Y-69855909D01*
X103430500Y-69808456D01*
X103430500Y-69043650D01*
X103443577Y-68988224D01*
X103480000Y-68944547D01*
X103480000Y-68652398D01*
X103490056Y-68603482D01*
X103490234Y-68603068D01*
X103494849Y-68592318D01*
X103497758Y-68586037D01*
X103514956Y-68551495D01*
X103519261Y-68543587D01*
X103521592Y-68539652D01*
X103537342Y-68513065D01*
X103561310Y-68459296D01*
X103561310Y-68459293D01*
X103561389Y-68459118D01*
X103568194Y-68442043D01*
X103569866Y-68438625D01*
X103577696Y-68384880D01*
X103580500Y-68365639D01*
X103580500Y-67666500D01*
X103597113Y-67604500D01*
X103642500Y-67559113D01*
X103704500Y-67542500D01*
X103755500Y-67542500D01*
X103817500Y-67559113D01*
G37*
G04 #@! TD.AperFunction*
G04 #@! TA.AperFunction,Conductor*
G36*
X104373815Y-61546085D02*
G01*
X104427437Y-61582222D01*
X104462134Y-61622264D01*
X104467689Y-61629157D01*
X104475779Y-61639964D01*
X104485321Y-61649506D01*
X104491354Y-61655986D01*
X104523870Y-61693513D01*
X104527927Y-61696120D01*
X104548571Y-61712756D01*
X105322242Y-62486427D01*
X105338875Y-62507067D01*
X105341483Y-62511125D01*
X105341485Y-62511127D01*
X105341486Y-62511128D01*
X105379030Y-62543659D01*
X105385494Y-62549679D01*
X105395035Y-62559221D01*
X105405836Y-62567306D01*
X105412729Y-62572860D01*
X105431202Y-62588867D01*
X105450256Y-62605377D01*
X105454638Y-62607378D01*
X105477435Y-62620904D01*
X105481298Y-62623796D01*
X105495573Y-62634482D01*
X105494337Y-62636132D01*
X105520524Y-62654178D01*
X105548166Y-62708002D01*
X105547048Y-62768498D01*
X105517436Y-62821264D01*
X105466379Y-62853734D01*
X105346513Y-62893453D01*
X105202267Y-62982426D01*
X105082426Y-63102267D01*
X104993453Y-63246513D01*
X104940143Y-63407393D01*
X104930000Y-63506685D01*
X104930000Y-63555000D01*
X106006000Y-63555000D01*
X106068000Y-63571613D01*
X106113387Y-63617000D01*
X106130000Y-63679000D01*
X106130000Y-64779999D01*
X106153315Y-64779999D01*
X106252605Y-64769856D01*
X106316496Y-64748685D01*
X106374363Y-64743834D01*
X106428093Y-64765861D01*
X106465903Y-64809935D01*
X106479500Y-64866391D01*
X106479500Y-65338240D01*
X106460722Y-65403848D01*
X106410074Y-65449585D01*
X106342897Y-65461598D01*
X106278314Y-65455000D01*
X106230000Y-65455000D01*
X106230000Y-66531000D01*
X106213387Y-66593000D01*
X106168000Y-66638387D01*
X106106000Y-66655000D01*
X105005001Y-66655000D01*
X105005001Y-66678315D01*
X105015143Y-66777605D01*
X105068453Y-66938486D01*
X105165035Y-67095068D01*
X105164100Y-67095644D01*
X105184216Y-67128326D01*
X105189056Y-67185546D01*
X105167598Y-67238811D01*
X105124445Y-67276697D01*
X105068851Y-67291079D01*
X105022815Y-67291976D01*
X105020399Y-67292000D01*
X104998326Y-67292000D01*
X104941575Y-67278251D01*
X104897409Y-67240053D01*
X104875622Y-67185878D01*
X104869866Y-67146377D01*
X104869866Y-67146375D01*
X104814826Y-67033789D01*
X104814825Y-67033788D01*
X104814825Y-67033787D01*
X104726212Y-66945174D01*
X104613625Y-66890134D01*
X104605526Y-66888954D01*
X104540636Y-66879500D01*
X104414746Y-66879500D01*
X104367293Y-66870061D01*
X104327065Y-66843181D01*
X104297628Y-66813744D01*
X104265534Y-66758157D01*
X104265534Y-66693969D01*
X104297628Y-66638382D01*
X104326520Y-66609490D01*
X104328546Y-66607509D01*
X104328935Y-66607136D01*
X104328941Y-66607133D01*
X104380746Y-66557642D01*
X104385068Y-66552157D01*
X104394756Y-66541253D01*
X104470431Y-66465579D01*
X104502502Y-66442431D01*
X104540233Y-66430558D01*
X104540631Y-66430500D01*
X104540636Y-66430500D01*
X104613625Y-66419866D01*
X104726211Y-66364826D01*
X104814826Y-66276211D01*
X104840792Y-66223094D01*
X104878068Y-66178149D01*
X104931783Y-66155246D01*
X104953638Y-66156830D01*
X104953638Y-66155000D01*
X105730000Y-66155000D01*
X105730000Y-65455001D01*
X105681685Y-65455001D01*
X105582394Y-65465143D01*
X105421513Y-65518453D01*
X105277267Y-65607426D01*
X105157428Y-65727265D01*
X105110039Y-65804096D01*
X105063985Y-65847800D01*
X105002336Y-65862980D01*
X104941255Y-65845658D01*
X104896754Y-65800373D01*
X104880500Y-65738999D01*
X104880500Y-64944366D01*
X104880129Y-64941819D01*
X104869866Y-64871375D01*
X104814826Y-64758789D01*
X104814825Y-64758788D01*
X104814825Y-64758787D01*
X104726212Y-64670174D01*
X104613625Y-64615134D01*
X104592615Y-64612073D01*
X104540636Y-64604500D01*
X104219364Y-64604500D01*
X104175570Y-64610880D01*
X104146373Y-64615134D01*
X104109458Y-64633181D01*
X104054998Y-64645780D01*
X104000539Y-64633180D01*
X103977013Y-64621679D01*
X103963626Y-64615134D01*
X103939295Y-64611589D01*
X103890636Y-64604500D01*
X103764746Y-64604500D01*
X103717293Y-64595061D01*
X103677065Y-64568181D01*
X103622189Y-64513305D01*
X103589212Y-64454220D01*
X103592164Y-64386620D01*
X103644856Y-64227606D01*
X103655000Y-64128315D01*
X103655000Y-64080000D01*
X102579000Y-64080000D01*
X102517000Y-64063387D01*
X102508613Y-64055000D01*
X104930001Y-64055000D01*
X104930001Y-64103315D01*
X104940143Y-64202605D01*
X104993453Y-64363486D01*
X105082426Y-64507732D01*
X105202267Y-64627573D01*
X105346513Y-64716546D01*
X105507393Y-64769856D01*
X105606685Y-64780000D01*
X105630000Y-64780000D01*
X105630000Y-64055000D01*
X104930001Y-64055000D01*
X102508613Y-64055000D01*
X102471613Y-64018000D01*
X102455000Y-63956000D01*
X102455000Y-62855001D01*
X102431685Y-62855001D01*
X102332394Y-62865143D01*
X102171513Y-62918453D01*
X102034158Y-63003176D01*
X101978246Y-63021297D01*
X101920270Y-63011636D01*
X101873257Y-62976362D01*
X101847767Y-62923402D01*
X101845706Y-62913699D01*
X101843000Y-62887935D01*
X101843000Y-62855000D01*
X102955000Y-62855000D01*
X102955000Y-63580000D01*
X103654999Y-63580000D01*
X103654999Y-63531685D01*
X103644856Y-63432394D01*
X103591546Y-63271513D01*
X103502573Y-63127267D01*
X103382732Y-63007426D01*
X103238486Y-62918453D01*
X103077606Y-62865143D01*
X102978315Y-62855000D01*
X102955000Y-62855000D01*
X101843000Y-62855000D01*
X101843000Y-62754500D01*
X101859613Y-62692500D01*
X101905000Y-62647113D01*
X101967000Y-62630500D01*
X102037223Y-62630500D01*
X102057285Y-62632133D01*
X102071271Y-62634427D01*
X102074061Y-62634486D01*
X102077779Y-62634567D01*
X102077779Y-62634566D01*
X102077783Y-62634567D01*
X102104271Y-62631384D01*
X102109218Y-62631088D01*
X102113252Y-62630500D01*
X102113260Y-62630500D01*
X102119406Y-62629603D01*
X102122394Y-62629207D01*
X102149111Y-62625998D01*
X102149116Y-62625996D01*
X102149829Y-62625911D01*
X102162198Y-62623369D01*
X102181393Y-62620573D01*
X102182997Y-62619788D01*
X102211197Y-62610000D01*
X102245197Y-62602633D01*
X102250979Y-62601526D01*
X102292848Y-62594548D01*
X102298836Y-62593700D01*
X102340271Y-62588865D01*
X102346365Y-62588307D01*
X102386068Y-62585662D01*
X102386071Y-62585661D01*
X102386073Y-62585661D01*
X102390551Y-62584496D01*
X102421775Y-62580500D01*
X102855662Y-62580500D01*
X102876728Y-62573655D01*
X102895643Y-62569112D01*
X102917533Y-62565646D01*
X102937271Y-62555587D01*
X102955245Y-62548142D01*
X102976319Y-62541296D01*
X102994250Y-62528267D01*
X103010827Y-62518109D01*
X103030571Y-62508050D01*
X103038903Y-62499717D01*
X103038909Y-62499713D01*
X103065604Y-62473018D01*
X103285923Y-62252697D01*
X103322091Y-62227587D01*
X103343662Y-62222082D01*
X103356512Y-62217289D01*
X103356514Y-62217289D01*
X103491362Y-62166994D01*
X103577624Y-62102419D01*
X103716390Y-61963651D01*
X103740637Y-61944787D01*
X103745517Y-61941883D01*
X103848209Y-61850733D01*
X103861934Y-61840169D01*
X103932317Y-61793455D01*
X103940162Y-61788658D01*
X104022929Y-61742195D01*
X104031202Y-61737344D01*
X104031944Y-61736890D01*
X104039884Y-61731828D01*
X104143124Y-61663307D01*
X104157646Y-61652920D01*
X104158943Y-61651922D01*
X104172737Y-61640517D01*
X104192827Y-61622686D01*
X104235574Y-61584744D01*
X104251412Y-61570686D01*
X104309291Y-61541856D01*
X104373815Y-61546085D01*
G37*
G04 #@! TD.AperFunction*
G04 #@! TA.AperFunction,Conductor*
G36*
X97383000Y-52172113D02*
G01*
X97428387Y-52217500D01*
X97445000Y-52279500D01*
X97445000Y-52945000D01*
X99071000Y-52945000D01*
X99133000Y-52961613D01*
X99178387Y-53007000D01*
X99195000Y-53069000D01*
X99195000Y-54695000D01*
X99552903Y-54695000D01*
X99617441Y-54713119D01*
X99663119Y-54762180D01*
X99676587Y-54827847D01*
X99675640Y-54841073D01*
X99676666Y-54845786D01*
X99679500Y-54872144D01*
X99679500Y-55556000D01*
X99662887Y-55618000D01*
X99617500Y-55663387D01*
X99555500Y-55680000D01*
X99505000Y-55680000D01*
X99505000Y-56706000D01*
X99488387Y-56768000D01*
X99443000Y-56813387D01*
X99381000Y-56830000D01*
X99129000Y-56830000D01*
X99067000Y-56813387D01*
X99021613Y-56768000D01*
X99005000Y-56706000D01*
X99005000Y-55680001D01*
X98923421Y-55680001D01*
X98852895Y-55686408D01*
X98690602Y-55736981D01*
X98545124Y-55824925D01*
X98424924Y-55945125D01*
X98410270Y-55969366D01*
X98360617Y-56015614D01*
X98294057Y-56028803D01*
X98230520Y-56004985D01*
X98192882Y-55977207D01*
X98150943Y-55962532D01*
X98064699Y-55932354D01*
X98064698Y-55932353D01*
X98064696Y-55932353D01*
X98034269Y-55929500D01*
X98034266Y-55929500D01*
X97375734Y-55929500D01*
X97375731Y-55929500D01*
X97345301Y-55932353D01*
X97281999Y-55954503D01*
X97278740Y-55955298D01*
X97250854Y-55965046D01*
X97247706Y-55966502D01*
X97217118Y-55977206D01*
X97107848Y-56057851D01*
X97093355Y-56077488D01*
X97065695Y-56104730D01*
X97014407Y-56141391D01*
X97001553Y-56149439D01*
X96989253Y-56156130D01*
X96929999Y-56171204D01*
X96870745Y-56156130D01*
X96858445Y-56149439D01*
X96845598Y-56141396D01*
X96794304Y-56104732D01*
X96766643Y-56077488D01*
X96752150Y-56057850D01*
X96642882Y-55977207D01*
X96642881Y-55977206D01*
X96642879Y-55977205D01*
X96612301Y-55966505D01*
X96609154Y-55965049D01*
X96581252Y-55955296D01*
X96577994Y-55954501D01*
X96514698Y-55932353D01*
X96484269Y-55929500D01*
X96484266Y-55929500D01*
X95825734Y-55929500D01*
X95825731Y-55929500D01*
X95795303Y-55932353D01*
X95667117Y-55977207D01*
X95594903Y-56030503D01*
X95531365Y-56054320D01*
X95464805Y-56041130D01*
X95415153Y-55994881D01*
X95385075Y-55945125D01*
X95264875Y-55824925D01*
X95119396Y-55736980D01*
X94957106Y-55686409D01*
X94886576Y-55680000D01*
X94805000Y-55680000D01*
X94805000Y-56706000D01*
X94788387Y-56768000D01*
X94743000Y-56813387D01*
X94681000Y-56830000D01*
X93580001Y-56830000D01*
X93580001Y-56836579D01*
X93586408Y-56907104D01*
X93636981Y-57069397D01*
X93724925Y-57214875D01*
X93845124Y-57335074D01*
X93990600Y-57423017D01*
X94005259Y-57427585D01*
X94061774Y-57464413D01*
X94090648Y-57525375D01*
X94083336Y-57592433D01*
X94042004Y-57645741D01*
X93957848Y-57707850D01*
X93877207Y-57817115D01*
X93832353Y-57945303D01*
X93829500Y-57975731D01*
X93829500Y-58484269D01*
X93832353Y-58514696D01*
X93861407Y-58597728D01*
X93866074Y-58662410D01*
X93837452Y-58720602D01*
X93783369Y-58756388D01*
X93671513Y-58793453D01*
X93527267Y-58882426D01*
X93407426Y-59002267D01*
X93318453Y-59146513D01*
X93265143Y-59307393D01*
X93255000Y-59406685D01*
X93255000Y-59456756D01*
X93238623Y-59518347D01*
X93193816Y-59563668D01*
X93132417Y-59580748D01*
X93070643Y-59565075D01*
X93024813Y-59520790D01*
X92998313Y-59476845D01*
X92980500Y-59412811D01*
X92980500Y-59330325D01*
X92968161Y-59268295D01*
X92965966Y-59257260D01*
X92910601Y-59174399D01*
X92844152Y-59130000D01*
X92955000Y-59130000D01*
X92980000Y-59105000D01*
X92980000Y-57905000D01*
X92955000Y-57880000D01*
X90855000Y-57880000D01*
X90855000Y-59130000D01*
X91115848Y-59130000D01*
X91049399Y-59174399D01*
X90994033Y-59257261D01*
X90979500Y-59330325D01*
X90979500Y-60379675D01*
X90994644Y-60455805D01*
X90994644Y-60504188D01*
X90974592Y-60604998D01*
X90974592Y-61226888D01*
X90984938Y-61298847D01*
X91025444Y-61436799D01*
X91032588Y-61452441D01*
X91055644Y-61502927D01*
X91133376Y-61623881D01*
X91180984Y-61678824D01*
X91200316Y-61695575D01*
X91289641Y-61772975D01*
X91289643Y-61772976D01*
X91289645Y-61772978D01*
X91338458Y-61804348D01*
X91350802Y-61812281D01*
X91450749Y-61857925D01*
X91481584Y-61872007D01*
X91486727Y-61873517D01*
X91490439Y-61874607D01*
X91536705Y-61899872D01*
X91568295Y-61942073D01*
X91579500Y-61993583D01*
X91579500Y-62163630D01*
X91563235Y-62225023D01*
X91518709Y-62270310D01*
X91470912Y-62298630D01*
X91460433Y-62304180D01*
X91372698Y-62345401D01*
X91360631Y-62350314D01*
X91277602Y-62379135D01*
X91264090Y-62382983D01*
X91181614Y-62401491D01*
X91154463Y-62404500D01*
X91075731Y-62404500D01*
X91045303Y-62407353D01*
X90917115Y-62452207D01*
X90807849Y-62532849D01*
X90727207Y-62642115D01*
X90682353Y-62770303D01*
X90679500Y-62800731D01*
X90679500Y-63309269D01*
X90682353Y-63339696D01*
X90727207Y-63467884D01*
X90807849Y-63577150D01*
X90917115Y-63657792D01*
X90917118Y-63657793D01*
X91045301Y-63702646D01*
X91057474Y-63703787D01*
X91075731Y-63705500D01*
X91075734Y-63705500D01*
X91248959Y-63705500D01*
X91306837Y-63719836D01*
X91351332Y-63759530D01*
X91372155Y-63815403D01*
X91364491Y-63874536D01*
X91330114Y-63923253D01*
X91325034Y-63927651D01*
X91310679Y-63940077D01*
X91299948Y-63948384D01*
X91234750Y-63993371D01*
X91221043Y-64001578D01*
X91165452Y-64030171D01*
X91148521Y-64037346D01*
X91126590Y-64044775D01*
X91117234Y-64047944D01*
X91081498Y-64053833D01*
X91081510Y-64053958D01*
X91079723Y-64054125D01*
X91077451Y-64054500D01*
X91075731Y-64054500D01*
X91045301Y-64057353D01*
X90981999Y-64079503D01*
X90978740Y-64080298D01*
X90950854Y-64090046D01*
X90947706Y-64091502D01*
X90917116Y-64102206D01*
X90850833Y-64151126D01*
X90788171Y-64174870D01*
X90722304Y-64162543D01*
X90713222Y-64158059D01*
X90668406Y-64143087D01*
X90660245Y-64140038D01*
X90611762Y-64119956D01*
X90454999Y-64099317D01*
X90298237Y-64119956D01*
X90152159Y-64180463D01*
X90026717Y-64276717D01*
X89930463Y-64402159D01*
X89869956Y-64548237D01*
X89849317Y-64704999D01*
X89869956Y-64861762D01*
X89930463Y-65007840D01*
X90026717Y-65133282D01*
X90134367Y-65215884D01*
X90152159Y-65229536D01*
X90298238Y-65290044D01*
X90314958Y-65292245D01*
X90377434Y-65319328D01*
X90416190Y-65375323D01*
X90419532Y-65443340D01*
X90386452Y-65502864D01*
X90058367Y-65830949D01*
X89997680Y-65864294D01*
X89928574Y-65859898D01*
X89872601Y-65819132D01*
X89847215Y-65754708D01*
X89845759Y-65738999D01*
X89841397Y-65691917D01*
X89785582Y-65495750D01*
X89784992Y-65494565D01*
X89694675Y-65313181D01*
X89571763Y-65150419D01*
X89421041Y-65013018D01*
X89247638Y-64905652D01*
X89057457Y-64831976D01*
X88973698Y-64816319D01*
X88856976Y-64794500D01*
X88653024Y-64794500D01*
X88570454Y-64809935D01*
X88452542Y-64831976D01*
X88262361Y-64905652D01*
X88088958Y-65013018D01*
X87938236Y-65150419D01*
X87808402Y-65322349D01*
X87807554Y-65321709D01*
X87771715Y-65361761D01*
X87709082Y-65381474D01*
X87645165Y-65366441D01*
X87597885Y-65320877D01*
X87580500Y-65257559D01*
X87580500Y-63992441D01*
X87597885Y-63929123D01*
X87645165Y-63883559D01*
X87709082Y-63868526D01*
X87771715Y-63888239D01*
X87807554Y-63928290D01*
X87808402Y-63927651D01*
X87938236Y-64099580D01*
X88088958Y-64236981D01*
X88262222Y-64344261D01*
X88262363Y-64344348D01*
X88452544Y-64418024D01*
X88653024Y-64455500D01*
X88856974Y-64455500D01*
X88856976Y-64455500D01*
X89057456Y-64418024D01*
X89247637Y-64344348D01*
X89421041Y-64236981D01*
X89515220Y-64151126D01*
X89571763Y-64099580D01*
X89580861Y-64087532D01*
X89694673Y-63936821D01*
X89694673Y-63936819D01*
X89694675Y-63936818D01*
X89754448Y-63816775D01*
X89785582Y-63754250D01*
X89841397Y-63558083D01*
X89860215Y-63355000D01*
X89841397Y-63151917D01*
X89834383Y-63127267D01*
X89817021Y-63066244D01*
X89785582Y-62955750D01*
X89778680Y-62941888D01*
X89694675Y-62773181D01*
X89571763Y-62610419D01*
X89421041Y-62473018D01*
X89247638Y-62365652D01*
X89057457Y-62291976D01*
X88941552Y-62270310D01*
X88856976Y-62254500D01*
X88653024Y-62254500D01*
X88568448Y-62270310D01*
X88452542Y-62291976D01*
X88262361Y-62365652D01*
X88088958Y-62473018D01*
X87938236Y-62610419D01*
X87808402Y-62782349D01*
X87807554Y-62781709D01*
X87771715Y-62821761D01*
X87709082Y-62841474D01*
X87645165Y-62826441D01*
X87597885Y-62780877D01*
X87580500Y-62717559D01*
X87580500Y-61452441D01*
X87597885Y-61389123D01*
X87645165Y-61343559D01*
X87709082Y-61328526D01*
X87771715Y-61348239D01*
X87807554Y-61388290D01*
X87808402Y-61387651D01*
X87938236Y-61559580D01*
X88088958Y-61696981D01*
X88235343Y-61787618D01*
X88262363Y-61804348D01*
X88452544Y-61878024D01*
X88653024Y-61915500D01*
X88856974Y-61915500D01*
X88856976Y-61915500D01*
X89057456Y-61878024D01*
X89247637Y-61804348D01*
X89421041Y-61696981D01*
X89485316Y-61638387D01*
X89571763Y-61559580D01*
X89614472Y-61503024D01*
X89694673Y-61396821D01*
X89694673Y-61396819D01*
X89694675Y-61396818D01*
X89768864Y-61247824D01*
X89785582Y-61214250D01*
X89841397Y-61018083D01*
X89860215Y-60815000D01*
X89841397Y-60611917D01*
X89839515Y-60605304D01*
X89808889Y-60497664D01*
X89785582Y-60415750D01*
X89778680Y-60401888D01*
X89694675Y-60233181D01*
X89571763Y-60070419D01*
X89421041Y-59933018D01*
X89247638Y-59825652D01*
X89057457Y-59751976D01*
X88990629Y-59739483D01*
X88856976Y-59714500D01*
X88653024Y-59714500D01*
X88552783Y-59733238D01*
X88452542Y-59751976D01*
X88262361Y-59825652D01*
X88088958Y-59933018D01*
X87938236Y-60070419D01*
X87808402Y-60242349D01*
X87807554Y-60241709D01*
X87771715Y-60281761D01*
X87709082Y-60301474D01*
X87645165Y-60286441D01*
X87597885Y-60240877D01*
X87580500Y-60177559D01*
X87580500Y-58912441D01*
X87597885Y-58849123D01*
X87645165Y-58803559D01*
X87709082Y-58788526D01*
X87771715Y-58808239D01*
X87807554Y-58848290D01*
X87808402Y-58847651D01*
X87938236Y-59019580D01*
X88088958Y-59156981D01*
X88234133Y-59246869D01*
X88262363Y-59264348D01*
X88452544Y-59338024D01*
X88653024Y-59375500D01*
X88856974Y-59375500D01*
X88856976Y-59375500D01*
X89057456Y-59338024D01*
X89247637Y-59264348D01*
X89421041Y-59156981D01*
X89571764Y-59019579D01*
X89694673Y-58856821D01*
X89694673Y-58856819D01*
X89694675Y-58856818D01*
X89748506Y-58748709D01*
X89785582Y-58674250D01*
X89841397Y-58478083D01*
X89860215Y-58275000D01*
X89841397Y-58071917D01*
X89827583Y-58023368D01*
X89813493Y-57973847D01*
X89785582Y-57875750D01*
X89773111Y-57850705D01*
X89694675Y-57693181D01*
X89571763Y-57530419D01*
X89421041Y-57393018D01*
X89247638Y-57285652D01*
X89057457Y-57211976D01*
X88979834Y-57197466D01*
X88856976Y-57174500D01*
X88653024Y-57174500D01*
X88572567Y-57189540D01*
X88452542Y-57211976D01*
X88262361Y-57285652D01*
X88088958Y-57393018D01*
X87938236Y-57530419D01*
X87808402Y-57702349D01*
X87807554Y-57701709D01*
X87771715Y-57741761D01*
X87709082Y-57761474D01*
X87645165Y-57746441D01*
X87597885Y-57700877D01*
X87580500Y-57637559D01*
X87580500Y-56330000D01*
X93580000Y-56330000D01*
X94305000Y-56330000D01*
X94305000Y-55680001D01*
X94223421Y-55680001D01*
X94152895Y-55686408D01*
X93990602Y-55736981D01*
X93845124Y-55824925D01*
X93724925Y-55945124D01*
X93636980Y-56090603D01*
X93586409Y-56252893D01*
X93580000Y-56323424D01*
X93580000Y-56330000D01*
X87580500Y-56330000D01*
X87580500Y-53859428D01*
X87580816Y-53850582D01*
X87590452Y-53715845D01*
X87597165Y-53621977D01*
X87599683Y-53604470D01*
X87599687Y-53604453D01*
X87634375Y-53445000D01*
X97445000Y-53445000D01*
X97445000Y-54242824D01*
X97451402Y-54302375D01*
X97501647Y-54437089D01*
X97587811Y-54552188D01*
X97702910Y-54638352D01*
X97837624Y-54688597D01*
X97897176Y-54695000D01*
X98695000Y-54695000D01*
X98695000Y-53445000D01*
X97445000Y-53445000D01*
X87634375Y-53445000D01*
X87647461Y-53384844D01*
X87652436Y-53367900D01*
X87730985Y-53157299D01*
X87738325Y-53141227D01*
X87846044Y-52943956D01*
X87855600Y-52929086D01*
X87990294Y-52749156D01*
X88001868Y-52735799D01*
X88160799Y-52576868D01*
X88174156Y-52565294D01*
X88354086Y-52430600D01*
X88368956Y-52421044D01*
X88566227Y-52313325D01*
X88582299Y-52305985D01*
X88792900Y-52227436D01*
X88809851Y-52222459D01*
X89029472Y-52174682D01*
X89046977Y-52172165D01*
X89275581Y-52155816D01*
X89284428Y-52155500D01*
X89327595Y-52155500D01*
X97321000Y-52155500D01*
X97383000Y-52172113D01*
G37*
G04 #@! TD.AperFunction*
G04 #@! TA.AperFunction,Conductor*
G36*
X103167500Y-65284113D02*
G01*
X103212887Y-65329500D01*
X103229500Y-65391500D01*
X103229500Y-65454382D01*
X103228239Y-65472021D01*
X103227021Y-65480500D01*
X103224999Y-65494566D01*
X103224999Y-65643500D01*
X103208386Y-65705500D01*
X103162999Y-65750887D01*
X103100999Y-65767500D01*
X102304000Y-65767500D01*
X102242000Y-65750887D01*
X102196613Y-65705500D01*
X102180000Y-65643500D01*
X102180000Y-65391500D01*
X102196613Y-65329500D01*
X102242000Y-65284113D01*
X102304000Y-65267500D01*
X103105500Y-65267500D01*
X103167500Y-65284113D01*
G37*
G04 #@! TD.AperFunction*
G04 #@! TA.AperFunction,Conductor*
G36*
X116212313Y-52155503D02*
G01*
X116232417Y-52155502D01*
X116232420Y-52155503D01*
X116275597Y-52155500D01*
X116284433Y-52155815D01*
X116513040Y-52172156D01*
X116530537Y-52174670D01*
X116750162Y-52222438D01*
X116767126Y-52227418D01*
X116977720Y-52305959D01*
X116993797Y-52313301D01*
X117174874Y-52412172D01*
X117191057Y-52421008D01*
X117205942Y-52430573D01*
X117385868Y-52565262D01*
X117399239Y-52576849D01*
X117558150Y-52735760D01*
X117569737Y-52749131D01*
X117704426Y-52929057D01*
X117713991Y-52943942D01*
X117821694Y-53141193D01*
X117829043Y-53157286D01*
X117830144Y-53160238D01*
X117907579Y-53367867D01*
X117912563Y-53384844D01*
X117960327Y-53604453D01*
X117962844Y-53621966D01*
X117979183Y-53850561D01*
X117979499Y-53859407D01*
X117979496Y-53922686D01*
X117979500Y-53922711D01*
X117979500Y-57737973D01*
X117962115Y-57801291D01*
X117914835Y-57846855D01*
X117850918Y-57861888D01*
X117788285Y-57842176D01*
X117744500Y-57793244D01*
X117694675Y-57693181D01*
X117571763Y-57530419D01*
X117421041Y-57393018D01*
X117247638Y-57285652D01*
X117057457Y-57211976D01*
X116979834Y-57197466D01*
X116856976Y-57174500D01*
X116653024Y-57174500D01*
X116572567Y-57189540D01*
X116452542Y-57211976D01*
X116262361Y-57285652D01*
X116088958Y-57393018D01*
X115938236Y-57530419D01*
X115815324Y-57693181D01*
X115724418Y-57875748D01*
X115668602Y-58071916D01*
X115649785Y-58274999D01*
X115668602Y-58478083D01*
X115724418Y-58674251D01*
X115815324Y-58856818D01*
X115938236Y-59019580D01*
X116088958Y-59156981D01*
X116234133Y-59246869D01*
X116262363Y-59264348D01*
X116452544Y-59338024D01*
X116653024Y-59375500D01*
X116856974Y-59375500D01*
X116856976Y-59375500D01*
X117057456Y-59338024D01*
X117247637Y-59264348D01*
X117421041Y-59156981D01*
X117571764Y-59019579D01*
X117694673Y-58856821D01*
X117694673Y-58856819D01*
X117694675Y-58856818D01*
X117744500Y-58756756D01*
X117788285Y-58707824D01*
X117850918Y-58688112D01*
X117914835Y-58703145D01*
X117962115Y-58748709D01*
X117979500Y-58812027D01*
X117979500Y-60277973D01*
X117962115Y-60341291D01*
X117914835Y-60386855D01*
X117850918Y-60401888D01*
X117788285Y-60382176D01*
X117744500Y-60333244D01*
X117694675Y-60233181D01*
X117571763Y-60070419D01*
X117421041Y-59933018D01*
X117247638Y-59825652D01*
X117057457Y-59751976D01*
X116990629Y-59739483D01*
X116856976Y-59714500D01*
X116653024Y-59714500D01*
X116552783Y-59733238D01*
X116452542Y-59751976D01*
X116262361Y-59825652D01*
X116088958Y-59933018D01*
X115938236Y-60070419D01*
X115815324Y-60233181D01*
X115724418Y-60415748D01*
X115668602Y-60611916D01*
X115649785Y-60815000D01*
X115668602Y-61018083D01*
X115724418Y-61214251D01*
X115815324Y-61396818D01*
X115938236Y-61559580D01*
X116088958Y-61696981D01*
X116235343Y-61787618D01*
X116262363Y-61804348D01*
X116452544Y-61878024D01*
X116653024Y-61915500D01*
X116856974Y-61915500D01*
X116856976Y-61915500D01*
X117057456Y-61878024D01*
X117247637Y-61804348D01*
X117421041Y-61696981D01*
X117485316Y-61638387D01*
X117571763Y-61559580D01*
X117614472Y-61503024D01*
X117694673Y-61396821D01*
X117694673Y-61396819D01*
X117694675Y-61396818D01*
X117744500Y-61296756D01*
X117788285Y-61247824D01*
X117850918Y-61228112D01*
X117914835Y-61243145D01*
X117962115Y-61288709D01*
X117979500Y-61352027D01*
X117979500Y-62817973D01*
X117962115Y-62881291D01*
X117914835Y-62926855D01*
X117850918Y-62941888D01*
X117788285Y-62922176D01*
X117744500Y-62873244D01*
X117694675Y-62773181D01*
X117571763Y-62610419D01*
X117421041Y-62473018D01*
X117247638Y-62365652D01*
X117057457Y-62291976D01*
X116941552Y-62270310D01*
X116856976Y-62254500D01*
X116653024Y-62254500D01*
X116568448Y-62270310D01*
X116452542Y-62291976D01*
X116373462Y-62322611D01*
X116371720Y-62323188D01*
X116371747Y-62323259D01*
X116363664Y-62326254D01*
X116363663Y-62326255D01*
X116298750Y-62350314D01*
X116297123Y-62350917D01*
X116295546Y-62351767D01*
X116281546Y-62358219D01*
X116262363Y-62365651D01*
X116215776Y-62394495D01*
X116209324Y-62398226D01*
X115967760Y-62528394D01*
X115947370Y-62540639D01*
X115945576Y-62541833D01*
X115926465Y-62555877D01*
X115699849Y-62739201D01*
X115697602Y-62741039D01*
X115540502Y-62870934D01*
X115514229Y-62887593D01*
X115372131Y-62954374D01*
X115333731Y-62965318D01*
X115156983Y-62985899D01*
X115035796Y-63000010D01*
X115035794Y-63000010D01*
X115024566Y-63001318D01*
X115024552Y-63001202D01*
X115002567Y-63004500D01*
X110276544Y-63004500D01*
X110229091Y-62995061D01*
X110188863Y-62968181D01*
X109916819Y-62696137D01*
X109889939Y-62655909D01*
X109880500Y-62608456D01*
X109880500Y-62029000D01*
X109897113Y-61967000D01*
X109942500Y-61921613D01*
X110004500Y-61905000D01*
X111605000Y-61905000D01*
X111605000Y-59755000D01*
X112105000Y-59755000D01*
X112105000Y-61905000D01*
X113802824Y-61905000D01*
X113862375Y-61898597D01*
X113997089Y-61848352D01*
X114112188Y-61762188D01*
X114198352Y-61647089D01*
X114248597Y-61512375D01*
X114255000Y-61452824D01*
X114255000Y-59755000D01*
X112105000Y-59755000D01*
X111605000Y-59755000D01*
X109455000Y-59755000D01*
X109455000Y-59759956D01*
X109441485Y-59816251D01*
X109403885Y-59860274D01*
X109350398Y-59882429D01*
X109292682Y-59877887D01*
X109243319Y-59847637D01*
X108762638Y-59366956D01*
X108746509Y-59347094D01*
X108741437Y-59339330D01*
X108718533Y-59321504D01*
X108707508Y-59311768D01*
X108691653Y-59300448D01*
X108687544Y-59297384D01*
X108643229Y-59262892D01*
X108589409Y-59246869D01*
X108584531Y-59245306D01*
X108531421Y-59227074D01*
X108475332Y-59229394D01*
X108470208Y-59229500D01*
X108274655Y-59229500D01*
X108223091Y-59218270D01*
X108180866Y-59186615D01*
X108155629Y-59140267D01*
X108151951Y-59087622D01*
X108155500Y-59063263D01*
X108155500Y-58928485D01*
X108168288Y-58873641D01*
X108204014Y-58830108D01*
X108232925Y-58807923D01*
X108329100Y-58682586D01*
X108389555Y-58536632D01*
X108397012Y-58480000D01*
X107850678Y-58480000D01*
X107843778Y-58479500D01*
X107838260Y-58479500D01*
X106496740Y-58479500D01*
X106491222Y-58479500D01*
X106484322Y-58480000D01*
X105937990Y-58480000D01*
X105937988Y-58480001D01*
X105945443Y-58536631D01*
X106005899Y-58682586D01*
X106102074Y-58807923D01*
X106130986Y-58830108D01*
X106166712Y-58873641D01*
X106179500Y-58928485D01*
X106179500Y-59063263D01*
X106183049Y-59087622D01*
X106179371Y-59140267D01*
X106154134Y-59186615D01*
X106111909Y-59218270D01*
X106060345Y-59229500D01*
X105834968Y-59229500D01*
X105809522Y-59226861D01*
X105800446Y-59224958D01*
X105771645Y-59228548D01*
X105756964Y-59229459D01*
X105737747Y-59232665D01*
X105732685Y-59233402D01*
X105676953Y-59240350D01*
X105627574Y-59267072D01*
X105623022Y-59269415D01*
X105572565Y-59294082D01*
X105534541Y-59335387D01*
X105530994Y-59339083D01*
X105191955Y-59678122D01*
X105172104Y-59694244D01*
X105164332Y-59699322D01*
X105146500Y-59722232D01*
X105136765Y-59733257D01*
X105125441Y-59749118D01*
X105122392Y-59753206D01*
X105115857Y-59761604D01*
X105087891Y-59797534D01*
X105071871Y-59851343D01*
X105070308Y-59856221D01*
X105062924Y-59877730D01*
X105028679Y-59929561D01*
X104973592Y-59958277D01*
X104911491Y-59956672D01*
X104857962Y-59925149D01*
X104634267Y-59701453D01*
X104601187Y-59641928D01*
X104604529Y-59573912D01*
X104643285Y-59517917D01*
X104705761Y-59490833D01*
X104711762Y-59490044D01*
X104857841Y-59429536D01*
X104983282Y-59333282D01*
X105079536Y-59207841D01*
X105140044Y-59061762D01*
X105160682Y-58905000D01*
X105140044Y-58748238D01*
X105079536Y-58602159D01*
X105076136Y-58597728D01*
X104983282Y-58476717D01*
X104860985Y-58382876D01*
X104823191Y-58334935D01*
X104812853Y-58274771D01*
X104832476Y-58216965D01*
X104877303Y-58175527D01*
X104936471Y-58160500D01*
X104970485Y-58160500D01*
X104980000Y-58161123D01*
X104989515Y-58160500D01*
X106265785Y-58160500D01*
X106265786Y-58160500D01*
X106323373Y-58153926D01*
X106377833Y-58141327D01*
X106405207Y-58131612D01*
X106432455Y-58121942D01*
X106432456Y-58121941D01*
X106432460Y-58121940D01*
X106442949Y-58116811D01*
X106493569Y-58104269D01*
X106544869Y-58113648D01*
X106548237Y-58115043D01*
X106548238Y-58115044D01*
X106704999Y-58135682D01*
X106704999Y-58135681D01*
X106705000Y-58135682D01*
X106861762Y-58115044D01*
X106898248Y-58099930D01*
X106911508Y-58094439D01*
X106948228Y-58087134D01*
X106948077Y-58085597D01*
X106998850Y-58080597D01*
X107011002Y-58080000D01*
X108397010Y-58080000D01*
X108397011Y-58079998D01*
X108389556Y-58023368D01*
X108329100Y-57877413D01*
X108232924Y-57752075D01*
X108107586Y-57655899D01*
X107961631Y-57595444D01*
X107844323Y-57580000D01*
X107459500Y-57580000D01*
X107397500Y-57563387D01*
X107352113Y-57518000D01*
X107335500Y-57456000D01*
X107335500Y-57431362D01*
X107330591Y-57381516D01*
X107329233Y-57374689D01*
X107323039Y-57343550D01*
X107326052Y-57283178D01*
X107357252Y-57231402D01*
X107409224Y-57200530D01*
X107469613Y-57197898D01*
X107628259Y-57230500D01*
X109382440Y-57230500D01*
X109439915Y-57244624D01*
X109484296Y-57283780D01*
X109505473Y-57339047D01*
X109498622Y-57397834D01*
X109461402Y-57497624D01*
X109455000Y-57557176D01*
X109455000Y-59255000D01*
X111605000Y-59255000D01*
X111605000Y-57105000D01*
X112105000Y-57105000D01*
X112105000Y-59255000D01*
X114255000Y-59255000D01*
X114255000Y-57557176D01*
X114248597Y-57497624D01*
X114198352Y-57362910D01*
X114112188Y-57247811D01*
X113997089Y-57161647D01*
X113862375Y-57111402D01*
X113802824Y-57105000D01*
X112105000Y-57105000D01*
X111605000Y-57105000D01*
X110970703Y-57105000D01*
X110905115Y-57086234D01*
X110859379Y-57035616D01*
X110847338Y-56968467D01*
X110872636Y-56905113D01*
X110877519Y-56898804D01*
X110887880Y-56887039D01*
X111164432Y-56610487D01*
X111220700Y-56578214D01*
X111285566Y-56578768D01*
X111416445Y-56615440D01*
X111707902Y-56655500D01*
X112002098Y-56655500D01*
X112293555Y-56615440D01*
X112576841Y-56536067D01*
X112846682Y-56418859D01*
X113098049Y-56265999D01*
X113326260Y-56080335D01*
X113527065Y-55865326D01*
X113538160Y-55849609D01*
X113696720Y-55624979D01*
X113696722Y-55624976D01*
X113832072Y-55363764D01*
X113930592Y-55086554D01*
X113990448Y-54798511D01*
X114010525Y-54505000D01*
X113990448Y-54211489D01*
X113975700Y-54140520D01*
X113930592Y-53923446D01*
X113921133Y-53896830D01*
X113832072Y-53646236D01*
X113696722Y-53385024D01*
X113696720Y-53385020D01*
X113527066Y-53144674D01*
X113326260Y-52929665D01*
X113098048Y-52744000D01*
X112846680Y-52591139D01*
X112576846Y-52473935D01*
X112576844Y-52473934D01*
X112576841Y-52473933D01*
X112309050Y-52398901D01*
X112257869Y-52370124D01*
X112225666Y-52321025D01*
X112219661Y-52262615D01*
X112241202Y-52207992D01*
X112285458Y-52169402D01*
X112342506Y-52155500D01*
X116212289Y-52155500D01*
X116212313Y-52155503D01*
G37*
G04 #@! TD.AperFunction*
G04 #@! TA.AperFunction,Conductor*
G36*
X98539253Y-58653868D02*
G01*
X98551564Y-58660565D01*
X98564411Y-58668608D01*
X98572305Y-58674251D01*
X98615688Y-58705260D01*
X98643351Y-58732505D01*
X98657850Y-58752151D01*
X98727252Y-58803371D01*
X98767118Y-58832793D01*
X98797627Y-58843468D01*
X98797647Y-58843475D01*
X98800781Y-58844926D01*
X98810532Y-58848335D01*
X98810534Y-58848336D01*
X98818901Y-58851261D01*
X98818902Y-58851261D01*
X98828776Y-58854713D01*
X98832029Y-58855505D01*
X98895301Y-58877646D01*
X98907474Y-58878787D01*
X98925731Y-58880500D01*
X98925734Y-58880500D01*
X98991563Y-58880500D01*
X99047858Y-58894015D01*
X99091881Y-58931615D01*
X99114036Y-58985102D01*
X99109494Y-59042818D01*
X99079244Y-59092181D01*
X98623569Y-59547854D01*
X98602936Y-59564483D01*
X98598872Y-59567094D01*
X98566351Y-59604625D01*
X98560330Y-59611093D01*
X98550777Y-59620647D01*
X98542677Y-59631466D01*
X98537132Y-59638346D01*
X98504624Y-59675863D01*
X98502618Y-59680256D01*
X98489098Y-59703041D01*
X98486203Y-59706907D01*
X98468851Y-59753430D01*
X98465466Y-59761604D01*
X98444834Y-59806784D01*
X98444147Y-59811562D01*
X98437596Y-59837229D01*
X98435909Y-59841752D01*
X98432365Y-59891292D01*
X98431420Y-59900076D01*
X98430039Y-59909696D01*
X98429500Y-59913443D01*
X98429500Y-59926931D01*
X98429184Y-59935778D01*
X98425640Y-59985312D01*
X98426666Y-59990025D01*
X98429500Y-60016383D01*
X98429500Y-60365544D01*
X98414332Y-60424971D01*
X98372539Y-60469860D01*
X98314345Y-60489228D01*
X98253988Y-60478338D01*
X98227553Y-60457035D01*
X98226461Y-60458495D01*
X98097089Y-60361647D01*
X97962375Y-60311402D01*
X97902824Y-60305000D01*
X97855000Y-60305000D01*
X97855000Y-60761459D01*
X97847797Y-60789189D01*
X97855000Y-60816612D01*
X97855000Y-61531000D01*
X97838387Y-61593000D01*
X97793000Y-61638387D01*
X97731000Y-61655000D01*
X97729500Y-61655000D01*
X97667500Y-61638387D01*
X97622113Y-61593000D01*
X97605500Y-61531000D01*
X97605500Y-60841827D01*
X97605719Y-60834463D01*
X97607219Y-60809248D01*
X97613608Y-60789722D01*
X97612528Y-60786725D01*
X97610281Y-60787284D01*
X97608014Y-60778154D01*
X97593910Y-60721366D01*
X97592642Y-60715689D01*
X97590149Y-60703154D01*
X97586583Y-60696501D01*
X97583768Y-60689746D01*
X97581963Y-60685159D01*
X97576758Y-60671107D01*
X97575410Y-60667275D01*
X97569022Y-60648106D01*
X97567991Y-60644863D01*
X97560829Y-60621228D01*
X97555500Y-60585268D01*
X97555500Y-59135948D01*
X97570085Y-59077601D01*
X97610407Y-59032981D01*
X97673520Y-58990633D01*
X97685135Y-58983727D01*
X97691190Y-58980560D01*
X97767741Y-58940519D01*
X97781645Y-58934303D01*
X97857352Y-58905903D01*
X97873420Y-58901089D01*
X97904978Y-58893920D01*
X97950493Y-58883581D01*
X97977961Y-58880500D01*
X98034269Y-58880500D01*
X98049482Y-58879072D01*
X98064699Y-58877646D01*
X98127975Y-58855503D01*
X98131225Y-58854712D01*
X98141095Y-58851261D01*
X98141098Y-58851261D01*
X98149465Y-58848336D01*
X98149467Y-58848334D01*
X98159243Y-58844917D01*
X98162366Y-58843470D01*
X98192882Y-58832793D01*
X98302150Y-58752150D01*
X98316651Y-58732500D01*
X98344309Y-58705259D01*
X98395597Y-58668600D01*
X98408419Y-58660573D01*
X98420748Y-58653865D01*
X98480000Y-58638794D01*
X98539253Y-58653868D01*
G37*
G04 #@! TD.AperFunction*
G04 #@! TA.AperFunction,Conductor*
G36*
X94393000Y-59471613D02*
G01*
X94438387Y-59517000D01*
X94455000Y-59579000D01*
X94455000Y-60679999D01*
X94478315Y-60679999D01*
X94577605Y-60669856D01*
X94738486Y-60616546D01*
X94882732Y-60527573D01*
X95002571Y-60407734D01*
X95038348Y-60349731D01*
X95088333Y-60303969D01*
X95154911Y-60291319D01*
X95218197Y-60315561D01*
X95284967Y-60365544D01*
X95299774Y-60376628D01*
X95358626Y-60398579D01*
X95412876Y-60438254D01*
X95438457Y-60500405D01*
X95427854Y-60566774D01*
X95384182Y-60617862D01*
X95379145Y-60621228D01*
X95374399Y-60624399D01*
X95346716Y-60665829D01*
X95319033Y-60707261D01*
X95304500Y-60780325D01*
X95304500Y-61030500D01*
X95287887Y-61092500D01*
X95242500Y-61137887D01*
X95180500Y-61154500D01*
X94101544Y-61154500D01*
X94054091Y-61145061D01*
X94013863Y-61118181D01*
X93781636Y-60885954D01*
X93750630Y-60834182D01*
X93747735Y-60773904D01*
X93773636Y-60719399D01*
X93822199Y-60683574D01*
X93881921Y-60674915D01*
X93931688Y-60680000D01*
X93955000Y-60680000D01*
X93955000Y-59579000D01*
X93971613Y-59517000D01*
X94017000Y-59471613D01*
X94079000Y-59455000D01*
X94331000Y-59455000D01*
X94393000Y-59471613D01*
G37*
G04 #@! TD.AperFunction*
G04 #@! TA.AperFunction,Conductor*
G36*
X106287592Y-55496613D02*
G01*
X106332979Y-55542000D01*
X106349592Y-55604000D01*
X106349592Y-56980001D01*
X106369033Y-57077738D01*
X106369033Y-57077739D01*
X106369034Y-57077740D01*
X106424399Y-57160601D01*
X106507260Y-57215966D01*
X106552988Y-57225062D01*
X106604999Y-57235408D01*
X106884046Y-57235408D01*
X106931499Y-57244847D01*
X106971727Y-57271727D01*
X107043681Y-57343681D01*
X107070561Y-57383909D01*
X107080000Y-57431362D01*
X107080000Y-57703638D01*
X107070561Y-57751091D01*
X107043681Y-57791319D01*
X107041819Y-57793181D01*
X107001591Y-57820061D01*
X106954138Y-57829500D01*
X106496737Y-57829500D01*
X106428609Y-57839426D01*
X106320246Y-57892401D01*
X106265786Y-57905000D01*
X104831362Y-57905000D01*
X104783909Y-57895561D01*
X104743681Y-57868681D01*
X104666319Y-57791319D01*
X104639439Y-57751091D01*
X104630000Y-57703638D01*
X104630000Y-57431362D01*
X104639439Y-57383909D01*
X104666319Y-57343681D01*
X104738273Y-57271727D01*
X104778501Y-57244847D01*
X104825954Y-57235408D01*
X105105001Y-57235408D01*
X105137580Y-57228927D01*
X105202740Y-57215966D01*
X105285601Y-57160601D01*
X105340966Y-57077740D01*
X105353927Y-57012580D01*
X105360408Y-56980001D01*
X105360408Y-55604000D01*
X105377021Y-55542000D01*
X105422408Y-55496613D01*
X105484408Y-55480000D01*
X106225592Y-55480000D01*
X106287592Y-55496613D01*
G37*
G04 #@! TD.AperFunction*
G04 #@! TA.AperFunction,Conductor*
G36*
X100143000Y-69046613D02*
G01*
X100188387Y-69092000D01*
X100205000Y-69154000D01*
X100205000Y-72256000D01*
X100188387Y-72318000D01*
X100143000Y-72363387D01*
X100081000Y-72380000D01*
X97656362Y-72380000D01*
X97608909Y-72370561D01*
X97568681Y-72343681D01*
X97216319Y-71991319D01*
X97189439Y-71951091D01*
X97180000Y-71903638D01*
X97180000Y-69506362D01*
X97189439Y-69458909D01*
X97216319Y-69418681D01*
X97568681Y-69066319D01*
X97608909Y-69039439D01*
X97656362Y-69030000D01*
X100081000Y-69030000D01*
X100143000Y-69046613D01*
G37*
G04 #@! TD.AperFunction*
G04 #@! TA.AperFunction,Conductor*
G36*
X107715727Y-77426837D02*
G01*
X107942651Y-77581827D01*
X108066013Y-77646393D01*
X108180018Y-77706063D01*
X108180021Y-77706064D01*
X108417391Y-77792413D01*
X108654761Y-77840874D01*
X108887593Y-77851244D01*
X108895344Y-77854659D01*
X109020929Y-77980244D01*
X109024265Y-77987059D01*
X109022718Y-77994487D01*
X109016940Y-77999404D01*
X108823049Y-78075698D01*
X108612551Y-78198429D01*
X108402042Y-78361068D01*
X108191548Y-78563598D01*
X108191543Y-78563603D01*
X108076149Y-78696503D01*
X107988525Y-78797421D01*
X107980656Y-78801410D01*
X107972239Y-78798770D01*
X107442369Y-78361068D01*
X107261899Y-78211990D01*
X107257839Y-78205063D01*
X107259202Y-78197150D01*
X107698984Y-77430675D01*
X107703520Y-77426233D01*
X107709710Y-77424814D01*
X107715727Y-77426837D01*
G37*
G04 #@! TD.AperFunction*
G04 #@! TA.AperFunction,Conductor*
G36*
X109559504Y-72805879D02*
G01*
X109866854Y-72934138D01*
X109871797Y-72938036D01*
X109874005Y-72943930D01*
X109872839Y-72950116D01*
X109810701Y-73075966D01*
X109810070Y-73077085D01*
X109749426Y-73172013D01*
X109700086Y-73255261D01*
X109667051Y-73356274D01*
X109667050Y-73356277D01*
X109667051Y-73356277D01*
X109655871Y-73494246D01*
X109652142Y-73501901D01*
X109644210Y-73505000D01*
X109465790Y-73505000D01*
X109457858Y-73501901D01*
X109454128Y-73494245D01*
X109442948Y-73356277D01*
X109409911Y-73255261D01*
X109360564Y-73172001D01*
X109299923Y-73077076D01*
X109299301Y-73075974D01*
X109237159Y-72950114D01*
X109235994Y-72943930D01*
X109238202Y-72938036D01*
X109243143Y-72934139D01*
X109550495Y-72805879D01*
X109555000Y-72804978D01*
X109559504Y-72805879D01*
G37*
G04 #@! TD.AperFunction*
G04 #@! TA.AperFunction,Conductor*
G36*
X114806773Y-77427114D02*
G01*
X114811625Y-77431719D01*
X115252649Y-78199170D01*
X115254205Y-78205000D01*
X115252649Y-78210830D01*
X114811625Y-78978280D01*
X114806773Y-78982885D01*
X114800191Y-78984079D01*
X114794031Y-78981471D01*
X114529778Y-78763240D01*
X114254830Y-78581177D01*
X113979889Y-78444120D01*
X113979887Y-78444119D01*
X113704943Y-78352059D01*
X113704938Y-78352058D01*
X113620076Y-78337533D01*
X113439725Y-78306664D01*
X113432756Y-78302676D01*
X113430000Y-78295133D01*
X113430000Y-78114867D01*
X113432756Y-78107324D01*
X113439725Y-78103335D01*
X113704943Y-78057940D01*
X113979887Y-77965880D01*
X114254831Y-77828821D01*
X114529775Y-77646761D01*
X114794032Y-77428527D01*
X114800191Y-77425920D01*
X114806773Y-77427114D01*
G37*
G04 #@! TD.AperFunction*
G04 #@! TA.AperFunction,Conductor*
G36*
X112564737Y-71418625D02*
G01*
X113000792Y-72073580D01*
X113048946Y-72145907D01*
X113050751Y-72154298D01*
X113046344Y-72161662D01*
X112975000Y-72216581D01*
X112895000Y-72297371D01*
X112815000Y-72397369D01*
X112735000Y-72516577D01*
X112658378Y-72649155D01*
X112654096Y-72653434D01*
X112648248Y-72655000D01*
X112461752Y-72655000D01*
X112455904Y-72653434D01*
X112451622Y-72649155D01*
X112374998Y-72516577D01*
X112334207Y-72455795D01*
X112295000Y-72397371D01*
X112214999Y-72297371D01*
X112134999Y-72216581D01*
X112063655Y-72161662D01*
X112059248Y-72154298D01*
X112061052Y-72145909D01*
X112545262Y-71418625D01*
X112551233Y-71414034D01*
X112558767Y-71414034D01*
X112564737Y-71418625D01*
G37*
G04 #@! TD.AperFunction*
G04 #@! TA.AperFunction,Conductor*
G36*
X104327928Y-58404329D02*
G01*
X104332026Y-58410928D01*
X104349524Y-58490171D01*
X104402932Y-58529670D01*
X104442701Y-58536308D01*
X104482469Y-58542947D01*
X104525092Y-58547194D01*
X104579449Y-58552611D01*
X104581300Y-58552947D01*
X104676047Y-58578205D01*
X104681647Y-58581594D01*
X104684551Y-58587464D01*
X104683845Y-58593975D01*
X104556859Y-58901497D01*
X104554312Y-58905311D01*
X104550494Y-58907852D01*
X104240995Y-59035093D01*
X104232836Y-59035368D01*
X104226483Y-59030241D01*
X104152787Y-58906000D01*
X104134528Y-58875217D01*
X104028003Y-58772801D01*
X103931116Y-58689596D01*
X103928966Y-58687152D01*
X103928925Y-58687091D01*
X103859325Y-58581344D01*
X103857542Y-58576735D01*
X103832127Y-58415270D01*
X103833001Y-58408685D01*
X103837317Y-58403636D01*
X103843686Y-58401751D01*
X104320601Y-58401751D01*
X104327928Y-58404329D01*
G37*
G04 #@! TD.AperFunction*
G04 #@! TA.AperFunction,Conductor*
G36*
X102250295Y-60669005D02*
G01*
X102254569Y-60671727D01*
X102380108Y-60797266D01*
X102383421Y-60803906D01*
X102382072Y-60811204D01*
X102376606Y-60816222D01*
X102349706Y-60828235D01*
X102307282Y-60853181D01*
X102264847Y-60884132D01*
X102222426Y-60921075D01*
X102183990Y-60959982D01*
X102179564Y-60962791D01*
X102174355Y-60963385D01*
X101451588Y-60881812D01*
X101444405Y-60878232D01*
X101441220Y-60870865D01*
X101440191Y-60853183D01*
X101430881Y-60693122D01*
X101432317Y-60686792D01*
X101436909Y-60682200D01*
X101443240Y-60680765D01*
X101594236Y-60689573D01*
X101605177Y-60689811D01*
X101758340Y-60693147D01*
X101758348Y-60693146D01*
X101758354Y-60693147D01*
X101922473Y-60690720D01*
X102086591Y-60682294D01*
X102245275Y-60668345D01*
X102250295Y-60669005D01*
G37*
G04 #@! TD.AperFunction*
G04 #@! TA.AperFunction,Conductor*
G36*
X102457094Y-57648350D02*
G01*
X102764630Y-57776687D01*
X102769534Y-57780533D01*
X102771768Y-57786352D01*
X102770697Y-57792493D01*
X102712115Y-57916166D01*
X102711715Y-57916934D01*
X102657887Y-58011732D01*
X102616246Y-58095417D01*
X102589468Y-58196028D01*
X102580710Y-58331076D01*
X102577036Y-58338856D01*
X102569035Y-58342019D01*
X102390596Y-58342019D01*
X102382742Y-58338991D01*
X102378953Y-58331476D01*
X102376064Y-58302400D01*
X102365201Y-58193035D01*
X102325572Y-58093734D01*
X102291660Y-58045877D01*
X102291525Y-58045682D01*
X102260601Y-57999399D01*
X102260600Y-57999398D01*
X102258308Y-57997866D01*
X102255333Y-57995000D01*
X102200950Y-57919884D01*
X102200033Y-57918395D01*
X102135062Y-57792689D01*
X102133788Y-57786454D01*
X102135965Y-57780475D01*
X102140947Y-57776521D01*
X102448085Y-57648350D01*
X102452590Y-57647449D01*
X102457094Y-57648350D01*
G37*
G04 #@! TD.AperFunction*
G04 #@! TA.AperFunction,Conductor*
G36*
X103153173Y-56500941D02*
G01*
X103159099Y-56507182D01*
X103229998Y-56683173D01*
X103304987Y-56860320D01*
X103380003Y-57028529D01*
X103447203Y-57171146D01*
X103455000Y-57187693D01*
X103497747Y-57273286D01*
X103521546Y-57320937D01*
X103522510Y-57328659D01*
X103518418Y-57335277D01*
X103511079Y-57337865D01*
X103033976Y-57337865D01*
X103026848Y-57335443D01*
X102945949Y-57273286D01*
X102861918Y-57217722D01*
X102777861Y-57171143D01*
X102693821Y-57133572D01*
X102620510Y-57108648D01*
X102613863Y-57102906D01*
X102613085Y-57094159D01*
X102753231Y-56634795D01*
X102756056Y-56630032D01*
X102760753Y-56627101D01*
X103144583Y-56500443D01*
X103153173Y-56500941D01*
G37*
G04 #@! TD.AperFunction*
G04 #@! TA.AperFunction,Conductor*
G36*
X103155333Y-60080194D02*
G01*
X103159145Y-60082751D01*
X103295760Y-60220148D01*
X103394414Y-60319368D01*
X103397817Y-60327524D01*
X103394544Y-60335733D01*
X103301681Y-60432152D01*
X103233408Y-60509637D01*
X103176159Y-60577853D01*
X103175975Y-60578067D01*
X103107966Y-60655252D01*
X103107615Y-60655633D01*
X103015262Y-60751527D01*
X103010005Y-60754673D01*
X103003878Y-60754731D01*
X102998562Y-60751684D01*
X102872271Y-60625393D01*
X102868908Y-60618342D01*
X102870732Y-60610747D01*
X102891960Y-60578067D01*
X102932867Y-60515092D01*
X102927045Y-60424337D01*
X102881517Y-60331513D01*
X102830370Y-60223129D01*
X102829427Y-60220152D01*
X102807384Y-60093679D01*
X102808170Y-60087031D01*
X102812474Y-60081901D01*
X102818885Y-60079972D01*
X103150831Y-60079302D01*
X103155333Y-60080194D01*
G37*
G04 #@! TD.AperFunction*
G04 #@! TA.AperFunction,Conductor*
G36*
X100227142Y-63583099D02*
G01*
X100230871Y-63590753D01*
X100239388Y-63695858D01*
X100242051Y-63728724D01*
X100275086Y-63829737D01*
X100324426Y-63912985D01*
X100385070Y-64007913D01*
X100385701Y-64009032D01*
X100447839Y-64134883D01*
X100449005Y-64141069D01*
X100446797Y-64146963D01*
X100441854Y-64150861D01*
X100134506Y-64279119D01*
X100130000Y-64280021D01*
X100125494Y-64279119D01*
X99818145Y-64150861D01*
X99813202Y-64146963D01*
X99810994Y-64141069D01*
X99812159Y-64134886D01*
X99874305Y-64009016D01*
X99874918Y-64007929D01*
X99935564Y-63912998D01*
X99984911Y-63829738D01*
X100017948Y-63728722D01*
X100029128Y-63590753D01*
X100032858Y-63583099D01*
X100040790Y-63580000D01*
X100219210Y-63580000D01*
X100227142Y-63583099D01*
G37*
G04 #@! TD.AperFunction*
G04 #@! TA.AperFunction,Conductor*
G36*
X96475028Y-67761914D02*
G01*
X96565088Y-67804735D01*
X96598876Y-67820800D01*
X96599677Y-67821219D01*
X96646477Y-67848084D01*
X96694505Y-67875655D01*
X96778152Y-67917972D01*
X96878802Y-67945302D01*
X97014101Y-67954275D01*
X97021869Y-67957954D01*
X97025027Y-67965949D01*
X97025027Y-68144387D01*
X97021993Y-68152247D01*
X97014465Y-68156032D01*
X96876072Y-68169558D01*
X96776617Y-68208608D01*
X96695472Y-68265257D01*
X96602377Y-68331944D01*
X96600920Y-68332835D01*
X96475211Y-68397555D01*
X96468980Y-68398820D01*
X96463008Y-68396640D01*
X96459057Y-68391659D01*
X96406309Y-68265257D01*
X96330879Y-68084504D01*
X96329978Y-68080000D01*
X96330880Y-68075494D01*
X96381163Y-67955000D01*
X96459210Y-67767973D01*
X96463060Y-67763066D01*
X96468886Y-67760835D01*
X96475028Y-67761914D01*
G37*
G04 #@! TD.AperFunction*
G04 #@! TA.AperFunction,Conductor*
G36*
X99011232Y-67678704D02*
G01*
X99209150Y-67894721D01*
X99348758Y-68047096D01*
X99351831Y-68055000D01*
X99348758Y-68062904D01*
X99011234Y-68431294D01*
X99003217Y-68435074D01*
X98994850Y-68432149D01*
X98993884Y-68431294D01*
X98898770Y-68347066D01*
X98898771Y-68347066D01*
X98898768Y-68347064D01*
X98794080Y-68272236D01*
X98794079Y-68272235D01*
X98794077Y-68272234D01*
X98689385Y-68215278D01*
X98689380Y-68215276D01*
X98584693Y-68176200D01*
X98489378Y-68156899D01*
X98482643Y-68152839D01*
X98480000Y-68145432D01*
X98480000Y-67964568D01*
X98482643Y-67957161D01*
X98489378Y-67953101D01*
X98502108Y-67950522D01*
X98584692Y-67933799D01*
X98689385Y-67894721D01*
X98794077Y-67837765D01*
X98898770Y-67762933D01*
X98994852Y-67677849D01*
X99003217Y-67674925D01*
X99011232Y-67678704D01*
G37*
G04 #@! TD.AperFunction*
G04 #@! TA.AperFunction,Conductor*
G36*
X104371475Y-65515475D02*
G01*
X104378333Y-65519031D01*
X104381480Y-65526087D01*
X104435192Y-66171919D01*
X104433668Y-66178733D01*
X104428534Y-66183466D01*
X104383081Y-66204963D01*
X104330292Y-66240428D01*
X104277511Y-66286389D01*
X104224722Y-66342854D01*
X104180093Y-66399469D01*
X104174811Y-66403255D01*
X104168323Y-66403638D01*
X104162632Y-66400499D01*
X104069743Y-66307610D01*
X104067018Y-66303329D01*
X104066362Y-66298298D01*
X104072669Y-66227693D01*
X104074593Y-66222241D01*
X104114515Y-66162495D01*
X104130500Y-66082133D01*
X104130499Y-65494565D01*
X104132354Y-65488245D01*
X104137331Y-65483928D01*
X104143851Y-65482984D01*
X104371475Y-65515475D01*
G37*
G04 #@! TD.AperFunction*
G04 #@! TA.AperFunction,Conductor*
G36*
X101380632Y-66221084D02*
G01*
X101384226Y-66226037D01*
X101434855Y-66359272D01*
X101457211Y-66410698D01*
X101489714Y-66485465D01*
X101544571Y-66593482D01*
X101599428Y-66683327D01*
X101599429Y-66683328D01*
X101651877Y-66751853D01*
X101654286Y-66758964D01*
X101654286Y-66888591D01*
X101652010Y-66895524D01*
X101646069Y-66899761D01*
X101638773Y-66899652D01*
X101483142Y-66845999D01*
X101312006Y-66806500D01*
X101158034Y-66788506D01*
X101140861Y-66786499D01*
X101140365Y-66786497D01*
X100969723Y-66785998D01*
X100815530Y-66803117D01*
X100808266Y-66801548D01*
X100803412Y-66795922D01*
X100802925Y-66788509D01*
X100902498Y-66410696D01*
X100905049Y-66405928D01*
X100909471Y-66402814D01*
X101368952Y-66219326D01*
X101375029Y-66218623D01*
X101380632Y-66221084D01*
G37*
G04 #@! TD.AperFunction*
G04 #@! TA.AperFunction,Conductor*
G36*
X111259504Y-70330879D02*
G01*
X111566854Y-70459138D01*
X111571797Y-70463036D01*
X111574005Y-70468930D01*
X111572839Y-70475116D01*
X111510701Y-70600966D01*
X111510070Y-70602085D01*
X111449426Y-70697013D01*
X111400086Y-70780261D01*
X111367051Y-70881274D01*
X111367050Y-70881277D01*
X111367051Y-70881277D01*
X111355871Y-71019246D01*
X111352142Y-71026901D01*
X111344210Y-71030000D01*
X111165790Y-71030000D01*
X111157858Y-71026901D01*
X111154128Y-71019245D01*
X111142948Y-70881277D01*
X111109911Y-70780261D01*
X111060564Y-70697001D01*
X110999923Y-70602076D01*
X110999301Y-70600974D01*
X110937159Y-70475114D01*
X110935994Y-70468930D01*
X110938202Y-70463036D01*
X110943143Y-70459139D01*
X111250495Y-70330879D01*
X111255000Y-70329978D01*
X111259504Y-70330879D01*
G37*
G04 #@! TD.AperFunction*
G04 #@! TA.AperFunction,Conductor*
G36*
X114571463Y-68713202D02*
G01*
X114575361Y-68718145D01*
X114703619Y-69025493D01*
X114704521Y-69029999D01*
X114703619Y-69034505D01*
X114575361Y-69341854D01*
X114571463Y-69346797D01*
X114565569Y-69349005D01*
X114559383Y-69347839D01*
X114433532Y-69285701D01*
X114432413Y-69285070D01*
X114337485Y-69224426D01*
X114254237Y-69175086D01*
X114153224Y-69142051D01*
X114120358Y-69139388D01*
X114015253Y-69130871D01*
X114007599Y-69127142D01*
X114004500Y-69119210D01*
X114004500Y-68940790D01*
X114007599Y-68932858D01*
X114015253Y-68929128D01*
X114153222Y-68917948D01*
X114254238Y-68884911D01*
X114337498Y-68835564D01*
X114432429Y-68774918D01*
X114433516Y-68774305D01*
X114559386Y-68712159D01*
X114565569Y-68710994D01*
X114571463Y-68713202D01*
G37*
G04 #@! TD.AperFunction*
G04 #@! TA.AperFunction,Conductor*
G36*
X106496515Y-59388971D02*
G01*
X106853104Y-59490341D01*
X107128911Y-59568746D01*
X107135048Y-59572948D01*
X107137412Y-59580000D01*
X107135048Y-59587052D01*
X107128911Y-59591254D01*
X106496518Y-59771027D01*
X106491859Y-59771382D01*
X106487432Y-59769884D01*
X106439380Y-59741907D01*
X106387043Y-59717433D01*
X106334691Y-59698954D01*
X106282343Y-59686475D01*
X106243016Y-59681610D01*
X106240262Y-59681269D01*
X106232934Y-59677408D01*
X106230000Y-59669659D01*
X106230000Y-59490341D01*
X106232934Y-59482592D01*
X106240263Y-59478730D01*
X106282342Y-59473523D01*
X106290886Y-59471486D01*
X106334692Y-59461044D01*
X106387039Y-59442567D01*
X106439385Y-59418089D01*
X106487435Y-59390113D01*
X106491858Y-59388617D01*
X106496515Y-59388971D01*
G37*
G04 #@! TD.AperFunction*
G04 #@! TA.AperFunction,Conductor*
G36*
X105503055Y-60668882D02*
G01*
X105507201Y-60675282D01*
X105532269Y-60776468D01*
X105606167Y-60817025D01*
X105714823Y-60821571D01*
X105845131Y-60823589D01*
X105847580Y-60823889D01*
X105975500Y-60853528D01*
X105981300Y-60856824D01*
X105984356Y-60862755D01*
X105983673Y-60869392D01*
X105856859Y-61176497D01*
X105854312Y-61180311D01*
X105850494Y-61182852D01*
X105541909Y-61309717D01*
X105533239Y-61309808D01*
X105526887Y-61303906D01*
X105457662Y-61157828D01*
X105395308Y-61048159D01*
X105395014Y-61047607D01*
X105347499Y-60952307D01*
X105346666Y-60950106D01*
X105316262Y-60836144D01*
X105315893Y-60833888D01*
X105315243Y-60823890D01*
X105305810Y-60678853D01*
X105307109Y-60672690D01*
X105311417Y-60668093D01*
X105317485Y-60666396D01*
X105495845Y-60666396D01*
X105503055Y-60668882D01*
G37*
G04 #@! TD.AperFunction*
G04 #@! TA.AperFunction,Conductor*
G36*
X102140000Y-61996000D02*
G01*
X102200000Y-62009000D01*
X102260000Y-62018999D01*
X102300000Y-62023665D01*
X102319998Y-62025999D01*
X102369078Y-62029272D01*
X102376844Y-62032953D01*
X102380000Y-62040946D01*
X102380000Y-62319054D01*
X102376844Y-62327047D01*
X102369078Y-62330728D01*
X102319998Y-62333999D01*
X102260004Y-62340999D01*
X102219998Y-62347666D01*
X102200000Y-62350999D01*
X102179999Y-62355332D01*
X102139998Y-62363999D01*
X102083275Y-62379126D01*
X102076763Y-62378986D01*
X101477144Y-62191165D01*
X101471212Y-62186927D01*
X101468941Y-62180000D01*
X101471212Y-62173073D01*
X101477144Y-62168835D01*
X102076766Y-61981012D01*
X102083273Y-61980873D01*
X102140000Y-61996000D01*
G37*
G04 #@! TD.AperFunction*
G04 #@! TA.AperFunction,Conductor*
G36*
X103647156Y-60847607D02*
G01*
X103886571Y-61085658D01*
X103886619Y-61085706D01*
X104124620Y-61325071D01*
X104127687Y-61330538D01*
X104127492Y-61336805D01*
X104124090Y-61342070D01*
X104003132Y-61449430D01*
X104001835Y-61450428D01*
X103898595Y-61518949D01*
X103897853Y-61519403D01*
X103802784Y-61572775D01*
X103698498Y-61641990D01*
X103575911Y-61750797D01*
X103567796Y-61753742D01*
X103559871Y-61750320D01*
X103221908Y-61412357D01*
X103218486Y-61404432D01*
X103221431Y-61396317D01*
X103276873Y-61333852D01*
X103330236Y-61273730D01*
X103399453Y-61169440D01*
X103452835Y-61074354D01*
X103453267Y-61073648D01*
X103521805Y-60970382D01*
X103522788Y-60969104D01*
X103630161Y-60848134D01*
X103635423Y-60844735D01*
X103641689Y-60844540D01*
X103647156Y-60847607D01*
G37*
G04 #@! TD.AperFunction*
G04 #@! TA.AperFunction,Conductor*
G36*
X100593703Y-59481705D02*
G01*
X100598069Y-59485996D01*
X100599670Y-59491904D01*
X100599670Y-59670512D01*
X100597058Y-59677881D01*
X100590387Y-59681960D01*
X100495916Y-59701909D01*
X100446955Y-59762083D01*
X100446953Y-59762086D01*
X100436824Y-59809585D01*
X100427737Y-59852201D01*
X100427735Y-59852209D01*
X100427736Y-59852209D01*
X100413327Y-59963095D01*
X100412995Y-59964730D01*
X100381901Y-60076233D01*
X100378480Y-60081767D01*
X100372632Y-60084618D01*
X100366165Y-60083904D01*
X100058502Y-59956859D01*
X100054688Y-59954312D01*
X100052147Y-59950494D01*
X99925489Y-59642412D01*
X99925502Y-59633484D01*
X99931811Y-59627164D01*
X100081468Y-59564835D01*
X100081744Y-59564726D01*
X100197919Y-59521027D01*
X100199228Y-59520621D01*
X100302306Y-59495257D01*
X100303942Y-59494977D01*
X100425978Y-59483041D01*
X100426868Y-59482990D01*
X100581473Y-59480314D01*
X100587768Y-59480206D01*
X100593703Y-59481705D01*
G37*
G04 #@! TD.AperFunction*
G04 #@! TA.AperFunction,Conductor*
G36*
X100771515Y-59388971D02*
G01*
X101128104Y-59490341D01*
X101403911Y-59568746D01*
X101410048Y-59572948D01*
X101412412Y-59580000D01*
X101410048Y-59587052D01*
X101403911Y-59591254D01*
X100771518Y-59771027D01*
X100766859Y-59771382D01*
X100762432Y-59769884D01*
X100714380Y-59741907D01*
X100662043Y-59717433D01*
X100609691Y-59698954D01*
X100557343Y-59686475D01*
X100518016Y-59681610D01*
X100515262Y-59681269D01*
X100507934Y-59677408D01*
X100505000Y-59669659D01*
X100505000Y-59490341D01*
X100507934Y-59482592D01*
X100515263Y-59478730D01*
X100557342Y-59473523D01*
X100565886Y-59471486D01*
X100609692Y-59461044D01*
X100662039Y-59442567D01*
X100714385Y-59418089D01*
X100762435Y-59390113D01*
X100766858Y-59388617D01*
X100771515Y-59388971D01*
G37*
G04 #@! TD.AperFunction*
G04 #@! TA.AperFunction,Conductor*
G36*
X100472732Y-60420849D02*
G01*
X100598910Y-60547027D01*
X100602319Y-60554649D01*
X100599778Y-60562602D01*
X100512564Y-60671778D01*
X100479080Y-60760170D01*
X100474463Y-60772361D01*
X100462946Y-60872657D01*
X100462939Y-60872717D01*
X100449048Y-60988370D01*
X100448623Y-60990385D01*
X100407106Y-61126638D01*
X100403629Y-61132024D01*
X100397835Y-61134769D01*
X100391465Y-61134049D01*
X100083808Y-61007563D01*
X100079984Y-61005015D01*
X100077436Y-61001191D01*
X100072993Y-60990385D01*
X99950668Y-60692849D01*
X99949913Y-60686708D01*
X99952397Y-60681039D01*
X99957424Y-60677432D01*
X100083558Y-60630704D01*
X100084077Y-60630525D01*
X100185788Y-60598277D01*
X100270752Y-60564604D01*
X100357518Y-60509531D01*
X100456640Y-60420419D01*
X100464770Y-60417426D01*
X100472732Y-60420849D01*
G37*
G04 #@! TD.AperFunction*
G04 #@! TA.AperFunction,Conductor*
G36*
X93622491Y-66113359D02*
G01*
X93626442Y-66118340D01*
X93754619Y-66425494D01*
X93755521Y-66430000D01*
X93754619Y-66434506D01*
X93626290Y-66742023D01*
X93622439Y-66746932D01*
X93616613Y-66749163D01*
X93610468Y-66748083D01*
X93486622Y-66689198D01*
X93485821Y-66688779D01*
X93390994Y-66634343D01*
X93307345Y-66592026D01*
X93206695Y-66564696D01*
X93116290Y-66558701D01*
X93071397Y-66555724D01*
X93063631Y-66552046D01*
X93060473Y-66544051D01*
X93060473Y-66365613D01*
X93063507Y-66357753D01*
X93071035Y-66353968D01*
X93107703Y-66350383D01*
X93209425Y-66340441D01*
X93308880Y-66301390D01*
X93389967Y-66244783D01*
X93390026Y-66244742D01*
X93483120Y-66178054D01*
X93484578Y-66177163D01*
X93610292Y-66112443D01*
X93616519Y-66111179D01*
X93622491Y-66113359D01*
G37*
G04 #@! TD.AperFunction*
G04 #@! TA.AperFunction,Conductor*
G36*
X93378886Y-64371747D02*
G01*
X93469956Y-64471398D01*
X93547829Y-64542383D01*
X93568495Y-64561221D01*
X93667027Y-64633037D01*
X93765563Y-64686857D01*
X93846832Y-64716400D01*
X93852790Y-64721250D01*
X93854455Y-64728752D01*
X93851107Y-64735668D01*
X93725178Y-64861597D01*
X93719211Y-64864795D01*
X93639445Y-64880830D01*
X93556222Y-64911763D01*
X93472992Y-64956899D01*
X93389764Y-65016236D01*
X93315159Y-65082157D01*
X93306788Y-65085072D01*
X93298775Y-65081281D01*
X92962635Y-64713422D01*
X92959801Y-64707835D01*
X92960257Y-64701586D01*
X92963869Y-64696470D01*
X93362850Y-64370579D01*
X93371100Y-64367972D01*
X93378886Y-64371747D01*
G37*
G04 #@! TD.AperFunction*
G04 #@! TA.AperFunction,Conductor*
G36*
X97712357Y-65950817D02*
G01*
X97716441Y-65957467D01*
X97854235Y-66601425D01*
X97853594Y-66608373D01*
X97845003Y-66628988D01*
X97834998Y-66656000D01*
X97824992Y-66686021D01*
X97814998Y-66719002D01*
X97807380Y-66746431D01*
X97803187Y-66752615D01*
X97796107Y-66755000D01*
X97613893Y-66755000D01*
X97606813Y-66752615D01*
X97602620Y-66746432D01*
X97594997Y-66718991D01*
X97585006Y-66686021D01*
X97575000Y-66656000D01*
X97565000Y-66629000D01*
X97556404Y-66608371D01*
X97555764Y-66601428D01*
X97693559Y-65957466D01*
X97697643Y-65950817D01*
X97705000Y-65948215D01*
X97712357Y-65950817D01*
G37*
G04 #@! TD.AperFunction*
G04 #@! TA.AperFunction,Conductor*
G36*
X92921963Y-68738202D02*
G01*
X92925861Y-68743145D01*
X93054119Y-69050494D01*
X93055021Y-69055000D01*
X93054119Y-69059506D01*
X92925861Y-69366854D01*
X92921963Y-69371797D01*
X92916069Y-69374005D01*
X92909883Y-69372839D01*
X92784032Y-69310701D01*
X92782913Y-69310070D01*
X92687985Y-69249426D01*
X92604737Y-69200086D01*
X92503724Y-69167051D01*
X92470858Y-69164388D01*
X92365753Y-69155871D01*
X92358099Y-69152142D01*
X92355000Y-69144210D01*
X92355000Y-68965790D01*
X92358099Y-68957858D01*
X92365753Y-68954128D01*
X92503722Y-68942948D01*
X92604738Y-68909911D01*
X92687998Y-68860564D01*
X92782929Y-68799918D01*
X92784016Y-68799305D01*
X92909886Y-68737159D01*
X92916069Y-68735994D01*
X92921963Y-68738202D01*
G37*
G04 #@! TD.AperFunction*
G04 #@! TA.AperFunction,Conductor*
G36*
X91684504Y-70305879D02*
G01*
X91991854Y-70434138D01*
X91996797Y-70438036D01*
X91999005Y-70443930D01*
X91997839Y-70450116D01*
X91935701Y-70575966D01*
X91935070Y-70577085D01*
X91874426Y-70672013D01*
X91825086Y-70755261D01*
X91792051Y-70856274D01*
X91792050Y-70856277D01*
X91792051Y-70856277D01*
X91780871Y-70994246D01*
X91777142Y-71001901D01*
X91769210Y-71005000D01*
X91590790Y-71005000D01*
X91582858Y-71001901D01*
X91579128Y-70994245D01*
X91567948Y-70856277D01*
X91534911Y-70755261D01*
X91485564Y-70672001D01*
X91424923Y-70577076D01*
X91424301Y-70575974D01*
X91362159Y-70450114D01*
X91360994Y-70443930D01*
X91363202Y-70438036D01*
X91368143Y-70434139D01*
X91675495Y-70305879D01*
X91680000Y-70304978D01*
X91684504Y-70305879D01*
G37*
G04 #@! TD.AperFunction*
G04 #@! TA.AperFunction,Conductor*
G36*
X115631797Y-67168672D02*
G01*
X115915543Y-67393234D01*
X116057132Y-67444288D01*
X116166624Y-67483769D01*
X116417412Y-67507540D01*
X116702096Y-67537604D01*
X116707361Y-67538160D01*
X116709491Y-67538587D01*
X117067889Y-67645988D01*
X117073304Y-67649458D01*
X117076068Y-67655268D01*
X117075342Y-67661661D01*
X116757562Y-68431214D01*
X116755021Y-68435021D01*
X116751214Y-68437562D01*
X115981661Y-68755342D01*
X115975268Y-68756068D01*
X115969458Y-68753304D01*
X115965988Y-68747889D01*
X115858587Y-68389491D01*
X115858160Y-68387361D01*
X115827551Y-68097518D01*
X115827538Y-68097393D01*
X115803769Y-67846624D01*
X115737075Y-67661661D01*
X115713234Y-67595543D01*
X115488672Y-67311797D01*
X115486166Y-67303858D01*
X115489572Y-67296264D01*
X115616264Y-67169572D01*
X115623858Y-67166166D01*
X115631797Y-67168672D01*
G37*
G04 #@! TD.AperFunction*
G04 #@! TA.AperFunction,Conductor*
G36*
X106200114Y-59912159D02*
G01*
X106325974Y-59974301D01*
X106327076Y-59974923D01*
X106422001Y-60035564D01*
X106505261Y-60084911D01*
X106606277Y-60117948D01*
X106744246Y-60129128D01*
X106751901Y-60132858D01*
X106755000Y-60140790D01*
X106755000Y-60319210D01*
X106751901Y-60327142D01*
X106744246Y-60330871D01*
X106649989Y-60338509D01*
X106606274Y-60342051D01*
X106505261Y-60375086D01*
X106422013Y-60424426D01*
X106327085Y-60485070D01*
X106325966Y-60485701D01*
X106200116Y-60547839D01*
X106193930Y-60549005D01*
X106188036Y-60546797D01*
X106184138Y-60541854D01*
X106135135Y-60424426D01*
X106055879Y-60234504D01*
X106054978Y-60230000D01*
X106055880Y-60225494D01*
X106184139Y-59918143D01*
X106188036Y-59913202D01*
X106193930Y-59910994D01*
X106200114Y-59912159D01*
G37*
G04 #@! TD.AperFunction*
G04 #@! TA.AperFunction,Conductor*
G36*
X106496515Y-60038971D02*
G01*
X106853104Y-60140341D01*
X107128911Y-60218746D01*
X107135048Y-60222948D01*
X107137412Y-60230000D01*
X107135048Y-60237052D01*
X107128911Y-60241254D01*
X106496518Y-60421027D01*
X106491859Y-60421382D01*
X106487432Y-60419884D01*
X106439380Y-60391907D01*
X106387043Y-60367433D01*
X106334691Y-60348954D01*
X106282343Y-60336475D01*
X106243016Y-60331610D01*
X106240262Y-60331269D01*
X106232934Y-60327408D01*
X106230000Y-60319659D01*
X106230000Y-60140341D01*
X106232934Y-60132592D01*
X106240263Y-60128730D01*
X106282342Y-60123523D01*
X106290886Y-60121486D01*
X106334692Y-60111044D01*
X106387039Y-60092567D01*
X106439385Y-60068089D01*
X106487435Y-60040113D01*
X106491858Y-60038617D01*
X106496515Y-60038971D01*
G37*
G04 #@! TD.AperFunction*
G04 #@! TA.AperFunction,Conductor*
G36*
X94284504Y-70130879D02*
G01*
X94591854Y-70259138D01*
X94596797Y-70263036D01*
X94599005Y-70268930D01*
X94597839Y-70275116D01*
X94535701Y-70400966D01*
X94535070Y-70402085D01*
X94474426Y-70497013D01*
X94425086Y-70580261D01*
X94392051Y-70681274D01*
X94392050Y-70681277D01*
X94392051Y-70681277D01*
X94380871Y-70819246D01*
X94377142Y-70826901D01*
X94369210Y-70830000D01*
X94190790Y-70830000D01*
X94182858Y-70826901D01*
X94179128Y-70819245D01*
X94167948Y-70681277D01*
X94134911Y-70580261D01*
X94085564Y-70497001D01*
X94024923Y-70402076D01*
X94024301Y-70400974D01*
X93962159Y-70275114D01*
X93960994Y-70268930D01*
X93963202Y-70263036D01*
X93968143Y-70259139D01*
X94275495Y-70130879D01*
X94280000Y-70129978D01*
X94284504Y-70130879D01*
G37*
G04 #@! TD.AperFunction*
G04 #@! TA.AperFunction,Conductor*
G36*
X98178183Y-56492499D02*
G01*
X98183388Y-56498682D01*
X98237071Y-56647094D01*
X98294142Y-56789873D01*
X98294147Y-56789884D01*
X98351222Y-56917668D01*
X98408296Y-57030453D01*
X98436716Y-57079145D01*
X98460822Y-57120446D01*
X98462320Y-57127844D01*
X98458990Y-57134617D01*
X98260249Y-57333358D01*
X98252939Y-57336745D01*
X98245172Y-57334603D01*
X98110456Y-57238297D01*
X98028165Y-57188115D01*
X97967668Y-57151222D01*
X97919462Y-57126888D01*
X97824882Y-57079145D01*
X97682100Y-57022073D01*
X97551770Y-56983670D01*
X97546327Y-56980214D01*
X97543541Y-56974400D01*
X97544258Y-56967993D01*
X97564978Y-56917668D01*
X97701880Y-56585152D01*
X97705308Y-56580539D01*
X97710520Y-56578115D01*
X98170213Y-56491166D01*
X98178183Y-56492499D01*
G37*
G04 #@! TD.AperFunction*
G04 #@! TA.AperFunction,Conductor*
G36*
X92735296Y-59535455D02*
G01*
X92820710Y-59677097D01*
X92911421Y-59806355D01*
X92911423Y-59806357D01*
X93002126Y-59914442D01*
X93002130Y-59914445D01*
X93002131Y-59914447D01*
X93092842Y-60001373D01*
X93136157Y-60032773D01*
X93172449Y-60059083D01*
X93176502Y-60064355D01*
X93177027Y-60070985D01*
X93173855Y-60076829D01*
X93044912Y-60205772D01*
X93038236Y-60209089D01*
X92979709Y-60217154D01*
X92979706Y-60217154D01*
X92979705Y-60217155D01*
X92963433Y-60222093D01*
X92917277Y-60236102D01*
X92854854Y-60265389D01*
X92792424Y-60305024D01*
X92736682Y-60349650D01*
X92729878Y-60352205D01*
X92722878Y-60350250D01*
X92721978Y-60349650D01*
X92304178Y-60070985D01*
X91997116Y-59866180D01*
X91992328Y-59859551D01*
X91993049Y-59851406D01*
X91998926Y-59845724D01*
X92720598Y-59530774D01*
X92728829Y-59530350D01*
X92735296Y-59535455D01*
G37*
G04 #@! TD.AperFunction*
G04 #@! TA.AperFunction,Conductor*
G36*
X95561128Y-61361087D02*
G01*
X95594259Y-61393999D01*
X95697643Y-61496699D01*
X95700695Y-61501959D01*
X95700695Y-61508041D01*
X95697643Y-61513301D01*
X95561128Y-61648911D01*
X95554585Y-61652185D01*
X95547376Y-61650933D01*
X95525000Y-61638998D01*
X95495008Y-61626002D01*
X95495003Y-61626000D01*
X95495000Y-61625999D01*
X95465000Y-61616000D01*
X95464997Y-61615999D01*
X95434994Y-61608998D01*
X95417137Y-61606618D01*
X95415153Y-61606353D01*
X95407897Y-61602464D01*
X95405000Y-61594757D01*
X95405000Y-61415243D01*
X95407897Y-61407536D01*
X95415154Y-61403646D01*
X95434994Y-61401000D01*
X95434995Y-61400999D01*
X95435000Y-61400999D01*
X95465000Y-61393999D01*
X95495000Y-61384000D01*
X95525000Y-61371000D01*
X95547378Y-61359064D01*
X95554586Y-61357814D01*
X95561128Y-61361087D01*
G37*
G04 #@! TD.AperFunction*
G04 #@! TA.AperFunction,Conductor*
G36*
X93314998Y-62676443D02*
G01*
X93411229Y-62747179D01*
X93515922Y-62809134D01*
X93620614Y-62856089D01*
X93725307Y-62888044D01*
X93739809Y-62890392D01*
X93820171Y-62903409D01*
X93827210Y-62907375D01*
X93830000Y-62914958D01*
X93830000Y-63195042D01*
X93827210Y-63202625D01*
X93820171Y-63206591D01*
X93725307Y-63221955D01*
X93725301Y-63221956D01*
X93620612Y-63253910D01*
X93515927Y-63300862D01*
X93411228Y-63362820D01*
X93314999Y-63433555D01*
X93306929Y-63435772D01*
X93299442Y-63432032D01*
X93106966Y-63221955D01*
X92961240Y-63062902D01*
X92958168Y-63055000D01*
X92961240Y-63047097D01*
X93299443Y-62677966D01*
X93306929Y-62674227D01*
X93314998Y-62676443D01*
G37*
G04 #@! TD.AperFunction*
G04 #@! TA.AperFunction,Conductor*
G36*
X92119517Y-62370278D02*
G01*
X92123689Y-62376563D01*
X92123158Y-62384088D01*
X92080004Y-62486536D01*
X92030000Y-62620250D01*
X91980001Y-62768945D01*
X91929989Y-62932687D01*
X91882693Y-63101732D01*
X91877945Y-63108296D01*
X91870072Y-63110201D01*
X91411501Y-63056757D01*
X91405999Y-63054617D01*
X91402243Y-63050063D01*
X91224917Y-62668162D01*
X91223980Y-62661370D01*
X91227010Y-62655218D01*
X91232965Y-62651822D01*
X91341044Y-62627569D01*
X91463283Y-62585138D01*
X91585522Y-62527707D01*
X91707761Y-62455276D01*
X91826947Y-62370029D01*
X91833752Y-62367846D01*
X92112376Y-62367846D01*
X92119517Y-62370278D01*
G37*
G04 #@! TD.AperFunction*
G04 #@! TA.AperFunction,Conductor*
G36*
X91764998Y-62676443D02*
G01*
X91861229Y-62747179D01*
X91965922Y-62809134D01*
X92070614Y-62856089D01*
X92175307Y-62888044D01*
X92189809Y-62890392D01*
X92270171Y-62903409D01*
X92277210Y-62907375D01*
X92280000Y-62914958D01*
X92280000Y-63195042D01*
X92277210Y-63202625D01*
X92270171Y-63206591D01*
X92175307Y-63221955D01*
X92175301Y-63221956D01*
X92070612Y-63253910D01*
X91965927Y-63300862D01*
X91861228Y-63362820D01*
X91764999Y-63433555D01*
X91756929Y-63435772D01*
X91749442Y-63432032D01*
X91556966Y-63221955D01*
X91411240Y-63062902D01*
X91408168Y-63055000D01*
X91411240Y-63047097D01*
X91749443Y-62677966D01*
X91756929Y-62674227D01*
X91764998Y-62676443D01*
G37*
G04 #@! TD.AperFunction*
G04 #@! TA.AperFunction,Conductor*
G36*
X92610555Y-62677965D02*
G01*
X92730736Y-62809136D01*
X92948758Y-63047096D01*
X92951831Y-63055000D01*
X92948758Y-63062904D01*
X92610557Y-63432032D01*
X92603070Y-63435772D01*
X92595000Y-63433555D01*
X92498770Y-63362820D01*
X92498769Y-63362819D01*
X92394077Y-63300865D01*
X92394073Y-63300863D01*
X92394071Y-63300862D01*
X92289386Y-63253910D01*
X92184697Y-63221956D01*
X92184693Y-63221955D01*
X92184692Y-63221955D01*
X92089828Y-63206591D01*
X92082790Y-63202625D01*
X92080000Y-63195042D01*
X92080000Y-62914958D01*
X92082790Y-62907375D01*
X92089829Y-62903409D01*
X92159841Y-62892068D01*
X92184692Y-62888044D01*
X92289385Y-62856089D01*
X92394077Y-62809134D01*
X92498770Y-62747179D01*
X92595003Y-62676441D01*
X92603070Y-62674226D01*
X92610555Y-62677965D01*
G37*
G04 #@! TD.AperFunction*
G04 #@! TA.AperFunction,Conductor*
G36*
X91675574Y-63959889D02*
G01*
X91805750Y-64090065D01*
X91809075Y-64096797D01*
X91822842Y-64200390D01*
X91837131Y-64295365D01*
X91840974Y-64317530D01*
X91851420Y-64377785D01*
X91865709Y-64447665D01*
X91877578Y-64495282D01*
X91876690Y-64503344D01*
X91870773Y-64508892D01*
X91413493Y-64701825D01*
X91405406Y-64702197D01*
X91399014Y-64697231D01*
X91162545Y-64317528D01*
X91160789Y-64310837D01*
X91163120Y-64304322D01*
X91168722Y-64300264D01*
X91257220Y-64270289D01*
X91359698Y-64217578D01*
X91462176Y-64146868D01*
X91564654Y-64058157D01*
X91658863Y-63960057D01*
X91664121Y-63956903D01*
X91670253Y-63956841D01*
X91675574Y-63959889D01*
G37*
G04 #@! TD.AperFunction*
G04 #@! TA.AperFunction,Conductor*
G36*
X96303187Y-65057385D02*
G01*
X96307380Y-65063569D01*
X96314998Y-65090997D01*
X96324992Y-65123978D01*
X96334998Y-65153999D01*
X96345003Y-65181010D01*
X96353594Y-65201626D01*
X96354235Y-65208574D01*
X96216441Y-65852532D01*
X96212357Y-65859182D01*
X96205000Y-65861784D01*
X96197643Y-65859182D01*
X96193559Y-65852532D01*
X96179895Y-65788677D01*
X96055764Y-65208571D01*
X96056404Y-65201628D01*
X96065000Y-65181000D01*
X96075000Y-65154000D01*
X96084999Y-65124000D01*
X96094999Y-65091000D01*
X96095000Y-65090997D01*
X96102620Y-65063568D01*
X96106813Y-65057385D01*
X96113893Y-65055000D01*
X96296107Y-65055000D01*
X96303187Y-65057385D01*
G37*
G04 #@! TD.AperFunction*
G04 #@! TA.AperFunction,Conductor*
G36*
X92949477Y-64703114D02*
G01*
X92954691Y-64705539D01*
X92958121Y-64710156D01*
X93115241Y-65091776D01*
X93115890Y-65098549D01*
X93112661Y-65104537D01*
X93106645Y-65107717D01*
X93038548Y-65120896D01*
X92970830Y-65134002D01*
X92870926Y-65165337D01*
X92820973Y-65181005D01*
X92671115Y-65246009D01*
X92521259Y-65329013D01*
X92379400Y-65424626D01*
X92371738Y-65426570D01*
X92364588Y-65423197D01*
X92235976Y-65294585D01*
X92232696Y-65288159D01*
X92233808Y-65281035D01*
X92279987Y-65189738D01*
X92329990Y-65072882D01*
X92379994Y-64938026D01*
X92429997Y-64785170D01*
X92477020Y-64624495D01*
X92482138Y-64617805D01*
X92490421Y-64616286D01*
X92949477Y-64703114D01*
G37*
G04 #@! TD.AperFunction*
G04 #@! TA.AperFunction,Conductor*
G36*
X89330724Y-66928575D02*
G01*
X89457560Y-67055411D01*
X89460925Y-67062482D01*
X89459076Y-67070091D01*
X89291555Y-67326031D01*
X89303032Y-67557438D01*
X89414920Y-67794127D01*
X89414974Y-67794243D01*
X89542880Y-68072691D01*
X89543782Y-68075610D01*
X89602674Y-68421346D01*
X89601866Y-68427984D01*
X89597556Y-68433095D01*
X89591150Y-68435011D01*
X88759153Y-68435702D01*
X88754664Y-68434811D01*
X88750860Y-68432265D01*
X88380844Y-68061379D01*
X88162645Y-67842665D01*
X88159575Y-67837230D01*
X88159739Y-67830987D01*
X88163089Y-67825719D01*
X88426047Y-67588406D01*
X88427134Y-67587538D01*
X88640658Y-67437169D01*
X88641231Y-67436793D01*
X88835888Y-67317696D01*
X89050257Y-67166732D01*
X89314612Y-66928161D01*
X89322751Y-66925152D01*
X89330724Y-66928575D01*
G37*
G04 #@! TD.AperFunction*
G04 #@! TA.AperFunction,Conductor*
G36*
X90600114Y-64387159D02*
G01*
X90725974Y-64449301D01*
X90727076Y-64449923D01*
X90822001Y-64510564D01*
X90905261Y-64559911D01*
X91006277Y-64592948D01*
X91144246Y-64604128D01*
X91151901Y-64607858D01*
X91155000Y-64615790D01*
X91155000Y-64794210D01*
X91151901Y-64802142D01*
X91144246Y-64805871D01*
X91049989Y-64813509D01*
X91006274Y-64817051D01*
X90905261Y-64850086D01*
X90822013Y-64899426D01*
X90727085Y-64960070D01*
X90725966Y-64960701D01*
X90600116Y-65022839D01*
X90593930Y-65024005D01*
X90588036Y-65021797D01*
X90584138Y-65016854D01*
X90535135Y-64899426D01*
X90455879Y-64709504D01*
X90454978Y-64705000D01*
X90455880Y-64700494D01*
X90584139Y-64393143D01*
X90588036Y-64388202D01*
X90593930Y-64385994D01*
X90600114Y-64387159D01*
G37*
G04 #@! TD.AperFunction*
G04 #@! TA.AperFunction,Conductor*
G36*
X91061232Y-64328704D02*
G01*
X91398758Y-64697096D01*
X91401831Y-64704999D01*
X91398758Y-64712903D01*
X91061234Y-65081294D01*
X91053217Y-65085074D01*
X91044850Y-65082149D01*
X91043884Y-65081294D01*
X90948770Y-64997066D01*
X90948771Y-64997066D01*
X90948768Y-64997064D01*
X90844080Y-64922236D01*
X90844079Y-64922235D01*
X90844077Y-64922234D01*
X90739385Y-64865278D01*
X90739380Y-64865276D01*
X90634693Y-64826200D01*
X90539378Y-64806899D01*
X90532643Y-64802839D01*
X90530000Y-64795432D01*
X90530000Y-64614568D01*
X90532643Y-64607161D01*
X90539378Y-64603101D01*
X90552108Y-64600522D01*
X90634692Y-64583799D01*
X90739385Y-64544721D01*
X90844077Y-64487765D01*
X90948770Y-64412933D01*
X91044852Y-64327849D01*
X91053217Y-64324925D01*
X91061232Y-64328704D01*
G37*
G04 #@! TD.AperFunction*
G04 #@! TA.AperFunction,Conductor*
G36*
X99715148Y-67677849D02*
G01*
X99811229Y-67762933D01*
X99915922Y-67837765D01*
X100020614Y-67894721D01*
X100125307Y-67933799D01*
X100206348Y-67950210D01*
X100220622Y-67953101D01*
X100227357Y-67957161D01*
X100230000Y-67964568D01*
X100230000Y-68145432D01*
X100227357Y-68152839D01*
X100220622Y-68156899D01*
X100125305Y-68176200D01*
X100020618Y-68215276D01*
X99915918Y-68272236D01*
X99811230Y-68347064D01*
X99715149Y-68432149D01*
X99706782Y-68435074D01*
X99698766Y-68431294D01*
X99361240Y-68062902D01*
X99358168Y-68055000D01*
X99361240Y-68047097D01*
X99698767Y-67678703D01*
X99706782Y-67674925D01*
X99715148Y-67677849D01*
G37*
G04 #@! TD.AperFunction*
G04 #@! TA.AperFunction,Conductor*
G36*
X100561232Y-67678704D02*
G01*
X100759150Y-67894721D01*
X100898758Y-68047096D01*
X100901831Y-68055000D01*
X100898758Y-68062904D01*
X100561234Y-68431294D01*
X100553217Y-68435074D01*
X100544850Y-68432149D01*
X100543884Y-68431294D01*
X100448770Y-68347066D01*
X100448771Y-68347066D01*
X100448768Y-68347064D01*
X100344080Y-68272236D01*
X100344079Y-68272235D01*
X100344077Y-68272234D01*
X100239385Y-68215278D01*
X100239380Y-68215276D01*
X100134693Y-68176200D01*
X100039378Y-68156899D01*
X100032643Y-68152839D01*
X100030000Y-68145432D01*
X100030000Y-67964568D01*
X100032643Y-67957161D01*
X100039378Y-67953101D01*
X100052108Y-67950522D01*
X100134692Y-67933799D01*
X100239385Y-67894721D01*
X100344077Y-67837765D01*
X100448770Y-67762933D01*
X100544852Y-67677849D01*
X100553217Y-67674925D01*
X100561232Y-67678704D01*
G37*
G04 #@! TD.AperFunction*
G04 #@! TA.AperFunction,Conductor*
G36*
X100573338Y-52817364D02*
G01*
X101481215Y-53192437D01*
X101485021Y-53194978D01*
X101487562Y-53198784D01*
X101863093Y-54107771D01*
X101863863Y-54113880D01*
X101861425Y-54119535D01*
X101856453Y-54123168D01*
X101483127Y-54265738D01*
X101482852Y-54265839D01*
X101201505Y-54365277D01*
X100968615Y-54470245D01*
X100729776Y-54633571D01*
X100438654Y-54900582D01*
X100430493Y-54903656D01*
X100422473Y-54900232D01*
X100084056Y-54561815D01*
X100080656Y-54554342D01*
X100083004Y-54546475D01*
X100339499Y-54208090D01*
X100423854Y-53905700D01*
X100425308Y-53602489D01*
X100425314Y-53602193D01*
X100439210Y-53254258D01*
X100439624Y-53251607D01*
X100557596Y-52825058D01*
X100561011Y-52819513D01*
X100566864Y-52816653D01*
X100573338Y-52817364D01*
G37*
G04 #@! TD.AperFunction*
G04 #@! TA.AperFunction,Conductor*
G36*
X98911232Y-57853704D02*
G01*
X99109150Y-58069721D01*
X99248758Y-58222096D01*
X99251831Y-58230000D01*
X99248758Y-58237904D01*
X98911234Y-58606294D01*
X98903217Y-58610074D01*
X98894850Y-58607149D01*
X98893884Y-58606294D01*
X98798770Y-58522066D01*
X98798771Y-58522066D01*
X98798768Y-58522064D01*
X98694080Y-58447236D01*
X98694079Y-58447235D01*
X98694077Y-58447234D01*
X98589385Y-58390278D01*
X98589380Y-58390276D01*
X98484693Y-58351200D01*
X98389378Y-58331899D01*
X98382643Y-58327839D01*
X98380000Y-58320432D01*
X98380000Y-58139568D01*
X98382643Y-58132161D01*
X98389378Y-58128101D01*
X98402108Y-58125522D01*
X98484692Y-58108799D01*
X98589385Y-58069721D01*
X98694077Y-58012765D01*
X98798770Y-57937933D01*
X98894852Y-57852849D01*
X98903217Y-57849925D01*
X98911232Y-57853704D01*
G37*
G04 #@! TD.AperFunction*
G04 #@! TA.AperFunction,Conductor*
G36*
X98065148Y-57852849D02*
G01*
X98161229Y-57937933D01*
X98265922Y-58012765D01*
X98370614Y-58069721D01*
X98475307Y-58108799D01*
X98556348Y-58125210D01*
X98570622Y-58128101D01*
X98577357Y-58132161D01*
X98580000Y-58139568D01*
X98580000Y-58320432D01*
X98577357Y-58327839D01*
X98570622Y-58331899D01*
X98475305Y-58351200D01*
X98370618Y-58390276D01*
X98265918Y-58447236D01*
X98161230Y-58522064D01*
X98065149Y-58607149D01*
X98056782Y-58610074D01*
X98048766Y-58606294D01*
X97711241Y-58237903D01*
X97708168Y-58229999D01*
X97711239Y-58222098D01*
X98048767Y-57853703D01*
X98056782Y-57849925D01*
X98065148Y-57852849D01*
G37*
G04 #@! TD.AperFunction*
G04 #@! TA.AperFunction,Conductor*
G36*
X97698191Y-58228749D02*
G01*
X97704016Y-58230554D01*
X97708142Y-58235046D01*
X97906401Y-58616553D01*
X97907621Y-58623460D01*
X97904671Y-58629824D01*
X97898611Y-58633357D01*
X97791714Y-58657642D01*
X97791711Y-58657642D01*
X97791711Y-58657643D01*
X97670033Y-58703287D01*
X97670029Y-58703288D01*
X97670029Y-58703289D01*
X97548359Y-58766929D01*
X97426674Y-58848578D01*
X97363121Y-58900623D01*
X97314037Y-58940820D01*
X97308234Y-58945572D01*
X97300821Y-58948220D01*
X97119618Y-58948220D01*
X97113039Y-58946195D01*
X97108737Y-58940820D01*
X97108202Y-58933957D01*
X97130000Y-58836876D01*
X97155000Y-58707533D01*
X97179999Y-58560190D01*
X97204999Y-58394847D01*
X97228568Y-58222004D01*
X97232631Y-58214632D01*
X97240591Y-58211894D01*
X97698191Y-58228749D01*
G37*
G04 #@! TD.AperFunction*
G04 #@! TA.AperFunction,Conductor*
G36*
X97361232Y-56203704D02*
G01*
X97698758Y-56572096D01*
X97701831Y-56579999D01*
X97698758Y-56587903D01*
X97361234Y-56956294D01*
X97353217Y-56960074D01*
X97344850Y-56957149D01*
X97343884Y-56956294D01*
X97248770Y-56872066D01*
X97248771Y-56872066D01*
X97248768Y-56872064D01*
X97144080Y-56797236D01*
X97144079Y-56797235D01*
X97144077Y-56797234D01*
X97039385Y-56740278D01*
X97039380Y-56740276D01*
X96934693Y-56701200D01*
X96839378Y-56681899D01*
X96832643Y-56677839D01*
X96830000Y-56670432D01*
X96830000Y-56489568D01*
X96832643Y-56482161D01*
X96839378Y-56478101D01*
X96852108Y-56475522D01*
X96934692Y-56458799D01*
X97039385Y-56419721D01*
X97144077Y-56362765D01*
X97248770Y-56287933D01*
X97344852Y-56202849D01*
X97353217Y-56199925D01*
X97361232Y-56203704D01*
G37*
G04 #@! TD.AperFunction*
G04 #@! TA.AperFunction,Conductor*
G36*
X96515148Y-56202849D02*
G01*
X96611229Y-56287933D01*
X96715922Y-56362765D01*
X96820614Y-56419721D01*
X96925307Y-56458799D01*
X97006348Y-56475210D01*
X97020622Y-56478101D01*
X97027357Y-56482161D01*
X97030000Y-56489568D01*
X97030000Y-56670432D01*
X97027357Y-56677839D01*
X97020622Y-56681899D01*
X96925305Y-56701200D01*
X96820618Y-56740276D01*
X96715918Y-56797236D01*
X96611230Y-56872064D01*
X96515149Y-56957149D01*
X96506782Y-56960074D01*
X96498766Y-56956294D01*
X96161240Y-56587902D01*
X96158168Y-56580000D01*
X96161240Y-56572097D01*
X96498767Y-56203703D01*
X96506782Y-56199925D01*
X96515148Y-56202849D01*
G37*
G04 #@! TD.AperFunction*
G04 #@! TA.AperFunction,Conductor*
G36*
X97303187Y-60657385D02*
G01*
X97307380Y-60663569D01*
X97314998Y-60690997D01*
X97324992Y-60723978D01*
X97334998Y-60753999D01*
X97345003Y-60781010D01*
X97353594Y-60801626D01*
X97354235Y-60808574D01*
X97216441Y-61452532D01*
X97212357Y-61459182D01*
X97205000Y-61461784D01*
X97197643Y-61459182D01*
X97193559Y-61452532D01*
X97179895Y-61388677D01*
X97055764Y-60808571D01*
X97056404Y-60801628D01*
X97065000Y-60781000D01*
X97075000Y-60754000D01*
X97084999Y-60724000D01*
X97094999Y-60691000D01*
X97095000Y-60690997D01*
X97102620Y-60663568D01*
X97106813Y-60657385D01*
X97113893Y-60655000D01*
X97296107Y-60655000D01*
X97303187Y-60657385D01*
G37*
G04 #@! TD.AperFunction*
G04 #@! TA.AperFunction,Conductor*
G36*
X107416624Y-62888996D02*
G01*
X107420897Y-62893202D01*
X107488592Y-63007649D01*
X107559684Y-63115842D01*
X107630779Y-63212036D01*
X107701862Y-63296216D01*
X107765742Y-63361082D01*
X107769087Y-63368631D01*
X107766615Y-63376509D01*
X107432911Y-63802284D01*
X107425325Y-63806654D01*
X106992584Y-63867274D01*
X106986277Y-63866408D01*
X106981356Y-63862368D01*
X106979280Y-63856350D01*
X106976460Y-63806654D01*
X106967500Y-63648721D01*
X106955000Y-63440405D01*
X106954999Y-63440383D01*
X106942501Y-63244114D01*
X106929997Y-63059747D01*
X106929997Y-63059746D01*
X106918410Y-62900005D01*
X106919676Y-62893805D01*
X106923986Y-62889171D01*
X106930079Y-62887459D01*
X107410827Y-62887459D01*
X107416624Y-62888996D01*
G37*
G04 #@! TD.AperFunction*
G04 #@! TA.AperFunction,Conductor*
G36*
X107175792Y-62187334D02*
G01*
X107362615Y-62375091D01*
X107365662Y-62380465D01*
X107365546Y-62386644D01*
X107357496Y-62414010D01*
X107347496Y-62451009D01*
X107337498Y-62491005D01*
X107327498Y-62534006D01*
X107319503Y-62570785D01*
X107315412Y-62577410D01*
X107308070Y-62580000D01*
X107026930Y-62580000D01*
X107019588Y-62577410D01*
X107015497Y-62570786D01*
X107013135Y-62559925D01*
X107007499Y-62533999D01*
X106997499Y-62490999D01*
X106987500Y-62451000D01*
X106977500Y-62414000D01*
X106969452Y-62386640D01*
X106969337Y-62380465D01*
X106972380Y-62375094D01*
X107159209Y-62187331D01*
X107164462Y-62184288D01*
X107170538Y-62184288D01*
X107175792Y-62187334D01*
G37*
G04 #@! TD.AperFunction*
G04 #@! TA.AperFunction,Conductor*
G36*
X107025325Y-63700476D02*
G01*
X107425063Y-63802737D01*
X107429347Y-63804838D01*
X107432437Y-63808477D01*
X107680030Y-64263314D01*
X107681447Y-64269309D01*
X107679623Y-64275193D01*
X107675063Y-64279334D01*
X107594626Y-64320292D01*
X107594622Y-64320294D01*
X107594623Y-64320294D01*
X107503467Y-64378711D01*
X107503466Y-64378712D01*
X107412314Y-64449127D01*
X107412312Y-64449129D01*
X107321156Y-64531546D01*
X107237683Y-64618007D01*
X107233451Y-64622390D01*
X107229606Y-64625034D01*
X107225034Y-64625964D01*
X106745815Y-64625964D01*
X106738992Y-64623769D01*
X106734730Y-64618007D01*
X106734627Y-64610841D01*
X106758888Y-64531546D01*
X106779999Y-64462547D01*
X106829999Y-64287130D01*
X106880000Y-64099714D01*
X106930000Y-63900297D01*
X106977258Y-63700473D01*
X106980178Y-63695093D01*
X106985418Y-63691922D01*
X106991543Y-63691834D01*
X107025325Y-63700476D01*
G37*
G04 #@! TD.AperFunction*
G04 #@! TA.AperFunction,Conductor*
G36*
X106602164Y-67290769D02*
G01*
X106941105Y-67629710D01*
X106944200Y-67635217D01*
X106943981Y-67641531D01*
X106940511Y-67646810D01*
X106850539Y-67725082D01*
X106751097Y-67823592D01*
X106651668Y-67934090D01*
X106552217Y-68056613D01*
X106458621Y-68183221D01*
X106451953Y-68187641D01*
X106444004Y-68186743D01*
X105983933Y-67958013D01*
X105980137Y-67955006D01*
X105977883Y-67950719D01*
X105941943Y-67823591D01*
X105855547Y-67517981D01*
X105855613Y-67511394D01*
X105859229Y-67505885D01*
X105865247Y-67503204D01*
X106000785Y-67485005D01*
X106149694Y-67453010D01*
X106298603Y-67409015D01*
X106447512Y-67353020D01*
X106589035Y-67288398D01*
X106595969Y-67287528D01*
X106602164Y-67290769D01*
G37*
G04 #@! TD.AperFunction*
G04 #@! TA.AperFunction,Conductor*
G36*
X105728807Y-67507696D02*
G01*
X105734293Y-67512697D01*
X105976560Y-67947041D01*
X105977905Y-67954523D01*
X105974369Y-67961252D01*
X105579974Y-68333191D01*
X105572398Y-68336370D01*
X105564599Y-68333784D01*
X105469034Y-68256656D01*
X105417281Y-68220888D01*
X105365527Y-68185118D01*
X105262018Y-68125579D01*
X105262019Y-68125579D01*
X105262013Y-68125576D01*
X105158511Y-68078039D01*
X105088707Y-68054073D01*
X105062900Y-68045212D01*
X105057178Y-68040945D01*
X105055000Y-68034147D01*
X105055000Y-67555717D01*
X105056813Y-67549461D01*
X105061690Y-67545144D01*
X105068117Y-67544103D01*
X105190000Y-67559000D01*
X105325000Y-67563500D01*
X105460000Y-67556000D01*
X105595000Y-67536500D01*
X105721418Y-67507002D01*
X105728807Y-67507696D01*
G37*
G04 #@! TD.AperFunction*
G04 #@! TA.AperFunction,Conductor*
G36*
X97303187Y-65057385D02*
G01*
X97307380Y-65063569D01*
X97314998Y-65090997D01*
X97324992Y-65123978D01*
X97334998Y-65153999D01*
X97345003Y-65181010D01*
X97353594Y-65201626D01*
X97354235Y-65208574D01*
X97216441Y-65852532D01*
X97212357Y-65859182D01*
X97205000Y-65861784D01*
X97197643Y-65859182D01*
X97193559Y-65852532D01*
X97179895Y-65788677D01*
X97055764Y-65208571D01*
X97056404Y-65201628D01*
X97065000Y-65181000D01*
X97075000Y-65154000D01*
X97084999Y-65124000D01*
X97094999Y-65091000D01*
X97095000Y-65090997D01*
X97102620Y-65063568D01*
X97106813Y-65057385D01*
X97113893Y-65055000D01*
X97296107Y-65055000D01*
X97303187Y-65057385D01*
G37*
G04 #@! TD.AperFunction*
G04 #@! TA.AperFunction,Conductor*
G36*
X100899477Y-66403114D02*
G01*
X100904691Y-66405539D01*
X100908121Y-66410156D01*
X101065241Y-66791776D01*
X101065890Y-66798549D01*
X101062661Y-66804537D01*
X101056645Y-66807717D01*
X100988548Y-66820896D01*
X100920830Y-66834002D01*
X100820925Y-66865337D01*
X100770973Y-66881005D01*
X100621115Y-66946009D01*
X100471259Y-67029013D01*
X100329400Y-67124626D01*
X100321738Y-67126570D01*
X100314588Y-67123197D01*
X100185976Y-66994585D01*
X100182696Y-66988159D01*
X100183808Y-66981035D01*
X100229987Y-66889738D01*
X100279990Y-66772882D01*
X100329994Y-66638026D01*
X100379997Y-66485170D01*
X100427020Y-66324495D01*
X100432138Y-66317805D01*
X100440421Y-66316286D01*
X100899477Y-66403114D01*
G37*
G04 #@! TD.AperFunction*
G04 #@! TA.AperFunction,Conductor*
G36*
X99962997Y-65704389D02*
G01*
X100056537Y-65797929D01*
X100059787Y-65804176D01*
X100058863Y-65811157D01*
X100015867Y-65903124D01*
X99969399Y-66022015D01*
X99922936Y-66160391D01*
X99876466Y-66318292D01*
X99832766Y-66485125D01*
X99827701Y-66492049D01*
X99819274Y-66493656D01*
X99360523Y-66406885D01*
X99355308Y-66404460D01*
X99351879Y-66399845D01*
X99195019Y-66018856D01*
X99194408Y-66011910D01*
X99197857Y-66005848D01*
X99204139Y-66002828D01*
X99342706Y-65982532D01*
X99496097Y-65940565D01*
X99649488Y-65879097D01*
X99802879Y-65798130D01*
X99948313Y-65702874D01*
X99955924Y-65701024D01*
X99962997Y-65704389D01*
G37*
G04 #@! TD.AperFunction*
G04 #@! TA.AperFunction,Conductor*
G36*
X103721475Y-65515475D02*
G01*
X103728333Y-65519031D01*
X103731480Y-65526087D01*
X103785192Y-66171919D01*
X103783668Y-66178733D01*
X103778534Y-66183466D01*
X103733081Y-66204963D01*
X103680292Y-66240428D01*
X103627511Y-66286389D01*
X103574722Y-66342854D01*
X103530093Y-66399469D01*
X103524811Y-66403255D01*
X103518323Y-66403638D01*
X103512632Y-66400499D01*
X103419743Y-66307610D01*
X103417018Y-66303329D01*
X103416362Y-66298298D01*
X103422669Y-66227693D01*
X103424593Y-66222241D01*
X103464515Y-66162495D01*
X103480500Y-66082133D01*
X103480499Y-65494565D01*
X103482354Y-65488245D01*
X103487331Y-65483928D01*
X103493851Y-65482984D01*
X103721475Y-65515475D01*
G37*
G04 #@! TD.AperFunction*
G04 #@! TA.AperFunction,Conductor*
G36*
X96803187Y-65057385D02*
G01*
X96807380Y-65063569D01*
X96814998Y-65090997D01*
X96824992Y-65123978D01*
X96834998Y-65153999D01*
X96845003Y-65181010D01*
X96853594Y-65201626D01*
X96854235Y-65208574D01*
X96716441Y-65852532D01*
X96712357Y-65859182D01*
X96705000Y-65861784D01*
X96697643Y-65859182D01*
X96693559Y-65852532D01*
X96679895Y-65788677D01*
X96555764Y-65208571D01*
X96556404Y-65201628D01*
X96565000Y-65181000D01*
X96575000Y-65154000D01*
X96584999Y-65124000D01*
X96594999Y-65091000D01*
X96595000Y-65090997D01*
X96602620Y-65063568D01*
X96606813Y-65057385D01*
X96613893Y-65055000D01*
X96796107Y-65055000D01*
X96803187Y-65057385D01*
G37*
G04 #@! TD.AperFunction*
G04 #@! TA.AperFunction,Conductor*
G36*
X99453901Y-65606766D02*
G01*
X99458215Y-65611530D01*
X99489700Y-65675471D01*
X99515000Y-65726852D01*
X99549063Y-65786851D01*
X99575000Y-65832538D01*
X99635000Y-65922059D01*
X99695000Y-65995416D01*
X99745771Y-66043810D01*
X99749013Y-66049303D01*
X99748893Y-66055681D01*
X99745445Y-66061047D01*
X99362747Y-66399155D01*
X99355000Y-66402087D01*
X99347253Y-66399155D01*
X98964554Y-66061047D01*
X98961106Y-66055681D01*
X98960986Y-66049303D01*
X98964229Y-66043810D01*
X99015000Y-65995416D01*
X99075000Y-65922059D01*
X99135000Y-65832538D01*
X99195000Y-65726851D01*
X99251784Y-65611530D01*
X99256099Y-65606766D01*
X99262280Y-65605000D01*
X99447720Y-65605000D01*
X99453901Y-65606766D01*
G37*
G04 #@! TD.AperFunction*
G04 #@! TA.AperFunction,Conductor*
G36*
X112650208Y-67387443D02*
G01*
X112733897Y-67430529D01*
X112775919Y-67452163D01*
X112777377Y-67453054D01*
X112870472Y-67519742D01*
X112870531Y-67519783D01*
X112951618Y-67576390D01*
X113051073Y-67615441D01*
X113151054Y-67625213D01*
X113189465Y-67628968D01*
X113196993Y-67632753D01*
X113200027Y-67640613D01*
X113200027Y-67819051D01*
X113196869Y-67827046D01*
X113189102Y-67830724D01*
X113146056Y-67833579D01*
X113053803Y-67839696D01*
X112953153Y-67867026D01*
X112869504Y-67909343D01*
X112774677Y-67963779D01*
X112773876Y-67964198D01*
X112650031Y-68023083D01*
X112643886Y-68024163D01*
X112638060Y-68021932D01*
X112634209Y-68017023D01*
X112505880Y-67709506D01*
X112504978Y-67705000D01*
X112505880Y-67700494D01*
X112535729Y-67628968D01*
X112634057Y-67393339D01*
X112638008Y-67388359D01*
X112643980Y-67386179D01*
X112650208Y-67387443D01*
G37*
G04 #@! TD.AperFunction*
G04 #@! TA.AperFunction,Conductor*
G36*
X112841354Y-67237573D02*
G01*
X113565837Y-67720789D01*
X113570445Y-67726823D01*
X113570379Y-67734414D01*
X113565668Y-67740367D01*
X112839829Y-68206595D01*
X112831025Y-68208185D01*
X112823672Y-68203088D01*
X112750858Y-68090088D01*
X112671716Y-67984958D01*
X112671713Y-67984954D01*
X112592578Y-67897523D01*
X112592575Y-67897520D01*
X112592573Y-67897518D01*
X112513431Y-67827769D01*
X112446288Y-67783602D01*
X112441930Y-67778356D01*
X112441237Y-67771572D01*
X112444443Y-67765556D01*
X112575710Y-67634290D01*
X112626567Y-67582088D01*
X112677425Y-67515558D01*
X112728284Y-67434700D01*
X112779142Y-67339514D01*
X112824252Y-67242376D01*
X112828634Y-67237402D01*
X112835020Y-67235608D01*
X112841354Y-67237573D01*
G37*
G04 #@! TD.AperFunction*
G04 #@! TA.AperFunction,Conductor*
G36*
X107904548Y-61513867D02*
G01*
X107908585Y-61516733D01*
X107947419Y-61559246D01*
X107989851Y-61599694D01*
X107989852Y-61599695D01*
X108032279Y-61634138D01*
X108032282Y-61634140D01*
X108074703Y-61662580D01*
X108103124Y-61677615D01*
X108108132Y-61682752D01*
X108109199Y-61689846D01*
X108105926Y-61696230D01*
X107980076Y-61822080D01*
X107975257Y-61824985D01*
X107969640Y-61825305D01*
X107967939Y-61824985D01*
X107945978Y-61820852D01*
X107809417Y-61795158D01*
X107643107Y-61769867D01*
X107476816Y-61750578D01*
X107310510Y-61737288D01*
X107156725Y-61730548D01*
X107150726Y-61728580D01*
X107146623Y-61723782D01*
X107145610Y-61717553D01*
X107165650Y-61539450D01*
X107169382Y-61532125D01*
X107177013Y-61529064D01*
X107899689Y-61512927D01*
X107904548Y-61513867D01*
G37*
G04 #@! TD.AperFunction*
G04 #@! TA.AperFunction,Conductor*
G36*
X92694234Y-67262974D02*
G01*
X92787502Y-67373420D01*
X92887499Y-67472628D01*
X92987495Y-67552625D01*
X92987499Y-67552628D01*
X93087499Y-67613418D01*
X93087501Y-67613418D01*
X93087503Y-67613420D01*
X93180292Y-67652003D01*
X93185533Y-67656312D01*
X93187500Y-67662806D01*
X93187500Y-67847194D01*
X93185533Y-67853688D01*
X93180292Y-67857997D01*
X93087503Y-67896578D01*
X92987495Y-67957373D01*
X92887499Y-68037370D01*
X92787502Y-68136578D01*
X92694234Y-68247025D01*
X92686940Y-68251060D01*
X92678811Y-68249215D01*
X92630206Y-68216854D01*
X91951125Y-67764737D01*
X91946534Y-67758767D01*
X91946534Y-67751233D01*
X91951125Y-67745262D01*
X92678813Y-67260783D01*
X92686940Y-67258939D01*
X92694234Y-67262974D01*
G37*
G04 #@! TD.AperFunction*
G04 #@! TA.AperFunction,Conductor*
G36*
X98131432Y-76886988D02*
G01*
X98181857Y-76918045D01*
X98441541Y-77077988D01*
X98759522Y-77228837D01*
X98759524Y-77228837D01*
X98759525Y-77228838D01*
X99077505Y-77334687D01*
X99395483Y-77395534D01*
X99395484Y-77395535D01*
X99695361Y-77410481D01*
X99702448Y-77413331D01*
X99706266Y-77419947D01*
X99705187Y-77427509D01*
X99307960Y-78201317D01*
X99305066Y-78204942D01*
X99300991Y-78207157D01*
X98398626Y-78484699D01*
X98392231Y-78484837D01*
X98386720Y-78481591D01*
X98383738Y-78475933D01*
X98305535Y-78105484D01*
X98224686Y-77767503D01*
X98143837Y-77474522D01*
X98062988Y-77226541D01*
X97984988Y-77030713D01*
X97984400Y-77024026D01*
X97987584Y-77018116D01*
X98117024Y-76888676D01*
X98123934Y-76885330D01*
X98131432Y-76886988D01*
G37*
G04 #@! TD.AperFunction*
G04 #@! TA.AperFunction,Conductor*
G36*
X92989737Y-71418625D02*
G01*
X93425792Y-72073580D01*
X93473946Y-72145907D01*
X93475751Y-72154298D01*
X93471344Y-72161662D01*
X93400000Y-72216581D01*
X93320000Y-72297371D01*
X93240000Y-72397369D01*
X93160000Y-72516577D01*
X93083378Y-72649155D01*
X93079096Y-72653434D01*
X93073248Y-72655000D01*
X92886752Y-72655000D01*
X92880904Y-72653434D01*
X92876622Y-72649155D01*
X92799998Y-72516577D01*
X92759207Y-72455795D01*
X92720000Y-72397371D01*
X92639999Y-72297371D01*
X92559999Y-72216581D01*
X92488655Y-72161662D01*
X92484248Y-72154298D01*
X92486052Y-72145909D01*
X92970262Y-71418625D01*
X92976233Y-71414034D01*
X92983767Y-71414034D01*
X92989737Y-71418625D01*
G37*
G04 #@! TD.AperFunction*
G04 #@! TA.AperFunction,Conductor*
G36*
X92492976Y-76888677D02*
G01*
X92622413Y-77018114D01*
X92625599Y-77024026D01*
X92625010Y-77030716D01*
X92547011Y-77226541D01*
X92466156Y-77474541D01*
X92385315Y-77767487D01*
X92304466Y-78105471D01*
X92226260Y-78475934D01*
X92223278Y-78481592D01*
X92217767Y-78484838D01*
X92211372Y-78484700D01*
X91309008Y-78207157D01*
X91304933Y-78204942D01*
X91302039Y-78201317D01*
X91252844Y-78105484D01*
X90904810Y-77427507D01*
X90903732Y-77419947D01*
X90907550Y-77413331D01*
X90914636Y-77410481D01*
X91214514Y-77395535D01*
X91313088Y-77376671D01*
X91532492Y-77334687D01*
X91533798Y-77334251D01*
X91850477Y-77228837D01*
X92168458Y-77077988D01*
X92478568Y-76886987D01*
X92486065Y-76885330D01*
X92492976Y-76888677D01*
G37*
G04 #@! TD.AperFunction*
G04 #@! TA.AperFunction,Conductor*
G36*
X111844986Y-54508803D02*
G01*
X111849797Y-54514863D01*
X111849774Y-54522601D01*
X111229741Y-56275557D01*
X111226932Y-56279980D01*
X111222474Y-56282733D01*
X111082524Y-56330264D01*
X110854258Y-56500595D01*
X110853941Y-56500824D01*
X110544732Y-56715855D01*
X110543063Y-56716822D01*
X110154935Y-56900758D01*
X110151855Y-56901725D01*
X109697684Y-56977719D01*
X109691056Y-56976895D01*
X109685959Y-56972580D01*
X109684053Y-56966179D01*
X109684053Y-55488114D01*
X109686139Y-55481447D01*
X109691652Y-55477156D01*
X109726838Y-55463985D01*
X109874330Y-55408781D01*
X109970617Y-55235701D01*
X110001864Y-55021624D01*
X109997021Y-54827412D01*
X109986260Y-54725495D01*
X109988777Y-54716936D01*
X109996596Y-54712639D01*
X111837448Y-54507071D01*
X111844986Y-54508803D01*
G37*
G04 #@! TD.AperFunction*
G04 #@! TA.AperFunction,Conductor*
G36*
X105013391Y-53194988D02*
G01*
X105021628Y-53198391D01*
X105025079Y-53206607D01*
X105028120Y-53647754D01*
X105035560Y-53969024D01*
X105044436Y-54246336D01*
X105044395Y-54246337D01*
X105044440Y-54246439D01*
X105051877Y-54567595D01*
X105051880Y-54567785D01*
X105054919Y-55008665D01*
X105053378Y-55014549D01*
X105049092Y-55018865D01*
X105043219Y-55020446D01*
X104064914Y-55020446D01*
X104057350Y-55017672D01*
X104053373Y-55010666D01*
X103987566Y-54615020D01*
X103987566Y-54615019D01*
X103814544Y-54369104D01*
X103814542Y-54369101D01*
X103580158Y-54181872D01*
X103579578Y-54181378D01*
X103328654Y-53952650D01*
X103326527Y-53950062D01*
X103108168Y-53589326D01*
X103106482Y-53582922D01*
X103108543Y-53576628D01*
X103113688Y-53572463D01*
X104022841Y-53194896D01*
X104027336Y-53194002D01*
X105013391Y-53194988D01*
G37*
G04 #@! TD.AperFunction*
G04 #@! TA.AperFunction,Conductor*
G36*
X101541088Y-57882056D02*
G01*
X101545384Y-57887500D01*
X101562495Y-57931992D01*
X101577496Y-57966494D01*
X101582499Y-57978000D01*
X101602498Y-58017995D01*
X101602501Y-58018001D01*
X101622501Y-58052001D01*
X101636754Y-58071955D01*
X101638894Y-58079705D01*
X101635527Y-58087007D01*
X101450794Y-58272664D01*
X101445538Y-58275711D01*
X101439462Y-58275711D01*
X101434206Y-58272665D01*
X101434205Y-58272664D01*
X101249471Y-58087005D01*
X101246105Y-58079705D01*
X101248244Y-58071957D01*
X101262499Y-58051999D01*
X101282499Y-58017999D01*
X101302500Y-57978000D01*
X101322500Y-57932000D01*
X101339615Y-57887499D01*
X101343911Y-57882056D01*
X101350535Y-57880000D01*
X101534464Y-57880000D01*
X101541088Y-57882056D01*
G37*
G04 #@! TD.AperFunction*
G04 #@! TA.AperFunction,Conductor*
G36*
X103002924Y-55757582D02*
G01*
X103007019Y-55764190D01*
X103031952Y-55877682D01*
X103058899Y-55991340D01*
X103058910Y-55991385D01*
X103070043Y-56034628D01*
X103085867Y-56096088D01*
X103112825Y-56191788D01*
X103137572Y-56271375D01*
X103137695Y-56277900D01*
X103134304Y-56283476D01*
X102762904Y-56623758D01*
X102755000Y-56626831D01*
X102747096Y-56623758D01*
X102375695Y-56283476D01*
X102372304Y-56277900D01*
X102372426Y-56271377D01*
X102397179Y-56191770D01*
X102424134Y-56096077D01*
X102451089Y-55991385D01*
X102478044Y-55877692D01*
X102502981Y-55764188D01*
X102507076Y-55757582D01*
X102514408Y-55755000D01*
X102995592Y-55755000D01*
X103002924Y-55757582D01*
G37*
G04 #@! TD.AperFunction*
G04 #@! TA.AperFunction,Conductor*
G36*
X102413584Y-52822525D02*
G01*
X102614149Y-53257701D01*
X102779712Y-53573833D01*
X102780060Y-53574557D01*
X102902176Y-53852625D01*
X102902870Y-53854729D01*
X102978599Y-54186962D01*
X102978875Y-54188926D01*
X103004329Y-54656614D01*
X103002984Y-54662729D01*
X102998679Y-54667275D01*
X102992646Y-54668950D01*
X102514153Y-54668950D01*
X102506944Y-54666465D01*
X102502797Y-54660066D01*
X102488426Y-54602121D01*
X102425936Y-54350135D01*
X102425935Y-54350134D01*
X102211703Y-54232909D01*
X102123163Y-54229303D01*
X101896732Y-54220083D01*
X101649053Y-54216436D01*
X101516705Y-54214487D01*
X101514240Y-54214187D01*
X101115770Y-54121992D01*
X101109966Y-54118694D01*
X101106909Y-54112760D01*
X101107595Y-54106122D01*
X101483144Y-53198485D01*
X101485683Y-53194685D01*
X101489485Y-53192146D01*
X102398493Y-52816607D01*
X102407228Y-52816529D01*
X102413584Y-52822525D01*
G37*
G04 #@! TD.AperFunction*
G04 #@! TA.AperFunction,Conductor*
G36*
X94915148Y-57852849D02*
G01*
X95011229Y-57937933D01*
X95115922Y-58012765D01*
X95220614Y-58069721D01*
X95325307Y-58108799D01*
X95406348Y-58125210D01*
X95420622Y-58128101D01*
X95427357Y-58132161D01*
X95430000Y-58139568D01*
X95430000Y-58320432D01*
X95427357Y-58327839D01*
X95420622Y-58331899D01*
X95325305Y-58351200D01*
X95220618Y-58390276D01*
X95115918Y-58447236D01*
X95011230Y-58522064D01*
X94915149Y-58607149D01*
X94906782Y-58610074D01*
X94898766Y-58606294D01*
X94561241Y-58237903D01*
X94558168Y-58229999D01*
X94561239Y-58222098D01*
X94898767Y-57853703D01*
X94906782Y-57849925D01*
X94915148Y-57852849D01*
G37*
G04 #@! TD.AperFunction*
G04 #@! TA.AperFunction,Conductor*
G36*
X95811232Y-57853704D02*
G01*
X96009150Y-58069721D01*
X96148758Y-58222096D01*
X96151831Y-58230000D01*
X96148758Y-58237904D01*
X95811234Y-58606294D01*
X95803217Y-58610074D01*
X95794850Y-58607149D01*
X95793884Y-58606294D01*
X95698770Y-58522066D01*
X95698771Y-58522066D01*
X95698768Y-58522064D01*
X95594080Y-58447236D01*
X95594079Y-58447235D01*
X95594077Y-58447234D01*
X95489385Y-58390278D01*
X95489380Y-58390276D01*
X95384693Y-58351200D01*
X95289378Y-58331899D01*
X95282643Y-58327839D01*
X95280000Y-58320432D01*
X95280000Y-58139568D01*
X95282643Y-58132161D01*
X95289378Y-58128101D01*
X95302108Y-58125522D01*
X95384692Y-58108799D01*
X95489385Y-58069721D01*
X95594077Y-58012765D01*
X95698770Y-57937933D01*
X95794852Y-57852849D01*
X95803217Y-57849925D01*
X95811232Y-57853704D01*
G37*
G04 #@! TD.AperFunction*
G04 #@! TA.AperFunction,Conductor*
G36*
X96803187Y-60657385D02*
G01*
X96807380Y-60663569D01*
X96814998Y-60690997D01*
X96824992Y-60723978D01*
X96834998Y-60753999D01*
X96845003Y-60781010D01*
X96853594Y-60801626D01*
X96854235Y-60808574D01*
X96716441Y-61452532D01*
X96712357Y-61459182D01*
X96705000Y-61461784D01*
X96697643Y-61459182D01*
X96693559Y-61452532D01*
X96679895Y-61388677D01*
X96555764Y-60808571D01*
X96556404Y-60801628D01*
X96565000Y-60781000D01*
X96575000Y-60754000D01*
X96584999Y-60724000D01*
X96594999Y-60691000D01*
X96595000Y-60690997D01*
X96602620Y-60663568D01*
X96606813Y-60657385D01*
X96613893Y-60655000D01*
X96796107Y-60655000D01*
X96803187Y-60657385D01*
G37*
G04 #@! TD.AperFunction*
G04 #@! TA.AperFunction,Conductor*
G36*
X96627529Y-58188948D02*
G01*
X96631980Y-58196108D01*
X96665004Y-58370069D01*
X96700000Y-58536415D01*
X96734994Y-58684752D01*
X96770000Y-58815142D01*
X96800272Y-58912331D01*
X96800199Y-58919516D01*
X96795940Y-58925303D01*
X96789101Y-58927510D01*
X96608867Y-58927510D01*
X96601894Y-58925205D01*
X96584548Y-58912331D01*
X96476325Y-58832008D01*
X96476324Y-58832007D01*
X96347656Y-58754507D01*
X96310695Y-58737416D01*
X96218977Y-58695004D01*
X96187263Y-58684775D01*
X96090307Y-58653503D01*
X96090304Y-58653502D01*
X96090303Y-58653502D01*
X96032250Y-58642898D01*
X95976736Y-58632759D01*
X95970495Y-58629452D01*
X95967295Y-58623157D01*
X95968298Y-58616168D01*
X96152122Y-58234967D01*
X96155995Y-58230435D01*
X96161597Y-58228398D01*
X96619424Y-58186638D01*
X96627529Y-58188948D01*
G37*
G04 #@! TD.AperFunction*
G04 #@! TA.AperFunction,Conductor*
G36*
X96198747Y-59592341D02*
G01*
X96204132Y-59595974D01*
X96206750Y-59601919D01*
X96235002Y-59812315D01*
X96264997Y-60017700D01*
X96294997Y-60205118D01*
X96325001Y-60374551D01*
X96352231Y-60511990D01*
X96351561Y-60518747D01*
X96347252Y-60523994D01*
X96340754Y-60525964D01*
X96059697Y-60525964D01*
X96051606Y-60522715D01*
X95943843Y-60419546D01*
X95933503Y-60411321D01*
X95832693Y-60331132D01*
X95721526Y-60260708D01*
X95610375Y-60208294D01*
X95512863Y-60178100D01*
X95507233Y-60174289D01*
X95504673Y-60167989D01*
X95506047Y-60161333D01*
X95752564Y-59708474D01*
X95755652Y-59704838D01*
X95759934Y-59702737D01*
X96192256Y-59592141D01*
X96198747Y-59592341D01*
G37*
G04 #@! TD.AperFunction*
G04 #@! TA.AperFunction,Conductor*
G36*
X115631797Y-64628672D02*
G01*
X115915543Y-64853234D01*
X116057132Y-64904288D01*
X116166624Y-64943769D01*
X116417412Y-64967540D01*
X116702096Y-64997604D01*
X116707361Y-64998160D01*
X116709491Y-64998587D01*
X117067889Y-65105988D01*
X117073304Y-65109458D01*
X117076068Y-65115268D01*
X117075342Y-65121661D01*
X116757562Y-65891214D01*
X116755021Y-65895021D01*
X116751214Y-65897562D01*
X115981661Y-66215342D01*
X115975268Y-66216068D01*
X115969458Y-66213304D01*
X115965988Y-66207889D01*
X115858587Y-65849491D01*
X115858160Y-65847361D01*
X115827551Y-65557518D01*
X115827538Y-65557393D01*
X115803769Y-65306624D01*
X115737075Y-65121661D01*
X115713234Y-65055543D01*
X115488672Y-64771797D01*
X115486166Y-64763858D01*
X115489572Y-64756264D01*
X115616264Y-64629572D01*
X115623858Y-64626166D01*
X115631797Y-64628672D01*
G37*
G04 #@! TD.AperFunction*
G04 #@! TA.AperFunction,Conductor*
G36*
X107847567Y-60040115D02*
G01*
X107895614Y-60068089D01*
X107895616Y-60068090D01*
X107895618Y-60068091D01*
X107947955Y-60092565D01*
X107947957Y-60092566D01*
X107947960Y-60092567D01*
X108000306Y-60111043D01*
X108000307Y-60111044D01*
X108052655Y-60123523D01*
X108094737Y-60128730D01*
X108102066Y-60132592D01*
X108105000Y-60140341D01*
X108105000Y-60319659D01*
X108102066Y-60327408D01*
X108094736Y-60331270D01*
X108052656Y-60336475D01*
X108000307Y-60348954D01*
X107947955Y-60367433D01*
X107895617Y-60391907D01*
X107847567Y-60419884D01*
X107843140Y-60421382D01*
X107838481Y-60421027D01*
X107206088Y-60241253D01*
X107199951Y-60237051D01*
X107197587Y-60229999D01*
X107199951Y-60222947D01*
X107206085Y-60218746D01*
X107838484Y-60038971D01*
X107843140Y-60038617D01*
X107847567Y-60040115D01*
G37*
G04 #@! TD.AperFunction*
G04 #@! TA.AperFunction,Conductor*
G36*
X107847567Y-60690115D02*
G01*
X107895614Y-60718089D01*
X107895616Y-60718090D01*
X107895618Y-60718091D01*
X107947955Y-60742565D01*
X107947957Y-60742566D01*
X107947960Y-60742567D01*
X108000306Y-60761043D01*
X108000307Y-60761044D01*
X108052655Y-60773523D01*
X108094737Y-60778730D01*
X108102066Y-60782592D01*
X108105000Y-60790341D01*
X108105000Y-60969659D01*
X108102066Y-60977408D01*
X108094736Y-60981270D01*
X108052656Y-60986475D01*
X108000307Y-60998954D01*
X107947955Y-61017433D01*
X107895617Y-61041907D01*
X107847567Y-61069884D01*
X107843140Y-61071382D01*
X107838481Y-61071027D01*
X107206088Y-60891254D01*
X107199951Y-60887052D01*
X107197587Y-60880000D01*
X107199951Y-60872948D01*
X107206088Y-60868746D01*
X107838484Y-60688971D01*
X107843140Y-60688617D01*
X107847567Y-60690115D01*
G37*
G04 #@! TD.AperFunction*
G04 #@! TA.AperFunction,Conductor*
G36*
X116430675Y-62576616D02*
G01*
X116434683Y-62581650D01*
X116754134Y-63350510D01*
X116755029Y-63354999D01*
X116754134Y-63359488D01*
X116434683Y-64128349D01*
X116430675Y-64133383D01*
X116424613Y-64135537D01*
X116418328Y-64134160D01*
X116088964Y-63956681D01*
X116087155Y-63955477D01*
X115860543Y-63772156D01*
X115860446Y-63772077D01*
X115666332Y-63611575D01*
X115424773Y-63498054D01*
X115151031Y-63466181D01*
X115065346Y-63456204D01*
X115057962Y-63452364D01*
X115055000Y-63444584D01*
X115055000Y-63265416D01*
X115057962Y-63257636D01*
X115065346Y-63253795D01*
X115424775Y-63211944D01*
X115666334Y-63098421D01*
X115860476Y-62937896D01*
X116087160Y-62754517D01*
X116088958Y-62753320D01*
X116418331Y-62575838D01*
X116424613Y-62574462D01*
X116430675Y-62576616D01*
G37*
G04 #@! TD.AperFunction*
G04 #@! TA.AperFunction,Conductor*
G36*
X107847567Y-59390115D02*
G01*
X107895614Y-59418089D01*
X107895616Y-59418090D01*
X107895618Y-59418091D01*
X107947955Y-59442565D01*
X107947957Y-59442566D01*
X107947960Y-59442567D01*
X108000306Y-59461043D01*
X108000307Y-59461044D01*
X108052655Y-59473523D01*
X108094737Y-59478730D01*
X108102066Y-59482592D01*
X108105000Y-59490341D01*
X108105000Y-59669659D01*
X108102066Y-59677408D01*
X108094736Y-59681270D01*
X108052656Y-59686475D01*
X108000307Y-59698954D01*
X107947955Y-59717433D01*
X107895617Y-59741907D01*
X107847567Y-59769884D01*
X107843140Y-59771382D01*
X107838481Y-59771027D01*
X107206088Y-59591254D01*
X107199951Y-59587052D01*
X107197587Y-59580000D01*
X107199951Y-59572948D01*
X107206088Y-59568746D01*
X107838484Y-59388971D01*
X107843140Y-59388617D01*
X107847567Y-59390115D01*
G37*
G04 #@! TD.AperFunction*
G04 #@! TA.AperFunction,Conductor*
G36*
X116430675Y-70196616D02*
G01*
X116434683Y-70201650D01*
X116754134Y-70970510D01*
X116755029Y-70974999D01*
X116754134Y-70979488D01*
X116434683Y-71748349D01*
X116430675Y-71753383D01*
X116424613Y-71755537D01*
X116418328Y-71754160D01*
X116088964Y-71576681D01*
X116087155Y-71575477D01*
X115860543Y-71392156D01*
X115860446Y-71392077D01*
X115666332Y-71231575D01*
X115424773Y-71118054D01*
X115151030Y-71086181D01*
X115065346Y-71076204D01*
X115057962Y-71072364D01*
X115055000Y-71064584D01*
X115055000Y-70885416D01*
X115057962Y-70877636D01*
X115065346Y-70873795D01*
X115424775Y-70831944D01*
X115666334Y-70718421D01*
X115860476Y-70557896D01*
X116087160Y-70374517D01*
X116088958Y-70373320D01*
X116418331Y-70195838D01*
X116424613Y-70194462D01*
X116430675Y-70196616D01*
G37*
G04 #@! TD.AperFunction*
G04 #@! TA.AperFunction,Conductor*
G36*
X101589184Y-62920798D02*
G01*
X101592670Y-62928957D01*
X101595000Y-63085945D01*
X101595000Y-63085955D01*
X101594999Y-63085955D01*
X101596210Y-63158802D01*
X101597500Y-63236459D01*
X101598199Y-63273528D01*
X101599998Y-63368955D01*
X101602498Y-63483462D01*
X101604816Y-63572926D01*
X101603285Y-63579023D01*
X101598819Y-63583447D01*
X101163954Y-63826005D01*
X101155807Y-63827228D01*
X101148874Y-63822778D01*
X100830966Y-63396128D01*
X100828693Y-63390156D01*
X100829898Y-63383879D01*
X100834219Y-63379173D01*
X100917159Y-63328183D01*
X101010994Y-63252495D01*
X101104829Y-63158808D01*
X101198664Y-63047120D01*
X101198665Y-63047119D01*
X101288997Y-62922274D01*
X101293154Y-62918712D01*
X101298476Y-62917432D01*
X101580972Y-62917432D01*
X101589184Y-62920798D01*
G37*
G04 #@! TD.AperFunction*
G04 #@! TA.AperFunction,Conductor*
G36*
X101450792Y-62187334D02*
G01*
X101637615Y-62375091D01*
X101640662Y-62380465D01*
X101640546Y-62386644D01*
X101632496Y-62414010D01*
X101622496Y-62451009D01*
X101612498Y-62491005D01*
X101602498Y-62534006D01*
X101594503Y-62570785D01*
X101590412Y-62577410D01*
X101583070Y-62580000D01*
X101301930Y-62580000D01*
X101294588Y-62577410D01*
X101290497Y-62570786D01*
X101288135Y-62559925D01*
X101282499Y-62533999D01*
X101272499Y-62490999D01*
X101262500Y-62451000D01*
X101252500Y-62414000D01*
X101244452Y-62386640D01*
X101244337Y-62380465D01*
X101247380Y-62375094D01*
X101434209Y-62187331D01*
X101439462Y-62184288D01*
X101445538Y-62184288D01*
X101450792Y-62187334D01*
G37*
G04 #@! TD.AperFunction*
G04 #@! TA.AperFunction,Conductor*
G36*
X102436517Y-67812615D02*
G01*
X102440825Y-67817892D01*
X102668274Y-68372445D01*
X102669118Y-68377736D01*
X102667515Y-68382848D01*
X102642393Y-68425258D01*
X102614290Y-68481701D01*
X102586188Y-68547145D01*
X102558094Y-68621569D01*
X102532683Y-68697034D01*
X102528422Y-68702802D01*
X102521595Y-68705000D01*
X102338405Y-68705000D01*
X102331578Y-68702802D01*
X102327317Y-68697034D01*
X102301904Y-68621569D01*
X102273810Y-68547145D01*
X102273806Y-68547134D01*
X102245708Y-68481701D01*
X102217611Y-68425268D01*
X102192482Y-68382844D01*
X102190881Y-68377735D01*
X102191724Y-68372448D01*
X102419175Y-67817891D01*
X102423483Y-67812615D01*
X102430000Y-67810632D01*
X102436517Y-67812615D01*
G37*
G04 #@! TD.AperFunction*
G04 #@! TA.AperFunction,Conductor*
G36*
X105114251Y-70014238D02*
G01*
X105797709Y-70696721D01*
X105800743Y-70701969D01*
X105800743Y-70708031D01*
X105797709Y-70713279D01*
X105114252Y-71395761D01*
X105108586Y-71398889D01*
X105102123Y-71398526D01*
X105096842Y-71394783D01*
X104965001Y-71229682D01*
X104825001Y-71082024D01*
X104825000Y-71082023D01*
X104685003Y-70962026D01*
X104544997Y-70869680D01*
X104411794Y-70808138D01*
X104406844Y-70803821D01*
X104405001Y-70797517D01*
X104405001Y-70612482D01*
X104406844Y-70606178D01*
X104411792Y-70601861D01*
X104545000Y-70540317D01*
X104685000Y-70447975D01*
X104825000Y-70327975D01*
X104965000Y-70180317D01*
X105096843Y-70015214D01*
X105102122Y-70011473D01*
X105108585Y-70011110D01*
X105114251Y-70014238D01*
G37*
G04 #@! TD.AperFunction*
G04 #@! TA.AperFunction,Conductor*
G36*
X103086517Y-67812615D02*
G01*
X103090825Y-67817892D01*
X103318274Y-68372445D01*
X103319118Y-68377736D01*
X103317515Y-68382848D01*
X103292393Y-68425258D01*
X103264290Y-68481701D01*
X103236188Y-68547145D01*
X103208094Y-68621569D01*
X103182683Y-68697034D01*
X103178422Y-68702802D01*
X103171595Y-68705000D01*
X102988405Y-68705000D01*
X102981578Y-68702802D01*
X102977317Y-68697034D01*
X102951904Y-68621569D01*
X102923810Y-68547145D01*
X102923806Y-68547134D01*
X102895708Y-68481701D01*
X102867611Y-68425268D01*
X102842482Y-68382844D01*
X102840881Y-68377735D01*
X102841724Y-68372448D01*
X103069175Y-67817891D01*
X103073483Y-67812615D01*
X103080000Y-67810632D01*
X103086517Y-67812615D01*
G37*
G04 #@! TD.AperFunction*
M02*
