G04 #@! TF.GenerationSoftware,KiCad,Pcbnew,7.0.1*
G04 #@! TF.CreationDate,2023-07-15T20:00:46+02:00*
G04 #@! TF.ProjectId,servo_level_shifter,73657276-6f5f-46c6-9576-656c5f736869,rev?*
G04 #@! TF.SameCoordinates,Original*
G04 #@! TF.FileFunction,Legend,Top*
G04 #@! TF.FilePolarity,Positive*
%FSLAX46Y46*%
G04 Gerber Fmt 4.6, Leading zero omitted, Abs format (unit mm)*
G04 Created by KiCad (PCBNEW 7.0.1) date 2023-07-15 20:00:46*
%MOMM*%
%LPD*%
G01*
G04 APERTURE LIST*
G04 Aperture macros list*
%AMRoundRect*
0 Rectangle with rounded corners*
0 $1 Rounding radius*
0 $2 $3 $4 $5 $6 $7 $8 $9 X,Y pos of 4 corners*
0 Add a 4 corners polygon primitive as box body*
4,1,4,$2,$3,$4,$5,$6,$7,$8,$9,$2,$3,0*
0 Add four circle primitives for the rounded corners*
1,1,$1+$1,$2,$3*
1,1,$1+$1,$4,$5*
1,1,$1+$1,$6,$7*
1,1,$1+$1,$8,$9*
0 Add four rect primitives between the rounded corners*
20,1,$1+$1,$2,$3,$4,$5,0*
20,1,$1+$1,$4,$5,$6,$7,0*
20,1,$1+$1,$6,$7,$8,$9,0*
20,1,$1+$1,$8,$9,$2,$3,0*%
%AMFreePoly0*
4,1,19,0.000000,0.744911,0.071157,0.744911,0.207708,0.704816,0.327430,0.627875,0.420627,0.520320,0.479746,0.390866,0.500000,0.250000,0.500000,-0.250000,0.479746,-0.390866,0.420627,-0.520320,0.327430,-0.627875,0.207708,-0.704816,0.071157,-0.744911,0.000000,-0.744911,0.000000,-0.750000,-0.550000,-0.750000,-0.550000,0.750000,0.000000,0.750000,0.000000,0.744911,0.000000,0.744911,
$1*%
%AMFreePoly1*
4,1,19,0.550000,-0.750000,0.000000,-0.750000,0.000000,-0.744911,-0.071157,-0.744911,-0.207708,-0.704816,-0.327430,-0.627875,-0.420627,-0.520320,-0.479746,-0.390866,-0.500000,-0.250000,-0.500000,0.250000,-0.479746,0.390866,-0.420627,0.520320,-0.327430,0.627875,-0.207708,0.704816,-0.071157,0.744911,0.000000,0.744911,0.000000,0.750000,0.550000,0.750000,0.550000,-0.750000,0.550000,-0.750000,
$1*%
G04 Aperture macros list end*
%ADD10C,0.100000*%
%ADD11C,0.150000*%
%ADD12C,0.120000*%
%ADD13FreePoly0,90.000000*%
%ADD14R,1.500000X1.000000*%
%ADD15FreePoly1,90.000000*%
%ADD16FreePoly0,0.000000*%
%ADD17R,1.000000X1.500000*%
%ADD18FreePoly1,0.000000*%
%ADD19RoundRect,0.225000X0.225000X0.250000X-0.225000X0.250000X-0.225000X-0.250000X0.225000X-0.250000X0*%
%ADD20O,2.000000X2.000000*%
%ADD21O,1.700000X1.700000*%
%ADD22R,2.000000X2.000000*%
%ADD23C,2.200000*%
%ADD24RoundRect,0.225000X0.250000X-0.225000X0.250000X0.225000X-0.250000X0.225000X-0.250000X-0.225000X0*%
%ADD25RoundRect,0.225000X-0.225000X-0.250000X0.225000X-0.250000X0.225000X0.250000X-0.225000X0.250000X0*%
%ADD26C,3.800000*%
%ADD27R,3.800000X3.800000*%
%ADD28O,1.950000X1.700000*%
%ADD29RoundRect,0.250000X-0.725000X0.600000X-0.725000X-0.600000X0.725000X-0.600000X0.725000X0.600000X0*%
%ADD30FreePoly0,270.000000*%
%ADD31FreePoly1,270.000000*%
%ADD32R,0.300000X1.400000*%
%ADD33RoundRect,0.100000X0.637500X0.100000X-0.637500X0.100000X-0.637500X-0.100000X0.637500X-0.100000X0*%
%ADD34RoundRect,0.125000X0.125000X-0.537500X0.125000X0.537500X-0.125000X0.537500X-0.125000X-0.537500X0*%
%ADD35RoundRect,0.200000X-0.275000X0.200000X-0.275000X-0.200000X0.275000X-0.200000X0.275000X0.200000X0*%
%ADD36RoundRect,0.200000X0.275000X-0.200000X0.275000X0.200000X-0.275000X0.200000X-0.275000X-0.200000X0*%
%ADD37RoundRect,0.200000X0.200000X0.275000X-0.200000X0.275000X-0.200000X-0.275000X0.200000X-0.275000X0*%
%ADD38RoundRect,0.249999X-0.450001X-1.425001X0.450001X-1.425001X0.450001X1.425001X-0.450001X1.425001X0*%
G04 APERTURE END LIST*
D10*
G36*
X108820500Y-53571807D02*
G01*
X108820274Y-53560522D01*
X108819603Y-53549437D01*
X108818492Y-53538561D01*
X108816949Y-53527904D01*
X108814980Y-53517478D01*
X108812592Y-53507292D01*
X108809792Y-53497357D01*
X108806587Y-53487684D01*
X108802983Y-53478283D01*
X108798986Y-53469164D01*
X108794605Y-53460338D01*
X108789845Y-53451816D01*
X108784714Y-53443607D01*
X108779217Y-53435723D01*
X108773363Y-53428173D01*
X108767157Y-53420968D01*
X108760606Y-53414119D01*
X108753718Y-53407637D01*
X108746499Y-53401530D01*
X108738955Y-53395811D01*
X108731094Y-53390489D01*
X108722921Y-53385575D01*
X108714445Y-53381080D01*
X108705672Y-53377013D01*
X108696608Y-53373386D01*
X108687260Y-53370208D01*
X108677635Y-53367490D01*
X108667740Y-53365243D01*
X108657582Y-53363478D01*
X108647167Y-53362203D01*
X108636502Y-53361431D01*
X108625594Y-53361172D01*
X108615052Y-53361431D01*
X108604720Y-53362203D01*
X108594604Y-53363474D01*
X108584713Y-53365236D01*
X108575056Y-53367475D01*
X108565640Y-53370182D01*
X108556475Y-53373344D01*
X108547567Y-53376952D01*
X108538926Y-53380992D01*
X108530560Y-53385455D01*
X108522477Y-53390329D01*
X108514685Y-53395604D01*
X108507193Y-53401267D01*
X108500008Y-53407307D01*
X108493139Y-53413714D01*
X108486595Y-53420477D01*
X108480383Y-53427583D01*
X108474513Y-53435023D01*
X108468991Y-53442784D01*
X108463827Y-53450856D01*
X108459028Y-53459227D01*
X108454603Y-53467886D01*
X108450561Y-53476823D01*
X108446909Y-53486025D01*
X108443655Y-53495482D01*
X108440809Y-53505183D01*
X108438378Y-53515116D01*
X108436370Y-53525270D01*
X108434794Y-53535634D01*
X108433658Y-53546197D01*
X108432971Y-53556947D01*
X108432740Y-53567874D01*
X108432740Y-53833562D01*
X108349648Y-53833562D01*
X108349648Y-53388527D01*
X108185859Y-53388527D01*
X108185859Y-53997180D01*
X108568832Y-53997180D01*
X108568832Y-53574884D01*
X108569605Y-53566634D01*
X108571877Y-53558925D01*
X108575576Y-53551929D01*
X108580629Y-53545819D01*
X108586964Y-53540767D01*
X108594509Y-53536945D01*
X108603193Y-53534525D01*
X108610409Y-53533734D01*
X108612942Y-53533680D01*
X108620321Y-53534164D01*
X108627060Y-53535580D01*
X108635017Y-53538837D01*
X108641757Y-53543551D01*
X108647237Y-53549605D01*
X108651412Y-53556883D01*
X108654239Y-53565269D01*
X108655448Y-53572216D01*
X108655855Y-53579671D01*
X108655855Y-53997180D01*
X108820500Y-53997180D01*
X108820500Y-53571807D01*
G37*
G36*
X108820500Y-52870317D02*
G01*
X108820089Y-52861148D01*
X108818857Y-52852399D01*
X108816804Y-52844072D01*
X108813927Y-52836173D01*
X108810226Y-52828706D01*
X108805701Y-52821674D01*
X108800350Y-52815083D01*
X108794173Y-52808936D01*
X108787168Y-52803237D01*
X108779336Y-52797992D01*
X108773654Y-52794748D01*
X108185859Y-52468537D01*
X108185859Y-52661562D01*
X108615506Y-52889978D01*
X108185859Y-53118223D01*
X108185859Y-53311248D01*
X108773654Y-52985892D01*
X108782039Y-52980969D01*
X108789595Y-52975538D01*
X108796324Y-52969615D01*
X108802225Y-52963214D01*
X108807301Y-52956351D01*
X108811551Y-52949042D01*
X108814977Y-52941301D01*
X108817580Y-52933143D01*
X108819359Y-52924584D01*
X108820317Y-52915639D01*
X108820500Y-52909469D01*
X108820500Y-52870317D01*
G37*
G36*
X100807366Y-55495500D02*
G01*
X100819965Y-55495288D01*
X100832210Y-55494658D01*
X100844098Y-55493614D01*
X100855627Y-55492163D01*
X100866793Y-55490310D01*
X100877593Y-55488061D01*
X100888024Y-55485422D01*
X100898084Y-55482399D01*
X100907769Y-55478997D01*
X100917075Y-55475222D01*
X100926001Y-55471080D01*
X100934542Y-55466576D01*
X100942697Y-55461717D01*
X100950461Y-55456508D01*
X100957833Y-55450955D01*
X100964808Y-55445063D01*
X100971384Y-55438839D01*
X100977557Y-55432288D01*
X100983326Y-55425416D01*
X100988686Y-55418229D01*
X100993634Y-55410732D01*
X100998169Y-55402932D01*
X101002286Y-55394833D01*
X101005982Y-55386442D01*
X101009255Y-55377765D01*
X101012101Y-55368806D01*
X101014518Y-55359573D01*
X101016502Y-55350071D01*
X101018051Y-55340305D01*
X101019161Y-55330281D01*
X101019829Y-55320006D01*
X101020052Y-55309484D01*
X101019944Y-55302311D01*
X101019621Y-55295282D01*
X101019089Y-55288400D01*
X101017413Y-55275088D01*
X101014949Y-55262391D01*
X101011733Y-55250331D01*
X101007798Y-55238925D01*
X101003181Y-55228193D01*
X100997914Y-55218153D01*
X100992033Y-55208825D01*
X100985572Y-55200228D01*
X100978566Y-55192381D01*
X100971049Y-55185303D01*
X100963057Y-55179013D01*
X100954622Y-55173529D01*
X100945781Y-55168872D01*
X100936568Y-55165059D01*
X100931832Y-55163476D01*
X100940063Y-55159795D01*
X100947825Y-55155373D01*
X100955109Y-55150232D01*
X100961907Y-55144397D01*
X100968209Y-55137890D01*
X100974009Y-55130736D01*
X100979296Y-55122957D01*
X100984063Y-55114578D01*
X100988301Y-55105622D01*
X100992002Y-55096113D01*
X100995157Y-55086074D01*
X100997757Y-55075528D01*
X100999794Y-55064499D01*
X101001260Y-55053011D01*
X101002145Y-55041087D01*
X101002442Y-55028751D01*
X101002283Y-55019891D01*
X101001802Y-55011172D01*
X101000995Y-55002604D01*
X100999855Y-54994196D01*
X100998378Y-54985956D01*
X100996560Y-54977895D01*
X100994393Y-54970021D01*
X100991874Y-54962343D01*
X100988998Y-54954871D01*
X100985759Y-54947614D01*
X100982152Y-54940580D01*
X100978171Y-54933780D01*
X100973813Y-54927222D01*
X100969071Y-54920916D01*
X100963941Y-54914870D01*
X100958418Y-54909094D01*
X100952495Y-54903597D01*
X100946169Y-54898388D01*
X100939434Y-54893477D01*
X100932285Y-54888872D01*
X100924716Y-54884582D01*
X100916723Y-54880618D01*
X100908301Y-54876988D01*
X100899444Y-54873700D01*
X100890147Y-54870766D01*
X100880405Y-54868192D01*
X100870213Y-54865990D01*
X100859566Y-54864167D01*
X100848459Y-54862734D01*
X100836886Y-54861698D01*
X100824843Y-54861070D01*
X100812324Y-54860859D01*
X100346773Y-54860859D01*
X100346773Y-55019690D01*
X100789756Y-55019690D01*
X100797685Y-55020112D01*
X100804920Y-55021370D01*
X100811441Y-55023454D01*
X100818994Y-55027498D01*
X100825202Y-55032964D01*
X100830021Y-55039826D01*
X100833405Y-55048057D01*
X100834977Y-55055115D01*
X100835698Y-55062917D01*
X100835747Y-55065681D01*
X100835313Y-55073750D01*
X100834022Y-55081114D01*
X100831895Y-55087755D01*
X100827788Y-55095449D01*
X100822269Y-55101774D01*
X100815383Y-55106686D01*
X100807174Y-55110138D01*
X100800175Y-55111741D01*
X100792475Y-55112477D01*
X100789756Y-55112527D01*
X100353611Y-55112527D01*
X100353611Y-55243832D01*
X100799501Y-55243832D01*
X100808002Y-55244300D01*
X100815790Y-55245686D01*
X100822839Y-55247959D01*
X100829122Y-55251090D01*
X100836260Y-55256548D01*
X100841923Y-55263408D01*
X100845164Y-55269432D01*
X100847513Y-55276175D01*
X100848942Y-55283609D01*
X100849424Y-55291703D01*
X100848942Y-55299310D01*
X100847513Y-55306249D01*
X100844182Y-55314434D01*
X100839280Y-55321360D01*
X100832871Y-55326984D01*
X100825020Y-55331265D01*
X100818223Y-55333569D01*
X100810678Y-55335075D01*
X100802412Y-55335767D01*
X100799501Y-55335814D01*
X100346773Y-55335814D01*
X100346773Y-55495500D01*
X100807366Y-55495500D01*
G37*
G36*
X101451239Y-55495500D02*
G01*
X101460407Y-55495089D01*
X101469157Y-55493857D01*
X101477483Y-55491804D01*
X101485382Y-55488927D01*
X101492850Y-55485226D01*
X101499881Y-55480701D01*
X101506472Y-55475350D01*
X101512620Y-55469173D01*
X101518318Y-55462168D01*
X101523564Y-55454336D01*
X101526807Y-55448654D01*
X101853018Y-54860859D01*
X101659993Y-54860859D01*
X101431577Y-55290506D01*
X101203332Y-54860859D01*
X101010307Y-54860859D01*
X101335663Y-55448654D01*
X101340586Y-55457039D01*
X101346017Y-55464595D01*
X101351940Y-55471324D01*
X101358341Y-55477225D01*
X101365204Y-55482301D01*
X101372514Y-55486551D01*
X101380255Y-55489977D01*
X101388413Y-55492580D01*
X101396971Y-55494359D01*
X101405916Y-55495317D01*
X101412087Y-55495500D01*
X101451239Y-55495500D01*
G37*
G36*
X102351567Y-55495500D02*
G01*
X102364166Y-55495288D01*
X102376411Y-55494658D01*
X102388299Y-55493614D01*
X102399828Y-55492163D01*
X102410994Y-55490310D01*
X102421794Y-55488061D01*
X102432225Y-55485422D01*
X102442285Y-55482399D01*
X102451969Y-55478997D01*
X102461276Y-55475222D01*
X102470202Y-55471080D01*
X102478743Y-55466576D01*
X102486898Y-55461717D01*
X102494662Y-55456508D01*
X102502034Y-55450955D01*
X102509009Y-55445063D01*
X102515585Y-55438839D01*
X102521758Y-55432288D01*
X102527527Y-55425416D01*
X102532887Y-55418229D01*
X102537835Y-55410732D01*
X102542370Y-55402932D01*
X102546487Y-55394833D01*
X102550183Y-55386442D01*
X102553456Y-55377765D01*
X102556302Y-55368806D01*
X102558719Y-55359573D01*
X102560703Y-55350071D01*
X102562252Y-55340305D01*
X102563362Y-55330281D01*
X102564030Y-55320006D01*
X102564253Y-55309484D01*
X102564145Y-55302311D01*
X102563822Y-55295282D01*
X102563290Y-55288400D01*
X102561613Y-55275088D01*
X102559150Y-55262391D01*
X102555934Y-55250331D01*
X102551999Y-55238925D01*
X102547381Y-55228193D01*
X102542115Y-55218153D01*
X102536234Y-55208825D01*
X102529773Y-55200228D01*
X102522767Y-55192381D01*
X102515250Y-55185303D01*
X102507258Y-55179013D01*
X102498823Y-55173529D01*
X102489982Y-55168872D01*
X102480768Y-55165059D01*
X102476033Y-55163476D01*
X102484264Y-55159795D01*
X102492026Y-55155373D01*
X102499310Y-55150232D01*
X102506108Y-55144397D01*
X102512410Y-55137890D01*
X102518210Y-55130736D01*
X102523497Y-55122957D01*
X102528264Y-55114578D01*
X102532502Y-55105622D01*
X102536203Y-55096113D01*
X102539358Y-55086074D01*
X102541958Y-55075528D01*
X102543995Y-55064499D01*
X102545461Y-55053011D01*
X102546346Y-55041087D01*
X102546643Y-55028751D01*
X102546484Y-55019891D01*
X102546003Y-55011172D01*
X102545196Y-55002604D01*
X102544056Y-54994196D01*
X102542579Y-54985956D01*
X102540760Y-54977895D01*
X102538594Y-54970021D01*
X102536075Y-54962343D01*
X102533199Y-54954871D01*
X102529960Y-54947614D01*
X102526353Y-54940580D01*
X102522372Y-54933780D01*
X102518014Y-54927222D01*
X102513272Y-54920916D01*
X102508142Y-54914870D01*
X102502619Y-54909094D01*
X102496696Y-54903597D01*
X102490370Y-54898388D01*
X102483635Y-54893477D01*
X102476486Y-54888872D01*
X102468917Y-54884582D01*
X102460924Y-54880618D01*
X102452502Y-54876988D01*
X102443645Y-54873700D01*
X102434348Y-54870766D01*
X102424606Y-54868192D01*
X102414414Y-54865990D01*
X102403767Y-54864167D01*
X102392660Y-54862734D01*
X102381087Y-54861698D01*
X102369044Y-54861070D01*
X102356525Y-54860859D01*
X101890973Y-54860859D01*
X101890973Y-55019690D01*
X102333957Y-55019690D01*
X102341886Y-55020112D01*
X102349121Y-55021370D01*
X102355642Y-55023454D01*
X102363195Y-55027498D01*
X102369403Y-55032964D01*
X102374222Y-55039826D01*
X102377606Y-55048057D01*
X102379178Y-55055115D01*
X102379899Y-55062917D01*
X102379948Y-55065681D01*
X102379513Y-55073750D01*
X102378223Y-55081114D01*
X102376096Y-55087755D01*
X102371989Y-55095449D01*
X102366470Y-55101774D01*
X102359584Y-55106686D01*
X102351375Y-55110138D01*
X102344376Y-55111741D01*
X102336676Y-55112477D01*
X102333957Y-55112527D01*
X101897812Y-55112527D01*
X101897812Y-55243832D01*
X102343702Y-55243832D01*
X102352203Y-55244300D01*
X102359991Y-55245686D01*
X102367040Y-55247959D01*
X102373323Y-55251090D01*
X102380461Y-55256548D01*
X102386124Y-55263408D01*
X102389365Y-55269432D01*
X102391714Y-55276175D01*
X102393143Y-55283609D01*
X102393625Y-55291703D01*
X102393143Y-55299310D01*
X102391714Y-55306249D01*
X102388383Y-55314434D01*
X102383481Y-55321360D01*
X102377072Y-55326984D01*
X102369221Y-55331265D01*
X102362424Y-55333569D01*
X102354879Y-55335075D01*
X102346613Y-55335767D01*
X102343702Y-55335814D01*
X101890973Y-55335814D01*
X101890973Y-55495500D01*
X102351567Y-55495500D01*
G37*
D11*
X98945000Y-55032500D02*
X99655000Y-55032500D01*
X98930000Y-55357500D02*
X99330000Y-55357500D01*
X98930000Y-55357500D02*
X98530000Y-55357500D01*
X98930000Y-55682500D02*
X98855000Y-55682500D01*
D12*
X98945000Y-54525000D02*
X98945000Y-55032500D01*
D11*
X98930000Y-55682500D02*
X99005000Y-55682500D01*
X98235000Y-55032500D02*
X98945000Y-55032500D01*
D10*
X97063333Y-59962166D02*
X97030000Y-59995500D01*
X97030000Y-59995500D02*
X96930000Y-60028833D01*
X96930000Y-60028833D02*
X96863333Y-60028833D01*
X96863333Y-60028833D02*
X96763333Y-59995500D01*
X96763333Y-59995500D02*
X96696667Y-59928833D01*
X96696667Y-59928833D02*
X96663333Y-59862166D01*
X96663333Y-59862166D02*
X96630000Y-59728833D01*
X96630000Y-59728833D02*
X96630000Y-59628833D01*
X96630000Y-59628833D02*
X96663333Y-59495500D01*
X96663333Y-59495500D02*
X96696667Y-59428833D01*
X96696667Y-59428833D02*
X96763333Y-59362166D01*
X96763333Y-59362166D02*
X96863333Y-59328833D01*
X96863333Y-59328833D02*
X96930000Y-59328833D01*
X96930000Y-59328833D02*
X97030000Y-59362166D01*
X97030000Y-59362166D02*
X97063333Y-59395500D01*
X97663333Y-59562166D02*
X97663333Y-60028833D01*
X97496667Y-59295500D02*
X97330000Y-59795500D01*
X97330000Y-59795500D02*
X97763333Y-59795500D01*
G36*
X115192108Y-66862983D02*
G01*
X115212787Y-66862458D01*
X115233154Y-66860899D01*
X115253186Y-66858330D01*
X115272861Y-66854771D01*
X115292156Y-66850247D01*
X115311048Y-66844781D01*
X115329515Y-66838393D01*
X115347535Y-66831109D01*
X115365084Y-66822950D01*
X115382140Y-66813938D01*
X115398681Y-66804098D01*
X115414684Y-66793451D01*
X115430127Y-66782021D01*
X115444986Y-66769829D01*
X115459240Y-66756900D01*
X115472865Y-66743255D01*
X115485839Y-66728917D01*
X115498140Y-66713910D01*
X115509745Y-66698255D01*
X115520631Y-66681976D01*
X115530777Y-66665095D01*
X115540158Y-66647635D01*
X115548753Y-66629620D01*
X115556539Y-66611070D01*
X115563494Y-66592011D01*
X115569595Y-66572463D01*
X115574819Y-66552450D01*
X115579144Y-66531995D01*
X115582547Y-66511121D01*
X115585005Y-66489849D01*
X115586497Y-66468204D01*
X115587000Y-66446207D01*
X115587000Y-66311775D01*
X115586617Y-66303837D01*
X115583705Y-66289462D01*
X115578256Y-66277098D01*
X115570659Y-66266755D01*
X115561306Y-66258441D01*
X115550586Y-66252166D01*
X115538890Y-66247940D01*
X115526608Y-66245773D01*
X115514132Y-66245672D01*
X115501850Y-66247649D01*
X115490154Y-66251712D01*
X115479434Y-66257871D01*
X115470081Y-66266135D01*
X115462484Y-66276514D01*
X115457035Y-66289017D01*
X115454123Y-66303654D01*
X115453741Y-66311775D01*
X115453741Y-66436241D01*
X115452246Y-66469585D01*
X115447888Y-66500743D01*
X115440859Y-66529720D01*
X115431349Y-66556522D01*
X115419549Y-66581155D01*
X115405649Y-66603624D01*
X115389841Y-66623935D01*
X115372316Y-66642092D01*
X115353264Y-66658102D01*
X115332876Y-66671970D01*
X115311343Y-66683702D01*
X115288856Y-66693302D01*
X115265606Y-66700777D01*
X115241783Y-66706131D01*
X115217578Y-66709371D01*
X115193182Y-66710502D01*
X115168787Y-66709529D01*
X115144582Y-66706457D01*
X115120759Y-66701293D01*
X115097509Y-66694042D01*
X115075021Y-66684708D01*
X115053488Y-66673299D01*
X115033101Y-66659818D01*
X115014049Y-66644272D01*
X114996523Y-66626666D01*
X114980715Y-66607006D01*
X114966816Y-66585297D01*
X114955016Y-66561544D01*
X114945506Y-66535753D01*
X114938476Y-66507929D01*
X114934119Y-66478079D01*
X114932624Y-66446207D01*
X114932624Y-66311775D01*
X114932241Y-66303654D01*
X114929325Y-66289017D01*
X114923868Y-66276514D01*
X114916260Y-66266135D01*
X114906893Y-66257871D01*
X114896157Y-66251712D01*
X114884444Y-66247649D01*
X114872144Y-66245672D01*
X114859649Y-66245773D01*
X114847350Y-66247940D01*
X114835637Y-66252166D01*
X114824901Y-66258441D01*
X114815534Y-66266755D01*
X114807926Y-66277098D01*
X114802469Y-66289462D01*
X114799553Y-66303837D01*
X114799170Y-66311775D01*
X114799170Y-66458516D01*
X114800164Y-66479498D01*
X114802074Y-66500185D01*
X114804878Y-66520554D01*
X114808561Y-66540579D01*
X114813101Y-66560236D01*
X114818482Y-66579501D01*
X114824683Y-66598350D01*
X114831688Y-66616758D01*
X114839476Y-66634701D01*
X114848030Y-66652155D01*
X114857330Y-66669095D01*
X114867358Y-66685496D01*
X114878096Y-66701335D01*
X114889524Y-66716587D01*
X114901625Y-66731228D01*
X114914379Y-66745233D01*
X114927768Y-66758578D01*
X114941773Y-66771239D01*
X114956376Y-66783191D01*
X114971558Y-66794409D01*
X114987299Y-66804871D01*
X115003583Y-66814550D01*
X115020389Y-66823423D01*
X115037700Y-66831466D01*
X115055497Y-66838654D01*
X115073761Y-66844962D01*
X115092473Y-66850367D01*
X115111615Y-66854844D01*
X115131168Y-66858368D01*
X115151113Y-66860915D01*
X115171433Y-66862462D01*
X115192108Y-66862983D01*
G37*
G36*
X114868339Y-66155069D02*
G01*
X115518612Y-66155069D01*
X115526979Y-66154696D01*
X115534790Y-66153607D01*
X115545467Y-66150728D01*
X115554906Y-66146485D01*
X115563114Y-66141027D01*
X115570098Y-66134504D01*
X115575866Y-66127063D01*
X115580426Y-66118855D01*
X115583785Y-66110026D01*
X115585952Y-66100727D01*
X115586934Y-66091106D01*
X115587000Y-66087853D01*
X115586383Y-66078150D01*
X115584539Y-66068609D01*
X115581479Y-66059404D01*
X115577211Y-66050708D01*
X115571745Y-66042692D01*
X115565091Y-66035531D01*
X115557258Y-66029397D01*
X115548256Y-66024463D01*
X115538096Y-66020902D01*
X115526786Y-66018888D01*
X115518612Y-66018488D01*
X115260300Y-66018488D01*
X115255453Y-66007573D01*
X115251014Y-65996668D01*
X115246969Y-65985787D01*
X115243307Y-65974940D01*
X115240013Y-65964139D01*
X115237075Y-65953395D01*
X115234479Y-65942719D01*
X115232212Y-65932124D01*
X115230262Y-65921621D01*
X115228614Y-65911220D01*
X115227255Y-65900934D01*
X115226173Y-65890774D01*
X115225355Y-65880751D01*
X115224787Y-65870877D01*
X115224455Y-65861164D01*
X115224348Y-65851622D01*
X115224438Y-65842757D01*
X115224702Y-65834045D01*
X115225130Y-65825496D01*
X115225711Y-65817117D01*
X115226433Y-65808917D01*
X115227288Y-65800905D01*
X115228264Y-65793088D01*
X115230539Y-65778074D01*
X115233174Y-65763944D01*
X115236085Y-65750763D01*
X115239188Y-65738599D01*
X115242399Y-65727520D01*
X115245635Y-65717591D01*
X115248811Y-65708880D01*
X115251845Y-65701454D01*
X115255942Y-65692870D01*
X115260868Y-65685937D01*
X115261473Y-65685732D01*
X115518612Y-65685732D01*
X115526786Y-65685335D01*
X115538096Y-65683330D01*
X115548256Y-65679785D01*
X115557258Y-65674869D01*
X115565091Y-65668753D01*
X115571745Y-65661606D01*
X115577211Y-65653599D01*
X115581479Y-65644901D01*
X115584539Y-65635684D01*
X115586383Y-65626115D01*
X115587000Y-65616367D01*
X115586383Y-65606643D01*
X115584539Y-65597141D01*
X115581479Y-65588021D01*
X115577211Y-65579444D01*
X115571745Y-65571571D01*
X115565091Y-65564561D01*
X115557258Y-65558575D01*
X115548256Y-65553774D01*
X115538096Y-65550317D01*
X115526786Y-65548365D01*
X115518612Y-65547979D01*
X114868339Y-65547979D01*
X114859899Y-65548365D01*
X114852016Y-65549491D01*
X114841231Y-65552464D01*
X114831690Y-65556835D01*
X114823387Y-65562444D01*
X114816316Y-65569130D01*
X114810471Y-65576734D01*
X114805846Y-65585094D01*
X114802436Y-65594050D01*
X114800235Y-65603443D01*
X114799236Y-65613111D01*
X114799170Y-65616367D01*
X114799768Y-65626115D01*
X114801568Y-65635684D01*
X114804575Y-65644901D01*
X114808794Y-65653599D01*
X114814231Y-65661606D01*
X114820893Y-65668753D01*
X114828785Y-65674869D01*
X114837913Y-65679785D01*
X114848282Y-65683330D01*
X114859899Y-65685335D01*
X114868339Y-65685732D01*
X115127041Y-65685732D01*
X115127041Y-65686904D01*
X115124430Y-65696756D01*
X115122102Y-65705905D01*
X115120303Y-65713581D01*
X115118379Y-65722489D01*
X115116392Y-65732602D01*
X115114406Y-65743895D01*
X115112482Y-65756340D01*
X115110683Y-65769913D01*
X115109071Y-65784586D01*
X115107709Y-65800335D01*
X115107141Y-65808604D01*
X115106659Y-65817133D01*
X115106270Y-65825917D01*
X115105983Y-65834953D01*
X115105804Y-65844239D01*
X115105743Y-65853771D01*
X115105811Y-65862898D01*
X115106020Y-65872181D01*
X115106377Y-65881619D01*
X115106891Y-65891214D01*
X115107570Y-65900963D01*
X115108422Y-65910869D01*
X115109455Y-65920930D01*
X115110677Y-65931147D01*
X115112096Y-65941520D01*
X115113719Y-65952048D01*
X115115556Y-65962732D01*
X115117614Y-65973572D01*
X115119900Y-65984568D01*
X115122424Y-65995719D01*
X115125192Y-66007026D01*
X115128214Y-66018488D01*
X114868339Y-66018488D01*
X114859899Y-66018861D01*
X114852016Y-66019950D01*
X114841231Y-66022830D01*
X114831690Y-66027073D01*
X114823387Y-66032530D01*
X114816316Y-66039054D01*
X114810471Y-66046494D01*
X114805846Y-66054703D01*
X114802436Y-66063531D01*
X114800235Y-66072830D01*
X114799236Y-66082451D01*
X114799170Y-66085704D01*
X114799796Y-66095407D01*
X114801668Y-66104948D01*
X114804775Y-66114153D01*
X114809103Y-66122850D01*
X114814642Y-66130865D01*
X114821380Y-66138027D01*
X114829306Y-66144160D01*
X114838407Y-66149094D01*
X114848673Y-66152655D01*
X114860092Y-66154670D01*
X114868339Y-66155069D01*
G37*
G36*
X115409777Y-65457512D02*
G01*
X115424369Y-65455798D01*
X115439640Y-65451949D01*
X115447460Y-65449244D01*
X115455366Y-65446031D01*
X115463329Y-65442316D01*
X115471323Y-65438109D01*
X115479319Y-65433419D01*
X115487288Y-65428252D01*
X115495204Y-65422618D01*
X115503038Y-65416526D01*
X115510763Y-65409982D01*
X115518349Y-65402996D01*
X115525770Y-65395577D01*
X115532997Y-65387731D01*
X115540003Y-65379469D01*
X115546759Y-65370797D01*
X115553238Y-65361725D01*
X115559412Y-65352260D01*
X115565252Y-65342411D01*
X115570731Y-65332187D01*
X115575821Y-65321596D01*
X115580493Y-65310645D01*
X115584721Y-65299344D01*
X115588476Y-65287701D01*
X115591729Y-65275723D01*
X115594454Y-65263420D01*
X115596622Y-65250800D01*
X115598205Y-65237871D01*
X115599175Y-65224641D01*
X115599505Y-65211119D01*
X115599091Y-65195963D01*
X115597868Y-65181132D01*
X115595865Y-65166639D01*
X115593112Y-65152498D01*
X115589637Y-65138722D01*
X115585471Y-65125325D01*
X115580641Y-65112320D01*
X115575178Y-65099720D01*
X115569111Y-65087540D01*
X115562468Y-65075792D01*
X115555279Y-65064490D01*
X115547573Y-65053647D01*
X115539379Y-65043277D01*
X115530727Y-65033393D01*
X115521645Y-65024010D01*
X115512163Y-65015139D01*
X115502395Y-65007037D01*
X115492379Y-64999505D01*
X115482142Y-64992537D01*
X115471711Y-64986126D01*
X115461112Y-64980266D01*
X115450374Y-64974950D01*
X115439522Y-64970171D01*
X115428584Y-64965924D01*
X115417586Y-64962201D01*
X115406555Y-64958995D01*
X115395519Y-64956301D01*
X115384504Y-64954112D01*
X115373537Y-64952420D01*
X115362645Y-64951220D01*
X115351855Y-64950505D01*
X115341193Y-64950268D01*
X115333009Y-64950308D01*
X115323994Y-64950472D01*
X115315454Y-64950734D01*
X115307128Y-64951073D01*
X115303482Y-64951245D01*
X115294190Y-64952367D01*
X115286041Y-64954089D01*
X115277261Y-64956543D01*
X115267855Y-64959731D01*
X115260393Y-64962602D01*
X115252582Y-64965886D01*
X115244426Y-64969581D01*
X115235925Y-64973689D01*
X115227083Y-64978209D01*
X115218073Y-64983171D01*
X115209287Y-64988594D01*
X115200719Y-64994468D01*
X115192366Y-65000782D01*
X115184224Y-65007523D01*
X115176290Y-65014680D01*
X115168559Y-65022242D01*
X115161028Y-65030196D01*
X115153692Y-65038532D01*
X115146549Y-65047238D01*
X115141891Y-65053241D01*
X115133207Y-65045798D01*
X115124389Y-65038988D01*
X115115457Y-65032792D01*
X115106433Y-65027186D01*
X115097338Y-65022151D01*
X115088194Y-65017664D01*
X115079020Y-65013706D01*
X115069840Y-65010254D01*
X115060673Y-65007288D01*
X115051541Y-65004785D01*
X115042465Y-65002726D01*
X115033466Y-65001089D01*
X115024566Y-64999852D01*
X115015785Y-64998995D01*
X115007145Y-64998496D01*
X114998667Y-64998335D01*
X114989354Y-64998305D01*
X114981055Y-64998652D01*
X114970680Y-64999655D01*
X114961579Y-65001024D01*
X114951380Y-65003068D01*
X114940113Y-65005919D01*
X114932023Y-65008332D01*
X114923481Y-65011200D01*
X114914494Y-65014564D01*
X114905073Y-65018461D01*
X114891630Y-65025435D01*
X114878666Y-65033298D01*
X114866235Y-65042022D01*
X114854390Y-65051580D01*
X114843185Y-65061943D01*
X114832674Y-65073085D01*
X114822910Y-65084979D01*
X114813946Y-65097595D01*
X114805837Y-65110908D01*
X114802119Y-65117817D01*
X114798635Y-65124889D01*
X114795391Y-65132122D01*
X114792394Y-65139512D01*
X114789651Y-65147055D01*
X114787168Y-65154748D01*
X114784952Y-65162588D01*
X114783010Y-65170570D01*
X114781349Y-65178693D01*
X114779974Y-65186951D01*
X114778893Y-65195343D01*
X114778113Y-65203864D01*
X114777640Y-65212511D01*
X114777481Y-65221280D01*
X114777765Y-65232908D01*
X114778600Y-65244269D01*
X114779959Y-65255355D01*
X114781816Y-65266159D01*
X114784145Y-65276675D01*
X114786919Y-65286896D01*
X114790113Y-65296814D01*
X114793699Y-65306423D01*
X114797651Y-65315716D01*
X114801943Y-65324686D01*
X114806550Y-65333327D01*
X114811443Y-65341630D01*
X114816597Y-65349591D01*
X114821987Y-65357201D01*
X114827584Y-65364454D01*
X114833364Y-65371343D01*
X114839670Y-65378254D01*
X114846003Y-65384648D01*
X114852392Y-65390556D01*
X114858863Y-65396011D01*
X114865444Y-65401045D01*
X114872162Y-65405689D01*
X114879045Y-65409977D01*
X114886120Y-65413939D01*
X114896340Y-65419003D01*
X114905477Y-65422963D01*
X114913561Y-65425951D01*
X114922753Y-65428652D01*
X114931794Y-65430408D01*
X114940128Y-65430939D01*
X114943762Y-65430742D01*
X114952000Y-65430320D01*
X114959840Y-65429011D01*
X114969517Y-65425781D01*
X114978111Y-65420719D01*
X114985412Y-65413679D01*
X114989909Y-65407012D01*
X114993468Y-65399089D01*
X114995999Y-65389846D01*
X114997413Y-65379223D01*
X114997690Y-65371343D01*
X114997444Y-65362512D01*
X114996725Y-65354450D01*
X114993996Y-65340435D01*
X114989756Y-65328895D01*
X114984257Y-65319429D01*
X114977750Y-65311634D01*
X114970488Y-65305109D01*
X114962722Y-65299451D01*
X114954704Y-65294260D01*
X114946686Y-65289132D01*
X114938919Y-65283667D01*
X114931657Y-65277462D01*
X114925150Y-65270116D01*
X114919651Y-65261227D01*
X114915411Y-65250392D01*
X114912682Y-65237210D01*
X114911717Y-65221280D01*
X114912243Y-65210180D01*
X114913772Y-65199948D01*
X114916233Y-65190562D01*
X114919551Y-65182003D01*
X114923655Y-65174248D01*
X114928471Y-65167277D01*
X114933928Y-65161069D01*
X114939951Y-65155603D01*
X114946470Y-65150858D01*
X114953410Y-65146814D01*
X114960699Y-65143450D01*
X114968265Y-65140744D01*
X114976035Y-65138676D01*
X114983936Y-65137224D01*
X114991895Y-65136368D01*
X114999840Y-65136088D01*
X115008271Y-65136783D01*
X115016077Y-65137183D01*
X115021528Y-65137260D01*
X115030340Y-65138842D01*
X115038652Y-65141568D01*
X115046114Y-65144884D01*
X115054062Y-65149210D01*
X115060771Y-65153438D01*
X115067792Y-65158380D01*
X115069595Y-65159731D01*
X115076482Y-65165469D01*
X115082479Y-65171821D01*
X115087579Y-65178759D01*
X115091773Y-65186255D01*
X115095050Y-65194283D01*
X115097403Y-65202815D01*
X115098821Y-65211823D01*
X115099295Y-65221280D01*
X115099652Y-65229412D01*
X115102372Y-65244035D01*
X115107462Y-65256486D01*
X115114557Y-65266792D01*
X115123294Y-65274977D01*
X115133306Y-65281065D01*
X115144231Y-65285081D01*
X115155702Y-65287050D01*
X115167355Y-65286996D01*
X115178826Y-65284944D01*
X115189751Y-65280918D01*
X115199763Y-65274944D01*
X115208500Y-65267045D01*
X115215595Y-65257247D01*
X115220685Y-65245573D01*
X115223404Y-65232050D01*
X115223762Y-65224602D01*
X115223932Y-65216333D01*
X115224435Y-65208307D01*
X115225262Y-65200525D01*
X115227845Y-65185699D01*
X115231600Y-65171865D01*
X115236446Y-65159034D01*
X115242303Y-65147215D01*
X115249090Y-65136419D01*
X115256726Y-65126657D01*
X115265131Y-65117938D01*
X115274223Y-65110272D01*
X115283923Y-65103671D01*
X115294149Y-65098145D01*
X115304821Y-65093703D01*
X115315857Y-65090357D01*
X115327178Y-65088115D01*
X115338702Y-65086990D01*
X115344515Y-65086849D01*
X115358268Y-65087581D01*
X115371302Y-65089717D01*
X115383594Y-65093158D01*
X115395119Y-65097812D01*
X115405856Y-65103582D01*
X115415781Y-65110373D01*
X115424871Y-65118089D01*
X115433102Y-65126636D01*
X115440452Y-65135917D01*
X115446897Y-65145839D01*
X115452414Y-65156305D01*
X115456980Y-65167220D01*
X115460572Y-65178488D01*
X115463166Y-65190016D01*
X115464739Y-65201706D01*
X115465269Y-65213464D01*
X115464981Y-65222435D01*
X115464113Y-65231303D01*
X115462657Y-65240037D01*
X115460604Y-65248608D01*
X115457946Y-65256985D01*
X115454676Y-65265139D01*
X115450786Y-65273039D01*
X115446267Y-65280655D01*
X115441111Y-65287958D01*
X115435311Y-65294917D01*
X115428858Y-65301502D01*
X115421745Y-65307684D01*
X115413963Y-65313431D01*
X115405504Y-65318715D01*
X115396361Y-65323504D01*
X115386525Y-65327770D01*
X115377317Y-65332065D01*
X115369515Y-65337321D01*
X115363009Y-65343303D01*
X115357691Y-65349776D01*
X115353450Y-65356505D01*
X115349285Y-65365470D01*
X115346583Y-65373917D01*
X115344870Y-65382900D01*
X115344515Y-65388147D01*
X115344515Y-65391468D01*
X115344832Y-65400324D01*
X115345760Y-65408443D01*
X115348219Y-65419289D01*
X115351853Y-65428605D01*
X115356545Y-65436467D01*
X115362174Y-65442955D01*
X115368622Y-65448144D01*
X115375771Y-65452111D01*
X115383502Y-65454936D01*
X115391695Y-65456693D01*
X115400232Y-65457462D01*
X115403133Y-65457512D01*
X115409777Y-65457512D01*
G37*
G36*
X115192108Y-69411971D02*
G01*
X115212787Y-69411446D01*
X115233154Y-69409887D01*
X115253186Y-69407318D01*
X115272861Y-69403759D01*
X115292156Y-69399235D01*
X115311048Y-69393769D01*
X115329515Y-69387381D01*
X115347535Y-69380097D01*
X115365084Y-69371938D01*
X115382140Y-69362926D01*
X115398681Y-69353086D01*
X115414684Y-69342439D01*
X115430127Y-69331009D01*
X115444986Y-69318817D01*
X115459240Y-69305888D01*
X115472865Y-69292243D01*
X115485839Y-69277905D01*
X115498140Y-69262898D01*
X115509745Y-69247243D01*
X115520631Y-69230964D01*
X115530777Y-69214083D01*
X115540158Y-69196623D01*
X115548753Y-69178608D01*
X115556539Y-69160058D01*
X115563494Y-69140999D01*
X115569595Y-69121451D01*
X115574819Y-69101438D01*
X115579144Y-69080983D01*
X115582547Y-69060109D01*
X115585005Y-69038837D01*
X115586497Y-69017192D01*
X115587000Y-68995195D01*
X115587000Y-68860763D01*
X115586617Y-68852825D01*
X115583705Y-68838450D01*
X115578256Y-68826086D01*
X115570659Y-68815743D01*
X115561306Y-68807429D01*
X115550586Y-68801154D01*
X115538890Y-68796928D01*
X115526608Y-68794761D01*
X115514132Y-68794660D01*
X115501850Y-68796637D01*
X115490154Y-68800700D01*
X115479434Y-68806859D01*
X115470081Y-68815123D01*
X115462484Y-68825502D01*
X115457035Y-68838005D01*
X115454123Y-68852642D01*
X115453741Y-68860763D01*
X115453741Y-68985229D01*
X115452246Y-69018573D01*
X115447888Y-69049731D01*
X115440859Y-69078708D01*
X115431349Y-69105510D01*
X115419549Y-69130143D01*
X115405649Y-69152612D01*
X115389841Y-69172923D01*
X115372316Y-69191080D01*
X115353264Y-69207090D01*
X115332876Y-69220958D01*
X115311343Y-69232690D01*
X115288856Y-69242290D01*
X115265606Y-69249765D01*
X115241783Y-69255119D01*
X115217578Y-69258359D01*
X115193182Y-69259490D01*
X115168787Y-69258517D01*
X115144582Y-69255445D01*
X115120759Y-69250281D01*
X115097509Y-69243030D01*
X115075021Y-69233696D01*
X115053488Y-69222287D01*
X115033101Y-69208806D01*
X115014049Y-69193260D01*
X114996523Y-69175654D01*
X114980715Y-69155994D01*
X114966816Y-69134285D01*
X114955016Y-69110532D01*
X114945506Y-69084741D01*
X114938476Y-69056917D01*
X114934119Y-69027067D01*
X114932624Y-68995195D01*
X114932624Y-68860763D01*
X114932241Y-68852642D01*
X114929325Y-68838005D01*
X114923868Y-68825502D01*
X114916260Y-68815123D01*
X114906893Y-68806859D01*
X114896157Y-68800700D01*
X114884444Y-68796637D01*
X114872144Y-68794660D01*
X114859649Y-68794761D01*
X114847350Y-68796928D01*
X114835637Y-68801154D01*
X114824901Y-68807429D01*
X114815534Y-68815743D01*
X114807926Y-68826086D01*
X114802469Y-68838450D01*
X114799553Y-68852825D01*
X114799170Y-68860763D01*
X114799170Y-69007504D01*
X114800164Y-69028486D01*
X114802074Y-69049173D01*
X114804878Y-69069542D01*
X114808561Y-69089567D01*
X114813101Y-69109224D01*
X114818482Y-69128489D01*
X114824683Y-69147338D01*
X114831688Y-69165746D01*
X114839476Y-69183689D01*
X114848030Y-69201143D01*
X114857330Y-69218083D01*
X114867358Y-69234484D01*
X114878096Y-69250323D01*
X114889524Y-69265575D01*
X114901625Y-69280216D01*
X114914379Y-69294221D01*
X114927768Y-69307566D01*
X114941773Y-69320227D01*
X114956376Y-69332179D01*
X114971558Y-69343397D01*
X114987299Y-69353859D01*
X115003583Y-69363538D01*
X115020389Y-69372411D01*
X115037700Y-69380454D01*
X115055497Y-69387642D01*
X115073761Y-69393950D01*
X115092473Y-69399355D01*
X115111615Y-69403832D01*
X115131168Y-69407356D01*
X115151113Y-69409903D01*
X115171433Y-69411450D01*
X115192108Y-69411971D01*
G37*
G36*
X114868339Y-68704057D02*
G01*
X115518612Y-68704057D01*
X115526979Y-68703684D01*
X115534790Y-68702595D01*
X115545467Y-68699716D01*
X115554906Y-68695473D01*
X115563114Y-68690015D01*
X115570098Y-68683492D01*
X115575866Y-68676051D01*
X115580426Y-68667843D01*
X115583785Y-68659014D01*
X115585952Y-68649715D01*
X115586934Y-68640094D01*
X115587000Y-68636841D01*
X115586383Y-68627138D01*
X115584539Y-68617597D01*
X115581479Y-68608392D01*
X115577211Y-68599696D01*
X115571745Y-68591680D01*
X115565091Y-68584519D01*
X115557258Y-68578385D01*
X115548256Y-68573451D01*
X115538096Y-68569890D01*
X115526786Y-68567876D01*
X115518612Y-68567476D01*
X115260300Y-68567476D01*
X115255453Y-68556561D01*
X115251014Y-68545656D01*
X115246969Y-68534775D01*
X115243307Y-68523928D01*
X115240013Y-68513127D01*
X115237075Y-68502383D01*
X115234479Y-68491707D01*
X115232212Y-68481112D01*
X115230262Y-68470609D01*
X115228614Y-68460208D01*
X115227255Y-68449922D01*
X115226173Y-68439762D01*
X115225355Y-68429739D01*
X115224787Y-68419865D01*
X115224455Y-68410152D01*
X115224348Y-68400610D01*
X115224438Y-68391745D01*
X115224702Y-68383033D01*
X115225130Y-68374484D01*
X115225711Y-68366105D01*
X115226433Y-68357905D01*
X115227288Y-68349893D01*
X115228264Y-68342076D01*
X115230539Y-68327062D01*
X115233174Y-68312932D01*
X115236085Y-68299751D01*
X115239188Y-68287587D01*
X115242399Y-68276508D01*
X115245635Y-68266579D01*
X115248811Y-68257868D01*
X115251845Y-68250442D01*
X115255942Y-68241858D01*
X115260868Y-68234925D01*
X115261473Y-68234720D01*
X115518612Y-68234720D01*
X115526786Y-68234323D01*
X115538096Y-68232318D01*
X115548256Y-68228773D01*
X115557258Y-68223857D01*
X115565091Y-68217741D01*
X115571745Y-68210594D01*
X115577211Y-68202587D01*
X115581479Y-68193889D01*
X115584539Y-68184672D01*
X115586383Y-68175103D01*
X115587000Y-68165355D01*
X115586383Y-68155631D01*
X115584539Y-68146129D01*
X115581479Y-68137009D01*
X115577211Y-68128432D01*
X115571745Y-68120559D01*
X115565091Y-68113549D01*
X115557258Y-68107563D01*
X115548256Y-68102762D01*
X115538096Y-68099305D01*
X115526786Y-68097353D01*
X115518612Y-68096967D01*
X114868339Y-68096967D01*
X114859899Y-68097353D01*
X114852016Y-68098479D01*
X114841231Y-68101452D01*
X114831690Y-68105823D01*
X114823387Y-68111432D01*
X114816316Y-68118118D01*
X114810471Y-68125722D01*
X114805846Y-68134082D01*
X114802436Y-68143038D01*
X114800235Y-68152431D01*
X114799236Y-68162099D01*
X114799170Y-68165355D01*
X114799768Y-68175103D01*
X114801568Y-68184672D01*
X114804575Y-68193889D01*
X114808794Y-68202587D01*
X114814231Y-68210594D01*
X114820893Y-68217741D01*
X114828785Y-68223857D01*
X114837913Y-68228773D01*
X114848282Y-68232318D01*
X114859899Y-68234323D01*
X114868339Y-68234720D01*
X115127041Y-68234720D01*
X115127041Y-68235892D01*
X115124430Y-68245744D01*
X115122102Y-68254893D01*
X115120303Y-68262569D01*
X115118379Y-68271477D01*
X115116392Y-68281590D01*
X115114406Y-68292883D01*
X115112482Y-68305328D01*
X115110683Y-68318901D01*
X115109071Y-68333574D01*
X115107709Y-68349323D01*
X115107141Y-68357592D01*
X115106659Y-68366121D01*
X115106270Y-68374905D01*
X115105983Y-68383941D01*
X115105804Y-68393227D01*
X115105743Y-68402759D01*
X115105811Y-68411886D01*
X115106020Y-68421169D01*
X115106377Y-68430607D01*
X115106891Y-68440202D01*
X115107570Y-68449951D01*
X115108422Y-68459857D01*
X115109455Y-68469918D01*
X115110677Y-68480135D01*
X115112096Y-68490508D01*
X115113719Y-68501036D01*
X115115556Y-68511720D01*
X115117614Y-68522560D01*
X115119900Y-68533556D01*
X115122424Y-68544707D01*
X115125192Y-68556014D01*
X115128214Y-68567476D01*
X114868339Y-68567476D01*
X114859899Y-68567849D01*
X114852016Y-68568938D01*
X114841231Y-68571818D01*
X114831690Y-68576061D01*
X114823387Y-68581518D01*
X114816316Y-68588042D01*
X114810471Y-68595482D01*
X114805846Y-68603691D01*
X114802436Y-68612519D01*
X114800235Y-68621818D01*
X114799236Y-68631439D01*
X114799170Y-68634692D01*
X114799796Y-68644395D01*
X114801668Y-68653936D01*
X114804775Y-68663141D01*
X114809103Y-68671838D01*
X114814642Y-68679853D01*
X114821380Y-68687015D01*
X114829306Y-68693148D01*
X114838407Y-68698082D01*
X114848673Y-68701643D01*
X114860092Y-68703658D01*
X114868339Y-68704057D01*
G37*
G36*
X115489889Y-68007672D02*
G01*
X115517830Y-68007672D01*
X115527767Y-68006922D01*
X115537275Y-68004742D01*
X115546235Y-68001237D01*
X115554526Y-67996513D01*
X115562029Y-67990674D01*
X115568623Y-67983827D01*
X115574190Y-67976076D01*
X115578610Y-67967528D01*
X115581762Y-67958286D01*
X115583526Y-67948456D01*
X115583873Y-67941629D01*
X115583873Y-67570966D01*
X115583488Y-67562927D01*
X115580550Y-67548405D01*
X115575053Y-67535958D01*
X115567389Y-67525585D01*
X115557953Y-67517287D01*
X115547139Y-67511063D01*
X115535340Y-67506914D01*
X115522951Y-67504840D01*
X115510364Y-67504840D01*
X115497975Y-67506914D01*
X115486176Y-67511063D01*
X115475362Y-67517287D01*
X115465926Y-67525585D01*
X115458262Y-67535958D01*
X115452765Y-67548405D01*
X115449828Y-67562927D01*
X115449442Y-67570966D01*
X115449442Y-67845299D01*
X115439486Y-67843756D01*
X115430154Y-67840277D01*
X115421370Y-67834992D01*
X115413056Y-67828031D01*
X115405133Y-67819524D01*
X115397524Y-67809601D01*
X115390150Y-67798394D01*
X115382935Y-67786031D01*
X115375799Y-67772643D01*
X115368666Y-67758360D01*
X115361458Y-67743313D01*
X115354096Y-67727631D01*
X115346502Y-67711445D01*
X115338600Y-67694885D01*
X115330311Y-67678082D01*
X115321556Y-67661165D01*
X115312259Y-67644264D01*
X115302342Y-67627510D01*
X115291726Y-67611033D01*
X115280334Y-67594964D01*
X115268088Y-67579431D01*
X115254910Y-67564567D01*
X115240722Y-67550500D01*
X115225447Y-67537361D01*
X115209006Y-67525280D01*
X115191322Y-67514388D01*
X115172316Y-67504814D01*
X115151911Y-67496689D01*
X115130030Y-67490143D01*
X115106594Y-67485306D01*
X115081525Y-67482308D01*
X115054745Y-67481280D01*
X115042082Y-67481599D01*
X115029528Y-67482550D01*
X115017105Y-67484119D01*
X115004831Y-67486294D01*
X114992724Y-67489062D01*
X114980805Y-67492411D01*
X114969092Y-67496328D01*
X114957604Y-67500801D01*
X114946361Y-67505817D01*
X114935381Y-67511364D01*
X114924684Y-67517429D01*
X114914288Y-67524000D01*
X114904214Y-67531064D01*
X114894479Y-67538609D01*
X114885104Y-67546622D01*
X114876106Y-67555090D01*
X114867506Y-67564001D01*
X114859322Y-67573343D01*
X114851574Y-67583103D01*
X114844281Y-67593269D01*
X114837461Y-67603827D01*
X114831134Y-67614766D01*
X114825318Y-67626073D01*
X114820034Y-67637736D01*
X114815300Y-67649741D01*
X114811135Y-67662076D01*
X114807559Y-67674730D01*
X114804590Y-67687689D01*
X114802247Y-67700940D01*
X114800550Y-67714472D01*
X114799518Y-67728272D01*
X114799170Y-67742326D01*
X114799170Y-67889068D01*
X114799555Y-67897196D01*
X114801499Y-67908410D01*
X114804931Y-67918447D01*
X114809679Y-67927307D01*
X114815572Y-67934989D01*
X114822439Y-67941491D01*
X114830110Y-67946814D01*
X114838414Y-67950955D01*
X114847179Y-67953915D01*
X114856234Y-67955691D01*
X114865408Y-67956283D01*
X114873542Y-67955294D01*
X114878891Y-67955111D01*
X114886899Y-67953770D01*
X114894967Y-67950342D01*
X114902713Y-67945631D01*
X114909835Y-67940331D01*
X114912303Y-67938307D01*
X114918591Y-67932598D01*
X114923736Y-67926115D01*
X114927771Y-67918884D01*
X114930726Y-67910933D01*
X114932633Y-67902287D01*
X114933523Y-67892974D01*
X114933601Y-67889068D01*
X114933601Y-67743303D01*
X114934197Y-67730818D01*
X114935953Y-67718615D01*
X114938820Y-67706767D01*
X114942748Y-67695346D01*
X114947688Y-67684425D01*
X114953591Y-67674074D01*
X114960407Y-67664367D01*
X114968088Y-67655376D01*
X114976584Y-67647172D01*
X114985846Y-67639828D01*
X114995825Y-67633416D01*
X115006471Y-67628009D01*
X115017735Y-67623677D01*
X115029569Y-67620494D01*
X115041922Y-67618531D01*
X115054745Y-67617860D01*
X115072954Y-67619374D01*
X115089975Y-67622979D01*
X115105900Y-67628534D01*
X115120815Y-67635900D01*
X115134811Y-67644937D01*
X115147976Y-67655503D01*
X115160398Y-67667459D01*
X115172168Y-67680664D01*
X115183374Y-67694979D01*
X115194104Y-67710262D01*
X115204449Y-67726374D01*
X115214495Y-67743174D01*
X115224333Y-67760522D01*
X115234052Y-67778278D01*
X115243740Y-67796301D01*
X115253486Y-67814451D01*
X115263379Y-67832588D01*
X115273508Y-67850572D01*
X115283962Y-67868262D01*
X115294830Y-67885518D01*
X115306201Y-67902200D01*
X115318164Y-67918167D01*
X115330807Y-67933279D01*
X115344219Y-67947396D01*
X115358490Y-67960377D01*
X115373708Y-67972083D01*
X115389962Y-67982373D01*
X115407342Y-67991106D01*
X115425935Y-67998143D01*
X115445831Y-68003343D01*
X115467120Y-68006566D01*
X115489889Y-68007672D01*
G37*
G36*
X115192108Y-64322983D02*
G01*
X115212787Y-64322458D01*
X115233154Y-64320899D01*
X115253186Y-64318330D01*
X115272861Y-64314771D01*
X115292156Y-64310247D01*
X115311048Y-64304781D01*
X115329515Y-64298393D01*
X115347535Y-64291109D01*
X115365084Y-64282950D01*
X115382140Y-64273938D01*
X115398681Y-64264098D01*
X115414684Y-64253451D01*
X115430127Y-64242021D01*
X115444986Y-64229829D01*
X115459240Y-64216900D01*
X115472865Y-64203255D01*
X115485839Y-64188917D01*
X115498140Y-64173910D01*
X115509745Y-64158255D01*
X115520631Y-64141976D01*
X115530777Y-64125095D01*
X115540158Y-64107635D01*
X115548753Y-64089620D01*
X115556539Y-64071070D01*
X115563494Y-64052011D01*
X115569595Y-64032463D01*
X115574819Y-64012450D01*
X115579144Y-63991995D01*
X115582547Y-63971121D01*
X115585005Y-63949849D01*
X115586497Y-63928204D01*
X115587000Y-63906207D01*
X115587000Y-63771775D01*
X115586617Y-63763837D01*
X115583705Y-63749462D01*
X115578256Y-63737098D01*
X115570659Y-63726755D01*
X115561306Y-63718441D01*
X115550586Y-63712166D01*
X115538890Y-63707940D01*
X115526608Y-63705773D01*
X115514132Y-63705672D01*
X115501850Y-63707649D01*
X115490154Y-63711712D01*
X115479434Y-63717871D01*
X115470081Y-63726135D01*
X115462484Y-63736514D01*
X115457035Y-63749017D01*
X115454123Y-63763654D01*
X115453741Y-63771775D01*
X115453741Y-63896241D01*
X115452246Y-63929585D01*
X115447888Y-63960743D01*
X115440859Y-63989720D01*
X115431349Y-64016522D01*
X115419549Y-64041155D01*
X115405649Y-64063624D01*
X115389841Y-64083935D01*
X115372316Y-64102092D01*
X115353264Y-64118102D01*
X115332876Y-64131970D01*
X115311343Y-64143702D01*
X115288856Y-64153302D01*
X115265606Y-64160777D01*
X115241783Y-64166131D01*
X115217578Y-64169371D01*
X115193182Y-64170502D01*
X115168787Y-64169529D01*
X115144582Y-64166457D01*
X115120759Y-64161293D01*
X115097509Y-64154042D01*
X115075021Y-64144708D01*
X115053488Y-64133299D01*
X115033101Y-64119818D01*
X115014049Y-64104272D01*
X114996523Y-64086666D01*
X114980715Y-64067006D01*
X114966816Y-64045297D01*
X114955016Y-64021544D01*
X114945506Y-63995753D01*
X114938476Y-63967929D01*
X114934119Y-63938079D01*
X114932624Y-63906207D01*
X114932624Y-63771775D01*
X114932241Y-63763654D01*
X114929325Y-63749017D01*
X114923868Y-63736514D01*
X114916260Y-63726135D01*
X114906893Y-63717871D01*
X114896157Y-63711712D01*
X114884444Y-63707649D01*
X114872144Y-63705672D01*
X114859649Y-63705773D01*
X114847350Y-63707940D01*
X114835637Y-63712166D01*
X114824901Y-63718441D01*
X114815534Y-63726755D01*
X114807926Y-63737098D01*
X114802469Y-63749462D01*
X114799553Y-63763837D01*
X114799170Y-63771775D01*
X114799170Y-63918516D01*
X114800164Y-63939498D01*
X114802074Y-63960185D01*
X114804878Y-63980554D01*
X114808561Y-64000579D01*
X114813101Y-64020236D01*
X114818482Y-64039501D01*
X114824683Y-64058350D01*
X114831688Y-64076758D01*
X114839476Y-64094701D01*
X114848030Y-64112155D01*
X114857330Y-64129095D01*
X114867358Y-64145496D01*
X114878096Y-64161335D01*
X114889524Y-64176587D01*
X114901625Y-64191228D01*
X114914379Y-64205233D01*
X114927768Y-64218578D01*
X114941773Y-64231239D01*
X114956376Y-64243191D01*
X114971558Y-64254409D01*
X114987299Y-64264871D01*
X115003583Y-64274550D01*
X115020389Y-64283423D01*
X115037700Y-64291466D01*
X115055497Y-64298654D01*
X115073761Y-64304962D01*
X115092473Y-64310367D01*
X115111615Y-64314844D01*
X115131168Y-64318368D01*
X115151113Y-64320915D01*
X115171433Y-64322462D01*
X115192108Y-64322983D01*
G37*
G36*
X114868339Y-63615069D02*
G01*
X115518612Y-63615069D01*
X115526979Y-63614696D01*
X115534790Y-63613607D01*
X115545467Y-63610728D01*
X115554906Y-63606485D01*
X115563114Y-63601027D01*
X115570098Y-63594504D01*
X115575866Y-63587063D01*
X115580426Y-63578855D01*
X115583785Y-63570026D01*
X115585952Y-63560727D01*
X115586934Y-63551106D01*
X115587000Y-63547853D01*
X115586383Y-63538150D01*
X115584539Y-63528609D01*
X115581479Y-63519404D01*
X115577211Y-63510708D01*
X115571745Y-63502692D01*
X115565091Y-63495531D01*
X115557258Y-63489397D01*
X115548256Y-63484463D01*
X115538096Y-63480902D01*
X115526786Y-63478888D01*
X115518612Y-63478488D01*
X115260300Y-63478488D01*
X115255453Y-63467573D01*
X115251014Y-63456668D01*
X115246969Y-63445787D01*
X115243307Y-63434940D01*
X115240013Y-63424139D01*
X115237075Y-63413395D01*
X115234479Y-63402719D01*
X115232212Y-63392124D01*
X115230262Y-63381621D01*
X115228614Y-63371220D01*
X115227255Y-63360934D01*
X115226173Y-63350774D01*
X115225355Y-63340751D01*
X115224787Y-63330877D01*
X115224455Y-63321164D01*
X115224348Y-63311622D01*
X115224438Y-63302757D01*
X115224702Y-63294045D01*
X115225130Y-63285496D01*
X115225711Y-63277117D01*
X115226433Y-63268917D01*
X115227288Y-63260905D01*
X115228264Y-63253088D01*
X115230539Y-63238074D01*
X115233174Y-63223944D01*
X115236085Y-63210763D01*
X115239188Y-63198599D01*
X115242399Y-63187520D01*
X115245635Y-63177591D01*
X115248811Y-63168880D01*
X115251845Y-63161454D01*
X115255942Y-63152870D01*
X115260868Y-63145937D01*
X115261473Y-63145732D01*
X115518612Y-63145732D01*
X115526786Y-63145335D01*
X115538096Y-63143330D01*
X115548256Y-63139785D01*
X115557258Y-63134869D01*
X115565091Y-63128753D01*
X115571745Y-63121606D01*
X115577211Y-63113599D01*
X115581479Y-63104901D01*
X115584539Y-63095684D01*
X115586383Y-63086115D01*
X115587000Y-63076367D01*
X115586383Y-63066643D01*
X115584539Y-63057141D01*
X115581479Y-63048021D01*
X115577211Y-63039444D01*
X115571745Y-63031571D01*
X115565091Y-63024561D01*
X115557258Y-63018575D01*
X115548256Y-63013774D01*
X115538096Y-63010317D01*
X115526786Y-63008365D01*
X115518612Y-63007979D01*
X114868339Y-63007979D01*
X114859899Y-63008365D01*
X114852016Y-63009491D01*
X114841231Y-63012464D01*
X114831690Y-63016835D01*
X114823387Y-63022444D01*
X114816316Y-63029130D01*
X114810471Y-63036734D01*
X114805846Y-63045094D01*
X114802436Y-63054050D01*
X114800235Y-63063443D01*
X114799236Y-63073111D01*
X114799170Y-63076367D01*
X114799768Y-63086115D01*
X114801568Y-63095684D01*
X114804575Y-63104901D01*
X114808794Y-63113599D01*
X114814231Y-63121606D01*
X114820893Y-63128753D01*
X114828785Y-63134869D01*
X114837913Y-63139785D01*
X114848282Y-63143330D01*
X114859899Y-63145335D01*
X114868339Y-63145732D01*
X115127041Y-63145732D01*
X115127041Y-63146904D01*
X115124430Y-63156756D01*
X115122102Y-63165905D01*
X115120303Y-63173581D01*
X115118379Y-63182489D01*
X115116392Y-63192602D01*
X115114406Y-63203895D01*
X115112482Y-63216340D01*
X115110683Y-63229913D01*
X115109071Y-63244586D01*
X115107709Y-63260335D01*
X115107141Y-63268604D01*
X115106659Y-63277133D01*
X115106270Y-63285917D01*
X115105983Y-63294953D01*
X115105804Y-63304239D01*
X115105743Y-63313771D01*
X115105811Y-63322898D01*
X115106020Y-63332181D01*
X115106377Y-63341619D01*
X115106891Y-63351214D01*
X115107570Y-63360963D01*
X115108422Y-63370869D01*
X115109455Y-63380930D01*
X115110677Y-63391147D01*
X115112096Y-63401520D01*
X115113719Y-63412048D01*
X115115556Y-63422732D01*
X115117614Y-63433572D01*
X115119900Y-63444568D01*
X115122424Y-63455719D01*
X115125192Y-63467026D01*
X115128214Y-63478488D01*
X114868339Y-63478488D01*
X114859899Y-63478861D01*
X114852016Y-63479950D01*
X114841231Y-63482830D01*
X114831690Y-63487073D01*
X114823387Y-63492530D01*
X114816316Y-63499054D01*
X114810471Y-63506494D01*
X114805846Y-63514703D01*
X114802436Y-63523531D01*
X114800235Y-63532830D01*
X114799236Y-63542451D01*
X114799170Y-63545704D01*
X114799796Y-63555407D01*
X114801668Y-63564948D01*
X114804775Y-63574153D01*
X114809103Y-63582850D01*
X114814642Y-63590865D01*
X114821380Y-63598027D01*
X114829306Y-63604160D01*
X114838407Y-63609094D01*
X114848673Y-63612655D01*
X114860092Y-63614670D01*
X114868339Y-63615069D01*
G37*
G36*
X115331424Y-62916535D02*
G01*
X115341061Y-62914826D01*
X115350326Y-62912220D01*
X115359092Y-62908707D01*
X115367234Y-62904276D01*
X115374626Y-62898917D01*
X115381143Y-62892618D01*
X115386660Y-62885369D01*
X115391050Y-62877160D01*
X115394188Y-62867979D01*
X115395948Y-62857817D01*
X115396295Y-62850491D01*
X115396295Y-62545676D01*
X115517244Y-62545676D01*
X115525611Y-62545303D01*
X115533422Y-62544215D01*
X115544100Y-62541335D01*
X115553539Y-62537092D01*
X115561746Y-62531634D01*
X115568730Y-62525111D01*
X115574498Y-62517671D01*
X115579058Y-62509462D01*
X115582418Y-62500633D01*
X115584585Y-62491334D01*
X115585566Y-62481713D01*
X115585632Y-62478461D01*
X115585015Y-62468757D01*
X115583172Y-62459217D01*
X115580111Y-62450011D01*
X115575843Y-62441315D01*
X115570377Y-62433299D01*
X115563723Y-62426138D01*
X115555890Y-62420004D01*
X115546889Y-62415070D01*
X115536728Y-62411510D01*
X115525418Y-62409495D01*
X115517244Y-62409096D01*
X115175108Y-62409096D01*
X115166702Y-62409482D01*
X115158849Y-62410608D01*
X115148102Y-62413581D01*
X115138591Y-62417952D01*
X115130310Y-62423561D01*
X115123256Y-62430247D01*
X115117422Y-62437850D01*
X115112804Y-62446210D01*
X115109398Y-62455167D01*
X115107199Y-62464559D01*
X115106201Y-62474227D01*
X115106134Y-62477484D01*
X115106733Y-62487158D01*
X115108531Y-62496619D01*
X115111535Y-62505707D01*
X115115748Y-62514259D01*
X115121176Y-62522114D01*
X115127823Y-62529110D01*
X115135694Y-62535088D01*
X115144795Y-62539885D01*
X115155129Y-62543339D01*
X115166702Y-62545290D01*
X115175108Y-62545676D01*
X115261863Y-62545676D01*
X115261863Y-62686946D01*
X115253857Y-62680391D01*
X115245667Y-62674032D01*
X115237293Y-62667880D01*
X115228736Y-62661945D01*
X115219998Y-62656238D01*
X115211079Y-62650770D01*
X115201980Y-62645551D01*
X115192703Y-62640592D01*
X115183248Y-62635903D01*
X115173616Y-62631496D01*
X115167097Y-62628719D01*
X115154554Y-62623350D01*
X115142287Y-62618579D01*
X115130312Y-62614371D01*
X115118642Y-62610691D01*
X115107295Y-62607504D01*
X115096285Y-62604776D01*
X115085626Y-62602472D01*
X115075335Y-62600558D01*
X115065426Y-62598998D01*
X115055915Y-62597759D01*
X115046817Y-62596806D01*
X115038146Y-62596103D01*
X115029919Y-62595617D01*
X115018441Y-62595218D01*
X115008046Y-62595111D01*
X114996470Y-62595243D01*
X114988233Y-62595513D01*
X114979587Y-62595967D01*
X114970540Y-62596640D01*
X114961100Y-62597563D01*
X114951273Y-62598772D01*
X114941067Y-62600299D01*
X114930488Y-62602178D01*
X114919545Y-62604443D01*
X114908243Y-62607126D01*
X114896591Y-62610262D01*
X114884595Y-62613883D01*
X114872263Y-62618024D01*
X114859601Y-62622718D01*
X114846618Y-62627998D01*
X114840007Y-62630868D01*
X114832453Y-62634614D01*
X114825718Y-62638887D01*
X114817981Y-62645302D01*
X114811631Y-62652406D01*
X114806629Y-62660057D01*
X114802935Y-62668113D01*
X114800511Y-62676433D01*
X114799317Y-62684874D01*
X114799170Y-62689096D01*
X114799648Y-62697454D01*
X114801050Y-62705622D01*
X114803333Y-62713520D01*
X114806448Y-62721067D01*
X114810352Y-62728184D01*
X114814997Y-62734790D01*
X114820338Y-62740806D01*
X114826330Y-62746151D01*
X114833010Y-62750651D01*
X114840894Y-62754853D01*
X114849444Y-62758143D01*
X114857794Y-62760122D01*
X114865799Y-62760805D01*
X114874357Y-62760130D01*
X114881992Y-62758407D01*
X114889588Y-62755682D01*
X114892959Y-62754162D01*
X114905105Y-62749273D01*
X114916554Y-62745118D01*
X114927299Y-62741640D01*
X114937335Y-62738781D01*
X114946655Y-62736482D01*
X114955254Y-62734687D01*
X114963125Y-62733338D01*
X114973554Y-62732022D01*
X114982312Y-62731382D01*
X114991355Y-62731246D01*
X114999178Y-62731635D01*
X115000230Y-62731692D01*
X115009233Y-62731849D01*
X115018245Y-62732318D01*
X115027257Y-62733098D01*
X115036260Y-62734186D01*
X115045243Y-62735580D01*
X115054197Y-62737278D01*
X115063113Y-62739276D01*
X115071980Y-62741574D01*
X115080789Y-62744169D01*
X115089530Y-62747058D01*
X115098194Y-62750240D01*
X115106770Y-62753711D01*
X115115250Y-62757471D01*
X115123623Y-62761515D01*
X115131880Y-62765844D01*
X115140011Y-62770453D01*
X115148006Y-62775341D01*
X115155856Y-62780505D01*
X115163550Y-62785944D01*
X115171080Y-62791655D01*
X115178436Y-62797636D01*
X115185607Y-62803884D01*
X115192585Y-62810397D01*
X115199359Y-62817173D01*
X115205919Y-62824211D01*
X115212257Y-62831506D01*
X115218362Y-62839058D01*
X115224225Y-62846864D01*
X115229836Y-62854921D01*
X115235185Y-62863228D01*
X115240263Y-62871783D01*
X115245060Y-62880582D01*
X115249630Y-62887994D01*
X115255017Y-62894438D01*
X115261100Y-62899967D01*
X115267759Y-62904632D01*
X115274873Y-62908485D01*
X115282320Y-62911579D01*
X115289981Y-62913966D01*
X115297734Y-62915698D01*
X115308006Y-62917079D01*
X115317942Y-62917512D01*
X115325947Y-62917307D01*
X115331424Y-62916535D01*
G37*
G36*
X115192108Y-71826137D02*
G01*
X115212787Y-71825612D01*
X115233154Y-71824053D01*
X115253186Y-71821484D01*
X115272861Y-71817925D01*
X115292156Y-71813401D01*
X115311048Y-71807935D01*
X115329515Y-71801547D01*
X115347535Y-71794263D01*
X115365084Y-71786104D01*
X115382140Y-71777092D01*
X115398681Y-71767252D01*
X115414684Y-71756605D01*
X115430127Y-71745175D01*
X115444986Y-71732983D01*
X115459240Y-71720054D01*
X115472865Y-71706409D01*
X115485839Y-71692071D01*
X115498140Y-71677064D01*
X115509745Y-71661409D01*
X115520631Y-71645130D01*
X115530777Y-71628249D01*
X115540158Y-71610789D01*
X115548753Y-71592774D01*
X115556539Y-71574224D01*
X115563494Y-71555165D01*
X115569595Y-71535617D01*
X115574819Y-71515604D01*
X115579144Y-71495149D01*
X115582547Y-71474275D01*
X115585005Y-71453003D01*
X115586497Y-71431358D01*
X115587000Y-71409361D01*
X115587000Y-71274929D01*
X115586617Y-71266991D01*
X115583705Y-71252616D01*
X115578256Y-71240252D01*
X115570659Y-71229909D01*
X115561306Y-71221595D01*
X115550586Y-71215320D01*
X115538890Y-71211094D01*
X115526608Y-71208927D01*
X115514132Y-71208826D01*
X115501850Y-71210803D01*
X115490154Y-71214866D01*
X115479434Y-71221025D01*
X115470081Y-71229289D01*
X115462484Y-71239668D01*
X115457035Y-71252171D01*
X115454123Y-71266808D01*
X115453741Y-71274929D01*
X115453741Y-71399395D01*
X115452246Y-71432739D01*
X115447888Y-71463897D01*
X115440859Y-71492874D01*
X115431349Y-71519676D01*
X115419549Y-71544309D01*
X115405649Y-71566778D01*
X115389841Y-71587089D01*
X115372316Y-71605246D01*
X115353264Y-71621256D01*
X115332876Y-71635124D01*
X115311343Y-71646856D01*
X115288856Y-71656456D01*
X115265606Y-71663931D01*
X115241783Y-71669285D01*
X115217578Y-71672525D01*
X115193182Y-71673656D01*
X115168787Y-71672683D01*
X115144582Y-71669611D01*
X115120759Y-71664447D01*
X115097509Y-71657196D01*
X115075021Y-71647862D01*
X115053488Y-71636453D01*
X115033101Y-71622972D01*
X115014049Y-71607426D01*
X114996523Y-71589820D01*
X114980715Y-71570160D01*
X114966816Y-71548451D01*
X114955016Y-71524698D01*
X114945506Y-71498907D01*
X114938476Y-71471083D01*
X114934119Y-71441233D01*
X114932624Y-71409361D01*
X114932624Y-71274929D01*
X114932241Y-71266808D01*
X114929325Y-71252171D01*
X114923868Y-71239668D01*
X114916260Y-71229289D01*
X114906893Y-71221025D01*
X114896157Y-71214866D01*
X114884444Y-71210803D01*
X114872144Y-71208826D01*
X114859649Y-71208927D01*
X114847350Y-71211094D01*
X114835637Y-71215320D01*
X114824901Y-71221595D01*
X114815534Y-71229909D01*
X114807926Y-71240252D01*
X114802469Y-71252616D01*
X114799553Y-71266991D01*
X114799170Y-71274929D01*
X114799170Y-71421670D01*
X114800164Y-71442652D01*
X114802074Y-71463339D01*
X114804878Y-71483708D01*
X114808561Y-71503733D01*
X114813101Y-71523390D01*
X114818482Y-71542655D01*
X114824683Y-71561504D01*
X114831688Y-71579912D01*
X114839476Y-71597855D01*
X114848030Y-71615309D01*
X114857330Y-71632249D01*
X114867358Y-71648650D01*
X114878096Y-71664489D01*
X114889524Y-71679741D01*
X114901625Y-71694382D01*
X114914379Y-71708387D01*
X114927768Y-71721732D01*
X114941773Y-71734393D01*
X114956376Y-71746345D01*
X114971558Y-71757563D01*
X114987299Y-71768025D01*
X115003583Y-71777704D01*
X115020389Y-71786577D01*
X115037700Y-71794620D01*
X115055497Y-71801808D01*
X115073761Y-71808116D01*
X115092473Y-71813521D01*
X115111615Y-71817998D01*
X115131168Y-71821522D01*
X115151113Y-71824069D01*
X115171433Y-71825616D01*
X115192108Y-71826137D01*
G37*
G36*
X114868339Y-71118223D02*
G01*
X115518612Y-71118223D01*
X115526979Y-71117850D01*
X115534790Y-71116761D01*
X115545467Y-71113882D01*
X115554906Y-71109639D01*
X115563114Y-71104181D01*
X115570098Y-71097658D01*
X115575866Y-71090217D01*
X115580426Y-71082009D01*
X115583785Y-71073180D01*
X115585952Y-71063881D01*
X115586934Y-71054260D01*
X115587000Y-71051007D01*
X115586383Y-71041304D01*
X115584539Y-71031763D01*
X115581479Y-71022558D01*
X115577211Y-71013862D01*
X115571745Y-71005846D01*
X115565091Y-70998685D01*
X115557258Y-70992551D01*
X115548256Y-70987617D01*
X115538096Y-70984056D01*
X115526786Y-70982042D01*
X115518612Y-70981642D01*
X115260300Y-70981642D01*
X115255453Y-70970727D01*
X115251014Y-70959822D01*
X115246969Y-70948941D01*
X115243307Y-70938094D01*
X115240013Y-70927293D01*
X115237075Y-70916549D01*
X115234479Y-70905873D01*
X115232212Y-70895278D01*
X115230262Y-70884775D01*
X115228614Y-70874374D01*
X115227255Y-70864088D01*
X115226173Y-70853928D01*
X115225355Y-70843905D01*
X115224787Y-70834031D01*
X115224455Y-70824318D01*
X115224348Y-70814776D01*
X115224438Y-70805911D01*
X115224702Y-70797199D01*
X115225130Y-70788650D01*
X115225711Y-70780271D01*
X115226433Y-70772071D01*
X115227288Y-70764059D01*
X115228264Y-70756242D01*
X115230539Y-70741228D01*
X115233174Y-70727098D01*
X115236085Y-70713917D01*
X115239188Y-70701753D01*
X115242399Y-70690674D01*
X115245635Y-70680745D01*
X115248811Y-70672034D01*
X115251845Y-70664608D01*
X115255942Y-70656024D01*
X115260868Y-70649091D01*
X115261473Y-70648886D01*
X115518612Y-70648886D01*
X115526786Y-70648489D01*
X115538096Y-70646484D01*
X115548256Y-70642939D01*
X115557258Y-70638023D01*
X115565091Y-70631907D01*
X115571745Y-70624760D01*
X115577211Y-70616753D01*
X115581479Y-70608055D01*
X115584539Y-70598838D01*
X115586383Y-70589269D01*
X115587000Y-70579521D01*
X115586383Y-70569797D01*
X115584539Y-70560295D01*
X115581479Y-70551175D01*
X115577211Y-70542598D01*
X115571745Y-70534725D01*
X115565091Y-70527715D01*
X115557258Y-70521729D01*
X115548256Y-70516928D01*
X115538096Y-70513471D01*
X115526786Y-70511519D01*
X115518612Y-70511133D01*
X114868339Y-70511133D01*
X114859899Y-70511519D01*
X114852016Y-70512645D01*
X114841231Y-70515618D01*
X114831690Y-70519989D01*
X114823387Y-70525598D01*
X114816316Y-70532284D01*
X114810471Y-70539888D01*
X114805846Y-70548248D01*
X114802436Y-70557204D01*
X114800235Y-70566597D01*
X114799236Y-70576265D01*
X114799170Y-70579521D01*
X114799768Y-70589269D01*
X114801568Y-70598838D01*
X114804575Y-70608055D01*
X114808794Y-70616753D01*
X114814231Y-70624760D01*
X114820893Y-70631907D01*
X114828785Y-70638023D01*
X114837913Y-70642939D01*
X114848282Y-70646484D01*
X114859899Y-70648489D01*
X114868339Y-70648886D01*
X115127041Y-70648886D01*
X115127041Y-70650058D01*
X115124430Y-70659910D01*
X115122102Y-70669059D01*
X115120303Y-70676735D01*
X115118379Y-70685643D01*
X115116392Y-70695756D01*
X115114406Y-70707049D01*
X115112482Y-70719494D01*
X115110683Y-70733067D01*
X115109071Y-70747740D01*
X115107709Y-70763489D01*
X115107141Y-70771758D01*
X115106659Y-70780287D01*
X115106270Y-70789071D01*
X115105983Y-70798107D01*
X115105804Y-70807393D01*
X115105743Y-70816925D01*
X115105811Y-70826052D01*
X115106020Y-70835335D01*
X115106377Y-70844773D01*
X115106891Y-70854368D01*
X115107570Y-70864117D01*
X115108422Y-70874023D01*
X115109455Y-70884084D01*
X115110677Y-70894301D01*
X115112096Y-70904674D01*
X115113719Y-70915202D01*
X115115556Y-70925886D01*
X115117614Y-70936726D01*
X115119900Y-70947722D01*
X115122424Y-70958873D01*
X115125192Y-70970180D01*
X115128214Y-70981642D01*
X114868339Y-70981642D01*
X114859899Y-70982015D01*
X114852016Y-70983104D01*
X114841231Y-70985984D01*
X114831690Y-70990227D01*
X114823387Y-70995684D01*
X114816316Y-71002208D01*
X114810471Y-71009648D01*
X114805846Y-71017857D01*
X114802436Y-71026685D01*
X114800235Y-71035984D01*
X114799236Y-71045605D01*
X114799170Y-71048858D01*
X114799796Y-71058561D01*
X114801668Y-71068102D01*
X114804775Y-71077307D01*
X114809103Y-71086004D01*
X114814642Y-71094019D01*
X114821380Y-71101181D01*
X114829306Y-71107314D01*
X114838407Y-71112248D01*
X114848673Y-71115809D01*
X114860092Y-71117824D01*
X114868339Y-71118223D01*
G37*
G36*
X114918165Y-70408356D02*
G01*
X114925019Y-70402760D01*
X114930939Y-70396272D01*
X114935887Y-70388953D01*
X114939827Y-70380864D01*
X114941612Y-70375920D01*
X114945333Y-70366214D01*
X114949735Y-70356833D01*
X114954791Y-70347819D01*
X114960471Y-70339214D01*
X114966748Y-70331058D01*
X114973592Y-70323394D01*
X114980977Y-70316263D01*
X114988873Y-70309706D01*
X114997252Y-70303765D01*
X115006087Y-70298482D01*
X115015347Y-70293898D01*
X115025006Y-70290054D01*
X115035034Y-70286992D01*
X115045404Y-70284753D01*
X115056087Y-70283380D01*
X115067055Y-70282913D01*
X115514117Y-70282913D01*
X115522450Y-70282540D01*
X115530231Y-70281451D01*
X115540871Y-70278571D01*
X115550280Y-70274328D01*
X115558465Y-70268871D01*
X115565433Y-70262347D01*
X115571190Y-70254907D01*
X115575742Y-70246698D01*
X115579098Y-70237870D01*
X115581263Y-70228571D01*
X115582245Y-70218950D01*
X115582310Y-70215697D01*
X115581694Y-70205994D01*
X115579851Y-70196453D01*
X115576794Y-70187248D01*
X115572532Y-70178551D01*
X115567075Y-70170536D01*
X115560436Y-70163375D01*
X115552624Y-70157241D01*
X115543649Y-70152307D01*
X115533524Y-70148746D01*
X115522257Y-70146731D01*
X115514117Y-70146332D01*
X115067055Y-70146332D01*
X115052535Y-70147009D01*
X115038363Y-70148395D01*
X115024545Y-70150459D01*
X115011090Y-70153167D01*
X114998005Y-70156487D01*
X114985297Y-70160387D01*
X114972973Y-70164835D01*
X114961042Y-70169798D01*
X114949510Y-70175243D01*
X114938385Y-70181138D01*
X114927675Y-70187451D01*
X114917386Y-70194149D01*
X114907527Y-70201201D01*
X114898105Y-70208572D01*
X114889127Y-70216232D01*
X114880600Y-70224148D01*
X114872533Y-70232286D01*
X114864932Y-70240616D01*
X114857805Y-70249104D01*
X114851160Y-70257718D01*
X114845003Y-70266426D01*
X114839343Y-70275195D01*
X114834187Y-70283992D01*
X114829541Y-70292786D01*
X114825415Y-70301544D01*
X114821814Y-70310233D01*
X114818747Y-70318822D01*
X114816221Y-70327277D01*
X114814243Y-70335566D01*
X114812821Y-70343658D01*
X114811963Y-70351519D01*
X114811675Y-70359116D01*
X114812213Y-70369197D01*
X114813838Y-70378618D01*
X114816562Y-70387307D01*
X114820402Y-70395191D01*
X114825372Y-70402197D01*
X114831486Y-70408255D01*
X114838758Y-70413290D01*
X114847203Y-70417231D01*
X114856836Y-70420005D01*
X114867671Y-70421539D01*
X114875569Y-70421838D01*
X114884785Y-70421364D01*
X114893494Y-70419942D01*
X114901642Y-70417572D01*
X114909174Y-70414254D01*
X114916036Y-70409988D01*
X114918165Y-70408356D01*
G37*
G36*
X90447097Y-69281252D02*
G01*
X90457274Y-69276904D01*
X90467107Y-69272256D01*
X90476597Y-69267318D01*
X90485745Y-69262098D01*
X90494553Y-69256606D01*
X90503023Y-69250852D01*
X90511154Y-69244844D01*
X90518950Y-69238592D01*
X90526412Y-69232104D01*
X90533540Y-69225391D01*
X90540336Y-69218462D01*
X90546802Y-69211325D01*
X90552939Y-69203991D01*
X90558748Y-69196468D01*
X90564231Y-69188765D01*
X90569390Y-69180892D01*
X90574224Y-69172859D01*
X90578737Y-69164674D01*
X90582929Y-69156346D01*
X90586802Y-69147886D01*
X90590357Y-69139301D01*
X90593596Y-69130602D01*
X90596519Y-69121798D01*
X90599129Y-69112898D01*
X90601427Y-69103911D01*
X90603414Y-69094847D01*
X90605091Y-69085715D01*
X90606460Y-69076523D01*
X90607522Y-69067282D01*
X90608280Y-69058001D01*
X90608733Y-69048688D01*
X90608884Y-69039354D01*
X90608654Y-69028014D01*
X90607968Y-69016688D01*
X90606825Y-69005393D01*
X90605228Y-68994149D01*
X90603179Y-68982975D01*
X90600679Y-68971892D01*
X90597730Y-68960917D01*
X90594333Y-68950071D01*
X90590490Y-68939372D01*
X90586203Y-68928840D01*
X90581473Y-68918495D01*
X90576302Y-68908356D01*
X90570692Y-68898441D01*
X90564645Y-68888770D01*
X90558161Y-68879364D01*
X90551242Y-68870240D01*
X90543891Y-68861418D01*
X90536109Y-68852918D01*
X90527897Y-68844759D01*
X90519258Y-68836960D01*
X90510192Y-68829541D01*
X90500702Y-68822520D01*
X90490789Y-68815918D01*
X90480455Y-68809753D01*
X90469701Y-68804045D01*
X90458529Y-68798813D01*
X90446941Y-68794077D01*
X90434938Y-68789855D01*
X90422522Y-68786167D01*
X90409695Y-68783033D01*
X90396458Y-68780472D01*
X90382812Y-68778502D01*
X90374514Y-68777745D01*
X90366321Y-68777062D01*
X90358281Y-68776526D01*
X90350446Y-68776210D01*
X90346078Y-68776158D01*
X90336681Y-68776294D01*
X90327049Y-68776724D01*
X90317210Y-68777482D01*
X90307195Y-68778600D01*
X90297033Y-68780112D01*
X90286755Y-68782051D01*
X90276389Y-68784451D01*
X90265967Y-68787344D01*
X90255517Y-68790763D01*
X90245069Y-68794743D01*
X90234653Y-68799315D01*
X90224299Y-68804514D01*
X90214036Y-68810372D01*
X90203895Y-68816923D01*
X90193906Y-68824200D01*
X90184096Y-68832236D01*
X90174652Y-68840928D01*
X90165676Y-68850226D01*
X90157188Y-68860133D01*
X90149206Y-68870649D01*
X90141752Y-68881776D01*
X90134843Y-68893517D01*
X90128501Y-68905872D01*
X90122743Y-68918844D01*
X90117589Y-68932434D01*
X90113060Y-68946644D01*
X90109174Y-68961476D01*
X90107478Y-68969126D01*
X90105951Y-68976931D01*
X90104594Y-68984893D01*
X90103410Y-68993012D01*
X90102402Y-69001287D01*
X90101571Y-69009719D01*
X90100921Y-69018308D01*
X90100454Y-69027054D01*
X90100172Y-69035958D01*
X90100077Y-69045020D01*
X90099621Y-69054477D01*
X90098260Y-69063485D01*
X90096007Y-69072017D01*
X90092872Y-69080044D01*
X90088867Y-69087541D01*
X90084003Y-69094479D01*
X90078292Y-69100831D01*
X90071745Y-69106569D01*
X90064915Y-69111837D01*
X90058359Y-69116323D01*
X90049077Y-69121719D01*
X90040510Y-69125700D01*
X90032716Y-69128470D01*
X90023628Y-69130638D01*
X90014563Y-69131579D01*
X90006643Y-69131304D01*
X90005115Y-69131189D01*
X89993741Y-69130530D01*
X89982415Y-69128511D01*
X89971371Y-69125073D01*
X89960843Y-69120153D01*
X89951064Y-69113692D01*
X89945077Y-69108498D01*
X89939596Y-69102574D01*
X89934691Y-69095901D01*
X89930430Y-69088463D01*
X89926884Y-69080239D01*
X89924121Y-69071213D01*
X89922211Y-69061367D01*
X89921223Y-69050682D01*
X89921096Y-69045020D01*
X89922015Y-69030609D01*
X89924614Y-69018265D01*
X89928651Y-69007718D01*
X89933888Y-68998699D01*
X89940084Y-68990940D01*
X89947000Y-68984172D01*
X89954396Y-68978124D01*
X89962031Y-68972529D01*
X89969666Y-68967117D01*
X89977062Y-68961619D01*
X89983978Y-68955766D01*
X89990174Y-68949289D01*
X89995411Y-68941919D01*
X89999448Y-68933387D01*
X90002047Y-68923424D01*
X90002966Y-68911761D01*
X90002346Y-68897638D01*
X90000537Y-68885066D01*
X89997619Y-68874007D01*
X89993672Y-68864425D01*
X89988774Y-68856283D01*
X89983005Y-68849543D01*
X89976443Y-68844168D01*
X89969169Y-68840122D01*
X89961261Y-68837366D01*
X89952798Y-68835865D01*
X89943861Y-68835581D01*
X89934527Y-68836477D01*
X89924876Y-68838515D01*
X89914988Y-68841659D01*
X89904941Y-68845872D01*
X89894815Y-68851116D01*
X89884689Y-68857354D01*
X89874643Y-68864550D01*
X89864754Y-68872665D01*
X89855104Y-68881664D01*
X89845770Y-68891509D01*
X89836832Y-68902162D01*
X89828370Y-68913587D01*
X89820462Y-68925747D01*
X89813187Y-68938604D01*
X89806626Y-68952122D01*
X89800857Y-68966263D01*
X89795959Y-68980991D01*
X89792011Y-68996267D01*
X89789094Y-69012056D01*
X89787285Y-69028319D01*
X89786665Y-69045020D01*
X89786808Y-69054065D01*
X89787236Y-69062920D01*
X89787940Y-69071583D01*
X89788915Y-69080056D01*
X89790156Y-69088339D01*
X89791654Y-69096432D01*
X89793405Y-69104336D01*
X89795402Y-69112049D01*
X89797639Y-69119574D01*
X89802808Y-69134057D01*
X89808861Y-69147786D01*
X89815749Y-69160763D01*
X89823422Y-69172991D01*
X89831831Y-69184470D01*
X89840925Y-69195204D01*
X89850655Y-69205195D01*
X89860970Y-69214443D01*
X89871822Y-69222952D01*
X89883160Y-69230723D01*
X89894935Y-69237758D01*
X89900970Y-69241001D01*
X89909877Y-69245520D01*
X89918456Y-69249621D01*
X89926701Y-69253298D01*
X89934602Y-69256546D01*
X89942154Y-69259358D01*
X89951664Y-69262421D01*
X89960520Y-69264686D01*
X89968702Y-69266139D01*
X89977956Y-69266793D01*
X89986416Y-69266869D01*
X89994735Y-69267113D01*
X90002757Y-69267542D01*
X90008437Y-69267965D01*
X90018202Y-69267748D01*
X90027992Y-69267095D01*
X90037785Y-69266005D01*
X90047559Y-69264477D01*
X90057293Y-69262508D01*
X90066963Y-69260098D01*
X90076548Y-69257244D01*
X90086027Y-69253945D01*
X90095377Y-69250200D01*
X90104576Y-69246007D01*
X90113602Y-69241364D01*
X90122434Y-69236270D01*
X90131048Y-69230723D01*
X90139425Y-69224722D01*
X90147540Y-69218264D01*
X90155374Y-69211349D01*
X90162902Y-69203976D01*
X90170104Y-69196141D01*
X90176958Y-69187844D01*
X90183441Y-69179083D01*
X90189532Y-69169857D01*
X90195208Y-69160164D01*
X90200448Y-69150003D01*
X90205230Y-69139371D01*
X90209531Y-69128268D01*
X90213330Y-69116691D01*
X90216605Y-69104640D01*
X90219334Y-69092112D01*
X90221494Y-69079106D01*
X90223065Y-69065620D01*
X90224023Y-69051654D01*
X90224348Y-69037204D01*
X90225065Y-69022448D01*
X90227157Y-69008624D01*
X90230530Y-68995734D01*
X90235094Y-68983782D01*
X90240758Y-68972767D01*
X90247429Y-68962694D01*
X90255015Y-68953562D01*
X90263427Y-68945375D01*
X90272570Y-68938134D01*
X90282355Y-68931842D01*
X90292690Y-68926499D01*
X90303482Y-68922109D01*
X90314641Y-68918672D01*
X90326075Y-68916192D01*
X90337692Y-68914669D01*
X90349400Y-68914106D01*
X90361108Y-68914505D01*
X90372725Y-68915867D01*
X90384159Y-68918195D01*
X90395318Y-68921490D01*
X90406110Y-68925755D01*
X90416445Y-68930992D01*
X90426230Y-68937201D01*
X90435374Y-68944386D01*
X90443785Y-68952548D01*
X90451371Y-68961689D01*
X90458042Y-68971811D01*
X90463706Y-68982916D01*
X90468270Y-68995006D01*
X90471644Y-69008083D01*
X90473735Y-69022148D01*
X90474452Y-69037204D01*
X90474068Y-69047183D01*
X90472934Y-69056949D01*
X90471078Y-69066472D01*
X90468530Y-69075724D01*
X90465317Y-69084675D01*
X90461469Y-69093296D01*
X90457015Y-69101556D01*
X90451982Y-69109427D01*
X90446400Y-69116879D01*
X90440297Y-69123882D01*
X90433701Y-69130407D01*
X90426642Y-69136425D01*
X90419148Y-69141906D01*
X90411247Y-69146820D01*
X90402968Y-69151139D01*
X90394341Y-69154832D01*
X90386058Y-69158551D01*
X90378675Y-69162764D01*
X90372172Y-69167439D01*
X90364838Y-69174336D01*
X90358994Y-69181921D01*
X90354595Y-69190119D01*
X90351598Y-69198855D01*
X90349959Y-69208053D01*
X90349595Y-69215208D01*
X90350066Y-69223567D01*
X90351452Y-69231738D01*
X90353717Y-69239643D01*
X90356825Y-69247204D01*
X90360739Y-69254345D01*
X90365422Y-69260986D01*
X90370838Y-69267050D01*
X90376951Y-69272459D01*
X90383443Y-69277282D01*
X90391351Y-69281775D01*
X90398812Y-69284822D01*
X90406848Y-69286957D01*
X90415344Y-69288012D01*
X90418374Y-69288091D01*
X90427020Y-69287410D01*
X90434978Y-69285652D01*
X90443266Y-69282836D01*
X90447097Y-69281252D01*
G37*
G36*
X90192108Y-68730826D02*
G01*
X90212787Y-68730301D01*
X90233154Y-68728743D01*
X90253186Y-68726173D01*
X90272861Y-68722615D01*
X90292156Y-68718091D01*
X90311048Y-68712624D01*
X90329515Y-68706237D01*
X90347535Y-68698952D01*
X90365084Y-68690793D01*
X90382140Y-68681782D01*
X90398681Y-68671942D01*
X90414684Y-68661295D01*
X90430127Y-68649864D01*
X90444986Y-68637673D01*
X90459240Y-68624743D01*
X90472865Y-68611098D01*
X90485839Y-68596761D01*
X90498140Y-68581753D01*
X90509745Y-68566098D01*
X90520631Y-68549819D01*
X90530777Y-68532938D01*
X90540158Y-68515479D01*
X90548753Y-68497463D01*
X90556539Y-68478914D01*
X90563494Y-68459854D01*
X90569595Y-68440307D01*
X90574819Y-68420294D01*
X90579144Y-68399839D01*
X90582547Y-68378964D01*
X90585005Y-68357693D01*
X90586497Y-68336047D01*
X90587000Y-68314050D01*
X90587000Y-68179619D01*
X90586617Y-68171680D01*
X90583705Y-68157306D01*
X90578256Y-68144942D01*
X90570659Y-68134598D01*
X90561306Y-68126285D01*
X90550586Y-68120010D01*
X90538890Y-68115784D01*
X90526608Y-68113616D01*
X90514132Y-68113516D01*
X90501850Y-68115492D01*
X90490154Y-68119555D01*
X90479434Y-68125714D01*
X90470081Y-68133978D01*
X90462484Y-68144357D01*
X90457035Y-68156861D01*
X90454123Y-68171497D01*
X90453741Y-68179619D01*
X90453741Y-68304085D01*
X90452246Y-68337428D01*
X90447888Y-68368586D01*
X90440859Y-68397563D01*
X90431349Y-68424366D01*
X90419549Y-68448999D01*
X90405649Y-68471468D01*
X90389841Y-68491778D01*
X90372316Y-68509936D01*
X90353264Y-68525946D01*
X90332876Y-68539814D01*
X90311343Y-68551545D01*
X90288856Y-68561146D01*
X90265606Y-68568620D01*
X90241783Y-68573975D01*
X90217578Y-68577215D01*
X90193182Y-68578345D01*
X90168787Y-68577372D01*
X90144582Y-68574301D01*
X90120759Y-68569137D01*
X90097509Y-68561885D01*
X90075021Y-68552552D01*
X90053488Y-68541142D01*
X90033101Y-68527662D01*
X90014049Y-68512116D01*
X89996523Y-68494510D01*
X89980715Y-68474850D01*
X89966816Y-68453140D01*
X89955016Y-68429387D01*
X89945506Y-68403596D01*
X89938476Y-68375773D01*
X89934119Y-68345922D01*
X89932624Y-68314050D01*
X89932624Y-68179619D01*
X89932241Y-68171497D01*
X89929325Y-68156861D01*
X89923868Y-68144357D01*
X89916260Y-68133978D01*
X89906893Y-68125714D01*
X89896157Y-68119555D01*
X89884444Y-68115492D01*
X89872144Y-68113516D01*
X89859649Y-68113616D01*
X89847350Y-68115784D01*
X89835637Y-68120010D01*
X89824901Y-68126285D01*
X89815534Y-68134598D01*
X89807926Y-68144942D01*
X89802469Y-68157306D01*
X89799553Y-68171680D01*
X89799170Y-68179619D01*
X89799170Y-68326360D01*
X89800164Y-68347342D01*
X89802074Y-68368029D01*
X89804878Y-68388397D01*
X89808561Y-68408422D01*
X89813101Y-68428079D01*
X89818482Y-68447345D01*
X89824683Y-68466194D01*
X89831688Y-68484602D01*
X89839476Y-68502545D01*
X89848030Y-68519998D01*
X89857330Y-68536938D01*
X89867358Y-68553340D01*
X89878096Y-68569179D01*
X89889524Y-68584431D01*
X89901625Y-68599072D01*
X89914379Y-68613077D01*
X89927768Y-68626422D01*
X89941773Y-68639082D01*
X89956376Y-68651034D01*
X89971558Y-68662253D01*
X89987299Y-68672714D01*
X90003583Y-68682394D01*
X90020389Y-68691267D01*
X90037700Y-68699310D01*
X90055497Y-68706497D01*
X90073761Y-68712806D01*
X90092473Y-68718210D01*
X90111615Y-68722687D01*
X90131168Y-68726211D01*
X90151113Y-68728759D01*
X90171433Y-68730305D01*
X90192108Y-68730826D01*
G37*
G36*
X89865799Y-68022913D02*
G01*
X90249554Y-68022913D01*
X90266905Y-68022424D01*
X90284030Y-68020975D01*
X90300907Y-68018587D01*
X90317516Y-68015285D01*
X90333835Y-68011093D01*
X90349842Y-68006032D01*
X90365517Y-68000127D01*
X90380837Y-67993402D01*
X90395783Y-67985879D01*
X90410331Y-67977582D01*
X90424463Y-67968535D01*
X90438154Y-67958760D01*
X90451386Y-67948281D01*
X90464136Y-67937122D01*
X90476383Y-67925306D01*
X90488106Y-67912857D01*
X90499283Y-67899797D01*
X90509893Y-67886150D01*
X90519915Y-67871940D01*
X90529328Y-67857190D01*
X90538110Y-67841923D01*
X90546240Y-67826163D01*
X90553697Y-67809933D01*
X90560459Y-67793257D01*
X90566506Y-67776158D01*
X90571815Y-67758659D01*
X90576366Y-67740784D01*
X90580137Y-67722556D01*
X90583108Y-67703998D01*
X90585256Y-67685135D01*
X90586560Y-67665989D01*
X90587000Y-67646583D01*
X90586608Y-67637156D01*
X90585466Y-67628397D01*
X90583623Y-67620297D01*
X90581131Y-67612850D01*
X90574395Y-67599881D01*
X90565659Y-67589427D01*
X90555322Y-67581427D01*
X90543785Y-67575819D01*
X90531447Y-67572540D01*
X90518709Y-67571527D01*
X90505971Y-67572720D01*
X90493634Y-67576056D01*
X90482097Y-67581473D01*
X90471760Y-67588908D01*
X90463023Y-67598300D01*
X90456288Y-67609587D01*
X90451953Y-67622706D01*
X90450419Y-67637595D01*
X90450182Y-67649947D01*
X90449475Y-67662188D01*
X90448305Y-67674299D01*
X90446679Y-67686262D01*
X90444603Y-67698059D01*
X90442084Y-67709671D01*
X90439129Y-67721080D01*
X90435743Y-67732267D01*
X90431934Y-67743213D01*
X90427708Y-67753902D01*
X90423073Y-67764313D01*
X90418033Y-67774429D01*
X90412597Y-67784231D01*
X90406771Y-67793700D01*
X90400561Y-67802819D01*
X90393974Y-67811569D01*
X90387017Y-67819932D01*
X90379696Y-67827888D01*
X90372018Y-67835420D01*
X90363989Y-67842509D01*
X90355617Y-67849137D01*
X90346907Y-67855285D01*
X90337867Y-67860935D01*
X90328502Y-67866069D01*
X90318820Y-67870668D01*
X90308827Y-67874713D01*
X90298530Y-67878186D01*
X90287936Y-67881070D01*
X90277051Y-67883344D01*
X90265881Y-67884992D01*
X90254433Y-67885994D01*
X90242715Y-67886332D01*
X89865799Y-67886332D01*
X89857613Y-67886705D01*
X89846365Y-67888593D01*
X89836347Y-67891943D01*
X89827546Y-67896608D01*
X89819954Y-67902437D01*
X89813559Y-67909283D01*
X89808351Y-67916996D01*
X89804318Y-67925428D01*
X89801451Y-67934429D01*
X89799738Y-67943852D01*
X89799170Y-67953548D01*
X89799766Y-67963251D01*
X89801551Y-67972792D01*
X89804518Y-67981997D01*
X89808660Y-67990694D01*
X89813970Y-67998709D01*
X89820441Y-68005870D01*
X89828067Y-68012004D01*
X89836841Y-68016938D01*
X89846756Y-68020499D01*
X89857806Y-68022514D01*
X89865799Y-68022913D01*
G37*
G36*
X90447097Y-72005704D02*
G01*
X90457274Y-72001356D01*
X90467107Y-71996708D01*
X90476597Y-71991770D01*
X90485745Y-71986550D01*
X90494553Y-71981058D01*
X90503023Y-71975304D01*
X90511154Y-71969296D01*
X90518950Y-71963044D01*
X90526412Y-71956556D01*
X90533540Y-71949843D01*
X90540336Y-71942914D01*
X90546802Y-71935777D01*
X90552939Y-71928443D01*
X90558748Y-71920920D01*
X90564231Y-71913217D01*
X90569390Y-71905344D01*
X90574224Y-71897311D01*
X90578737Y-71889126D01*
X90582929Y-71880798D01*
X90586802Y-71872338D01*
X90590357Y-71863753D01*
X90593596Y-71855054D01*
X90596519Y-71846250D01*
X90599129Y-71837350D01*
X90601427Y-71828363D01*
X90603414Y-71819299D01*
X90605091Y-71810167D01*
X90606460Y-71800975D01*
X90607522Y-71791734D01*
X90608280Y-71782453D01*
X90608733Y-71773140D01*
X90608884Y-71763806D01*
X90608654Y-71752466D01*
X90607968Y-71741140D01*
X90606825Y-71729845D01*
X90605228Y-71718601D01*
X90603179Y-71707427D01*
X90600679Y-71696344D01*
X90597730Y-71685369D01*
X90594333Y-71674523D01*
X90590490Y-71663824D01*
X90586203Y-71653292D01*
X90581473Y-71642947D01*
X90576302Y-71632808D01*
X90570692Y-71622893D01*
X90564645Y-71613222D01*
X90558161Y-71603816D01*
X90551242Y-71594692D01*
X90543891Y-71585870D01*
X90536109Y-71577370D01*
X90527897Y-71569211D01*
X90519258Y-71561412D01*
X90510192Y-71553993D01*
X90500702Y-71546972D01*
X90490789Y-71540370D01*
X90480455Y-71534205D01*
X90469701Y-71528497D01*
X90458529Y-71523265D01*
X90446941Y-71518529D01*
X90434938Y-71514307D01*
X90422522Y-71510619D01*
X90409695Y-71507485D01*
X90396458Y-71504924D01*
X90382812Y-71502954D01*
X90374514Y-71502197D01*
X90366321Y-71501514D01*
X90358281Y-71500978D01*
X90350446Y-71500662D01*
X90346078Y-71500610D01*
X90336681Y-71500746D01*
X90327049Y-71501176D01*
X90317210Y-71501934D01*
X90307195Y-71503052D01*
X90297033Y-71504564D01*
X90286755Y-71506503D01*
X90276389Y-71508903D01*
X90265967Y-71511796D01*
X90255517Y-71515215D01*
X90245069Y-71519195D01*
X90234653Y-71523767D01*
X90224299Y-71528966D01*
X90214036Y-71534824D01*
X90203895Y-71541375D01*
X90193906Y-71548652D01*
X90184096Y-71556688D01*
X90174652Y-71565380D01*
X90165676Y-71574678D01*
X90157188Y-71584585D01*
X90149206Y-71595101D01*
X90141752Y-71606228D01*
X90134843Y-71617969D01*
X90128501Y-71630324D01*
X90122743Y-71643296D01*
X90117589Y-71656886D01*
X90113060Y-71671096D01*
X90109174Y-71685928D01*
X90107478Y-71693578D01*
X90105951Y-71701383D01*
X90104594Y-71709345D01*
X90103410Y-71717464D01*
X90102402Y-71725739D01*
X90101571Y-71734171D01*
X90100921Y-71742760D01*
X90100454Y-71751506D01*
X90100172Y-71760410D01*
X90100077Y-71769472D01*
X90099621Y-71778929D01*
X90098260Y-71787937D01*
X90096007Y-71796469D01*
X90092872Y-71804496D01*
X90088867Y-71811993D01*
X90084003Y-71818931D01*
X90078292Y-71825283D01*
X90071745Y-71831021D01*
X90064915Y-71836289D01*
X90058359Y-71840775D01*
X90049077Y-71846171D01*
X90040510Y-71850152D01*
X90032716Y-71852922D01*
X90023628Y-71855090D01*
X90014563Y-71856031D01*
X90006643Y-71855756D01*
X90005115Y-71855641D01*
X89993741Y-71854982D01*
X89982415Y-71852963D01*
X89971371Y-71849525D01*
X89960843Y-71844605D01*
X89951064Y-71838144D01*
X89945077Y-71832950D01*
X89939596Y-71827026D01*
X89934691Y-71820353D01*
X89930430Y-71812915D01*
X89926884Y-71804691D01*
X89924121Y-71795665D01*
X89922211Y-71785819D01*
X89921223Y-71775134D01*
X89921096Y-71769472D01*
X89922015Y-71755061D01*
X89924614Y-71742717D01*
X89928651Y-71732170D01*
X89933888Y-71723151D01*
X89940084Y-71715392D01*
X89947000Y-71708624D01*
X89954396Y-71702576D01*
X89962031Y-71696981D01*
X89969666Y-71691569D01*
X89977062Y-71686071D01*
X89983978Y-71680218D01*
X89990174Y-71673741D01*
X89995411Y-71666371D01*
X89999448Y-71657839D01*
X90002047Y-71647876D01*
X90002966Y-71636213D01*
X90002346Y-71622090D01*
X90000537Y-71609518D01*
X89997619Y-71598459D01*
X89993672Y-71588877D01*
X89988774Y-71580735D01*
X89983005Y-71573995D01*
X89976443Y-71568620D01*
X89969169Y-71564574D01*
X89961261Y-71561818D01*
X89952798Y-71560317D01*
X89943861Y-71560033D01*
X89934527Y-71560929D01*
X89924876Y-71562967D01*
X89914988Y-71566111D01*
X89904941Y-71570324D01*
X89894815Y-71575568D01*
X89884689Y-71581806D01*
X89874643Y-71589002D01*
X89864754Y-71597117D01*
X89855104Y-71606116D01*
X89845770Y-71615961D01*
X89836832Y-71626614D01*
X89828370Y-71638039D01*
X89820462Y-71650199D01*
X89813187Y-71663056D01*
X89806626Y-71676574D01*
X89800857Y-71690715D01*
X89795959Y-71705443D01*
X89792011Y-71720719D01*
X89789094Y-71736508D01*
X89787285Y-71752771D01*
X89786665Y-71769472D01*
X89786808Y-71778517D01*
X89787236Y-71787372D01*
X89787940Y-71796035D01*
X89788915Y-71804508D01*
X89790156Y-71812791D01*
X89791654Y-71820884D01*
X89793405Y-71828788D01*
X89795402Y-71836501D01*
X89797639Y-71844026D01*
X89802808Y-71858509D01*
X89808861Y-71872238D01*
X89815749Y-71885215D01*
X89823422Y-71897443D01*
X89831831Y-71908922D01*
X89840925Y-71919656D01*
X89850655Y-71929647D01*
X89860970Y-71938895D01*
X89871822Y-71947404D01*
X89883160Y-71955175D01*
X89894935Y-71962210D01*
X89900970Y-71965453D01*
X89909877Y-71969972D01*
X89918456Y-71974073D01*
X89926701Y-71977750D01*
X89934602Y-71980998D01*
X89942154Y-71983810D01*
X89951664Y-71986873D01*
X89960520Y-71989138D01*
X89968702Y-71990591D01*
X89977956Y-71991245D01*
X89986416Y-71991321D01*
X89994735Y-71991565D01*
X90002757Y-71991994D01*
X90008437Y-71992417D01*
X90018202Y-71992200D01*
X90027992Y-71991547D01*
X90037785Y-71990457D01*
X90047559Y-71988929D01*
X90057293Y-71986960D01*
X90066963Y-71984550D01*
X90076548Y-71981696D01*
X90086027Y-71978397D01*
X90095377Y-71974652D01*
X90104576Y-71970459D01*
X90113602Y-71965816D01*
X90122434Y-71960722D01*
X90131048Y-71955175D01*
X90139425Y-71949174D01*
X90147540Y-71942716D01*
X90155374Y-71935801D01*
X90162902Y-71928428D01*
X90170104Y-71920593D01*
X90176958Y-71912296D01*
X90183441Y-71903535D01*
X90189532Y-71894309D01*
X90195208Y-71884616D01*
X90200448Y-71874455D01*
X90205230Y-71863823D01*
X90209531Y-71852720D01*
X90213330Y-71841143D01*
X90216605Y-71829092D01*
X90219334Y-71816564D01*
X90221494Y-71803558D01*
X90223065Y-71790072D01*
X90224023Y-71776106D01*
X90224348Y-71761656D01*
X90225065Y-71746900D01*
X90227157Y-71733076D01*
X90230530Y-71720186D01*
X90235094Y-71708234D01*
X90240758Y-71697219D01*
X90247429Y-71687146D01*
X90255015Y-71678014D01*
X90263427Y-71669827D01*
X90272570Y-71662586D01*
X90282355Y-71656294D01*
X90292690Y-71650951D01*
X90303482Y-71646561D01*
X90314641Y-71643124D01*
X90326075Y-71640644D01*
X90337692Y-71639121D01*
X90349400Y-71638558D01*
X90361108Y-71638957D01*
X90372725Y-71640319D01*
X90384159Y-71642647D01*
X90395318Y-71645942D01*
X90406110Y-71650207D01*
X90416445Y-71655444D01*
X90426230Y-71661653D01*
X90435374Y-71668838D01*
X90443785Y-71677000D01*
X90451371Y-71686141D01*
X90458042Y-71696263D01*
X90463706Y-71707368D01*
X90468270Y-71719458D01*
X90471644Y-71732535D01*
X90473735Y-71746600D01*
X90474452Y-71761656D01*
X90474068Y-71771635D01*
X90472934Y-71781401D01*
X90471078Y-71790924D01*
X90468530Y-71800176D01*
X90465317Y-71809127D01*
X90461469Y-71817748D01*
X90457015Y-71826008D01*
X90451982Y-71833879D01*
X90446400Y-71841331D01*
X90440297Y-71848334D01*
X90433701Y-71854859D01*
X90426642Y-71860877D01*
X90419148Y-71866358D01*
X90411247Y-71871272D01*
X90402968Y-71875591D01*
X90394341Y-71879284D01*
X90386058Y-71883003D01*
X90378675Y-71887216D01*
X90372172Y-71891891D01*
X90364838Y-71898788D01*
X90358994Y-71906373D01*
X90354595Y-71914571D01*
X90351598Y-71923307D01*
X90349959Y-71932505D01*
X90349595Y-71939660D01*
X90350066Y-71948019D01*
X90351452Y-71956190D01*
X90353717Y-71964095D01*
X90356825Y-71971656D01*
X90360739Y-71978797D01*
X90365422Y-71985438D01*
X90370838Y-71991502D01*
X90376951Y-71996911D01*
X90383443Y-72001734D01*
X90391351Y-72006227D01*
X90398812Y-72009274D01*
X90406848Y-72011409D01*
X90415344Y-72012464D01*
X90418374Y-72012543D01*
X90427020Y-72011862D01*
X90434978Y-72010104D01*
X90443266Y-72007288D01*
X90447097Y-72005704D01*
G37*
G36*
X90197896Y-70723362D02*
G01*
X90205769Y-70723669D01*
X90214920Y-70724186D01*
X90224275Y-70724791D01*
X90232911Y-70725385D01*
X90242585Y-70726074D01*
X90250531Y-70726653D01*
X90258706Y-70727275D01*
X90267402Y-70728480D01*
X90276614Y-70730263D01*
X90286337Y-70732619D01*
X90296566Y-70735542D01*
X90307297Y-70739029D01*
X90314726Y-70741664D01*
X90322375Y-70744546D01*
X90330242Y-70747673D01*
X90338326Y-70751044D01*
X90346624Y-70754657D01*
X90355135Y-70758511D01*
X90363859Y-70762605D01*
X90372670Y-70766915D01*
X90381370Y-70771489D01*
X90389958Y-70776329D01*
X90398432Y-70781433D01*
X90406792Y-70786802D01*
X90415036Y-70792435D01*
X90423163Y-70798332D01*
X90431173Y-70804493D01*
X90439063Y-70810917D01*
X90446833Y-70817604D01*
X90454482Y-70824554D01*
X90462008Y-70831766D01*
X90469411Y-70839240D01*
X90476689Y-70846976D01*
X90483841Y-70854974D01*
X90490866Y-70863233D01*
X90498826Y-70873101D01*
X90506339Y-70882958D01*
X90513417Y-70892807D01*
X90520073Y-70902650D01*
X90526320Y-70912490D01*
X90532170Y-70922328D01*
X90537637Y-70932166D01*
X90542734Y-70942008D01*
X90547472Y-70951855D01*
X90551864Y-70961709D01*
X90555925Y-70971572D01*
X90559665Y-70981448D01*
X90563099Y-70991337D01*
X90566238Y-71001243D01*
X90569096Y-71011167D01*
X90571685Y-71021112D01*
X90574019Y-71031080D01*
X90576109Y-71041073D01*
X90577969Y-71051093D01*
X90579612Y-71061143D01*
X90581049Y-71071224D01*
X90582295Y-71081340D01*
X90583361Y-71091491D01*
X90584261Y-71101682D01*
X90585007Y-71111912D01*
X90585612Y-71122186D01*
X90586089Y-71132505D01*
X90586451Y-71142871D01*
X90586710Y-71153286D01*
X90586879Y-71163754D01*
X90586972Y-71174275D01*
X90587000Y-71184852D01*
X90586907Y-71193176D01*
X90586736Y-71201758D01*
X90586501Y-71212546D01*
X90586319Y-71221054D01*
X90586125Y-71230676D01*
X90585925Y-71241468D01*
X90585724Y-71253482D01*
X90585530Y-71266773D01*
X90585349Y-71281394D01*
X90585265Y-71289220D01*
X90585186Y-71297399D01*
X90585114Y-71305938D01*
X90585049Y-71314843D01*
X90584991Y-71324121D01*
X90584943Y-71333778D01*
X90584903Y-71343822D01*
X90584874Y-71354259D01*
X90584856Y-71365095D01*
X90584850Y-71376339D01*
X90584515Y-71383935D01*
X90582816Y-71394679D01*
X90579794Y-71404622D01*
X90575577Y-71413741D01*
X90570292Y-71422012D01*
X90564067Y-71429412D01*
X90557029Y-71435919D01*
X90549306Y-71441508D01*
X90541026Y-71446158D01*
X90532315Y-71449843D01*
X90523301Y-71452543D01*
X90521706Y-71452821D01*
X90513565Y-71454133D01*
X90505325Y-71454692D01*
X90503409Y-71454672D01*
X90495232Y-71454115D01*
X90486432Y-71452589D01*
X90477273Y-71449817D01*
X90468016Y-71445522D01*
X90461168Y-71441135D01*
X90454525Y-71435617D01*
X90448199Y-71428853D01*
X90442299Y-71420726D01*
X90436937Y-71411119D01*
X90432167Y-71401837D01*
X90426743Y-71392900D01*
X90420692Y-71384312D01*
X90414042Y-71376079D01*
X90406821Y-71368207D01*
X90399056Y-71360702D01*
X90390775Y-71353567D01*
X90382006Y-71346810D01*
X90372778Y-71340435D01*
X90363116Y-71334448D01*
X90353050Y-71328854D01*
X90342607Y-71323659D01*
X90331815Y-71318868D01*
X90320701Y-71314486D01*
X90309294Y-71310520D01*
X90297621Y-71306974D01*
X90291902Y-71305350D01*
X90280888Y-71302459D01*
X90270456Y-71300013D01*
X90260622Y-71297977D01*
X90251404Y-71296313D01*
X90242820Y-71294986D01*
X90231171Y-71293548D01*
X90221049Y-71292665D01*
X90212513Y-71292216D01*
X90203703Y-71292081D01*
X90195429Y-71292319D01*
X90186156Y-71292431D01*
X90176880Y-71292768D01*
X90167611Y-71293330D01*
X90158360Y-71294121D01*
X90149136Y-71295140D01*
X90139951Y-71296389D01*
X90130812Y-71297871D01*
X90121732Y-71299585D01*
X90112720Y-71301535D01*
X90103785Y-71303720D01*
X90094938Y-71306144D01*
X90086190Y-71308806D01*
X90077549Y-71311708D01*
X90069027Y-71314853D01*
X90060632Y-71318240D01*
X90052376Y-71321873D01*
X90044268Y-71325751D01*
X90036319Y-71329877D01*
X90028538Y-71334252D01*
X90020935Y-71338878D01*
X90013521Y-71343756D01*
X90006305Y-71348886D01*
X89999298Y-71354272D01*
X89992509Y-71359913D01*
X89985950Y-71365813D01*
X89979628Y-71371971D01*
X89973556Y-71378390D01*
X89967743Y-71385070D01*
X89962198Y-71392014D01*
X89956933Y-71399223D01*
X89951956Y-71406698D01*
X89947279Y-71414441D01*
X89941618Y-71423469D01*
X89935481Y-71431070D01*
X89928979Y-71437362D01*
X89922223Y-71442461D01*
X89915324Y-71446486D01*
X89906094Y-71450385D01*
X89897072Y-71452863D01*
X89888519Y-71454200D01*
X89878891Y-71454692D01*
X89870212Y-71454316D01*
X89861531Y-71453009D01*
X89853837Y-71450941D01*
X89845632Y-71447674D01*
X89837057Y-71442945D01*
X89830468Y-71438278D01*
X89823811Y-71432526D01*
X89817146Y-71425578D01*
X89814916Y-71423218D01*
X89810011Y-71416867D01*
X89806049Y-71409895D01*
X89803006Y-71402330D01*
X89800860Y-71394198D01*
X89799589Y-71385525D01*
X89799170Y-71376339D01*
X89799170Y-71216115D01*
X89932624Y-71216115D01*
X89946820Y-71206946D01*
X89961400Y-71198345D01*
X89976340Y-71190317D01*
X89991613Y-71182866D01*
X90007194Y-71175996D01*
X90023058Y-71169710D01*
X90039180Y-71164014D01*
X90055533Y-71158911D01*
X90072093Y-71154405D01*
X90088835Y-71150501D01*
X90105732Y-71147202D01*
X90122760Y-71144513D01*
X90139893Y-71142438D01*
X90157106Y-71140981D01*
X90174372Y-71140145D01*
X90191668Y-71139936D01*
X90208967Y-71140357D01*
X90226244Y-71141413D01*
X90243474Y-71143107D01*
X90260631Y-71145443D01*
X90277690Y-71148427D01*
X90294625Y-71152061D01*
X90311411Y-71156350D01*
X90328023Y-71161298D01*
X90344435Y-71166910D01*
X90360622Y-71173188D01*
X90376558Y-71180138D01*
X90392218Y-71187764D01*
X90407577Y-71196069D01*
X90422609Y-71205058D01*
X90437289Y-71214735D01*
X90451591Y-71225104D01*
X90451591Y-71116464D01*
X90450905Y-71101385D01*
X90449486Y-71086810D01*
X90447361Y-71072737D01*
X90444553Y-71059165D01*
X90441089Y-71046093D01*
X90436994Y-71033519D01*
X90432293Y-71021440D01*
X90427011Y-71009855D01*
X90421175Y-70998764D01*
X90414809Y-70988163D01*
X90407939Y-70978051D01*
X90400590Y-70968427D01*
X90392787Y-70959289D01*
X90384557Y-70950635D01*
X90375923Y-70942463D01*
X90366912Y-70934772D01*
X90357549Y-70927560D01*
X90347860Y-70920826D01*
X90337869Y-70914568D01*
X90327602Y-70908784D01*
X90317084Y-70903472D01*
X90306342Y-70898630D01*
X90295399Y-70894258D01*
X90284282Y-70890354D01*
X90273016Y-70886914D01*
X90261626Y-70883939D01*
X90250137Y-70881427D01*
X90238576Y-70879374D01*
X90226967Y-70877781D01*
X90215336Y-70876645D01*
X90203707Y-70875965D01*
X90192108Y-70875739D01*
X90188731Y-70875525D01*
X90180846Y-70875346D01*
X90171340Y-70875694D01*
X90162370Y-70876474D01*
X90151838Y-70877866D01*
X90143957Y-70879208D01*
X90135394Y-70880932D01*
X90126154Y-70883083D01*
X90116240Y-70885706D01*
X90105657Y-70888844D01*
X90094411Y-70892543D01*
X90088725Y-70894477D01*
X90080315Y-70897625D01*
X90072053Y-70901064D01*
X90063948Y-70904788D01*
X90056009Y-70908794D01*
X90048245Y-70913076D01*
X90040664Y-70917629D01*
X90033274Y-70922449D01*
X90026086Y-70927531D01*
X90019106Y-70932869D01*
X90012345Y-70938460D01*
X90003496Y-70946463D01*
X89995063Y-70954937D01*
X89987066Y-70963884D01*
X89979528Y-70973301D01*
X89972469Y-70983191D01*
X89965912Y-70993552D01*
X89959877Y-71004385D01*
X89954386Y-71015690D01*
X89949461Y-71027466D01*
X89945123Y-71039714D01*
X89941393Y-71052434D01*
X89938294Y-71065625D01*
X89935845Y-71079288D01*
X89934070Y-71093423D01*
X89932989Y-71108030D01*
X89932624Y-71123108D01*
X89932624Y-71216115D01*
X89799170Y-71216115D01*
X89799170Y-71109821D01*
X89799422Y-71101208D01*
X89800353Y-71092970D01*
X89801515Y-71085201D01*
X89802600Y-71074335D01*
X89803949Y-71063610D01*
X89805557Y-71053027D01*
X89807418Y-71042587D01*
X89809529Y-71032291D01*
X89811885Y-71022141D01*
X89814480Y-71012137D01*
X89817311Y-71002281D01*
X89820372Y-70992574D01*
X89823660Y-70983016D01*
X89827169Y-70973610D01*
X89830895Y-70964356D01*
X89834832Y-70955256D01*
X89838978Y-70946310D01*
X89843326Y-70937519D01*
X89847872Y-70928886D01*
X89852611Y-70920410D01*
X89857540Y-70912094D01*
X89862653Y-70903938D01*
X89867945Y-70895944D01*
X89873412Y-70888112D01*
X89879049Y-70880443D01*
X89884852Y-70872940D01*
X89890816Y-70865603D01*
X89896936Y-70858432D01*
X89903208Y-70851430D01*
X89909626Y-70844598D01*
X89916187Y-70837936D01*
X89922886Y-70831446D01*
X89929718Y-70825128D01*
X89936678Y-70818985D01*
X89943762Y-70813017D01*
X89951073Y-70807241D01*
X89958459Y-70801674D01*
X89965916Y-70796312D01*
X89973441Y-70791155D01*
X89981029Y-70786202D01*
X89988676Y-70781450D01*
X89996378Y-70776897D01*
X90004132Y-70772543D01*
X90011934Y-70768385D01*
X90019779Y-70764423D01*
X90027663Y-70760654D01*
X90035584Y-70757077D01*
X90043536Y-70753690D01*
X90051516Y-70750491D01*
X90059520Y-70747480D01*
X90067544Y-70744654D01*
X90075584Y-70742011D01*
X90083636Y-70739551D01*
X90091696Y-70737271D01*
X90099760Y-70735170D01*
X90107825Y-70733247D01*
X90115886Y-70731499D01*
X90123939Y-70729926D01*
X90131981Y-70728524D01*
X90140008Y-70727294D01*
X90148015Y-70726233D01*
X90155998Y-70725340D01*
X90163955Y-70724612D01*
X90171880Y-70724049D01*
X90179770Y-70723649D01*
X90195429Y-70723331D01*
X90197896Y-70723362D01*
G37*
G36*
X90559618Y-69926114D02*
G01*
X90568090Y-69928163D01*
X90575569Y-69932009D01*
X90581976Y-69938101D01*
X90585627Y-69945110D01*
X90587000Y-69954064D01*
X90587000Y-70014441D01*
X90586879Y-70025753D01*
X90586510Y-70035221D01*
X90585881Y-70043072D01*
X90584617Y-70051417D01*
X90581756Y-70060477D01*
X90576841Y-70067974D01*
X90571173Y-70073841D01*
X90563673Y-70080236D01*
X90556448Y-70086815D01*
X90549497Y-70093570D01*
X90542817Y-70100495D01*
X90536405Y-70107583D01*
X90530259Y-70114827D01*
X90524377Y-70122220D01*
X90518755Y-70129757D01*
X90513392Y-70137429D01*
X90508285Y-70145231D01*
X90503431Y-70153155D01*
X90498828Y-70161194D01*
X90494474Y-70169343D01*
X90490366Y-70177594D01*
X90486502Y-70185940D01*
X90482879Y-70194374D01*
X90479494Y-70202891D01*
X90476346Y-70211483D01*
X90473432Y-70220143D01*
X90470749Y-70228864D01*
X90468294Y-70237641D01*
X90466067Y-70246465D01*
X90464063Y-70255331D01*
X90462280Y-70264231D01*
X90460716Y-70273159D01*
X90459369Y-70282108D01*
X90458236Y-70291071D01*
X90457315Y-70300042D01*
X90456602Y-70309013D01*
X90456096Y-70317979D01*
X90455795Y-70326931D01*
X90455695Y-70335864D01*
X90455745Y-70337699D01*
X90456118Y-70345673D01*
X90456444Y-70354029D01*
X90456684Y-70362902D01*
X90456817Y-70371276D01*
X90456867Y-70380805D01*
X90457192Y-70385943D01*
X90458075Y-70394102D01*
X90459431Y-70402805D01*
X90461262Y-70412060D01*
X90463567Y-70421872D01*
X90466345Y-70432247D01*
X90469598Y-70443190D01*
X90472030Y-70450804D01*
X90474672Y-70458676D01*
X90477525Y-70466806D01*
X90480589Y-70475196D01*
X90483863Y-70483849D01*
X90487348Y-70492766D01*
X90491080Y-70501702D01*
X90495021Y-70510485D01*
X90499170Y-70519112D01*
X90503523Y-70527580D01*
X90508081Y-70535886D01*
X90512841Y-70544028D01*
X90517800Y-70552004D01*
X90522959Y-70559811D01*
X90528315Y-70567445D01*
X90533865Y-70574906D01*
X90539609Y-70582190D01*
X90545545Y-70589294D01*
X90551671Y-70596216D01*
X90557986Y-70602953D01*
X90564487Y-70609504D01*
X90571173Y-70615864D01*
X90577653Y-70620593D01*
X90582316Y-70627439D01*
X90584617Y-70634986D01*
X90585881Y-70643304D01*
X90586510Y-70651173D01*
X90586879Y-70660655D01*
X90587000Y-70671942D01*
X90587000Y-70730170D01*
X90585983Y-70738779D01*
X90582969Y-70746143D01*
X90578014Y-70752262D01*
X90571173Y-70757134D01*
X90567525Y-70758783D01*
X90559922Y-70760982D01*
X90552024Y-70761628D01*
X90548506Y-70761593D01*
X90540691Y-70760456D01*
X90475033Y-70729900D01*
X90413625Y-70701379D01*
X90356319Y-70674813D01*
X90302968Y-70650126D01*
X90253425Y-70627238D01*
X90207542Y-70606073D01*
X90165171Y-70586551D01*
X90126165Y-70568594D01*
X90090377Y-70552125D01*
X90057658Y-70537066D01*
X90027862Y-70523337D01*
X90000841Y-70510862D01*
X89976447Y-70499562D01*
X89954533Y-70489359D01*
X89934951Y-70480175D01*
X89917554Y-70471932D01*
X89902195Y-70464551D01*
X89888725Y-70457955D01*
X89876998Y-70452066D01*
X89866865Y-70446804D01*
X89858180Y-70442093D01*
X89850794Y-70437854D01*
X89839332Y-70430481D01*
X89831300Y-70424059D01*
X89825516Y-70417963D01*
X89820800Y-70411569D01*
X89815974Y-70404252D01*
X89814361Y-70401646D01*
X89810147Y-70393994D01*
X89806791Y-70386631D01*
X89803485Y-70377343D01*
X89801301Y-70368759D01*
X89799798Y-70359189D01*
X89799236Y-70351108D01*
X89799179Y-70343875D01*
X89959393Y-70343875D01*
X89977763Y-70352521D01*
X89995477Y-70360839D01*
X90012547Y-70368837D01*
X90028986Y-70376522D01*
X90044808Y-70383902D01*
X90060026Y-70390983D01*
X90074653Y-70397773D01*
X90088701Y-70404280D01*
X90102185Y-70410509D01*
X90115116Y-70416469D01*
X90127509Y-70422167D01*
X90139376Y-70427609D01*
X90150731Y-70432803D01*
X90161586Y-70437757D01*
X90171954Y-70442477D01*
X90181849Y-70446970D01*
X90191284Y-70451245D01*
X90200272Y-70455307D01*
X90208826Y-70459164D01*
X90216959Y-70462824D01*
X90224683Y-70466293D01*
X90232014Y-70469579D01*
X90245542Y-70475629D01*
X90257648Y-70481033D01*
X90268437Y-70485847D01*
X90278014Y-70490130D01*
X90286483Y-70493938D01*
X90290367Y-70495664D01*
X90300806Y-70500275D01*
X90309695Y-70504161D01*
X90317377Y-70507482D01*
X90326336Y-70511304D01*
X90334577Y-70514782D01*
X90342914Y-70518293D01*
X90352162Y-70522215D01*
X90360186Y-70525654D01*
X90369526Y-70529695D01*
X90367635Y-70524429D01*
X90364858Y-70516427D01*
X90362162Y-70508303D01*
X90359558Y-70500058D01*
X90357060Y-70491692D01*
X90354677Y-70483208D01*
X90352421Y-70474605D01*
X90350305Y-70465885D01*
X90348339Y-70457049D01*
X90346536Y-70448098D01*
X90344906Y-70439032D01*
X90344384Y-70436103D01*
X90342935Y-70427558D01*
X90341654Y-70419380D01*
X90340537Y-70411573D01*
X90339294Y-70401752D01*
X90338323Y-70392612D01*
X90337612Y-70384164D01*
X90337070Y-70374596D01*
X90336895Y-70366150D01*
X90336871Y-70361305D01*
X90336706Y-70352875D01*
X90336361Y-70344225D01*
X90335918Y-70335864D01*
X90336034Y-70324724D01*
X90336381Y-70313515D01*
X90336956Y-70302250D01*
X90337756Y-70290942D01*
X90338778Y-70279604D01*
X90340019Y-70268249D01*
X90341476Y-70256891D01*
X90343147Y-70245543D01*
X90345029Y-70234218D01*
X90347119Y-70222929D01*
X90349413Y-70211689D01*
X90351910Y-70200511D01*
X90354605Y-70189409D01*
X90357497Y-70178396D01*
X90360583Y-70167484D01*
X90363859Y-70156688D01*
X90338067Y-70168021D01*
X90332591Y-70171041D01*
X90324306Y-70175470D01*
X90314345Y-70180523D01*
X90305889Y-70184651D01*
X90295361Y-70189676D01*
X90282230Y-70195847D01*
X90274523Y-70199439D01*
X90265967Y-70203411D01*
X90256494Y-70207794D01*
X90246040Y-70212618D01*
X90234536Y-70217914D01*
X90221918Y-70223714D01*
X90208119Y-70230048D01*
X90193072Y-70236948D01*
X90176711Y-70244444D01*
X90158970Y-70252568D01*
X90139782Y-70261351D01*
X90119082Y-70270823D01*
X90096802Y-70281016D01*
X90072877Y-70291960D01*
X90047239Y-70303688D01*
X90019824Y-70316229D01*
X89990564Y-70329614D01*
X89959393Y-70343875D01*
X89799179Y-70343875D01*
X89799170Y-70342703D01*
X89799217Y-70339508D01*
X89799952Y-70329444D01*
X89801661Y-70318813D01*
X89804445Y-70307809D01*
X89806949Y-70300361D01*
X89810009Y-70292889D01*
X89813653Y-70285453D01*
X89817914Y-70278107D01*
X89822821Y-70270911D01*
X89828406Y-70263921D01*
X89834698Y-70257194D01*
X89841729Y-70250787D01*
X89849528Y-70244759D01*
X89858128Y-70239165D01*
X89867558Y-70234064D01*
X89875940Y-70230654D01*
X89885263Y-70226558D01*
X89897692Y-70221017D01*
X89912987Y-70214141D01*
X89930911Y-70206042D01*
X89951227Y-70196831D01*
X89973697Y-70186620D01*
X89998082Y-70175518D01*
X90024144Y-70163639D01*
X90051647Y-70151092D01*
X90080352Y-70137989D01*
X90110022Y-70124442D01*
X90140418Y-70110561D01*
X90171303Y-70096457D01*
X90202439Y-70082242D01*
X90233588Y-70068028D01*
X90264513Y-70053924D01*
X90294975Y-70040043D01*
X90324736Y-70026496D01*
X90353560Y-70013393D01*
X90381208Y-70000846D01*
X90407442Y-69988966D01*
X90432024Y-69977865D01*
X90454717Y-69967654D01*
X90475283Y-69958443D01*
X90493484Y-69950344D01*
X90509083Y-69943468D01*
X90521840Y-69937927D01*
X90531519Y-69933831D01*
X90540691Y-69930421D01*
X90541222Y-69930116D01*
X90548539Y-69927066D01*
X90556518Y-69925927D01*
X90559618Y-69926114D01*
G37*
X105863333Y-65462166D02*
X105830000Y-65495500D01*
X105830000Y-65495500D02*
X105730000Y-65528833D01*
X105730000Y-65528833D02*
X105663333Y-65528833D01*
X105663333Y-65528833D02*
X105563333Y-65495500D01*
X105563333Y-65495500D02*
X105496667Y-65428833D01*
X105496667Y-65428833D02*
X105463333Y-65362166D01*
X105463333Y-65362166D02*
X105430000Y-65228833D01*
X105430000Y-65228833D02*
X105430000Y-65128833D01*
X105430000Y-65128833D02*
X105463333Y-64995500D01*
X105463333Y-64995500D02*
X105496667Y-64928833D01*
X105496667Y-64928833D02*
X105563333Y-64862166D01*
X105563333Y-64862166D02*
X105663333Y-64828833D01*
X105663333Y-64828833D02*
X105730000Y-64828833D01*
X105730000Y-64828833D02*
X105830000Y-64862166D01*
X105830000Y-64862166D02*
X105863333Y-64895500D01*
X106096667Y-64828833D02*
X106530000Y-64828833D01*
X106530000Y-64828833D02*
X106296667Y-65095500D01*
X106296667Y-65095500D02*
X106396667Y-65095500D01*
X106396667Y-65095500D02*
X106463333Y-65128833D01*
X106463333Y-65128833D02*
X106496667Y-65162166D01*
X106496667Y-65162166D02*
X106530000Y-65228833D01*
X106530000Y-65228833D02*
X106530000Y-65395500D01*
X106530000Y-65395500D02*
X106496667Y-65462166D01*
X106496667Y-65462166D02*
X106463333Y-65495500D01*
X106463333Y-65495500D02*
X106396667Y-65528833D01*
X106396667Y-65528833D02*
X106196667Y-65528833D01*
X106196667Y-65528833D02*
X106130000Y-65495500D01*
X106130000Y-65495500D02*
X106096667Y-65462166D01*
X99763333Y-64087166D02*
X99730000Y-64120500D01*
X99730000Y-64120500D02*
X99630000Y-64153833D01*
X99630000Y-64153833D02*
X99563333Y-64153833D01*
X99563333Y-64153833D02*
X99463333Y-64120500D01*
X99463333Y-64120500D02*
X99396667Y-64053833D01*
X99396667Y-64053833D02*
X99363333Y-63987166D01*
X99363333Y-63987166D02*
X99330000Y-63853833D01*
X99330000Y-63853833D02*
X99330000Y-63753833D01*
X99330000Y-63753833D02*
X99363333Y-63620500D01*
X99363333Y-63620500D02*
X99396667Y-63553833D01*
X99396667Y-63553833D02*
X99463333Y-63487166D01*
X99463333Y-63487166D02*
X99563333Y-63453833D01*
X99563333Y-63453833D02*
X99630000Y-63453833D01*
X99630000Y-63453833D02*
X99730000Y-63487166D01*
X99730000Y-63487166D02*
X99763333Y-63520500D01*
X100030000Y-63520500D02*
X100063333Y-63487166D01*
X100063333Y-63487166D02*
X100130000Y-63453833D01*
X100130000Y-63453833D02*
X100296667Y-63453833D01*
X100296667Y-63453833D02*
X100363333Y-63487166D01*
X100363333Y-63487166D02*
X100396667Y-63520500D01*
X100396667Y-63520500D02*
X100430000Y-63587166D01*
X100430000Y-63587166D02*
X100430000Y-63653833D01*
X100430000Y-63653833D02*
X100396667Y-63753833D01*
X100396667Y-63753833D02*
X99996667Y-64153833D01*
X99996667Y-64153833D02*
X100430000Y-64153833D01*
X108613333Y-64062166D02*
X108580000Y-64095500D01*
X108580000Y-64095500D02*
X108480000Y-64128833D01*
X108480000Y-64128833D02*
X108413333Y-64128833D01*
X108413333Y-64128833D02*
X108313333Y-64095500D01*
X108313333Y-64095500D02*
X108246667Y-64028833D01*
X108246667Y-64028833D02*
X108213333Y-63962166D01*
X108213333Y-63962166D02*
X108180000Y-63828833D01*
X108180000Y-63828833D02*
X108180000Y-63728833D01*
X108180000Y-63728833D02*
X108213333Y-63595500D01*
X108213333Y-63595500D02*
X108246667Y-63528833D01*
X108246667Y-63528833D02*
X108313333Y-63462166D01*
X108313333Y-63462166D02*
X108413333Y-63428833D01*
X108413333Y-63428833D02*
X108480000Y-63428833D01*
X108480000Y-63428833D02*
X108580000Y-63462166D01*
X108580000Y-63462166D02*
X108613333Y-63495500D01*
X109280000Y-64128833D02*
X108880000Y-64128833D01*
X109080000Y-64128833D02*
X109080000Y-63428833D01*
X109080000Y-63428833D02*
X109013333Y-63528833D01*
X109013333Y-63528833D02*
X108946667Y-63595500D01*
X108946667Y-63595500D02*
X108880000Y-63628833D01*
X113671666Y-52178833D02*
X113671666Y-52678833D01*
X113671666Y-52678833D02*
X113638333Y-52778833D01*
X113638333Y-52778833D02*
X113571666Y-52845500D01*
X113571666Y-52845500D02*
X113471666Y-52878833D01*
X113471666Y-52878833D02*
X113405000Y-52878833D01*
X114304999Y-52178833D02*
X114171666Y-52178833D01*
X114171666Y-52178833D02*
X114104999Y-52212166D01*
X114104999Y-52212166D02*
X114071666Y-52245500D01*
X114071666Y-52245500D02*
X114004999Y-52345500D01*
X114004999Y-52345500D02*
X113971666Y-52478833D01*
X113971666Y-52478833D02*
X113971666Y-52745500D01*
X113971666Y-52745500D02*
X114004999Y-52812166D01*
X114004999Y-52812166D02*
X114038333Y-52845500D01*
X114038333Y-52845500D02*
X114104999Y-52878833D01*
X114104999Y-52878833D02*
X114238333Y-52878833D01*
X114238333Y-52878833D02*
X114304999Y-52845500D01*
X114304999Y-52845500D02*
X114338333Y-52812166D01*
X114338333Y-52812166D02*
X114371666Y-52745500D01*
X114371666Y-52745500D02*
X114371666Y-52578833D01*
X114371666Y-52578833D02*
X114338333Y-52512166D01*
X114338333Y-52512166D02*
X114304999Y-52478833D01*
X114304999Y-52478833D02*
X114238333Y-52445500D01*
X114238333Y-52445500D02*
X114104999Y-52445500D01*
X114104999Y-52445500D02*
X114038333Y-52478833D01*
X114038333Y-52478833D02*
X114004999Y-52512166D01*
X114004999Y-52512166D02*
X113971666Y-52578833D01*
X92046666Y-82253833D02*
X92046666Y-82753833D01*
X92046666Y-82753833D02*
X92013333Y-82853833D01*
X92013333Y-82853833D02*
X91946666Y-82920500D01*
X91946666Y-82920500D02*
X91846666Y-82953833D01*
X91846666Y-82953833D02*
X91780000Y-82953833D01*
X92713333Y-82253833D02*
X92379999Y-82253833D01*
X92379999Y-82253833D02*
X92346666Y-82587166D01*
X92346666Y-82587166D02*
X92379999Y-82553833D01*
X92379999Y-82553833D02*
X92446666Y-82520500D01*
X92446666Y-82520500D02*
X92613333Y-82520500D01*
X92613333Y-82520500D02*
X92679999Y-82553833D01*
X92679999Y-82553833D02*
X92713333Y-82587166D01*
X92713333Y-82587166D02*
X92746666Y-82653833D01*
X92746666Y-82653833D02*
X92746666Y-82820500D01*
X92746666Y-82820500D02*
X92713333Y-82887166D01*
X92713333Y-82887166D02*
X92679999Y-82920500D01*
X92679999Y-82920500D02*
X92613333Y-82953833D01*
X92613333Y-82953833D02*
X92446666Y-82953833D01*
X92446666Y-82953833D02*
X92379999Y-82920500D01*
X92379999Y-82920500D02*
X92346666Y-82887166D01*
X100046666Y-82278833D02*
X100046666Y-82778833D01*
X100046666Y-82778833D02*
X100013333Y-82878833D01*
X100013333Y-82878833D02*
X99946666Y-82945500D01*
X99946666Y-82945500D02*
X99846666Y-82978833D01*
X99846666Y-82978833D02*
X99780000Y-82978833D01*
X100679999Y-82512166D02*
X100679999Y-82978833D01*
X100513333Y-82245500D02*
X100346666Y-82745500D01*
X100346666Y-82745500D02*
X100779999Y-82745500D01*
X108021666Y-82303833D02*
X108021666Y-82803833D01*
X108021666Y-82803833D02*
X107988333Y-82903833D01*
X107988333Y-82903833D02*
X107921666Y-82970500D01*
X107921666Y-82970500D02*
X107821666Y-83003833D01*
X107821666Y-83003833D02*
X107755000Y-83003833D01*
X108288333Y-82303833D02*
X108721666Y-82303833D01*
X108721666Y-82303833D02*
X108488333Y-82570500D01*
X108488333Y-82570500D02*
X108588333Y-82570500D01*
X108588333Y-82570500D02*
X108654999Y-82603833D01*
X108654999Y-82603833D02*
X108688333Y-82637166D01*
X108688333Y-82637166D02*
X108721666Y-82703833D01*
X108721666Y-82703833D02*
X108721666Y-82870500D01*
X108721666Y-82870500D02*
X108688333Y-82937166D01*
X108688333Y-82937166D02*
X108654999Y-82970500D01*
X108654999Y-82970500D02*
X108588333Y-83003833D01*
X108588333Y-83003833D02*
X108388333Y-83003833D01*
X108388333Y-83003833D02*
X108321666Y-82970500D01*
X108321666Y-82970500D02*
X108288333Y-82937166D01*
X116021666Y-82253833D02*
X116021666Y-82753833D01*
X116021666Y-82753833D02*
X115988333Y-82853833D01*
X115988333Y-82853833D02*
X115921666Y-82920500D01*
X115921666Y-82920500D02*
X115821666Y-82953833D01*
X115821666Y-82953833D02*
X115755000Y-82953833D01*
X116321666Y-82320500D02*
X116354999Y-82287166D01*
X116354999Y-82287166D02*
X116421666Y-82253833D01*
X116421666Y-82253833D02*
X116588333Y-82253833D01*
X116588333Y-82253833D02*
X116654999Y-82287166D01*
X116654999Y-82287166D02*
X116688333Y-82320500D01*
X116688333Y-82320500D02*
X116721666Y-82387166D01*
X116721666Y-82387166D02*
X116721666Y-82453833D01*
X116721666Y-82453833D02*
X116688333Y-82553833D01*
X116688333Y-82553833D02*
X116288333Y-82953833D01*
X116288333Y-82953833D02*
X116721666Y-82953833D01*
X98771666Y-61878833D02*
X98771666Y-62445500D01*
X98771666Y-62445500D02*
X98805000Y-62512166D01*
X98805000Y-62512166D02*
X98838333Y-62545500D01*
X98838333Y-62545500D02*
X98905000Y-62578833D01*
X98905000Y-62578833D02*
X99038333Y-62578833D01*
X99038333Y-62578833D02*
X99105000Y-62545500D01*
X99105000Y-62545500D02*
X99138333Y-62512166D01*
X99138333Y-62512166D02*
X99171666Y-62445500D01*
X99171666Y-62445500D02*
X99171666Y-61878833D01*
X99471666Y-61945500D02*
X99504999Y-61912166D01*
X99504999Y-61912166D02*
X99571666Y-61878833D01*
X99571666Y-61878833D02*
X99738333Y-61878833D01*
X99738333Y-61878833D02*
X99804999Y-61912166D01*
X99804999Y-61912166D02*
X99838333Y-61945500D01*
X99838333Y-61945500D02*
X99871666Y-62012166D01*
X99871666Y-62012166D02*
X99871666Y-62078833D01*
X99871666Y-62078833D02*
X99838333Y-62178833D01*
X99838333Y-62178833D02*
X99438333Y-62578833D01*
X99438333Y-62578833D02*
X99871666Y-62578833D01*
X108246666Y-61528833D02*
X108246666Y-62095500D01*
X108246666Y-62095500D02*
X108280000Y-62162166D01*
X108280000Y-62162166D02*
X108313333Y-62195500D01*
X108313333Y-62195500D02*
X108380000Y-62228833D01*
X108380000Y-62228833D02*
X108513333Y-62228833D01*
X108513333Y-62228833D02*
X108580000Y-62195500D01*
X108580000Y-62195500D02*
X108613333Y-62162166D01*
X108613333Y-62162166D02*
X108646666Y-62095500D01*
X108646666Y-62095500D02*
X108646666Y-61528833D01*
X109346666Y-62228833D02*
X108946666Y-62228833D01*
X109146666Y-62228833D02*
X109146666Y-61528833D01*
X109146666Y-61528833D02*
X109079999Y-61628833D01*
X109079999Y-61628833D02*
X109013333Y-61695500D01*
X109013333Y-61695500D02*
X108946666Y-61728833D01*
X99478833Y-68038333D02*
X100045500Y-68038333D01*
X100045500Y-68038333D02*
X100112166Y-68005000D01*
X100112166Y-68005000D02*
X100145500Y-67971666D01*
X100145500Y-67971666D02*
X100178833Y-67905000D01*
X100178833Y-67905000D02*
X100178833Y-67771666D01*
X100178833Y-67771666D02*
X100145500Y-67705000D01*
X100145500Y-67705000D02*
X100112166Y-67671666D01*
X100112166Y-67671666D02*
X100045500Y-67638333D01*
X100045500Y-67638333D02*
X99478833Y-67638333D01*
X99478833Y-67371667D02*
X99478833Y-66938333D01*
X99478833Y-66938333D02*
X99745500Y-67171667D01*
X99745500Y-67171667D02*
X99745500Y-67071667D01*
X99745500Y-67071667D02*
X99778833Y-67005000D01*
X99778833Y-67005000D02*
X99812166Y-66971667D01*
X99812166Y-66971667D02*
X99878833Y-66938333D01*
X99878833Y-66938333D02*
X100045500Y-66938333D01*
X100045500Y-66938333D02*
X100112166Y-66971667D01*
X100112166Y-66971667D02*
X100145500Y-67005000D01*
X100145500Y-67005000D02*
X100178833Y-67071667D01*
X100178833Y-67071667D02*
X100178833Y-67271667D01*
X100178833Y-67271667D02*
X100145500Y-67338333D01*
X100145500Y-67338333D02*
X100112166Y-67371667D01*
X90578833Y-64330000D02*
X90245500Y-64563333D01*
X90578833Y-64730000D02*
X89878833Y-64730000D01*
X89878833Y-64730000D02*
X89878833Y-64463333D01*
X89878833Y-64463333D02*
X89912166Y-64396667D01*
X89912166Y-64396667D02*
X89945500Y-64363333D01*
X89945500Y-64363333D02*
X90012166Y-64330000D01*
X90012166Y-64330000D02*
X90112166Y-64330000D01*
X90112166Y-64330000D02*
X90178833Y-64363333D01*
X90178833Y-64363333D02*
X90212166Y-64396667D01*
X90212166Y-64396667D02*
X90245500Y-64463333D01*
X90245500Y-64463333D02*
X90245500Y-64730000D01*
X90578833Y-63663333D02*
X90578833Y-64063333D01*
X90578833Y-63863333D02*
X89878833Y-63863333D01*
X89878833Y-63863333D02*
X89978833Y-63930000D01*
X89978833Y-63930000D02*
X90045500Y-63996667D01*
X90045500Y-63996667D02*
X90078833Y-64063333D01*
X89878833Y-63230000D02*
X89878833Y-63163333D01*
X89878833Y-63163333D02*
X89912166Y-63096666D01*
X89912166Y-63096666D02*
X89945500Y-63063333D01*
X89945500Y-63063333D02*
X90012166Y-63030000D01*
X90012166Y-63030000D02*
X90145500Y-62996666D01*
X90145500Y-62996666D02*
X90312166Y-62996666D01*
X90312166Y-62996666D02*
X90445500Y-63030000D01*
X90445500Y-63030000D02*
X90512166Y-63063333D01*
X90512166Y-63063333D02*
X90545500Y-63096666D01*
X90545500Y-63096666D02*
X90578833Y-63163333D01*
X90578833Y-63163333D02*
X90578833Y-63230000D01*
X90578833Y-63230000D02*
X90545500Y-63296666D01*
X90545500Y-63296666D02*
X90512166Y-63330000D01*
X90512166Y-63330000D02*
X90445500Y-63363333D01*
X90445500Y-63363333D02*
X90312166Y-63396666D01*
X90312166Y-63396666D02*
X90145500Y-63396666D01*
X90145500Y-63396666D02*
X90012166Y-63363333D01*
X90012166Y-63363333D02*
X89945500Y-63330000D01*
X89945500Y-63330000D02*
X89912166Y-63296666D01*
X89912166Y-63296666D02*
X89878833Y-63230000D01*
X94478833Y-63996666D02*
X94145500Y-64229999D01*
X94478833Y-64396666D02*
X93778833Y-64396666D01*
X93778833Y-64396666D02*
X93778833Y-64129999D01*
X93778833Y-64129999D02*
X93812166Y-64063333D01*
X93812166Y-64063333D02*
X93845500Y-64029999D01*
X93845500Y-64029999D02*
X93912166Y-63996666D01*
X93912166Y-63996666D02*
X94012166Y-63996666D01*
X94012166Y-63996666D02*
X94078833Y-64029999D01*
X94078833Y-64029999D02*
X94112166Y-64063333D01*
X94112166Y-64063333D02*
X94145500Y-64129999D01*
X94145500Y-64129999D02*
X94145500Y-64396666D01*
X94478833Y-63663333D02*
X94478833Y-63529999D01*
X94478833Y-63529999D02*
X94445500Y-63463333D01*
X94445500Y-63463333D02*
X94412166Y-63429999D01*
X94412166Y-63429999D02*
X94312166Y-63363333D01*
X94312166Y-63363333D02*
X94178833Y-63329999D01*
X94178833Y-63329999D02*
X93912166Y-63329999D01*
X93912166Y-63329999D02*
X93845500Y-63363333D01*
X93845500Y-63363333D02*
X93812166Y-63396666D01*
X93812166Y-63396666D02*
X93778833Y-63463333D01*
X93778833Y-63463333D02*
X93778833Y-63596666D01*
X93778833Y-63596666D02*
X93812166Y-63663333D01*
X93812166Y-63663333D02*
X93845500Y-63696666D01*
X93845500Y-63696666D02*
X93912166Y-63729999D01*
X93912166Y-63729999D02*
X94078833Y-63729999D01*
X94078833Y-63729999D02*
X94145500Y-63696666D01*
X94145500Y-63696666D02*
X94178833Y-63663333D01*
X94178833Y-63663333D02*
X94212166Y-63596666D01*
X94212166Y-63596666D02*
X94212166Y-63463333D01*
X94212166Y-63463333D02*
X94178833Y-63396666D01*
X94178833Y-63396666D02*
X94145500Y-63363333D01*
X94145500Y-63363333D02*
X94078833Y-63329999D01*
X99578833Y-59830000D02*
X99245500Y-60063333D01*
X99578833Y-60230000D02*
X98878833Y-60230000D01*
X98878833Y-60230000D02*
X98878833Y-59963333D01*
X98878833Y-59963333D02*
X98912166Y-59896667D01*
X98912166Y-59896667D02*
X98945500Y-59863333D01*
X98945500Y-59863333D02*
X99012166Y-59830000D01*
X99012166Y-59830000D02*
X99112166Y-59830000D01*
X99112166Y-59830000D02*
X99178833Y-59863333D01*
X99178833Y-59863333D02*
X99212166Y-59896667D01*
X99212166Y-59896667D02*
X99245500Y-59963333D01*
X99245500Y-59963333D02*
X99245500Y-60230000D01*
X99178833Y-59430000D02*
X99145500Y-59496667D01*
X99145500Y-59496667D02*
X99112166Y-59530000D01*
X99112166Y-59530000D02*
X99045500Y-59563333D01*
X99045500Y-59563333D02*
X99012166Y-59563333D01*
X99012166Y-59563333D02*
X98945500Y-59530000D01*
X98945500Y-59530000D02*
X98912166Y-59496667D01*
X98912166Y-59496667D02*
X98878833Y-59430000D01*
X98878833Y-59430000D02*
X98878833Y-59296667D01*
X98878833Y-59296667D02*
X98912166Y-59230000D01*
X98912166Y-59230000D02*
X98945500Y-59196667D01*
X98945500Y-59196667D02*
X99012166Y-59163333D01*
X99012166Y-59163333D02*
X99045500Y-59163333D01*
X99045500Y-59163333D02*
X99112166Y-59196667D01*
X99112166Y-59196667D02*
X99145500Y-59230000D01*
X99145500Y-59230000D02*
X99178833Y-59296667D01*
X99178833Y-59296667D02*
X99178833Y-59430000D01*
X99178833Y-59430000D02*
X99212166Y-59496667D01*
X99212166Y-59496667D02*
X99245500Y-59530000D01*
X99245500Y-59530000D02*
X99312166Y-59563333D01*
X99312166Y-59563333D02*
X99445500Y-59563333D01*
X99445500Y-59563333D02*
X99512166Y-59530000D01*
X99512166Y-59530000D02*
X99545500Y-59496667D01*
X99545500Y-59496667D02*
X99578833Y-59430000D01*
X99578833Y-59430000D02*
X99578833Y-59296667D01*
X99578833Y-59296667D02*
X99545500Y-59230000D01*
X99545500Y-59230000D02*
X99512166Y-59196667D01*
X99512166Y-59196667D02*
X99445500Y-59163333D01*
X99445500Y-59163333D02*
X99312166Y-59163333D01*
X99312166Y-59163333D02*
X99245500Y-59196667D01*
X99245500Y-59196667D02*
X99212166Y-59230000D01*
X99212166Y-59230000D02*
X99178833Y-59296667D01*
X98028833Y-55413333D02*
X97695500Y-55646666D01*
X98028833Y-55813333D02*
X97328833Y-55813333D01*
X97328833Y-55813333D02*
X97328833Y-55546666D01*
X97328833Y-55546666D02*
X97362166Y-55480000D01*
X97362166Y-55480000D02*
X97395500Y-55446666D01*
X97395500Y-55446666D02*
X97462166Y-55413333D01*
X97462166Y-55413333D02*
X97562166Y-55413333D01*
X97562166Y-55413333D02*
X97628833Y-55446666D01*
X97628833Y-55446666D02*
X97662166Y-55480000D01*
X97662166Y-55480000D02*
X97695500Y-55546666D01*
X97695500Y-55546666D02*
X97695500Y-55813333D01*
X97328833Y-55180000D02*
X97328833Y-54713333D01*
X97328833Y-54713333D02*
X98028833Y-55013333D01*
X94878833Y-55413333D02*
X94545500Y-55646666D01*
X94878833Y-55813333D02*
X94178833Y-55813333D01*
X94178833Y-55813333D02*
X94178833Y-55546666D01*
X94178833Y-55546666D02*
X94212166Y-55480000D01*
X94212166Y-55480000D02*
X94245500Y-55446666D01*
X94245500Y-55446666D02*
X94312166Y-55413333D01*
X94312166Y-55413333D02*
X94412166Y-55413333D01*
X94412166Y-55413333D02*
X94478833Y-55446666D01*
X94478833Y-55446666D02*
X94512166Y-55480000D01*
X94512166Y-55480000D02*
X94545500Y-55546666D01*
X94545500Y-55546666D02*
X94545500Y-55813333D01*
X94178833Y-54813333D02*
X94178833Y-54946666D01*
X94178833Y-54946666D02*
X94212166Y-55013333D01*
X94212166Y-55013333D02*
X94245500Y-55046666D01*
X94245500Y-55046666D02*
X94345500Y-55113333D01*
X94345500Y-55113333D02*
X94478833Y-55146666D01*
X94478833Y-55146666D02*
X94745500Y-55146666D01*
X94745500Y-55146666D02*
X94812166Y-55113333D01*
X94812166Y-55113333D02*
X94845500Y-55080000D01*
X94845500Y-55080000D02*
X94878833Y-55013333D01*
X94878833Y-55013333D02*
X94878833Y-54880000D01*
X94878833Y-54880000D02*
X94845500Y-54813333D01*
X94845500Y-54813333D02*
X94812166Y-54780000D01*
X94812166Y-54780000D02*
X94745500Y-54746666D01*
X94745500Y-54746666D02*
X94578833Y-54746666D01*
X94578833Y-54746666D02*
X94512166Y-54780000D01*
X94512166Y-54780000D02*
X94478833Y-54813333D01*
X94478833Y-54813333D02*
X94445500Y-54880000D01*
X94445500Y-54880000D02*
X94445500Y-55013333D01*
X94445500Y-55013333D02*
X94478833Y-55080000D01*
X94478833Y-55080000D02*
X94512166Y-55113333D01*
X94512166Y-55113333D02*
X94578833Y-55146666D01*
X96453833Y-55413333D02*
X96120500Y-55646666D01*
X96453833Y-55813333D02*
X95753833Y-55813333D01*
X95753833Y-55813333D02*
X95753833Y-55546666D01*
X95753833Y-55546666D02*
X95787166Y-55480000D01*
X95787166Y-55480000D02*
X95820500Y-55446666D01*
X95820500Y-55446666D02*
X95887166Y-55413333D01*
X95887166Y-55413333D02*
X95987166Y-55413333D01*
X95987166Y-55413333D02*
X96053833Y-55446666D01*
X96053833Y-55446666D02*
X96087166Y-55480000D01*
X96087166Y-55480000D02*
X96120500Y-55546666D01*
X96120500Y-55546666D02*
X96120500Y-55813333D01*
X95753833Y-54780000D02*
X95753833Y-55113333D01*
X95753833Y-55113333D02*
X96087166Y-55146666D01*
X96087166Y-55146666D02*
X96053833Y-55113333D01*
X96053833Y-55113333D02*
X96020500Y-55046666D01*
X96020500Y-55046666D02*
X96020500Y-54880000D01*
X96020500Y-54880000D02*
X96053833Y-54813333D01*
X96053833Y-54813333D02*
X96087166Y-54780000D01*
X96087166Y-54780000D02*
X96153833Y-54746666D01*
X96153833Y-54746666D02*
X96320500Y-54746666D01*
X96320500Y-54746666D02*
X96387166Y-54780000D01*
X96387166Y-54780000D02*
X96420500Y-54813333D01*
X96420500Y-54813333D02*
X96453833Y-54880000D01*
X96453833Y-54880000D02*
X96453833Y-55046666D01*
X96453833Y-55046666D02*
X96420500Y-55113333D01*
X96420500Y-55113333D02*
X96387166Y-55146666D01*
X99678833Y-65213333D02*
X99345500Y-65446666D01*
X99678833Y-65613333D02*
X98978833Y-65613333D01*
X98978833Y-65613333D02*
X98978833Y-65346666D01*
X98978833Y-65346666D02*
X99012166Y-65280000D01*
X99012166Y-65280000D02*
X99045500Y-65246666D01*
X99045500Y-65246666D02*
X99112166Y-65213333D01*
X99112166Y-65213333D02*
X99212166Y-65213333D01*
X99212166Y-65213333D02*
X99278833Y-65246666D01*
X99278833Y-65246666D02*
X99312166Y-65280000D01*
X99312166Y-65280000D02*
X99345500Y-65346666D01*
X99345500Y-65346666D02*
X99345500Y-65613333D01*
X99212166Y-64613333D02*
X99678833Y-64613333D01*
X98945500Y-64780000D02*
X99445500Y-64946666D01*
X99445500Y-64946666D02*
X99445500Y-64513333D01*
X101228833Y-65238333D02*
X100895500Y-65471666D01*
X101228833Y-65638333D02*
X100528833Y-65638333D01*
X100528833Y-65638333D02*
X100528833Y-65371666D01*
X100528833Y-65371666D02*
X100562166Y-65305000D01*
X100562166Y-65305000D02*
X100595500Y-65271666D01*
X100595500Y-65271666D02*
X100662166Y-65238333D01*
X100662166Y-65238333D02*
X100762166Y-65238333D01*
X100762166Y-65238333D02*
X100828833Y-65271666D01*
X100828833Y-65271666D02*
X100862166Y-65305000D01*
X100862166Y-65305000D02*
X100895500Y-65371666D01*
X100895500Y-65371666D02*
X100895500Y-65638333D01*
X100528833Y-65005000D02*
X100528833Y-64571666D01*
X100528833Y-64571666D02*
X100795500Y-64805000D01*
X100795500Y-64805000D02*
X100795500Y-64705000D01*
X100795500Y-64705000D02*
X100828833Y-64638333D01*
X100828833Y-64638333D02*
X100862166Y-64605000D01*
X100862166Y-64605000D02*
X100928833Y-64571666D01*
X100928833Y-64571666D02*
X101095500Y-64571666D01*
X101095500Y-64571666D02*
X101162166Y-64605000D01*
X101162166Y-64605000D02*
X101195500Y-64638333D01*
X101195500Y-64638333D02*
X101228833Y-64705000D01*
X101228833Y-64705000D02*
X101228833Y-64905000D01*
X101228833Y-64905000D02*
X101195500Y-64971666D01*
X101195500Y-64971666D02*
X101162166Y-65005000D01*
X100888333Y-57928833D02*
X100655000Y-57595500D01*
X100488333Y-57928833D02*
X100488333Y-57228833D01*
X100488333Y-57228833D02*
X100755000Y-57228833D01*
X100755000Y-57228833D02*
X100821667Y-57262166D01*
X100821667Y-57262166D02*
X100855000Y-57295500D01*
X100855000Y-57295500D02*
X100888333Y-57362166D01*
X100888333Y-57362166D02*
X100888333Y-57462166D01*
X100888333Y-57462166D02*
X100855000Y-57528833D01*
X100855000Y-57528833D02*
X100821667Y-57562166D01*
X100821667Y-57562166D02*
X100755000Y-57595500D01*
X100755000Y-57595500D02*
X100488333Y-57595500D01*
X101555000Y-57928833D02*
X101155000Y-57928833D01*
X101355000Y-57928833D02*
X101355000Y-57228833D01*
X101355000Y-57228833D02*
X101288333Y-57328833D01*
X101288333Y-57328833D02*
X101221667Y-57395500D01*
X101221667Y-57395500D02*
X101155000Y-57428833D01*
X107653833Y-70821666D02*
X107320500Y-71054999D01*
X107653833Y-71221666D02*
X106953833Y-71221666D01*
X106953833Y-71221666D02*
X106953833Y-70954999D01*
X106953833Y-70954999D02*
X106987166Y-70888333D01*
X106987166Y-70888333D02*
X107020500Y-70854999D01*
X107020500Y-70854999D02*
X107087166Y-70821666D01*
X107087166Y-70821666D02*
X107187166Y-70821666D01*
X107187166Y-70821666D02*
X107253833Y-70854999D01*
X107253833Y-70854999D02*
X107287166Y-70888333D01*
X107287166Y-70888333D02*
X107320500Y-70954999D01*
X107320500Y-70954999D02*
X107320500Y-71221666D01*
X107020500Y-70554999D02*
X106987166Y-70521666D01*
X106987166Y-70521666D02*
X106953833Y-70454999D01*
X106953833Y-70454999D02*
X106953833Y-70288333D01*
X106953833Y-70288333D02*
X106987166Y-70221666D01*
X106987166Y-70221666D02*
X107020500Y-70188333D01*
X107020500Y-70188333D02*
X107087166Y-70154999D01*
X107087166Y-70154999D02*
X107153833Y-70154999D01*
X107153833Y-70154999D02*
X107253833Y-70188333D01*
X107253833Y-70188333D02*
X107653833Y-70588333D01*
X107653833Y-70588333D02*
X107653833Y-70154999D01*
G36*
X91878876Y-57742667D02*
G01*
X91184345Y-57742667D01*
X91091741Y-57742667D01*
X91091741Y-57511156D01*
X91184345Y-57511156D01*
X91878876Y-57511156D01*
X91992224Y-57511156D01*
X92181136Y-57511156D01*
X92181136Y-57047765D01*
X92553405Y-57450038D01*
X92606189Y-57498377D01*
X92664530Y-57511156D01*
X92703424Y-57511156D01*
X92757597Y-57492543D01*
X92775655Y-57436703D01*
X92775655Y-56788844D01*
X92587854Y-56788844D01*
X92587854Y-57210007D01*
X92246700Y-56842184D01*
X92195582Y-56800512D01*
X92128907Y-56788844D01*
X92082235Y-56788844D01*
X92014727Y-56809402D01*
X91992224Y-56871076D01*
X91992224Y-57511156D01*
X91878876Y-57511156D01*
X91878876Y-57324466D01*
X91869986Y-57324466D01*
X91378814Y-57324466D01*
X91378814Y-57225565D01*
X91443266Y-57225565D01*
X91869986Y-57225565D01*
X91869986Y-57071101D01*
X91443266Y-57071101D01*
X91443266Y-57225565D01*
X91378814Y-57225565D01*
X91378814Y-56974422D01*
X91877765Y-56974422D01*
X91877765Y-56788844D01*
X91184345Y-56788844D01*
X91184345Y-57511156D01*
X91091741Y-57511156D01*
X91091741Y-56557333D01*
X91184345Y-56557333D01*
X92775655Y-56557333D01*
X92868259Y-56557333D01*
X92868259Y-57742667D01*
X92775655Y-57742667D01*
X92703424Y-57742667D01*
X91878876Y-57742667D01*
G37*
G36*
X107912333Y-55002072D02*
G01*
X107912333Y-54909468D01*
X109097667Y-54909468D01*
X109097667Y-55002072D01*
X109097667Y-57407928D01*
X109097667Y-57500532D01*
X107912333Y-57500532D01*
X107912333Y-57407928D01*
X107912333Y-57142339D01*
X107912333Y-56947871D01*
X108143844Y-56947871D01*
X108143844Y-57142339D01*
X108680578Y-57142339D01*
X108680578Y-57407928D01*
X108866156Y-57407928D01*
X108866156Y-56682282D01*
X108680578Y-56682282D01*
X108680578Y-56947871D01*
X108143844Y-56947871D01*
X107912333Y-56947871D01*
X107912333Y-56653389D01*
X107912333Y-56407803D01*
X108143844Y-56407803D01*
X108143844Y-56653389D01*
X108519446Y-56333349D01*
X108866156Y-56625608D01*
X108866156Y-56394468D01*
X108647240Y-56210001D01*
X108866156Y-56026644D01*
X108866156Y-55781058D01*
X108520558Y-56072206D01*
X108143844Y-55755499D01*
X108143844Y-55986639D01*
X108392764Y-56194443D01*
X108143844Y-56407803D01*
X107912333Y-56407803D01*
X107912333Y-55696603D01*
X108143844Y-55696603D01*
X108330534Y-55696603D01*
X108330534Y-55687713D01*
X108330534Y-55260993D01*
X108429435Y-55260993D01*
X108429435Y-55687713D01*
X108583899Y-55687713D01*
X108583899Y-55260993D01*
X108429435Y-55260993D01*
X108330534Y-55260993D01*
X108330534Y-55196541D01*
X108680578Y-55196541D01*
X108680578Y-55695492D01*
X108866156Y-55695492D01*
X108866156Y-55002072D01*
X108143844Y-55002072D01*
X108143844Y-55696603D01*
X107912333Y-55696603D01*
X107912333Y-55002072D01*
G37*
G36*
X112733333Y-64033349D02*
G01*
X113064062Y-64033349D01*
X113064062Y-65042999D01*
X113330762Y-65042999D01*
X113330762Y-64311161D01*
X113408550Y-64311161D01*
X113472050Y-64374661D01*
X113472050Y-64727086D01*
X113481575Y-64818544D01*
X113510150Y-64898183D01*
X113557775Y-64966005D01*
X113620922Y-65017599D01*
X113696064Y-65048555D01*
X113783200Y-65058874D01*
X113869631Y-65048555D01*
X113944772Y-65017599D01*
X114008625Y-64966005D01*
X114057132Y-64898183D01*
X114086236Y-64818544D01*
X114095937Y-64727086D01*
X114095937Y-64084149D01*
X113830825Y-64084149D01*
X113830825Y-64715974D01*
X113812569Y-64762011D01*
X113762563Y-64779474D01*
X113711762Y-64762011D01*
X113692712Y-64715974D01*
X113692712Y-64365136D01*
X113683276Y-64274472D01*
X113654965Y-64195097D01*
X113607781Y-64127011D01*
X113509952Y-64056764D01*
X113386325Y-64033349D01*
X113064062Y-64033349D01*
X112733333Y-64033349D01*
X112733333Y-63967203D01*
X112737410Y-63884215D01*
X112749602Y-63802026D01*
X112769791Y-63721428D01*
X112797782Y-63643197D01*
X112833307Y-63568087D01*
X112876022Y-63496820D01*
X112925518Y-63430083D01*
X112981316Y-63368519D01*
X113042880Y-63312721D01*
X113109617Y-63263225D01*
X113180884Y-63220509D01*
X113255995Y-63184985D01*
X113334226Y-63156993D01*
X113414824Y-63136805D01*
X113497012Y-63124613D01*
X113580000Y-63120536D01*
X113662988Y-63124613D01*
X113745176Y-63136805D01*
X113825774Y-63156993D01*
X113904005Y-63184985D01*
X113979116Y-63220509D01*
X114050383Y-63263225D01*
X114117120Y-63312721D01*
X114178684Y-63368519D01*
X114234482Y-63430083D01*
X114283978Y-63496820D01*
X114326693Y-63568087D01*
X114362218Y-63643197D01*
X114390209Y-63721428D01*
X114410398Y-63802026D01*
X114422590Y-63884215D01*
X114426667Y-63967203D01*
X114426667Y-64033349D01*
X114426667Y-65058874D01*
X114426667Y-65125019D01*
X113580000Y-65689464D01*
X112733333Y-65125019D01*
X112733333Y-65058874D01*
X112733333Y-65042999D01*
X112733333Y-64033349D01*
G37*
G36*
X109062442Y-72301667D02*
G01*
X108996297Y-72301667D01*
X108913309Y-72297590D01*
X108831120Y-72285398D01*
X108750522Y-72265209D01*
X108672291Y-72237218D01*
X108597181Y-72201693D01*
X108525914Y-72158978D01*
X108459177Y-72109482D01*
X108397613Y-72053684D01*
X108341814Y-71992120D01*
X108292319Y-71925383D01*
X108249603Y-71854116D01*
X108214079Y-71779005D01*
X108186087Y-71700774D01*
X108165898Y-71620176D01*
X108153707Y-71537988D01*
X108149630Y-71455000D01*
X108153707Y-71372012D01*
X108165898Y-71289824D01*
X108186087Y-71209226D01*
X108187326Y-71205763D01*
X109238936Y-71205763D01*
X109362761Y-71205763D01*
X109444517Y-71236719D01*
X109475474Y-71316888D01*
X109475474Y-71970938D01*
X109753286Y-71970938D01*
X109753286Y-71261325D01*
X109742526Y-71171984D01*
X109710247Y-71094461D01*
X109656449Y-71028756D01*
X109586069Y-70978926D01*
X109504049Y-70949028D01*
X109410386Y-70939063D01*
X109238936Y-70939063D01*
X109238936Y-71205763D01*
X108187326Y-71205763D01*
X108214079Y-71130995D01*
X108249603Y-71055884D01*
X108292319Y-70984617D01*
X108341814Y-70917880D01*
X108397613Y-70856316D01*
X108459177Y-70800518D01*
X108525914Y-70751022D01*
X108597181Y-70708307D01*
X108672291Y-70672782D01*
X108750522Y-70644791D01*
X108831120Y-70624602D01*
X108913309Y-70612410D01*
X108996297Y-70608333D01*
X109062442Y-70608333D01*
X109929780Y-70608333D01*
X109995926Y-70608333D01*
X110560370Y-71455000D01*
X109995926Y-72301667D01*
X109929780Y-72301667D01*
X109753286Y-72301667D01*
X109062442Y-72301667D01*
G37*
G36*
X93518583Y-68601667D02*
G01*
X93452437Y-68601667D01*
X93231950Y-68270937D01*
X93518583Y-68270937D01*
X94264708Y-68270937D01*
X94365602Y-68261942D01*
X94450269Y-68234954D01*
X94518708Y-68189975D01*
X94586573Y-68093931D01*
X94609195Y-67967725D01*
X94599273Y-67880412D01*
X94569508Y-67808975D01*
X94523867Y-67756587D01*
X94466320Y-67726425D01*
X94550458Y-67648637D01*
X94573080Y-67585534D01*
X94580620Y-67510525D01*
X94561769Y-67399202D01*
X94505214Y-67312881D01*
X94409369Y-67257517D01*
X94272645Y-67239062D01*
X93518583Y-67239062D01*
X93518583Y-67496237D01*
X94236133Y-67496237D01*
X94292092Y-67514494D01*
X94310745Y-67569262D01*
X94292092Y-67625222D01*
X94236133Y-67643875D01*
X93529695Y-67643875D01*
X93529695Y-67856600D01*
X94252008Y-67856600D01*
X94311539Y-67878031D01*
X94332970Y-67937562D01*
X94312730Y-67993522D01*
X94252008Y-68012175D01*
X93518583Y-68012175D01*
X93518583Y-68270937D01*
X93231950Y-68270937D01*
X92887992Y-67755000D01*
X93452437Y-66908333D01*
X93518583Y-66908333D01*
X94609195Y-66908333D01*
X94675341Y-66908333D01*
X94758329Y-66912410D01*
X94840517Y-66924602D01*
X94921115Y-66944791D01*
X94999346Y-66972782D01*
X95074457Y-67008307D01*
X95145724Y-67051022D01*
X95212461Y-67100518D01*
X95274025Y-67156316D01*
X95329823Y-67217880D01*
X95379319Y-67284617D01*
X95422034Y-67355884D01*
X95457559Y-67430995D01*
X95485550Y-67509226D01*
X95505739Y-67589824D01*
X95517931Y-67672012D01*
X95522008Y-67755000D01*
X95517931Y-67837988D01*
X95505739Y-67920176D01*
X95485550Y-68000774D01*
X95457559Y-68079005D01*
X95422034Y-68154116D01*
X95379319Y-68225383D01*
X95329823Y-68292120D01*
X95274025Y-68353684D01*
X95212461Y-68409482D01*
X95145724Y-68458978D01*
X95074457Y-68501693D01*
X94999346Y-68537218D01*
X94921115Y-68565209D01*
X94840517Y-68585398D01*
X94758329Y-68597590D01*
X94675341Y-68601667D01*
X94609195Y-68601667D01*
X94264708Y-68601667D01*
X93518583Y-68601667D01*
G37*
G36*
X95595170Y-72251667D02*
G01*
X95529024Y-72251667D01*
X94964580Y-71405000D01*
X95005855Y-71343087D01*
X95595170Y-71343087D01*
X95606018Y-71433310D01*
X95638562Y-71511362D01*
X95692801Y-71577244D01*
X95763798Y-71627074D01*
X95846613Y-71656972D01*
X95941245Y-71666937D01*
X96296845Y-71666937D01*
X96296845Y-71920937D01*
X96574658Y-71920937D01*
X96574658Y-71666937D01*
X96682608Y-71666937D01*
X96682608Y-71414525D01*
X96574658Y-71414525D01*
X96574658Y-70889062D01*
X96296845Y-70889062D01*
X96296845Y-71414525D01*
X95987283Y-71414525D01*
X95906320Y-71383569D01*
X95874570Y-71300225D01*
X95874570Y-70889062D01*
X95595170Y-70889062D01*
X95595170Y-71343087D01*
X95005855Y-71343087D01*
X95529024Y-70558333D01*
X95595170Y-70558333D01*
X96682608Y-70558333D01*
X96748753Y-70558333D01*
X96831741Y-70562410D01*
X96913930Y-70574602D01*
X96994528Y-70594791D01*
X97072759Y-70622782D01*
X97147869Y-70658307D01*
X97219136Y-70701022D01*
X97285873Y-70750518D01*
X97347437Y-70806316D01*
X97403236Y-70867880D01*
X97452731Y-70934617D01*
X97495447Y-71005884D01*
X97530971Y-71080995D01*
X97558963Y-71159226D01*
X97579152Y-71239824D01*
X97591343Y-71322012D01*
X97595420Y-71405000D01*
X97591343Y-71487988D01*
X97579152Y-71570176D01*
X97558963Y-71650774D01*
X97530971Y-71729005D01*
X97495447Y-71804116D01*
X97452731Y-71875383D01*
X97403236Y-71942120D01*
X97347437Y-72003684D01*
X97285873Y-72059482D01*
X97219136Y-72108978D01*
X97147869Y-72151693D01*
X97072759Y-72187218D01*
X96994528Y-72215209D01*
X96913930Y-72235398D01*
X96831741Y-72247590D01*
X96748753Y-72251667D01*
X96682608Y-72251667D01*
X96574658Y-72251667D01*
X95595170Y-72251667D01*
G37*
G36*
X95267258Y-79223525D02*
G01*
X95267258Y-79901705D01*
X95267258Y-80690375D01*
X95267258Y-81464860D01*
X95267258Y-81729443D01*
X93842742Y-82156798D01*
X93842742Y-81729443D01*
X93842742Y-81464860D01*
X93842742Y-80856745D01*
X94113675Y-80856745D01*
X94124152Y-80949138D01*
X94150505Y-81035815D01*
X94190986Y-81114238D01*
X94243850Y-81181865D01*
X94308144Y-81237428D01*
X94382915Y-81279655D01*
X94466418Y-81306325D01*
X94556905Y-81315215D01*
X94647710Y-81306166D01*
X94732165Y-81279020D01*
X94808206Y-81235999D01*
X94873770Y-81179325D01*
X94927586Y-81110110D01*
X94968385Y-81029465D01*
X94994103Y-80939613D01*
X95002675Y-80842775D01*
X95002675Y-80690375D01*
X94979180Y-80634495D01*
X94927110Y-80615445D01*
X94875040Y-80633860D01*
X94851545Y-80690375D01*
X94851545Y-80831345D01*
X94840750Y-80926754D01*
X94808365Y-81004700D01*
X94759629Y-81065184D01*
X94699780Y-81108205D01*
X94631676Y-81133923D01*
X94558175Y-81142495D01*
X94484674Y-81134240D01*
X94416570Y-81109475D01*
X94356721Y-81067883D01*
X94307985Y-81009145D01*
X94275600Y-80933898D01*
X94264805Y-80842775D01*
X94264805Y-80690375D01*
X94241310Y-80633860D01*
X94189240Y-80615445D01*
X94137170Y-80634495D01*
X94113675Y-80690375D01*
X94113675Y-80856745D01*
X93842742Y-80856745D01*
X93842742Y-80433835D01*
X94113675Y-80433835D01*
X94133360Y-80487810D01*
X94191145Y-80512575D01*
X94925205Y-80512575D01*
X94983625Y-80489080D01*
X95002675Y-80436375D01*
X94982990Y-80382400D01*
X94925205Y-80357635D01*
X94633105Y-80357635D01*
X94601355Y-80259845D01*
X94592465Y-80168405D01*
X94598180Y-80093475D01*
X94610880Y-80033785D01*
X94624850Y-79994415D01*
X94634375Y-79980445D01*
X94925205Y-79980445D01*
X94982990Y-79955680D01*
X95002675Y-79901705D01*
X94982990Y-79848365D01*
X94925205Y-79824235D01*
X94191145Y-79824235D01*
X94132725Y-79848365D01*
X94113675Y-79901705D01*
X94132725Y-79955680D01*
X94191145Y-79980445D01*
X94481975Y-79980445D01*
X94479435Y-79994415D01*
X94471180Y-80033150D01*
X94462290Y-80092840D01*
X94457845Y-80170945D01*
X94463560Y-80258575D01*
X94483245Y-80357635D01*
X94191145Y-80357635D01*
X94132725Y-80381130D01*
X94113675Y-80433835D01*
X93842742Y-80433835D01*
X93842742Y-79462285D01*
X94107325Y-79462285D01*
X94115580Y-79498480D01*
X94138440Y-79527055D01*
X94172095Y-79542295D01*
X94212735Y-79535945D01*
X94269250Y-79517530D01*
X94327035Y-79510545D01*
X94384185Y-79514673D01*
X94438795Y-79529595D01*
X94489912Y-79554360D01*
X94536585Y-79588015D01*
X94576908Y-79629925D01*
X94608975Y-79679455D01*
X94649615Y-79713745D01*
X94706765Y-79720095D01*
X94758200Y-79697870D01*
X94780425Y-79645165D01*
X94780425Y-79299725D01*
X94917585Y-79299725D01*
X94976005Y-79276230D01*
X94995055Y-79223525D01*
X94975370Y-79169550D01*
X94917585Y-79144785D01*
X94530235Y-79144785D01*
X94471815Y-79168915D01*
X94452765Y-79222255D01*
X94471815Y-79275595D01*
X94530235Y-79299725D01*
X94628025Y-79299725D01*
X94628025Y-79459745D01*
X94577384Y-79422915D01*
X94521980Y-79393705D01*
X94463084Y-79372591D01*
X94401965Y-79360050D01*
X94339418Y-79356081D01*
X94276235Y-79360685D01*
X94213688Y-79374020D01*
X94153045Y-79396245D01*
X94118120Y-79424820D01*
X94107325Y-79462285D01*
X93842742Y-79462285D01*
X93842742Y-78995140D01*
X93842742Y-78730557D01*
X93842742Y-78303202D01*
X95267258Y-78730557D01*
X95267258Y-78995140D01*
X95267258Y-79223525D01*
G37*
G36*
X95785038Y-75443235D02*
G01*
X95785038Y-75902975D01*
X95785038Y-76691645D01*
X95785038Y-77464860D01*
X95785038Y-77729443D01*
X95785038Y-78167466D01*
X94324962Y-77729443D01*
X94324962Y-77464860D01*
X94324962Y-76858015D01*
X94620025Y-76858015D01*
X94630503Y-76950407D01*
X94656855Y-77037085D01*
X94697336Y-77115507D01*
X94750200Y-77183135D01*
X94814494Y-77238697D01*
X94889265Y-77280925D01*
X94972767Y-77307595D01*
X95063255Y-77316485D01*
X95154060Y-77307436D01*
X95238515Y-77280290D01*
X95314556Y-77237269D01*
X95380120Y-77180595D01*
X95433936Y-77111380D01*
X95474735Y-77030735D01*
X95500453Y-76940882D01*
X95509025Y-76844045D01*
X95509025Y-76691645D01*
X95485530Y-76635765D01*
X95433460Y-76616715D01*
X95381390Y-76635130D01*
X95357895Y-76691645D01*
X95357895Y-76832615D01*
X95347100Y-76928024D01*
X95314715Y-77005970D01*
X95265979Y-77066454D01*
X95206130Y-77109475D01*
X95138026Y-77135192D01*
X95064525Y-77143765D01*
X94991024Y-77135510D01*
X94922920Y-77110745D01*
X94863071Y-77069152D01*
X94814335Y-77010415D01*
X94781950Y-76935167D01*
X94771155Y-76844045D01*
X94771155Y-76691645D01*
X94747660Y-76635130D01*
X94695590Y-76616715D01*
X94643520Y-76635765D01*
X94620025Y-76691645D01*
X94620025Y-76858015D01*
X94324962Y-76858015D01*
X94324962Y-76435105D01*
X94620025Y-76435105D01*
X94639710Y-76489080D01*
X94697495Y-76513845D01*
X95431555Y-76513845D01*
X95489975Y-76490350D01*
X95509025Y-76437645D01*
X95489340Y-76383670D01*
X95431555Y-76358905D01*
X95139455Y-76358905D01*
X95107705Y-76261115D01*
X95098815Y-76169675D01*
X95104530Y-76094745D01*
X95117230Y-76035055D01*
X95131200Y-75995685D01*
X95140725Y-75981715D01*
X95431555Y-75981715D01*
X95489340Y-75956950D01*
X95509025Y-75902975D01*
X95489340Y-75849635D01*
X95431555Y-75825505D01*
X94697495Y-75825505D01*
X94639075Y-75849635D01*
X94620025Y-75902975D01*
X94639075Y-75956950D01*
X94697495Y-75981715D01*
X94988325Y-75981715D01*
X94985785Y-75995685D01*
X94977530Y-76034420D01*
X94968640Y-76094110D01*
X94964195Y-76172215D01*
X94969910Y-76259845D01*
X94989595Y-76358905D01*
X94697495Y-76358905D01*
X94639075Y-76382400D01*
X94620025Y-76435105D01*
X94324962Y-76435105D01*
X94324962Y-75454665D01*
X94589545Y-75454665D01*
X94607960Y-75551185D01*
X94653680Y-75625480D01*
X94713370Y-75673740D01*
X94773060Y-75692155D01*
X94818780Y-75677550D01*
X94837195Y-75624845D01*
X94822590Y-75565790D01*
X94789570Y-75537215D01*
X94756550Y-75509910D01*
X94741945Y-75454665D01*
X94774330Y-75379735D01*
X94846085Y-75358780D01*
X94917840Y-75385450D01*
X94950225Y-75454665D01*
X94972450Y-75511180D01*
X95020710Y-75529595D01*
X95068970Y-75511180D01*
X95091195Y-75458475D01*
X95102625Y-75391165D01*
X95133740Y-75342270D01*
X95178190Y-75312425D01*
X95229625Y-75302265D01*
X95288045Y-75314965D01*
X95331225Y-75347350D01*
X95358530Y-75393070D01*
X95368055Y-75445775D01*
X95346465Y-75521975D01*
X95277885Y-75575315D01*
X95247405Y-75596905D01*
X95233435Y-75623575D01*
X95229625Y-75643895D01*
X95229625Y-75647705D01*
X95251215Y-75707395D01*
X95305190Y-75723270D01*
X95375040Y-75700410D01*
X95444890Y-75643260D01*
X95498865Y-75556265D01*
X95515058Y-75502607D01*
X95520455Y-75443235D01*
X95513629Y-75376719D01*
X95493150Y-75316870D01*
X95461718Y-75264800D01*
X95422030Y-75221620D01*
X95375040Y-75187648D01*
X95321700Y-75163200D01*
X95264868Y-75149389D01*
X95207400Y-75147325D01*
X95150409Y-75157326D01*
X95095005Y-75179710D01*
X95043570Y-75215111D01*
X94998485Y-75264165D01*
X94913395Y-75214000D01*
X94822590Y-75202570D01*
X94734960Y-75225430D01*
X94660030Y-75278135D01*
X94608595Y-75356240D01*
X94589545Y-75454665D01*
X94324962Y-75454665D01*
X94324962Y-74995140D01*
X94324962Y-74730557D01*
X95785038Y-74292534D01*
X95785038Y-74730557D01*
X95785038Y-74995140D01*
X95785038Y-75443235D01*
G37*
G36*
X111689083Y-77356240D02*
G01*
X111689083Y-77768990D01*
X111689083Y-78557660D01*
X111689083Y-79464860D01*
X111689083Y-79729443D01*
X111689083Y-80154893D01*
X110270917Y-79729443D01*
X110270917Y-79464860D01*
X110270917Y-78724030D01*
X110535500Y-78724030D01*
X110545978Y-78816423D01*
X110572330Y-78903100D01*
X110612811Y-78981523D01*
X110665675Y-79049150D01*
X110729969Y-79104713D01*
X110804740Y-79146940D01*
X110888242Y-79173610D01*
X110978730Y-79182500D01*
X111069535Y-79173451D01*
X111153990Y-79146305D01*
X111230031Y-79103284D01*
X111295595Y-79046610D01*
X111349411Y-78977395D01*
X111390210Y-78896750D01*
X111415928Y-78806898D01*
X111424500Y-78710060D01*
X111424500Y-78557660D01*
X111401005Y-78501780D01*
X111348935Y-78482730D01*
X111296865Y-78501145D01*
X111273370Y-78557660D01*
X111273370Y-78698630D01*
X111262575Y-78794039D01*
X111230190Y-78871985D01*
X111181454Y-78932469D01*
X111121605Y-78975490D01*
X111053501Y-79001208D01*
X110980000Y-79009780D01*
X110906499Y-79001525D01*
X110838395Y-78976760D01*
X110778546Y-78935168D01*
X110729810Y-78876430D01*
X110697425Y-78801183D01*
X110686630Y-78710060D01*
X110686630Y-78557660D01*
X110663135Y-78501145D01*
X110611065Y-78482730D01*
X110558995Y-78501780D01*
X110535500Y-78557660D01*
X110535500Y-78724030D01*
X110270917Y-78724030D01*
X110270917Y-78301120D01*
X110535500Y-78301120D01*
X110555185Y-78355095D01*
X110612970Y-78379860D01*
X111347030Y-78379860D01*
X111405450Y-78356365D01*
X111424500Y-78303660D01*
X111404815Y-78249685D01*
X111347030Y-78224920D01*
X111054930Y-78224920D01*
X111023180Y-78127130D01*
X111014290Y-78035690D01*
X111020005Y-77960760D01*
X111032705Y-77901070D01*
X111046675Y-77861700D01*
X111056200Y-77847730D01*
X111347030Y-77847730D01*
X111404815Y-77822965D01*
X111424500Y-77768990D01*
X111404815Y-77715650D01*
X111347030Y-77691520D01*
X110612970Y-77691520D01*
X110554550Y-77715650D01*
X110535500Y-77768990D01*
X110554550Y-77822965D01*
X110612970Y-77847730D01*
X110903800Y-77847730D01*
X110901260Y-77861700D01*
X110893005Y-77900435D01*
X110884115Y-77960125D01*
X110879670Y-78038230D01*
X110885385Y-78125860D01*
X110905070Y-78224920D01*
X110612970Y-78224920D01*
X110554550Y-78248415D01*
X110535500Y-78301120D01*
X110270917Y-78301120D01*
X110270917Y-77518800D01*
X110543120Y-77518800D01*
X110560900Y-77570235D01*
X110615510Y-77589920D01*
X110663770Y-77575315D01*
X110690440Y-77537850D01*
X110743780Y-77462920D01*
X110832680Y-77432440D01*
X111339410Y-77432440D01*
X111397830Y-77408945D01*
X111416880Y-77356240D01*
X111397195Y-77302265D01*
X111339410Y-77277500D01*
X110832680Y-77277500D01*
X110769656Y-77284803D01*
X110712665Y-77304170D01*
X110662817Y-77332269D01*
X110621225Y-77365765D01*
X110563440Y-77443235D01*
X110543120Y-77518800D01*
X110270917Y-77518800D01*
X110270917Y-76995140D01*
X110270917Y-76730557D01*
X111689083Y-76305107D01*
X111689083Y-76730557D01*
X111689083Y-76995140D01*
X111689083Y-77356240D01*
G37*
G36*
X103692258Y-77236860D02*
G01*
X103692258Y-77911230D01*
X103692258Y-78699900D01*
X103692258Y-79464860D01*
X103692258Y-79729443D01*
X103692258Y-80156798D01*
X102267742Y-79729443D01*
X102267742Y-79464860D01*
X102267742Y-78866270D01*
X102538675Y-78866270D01*
X102549152Y-78958663D01*
X102575505Y-79045340D01*
X102615986Y-79123763D01*
X102668850Y-79191390D01*
X102733144Y-79246953D01*
X102807915Y-79289180D01*
X102891418Y-79315850D01*
X102981905Y-79324740D01*
X103072710Y-79315691D01*
X103157165Y-79288545D01*
X103233206Y-79245524D01*
X103298770Y-79188850D01*
X103352586Y-79119635D01*
X103393385Y-79038990D01*
X103419103Y-78949138D01*
X103427675Y-78852300D01*
X103427675Y-78699900D01*
X103404180Y-78644020D01*
X103352110Y-78624970D01*
X103300040Y-78643385D01*
X103276545Y-78699900D01*
X103276545Y-78840870D01*
X103265750Y-78936279D01*
X103233365Y-79014225D01*
X103184629Y-79074709D01*
X103124780Y-79117730D01*
X103056676Y-79143448D01*
X102983175Y-79152020D01*
X102909674Y-79143765D01*
X102841570Y-79119000D01*
X102781721Y-79077408D01*
X102732985Y-79018670D01*
X102700600Y-78943423D01*
X102689805Y-78852300D01*
X102689805Y-78699900D01*
X102666310Y-78643385D01*
X102614240Y-78624970D01*
X102562170Y-78644020D01*
X102538675Y-78699900D01*
X102538675Y-78866270D01*
X102267742Y-78866270D01*
X102267742Y-78443360D01*
X102538675Y-78443360D01*
X102558360Y-78497335D01*
X102616145Y-78522100D01*
X103350205Y-78522100D01*
X103408625Y-78498605D01*
X103427675Y-78445900D01*
X103407990Y-78391925D01*
X103350205Y-78367160D01*
X103058105Y-78367160D01*
X103026355Y-78269370D01*
X103017465Y-78177930D01*
X103023180Y-78103000D01*
X103035880Y-78043310D01*
X103049850Y-78003940D01*
X103059375Y-77989970D01*
X103350205Y-77989970D01*
X103407990Y-77965205D01*
X103427675Y-77911230D01*
X103407990Y-77857890D01*
X103350205Y-77833760D01*
X102616145Y-77833760D01*
X102557725Y-77857890D01*
X102538675Y-77911230D01*
X102557725Y-77965205D01*
X102616145Y-77989970D01*
X102906975Y-77989970D01*
X102904435Y-78003940D01*
X102896180Y-78042675D01*
X102887290Y-78102365D01*
X102882845Y-78180470D01*
X102888560Y-78268100D01*
X102908245Y-78367160D01*
X102616145Y-78367160D01*
X102557725Y-78390655D01*
X102538675Y-78443360D01*
X102267742Y-78443360D01*
X102267742Y-77597540D01*
X102532325Y-77597540D01*
X102556455Y-77654690D01*
X102609160Y-77673105D01*
X102661230Y-77653420D01*
X102684725Y-77597540D01*
X102684725Y-77432440D01*
X102694885Y-77378465D01*
X102723460Y-77332745D01*
X102767275Y-77301630D01*
X102821885Y-77290200D01*
X102874431Y-77299408D01*
X102917770Y-77324490D01*
X102954600Y-77361638D01*
X102987620Y-77407040D01*
X103017941Y-77458316D01*
X103046675Y-77513085D01*
X103076679Y-77567695D01*
X103110810Y-77618495D01*
X103150021Y-77663263D01*
X103195265Y-77699775D01*
X103249240Y-77724064D01*
X103314645Y-77732160D01*
X103346395Y-77732160D01*
X103399100Y-77710570D01*
X103421325Y-77657230D01*
X103421325Y-77236860D01*
X103397830Y-77180345D01*
X103345760Y-77161930D01*
X103293055Y-77180345D01*
X103268925Y-77236860D01*
X103268925Y-77548010D01*
X103227650Y-77528325D01*
X103193360Y-77480700D01*
X103160975Y-77414660D01*
X103124145Y-77339095D01*
X103077155Y-77263530D01*
X103014925Y-77198125D01*
X102931740Y-77152405D01*
X102880464Y-77139546D01*
X102821885Y-77135260D01*
X102765846Y-77140816D01*
X102712030Y-77157485D01*
X102662500Y-77183996D01*
X102619320Y-77219080D01*
X102583442Y-77262101D01*
X102555820Y-77312425D01*
X102538199Y-77369099D01*
X102532325Y-77431170D01*
X102532325Y-77597540D01*
X102267742Y-77597540D01*
X102267742Y-76995140D01*
X102267742Y-76730557D01*
X103692258Y-76303202D01*
X103692258Y-76730557D01*
X103692258Y-76995140D01*
X103692258Y-77236860D01*
G37*
D12*
X114580000Y-66380000D02*
G75*
G03*
X113880000Y-65680000I-700000J0D01*
G01*
X113880000Y-69780000D02*
G75*
G03*
X114580000Y-69080000I1J699999D01*
G01*
X112580000Y-69080000D02*
G75*
G03*
X113280000Y-69780000I699999J-1D01*
G01*
X113280000Y-65680000D02*
G75*
G03*
X112580000Y-66380000I0J-700000D01*
G01*
X112080000Y-68630000D02*
X112080000Y-69230000D01*
X112380000Y-68930000D02*
X112080000Y-68630000D01*
X113880000Y-69780000D02*
X113280000Y-69780000D01*
X112380000Y-68930000D02*
X112080000Y-69230000D01*
X112580000Y-69130000D02*
X112580000Y-66330000D01*
X113280000Y-65680000D02*
X113880000Y-65680000D01*
X114580000Y-66330000D02*
X114580000Y-69130000D01*
G36*
X116616550Y-53984325D02*
G01*
X117613500Y-53984325D01*
X117613500Y-54625675D01*
X116616550Y-54625675D01*
X116616550Y-55730575D01*
X115943450Y-55730575D01*
X115943450Y-54625675D01*
X114946500Y-54625675D01*
X114946500Y-53984325D01*
X115943450Y-53984325D01*
X115943450Y-52879425D01*
X116616550Y-52879425D01*
X116616550Y-53984325D01*
G37*
G36*
X112724950Y-63364175D02*
G01*
X110985050Y-63364175D01*
X110985050Y-62595825D01*
X112724950Y-62595825D01*
X112724950Y-63364175D01*
G37*
X107205000Y-57230000D02*
G75*
G03*
X107905000Y-56530000I0J700000D01*
G01*
X103805000Y-56530000D02*
G75*
G03*
X104505000Y-57230000I699999J-1D01*
G01*
X104505000Y-55230000D02*
G75*
G03*
X103805000Y-55930000I-1J-699999D01*
G01*
X107905000Y-55930000D02*
G75*
G03*
X107205000Y-55230000I-700000J0D01*
G01*
X104355000Y-57730000D02*
X104955000Y-57730000D01*
X104655000Y-57430000D02*
X104355000Y-57730000D01*
X103805000Y-56530000D02*
X103805000Y-55930000D01*
X104655000Y-57430000D02*
X104955000Y-57730000D01*
X104455000Y-55230000D02*
X107255000Y-55230000D01*
X107905000Y-55930000D02*
X107905000Y-56530000D01*
X107255000Y-57230000D02*
X104455000Y-57230000D01*
X95120580Y-60215000D02*
X94839420Y-60215000D01*
X95120580Y-59195000D02*
X94839420Y-59195000D01*
X97615000Y-54525000D02*
X97615000Y-53195000D01*
X107895000Y-54525000D02*
X107895000Y-51865000D01*
X100215000Y-54525000D02*
X107895000Y-54525000D01*
X100215000Y-51865000D02*
X107895000Y-51865000D01*
X98945000Y-54525000D02*
X97615000Y-54525000D01*
X100215000Y-54525000D02*
X100215000Y-51865000D01*
X87425000Y-56485000D02*
X87425000Y-72785000D01*
X118085000Y-56485000D02*
X118085000Y-72785000D01*
X105470000Y-67320580D02*
X105470000Y-67039420D01*
X106490000Y-67320580D02*
X106490000Y-67039420D01*
X101789420Y-63320000D02*
X102070580Y-63320000D01*
X101789420Y-64340000D02*
X102070580Y-64340000D01*
X106795580Y-64315000D02*
X106514420Y-64315000D01*
X106795580Y-63295000D02*
X106514420Y-63295000D01*
X109145000Y-51795000D02*
X114565000Y-51795000D01*
X109145000Y-60515000D02*
X109145000Y-51795000D01*
X114565000Y-60515000D02*
X114565000Y-51795000D01*
X110445000Y-62215000D02*
X109145000Y-60515000D01*
X113265000Y-62215000D02*
X114565000Y-60515000D01*
X110445000Y-62215000D02*
X113265000Y-62215000D01*
X94055000Y-72855000D02*
X92805000Y-72855000D01*
X87795000Y-73145000D02*
X87795000Y-83265000D01*
X93005000Y-76455000D02*
X93005000Y-79955000D01*
X93005000Y-73155000D02*
X93005000Y-74955000D01*
X87795000Y-83265000D02*
X93765000Y-83265000D01*
X93755000Y-76455000D02*
X93005000Y-76455000D01*
X93005000Y-74955000D02*
X93755000Y-74955000D01*
X93005000Y-81455000D02*
X93005000Y-83255000D01*
X91505000Y-73905000D02*
X88555000Y-73905000D01*
X91505000Y-73155000D02*
X91505000Y-73905000D01*
X93765000Y-73145000D02*
X87795000Y-73145000D01*
X93005000Y-79955000D02*
X93755000Y-79955000D01*
X88555000Y-73905000D02*
X88555000Y-78205000D01*
X93755000Y-73155000D02*
X93005000Y-73155000D01*
X93765000Y-83265000D02*
X93765000Y-73145000D01*
X94055000Y-74105000D02*
X94055000Y-72855000D01*
X93005000Y-83255000D02*
X93755000Y-83255000D01*
X93755000Y-79955000D02*
X93755000Y-76455000D01*
X91505000Y-82505000D02*
X88555000Y-82505000D01*
X91505000Y-83255000D02*
X91505000Y-82505000D01*
X93755000Y-81455000D02*
X93005000Y-81455000D01*
X93755000Y-74955000D02*
X93755000Y-73155000D01*
X93755000Y-83255000D02*
X93755000Y-81455000D01*
X88555000Y-82505000D02*
X88555000Y-78205000D01*
X102055000Y-72855000D02*
X100805000Y-72855000D01*
X95795000Y-73145000D02*
X95795000Y-83265000D01*
X101005000Y-76455000D02*
X101005000Y-79955000D01*
X101005000Y-73155000D02*
X101005000Y-74955000D01*
X95795000Y-83265000D02*
X101765000Y-83265000D01*
X101755000Y-76455000D02*
X101005000Y-76455000D01*
X101005000Y-74955000D02*
X101755000Y-74955000D01*
X101005000Y-81455000D02*
X101005000Y-83255000D01*
X99505000Y-73905000D02*
X96555000Y-73905000D01*
X99505000Y-73155000D02*
X99505000Y-73905000D01*
X101765000Y-73145000D02*
X95795000Y-73145000D01*
X101005000Y-79955000D02*
X101755000Y-79955000D01*
X96555000Y-73905000D02*
X96555000Y-78205000D01*
X101755000Y-73155000D02*
X101005000Y-73155000D01*
X101765000Y-83265000D02*
X101765000Y-73145000D01*
X102055000Y-74105000D02*
X102055000Y-72855000D01*
X101005000Y-83255000D02*
X101755000Y-83255000D01*
X101755000Y-79955000D02*
X101755000Y-76455000D01*
X99505000Y-82505000D02*
X96555000Y-82505000D01*
X99505000Y-83255000D02*
X99505000Y-82505000D01*
X101755000Y-81455000D02*
X101005000Y-81455000D01*
X101755000Y-74955000D02*
X101755000Y-73155000D01*
X101755000Y-83255000D02*
X101755000Y-81455000D01*
X96555000Y-82505000D02*
X96555000Y-78205000D01*
X110005000Y-72855000D02*
X108755000Y-72855000D01*
X103745000Y-73145000D02*
X103745000Y-83265000D01*
X108955000Y-76455000D02*
X108955000Y-79955000D01*
X108955000Y-73155000D02*
X108955000Y-74955000D01*
X103745000Y-83265000D02*
X109715000Y-83265000D01*
X109705000Y-76455000D02*
X108955000Y-76455000D01*
X108955000Y-74955000D02*
X109705000Y-74955000D01*
X108955000Y-81455000D02*
X108955000Y-83255000D01*
X107455000Y-73905000D02*
X104505000Y-73905000D01*
X107455000Y-73155000D02*
X107455000Y-73905000D01*
X109715000Y-73145000D02*
X103745000Y-73145000D01*
X108955000Y-79955000D02*
X109705000Y-79955000D01*
X104505000Y-73905000D02*
X104505000Y-78205000D01*
X109705000Y-73155000D02*
X108955000Y-73155000D01*
X109715000Y-83265000D02*
X109715000Y-73145000D01*
X110005000Y-74105000D02*
X110005000Y-72855000D01*
X108955000Y-83255000D02*
X109705000Y-83255000D01*
X109705000Y-79955000D02*
X109705000Y-76455000D01*
X107455000Y-82505000D02*
X104505000Y-82505000D01*
X107455000Y-83255000D02*
X107455000Y-82505000D01*
X109705000Y-81455000D02*
X108955000Y-81455000D01*
X109705000Y-74955000D02*
X109705000Y-73155000D01*
X109705000Y-83255000D02*
X109705000Y-81455000D01*
X104505000Y-82505000D02*
X104505000Y-78205000D01*
X112505000Y-82505000D02*
X112505000Y-78205000D01*
X117705000Y-83255000D02*
X117705000Y-81455000D01*
X117705000Y-74955000D02*
X117705000Y-73155000D01*
X117705000Y-81455000D02*
X116955000Y-81455000D01*
X115455000Y-83255000D02*
X115455000Y-82505000D01*
X115455000Y-82505000D02*
X112505000Y-82505000D01*
X117705000Y-79955000D02*
X117705000Y-76455000D01*
X116955000Y-83255000D02*
X117705000Y-83255000D01*
X118005000Y-74105000D02*
X118005000Y-72855000D01*
X117715000Y-83265000D02*
X117715000Y-73145000D01*
X117705000Y-73155000D02*
X116955000Y-73155000D01*
X112505000Y-73905000D02*
X112505000Y-78205000D01*
X116955000Y-79955000D02*
X117705000Y-79955000D01*
X117715000Y-73145000D02*
X111745000Y-73145000D01*
X115455000Y-73155000D02*
X115455000Y-73905000D01*
X115455000Y-73905000D02*
X112505000Y-73905000D01*
X116955000Y-81455000D02*
X116955000Y-83255000D01*
X116955000Y-74955000D02*
X117705000Y-74955000D01*
X117705000Y-76455000D02*
X116955000Y-76455000D01*
X111745000Y-83265000D02*
X117715000Y-83265000D01*
X116955000Y-73155000D02*
X116955000Y-74955000D01*
X116955000Y-76455000D02*
X116955000Y-79955000D01*
X111745000Y-73145000D02*
X111745000Y-83265000D01*
X118005000Y-72855000D02*
X116755000Y-72855000D01*
X90980000Y-61205000D02*
G75*
G03*
X91680000Y-61905000I700000J0D01*
G01*
X91680000Y-57805000D02*
G75*
G03*
X90980000Y-58505000I-1J-699999D01*
G01*
X92980000Y-58505000D02*
G75*
G03*
X92280000Y-57805000I-699999J1D01*
G01*
X92280000Y-61905000D02*
G75*
G03*
X92980000Y-61205000I0J700000D01*
G01*
X90480000Y-58355000D02*
X90480000Y-58955000D01*
X90780000Y-58655000D02*
X90480000Y-58355000D01*
X91680000Y-57805000D02*
X92280000Y-57805000D01*
X90780000Y-58655000D02*
X90480000Y-58955000D01*
X92980000Y-58455000D02*
X92980000Y-61255000D01*
X92280000Y-61905000D02*
X91680000Y-61905000D01*
X90980000Y-61255000D02*
X90980000Y-58455000D01*
X94330000Y-72405000D02*
G75*
G03*
X95030000Y-71705000I0J700000D01*
G01*
X90930000Y-71705000D02*
G75*
G03*
X91630000Y-72405000I699999J-1D01*
G01*
X91630000Y-70405000D02*
G75*
G03*
X90930000Y-71105000I-1J-699999D01*
G01*
X95030000Y-71105000D02*
G75*
G03*
X94330000Y-70405000I-700000J0D01*
G01*
X91480000Y-72905000D02*
X92080000Y-72905000D01*
X91780000Y-72605000D02*
X91480000Y-72905000D01*
X90930000Y-71705000D02*
X90930000Y-71105000D01*
X91780000Y-72605000D02*
X92080000Y-72905000D01*
X91580000Y-70405000D02*
X94380000Y-70405000D01*
X95030000Y-71105000D02*
X95030000Y-71705000D01*
X94380000Y-72405000D02*
X91580000Y-72405000D01*
X92937500Y-66405000D02*
G75*
G03*
X92237500Y-65705000I-700000J0D01*
G01*
X92237500Y-69805000D02*
G75*
G03*
X92937500Y-69105000I1J699999D01*
G01*
X90937500Y-69105000D02*
G75*
G03*
X91637500Y-69805000I699999J-1D01*
G01*
X91637500Y-65705000D02*
G75*
G03*
X90937500Y-66405000I0J-700000D01*
G01*
X93437500Y-69255000D02*
X93437500Y-68655000D01*
X93137500Y-68955000D02*
X93437500Y-69255000D01*
X92237500Y-69805000D02*
X91637500Y-69805000D01*
X93137500Y-68955000D02*
X93437500Y-68655000D01*
X90937500Y-69155000D02*
X90937500Y-66355000D01*
X91637500Y-65705000D02*
X92237500Y-65705000D01*
X92937500Y-66355000D02*
X92937500Y-69155000D01*
X113905000Y-72405000D02*
G75*
G03*
X114605000Y-71705000I0J700000D01*
G01*
X110505000Y-71705000D02*
G75*
G03*
X111205000Y-72405000I699999J-1D01*
G01*
X111205000Y-70405000D02*
G75*
G03*
X110505000Y-71105000I-1J-699999D01*
G01*
X114605000Y-71105000D02*
G75*
G03*
X113905000Y-70405000I-700000J0D01*
G01*
X111055000Y-72905000D02*
X111655000Y-72905000D01*
X111355000Y-72605000D02*
X111055000Y-72905000D01*
X110505000Y-71705000D02*
X110505000Y-71105000D01*
X111355000Y-72605000D02*
X111655000Y-72905000D01*
X111155000Y-70405000D02*
X113955000Y-70405000D01*
X114605000Y-71105000D02*
X114605000Y-71705000D01*
X113955000Y-72405000D02*
X111155000Y-72405000D01*
D11*
X98380000Y-62030000D02*
X98155000Y-62030000D01*
X98380000Y-62030000D02*
X98380000Y-65380000D01*
X98155000Y-62030000D02*
X98155000Y-60805000D01*
X95030000Y-65380000D02*
X95330000Y-65380000D01*
X95030000Y-62030000D02*
X95030000Y-65380000D01*
X95030000Y-62030000D02*
X95330000Y-62030000D01*
X98380000Y-65380000D02*
X98080000Y-65380000D01*
D12*
X104305000Y-62840000D02*
X107905000Y-62840000D01*
X104305000Y-57620000D02*
X106505000Y-57620000D01*
X104305000Y-57620000D02*
X102105000Y-57620000D01*
X104305000Y-62840000D02*
X102105000Y-62840000D01*
X104965000Y-66655000D02*
X104965000Y-65855000D01*
X104965000Y-66655000D02*
X104965000Y-67455000D01*
X101845000Y-66655000D02*
X101845000Y-68455000D01*
X101845000Y-66655000D02*
X101845000Y-65855000D01*
X90882500Y-63642742D02*
X90882500Y-64117258D01*
X91927500Y-63642742D02*
X91927500Y-64117258D01*
X93477500Y-63642742D02*
X93477500Y-64117258D01*
X92432500Y-63642742D02*
X92432500Y-64117258D01*
X98732500Y-57642258D02*
X98732500Y-57167742D01*
X99777500Y-57642258D02*
X99777500Y-57167742D01*
X98227500Y-57167742D02*
X98227500Y-57642258D01*
X97182500Y-57167742D02*
X97182500Y-57642258D01*
X95077500Y-57642258D02*
X95077500Y-57167742D01*
X94032500Y-57642258D02*
X94032500Y-57167742D01*
X95632500Y-57167742D02*
X95632500Y-57642258D01*
X96677500Y-57167742D02*
X96677500Y-57642258D01*
X99877500Y-67467258D02*
X99877500Y-66992742D01*
X98832500Y-67467258D02*
X98832500Y-66992742D01*
X100382500Y-67467258D02*
X100382500Y-66992742D01*
X101427500Y-67467258D02*
X101427500Y-66992742D01*
X102167258Y-57152500D02*
X101692742Y-57152500D01*
X102167258Y-56107500D02*
X101692742Y-56107500D01*
X100577936Y-72415000D02*
X104932064Y-72415000D01*
X100577936Y-68995000D02*
X104932064Y-68995000D01*
%LPC*%
D13*
X113580000Y-66430000D03*
D14*
X113580000Y-67730000D03*
D15*
X113580000Y-69030000D03*
D16*
X107155000Y-56230000D03*
D17*
X105855000Y-56230000D03*
D18*
X104555000Y-56230000D03*
D19*
X94205000Y-59705000D03*
X95755000Y-59705000D03*
D20*
X106565000Y-53195000D03*
X104025000Y-53195000D03*
D21*
X116755000Y-58275000D03*
X116755000Y-60815000D03*
X116755000Y-63355000D03*
X116755000Y-65895000D03*
X116755000Y-68435000D03*
X116755000Y-70975000D03*
X88755000Y-70975000D03*
X88755000Y-68435000D03*
X88755000Y-65895000D03*
X88755000Y-63355000D03*
X88755000Y-60815000D03*
X88755000Y-58275000D03*
D20*
X101485000Y-53195000D03*
D22*
X98945000Y-53195000D03*
D23*
X109255000Y-67657500D03*
D24*
X105980000Y-66405000D03*
X105980000Y-67955000D03*
D25*
X102705000Y-63830000D03*
X101155000Y-63830000D03*
D19*
X105880000Y-63805000D03*
X107430000Y-63805000D03*
D26*
X111855000Y-54505000D03*
D27*
X111855000Y-59505000D03*
D28*
X91305000Y-80705000D03*
X91305000Y-78205000D03*
D29*
X91305000Y-75705000D03*
D28*
X99305000Y-80705000D03*
X99305000Y-78205000D03*
D29*
X99305000Y-75705000D03*
D28*
X107255000Y-80705000D03*
X107255000Y-78205000D03*
D29*
X107255000Y-75705000D03*
X115255000Y-75705000D03*
D28*
X115255000Y-78205000D03*
X115255000Y-80705000D03*
D30*
X91980000Y-61155000D03*
D14*
X91980000Y-59855000D03*
D31*
X91980000Y-58555000D03*
D16*
X94280000Y-71405000D03*
D17*
X92980000Y-71405000D03*
D18*
X91680000Y-71405000D03*
D13*
X91937500Y-66455000D03*
D14*
X91937500Y-67755000D03*
D15*
X91937500Y-69055000D03*
D16*
X113855000Y-71405000D03*
D17*
X112555000Y-71405000D03*
D18*
X111255000Y-71405000D03*
D32*
X97705000Y-65905000D03*
X97205000Y-65905000D03*
X96705000Y-65905000D03*
X96205000Y-65905000D03*
X95705000Y-65905000D03*
X95705000Y-61505000D03*
X96205000Y-61505000D03*
X96705000Y-61505000D03*
X97205000Y-61505000D03*
X97705000Y-61505000D03*
D33*
X101442500Y-62180000D03*
X101442500Y-61530000D03*
X101442500Y-60880000D03*
X101442500Y-60230000D03*
X101442500Y-59580000D03*
X101442500Y-58930000D03*
X101442500Y-58280000D03*
X107167500Y-58280000D03*
X107167500Y-58930000D03*
X107167500Y-59580000D03*
X107167500Y-60230000D03*
X107167500Y-60880000D03*
X107167500Y-61530000D03*
X107167500Y-62180000D03*
D34*
X102430000Y-67792500D03*
X103080000Y-67792500D03*
X103730000Y-67792500D03*
X104380000Y-67792500D03*
X104380000Y-65517500D03*
X103730000Y-65517500D03*
X103080000Y-65517500D03*
X102430000Y-65517500D03*
D35*
X91405000Y-63055000D03*
X91405000Y-64705000D03*
X92955000Y-64705000D03*
X92955000Y-63055000D03*
D36*
X99255000Y-56580000D03*
X99255000Y-58230000D03*
D35*
X97705000Y-58230000D03*
X97705000Y-56580000D03*
D36*
X94555000Y-58230000D03*
X94555000Y-56580000D03*
D35*
X96155000Y-56580000D03*
X96155000Y-58230000D03*
D36*
X99355000Y-68055000D03*
X99355000Y-66405000D03*
X100905000Y-66405000D03*
X100905000Y-68055000D03*
D37*
X101105000Y-56630000D03*
X102755000Y-56630000D03*
D38*
X105805000Y-70705000D03*
X99705000Y-70705000D03*
M02*
